<svg width="69" height="44" viewBox="0 0 69 44" fill="none" xmlns="http://www.w3.org/2000/svg">
<path d="M16 43.72C13.32 43.72 11 43.24 9.04 42.28C7.08 41.28 5.46 39.86 4.18 38.02C2.9 36.18 1.94 33.92 1.3 31.24C0.7 28.56 0.4 25.5 0.4 22.06C0.4 18.66 0.7 15.62 1.3 12.94C1.94 10.22 2.9 7.94 4.18 6.1C5.46 4.26 7.08 2.86 9.04 1.9C11 0.899997 13.32 0.399998 16 0.399998C21.32 0.399998 25.24 2.3 27.76 6.1C30.32 9.9 31.6 15.22 31.6 22.06C31.6 28.9 30.32 34.22 27.76 38.02C25.24 41.82 21.32 43.72 16 43.72ZM16 37.06C18.68 37.06 20.54 36.06 21.58 34.06C22.66 32.02 23.2 29.28 23.2 25.84V18.28C23.2 14.84 22.66 12.12 21.58 10.12C20.54 8.08 18.68 7.06 16 7.06C13.32 7.06 11.44 8.08 10.36 10.12C9.32 12.12 8.8 14.84 8.8 18.28V25.84C8.8 29.28 9.32 32.02 10.36 34.06C11.44 36.06 13.32 37.06 16 37.06ZM39.4366 43V36.58H50.9566V6.82H50.4166L41.2966 17.62L36.3766 13.48L46.7566 1.12H58.6966V36.58H68.2966V43H39.4366Z" fill="url(#paint0_linear_5015_11957)"/>
<defs>
<linearGradient id="paint0_linear_5015_11957" x1="34" y1="-23" x2="34" y2="64" gradientUnits="userSpaceOnUse">
<stop stop-color="#F0F0F0"/>
<stop offset="1" stop-color="white"/>
</linearGradient>
</defs>
</svg>
