<svg width="67" height="44" viewBox="0 0 67 44" fill="none" xmlns="http://www.w3.org/2000/svg">
<path d="M16 43.72C13.32 43.72 11 43.24 9.04 42.28C7.08 41.28 5.46 39.86 4.18 38.02C2.9 36.18 1.94 33.92 1.3 31.24C0.7 28.56 0.4 25.5 0.4 22.06C0.4 18.66 0.7 15.62 1.3 12.94C1.94 10.22 2.9 7.94 4.18 6.1C5.46 4.26 7.08 2.86 9.04 1.9C11 0.899997 13.32 0.399998 16 0.399998C21.32 0.399998 25.24 2.3 27.76 6.1C30.32 9.9 31.6 15.22 31.6 22.06C31.6 28.9 30.32 34.22 27.76 38.02C25.24 41.82 21.32 43.72 16 43.72ZM16 37.06C18.68 37.06 20.54 36.06 21.58 34.06C22.66 32.02 23.2 29.28 23.2 25.84V18.28C23.2 14.84 22.66 12.12 21.58 10.12C20.54 8.08 18.68 7.06 16 7.06C13.32 7.06 11.44 8.08 10.36 10.12C9.32 12.12 8.8 14.84 8.8 18.28V25.84C8.8 29.28 9.32 32.02 10.36 34.06C11.44 36.06 13.32 37.06 16 37.06ZM66.7366 43H37.6966V35.68L50.8366 24.16C53.0766 22.2 54.7166 20.44 55.7566 18.88C56.7966 17.28 57.3166 15.56 57.3166 13.72V12.94C57.3166 11.1 56.7166 9.7 55.5166 8.74C54.3166 7.74 52.8566 7.24 51.1366 7.24C48.9766 7.24 47.3366 7.86 46.2166 9.1C45.0966 10.3 44.2966 11.76 43.8166 13.48L36.9766 10.84C37.4166 9.44 38.0366 8.12 38.8366 6.88C39.6366 5.6 40.6366 4.48 41.8366 3.52C43.0766 2.56 44.5166 1.8 46.1566 1.24C47.7966 0.679998 49.6766 0.399998 51.7966 0.399998C53.9966 0.399998 55.9566 0.719998 57.6766 1.36C59.3966 1.96 60.8366 2.82 61.9966 3.94C63.1966 5.06 64.0966 6.38 64.6966 7.9C65.3366 9.42 65.6566 11.08 65.6566 12.88C65.6566 14.64 65.3766 16.24 64.8166 17.68C64.2566 19.12 63.4966 20.5 62.5366 21.82C61.5766 23.1 60.4566 24.34 59.1766 25.54C57.8966 26.7 56.5366 27.88 55.0966 29.08L46.2766 36.34H66.7366V43Z" fill="url(#paint0_linear_5015_11959)"/>
<defs>
<linearGradient id="paint0_linear_5015_11959" x1="34" y1="-23" x2="34" y2="64" gradientUnits="userSpaceOnUse">
<stop stop-color="#F0F0F0"/>
<stop offset="1" stop-color="white"/>
</linearGradient>
</defs>
</svg>
