<svg width="66" height="44" viewBox="0 0 66 44" fill="none" xmlns="http://www.w3.org/2000/svg">
<path d="M16 43.72C13.32 43.72 11 43.24 9.04 42.28C7.08 41.28 5.46 39.86 4.18 38.02C2.9 36.18 1.94 33.92 1.3 31.24C0.7 28.56 0.4 25.5 0.4 22.06C0.4 18.66 0.7 15.62 1.3 12.94C1.94 10.22 2.9 7.94 4.18 6.1C5.46 4.26 7.08 2.86 9.04 1.9C11 0.899997 13.32 0.399998 16 0.399998C21.32 0.399998 25.24 2.3 27.76 6.1C30.32 9.9 31.6 15.22 31.6 22.06C31.6 28.9 30.32 34.22 27.76 38.02C25.24 41.82 21.32 43.72 16 43.72ZM16 37.06C18.68 37.06 20.54 36.06 21.58 34.06C22.66 32.02 23.2 29.28 23.2 25.84V18.28C23.2 14.84 22.66 12.12 21.58 10.12C20.54 8.08 18.68 7.06 16 7.06C13.32 7.06 11.44 8.08 10.36 10.12C9.32 12.12 8.8 14.84 8.8 18.28V25.84C8.8 29.28 9.32 32.02 10.36 34.06C11.44 36.06 13.32 37.06 16 37.06ZM49.6966 18.04C52.0966 18.04 53.8566 17.56 54.9766 16.6C56.1366 15.6 56.7166 14.34 56.7166 12.82V12.4C56.7166 10.68 56.1566 9.34 55.0366 8.38C53.9566 7.38 52.4566 6.88 50.5366 6.88C48.6966 6.88 47.0566 7.32 45.6166 8.2C44.2166 9.08 42.9966 10.32 41.9566 11.92L36.9166 7.36C37.6366 6.4 38.4166 5.5 39.2566 4.66C40.1366 3.78 41.1366 3.04 42.2566 2.44C43.3766 1.8 44.6366 1.3 46.0366 0.939998C47.4366 0.579998 49.0166 0.399998 50.7766 0.399998C52.8966 0.399998 54.8166 0.659998 56.5366 1.18C58.2966 1.66 59.7966 2.38 61.0366 3.34C62.3166 4.3 63.2966 5.46 63.9766 6.82C64.6566 8.14 64.9966 9.64 64.9966 11.32C64.9966 12.68 64.7766 13.9 64.3366 14.98C63.9366 16.06 63.3566 17 62.5966 17.8C61.8766 18.6 61.0166 19.26 60.0166 19.78C59.0566 20.26 58.0366 20.62 56.9566 20.86V21.22C58.1566 21.46 59.2966 21.84 60.3766 22.36C61.4566 22.88 62.3766 23.58 63.1366 24.46C63.9366 25.3 64.5566 26.3 64.9966 27.46C65.4766 28.62 65.7166 29.94 65.7166 31.42C65.7166 33.26 65.3366 34.94 64.5766 36.46C63.8566 37.98 62.8166 39.28 61.4566 40.36C60.0966 41.44 58.4766 42.28 56.5966 42.88C54.7166 43.44 52.6166 43.72 50.2966 43.72C48.2566 43.72 46.4566 43.5 44.8966 43.06C43.3366 42.66 41.9566 42.1 40.7566 41.38C39.5966 40.66 38.5766 39.84 37.6966 38.92C36.8166 37.96 36.0566 36.96 35.4166 35.92L41.2366 31.48C41.7166 32.32 42.2366 33.1 42.7966 33.82C43.3566 34.5 43.9966 35.1 44.7166 35.62C45.4366 36.14 46.2566 36.54 47.1766 36.82C48.0966 37.1 49.1366 37.24 50.2966 37.24C52.6166 37.24 54.3966 36.68 55.6366 35.56C56.8766 34.44 57.4966 32.9 57.4966 30.94V30.52C57.4966 28.6 56.8166 27.14 55.4566 26.14C54.1366 25.14 52.2166 24.64 49.6966 24.64H45.5566V18.04H49.6966Z" fill="url(#paint0_linear_5015_11960)"/>
<defs>
<linearGradient id="paint0_linear_5015_11960" x1="34" y1="-23" x2="34" y2="64" gradientUnits="userSpaceOnUse">
<stop stop-color="#F0F0F0"/>
<stop offset="1" stop-color="white"/>
</linearGradient>
</defs>
</svg>
