<svg width="30" height="43" viewBox="0 0 30 43" fill="none" xmlns="http://www.w3.org/2000/svg">
<path d="M29.4619 43.0004H1.02187V36.5204L14.4019 24.5804C16.5219 22.6604 18.1419 20.8404 19.2619 19.1204C20.4219 17.3604 21.0019 15.5204 21.0019 13.6004V12.8204C21.0019 10.7804 20.3819 9.18039 19.1419 8.02039C17.9419 6.86039 16.3019 6.28039 14.2219 6.28039C13.0619 6.28039 12.0419 6.46039 11.1619 6.82039C10.3219 7.14039 9.58187 7.60039 8.94188 8.20039C8.30188 8.80039 7.76188 9.50039 7.32188 10.3004C6.92188 11.1004 6.60187 11.9604 6.36188 12.8804L0.421875 10.6004C0.861875 9.28039 1.46187 8.02039 2.22188 6.82039C2.98188 5.58039 3.94188 4.48039 5.10188 3.52039C6.26188 2.56039 7.62187 1.80039 9.18188 1.24039C10.7819 0.680391 12.6419 0.400391 14.7619 0.400391C16.8819 0.400391 18.7819 0.720391 20.4619 1.36039C22.1419 1.96039 23.5419 2.82039 24.6619 3.94039C25.8219 5.02039 26.7019 6.32039 27.3019 7.84039C27.9019 9.36039 28.2019 11.0204 28.2019 12.8204C28.2019 14.5004 27.9419 16.0604 27.4219 17.5004C26.9019 18.9404 26.1819 20.3004 25.2619 21.5804C24.3419 22.8604 23.2619 24.0804 22.0219 25.2404C20.8219 26.4004 19.5419 27.5804 18.1819 28.7804L8.34188 37.2404H29.4619V43.0004Z" fill="#F3F3F3"/>
</svg>
