<svg width="31" height="44" viewBox="0 0 31 44" fill="none" xmlns="http://www.w3.org/2000/svg">
<path d="M14.7219 18.3404C17.3219 18.3404 19.2419 17.8004 20.4819 16.7204C21.7219 15.6004 22.3419 14.1804 22.3419 12.4604V12.0404C22.3419 10.1204 21.7419 8.66039 20.5419 7.66039C19.3419 6.62039 17.7219 6.10039 15.6819 6.10039C13.6819 6.10039 11.9819 6.56039 10.5819 7.48039C9.18188 8.36039 8.00187 9.60039 7.04187 11.2004L2.54188 7.30039C3.18187 6.38039 3.90188 5.50039 4.70188 4.66039C5.50187 3.82039 6.44188 3.10039 7.52188 2.50039C8.60188 1.86039 9.82188 1.36039 11.1819 1.00039C12.5419 0.60039 14.1019 0.400391 15.8619 0.400391C17.8219 0.400391 19.6419 0.640391 21.3219 1.12039C23.0019 1.60039 24.4419 2.32039 25.6419 3.28039C26.8419 4.20039 27.7819 5.34039 28.4619 6.70039C29.1419 8.02039 29.4819 9.52039 29.4819 11.2004C29.4819 12.5204 29.2619 13.7204 28.8219 14.8004C28.4219 15.8804 27.8419 16.8404 27.0819 17.6804C26.3619 18.4804 25.5019 19.1404 24.5019 19.6604C23.5419 20.1804 22.5219 20.5604 21.4419 20.8004V21.1004C22.6419 21.3404 23.7619 21.7404 24.8019 22.3004C25.8819 22.8204 26.8219 23.5204 27.6219 24.4004C28.4219 25.2404 29.0419 26.2604 29.4819 27.4604C29.9619 28.6204 30.2019 29.9604 30.2019 31.4804C30.2019 33.3204 29.8419 35.0004 29.1219 36.5204C28.4019 38.0004 27.3819 39.2804 26.0619 40.3604C24.7819 41.4404 23.2219 42.2804 21.3819 42.8804C19.5419 43.4404 17.5019 43.7204 15.2619 43.7204C13.3019 43.7204 11.5819 43.5004 10.1019 43.0604C8.62188 42.6604 7.30188 42.1204 6.14188 41.4404C5.02188 40.7204 4.02188 39.9204 3.14188 39.0404C2.30188 38.1204 1.56187 37.1804 0.921875 36.2204L5.90188 32.3204C6.42188 33.1604 6.96188 33.9404 7.52188 34.6604C8.12188 35.3404 8.78188 35.9404 9.50188 36.4604C10.2619 36.9404 11.1019 37.3204 12.0219 37.6004C12.9819 37.8804 14.0619 38.0204 15.2619 38.0204C17.8219 38.0204 19.7819 37.4204 21.1419 36.2204C22.5019 34.9804 23.1819 33.2804 23.1819 31.1204V30.7004C23.1819 28.5404 22.4619 26.9004 21.0219 25.7804C19.5819 24.6604 17.5419 24.1004 14.9019 24.1004H10.4619V18.3404H14.7219Z" fill="#F3F3F3"/>
</svg>
