<svg width="1920" height="309" viewBox="0 0 1920 309" fill="none" xmlns="http://www.w3.org/2000/svg">
<rect y="0.158203" width="1920" height="294" fill="#FAFAFA"/>
<mask id="mask0_5305_11815" style="mask-type:alpha" maskUnits="userSpaceOnUse" x="0" y="0" width="1920" height="309">
<rect width="1920" height="309" fill="#FAFAFA"/>
</mask>
<g mask="url(#mask0_5305_11815)">
<path d="M203 168.158L-85 170.658V311.158L238 305.158C267.115 262.725 316.534 238.896 367.865 242.54L486.409 250.954C510.54 252.667 534.181 243.552 550.916 226.083L786.5 -19.8418H458.5L325.5 111.658C282.971 154.11 256.787 169.51 203 168.158Z" fill="#F3F4F5"/>
<path d="M1598 229.158L1450.49 230.439C1372.71 231.114 1310 294.366 1310 372.158L1633 366.158C1662.11 323.725 1711.53 299.896 1762.87 303.54L1881.41 311.954C1905.54 313.667 1929.18 304.552 1945.92 287.083L2181.5 41.1582L1934 -3.3418L1720.5 172.658C1677.97 215.11 1651.79 230.51 1598 229.158Z" fill="#F3F4F5"/>
</g>
<circle cx="86" cy="80.1582" r="18" fill="#F3F4F5"/>
<circle cx="814" cy="192.158" r="47" fill="#F3F4F5"/>
<path d="M1320.67 160.852L1323.21 157.74L1319.3 153.158H1311V169.158H1320.38L1324 164.336L1320.67 160.852ZM1317.89 155.673L1319.52 157.776L1318.38 158.693L1316.11 155.673H1317.89ZM1313.46 157.183H1314.12L1316.11 160.027H1313.46V157.183ZM1313.46 166.815C1313.35 166.815 1313.46 163.383 1313.46 163.383H1314.1L1316.46 166.815C1316.46 166.815 1313.58 166.815 1313.46 166.815ZM1319.19 165.914L1316.6 162.35H1318.69L1320.44 164.713L1319.19 165.914Z" fill="white"/>
<g filter="url(#filter0_f_5305_11815)">
<path d="M910.856 74.7924C916.7 64.7737 915.079 52.946 907.236 48.3744C899.393 43.8029 888.299 48.2187 882.455 58.2374C876.612 68.2562 878.233 80.0839 886.076 84.6554C893.918 89.2269 905.013 84.8111 910.856 74.7924Z" fill="#FBB766"/>
<path d="M883.806 83.3331C880.254 81.2621 877.685 77.4981 876.911 72.4916L879.185 73.8173C879.958 78.825 882.527 82.589 886.079 84.6588C885.397 84.2618 884.487 83.7313 883.806 83.3331Z" fill="#FBB766"/>
<path d="M907.242 48.3798C903.524 46.2123 898.731 45.901 893.795 47.9633C884.144 51.9928 877.602 63.5684 879.184 73.8168L876.91 72.4912C875.329 62.2427 881.87 50.6672 891.522 46.6377C896.457 44.5766 901.25 44.8878 904.968 47.0542C905.65 47.4511 906.561 47.9816 907.242 48.3798Z" fill="#FBB766"/>
<path d="M907.409 72.7788C912.541 63.9797 911.117 53.5917 904.229 49.5765C897.34 45.5614 887.596 49.4396 882.464 58.2387C877.332 67.0378 878.756 77.4258 885.644 81.4409C892.532 85.4561 902.277 81.5779 907.409 72.7788Z" fill="url(#paint0_linear_5305_11815)"/>
<path d="M903.68 49.2617C900.416 47.3588 896.205 47.0854 891.871 48.8952C883.394 52.4354 877.648 62.6013 879.038 71.6028C879.717 76.0008 881.973 79.3066 885.092 81.1243L885.639 81.4423C882.52 79.6247 880.263 76.3188 879.584 71.9209C878.195 62.9193 883.94 52.7534 892.417 49.2132C896.752 47.4022 900.962 47.6768 904.226 49.5797L903.68 49.2617Z" fill="url(#paint1_linear_5305_11815)"/>
<path d="M885.094 81.1258C888.359 83.0287 892.57 83.3021 896.904 81.4923C905.38 77.9521 911.126 67.7862 909.737 58.7846C909.057 54.3867 906.801 51.0809 903.682 49.2632L904.228 49.5812C907.347 51.3989 909.604 54.7047 910.283 59.1027C911.672 68.1043 905.927 78.2702 897.45 81.8104C893.115 83.6213 888.905 83.3467 885.641 81.4438C885.477 81.3488 885.259 81.2216 885.094 81.1258Z" fill="#FBB766"/>
<path d="M876.908 72.492C875.327 62.2435 881.868 50.668 891.52 46.6385C901.171 42.609 910.278 47.6492 911.859 57.8977C913.441 68.1462 906.899 79.7217 897.248 83.7512C887.596 87.7807 878.49 82.7405 876.908 72.492ZM879.035 71.6037C880.425 80.6052 888.422 85.0318 896.899 81.4916C905.376 77.9514 911.121 67.7855 909.732 58.784C908.343 49.7824 900.345 45.3558 891.868 48.896C883.391 52.4362 877.646 62.6021 879.035 71.6037Z" fill="url(#paint2_linear_5305_11815)"/>
<path d="M886.077 84.6587L883.804 83.333C887.521 85.5006 892.314 85.8118 897.25 83.7495C906.902 79.72 913.443 68.1445 911.862 57.896C911.089 52.8883 908.52 49.1243 904.967 47.0546L907.241 48.3802C910.793 50.4512 913.362 54.2152 914.135 59.2217C915.717 69.4702 909.175 81.0457 899.524 85.0752C894.588 87.1363 889.796 86.825 886.077 84.6587Z" fill="url(#paint3_linear_5305_11815)"/>
<path d="M909.667 58.3697C909.667 58.3697 909.622 58.1743 909.538 57.8077C909.499 57.6235 909.435 57.3998 909.36 57.1383C909.291 56.8756 909.191 56.5786 909.079 56.2463C908.844 55.5872 908.526 54.7958 908.045 53.9501C907.566 53.1053 906.924 52.2093 906.098 51.3555C906.047 51.3015 905.995 51.2474 905.944 51.1934C905.889 51.1422 905.833 51.091 905.778 51.0399C905.667 50.9368 905.554 50.8329 905.442 50.7277C905.2 50.5351 904.969 50.3214 904.705 50.1408C904.195 49.756 903.625 49.4157 903.018 49.114C902.413 48.8065 901.757 48.5617 901.073 48.3681C900.733 48.2642 900.379 48.1968 900.025 48.1178C899.667 48.0598 899.305 47.9962 898.937 47.9678C897.464 47.8179 895.921 47.9569 894.41 48.3205C894.219 48.3586 894.034 48.4209 893.844 48.4716C893.656 48.5238 893.468 48.5752 893.282 48.6408L892.723 48.8293L892.173 49.0443L892.035 49.0973L891.972 49.1226L891.904 49.1531L891.63 49.2757C891.449 49.3601 891.259 49.435 891.085 49.5253C890.734 49.7025 890.381 49.8768 890.04 50.0791C888.653 50.8511 887.379 51.8205 886.229 52.8799C885.093 53.9561 884.061 55.1129 883.203 56.3363C882.34 57.5553 881.602 58.8051 881.022 60.0478C880.439 61.2894 879.994 62.5134 879.674 63.6673C879.357 64.8227 879.153 65.9061 879.035 66.8743C878.968 67.358 878.945 67.8143 878.913 68.2356C878.901 68.6578 878.88 69.0463 878.893 69.3959C878.896 69.571 878.899 69.7376 878.9 69.8929C878.908 70.0489 878.918 70.1952 878.925 70.3315C878.932 70.4678 878.94 70.5943 878.946 70.7088C878.954 70.8237 878.968 70.9279 878.977 71.0218C879.016 71.3972 879.037 71.5958 879.037 71.5958C879.037 71.5958 879.006 71.3974 878.949 71.0247C878.935 70.9309 878.917 70.8275 878.903 70.7127C878.891 70.5975 878.878 70.471 878.864 70.3353C878.849 70.1996 878.835 70.0533 878.818 69.897C878.81 69.741 878.802 69.5745 878.793 69.3975C878.768 69.0453 878.775 68.6546 878.772 68.2294C878.787 67.8043 878.796 67.3438 878.844 66.8536C878.926 65.8722 879.092 64.7696 879.396 63.5931C879.694 62.4166 880.117 61.1646 880.683 59.891C881.244 58.6155 881.963 57.3245 882.835 56.0763C883.699 54.8233 884.729 53.6206 885.892 52.5186C887.064 51.4301 888.366 50.4316 889.788 49.6341C890.138 49.4288 890.507 49.2477 890.875 49.0639C891.058 48.9706 891.242 48.897 891.425 48.8142L891.699 48.6916L891.767 48.661L891.844 48.6308L891.987 48.5756L892.553 48.3559L893.13 48.1647C893.32 48.0971 893.515 48.0443 893.71 47.9916C893.905 47.9408 894.096 47.8772 894.293 47.8378C895.856 47.4641 897.458 47.3492 898.98 47.5176C899.362 47.5527 899.735 47.6221 900.107 47.6868C900.474 47.7713 900.837 47.8502 901.188 47.9656C901.892 48.181 902.564 48.4499 903.182 48.7797C903.801 49.105 904.38 49.4686 904.898 49.8771C905.166 50.0693 905.4 50.2931 905.643 50.4969C905.757 50.6069 905.87 50.716 905.981 50.8244C906.037 50.8776 906.093 50.9328 906.148 50.9859C906.2 51.042 906.251 51.0993 906.303 51.1553C907.137 52.0453 907.756 52.984 908.21 53.8575C908.667 54.7326 908.96 55.5409 909.171 56.2125C909.221 56.3816 909.268 56.5418 909.313 56.692C909.358 56.8422 909.384 56.9878 909.418 57.1204C909.481 57.3865 909.535 57.6136 909.564 57.7988C909.631 58.1693 909.667 58.3676 909.667 58.3676L909.667 58.3697Z" fill="#FBD678"/>
<path d="M879.039 71.6034C879.039 71.6034 879.081 71.8016 879.156 72.1744C879.19 72.3607 879.248 72.5889 879.317 72.8537C879.353 72.9859 879.386 73.1302 879.431 73.2804C879.477 73.4314 879.526 73.59 879.577 73.7598C879.796 74.4309 880.092 75.2376 880.553 76.1033C881.009 76.9699 881.631 77.8912 882.441 78.7747C883.247 79.6624 884.273 80.4823 885.479 81.1275C886.689 81.7646 888.081 82.2127 889.562 82.387C890.3 82.4825 891.061 82.4973 891.827 82.4511C892.211 82.4373 892.594 82.3815 892.979 82.337C893.362 82.2708 893.748 82.2146 894.13 82.1201C894.515 82.0429 894.891 81.9235 895.273 81.8197C895.647 81.6922 896.027 81.5772 896.394 81.424L896.671 81.3155L896.805 81.2633L896.943 81.2018L897.498 80.9532C897.683 80.87 897.853 80.7752 898.032 80.688C898.208 80.5993 898.387 80.5101 898.558 80.4076L899.081 80.1144L899.59 79.7968C899.762 79.6943 899.927 79.5807 900.091 79.4663C900.254 79.352 900.421 79.2432 900.582 79.1252C901.225 78.6533 901.842 78.1503 902.424 77.6181C903.583 76.5464 904.621 75.3798 905.499 74.1553C906.374 72.9296 907.124 71.674 907.715 70.4234C908.308 69.1736 908.76 67.9406 909.085 66.7782C909.408 65.6142 909.617 64.5223 909.739 63.5471C909.806 63.0602 909.831 62.6003 909.862 62.1749C909.872 61.7499 909.896 61.3577 909.883 61.0049C909.88 60.8278 909.878 60.66 909.876 60.5027C909.867 60.3446 909.859 60.1971 909.852 60.0608C909.839 59.7859 909.824 59.5525 909.798 59.3645C909.759 58.9871 909.737 58.7844 909.737 58.7844C909.737 58.7844 909.769 58.9849 909.826 59.3596C909.858 59.5471 909.884 59.7803 909.911 60.0542C909.925 60.1912 909.94 60.3394 909.956 60.4957C909.965 60.6538 909.972 60.8215 909.982 60.9993C910.008 61.3543 909.998 61.7479 910.003 62.1771C909.985 62.6059 909.976 63.0696 909.926 63.5643C909.841 64.5526 909.67 65.6657 909.362 66.8496C909.059 68.0347 908.627 69.2948 908.053 70.5774C907.479 71.86 906.747 73.1568 905.865 74.4137C905.645 74.7275 905.411 75.0371 905.173 75.3463C904.928 75.6489 904.687 75.9598 904.423 76.2537C903.911 76.8571 903.345 77.4258 902.757 77.9771C902.164 78.5244 901.534 79.0417 900.877 79.5272C900.713 79.65 900.543 79.7617 900.375 79.879C900.208 79.9962 900.038 80.1119 899.864 80.2192L899.343 80.5468L898.807 80.8503C898.629 80.954 898.445 81.0466 898.259 81.1383C898.075 81.2288 897.889 81.329 897.705 81.4111L897.15 81.6576L897.012 81.7191L896.864 81.7776L896.577 81.8891C896.198 82.0449 895.806 82.1626 895.42 82.2926C895.026 82.399 894.638 82.521 894.24 82.598C893.846 82.6939 893.445 82.7524 893.049 82.8173C892.65 82.8596 892.254 82.9119 891.856 82.9236C891.062 82.9641 890.273 82.9385 889.509 82.8317C888.746 82.7249 887.998 82.5735 887.296 82.3282C886.594 82.0881 885.925 81.7998 885.308 81.4538C884.076 80.7606 883.041 79.8932 882.234 78.9669C881.42 78.0475 880.822 77.0831 880.39 76.189C879.954 75.2959 879.683 74.4711 879.488 73.7887C879.442 73.6167 879.397 73.4548 879.356 73.3018C879.317 73.1483 879.292 73.0022 879.262 72.8667C879.205 72.5973 879.158 72.3677 879.133 72.1784C879.075 71.8029 879.043 71.6025 879.043 71.6025L879.039 71.6034Z" fill="#FBD678"/>
<path d="M876.917 72.4904C876.917 72.4904 876.902 72.3768 876.871 72.1562C876.846 71.9355 876.785 71.6101 876.757 71.1796C876.674 70.3235 876.603 69.0545 876.741 67.4489C876.78 67.048 876.813 66.6254 876.883 66.1853C876.937 65.7435 877.024 65.2849 877.112 64.8082C877.306 63.8573 877.564 62.8368 877.915 61.7688C878.627 59.6399 879.706 57.3159 881.284 55.0391C882.859 52.7685 884.919 50.5179 887.533 48.7035C888.836 47.7961 890.266 46.9884 891.821 46.3756C892.014 46.3011 892.207 46.2245 892.401 46.1488C892.6 46.0814 892.801 46.0137 893.002 45.9471L893.303 45.847L893.608 45.7618C893.813 45.7049 894.017 45.6459 894.224 45.5926C895.054 45.3957 895.903 45.2433 896.768 45.164C897.634 45.094 898.512 45.0856 899.392 45.1546C900.27 45.2365 901.15 45.3939 902.012 45.6363C903.737 46.1162 905.373 46.9796 906.791 48.131C907.495 48.7136 908.14 49.371 908.719 50.086C909.299 50.7985 909.813 51.5718 910.242 52.3896C911.116 54.0198 911.685 55.8098 911.991 57.6359C912.596 61.2999 912.155 65.0856 911 68.5337C909.836 71.986 907.993 75.1405 905.695 77.7383C905.128 78.3946 904.517 78.9995 903.899 79.5868C903.266 80.1574 902.629 80.7111 901.953 81.2017C901.287 81.7058 900.592 82.1531 899.893 82.5719C899.184 82.9738 898.474 83.3572 897.744 83.6691C897.015 84.0028 896.287 84.2554 895.545 84.494C894.804 84.7085 894.068 84.8986 893.328 85.0138C892.592 85.147 891.857 85.2012 891.138 85.2341C890.958 85.2342 890.778 85.2342 890.6 85.2351L890.333 85.2361L890.067 85.2222C889.891 85.2122 889.715 85.2029 889.54 85.1936C889.366 85.1786 889.192 85.1564 889.021 85.1378C887.643 84.9864 886.352 84.6206 885.196 84.117C884.038 83.6139 883.015 82.9742 882.15 82.2594C881.28 81.5475 880.562 80.7735 879.97 80.0034C879.376 79.2351 878.927 78.4603 878.559 77.746C877.834 76.3075 877.476 75.0851 877.271 74.2511C877.158 73.8349 877.106 73.5086 877.06 73.2914C877.016 73.0726 876.993 72.9608 876.993 72.9608C876.993 72.9608 877.017 73.0734 877.064 73.2906C877.112 73.5072 877.168 73.8328 877.285 74.2481C877.499 75.0791 877.871 76.2952 878.61 77.7202C878.985 78.4267 879.439 79.1929 880.04 79.9495C880.636 80.7069 881.358 81.4676 882.227 82.1638C883.092 82.8628 884.112 83.4832 885.262 83.9671C886.409 84.4514 887.684 84.8062 889.044 84.9465C889.215 84.9632 889.385 84.9843 889.557 84.9984C889.73 85.0062 889.902 85.0151 890.077 85.0224L890.339 85.0339L890.604 85.0313C890.779 85.0301 890.956 85.0284 891.135 85.0276C891.845 84.9904 892.57 84.9332 893.294 84.796C894.023 84.679 894.75 84.4846 895.479 84.2695C895.659 84.2086 895.84 84.1471 896.021 84.0857C896.203 84.0263 896.385 83.9637 896.565 83.889C896.746 83.8171 896.928 83.746 897.11 83.6741C897.287 83.6051 897.465 83.5171 897.645 83.4391C898.365 83.1262 899.064 82.7434 899.762 82.3416C900.449 81.9222 901.134 81.4771 901.787 80.9736C901.951 80.8487 902.118 80.7262 902.279 80.5965C902.439 80.464 902.599 80.3315 902.759 80.199L903 79.9995L903.234 79.7899C903.39 79.6498 903.546 79.5098 903.702 79.3697C904.311 78.7886 904.915 78.1894 905.474 77.5381C907.741 74.9658 909.556 71.8416 910.699 68.4296C911.832 65.0209 912.257 61.2872 911.656 57.6885C911.358 55.8933 910.804 54.137 909.953 52.5407C909.535 51.7393 909.035 50.9831 908.469 50.2853C907.905 49.5862 907.276 48.9431 906.59 48.3723C905.208 47.2457 903.613 46.3998 901.928 45.9269C901.086 45.6887 900.226 45.5322 899.366 45.4516C898.504 45.3819 897.642 45.3889 896.792 45.4554C895.943 45.5311 895.108 45.6797 894.291 45.8715C894.088 45.924 893.887 45.9813 893.685 46.0366L893.384 46.1197L893.089 46.2164C892.891 46.2813 892.696 46.3458 892.5 46.4103C892.306 46.484 892.112 46.5597 891.919 46.6343C890.383 47.227 888.964 48.0176 887.67 48.9062C885.073 50.6853 883.015 52.904 881.437 55.148C879.86 57.4014 878.76 59.6983 878.026 61.8078C877.666 62.8662 877.397 63.8797 877.192 64.8255C877.1 65.301 877.008 65.7564 876.949 66.1952C876.876 66.6329 876.839 67.0543 876.795 67.4541C876.64 69.0539 876.696 70.322 876.77 71.179C876.794 71.6091 876.85 71.9346 876.873 72.1558C876.901 72.3761 876.915 72.4908 876.915 72.4908L876.917 72.4904Z" fill="#FBD678"/>
<path d="M896.604 62.2687L897.247 57.4505L892.047 55.6354L885.375 61.3647L892.553 77.1346L900.098 70.6552L900.844 63.4043L896.604 62.2687ZM892.046 59.084L894.294 60.0356L893.789 61.7267L890.615 60.3131L892.046 59.084ZM889.16 63.6322L889.688 63.1787L892.564 64.6068L890.436 66.4348L889.16 63.6322ZM893.481 73.1257C893.388 73.2055 891.942 69.7428 891.942 69.7428L892.456 69.3007L895.892 71.0552C895.892 71.0552 893.574 73.0458 893.481 73.1257ZM897.683 68.282L893.999 66.5598L895.679 65.1167L898.154 66.2308L897.683 68.282Z" fill="white"/>
</g>
<defs>
<filter id="filter0_f_5305_11815" x="866.664" y="35.1069" width="57.7031" height="61.3569" filterUnits="userSpaceOnUse" color-interpolation-filters="sRGB">
<feFlood flood-opacity="0" result="BackgroundImageFix"/>
<feBlend mode="normal" in="SourceGraphic" in2="BackgroundImageFix" result="shape"/>
<feGaussianBlur stdDeviation="5" result="effect1_foregroundBlur_5305_11815"/>
</filter>
<linearGradient id="paint0_linear_5305_11815" x1="890.878" y1="50.8848" x2="898.165" y2="76.8373" gradientUnits="userSpaceOnUse">
<stop stop-color="#FFC568"/>
<stop offset="1" stop-color="#F29E63"/>
</linearGradient>
<linearGradient id="paint1_linear_5305_11815" x1="877.86" y1="72.918" x2="906.062" y2="52.0485" gradientUnits="userSpaceOnUse">
<stop stop-color="#CC6637"/>
<stop offset="0.46" stop-color="#F18D4F"/>
<stop offset="1" stop-color="#CC6637"/>
</linearGradient>
<linearGradient id="paint2_linear_5305_11815" x1="878.039" y1="77.3305" x2="910.777" y2="53.1038" gradientUnits="userSpaceOnUse">
<stop stop-color="#FFC568"/>
<stop offset="1" stop-color="#F29E63"/>
</linearGradient>
<linearGradient id="paint3_linear_5305_11815" x1="882.287" y1="81.272" x2="915.003" y2="57.0617" gradientUnits="userSpaceOnUse">
<stop stop-color="#A6532D"/>
<stop offset="1" stop-color="#F18D4F"/>
</linearGradient>
</defs>
</svg>
