<svg width="80" height="80" viewBox="0 0 80 80" fill="none" xmlns="http://www.w3.org/2000/svg">
<path d="M40 80C62.0914 80 80 62.0914 80 40C80 17.9086 62.0914 0 40 0C17.9086 0 0 17.9086 0 40C0 62.0914 17.9086 80 40 80Z" fill="#FAFAFA" fill-opacity="0.980392"/>
<path d="M46.25 52.5H33.75C33.2375 52.5 32.8125 52.075 32.8125 51.5625C32.8125 51.05 33.2375 50.625 33.75 50.625H46.25C46.7625 50.625 47.1875 51.05 47.1875 51.5625C47.1875 52.075 46.7625 52.5 46.25 52.5Z" fill="#71839B"/>
<path d="M50.4383 31.9L45.4383 35.475C44.7758 35.95 43.8258 35.6625 43.5383 34.9L41.1758 28.6C40.7758 27.5125 39.2383 27.5125 38.8383 28.6L36.4633 34.8875C36.1758 35.6625 35.2383 35.95 34.5758 35.4625L29.5758 31.8875C28.5758 31.1875 27.2508 32.175 27.6633 33.3375L32.8633 47.9C33.0383 48.4 33.5133 48.725 34.0383 48.725H45.9508C46.4758 48.725 46.9508 48.3875 47.1258 47.9L52.3258 33.3375C52.7508 32.175 51.4258 31.1875 50.4383 31.9ZM43.1258 43.4375H36.8758C36.3633 43.4375 35.9383 43.0125 35.9383 42.5C35.9383 41.9875 36.3633 41.5625 36.8758 41.5625H43.1258C43.6383 41.5625 44.0633 41.9875 44.0633 42.5C44.0633 43.0125 43.6383 43.4375 43.1258 43.4375Z" fill="#71839B"/>
</svg>
