<svg width="1119" height="283" viewBox="0 0 1119 283" fill="none" xmlns="http://www.w3.org/2000/svg">
<path d="M713.592 12.264V21H712.416V12.264H709.308V11.228H716.7V12.264H713.592ZM717.573 21V13.776H718.693V15.106H718.763C718.893 14.7607 719.127 14.4527 719.463 14.182C719.799 13.9113 720.261 13.776 720.849 13.776H721.283V14.896H720.625C720.018 14.896 719.542 15.0127 719.197 15.246C718.861 15.47 718.693 15.7547 718.693 16.1V21H717.573ZM727.909 21C727.489 21 727.185 20.888 726.999 20.664C726.821 20.44 726.709 20.16 726.663 19.824H726.593C726.434 20.272 726.173 20.608 725.809 20.832C725.445 21.056 725.011 21.168 724.507 21.168C723.741 21.168 723.144 20.972 722.715 20.58C722.295 20.188 722.085 19.656 722.085 18.984C722.085 18.3027 722.332 17.78 722.827 17.416C723.331 17.052 724.11 16.87 725.165 16.87H726.593V16.156C726.593 15.6427 726.453 15.2507 726.173 14.98C725.893 14.7093 725.463 14.574 724.885 14.574C724.446 14.574 724.077 14.672 723.779 14.868C723.489 15.064 723.247 15.3253 723.051 15.652L722.379 15.022C722.575 14.63 722.887 14.2987 723.317 14.028C723.746 13.748 724.287 13.608 724.941 13.608C725.818 13.608 726.499 13.8227 726.985 14.252C727.47 14.6813 727.713 15.2787 727.713 16.044V20.02H728.539V21H727.909ZM724.689 20.216C724.969 20.216 725.225 20.1833 725.459 20.118C725.692 20.0527 725.893 19.9593 726.061 19.838C726.229 19.7167 726.359 19.5767 726.453 19.418C726.546 19.2593 726.593 19.0867 726.593 18.9V17.71H725.109C724.465 17.71 723.993 17.8033 723.695 17.99C723.405 18.1767 723.261 18.4473 723.261 18.802V19.096C723.261 19.4507 723.387 19.726 723.639 19.922C723.9 20.118 724.25 20.216 724.689 20.216ZM734.757 19.824H734.701C734.263 20.72 733.558 21.168 732.587 21.168C732.139 21.168 731.733 21.0793 731.369 20.902C731.005 20.7247 730.693 20.4727 730.431 20.146C730.179 19.8193 729.983 19.4227 729.843 18.956C729.713 18.4893 729.647 17.9667 729.647 17.388C729.647 16.8093 729.713 16.2867 729.843 15.82C729.983 15.3533 730.179 14.9567 730.431 14.63C730.693 14.3033 731.005 14.0513 731.369 13.874C731.733 13.6967 732.139 13.608 732.587 13.608C733.091 13.608 733.521 13.72 733.875 13.944C734.239 14.1587 734.515 14.4947 734.701 14.952H734.757V10.64H735.877V21H734.757V19.824ZM732.895 20.16C733.147 20.16 733.385 20.1273 733.609 20.062C733.843 19.9967 734.043 19.9033 734.211 19.782C734.379 19.6513 734.51 19.4973 734.603 19.32C734.706 19.1333 734.757 18.9233 734.757 18.69V16.002C734.757 15.806 734.706 15.624 734.603 15.456C734.51 15.2787 734.379 15.1293 734.211 15.008C734.043 14.8867 733.843 14.7933 733.609 14.728C733.385 14.6533 733.147 14.616 732.895 14.616C732.261 14.616 731.761 14.8167 731.397 15.218C731.033 15.61 730.851 16.128 730.851 16.772V18.004C730.851 18.648 731.033 19.1707 731.397 19.572C731.761 19.964 732.261 20.16 732.895 20.16ZM740.974 21.168C740.48 21.168 740.032 21.0793 739.63 20.902C739.238 20.7247 738.898 20.4727 738.608 20.146C738.328 19.81 738.109 19.4133 737.95 18.956C737.801 18.4893 737.726 17.9667 737.726 17.388C737.726 16.8187 737.801 16.3007 737.95 15.834C738.109 15.3673 738.328 14.9707 738.608 14.644C738.898 14.308 739.238 14.0513 739.63 13.874C740.032 13.6967 740.48 13.608 740.974 13.608C741.46 13.608 741.894 13.6967 742.276 13.874C742.659 14.0513 742.986 14.2987 743.256 14.616C743.527 14.924 743.732 15.2927 743.872 15.722C744.022 16.1513 744.096 16.6227 744.096 17.136V17.668H738.902V18.004C738.902 18.312 738.949 18.6013 739.042 18.872C739.145 19.1333 739.285 19.362 739.462 19.558C739.649 19.754 739.873 19.908 740.134 20.02C740.405 20.132 740.708 20.188 741.044 20.188C741.502 20.188 741.898 20.0807 742.234 19.866C742.58 19.6513 742.846 19.3433 743.032 18.942L743.83 19.516C743.597 20.0107 743.233 20.412 742.738 20.72C742.244 21.0187 741.656 21.168 740.974 21.168ZM740.974 14.546C740.666 14.546 740.386 14.602 740.134 14.714C739.882 14.8167 739.663 14.966 739.476 15.162C739.299 15.358 739.159 15.5913 739.056 15.862C738.954 16.1233 738.902 16.4127 738.902 16.73V16.828H742.892V16.674C742.892 16.03 742.715 15.5167 742.36 15.134C742.015 14.742 741.553 14.546 740.974 14.546ZM749.363 21V11.228H755.187V12.264H750.539V15.54H754.781V16.576H750.539V21H749.363ZM759.431 21.168C758.937 21.168 758.489 21.0793 758.087 20.902C757.695 20.7247 757.355 20.4727 757.065 20.146C756.785 19.81 756.566 19.4133 756.407 18.956C756.258 18.4893 756.183 17.9667 756.183 17.388C756.183 16.8187 756.258 16.3007 756.407 15.834C756.566 15.3673 756.785 14.9707 757.065 14.644C757.355 14.308 757.695 14.0513 758.087 13.874C758.489 13.6967 758.937 13.608 759.431 13.608C759.917 13.608 760.351 13.6967 760.733 13.874C761.116 14.0513 761.443 14.2987 761.713 14.616C761.984 14.924 762.189 15.2927 762.329 15.722C762.479 16.1513 762.553 16.6227 762.553 17.136V17.668H757.359V18.004C757.359 18.312 757.406 18.6013 757.499 18.872C757.602 19.1333 757.742 19.362 757.919 19.558C758.106 19.754 758.33 19.908 758.591 20.02C758.862 20.132 759.165 20.188 759.501 20.188C759.959 20.188 760.355 20.0807 760.691 19.866C761.037 19.6513 761.303 19.3433 761.489 18.942L762.287 19.516C762.054 20.0107 761.69 20.412 761.195 20.72C760.701 21.0187 760.113 21.168 759.431 21.168ZM759.431 14.546C759.123 14.546 758.843 14.602 758.591 14.714C758.339 14.8167 758.12 14.966 757.933 15.162C757.756 15.358 757.616 15.5913 757.513 15.862C757.411 16.1233 757.359 16.4127 757.359 16.73V16.828H761.349V16.674C761.349 16.03 761.172 15.5167 760.817 15.134C760.472 14.742 760.01 14.546 759.431 14.546ZM767.115 21.168C766.62 21.168 766.172 21.0793 765.771 20.902C765.379 20.7247 765.038 20.4727 764.749 20.146C764.469 19.81 764.25 19.4133 764.091 18.956C763.942 18.4893 763.867 17.9667 763.867 17.388C763.867 16.8187 763.942 16.3007 764.091 15.834C764.25 15.3673 764.469 14.9707 764.749 14.644C765.038 14.308 765.379 14.0513 765.771 13.874C766.172 13.6967 766.62 13.608 767.115 13.608C767.6 13.608 768.034 13.6967 768.417 13.874C768.8 14.0513 769.126 14.2987 769.397 14.616C769.668 14.924 769.873 15.2927 770.013 15.722C770.162 16.1513 770.237 16.6227 770.237 17.136V17.668H765.043V18.004C765.043 18.312 765.09 18.6013 765.183 18.872C765.286 19.1333 765.426 19.362 765.603 19.558C765.79 19.754 766.014 19.908 766.275 20.02C766.546 20.132 766.849 20.188 767.185 20.188C767.642 20.188 768.039 20.0807 768.375 19.866C768.72 19.6513 768.986 19.3433 769.173 18.942L769.971 19.516C769.738 20.0107 769.374 20.412 768.879 20.72C768.384 21.0187 767.796 21.168 767.115 21.168ZM767.115 14.546C766.807 14.546 766.527 14.602 766.275 14.714C766.023 14.8167 765.804 14.966 765.617 15.162C765.44 15.358 765.3 15.5913 765.197 15.862C765.094 16.1233 765.043 16.4127 765.043 16.73V16.828H769.033V16.674C769.033 16.03 768.856 15.5167 768.501 15.134C768.156 14.742 767.694 14.546 767.115 14.546Z" fill="#081131"/>
<path d="M779.441 12.78C780.308 12.78 780.948 12.6 781.361 12.24C781.775 11.8667 781.981 11.3933 781.981 10.82V10.68C781.981 10.04 781.781 9.55333 781.381 9.22C780.981 8.87333 780.441 8.7 779.761 8.7C779.095 8.7 778.528 8.85333 778.061 9.16C777.595 9.45333 777.201 9.86667 776.881 10.4L775.381 9.1C775.595 8.79333 775.835 8.5 776.101 8.22C776.368 7.94 776.681 7.7 777.041 7.5C777.401 7.28667 777.808 7.12 778.261 7C778.715 6.86667 779.235 6.8 779.821 6.8C780.475 6.8 781.081 6.88 781.641 7.04C782.201 7.2 782.681 7.44 783.081 7.76C783.481 8.06667 783.795 8.44667 784.021 8.9C784.248 9.34 784.361 9.84 784.361 10.4C784.361 10.84 784.288 11.24 784.141 11.6C784.008 11.96 783.815 12.28 783.561 12.56C783.321 12.8267 783.035 13.0467 782.701 13.22C782.381 13.3933 782.041 13.52 781.681 13.6V13.7C782.081 13.78 782.455 13.9133 782.801 14.1C783.161 14.2733 783.475 14.5067 783.741 14.8C784.008 15.08 784.215 15.42 784.361 15.82C784.521 16.2067 784.601 16.6533 784.601 17.16C784.601 17.7733 784.481 18.3333 784.241 18.84C784.001 19.3333 783.661 19.76 783.221 20.12C782.795 20.48 782.275 20.76 781.661 20.96C781.048 21.1467 780.368 21.24 779.621 21.24C778.968 21.24 778.395 21.1667 777.901 21.02C777.408 20.8867 776.968 20.7067 776.581 20.48C776.208 20.24 775.875 19.9733 775.581 19.68C775.301 19.3733 775.055 19.06 774.841 18.74L776.501 17.44C776.675 17.72 776.855 17.98 777.041 18.22C777.241 18.4467 777.461 18.6467 777.701 18.82C777.955 18.98 778.235 19.1067 778.541 19.2C778.861 19.2933 779.221 19.34 779.621 19.34C780.475 19.34 781.128 19.14 781.581 18.74C782.035 18.3267 782.261 17.76 782.261 17.04V16.9C782.261 16.18 782.021 15.6333 781.541 15.26C781.061 14.8867 780.381 14.7 779.501 14.7H778.021V12.78H779.441ZM796.353 9H790.153L789.793 13.94H789.933C790.093 13.66 790.26 13.4133 790.433 13.2C790.607 12.9733 790.807 12.78 791.033 12.62C791.26 12.46 791.52 12.34 791.813 12.26C792.107 12.1667 792.453 12.12 792.853 12.12C793.453 12.12 794.007 12.22 794.513 12.42C795.033 12.62 795.48 12.9067 795.853 13.28C796.24 13.6533 796.54 14.1133 796.753 14.66C796.967 15.1933 797.073 15.8 797.073 16.48C797.073 17.1733 796.96 17.8133 796.733 18.4C796.52 18.9867 796.2 19.4933 795.773 19.92C795.347 20.3333 794.82 20.66 794.193 20.9C793.58 21.1267 792.88 21.24 792.093 21.24C791.467 21.24 790.913 21.1667 790.433 21.02C789.953 20.8867 789.527 20.7067 789.153 20.48C788.793 20.24 788.473 19.9733 788.193 19.68C787.927 19.3733 787.687 19.06 787.473 18.74L789.113 17.44C789.287 17.72 789.467 17.9733 789.653 18.2C789.84 18.4267 790.053 18.6267 790.293 18.8C790.533 18.9733 790.8 19.1067 791.093 19.2C791.4 19.2933 791.747 19.34 792.133 19.34C792.96 19.34 793.593 19.1133 794.033 18.66C794.487 18.2067 794.713 17.58 794.713 16.78V16.54C794.713 15.74 794.487 15.1133 794.033 14.66C793.593 14.2067 792.96 13.98 792.133 13.98C791.533 13.98 791.053 14.0933 790.693 14.32C790.333 14.5467 790.027 14.8 789.773 15.08L787.913 14.82L788.433 7.04H796.353V9ZM801.806 21L811.486 7.04H813.506L803.826 21H801.806ZM802.706 14.72C801.626 14.72 800.799 14.3867 800.226 13.72C799.652 13.04 799.366 12.0533 799.366 10.76C799.366 9.46667 799.652 8.48667 800.226 7.82C800.799 7.14 801.626 6.8 802.706 6.8C803.786 6.8 804.612 7.14 805.186 7.82C805.759 8.48667 806.046 9.46667 806.046 10.76C806.046 12.0533 805.759 13.04 805.186 13.72C804.612 14.3867 803.786 14.72 802.706 14.72ZM802.706 13.38C803.652 13.38 804.126 12.6933 804.126 11.32V10.2C804.126 8.82667 803.652 8.14 802.706 8.14C801.759 8.14 801.286 8.82667 801.286 10.2V11.32C801.286 12.6933 801.759 13.38 802.706 13.38ZM812.606 21.24C811.526 21.24 810.699 20.9067 810.126 20.24C809.552 19.56 809.266 18.5733 809.266 17.28C809.266 15.9867 809.552 15.0067 810.126 14.34C810.699 13.66 811.526 13.32 812.606 13.32C813.686 13.32 814.512 13.66 815.086 14.34C815.659 15.0067 815.946 15.9867 815.946 17.28C815.946 18.5733 815.659 19.56 815.086 20.24C814.512 20.9067 813.686 21.24 812.606 21.24ZM812.606 19.9C813.552 19.9 814.026 19.2133 814.026 17.84V16.72C814.026 15.3467 813.552 14.66 812.606 14.66C811.659 14.66 811.186 15.3467 811.186 16.72V17.84C811.186 19.2133 811.659 19.9 812.606 19.9Z" fill="#FFA500"/>
<path d="M276.592 12.264V21H275.416V12.264H272.308V11.228H279.7V12.264H276.592ZM280.573 21V13.776H281.693V15.106H281.763C281.893 14.7607 282.127 14.4527 282.463 14.182C282.799 13.9113 283.261 13.776 283.849 13.776H284.283V14.896H283.625C283.018 14.896 282.542 15.0127 282.197 15.246C281.861 15.47 281.693 15.7547 281.693 16.1V21H280.573ZM290.909 21C290.489 21 290.185 20.888 289.999 20.664C289.821 20.44 289.709 20.16 289.663 19.824H289.593C289.434 20.272 289.173 20.608 288.809 20.832C288.445 21.056 288.011 21.168 287.507 21.168C286.741 21.168 286.144 20.972 285.715 20.58C285.295 20.188 285.085 19.656 285.085 18.984C285.085 18.3027 285.332 17.78 285.827 17.416C286.331 17.052 287.11 16.87 288.165 16.87H289.593V16.156C289.593 15.6427 289.453 15.2507 289.173 14.98C288.893 14.7093 288.463 14.574 287.885 14.574C287.446 14.574 287.077 14.672 286.779 14.868C286.489 15.064 286.247 15.3253 286.051 15.652L285.379 15.022C285.575 14.63 285.887 14.2987 286.317 14.028C286.746 13.748 287.287 13.608 287.941 13.608C288.818 13.608 289.499 13.8227 289.985 14.252C290.47 14.6813 290.713 15.2787 290.713 16.044V20.02H291.539V21H290.909ZM287.689 20.216C287.969 20.216 288.225 20.1833 288.459 20.118C288.692 20.0527 288.893 19.9593 289.061 19.838C289.229 19.7167 289.359 19.5767 289.453 19.418C289.546 19.2593 289.593 19.0867 289.593 18.9V17.71H288.109C287.465 17.71 286.993 17.8033 286.695 17.99C286.405 18.1767 286.261 18.4473 286.261 18.802V19.096C286.261 19.4507 286.387 19.726 286.639 19.922C286.9 20.118 287.25 20.216 287.689 20.216ZM297.757 19.824H297.701C297.263 20.72 296.558 21.168 295.587 21.168C295.139 21.168 294.733 21.0793 294.369 20.902C294.005 20.7247 293.693 20.4727 293.431 20.146C293.179 19.8193 292.983 19.4227 292.843 18.956C292.713 18.4893 292.647 17.9667 292.647 17.388C292.647 16.8093 292.713 16.2867 292.843 15.82C292.983 15.3533 293.179 14.9567 293.431 14.63C293.693 14.3033 294.005 14.0513 294.369 13.874C294.733 13.6967 295.139 13.608 295.587 13.608C296.091 13.608 296.521 13.72 296.875 13.944C297.239 14.1587 297.515 14.4947 297.701 14.952H297.757V10.64H298.877V21H297.757V19.824ZM295.895 20.16C296.147 20.16 296.385 20.1273 296.609 20.062C296.843 19.9967 297.043 19.9033 297.211 19.782C297.379 19.6513 297.51 19.4973 297.603 19.32C297.706 19.1333 297.757 18.9233 297.757 18.69V16.002C297.757 15.806 297.706 15.624 297.603 15.456C297.51 15.2787 297.379 15.1293 297.211 15.008C297.043 14.8867 296.843 14.7933 296.609 14.728C296.385 14.6533 296.147 14.616 295.895 14.616C295.261 14.616 294.761 14.8167 294.397 15.218C294.033 15.61 293.851 16.128 293.851 16.772V18.004C293.851 18.648 294.033 19.1707 294.397 19.572C294.761 19.964 295.261 20.16 295.895 20.16ZM303.974 21.168C303.48 21.168 303.032 21.0793 302.63 20.902C302.238 20.7247 301.898 20.4727 301.608 20.146C301.328 19.81 301.109 19.4133 300.95 18.956C300.801 18.4893 300.726 17.9667 300.726 17.388C300.726 16.8187 300.801 16.3007 300.95 15.834C301.109 15.3673 301.328 14.9707 301.608 14.644C301.898 14.308 302.238 14.0513 302.63 13.874C303.032 13.6967 303.48 13.608 303.974 13.608C304.46 13.608 304.894 13.6967 305.276 13.874C305.659 14.0513 305.986 14.2987 306.256 14.616C306.527 14.924 306.732 15.2927 306.872 15.722C307.022 16.1513 307.096 16.6227 307.096 17.136V17.668H301.902V18.004C301.902 18.312 301.949 18.6013 302.042 18.872C302.145 19.1333 302.285 19.362 302.462 19.558C302.649 19.754 302.873 19.908 303.134 20.02C303.405 20.132 303.708 20.188 304.044 20.188C304.502 20.188 304.898 20.0807 305.234 19.866C305.58 19.6513 305.846 19.3433 306.032 18.942L306.83 19.516C306.597 20.0107 306.233 20.412 305.738 20.72C305.244 21.0187 304.656 21.168 303.974 21.168ZM303.974 14.546C303.666 14.546 303.386 14.602 303.134 14.714C302.882 14.8167 302.663 14.966 302.476 15.162C302.299 15.358 302.159 15.5913 302.056 15.862C301.954 16.1233 301.902 16.4127 301.902 16.73V16.828H305.892V16.674C305.892 16.03 305.715 15.5167 305.36 15.134C305.015 14.742 304.553 14.546 303.974 14.546ZM312.363 21V11.228H318.187V12.264H313.539V15.54H317.781V16.576H313.539V21H312.363ZM322.431 21.168C321.937 21.168 321.489 21.0793 321.087 20.902C320.695 20.7247 320.355 20.4727 320.065 20.146C319.785 19.81 319.566 19.4133 319.407 18.956C319.258 18.4893 319.183 17.9667 319.183 17.388C319.183 16.8187 319.258 16.3007 319.407 15.834C319.566 15.3673 319.785 14.9707 320.065 14.644C320.355 14.308 320.695 14.0513 321.087 13.874C321.489 13.6967 321.937 13.608 322.431 13.608C322.917 13.608 323.351 13.6967 323.733 13.874C324.116 14.0513 324.443 14.2987 324.713 14.616C324.984 14.924 325.189 15.2927 325.329 15.722C325.479 16.1513 325.553 16.6227 325.553 17.136V17.668H320.359V18.004C320.359 18.312 320.406 18.6013 320.499 18.872C320.602 19.1333 320.742 19.362 320.919 19.558C321.106 19.754 321.33 19.908 321.591 20.02C321.862 20.132 322.165 20.188 322.501 20.188C322.959 20.188 323.355 20.0807 323.691 19.866C324.037 19.6513 324.303 19.3433 324.489 18.942L325.287 19.516C325.054 20.0107 324.69 20.412 324.195 20.72C323.701 21.0187 323.113 21.168 322.431 21.168ZM322.431 14.546C322.123 14.546 321.843 14.602 321.591 14.714C321.339 14.8167 321.12 14.966 320.933 15.162C320.756 15.358 320.616 15.5913 320.513 15.862C320.411 16.1233 320.359 16.4127 320.359 16.73V16.828H324.349V16.674C324.349 16.03 324.172 15.5167 323.817 15.134C323.472 14.742 323.01 14.546 322.431 14.546ZM330.115 21.168C329.62 21.168 329.172 21.0793 328.771 20.902C328.379 20.7247 328.038 20.4727 327.749 20.146C327.469 19.81 327.25 19.4133 327.091 18.956C326.942 18.4893 326.867 17.9667 326.867 17.388C326.867 16.8187 326.942 16.3007 327.091 15.834C327.25 15.3673 327.469 14.9707 327.749 14.644C328.038 14.308 328.379 14.0513 328.771 13.874C329.172 13.6967 329.62 13.608 330.115 13.608C330.6 13.608 331.034 13.6967 331.417 13.874C331.8 14.0513 332.126 14.2987 332.397 14.616C332.668 14.924 332.873 15.2927 333.013 15.722C333.162 16.1513 333.237 16.6227 333.237 17.136V17.668H328.043V18.004C328.043 18.312 328.09 18.6013 328.183 18.872C328.286 19.1333 328.426 19.362 328.603 19.558C328.79 19.754 329.014 19.908 329.275 20.02C329.546 20.132 329.849 20.188 330.185 20.188C330.642 20.188 331.039 20.0807 331.375 19.866C331.72 19.6513 331.986 19.3433 332.173 18.942L332.971 19.516C332.738 20.0107 332.374 20.412 331.879 20.72C331.384 21.0187 330.796 21.168 330.115 21.168ZM330.115 14.546C329.807 14.546 329.527 14.602 329.275 14.714C329.023 14.8167 328.804 14.966 328.617 15.162C328.44 15.358 328.3 15.5913 328.197 15.862C328.094 16.1233 328.043 16.4127 328.043 16.73V16.828H332.033V16.674C332.033 16.03 331.856 15.5167 331.501 15.134C331.156 14.742 330.694 14.546 330.115 14.546Z" fill="#081131"/>
<path d="M342.441 12.78C343.308 12.78 343.948 12.6 344.361 12.24C344.775 11.8667 344.981 11.3933 344.981 10.82V10.68C344.981 10.04 344.781 9.55333 344.381 9.22C343.981 8.87333 343.441 8.7 342.761 8.7C342.095 8.7 341.528 8.85333 341.061 9.16C340.595 9.45333 340.201 9.86667 339.881 10.4L338.381 9.1C338.595 8.79333 338.835 8.5 339.101 8.22C339.368 7.94 339.681 7.7 340.041 7.5C340.401 7.28667 340.808 7.12 341.261 7C341.715 6.86667 342.235 6.8 342.821 6.8C343.475 6.8 344.081 6.88 344.641 7.04C345.201 7.2 345.681 7.44 346.081 7.76C346.481 8.06667 346.795 8.44667 347.021 8.9C347.248 9.34 347.361 9.84 347.361 10.4C347.361 10.84 347.288 11.24 347.141 11.6C347.008 11.96 346.815 12.28 346.561 12.56C346.321 12.8267 346.035 13.0467 345.701 13.22C345.381 13.3933 345.041 13.52 344.681 13.6V13.7C345.081 13.78 345.455 13.9133 345.801 14.1C346.161 14.2733 346.475 14.5067 346.741 14.8C347.008 15.08 347.215 15.42 347.361 15.82C347.521 16.2067 347.601 16.6533 347.601 17.16C347.601 17.7733 347.481 18.3333 347.241 18.84C347.001 19.3333 346.661 19.76 346.221 20.12C345.795 20.48 345.275 20.76 344.661 20.96C344.048 21.1467 343.368 21.24 342.621 21.24C341.968 21.24 341.395 21.1667 340.901 21.02C340.408 20.8867 339.968 20.7067 339.581 20.48C339.208 20.24 338.875 19.9733 338.581 19.68C338.301 19.3733 338.055 19.06 337.841 18.74L339.501 17.44C339.675 17.72 339.855 17.98 340.041 18.22C340.241 18.4467 340.461 18.6467 340.701 18.82C340.955 18.98 341.235 19.1067 341.541 19.2C341.861 19.2933 342.221 19.34 342.621 19.34C343.475 19.34 344.128 19.14 344.581 18.74C345.035 18.3267 345.261 17.76 345.261 17.04V16.9C345.261 16.18 345.021 15.6333 344.541 15.26C344.061 14.8867 343.381 14.7 342.501 14.7H341.021V12.78H342.441ZM359.353 9H353.153L352.793 13.94H352.933C353.093 13.66 353.26 13.4133 353.433 13.2C353.607 12.9733 353.807 12.78 354.033 12.62C354.26 12.46 354.52 12.34 354.813 12.26C355.107 12.1667 355.453 12.12 355.853 12.12C356.453 12.12 357.007 12.22 357.513 12.42C358.033 12.62 358.48 12.9067 358.853 13.28C359.24 13.6533 359.54 14.1133 359.753 14.66C359.967 15.1933 360.073 15.8 360.073 16.48C360.073 17.1733 359.96 17.8133 359.733 18.4C359.52 18.9867 359.2 19.4933 358.773 19.92C358.347 20.3333 357.82 20.66 357.193 20.9C356.58 21.1267 355.88 21.24 355.093 21.24C354.467 21.24 353.913 21.1667 353.433 21.02C352.953 20.8867 352.527 20.7067 352.153 20.48C351.793 20.24 351.473 19.9733 351.193 19.68C350.927 19.3733 350.687 19.06 350.473 18.74L352.113 17.44C352.287 17.72 352.467 17.9733 352.653 18.2C352.84 18.4267 353.053 18.6267 353.293 18.8C353.533 18.9733 353.8 19.1067 354.093 19.2C354.4 19.2933 354.747 19.34 355.133 19.34C355.96 19.34 356.593 19.1133 357.033 18.66C357.487 18.2067 357.713 17.58 357.713 16.78V16.54C357.713 15.74 357.487 15.1133 357.033 14.66C356.593 14.2067 355.96 13.98 355.133 13.98C354.533 13.98 354.053 14.0933 353.693 14.32C353.333 14.5467 353.027 14.8 352.773 15.08L350.913 14.82L351.433 7.04H359.353V9ZM364.806 21L374.486 7.04H376.506L366.826 21H364.806ZM365.706 14.72C364.626 14.72 363.799 14.3867 363.226 13.72C362.652 13.04 362.366 12.0533 362.366 10.76C362.366 9.46667 362.652 8.48667 363.226 7.82C363.799 7.14 364.626 6.8 365.706 6.8C366.786 6.8 367.612 7.14 368.186 7.82C368.759 8.48667 369.046 9.46667 369.046 10.76C369.046 12.0533 368.759 13.04 368.186 13.72C367.612 14.3867 366.786 14.72 365.706 14.72ZM365.706 13.38C366.652 13.38 367.126 12.6933 367.126 11.32V10.2C367.126 8.82667 366.652 8.14 365.706 8.14C364.759 8.14 364.286 8.82667 364.286 10.2V11.32C364.286 12.6933 364.759 13.38 365.706 13.38ZM375.606 21.24C374.526 21.24 373.699 20.9067 373.126 20.24C372.552 19.56 372.266 18.5733 372.266 17.28C372.266 15.9867 372.552 15.0067 373.126 14.34C373.699 13.66 374.526 13.32 375.606 13.32C376.686 13.32 377.512 13.66 378.086 14.34C378.659 15.0067 378.946 15.9867 378.946 17.28C378.946 18.5733 378.659 19.56 378.086 20.24C377.512 20.9067 376.686 21.24 375.606 21.24ZM375.606 19.9C376.552 19.9 377.026 19.2133 377.026 17.84V16.72C377.026 15.3467 376.552 14.66 375.606 14.66C374.659 14.66 374.186 15.3467 374.186 16.72V17.84C374.186 19.2133 374.659 19.9 375.606 19.9Z" fill="#FFA500"/>
<path d="M509.592 269.264V278H508.416V269.264H505.308V268.228H512.7V269.264H509.592ZM513.573 278V270.776H514.693V272.106H514.763C514.893 271.761 515.127 271.453 515.463 271.182C515.799 270.911 516.261 270.776 516.849 270.776H517.283V271.896H516.625C516.018 271.896 515.542 272.013 515.197 272.246C514.861 272.47 514.693 272.755 514.693 273.1V278H513.573ZM523.909 278C523.489 278 523.185 277.888 522.999 277.664C522.821 277.44 522.709 277.16 522.663 276.824H522.593C522.434 277.272 522.173 277.608 521.809 277.832C521.445 278.056 521.011 278.168 520.507 278.168C519.741 278.168 519.144 277.972 518.715 277.58C518.295 277.188 518.085 276.656 518.085 275.984C518.085 275.303 518.332 274.78 518.827 274.416C519.331 274.052 520.11 273.87 521.165 273.87H522.593V273.156C522.593 272.643 522.453 272.251 522.173 271.98C521.893 271.709 521.463 271.574 520.885 271.574C520.446 271.574 520.077 271.672 519.779 271.868C519.489 272.064 519.247 272.325 519.051 272.652L518.379 272.022C518.575 271.63 518.887 271.299 519.317 271.028C519.746 270.748 520.287 270.608 520.941 270.608C521.818 270.608 522.499 270.823 522.985 271.252C523.47 271.681 523.713 272.279 523.713 273.044V277.02H524.539V278H523.909ZM520.689 277.216C520.969 277.216 521.225 277.183 521.459 277.118C521.692 277.053 521.893 276.959 522.061 276.838C522.229 276.717 522.359 276.577 522.453 276.418C522.546 276.259 522.593 276.087 522.593 275.9V274.71H521.109C520.465 274.71 519.993 274.803 519.695 274.99C519.405 275.177 519.261 275.447 519.261 275.802V276.096C519.261 276.451 519.387 276.726 519.639 276.922C519.9 277.118 520.25 277.216 520.689 277.216ZM530.757 276.824H530.701C530.263 277.72 529.558 278.168 528.587 278.168C528.139 278.168 527.733 278.079 527.369 277.902C527.005 277.725 526.693 277.473 526.431 277.146C526.179 276.819 525.983 276.423 525.843 275.956C525.713 275.489 525.647 274.967 525.647 274.388C525.647 273.809 525.713 273.287 525.843 272.82C525.983 272.353 526.179 271.957 526.431 271.63C526.693 271.303 527.005 271.051 527.369 270.874C527.733 270.697 528.139 270.608 528.587 270.608C529.091 270.608 529.521 270.72 529.875 270.944C530.239 271.159 530.515 271.495 530.701 271.952H530.757V267.64H531.877V278H530.757V276.824ZM528.895 277.16C529.147 277.16 529.385 277.127 529.609 277.062C529.843 276.997 530.043 276.903 530.211 276.782C530.379 276.651 530.51 276.497 530.603 276.32C530.706 276.133 530.757 275.923 530.757 275.69V273.002C530.757 272.806 530.706 272.624 530.603 272.456C530.51 272.279 530.379 272.129 530.211 272.008C530.043 271.887 529.843 271.793 529.609 271.728C529.385 271.653 529.147 271.616 528.895 271.616C528.261 271.616 527.761 271.817 527.397 272.218C527.033 272.61 526.851 273.128 526.851 273.772V275.004C526.851 275.648 527.033 276.171 527.397 276.572C527.761 276.964 528.261 277.16 528.895 277.16ZM536.974 278.168C536.48 278.168 536.032 278.079 535.63 277.902C535.238 277.725 534.898 277.473 534.608 277.146C534.328 276.81 534.109 276.413 533.95 275.956C533.801 275.489 533.726 274.967 533.726 274.388C533.726 273.819 533.801 273.301 533.95 272.834C534.109 272.367 534.328 271.971 534.608 271.644C534.898 271.308 535.238 271.051 535.63 270.874C536.032 270.697 536.48 270.608 536.974 270.608C537.46 270.608 537.894 270.697 538.276 270.874C538.659 271.051 538.986 271.299 539.256 271.616C539.527 271.924 539.732 272.293 539.872 272.722C540.022 273.151 540.096 273.623 540.096 274.136V274.668H534.902V275.004C534.902 275.312 534.949 275.601 535.042 275.872C535.145 276.133 535.285 276.362 535.462 276.558C535.649 276.754 535.873 276.908 536.134 277.02C536.405 277.132 536.708 277.188 537.044 277.188C537.502 277.188 537.898 277.081 538.234 276.866C538.58 276.651 538.846 276.343 539.032 275.942L539.83 276.516C539.597 277.011 539.233 277.412 538.738 277.72C538.244 278.019 537.656 278.168 536.974 278.168ZM536.974 271.546C536.666 271.546 536.386 271.602 536.134 271.714C535.882 271.817 535.663 271.966 535.476 272.162C535.299 272.358 535.159 272.591 535.056 272.862C534.954 273.123 534.902 273.413 534.902 273.73V273.828H538.892V273.674C538.892 273.03 538.715 272.517 538.36 272.134C538.015 271.742 537.553 271.546 536.974 271.546ZM545.363 278V268.228H551.187V269.264H546.539V272.54H550.781V273.576H546.539V278H545.363ZM555.431 278.168C554.937 278.168 554.489 278.079 554.087 277.902C553.695 277.725 553.355 277.473 553.065 277.146C552.785 276.81 552.566 276.413 552.407 275.956C552.258 275.489 552.183 274.967 552.183 274.388C552.183 273.819 552.258 273.301 552.407 272.834C552.566 272.367 552.785 271.971 553.065 271.644C553.355 271.308 553.695 271.051 554.087 270.874C554.489 270.697 554.937 270.608 555.431 270.608C555.917 270.608 556.351 270.697 556.733 270.874C557.116 271.051 557.443 271.299 557.713 271.616C557.984 271.924 558.189 272.293 558.329 272.722C558.479 273.151 558.553 273.623 558.553 274.136V274.668H553.359V275.004C553.359 275.312 553.406 275.601 553.499 275.872C553.602 276.133 553.742 276.362 553.919 276.558C554.106 276.754 554.33 276.908 554.591 277.02C554.862 277.132 555.165 277.188 555.501 277.188C555.959 277.188 556.355 277.081 556.691 276.866C557.037 276.651 557.303 276.343 557.489 275.942L558.287 276.516C558.054 277.011 557.69 277.412 557.195 277.72C556.701 278.019 556.113 278.168 555.431 278.168ZM555.431 271.546C555.123 271.546 554.843 271.602 554.591 271.714C554.339 271.817 554.12 271.966 553.933 272.162C553.756 272.358 553.616 272.591 553.513 272.862C553.411 273.123 553.359 273.413 553.359 273.73V273.828H557.349V273.674C557.349 273.03 557.172 272.517 556.817 272.134C556.472 271.742 556.01 271.546 555.431 271.546ZM563.115 278.168C562.62 278.168 562.172 278.079 561.771 277.902C561.379 277.725 561.038 277.473 560.749 277.146C560.469 276.81 560.25 276.413 560.091 275.956C559.942 275.489 559.867 274.967 559.867 274.388C559.867 273.819 559.942 273.301 560.091 272.834C560.25 272.367 560.469 271.971 560.749 271.644C561.038 271.308 561.379 271.051 561.771 270.874C562.172 270.697 562.62 270.608 563.115 270.608C563.6 270.608 564.034 270.697 564.417 270.874C564.8 271.051 565.126 271.299 565.397 271.616C565.668 271.924 565.873 272.293 566.013 272.722C566.162 273.151 566.237 273.623 566.237 274.136V274.668H561.043V275.004C561.043 275.312 561.09 275.601 561.183 275.872C561.286 276.133 561.426 276.362 561.603 276.558C561.79 276.754 562.014 276.908 562.275 277.02C562.546 277.132 562.849 277.188 563.185 277.188C563.642 277.188 564.039 277.081 564.375 276.866C564.72 276.651 564.986 276.343 565.173 275.942L565.971 276.516C565.738 277.011 565.374 277.412 564.879 277.72C564.384 278.019 563.796 278.168 563.115 278.168ZM563.115 271.546C562.807 271.546 562.527 271.602 562.275 271.714C562.023 271.817 561.804 271.966 561.617 272.162C561.44 272.358 561.3 272.591 561.197 272.862C561.094 273.123 561.043 273.413 561.043 273.73V273.828H565.033V273.674C565.033 273.03 564.856 272.517 564.501 272.134C564.156 271.742 563.694 271.546 563.115 271.546Z" fill="#081131"/>
<path d="M571.961 278V276.12H575.881V265.68H575.721L572.481 269.14L571.101 267.9L574.661 264.04H578.101V276.12H581.501V278H571.961ZM592.353 266H586.153L585.793 270.94H585.933C586.093 270.66 586.26 270.413 586.433 270.2C586.607 269.973 586.807 269.78 587.033 269.62C587.26 269.46 587.52 269.34 587.813 269.26C588.107 269.167 588.453 269.12 588.853 269.12C589.453 269.12 590.007 269.22 590.513 269.42C591.033 269.62 591.48 269.907 591.853 270.28C592.24 270.653 592.54 271.113 592.753 271.66C592.967 272.193 593.073 272.8 593.073 273.48C593.073 274.173 592.96 274.813 592.733 275.4C592.52 275.987 592.2 276.493 591.773 276.92C591.347 277.333 590.82 277.66 590.193 277.9C589.58 278.127 588.88 278.24 588.093 278.24C587.467 278.24 586.913 278.167 586.433 278.02C585.953 277.887 585.527 277.707 585.153 277.48C584.793 277.24 584.473 276.973 584.193 276.68C583.927 276.373 583.687 276.06 583.473 275.74L585.113 274.44C585.287 274.72 585.467 274.973 585.653 275.2C585.84 275.427 586.053 275.627 586.293 275.8C586.533 275.973 586.8 276.107 587.093 276.2C587.4 276.293 587.747 276.34 588.133 276.34C588.96 276.34 589.593 276.113 590.033 275.66C590.487 275.207 590.713 274.58 590.713 273.78V273.54C590.713 272.74 590.487 272.113 590.033 271.66C589.593 271.207 588.96 270.98 588.133 270.98C587.533 270.98 587.053 271.093 586.693 271.32C586.333 271.547 586.027 271.8 585.773 272.08L583.913 271.82L584.433 264.04H592.353V266ZM597.806 278L607.486 264.04H609.506L599.826 278H597.806ZM598.706 271.72C597.626 271.72 596.799 271.387 596.226 270.72C595.652 270.04 595.366 269.053 595.366 267.76C595.366 266.467 595.652 265.487 596.226 264.82C596.799 264.14 597.626 263.8 598.706 263.8C599.786 263.8 600.612 264.14 601.186 264.82C601.759 265.487 602.046 266.467 602.046 267.76C602.046 269.053 601.759 270.04 601.186 270.72C600.612 271.387 599.786 271.72 598.706 271.72ZM598.706 270.38C599.652 270.38 600.126 269.693 600.126 268.32V267.2C600.126 265.827 599.652 265.14 598.706 265.14C597.759 265.14 597.286 265.827 597.286 267.2V268.32C597.286 269.693 597.759 270.38 598.706 270.38ZM608.606 278.24C607.526 278.24 606.699 277.907 606.126 277.24C605.552 276.56 605.266 275.573 605.266 274.28C605.266 272.987 605.552 272.007 606.126 271.34C606.699 270.66 607.526 270.32 608.606 270.32C609.686 270.32 610.512 270.66 611.086 271.34C611.659 272.007 611.946 272.987 611.946 274.28C611.946 275.573 611.659 276.56 611.086 277.24C610.512 277.907 609.686 278.24 608.606 278.24ZM608.606 276.9C609.552 276.9 610.026 276.213 610.026 274.84V273.72C610.026 272.347 609.552 271.66 608.606 271.66C607.659 271.66 607.186 272.347 607.186 273.72V274.84C607.186 276.213 607.659 276.9 608.606 276.9Z" fill="#FFA500"/>
<path d="M977 97V41H549V80.5" stroke="#081131" stroke-dasharray="2 2"/>
<path d="M496.5 96.5V41H157V82" stroke="#081131" stroke-dasharray="2 2"/>
<path d="M549 89L543.804 80L554.196 80L549 89Z" fill="#081131"/>
<path d="M157 89L151.804 80L162.196 80L157 89Z" fill="#081131"/>
<path d="M399 146L394 148.887V143.113L399 146ZM263 145.5H394.5V146.5H263V145.5Z" fill="url(#paint0_linear_5015_11961)"/>
<path d="M339.72 137V136.16H340.896V129.464H339.72V128.624H343.08V129.464H341.904V136.16H343.08V137H339.72ZM344.825 137V130.808H345.785V131.816H345.833C345.985 131.464 346.197 131.184 346.469 130.976C346.749 130.768 347.121 130.664 347.585 130.664C348.225 130.664 348.729 130.872 349.097 131.288C349.473 131.696 349.661 132.276 349.661 133.028V137H348.701V133.196C348.701 132.084 348.233 131.528 347.297 131.528C347.105 131.528 346.917 131.552 346.733 131.6C346.557 131.648 346.397 131.72 346.253 131.816C346.109 131.912 345.993 132.036 345.905 132.188C345.825 132.332 345.785 132.504 345.785 132.704V137H344.825ZM352.919 137L350.747 130.808H351.707L352.787 133.88L353.459 135.992H353.519L354.191 133.88L355.295 130.808H356.219L354.035 137H352.919ZM357.938 129.356C357.73 129.356 357.578 129.308 357.482 129.212C357.394 129.108 357.35 128.976 357.35 128.816V128.66C357.35 128.5 357.394 128.372 357.482 128.276C357.578 128.172 357.73 128.12 357.938 128.12C358.146 128.12 358.294 128.172 358.382 128.276C358.478 128.372 358.526 128.5 358.526 128.66V128.816C358.526 128.976 358.478 129.108 358.382 129.212C358.294 129.308 358.146 129.356 357.938 129.356ZM357.458 130.808H358.418V137H357.458V130.808ZM361.826 137C361.49 137 361.234 136.908 361.058 136.724C360.89 136.532 360.806 136.284 360.806 135.98V131.648H359.786V130.808H360.362C360.57 130.808 360.71 130.768 360.782 130.688C360.862 130.6 360.902 130.452 360.902 130.244V129.092H361.766V130.808H363.122V131.648H361.766V136.16H363.026V137H361.826ZM366.946 137.144C366.522 137.144 366.138 137.068 365.794 136.916C365.458 136.764 365.166 136.548 364.918 136.268C364.678 135.98 364.49 135.64 364.354 135.248C364.226 134.848 364.162 134.4 364.162 133.904C364.162 133.416 364.226 132.972 364.354 132.572C364.49 132.172 364.678 131.832 364.918 131.552C365.166 131.264 365.458 131.044 365.794 130.892C366.138 130.74 366.522 130.664 366.946 130.664C367.362 130.664 367.734 130.74 368.062 130.892C368.39 131.044 368.67 131.256 368.902 131.528C369.134 131.792 369.31 132.108 369.43 132.476C369.558 132.844 369.622 133.248 369.622 133.688V134.144H365.17V134.432C365.17 134.696 365.21 134.944 365.29 135.176C365.378 135.4 365.498 135.596 365.65 135.764C365.81 135.932 366.002 136.064 366.226 136.16C366.458 136.256 366.718 136.304 367.006 136.304C367.398 136.304 367.738 136.212 368.026 136.028C368.322 135.844 368.55 135.58 368.71 135.236L369.394 135.728C369.194 136.152 368.882 136.496 368.458 136.76C368.034 137.016 367.53 137.144 366.946 137.144ZM366.946 131.468C366.682 131.468 366.442 131.516 366.226 131.612C366.01 131.7 365.822 131.828 365.662 131.996C365.51 132.164 365.39 132.364 365.302 132.596C365.214 132.82 365.17 133.068 365.17 133.34V133.424H368.59V133.292C368.59 132.74 368.438 132.3 368.134 131.972C367.838 131.636 367.442 131.468 366.946 131.468Z" fill="#081131"/>
<path d="M856 146L851 148.887V143.113L856 146ZM720 145.5H851.5V146.5H720V145.5Z" fill="url(#paint1_linear_5015_11961)"/>
<path d="M796.72 137V136.16H797.896V129.464H796.72V128.624H800.08V129.464H798.904V136.16H800.08V137H796.72ZM801.825 137V130.808H802.785V131.816H802.833C802.985 131.464 803.197 131.184 803.469 130.976C803.749 130.768 804.121 130.664 804.585 130.664C805.225 130.664 805.729 130.872 806.097 131.288C806.473 131.696 806.661 132.276 806.661 133.028V137H805.701V133.196C805.701 132.084 805.233 131.528 804.297 131.528C804.105 131.528 803.917 131.552 803.733 131.6C803.557 131.648 803.397 131.72 803.253 131.816C803.109 131.912 802.993 132.036 802.905 132.188C802.825 132.332 802.785 132.504 802.785 132.704V137H801.825ZM809.919 137L807.747 130.808H808.707L809.787 133.88L810.459 135.992H810.519L811.191 133.88L812.295 130.808H813.219L811.035 137H809.919ZM814.938 129.356C814.73 129.356 814.578 129.308 814.482 129.212C814.394 129.108 814.35 128.976 814.35 128.816V128.66C814.35 128.5 814.394 128.372 814.482 128.276C814.578 128.172 814.73 128.12 814.938 128.12C815.146 128.12 815.294 128.172 815.382 128.276C815.478 128.372 815.526 128.5 815.526 128.66V128.816C815.526 128.976 815.478 129.108 815.382 129.212C815.294 129.308 815.146 129.356 814.938 129.356ZM814.458 130.808H815.418V137H814.458V130.808ZM818.826 137C818.49 137 818.234 136.908 818.058 136.724C817.89 136.532 817.806 136.284 817.806 135.98V131.648H816.786V130.808H817.362C817.57 130.808 817.71 130.768 817.782 130.688C817.862 130.6 817.902 130.452 817.902 130.244V129.092H818.766V130.808H820.122V131.648H818.766V136.16H820.026V137H818.826ZM823.946 137.144C823.522 137.144 823.138 137.068 822.794 136.916C822.458 136.764 822.166 136.548 821.918 136.268C821.678 135.98 821.49 135.64 821.354 135.248C821.226 134.848 821.162 134.4 821.162 133.904C821.162 133.416 821.226 132.972 821.354 132.572C821.49 132.172 821.678 131.832 821.918 131.552C822.166 131.264 822.458 131.044 822.794 130.892C823.138 130.74 823.522 130.664 823.946 130.664C824.362 130.664 824.734 130.74 825.062 130.892C825.39 131.044 825.67 131.256 825.902 131.528C826.134 131.792 826.31 132.108 826.43 132.476C826.558 132.844 826.622 133.248 826.622 133.688V134.144H822.17V134.432C822.17 134.696 822.21 134.944 822.29 135.176C822.378 135.4 822.498 135.596 822.65 135.764C822.81 135.932 823.002 136.064 823.226 136.16C823.458 136.256 823.718 136.304 824.006 136.304C824.398 136.304 824.738 136.212 825.026 136.028C825.322 135.844 825.55 135.58 825.71 135.236L826.394 135.728C826.194 136.152 825.882 136.496 825.458 136.76C825.034 137.016 824.53 137.144 823.946 137.144ZM823.946 131.468C823.682 131.468 823.442 131.516 823.226 131.612C823.01 131.7 822.822 131.828 822.662 131.996C822.51 132.164 822.39 132.364 822.302 132.596C822.214 132.82 822.17 133.068 822.17 133.34V133.424H825.59V133.292C825.59 132.74 825.438 132.3 825.134 131.972C824.838 131.636 824.442 131.468 823.946 131.468Z" fill="#081131"/>
<rect x="1.4" y="97.4" width="202.2" height="76.2" rx="11.6" fill="#FAFAFA" stroke="#F2F2F2" stroke-width="1.2"/>
<rect x="7" y="103" width="99" height="65" rx="11" fill="white"/>
<path d="M129.05 145L127.475 140.275H120.95L119.425 145H116.55L122.5 127.55H126.05L132 145H129.05ZM124.275 130.15H124.15L121.625 137.85H126.775L124.275 130.15ZM145.903 146.225C145.903 147.575 145.386 148.592 144.353 149.275C143.319 149.958 141.636 150.3 139.303 150.3C138.236 150.3 137.328 150.225 136.578 150.075C135.844 149.942 135.236 149.742 134.753 149.475C134.286 149.208 133.944 148.883 133.728 148.5C133.511 148.117 133.403 147.675 133.403 147.175C133.403 146.458 133.594 145.9 133.978 145.5C134.378 145.1 134.928 144.825 135.628 144.675V144.4C134.644 144.083 134.153 143.417 134.153 142.4C134.153 141.733 134.378 141.225 134.828 140.875C135.278 140.508 135.819 140.25 136.453 140.1V140C135.686 139.633 135.094 139.125 134.678 138.475C134.278 137.808 134.078 137.033 134.078 136.15C134.078 134.817 134.519 133.742 135.403 132.925C136.303 132.108 137.586 131.7 139.253 131.7C140.169 131.7 140.953 131.833 141.603 132.1V131.75C141.603 131.167 141.736 130.717 142.003 130.4C142.286 130.067 142.719 129.9 143.303 129.9H145.303V132.1H142.653V132.625C143.236 133.008 143.686 133.508 144.003 134.125C144.319 134.725 144.478 135.4 144.478 136.15C144.478 137.467 144.028 138.533 143.128 139.35C142.228 140.15 140.944 140.55 139.278 140.55C138.644 140.55 138.078 140.483 137.578 140.35C137.244 140.467 136.953 140.633 136.703 140.85C136.453 141.05 136.328 141.317 136.328 141.65C136.328 142 136.486 142.25 136.803 142.4C137.119 142.55 137.569 142.625 138.153 142.625H141.353C142.953 142.625 144.111 142.95 144.828 143.6C145.544 144.233 145.903 145.108 145.903 146.225ZM143.353 146.525C143.353 146.075 143.178 145.717 142.828 145.45C142.494 145.183 141.878 145.05 140.978 145.05H136.578C135.978 145.4 135.678 145.9 135.678 146.55C135.678 147.083 135.886 147.508 136.303 147.825C136.736 148.158 137.461 148.325 138.478 148.325H140.178C142.294 148.325 143.353 147.725 143.353 146.525ZM139.278 138.575C140.078 138.575 140.694 138.4 141.128 138.05C141.578 137.683 141.803 137.125 141.803 136.375V135.875C141.803 135.125 141.578 134.575 141.128 134.225C140.694 133.858 140.078 133.675 139.278 133.675C138.478 133.675 137.853 133.858 137.403 134.225C136.969 134.575 136.753 135.125 136.753 135.875V136.375C136.753 137.125 136.969 137.683 137.403 138.05C137.853 138.4 138.478 138.575 139.278 138.575ZM152.884 145.3C151.951 145.3 151.117 145.142 150.384 144.825C149.651 144.508 149.026 144.058 148.509 143.475C147.992 142.875 147.592 142.158 147.309 141.325C147.042 140.475 146.909 139.533 146.909 138.5C146.909 137.467 147.042 136.533 147.309 135.7C147.592 134.85 147.992 134.133 148.509 133.55C149.026 132.95 149.651 132.492 150.384 132.175C151.117 131.858 151.951 131.7 152.884 131.7C153.834 131.7 154.667 131.867 155.384 132.2C156.117 132.533 156.726 133 157.209 133.6C157.692 134.183 158.051 134.867 158.284 135.65C158.534 136.433 158.659 137.275 158.659 138.175V139.2H149.734V139.625C149.734 140.625 150.026 141.45 150.609 142.1C151.209 142.733 152.059 143.05 153.159 143.05C153.959 143.05 154.634 142.875 155.184 142.525C155.734 142.175 156.201 141.7 156.584 141.1L158.184 142.675C157.701 143.475 157.001 144.117 156.084 144.6C155.167 145.067 154.101 145.3 152.884 145.3ZM152.884 133.825C152.417 133.825 151.984 133.908 151.584 134.075C151.201 134.242 150.867 134.475 150.584 134.775C150.317 135.075 150.109 135.433 149.959 135.85C149.809 136.267 149.734 136.725 149.734 137.225V137.4H155.784V137.15C155.784 136.15 155.526 135.35 155.009 134.75C154.492 134.133 153.784 133.825 152.884 133.825ZM161.676 145V132H164.401V134.15H164.526C164.809 133.45 165.234 132.867 165.801 132.4C166.384 131.933 167.176 131.7 168.176 131.7C169.509 131.7 170.542 132.142 171.276 133.025C172.026 133.892 172.401 135.133 172.401 136.75V145H169.676V137.1C169.676 135.067 168.859 134.05 167.226 134.05C166.876 134.05 166.526 134.1 166.176 134.2C165.842 134.283 165.542 134.417 165.276 134.6C165.009 134.783 164.792 135.017 164.626 135.3C164.476 135.583 164.401 135.917 164.401 136.3V145H161.676ZM179.778 145C178.828 145 178.111 144.758 177.628 144.275C177.144 143.775 176.903 143.075 176.903 142.175V134.225H174.878V132H175.978C176.428 132 176.736 131.9 176.903 131.7C177.086 131.5 177.178 131.175 177.178 130.725V128.45H179.628V132H182.353V134.225H179.628V142.775H182.153V145H179.778Z" fill="#081131"/>
<path d="M46.316 149.624V154.784C46.316 155.496 46.452 156.032 46.724 156.392C46.996 156.752 47.46 156.932 48.116 156.932C48.772 156.932 49.236 156.752 49.508 156.392C49.78 156.032 49.916 155.496 49.916 154.784V149.624H51.248V154.568C51.248 155.184 51.192 155.716 51.08 156.164C50.968 156.612 50.788 156.984 50.54 157.28C50.292 157.568 49.968 157.784 49.568 157.928C49.176 158.072 48.692 158.144 48.116 158.144C47.54 158.144 47.052 158.072 46.652 157.928C46.26 157.784 45.94 157.568 45.692 157.28C45.444 156.984 45.264 156.612 45.152 156.164C45.04 155.716 44.984 155.184 44.984 154.568V149.624H46.316ZM55.1426 158.144C54.5506 158.144 54.0546 158.04 53.6546 157.832C53.2546 157.624 52.9066 157.336 52.6106 156.968L53.4506 156.2C53.6826 156.48 53.9386 156.7 54.2186 156.86C54.5066 157.012 54.8386 157.088 55.2146 157.088C55.5986 157.088 55.8826 157.016 56.0666 156.872C56.2586 156.72 56.3546 156.512 56.3546 156.248C56.3546 156.048 56.2866 155.88 56.1506 155.744C56.0226 155.6 55.7946 155.508 55.4666 155.468L54.8906 155.396C54.2506 155.316 53.7466 155.132 53.3786 154.844C53.0186 154.548 52.8386 154.112 52.8386 153.536C52.8386 153.232 52.8946 152.964 53.0066 152.732C53.1186 152.492 53.2746 152.292 53.4746 152.132C53.6826 151.964 53.9266 151.836 54.2066 151.748C54.4946 151.66 54.8106 151.616 55.1546 151.616C55.7146 151.616 56.1706 151.704 56.5226 151.88C56.8826 152.056 57.2026 152.3 57.4826 152.612L56.6786 153.38C56.5186 153.188 56.3066 153.024 56.0426 152.888C55.7866 152.744 55.4906 152.672 55.1546 152.672C54.7946 152.672 54.5266 152.744 54.3506 152.888C54.1826 153.032 54.0986 153.22 54.0986 153.452C54.0986 153.692 54.1746 153.872 54.3266 153.992C54.4786 154.112 54.7226 154.2 55.0586 154.256L55.6346 154.328C56.3226 154.432 56.8226 154.636 57.1346 154.94C57.4546 155.236 57.6146 155.636 57.6146 156.14C57.6146 156.444 57.5546 156.72 57.4346 156.968C57.3226 157.208 57.1586 157.416 56.9426 157.592C56.7266 157.768 56.4666 157.904 56.1626 158C55.8586 158.096 55.5186 158.144 55.1426 158.144ZM61.5403 158.144C61.0923 158.144 60.6923 158.068 60.3403 157.916C59.9883 157.764 59.6883 157.548 59.4403 157.268C59.1923 156.98 59.0003 156.636 58.8643 156.236C58.7363 155.828 58.6723 155.376 58.6723 154.88C58.6723 154.384 58.7363 153.936 58.8643 153.536C59.0003 153.128 59.1923 152.784 59.4403 152.504C59.6883 152.216 59.9883 151.996 60.3403 151.844C60.6923 151.692 61.0923 151.616 61.5403 151.616C61.9963 151.616 62.3963 151.696 62.7403 151.856C63.0923 152.016 63.3843 152.24 63.6163 152.528C63.8483 152.808 64.0203 153.136 64.1323 153.512C64.2523 153.888 64.3123 154.292 64.3123 154.724V155.216H60.0283V155.42C60.0283 155.9 60.1683 156.296 60.4483 156.608C60.7363 156.912 61.1443 157.064 61.6723 157.064C62.0563 157.064 62.3803 156.98 62.6443 156.812C62.9083 156.644 63.1323 156.416 63.3163 156.128L64.0843 156.884C63.8523 157.268 63.5163 157.576 63.0763 157.808C62.6363 158.032 62.1243 158.144 61.5403 158.144ZM61.5403 152.636C61.3163 152.636 61.1083 152.676 60.9163 152.756C60.7323 152.836 60.5723 152.948 60.4363 153.092C60.3083 153.236 60.2083 153.408 60.1363 153.608C60.0643 153.808 60.0283 154.028 60.0283 154.268V154.352H62.9323V154.232C62.9323 153.752 62.8083 153.368 62.5603 153.08C62.3123 152.784 61.9723 152.636 61.5403 152.636ZM65.7602 158V151.76H67.0682V152.96H67.1282C67.2162 152.64 67.4002 152.36 67.6802 152.12C67.9602 151.88 68.3482 151.76 68.8442 151.76H69.1922V153.02H68.6762C68.1562 153.02 67.7562 153.104 67.4762 153.272C67.2042 153.44 67.0682 153.688 67.0682 154.016V158H65.7602Z" fill="#081131"/>
<path d="M56.9998 140C65.8363 140 72.9997 132.836 72.9997 124C72.9997 115.163 65.8363 108 56.9998 108C48.1634 108 41 115.163 41 124C41 132.836 48.1634 140 56.9998 140Z" fill="#FAFAFA"/>
<rect x="458.4" y="97.4" width="202.2" height="76.2" rx="11.6" fill="#FAFAFA" stroke="#F2F2F2" stroke-width="1.2"/>
<rect x="464" y="103" width="99" height="65" rx="11" fill="white"/>
<path d="M586.05 145L584.475 140.275H577.95L576.425 145H573.55L579.5 127.55H583.05L589 145H586.05ZM581.275 130.15H581.15L578.625 137.85H583.775L581.275 130.15Z" fill="#081131"/>
<path d="M503.316 149.624V154.784C503.316 155.496 503.452 156.032 503.724 156.392C503.996 156.752 504.46 156.932 505.116 156.932C505.772 156.932 506.236 156.752 506.508 156.392C506.78 156.032 506.916 155.496 506.916 154.784V149.624H508.248V154.568C508.248 155.184 508.192 155.716 508.08 156.164C507.968 156.612 507.788 156.984 507.54 157.28C507.292 157.568 506.968 157.784 506.568 157.928C506.176 158.072 505.692 158.144 505.116 158.144C504.54 158.144 504.052 158.072 503.652 157.928C503.26 157.784 502.94 157.568 502.692 157.28C502.444 156.984 502.264 156.612 502.152 156.164C502.04 155.716 501.984 155.184 501.984 154.568V149.624H503.316ZM512.143 158.144C511.551 158.144 511.055 158.04 510.655 157.832C510.255 157.624 509.907 157.336 509.611 156.968L510.451 156.2C510.683 156.48 510.939 156.7 511.219 156.86C511.507 157.012 511.839 157.088 512.215 157.088C512.599 157.088 512.883 157.016 513.067 156.872C513.259 156.72 513.355 156.512 513.355 156.248C513.355 156.048 513.287 155.88 513.151 155.744C513.023 155.6 512.795 155.508 512.467 155.468L511.891 155.396C511.251 155.316 510.747 155.132 510.379 154.844C510.019 154.548 509.839 154.112 509.839 153.536C509.839 153.232 509.895 152.964 510.007 152.732C510.119 152.492 510.275 152.292 510.475 152.132C510.683 151.964 510.927 151.836 511.207 151.748C511.495 151.66 511.811 151.616 512.155 151.616C512.715 151.616 513.171 151.704 513.523 151.88C513.883 152.056 514.203 152.3 514.483 152.612L513.679 153.38C513.519 153.188 513.307 153.024 513.043 152.888C512.787 152.744 512.491 152.672 512.155 152.672C511.795 152.672 511.527 152.744 511.351 152.888C511.183 153.032 511.099 153.22 511.099 153.452C511.099 153.692 511.175 153.872 511.327 153.992C511.479 154.112 511.723 154.2 512.059 154.256L512.635 154.328C513.323 154.432 513.823 154.636 514.135 154.94C514.455 155.236 514.615 155.636 514.615 156.14C514.615 156.444 514.555 156.72 514.435 156.968C514.323 157.208 514.159 157.416 513.943 157.592C513.727 157.768 513.467 157.904 513.163 158C512.859 158.096 512.519 158.144 512.143 158.144ZM518.54 158.144C518.092 158.144 517.692 158.068 517.34 157.916C516.988 157.764 516.688 157.548 516.44 157.268C516.192 156.98 516 156.636 515.864 156.236C515.736 155.828 515.672 155.376 515.672 154.88C515.672 154.384 515.736 153.936 515.864 153.536C516 153.128 516.192 152.784 516.44 152.504C516.688 152.216 516.988 151.996 517.34 151.844C517.692 151.692 518.092 151.616 518.54 151.616C518.996 151.616 519.396 151.696 519.74 151.856C520.092 152.016 520.384 152.24 520.616 152.528C520.848 152.808 521.02 153.136 521.132 153.512C521.252 153.888 521.312 154.292 521.312 154.724V155.216H517.028V155.42C517.028 155.9 517.168 156.296 517.448 156.608C517.736 156.912 518.144 157.064 518.672 157.064C519.056 157.064 519.38 156.98 519.644 156.812C519.908 156.644 520.132 156.416 520.316 156.128L521.084 156.884C520.852 157.268 520.516 157.576 520.076 157.808C519.636 158.032 519.124 158.144 518.54 158.144ZM518.54 152.636C518.316 152.636 518.108 152.676 517.916 152.756C517.732 152.836 517.572 152.948 517.436 153.092C517.308 153.236 517.208 153.408 517.136 153.608C517.064 153.808 517.028 154.028 517.028 154.268V154.352H519.932V154.232C519.932 153.752 519.808 153.368 519.56 153.08C519.312 152.784 518.972 152.636 518.54 152.636ZM522.76 158V151.76H524.068V152.96H524.128C524.216 152.64 524.4 152.36 524.68 152.12C524.96 151.88 525.348 151.76 525.844 151.76H526.192V153.02H525.676C525.156 153.02 524.756 153.104 524.476 153.272C524.204 153.44 524.068 153.688 524.068 154.016V158H522.76Z" fill="#081131"/>
<path d="M604.592 133.264V142H603.416V133.264H600.308V132.228H607.7V133.264H604.592ZM608.573 142V134.776H609.693V136.106H609.763C609.893 135.761 610.127 135.453 610.463 135.182C610.799 134.911 611.261 134.776 611.849 134.776H612.283V135.896H611.625C611.018 135.896 610.542 136.013 610.197 136.246C609.861 136.47 609.693 136.755 609.693 137.1V142H608.573ZM618.909 142C618.489 142 618.185 141.888 617.999 141.664C617.821 141.44 617.709 141.16 617.663 140.824H617.593C617.434 141.272 617.173 141.608 616.809 141.832C616.445 142.056 616.011 142.168 615.507 142.168C614.741 142.168 614.144 141.972 613.715 141.58C613.295 141.188 613.085 140.656 613.085 139.984C613.085 139.303 613.332 138.78 613.827 138.416C614.331 138.052 615.11 137.87 616.165 137.87H617.593V137.156C617.593 136.643 617.453 136.251 617.173 135.98C616.893 135.709 616.463 135.574 615.885 135.574C615.446 135.574 615.077 135.672 614.779 135.868C614.489 136.064 614.247 136.325 614.051 136.652L613.379 136.022C613.575 135.63 613.887 135.299 614.317 135.028C614.746 134.748 615.287 134.608 615.941 134.608C616.818 134.608 617.499 134.823 617.985 135.252C618.47 135.681 618.713 136.279 618.713 137.044V141.02H619.539V142H618.909ZM615.689 141.216C615.969 141.216 616.225 141.183 616.459 141.118C616.692 141.053 616.893 140.959 617.061 140.838C617.229 140.717 617.359 140.577 617.453 140.418C617.546 140.259 617.593 140.087 617.593 139.9V138.71H616.109C615.465 138.71 614.993 138.803 614.695 138.99C614.405 139.177 614.261 139.447 614.261 139.802V140.096C614.261 140.451 614.387 140.726 614.639 140.922C614.9 141.118 615.25 141.216 615.689 141.216ZM625.757 140.824H625.701C625.263 141.72 624.558 142.168 623.587 142.168C623.139 142.168 622.733 142.079 622.369 141.902C622.005 141.725 621.693 141.473 621.431 141.146C621.179 140.819 620.983 140.423 620.843 139.956C620.713 139.489 620.647 138.967 620.647 138.388C620.647 137.809 620.713 137.287 620.843 136.82C620.983 136.353 621.179 135.957 621.431 135.63C621.693 135.303 622.005 135.051 622.369 134.874C622.733 134.697 623.139 134.608 623.587 134.608C624.091 134.608 624.521 134.72 624.875 134.944C625.239 135.159 625.515 135.495 625.701 135.952H625.757V131.64H626.877V142H625.757V140.824ZM623.895 141.16C624.147 141.16 624.385 141.127 624.609 141.062C624.843 140.997 625.043 140.903 625.211 140.782C625.379 140.651 625.51 140.497 625.603 140.32C625.706 140.133 625.757 139.923 625.757 139.69V137.002C625.757 136.806 625.706 136.624 625.603 136.456C625.51 136.279 625.379 136.129 625.211 136.008C625.043 135.887 624.843 135.793 624.609 135.728C624.385 135.653 624.147 135.616 623.895 135.616C623.261 135.616 622.761 135.817 622.397 136.218C622.033 136.61 621.851 137.128 621.851 137.772V139.004C621.851 139.648 622.033 140.171 622.397 140.572C622.761 140.964 623.261 141.16 623.895 141.16ZM631.974 142.168C631.48 142.168 631.032 142.079 630.63 141.902C630.238 141.725 629.898 141.473 629.608 141.146C629.328 140.81 629.109 140.413 628.95 139.956C628.801 139.489 628.726 138.967 628.726 138.388C628.726 137.819 628.801 137.301 628.95 136.834C629.109 136.367 629.328 135.971 629.608 135.644C629.898 135.308 630.238 135.051 630.63 134.874C631.032 134.697 631.48 134.608 631.974 134.608C632.46 134.608 632.894 134.697 633.276 134.874C633.659 135.051 633.986 135.299 634.256 135.616C634.527 135.924 634.732 136.293 634.872 136.722C635.022 137.151 635.096 137.623 635.096 138.136V138.668H629.902V139.004C629.902 139.312 629.949 139.601 630.042 139.872C630.145 140.133 630.285 140.362 630.462 140.558C630.649 140.754 630.873 140.908 631.134 141.02C631.405 141.132 631.708 141.188 632.044 141.188C632.502 141.188 632.898 141.081 633.234 140.866C633.58 140.651 633.846 140.343 634.032 139.942L634.83 140.516C634.597 141.011 634.233 141.412 633.738 141.72C633.244 142.019 632.656 142.168 631.974 142.168ZM631.974 135.546C631.666 135.546 631.386 135.602 631.134 135.714C630.882 135.817 630.663 135.966 630.476 136.162C630.299 136.358 630.159 136.591 630.056 136.862C629.954 137.123 629.902 137.413 629.902 137.73V137.828H633.892V137.674C633.892 137.03 633.715 136.517 633.36 136.134C633.015 135.742 632.553 135.546 631.974 135.546Z" fill="#081131"/>
<rect x="915.4" y="97.4" width="202.2" height="76.2" rx="11.6" fill="#FAFAFA" stroke="#F2F2F2" stroke-width="1.2"/>
<rect x="921" y="103" width="99" height="65" rx="11" fill="white"/>
<path d="M1032.15 127.55H1039.88C1041.33 127.55 1042.46 127.958 1043.28 128.775C1044.11 129.592 1044.53 130.683 1044.53 132.05C1044.53 132.7 1044.43 133.258 1044.25 133.725C1044.07 134.175 1043.83 134.55 1043.55 134.85C1043.27 135.133 1042.94 135.35 1042.58 135.5C1042.21 135.633 1041.85 135.717 1041.5 135.75V135.9C1041.85 135.917 1042.23 136 1042.65 136.15C1043.08 136.3 1043.48 136.542 1043.85 136.875C1044.22 137.192 1044.53 137.608 1044.78 138.125C1045.03 138.625 1045.15 139.242 1045.15 139.975C1045.15 140.675 1045.03 141.333 1044.8 141.95C1044.58 142.567 1044.28 143.1 1043.88 143.55C1043.48 144 1043 144.358 1042.45 144.625C1041.9 144.875 1041.3 145 1040.65 145H1032.15V127.55ZM1034.98 142.575H1039.83C1040.56 142.575 1041.13 142.383 1041.55 142C1041.97 141.617 1042.18 141.067 1042.18 140.35V139.5C1042.18 138.783 1041.97 138.233 1041.55 137.85C1041.13 137.467 1040.56 137.275 1039.83 137.275H1034.98V142.575ZM1034.98 134.925H1039.35C1040.05 134.925 1040.59 134.75 1040.98 134.4C1041.36 134.033 1041.55 133.517 1041.55 132.85V132.05C1041.55 131.383 1041.36 130.875 1040.98 130.525C1040.59 130.158 1040.05 129.975 1039.35 129.975H1034.98V134.925Z" fill="#081131"/>
<path d="M1061.59 132.264V141H1060.42V132.264H1057.31V131.228H1064.7V132.264H1061.59ZM1065.57 141V133.776H1066.69V135.106H1066.76C1066.89 134.761 1067.13 134.453 1067.46 134.182C1067.8 133.911 1068.26 133.776 1068.85 133.776H1069.28V134.896H1068.62C1068.02 134.896 1067.54 135.013 1067.2 135.246C1066.86 135.47 1066.69 135.755 1066.69 136.1V141H1065.57ZM1075.91 141C1075.49 141 1075.19 140.888 1075 140.664C1074.82 140.44 1074.71 140.16 1074.66 139.824H1074.59C1074.43 140.272 1074.17 140.608 1073.81 140.832C1073.44 141.056 1073.01 141.168 1072.51 141.168C1071.74 141.168 1071.14 140.972 1070.71 140.58C1070.29 140.188 1070.08 139.656 1070.08 138.984C1070.08 138.303 1070.33 137.78 1070.83 137.416C1071.33 137.052 1072.11 136.87 1073.16 136.87H1074.59V136.156C1074.59 135.643 1074.45 135.251 1074.17 134.98C1073.89 134.709 1073.46 134.574 1072.88 134.574C1072.45 134.574 1072.08 134.672 1071.78 134.868C1071.49 135.064 1071.25 135.325 1071.05 135.652L1070.38 135.022C1070.57 134.63 1070.89 134.299 1071.32 134.028C1071.75 133.748 1072.29 133.608 1072.94 133.608C1073.82 133.608 1074.5 133.823 1074.98 134.252C1075.47 134.681 1075.71 135.279 1075.71 136.044V140.02H1076.54V141H1075.91ZM1072.69 140.216C1072.97 140.216 1073.23 140.183 1073.46 140.118C1073.69 140.053 1073.89 139.959 1074.06 139.838C1074.23 139.717 1074.36 139.577 1074.45 139.418C1074.55 139.259 1074.59 139.087 1074.59 138.9V137.71H1073.11C1072.46 137.71 1071.99 137.803 1071.69 137.99C1071.41 138.177 1071.26 138.447 1071.26 138.802V139.096C1071.26 139.451 1071.39 139.726 1071.64 139.922C1071.9 140.118 1072.25 140.216 1072.69 140.216ZM1082.76 139.824H1082.7C1082.26 140.72 1081.56 141.168 1080.59 141.168C1080.14 141.168 1079.73 141.079 1079.37 140.902C1079.01 140.725 1078.69 140.473 1078.43 140.146C1078.18 139.819 1077.98 139.423 1077.84 138.956C1077.71 138.489 1077.65 137.967 1077.65 137.388C1077.65 136.809 1077.71 136.287 1077.84 135.82C1077.98 135.353 1078.18 134.957 1078.43 134.63C1078.69 134.303 1079.01 134.051 1079.37 133.874C1079.73 133.697 1080.14 133.608 1080.59 133.608C1081.09 133.608 1081.52 133.72 1081.88 133.944C1082.24 134.159 1082.51 134.495 1082.7 134.952H1082.76V130.64H1083.88V141H1082.76V139.824ZM1080.9 140.16C1081.15 140.16 1081.39 140.127 1081.61 140.062C1081.84 139.997 1082.04 139.903 1082.21 139.782C1082.38 139.651 1082.51 139.497 1082.6 139.32C1082.71 139.133 1082.76 138.923 1082.76 138.69V136.002C1082.76 135.806 1082.71 135.624 1082.6 135.456C1082.51 135.279 1082.38 135.129 1082.21 135.008C1082.04 134.887 1081.84 134.793 1081.61 134.728C1081.39 134.653 1081.15 134.616 1080.9 134.616C1080.26 134.616 1079.76 134.817 1079.4 135.218C1079.03 135.61 1078.85 136.128 1078.85 136.772V138.004C1078.85 138.648 1079.03 139.171 1079.4 139.572C1079.76 139.964 1080.26 140.16 1080.9 140.16ZM1088.97 141.168C1088.48 141.168 1088.03 141.079 1087.63 140.902C1087.24 140.725 1086.9 140.473 1086.61 140.146C1086.33 139.81 1086.11 139.413 1085.95 138.956C1085.8 138.489 1085.73 137.967 1085.73 137.388C1085.73 136.819 1085.8 136.301 1085.95 135.834C1086.11 135.367 1086.33 134.971 1086.61 134.644C1086.9 134.308 1087.24 134.051 1087.63 133.874C1088.03 133.697 1088.48 133.608 1088.97 133.608C1089.46 133.608 1089.89 133.697 1090.28 133.874C1090.66 134.051 1090.99 134.299 1091.26 134.616C1091.53 134.924 1091.73 135.293 1091.87 135.722C1092.02 136.151 1092.1 136.623 1092.1 137.136V137.668H1086.9V138.004C1086.9 138.312 1086.95 138.601 1087.04 138.872C1087.15 139.133 1087.29 139.362 1087.46 139.558C1087.65 139.754 1087.87 139.908 1088.13 140.02C1088.41 140.132 1088.71 140.188 1089.04 140.188C1089.5 140.188 1089.9 140.081 1090.23 139.866C1090.58 139.651 1090.85 139.343 1091.03 138.942L1091.83 139.516C1091.6 140.011 1091.23 140.412 1090.74 140.72C1090.24 141.019 1089.66 141.168 1088.97 141.168ZM1088.97 134.546C1088.67 134.546 1088.39 134.602 1088.13 134.714C1087.88 134.817 1087.66 134.966 1087.48 135.162C1087.3 135.358 1087.16 135.591 1087.06 135.862C1086.95 136.123 1086.9 136.413 1086.9 136.73V136.828H1090.89V136.674C1090.89 136.03 1090.72 135.517 1090.36 135.134C1090.02 134.742 1089.55 134.546 1088.97 134.546Z" fill="#081131"/>
<path d="M960.316 149.624V154.784C960.316 155.496 960.452 156.032 960.724 156.392C960.996 156.752 961.46 156.932 962.116 156.932C962.772 156.932 963.236 156.752 963.508 156.392C963.78 156.032 963.916 155.496 963.916 154.784V149.624H965.248V154.568C965.248 155.184 965.192 155.716 965.08 156.164C964.968 156.612 964.788 156.984 964.54 157.28C964.292 157.568 963.968 157.784 963.568 157.928C963.176 158.072 962.692 158.144 962.116 158.144C961.54 158.144 961.052 158.072 960.652 157.928C960.26 157.784 959.94 157.568 959.692 157.28C959.444 156.984 959.264 156.612 959.152 156.164C959.04 155.716 958.984 155.184 958.984 154.568V149.624H960.316ZM969.143 158.144C968.551 158.144 968.055 158.04 967.655 157.832C967.255 157.624 966.907 157.336 966.611 156.968L967.451 156.2C967.683 156.48 967.939 156.7 968.219 156.86C968.507 157.012 968.839 157.088 969.215 157.088C969.599 157.088 969.883 157.016 970.067 156.872C970.259 156.72 970.355 156.512 970.355 156.248C970.355 156.048 970.287 155.88 970.151 155.744C970.023 155.6 969.795 155.508 969.467 155.468L968.891 155.396C968.251 155.316 967.747 155.132 967.379 154.844C967.019 154.548 966.839 154.112 966.839 153.536C966.839 153.232 966.895 152.964 967.007 152.732C967.119 152.492 967.275 152.292 967.475 152.132C967.683 151.964 967.927 151.836 968.207 151.748C968.495 151.66 968.811 151.616 969.155 151.616C969.715 151.616 970.171 151.704 970.523 151.88C970.883 152.056 971.203 152.3 971.483 152.612L970.679 153.38C970.519 153.188 970.307 153.024 970.043 152.888C969.787 152.744 969.491 152.672 969.155 152.672C968.795 152.672 968.527 152.744 968.351 152.888C968.183 153.032 968.099 153.22 968.099 153.452C968.099 153.692 968.175 153.872 968.327 153.992C968.479 154.112 968.723 154.2 969.059 154.256L969.635 154.328C970.323 154.432 970.823 154.636 971.135 154.94C971.455 155.236 971.615 155.636 971.615 156.14C971.615 156.444 971.555 156.72 971.435 156.968C971.323 157.208 971.159 157.416 970.943 157.592C970.727 157.768 970.467 157.904 970.163 158C969.859 158.096 969.519 158.144 969.143 158.144ZM975.54 158.144C975.092 158.144 974.692 158.068 974.34 157.916C973.988 157.764 973.688 157.548 973.44 157.268C973.192 156.98 973 156.636 972.864 156.236C972.736 155.828 972.672 155.376 972.672 154.88C972.672 154.384 972.736 153.936 972.864 153.536C973 153.128 973.192 152.784 973.44 152.504C973.688 152.216 973.988 151.996 974.34 151.844C974.692 151.692 975.092 151.616 975.54 151.616C975.996 151.616 976.396 151.696 976.74 151.856C977.092 152.016 977.384 152.24 977.616 152.528C977.848 152.808 978.02 153.136 978.132 153.512C978.252 153.888 978.312 154.292 978.312 154.724V155.216H974.028V155.42C974.028 155.9 974.168 156.296 974.448 156.608C974.736 156.912 975.144 157.064 975.672 157.064C976.056 157.064 976.38 156.98 976.644 156.812C976.908 156.644 977.132 156.416 977.316 156.128L978.084 156.884C977.852 157.268 977.516 157.576 977.076 157.808C976.636 158.032 976.124 158.144 975.54 158.144ZM975.54 152.636C975.316 152.636 975.108 152.676 974.916 152.756C974.732 152.836 974.572 152.948 974.436 153.092C974.308 153.236 974.208 153.408 974.136 153.608C974.064 153.808 974.028 154.028 974.028 154.268V154.352H976.932V154.232C976.932 153.752 976.808 153.368 976.56 153.08C976.312 152.784 975.972 152.636 975.54 152.636ZM979.76 158V151.76H981.068V152.96H981.128C981.216 152.64 981.4 152.36 981.68 152.12C981.96 151.88 982.348 151.76 982.844 151.76H983.192V153.02H982.676C982.156 153.02 981.756 153.104 981.476 153.272C981.204 153.44 981.068 153.688 981.068 154.016V158H979.76Z" fill="#081131"/>
<path d="M1064 193V242H55L55 204" stroke="#081131" stroke-width="0.9" stroke-dasharray="1.8 1.8"/>
<path d="M55 193L49.8038 202L60.1962 202L55 193Z" fill="#081131"/>
<path d="M514 140C522.837 140 530 132.837 530 124C530 115.164 522.837 108 514 108C505.164 108 498 115.164 498 124C498 132.837 505.164 140 514 140Z" fill="#FAFAFA"/>
<path d="M971 140C979.836 140 987 132.836 987 124C987 115.163 979.836 108 971 108C962.163 108 955 115.163 955 124C955 132.836 962.163 140 971 140Z" fill="#FAFAFA"/>
<path d="M57 124.75C53.83 124.75 51.25 122.17 51.25 119C51.25 115.83 53.83 113.25 57 113.25C60.17 113.25 62.75 115.83 62.75 119C62.75 122.17 60.17 124.75 57 124.75ZM57 114.75C54.66 114.75 52.75 116.66 52.75 119C52.75 121.34 54.66 123.25 57 123.25C59.34 123.25 61.25 121.34 61.25 119C61.25 116.66 59.34 114.75 57 114.75Z" fill="#292D32"/>
<path d="M65.5862 134.75C65.1762 134.75 64.8362 134.41 64.8362 134C64.8362 130.55 61.3162 127.75 56.9962 127.75C52.6762 127.75 49.1562 130.55 49.1562 134C49.1562 134.41 48.8162 134.75 48.4062 134.75C47.9963 134.75 47.6562 134.41 47.6562 134C47.6562 129.73 51.8462 126.25 56.9962 126.25C62.1462 126.25 66.3362 129.73 66.3362 134C66.3362 134.41 65.9962 134.75 65.5862 134.75Z" fill="#292D32"/>
<path d="M514 124.75C510.83 124.75 508.25 122.17 508.25 119C508.25 115.83 510.83 113.25 514 113.25C517.17 113.25 519.75 115.83 519.75 119C519.75 122.17 517.17 124.75 514 124.75ZM514 114.75C511.66 114.75 509.75 116.66 509.75 119C509.75 121.34 511.66 123.25 514 123.25C516.34 123.25 518.25 121.34 518.25 119C518.25 116.66 516.34 114.75 514 114.75Z" fill="#292D32"/>
<path d="M522.586 134.75C522.176 134.75 521.836 134.41 521.836 134C521.836 130.55 518.316 127.75 513.996 127.75C509.676 127.75 506.156 130.55 506.156 134C506.156 134.41 505.816 134.75 505.406 134.75C504.996 134.75 504.656 134.41 504.656 134C504.656 129.73 508.846 126.25 513.996 126.25C519.146 126.25 523.336 129.73 523.336 134C523.336 134.41 522.996 134.75 522.586 134.75Z" fill="#292D32"/>
<path d="M971 124.75C967.83 124.75 965.25 122.17 965.25 119C965.25 115.83 967.83 113.25 971 113.25C974.17 113.25 976.75 115.83 976.75 119C976.75 122.17 974.17 124.75 971 124.75ZM971 114.75C968.66 114.75 966.75 116.66 966.75 119C966.75 121.34 968.66 123.25 971 123.25C973.34 123.25 975.25 121.34 975.25 119C975.25 116.66 973.34 114.75 971 114.75Z" fill="#292D32"/>
<path d="M979.586 134.75C979.176 134.75 978.836 134.41 978.836 134C978.836 130.55 975.316 127.75 970.996 127.75C966.676 127.75 963.156 130.55 963.156 134C963.156 134.41 962.816 134.75 962.406 134.75C961.996 134.75 961.656 134.41 961.656 134C961.656 129.73 965.846 126.25 970.996 126.25C976.146 126.25 980.336 129.73 980.336 134C980.336 134.41 979.996 134.75 979.586 134.75Z" fill="#292D32"/>
<defs>
<linearGradient id="paint0_linear_5015_11961" x1="363.119" y1="146" x2="297.145" y2="146" gradientUnits="userSpaceOnUse">
<stop stop-color="#081131"/>
<stop offset="1" stop-color="#FAFAFA"/>
</linearGradient>
<linearGradient id="paint1_linear_5015_11961" x1="820.119" y1="146" x2="754.145" y2="146" gradientUnits="userSpaceOnUse">
<stop stop-color="#081131"/>
<stop offset="1" stop-color="#FAFAFA"/>
</linearGradient>
</defs>
</svg>
