<svg width="40" height="40" viewBox="0 0 40 40" fill="none" xmlns="http://www.w3.org/2000/svg">
<rect width="40" height="40" rx="8" fill="#FFA500"/>
<path d="M21.3 16.1103L22.62 18.7503C22.8 19.1103 23.28 19.4703 23.68 19.5303L26.07 19.9303C27.6 20.1903 27.96 21.2903 26.86 22.3903L25 24.2603C24.69 24.5703 24.51 25.1803 24.61 25.6203L25.14 27.9303C25.56 29.7503 24.59 30.4603 22.98 29.5103L20.74 28.1803C20.33 27.9403 19.67 27.9403 19.26 28.1803L17.01 29.5003C15.4 30.4503 14.43 29.7403 14.85 27.9203L15.38 25.6103C15.48 25.1803 15.3 24.5703 14.99 24.2503L13.14 22.4003C12.04 21.3003 12.4 20.1903 13.93 19.9403L16.32 19.5403C16.72 19.4703 17.2 19.1203 17.38 18.7603L18.7 16.1203C19.41 14.6803 20.59 14.6803 21.3 16.1103Z" fill="white"/>
<path d="M14 17.75C13.59 17.75 13.25 17.41 13.25 17V10C13.25 9.59 13.59 9.25 14 9.25C14.41 9.25 14.75 9.59 14.75 10V17C14.75 17.41 14.41 17.75 14 17.75Z" fill="white"/>
<path d="M26 17.75C25.59 17.75 25.25 17.41 25.25 17V10C25.25 9.59 25.59 9.25 26 9.25C26.41 9.25 26.75 9.59 26.75 10V17C26.75 17.41 26.41 17.75 26 17.75Z" fill="white"/>
<path d="M20 12.75C19.59 12.75 19.25 12.41 19.25 12V10C19.25 9.59 19.59 9.25 20 9.25C20.41 9.25 20.75 9.59 20.75 10V12C20.75 12.41 20.41 12.75 20 12.75Z" fill="white"/>
</svg>
