<svg width="28" height="28" viewBox="0 0 28 28" fill="none" xmlns="http://www.w3.org/2000/svg">
<mask id="mask0_1468_9104" style="mask-type:alpha" maskUnits="userSpaceOnUse" x="0" y="0" width="28" height="28">
<rect width="28" height="28" fill="#D9D9D9"/>
</mask>
<g mask="url(#mask0_1468_9104)">
<path fill-rule="evenodd" clip-rule="evenodd" d="M17.555 3.18339L17.8367 2.757L18.1182 2.33683L18.7458 1.39219C18.8239 1.27612 18.7918 1.11909 18.6755 1.04275C18.5606 0.964555 18.4029 0.996818 18.3279 1.11351L17.3698 2.55032L17.082 2.98292C16.1713 2.62853 15.1565 2.43054 14.085 2.43054C13.0151 2.43054 11.9987 2.62853 11.088 2.98292L10.8017 2.55032L9.84509 1.11351C9.76703 0.996818 9.6109 0.965793 9.49457 1.04275C9.37976 1.11909 9.34762 1.27612 9.42415 1.39219L10.0517 2.33683L10.3334 2.757L10.6165 3.18339C8.47821 4.18203 7.03175 6.07255 7.03175 8.23677H21.1383C21.1383 6.07255 19.6918 4.18203 17.555 3.18339ZM17.1081 6.21716C16.6902 6.21716 16.3519 5.87827 16.3519 5.45934C16.3519 5.04102 16.6902 4.70338 17.1081 4.70338C17.5259 4.70338 17.8642 5.04102 17.8642 5.45934C17.8642 5.87827 17.5259 6.21716 17.1081 6.21716ZM10.3058 5.45934C10.3058 5.87827 10.6441 6.21716 11.0619 6.21716C11.4799 6.21716 11.8181 5.87827 11.8181 5.45934C11.8181 5.04102 11.4799 4.70338 11.0619 4.70338C10.6441 4.70338 10.3058 5.04102 10.3058 5.45934ZM21.1383 9.24534H7.03175V20.3513C7.03175 21.2333 7.74656 21.9508 8.62822 21.9508H9.77927C9.73946 22.0842 9.71803 22.2239 9.71803 22.371V25.5685C9.71803 26.4046 10.3961 27.0824 11.2303 27.0824C12.0645 27.0824 12.7425 26.4046 12.7425 25.5685V22.371C12.7425 22.2239 12.7197 22.0842 12.6814 21.9508H15.4886C15.4503 22.0842 15.4289 22.2239 15.4289 22.371V25.5685C15.4289 26.4046 16.1055 27.0824 16.9397 27.0824C17.7754 27.0824 18.4535 26.4046 18.4535 25.5685V22.371C18.4535 22.2239 18.4306 22.0842 18.3907 21.9508H19.5433C20.425 21.9508 21.1383 21.2333 21.1383 20.3513V9.24534ZM4.51229 9.24534C3.67655 9.24534 3 9.92309 3 10.7591V17.2381C3 18.0742 3.67655 18.7519 4.51229 18.7519C5.3465 18.7519 6.02305 18.0742 6.02305 17.2381V10.7591C6.02305 9.92309 5.3465 9.24534 4.51229 9.24534ZM23.6593 9.24534C22.8235 9.24534 22.1469 9.92309 22.1469 10.7591V17.2381C22.1469 18.0742 22.8235 18.7519 23.6593 18.7519C24.4934 18.7519 25.17 18.0742 25.17 17.2381V10.7591C25.17 9.92309 24.4934 9.24534 23.6593 9.24534Z" fill="#081131"/>
</g>
</svg>
