<svg width="40" height="40" viewBox="0 0 40 40" fill="none" xmlns="http://www.w3.org/2000/svg">
<mask id="mask0_1047_12580" style="mask-type:alpha" maskUnits="userSpaceOnUse" x="0" y="0" width="40" height="40">
<rect width="40" height="40" fill="#D9D9D9"/>
</mask>
<g mask="url(#mask0_1047_12580)">
<mask id="mask1_1047_12580" style="mask-type:alpha" maskUnits="userSpaceOnUse" x="2" y="2" width="37" height="37">
<rect x="2" y="2" width="37" height="37" fill="#D9D9D9"/>
</mask>
<g mask="url(#mask1_1047_12580)">
<path fill-rule="evenodd" clip-rule="evenodd" d="M25.447 5.65217L25.8192 5.08872L26.1913 4.53349L27.0206 3.28522C27.1238 3.13184 27.0814 2.92434 26.9277 2.82346C26.7759 2.72013 26.5675 2.76276 26.4684 2.91696L25.2023 4.81561L24.822 5.38726C23.6186 4.91895 22.2775 4.65732 20.8617 4.65732C19.4479 4.65732 18.1047 4.91895 16.9014 5.38726L16.5231 4.81561L15.2589 2.91696C15.1558 2.76276 14.9495 2.72177 14.7957 2.82346C14.644 2.92434 14.6016 3.13184 14.7027 3.28522L15.532 4.53349L15.9041 5.08872L16.2783 5.65217C13.4527 6.9718 11.5413 9.46998 11.5413 12.3298H30.1821C30.1821 9.46998 28.2706 6.9718 25.447 5.65217ZM24.8564 9.66108C24.3043 9.66108 23.8573 9.21326 23.8573 8.65967C23.8573 8.10688 24.3043 7.66072 24.8564 7.66072C25.4086 7.66072 25.8556 8.10688 25.8556 8.65967C25.8556 9.21326 25.4086 9.66108 24.8564 9.66108ZM15.8677 8.65967C15.8677 9.21326 16.3148 9.66108 16.8669 9.66108C17.4192 9.66108 17.8661 9.21326 17.8661 8.65967C17.8661 8.10688 17.4192 7.66072 16.8669 7.66072C16.3148 7.66072 15.8677 8.10688 15.8677 8.65967ZM30.1821 13.6626H11.5413V28.3383C11.5413 29.5038 12.4859 30.4519 13.6509 30.4519H15.1719C15.1193 30.6282 15.091 30.8128 15.091 31.0072V35.2325C15.091 36.3373 15.9871 37.2329 17.0894 37.2329C18.1918 37.2329 19.0877 36.3373 19.0877 35.2325V31.0072C19.0877 30.8128 19.0575 30.6282 19.0069 30.4519H22.7164C22.6658 30.6282 22.6375 30.8128 22.6375 31.0072V35.2325C22.6375 36.3373 23.5316 37.2329 24.634 37.2329C25.7383 37.2329 26.6344 36.3373 26.6344 35.2325V31.0072C26.6344 30.8128 26.604 30.6282 26.5513 30.4519H28.0744C29.2395 30.4519 30.1821 29.5038 30.1821 28.3383V13.6626ZM8.21201 13.6626C7.10764 13.6626 6.21362 14.5582 6.21362 15.6629V24.2244C6.21362 25.3293 7.10764 26.2249 8.21201 26.2249C9.31436 26.2249 10.2084 25.3293 10.2084 24.2244V15.6629C10.2084 14.5582 9.31436 13.6626 8.21201 13.6626ZM33.5134 13.6626C32.409 13.6626 31.5149 14.5582 31.5149 15.6629V24.2244C31.5149 25.3293 32.409 26.2249 33.5134 26.2249C34.6157 26.2249 35.5097 25.3293 35.5097 24.2244V15.6629C35.5097 14.5582 34.6157 13.6626 33.5134 13.6626Z" fill="#081131"/>
</g>
</g>
</svg>
