<svg width="54" height="60" viewBox="0 0 54 60" fill="none" xmlns="http://www.w3.org/2000/svg">
<path opacity="0.4" d="M54 48V34.875C54 31.6924 52.7357 28.6402 50.4853 26.3897C48.2348 24.1393 45.1826 22.875 42 22.875H36.311C33.7703 22.8761 31.2948 22.0708 29.241 20.575L24.76 17.3C22.7062 15.8042 20.2307 14.9989 17.69 15H12C8.8174 15 5.76515 16.2643 3.51472 18.5147C1.26428 20.7652 0 23.8174 0 27L0 48C0 51.1826 1.26428 54.2348 3.51472 56.4853C5.76515 58.7357 8.8174 60 12 60H42C45.1826 60 48.2348 58.7357 50.4853 56.4853C52.7357 54.2348 54 51.1826 54 48Z" fill="#777E90" fill-opacity="0.2"/>
<path d="M42 22.875H36.311C33.7703 22.8761 31.2948 22.0708 29.241 20.575L24.76 17.3C22.7062 15.8042 20.2307 14.9989 17.69 15H12C9.89346 14.9966 7.82349 15.5503 6 16.605L6 6C6 4.4087 6.63214 2.88258 7.75736 1.75736C8.88258 0.632141 10.4087 0 12 0L42 0C43.5913 0 45.1174 0.632141 46.2426 1.75736C47.3679 2.88258 48 4.4087 48 6V24.48C46.1765 23.4253 44.1065 22.8715 42 22.875Z" fill="#777E90" fill-opacity="0.2"/>
</svg>
