<svg width="20" height="20" viewBox="0 0 20 20" fill="none" xmlns="http://www.w3.org/2000/svg">
<path d="M12.9891 4.16602H12.7057V1.66602C12.7057 1.32435 12.4224 1.04102 12.0807 1.04102C11.7391 1.04102 11.4557 1.32435 11.4557 1.66602V4.16602H8.53906V1.66602C8.53906 1.32435 8.25573 1.04102 7.91406 1.04102C7.5724 1.04102 7.28906 1.32435 7.28906 1.66602V4.16602H7.00573C6.13073 4.16602 5.41406 4.88268 5.41406 5.75768V9.99935C5.41406 11.8327 6.66406 13.3327 8.7474 13.3327H9.3724V18.3327C9.3724 18.6743 9.65573 18.9577 9.9974 18.9577C10.3391 18.9577 10.6224 18.6743 10.6224 18.3327V13.3327H11.2474C13.3307 13.3327 14.5807 11.8327 14.5807 9.99935V5.75768C14.5807 4.88268 13.8641 4.16602 12.9891 4.16602Z" fill="#71839B"/>
</svg>
