<svg width="40" height="40" viewBox="0 0 40 40" fill="none" xmlns="http://www.w3.org/2000/svg">
<mask id="mask0_1047_12579" style="mask-type:alpha" maskUnits="userSpaceOnUse" x="0" y="0" width="40" height="40">
<rect width="40" height="40" fill="#D9D9D9"/>
</mask>
<g mask="url(#mask0_1047_12579)">
<path fill-rule="evenodd" clip-rule="evenodd" d="M25.656 8.68394C24.1723 8.90874 22.9673 9.63396 22.5505 10.0507L20.9345 11.6668L28.3333 19.0658L29.9495 17.4496C30.3661 17.0328 31.0913 15.8278 31.3161 14.3441C31.531 12.926 31.2753 11.3766 29.9495 10.0507C28.6235 8.72483 27.0741 8.46908 25.656 8.68394ZM25.2815 6.21216C27.3008 5.90619 29.7098 6.27549 31.7171 8.28296C33.7246 10.2904 34.094 12.6993 33.788 14.7187C33.492 16.6725 32.5505 18.3841 31.7171 19.2173L29.2171 21.7175C28.729 22.2056 27.9376 22.2056 27.4495 21.7175L18.2828 12.5507C18.0483 12.3163 17.9166 11.9984 17.9166 11.6668C17.9166 11.3353 18.0483 11.0174 18.2828 10.783L20.7828 8.28298C21.616 7.44966 23.3276 6.50818 25.2815 6.21216Z" fill="#081131"/>
<path fill-rule="evenodd" clip-rule="evenodd" d="M35.8838 4.11611C36.372 4.60426 36.372 5.39573 35.8838 5.88388L31.7172 10.0505C31.229 10.5387 30.4377 10.5389 29.9495 10.0508C29.4613 9.56261 29.4613 8.77093 29.9495 8.28278L34.1162 4.11611C34.6043 3.62796 35.3957 3.62796 35.8838 4.11611Z" fill="#081131"/>
<path fill-rule="evenodd" clip-rule="evenodd" d="M11.6661 17.9166C11.9976 17.9166 12.3155 18.0483 12.55 18.2828L21.7165 27.4495C22.2047 27.9376 22.2047 28.729 21.7165 29.2171L19.2167 31.7171C18.3834 32.5505 16.6717 33.492 14.7179 33.788C12.6986 34.094 10.2896 33.7246 8.28219 31.7171M8.28219 31.7171C6.27474 29.7098 5.90547 27.3008 6.21142 25.2815C6.50746 23.3276 7.44892 21.6161 8.28216 20.7828L10.7822 18.2828C11.0166 18.0483 11.3346 17.9166 11.6661 17.9166M11.6661 20.9345L10.05 22.5505C9.63322 22.9673 8.90801 24.1723 8.68321 25.656C8.46834 27.0741 8.72407 28.6235 10.05 29.9495C11.3758 31.2753 12.9252 31.5311 14.3434 31.3163C15.8271 31.0915 17.032 30.3661 17.4489 29.9495L19.065 28.3333L11.6661 20.9345Z" fill="#081131"/>
<path fill-rule="evenodd" clip-rule="evenodd" d="M23.3839 22.4495C23.872 22.9377 23.872 23.729 23.3839 24.2172L20.0505 27.5505C19.5624 28.0387 18.771 28.0387 18.2829 27.5505C17.7947 27.0623 17.7947 26.271 18.2829 25.7828L21.6162 22.4495C22.1044 21.9613 22.8957 21.9613 23.3839 22.4495Z" fill="#081131"/>
<path fill-rule="evenodd" clip-rule="evenodd" d="M10.0499 29.9495C10.5381 30.4377 10.5387 31.229 10.0505 31.7172L5.88388 35.8838C5.39573 36.372 4.60426 36.372 4.11611 35.8838C3.62796 35.3957 3.62796 34.6043 4.11611 34.1162L8.28278 29.9495C8.77093 29.4613 9.56176 29.4613 10.0499 29.9495Z" fill="#081131"/>
<path fill-rule="evenodd" clip-rule="evenodd" d="M17.5505 16.6161C18.0387 17.1043 18.0387 17.8957 17.5505 18.3838L14.2173 21.7172C13.7291 22.2053 12.9376 22.2053 12.4495 21.7172C11.9613 21.229 11.9613 20.4377 12.4495 19.9495L15.7828 16.6161C16.271 16.128 17.0624 16.128 17.5505 16.6161Z" fill="#081131"/>
<path d="M17 32L20 29L11.5 19.5L10 20.5L8 23V27L8.5 30.5L12.5 32.5L17 32Z" fill="#081131" stroke="#081131"/>
<path d="M32.5225 17.0949L29.4997 20.0719L20.0647 11.4999L21.0761 10.0076L23.5912 8.02663L27.5911 8.05707L31.0872 8.58369L33.0567 12.5988L32.5225 17.0949Z" fill="#081131" stroke="#081131"/>
</g>
</svg>
