<svg xmlns="http://www.w3.org/2000/svg" xmlns:xlink="http://www.w3.org/1999/xlink" width="17" height="17" viewBox="0 0 17 17">
  <defs>
    <clipPath id="clip-path">
      <rect id="Rectangle_19218" data-name="Rectangle 19218" width="17" height="17" transform="translate(1194.6 694.8)" fill="#6e3333" opacity="0.33"/>
    </clipPath>
  </defs>
  <g id="Mask_Group_213" data-name="Mask Group 213" transform="translate(-1194.6 -694.8)" clip-path="url(#clip-path)">
    <g id="api" transform="translate(1195 692.794)">
      <path id="Path_43588" data-name="Path 43588" d="M14.027,14.428a1.754,1.754,0,0,0-1.708,1.418H9.593a1.764,1.764,0,0,0-1.358-1.382V11.792h4.786a2.776,2.776,0,0,0,2.749-2.8,2.82,2.82,0,0,0-1.031-2.182A3.666,3.666,0,0,0,11.1,3.4a3.589,3.589,0,0,0-2.215.762,4.132,4.132,0,0,0-3.51-1.954A4.217,4.217,0,0,0,1.2,6.455q0,.111.006.227A2.817,2.817,0,0,0,0,9a2.777,2.777,0,0,0,2.749,2.8H7.535v2.671a1.765,1.765,0,0,0-1.358,1.382H3.452a1.754,1.754,0,0,0-1.708-1.418,1.775,1.775,0,0,0,0,3.549,1.754,1.754,0,0,0,1.708-1.418H6.177a1.738,1.738,0,0,0,3.416,0h2.726a1.747,1.747,0,1,0,1.708-2.131ZM.7,8.995A2.094,2.094,0,0,1,1.744,7.18a.359.359,0,0,0,.176-.348,3.627,3.627,0,0,1-.02-.377A3.509,3.509,0,0,1,5.374,2.919a3.45,3.45,0,0,1,3.1,1.954.351.351,0,0,0,.255.192.345.345,0,0,0,.3-.1A2.911,2.911,0,0,1,11.1,4.111a2.967,2.967,0,0,1,2.95,2.9.358.358,0,0,0,.149.279A2.1,2.1,0,0,1,15.07,9a2.069,2.069,0,0,1-2.048,2.084H2.749A2.069,2.069,0,0,1,.7,8.995Zm1.043,8.268a1.061,1.061,0,0,1,0-2.122,1.061,1.061,0,0,1,0,2.122Zm6.142,0A1.061,1.061,0,1,1,8.928,16.2,1.053,1.053,0,0,1,7.885,17.263Zm6.142,0A1.061,1.061,0,1,1,15.07,16.2,1.053,1.053,0,0,1,14.027,17.263Z" transform="translate(0 0)" fill="#787d96" stroke="#787d96" stroke-width="0.5"/>
    </g>
  </g>
</svg>
