<svg width="194" height="48" viewBox="0 0 194 48" fill="none" xmlns="http://www.w3.org/2000/svg">
<g filter="url(#filter0_d_228_17014)">
<rect x="2" y="1" width="190" height="44" rx="8" fill="white"/>
<path d="M60.8418 28.1449C60.5091 28.9135 60.1153 29.6211 59.659 30.2715C59.0371 31.1583 58.5278 31.7721 58.1354 32.113C57.527 32.6724 56.8752 32.959 56.1772 32.9753C55.6761 32.9753 55.0718 32.8327 54.3683 32.5434C53.6626 32.2555 53.014 32.113 52.421 32.113C51.7991 32.113 51.132 32.2555 50.4185 32.5434C49.704 32.8327 49.1283 32.9834 48.6882 32.9984C48.0188 33.0269 47.3517 32.7322 46.6857 32.113C46.2607 31.7422 45.729 31.1067 45.0921 30.2063C44.4088 29.2449 43.847 28.13 43.4069 26.8589C42.9355 25.486 42.6992 24.1565 42.6992 22.8694C42.6992 21.3951 43.0178 20.1235 43.6559 19.0578C44.1574 18.2019 44.8246 17.5267 45.6596 17.0311C46.4946 16.5354 47.3969 16.2828 48.3685 16.2666C48.9002 16.2666 49.5974 16.4311 50.4637 16.7543C51.3277 17.0786 51.8824 17.243 52.1256 17.243C52.3075 17.243 52.9237 17.0507 53.9684 16.6674C54.9564 16.3119 55.7902 16.1647 56.4732 16.2226C58.3241 16.372 59.7147 17.1017 60.6395 18.4162C58.9841 19.4192 58.1653 20.824 58.1816 22.6262C58.1965 24.03 58.7057 25.1981 59.7066 26.1256C60.1601 26.5561 60.6667 26.8888 61.2302 27.1251C61.108 27.4795 60.979 27.819 60.8418 28.1449ZM56.5968 11.4404C56.5968 12.5406 56.1948 13.5679 55.3936 14.5188C54.4267 15.6492 53.2572 16.3024 51.989 16.1993C51.9729 16.0673 51.9635 15.9284 51.9635 15.7824C51.9635 14.7261 52.4233 13.5958 53.2399 12.6715C53.6475 12.2036 54.166 11.8145 54.7948 11.5041C55.4221 11.1983 56.0156 11.0292 56.5737 11.0002C56.59 11.1473 56.5968 11.2944 56.5968 11.4404V11.4404Z" fill="black"/>
<path d="M78.642 29H76.392L80.4886 17.3636H83.0909L87.1932 29H84.9432L81.8352 19.75H81.7443L78.642 29ZM78.7159 24.4375H84.8523V26.1307H78.7159V24.4375ZM88.6349 32.2727V20.2727H90.6577V21.7159H90.777C90.883 21.5038 91.0327 21.2784 91.2259 21.0398C91.419 20.7973 91.6804 20.5909 92.0099 20.4205C92.3395 20.2462 92.7599 20.1591 93.2713 20.1591C93.9455 20.1591 94.5535 20.3314 95.0952 20.6761C95.6406 21.017 96.0724 21.5227 96.3906 22.1932C96.7126 22.8598 96.8736 23.678 96.8736 24.6477C96.8736 25.6061 96.7164 26.4205 96.402 27.0909C96.0876 27.7614 95.6596 28.2727 95.1179 28.625C94.5762 28.9773 93.9626 29.1534 93.277 29.1534C92.777 29.1534 92.3622 29.0701 92.0327 28.9034C91.7031 28.7367 91.438 28.536 91.2372 28.3011C91.0402 28.0625 90.8868 27.8371 90.777 27.625H90.6918V32.2727H88.6349ZM90.652 24.6364C90.652 25.2008 90.7315 25.6951 90.8906 26.1193C91.0535 26.5436 91.2865 26.875 91.5895 27.1136C91.8963 27.3485 92.2675 27.4659 92.7031 27.4659C93.1577 27.4659 93.5384 27.3447 93.8452 27.1023C94.152 26.8561 94.383 26.5208 94.5384 26.0966C94.6974 25.6686 94.777 25.1818 94.777 24.6364C94.777 24.0947 94.6993 23.6136 94.544 23.1932C94.3887 22.7727 94.1577 22.4432 93.8509 22.2045C93.544 21.9659 93.1615 21.8466 92.7031 21.8466C92.2637 21.8466 91.8906 21.9621 91.5838 22.1932C91.277 22.4242 91.044 22.7481 90.8849 23.1648C90.7296 23.5814 90.652 24.072 90.652 24.6364ZM98.6349 32.2727V20.2727H100.658V21.7159H100.777C100.883 21.5038 101.033 21.2784 101.226 21.0398C101.419 20.7973 101.68 20.5909 102.01 20.4205C102.339 20.2462 102.76 20.1591 103.271 20.1591C103.946 20.1591 104.554 20.3314 105.095 20.6761C105.641 21.017 106.072 21.5227 106.391 22.1932C106.713 22.8598 106.874 23.678 106.874 24.6477C106.874 25.6061 106.716 26.4205 106.402 27.0909C106.088 27.7614 105.66 28.2727 105.118 28.625C104.576 28.9773 103.963 29.1534 103.277 29.1534C102.777 29.1534 102.362 29.0701 102.033 28.9034C101.703 28.7367 101.438 28.536 101.237 28.3011C101.04 28.0625 100.887 27.8371 100.777 27.625H100.692V32.2727H98.6349ZM100.652 24.6364C100.652 25.2008 100.732 25.6951 100.891 26.1193C101.054 26.5436 101.286 26.875 101.589 27.1136C101.896 27.3485 102.268 27.4659 102.703 27.4659C103.158 27.4659 103.538 27.3447 103.845 27.1023C104.152 26.8561 104.383 26.5208 104.538 26.0966C104.697 25.6686 104.777 25.1818 104.777 24.6364C104.777 24.0947 104.699 23.6136 104.544 23.1932C104.389 22.7727 104.158 22.4432 103.851 22.2045C103.544 21.9659 103.161 21.8466 102.703 21.8466C102.264 21.8466 101.891 21.9621 101.584 22.1932C101.277 22.4242 101.044 22.7481 100.885 23.1648C100.73 23.5814 100.652 24.072 100.652 24.6364ZM119.018 20.5625C118.965 20.0663 118.742 19.6799 118.348 19.4034C117.958 19.1269 117.45 18.9886 116.825 18.9886C116.386 18.9886 116.009 19.0549 115.695 19.1875C115.38 19.3201 115.14 19.5 114.973 19.7273C114.806 19.9545 114.721 20.214 114.717 20.5057C114.717 20.7481 114.772 20.9583 114.882 21.1364C114.996 21.3144 115.149 21.4659 115.342 21.5909C115.536 21.7121 115.75 21.8144 115.984 21.8977C116.219 21.9811 116.456 22.0511 116.695 22.108L117.786 22.3807C118.225 22.483 118.647 22.6212 119.053 22.7955C119.462 22.9697 119.827 23.1894 120.149 23.4545C120.475 23.7197 120.732 24.0398 120.922 24.4148C121.111 24.7898 121.206 25.2292 121.206 25.733C121.206 26.4148 121.032 27.0152 120.683 27.5341C120.335 28.0492 119.831 28.4527 119.172 28.7443C118.517 29.0322 117.723 29.1761 116.791 29.1761C115.886 29.1761 115.1 29.036 114.433 28.7557C113.77 28.4754 113.251 28.0663 112.876 27.5284C112.505 26.9905 112.304 26.3352 112.274 25.5625H114.348C114.378 25.9678 114.503 26.3049 114.723 26.5739C114.943 26.8428 115.229 27.0436 115.581 27.1761C115.937 27.3087 116.335 27.375 116.774 27.375C117.232 27.375 117.634 27.3068 117.979 27.1705C118.327 27.0303 118.6 26.8371 118.797 26.5909C118.994 26.3409 119.094 26.0492 119.098 25.7159C119.094 25.4129 119.005 25.1629 118.831 24.9659C118.657 24.7652 118.412 24.5985 118.098 24.4659C117.787 24.3295 117.424 24.2083 117.007 24.1023L115.683 23.7614C114.725 23.5152 113.967 23.142 113.411 22.642C112.857 22.1383 112.581 21.4697 112.581 20.6364C112.581 19.9508 112.767 19.3504 113.138 18.8352C113.513 18.3201 114.022 17.9205 114.666 17.6364C115.31 17.3485 116.039 17.2045 116.854 17.2045C117.679 17.2045 118.403 17.3485 119.024 17.6364C119.649 17.9205 120.14 18.3163 120.496 18.8239C120.852 19.3277 121.036 19.9072 121.047 20.5625H119.018ZM127.352 20.2727V21.8636H122.335V20.2727H127.352ZM123.574 18.1818H125.631V26.375C125.631 26.6515 125.672 26.8636 125.756 27.0114C125.843 27.1553 125.956 27.2538 126.097 27.3068C126.237 27.3598 126.392 27.3864 126.562 27.3864C126.691 27.3864 126.809 27.3769 126.915 27.358C127.025 27.339 127.108 27.322 127.165 27.3068L127.511 28.9148C127.402 28.9527 127.244 28.9943 127.04 29.0398C126.839 29.0852 126.593 29.1117 126.301 29.1193C125.786 29.1345 125.322 29.0568 124.909 28.8864C124.496 28.7121 124.169 28.4432 123.926 28.0795C123.688 27.7159 123.57 27.2614 123.574 26.7159V18.1818ZM132.786 29.1705C131.933 29.1705 131.195 28.983 130.57 28.608C129.945 28.233 129.46 27.7083 129.115 27.0341C128.774 26.3598 128.604 25.572 128.604 24.6705C128.604 23.7689 128.774 22.9792 129.115 22.3011C129.46 21.6231 129.945 21.0966 130.57 20.7216C131.195 20.3466 131.933 20.1591 132.786 20.1591C133.638 20.1591 134.376 20.3466 135.001 20.7216C135.626 21.0966 136.109 21.6231 136.45 22.3011C136.795 22.9792 136.967 23.7689 136.967 24.6705C136.967 25.572 136.795 26.3598 136.45 27.0341C136.109 27.7083 135.626 28.233 135.001 28.608C134.376 28.983 133.638 29.1705 132.786 29.1705ZM132.797 27.5227C133.259 27.5227 133.645 27.3958 133.956 27.142C134.267 26.8845 134.498 26.5398 134.649 26.108C134.804 25.6761 134.882 25.1951 134.882 24.6648C134.882 24.1307 134.804 23.6477 134.649 23.2159C134.498 22.7803 134.267 22.4337 133.956 22.1761C133.645 21.9186 133.259 21.7898 132.797 21.7898C132.323 21.7898 131.929 21.9186 131.615 22.1761C131.304 22.4337 131.071 22.7803 130.916 23.2159C130.765 23.6477 130.689 24.1307 130.689 24.6648C130.689 25.1951 130.765 25.6761 130.916 26.108C131.071 26.5398 131.304 26.8845 131.615 27.142C131.929 27.3958 132.323 27.5227 132.797 27.5227ZM138.713 29V20.2727H140.707V21.7273H140.798C140.957 21.2235 141.23 20.8352 141.616 20.5625C142.007 20.286 142.452 20.1477 142.952 20.1477C143.065 20.1477 143.192 20.1534 143.332 20.1648C143.476 20.1723 143.596 20.1856 143.69 20.2045V22.0966C143.603 22.0663 143.465 22.0398 143.276 22.017C143.09 21.9905 142.91 21.9773 142.736 21.9773C142.361 21.9773 142.024 22.0587 141.724 22.2216C141.429 22.3807 141.196 22.6023 141.026 22.8864C140.855 23.1705 140.77 23.4981 140.77 23.8693V29H138.713ZM148.561 29.1705C147.686 29.1705 146.93 28.9886 146.294 28.625C145.661 28.2576 145.175 27.7386 144.834 27.0682C144.493 26.3939 144.322 25.6004 144.322 24.6875C144.322 23.7898 144.493 23.0019 144.834 22.3239C145.179 21.642 145.66 21.1117 146.277 20.733C146.894 20.3504 147.62 20.1591 148.453 20.1591C148.991 20.1591 149.499 20.2462 149.976 20.4205C150.457 20.5909 150.881 20.8561 151.249 21.2159C151.62 21.5758 151.911 22.0341 152.124 22.5909C152.336 23.1439 152.442 23.803 152.442 24.5682V25.1989H145.288V23.8125H150.47C150.466 23.4186 150.381 23.0682 150.214 22.7614C150.048 22.4508 149.815 22.2064 149.516 22.0284C149.22 21.8504 148.875 21.7614 148.482 21.7614C148.061 21.7614 147.692 21.8636 147.374 22.0682C147.055 22.2689 146.807 22.5341 146.629 22.8636C146.455 23.1894 146.366 23.5473 146.362 23.9375V25.1477C146.362 25.6553 146.455 26.0909 146.641 26.4545C146.826 26.8144 147.086 27.0909 147.419 27.2841C147.752 27.4735 148.143 27.5682 148.589 27.5682C148.889 27.5682 149.16 27.5265 149.402 27.4432C149.644 27.3561 149.855 27.2292 150.033 27.0625C150.211 26.8958 150.345 26.6894 150.436 26.4432L152.357 26.6591C152.235 27.1667 152.004 27.6098 151.663 27.9886C151.326 28.3636 150.894 28.6553 150.368 28.8636C149.841 29.0682 149.239 29.1705 148.561 29.1705Z" fill="#344054"/>
<rect x="2.5" y="1.5" width="189" height="43" rx="7.5" stroke="#D0D5DD"/>
</g>
<defs>
<filter id="filter0_d_228_17014" x="0" y="0" width="194" height="48" filterUnits="userSpaceOnUse" color-interpolation-filters="sRGB">
<feFlood flood-opacity="0" result="BackgroundImageFix"/>
<feColorMatrix in="SourceAlpha" type="matrix" values="0 0 0 0 0 0 0 0 0 0 0 0 0 0 0 0 0 0 127 0" result="hardAlpha"/>
<feOffset dy="1"/>
<feGaussianBlur stdDeviation="1"/>
<feColorMatrix type="matrix" values="0 0 0 0 0.0627451 0 0 0 0 0.0941176 0 0 0 0 0.156863 0 0 0 0.05 0"/>
<feBlend mode="normal" in2="BackgroundImageFix" result="effect1_dropShadow_228_17014"/>
<feBlend mode="normal" in="SourceGraphic" in2="effect1_dropShadow_228_17014" result="shape"/>
</filter>
</defs>
</svg>
