<svg width="30" height="30" viewBox="0 0 30 30" fill="none" xmlns="http://www.w3.org/2000/svg">
<path opacity="0.4" d="M3.43776 23.3125C2.92526 23.3125 2.50026 22.8875 2.50026 22.375V15.25C2.43776 11.8625 3.70026 8.6625 6.05026 6.2625C8.40026 3.875 11.5503 2.5625 14.9378 2.5625C21.8628 2.5625 27.5003 8.2 27.5003 15.125V22.25C27.5003 22.7625 27.0753 23.1875 26.5628 23.1875C26.0503 23.1875 25.6253 22.7625 25.6253 22.25V15.125C25.6253 9.2375 20.8378 4.4375 14.9378 4.4375C12.0503 4.4375 9.37526 5.55 7.38776 7.575C5.38776 9.6125 4.32526 12.325 4.37526 15.225V22.3625C4.37526 22.8875 3.96276 23.3125 3.43776 23.3125Z" fill="#FFA500"/>
<path d="M7.425 15.5625H7.2625C4.6375 15.5625 2.5 17.7 2.5 20.325V22.675C2.5 25.3 4.6375 27.4375 7.2625 27.4375H7.425C10.05 27.4375 12.1875 25.3 12.1875 22.675V20.325C12.1875 17.7 10.05 15.5625 7.425 15.5625Z" fill="#FFA500"/>
<path d="M22.7375 15.5625H22.575C19.95 15.5625 17.8125 17.7 17.8125 20.325V22.675C17.8125 25.3 19.95 27.4375 22.575 27.4375H22.7375C25.3625 27.4375 27.5 25.3 27.5 22.675V20.325C27.5 17.7 25.3625 15.5625 22.7375 15.5625Z" fill="#FFA500"/>
</svg>
