<svg width="12" height="15" viewBox="0 0 12 15" fill="none" xmlns="http://www.w3.org/2000/svg">
<g clip-path="url(#clip0_1075_3534)">
<path d="M11.6182 5.1135C11.5327 5.181 10.0231 6.0465 10.0231 7.971C10.0231 10.197 11.944 10.9845 12.0015 11.004C11.9926 11.052 11.6963 12.0825 10.9887 13.1325C10.3577 14.0565 9.69877 14.979 8.69631 14.979C7.69386 14.979 7.43587 14.3865 6.27862 14.3865C5.15086 14.3865 4.74988 14.9985 3.83292 14.9985C2.91597 14.9985 2.27617 14.1435 1.54054 13.0935C0.688452 11.8605 0 9.945 0 8.127C0 5.211 1.86339 3.6645 3.6973 3.6645C4.67174 3.6645 5.48403 4.3155 6.09582 4.3155C6.67813 4.3155 7.58624 3.6255 8.69484 3.6255C9.11499 3.6255 10.6246 3.6645 11.6182 5.1135ZM8.16855 2.391C8.62703 1.8375 8.95135 1.0695 8.95135 0.3015C8.95135 0.195 8.94251 0.087 8.92334 0C8.17739 0.0285 7.28993 0.5055 6.75479 1.137C6.33464 1.623 5.94251 2.391 5.94251 3.1695C5.94251 3.2865 5.96167 3.4035 5.97052 3.441C6.01769 3.45 6.09435 3.4605 6.17101 3.4605C6.84029 3.4605 7.68206 3.0045 8.16855 2.391Z" fill="black"/>
</g>
<defs>
<clipPath id="clip0_1075_3534">
<rect width="12" height="15" fill="white"/>
</clipPath>
</defs>
</svg>
