<svg width="65" height="65" viewBox="0 0 65 65" fill="none" xmlns="http://www.w3.org/2000/svg">
<rect x="0.5" y="0.5" width="64" height="64" rx="8.5" fill="white" stroke="#D0D5DD"/>
<mask id="mask0_148_13111" style="mask-type:alpha" maskUnits="userSpaceOnUse" x="19" y="18" width="28" height="29">
<rect x="19" y="18.8235" width="27.3529" height="27.3529" fill="#D9D9D9"/>
</mask>
<g mask="url(#mask0_148_13111)">
<path fill-rule="evenodd" clip-rule="evenodd" d="M37.97 18.8232C38.2134 20.4847 37.5404 22.1123 36.6528 23.2639C35.703 24.4991 34.0659 25.4544 32.4799 25.4046C32.1903 23.8139 32.9316 22.175 33.8337 21.0733C34.8232 19.8574 36.5191 18.9246 37.97 18.8232ZM42.7215 42.2032C43.5392 40.9439 43.8447 40.3086 44.4794 38.8868C39.8627 37.1224 39.1229 30.5267 43.6919 27.9951C42.2983 26.2388 40.34 25.2207 38.4913 25.2207C37.1593 25.2207 36.2467 25.57 35.417 25.8876C34.7256 26.1522 34.0918 26.3948 33.321 26.3948C32.4879 26.3948 31.7503 26.129 30.9778 25.8507C30.1291 25.5449 29.2383 25.2239 28.133 25.2239C26.0585 25.2239 23.8503 26.4978 22.4503 28.6754C20.4824 31.7425 20.8181 37.5085 24.0094 42.4202C25.1501 44.1782 26.6742 46.1532 28.6676 46.171C29.4947 46.1792 30.045 45.9311 30.6406 45.6627C31.3224 45.3554 32.0634 45.0214 33.3464 45.0145C34.6369 45.0067 35.3662 45.3448 36.0389 45.6566C36.6192 45.9256 37.1574 46.175 37.9775 46.1661C39.9725 46.1501 41.5809 43.961 42.7215 42.2032Z" fill="#081131"/>
</g>
</svg>
