<svg width="40" height="40" viewBox="0 0 40 40" fill="none" xmlns="http://www.w3.org/2000/svg">
<mask id="mask0_1047_12582" style="mask-type:alpha" maskUnits="userSpaceOnUse" x="0" y="0" width="40" height="40">
<rect width="40" height="40" fill="#D9D9D9"/>
</mask>
<g mask="url(#mask0_1047_12582)">
<mask id="mask1_1047_12582" style="mask-type:alpha" maskUnits="userSpaceOnUse" x="2" y="2" width="37" height="37">
<rect x="2" y="2" width="37" height="37" fill="#D9D9D9"/>
</mask>
<g mask="url(#mask1_1047_12582)">
<path fill-rule="evenodd" clip-rule="evenodd" d="M27.6355 2C27.9648 4.24737 27.0544 6.44905 25.8537 8.00677C24.5689 9.67763 22.3545 10.9699 20.209 10.9025C19.8174 8.75082 20.8201 6.53391 22.0403 5.04363C23.3788 3.39889 25.6728 2.13707 27.6355 2ZM34.0719 33.6276C35.1781 31.9241 35.5913 31.0648 36.4499 29.1415C30.2049 26.7549 29.2042 17.8329 35.3847 14.4085C33.4996 12.0328 30.8505 10.6556 28.3499 10.6556C26.5481 10.6556 25.3136 11.1281 24.1913 11.5577C23.256 11.9157 22.3987 12.2438 21.356 12.2438C20.2292 12.2438 19.2313 11.8843 18.1865 11.5078C17.0383 11.0941 15.8334 10.66 14.3383 10.66C11.5321 10.66 8.54518 12.383 6.65144 15.3288C3.98944 19.4775 4.4435 27.2771 8.76038 33.9212C10.3033 36.2992 12.3649 38.9708 15.0614 38.9948C16.1802 39.0059 16.9247 38.6703 17.7304 38.3072C18.6526 37.8915 19.6549 37.4397 21.3904 37.4304C23.136 37.4199 24.1225 37.8772 25.0325 38.2989C25.8175 38.6628 26.5455 39.0002 27.6549 38.9881C30.3535 38.9665 32.5291 36.0054 34.0719 33.6276Z" fill="#081131"/>
</g>
</g>
</svg>
