<svg width="16" height="19" viewBox="0 0 16 19" fill="none" xmlns="http://www.w3.org/2000/svg">
<path d="M14.9739 6.4771C14.8637 6.5626 12.9181 7.6589 12.9181 10.0966C12.9181 12.9162 15.3938 13.9137 15.4679 13.9384C15.4565 13.9992 15.0746 15.3045 14.1626 16.6345C13.3494 17.8049 12.5001 18.9734 11.2081 18.9734C9.9161 18.9734 9.5836 18.2229 8.0921 18.2229C6.6386 18.2229 6.1218 18.9981 4.94 18.9981C3.7582 18.9981 2.9336 17.9151 1.9855 16.5851C0.8873 15.0233 0 12.597 0 10.2942C0 6.6006 2.4016 4.6417 4.7652 4.6417C6.0211 4.6417 7.068 5.4663 7.8565 5.4663C8.607 5.4663 9.7774 4.5923 11.2062 4.5923C11.7477 4.5923 13.6933 4.6417 14.9739 6.4771ZM10.5279 3.0286C11.1188 2.3275 11.5368 1.3547 11.5368 0.3819C11.5368 0.247 11.5254 0.1102 11.5007 0C10.5393 0.0361 9.3955 0.6403 8.7058 1.4402C8.1643 2.0558 7.6589 3.0286 7.6589 4.0147C7.6589 4.1629 7.6836 4.3111 7.695 4.3586C7.7558 4.37 7.8546 4.3833 7.9534 4.3833C8.816 4.3833 9.9009 3.8057 10.5279 3.0286Z" fill="black"/>
</svg>
