<svg width="28" height="28" viewBox="0 0 28 28" fill="none" xmlns="http://www.w3.org/2000/svg">
<mask id="mask0_1466_9078" style="mask-type:alpha" maskUnits="userSpaceOnUse" x="0" y="0" width="28" height="28">
<rect width="28" height="28" fill="#D9D9D9"/>
</mask>
<g mask="url(#mask0_1466_9078)">
<path fill-rule="evenodd" clip-rule="evenodd" d="M19.4177 0C19.6669 1.70072 18.978 3.36685 18.0694 4.54566C17.0971 5.8101 15.4213 6.78805 13.7977 6.73701C13.5014 5.10873 14.2602 3.43107 15.1836 2.30329C16.1965 1.05862 17.9325 0.103726 19.4177 0ZM24.2816 23.933C25.1187 22.6439 25.4315 21.9936 26.0812 20.5382C21.3552 18.732 20.598 11.9803 25.2751 9.38885C23.8485 7.591 21.8438 6.54883 19.9514 6.54883C18.5879 6.54883 17.6537 6.90641 16.8044 7.23148C16.0966 7.50238 15.4478 7.7507 14.6588 7.7507C13.806 7.7507 13.0509 7.47861 12.2602 7.19372C11.3913 6.88065 10.4795 6.55212 9.34808 6.55212C7.22448 6.55212 4.96409 7.85606 3.53099 10.0853C1.5165 13.2249 1.86012 19.1273 5.12694 24.1552C6.29459 25.9548 7.85472 27.9765 9.89527 27.9947C10.7419 28.0031 11.3053 27.7492 11.915 27.4744C12.6129 27.1598 13.3714 26.8179 14.6848 26.8109C16.0058 26.8029 16.7523 27.1489 17.441 27.4681C18.035 27.7434 18.586 27.9988 19.4255 27.9897C21.4676 27.9733 23.114 25.7324 24.2816 23.933Z" fill="#081131"/>
</g>
</svg>
