<svg width="15" height="15" viewBox="0 0 15 15" fill="none" xmlns="http://www.w3.org/2000/svg">
<path d="M10.8002 6.99999C10.6815 6.99999 10.5627 6.95622 10.4689 6.86247C10.2877 6.68122 10.2877 6.38122 10.4689 6.19997L12.4627 4.20622L10.4689 2.21247C10.2877 2.03122 10.2877 1.73122 10.4689 1.54997C10.6502 1.36872 10.9502 1.36872 11.1314 1.54997L13.4565 3.87499C13.544 3.96249 13.5939 4.08122 13.5939 4.20622C13.5939 4.33122 13.544 4.44999 13.4565 4.53749L11.1314 6.86247C11.0377 6.94997 10.919 6.99999 10.8002 6.99999Z" fill="#FFA500"/>
<path d="M13.125 4.67499H1.875C1.61875 4.67499 1.40625 4.46249 1.40625 4.20624C1.40625 3.94999 1.61875 3.73749 1.875 3.73749H13.125C13.3813 3.73749 13.5938 3.94999 13.5938 4.20624C13.5938 4.46249 13.3813 4.67499 13.125 4.67499Z" fill="#FFA500"/>
<path d="M4.19998 13.5937C4.08123 13.5937 3.9625 13.55 3.86875 13.4562L1.54373 11.1312C1.45623 11.0437 1.40625 10.925 1.40625 10.8C1.40625 10.675 1.45623 10.5562 1.54373 10.4687L3.86875 8.14375C4.05 7.9625 4.35 7.9625 4.53125 8.14375C4.7125 8.325 4.7125 8.625 4.53125 8.80625L2.5375 10.8L4.53125 12.7937C4.7125 12.975 4.7125 13.275 4.53125 13.4562C4.44375 13.55 4.32498 13.5937 4.19998 13.5937Z" fill="#FFA500"/>
<path d="M13.125 11.2625H1.875C1.61875 11.2625 1.40625 11.05 1.40625 10.7938C1.40625 10.5375 1.61875 10.325 1.875 10.325H13.125C13.3813 10.325 13.5938 10.5375 13.5938 10.7938C13.5938 11.05 13.3813 11.2625 13.125 11.2625Z" fill="#FFA500"/>
</svg>
