<svg width="25" height="25" viewBox="0 0 25 25" fill="none" xmlns="http://www.w3.org/2000/svg">
<path d="M9.96875 19.6042C9.77083 19.6042 9.57292 19.5313 9.41667 19.375L3.09375 13.0521C2.79167 12.75 2.79167 12.25 3.09375 11.9479L9.41667 5.625C9.71875 5.32292 10.2188 5.32292 10.5208 5.625C10.8229 5.92708 10.8229 6.42708 10.5208 6.72917L4.75 12.5L10.5208 18.2708C10.8229 18.5729 10.8229 19.0729 10.5208 19.375C10.375 19.5313 10.1667 19.6042 9.96875 19.6042Z" fill="#292D32"/>
<path d="M21.3555 13.2812H3.82422C3.39714 13.2812 3.04297 12.9271 3.04297 12.5C3.04297 12.0729 3.39714 11.7188 3.82422 11.7188H21.3555C21.7826 11.7188 22.1367 12.0729 22.1367 12.5C22.1367 12.9271 21.7826 13.2812 21.3555 13.2812Z" fill="#292D32"/>
</svg>
