<svg width="48" height="48" viewBox="0 0 48 48" fill="none" xmlns="http://www.w3.org/2000/svg">
<path opacity="0.2" d="M47.281 29.8062C44.0755 42.6634 31.0525 50.4874 18.1937 47.2819C5.34096 44.0765 -2.48379 31.0534 0.722462 18.1969C3.92646 5.3382 16.9487 -2.4873 29.8037 0.718197C42.6617 3.9237 50.4857 16.9482 47.2802 29.8062H47.281Z" fill="#F7931A" fill-opacity="0.6"/>
<path fill-rule="evenodd" clip-rule="evenodd" d="M31.2273 21.2115C31.5509 19.0451 29.9014 17.8805 27.6459 17.1036L28.3776 14.1689L26.5907 13.7237L25.8784 16.581C25.4093 16.464 24.9269 16.3536 24.4477 16.2442L25.1651 13.368L23.3797 12.9229L22.6476 15.8565C22.2589 15.768 21.8773 15.6805 21.5069 15.5884L21.5089 15.5792L19.0453 14.9641L18.5701 16.8721C18.5701 16.8721 19.8955 17.1758 19.8675 17.1946C20.591 17.3753 20.7223 17.854 20.6999 18.2336L19.8665 21.5768C19.9164 21.5896 19.981 21.6079 20.0522 21.6364L19.864 21.5896L18.6953 26.273C18.6068 26.4928 18.3824 26.8225 17.8767 26.6973C17.8945 26.7232 16.5782 26.3732 16.5782 26.3732L15.6914 28.4185L18.0166 28.998C18.2791 29.0638 18.5384 29.1315 18.7948 29.1984L18.795 29.1984C18.961 29.2418 19.1259 29.2847 19.2896 29.3267L18.5503 32.2955L20.3346 32.7407L21.0673 29.804C21.5542 29.9363 22.0274 30.0584 22.4904 30.1733L21.7608 33.0963L23.5471 33.5415L24.2864 30.5789C27.3325 31.1553 29.6236 30.9228 30.5867 28.1682C31.3636 25.9499 30.5486 24.6703 28.9459 23.8354C30.113 23.5652 30.9922 22.7974 31.2268 21.2115H31.2273ZM27.1453 26.9349C26.6381 28.9709 23.4506 28.1285 21.9934 27.7434L21.9933 27.7433C21.8629 27.7089 21.7463 27.6781 21.6468 27.6533L22.6277 23.7209C22.7494 23.7513 22.8981 23.7846 23.0665 23.8224C24.574 24.1607 27.6634 24.8539 27.1458 26.9349H27.1453ZM23.3695 21.9976C24.5854 22.322 27.2356 23.029 27.6973 21.1795C28.1693 19.2873 25.5922 18.717 24.3336 18.4385C24.1921 18.4072 24.0673 18.3796 23.9653 18.3542L23.076 21.9208C23.1601 21.9418 23.2589 21.9681 23.3695 21.9976Z" fill="#F7931A" fill-opacity="0.7"/>
</svg>
