<svg width="340" height="209" viewBox="0 0 340 209" fill="none" xmlns="http://www.w3.org/2000/svg">
<rect x="0.5" y="0.5" width="339" height="208" rx="11.5" fill="white"/>
<g clip-path="url(#clip0_914_28507)">
<path d="M193.125 53.5H146.875C143.082 53.5 140 56.5825 140 60.375V91.625C140 95.4175 143.082 98.5 146.875 98.5H193.125C196.917 98.5 200 95.4175 200 91.625V60.375C200 56.5825 196.917 53.5 193.125 53.5ZM190.625 88.5H176.875C175.84 88.5 175 87.66 175 86.625C175 85.59 175.84 84.75 176.875 84.75H190.625C191.66 84.75 192.5 85.59 192.5 86.625C192.5 87.66 191.66 88.5 190.625 88.5ZM190.625 78.5H176.875C175.84 78.5 175 77.66 175 76.625C175 75.59 175.84 74.75 176.875 74.75H190.625C191.66 74.75 192.5 75.59 192.5 76.625C192.5 77.66 191.66 78.5 190.625 78.5ZM190.625 68.5H176.875C175.84 68.5 175 67.66 175 66.625C175 65.59 175.84 64.75 176.875 64.75H190.625C191.66 64.75 192.5 65.59 192.5 66.625C192.5 67.66 191.66 68.5 190.625 68.5Z" fill="#EBEBEE"/>
</g>
<g clip-path="url(#clip1_914_28507)">
<path d="M118.588 125.608C118.588 123.872 119.988 122.696 122.074 122.696C124.006 122.696 125.252 123.774 125.364 125.524H123.978C123.908 124.516 123.194 123.928 122.06 123.928C120.786 123.928 119.96 124.572 119.96 125.566C119.96 126.378 120.422 126.868 121.374 127.092L123.04 127.484C124.692 127.862 125.532 128.758 125.532 130.186C125.532 132.006 124.118 133.168 121.962 133.168C119.904 133.168 118.532 132.09 118.448 130.354H119.848C119.876 131.32 120.688 131.936 121.962 131.936C123.306 131.936 124.16 131.306 124.16 130.298C124.16 129.5 123.726 128.996 122.76 128.772L121.094 128.394C119.442 128.016 118.588 127.064 118.588 125.608ZM129.986 133.168C127.97 133.168 126.584 131.712 126.584 129.584C126.584 127.442 127.942 125.958 129.93 125.958C131.876 125.958 133.15 127.302 133.15 129.332V129.822L127.858 129.836C127.956 131.278 128.712 132.076 130.014 132.076C131.036 132.076 131.708 131.656 131.932 130.872H133.164C132.828 132.342 131.68 133.168 129.986 133.168ZM129.93 127.064C128.782 127.064 128.054 127.75 127.886 128.954H131.834C131.834 127.82 131.092 127.064 129.93 127.064ZM135.964 133H134.648V122.696H135.964V133ZM140.855 133.168C138.839 133.168 137.453 131.712 137.453 129.584C137.453 127.442 138.811 125.958 140.799 125.958C142.745 125.958 144.019 127.302 144.019 129.332V129.822L138.727 129.836C138.825 131.278 139.581 132.076 140.883 132.076C141.905 132.076 142.577 131.656 142.801 130.872H144.033C143.697 132.342 142.549 133.168 140.855 133.168ZM140.799 127.064C139.651 127.064 138.923 127.75 138.755 128.954H142.703C142.703 127.82 141.961 127.064 140.799 127.064ZM145.041 129.584C145.041 127.442 146.399 125.958 148.401 125.958C150.123 125.958 151.327 126.938 151.565 128.464H150.249C150.025 127.596 149.325 127.134 148.443 127.134C147.197 127.134 146.343 128.086 146.343 129.57C146.343 131.04 147.141 131.992 148.387 131.992C149.325 131.992 150.025 131.502 150.263 130.69H151.579C151.313 132.174 150.039 133.168 148.387 133.168C146.371 133.168 145.041 131.74 145.041 129.584ZM154.9 133H153.584V127.26H152.24V126.154H153.584V124.012H154.9V126.154H156.244V127.26H154.9V133Z" fill="#FFA500"/>
</g>
<path d="M162.176 133V122.878H166.04C168.014 122.878 169.218 123.886 169.218 125.552C169.218 126.714 168.714 127.498 167.706 127.918C168.826 128.282 169.4 129.094 169.4 130.298C169.4 131.978 168.182 133 166.18 133H162.176ZM165.956 124.096H163.548V127.344H166.04C167.174 127.344 167.818 126.728 167.818 125.678C167.818 124.67 167.146 124.096 165.956 124.096ZM166.152 128.534H163.548V131.782H166.152C167.328 131.782 167.986 131.18 167.986 130.13C167.986 129.122 167.314 128.534 166.152 128.534ZM172.895 133.168C171.425 133.168 170.557 132.342 170.557 131.096C170.557 129.836 171.495 129.052 173.105 128.926L175.261 128.758V128.562C175.261 127.414 174.575 127.008 173.651 127.008C172.545 127.008 171.915 127.498 171.915 128.324H170.767C170.767 126.896 171.943 125.958 173.707 125.958C175.401 125.958 176.549 126.854 176.549 128.702V133H175.429L175.289 131.894C174.939 132.678 174.001 133.168 172.895 133.168ZM173.273 132.146C174.519 132.146 175.275 131.334 175.275 130.046V129.682L173.525 129.822C172.363 129.934 171.887 130.382 171.887 131.054C171.887 131.782 172.419 132.146 173.273 132.146ZM177.924 129.584C177.924 127.442 179.282 125.958 181.284 125.958C183.006 125.958 184.21 126.938 184.448 128.464H183.132C182.908 127.596 182.208 127.134 181.326 127.134C180.08 127.134 179.226 128.086 179.226 129.57C179.226 131.04 180.024 131.992 181.27 131.992C182.208 131.992 182.908 131.502 183.146 130.69H184.462C184.196 132.174 182.922 133.168 181.27 133.168C179.254 133.168 177.924 131.74 177.924 129.584ZM187.194 133H185.878V122.696H187.194V129.374L190.232 126.154H191.884L189.266 128.884L191.87 133H190.358L188.356 129.836L187.194 131.054V133ZM196.228 131.012H197.488C197.488 131.712 198.02 132.132 198.888 132.132C199.812 132.132 200.344 131.754 200.344 131.124C200.344 130.662 200.12 130.382 199.406 130.2L198.202 129.92C196.984 129.626 196.41 129.024 196.41 128.016C196.41 126.756 197.474 125.958 198.986 125.958C200.484 125.958 201.464 126.798 201.492 128.1H200.232C200.204 127.414 199.742 126.98 198.944 126.98C198.118 126.98 197.656 127.344 197.656 127.974C197.656 128.436 197.992 128.744 198.664 128.912L199.868 129.206C201.03 129.486 201.604 130.018 201.604 131.04C201.604 132.342 200.484 133.168 198.86 133.168C197.25 133.168 196.228 132.314 196.228 131.012ZM203.707 124.53C203.231 124.53 202.839 124.138 202.839 123.662C202.839 123.172 203.231 122.794 203.707 122.794C204.183 122.794 204.575 123.172 204.575 123.662C204.575 124.138 204.183 124.53 203.707 124.53ZM203.063 133V126.154H204.379V133H203.063ZM209.034 133.168C207.046 133.168 205.842 131.684 205.842 129.598C205.842 127.498 207.06 125.958 209.09 125.958C210.14 125.958 211.022 126.42 211.484 127.26V122.696H212.786V133H211.61L211.498 131.754C211.05 132.692 210.126 133.168 209.034 133.168ZM209.3 131.978C210.644 131.978 211.47 130.984 211.47 129.556C211.47 128.156 210.644 127.148 209.3 127.148C207.956 127.148 207.172 128.156 207.172 129.556C207.172 130.97 207.956 131.978 209.3 131.978ZM217.638 133.168C215.622 133.168 214.236 131.712 214.236 129.584C214.236 127.442 215.594 125.958 217.582 125.958C219.528 125.958 220.802 127.302 220.802 129.332V129.822L215.51 129.836C215.608 131.278 216.364 132.076 217.666 132.076C218.688 132.076 219.36 131.656 219.584 130.872H220.816C220.48 132.342 219.332 133.168 217.638 133.168ZM217.582 127.064C216.434 127.064 215.706 127.75 215.538 128.954H219.486C219.486 127.82 218.744 127.064 217.582 127.064Z" fill="#081131"/>
<path d="M46.6651 149.136C46.6651 150.488 47.4581 151.372 48.9921 151.723L50.5391 152.074C51.4361 152.282 51.8391 152.75 51.8391 153.491C51.8391 154.427 51.0461 155.012 49.7981 155.012C48.6151 155.012 47.8611 154.44 47.8351 153.543H46.5351C46.6131 155.155 47.8871 156.156 49.7981 156.156C51.8001 156.156 53.1131 155.077 53.1131 153.387C53.1131 152.061 52.3331 151.229 50.7991 150.878L49.2521 150.514C48.3681 150.306 47.9391 149.851 47.9391 149.097C47.9391 148.174 48.7061 147.576 49.8891 147.576C50.9421 147.576 51.6051 148.122 51.6701 149.058H52.9571C52.8531 147.433 51.6961 146.432 49.9021 146.432C47.9651 146.432 46.6651 147.524 46.6651 149.136ZM57.1366 156H58.4626L61.9986 146.601H60.6726L58.3976 152.594C58.2416 153.01 58.0206 153.634 57.7996 154.375C57.6046 153.673 57.4226 153.14 57.2146 152.607L54.9266 146.601H53.5616L57.1366 156ZM66.831 147.641C68.079 147.641 69.119 148.239 69.47 149.435H70.822C70.51 147.628 68.911 146.445 66.857 146.445C64.088 146.445 62.242 148.473 62.242 151.333C62.242 154.232 64.075 156.156 66.74 156.156C68.118 156.156 69.262 155.558 69.769 154.739L69.86 156.013H70.926V150.826H66.584V151.957H69.73V152.23C69.73 154.128 68.443 154.947 66.844 154.947C64.907 154.947 63.581 153.634 63.581 151.359C63.581 149.136 64.803 147.641 66.831 147.641ZM74.5822 155.493C74.5822 154.778 74.1402 154.323 73.5942 154.323C73.0742 154.323 72.7232 154.7 72.7232 155.22C72.7232 155.701 73.0872 156.013 73.5162 156.013C73.6722 156.013 73.7762 155.987 73.8672 155.935C73.8672 156.338 73.4902 156.689 72.9572 156.78V157.326C73.8802 157.209 74.5822 156.429 74.5822 155.493ZM83.7577 152.646C85.5907 152.646 86.7867 151.372 86.7867 149.617C86.7867 147.81 85.6037 146.601 83.7577 146.601H80.1047V156H81.3787V152.646H83.7577ZM83.5367 147.745C84.7327 147.745 85.4477 148.421 85.4477 149.604C85.4477 150.761 84.7457 151.502 83.4847 151.502H81.3787V147.745H83.5367ZM89.5037 156V148.733L94.3137 156H95.5877V146.601H94.3137V153.868L89.5037 146.601H88.2297V156H89.5037ZM101.807 147.641C103.055 147.641 104.095 148.239 104.446 149.435H105.798C105.486 147.628 103.887 146.445 101.833 146.445C99.0636 146.445 97.2176 148.473 97.2176 151.333C97.2176 154.232 99.0506 156.156 101.716 156.156C103.094 156.156 104.238 155.558 104.745 154.739L104.836 156.013H105.902V150.826H101.56V151.957H104.706V152.23C104.706 154.128 103.419 154.947 101.82 154.947C99.8826 154.947 98.5566 153.634 98.5566 151.359C98.5566 149.136 99.7786 147.641 101.807 147.641ZM109.558 155.493C109.558 154.778 109.116 154.323 108.57 154.323C108.05 154.323 107.699 154.7 107.699 155.22C107.699 155.701 108.063 156.013 108.492 156.013C108.648 156.013 108.752 155.987 108.843 155.935C108.843 156.338 108.466 156.689 107.933 156.78V157.326C108.856 157.209 109.558 156.429 109.558 155.493ZM114.248 153.387C114.248 155.012 115.236 156.156 117.03 156.156C118.707 156.156 119.838 155.09 119.838 153.4V146.601H118.564V153.348C118.564 154.323 118.096 154.973 117.03 154.973C115.99 154.973 115.483 154.31 115.483 153.387V152.919H114.248V153.387ZM125.614 152.646C127.447 152.646 128.643 151.372 128.643 149.617C128.643 147.81 127.46 146.601 125.614 146.601H121.961V156H123.235V152.646H125.614ZM125.393 147.745C126.589 147.745 127.304 148.421 127.304 149.604C127.304 150.761 126.602 151.502 125.341 151.502H123.235V147.745H125.393ZM134.116 147.641C135.364 147.641 136.404 148.239 136.755 149.435H138.107C137.795 147.628 136.196 146.445 134.142 146.445C131.373 146.445 129.527 148.473 129.527 151.333C129.527 154.232 131.36 156.156 134.025 156.156C135.403 156.156 136.547 155.558 137.054 154.739L137.145 156.013H138.211V150.826H133.869V151.957H137.015V152.23C137.015 154.128 135.728 154.947 134.129 154.947C132.192 154.947 130.866 153.634 130.866 151.359C130.866 149.136 132.088 147.641 134.116 147.641ZM142.957 152.815C142.957 154.778 144.361 156.156 146.272 156.156C148.17 156.156 149.574 154.778 149.574 152.815C149.574 150.852 148.17 149.474 146.272 149.474C144.361 149.474 142.957 150.852 142.957 152.815ZM144.192 152.815C144.192 151.489 145.037 150.566 146.272 150.566C147.494 150.566 148.352 151.489 148.352 152.815C148.352 154.141 147.494 155.064 146.272 155.064C145.037 155.064 144.192 154.141 144.192 152.815ZM154.567 149.591C154.32 149.539 154.138 149.513 153.917 149.513C153.046 149.513 152.409 149.955 152.149 150.618L152.071 149.656H150.927V156H152.149V152.633C152.149 151.411 152.864 150.709 154.021 150.709H154.567V149.591ZM163.506 147.641C164.754 147.641 165.794 148.239 166.145 149.435H167.497C167.185 147.628 165.586 146.445 163.532 146.445C160.763 146.445 158.917 148.473 158.917 151.333C158.917 154.232 160.75 156.156 163.415 156.156C164.793 156.156 165.937 155.558 166.444 154.739L166.535 156.013H167.601V150.826H163.259V151.957H166.405V152.23C166.405 154.128 165.118 154.947 163.519 154.947C161.582 154.947 160.256 153.634 160.256 151.359C160.256 149.136 161.478 147.641 163.506 147.641ZM170.69 146.601H169.416V156H170.69V146.601ZM177.848 152.009V150.852H174.156V147.771H178.55V146.601H172.882V156H174.156V152.009H177.848ZM186.183 158.249C185.078 156.728 184.428 154.44 184.428 152.139C184.428 149.708 185.156 147.472 186.183 146.042H185.169C183.895 147.615 183.18 149.929 183.18 152.139C183.18 154.492 183.973 156.754 185.169 158.249H186.183ZM188.293 156V152.23C188.293 151.216 188.904 150.579 189.827 150.579C190.685 150.579 191.231 151.125 191.231 152.126V156H192.44V152.23C192.44 151.216 193.051 150.566 193.974 150.566C194.832 150.566 195.391 151.138 195.391 152.139V156H196.587V151.84C196.587 150.371 195.703 149.461 194.247 149.461C193.259 149.461 192.492 149.955 192.193 150.748C191.868 149.955 191.166 149.461 190.178 149.461C189.281 149.461 188.605 149.877 188.28 150.475L188.163 149.643H187.071V156H188.293ZM200.139 156.156C201.166 156.156 202.037 155.701 202.362 154.973L202.492 156H203.532V152.009C203.532 150.293 202.466 149.461 200.893 149.461C199.255 149.461 198.163 150.332 198.163 151.658H199.229C199.229 150.891 199.814 150.436 200.841 150.436C201.699 150.436 202.336 150.813 202.336 151.879V152.061L200.334 152.217C198.839 152.334 197.968 153.062 197.968 154.232C197.968 155.389 198.774 156.156 200.139 156.156ZM200.49 155.207C199.697 155.207 199.203 154.869 199.203 154.193C199.203 153.569 199.645 153.153 200.724 153.049L202.349 152.919V153.257C202.349 154.453 201.647 155.207 200.49 155.207ZM205.875 156L207.435 153.673L209.021 156H210.438L208.267 152.854L210.477 149.643H209.086L207.513 152.009L205.901 149.643H204.484L206.694 152.854L204.471 156H205.875ZM212.356 156.156C212.85 156.156 213.279 155.74 213.279 155.246C213.279 154.739 212.85 154.323 212.356 154.323C211.849 154.323 211.42 154.739 211.42 155.246C211.42 155.74 211.849 156.156 212.356 156.156ZM218.32 153.387C218.32 155.051 219.685 156.156 221.778 156.156C223.858 156.156 225.236 155.051 225.236 153.4C225.236 152.243 224.56 151.307 223.507 150.969C224.391 150.618 224.885 149.877 224.885 148.915C224.885 147.433 223.637 146.432 221.791 146.432C219.919 146.432 218.658 147.433 218.658 148.902C218.658 149.851 219.139 150.592 220.023 150.969C218.983 151.346 218.32 152.256 218.32 153.387ZM219.828 148.98C219.828 148.109 220.595 147.537 221.765 147.537C222.948 147.537 223.689 148.109 223.689 149.006C223.689 149.916 222.948 150.501 221.765 150.501C220.595 150.501 219.828 149.903 219.828 148.98ZM219.568 153.296C219.568 152.256 220.426 151.593 221.765 151.593C223.117 151.593 223.975 152.256 223.975 153.296C223.975 154.349 223.104 155.025 221.778 155.025C220.439 155.025 219.568 154.349 219.568 153.296ZM226.471 151.307C226.471 154.232 227.914 156.169 230.345 156.169C232.763 156.169 234.206 154.232 234.206 151.307C234.206 148.395 232.698 146.419 230.345 146.419C227.979 146.419 226.471 148.395 226.471 151.307ZM227.732 151.307C227.732 148.967 228.694 147.563 230.345 147.563C231.996 147.563 232.945 148.967 232.945 151.307C232.945 153.621 231.996 155.025 230.345 155.025C228.694 155.025 227.732 153.621 227.732 151.307ZM235.485 151.307C235.485 154.232 236.928 156.169 239.359 156.169C241.777 156.169 243.22 154.232 243.22 151.307C243.22 148.395 241.712 146.419 239.359 146.419C236.993 146.419 235.485 148.395 235.485 151.307ZM236.746 151.307C236.746 148.967 237.708 147.563 239.359 147.563C241.01 147.563 241.959 148.967 241.959 151.307C241.959 153.621 241.01 155.025 239.359 155.025C237.708 155.025 236.746 153.621 236.746 151.307ZM245.395 156L246.955 153.673L248.541 156H249.958L247.787 152.854L249.997 149.643H248.606L247.033 152.009L245.421 149.643H244.004L246.214 152.854L243.991 156H245.395ZM257.777 154.102V152.971H256.659V146.601H255.008L250.575 152.971V154.102H255.437V156H256.659V154.102H257.777ZM251.953 152.971L255.437 147.953V152.971H251.953ZM259.034 151.307C259.034 154.232 260.477 156.169 262.908 156.169C265.326 156.169 266.769 154.232 266.769 151.307C266.769 148.395 265.261 146.419 262.908 146.419C260.542 146.419 259.034 148.395 259.034 151.307ZM260.295 151.307C260.295 148.967 261.257 147.563 262.908 147.563C264.559 147.563 265.508 148.967 265.508 151.307C265.508 153.621 264.559 155.025 262.908 155.025C261.257 155.025 260.295 153.621 260.295 151.307ZM268.048 151.307C268.048 154.232 269.491 156.169 271.922 156.169C274.34 156.169 275.783 154.232 275.783 151.307C275.783 148.395 274.275 146.419 271.922 146.419C269.556 146.419 268.048 148.395 268.048 151.307ZM269.309 151.307C269.309 148.967 270.271 147.563 271.922 147.563C273.573 147.563 274.522 148.967 274.522 151.307C274.522 153.621 273.573 155.025 271.922 155.025C270.271 155.025 269.309 153.621 269.309 151.307ZM277.309 158.847H278.531V154.96C278.947 155.74 279.792 156.169 280.806 156.169C282.691 156.169 283.757 154.713 283.757 152.776C283.757 150.826 282.626 149.461 280.806 149.461C279.792 149.461 278.934 149.916 278.505 150.787L278.414 149.643H277.309V158.847ZM278.544 152.828C278.544 151.502 279.298 150.579 280.546 150.579C281.794 150.579 282.535 151.515 282.535 152.828C282.535 154.128 281.794 155.064 280.546 155.064C279.298 155.064 278.544 154.128 278.544 152.828ZM285.513 156L287.073 153.673L288.659 156H290.076L287.905 152.854L290.115 149.643H288.724L287.151 152.009L285.539 149.643H284.122L286.332 152.854L284.109 156H285.513ZM291.277 158.249C292.46 156.754 293.253 154.492 293.253 152.139C293.253 149.929 292.538 147.615 291.277 146.042H290.25C291.29 147.472 292.005 149.708 292.005 152.139C292.005 154.44 291.355 156.728 290.25 158.249H291.277Z" fill="#718096"/>
<rect x="0.5" y="0.5" width="339" height="208" rx="11.5" stroke="#E4E7EC"/>
<defs>
<clipPath id="clip0_914_28507">
<rect width="60" height="60" fill="white" transform="translate(140 46)"/>
</clipPath>
<clipPath id="clip1_914_28507">
<rect width="39" height="20" fill="white" transform="translate(118 118)"/>
</clipPath>
</defs>
</svg>
