<svg xmlns="http://www.w3.org/2000/svg" xmlns:xlink="http://www.w3.org/1999/xlink" width="17" height="17" viewBox="0 0 17 17">
  <defs>
    <clipPath id="clip-path">
      <rect id="Rectangle_19249" data-name="Rectangle 19249" width="17" height="17" transform="translate(1134 943)" fill="#6e3333" opacity="0.33"/>
    </clipPath>
  </defs>
  <g id="Mask_Group_233" data-name="Mask Group 233" transform="translate(-1134 -943)" clip-path="url(#clip-path)">
    <path id="Path_43089" data-name="Path 43089" d="M603,644.487a2.83,2.83,0,0,0-1.847-2.646l-.027-.064a7.138,7.138,0,0,0-3.75-3.839l-.233-.1a2.82,2.82,0,0,0-5.286,0l-.3.133a7.218,7.218,0,0,0-3.708,3.87,2.819,2.819,0,0,0-.021,5.29l.091.212a7.151,7.151,0,0,0,3.656,3.7l.278.125a2.821,2.821,0,0,0,5.284,0l.26-.115a7.22,7.22,0,0,0,3.76-3.92A2.832,2.832,0,0,0,603,644.487Zm-8.5-7.071a1.416,1.416,0,1,1-1,.415A1.417,1.417,0,0,1,594.5,637.415Zm-5.675,5.656.058.022.007-.018a1.353,1.353,0,1,1-.065,0Zm5.675,8.511a1.416,1.416,0,1,1,1-.414A1.417,1.417,0,0,1,594.5,651.582Zm2.758-2.044a2.827,2.827,0,0,0-5.516,0,5.722,5.722,0,0,1-2.289-2.291,2.827,2.827,0,0,0,.018-5.511,5.8,5.8,0,0,1,2.271-2.267,2.827,2.827,0,0,0,5.514,0,5.834,5.834,0,0,1,2.273,2.262,2.827,2.827,0,0,0,.011,5.514A5.818,5.818,0,0,1,597.258,649.538Zm2.909-3.634a1.416,1.416,0,1,1,1-.414A1.416,1.416,0,0,1,600.167,645.9Z" transform="translate(548 307)" fill="#777e90"/>
  </g>
</svg>
