<svg xmlns="http://www.w3.org/2000/svg" xmlns:xlink="http://www.w3.org/1999/xlink" width="17" height="17" viewBox="0 0 17 17">
  <defs>
    <clipPath id="clip-path">
      <rect id="Rectangle_19231" data-name="Rectangle 19231" width="17" height="17" transform="translate(1068 732)" fill="#6e3333" opacity="0.33"/>
    </clipPath>
  </defs>
  <g id="Mask_Group_219" data-name="Mask Group 219" transform="translate(-1068 -732)" clip-path="url(#clip-path)">
    <path id="Path_43185" data-name="Path 43185" d="M152.643,1177.99a.655.655,0,0,1-.191.463.643.643,0,0,1-.461.189H137.653a.641.641,0,0,1-.461-.189.652.652,0,0,1-.191-.463.649.649,0,0,1,.652-.652h14.338a.649.649,0,0,1,.652.652Zm-15.452-9.418a1.583,1.583,0,0,1,.1-1.668,3.059,3.059,0,0,1,1.087-.978l4.889-2.548a3.391,3.391,0,0,1,3.111,0l4.888,2.548a3.07,3.07,0,0,1,1.087.978,1.6,1.6,0,0,1,.1,1.675,1.785,1.785,0,0,1-.656.691,1.817,1.817,0,0,1-.919.248h-.19v5.214h.652a.649.649,0,0,1,.652.652.655.655,0,0,1-.191.463.644.644,0,0,1-.461.189H138.3a.641.641,0,0,1-.461-.189.652.652,0,0,1-.191-.463.649.649,0,0,1,.652-.652h.652v-5.214h-.19a1.822,1.822,0,0,1-.92-.248A1.8,1.8,0,0,1,137.191,1168.572Zm3.069,6.159h1.955v-5.214H140.26Zm3.259-5.214v5.214h2.607v-5.214Zm5.866,0h-1.955v5.214h1.955Zm-11.039-1.545a.45.45,0,0,0,.175.176.464.464,0,0,0,.245.065h12.112a.463.463,0,0,0,.244-.065.452.452,0,0,0,.176-.176.317.317,0,0,0,.041-.17.278.278,0,0,0-.057-.156,1.793,1.793,0,0,0-.618-.567l-4.888-2.542a2.055,2.055,0,0,0-1.907,0l-4.888,2.542a1.787,1.787,0,0,0-.618.567.28.28,0,0,0-.058.156A.312.312,0,0,0,138.346,1167.973Z" transform="translate(931.5 -430.5)" fill="#777e90"/>
  </g>
</svg>
