<svg width="20" height="20" viewBox="0 0 20 20" fill="none" xmlns="http://www.w3.org/2000/svg">
<path d="M18.3333 4.04076V13.9491C18.3333 14.7574 17.675 15.4991 16.8667 15.5991L16.6083 15.6324C15.2417 15.8158 13.3167 16.3824 11.7667 17.0324C11.225 17.2574 10.625 16.8491 10.625 16.2574V4.66576C10.625 4.35742 10.8 4.07409 11.075 3.92409C12.6 3.09909 14.9083 2.36576 16.475 2.23242H16.525C17.525 2.23242 18.3333 3.04076 18.3333 4.04076Z" fill="#71839B"/>
<path d="M8.92292 3.92409C7.39792 3.09909 5.08958 2.36576 3.52292 2.23242H3.46458C2.46458 2.23242 1.65625 3.04076 1.65625 4.04076V13.9491C1.65625 14.7574 2.31458 15.4991 3.12292 15.5991L3.38125 15.6324C4.74792 15.8158 6.67292 16.3824 8.22292 17.0324C8.76458 17.2574 9.36458 16.8491 9.36458 16.2574V4.66576C9.36458 4.34909 9.19792 4.07409 8.92292 3.92409ZM4.16458 6.44909H6.03958C6.38125 6.44909 6.66458 6.73242 6.66458 7.07409C6.66458 7.42409 6.38125 7.69909 6.03958 7.69909H4.16458C3.82292 7.69909 3.53958 7.42409 3.53958 7.07409C3.53958 6.73242 3.82292 6.44909 4.16458 6.44909ZM6.66458 10.1991H4.16458C3.82292 10.1991 3.53958 9.92409 3.53958 9.57409C3.53958 9.23242 3.82292 8.94909 4.16458 8.94909H6.66458C7.00625 8.94909 7.28958 9.23242 7.28958 9.57409C7.28958 9.92409 7.00625 10.1991 6.66458 10.1991Z" fill="#71839B"/>
</svg>
