<svg width="20" height="20" viewBox="0 0 20 20" fill="none" xmlns="http://www.w3.org/2000/svg">
<path d="M10.0013 18.4C9.7513 18.4 9.5013 18.3417 9.29297 18.225C7.73463 17.375 4.99297 16.475 3.2763 16.25L3.03464 16.2167C1.94297 16.0833 1.04297 15.0583 1.04297 13.95V3.88332C1.04297 3.22499 1.3013 2.62499 1.7763 2.19165C2.2513 1.75832 2.86797 1.54999 3.51797 1.60832C5.3513 1.74999 8.11797 2.66665 9.68464 3.64999L9.88463 3.76665C9.94297 3.79999 10.068 3.79999 10.118 3.77499L10.2513 3.69165C11.818 2.70832 14.5846 1.77499 16.4263 1.61665C16.443 1.61665 16.5096 1.61665 16.5263 1.61665C17.1346 1.55832 17.7596 1.77499 18.2263 2.20832C18.7013 2.64165 18.9596 3.24165 18.9596 3.89999V13.9583C18.9596 15.075 18.0596 16.0917 16.9596 16.225L16.6846 16.2583C14.968 16.4833 12.218 17.3917 10.693 18.2333C10.493 18.35 10.2513 18.4 10.0013 18.4ZM3.31797 2.84999C3.0513 2.84999 2.80964 2.94165 2.61797 3.11665C2.40964 3.30832 2.29297 3.58332 2.29297 3.88332V13.95C2.29297 14.4417 2.71797 14.9167 3.19297 14.9833L3.44297 15.0167C5.31797 15.2667 8.19297 16.2083 9.85964 17.1167C9.93464 17.15 10.043 17.1583 10.0846 17.1417C11.7513 16.2167 14.643 15.2667 16.5263 15.0167L16.8096 14.9833C17.2846 14.925 17.7096 14.4417 17.7096 13.95V3.89165C17.7096 3.58332 17.593 3.31665 17.3846 3.11665C17.168 2.92499 16.893 2.83332 16.5846 2.84999C16.568 2.84999 16.5013 2.84999 16.4846 2.84999C14.893 2.99165 12.3263 3.84999 10.9263 4.72499L10.793 4.81665C10.3346 5.09999 9.68464 5.09999 9.24297 4.82499L9.04297 4.70832C7.61797 3.83332 5.0513 2.98332 3.41797 2.84999C3.38464 2.84999 3.3513 2.84999 3.31797 2.84999Z" fill="#71839B"/>
<path d="M10 17.7C9.65833 17.7 9.375 17.4167 9.375 17.075V4.57501C9.375 4.23335 9.65833 3.95001 10 3.95001C10.3417 3.95001 10.625 4.23335 10.625 4.57501V17.075C10.625 17.425 10.3417 17.7 10 17.7Z" fill="#71839B"/>
<path d="M6.45703 7.70001H4.58203C4.24036 7.70001 3.95703 7.41668 3.95703 7.07501C3.95703 6.73335 4.24036 6.45001 4.58203 6.45001H6.45703C6.7987 6.45001 7.08203 6.73335 7.08203 7.07501C7.08203 7.41668 6.7987 7.70001 6.45703 7.70001Z" fill="#71839B"/>
<path d="M7.08203 10.2H4.58203C4.24036 10.2 3.95703 9.91668 3.95703 9.57501C3.95703 9.23335 4.24036 8.95001 4.58203 8.95001H7.08203C7.4237 8.95001 7.70703 9.23335 7.70703 9.57501C7.70703 9.91668 7.4237 10.2 7.08203 10.2Z" fill="#71839B"/>
</svg>
