<svg width="100" height="100" viewBox="0 0 100 100" fill="none" xmlns="http://www.w3.org/2000/svg">
<path d="M66.6654 90.625C66.6654 91.0013 66.5352 91.3794 66.2747 91.7471C65.6145 92.6852 64.1191 93.5788 61.7824 94.3075C55.2739 96.3419 44.7237 96.3419 38.2149 94.3075C35.8783 93.5788 34.3797 92.6852 33.7224 91.7471C33.4622 91.3777 33.332 91.0013 33.332 90.625C33.332 89.2934 34.9577 87.9615 38.2149 86.9425C44.7237 84.9082 55.2739 84.9082 61.7824 86.9425C65.0366 87.9598 66.6654 89.2915 66.6654 90.625Z" fill="#E9E9E9"/>
<path d="M84.544 40.0452L71.0852 47.8165C69.2685 47.2677 67.3777 46.4373 65.4348 45.3175C59.1096 41.6617 53.355 35.5663 49.0171 28.5069C45.9323 23.4942 41.231 20.7801 38.1537 22.2336C35.8327 23.3236 33.1038 23.6796 30.1079 23.2123C27.4902 22.8046 24.6725 21.7813 21.721 20.0757C19.7783 18.956 17.8875 17.6064 16.0781 16.064L29.5369 8.29266C31.3462 9.83506 33.2373 11.1847 35.18 12.3044C41.5054 15.9601 47.2746 16.5089 51.6125 14.4622C54.6898 13.0088 59.3912 15.7229 62.476 20.7356C66.8142 27.795 72.5756 33.8904 78.901 37.5463C80.8365 38.6661 82.7346 39.4965 84.544 40.0452Z" fill="white" stroke="#000D1D" stroke-width="0.5" stroke-linecap="round" stroke-linejoin="round"/>
<path d="M84.689 44.665C84.689 65.4427 72.409 91.9823 43.5781 90.0248C50.9119 89.6763 57.2002 86.7767 61.909 81.6156C67.7894 75.194 71.23 65.2723 71.23 52.4363C71.23 50.9088 71.1781 49.3663 71.0892 47.8165L84.5479 40.0452C84.6369 41.595 84.689 43.1373 84.689 44.665Z" fill="black" stroke="#000D1D" stroke-width="0.5" stroke-linecap="round" stroke-linejoin="round"/>
<path d="M71.2263 52.436C71.2263 65.2721 67.7856 75.1937 61.9052 81.6154C57.1965 86.7766 50.9081 89.676 43.5744 90.0246C43.5448 89.9875 43.5152 89.9504 43.4854 89.9133C27.0752 70.1291 15.9375 43.6116 15.9375 20.5203C15.9375 18.9927 15.9894 17.5097 16.0784 16.0637C17.8877 17.6061 19.7785 18.9556 21.7213 20.0754C24.6727 21.7808 27.4904 22.8041 30.1081 23.2121C33.104 23.6791 35.8329 23.3233 38.154 22.2333C41.2313 20.7798 45.9325 23.4939 49.0173 28.5066C53.3552 35.566 59.1098 41.6614 65.435 45.3173C67.3779 46.4371 69.2688 47.2675 71.0854 47.8162C71.1744 49.366 71.2263 50.9085 71.2263 52.436Z" fill="#EBE9E9" stroke="#000D1D" stroke-width="0.5" stroke-linecap="round" stroke-linejoin="round"/>
<path d="M43.5841 81.4152C31.2895 65.1681 23.4589 45.3396 22.4727 27.9133C29.8954 31.9919 36.977 32.815 42.4793 30.2196C42.8722 30.0342 43.3025 30.1973 43.5916 30.3604C43.8808 30.5235 44.311 30.8648 44.7039 31.5025C50.2062 40.4527 57.2806 47.8015 64.7033 52.295C63.717 68.5792 55.8862 79.3685 43.5841 81.4152Z" fill="#FFA500" stroke="#000D1D" stroke-width="0.2" stroke-linecap="round" stroke-linejoin="round"/>
<path d="M41.4102 62.9439C40.7502 62.5656 40.0977 61.8983 39.5935 61.0233L34.6844 52.5179C33.6833 50.7827 33.6833 48.8991 34.6844 48.3208C35.6856 47.7425 37.3171 48.6841 38.3181 50.4193L41.4102 55.7733L48.8404 51.4798C49.8415 50.9014 51.4729 51.8431 52.474 53.5783C53.475 55.3135 53.475 57.1971 52.474 57.7754L43.2271 63.1143C42.7227 63.4035 42.0702 63.3145 41.4102 62.9364V62.9439Z" fill="#EBE9E9" stroke="#000D1D" stroke-width="0.2" stroke-linecap="round" stroke-linejoin="round"/>
</svg>
