<svg width="50" height="50" viewBox="0 0 50 50" fill="none" xmlns="http://www.w3.org/2000/svg">
<path d="M40.625 50H9.375C4.19688 50 0 45.8031 0 40.625V9.375C0 4.19688 4.19688 0 9.375 0H40.625C45.8031 0 50 4.19688 50 9.375V40.625C50 45.8031 45.8031 50 40.625 50Z" fill="#FFA500" fill-opacity="0.15"/>
<path d="M26.8021 24.5C27.5212 24.5 28.1042 23.917 28.1042 23.1979C28.1042 22.4788 27.5212 21.8958 26.8021 21.8958C26.083 21.8958 25.5 22.4788 25.5 23.1979C25.5 23.917 26.083 24.5 26.8021 24.5Z" fill="#FFA500"/>
<path d="M29.8633 14.0833H21.1341C17.3424 14.0833 15.082 16.3438 15.082 20.1354V28.8542C15.082 32.6563 17.3424 34.9167 21.1341 34.9167H29.8529C33.6445 34.9167 35.9049 32.6563 35.9049 28.8646V20.1354C35.9154 16.3438 33.6549 14.0833 29.8633 14.0833ZM29.5508 26.0313C28.4779 27.0938 26.9466 27.4271 25.5924 27L24.4883 28.0938C24.3945 28.1875 24.2279 28.1875 24.1237 28.0938L23.1133 27.0833C22.9674 26.9375 22.7174 26.9375 22.5612 27.0833C22.4049 27.2292 22.4154 27.4792 22.5612 27.6354L23.5716 28.6458C23.6758 28.75 23.6758 28.9167 23.5716 29.0104L23.1445 29.4375C22.9674 29.625 22.6237 29.7396 22.3737 29.7083L21.2383 29.5521C20.8633 29.5 20.5195 29.1458 20.457 28.7708L20.3008 27.6354C20.2591 27.3854 20.3841 27.0417 20.5508 26.8646L22.9987 24.4167C22.582 23.0625 22.9049 21.5313 23.9779 20.4583C25.5091 18.9271 28.0091 18.9271 29.5508 20.4583C31.0924 21.9896 31.0924 24.4896 29.5508 26.0313Z" fill="#FFA500"/>
</svg>
