<svg width="20" height="20" viewBox="0 0 20 20" fill="none" xmlns="http://www.w3.org/2000/svg">
<g clip-path="url(#clip0_129_22004)">
<path d="M11.6641 5.83333V0.383333C12.4349 0.674446 13.1351 1.12609 13.7182 1.70833L16.6216 4.61333C17.2045 5.19573 17.6565 5.89575 17.9474 6.66667H12.4974C12.2764 6.66667 12.0644 6.57887 11.9081 6.42259C11.7519 6.26631 11.6641 6.05435 11.6641 5.83333ZM18.3307 8.7375V15.8333C18.3294 16.938 17.89 17.997 17.1089 18.7782C16.3278 19.5593 15.2687 19.9987 14.1641 20H5.83073C4.72607 19.9987 3.66703 19.5593 2.88591 18.7782C2.1048 17.997 1.66539 16.938 1.66406 15.8333V4.16667C1.66539 3.062 2.1048 2.00296 2.88591 1.22185C3.66703 0.440735 4.72607 0.00132321 5.83073 0L9.59323 0C9.72906 0 9.86323 0.0108333 9.9974 0.02V5.83333C9.9974 6.49637 10.2608 7.13226 10.7296 7.6011C11.1985 8.06994 11.8344 8.33333 12.4974 8.33333H18.3107C18.3199 8.4675 18.3307 8.60167 18.3307 8.7375ZM11.6641 15.8333C11.6641 15.6123 11.5763 15.4004 11.42 15.2441C11.2637 15.0878 11.0517 15 10.8307 15H6.66406C6.44305 15 6.23109 15.0878 6.07481 15.2441C5.91853 15.4004 5.83073 15.6123 5.83073 15.8333C5.83073 16.0543 5.91853 16.2663 6.07481 16.4226C6.23109 16.5789 6.44305 16.6667 6.66406 16.6667H10.8307C11.0517 16.6667 11.2637 16.5789 11.42 16.4226C11.5763 16.2663 11.6641 16.0543 11.6641 15.8333ZM14.1641 12.5C14.1641 12.279 14.0763 12.067 13.92 11.9107C13.7637 11.7545 13.5517 11.6667 13.3307 11.6667H6.66406C6.44305 11.6667 6.23109 11.7545 6.07481 11.9107C5.91853 12.067 5.83073 12.279 5.83073 12.5C5.83073 12.721 5.91853 12.933 6.07481 13.0893C6.23109 13.2455 6.44305 13.3333 6.66406 13.3333H13.3307C13.5517 13.3333 13.7637 13.2455 13.92 13.0893C14.0763 12.933 14.1641 12.721 14.1641 12.5Z" fill="#71839B"/>
</g>
<defs>
<clipPath id="clip0_129_22004">
<rect width="20" height="20" fill="white"/>
</clipPath>
</defs>
</svg>
