<svg id="Huge-icon_editor_outline_link" data-name="Huge-icon/editor/outline/link" xmlns="http://www.w3.org/2000/svg" width="11.797" height="11.797" viewBox="0 0 11.797 11.797">
  <path id="Vector_2730" data-name="Vector 2730" d="M3.7.858A.5.5,0,0,0,2.992.147ZM.147,2.992A.5.5,0,0,0,.858,3.7ZM2.992.147.147,2.992.858,3.7,3.7.858Z" transform="translate(3.973 3.973)" fill="#ff9600"/>
  <path id="Vector_2731" data-name="Vector 2731" d="M.147,2.19A.5.5,0,0,0,.858,2.9Zm4.47,4.47a.5.5,0,1,0,.711.711ZM.858,2.9,1.976,1.784l-.711-.711L.147,2.19ZM5.735,5.543,4.617,6.66l.711.711L6.446,6.254Zm0-3.759a2.658,2.658,0,0,1,0,3.759l.711.711a3.664,3.664,0,0,0,0-5.181Zm-3.759,0a2.658,2.658,0,0,1,3.759,0l.711-.711a3.664,3.664,0,0,0-5.181,0Z" transform="translate(4.278 0)" fill="#ff9600"/>
  <path id="Vector_2732" data-name="Vector 2732" d="M7.372,5.328a.5.5,0,0,0-.711-.711ZM2.9.858A.5.5,0,1,0,2.191.147ZM6.66,4.617,5.543,5.735l.711.711L7.372,5.328ZM1.784,1.976,2.9.858,2.191.147,1.073,1.265Zm0,3.759a2.658,2.658,0,0,1,0-3.759l-.711-.711a3.664,3.664,0,0,0,0,5.181Zm3.759,0a2.658,2.658,0,0,1-3.759,0l-.711.711a3.664,3.664,0,0,0,5.181,0Z" transform="translate(0 4.278)" fill="#ff9600"/>
</svg>
