<svg width="13" height="13" viewBox="0 0 13 13" fill="none" xmlns="http://www.w3.org/2000/svg">
<path d="M10.25 0.875H2.75C1.36875 0.875 0.25 1.9875 0.25 3.35625V9.64375C0.25 11.0125 1.36875 12.125 2.75 12.125H10.25C11.6313 12.125 12.75 11.0125 12.75 9.64375V3.35625C12.75 1.9875 11.6313 0.875 10.25 0.875ZM4.3125 3.48125C5.10625 3.48125 5.75625 4.13125 5.75625 4.925C5.75625 5.71875 5.10625 6.36875 4.3125 6.36875C3.51875 6.36875 2.86875 5.71875 2.86875 4.925C2.86875 4.13125 3.51875 3.48125 4.3125 3.48125ZM6.73125 9.4125C6.675 9.475 6.5875 9.5125 6.5 9.5125H2.125C2.0375 9.5125 1.95 9.475 1.89375 9.4125C1.8375 9.35 1.80625 9.2625 1.8125 9.175C1.91875 8.125 2.75625 7.29375 3.80625 7.19375C4.1375 7.1625 4.48125 7.1625 4.8125 7.19375C5.8625 7.29375 6.70625 8.125 6.80625 9.175C6.81875 9.2625 6.7875 9.35 6.73125 9.4125ZM10.875 9.46875H9.625C9.36875 9.46875 9.15625 9.25625 9.15625 9C9.15625 8.74375 9.36875 8.53125 9.625 8.53125H10.875C11.1313 8.53125 11.3438 8.74375 11.3438 9C11.3438 9.25625 11.1313 9.46875 10.875 9.46875ZM10.875 6.96875H8.375C8.11875 6.96875 7.90625 6.75625 7.90625 6.5C7.90625 6.24375 8.11875 6.03125 8.375 6.03125H10.875C11.1313 6.03125 11.3438 6.24375 11.3438 6.5C11.3438 6.75625 11.1313 6.96875 10.875 6.96875ZM10.875 4.46875H7.75C7.49375 4.46875 7.28125 4.25625 7.28125 4C7.28125 3.74375 7.49375 3.53125 7.75 3.53125H10.875C11.1313 3.53125 11.3438 3.74375 11.3438 4C11.3438 4.25625 11.1313 4.46875 10.875 4.46875Z" fill="#AFAFAF"/>
</svg>
