<svg width="28" height="34" viewBox="0 0 28 34" fill="none" xmlns="http://www.w3.org/2000/svg">
<path d="M20.1168 16.3489L25.3908 9.73617L17.2565 0H0V34H19.5155L27.04 23.7532L20.1168 16.3489ZM14.336 5.34468L17.7117 9.81277L15.341 11.7617L10.6339 5.34468H14.336ZM5.11939 8.55319H6.48513L10.6253 14.5957H5.11939V8.55319ZM5.11939 29.0213C4.87888 29.0213 5.11939 21.7277 5.11939 21.7277H6.45078L11.3554 29.0213C11.3554 29.0213 5.3599 29.0213 5.11939 29.0213ZM17.0331 27.1064L11.6389 19.5319H15.9852L19.6444 24.5532L17.0331 27.1064Z" fill="url(#paint0_linear_1280_30153)"/>
<defs>
<linearGradient id="paint0_linear_1280_30153" x1="13.5173" y1="0.00382979" x2="13.5173" y2="34.0047" gradientUnits="userSpaceOnUse">
<stop offset="5.20186e-07" stop-color="#FFA700"/>
<stop offset="1" stop-color="#FF7F00"/>
</linearGradient>
</defs>
</svg>
