<svg width="106" height="106" viewBox="0 0 106 106" fill="none" xmlns="http://www.w3.org/2000/svg">
<path d="M0 0H3.18491V3.18491H0V0ZM3.18491 0H6.36983V3.18491H3.18491V0ZM6.36983 0H9.55474V3.18491H6.36983V0ZM9.55474 0H12.7397V3.18491H9.55474V0ZM12.7397 0H15.9246V3.18491H12.7397V0ZM15.9246 0H19.1095V3.18491H15.9246V0ZM19.1095 0H22.2944V3.18491H19.1095V0ZM28.6642 0H31.8491V3.18491H28.6642V0ZM50.9586 0H54.1436V3.18491H50.9586V0ZM54.1436 0H57.3285V3.18491H54.1436V0ZM57.3285 0H60.5134V3.18491H57.3285V0ZM60.5134 0H63.6983V3.18491H60.5134V0ZM63.6983 0H66.8832V3.18491H63.6983V0ZM66.8832 0H70.0681V3.18491H66.8832V0ZM70.0681 0H73.253V3.18491H70.0681V0ZM73.253 0H76.438V3.18491H73.253V0ZM82.8078 0H85.9927V3.18491H82.8078V0ZM85.9927 0H89.1776V3.18491H85.9927V0ZM89.1776 0H92.3625V3.18491H89.1776V0ZM92.3625 0H95.5474V3.18491H92.3625V0ZM95.5474 0H98.7324V3.18491H95.5474V0ZM98.7324 0H101.917V3.18491H98.7324V0ZM101.917 0H105.102V3.18491H101.917V0ZM0 3.18491H3.18491V6.36983H0V3.18491ZM19.1095 3.18491H22.2944V6.36983H19.1095V3.18491ZM25.4793 3.18491H28.6642V6.36983H25.4793V3.18491ZM28.6642 3.18491H31.8491V6.36983H28.6642V3.18491ZM35.0341 3.18491H38.219V6.36983H35.0341V3.18491ZM38.219 3.18491H41.4039V6.36983H38.219V3.18491ZM47.7737 3.18491H50.9586V6.36983H47.7737V3.18491ZM50.9586 3.18491H54.1436V6.36983H50.9586V3.18491ZM57.3285 3.18491H60.5134V6.36983H57.3285V3.18491ZM63.6983 3.18491H66.8832V6.36983H63.6983V3.18491ZM82.8078 3.18491H85.9927V6.36983H82.8078V3.18491ZM101.917 3.18491H105.102V6.36983H101.917V3.18491ZM0 6.36983H3.18491V9.55474H0V6.36983ZM6.36983 6.36983H9.55474V9.55474H6.36983V6.36983ZM9.55474 6.36983H12.7397V9.55474H9.55474V6.36983ZM12.7397 6.36983H15.9246V9.55474H12.7397V6.36983ZM19.1095 6.36983H22.2944V9.55474H19.1095V6.36983ZM28.6642 6.36983H31.8491V9.55474H28.6642V6.36983ZM31.8491 6.36983H35.0341V9.55474H31.8491V6.36983ZM35.0341 6.36983H38.219V9.55474H35.0341V6.36983ZM44.5888 6.36983H47.7737V9.55474H44.5888V6.36983ZM50.9586 6.36983H54.1436V9.55474H50.9586V6.36983ZM60.5134 6.36983H63.6983V9.55474H60.5134V6.36983ZM63.6983 6.36983H66.8832V9.55474H63.6983V6.36983ZM66.8832 6.36983H70.0681V9.55474H66.8832V6.36983ZM73.253 6.36983H76.438V9.55474H73.253V6.36983ZM82.8078 6.36983H85.9927V9.55474H82.8078V6.36983ZM89.1776 6.36983H92.3625V9.55474H89.1776V6.36983ZM92.3625 6.36983H95.5474V9.55474H92.3625V6.36983ZM95.5474 6.36983H98.7324V9.55474H95.5474V6.36983ZM101.917 6.36983H105.102V9.55474H101.917V6.36983ZM0 9.55474H3.18491V12.7397H0V9.55474ZM6.36983 9.55474H9.55474V12.7397H6.36983V9.55474ZM9.55474 9.55474H12.7397V12.7397H9.55474V9.55474ZM12.7397 9.55474H15.9246V12.7397H12.7397V9.55474ZM19.1095 9.55474H22.2944V12.7397H19.1095V9.55474ZM25.4793 9.55474H28.6642V12.7397H25.4793V9.55474ZM28.6642 9.55474H31.8491V12.7397H28.6642V9.55474ZM35.0341 9.55474H38.219V12.7397H35.0341V9.55474ZM41.4039 9.55474H44.5888V12.7397H41.4039V9.55474ZM44.5888 9.55474H47.7737V12.7397H44.5888V9.55474ZM47.7737 9.55474H50.9586V12.7397H47.7737V9.55474ZM50.9586 9.55474H54.1436V12.7397H50.9586V9.55474ZM54.1436 9.55474H57.3285V12.7397H54.1436V9.55474ZM60.5134 9.55474H63.6983V12.7397H60.5134V9.55474ZM63.6983 9.55474H66.8832V12.7397H63.6983V9.55474ZM70.0681 9.55474H73.253V12.7397H70.0681V9.55474ZM73.253 9.55474H76.438V12.7397H73.253V9.55474ZM76.438 9.55474H79.6229V12.7397H76.438V9.55474ZM82.8078 9.55474H85.9927V12.7397H82.8078V9.55474ZM89.1776 9.55474H92.3625V12.7397H89.1776V9.55474ZM92.3625 9.55474H95.5474V12.7397H92.3625V9.55474ZM95.5474 9.55474H98.7324V12.7397H95.5474V9.55474ZM101.917 9.55474H105.102V12.7397H101.917V9.55474ZM0 12.7397H3.18491V15.9246H0V12.7397ZM6.36983 12.7397H9.55474V15.9246H6.36983V12.7397ZM9.55474 12.7397H12.7397V15.9246H9.55474V12.7397ZM12.7397 12.7397H15.9246V15.9246H12.7397V12.7397ZM19.1095 12.7397H22.2944V15.9246H19.1095V12.7397ZM31.8491 12.7397H35.0341V15.9246H31.8491V12.7397ZM38.219 12.7397H41.4039V15.9246H38.219V12.7397ZM41.4039 12.7397H44.5888V15.9246H41.4039V12.7397ZM50.9586 12.7397H54.1436V15.9246H50.9586V12.7397ZM57.3285 12.7397H60.5134V15.9246H57.3285V12.7397ZM60.5134 12.7397H63.6983V15.9246H60.5134V12.7397ZM66.8832 12.7397H70.0681V15.9246H66.8832V12.7397ZM73.253 12.7397H76.438V15.9246H73.253V12.7397ZM82.8078 12.7397H85.9927V15.9246H82.8078V12.7397ZM89.1776 12.7397H92.3625V15.9246H89.1776V12.7397ZM92.3625 12.7397H95.5474V15.9246H92.3625V12.7397ZM95.5474 12.7397H98.7324V15.9246H95.5474V12.7397ZM101.917 12.7397H105.102V15.9246H101.917V12.7397ZM0 15.9246H3.18491V19.1095H0V15.9246ZM19.1095 15.9246H22.2944V19.1095H19.1095V15.9246ZM25.4793 15.9246H28.6642V19.1095H25.4793V15.9246ZM31.8491 15.9246H35.0341V19.1095H31.8491V15.9246ZM44.5888 15.9246H47.7737V19.1095H44.5888V15.9246ZM47.7737 15.9246H50.9586V19.1095H47.7737V15.9246ZM63.6983 15.9246H66.8832V19.1095H63.6983V15.9246ZM66.8832 15.9246H70.0681V19.1095H66.8832V15.9246ZM70.0681 15.9246H73.253V19.1095H70.0681V15.9246ZM76.438 15.9246H79.6229V19.1095H76.438V15.9246ZM82.8078 15.9246H85.9927V19.1095H82.8078V15.9246ZM101.917 15.9246H105.102V19.1095H101.917V15.9246ZM0 19.1095H3.18491V22.2944H0V19.1095ZM3.18491 19.1095H6.36983V22.2944H3.18491V19.1095ZM6.36983 19.1095H9.55474V22.2944H6.36983V19.1095ZM9.55474 19.1095H12.7397V22.2944H9.55474V19.1095ZM12.7397 19.1095H15.9246V22.2944H12.7397V19.1095ZM15.9246 19.1095H19.1095V22.2944H15.9246V19.1095ZM19.1095 19.1095H22.2944V22.2944H19.1095V19.1095ZM25.4793 19.1095H28.6642V22.2944H25.4793V19.1095ZM31.8491 19.1095H35.0341V22.2944H31.8491V19.1095ZM38.219 19.1095H41.4039V22.2944H38.219V19.1095ZM44.5888 19.1095H47.7737V22.2944H44.5888V19.1095ZM50.9586 19.1095H54.1436V22.2944H50.9586V19.1095ZM57.3285 19.1095H60.5134V22.2944H57.3285V19.1095ZM63.6983 19.1095H66.8832V22.2944H63.6983V19.1095ZM70.0681 19.1095H73.253V22.2944H70.0681V19.1095ZM76.438 19.1095H79.6229V22.2944H76.438V19.1095ZM82.8078 19.1095H85.9927V22.2944H82.8078V19.1095ZM85.9927 19.1095H89.1776V22.2944H85.9927V19.1095ZM89.1776 19.1095H92.3625V22.2944H89.1776V19.1095ZM92.3625 19.1095H95.5474V22.2944H92.3625V19.1095ZM95.5474 19.1095H98.7324V22.2944H95.5474V19.1095ZM98.7324 19.1095H101.917V22.2944H98.7324V19.1095ZM101.917 19.1095H105.102V22.2944H101.917V19.1095ZM38.219 22.2944H41.4039V25.4793H38.219V22.2944ZM50.9586 22.2944H54.1436V25.4793H50.9586V22.2944ZM57.3285 22.2944H60.5134V25.4793H57.3285V22.2944ZM60.5134 22.2944H63.6983V25.4793H60.5134V22.2944ZM66.8832 22.2944H70.0681V25.4793H66.8832V22.2944ZM70.0681 22.2944H73.253V25.4793H70.0681V22.2944ZM0 25.4793H3.18491V28.6642H0V25.4793ZM3.18491 25.4793H6.36983V28.6642H3.18491V25.4793ZM6.36983 25.4793H9.55474V28.6642H6.36983V25.4793ZM9.55474 25.4793H12.7397V28.6642H9.55474V25.4793ZM12.7397 25.4793H15.9246V28.6642H12.7397V25.4793ZM19.1095 25.4793H22.2944V28.6642H19.1095V25.4793ZM22.2944 25.4793H25.4793V28.6642H22.2944V25.4793ZM25.4793 25.4793H28.6642V28.6642H25.4793V25.4793ZM28.6642 25.4793H31.8491V28.6642H28.6642V25.4793ZM31.8491 25.4793H35.0341V28.6642H31.8491V25.4793ZM38.219 25.4793H41.4039V28.6642H38.219V25.4793ZM41.4039 25.4793H44.5888V28.6642H41.4039V25.4793ZM44.5888 25.4793H47.7737V28.6642H44.5888V25.4793ZM54.1436 25.4793H57.3285V28.6642H54.1436V25.4793ZM57.3285 25.4793H60.5134V28.6642H57.3285V25.4793ZM63.6983 25.4793H66.8832V28.6642H63.6983V25.4793ZM79.6229 25.4793H82.8078V28.6642H79.6229V25.4793ZM85.9927 25.4793H89.1776V28.6642H85.9927V25.4793ZM92.3625 25.4793H95.5474V28.6642H92.3625V25.4793ZM98.7324 25.4793H101.917V28.6642H98.7324V25.4793ZM0 28.6642H3.18491V31.8491H0V28.6642ZM12.7397 28.6642H15.9246V31.8491H12.7397V28.6642ZM15.9246 28.6642H19.1095V31.8491H15.9246V28.6642ZM25.4793 28.6642H28.6642V31.8491H25.4793V28.6642ZM28.6642 28.6642H31.8491V31.8491H28.6642V28.6642ZM41.4039 28.6642H44.5888V31.8491H41.4039V28.6642ZM54.1436 28.6642H57.3285V31.8491H54.1436V28.6642ZM60.5134 28.6642H63.6983V31.8491H60.5134V28.6642ZM63.6983 28.6642H66.8832V31.8491H63.6983V28.6642ZM73.253 28.6642H76.438V31.8491H73.253V28.6642ZM82.8078 28.6642H85.9927V31.8491H82.8078V28.6642ZM95.5474 28.6642H98.7324V31.8491H95.5474V28.6642ZM98.7324 28.6642H101.917V31.8491H98.7324V28.6642ZM101.917 28.6642H105.102V31.8491H101.917V28.6642ZM0 31.8491H3.18491V35.0341H0V31.8491ZM9.55474 31.8491H12.7397V35.0341H9.55474V31.8491ZM15.9246 31.8491H19.1095V35.0341H15.9246V31.8491ZM19.1095 31.8491H22.2944V35.0341H19.1095V31.8491ZM28.6642 31.8491H31.8491V35.0341H28.6642V31.8491ZM35.0341 31.8491H38.219V35.0341H35.0341V31.8491ZM38.219 31.8491H41.4039V35.0341H38.219V31.8491ZM44.5888 31.8491H47.7737V35.0341H44.5888V31.8491ZM47.7737 31.8491H50.9586V35.0341H47.7737V31.8491ZM70.0681 31.8491H73.253V35.0341H70.0681V31.8491ZM79.6229 31.8491H82.8078V35.0341H79.6229V31.8491ZM82.8078 31.8491H85.9927V35.0341H82.8078V31.8491ZM89.1776 31.8491H92.3625V35.0341H89.1776V31.8491ZM92.3625 31.8491H95.5474V35.0341H92.3625V31.8491ZM98.7324 31.8491H101.917V35.0341H98.7324V31.8491ZM6.36983 35.0341H9.55474V38.219H6.36983V35.0341ZM9.55474 35.0341H12.7397V38.219H9.55474V35.0341ZM15.9246 35.0341H19.1095V38.219H15.9246V35.0341ZM22.2944 35.0341H25.4793V38.219H22.2944V35.0341ZM25.4793 35.0341H28.6642V38.219H25.4793V35.0341ZM28.6642 35.0341H31.8491V38.219H28.6642V35.0341ZM31.8491 35.0341H35.0341V38.219H31.8491V35.0341ZM35.0341 35.0341H38.219V38.219H35.0341V35.0341ZM50.9586 35.0341H54.1436V38.219H50.9586V35.0341ZM63.6983 35.0341H66.8832V38.219H63.6983V35.0341ZM66.8832 35.0341H70.0681V38.219H66.8832V35.0341ZM70.0681 35.0341H73.253V38.219H70.0681V35.0341ZM73.253 35.0341H76.438V38.219H73.253V35.0341ZM76.438 35.0341H79.6229V38.219H76.438V35.0341ZM79.6229 35.0341H82.8078V38.219H79.6229V35.0341ZM82.8078 35.0341H85.9927V38.219H82.8078V35.0341ZM89.1776 35.0341H92.3625V38.219H89.1776V35.0341ZM95.5474 35.0341H98.7324V38.219H95.5474V35.0341ZM3.18491 38.219H6.36983V41.4039H3.18491V38.219ZM12.7397 38.219H15.9246V41.4039H12.7397V38.219ZM15.9246 38.219H19.1095V41.4039H15.9246V38.219ZM19.1095 38.219H22.2944V41.4039H19.1095V38.219ZM28.6642 38.219H31.8491V41.4039H28.6642V38.219ZM35.0341 38.219H38.219V41.4039H35.0341V38.219ZM41.4039 38.219H44.5888V41.4039H41.4039V38.219ZM44.5888 38.219H47.7737V41.4039H44.5888V38.219ZM54.1436 38.219H57.3285V41.4039H54.1436V38.219ZM60.5134 38.219H63.6983V41.4039H60.5134V38.219ZM70.0681 38.219H73.253V41.4039H70.0681V38.219ZM79.6229 38.219H82.8078V41.4039H79.6229V38.219ZM85.9927 38.219H89.1776V41.4039H85.9927V38.219ZM89.1776 38.219H92.3625V41.4039H89.1776V38.219ZM92.3625 38.219H95.5474V41.4039H92.3625V38.219ZM3.18491 41.4039H6.36983V44.5888H3.18491V41.4039ZM9.55474 41.4039H12.7397V44.5888H9.55474V41.4039ZM12.7397 41.4039H15.9246V44.5888H12.7397V41.4039ZM22.2944 41.4039H25.4793V44.5888H22.2944V41.4039ZM25.4793 41.4039H28.6642V44.5888H25.4793V41.4039ZM31.8491 41.4039H35.0341V44.5888H31.8491V41.4039ZM38.219 41.4039H41.4039V44.5888H38.219V41.4039ZM50.9586 41.4039H54.1436V44.5888H50.9586V41.4039ZM57.3285 41.4039H60.5134V44.5888H57.3285V41.4039ZM60.5134 41.4039H63.6983V44.5888H60.5134V41.4039ZM63.6983 41.4039H66.8832V44.5888H63.6983V41.4039ZM66.8832 41.4039H70.0681V44.5888H66.8832V41.4039ZM73.253 41.4039H76.438V44.5888H73.253V41.4039ZM82.8078 41.4039H85.9927V44.5888H82.8078V41.4039ZM98.7324 41.4039H101.917V44.5888H98.7324V41.4039ZM101.917 41.4039H105.102V44.5888H101.917V41.4039ZM0 44.5888H3.18491V47.7737H0V44.5888ZM9.55474 44.5888H12.7397V47.7737H9.55474V44.5888ZM12.7397 44.5888H15.9246V47.7737H12.7397V44.5888ZM15.9246 44.5888H19.1095V47.7737H15.9246V44.5888ZM19.1095 44.5888H22.2944V47.7737H19.1095V44.5888ZM25.4793 44.5888H28.6642V47.7737H25.4793V44.5888ZM28.6642 44.5888H31.8491V47.7737H28.6642V44.5888ZM44.5888 44.5888H47.7737V47.7737H44.5888V44.5888ZM47.7737 44.5888H50.9586V47.7737H47.7737V44.5888ZM50.9586 44.5888H54.1436V47.7737H50.9586V44.5888ZM54.1436 44.5888H57.3285V47.7737H54.1436V44.5888ZM57.3285 44.5888H60.5134V47.7737H57.3285V44.5888ZM63.6983 44.5888H66.8832V47.7737H63.6983V44.5888ZM66.8832 44.5888H70.0681V47.7737H66.8832V44.5888ZM79.6229 44.5888H82.8078V47.7737H79.6229V44.5888ZM89.1776 44.5888H92.3625V47.7737H89.1776V44.5888ZM98.7324 44.5888H101.917V47.7737H98.7324V44.5888ZM0 47.7737H3.18491V50.9586H0V47.7737ZM6.36983 47.7737H9.55474V50.9586H6.36983V47.7737ZM9.55474 47.7737H12.7397V50.9586H9.55474V47.7737ZM15.9246 47.7737H19.1095V50.9586H15.9246V47.7737ZM22.2944 47.7737H25.4793V50.9586H22.2944V47.7737ZM38.219 47.7737H41.4039V50.9586H38.219V47.7737ZM44.5888 47.7737H47.7737V50.9586H44.5888V47.7737ZM47.7737 47.7737H50.9586V50.9586H47.7737V47.7737ZM66.8832 47.7737H70.0681V50.9586H66.8832V47.7737ZM70.0681 47.7737H73.253V50.9586H70.0681V47.7737ZM73.253 47.7737H76.438V50.9586H73.253V47.7737ZM79.6229 47.7737H82.8078V50.9586H79.6229V47.7737ZM82.8078 47.7737H85.9927V50.9586H82.8078V47.7737ZM95.5474 47.7737H98.7324V50.9586H95.5474V47.7737ZM6.36983 50.9586H9.55474V54.1436H6.36983V50.9586ZM15.9246 50.9586H19.1095V54.1436H15.9246V50.9586ZM19.1095 50.9586H22.2944V54.1436H19.1095V50.9586ZM28.6642 50.9586H31.8491V54.1436H28.6642V50.9586ZM38.219 50.9586H41.4039V54.1436H38.219V50.9586ZM41.4039 50.9586H44.5888V54.1436H41.4039V50.9586ZM44.5888 50.9586H47.7737V54.1436H44.5888V50.9586ZM54.1436 50.9586H57.3285V54.1436H54.1436V50.9586ZM60.5134 50.9586H63.6983V54.1436H60.5134V50.9586ZM70.0681 50.9586H73.253V54.1436H70.0681V50.9586ZM73.253 50.9586H76.438V54.1436H73.253V50.9586ZM76.438 50.9586H79.6229V54.1436H76.438V50.9586ZM79.6229 50.9586H82.8078V54.1436H79.6229V50.9586ZM85.9927 50.9586H89.1776V54.1436H85.9927V50.9586ZM89.1776 50.9586H92.3625V54.1436H89.1776V50.9586ZM98.7324 50.9586H101.917V54.1436H98.7324V50.9586ZM3.18491 54.1436H6.36983V57.3285H3.18491V54.1436ZM12.7397 54.1436H15.9246V57.3285H12.7397V54.1436ZM25.4793 54.1436H28.6642V57.3285H25.4793V54.1436ZM44.5888 54.1436H47.7737V57.3285H44.5888V54.1436ZM50.9586 54.1436H54.1436V57.3285H50.9586V54.1436ZM54.1436 54.1436H57.3285V57.3285H54.1436V54.1436ZM57.3285 54.1436H60.5134V57.3285H57.3285V54.1436ZM60.5134 54.1436H63.6983V57.3285H60.5134V54.1436ZM63.6983 54.1436H66.8832V57.3285H63.6983V54.1436ZM66.8832 54.1436H70.0681V57.3285H66.8832V54.1436ZM70.0681 54.1436H73.253V57.3285H70.0681V54.1436ZM73.253 54.1436H76.438V57.3285H73.253V54.1436ZM76.438 54.1436H79.6229V57.3285H76.438V54.1436ZM82.8078 54.1436H85.9927V57.3285H82.8078V54.1436ZM92.3625 54.1436H95.5474V57.3285H92.3625V54.1436ZM98.7324 54.1436H101.917V57.3285H98.7324V54.1436ZM101.917 54.1436H105.102V57.3285H101.917V54.1436ZM6.36983 57.3285H9.55474V60.5134H6.36983V57.3285ZM19.1095 57.3285H22.2944V60.5134H19.1095V57.3285ZM31.8491 57.3285H35.0341V60.5134H31.8491V57.3285ZM35.0341 57.3285H38.219V60.5134H35.0341V57.3285ZM38.219 57.3285H41.4039V60.5134H38.219V57.3285ZM44.5888 57.3285H47.7737V60.5134H44.5888V57.3285ZM47.7737 57.3285H50.9586V60.5134H47.7737V57.3285ZM50.9586 57.3285H54.1436V60.5134H50.9586V57.3285ZM54.1436 57.3285H57.3285V60.5134H54.1436V57.3285ZM63.6983 57.3285H66.8832V60.5134H63.6983V57.3285ZM66.8832 57.3285H70.0681V60.5134H66.8832V57.3285ZM79.6229 57.3285H82.8078V60.5134H79.6229V57.3285ZM82.8078 57.3285H85.9927V60.5134H82.8078V57.3285ZM85.9927 57.3285H89.1776V60.5134H85.9927V57.3285ZM89.1776 57.3285H92.3625V60.5134H89.1776V57.3285ZM92.3625 57.3285H95.5474V60.5134H92.3625V57.3285ZM98.7324 57.3285H101.917V60.5134H98.7324V57.3285ZM0 60.5134H3.18491V63.6983H0V60.5134ZM3.18491 60.5134H6.36983V63.6983H3.18491V60.5134ZM9.55474 60.5134H12.7397V63.6983H9.55474V60.5134ZM22.2944 60.5134H25.4793V63.6983H22.2944V60.5134ZM25.4793 60.5134H28.6642V63.6983H25.4793V60.5134ZM31.8491 60.5134H35.0341V63.6983H31.8491V60.5134ZM35.0341 60.5134H38.219V63.6983H35.0341V60.5134ZM50.9586 60.5134H54.1436V63.6983H50.9586V60.5134ZM66.8832 60.5134H70.0681V63.6983H66.8832V60.5134ZM89.1776 60.5134H92.3625V63.6983H89.1776V60.5134ZM95.5474 60.5134H98.7324V63.6983H95.5474V60.5134ZM0 63.6983H3.18491V66.8832H0V63.6983ZM3.18491 63.6983H6.36983V66.8832H3.18491V63.6983ZM6.36983 63.6983H9.55474V66.8832H6.36983V63.6983ZM9.55474 63.6983H12.7397V66.8832H9.55474V63.6983ZM19.1095 63.6983H22.2944V66.8832H19.1095V63.6983ZM22.2944 63.6983H25.4793V66.8832H22.2944V63.6983ZM28.6642 63.6983H31.8491V66.8832H28.6642V63.6983ZM35.0341 63.6983H38.219V66.8832H35.0341V63.6983ZM54.1436 63.6983H57.3285V66.8832H54.1436V63.6983ZM70.0681 63.6983H73.253V66.8832H70.0681V63.6983ZM73.253 63.6983H76.438V66.8832H73.253V63.6983ZM76.438 63.6983H79.6229V66.8832H76.438V63.6983ZM79.6229 63.6983H82.8078V66.8832H79.6229V63.6983ZM85.9927 63.6983H89.1776V66.8832H85.9927V63.6983ZM89.1776 63.6983H92.3625V66.8832H89.1776V63.6983ZM98.7324 63.6983H101.917V66.8832H98.7324V63.6983ZM0 66.8832H3.18491V70.0681H0V66.8832ZM3.18491 66.8832H6.36983V70.0681H3.18491V66.8832ZM12.7397 66.8832H15.9246V70.0681H12.7397V66.8832ZM22.2944 66.8832H25.4793V70.0681H22.2944V66.8832ZM25.4793 66.8832H28.6642V70.0681H25.4793V66.8832ZM38.219 66.8832H41.4039V70.0681H38.219V66.8832ZM41.4039 66.8832H44.5888V70.0681H41.4039V66.8832ZM50.9586 66.8832H54.1436V70.0681H50.9586V66.8832ZM54.1436 66.8832H57.3285V70.0681H54.1436V66.8832ZM57.3285 66.8832H60.5134V70.0681H57.3285V66.8832ZM60.5134 66.8832H63.6983V70.0681H60.5134V66.8832ZM63.6983 66.8832H66.8832V70.0681H63.6983V66.8832ZM66.8832 66.8832H70.0681V70.0681H66.8832V66.8832ZM70.0681 66.8832H73.253V70.0681H70.0681V66.8832ZM73.253 66.8832H76.438V70.0681H73.253V66.8832ZM82.8078 66.8832H85.9927V70.0681H82.8078V66.8832ZM85.9927 66.8832H89.1776V70.0681H85.9927V66.8832ZM92.3625 66.8832H95.5474V70.0681H92.3625V66.8832ZM98.7324 66.8832H101.917V70.0681H98.7324V66.8832ZM101.917 66.8832H105.102V70.0681H101.917V66.8832ZM0 70.0681H3.18491V73.253H0V70.0681ZM6.36983 70.0681H9.55474V73.253H6.36983V70.0681ZM9.55474 70.0681H12.7397V73.253H9.55474V70.0681ZM15.9246 70.0681H19.1095V73.253H15.9246V70.0681ZM19.1095 70.0681H22.2944V73.253H19.1095V70.0681ZM22.2944 70.0681H25.4793V73.253H22.2944V70.0681ZM25.4793 70.0681H28.6642V73.253H25.4793V70.0681ZM28.6642 70.0681H31.8491V73.253H28.6642V70.0681ZM41.4039 70.0681H44.5888V73.253H41.4039V70.0681ZM44.5888 70.0681H47.7737V73.253H44.5888V70.0681ZM47.7737 70.0681H50.9586V73.253H47.7737V70.0681ZM50.9586 70.0681H54.1436V73.253H50.9586V70.0681ZM66.8832 70.0681H70.0681V73.253H66.8832V70.0681ZM79.6229 70.0681H82.8078V73.253H79.6229V70.0681ZM92.3625 70.0681H95.5474V73.253H92.3625V70.0681ZM98.7324 70.0681H101.917V73.253H98.7324V70.0681ZM0 73.253H3.18491V76.438H0V73.253ZM9.55474 73.253H12.7397V76.438H9.55474V73.253ZM12.7397 73.253H15.9246V76.438H12.7397V73.253ZM15.9246 73.253H19.1095V76.438H15.9246V73.253ZM22.2944 73.253H25.4793V76.438H22.2944V73.253ZM25.4793 73.253H28.6642V76.438H25.4793V73.253ZM38.219 73.253H41.4039V76.438H38.219V73.253ZM41.4039 73.253H44.5888V76.438H41.4039V73.253ZM63.6983 73.253H66.8832V76.438H63.6983V73.253ZM66.8832 73.253H70.0681V76.438H66.8832V73.253ZM73.253 73.253H76.438V76.438H73.253V73.253ZM79.6229 73.253H82.8078V76.438H79.6229V73.253ZM85.9927 73.253H89.1776V76.438H85.9927V73.253ZM89.1776 73.253H92.3625V76.438H89.1776V73.253ZM92.3625 73.253H95.5474V76.438H92.3625V73.253ZM95.5474 73.253H98.7324V76.438H95.5474V73.253ZM0 76.438H3.18491V79.6229H0V76.438ZM6.36983 76.438H9.55474V79.6229H6.36983V76.438ZM12.7397 76.438H15.9246V79.6229H12.7397V76.438ZM15.9246 76.438H19.1095V79.6229H15.9246V76.438ZM19.1095 76.438H22.2944V79.6229H19.1095V76.438ZM22.2944 76.438H25.4793V79.6229H22.2944V76.438ZM25.4793 76.438H28.6642V79.6229H25.4793V76.438ZM31.8491 76.438H35.0341V79.6229H31.8491V76.438ZM38.219 76.438H41.4039V79.6229H38.219V76.438ZM44.5888 76.438H47.7737V79.6229H44.5888V76.438ZM47.7737 76.438H50.9586V79.6229H47.7737V76.438ZM54.1436 76.438H57.3285V79.6229H54.1436V76.438ZM57.3285 76.438H60.5134V79.6229H57.3285V76.438ZM63.6983 76.438H66.8832V79.6229H63.6983V76.438ZM70.0681 76.438H73.253V79.6229H70.0681V76.438ZM73.253 76.438H76.438V79.6229H73.253V76.438ZM76.438 76.438H79.6229V79.6229H76.438V76.438ZM79.6229 76.438H82.8078V79.6229H79.6229V76.438ZM82.8078 76.438H85.9927V79.6229H82.8078V76.438ZM85.9927 76.438H89.1776V79.6229H85.9927V76.438ZM89.1776 76.438H92.3625V79.6229H89.1776V76.438ZM92.3625 76.438H95.5474V79.6229H92.3625V76.438ZM101.917 76.438H105.102V79.6229H101.917V76.438ZM25.4793 79.6229H28.6642V82.8078H25.4793V79.6229ZM28.6642 79.6229H31.8491V82.8078H28.6642V79.6229ZM50.9586 79.6229H54.1436V82.8078H50.9586V79.6229ZM54.1436 79.6229H57.3285V82.8078H54.1436V79.6229ZM57.3285 79.6229H60.5134V82.8078H57.3285V79.6229ZM60.5134 79.6229H63.6983V82.8078H60.5134V79.6229ZM63.6983 79.6229H66.8832V82.8078H63.6983V79.6229ZM66.8832 79.6229H70.0681V82.8078H66.8832V79.6229ZM70.0681 79.6229H73.253V82.8078H70.0681V79.6229ZM76.438 79.6229H79.6229V82.8078H76.438V79.6229ZM89.1776 79.6229H92.3625V82.8078H89.1776V79.6229ZM95.5474 79.6229H98.7324V82.8078H95.5474V79.6229ZM101.917 79.6229H105.102V82.8078H101.917V79.6229ZM0 82.8078H3.18491V85.9927H0V82.8078ZM3.18491 82.8078H6.36983V85.9927H3.18491V82.8078ZM6.36983 82.8078H9.55474V85.9927H6.36983V82.8078ZM9.55474 82.8078H12.7397V85.9927H9.55474V82.8078ZM12.7397 82.8078H15.9246V85.9927H12.7397V82.8078ZM15.9246 82.8078H19.1095V85.9927H15.9246V82.8078ZM19.1095 82.8078H22.2944V85.9927H19.1095V82.8078ZM25.4793 82.8078H28.6642V85.9927H25.4793V82.8078ZM28.6642 82.8078H31.8491V85.9927H28.6642V82.8078ZM35.0341 82.8078H38.219V85.9927H35.0341V82.8078ZM38.219 82.8078H41.4039V85.9927H38.219V82.8078ZM47.7737 82.8078H50.9586V85.9927H47.7737V82.8078ZM54.1436 82.8078H57.3285V85.9927H54.1436V82.8078ZM63.6983 82.8078H66.8832V85.9927H63.6983V82.8078ZM73.253 82.8078H76.438V85.9927H73.253V82.8078ZM76.438 82.8078H79.6229V85.9927H76.438V82.8078ZM82.8078 82.8078H85.9927V85.9927H82.8078V82.8078ZM89.1776 82.8078H92.3625V85.9927H89.1776V82.8078ZM95.5474 82.8078H98.7324V85.9927H95.5474V82.8078ZM98.7324 82.8078H101.917V85.9927H98.7324V82.8078ZM0 85.9927H3.18491V89.1776H0V85.9927ZM19.1095 85.9927H22.2944V89.1776H19.1095V85.9927ZM28.6642 85.9927H31.8491V89.1776H28.6642V85.9927ZM35.0341 85.9927H38.219V89.1776H35.0341V85.9927ZM44.5888 85.9927H47.7737V89.1776H44.5888V85.9927ZM47.7737 85.9927H50.9586V89.1776H47.7737V85.9927ZM50.9586 85.9927H54.1436V89.1776H50.9586V85.9927ZM57.3285 85.9927H60.5134V89.1776H57.3285V85.9927ZM63.6983 85.9927H66.8832V89.1776H63.6983V85.9927ZM66.8832 85.9927H70.0681V89.1776H66.8832V85.9927ZM70.0681 85.9927H73.253V89.1776H70.0681V85.9927ZM73.253 85.9927H76.438V89.1776H73.253V85.9927ZM76.438 85.9927H79.6229V89.1776H76.438V85.9927ZM89.1776 85.9927H92.3625V89.1776H89.1776V85.9927ZM92.3625 85.9927H95.5474V89.1776H92.3625V85.9927ZM95.5474 85.9927H98.7324V89.1776H95.5474V85.9927ZM0 89.1776H3.18491V92.3625H0V89.1776ZM6.36983 89.1776H9.55474V92.3625H6.36983V89.1776ZM9.55474 89.1776H12.7397V92.3625H9.55474V89.1776ZM12.7397 89.1776H15.9246V92.3625H12.7397V89.1776ZM19.1095 89.1776H22.2944V92.3625H19.1095V89.1776ZM25.4793 89.1776H28.6642V92.3625H25.4793V89.1776ZM28.6642 89.1776H31.8491V92.3625H28.6642V89.1776ZM31.8491 89.1776H35.0341V92.3625H31.8491V89.1776ZM35.0341 89.1776H38.219V92.3625H35.0341V89.1776ZM47.7737 89.1776H50.9586V92.3625H47.7737V89.1776ZM50.9586 89.1776H54.1436V92.3625H50.9586V89.1776ZM54.1436 89.1776H57.3285V92.3625H54.1436V89.1776ZM76.438 89.1776H79.6229V92.3625H76.438V89.1776ZM79.6229 89.1776H82.8078V92.3625H79.6229V89.1776ZM82.8078 89.1776H85.9927V92.3625H82.8078V89.1776ZM85.9927 89.1776H89.1776V92.3625H85.9927V89.1776ZM89.1776 89.1776H92.3625V92.3625H89.1776V89.1776ZM0 92.3625H3.18491V95.5474H0V92.3625ZM6.36983 92.3625H9.55474V95.5474H6.36983V92.3625ZM9.55474 92.3625H12.7397V95.5474H9.55474V92.3625ZM12.7397 92.3625H15.9246V95.5474H12.7397V92.3625ZM19.1095 92.3625H22.2944V95.5474H19.1095V92.3625ZM25.4793 92.3625H28.6642V95.5474H25.4793V92.3625ZM38.219 92.3625H41.4039V95.5474H38.219V92.3625ZM41.4039 92.3625H44.5888V95.5474H41.4039V92.3625ZM44.5888 92.3625H47.7737V95.5474H44.5888V92.3625ZM50.9586 92.3625H54.1436V95.5474H50.9586V92.3625ZM60.5134 92.3625H63.6983V95.5474H60.5134V92.3625ZM63.6983 92.3625H66.8832V95.5474H63.6983V92.3625ZM73.253 92.3625H76.438V95.5474H73.253V92.3625ZM89.1776 92.3625H92.3625V95.5474H89.1776V92.3625ZM92.3625 92.3625H95.5474V95.5474H92.3625V92.3625ZM0 95.5474H3.18491V98.7324H0V95.5474ZM6.36983 95.5474H9.55474V98.7324H6.36983V95.5474ZM9.55474 95.5474H12.7397V98.7324H9.55474V95.5474ZM12.7397 95.5474H15.9246V98.7324H12.7397V95.5474ZM19.1095 95.5474H22.2944V98.7324H19.1095V95.5474ZM25.4793 95.5474H28.6642V98.7324H25.4793V95.5474ZM31.8491 95.5474H35.0341V98.7324H31.8491V95.5474ZM41.4039 95.5474H44.5888V98.7324H41.4039V95.5474ZM44.5888 95.5474H47.7737V98.7324H44.5888V95.5474ZM47.7737 95.5474H50.9586V98.7324H47.7737V95.5474ZM50.9586 95.5474H54.1436V98.7324H50.9586V95.5474ZM57.3285 95.5474H60.5134V98.7324H57.3285V95.5474ZM70.0681 95.5474H73.253V98.7324H70.0681V95.5474ZM76.438 95.5474H79.6229V98.7324H76.438V95.5474ZM82.8078 95.5474H85.9927V98.7324H82.8078V95.5474ZM95.5474 95.5474H98.7324V98.7324H95.5474V95.5474ZM98.7324 95.5474H101.917V98.7324H98.7324V95.5474ZM0 98.7324H3.18491V101.917H0V98.7324ZM19.1095 98.7324H22.2944V101.917H19.1095V98.7324ZM25.4793 98.7324H28.6642V101.917H25.4793V98.7324ZM38.219 98.7324H41.4039V101.917H38.219V98.7324ZM41.4039 98.7324H44.5888V101.917H41.4039V98.7324ZM47.7737 98.7324H50.9586V101.917H47.7737V98.7324ZM63.6983 98.7324H66.8832V101.917H63.6983V98.7324ZM66.8832 98.7324H70.0681V101.917H66.8832V98.7324ZM70.0681 98.7324H73.253V101.917H70.0681V98.7324ZM79.6229 98.7324H82.8078V101.917H79.6229V98.7324ZM82.8078 98.7324H85.9927V101.917H82.8078V98.7324ZM92.3625 98.7324H95.5474V101.917H92.3625V98.7324ZM95.5474 98.7324H98.7324V101.917H95.5474V98.7324ZM0 101.917H3.18491V105.102H0V101.917ZM3.18491 101.917H6.36983V105.102H3.18491V101.917ZM6.36983 101.917H9.55474V105.102H6.36983V101.917ZM9.55474 101.917H12.7397V105.102H9.55474V101.917ZM12.7397 101.917H15.9246V105.102H12.7397V101.917ZM15.9246 101.917H19.1095V105.102H15.9246V101.917ZM19.1095 101.917H22.2944V105.102H19.1095V101.917ZM25.4793 101.917H28.6642V105.102H25.4793V101.917ZM38.219 101.917H41.4039V105.102H38.219V101.917ZM44.5888 101.917H47.7737V105.102H44.5888V101.917ZM54.1436 101.917H57.3285V105.102H54.1436V101.917ZM70.0681 101.917H73.253V105.102H70.0681V101.917ZM73.253 101.917H76.438V105.102H73.253V101.917ZM76.438 101.917H79.6229V105.102H76.438V101.917ZM82.8078 101.917H85.9927V105.102H82.8078V101.917ZM85.9927 101.917H89.1776V105.102H85.9927V101.917ZM98.7324 101.917H101.917V105.102H98.7324V101.917Z" fill="black"/>
<rect x="36" y="36" width="34" height="34" rx="4" fill="white"/>
<path d="M56.7426 52.5973L60.0584 48.5037L54.9443 42.4766H44.0952V63.5242H56.3646L61.0952 57.1809L56.7426 52.5973ZM53.1082 45.7852L55.2305 48.5511L53.7401 49.7576L50.7807 45.7852H53.1082ZM47.3138 47.7714H48.1724L50.7753 51.512H47.3138V47.7714ZM47.3138 60.4421C47.1626 60.4421 47.3138 55.927 47.3138 55.927H48.1508L51.2344 60.4421C51.2344 60.4421 47.465 60.4421 47.3138 60.4421ZM54.8039 59.2567L51.4126 54.5677H54.1451L56.4456 57.6762L54.8039 59.2567Z" fill="url(#paint0_linear_1723_30334)"/>
<defs>
<linearGradient id="paint0_linear_1723_30334" x1="52.5935" y1="42.4789" x2="52.5935" y2="63.5271" gradientUnits="userSpaceOnUse">
<stop offset="5.20186e-07" stop-color="#FFA700"/>
<stop offset="1" stop-color="#FF7F00"/>
</linearGradient>
</defs>
</svg>
