<svg width="59" height="56" viewBox="0 0 59 56" fill="none" xmlns="http://www.w3.org/2000/svg">
<ellipse cx="29.2353" cy="28" rx="29.2353" ry="28" fill="#272727"/>
<path d="M33.8933 17.8338L36.3026 14.9508L32.5866 10.7059H24.7031V25.5295H33.6186L37.0561 21.062L33.8933 17.8338ZM31.2524 13.0361L32.7945 14.9842L31.7115 15.8339L29.5611 13.0361H31.2524ZM27.0419 14.435H27.6658L29.5572 17.0695H27.0419V14.435ZM27.0419 23.3588C26.932 23.3588 27.0419 20.1789 27.0419 20.1789H27.6501L29.8907 23.3588C29.8907 23.3588 27.1517 23.3588 27.0419 23.3588ZM32.4845 22.5239L30.0202 19.2216H32.0058L33.6775 21.4108L32.4845 22.5239Z" fill="url(#paint0_linear_443_7393)"/>
<path d="M9.88281 37.3974V30.5916H12.6613C14.0362 30.5916 14.8765 31.2899 14.8765 32.4257C14.8765 33.1798 14.5328 33.7198 13.8739 33.9898C14.6091 34.2226 14.9815 34.7626 14.9815 35.5539C14.9815 36.7177 14.1508 37.3974 12.7091 37.3974H9.88281ZM12.5563 31.6437H11.105V33.4964H12.5849C13.2533 33.4964 13.6257 33.1519 13.6257 32.5468C13.6257 31.9602 13.2438 31.6437 12.5563 31.6437ZM12.6613 34.5019H11.105V36.3453H12.6613C13.3488 36.3453 13.7307 36.0195 13.7307 35.405C13.7307 34.8278 13.3392 34.5019 12.6613 34.5019Z" fill="white"/>
<path d="M16.5127 31.8764C16.1117 31.8764 15.7966 31.5692 15.7966 31.1875C15.7966 30.8057 16.1117 30.5078 16.5127 30.5078C16.8946 30.5078 17.2097 30.8057 17.2097 31.1875C17.2097 31.5692 16.8946 31.8764 16.5127 31.8764ZM15.9303 37.3974V32.7981H17.0952V37.3974H15.9303Z" fill="white"/>
<path d="M19.4635 37.3974H18.2987V32.7981H19.3776L19.4731 33.394C19.7691 32.9285 20.342 32.6585 20.9817 32.6585C22.1657 32.6585 22.7767 33.3754 22.7767 34.5671V37.3974H21.6119V34.8371C21.6119 34.0643 21.2204 33.6919 20.6189 33.6919C19.9028 33.6919 19.4635 34.176 19.4635 34.9209V37.3974Z" fill="white"/>
<path d="M25.3248 37.5184C24.3223 37.5184 23.7112 36.9505 23.7112 36.0846C23.7112 35.2374 24.3414 34.7067 25.4585 34.6229L26.8716 34.5205V34.4181C26.8716 33.7943 26.4897 33.5429 25.8977 33.5429C25.2102 33.5429 24.8283 33.8223 24.8283 34.3064H23.8353C23.8353 33.3102 24.6756 32.6585 25.955 32.6585C27.2249 32.6585 28.0079 33.3288 28.0079 34.6043V37.3974H26.9862L26.9003 36.7177C26.6998 37.1925 26.06 37.5184 25.3248 37.5184ZM25.7068 36.6619C26.4229 36.6619 26.8812 36.2429 26.8812 35.5353V35.2933L25.8977 35.3677C25.1721 35.4329 24.8952 35.6657 24.8952 36.0381C24.8952 36.457 25.1816 36.6619 25.7068 36.6619Z" fill="white"/>
<path d="M28.7894 36.0008H29.897C29.9065 36.4012 30.2121 36.6526 30.7467 36.6526C31.291 36.6526 31.587 36.4384 31.587 36.1033C31.587 35.8705 31.4629 35.7029 31.0427 35.6098L30.193 35.4143C29.3432 35.2281 28.9326 34.8371 28.9326 34.1016C28.9326 33.1985 29.7155 32.6585 30.804 32.6585C31.8639 32.6585 32.58 33.2543 32.5895 34.1481H31.482C31.4724 33.7571 31.2051 33.5057 30.7563 33.5057C30.298 33.5057 30.0306 33.7105 30.0306 34.055C30.0306 34.3157 30.2407 34.4833 30.6417 34.5764L31.4915 34.7719C32.284 34.9488 32.685 35.3026 32.685 36.0101C32.685 36.9412 31.8734 37.5184 30.7086 37.5184C29.5341 37.5184 28.7894 36.9039 28.7894 36.0008Z" fill="white"/>
<path d="M35.5102 37.5184C34.1448 37.5184 33.2951 36.5408 33.2951 35.1164C33.2951 33.6826 34.1544 32.6585 35.5771 32.6585C36.2359 32.6585 36.8183 32.9285 37.1143 33.3847V30.4706H38.2696V37.3974H37.2002L37.1239 36.6805C36.8374 37.2112 36.2263 37.5184 35.5102 37.5184ZM35.768 36.4757C36.5796 36.4757 37.1048 35.9077 37.1048 35.0791C37.1048 34.2505 36.5796 33.6733 35.768 33.6733C34.9564 33.6733 34.4599 34.2598 34.4599 35.0791C34.4599 35.8984 34.9564 36.4757 35.768 36.4757Z" fill="white"/>
<path d="M40.8872 37.5184C39.8846 37.5184 39.2735 36.9505 39.2735 36.0846C39.2735 35.2374 39.9037 34.7067 41.0208 34.6229L42.434 34.5205V34.4181C42.434 33.7943 42.052 33.5429 41.46 33.5429C40.7726 33.5429 40.3907 33.8223 40.3907 34.3064H39.3976C39.3976 33.3102 40.2379 32.6585 41.5173 32.6585C42.7872 32.6585 43.5702 33.3288 43.5702 34.6043V37.3974H42.5485L42.4626 36.7177C42.2621 37.1925 41.6224 37.5184 40.8872 37.5184ZM41.2691 36.6619C41.9852 36.6619 42.4435 36.2429 42.4435 35.5353V35.2933L41.46 35.3677C40.7344 35.4329 40.4575 35.6657 40.4575 36.0381C40.4575 36.457 40.7439 36.6619 41.2691 36.6619Z" fill="white"/>
<path d="M44.4376 35.0419C44.4376 33.5988 45.3161 32.6585 46.6433 32.6585C47.3594 32.6585 47.98 32.9657 48.2664 33.4964L48.3428 32.7981H49.4122V39.5294H48.2569V36.7829C47.9609 37.2484 47.3403 37.5184 46.6433 37.5184C45.2397 37.5184 44.4376 36.4757 44.4376 35.0419ZM45.6025 35.0977C45.6025 35.917 46.099 36.4943 46.9106 36.4943C47.7222 36.4943 48.2474 35.9264 48.2474 35.0977C48.2474 34.2691 47.7222 33.6919 46.9106 33.6919C46.099 33.6919 45.6025 34.2785 45.6025 35.0977Z" fill="white"/>
<path d="M19.3123 45.9882H18.1172V38.7059H19.3218L22.5751 43.8663V38.7059H23.7702V45.9882H22.5751L19.3123 40.8278V45.9882Z" fill="white"/>
<path d="M27.2304 46.1177C25.8361 46.1177 24.8592 45.0518 24.8592 43.5276C24.8592 41.9834 25.8172 40.9175 27.1925 40.9175C28.5963 40.9175 29.4878 41.9038 29.4878 43.4379V43.8065L25.9594 43.8165C26.0448 44.6832 26.4811 45.1215 27.2494 45.1215C27.8849 45.1215 28.3022 44.8625 28.435 44.3943H29.5068C29.3076 45.4702 28.454 46.1177 27.2304 46.1177ZM27.202 41.9137C26.5191 41.9137 26.1017 42.3022 25.9879 43.0394H28.3402C28.3402 42.362 27.8944 41.9137 27.202 41.9137Z" fill="white"/>
<path d="M31.244 45.9882L29.7264 41.0669H30.931L31.5475 43.1789C31.6519 43.5674 31.7467 43.9958 31.8321 44.454C31.9175 43.9759 32.0028 43.667 32.1546 43.1789L32.7996 41.0669H33.9757L34.6017 43.1789C34.6586 43.3781 34.8483 44.1153 34.9052 44.4441C34.9811 44.0755 35.1329 43.4877 35.2182 43.1789L35.8442 41.0669H37.0678L35.4459 45.9882H34.3646L33.7196 43.8563C33.5299 43.2088 33.4256 42.7406 33.3876 42.4915C33.3402 42.7206 33.2548 43.0693 33.0177 43.8762L32.3727 45.9882H31.244Z" fill="white"/>
<path d="M37.3062 44.4939H38.4064C38.4159 44.9223 38.7194 45.1912 39.2506 45.1912C39.7912 45.1912 40.0852 44.9621 40.0852 44.6035C40.0852 44.3544 39.9619 44.1751 39.5446 44.0755L38.7004 43.8663C37.8563 43.667 37.4484 43.2486 37.4484 42.4616C37.4484 41.4953 38.2262 40.9175 39.3075 40.9175C40.3603 40.9175 41.0717 41.5551 41.0812 42.5114H39.9809C39.9714 42.093 39.7058 41.8241 39.2601 41.8241C38.8048 41.8241 38.5392 42.0432 38.5392 42.4118C38.5392 42.6908 38.7479 42.8701 39.1462 42.9697L39.9904 43.1789C40.7776 43.3682 41.176 43.7467 41.176 44.5038C41.176 45.5001 40.3698 46.1177 39.2126 46.1177C38.046 46.1177 37.3062 45.4602 37.3062 44.4939Z" fill="white"/>
<defs>
<linearGradient id="paint0_linear_443_7393" x1="30.8784" y1="10.7076" x2="30.8784" y2="25.5315" gradientUnits="userSpaceOnUse">
<stop offset="5.20186e-07" stop-color="#FFA700"/>
<stop offset="1" stop-color="#FF7F00"/>
</linearGradient>
</defs>
</svg>
