<svg width="20" height="20" viewBox="0 0 20 20" fill="none" xmlns="http://www.w3.org/2000/svg">
<path d="M19.7007 12.4191C18.3649 17.7763 12.9384 21.0365 7.58001 19.7006C2.22382 18.365 -1.03684 12.9388 0.299551 7.58198C1.63469 2.22423 7.06121 -1.03637 12.418 0.299246C17.7761 1.63486 21.0364 7.06168 19.7007 12.4191Z" fill="#F7931A"/>
<path fill-rule="evenodd" clip-rule="evenodd" d="M14.5559 8.69423C14.764 7.29322 13.705 6.54006 12.2569 6.03763L12.7267 4.13978L11.5798 3.85188L11.1225 5.69972C10.821 5.62404 10.5113 5.55264 10.2036 5.4819L10.6642 3.62189L9.51801 3.33398L9.04796 5.23118C8.7984 5.17393 8.55342 5.11733 8.31562 5.05778L8.31692 5.05186L6.73529 4.65406L6.4302 5.88792C6.4302 5.88792 7.28112 6.08436 7.26316 6.09653C7.72765 6.21334 7.8116 6.52296 7.79755 6.76841L7.2625 8.93048C7.29451 8.9387 7.336 8.95055 7.38173 8.96897L7.34287 8.9592L7.3428 8.95918C7.31622 8.95247 7.28867 8.94551 7.26054 8.9387L6.51056 11.9674C6.45372 12.1096 6.30967 12.3228 5.98498 12.2418C5.99642 12.2586 5.15138 12.0323 5.15138 12.0323L4.58203 13.3546L6.07449 13.7294C6.24116 13.7715 6.40584 13.8147 6.5688 13.8575C6.67729 13.886 6.78503 13.9143 6.89208 13.942L6.41747 15.8615L7.56302 16.1494L8.03307 14.2503C8.34599 14.3358 8.64978 14.4148 8.94703 14.4891L8.47861 16.3794L9.62547 16.6673L10.1001 14.7514C12.0557 15.1242 13.5263 14.9738 14.1453 13.1921C14.6441 11.7575 14.1205 10.93 13.0915 10.3904C13.8409 10.2163 14.4053 9.71982 14.5559 8.69423ZM11.9355 12.3955C11.6104 13.7117 9.56514 13.1675 8.62935 12.9186L8.62925 12.9185C8.5451 12.8961 8.46992 12.8761 8.40577 12.8601L9.03555 10.317C9.11369 10.3367 9.20916 10.3582 9.31732 10.3827C10.2852 10.6014 12.2687 11.0498 11.9355 12.3955ZM9.51178 9.20252C10.292 9.41225 11.9938 9.86973 12.2903 8.6735C12.593 7.44994 10.9389 7.0811 10.1311 6.90097C10.0403 6.8807 9.96009 6.86283 9.89463 6.84639L9.32365 9.1529C9.37758 9.16644 9.44088 9.18346 9.51178 9.20252Z" fill="white"/>
</svg>
