<svg width="76" height="76" viewBox="0 0 76 76" fill="none" xmlns="http://www.w3.org/2000/svg">
<circle cx="38" cy="38" r="38" fill="#FAFAFA"/>
<path d="M49.9584 40.8542C49.5313 40.8542 49.1771 41.2084 49.1771 41.6355C49.1771 44.7188 47.0313 47.3022 44.1459 47.9792L44.4271 47.5105C44.6459 47.1355 44.5313 46.6563 44.1563 46.4376C43.7917 46.2188 43.3021 46.3334 43.0834 46.7084L41.9896 48.5313C41.8438 48.7709 41.8438 49.073 41.9792 49.3126C42.1146 49.5626 42.375 49.7084 42.6563 49.7084C47.1042 49.7084 50.7292 46.0834 50.7292 41.6355C50.7396 41.2084 50.3855 40.8542 49.9584 40.8542Z" fill="#71839B"/>
<path d="M34.3334 25.2292C29.8855 25.2292 26.2605 28.8542 26.2605 33.3022C26.2605 33.7292 26.6147 34.0834 27.0417 34.0834C27.4688 34.0834 27.823 33.7292 27.823 33.3022C27.823 30.2188 29.9688 27.6355 32.8542 26.9584L32.573 27.4272C32.3542 27.8022 32.4688 28.2813 32.8438 28.5001C33.2084 28.7188 33.698 28.6042 33.9167 28.2292L35.0105 26.4063C35.1459 26.1667 35.1563 25.8751 35.0105 25.6251C34.8751 25.3855 34.6147 25.2292 34.3334 25.2292Z" fill="#71839B"/>
<path d="M48.3958 34.0313C48.3958 37.2397 46.0625 39.8855 43.0104 40.3751C43.0104 40.3647 43.0104 40.3647 43.0104 40.3542C42.7083 36.4688 39.5625 33.3022 35.625 32.9897C36.1146 29.9376 38.7604 27.6042 41.9688 27.6042C45.5208 27.6042 48.3958 30.4792 48.3958 34.0313Z" fill="#71839B"/>
<path d="M36.2187 39.7916C36.2187 39.6353 36.0416 39.3958 35.8228 39.3958H33.677V40.177H35.8228C36.0416 40.1874 36.2187 40.0103 36.2187 39.7916Z" fill="#71839B"/>
<path d="M36.2395 41.75H35.8228H33.677V42.5312H36.2499C36.5833 42.5312 36.8124 42.3229 36.8124 42.1354C36.8124 41.9479 36.5728 41.75 36.2395 41.75Z" fill="#71839B"/>
<path d="M41.448 40.4688C41.2084 37.3125 38.6876 34.7917 35.5313 34.5521C35.3647 34.5417 35.2084 34.5312 35.0313 34.5312C31.4792 34.5312 28.6042 37.4063 28.6042 40.9688C28.6042 44.5208 31.4792 47.3958 35.0313 47.3958C38.5834 47.3958 41.4688 44.5208 41.4688 40.9688C41.4688 40.7917 41.4584 40.6354 41.448 40.4688ZM36.2397 44.0938H35.5522V44.4896C35.5522 44.9167 35.198 45.2708 34.7709 45.2708C34.3438 45.2708 33.9897 44.9167 33.9897 44.4896V44.0938H32.8959C32.4688 44.0938 32.1147 43.7396 32.1147 43.3125V40.9688V38.625C32.1147 38.1979 32.4688 37.8438 32.8959 37.8438H33.9897V37.4479C33.9897 37.0208 34.3438 36.6667 34.7709 36.6667C35.198 36.6667 35.5522 37.0208 35.5522 37.4479V37.8438H35.823C36.8647 37.8438 37.7813 38.7604 37.7813 39.8021C37.7813 40.1042 37.7084 40.3854 37.5834 40.6458C38.0626 41 38.3647 41.5417 38.3647 42.1458C38.3647 43.2187 37.4167 44.0938 36.2397 44.0938Z" fill="#71839B"/>
</svg>
