<svg width="20" height="20" viewBox="0 0 20 20" fill="none" xmlns="http://www.w3.org/2000/svg">
<path d="M13.491 1.6665H6.50768C3.47435 1.6665 1.66602 3.47484 1.66602 6.50817V13.4915C1.66602 15.8332 2.74102 17.4415 4.63268 18.0498C5.18268 18.2415 5.81602 18.3332 6.50768 18.3332H13.491C14.1827 18.3332 14.816 18.2415 15.366 18.0498C17.2577 17.4415 18.3327 15.8332 18.3327 13.4915V6.50817C18.3327 3.47484 16.5243 1.6665 13.491 1.6665ZM17.0827 13.4915C17.0827 15.2748 16.3827 16.3998 14.9743 16.8665C14.166 15.2748 12.2493 14.1415 9.99935 14.1415C7.74935 14.1415 5.84102 15.2665 5.02435 16.8665H5.01602C3.62435 16.4165 2.91602 15.2832 2.91602 13.4998V6.50817C2.91602 4.15817 4.15768 2.9165 6.50768 2.9165H13.491C15.841 2.9165 17.0827 4.15817 17.0827 6.50817V13.4915Z" fill="#FFA500"/>
<path d="M9.99896 6.6665C8.34896 6.6665 7.01562 7.99984 7.01562 9.64984C7.01562 11.2998 8.34896 12.6415 9.99896 12.6415C11.649 12.6415 12.9823 11.2998 12.9823 9.64984C12.9823 7.99984 11.649 6.6665 9.99896 6.6665Z" fill="#FFA500"/>
</svg>
