<svg width="20" height="20" viewBox="0 0 20 20" fill="none" xmlns="http://www.w3.org/2000/svg">
<path d="M12.5005 18.9583H7.50053C6.40053 18.9583 5.48386 18.85 4.70886 18.6166C4.42553 18.5333 4.24219 18.2583 4.25886 17.9666C4.46719 15.475 6.99219 13.5166 10.0005 13.5166C13.0089 13.5166 15.5255 15.4666 15.7422 17.9666C15.7672 18.2666 15.5839 18.5333 15.2922 18.6166C14.5172 18.85 13.6005 18.9583 12.5005 18.9583ZM5.60053 17.55C6.15053 17.6583 6.77553 17.7083 7.50053 17.7083H12.5005C13.2255 17.7083 13.8505 17.6583 14.4005 17.55C13.9589 15.95 12.1339 14.7666 10.0005 14.7666C7.86719 14.7666 6.0422 15.95 5.60053 17.55Z" fill="#DEDEDE"/>
<path d="M12.4993 1.6665H7.49935C3.33268 1.6665 1.66602 3.33317 1.66602 7.49984V12.4998C1.66602 15.6498 2.61602 17.3748 4.88268 18.0165C5.06602 15.8498 7.29102 14.1415 9.99935 14.1415C12.7077 14.1415 14.9327 15.8498 15.116 18.0165C17.3827 17.3748 18.3327 15.6498 18.3327 12.4998V7.49984C18.3327 3.33317 16.666 1.6665 12.4993 1.6665ZM9.99935 11.8082C8.34935 11.8082 7.01601 10.4665 7.01601 8.81652C7.01601 7.16652 8.34935 5.83317 9.99935 5.83317C11.6493 5.83317 12.9827 7.16652 12.9827 8.81652C12.9827 10.4665 11.6493 11.8082 9.99935 11.8082Z" stroke="#DEDEDE" stroke-width="1.5" stroke-linecap="round" stroke-linejoin="round"/>
<path d="M9.99896 12.4335C8.00729 12.4335 6.39062 10.8085 6.39062 8.81684C6.39062 6.82518 8.00729 5.2085 9.99896 5.2085C11.9906 5.2085 13.6073 6.82518 13.6073 8.81684C13.6073 10.8085 11.9906 12.4335 9.99896 12.4335ZM9.99896 6.4585C8.69896 6.4585 7.64062 7.51684 7.64062 8.81684C7.64062 10.1252 8.69896 11.1835 9.99896 11.1835C11.299 11.1835 12.3573 10.1252 12.3573 8.81684C12.3573 7.51684 11.299 6.4585 9.99896 6.4585Z" fill="#DEDEDE"/>
</svg>
