<svg width="97" height="28" viewBox="0 0 97 28" fill="none" xmlns="http://www.w3.org/2000/svg">
<path d="M20.1729 19V9.38H24.1769C26.1139 9.38 27.2839 10.394 27.2839 12.045C27.2839 13.072 26.8159 13.826 25.9449 14.203C26.8939 14.515 27.4009 15.256 27.4009 16.348C27.4009 18.051 26.2569 19 24.1769 19H20.1729ZM23.9559 11.226H22.2789V13.319H23.9559C24.7099 13.319 25.1259 12.942 25.1259 12.253C25.1259 11.577 24.7229 11.226 23.9559 11.226ZM24.0599 15.087H22.2789V17.154H24.0599C24.8399 17.154 25.2429 16.803 25.2429 16.088C25.2429 15.438 24.8269 15.087 24.0599 15.087ZM30.9244 9.38V19H28.8184V9.38H30.9244ZM32.1907 11.33V9.38H39.7567V11.33H37.0267V19H34.9207V11.33H32.1907ZM43.0986 19H41.0186V9.38H43.0986L47.1546 15.503V9.38H49.2346V19H47.1546L43.0986 12.89V19ZM52.5513 19H50.3543L53.7863 9.38H55.8403L59.2593 19H57.0233L56.3473 16.972H53.2403L52.5513 19ZM54.5403 13.15L53.8513 15.204H55.7493L55.0603 13.15C54.9563 12.825 54.8393 12.448 54.8003 12.214C54.7613 12.435 54.6573 12.799 54.5403 13.15ZM59.8459 12.175C59.8459 10.433 61.3149 9.198 63.3819 9.198C65.4489 9.198 66.7489 10.342 66.7489 12.162H64.6559C64.6559 11.486 64.1489 11.07 63.3559 11.07C62.4979 11.07 61.9519 11.46 61.9519 12.097C61.9519 12.682 62.2509 12.968 62.9269 13.111L64.3699 13.41C66.0859 13.761 66.9049 14.58 66.9049 16.101C66.9049 17.96 65.4489 19.169 63.2389 19.169C61.0939 19.169 59.7029 18.012 59.7029 16.205H61.7959C61.7959 16.907 62.3159 17.297 63.2519 17.297C64.2009 17.297 64.7989 16.92 64.7989 16.309C64.7989 15.776 64.5519 15.503 63.9149 15.373L62.4459 15.074C60.7299 14.723 59.8459 13.748 59.8459 12.175ZM72.0708 19H68.3008V9.38H71.9408C74.7618 9.38 76.7248 11.356 76.7248 14.216C76.7248 17.024 74.8138 19 72.0708 19ZM71.7328 11.33H70.4068V17.05H71.8628C73.5268 17.05 74.5018 15.997 74.5018 14.216C74.5018 12.396 73.4748 11.33 71.7328 11.33ZM78.9829 19H76.7859L80.2179 9.38H82.2719L85.6909 19H83.4549L82.7789 16.972H79.6719L78.9829 19ZM80.9719 13.15L80.2829 15.204H82.1809L81.4919 13.15C81.3879 12.825 81.2709 12.448 81.2319 12.214C81.1929 12.435 81.0889 12.799 80.9719 13.15ZM93.8301 19.832L92.7511 18.61C92.0881 18.961 91.3081 19.156 90.4501 19.156C87.6681 19.156 85.7571 17.128 85.7571 14.19C85.7571 11.252 87.6811 9.211 90.4631 9.211C93.2581 9.211 95.1821 11.239 95.1821 14.177C95.1821 15.49 94.7921 16.634 94.1161 17.479L95.1561 18.662L93.8301 19.832ZM92.9591 14.177C92.9591 12.344 92.0231 11.239 90.4761 11.239C88.9161 11.239 87.9801 12.344 87.9801 14.177C87.9801 16.023 88.9161 17.128 90.4761 17.128C90.7881 17.128 91.0611 17.089 91.3211 16.998L90.0601 15.568L91.3861 14.398L92.6341 15.802C92.8421 15.36 92.9591 14.814 92.9591 14.177Z" fill="#081131"/>
<path d="M10.4809 13.737L13.2287 10.2031L8.99069 5H0V23.1699H10.1677L14.0879 17.6939L10.4809 13.737ZM7.46912 7.85625L9.22788 10.244L7.99272 11.2856L5.54031 7.85625H7.46912ZM2.66722 9.57091H3.37878L5.53583 12.8001H2.66722V9.57091ZM2.66722 20.5093C2.54192 20.5093 2.66722 16.6115 2.66722 16.6115H3.36088L5.91622 20.5093C5.91622 20.5093 2.79253 20.5093 2.66722 20.5093ZM8.87433 19.4859L6.0639 15.4381H8.32836L10.2348 18.1215L8.87433 19.4859Z" fill="url(#paint0_linear_1972_32605)"/>
<defs>
<linearGradient id="paint0_linear_1972_32605" x1="7.04259" y1="5.00205" x2="7.04259" y2="23.1724" gradientUnits="userSpaceOnUse">
<stop offset="5.20186e-07" stop-color="#FFA700"/>
<stop offset="1" stop-color="#FF7F00"/>
</linearGradient>
</defs>
</svg>
