<svg width="6" height="11" viewBox="0 0 6 11" fill="none" xmlns="http://www.w3.org/2000/svg">
<path d="M0.56875 10.9189C0.45 10.9189 0.33125 10.8752 0.2375 10.7814C0.05625 10.6002 0.05625 10.3002 0.2375 10.1189L4.3125 6.04395C4.6125 5.74395 4.6125 5.25645 4.3125 4.95645L0.2375 0.881445C0.05625 0.700195 0.05625 0.400195 0.2375 0.218945C0.41875 0.0376953 0.71875 0.0376953 0.9 0.218945L4.975 4.29395C5.29375 4.6127 5.475 5.04395 5.475 5.5002C5.475 5.95645 5.3 6.3877 4.975 6.70645L0.9 10.7814C0.80625 10.8689 0.6875 10.9189 0.56875 10.9189Z" fill="#292D32"/>
</svg>
