<svg width="131" height="34" viewBox="0 0 131 34" fill="none" xmlns="http://www.w3.org/2000/svg">
<path d="M34.7998 10.0989H39.3604C40.348 10.0989 41.1686 10.1797 41.8149 10.3494C42.4613 10.511 42.9841 10.7696 43.3618 11.109C43.7466 11.4484 44.0153 11.8766 44.1678 12.3776C44.3276 12.8867 44.4002 13.4766 44.4002 14.1554C44.4002 14.9392 44.255 15.5857 43.9718 16.1109C43.6886 16.6281 43.1729 17.0079 42.4322 17.2341V17.323C44.0153 17.7675 44.8069 18.9311 44.8069 20.8139C44.8069 21.4927 44.727 22.1068 44.5745 22.6482C44.4148 23.1896 44.1461 23.6502 43.7684 24.0138C43.3835 24.3775 42.8679 24.6684 42.2216 24.8623C41.5753 25.0563 40.7547 25.1532 39.767 25.1532H34.7998V10.0989ZM38.7576 16.3049C39.2369 16.3049 39.6509 16.2806 39.9922 16.2321C40.3407 16.1756 40.6167 16.0867 40.8418 15.9574C41.067 15.8281 41.2267 15.6503 41.3284 15.416C41.4301 15.1816 41.4882 14.8827 41.4882 14.5029C41.4882 14.115 41.4373 13.7998 41.3284 13.5736C41.2267 13.3392 41.067 13.1615 40.8491 13.0322C40.6385 12.9029 40.3553 12.8221 39.9994 12.7817C39.6509 12.7413 39.2297 12.7251 38.7504 12.7251H37.7555V16.3049H38.7576ZM39.128 22.5028C39.6436 22.5028 40.0793 22.4704 40.4206 22.4139C40.7692 22.3573 41.0452 22.2603 41.2485 22.123C41.4591 21.9856 41.6043 21.7917 41.6842 21.5492C41.7714 21.3068 41.8077 20.9836 41.8077 20.5957C41.8077 20.2482 41.7641 19.9573 41.6842 19.7068C41.5971 19.4644 41.4591 19.2624 41.2558 19.1089C41.0524 18.9553 40.7765 18.8503 40.4279 18.7856C40.0793 18.721 39.6436 18.6887 39.1207 18.6887H37.7555V22.5108H39.128V22.5028Z" fill="white"/>
<path d="M50.0211 13.4443H47.1962V25.1533H50.0211V13.4443Z" fill="white"/>
<path d="M55.9614 15.9089V21.1371C55.9614 21.4846 55.9759 21.7674 56.0122 21.9775C56.0413 22.1957 56.1066 22.3654 56.1938 22.4866C56.2809 22.6159 56.4044 22.6967 56.5641 22.7452C56.7239 22.7937 56.92 22.8179 57.1669 22.8179C57.5009 22.8179 57.7842 22.7856 58.002 22.729V25.1613C57.7914 25.1856 57.5736 25.2179 57.3412 25.2341C57.1088 25.2583 56.8764 25.2664 56.6367 25.2664C55.9904 25.2664 55.4385 25.2098 54.9883 25.0967C54.538 24.9836 54.1822 24.7815 53.9062 24.4906C53.6303 24.1997 53.4342 23.8038 53.3107 23.3028C53.1873 22.8018 53.1292 22.1634 53.1292 21.3957V15.9089H51.7494V13.4443H53.1364V10.6646H55.9614V13.4443H58.14V15.917H55.9614V15.9089Z" fill="white"/>
<path d="M79.091 13.2422C79.977 13.2422 80.7177 13.323 81.3205 13.4927C81.9232 13.6543 82.4098 13.9048 82.7801 14.22C83.1505 14.5351 83.4192 14.9311 83.579 15.3997C83.746 15.8684 83.8259 16.4179 83.8259 17.032V25.1451H81.2914L81.0227 23.7794C80.7976 24.2158 80.4054 24.5875 79.8317 24.8946C79.258 25.2016 78.5391 25.3632 77.6676 25.3632C76.4839 25.3632 75.5907 25.0723 74.9807 24.4824C74.3707 23.9006 74.0657 22.9956 74.0657 21.7835C74.0657 20.4259 74.4288 19.4724 75.1695 18.9229C75.903 18.3734 76.9778 18.0987 78.3939 18.0987H81.0082V17.7997C81.0082 17.4522 80.9791 17.1532 80.921 16.9108C80.8629 16.6684 80.7468 16.4664 80.5797 16.3129C80.4127 16.1593 80.1876 16.0462 79.8971 15.9735C79.6066 15.9007 79.2363 15.8684 78.7642 15.8684C78.3866 15.8684 78.009 15.8846 77.6313 15.925C77.2537 15.9654 76.8833 16.0139 76.5202 16.0866V13.42C76.9269 13.3634 77.3554 13.323 77.8274 13.2907C78.2922 13.2583 78.7134 13.2422 79.091 13.2422ZM78.3866 22.9552C79.0402 22.9552 79.5848 22.8259 80.0423 22.5754C80.4998 22.3168 80.8121 21.9936 80.9937 21.5896V20.2239H78.8078C78.1034 20.2239 77.6023 20.3209 77.2973 20.5067C76.9923 20.6926 76.8398 21.0805 76.8398 21.6784C76.8398 22.1471 76.956 22.4703 77.2029 22.6643C77.4498 22.8582 77.8419 22.9552 78.3866 22.9552Z" fill="white"/>
<path d="M89.6138 25.2744C89.0038 25.2744 88.4156 25.2421 87.8419 25.1774C87.2682 25.1128 86.7526 25.0239 86.2805 24.9027V22.2764C86.7889 22.4542 87.319 22.5835 87.8854 22.6805C88.4519 22.7774 88.9747 22.8259 89.454 22.8259C90.064 22.8259 90.507 22.7451 90.783 22.5916C91.0589 22.43 91.2042 22.1229 91.2042 21.6623C91.2042 21.428 91.1751 21.234 91.1243 21.0805C91.0735 20.9189 90.9718 20.7896 90.8193 20.6684C90.6741 20.5552 90.4635 20.4502 90.2093 20.3532C89.9478 20.2563 89.6065 20.1512 89.1781 20.0381C88.6189 19.8926 88.1614 19.731 87.7983 19.5532C87.4352 19.3755 87.1447 19.1573 86.9414 18.9068C86.7308 18.6482 86.5928 18.3492 86.5129 17.9937C86.433 17.6381 86.3967 17.2179 86.3967 16.725C86.3967 16.1755 86.4693 15.6826 86.6218 15.2543C86.7671 14.8179 87.014 14.4543 87.3553 14.1553C87.6894 13.8563 88.1251 13.6301 88.6625 13.4685C89.1926 13.3069 89.8462 13.2341 90.6087 13.2341C91.1969 13.2341 91.7488 13.2745 92.2717 13.3473C92.7946 13.42 93.2085 13.5089 93.4917 13.6301L93.3755 16.0381C93.2303 15.9977 93.056 15.9492 92.8527 15.9008C92.6421 15.8523 92.4169 15.8038 92.1773 15.7553C91.9376 15.7149 91.6907 15.6745 91.4366 15.6422C91.1824 15.6179 90.9427 15.6018 90.7031 15.6018C90.0495 15.6018 89.6138 15.6826 89.3887 15.8361C89.1563 15.9977 89.0474 16.2806 89.0474 16.6846C89.0474 16.8704 89.0691 17.024 89.1127 17.1452C89.1563 17.2583 89.2507 17.3634 89.3959 17.4442C89.5412 17.5331 89.7373 17.622 89.9914 17.7028C90.2456 17.7916 90.5796 17.8886 90.9936 18.0098C91.5673 18.1714 92.0393 18.3411 92.4169 18.5432C92.7946 18.7371 93.0923 18.9714 93.3174 19.2381C93.5426 19.5048 93.6878 19.828 93.775 20.2159C93.8548 20.5957 93.8984 21.0562 93.8984 21.5896C93.8984 22.2845 93.804 22.8663 93.6079 23.335C93.4118 23.8037 93.1359 24.1835 92.7728 24.4744C92.4097 24.7653 91.9594 24.9754 91.4293 25.1047C90.8919 25.2178 90.2892 25.2744 89.6138 25.2744Z" fill="white"/>
<path d="M105.917 8.6687V25.1452H103.368L103.157 23.521C102.947 24.0544 102.598 24.4907 102.119 24.8382C101.632 25.1857 100.906 25.3634 99.9476 25.3634C99.0907 25.3634 98.3863 25.218 97.8417 24.9432C97.297 24.6604 96.8685 24.2564 96.5563 23.7311C96.244 23.1978 96.0334 22.5594 95.9172 21.8079C95.801 21.0564 95.7429 20.216 95.7429 19.2948C95.7429 18.4544 95.801 17.6706 95.9172 16.9353C96.0334 16.1999 96.244 15.5535 96.5563 15.004C96.8685 14.4545 97.297 14.0181 97.8417 13.703C98.3863 13.3878 99.0907 13.2262 99.9476 13.2262C100.906 13.2262 101.625 13.3797 102.097 13.6949C102.569 14.002 102.911 14.4222 103.121 14.9393V8.6687H105.917ZM100.834 22.9796C101.313 22.9796 101.712 22.8988 102.025 22.7453C102.337 22.5837 102.584 22.3493 102.765 22.0342C102.947 21.719 103.078 21.3231 103.143 20.8706C103.216 20.41 103.252 19.8928 103.252 19.2948C103.252 18.7292 103.216 18.2201 103.143 17.7676C103.07 17.307 102.947 16.9191 102.765 16.5959C102.584 16.2726 102.337 16.0141 102.025 15.8363C101.712 15.6504 101.32 15.5615 100.834 15.5615C100.34 15.5615 99.9476 15.6585 99.6572 15.8686C99.3667 16.0706 99.1416 16.3454 98.9963 16.6767C98.8511 17.0161 98.7494 17.412 98.7058 17.8565C98.6623 18.309 98.6405 18.7857 98.6405 19.2867C98.6405 19.8201 98.6623 20.313 98.7058 20.7736C98.7494 21.2261 98.8511 21.614 99.0108 21.9453C99.1633 22.2685 99.3885 22.519 99.6862 22.7049C99.9694 22.8907 100.354 22.9796 100.834 22.9796Z" fill="white"/>
<path d="M113.164 13.2422C114.05 13.2422 114.791 13.323 115.394 13.4927C115.997 13.6543 116.483 13.9048 116.854 14.22C117.224 14.5351 117.493 14.9311 117.652 15.3997C117.819 15.8684 117.899 16.4179 117.899 17.032V25.1451H115.365L115.096 23.7794C114.871 24.2158 114.479 24.5875 113.905 24.8946C113.332 25.2016 112.613 25.3632 111.741 25.3632C110.557 25.3632 109.664 25.0723 109.054 24.4824C108.444 23.9006 108.139 22.9956 108.139 21.7835C108.139 20.4259 108.502 19.4724 109.243 18.9229C109.976 18.3734 111.051 18.0987 112.467 18.0987H115.082V17.7997C115.082 17.4522 115.053 17.1532 114.995 16.9108C114.936 16.6684 114.82 16.4664 114.653 16.3129C114.486 16.1593 114.261 16.0462 113.971 15.9735C113.687 15.9007 113.31 15.8684 112.838 15.8684C112.46 15.8684 112.082 15.8846 111.705 15.925C111.327 15.9654 110.957 16.0139 110.594 16.0866V13.42C111 13.3634 111.429 13.323 111.901 13.2907C112.366 13.2583 112.787 13.2422 113.164 13.2422ZM112.467 22.9552C113.121 22.9552 113.666 22.8259 114.123 22.5754C114.581 22.3168 114.893 21.9936 115.074 21.5896V20.2239H112.889C112.184 20.2239 111.683 20.3209 111.378 20.5067C111.073 20.6926 110.921 21.0805 110.921 21.6784C110.921 22.1471 111.037 22.4703 111.284 22.6643C111.531 22.8582 111.923 22.9552 112.467 22.9552Z" fill="white"/>
<path d="M130.47 13.4443V29.4844H127.645V23.5209C127.434 24.0704 127.093 24.5148 126.621 24.8542C126.149 25.1936 125.43 25.3633 124.472 25.3633C123.615 25.3633 122.91 25.2178 122.366 24.9431C121.821 24.6603 121.392 24.2562 121.08 23.731C120.768 23.1977 120.557 22.5593 120.441 21.8078C120.325 21.0563 120.267 20.2159 120.267 19.2947C120.267 18.4543 120.325 17.6705 120.441 16.9351C120.557 16.1998 120.768 15.5533 121.08 15.0038C121.392 14.4543 121.821 14.018 122.366 13.7028C122.91 13.3877 123.615 13.2261 124.472 13.2261C125.43 13.2261 126.149 13.3796 126.621 13.6948C127.093 14.0099 127.434 14.422 127.645 14.9392V13.4443H130.47ZM125.365 22.9795C125.844 22.9795 126.244 22.8987 126.556 22.7451C126.868 22.5835 127.115 22.3492 127.297 22.034C127.478 21.7189 127.609 21.3229 127.674 20.8704C127.747 20.4098 127.783 19.8927 127.783 19.2947C127.783 18.729 127.747 18.2199 127.674 17.7674C127.602 17.3068 127.478 16.919 127.297 16.5957C127.115 16.2725 126.868 16.0139 126.556 15.8361C126.244 15.6503 125.851 15.5614 125.365 15.5614C124.871 15.5614 124.479 15.6584 124.188 15.8685C123.898 16.0705 123.673 16.3452 123.528 16.6765C123.382 17.0159 123.281 17.4119 123.237 17.8563C123.193 18.3088 123.172 18.7856 123.172 19.2866C123.172 19.8199 123.193 20.3128 123.237 20.7734C123.281 21.226 123.382 21.6138 123.542 21.9452C123.695 22.2684 123.92 22.5189 124.217 22.7047C124.501 22.8906 124.886 22.9795 125.365 22.9795Z" fill="white"/>
<path d="M62.8967 14.0665H65.5328L68.946 21.3553H69.0404L73.6808 8.29688H76.0119L70.5945 24.9997H68.1907L64.3418 17.121H64.2474L62.185 24.9997H59.8394L62.8967 14.0665Z" fill="white"/>
<path d="M75.9539 5L71.3788 8.59591L77.4571 11.004L75.9539 5Z" fill="white"/>
<path d="M48.6121 6.43848L45.642 11.6263H51.5823L48.6121 6.43848Z" fill="white"/>
<path d="M70.5945 25.0079L70.6308 24.8786L68.9751 21.3635H68.9388L66.0339 15.1494L65.5256 14.0747H62.8967L64.6251 17.711L68.1908 25.0079H70.5945Z" fill="white"/>
<path d="M20.1168 16.3489L25.3908 9.73617L17.2565 0H0V34H19.5155L27.04 23.7532L20.1168 16.3489ZM14.336 5.34468L17.7117 9.81277L15.341 11.7617L10.6339 5.34468H14.336ZM5.11939 8.55319H6.48513L10.6253 14.5957H5.11939V8.55319ZM5.11939 29.0213C4.87888 29.0213 5.11939 21.7277 5.11939 21.7277H6.45078L11.3554 29.0213C11.3554 29.0213 5.3599 29.0213 5.11939 29.0213ZM17.0331 27.1064L11.6389 19.5319H15.9852L19.6444 24.5532L17.0331 27.1064Z" fill="url(#paint0_linear_157_14038)"/>
<defs>
<linearGradient id="paint0_linear_157_14038" x1="13.5173" y1="0.00382979" x2="13.5173" y2="34.0047" gradientUnits="userSpaceOnUse">
<stop offset="5.20186e-07" stop-color="#FFA700"/>
<stop offset="1" stop-color="#FF7F00"/>
</linearGradient>
</defs>
</svg>
