<svg width="15" height="15" viewBox="0 0 15 15" fill="none" xmlns="http://www.w3.org/2000/svg">
<path d="M9.62628 6.17501L6.75753 3.30626C6.64043 3.18985 6.48202 3.12451 6.31691 3.12451C6.15179 3.12451 5.99338 3.18985 5.87628 3.30626C5.8177 3.36436 5.7712 3.43348 5.73947 3.50965C5.70774 3.58581 5.69141 3.6675 5.69141 3.75001C5.69141 3.83251 5.70774 3.91421 5.73947 3.99037C5.7712 4.06653 5.8177 4.13566 5.87628 4.19376L8.75128 7.05626C8.80986 7.11436 8.85636 7.18349 8.88809 7.25965C8.91982 7.33581 8.93616 7.4175 8.93616 7.50001C8.93616 7.58251 8.91982 7.66421 8.88809 7.74037C8.85636 7.81653 8.80986 7.88566 8.75128 7.94376L5.87628 10.8063C5.75859 10.9231 5.69214 11.0819 5.69156 11.2478C5.69097 11.4137 5.75629 11.5729 5.87316 11.6906C5.99002 11.8083 6.14884 11.8748 6.3147 11.8754C6.48055 11.8759 6.63984 11.8106 6.75753 11.6938L9.62628 8.82501C9.97741 8.47344 10.1746 7.99688 10.1746 7.50001C10.1746 7.00313 9.97741 6.52657 9.62628 6.17501Z" fill="#222138"/>
</svg>
