<svg width="35" height="36" viewBox="0 0 35 36" fill="none" xmlns="http://www.w3.org/2000/svg">
<path d="M25.6668 17.334C20.5122 17.334 16.3335 21.5127 16.3335 26.6673C16.3335 31.822 20.5122 36.0007 25.6668 36.0007C30.8215 36.0007 35.0002 31.822 35.0002 26.6673C35.0002 21.5127 30.8215 17.334 25.6668 17.334ZM25.6668 20.0007C27.0255 20.0007 28.2875 20.4093 29.3415 21.1073L20.1068 30.342C19.4088 29.288 19.0002 28.026 19.0002 26.6673C19.0002 22.9853 21.9848 20.0007 25.6668 20.0007ZM25.6668 33.334C24.3082 33.334 23.0462 32.9253 21.9922 32.2273L31.2268 22.9927C31.9248 24.0467 32.3335 25.3087 32.3335 26.6673C32.3335 30.3493 29.3488 33.334 25.6668 33.334Z" fill="#FF7575"/>
<path d="M14.3335 26.6673C14.3335 23.234 15.8662 20.164 18.2775 18.086C16.8388 17.6053 15.2902 17.334 13.6668 17.334C6.30283 17.334 0.333496 22.6367 0.333496 30.0007V34.0007H17.0342C15.3528 32.0233 14.3335 29.466 14.3335 26.6673Z" fill="#f6465d" fill-opacity="0.36"/>
<path d="M13.6668 15.3337C17.7169 15.3337 21.0002 12.0504 21.0002 8.00033C21.0002 3.95024 17.7169 0.666992 13.6668 0.666992C9.61676 0.666992 6.3335 3.95024 6.3335 8.00033C6.3335 12.0504 9.61676 15.3337 13.6668 15.3337Z" fill="#FF5757"/>
</svg>
