<svg width="24" height="24" viewBox="0 0 24 24" fill="none" xmlns="http://www.w3.org/2000/svg">
<path d="M12 24C18.6276 24 24 18.6276 24 12C24 5.3724 18.6276 0 12 0C5.3724 0 0 5.3724 0 12C0 18.6276 5.3724 24 12 24Z" fill="#F3BA2F"/>
<path d="M12.0011 7.303L8.67184 10.6323L6.73483 8.695L12.0011 3.42871L17.2691 8.69657L15.332 10.6337L12.0011 7.303Z" fill="#312A64"/>
<path d="M5.3669 10.0627L3.42969 12.0001L5.36676 13.9369L7.30397 11.9997L5.3669 10.0627Z" fill="#312A64"/>
<path d="M12.0011 16.6973L8.67184 13.3682L6.73209 15.3025L12.0011 20.5716L17.2691 15.3038L17.2701 15.3027L15.3319 13.3666L12.0011 16.6973Z" fill="#312A64"/>
<path d="M18.6355 10.0638L16.6983 12.001L18.6354 13.938L20.5725 12.0008L18.6355 10.0638Z" fill="#312A64"/>
<path d="M13.9666 11.9991H13.9659L13.9677 12.0001L13.9668 12.0011L12.0011 13.9668L10.0371 12.0026L10.0344 11.9998L10.0371 11.9971L12.0011 10.0334L13.9666 11.9991Z" fill="#312A64"/>
</svg>
