<svg width="88" height="88" viewBox="0 0 88 88" fill="none" xmlns="http://www.w3.org/2000/svg">
<mask id="mask0_4890_12688" style="mask-type:alpha" maskUnits="userSpaceOnUse" x="0" y="0" width="88" height="88">
<rect width="88" height="88" fill="#D9D9D9"/>
</mask>
<g mask="url(#mask0_4890_12688)">
<path d="M84.6371 56.3857L62.0641 45.7455C60.6471 45.1692 58.9637 45.1753 57.5954 45.8183C57.5954 45.8183 6.54889 69.5252 6.4739 69.5798C4.74554 70.6626 5.09802 72.9436 7.06617 73.8717L29.639 84.4842C31.0336 85.0484 32.6832 85.0096 34.0329 84.3757C34.0329 84.3757 84.7835 60.7504 84.866 60.6958C86.7739 59.6645 86.6688 57.3412 84.6371 56.3857Z" fill="#060607"/>
<path d="M82.8514 61.3153L82.0903 61.6671C81.8688 61.7702 81.6934 61.661 81.6934 61.4244C81.6934 61.1879 81.8726 60.9119 82.0903 60.8117L82.8552 60.4568C83.0767 60.3537 83.2521 60.4629 83.2521 60.6995C83.2484 60.9391 83.0729 61.2122 82.8514 61.3153Z" fill="#060607"/>
<path d="M82.0952 60.8157C81.8737 60.9188 81.6973 61.1919 81.6973 61.4284C81.6973 61.4861 81.716 61.5316 81.7348 61.574C81.7686 61.5679 81.7949 61.5619 81.8286 61.5437L82.5897 61.1919C82.8112 61.0887 82.9877 60.8157 82.9877 60.5791C82.9877 60.5215 82.9764 60.473 82.9576 60.4336C82.9238 60.4396 82.8901 60.4487 82.8563 60.4639L82.0952 60.8157Z" fill="#96999E"/>
<path d="M81.6869 61.6432L81.7507 61.6312C81.791 61.6251 81.8248 61.6129 81.8661 61.5947L82.6272 61.2429C82.8712 61.1307 83.0627 60.8365 83.0627 60.5787C83.0627 60.518 83.0514 60.4604 83.0289 60.4118L83.0063 60.3633L82.9425 60.3754C82.8975 60.3845 82.8562 60.3967 82.8186 60.4148L82.0576 60.7667C81.8136 60.8789 81.623 61.1731 81.623 61.4309C81.623 61.4977 81.6456 61.5492 81.6643 61.5947L81.6869 61.6432ZM82.905 60.5089C82.9087 60.5301 82.9125 60.5544 82.9125 60.5787C82.9125 60.794 82.7473 61.0488 82.5521 61.1428L81.791 61.4947C81.7873 61.4977 81.7835 61.4977 81.7807 61.5007C81.7732 61.4795 81.7695 61.4583 81.7695 61.434C81.7695 61.2187 81.9337 60.9639 82.1326 60.8699L82.8937 60.518C82.8975 60.5119 82.9012 60.5119 82.905 60.5089Z" fill="#060607"/>
<path d="M83.0624 61.5467C83.115 61.5467 83.175 61.5376 83.2313 61.5195C83.4969 61.4315 83.7146 61.1707 83.7259 60.925C83.7297 60.8158 83.6921 60.7187 83.617 60.6551C83.557 60.6034 83.4744 60.5762 83.3815 60.5762C83.3289 60.5762 83.2689 60.5853 83.2126 60.6034C82.946 60.6914 82.7283 60.9522 82.7171 61.1979C82.7133 61.3101 82.7508 61.4042 82.8259 61.4679C82.8897 61.5195 82.9723 61.5467 83.0624 61.5467Z" fill="white"/>
<path d="M83.3802 60.6339C83.3351 60.6339 83.2901 60.643 83.2375 60.6581C83.002 60.734 82.7992 60.9797 82.788 61.2011C82.7805 61.377 82.8931 61.4862 83.0583 61.4862C83.1033 61.4862 83.1483 61.4771 83.2 61.462C83.4365 61.3861 83.6392 61.1404 83.6504 60.919C83.6617 60.7461 83.5491 60.6339 83.3802 60.6339ZM83.3802 60.5156C83.4928 60.5156 83.5941 60.549 83.6692 60.6127C83.7593 60.6885 83.8043 60.7977 83.7968 60.9251C83.7856 61.195 83.5453 61.4801 83.2563 61.5742C83.1896 61.5954 83.1258 61.6075 83.062 61.6075C82.9494 61.6075 82.848 61.5742 82.773 61.5105C82.6829 61.4346 82.6378 61.3255 82.6453 61.1981C82.6566 60.9281 82.8968 60.643 83.1859 60.549C83.2525 60.5277 83.3163 60.5156 83.3802 60.5156Z" fill="#060607"/>
<path d="M82.8031 61.2055C82.8143 60.9841 83.0133 60.7384 83.2535 60.6625C83.3539 60.6292 83.444 60.6352 83.5154 60.6656L83.1522 60.4442C83.0808 60.4077 83.0058 60.4108 82.8969 60.4442C82.6604 60.523 82.4586 60.7656 82.4474 60.987C82.4436 61.0963 82.5328 61.2146 82.5328 61.2146L82.8969 61.439C82.8368 61.3905 82.7993 61.3086 82.8031 61.2055Z" fill="#060607"/>
<path d="M67.8079 68.2664C67.8079 68.0299 67.9879 67.7539 68.2054 67.6537L70.4809 66.5921C70.586 66.5436 70.6834 66.5436 70.7547 66.5831L70.3798 66.3738L70.3422 66.3526C70.2635 66.304 70.1623 66.2919 70.0461 66.3465L67.7705 67.4051C67.5493 67.5082 67.373 67.7842 67.373 68.0207C67.373 68.136 67.3956 68.2058 67.463 68.2513L67.4855 68.2664H67.4892C67.493 68.2695 67.4967 68.2695 67.5005 68.2725L67.9279 68.5152C67.8529 68.4697 67.8079 68.3847 67.8079 68.2664Z" fill="#060607"/>
<path d="M68.0474 68.6102C68.1111 68.6102 68.1748 68.595 68.2423 68.5647L70.518 67.5031C70.7617 67.3878 70.9528 67.0967 70.9528 66.8388C70.9528 66.7205 70.9116 66.6235 70.8367 66.5628C70.7841 66.5204 70.7129 66.4961 70.6379 66.4961C70.5742 66.4961 70.5105 66.5113 70.443 66.5416L68.1673 67.6032C67.9237 67.7184 67.7324 68.0096 67.7324 68.2674C67.7324 68.3857 67.7737 68.4797 67.8487 68.5434C67.9049 68.586 67.9724 68.6102 68.0474 68.6102Z" fill="white"/>
<path d="M70.6426 66.5538C70.5938 66.5538 70.5413 66.566 70.4851 66.5932L68.2094 67.6548C67.9882 67.758 67.8121 68.031 67.8121 68.2706C67.8121 68.4465 67.9095 68.5527 68.0519 68.5527C68.1007 68.5527 68.1532 68.5405 68.2094 68.5133L70.4851 67.4517C70.7063 67.3485 70.8825 67.0755 70.8825 66.8389C70.8825 66.66 70.7813 66.5538 70.6426 66.5538ZM70.6426 66.4355C70.74 66.4355 70.8262 66.4658 70.8937 66.5204C70.9837 66.5932 71.0287 66.7024 71.0287 66.8389C71.0287 67.118 70.8225 67.4334 70.5563 67.5548L68.2807 68.6164C68.2019 68.6527 68.1269 68.671 68.0482 68.671C67.9508 68.671 67.8645 68.6406 67.7971 68.586C67.7071 68.5133 67.6621 68.404 67.6621 68.2706C67.6621 67.9915 67.8683 67.6761 68.1344 67.5548L70.4101 66.4932C70.4888 66.4538 70.5676 66.4355 70.6426 66.4355Z" fill="#060607"/>
<path d="M72.8019 65.9298C72.8019 65.6932 72.9818 65.4171 73.1993 65.314L74.5003 64.7074C74.6052 64.6588 74.7027 64.6588 74.7739 64.6983L74.399 64.489L74.3615 64.4678C74.2828 64.4192 74.1815 64.4071 74.0654 64.4617L72.7606 65.0683C72.5395 65.1715 72.3633 65.4475 72.3633 65.6841C72.3633 65.7993 72.3858 65.8691 72.4533 65.9146L72.472 65.9267H72.4757C72.4795 65.9298 72.4832 65.9298 72.487 65.9328L72.9143 66.1755C72.8469 66.1329 72.8019 66.0481 72.8019 65.9298Z" fill="#060607"/>
<path d="M73.0417 66.2696C73.1054 66.2696 73.1691 66.2544 73.2366 66.2241L74.5412 65.6144C74.7849 65.5022 74.9761 65.208 74.9761 64.9502C74.9761 64.8319 74.9349 64.7348 74.8599 64.6742C74.8075 64.6317 74.7362 64.6074 74.6613 64.6074C74.5974 64.6074 74.5337 64.6226 74.4662 64.6529L73.1654 65.2596C72.9217 65.3748 72.7305 65.666 72.7305 65.9269C72.7305 66.0239 72.7567 66.1089 72.8092 66.1695C72.8654 66.2362 72.9479 66.2696 73.0417 66.2696Z" fill="white"/>
<path d="M74.6618 64.6671C74.6131 64.6671 74.5605 64.6792 74.5043 64.7065L73.2034 65.3132C72.9822 65.4163 72.8061 65.6923 72.8061 65.9289C72.8061 66.1048 72.9035 66.2109 73.0459 66.2109C73.0947 66.2109 73.1472 66.1988 73.2034 66.1715L74.5081 65.5618C74.7293 65.4587 74.9055 65.1858 74.9055 64.9492C74.9017 64.7733 74.8042 64.6671 74.6618 64.6671ZM74.6618 64.5488C74.7593 64.5488 74.8455 64.5761 74.913 64.6337C75.0029 64.7065 75.048 64.8157 75.048 64.9492C75.048 65.2282 74.8418 65.5437 74.5755 65.665L73.2709 66.2716C73.1921 66.308 73.1172 66.3262 73.0384 66.3262C72.8473 66.3262 72.6523 66.2018 72.6523 65.9258C72.6523 65.6468 72.8623 65.3313 73.1247 65.207L74.4256 64.6004C74.5081 64.567 74.5868 64.5488 74.6618 64.5488Z" fill="#060607"/>
<path d="M6.46862 69.5805L57.5527 45.8342C58.9248 45.1912 60.6043 45.1518 62.0214 45.7281L84.8264 56.4774C85.9892 57.1659 86.2097 58.5339 84.924 59.1375L34.0276 82.817C32.678 83.4509 31.0284 83.4904 29.6338 82.9263L6.83237 72.1951C5.22403 71.4186 5.31769 70.1993 6.46862 69.5805Z" fill="#96999E"/>
<path d="M31.7118 83.384C32.5252 83.384 33.3388 83.2117 34.0661 82.8685L84.9628 59.1892C85.5137 58.9313 85.8365 58.5127 85.8703 58.0184C85.9078 57.4239 85.5249 56.8172 84.8727 56.429L62.0637 45.6766C60.6166 45.0881 58.9182 45.1276 57.5237 45.7828L6.43215 69.5291C5.85481 69.8415 5.53245 70.2995 5.54737 70.7878C5.56614 71.3429 6.01229 71.8615 6.80331 72.2468L29.6048 82.9778C30.2683 83.2512 30.9919 83.384 31.7118 83.384ZM59.908 45.3793C60.6203 45.3793 61.3289 45.5128 61.9887 45.7797L84.7901 56.5291C85.3973 56.8901 85.7577 57.4603 85.7201 58.0123C85.6901 58.4673 85.3936 58.8494 84.8877 59.086L33.9911 82.7652C32.6603 83.3901 31.0444 83.4296 29.6648 82.8715L6.86704 72.1436C6.1173 71.7827 5.69734 71.3004 5.68242 70.7848C5.6674 70.3389 5.96733 69.9173 6.49963 69.6291L57.5912 45.8859C58.311 45.5492 59.1095 45.3793 59.908 45.3793Z" fill="#060607"/>
<path d="M82.9314 56.9549L61.1645 46.7879C60.171 46.3845 58.9938 46.4118 58.0341 46.8638L8.4235 69.9458C7.61746 70.3795 7.54998 71.2349 8.68214 71.7778L30.4489 81.9297C31.4236 82.3268 32.582 82.2964 33.5268 81.8538L83.0028 58.8204C83.9018 58.3957 83.8615 57.3341 82.9314 56.9549Z" fill="white"/>
<path d="M31.9 82.2959C32.4811 82.2959 33.0585 82.1714 33.5796 81.9292L83.0553 58.8956C83.5123 58.6802 83.7788 58.295 83.7638 57.8673C83.7488 57.4396 83.456 57.0696 82.984 56.8785L61.2173 46.7145C60.1825 46.2929 58.9754 46.3232 57.9781 46.7903L8.36755 69.8724C7.94018 70.1029 7.70397 70.4396 7.71523 70.7975C7.72649 71.2039 8.04885 71.58 8.62244 71.856L30.3892 82.0112C30.869 82.2018 31.3864 82.2959 31.9 82.2959ZM59.6839 46.5902C60.1713 46.5902 60.6624 46.6811 61.116 46.8662L82.8826 57.0332C83.2843 57.197 83.5311 57.5094 83.5424 57.8734C83.5574 58.2374 83.3331 58.5619 82.9427 58.7439L33.4671 81.7804C32.5524 82.2109 31.4389 82.2382 30.4904 81.8533L8.73121 71.7014C8.22509 71.4587 7.94018 71.1342 7.92892 70.7884C7.92141 70.4912 8.12008 70.2091 8.47998 70.018L58.0869 46.939C58.5817 46.7054 59.1328 46.5902 59.6839 46.5902Z" fill="#060607"/>
<path d="M68.2732 49.6016L68.247 49.5894C68.1008 49.5227 68.1195 49.4044 68.2882 49.3255C68.4532 49.2467 68.7044 49.2376 68.8506 49.3043L68.8768 49.3164C69.0192 49.3832 69.0042 49.5014 68.8356 49.5803C68.6706 49.6592 68.4194 49.6683 68.2732 49.6016Z" fill="#060607"/>
<path d="M74.0899 52.3034L69.0888 49.9801C68.9426 49.9134 68.9613 49.7951 69.13 49.7162C69.295 49.6373 69.5462 49.6283 69.6924 49.6949L74.6936 52.0183C74.836 52.0851 74.821 52.2034 74.6523 52.2822C74.4836 52.3611 74.2324 52.3702 74.0899 52.3034Z" fill="#060607"/>
<path d="M23.5418 81.2067C23.5869 81.2067 23.6318 81.1976 23.6694 81.1793C23.7555 81.1399 23.8043 81.0609 23.8043 80.9667C23.8043 80.8179 23.6843 80.6486 23.5232 80.5727C23.4669 80.5484 23.4107 80.5332 23.3582 80.5332C23.3131 80.5332 23.2682 80.5423 23.2307 80.5605C23.1445 80.6 23.0957 80.679 23.0957 80.7724C23.0957 80.9212 23.2157 81.0913 23.377 81.1672C23.4294 81.1945 23.4856 81.2067 23.5418 81.2067Z" fill="white"/>
<path d="M23.355 80.5931C23.3212 80.5931 23.2912 80.5991 23.265 80.6113C23.2012 80.6416 23.1675 80.6993 23.1675 80.7722C23.1675 80.8998 23.2762 81.0509 23.4112 81.1147C23.4562 81.1359 23.5012 81.145 23.5424 81.145C23.5762 81.145 23.6061 81.139 23.6324 81.1268C23.6961 81.0964 23.7299 81.0387 23.7299 80.9658C23.7299 80.8391 23.6211 80.6872 23.4862 80.6234C23.4412 80.6022 23.3999 80.5931 23.355 80.5931ZM23.355 80.4746C23.4224 80.4746 23.4937 80.4898 23.5574 80.5232C23.7374 80.6082 23.8761 80.7996 23.8761 80.9689C23.8761 81.0843 23.8124 81.1815 23.7036 81.2331C23.6549 81.2574 23.5987 81.2696 23.5386 81.2696C23.4711 81.2696 23.3999 81.2544 23.3362 81.224C23.1563 81.139 23.0176 80.9476 23.0176 80.7783C23.0176 80.6629 23.0813 80.5657 23.19 80.5141C23.2425 80.4868 23.2987 80.4746 23.355 80.4746Z" fill="#060607"/>
<path d="M24.5007 81.652C24.5457 81.652 24.5907 81.6429 24.6281 81.6246C24.7144 81.5852 24.7632 81.5062 24.7632 81.4128C24.7632 81.264 24.6431 81.0939 24.482 81.018C24.4257 80.9937 24.3695 80.9785 24.3133 80.9785C24.2682 80.9785 24.2233 80.9876 24.1858 81.0058C24.0996 81.0453 24.0508 81.1243 24.0508 81.2184C24.0508 81.3673 24.1708 81.5366 24.332 81.6125C24.3883 81.6398 24.4445 81.652 24.5007 81.652Z" fill="white"/>
<path d="M24.312 81.0403C24.2783 81.0403 24.2483 81.0464 24.2221 81.0585C24.1584 81.0889 24.1246 81.1459 24.1246 81.2187C24.1246 81.3463 24.2333 81.4982 24.3683 81.5619C24.4132 81.5832 24.4582 81.5923 24.4995 81.5923C24.5332 81.5923 24.5632 81.5862 24.5895 81.5741C24.6532 81.5437 24.6869 81.486 24.6869 81.4131C24.6869 81.2856 24.5782 81.1337 24.4433 81.0707C24.3982 81.0525 24.357 81.0403 24.312 81.0403ZM24.312 80.9219C24.3795 80.9219 24.4508 80.9371 24.5145 80.9674C24.6944 81.0525 24.8331 81.243 24.8331 81.4131C24.8331 81.5285 24.7694 81.6257 24.6607 81.6773C24.6119 81.7009 24.5557 81.713 24.4957 81.713C24.4283 81.713 24.357 81.6978 24.2933 81.6682C24.1133 81.5832 23.9746 81.3919 23.9746 81.2218C23.9746 81.1071 24.0383 81.01 24.1471 80.9583C24.1996 80.934 24.2558 80.9219 24.312 80.9219Z" fill="#060607"/>
<path d="M25.4538 82.1012C25.4988 82.1012 25.54 82.0921 25.5812 82.0739C25.6675 82.0344 25.7162 81.9554 25.7162 81.8613C25.7162 81.7125 25.5963 81.5431 25.435 81.4672C25.3788 81.4429 25.3225 81.4277 25.2663 81.4277C25.2213 81.4277 25.1763 81.4368 25.1389 81.4551C25.0526 81.4946 25.0039 81.5735 25.0039 81.6669C25.0039 81.8157 25.1238 81.9858 25.2851 82.0617C25.3413 82.086 25.4013 82.1012 25.4538 82.1012Z" fill="white"/>
<path d="M25.2671 81.4876C25.2334 81.4876 25.2033 81.4937 25.1771 81.5058C25.1133 81.5331 25.0797 81.5931 25.0797 81.666C25.0797 81.7936 25.1883 81.9454 25.3233 82.0092C25.3683 82.0305 25.4133 82.0396 25.4546 82.0396C25.4883 82.0396 25.5183 82.0335 25.5445 82.0213C25.6083 81.991 25.642 81.9333 25.642 81.8604C25.642 81.7328 25.5333 81.5817 25.3983 81.518C25.3533 81.4967 25.3121 81.4876 25.2671 81.4876ZM25.2671 81.3691C25.3345 81.3691 25.4058 81.3843 25.4695 81.4147C25.6532 81.4997 25.7882 81.6903 25.7882 81.8604C25.7882 81.9758 25.7245 82.073 25.6157 82.1246C25.567 82.1489 25.5108 82.161 25.4508 82.161C25.3833 82.161 25.3121 82.1459 25.2483 82.1155C25.0684 82.0305 24.9297 81.8391 24.9297 81.669C24.9297 81.5514 24.9934 81.4572 25.1022 81.4056C25.1546 81.3813 25.2108 81.3691 25.2671 81.3691Z" fill="#060607"/>
<path d="M26.409 82.5485C26.454 82.5485 26.499 82.5394 26.5365 82.5211C26.6227 82.4816 26.6714 82.4027 26.6714 82.3085C26.6714 82.1597 26.5515 81.9904 26.3903 81.9145C26.3378 81.8902 26.2778 81.875 26.2253 81.875C26.1803 81.875 26.1354 81.8841 26.0978 81.9023C26.0116 81.9418 25.9629 82.0208 25.9629 82.1149C25.9629 82.263 26.0828 82.4331 26.2441 82.509C26.2965 82.5333 26.3528 82.5485 26.409 82.5485Z" fill="white"/>
<path d="M26.2221 81.9348C26.1884 81.9348 26.1584 81.9409 26.1321 81.9531C26.0684 81.9834 26.0347 82.0411 26.0347 82.114C26.0347 82.2416 26.1434 82.3927 26.2784 82.4565C26.3234 82.4777 26.3684 82.4868 26.4096 82.4868C26.4433 82.4868 26.4734 82.4808 26.4995 82.4686C26.5633 82.4382 26.5971 82.3805 26.5971 82.3084C26.5971 82.1809 26.4883 82.029 26.3533 81.9652C26.3084 81.944 26.2672 81.9348 26.2221 81.9348ZM26.2221 81.8164C26.2896 81.8164 26.3608 81.8316 26.4246 81.865C26.6046 81.95 26.7433 82.1414 26.7433 82.3114C26.7433 82.4261 26.6795 82.5233 26.5708 82.5749C26.5221 82.5992 26.4659 82.6113 26.4059 82.6113C26.3383 82.6113 26.2672 82.5962 26.2034 82.5658C26.0197 82.4808 25.8848 82.2902 25.8848 82.1201C25.8848 82.0047 25.9485 81.9075 26.0534 81.8559C26.1097 81.8286 26.1659 81.8164 26.2221 81.8164Z" fill="#060607"/>
<path d="M27.3661 82.993C27.411 82.993 27.4561 82.9839 27.4935 82.9664C27.5798 82.927 27.6285 82.848 27.6285 82.7538C27.6285 82.605 27.5085 82.435 27.3473 82.3598C27.2948 82.3355 27.2349 82.3203 27.1823 82.3203C27.1374 82.3203 27.0924 82.3294 27.0549 82.3476C26.9686 82.3864 26.9199 82.4653 26.9199 82.5595C26.9199 82.7083 27.0399 82.8784 27.2011 82.9543C27.2535 82.9778 27.3099 82.993 27.3661 82.993Z" fill="white"/>
<path d="M27.1793 82.3794C27.1455 82.3794 27.1156 82.3855 27.0893 82.3976C27.0256 82.428 26.9919 82.4857 26.9919 82.5586C26.9919 82.6861 27.1006 82.838 27.2355 82.901C27.2806 82.9223 27.3255 82.9314 27.3667 82.9314C27.4005 82.9314 27.4305 82.9253 27.4567 82.9132C27.5205 82.8828 27.5542 82.8259 27.5542 82.753C27.5542 82.6254 27.4455 82.4736 27.3105 82.4098C27.2656 82.3885 27.2243 82.3794 27.1793 82.3794ZM27.1793 82.2617C27.2468 82.2617 27.318 82.2769 27.3818 82.3065C27.5618 82.3916 27.7005 82.5829 27.7005 82.753C27.7005 82.8684 27.6367 82.9648 27.5317 83.0164C27.4793 83.0407 27.4268 83.0529 27.3667 83.0529C27.2993 83.0529 27.228 83.0377 27.1643 83.0073C26.9844 82.9223 26.8457 82.7317 26.8457 82.5616C26.8457 82.4462 26.9094 82.349 27.0181 82.2974C27.0668 82.2739 27.1231 82.2617 27.1793 82.2617Z" fill="#060607"/>
<path d="M8.59067 74.191C8.63563 74.191 8.68067 74.1819 8.71812 74.1636C8.80436 74.1242 8.85307 74.0453 8.85307 73.9513C8.85307 73.8027 8.73313 73.6328 8.57191 73.557C8.51945 73.5328 8.45948 73.5176 8.40702 73.5176C8.36197 73.5176 8.31702 73.5267 8.27948 73.5449C8.19324 73.5843 8.14453 73.6631 8.14453 73.7572C8.14453 73.9058 8.26447 74.0756 8.42569 74.1515C8.47825 74.1758 8.53821 74.191 8.59067 74.191Z" fill="white"/>
<path d="M8.40778 73.5792C8.374 73.5792 8.34406 73.5853 8.31779 73.5975C8.25406 73.6277 8.22028 73.6854 8.22028 73.7582C8.22028 73.8856 8.32905 74.0372 8.464 74.1009C8.50895 74.1222 8.554 74.1313 8.59519 74.1313C8.62898 74.1313 8.65892 74.1252 8.68519 74.1131C8.74891 74.0828 8.7827 74.0251 8.7827 73.9523C8.7827 73.8249 8.67393 73.6733 8.53898 73.6096C8.49403 73.5883 8.44898 73.5792 8.40778 73.5792ZM8.40778 73.4609C8.47526 73.4609 8.54649 73.4761 8.61021 73.5095C8.79011 73.5944 8.92891 73.7855 8.92891 73.9554C8.92891 74.0706 8.8651 74.1677 8.75642 74.2192C8.70772 74.2435 8.65141 74.2557 8.59144 74.2557C8.52396 74.2557 8.45274 74.2405 8.38901 74.2071C8.20902 74.1222 8.07031 73.9311 8.07031 73.7612C8.07031 73.646 8.13403 73.5489 8.2428 73.4974C8.29151 73.4731 8.34782 73.4609 8.40778 73.4609Z" fill="#060607"/>
<path d="M9.54756 74.6382C9.59251 74.6382 9.63746 74.6291 9.675 74.6109C9.76124 74.5715 9.80995 74.4926 9.80995 74.3985C9.80995 74.2499 9.69001 74.0801 9.52879 74.0043C9.47257 73.98 9.41626 73.9648 9.36005 73.9648C9.3151 73.9648 9.27005 73.974 9.23261 73.9921C9.14636 74.0316 9.09766 74.1104 9.09766 74.2045C9.09766 74.3531 9.21759 74.5229 9.37882 74.5987C9.43879 74.623 9.495 74.6382 9.54756 74.6382Z" fill="white"/>
<path d="M9.36472 74.0245C9.33103 74.0245 9.301 74.0305 9.27472 74.0427C9.211 74.0731 9.17731 74.1307 9.17731 74.2034C9.17731 74.3308 9.28598 74.4825 9.42094 74.5462C9.46598 74.5674 9.51093 74.5765 9.55223 74.5765C9.58592 74.5765 9.61595 74.5705 9.64213 74.5583C9.70595 74.528 9.73964 74.4704 9.73964 74.3976C9.73964 74.2702 9.63096 74.1185 9.49592 74.0548C9.45097 74.0336 9.40601 74.0245 9.36472 74.0245ZM9.36472 73.9062C9.4322 73.9062 9.50343 73.9214 9.56715 73.9517C9.74714 74.0366 9.88585 74.2277 9.88585 74.3976C9.88585 74.5128 9.82213 74.6099 9.71336 74.6615C9.66465 74.6857 9.60844 74.6979 9.54847 74.6979C9.481 74.6979 9.40977 74.6827 9.34595 74.6524C9.16605 74.5674 9.02734 74.3763 9.02734 74.2065C9.02734 74.0912 9.09107 73.9942 9.19608 73.9426C9.24854 73.9183 9.30475 73.9062 9.36472 73.9062Z" fill="#060607"/>
<path d="M10.5026 75.0815C10.5476 75.0815 10.5925 75.0725 10.6301 75.0543C10.7163 75.0149 10.765 74.936 10.765 74.842C10.765 74.6933 10.6451 74.5235 10.4839 74.4476C10.4276 74.4234 10.3713 74.4082 10.3151 74.4082C10.2702 74.4082 10.2251 74.4173 10.1877 74.4355C10.1014 74.4749 10.0527 74.5538 10.0527 74.6478C10.0527 74.7964 10.1727 74.9663 10.3339 75.0421C10.3901 75.0694 10.4501 75.0815 10.5026 75.0815Z" fill="white"/>
<path d="M10.3198 74.4699C10.2861 74.4699 10.2561 74.4759 10.2298 74.4881C10.1661 74.5154 10.1324 74.576 10.1324 74.6488C10.1324 74.7762 10.2411 74.9279 10.376 74.9915C10.4211 75.0128 10.466 75.0219 10.5072 75.0219C10.541 75.0219 10.571 75.0158 10.5972 75.0037C10.6609 74.9734 10.6947 74.9158 10.6947 74.843C10.6947 74.7156 10.5859 74.5639 10.451 74.5002C10.406 74.482 10.361 74.4699 10.3198 74.4699ZM10.3198 74.3516C10.3873 74.3516 10.4585 74.3667 10.5222 74.3971C10.706 74.482 10.8409 74.6731 10.8409 74.843C10.8409 74.9582 10.7772 75.0552 10.6684 75.1068C10.6197 75.1311 10.5635 75.1432 10.5035 75.1432C10.436 75.1432 10.3648 75.1281 10.301 75.0978C10.1211 75.0128 9.98242 74.8217 9.98242 74.6518C9.98242 74.5336 10.0461 74.4396 10.1548 74.388C10.2036 74.3637 10.2598 74.3516 10.3198 74.3516Z" fill="#060607"/>
<path d="M11.4579 75.5289C11.5028 75.5289 11.5478 75.5197 11.5853 75.5015C11.6715 75.4621 11.7203 75.3832 11.7203 75.2892C11.7203 75.1406 11.6003 74.9707 11.4391 74.8949C11.3866 74.8706 11.3266 74.8555 11.2741 74.8555C11.2292 74.8555 11.1841 74.8646 11.1467 74.8828C11.0604 74.9222 11.0117 75.0011 11.0117 75.0951C11.0117 75.2438 11.1317 75.4136 11.2929 75.4894C11.3453 75.5167 11.4053 75.5289 11.4579 75.5289Z" fill="white"/>
<path d="M11.2749 74.9171C11.2412 74.9171 11.2112 74.9232 11.1849 74.9353C11.1212 74.9656 11.0875 75.0233 11.0875 75.0961C11.0875 75.2235 11.1961 75.3752 11.3311 75.4388C11.3761 75.4601 11.4211 75.4692 11.4624 75.4692C11.4961 75.4692 11.5261 75.4631 11.5523 75.451C11.616 75.4207 11.6498 75.363 11.6498 75.2902C11.6498 75.1628 11.5411 75.0112 11.4061 74.9475C11.3611 74.9293 11.3162 74.9171 11.2749 74.9171ZM11.2749 74.7988C11.3424 74.7988 11.4136 74.814 11.4773 74.8473C11.6573 74.9323 11.796 75.1234 11.796 75.2933C11.796 75.4085 11.7323 75.5055 11.6235 75.5571C11.5748 75.5814 11.5186 75.5935 11.4586 75.5935C11.3912 75.5935 11.3199 75.5784 11.2561 75.5481C11.0725 75.4631 10.9375 75.272 10.9375 75.1022C10.9375 74.9869 11.0012 74.8899 11.1099 74.8383C11.1587 74.811 11.2149 74.7988 11.2749 74.7988Z" fill="#060607"/>
<path d="M12.4147 75.9781C12.4597 75.9781 12.5047 75.969 12.5422 75.9507C12.6284 75.9083 12.6771 75.8324 12.6771 75.7384C12.6771 75.5898 12.5572 75.4199 12.396 75.3442C12.3435 75.3199 12.2835 75.3047 12.2273 75.3047C12.1823 75.3047 12.1373 75.3138 12.0998 75.332C12.0136 75.3714 11.9648 75.4503 11.9648 75.5443C11.9648 75.693 12.0849 75.8628 12.246 75.9386C12.3023 75.9629 12.3623 75.9781 12.4147 75.9781Z" fill="white"/>
<path d="M12.2322 75.3655C12.1984 75.3655 12.1684 75.3715 12.1422 75.3836C12.0784 75.414 12.0446 75.4716 12.0446 75.5444C12.0446 75.6718 12.1534 75.8235 12.2884 75.8872C12.3333 75.9083 12.3784 75.9175 12.4196 75.9175C12.4533 75.9175 12.4833 75.9114 12.5096 75.8993C12.5733 75.8689 12.6071 75.8113 12.6071 75.7385C12.6071 75.6111 12.4983 75.4595 12.3634 75.3958C12.3184 75.3745 12.2734 75.3655 12.2322 75.3655ZM12.2322 75.2441C12.2996 75.2441 12.3709 75.2592 12.4346 75.2896C12.6145 75.3746 12.7533 75.5656 12.7533 75.7355C12.7533 75.8507 12.6895 75.9478 12.5845 75.9994C12.5358 76.0236 12.4795 76.0357 12.4196 76.0357C12.3521 76.0357 12.2809 76.0206 12.2171 75.9903C12.0371 75.9053 11.8984 75.7143 11.8984 75.5444C11.8984 75.4292 11.9622 75.3321 12.0709 75.2805C12.1159 75.2563 12.1722 75.2441 12.2322 75.2441Z" fill="#060607"/>
<path d="M58.3236 40.469L53.3824 42.8227L48.4375 40.5236L53.3824 38.1699L58.3236 40.469Z" fill="#DBE0E6"/>
<path d="M53.3825 42.9358L53.4424 42.9085L58.5635 40.4699L53.3825 38.0586L53.3224 38.0859L48.2051 40.5245L53.3825 42.9358ZM58.0874 40.4699L53.3825 42.7114L48.6774 40.5215L53.3825 38.28L58.0874 40.4699Z" fill="#060607"/>
<path d="M53.3805 65.759L48.4355 63.4599V40.5234L53.3805 42.8226V65.759Z" fill="#C2C7CB"/>
<path d="M53.5015 65.9297V42.7688L48.3203 40.3574V63.5183L53.5015 65.9297ZM53.2615 42.881V65.596L48.5603 63.4091V40.6941L53.2615 42.881Z" fill="#060607"/>
<path d="M58.324 63.4072L53.3828 65.7609V42.8244L58.324 40.4707V63.4072Z" fill="#96999E"/>
<path d="M53.2891 65.8909L58.4139 63.4493V40.3398L53.2891 42.7815V65.8909ZM58.234 63.3643L53.4765 65.633V42.8664L58.234 40.5977V63.3643Z" fill="#060607"/>
<path d="M69.6402 27.8108L64.699 30.1645L59.7578 27.8654L64.699 25.5117L69.6402 27.8108Z" fill="#DBE0E6"/>
<path d="M64.6988 30.2757L64.7589 30.2484L69.8799 27.8098L64.6988 25.3984L64.6388 25.4257L59.5215 27.8644L64.6988 30.2757ZM69.4039 27.8098L64.6988 30.0513L59.9938 27.8613L64.6988 25.6198L69.4039 27.8098Z" fill="#060607"/>
<path d="M64.697 60.2206L59.7559 57.9185V27.8633L64.697 30.1623V60.2206Z" fill="#C2C7CB"/>
<path d="M64.8179 60.3883V30.1086L59.6367 27.6973V57.977L64.8179 60.3883ZM64.5779 30.2208V60.0546L59.8767 57.8647V28.031L64.5779 30.2208Z" fill="#060607"/>
<path d="M69.6404 57.8657L64.6992 60.2225V30.1643L69.6404 27.8105V57.8657Z" fill="#96999E"/>
<path d="M64.6094 60.3495L69.7343 57.9078V27.6797L64.6094 30.1214V60.3495ZM69.5506 57.8229L64.7931 60.0916V30.2063L69.5506 27.9406V57.8229Z" fill="#060607"/>
<path d="M35.683 58.8362L30.7418 61.1929L25.7969 58.8939L30.7418 56.5371L35.683 58.8362Z" fill="#DBE0E6"/>
<path d="M30.7415 61.305L30.8014 61.2777L35.9188 58.8391L30.7377 56.4277L30.6777 56.4551L25.5566 58.8937L30.7415 61.305ZM35.4428 58.8391L30.7377 61.0806L26.0327 58.8906L30.7377 56.6491L35.4428 58.8391Z" fill="#060607"/>
<path d="M30.7399 61.1936V76.3289L25.7949 74.0298V58.8945L30.7399 61.1936Z" fill="#C2C7CB"/>
<path d="M30.8608 76.4957V61.1359L25.6797 58.7246V74.0844L30.8608 76.4957ZM30.6209 61.2482V76.1621L25.9159 73.9752V59.0613L30.6209 61.2482Z" fill="#060607"/>
<path d="M35.6814 58.8359V73.9743L30.7402 76.328V61.1927L35.6814 58.8359Z" fill="#96999E"/>
<path d="M30.6465 76.4588L35.7713 74.0171V58.709L30.6465 61.1506V76.4588ZM35.5877 73.9322L30.8301 76.201V61.2356L35.5877 58.9698V73.9322Z" fill="#060607"/>
<path d="M47.0015 52.2737L42.0603 54.6274L37.1191 52.3283L42.0603 49.9746L47.0015 52.2737Z" fill="#DBE0E6"/>
<path d="M42.0602 54.7405L42.1202 54.7133L47.2414 52.2746L42.0602 49.8633L42.0002 49.8906L36.8828 52.3292L42.0602 54.7405ZM46.7652 52.2746L42.0602 54.5161L37.3552 52.3262L42.0602 50.0847L46.7652 52.2746Z" fill="#060607"/>
<path d="M42.0603 71.0364L37.1191 68.7373V52.3281L42.0603 54.6272V71.0364Z" fill="#C2C7CB"/>
<path d="M42.1792 71.204V54.5734L36.998 52.1621V68.7927L42.1792 71.204ZM41.9392 54.6857V70.8704L37.238 68.6805V52.4957L41.9392 54.6857Z" fill="#060607"/>
<path d="M46.9998 68.6846L42.0586 71.0383V54.6291L46.9998 52.2754V68.6846Z" fill="#96999E"/>
<path d="M41.9688 71.1692L47.0937 68.7275V52.1484L41.9688 54.5901V71.1692ZM46.9099 68.6426L42.1525 70.9113V54.675L46.9099 52.4092V68.6426Z" fill="#060607"/>
<path d="M42.6091 37.086L34.6387 33.5312L47.9852 34.614L55.9555 38.1719L42.6091 37.086Z" fill="#FFA500"/>
<path d="M56.5211 38.3144L47.9959 34.52L34.0684 33.3887L42.5936 37.1831L56.5211 38.3144ZM47.9472 34.7081L55.3852 38.0263L42.6461 36.992L35.208 33.6738L47.9472 34.7081Z" fill="#060607"/>
<path d="M42.6094 37.0859L42.6619 40.0553L56.0083 41.1382L55.9559 38.1718L42.6094 37.0859Z" fill="#060607"/>
<path d="M78.3032 18.8542L63.0488 12.0509L78.3032 6.0332V18.8542Z" fill="#060607"/>
<path d="M34.6188 33.5234L42.5899 37.0797L24.4008 63.7656L16.4297 60.2093L34.6188 33.5234Z" fill="#FFA500"/>
<path d="M24.4401 63.8923L24.4964 63.8074L42.769 37.0492L34.5887 33.4004L34.5325 33.4853L16.2598 60.2435L24.4401 63.8923ZM42.4428 37.1251L24.3426 63.6315L16.5821 60.1677L34.6823 33.6612L42.4428 37.1251Z" fill="#060607"/>
<path d="M63.0469 9.17188V12.0503L66.0386 13.3394L66.7321 10.7916L63.0469 9.17188Z" fill="#060607"/>
<path d="M24.3926 63.7622L27.373 62.4459L42.6614 40.0553L42.609 37.0859L24.3926 63.7622Z" fill="#060607"/>
<path d="M55.9395 38.1731L56.0069 41.1395L74.5046 16.9928L74.4371 14.0234L55.9395 38.1731Z" fill="#060607"/>
<path d="M78.3995 3.1582L63.0472 9.17289L66.3351 10.6379L47.9688 34.6147L55.9391 38.1726L74.3017 14.1958L77.9716 15.8306L78.3995 3.1582Z" fill="#FFA500"/>
<path d="M55.9811 38.2995L74.3475 14.3227L78.0891 15.9908L78.5236 3L62.7893 9.16634L66.1671 10.6738L47.8008 34.6506L55.9811 38.2995ZM74.2613 14.0648L55.8948 38.0416L48.1344 34.5778L66.5008 10.6041L63.3066 9.17847L78.2768 3.31241L77.8601 15.6694L74.2613 14.0648Z" fill="#060607"/>
<path d="M78.303 18.8546L78.7976 4.63533L78.4006 3.1582L77.9727 15.8306L78.303 18.8546Z" fill="#060607"/>
<path d="M61.2422 18.0775C61.2422 24.1074 55.9787 31.4536 49.4854 34.4867C42.9921 37.5199 37.7285 35.0903 37.7285 29.0636C37.7285 23.0337 42.9921 15.6875 49.4854 12.6544C55.9787 9.62123 61.2422 12.0477 61.2422 18.0775Z" fill="#060607"/>
<path d="M60.021 13.0072L57.9104 12.0215L40.8711 35.0247L43.2517 36.1469L60.021 13.0072Z" fill="#060607"/>
<path d="M63.3497 19.0633C63.3497 25.0931 58.0861 32.4394 51.5929 35.4724C45.0996 38.5056 39.8359 36.0761 39.8359 30.0493C39.8359 24.0194 45.0996 16.6732 51.5929 13.6401C58.0861 10.6039 63.3497 13.0334 63.3497 19.0633Z" fill="#96999E"/>
<path d="M46.315 36.8407C47.9459 36.8407 49.7529 36.3978 51.6273 35.5212C58.1319 32.4851 63.4217 25.0994 63.4217 19.0635C63.4217 16.1396 62.1958 13.9558 59.9689 12.9154C57.7232 11.8659 54.7353 12.1055 51.5561 13.5887C45.0515 16.6279 39.7617 24.0106 39.7617 30.0495C39.7617 32.9734 40.9876 35.1573 43.2146 36.1977C44.1368 36.6253 45.1828 36.8407 46.315 36.8407ZM56.8685 12.3876C57.9744 12.3876 58.9979 12.5969 59.8939 13.0155C62.0758 14.0346 63.2755 16.1821 63.2755 19.0635C63.2755 25.0631 58.0156 32.4032 51.5524 35.4212C48.4219 36.8831 45.4864 37.1227 43.2858 36.0945C41.1039 35.0754 39.9042 32.9279 39.9042 30.0465C39.9042 24.0469 45.1641 16.7098 51.6273 13.6888C53.4794 12.8244 55.2639 12.3876 56.8685 12.3876Z" fill="#060607"/>
<path d="M62.4954 19.6552C62.4954 25.1391 57.7078 31.8241 51.7994 34.5812C45.891 37.3414 41.1035 35.1333 41.1035 29.6463C41.1035 24.1594 45.891 17.4775 51.7994 14.7204C57.7042 11.9602 62.4954 14.1683 62.4954 19.6552Z" fill="#060607"/>
<path d="M62.3041 19.7421C62.3041 25.1288 57.599 31.6956 51.7955 34.4071C48.6651 35.8722 45.8534 35.9116 43.9263 34.7924C42.2843 33.8369 41.2871 32.0383 41.2871 29.5603C41.2871 29.3965 41.2909 29.2326 41.302 29.0689C41.3133 28.8657 41.3283 28.6624 41.3546 28.4562C41.5158 27.0094 41.9806 25.508 42.6892 24.037C42.7979 23.8185 42.9066 23.5971 43.0266 23.3788C43.8102 21.9107 44.8299 20.4912 46.0146 19.2113C46.1908 19.0202 46.3708 18.8321 46.5544 18.6471C47.7803 17.4156 49.1675 16.3328 50.6446 15.4957C50.8545 15.3743 51.0682 15.2591 51.2782 15.1529C51.4469 15.0649 51.6194 14.9801 51.7918 14.9012C54.4873 13.6424 56.9504 13.4362 58.81 14.1186C60.9544 14.8951 62.3041 16.8576 62.3041 19.7421Z" fill="#060607"/>
<path d="M61.4605 19.3477C61.4605 24.7346 56.7555 31.2982 50.952 34.0098C48.249 35.2716 45.7897 35.4748 43.9263 34.7924C42.2843 33.8369 41.2871 32.0383 41.2871 29.5603C41.2871 29.3964 41.2909 29.2326 41.302 29.0689C41.3133 28.8656 41.3283 28.6624 41.3546 28.4562C41.5157 27.0094 41.9806 25.508 42.6892 24.037C42.7979 23.8185 42.9066 23.5971 43.0266 23.3788C43.8102 21.9107 44.8299 20.4912 46.0146 19.2113C46.1908 19.0202 46.3708 18.8321 46.5544 18.6471C47.7803 17.4156 49.1675 16.3328 50.6446 15.4957C50.8545 15.3743 51.0682 15.2591 51.2782 15.1529C51.4469 15.0649 51.6193 14.98 51.7918 14.9012C54.4873 13.6424 56.9504 13.4362 58.81 14.1186C60.4595 15.0619 61.4605 16.8605 61.4605 19.3477Z" fill="#DBE0E6"/>
<path d="M46.2348 35.2363C47.7006 35.2363 49.3239 34.8389 50.9885 34.0625C56.8032 31.3448 61.5307 24.7447 61.5307 19.3488C61.5307 16.9375 60.5784 15.063 58.8539 14.0651C56.8894 13.3432 54.3739 13.6223 51.757 14.8446C51.5545 14.9387 51.3896 15.0205 51.2397 15.0994C51.0222 15.2086 50.8085 15.3269 50.6023 15.4452C49.144 16.2732 47.7606 17.3378 46.4972 18.6087C46.3209 18.7846 46.1448 18.9666 45.9535 19.1729C44.7539 20.468 43.7454 21.8754 42.9581 23.3525C42.8381 23.5739 42.7257 23.8014 42.6207 24.0137C41.8896 25.5363 41.4397 27.0287 41.2823 28.4512C41.2598 28.6362 41.241 28.8394 41.2298 29.0669C41.2223 29.2307 41.2148 29.3945 41.2148 29.5613C41.2148 31.9635 42.1633 33.838 43.8841 34.842C44.6002 35.1028 45.3912 35.2363 46.2348 35.2363ZM56.5145 13.786C57.328 13.786 58.089 13.9104 58.7789 14.1652C60.4547 15.1358 61.3845 16.9769 61.3845 19.3488C61.3845 24.7084 56.687 31.2629 50.9135 33.9593C48.3342 35.1635 45.8636 35.4395 43.9553 34.7389C42.287 33.7653 41.3573 31.9241 41.3573 29.5583C41.3573 29.3945 41.3611 29.2338 41.3685 29.0699C41.3797 28.8424 41.3985 28.6453 41.421 28.4603C41.5785 27.0499 42.0246 25.5667 42.7519 24.0562C42.8569 23.8469 42.9693 23.6225 43.0856 23.4011C43.8691 21.933 44.8701 20.5347 46.066 19.2456C46.2534 19.0425 46.4297 18.8574 46.6058 18.6845C47.8618 17.4227 49.2339 16.3642 50.681 15.5422C50.8873 15.4239 51.0972 15.3086 51.3147 15.1995C51.4646 15.1206 51.6295 15.0387 51.8283 14.9477C53.4741 14.1773 55.0786 13.786 56.5145 13.786Z" fill="#060607"/>
<path d="M50.5758 25.9203L50.1035 25.9598L54.0962 15.18L54.5685 15.1406L50.5758 25.9203Z" fill="#060607"/>
<path d="M51.9933 22.4395L52.2707 22.5395L45.3575 32.9826L45.0801 32.8825L51.9933 22.4395Z" fill="#FFA500"/>
<path d="M45.3823 33.0445L45.4086 33.005L52.3517 22.5165L51.9655 22.377L51.9393 22.4164L44.9961 32.9049L45.3823 33.0445ZM52.1867 22.562L45.3298 32.9201L45.1611 32.8594L52.018 22.5013L52.1867 22.562Z" fill="#060607"/>
<path d="M52.1465 24.7745L51.6966 25.2902L46.8828 21.4199L47.3327 20.9043L52.1465 24.7745Z" fill="#060607"/>
<path d="M51.2799 15.1465V15.6773C51.2799 15.838 51.1374 16.0382 50.9612 16.1202C50.785 16.202 50.6426 16.1353 50.6426 15.9715V15.4892C50.8525 15.3709 51.0662 15.2557 51.2799 15.1465Z" fill="#060607"/>
<path d="M42.1967 28.3525C42.1967 28.5163 42.0543 28.7165 41.8781 28.7954L41.3008 29.0653C41.3119 28.8621 41.327 28.6589 41.3532 28.4526L41.8781 28.207C42.0505 28.1251 42.1967 28.1918 42.1967 28.3525Z" fill="#060607"/>
<path d="M50.9612 32.3989C50.785 32.4808 50.6426 32.681 50.6426 32.8417V33.4908C50.6426 33.6546 50.785 33.7183 50.9612 33.6364C51.1374 33.5545 51.2799 33.3544 51.2799 33.1936V32.5445C51.2799 32.3807 51.1374 32.317 50.9612 32.3989Z" fill="#060607"/>
<path d="M60.7482 19.3924L60.0472 19.72C59.871 19.8019 59.7285 20.0021 59.7285 20.1628C59.7285 20.3266 59.871 20.3903 60.0472 20.3084L60.7482 19.9838C60.9245 19.902 61.067 19.7018 61.067 19.541C61.067 19.3773 60.9245 19.3105 60.7482 19.3924Z" fill="#060607"/>
<path d="M58.989 16.5477L59.5963 15.938C59.7501 15.7864 59.7988 15.5801 59.7125 15.48C59.6263 15.38 59.4314 15.4224 59.2776 15.574L58.6703 16.1837C58.5166 16.3353 58.4678 16.5416 58.5541 16.6417C58.6403 16.7448 58.8353 16.7024 58.989 16.5477Z" fill="#060607"/>
<path d="M55.3438 15.165C55.4976 15.1741 55.6887 15.0345 55.7787 14.8526L56.1274 14.1246C56.2136 13.9426 56.1648 13.7849 56.0112 13.7758C55.8575 13.7667 55.6662 13.9032 55.5763 14.0883L55.2276 14.8162C55.1377 14.9982 55.1901 15.1528 55.3438 15.165Z" fill="#060607"/>
<path d="M46.5759 19.2603C46.4222 19.4119 46.231 19.4544 46.1411 19.3573L46.0098 19.2087C46.186 19.0176 46.366 18.8296 46.5497 18.6445L46.6884 18.8053C46.7821 18.9054 46.7297 19.1086 46.5759 19.2603Z" fill="#060607"/>
<path d="M43.3659 23.739C43.2797 23.921 43.0848 24.0605 42.9311 24.0513L42.6836 24.0332C42.7924 23.8148 42.901 23.5934 43.0211 23.375L43.2498 23.3902C43.4034 23.3992 43.4559 23.557 43.3659 23.739Z" fill="#060607"/>
<path d="M42.9358 31.9706L42.3285 32.5802C42.1748 32.7319 42.126 32.9381 42.2123 33.0382C42.2985 33.1383 42.4935 33.0959 42.6472 32.9442L43.2545 32.3346C43.4082 32.1829 43.457 31.9766 43.3707 31.8765C43.2845 31.7764 43.0896 31.8189 42.9358 31.9706Z" fill="#060607"/>
<path d="M46.5829 33.3539C46.4291 33.3448 46.238 33.4813 46.148 33.6664L45.7993 34.3944C45.7131 34.5763 45.7657 34.7341 45.9156 34.7432C46.0692 34.7522 46.2605 34.6127 46.3505 34.4307L46.6991 33.7028C46.7854 33.5208 46.7328 33.3661 46.5829 33.3539Z" fill="#060607"/>
<path d="M55.7829 29.1597C55.6967 29.0596 55.5017 29.1021 55.348 29.2538C55.1943 29.4054 55.1456 29.6117 55.2318 29.7118L55.5842 30.1121C55.6705 30.2123 55.8654 30.1697 56.0191 30.0181C56.1728 29.8664 56.2215 29.6602 56.1354 29.5601L55.7829 29.1597Z" fill="#060607"/>
<path d="M59.5954 24.5078L58.9881 24.4653C58.8344 24.4562 58.6432 24.5957 58.5533 24.7777C58.467 24.9597 58.5195 25.1174 58.6694 25.1265L59.2768 25.1689C59.4304 25.1781 59.6217 25.0415 59.7117 24.8566C59.8016 24.6746 59.7492 24.5168 59.5954 24.5078Z" fill="#060607"/>
<path d="M51.7338 23.8959C51.7338 24.2932 51.3888 24.7755 50.9577 24.9756C50.5303 25.1758 50.1816 25.0151 50.1816 24.6177C50.1816 24.2204 50.5303 23.7381 50.9577 23.5379C51.3888 23.3408 51.7338 23.4985 51.7338 23.8959Z" fill="#FFA500"/>
<path d="M50.6125 25.1128C50.7287 25.1128 50.8562 25.0825 50.9912 25.0188C51.4336 24.8125 51.7935 24.309 51.7935 23.8965C51.7935 23.6872 51.7035 23.5295 51.5385 23.4536C51.3736 23.3778 51.1562 23.393 50.9312 23.4991C50.4888 23.7054 50.1289 24.2089 50.1289 24.6214C50.1289 24.8307 50.2189 24.9884 50.3838 25.0642C50.4513 25.0945 50.53 25.1128 50.6125 25.1128ZM51.3061 23.5021C51.3698 23.5021 51.4261 23.5143 51.4785 23.5386C51.606 23.5962 51.6735 23.7267 51.6735 23.8995C51.6735 24.2817 51.3398 24.7457 50.9274 24.9399C50.7399 25.0278 50.5638 25.043 50.4364 24.9854C50.3088 24.9277 50.2413 24.7973 50.2413 24.6244C50.2413 24.2423 50.5751 23.7782 50.9874 23.5841C51.1036 23.5295 51.2124 23.5021 51.3061 23.5021Z" fill="#060607"/>
</g>
</svg>
