<svg width="50" height="50" viewBox="0 0 50 50" fill="none" xmlns="http://www.w3.org/2000/svg">
<rect width="50" height="50" rx="25" fill="#F6F6F6"/>
<path d="M28 35.75H22C16.57 35.75 14.25 33.43 14.25 28V22C14.25 16.57 16.57 14.25 22 14.25H28C33.43 14.25 35.75 16.57 35.75 22V28C35.75 33.43 33.43 35.75 28 35.75ZM22 15.75C17.39 15.75 15.75 17.39 15.75 22V28C15.75 32.61 17.39 34.25 22 34.25H28C32.61 34.25 34.25 32.61 34.25 28V22C34.25 17.39 32.61 15.75 28 15.75H22Z" fill="#081131"/>
<path d="M21.5678 29.0201C21.3778 29.0201 21.1878 28.9501 21.0378 28.8001C20.7478 28.5101 20.7478 28.0301 21.0378 27.7401L27.5878 21.1902C27.8778 20.9002 28.3578 20.9002 28.6478 21.1902C28.9378 21.4802 28.9378 21.9602 28.6478 22.2502L22.0978 28.8001C21.9478 28.9501 21.7578 29.0201 21.5678 29.0201Z" fill="#081131"/>
<path d="M21.98 24.1084C20.89 24.1084 20 23.2184 20 22.1284C20 21.0384 20.89 20.1484 21.98 20.1484C23.07 20.1484 23.96 21.0384 23.96 22.1284C23.96 23.2184 23.07 24.1084 21.98 24.1084ZM21.98 21.6584C21.72 21.6584 21.5 21.8685 21.5 22.1385C21.5 22.4085 21.71 22.6184 21.98 22.6184C22.25 22.6184 22.46 22.4085 22.46 22.1385C22.46 21.8685 22.24 21.6584 21.98 21.6584Z" fill="#081131"/>
<path d="M28.519 29.8389C27.429 29.8389 26.5391 28.9489 26.5391 27.8589C26.5391 26.7689 27.429 25.8789 28.519 25.8789C29.609 25.8789 30.4991 26.7689 30.4991 27.8589C30.4991 28.9489 29.609 29.8389 28.519 29.8389ZM28.519 27.3889C28.259 27.3889 28.0391 27.5989 28.0391 27.8689C28.0391 28.1389 28.249 28.3489 28.519 28.3489C28.789 28.3489 28.9991 28.1389 28.9991 27.8689C28.9991 27.5989 28.789 27.3889 28.519 27.3889Z" fill="#081131"/>
</svg>
