<svg width="88" height="88" viewBox="0 0 88 88" fill="none" xmlns="http://www.w3.org/2000/svg">
<mask id="mask0_4890_12691" style="mask-type:alpha" maskUnits="userSpaceOnUse" x="0" y="0" width="88" height="88">
<rect width="88" height="88" fill="#D9D9D9"/>
</mask>
<g mask="url(#mask0_4890_12691)">
<path d="M7.66501 80.2257L4.55273 78.8113V6.25339L7.66501 4.99023V80.2257Z" fill="white" stroke="black" stroke-width="0.784491"/>
<path d="M52.4103 70.1321L7.5625 80.4098V4.97852L52.4103 12.4209V70.1321Z" fill="url(#paint0_linear_4890_12691)" stroke="black" stroke-width="0.784491"/>
<path d="M7.5625 4.97852L52.4103 12.4209V15.375L7.5625 10.059V4.97852Z" fill="black" stroke="black" stroke-width="0.784491"/>
<path d="M12.877 52.4152C13.253 49.2993 14.9075 42.9954 18.5172 42.7077C19.0185 42.7077 20.322 43.283 21.5253 45.584C22.7786 48.2207 26.0375 51.7681 29.0456 44.865C32.0537 36.5956 33.257 30.052 36.5659 32.6406C38.3206 34.3185 41.9053 37.7461 42.2061 38.0337C43.2088 38.9925 45.4398 38.8248 46.3423 30.4834L47.0943 24.0117" stroke="black" stroke-width="0.837167"/>
<path d="M44.2773 24.3024L47.0314 19.9473L49.5437 23.9716L44.2773 24.3024Z" fill="black"/>
<path d="M27.1571 81.3757C20.3231 81.3757 14.783 80.0503 14.783 78.4154C14.783 76.7805 20.3231 75.4551 27.1571 75.4551C33.9912 75.4551 39.5312 76.7805 39.5312 78.4154C39.5312 80.0503 33.9912 81.3757 27.1571 81.3757Z" fill="black"/>
<path fill-rule="evenodd" clip-rule="evenodd" d="M14.6836 72.6836H39.6291V76.814C39.6293 76.819 39.6293 76.8248 39.6293 76.8306C39.6293 76.8364 39.6293 76.8422 39.6291 76.848V76.9988H39.6123C39.2707 78.6874 33.8247 80.0297 27.1566 80.0297C20.4884 80.0297 15.0424 78.6874 14.7007 76.9988H14.6836V72.6836Z" fill="white"/>
<mask id="mask1_4890_12691" style="mask-type:luminance" maskUnits="userSpaceOnUse" x="14" y="72" width="26" height="9">
<path fill-rule="evenodd" clip-rule="evenodd" d="M14.6836 72.6836H39.6291V76.814C39.6293 76.819 39.6293 76.8248 39.6293 76.8306C39.6293 76.8364 39.6293 76.8422 39.6291 76.848V76.9988H39.6123C39.2707 78.6874 33.8247 80.0297 27.1566 80.0297C20.4884 80.0297 15.0424 78.6874 14.7007 76.9988H14.6836V72.6836Z" fill="white"/>
</mask>
<g mask="url(#mask1_4890_12691)">
<path d="M39.63 72.6842V72.4199H39.8947V72.6842H39.63ZM14.6845 72.6842H14.4199V72.4199H14.6845V72.6842ZM39.63 76.8147L39.3655 76.8196V76.8147H39.63ZM39.63 76.8486H39.3655L39.3656 76.8428L39.63 76.8486ZM39.63 76.9994H39.8947V77.2646H39.63V76.9994ZM39.6132 76.9994L39.3539 76.9472L39.3968 76.7351H39.6132V76.9994ZM14.7016 76.9994V76.7351H14.9181L14.961 76.9472L14.7016 76.9994ZM14.6845 76.9994V77.2646H14.4199V76.9994H14.6845ZM39.63 72.9494H14.6845V72.4199H39.63V72.9494ZM39.3655 76.8147V72.6842H39.8947V76.8147H39.3655ZM39.3656 76.8312C39.3656 76.8271 39.3656 76.8238 39.3655 76.8196L39.8946 76.8089C39.8948 76.8163 39.8948 76.8238 39.8948 76.8312H39.3656ZM39.3656 76.8428C39.3656 76.8387 39.3656 76.8354 39.3656 76.8312H39.8948C39.8948 76.8387 39.8948 76.8461 39.8946 76.8536L39.3656 76.8428ZM39.3655 76.9994V76.8486H39.8947V76.9994H39.3655ZM39.6132 76.7351H39.63V77.2646H39.6132V76.7351ZM27.1575 79.766C30.4762 79.766 33.4828 79.4313 35.695 78.8911C36.8025 78.6209 37.6989 78.3011 38.3334 77.954C38.9833 77.5977 39.2931 77.2472 39.3539 76.9472L39.8726 77.0525C39.7624 77.596 39.2634 78.0476 38.5878 78.4179C37.8967 78.7966 36.9508 79.1289 35.8206 79.4056C33.5573 79.9583 30.5068 80.2947 27.1575 80.2947V79.766ZM14.961 76.9472C15.0217 77.2472 15.3315 77.5977 15.9814 77.954C16.616 78.3011 17.5124 78.6209 18.6199 78.8911C20.8321 79.4313 23.8387 79.766 27.1575 79.766V80.2947C23.808 80.2947 20.7576 79.9583 18.4943 79.4056C17.3641 79.1289 16.4182 78.7966 15.7272 78.4179C15.0515 78.0476 14.5524 77.596 14.4423 77.0525L14.961 76.9472ZM14.6845 76.7351H14.7016V77.2646H14.6845V76.7351ZM14.949 72.6842V76.9994H14.4199V72.6842H14.949Z" fill="black"/>
</g>
<path d="M14.7617 72.7951C14.7617 73.1928 15.0778 73.5938 15.7043 73.9733C16.3261 74.3503 17.2311 74.6925 18.3562 74.9817C20.6054 75.5583 23.7168 75.9163 27.1565 75.9163C30.5961 75.9163 33.7075 75.5583 35.9567 74.9817C37.0819 74.6925 37.9868 74.3503 38.6086 73.9733C39.2351 73.5938 39.5512 73.1928 39.5512 72.7951C39.5512 72.3965 39.2351 71.9963 38.6086 71.6168C37.9868 71.239 37.0819 70.8968 35.9567 70.6085C33.7075 70.0318 30.5961 69.6738 27.1565 69.6738C23.7168 69.6738 20.6054 70.0318 18.3562 70.6085C17.2311 70.8968 16.3261 71.239 15.7043 71.6168C15.0778 71.9963 14.7617 72.3965 14.7617 72.7951Z" fill="white" stroke="black" stroke-width="0.188441"/>
<path fill-rule="evenodd" clip-rule="evenodd" d="M14.6836 68.4258H39.6291V72.5562C39.6293 72.5612 39.6293 72.567 39.6293 72.5728C39.6293 72.5786 39.6293 72.5844 39.6291 72.5902V72.741H39.6125C39.2719 74.4296 33.8255 75.7719 27.1566 75.7719C20.4877 75.7719 15.0411 74.4296 14.7007 72.741H14.6836V68.4258Z" fill="white"/>
<mask id="mask2_4890_12691" style="mask-type:luminance" maskUnits="userSpaceOnUse" x="14" y="68" width="26" height="8">
<path fill-rule="evenodd" clip-rule="evenodd" d="M14.6836 68.4258H39.6291V72.5562C39.6293 72.5612 39.6293 72.567 39.6293 72.5728C39.6293 72.5786 39.6293 72.5844 39.6291 72.5902V72.741H39.6125C39.2719 74.4296 33.8255 75.7719 27.1566 75.7719C20.4877 75.7719 15.0411 74.4296 14.7007 72.741H14.6836V68.4258Z" fill="white"/>
</mask>
<g mask="url(#mask2_4890_12691)">
<path d="M39.63 68.4253V68.1602H39.8947V68.4253H39.63ZM14.6845 68.4253H14.4199V68.1602H14.6845V68.4253ZM39.63 72.5557L39.3655 72.5607V72.5557H39.63ZM39.63 72.5897H39.3655L39.3656 72.5839L39.63 72.5897ZM39.63 72.7405H39.8947V73.0048H39.63V72.7405ZM39.6134 72.7405L39.354 72.6883L39.3968 72.4754H39.6134V72.7405ZM14.7016 72.7405V72.4754H14.9181L14.9609 72.6883L14.7016 72.7405ZM14.6845 72.7405V73.0048H14.4199V72.7405H14.6845ZM39.63 68.6896H14.6845V68.1602H39.63V68.6896ZM39.3655 72.5557V68.4253H39.8947V72.5557H39.3655ZM39.3656 72.5723C39.3656 72.5682 39.3656 72.5648 39.3655 72.5607L39.8946 72.5499C39.8948 72.5574 39.8948 72.5648 39.8948 72.5723H39.3656ZM39.3656 72.5839C39.3656 72.5798 39.3656 72.5764 39.3656 72.5723H39.8948C39.8948 72.5798 39.8948 72.5872 39.8946 72.5947L39.3656 72.5839ZM39.3655 72.7405V72.5897H39.8947V72.7405H39.3655ZM39.6134 72.4754H39.63V73.0048H39.6134V72.4754ZM27.1575 75.5071C30.4766 75.5071 33.4835 75.1724 35.6957 74.6321C36.8032 74.362 37.6997 74.0422 38.3341 73.6942C38.9839 73.3379 39.2935 72.9882 39.354 72.6883L39.8727 72.7927C39.7629 73.3371 39.2641 73.7878 38.5884 74.1582C37.8975 74.5377 36.9517 74.8699 35.8213 75.1467C33.558 75.6993 30.5072 76.0357 27.1575 76.0357V75.5071ZM14.9609 72.6883C15.0214 72.9882 15.331 73.3379 15.9808 73.6942C16.6152 74.0422 17.5117 74.362 18.6191 74.6321C20.8314 75.1724 23.8383 75.5071 27.1575 75.5071V76.0357C23.8076 76.0357 20.7569 75.6993 18.4935 75.1467C17.3633 74.8699 16.4174 74.5377 15.7264 74.1582C15.0508 73.7878 14.5519 73.3371 14.4422 72.7927L14.9609 72.6883ZM14.6845 72.4754H14.7016V73.0048H14.6845V72.4754ZM14.949 68.4253V72.7405H14.4199V68.4253H14.949Z" fill="black"/>
</g>
<path d="M14.7617 68.5353C14.7617 68.9338 15.0778 69.334 15.7043 69.7143C16.3261 70.0914 17.2311 70.4335 18.3562 70.7219C20.6054 71.2986 23.7168 71.6565 27.1565 71.6565C30.5961 71.6565 33.7075 71.2986 35.9567 70.7219C37.0819 70.4335 37.9868 70.0914 38.6086 69.7143C39.2351 69.334 39.5512 68.9338 39.5512 68.5353C39.5512 68.1376 39.2351 67.7365 38.6086 67.3571C37.9868 66.9801 37.0819 66.6379 35.9567 66.3487C33.7075 65.772 30.5961 65.4141 27.1565 65.4141C23.7168 65.4141 20.6054 65.772 18.3562 66.3487C17.2311 66.6379 16.3261 66.9801 15.7043 67.3571C15.0778 67.7365 14.7617 68.1376 14.7617 68.5353Z" fill="white" stroke="black" stroke-width="0.188441"/>
<path fill-rule="evenodd" clip-rule="evenodd" d="M14.6836 64.127H39.6291V68.2566C39.6293 68.2624 39.6293 68.2682 39.6293 68.274C39.6293 68.2798 39.6293 68.2847 39.6291 68.2905V68.4422H39.6123C39.2705 70.1308 33.8246 71.4731 27.1566 71.4731C20.4885 71.4731 15.0426 70.1308 14.7007 68.4422H14.6836V64.127Z" fill="white"/>
<mask id="mask3_4890_12691" style="mask-type:luminance" maskUnits="userSpaceOnUse" x="14" y="64" width="26" height="8">
<path fill-rule="evenodd" clip-rule="evenodd" d="M14.6836 64.127H39.6291V68.2566C39.6293 68.2624 39.6293 68.2682 39.6293 68.274C39.6293 68.2798 39.6293 68.2847 39.6291 68.2905V68.4422H39.6123C39.2705 70.1308 33.8246 71.4731 27.1566 71.4731C20.4885 71.4731 15.0426 70.1308 14.7007 68.4422H14.6836V64.127Z" fill="white"/>
</mask>
<g mask="url(#mask3_4890_12691)">
<path d="M39.63 64.1276V63.8633H39.8947V64.1276H39.63ZM14.6845 64.1276H14.4199V63.8633H14.6845V64.1276ZM39.63 68.2572L39.3655 68.263V68.2572H39.63ZM39.63 68.2912H39.3655L39.3656 68.2862L39.63 68.2912ZM39.63 68.4428H39.8947V68.7079H39.63V68.4428ZM39.6132 68.4428L39.3539 68.3906L39.3968 68.1785H39.6132V68.4428ZM14.7016 68.4428V68.1785H14.9181L14.961 68.3906L14.7016 68.4428ZM14.6845 68.4428V68.7079H14.4199V68.4428H14.6845ZM39.63 64.3927H14.6845V63.8633H39.63V64.3927ZM39.3655 68.2572V64.1276H39.8947V68.2572H39.3655ZM39.3656 68.2746C39.3656 68.2705 39.3656 68.2663 39.3655 68.263L39.8946 68.2522C39.8948 68.2597 39.8948 68.2671 39.8948 68.2746H39.3656ZM39.3656 68.2862C39.3656 68.2821 39.3656 68.2779 39.3656 68.2746H39.8948C39.8948 68.2821 39.8948 68.2895 39.8946 68.297L39.3656 68.2862ZM39.3655 68.4428V68.2912H39.8947V68.4428H39.3655ZM39.6132 68.1785H39.63V68.7079H39.6132V68.1785ZM27.1575 71.2094C30.4761 71.2094 33.4827 70.8747 35.6949 70.3344C36.8023 70.0643 37.6988 69.7445 38.3333 69.3965C38.9833 69.041 39.2931 68.6905 39.3539 68.3906L39.8726 68.4958C39.7624 69.0394 39.2633 69.4909 38.5876 69.8605C37.8966 70.24 36.9507 70.5722 35.8204 70.8481C33.5572 71.4016 30.5068 71.738 27.1575 71.738V71.2094ZM14.961 68.3906C15.0217 68.6905 15.3316 69.041 15.9815 69.3965C16.616 69.7445 17.5126 70.0643 18.62 70.3344C20.8322 70.8747 23.8387 71.2094 27.1575 71.2094V71.738C23.8081 71.738 20.7577 71.4016 18.4944 70.8481C17.3642 70.5722 16.4184 70.24 15.7272 69.8605C15.0515 69.4909 14.5525 69.0394 14.4424 68.4958L14.961 68.3906ZM14.6845 68.1785H14.7016V68.7079H14.6845V68.1785ZM14.949 64.1276V68.4428H14.4199V64.1276H14.949Z" fill="black"/>
</g>
<path d="M14.8164 64.1506C14.8164 64.5185 15.1097 64.9046 15.7329 65.2833C16.3483 65.6561 17.2474 65.9967 18.3702 66.285C20.6138 66.86 23.7205 67.218 27.157 67.218C30.5935 67.218 33.7001 66.86 35.9436 66.285C37.0664 65.9967 37.9657 65.6561 38.581 65.2833C39.2042 64.9046 39.4975 64.5185 39.4975 64.1506C39.4975 63.7827 39.2042 63.3966 38.581 63.0188C37.9657 62.6455 37.0664 62.3048 35.9436 62.0168C33.7001 61.4413 30.5935 61.084 27.157 61.084C23.7205 61.084 20.6138 61.4413 18.3702 62.0168C17.2474 62.3048 16.3483 62.6455 15.7329 63.0188C15.1097 63.3966 14.8164 63.7827 14.8164 64.1506Z" fill="white" stroke="black" stroke-width="0.319318"/>
<path d="M26.6403 66.2419C31.4692 66.2419 35.9774 65.2286 35.9774 64.0106C35.9774 63.3991 34.3963 62.8721 32.8016 62.4724M26.6403 61.832C21.8115 61.832 17.457 62.7916 17.457 64.0089C17.457 64.6014 18.8224 65.1664 20.3283 65.5625" stroke="black" stroke-width="0.319318" stroke-linejoin="round"/>
<path d="M68.1895 82.0966C59.8998 82.0966 53.1797 81.0685 53.1797 79.8002C53.1797 78.532 59.8998 77.5039 68.1895 77.5039C76.4791 77.5039 83.1992 78.532 83.1992 79.8002C83.1992 81.0685 76.4791 82.0966 68.1895 82.0966Z" fill="black"/>
<path d="M77.7751 71.9424C68.6268 81.6019 54.6013 83.0494 47.4195 76.7928C45.6052 75.2127 41.0086 71.0923 39.6432 68.9719C36.7986 61.9255 40.0318 52.1123 46.9284 44.8745C54.7597 36.6558 64.6122 32.0577 72.5327 35.9511C73.7143 36.5317 79.0594 41.6565 80.0081 42.5926C88.027 50.5036 85.7186 63.5556 77.7751 71.9424Z" fill="black"/>
<path fill-rule="evenodd" clip-rule="evenodd" d="M39.4326 69.0728L39.4249 69.0538C36.536 61.8972 39.8267 51.9963 46.7555 44.7249C50.6873 40.5986 55.1362 37.3703 59.6104 35.6641C64.0874 33.9567 68.6044 33.7694 72.6396 35.7532C72.8094 35.8366 73.0373 35.9923 73.2999 36.1905C73.5651 36.3915 73.8783 36.6459 74.2205 36.9356C74.9065 37.5153 75.7177 38.2419 76.5198 38.9782C78.1239 40.4508 79.6998 41.9679 80.1762 42.4379C88.3136 50.4661 85.9381 63.6573 77.9482 72.0938C73.338 76.9617 67.496 79.7639 61.8941 80.5585C56.2947 81.3531 50.9167 80.1434 47.2621 76.9592C46.3533 76.1679 44.7474 74.7394 43.1968 73.243C41.6525 71.7524 40.1428 70.1757 39.4439 69.0902L39.4326 69.0728ZM47.4195 76.7943C54.6012 83.0508 68.6268 81.6033 77.775 71.9438C85.7186 63.5562 88.027 50.5045 80.008 42.5935C79.0593 41.6575 73.7142 36.5327 72.5327 35.9521C64.6121 32.0586 54.7596 36.6568 46.9283 44.8755C40.0317 52.1132 36.7985 61.9265 39.6431 68.9726C41.0085 71.0929 45.6052 75.2134 47.4195 76.7943Z" fill="#000217"/>
<path d="M77.7751 71.9424C68.6268 81.6019 54.6013 83.0494 47.4195 76.7928C45.6052 75.2127 41.0086 71.0923 39.6432 68.9719C36.7986 61.9255 40.0318 52.1123 46.9284 44.8745C54.7597 36.6558 64.6122 32.0577 72.5327 35.9511C73.7143 36.5317 79.0594 41.6565 80.0081 42.5926C88.027 50.5036 85.7186 63.5556 77.7751 71.9424Z" fill="black"/>
<path fill-rule="evenodd" clip-rule="evenodd" d="M39.4326 69.0728L39.4249 69.0538C36.536 61.8972 39.8267 51.9963 46.7555 44.7249C50.6873 40.5986 55.1362 37.3703 59.6104 35.6641C64.0874 33.9567 68.6044 33.7694 72.6396 35.7532C72.8094 35.8366 73.0373 35.9923 73.2999 36.1905C73.5651 36.3915 73.8783 36.6459 74.2205 36.9356C74.9065 37.5153 75.7177 38.2419 76.5198 38.9782C78.1239 40.4508 79.6998 41.9679 80.1762 42.4379C88.3136 50.4661 85.9381 63.6573 77.9482 72.0938C73.338 76.9617 67.496 79.7639 61.8941 80.5585C56.2947 81.3531 50.9167 80.1434 47.2621 76.9592C46.3533 76.1679 44.7474 74.7394 43.1968 73.243C41.6525 71.7524 40.1428 70.1757 39.4439 69.0902L39.4326 69.0728ZM47.4195 76.7943C54.6012 83.0508 68.6268 81.6033 77.775 71.9438C85.7186 63.5562 88.027 50.5045 80.008 42.5935C79.0593 41.6575 73.7142 36.5327 72.5327 35.9521C64.6121 32.0586 54.7596 36.6568 46.9283 44.8755C40.0317 52.1132 36.7985 61.9265 39.6431 68.9726C41.0085 71.0929 45.6052 75.2134 47.4195 76.7943Z" fill="#000217"/>
<path d="M77.7751 71.9424C68.6268 81.6019 54.6013 83.0494 47.4195 76.7928C45.6052 75.2127 41.0086 71.0923 39.6432 68.9719C36.7986 61.9255 40.0318 52.1123 46.9284 44.8745C54.7597 36.6558 64.6122 32.0577 72.5327 35.9511C73.7143 36.5317 79.0594 41.6565 80.0081 42.5926C88.027 50.5036 85.7186 63.5556 77.7751 71.9424Z" fill="black"/>
<path fill-rule="evenodd" clip-rule="evenodd" d="M39.4326 69.0728L39.4249 69.0538C36.536 61.8972 39.8267 51.9963 46.7555 44.7249C50.6873 40.5986 55.1362 37.3703 59.6104 35.6641C64.0874 33.9567 68.6044 33.7694 72.6396 35.7532C72.8094 35.8366 73.0373 35.9923 73.2999 36.1905C73.5651 36.3915 73.8783 36.6459 74.2205 36.9356C74.9065 37.5153 75.7177 38.2419 76.5198 38.9782C78.1239 40.4508 79.6998 41.9679 80.1762 42.4379C88.3136 50.4661 85.9381 63.6573 77.9482 72.0938C73.338 76.9617 67.496 79.7639 61.8941 80.5585C56.2947 81.3531 50.9167 80.1434 47.2621 76.9592C46.3533 76.1679 44.7474 74.7394 43.1968 73.243C41.6525 71.7524 40.1428 70.1757 39.4439 69.0902L39.4326 69.0728ZM47.4195 76.7943C54.6012 83.0508 68.6268 81.6033 77.775 71.9438C85.7186 63.5562 88.027 50.5045 80.008 42.5935C79.0593 41.6575 73.7142 36.5327 72.5327 35.9521C64.6121 32.0586 54.7596 36.6568 46.9283 44.8755C40.0317 52.1132 36.7985 61.9265 39.6431 68.9726C41.0085 71.0929 45.6052 75.2134 47.4195 76.7943Z" fill="#000217"/>
<path d="M77.7751 71.9424C68.6268 81.6019 54.6013 83.0494 47.4195 76.7928C45.6052 75.2127 41.0086 71.0923 39.6432 68.9719C36.7986 61.9255 40.0318 52.1123 46.9284 44.8745C54.7597 36.6558 64.6122 32.0577 72.5327 35.9511C73.7143 36.5317 79.0594 41.6565 80.0081 42.5926C88.027 50.5036 85.7186 63.5556 77.7751 71.9424Z" fill="black"/>
<path fill-rule="evenodd" clip-rule="evenodd" d="M39.4326 69.0728L39.4249 69.0538C36.536 61.8972 39.8267 51.9963 46.7555 44.7249C50.6873 40.5986 55.1362 37.3703 59.6104 35.6641C64.0874 33.9567 68.6044 33.7694 72.6396 35.7532C72.8094 35.8366 73.0373 35.9923 73.2999 36.1905C73.5651 36.3915 73.8783 36.6459 74.2205 36.9356C74.9065 37.5153 75.7177 38.2419 76.5198 38.9782C78.1239 40.4508 79.6998 41.9679 80.1762 42.4379C88.3136 50.4661 85.9381 63.6573 77.9482 72.0938C73.338 76.9617 67.496 79.7639 61.8941 80.5585C56.2947 81.3531 50.9167 80.1434 47.2621 76.9592C46.3533 76.1679 44.7474 74.7394 43.1968 73.243C41.6525 71.7524 40.1428 70.1757 39.4439 69.0902L39.4326 69.0728ZM47.4195 76.7943C54.6012 83.0508 68.6268 81.6033 77.775 71.9438C85.7186 63.5562 88.027 50.5045 80.008 42.5935C79.0593 41.6575 73.7142 36.5327 72.5327 35.9521C64.6121 32.0586 54.7596 36.6568 46.9283 44.8755C40.0317 52.1132 36.7985 61.9265 39.6431 68.9726C41.0085 71.0929 45.6052 75.2134 47.4195 76.7943Z" fill="#000217"/>
<path d="M39.585 68.9946L39.584 68.9954L39.5901 69.0046C40.2771 70.0718 41.7727 71.6361 43.3187 73.1284C44.8664 74.6223 46.47 76.0482 47.3776 76.8387C54.5928 83.1242 68.6587 81.6602 77.8227 71.9833C85.7795 63.5824 88.1061 50.4923 80.0549 42.5501C79.5801 42.0815 78.0066 40.5658 76.4033 39.0946C75.6021 38.359 74.7926 37.6341 74.1099 37.0566C73.7685 36.7678 73.4578 36.5156 73.1959 36.3172C72.9341 36.1195 72.7179 35.9727 72.5637 35.8973C68.5833 33.9406 64.1203 34.1196 59.6756 35.8146C55.2318 37.5092 50.8031 40.7201 46.8829 44.8341C39.9772 52.0815 36.7284 61.9189 39.585 68.9946Z" fill="black" stroke="white" stroke-width="0.150154"/>
<path d="M71.8176 66.0882C62.8617 75.4866 49.3363 77.6476 41.6078 70.9146C33.8793 64.1816 34.8743 51.1044 43.8303 41.7055C52.7861 32.3067 66.3115 30.1456 74.0398 36.8786C81.7688 43.6116 80.7736 56.6891 71.8176 66.0882Z" fill="white"/>
<path d="M69.3045 63.8099C76.6133 56.1394 77.4253 45.4671 71.1182 39.9724C68.8736 38.0165 66.029 36.9803 62.9667 36.8027M46.4646 43.9115C39.1557 51.5819 38.3437 62.2543 44.6508 67.7489C46.0196 68.9412 47.6113 69.7921 49.3393 70.315C51.3617 70.9265 53.5707 71.0889 55.828 70.8237" stroke="black" stroke-width="0.425757" stroke-linejoin="round"/>
<path fill-rule="evenodd" clip-rule="evenodd" d="M72.0512 66.2017C63.0456 75.6524 49.3713 77.8912 41.5109 71.043C33.6506 64.1957 34.7125 50.969 43.718 41.518C52.7235 32.0672 66.3977 29.8285 74.2577 36.6764C82.1184 43.5243 81.0561 56.7507 72.0512 66.2017ZM41.6684 70.8781C49.3969 77.6111 62.9223 75.4502 71.878 66.0509C80.8341 56.6522 81.8292 43.5747 74.1003 36.8417C66.3721 30.1087 52.8468 32.2698 43.8909 41.6687C34.935 51.0676 33.94 64.1452 41.6684 70.8781Z" fill="#000217"/>
<path d="M64.8505 25.7275C65.2727 23.7183 66.9279 22.1355 69.0292 21.7319C66.9279 21.3283 65.2727 19.7455 64.8505 17.7363C64.4284 19.7455 62.7731 21.3283 60.6719 21.7319C62.7731 22.1355 64.4284 23.7183 64.8505 25.7275Z" fill="#FFA500" stroke="#0A0A0A" stroke-width="0.527786" stroke-linejoin="round"/>
<path d="M78.3632 33.4324C78.7029 31.8151 80.0352 30.5411 81.7263 30.2162C80.0352 29.8913 78.7029 28.6173 78.3632 27C78.0235 28.6173 76.6911 29.8913 75 30.2162C76.6911 30.5411 78.0235 31.8151 78.3632 33.4324Z" fill="white" stroke="#0A0A0A" stroke-width="0.527786" stroke-linejoin="round"/>
</g>
<defs>
<linearGradient id="paint0_linear_4890_12691" x1="29.9864" y1="12.5" x2="29.9864" y2="116.5" gradientUnits="userSpaceOnUse">
<stop stop-color="#FFA500"/>
<stop offset="1" stop-color="#FFA500" stop-opacity="0"/>
</linearGradient>
</defs>
</svg>
