<svg width="50" height="50" viewBox="0 0 50 50" fill="none" xmlns="http://www.w3.org/2000/svg">
<rect width="50" height="50" rx="25" fill="#F6F6F6"/>
<path d="M22.1586 23.87C22.0586 23.86 21.9386 23.86 21.8286 23.87C19.4486 23.79 17.5586 21.84 17.5586 19.44C17.5586 16.99 19.5386 15 21.9986 15C24.4486 15 26.4386 16.99 26.4386 19.44C26.4286 21.84 24.5386 23.79 22.1586 23.87Z" stroke="#292D32" stroke-width="1.5" stroke-linecap="round" stroke-linejoin="round"/>
<path d="M29.4112 17C31.3512 17 32.9112 18.57 32.9112 20.5C32.9112 22.39 31.4113 23.93 29.5413 24C29.4613 23.99 29.3713 23.99 29.2812 24" stroke="#292D32" stroke-width="1.5" stroke-linecap="round" stroke-linejoin="round"/>
<path d="M17.1588 27.56C14.7387 29.18 14.7387 31.82 17.1588 33.43C19.9088 35.27 24.4188 35.27 27.1688 33.43C29.5888 31.81 29.5888 29.17 27.1688 27.56C24.4288 25.73 19.9188 25.73 17.1588 27.56Z" stroke="#292D32" stroke-width="1.5" stroke-linecap="round" stroke-linejoin="round"/>
<path d="M31.3398 33C32.0598 32.85 32.7398 32.56 33.2998 32.13C34.8598 30.96 34.8598 29.03 33.2998 27.86C32.7498 27.44 32.0798 27.16 31.3698 27" stroke="#292D32" stroke-width="1.5" stroke-linecap="round" stroke-linejoin="round"/>
</svg>
