<svg width="88" height="88" viewBox="0 0 88 88" fill="none" xmlns="http://www.w3.org/2000/svg">
<mask id="mask0_4890_12837" style="mask-type:alpha" maskUnits="userSpaceOnUse" x="0" y="0" width="88" height="88">
<rect width="88" height="88" fill="#D9D9D9"/>
</mask>
<g mask="url(#mask0_4890_12837)">
<g clip-path="url(#clip0_4890_12837)">
<path d="M15.7188 62.792L52.1373 83.5718L117 43.6478L81.6102 23.5703L15.7188 62.792Z" fill="url(#paint0_linear_4890_12837)"/>
<path d="M14.1957 26.4165L50.9345 5.37704C51.3032 5.16539 51.5069 4.88641 51.5262 4.60742V15.815C51.5553 16.1325 51.3516 16.4596 50.9248 16.7001L22.2575 33.1218C18.8717 35.0555 14.5934 33.8241 12.6823 30.4474C12.6726 30.4281 12.6629 30.4185 12.6532 30.3993C11.8383 29.0428 12.4495 27.4074 14.1957 26.4165Z" fill="white"/>
<path d="M18.8236 34.1516C18.2027 34.1516 17.5722 34.065 16.961 33.9014C15.0983 33.3916 13.5462 32.1891 12.5954 30.5055L12.5759 30.4766C12.2073 29.8609 12.1006 29.1875 12.2753 28.5141C12.4983 27.6579 13.1581 26.8786 14.1379 26.3207L50.8767 5.28119C51.2065 5.09841 51.4005 4.84828 51.4199 4.59815L51.4296 4.50195H51.6431V4.60778V15.8154C51.6819 16.1809 51.4393 16.5369 50.9931 16.7966L22.3161 33.2184C21.2393 33.8341 20.0363 34.1516 18.8236 34.1516ZM14.2446 26.5034C13.3133 27.0325 12.6924 27.7637 12.479 28.5622C12.3141 29.1682 12.411 29.7839 12.7409 30.3419L12.77 30.3997C13.6916 32.0351 15.1953 33.1992 16.9998 33.6897C18.7654 34.1708 20.6086 33.9303 22.1899 33.026L50.8572 16.6138C51.2259 16.4022 51.4296 16.1136 51.4005 15.825V5.10803C51.2938 5.24272 51.1483 5.35816 50.964 5.46398L14.2446 26.5034Z" fill="#060607"/>
<path d="M11.8589 32.5361C15.6327 34.7007 20.9975 34.6815 24.7713 32.5169L61.7525 11.5832C62.1503 11.3523 62.354 11.0541 62.354 10.7559V50.3432C62.3444 50.6317 62.1406 50.93 61.7525 51.1417L25.0817 72.1715C21.308 74.336 15.1573 74.336 11.3738 72.1715C9.54993 71.1229 8.67686 69.7569 8.55074 68.3812C8.55074 68.333 8.54102 28.3994 8.54102 28.3994C8.54102 29.8329 9.97683 31.4491 11.8589 32.5361Z" fill="white"/>
<path d="M18.2222 73.9032C15.7192 73.9032 13.2164 73.3548 11.3149 72.2677C9.59771 71.2865 8.57907 69.9108 8.43359 68.4004C8.43359 68.3427 8.43359 40.415 8.43359 28.409H8.64705C8.64705 29.7173 9.92756 31.3047 11.9067 32.4399C15.661 34.5948 20.9288 34.5852 24.7123 32.4206L61.7034 11.487C62.0526 11.285 62.2466 11.0156 62.2466 10.7559H62.46V50.3431C62.4503 50.6895 62.2175 51.007 61.81 51.2378L25.1295 72.2581C23.2281 73.3547 20.7251 73.9032 18.2222 73.9032ZM8.64705 29.4287C8.64705 35.6723 8.64705 68.1695 8.65677 68.3812C8.79252 69.8145 9.77236 71.1229 11.4216 72.0753C15.1663 74.2206 21.2684 74.2206 25.0131 72.0753L61.6936 51.0358C62.0332 50.8434 62.2272 50.5933 62.2369 50.3239V11.3138C62.1302 11.4485 61.9847 11.564 61.8003 11.6697L24.8287 32.6035C20.9871 34.8064 15.6319 34.8161 11.8096 32.6226C10.2477 31.728 9.10302 30.5544 8.64705 29.4287Z" fill="#060607"/>
<path d="M11.2865 24.753L48.0349 3.71352C48.8402 3.25174 50.1401 3.25174 50.9356 3.71352C51.7408 4.17529 51.7408 4.91605 50.9356 5.37782L14.1969 26.4173C12.0141 27.6679 12.0141 29.6978 14.1969 30.9484C16.3797 32.1991 19.9304 32.1991 22.1131 30.9484L58.8519 9.90893C59.6571 9.44722 60.957 9.44722 61.7526 9.90893C62.5578 10.3707 62.5578 11.1114 61.7526 11.5733L25.0138 32.6127C21.2303 34.7773 15.8073 35.8452 11.2865 32.6127C7.74552 30.073 7.50299 26.9176 11.2865 24.753Z" fill="#060607"/>
<mask id="mask1_4890_12837" style="mask-type:luminance" maskUnits="userSpaceOnUse" x="12" y="-1" width="50" height="33">
<path d="M14.1957 30.9489C16.3784 32.1995 19.9291 32.1995 22.1119 30.9489L58.8506 9.90938C59.6558 9.44757 60.9559 9.44757 61.7513 9.90938L50.9344 3.71392L45.783 -1L14.1471 17.4516L14.1957 26.4177C12.0129 27.6683 12.0129 29.6982 14.1957 30.9489Z" fill="white"/>
</mask>
<g mask="url(#mask1_4890_12837)">
<path d="M18.6472 18.4896L39.0296 6.81055V29.9376L14.6309 43.9158V25.3873C14.6309 22.5396 16.1637 19.9133 18.6472 18.4896Z" fill="white"/>
<path d="M14.5254 44.0997V25.3884C14.5254 22.5119 16.0872 19.8375 18.5902 18.4041L39.1472 6.62891V30.0061L39.089 30.035L14.5254 44.0997ZM18.6969 18.5869C16.2522 19.9818 14.7387 22.5889 14.7387 25.3884V43.7342L38.924 29.881V7.0041L18.6969 18.5869Z" fill="#060607"/>
<path d="M14.8656 44.2049C14.7201 44.1184 14.623 43.9644 14.623 43.8008V27.1579C14.623 25.2915 15.6029 23.5599 17.1842 22.6459L35.3742 12.2368C35.5196 12.1502 35.7039 12.1502 35.8495 12.2368C35.995 12.3234 36.092 12.4773 36.092 12.6505V32.0642C36.092 32.2277 36.0047 32.3913 35.8495 32.4682L15.341 44.2049C15.2634 44.2434 15.1857 44.2723 15.0985 44.2723C15.0208 44.2626 14.9432 44.2434 14.8656 44.2049ZM35.1316 13.4586L17.6596 23.4637C16.379 24.2044 15.5835 25.6186 15.5835 27.1579V42.9832L35.1413 31.7852V13.4586H35.1316Z" fill="#060607"/>
<path d="M20.6961 15.6049L41.0882 3.93555V27.0626L16.6797 41.0312V22.5026C16.6797 19.655 18.2126 17.0287 20.6961 15.6049Z" fill="white"/>
<path d="M16.5742 41.2227V22.5017C16.5742 19.6252 18.1362 16.9508 20.639 15.5174L41.196 3.74219V27.1194L41.1379 27.1482L16.5742 41.2227ZM20.6973 15.6039L20.7554 15.7002C18.3107 17.095 16.7973 19.7022 16.7973 22.5017V40.8475L40.9826 27.0039V4.11738L20.7457 15.7002L20.6973 15.6039Z" fill="#060607"/>
<path d="M16.9126 41.3201C16.767 41.2335 16.6797 41.0796 16.6797 40.9161V24.273C16.6797 22.4068 17.6595 20.6751 19.2408 19.7611L37.4211 9.35206C37.5665 9.26546 37.7509 9.26546 37.8964 9.35206C38.042 9.43865 38.1389 9.59256 38.1389 9.76575V29.1794C38.1389 29.3526 38.0516 29.5065 37.8964 29.5931L17.3879 41.3201C17.3103 41.3586 17.2327 41.3875 17.1454 41.3875C17.0678 41.3875 16.9902 41.3682 16.9126 41.3201ZM37.1785 10.5739L19.7065 20.5789C18.4259 21.3197 17.6304 22.7339 17.6304 24.273V40.0983L37.1883 28.9004V10.5739H37.1785Z" fill="#060607"/>
<path d="M23.1999 14.892L43.5822 3.22266V26.3497L19.1836 40.3279V21.7897C19.1836 18.9421 20.7066 16.3158 23.1999 14.892Z" fill="white"/>
<path d="M19.0762 40.5118V21.7907C19.0762 18.9142 20.6381 16.2399 23.141 14.8064L43.6883 3.03125V26.4085L43.6301 26.4373L19.0762 40.5118ZM23.2477 14.9892C20.803 16.3841 19.2896 18.9913 19.2896 21.7907V40.1366L43.4749 26.293V3.40644L23.2477 14.9892Z" fill="#060607"/>
<path d="M19.4164 40.6072C19.2709 40.5206 19.1738 40.3667 19.1738 40.2032V23.5601C19.1738 21.6939 20.1537 19.9622 21.7351 19.0483L39.9249 8.63917C40.0704 8.55257 40.2548 8.55257 40.4003 8.63917C40.5458 8.72576 40.6428 8.87967 40.6428 9.05286V28.4665C40.6428 28.6397 40.5555 28.7936 40.4003 28.8802L19.8918 40.6169C19.8142 40.6553 19.7366 40.6842 19.6493 40.6842C19.5717 40.6746 19.4941 40.6553 19.4164 40.6072ZM39.6824 9.86096L22.2104 19.866C20.9298 20.6068 20.1343 22.021 20.1343 23.5601V39.3854L39.692 28.1875V9.86096H39.6824Z" fill="#060607"/>
<path d="M30.7554 22.388L53.2042 9.67969V37.8862L30.9689 50.6331C28.2816 52.1724 23.8966 52.1724 21.2094 50.6331C19.9094 49.8827 19.2885 48.911 19.2012 47.9394C19.2012 47.9009 19.2012 21.4838 19.2012 21.4838C19.1915 22.5035 22.5967 26.0726 30.7554 22.388Z" fill="white"/>
<path d="M26.0902 51.9023C24.3052 51.9023 22.5201 51.5079 21.1522 50.7286C19.9202 50.0168 19.1926 49.0355 19.0859 47.9484C19.0859 47.9195 19.0859 31.3534 19.0762 21.4927H19.2896C19.2896 21.7621 19.6195 22.397 20.5216 22.9743C21.5985 23.6669 24.7611 24.9849 30.6886 22.3008L53.3023 9.50586V37.953L31.0281 50.7286C29.67 51.5079 27.8752 51.9023 26.0902 51.9023ZM19.309 22.0892C19.309 26.0238 19.309 47.7752 19.309 47.9292C19.406 48.9393 20.0948 49.8628 21.2686 50.5362C23.9268 52.0562 28.2536 52.0562 30.9214 50.5362L53.0985 37.8183V9.87143L30.7953 22.4933C24.7708 25.2157 21.5306 23.8593 20.4149 23.1474C19.8814 22.8011 19.5127 22.4259 19.309 22.0892Z" fill="#060607"/>
<path d="M26.2745 48.016C27.429 48.016 28.535 47.7755 29.2528 47.3619L49.5867 35.7021V16.1923L32.8326 25.6778C30.9409 26.7649 28.6902 27.3421 26.323 27.3421C23.3933 27.3421 21.2589 27.2459 19.3866 25.62C19.3866 25.216 19.3866 24.8119 19.3866 24.4175C20.5701 25.4565 22.1806 26.3993 26.323 26.3993C28.5155 26.3993 30.611 25.8606 32.3573 24.8601L50.5374 14.5664V36.2505L29.7281 48.1796C28.8648 48.6702 27.6133 48.9588 26.2745 48.9588C21.5306 48.9588 19.4254 46.4479 19.377 46.3806C19.377 46.1785 19.377 45.8514 19.377 45.3993C20.7448 46.8327 22.7918 48.016 26.2745 48.016Z" fill="#901957"/>
<path d="M28.2554 23.101L50.7042 10.3926V38.5992L28.4786 51.346C25.7914 52.8852 21.4064 52.8852 18.7192 51.346C17.4191 50.5957 16.7983 49.624 16.711 48.6524C16.711 48.6139 16.711 21.9946 16.711 21.9946C16.7012 23.0048 20.1063 26.7855 28.2554 23.101Z" fill="white"/>
<path d="M23.5981 52.6054C21.8131 52.6054 20.028 52.211 18.6601 51.4317C17.4281 50.7199 16.6908 49.7386 16.5938 48.6515C16.5938 48.613 16.5938 29.9882 16.5938 21.9842H16.8072C16.8072 22.292 17.2244 23.0039 18.146 23.5908C19.5042 24.4566 22.6085 25.5244 28.2062 23.0039L50.8198 10.209V38.6561L28.5263 51.4414C27.1681 52.2206 25.3831 52.6054 23.5981 52.6054ZM16.8072 22.5999C16.8072 26.5827 16.8072 48.488 16.8072 48.6419C16.8751 49.3538 17.2632 50.3831 18.7669 51.249C21.425 52.7786 25.7615 52.769 28.4197 51.249L50.5968 38.531V10.5842L28.3032 23.1964C22.6085 25.765 19.4265 24.6586 18.0393 23.7735C17.4475 23.408 17.04 22.9751 16.8072 22.5999Z" fill="#060607"/>
<path d="M23.5969 48.7288C24.7514 48.7288 25.8573 48.4883 26.5752 48.0746L46.909 36.4149V16.8954L30.1549 26.3809C28.2631 27.468 26.0125 28.0453 23.6454 28.0453C20.7156 28.0453 18.5813 27.949 16.7089 26.3233C16.7089 25.9192 16.7089 25.5152 16.7089 25.1207C17.8925 26.1597 19.503 27.1024 23.6454 27.1024C25.8379 27.1024 27.9334 26.5638 29.6796 25.5632L47.8598 15.2695V36.9632L27.0505 48.8924C26.1871 49.3829 24.9356 49.6715 23.5969 49.6715C18.853 49.6715 16.7477 47.1607 16.6992 47.0933C16.6992 46.8913 16.6992 46.5642 16.6992 46.112C18.0672 47.5455 20.1142 48.7288 23.5969 48.7288Z" fill="#060607"/>
<path d="M26.1871 26.515L48.6359 13.8066V42.0132L26.4103 54.76C23.723 56.2992 19.338 56.2992 16.6507 54.76C15.3507 54.0096 14.7298 53.038 14.6426 52.0663C14.6426 52.0375 14.6426 24.7833 14.6426 24.7833C14.6329 25.8031 18.038 30.1995 26.1871 26.515Z" fill="white"/>
<path d="M21.5315 56.0292C19.7465 56.0292 17.9615 55.6348 16.5936 54.8652C15.3616 54.1534 14.634 53.1721 14.5273 52.085C14.5273 52.0465 14.5273 34.9706 14.5176 24.7923H14.7407C14.7407 25.1291 15.2354 26.0623 16.4287 26.8222C17.7966 27.6976 20.8816 28.804 26.1397 26.4278L48.7534 13.6328V42.0799L26.4598 54.8556C25.1017 55.6348 23.3167 56.0292 21.5315 56.0292ZM14.7407 25.4272C14.7407 29.5544 14.7407 51.8926 14.7504 52.0561C14.8474 53.0663 15.5362 53.9898 16.7101 54.6632C19.3682 56.1832 23.7047 56.1832 26.3628 54.6632L48.5399 41.9452V13.9984L26.2367 26.6202C20.8816 29.0445 17.719 27.8997 16.3123 26.9954C15.5168 26.4855 15.0026 25.9083 14.7407 25.4272Z" fill="#060607"/>
<path d="M21.5305 52.143C22.6849 52.143 23.7908 51.9025 24.5088 51.4984L44.8426 39.8387V20.3192L28.0885 29.8048C26.1967 30.8918 23.946 31.4691 21.579 31.4691C18.6492 31.4691 16.5149 31.3728 14.6425 29.7471C14.6425 29.343 14.6425 28.939 14.6425 28.5445C15.8261 29.5835 17.4365 30.5263 21.579 30.5263C23.7715 30.5263 25.8669 29.9876 27.6131 28.987L45.7934 18.6934V40.387L24.9841 52.3162C24.1207 52.8067 22.8692 53.0954 21.5305 53.0954C16.7865 53.0954 14.6813 50.5846 14.6328 50.5172C14.6328 50.3151 14.6328 49.988 14.6328 49.5359C16.0007 50.9597 18.0477 52.143 21.5305 52.143Z" fill="#060607"/>
</g>
<path d="M53.2047 31.4497L62.0911 26.3124C62.8575 25.8699 63.7985 25.8506 64.5747 26.2643L65.0985 26.5433L52.0212 40.6081L50.663 39.8962C50.0131 39.521 49.6152 38.7321 49.6152 37.5969C49.6152 35.3362 51.216 32.5848 53.2047 31.4497Z" fill="#060607"/>
<path d="M54.8065 31.9199L64.1877 26.5422C64.7601 26.2151 65.4877 26.6287 65.4877 27.2829V31.8814C65.4877 33.1897 64.7892 34.4019 63.6444 35.0464L54.4669 40.2991C53.4775 40.8667 52.585 40.9148 51.935 40.5492C51.0328 40.0297 50.6059 38.6925 51.0813 36.7684C51.5857 34.7193 52.9633 32.978 54.8065 31.9199Z" fill="#C2C7CB"/>
<path d="M52.866 40.9057C52.5071 40.9057 52.1772 40.8191 51.8764 40.6555C50.8578 40.0687 50.5183 38.6064 50.9742 36.7497C51.469 34.7103 52.8465 32.9112 54.7577 31.8242L64.1389 26.4561C64.4396 26.2829 64.8083 26.2829 65.109 26.4561C65.4098 26.6293 65.594 26.9467 65.594 27.293V31.8915C65.594 33.2287 64.8664 34.4793 63.6926 35.1528L54.5152 40.4055C53.9428 40.7325 53.3801 40.9057 52.866 40.9057ZM54.8645 32.007C53.0115 33.0651 51.6727 34.8161 51.1876 36.7978C50.7608 38.5583 51.0615 39.9244 51.9928 40.4631C52.6332 40.8287 53.4965 40.7421 54.4182 40.213L63.5956 34.9603C64.7015 34.3254 65.3903 33.1517 65.3903 31.8819V27.2835C65.3903 27.014 65.2448 26.7639 65.012 26.6293C64.7791 26.4945 64.4881 26.4945 64.2553 26.6293L54.8645 32.007Z" fill="#060607"/>
<path d="M54.2917 34.0464C55.3782 33.4308 56.2514 33.931 56.2514 35.1721C56.2514 36.4131 55.3782 37.9234 54.2917 38.5391C53.2051 39.1548 52.332 38.6545 52.332 37.4135C52.332 36.1822 53.2148 34.6718 54.2917 34.0464Z" fill="#060607"/>
<path d="M54.7373 34.7007C55.6299 34.1909 56.3575 34.6046 56.3575 35.6243C56.3575 36.644 55.6299 37.8947 54.7373 38.4045C53.8448 38.9144 53.1172 38.5007 53.1172 37.481C53.1172 36.4516 53.8448 35.2107 54.7373 34.7007Z" fill="white"/>
<path d="M54.0187 38.7317C53.8441 38.7317 53.6889 38.6933 53.5434 38.6067C53.2038 38.4143 53.0195 38.0102 53.0195 37.4716C53.0195 36.4133 53.7665 35.1242 54.6882 34.5951C55.1538 34.3257 55.6 34.2872 55.9396 34.4797C56.2792 34.672 56.4634 35.0761 56.4634 35.6149C56.4634 36.673 55.7164 37.9621 54.7948 38.4912C54.5232 38.6548 54.2613 38.7317 54.0187 38.7317ZM54.7948 34.7875C53.9314 35.2781 53.2329 36.4903 53.2329 37.4716C53.2329 37.9236 53.3785 38.2604 53.6501 38.4143C53.9217 38.5682 54.2903 38.5297 54.6882 38.2989C55.5515 37.8082 56.25 36.5961 56.25 35.6149C56.25 35.1627 56.1045 34.8259 55.8328 34.672C55.5612 34.5278 55.1926 34.5662 54.7948 34.7875Z" fill="#060607"/>
<path d="M37.8966 71.623C40.5838 71.623 43.0964 71.8635 45.3762 72.2772H58.7932V77.3664H58.7737C58.4439 81.7532 49.965 86.5152 37.8966 86.5152C25.8282 86.5152 17.3493 81.7436 17.0194 77.3664H17V72.2772H30.4169C32.6967 71.8635 35.2093 71.623 37.8966 71.623Z" fill="#060607"/>
<path d="M56.4169 81.2627C56.0192 81.609 55.5827 81.9457 55.0879 82.2632V72.2773H56.4169V81.2627Z" fill="#060607"/>
<path d="M31.6397 72.084V86.0622C31.1934 85.9948 30.7471 85.9179 30.3105 85.8409V72.2764H30.4173C30.8151 72.1994 31.2225 72.1417 31.6397 72.084Z" fill="#060607"/>
<path d="M33.8897 86.3312C33.4434 86.2928 32.9972 86.2447 32.5605 86.187V71.949C32.9972 71.8913 33.4337 71.8432 33.8897 71.8047V86.3312Z" fill="#060607"/>
<path d="M22.6279 83.3791C22.1623 83.1482 21.716 82.8981 21.2988 82.648V72.2773H22.6279V83.3791Z" fill="#060607"/>
<path d="M36.1396 86.4869C35.6933 86.4676 35.2471 86.4484 34.8105 86.4195V71.7391C35.2471 71.7101 35.6836 71.6813 36.1396 71.6621V86.4869Z" fill="#060607"/>
<path d="M20.3759 82.042C19.8811 81.6957 19.4446 81.3397 19.0469 80.9742V72.2871H20.3759V82.042Z" fill="#060607"/>
<path d="M27.128 85.1012C26.672 84.9761 26.2355 84.8318 25.7988 84.6875V72.2773H27.128V85.1012Z" fill="#060607"/>
<path d="M29.3798 85.6591C28.9238 85.5629 28.4873 85.4571 28.0508 85.3513V72.2773H29.3798V85.6591Z" fill="#060607"/>
<path d="M24.878 84.3604C24.422 84.1872 23.9757 84.0045 23.5488 83.8216V72.2773H24.878V84.3604Z" fill="#060607"/>
<path d="M49.6552 84.8029C49.2284 84.9376 48.7822 85.0723 48.3262 85.1973V72.2773H49.6552V84.8029Z" fill="#060607"/>
<path d="M40.6416 86.429C40.2051 86.4579 39.7685 86.4772 39.3223 86.4867V71.6523C39.7685 71.6715 40.2148 71.6908 40.6416 71.7197V86.429Z" fill="#060607"/>
<path d="M38.3916 71.6327V86.5152C38.2267 86.5152 38.0618 86.5248 37.8969 86.5248C37.6155 86.5248 37.3438 86.5152 37.0625 86.5152V71.6423C37.3438 71.6423 37.6058 71.623 37.8969 71.623C38.0618 71.623 38.2267 71.6327 38.3916 71.6327Z" fill="#060607"/>
<path d="M58.7932 77.3662H58.7737C58.6961 78.3572 58.2013 79.377 57.3379 80.3486V72.2676H58.7932V77.3662Z" fill="#060607"/>
<path d="M18.1157 79.9543C17.456 79.1077 17.0777 78.2323 17.0097 77.3665H17V72.2773H18.1254V79.9543H18.1157Z" fill="#060607"/>
<path d="M54.1572 82.8404C53.74 83.0809 53.3035 83.3118 52.8281 83.5427V72.2773H54.1572V82.8404Z" fill="#060607"/>
<path d="M42.8935 86.2366C42.457 86.2847 42.0204 86.3327 41.5645 86.3712V71.7773C42.0107 71.8158 42.457 71.8639 42.8935 71.9121V86.2366Z" fill="#060607"/>
<path d="M51.9053 83.9564C51.4784 84.1392 51.0419 84.3123 50.5762 84.4758V72.2773H51.9053V83.9564Z" fill="#060607"/>
<path d="M47.4052 85.4378C46.9687 85.5437 46.5321 85.6399 46.0762 85.7361V72.2773H47.4052V85.4378Z" fill="#060607"/>
<path d="M45.1534 85.9093C44.7167 85.9863 44.2802 86.0536 43.8242 86.121V72.0273C44.2705 72.0947 44.7167 72.162 45.1534 72.2389V85.9093Z" fill="#060607"/>
<path d="M37.8972 81.1951C25.6445 81.1951 17.1074 76.2888 17.1074 71.8827C17.1074 67.4767 25.6445 62.5703 37.8972 62.5703C50.1499 62.5703 58.6871 67.4767 58.6871 71.8827C58.6871 76.2888 50.1499 81.1951 37.8972 81.1951Z" fill="#FFA500"/>
<path d="M37.8965 62.6765C50.0813 62.6765 58.5796 67.5251 58.5796 71.8831C58.5796 76.2314 50.091 81.0897 37.8965 81.0897C25.7117 81.0897 17.2134 76.2411 17.2134 71.8831C17.2134 67.5251 25.7117 62.6765 37.8965 62.6765ZM37.8965 62.4648C25.5856 62.4648 17 67.4289 17 71.8831C17 76.3373 25.5856 81.3013 37.8965 81.3013C50.2075 81.3013 58.7931 76.3373 58.7931 71.8831C58.7931 67.4289 50.2075 62.4648 37.8965 62.4648Z" fill="#060607"/>
<path d="M24.1797 74.7208L25.3342 75.5674L45.7651 38.0195L40.9532 40.9248L24.1797 74.7208Z" fill="#060607"/>
<path d="M40.9922 40.9056L42.4086 41.7521L47.1913 38.8661L45.775 38.0195L40.9922 40.9056Z" fill="#060607"/>
<path d="M25.334 75.5684L30.4757 72.692L47.191 38.8672L42.3888 41.7629L25.334 75.5684Z" fill="white"/>
<path d="M25.082 75.8375L42.3018 41.6952L47.4532 38.5879L47.2883 38.915L30.5536 72.7687L30.5244 72.7879L25.082 75.8375ZM42.4667 41.8396L25.5865 75.2988L30.3887 72.6148L46.9294 39.1555L42.4667 41.8396Z" fill="#060607"/>
<path d="M29.1358 48.0347C28.8254 48.8332 27.9813 49.3623 27.1956 49.5355C26.2448 49.7471 25.459 49.2469 24.9254 48.4773C24.8575 48.381 24.7896 48.2752 24.7314 48.1694C24.6538 48.0347 25.5366 49.9396 25.5463 49.9684C25.9926 50.8919 26.7201 51.8636 27.8261 51.8347C28.7478 51.8155 29.8246 51.1805 30.1835 50.2762C30.4648 49.5547 30.3484 48.6408 29.8343 47.5344L28.7866 45.293C29.3104 46.3992 29.4268 47.3132 29.1358 48.0347Z" fill="#060607"/>
<path d="M26.3141 40.3088C24.0537 40.7802 21.7545 42.358 20.9105 44.6476C20.3479 46.1675 20.474 47.7837 21.2694 49.4769L22.3172 51.7184C21.5217 50.0253 21.4053 48.4091 21.9582 46.889C22.8022 44.5994 25.1015 43.0217 27.3618 42.5503C29.564 42.0982 31.5043 43.0987 32.6296 45.0228C32.7363 45.2152 31.6886 42.9736 31.5819 42.7812C30.4565 40.8572 28.5163 39.8567 26.3141 40.3088Z" fill="#060607"/>
<path d="M25.3723 43.2814C23.6649 44.1666 22.5299 45.3691 21.9672 46.8891C21.4045 48.409 21.5306 50.0252 22.3261 51.7185C23.0537 53.2769 24.1112 54.2582 25.5082 54.6815C26.9051 55.1048 28.3894 54.9123 29.961 54.0947C31.6588 53.2192 32.7938 52.0167 33.3468 50.4967C33.8998 48.9766 33.7833 47.3797 32.9976 45.6962C32.2312 44.0704 31.1834 43.0409 29.8446 42.6177C28.5156 42.2136 27.0215 42.4349 25.3723 43.2814ZM28.9715 51.5068C27.5163 52.2572 26.3619 51.7185 25.5082 49.9003C24.6059 47.9761 24.9066 46.6294 26.4007 45.8597C27.041 45.5326 27.6716 45.5037 28.2828 45.7923C28.9036 46.0713 29.4178 46.6582 29.8349 47.5336C30.7274 49.4288 30.4364 50.7564 28.9715 51.5068Z" fill="white"/>
<path d="M26.9635 55.0086C26.4494 55.0086 25.9546 54.9316 25.4696 54.7873C24.0532 54.3544 22.957 53.3346 22.2197 51.7665C21.4145 50.0541 21.298 48.3994 21.8607 46.8506C22.4234 45.3114 23.5875 44.0704 25.3144 43.1853C26.983 42.3291 28.5158 42.1078 29.874 42.5311C31.2321 42.9544 32.3187 44.0126 33.0851 45.6673C33.8805 47.3604 33.997 49.0055 33.4343 50.5447C32.8716 52.084 31.7172 53.3154 30.0001 54.2005C28.962 54.7391 27.9434 55.0086 26.9635 55.0086ZM28.477 42.5408C27.5262 42.5408 26.5077 42.8197 25.421 43.3777C23.7427 44.2435 22.6174 45.4364 22.0645 46.9276C21.5212 48.4187 21.6376 50.0156 22.4137 51.6799C23.1219 53.1999 24.1696 54.1812 25.5278 54.5852C26.8859 54.9989 28.3606 54.8066 29.903 54.008C31.5717 53.1519 32.6874 51.9589 33.2306 50.4774C33.7739 48.9863 33.6575 47.3989 32.8814 45.7635C32.1343 44.1665 31.0963 43.1564 29.7964 42.7428C29.3889 42.6081 28.9427 42.5408 28.477 42.5408ZM27.7784 51.9397C27.5651 51.9397 27.3614 51.9108 27.1673 51.8435C26.4882 51.6126 25.8965 50.9777 25.4113 49.9483C24.48 47.9762 24.8001 46.562 26.3524 45.7635C27.0218 45.4171 27.6911 45.3979 28.3315 45.6866C28.9717 45.9751 29.5053 46.5812 29.9321 47.4855C30.8441 49.4385 30.5433 50.8237 29.0203 51.603C28.5837 51.8243 28.1666 51.9397 27.7784 51.9397ZM27.4292 45.6961C27.1091 45.6961 26.7793 45.7827 26.4494 45.9463C25.0039 46.6871 24.7323 47.9665 25.6054 49.8425C26.0613 50.8142 26.6143 51.4202 27.2352 51.6318C27.7299 51.7954 28.3023 51.7184 28.9232 51.401C30.3396 50.6698 30.6016 49.4192 29.7381 47.5625C29.3404 46.7062 28.8359 46.1386 28.2441 45.8693C27.9725 45.7635 27.7008 45.6961 27.4292 45.6961Z" fill="#060607"/>
<path d="M46.376 63.1949C46.0656 63.9933 45.2215 64.5225 44.4358 64.6957C43.485 64.9073 42.6992 64.407 42.1657 63.6374C42.0978 63.5413 42.0299 63.4354 41.9716 63.3296C41.894 63.1949 42.7769 65.0997 42.7865 65.1285C43.2328 66.0521 43.9604 67.0237 45.0663 66.9949C45.988 66.9757 47.0648 66.3407 47.4237 65.4365C47.7051 64.7148 47.5887 63.801 47.0745 62.6947L46.0268 60.4531C46.541 61.5595 46.6574 62.4734 46.376 63.1949Z" fill="#060607"/>
<path d="M43.5524 55.4709C41.2921 55.9423 38.9928 57.52 38.1488 59.8096C37.5862 61.3297 37.7122 62.9459 38.5077 64.639L39.5555 66.8805C38.76 65.1873 38.6436 63.5711 39.1965 62.0512C40.0405 59.7615 42.3398 58.1839 44.6001 57.7124C46.8023 57.2507 48.7426 58.2608 49.868 60.1848C49.9746 60.3772 48.9269 58.1357 48.8202 57.9433C47.6948 56.0192 45.7546 55.0188 43.5524 55.4709Z" fill="#060607"/>
<path d="M42.6126 58.4432C40.9051 59.3283 39.7604 60.5308 39.2074 62.0508C38.6447 63.5708 38.7709 65.187 39.5663 66.8802C40.2939 68.4386 41.3513 69.4199 42.7484 69.8432C44.1454 70.2665 45.6296 70.0741 47.2013 69.2564C48.899 68.381 50.0243 67.1784 50.587 65.6584C51.14 64.1384 51.0236 62.5414 50.2377 60.8579C49.4713 59.2321 48.4236 58.2027 47.0849 57.7794C45.7461 57.385 44.252 57.5967 42.6126 58.4432ZM46.2117 66.6685C44.7565 67.4189 43.6021 66.8802 42.7484 65.062C41.8461 63.138 42.1469 61.7911 43.6409 61.0215C44.2812 60.6944 44.9117 60.6655 45.5229 60.9541C46.1438 61.2331 46.658 61.8199 47.0751 62.6953C47.9579 64.5906 47.6766 65.9182 46.2117 66.6685Z" fill="white"/>
<path d="M44.2038 70.1706C43.6896 70.1706 43.1949 70.0937 42.7098 69.9494C41.2934 69.5165 40.1972 68.5063 39.4599 66.9286C38.6547 65.2162 38.5382 63.5616 39.101 62.0127C39.6636 60.4734 40.8277 59.2324 42.5643 58.3474C44.2329 57.4912 45.7657 57.2699 47.1239 57.6932C48.482 58.1165 49.5686 59.1747 50.335 60.8293C51.1305 62.5225 51.2469 64.1676 50.6842 65.7069C50.1216 67.2461 48.9671 68.4775 47.25 69.3625C46.2022 69.9013 45.1836 70.1706 44.2038 70.1706ZM45.7172 57.7028C44.7664 57.7028 43.7478 57.9818 42.6613 58.5398C40.9829 59.4056 39.8576 60.5985 39.3047 62.0896C38.7614 63.5808 38.8778 65.1778 39.6539 66.8421C40.3621 68.3621 41.4196 69.3433 42.7681 69.7474C44.1262 70.161 45.6008 69.9686 47.1433 69.1702C48.8119 68.3139 49.9276 67.1211 50.4708 65.6395C51.0141 64.158 50.8977 62.5706 50.1216 60.9256C49.3746 59.3287 48.3366 58.3185 47.0366 57.9048C46.6194 57.7701 46.1732 57.7028 45.7172 57.7028ZM45.0187 67.1018C44.8052 67.1018 44.6016 67.073 44.4075 67.0056C43.7284 66.7747 43.1366 66.1398 42.6516 65.1104C41.7202 63.1287 42.0404 61.7241 43.5926 60.9256C44.262 60.5793 44.9314 60.56 45.5717 60.8486C46.212 61.1373 46.7455 61.7433 47.1724 62.6476C48.0843 64.6005 47.7835 65.9859 46.2605 66.765C45.8239 66.9864 45.4068 67.1018 45.0187 67.1018ZM44.6695 60.8583C44.3493 60.8583 44.0195 60.9449 43.6896 61.1084C42.2441 61.8491 41.9725 63.1287 42.8457 65.0046C43.3015 65.9762 43.8448 66.5823 44.4755 66.794C44.9702 66.9671 45.5425 66.8806 46.1634 66.563C47.5798 65.832 47.8418 64.5813 46.9784 62.7246C46.5806 61.8684 46.0761 61.3008 45.4844 61.0314C45.2127 60.9256 44.9411 60.8583 44.6695 60.8583Z" fill="#060607"/>
</g>
</g>
<defs>
<linearGradient id="paint0_linear_4890_12837" x1="47.4136" y1="83.8399" x2="83.3642" y2="24.7607" gradientUnits="userSpaceOnUse">
<stop stop-color="#CBCDD1"/>
<stop offset="1" stop-color="#AFAFB5" stop-opacity="0"/>
</linearGradient>
<clipPath id="clip0_4890_12837">
<rect width="135" height="88" fill="white" transform="translate(-18 -1)"/>
</clipPath>
</defs>
</svg>
