<svg width="50" height="50" viewBox="0 0 50 50" fill="none" xmlns="http://www.w3.org/2000/svg">
<rect width="50" height="50" rx="25" fill="#F6F6F6"/>
<path d="M25 30.8086H15C14.59 30.8086 14.25 30.4686 14.25 30.0586C14.25 29.6486 14.59 29.3086 15 29.3086H25C25.41 29.3086 25.75 29.6486 25.75 30.0586C25.75 30.4786 25.41 30.8086 25 30.8086Z" fill="#081131"/>
<path d="M22.7778 35.75H17.2278C15.0378 35.75 14.2578 34.98 14.2578 32.8V28.7C14.2578 26.52 15.0378 25.75 17.2278 25.75H22.7778C24.9678 25.75 25.7478 26.52 25.7478 28.7V32.81C25.7478 34.98 24.9678 35.75 22.7778 35.75ZM17.2178 27.25C15.8578 27.25 15.7478 27.36 15.7478 28.7V32.81C15.7478 34.15 15.8578 34.26 17.2178 34.26H22.7678C24.1278 34.26 24.2378 34.15 24.2378 32.81V28.7C24.2378 27.36 24.1278 27.25 22.7678 27.25H17.2178Z" fill="#081131"/>
<path d="M28.0002 35.7483C27.7302 35.7483 27.4802 35.5983 27.3502 35.3683C27.2202 35.1283 27.2202 34.8483 27.3602 34.6083L28.4102 32.8583C28.6202 32.5083 29.0802 32.3883 29.4402 32.5983C29.8002 32.8083 29.9102 33.2683 29.7002 33.6283L29.4302 34.0783C32.1902 33.4283 34.2602 30.9483 34.2602 27.9883C34.2602 27.5783 34.6002 27.2383 35.0102 27.2383C35.4202 27.2383 35.7602 27.5783 35.7602 27.9883C35.7502 32.2683 32.2702 35.7483 28.0002 35.7483Z" fill="#081131"/>
<path d="M15 22.75C14.59 22.75 14.25 22.41 14.25 22C14.25 17.73 17.73 14.25 22 14.25C22.27 14.25 22.52 14.4 22.65 14.63C22.78 14.87 22.78 15.15 22.64 15.39L21.59 17.14C21.38 17.49 20.92 17.61 20.56 17.4C20.2 17.19 20.09 16.73 20.3 16.37L20.57 15.92C17.81 16.57 15.74 19.05 15.74 22.01C15.75 22.41 15.41 22.75 15 22.75Z" fill="#081131"/>
<path d="M31.5 24.75C28.61 24.75 26.25 22.4 26.25 19.5C26.25 16.6 28.6 14.25 31.5 14.25C34.4 14.25 36.75 16.6 36.75 19.5C36.75 22.4 34.39 24.75 31.5 24.75ZM31.5 15.75C29.43 15.75 27.75 17.43 27.75 19.5C27.75 21.57 29.43 23.25 31.5 23.25C33.57 23.25 35.25 21.57 35.25 19.5C35.25 17.43 33.57 15.75 31.5 15.75Z" fill="#081131"/>
</svg>
