<svg width="50" height="50" viewBox="0 0 50 50" fill="none" xmlns="http://www.w3.org/2000/svg">
<rect width="50" height="50" rx="25" fill="#F6F6F6"/>
<mask id="mask0_3287_8319" style="mask-type:alpha" maskUnits="userSpaceOnUse" x="13" y="13" width="24" height="24">
<rect x="13" y="13" width="24" height="24" rx="12" fill="#D9D9D9"/>
</mask>
<g mask="url(#mask0_3287_8319)">
</g>
<g clip-path="url(#clip0_3287_8319)">
<path d="M35 24.3008V24.0272C34.9694 21.6092 34.0012 19.3408 32.2802 17.64C30.5576 15.9375 28.275 15 25.8529 15H24.1471C21.725 15 19.4424 15.9375 17.7198 17.64C15.9988 19.3408 15.0306 21.6092 15 24.0272V24.3008L22.3439 30.6076V35H27.6561V30.6076L35 24.3008ZM24.8481 16.2439C26.5785 16.2439 27.9862 17.6516 27.9862 19.382V23.4488H21.71V19.382C21.71 17.6516 23.1177 16.2439 24.8481 16.2439ZM32.8295 24.6204L28.1868 28.6075L29.2425 24.6204H32.8295ZM20.6475 24.6204L21.8132 28.6075L17.1706 24.6204H20.6475ZM21.8682 24.6204H28.0217L26.6311 29.7527H23.3688L21.8682 24.6204ZM33.7954 23.4488H29.1579V19.382C29.1579 18.26 28.7268 17.237 28.0217 16.4694C29.3052 16.8302 30.4835 17.5115 31.4566 18.4733C32.8155 19.8162 33.6331 21.565 33.7954 23.4488ZM18.5434 18.4733C19.4096 17.6172 20.4386 16.9835 21.5594 16.6C20.9228 17.3512 20.5383 18.3225 20.5383 19.382V23.4488H16.2046C16.3669 21.565 17.1845 19.8162 18.5434 18.4733ZM26.4844 33.8284H23.5156V30.9243H26.4844V33.8284Z" fill="#081131"/>
</g>
<defs>
<clipPath id="clip0_3287_8319">
<rect x="15" y="15" width="20" height="20" rx="10" fill="white"/>
</clipPath>
</defs>
</svg>
