<svg width="186" height="219" viewBox="0 0 186 219" fill="none" xmlns="http://www.w3.org/2000/svg">
<g clip-path="url(#clip0_5305_12924)">
<path d="M92.9834 218.356C144.156 218.356 185.639 209.314 185.639 198.16C185.639 187.006 144.156 177.964 92.9834 177.964C41.8113 177.964 0.328125 187.006 0.328125 198.16C0.328125 209.314 41.8113 218.356 92.9834 218.356Z" fill="white" stroke="#221F1F" stroke-miterlimit="10"/>
<path d="M8.29688 171.477L11.8415 188.697C12.8202 193.445 16.1267 197.373 20.6236 199.066C37.143 205.289 60.7184 211.856 89.4719 212.755C124.587 213.853 153.083 206.056 171.533 199.139C176.129 197.42 179.489 193.392 180.368 188.525C181.393 182.844 176.433 180.655 177.458 174.975L8.29688 171.477Z" fill="black" stroke="black" stroke-width="2" stroke-miterlimit="10"/>
<path d="M6.74099 167.396L10.3186 184.616C11.304 189.364 14.6502 193.292 19.1933 194.985C35.8847 201.208 59.7114 207.775 88.7691 208.674C124.255 209.772 153.055 201.975 171.703 195.058C176.346 193.338 179.745 189.311 180.637 184.444C181.676 178.763 182.522 173.513 183.56 167.832L6.73438 167.396H6.74099Z" fill="white" stroke="black" stroke-miterlimit="10"/>
<path d="M36.4219 167.178C36.898 167.554 37.4469 167.984 37.7445 168.143C38.2206 168.401 38.71 168.646 39.1994 168.877C40.2773 169.234 41.342 169.624 42.4265 169.955C48.0939 171.681 53.8803 173.09 59.6138 174.571C65.7507 176.158 71.9207 177.646 78.1435 178.869C81.126 179.458 84.1283 179.98 87.1373 180.417C87.3291 180.443 87.5671 180.47 87.8713 180.509C88.698 180.609 89.5312 180.695 90.3578 180.781C91.8061 180.926 93.2543 181.045 94.7026 181.138C101.19 181.561 107.737 181.647 114.231 181.495C117.16 181.429 120.097 181.29 123.02 181.058C124.607 180.933 126.194 180.774 127.781 180.582C127.953 180.556 128.151 180.529 128.403 180.49C129.229 180.364 130.056 180.225 130.883 180.073C135.942 179.16 141.12 177.996 146.086 176.661C146.417 176.568 146.866 176.495 147.309 176.389C147.336 176.363 147.448 176.297 147.614 176.204C147.647 176.171 147.666 176.145 147.693 176.112C147.772 175.973 147.838 175.867 147.885 175.788C147.931 175.622 147.977 175.45 148.017 175.285C148.268 172.098 149.432 169.3 151.304 167.171H36.4219V167.178Z" fill="#F9A31A"/>
<path d="M175.329 167.177C176.149 168.546 176.731 170.08 177.016 171.707C177.069 171.78 177.135 171.859 177.181 171.932C177.571 172.58 177.809 173.698 177.512 174.432C177.386 174.736 177.254 175.034 177.115 175.325C176.956 176.409 176.632 177.447 176.169 178.419C175.984 179.061 175.726 179.683 175.422 180.271C175.263 181.204 174.985 182.103 174.595 182.956C174.39 183.604 174.126 184.232 173.808 184.834C173.683 186.196 173.279 187.493 172.671 188.703C172.651 188.815 172.618 188.928 172.592 189.04C172.539 189.305 172.472 189.562 172.406 189.814C172.32 190.29 172.188 190.753 172.036 191.202C171.705 192.313 171.203 193.358 170.568 194.324C170.535 194.43 170.508 194.535 170.469 194.635C170.786 194.522 171.104 194.41 171.408 194.297C176.05 192.611 179.449 188.663 180.342 183.888C181.38 178.314 182.419 172.739 183.457 167.164H175.336L175.329 167.177Z" fill="#F9A31A"/>
<path d="M149.855 201.308C149.307 201.433 148.784 201.956 148.229 202.075C136.59 204.608 125.162 206.486 113.206 206.644C100.932 206.803 88.784 205.99 76.6821 203.893C65.268 201.916 54.0721 198.894 42.8895 195.905C31.4952 192.863 21.2582 189.027 14.2881 178.942C11.7883 175.325 12.0793 170.861 13.964 167.178H7.30469L10.8823 184.398C11.8677 189.146 15.2139 193.074 19.757 194.767C36.4484 200.99 60.2751 207.557 89.3328 208.456C112.829 209.184 133.224 205.533 149.849 201.301C149.809 201.275 149.888 201.327 149.849 201.301L149.855 201.308Z" fill="#F9A31A"/>
<path d="M184.258 169.288C184.258 177.653 149.559 184.55 104.941 185.45C101.661 185.523 98.3278 185.556 94.9485 185.556C45.6219 185.556 5.63281 178.268 5.63281 169.288C5.63281 160.307 45.6219 153.02 94.9485 153.02C98.3278 153.02 101.661 153.053 104.941 153.125C149.559 154.025 184.258 160.916 184.258 169.288Z" fill="white" stroke="#221F1F" stroke-miterlimit="10"/>
<path opacity="0.2" d="M183.565 169.288C183.565 177.316 149.019 183.936 104.599 184.802C60.1727 183.936 25.6328 177.316 25.6328 169.288C25.6328 161.259 60.1727 154.64 104.599 153.773C149.019 154.64 183.565 161.253 183.565 169.288Z" fill="#F9A31A"/>
<path d="M55.0547 122.619C60.0277 126.587 67.4012 131.203 76.9835 132.962C106.028 138.285 134.147 113.466 146.698 90.5257C148.18 87.821 168.7 49.1347 150.587 24.2697C146.163 18.1989 137.757 10.6402 126.218 7.0361C126.218 7.0361 115.987 3.74941 105.466 5.31009C83.5172 8.56371 62.8845 56.5611 55.0547 122.619Z" fill="#D9D9D9" stroke="#231F20" stroke-miterlimit="10"/>
<path d="M132.843 90.9162C153.038 58.3454 150.575 20.2636 127.341 5.85804C104.107 -8.54752 68.9011 6.17828 48.7064 38.749C28.5117 71.3198 30.9753 109.402 54.2091 123.807C77.4429 138.213 112.649 123.487 132.843 90.9162Z" fill="white" stroke="#231F20" stroke-miterlimit="10"/>
<path d="M115.669 83.8888C130.427 60.0869 128.626 32.2575 111.647 21.73C94.6678 11.2025 68.94 21.9634 54.1822 45.7653C39.4245 69.5671 41.2252 97.3965 58.2044 107.924C75.1835 118.452 100.911 107.691 115.669 83.8888Z" fill="#231F20"/>
<path d="M124.208 83.8888C138.966 60.0869 137.165 32.2575 120.186 21.73C103.207 11.2025 77.479 21.9634 62.7213 45.7653C47.9635 69.5671 49.7643 97.3965 66.7434 107.924C83.7226 118.452 109.45 107.691 124.208 83.8888Z" fill="#FFA500"/>
<path d="M119.81 83.8888C134.568 60.0869 132.767 32.2575 115.788 21.73C98.8085 11.2025 73.0806 21.9634 58.3229 45.7653C43.5651 69.5671 45.3659 97.3965 62.345 107.924C79.3241 118.452 105.052 107.691 119.81 83.8888Z" fill="white" stroke="#231F20" stroke-miterlimit="10"/>
<path d="M142.116 169.288C142.116 173.705 123.792 177.349 100.229 177.825C98.4966 177.865 96.7376 177.878 94.9521 177.878C68.9033 177.878 47.7812 174.029 47.7812 169.288C47.7812 164.546 68.8967 160.697 94.9521 160.697C96.7376 160.697 98.4966 160.717 100.229 160.75C123.792 161.226 142.116 164.863 142.116 169.288Z" fill="#F9A31A" stroke="#221F1F" stroke-miterlimit="10"/>
<path d="M139.907 166.504C128.784 168.356 112.761 169.519 94.9518 169.519C77.1428 169.519 61.3509 168.375 50.2344 166.544" stroke="black" stroke-width="0.5" stroke-miterlimit="10"/>
<path d="M50.232 166.543C40.2264 164.897 34.1094 162.694 34.1094 160.274C34.1094 155.169 61.3485 151.022 94.9427 151.022C128.537 151.022 155.776 155.162 155.776 160.274C155.776 162.675 149.758 164.864 139.898 166.504" stroke="#F9A31A" stroke-width="0.5" stroke-miterlimit="10"/>
<path d="M142.116 170.141C130.96 172.065 113.978 173.295 94.952 173.295C75.9263 173.295 59.1953 172.085 48.0391 170.187" stroke="#221F1F" stroke-width="0.5" stroke-miterlimit="10"/>
<path d="M48.0376 170.18C39.3415 168.699 34.1172 166.801 34.1172 164.731C34.1172 160.009 61.3563 156.174 94.9505 156.174C128.545 156.174 155.784 160.003 155.784 164.731C155.784 166.781 150.659 168.659 142.115 170.134" stroke="#F9A31A" stroke-width="0.5" stroke-miterlimit="10"/>
<path d="M139.907 13.2856C159.819 7.67769 173.667 6.69235 175.988 11.6984C180.174 20.7054 145.456 45.7093 98.4437 67.5389C51.4382 89.3686 9.93475 99.7643 5.7553 90.7573C3.04396 84.9114 16.6933 72.34 39.4554 58.2674" stroke="black" stroke-width="0.5" stroke-miterlimit="10"/>
<path d="M155.781 204.085L163.942 180.258" stroke="black" stroke-width="0.5" stroke-miterlimit="10"/>
<path d="M159.867 201.791L168.028 177.964" stroke="black" stroke-width="0.5" stroke-miterlimit="10"/>
<path d="M163.945 201.791L172.106 177.964" stroke="black" stroke-width="0.5" stroke-miterlimit="10"/>
<path d="M169.164 199.271L177.325 175.444" stroke="black" stroke-width="0.5" stroke-miterlimit="10"/>
<mask id="mask0_5305_12924" style="mask-type:luminance" maskUnits="userSpaceOnUse" x="69" y="36" width="44" height="52">
<path d="M69.3906 78.6226L84.2501 36.5835L112.349 45.2201L97.4894 87.2592L69.3906 78.6226Z" fill="white"/>
</mask>
<g mask="url(#mask0_5305_12924)">
<path d="M76.882 74.1057C76.6307 74.0263 80.0695 65.0855 80.0695 65.0855L81.4516 65.5087L83.3562 76.0896L76.8754 74.099M90.0949 75.5341L87.8001 64.444L92.3102 65.8327L93.9238 73.2063L90.0949 75.5341ZM83.1776 56.2571L85.8162 48.7843L87.238 49.2208L88.8979 58.0161L83.1776 56.2571ZM95.0414 56.019L92.9517 46.5822L96.8005 47.7659L98.3545 54.3657L95.0414 56.019ZM102.17 42.0919L84.2423 36.5767L69.3828 78.6157L89.6584 84.8518L101.952 74.5884L97.9974 63.2206L106.363 56.7266L102.17 42.0919Z" fill="black"/>
</g>
<path d="M24.9762 71.1869C23.28 71.871 21.6078 72.616 19.8825 73.2125C18.9496 73.536 18.4673 74.0689 18.1519 74.981C17.5689 76.6673 16.856 78.3084 16.1961 79.9655C16.0769 79.9761 15.9549 79.9894 15.8357 80C15.2898 78.6505 14.6246 77.3327 14.2297 75.9408C13.75 74.2545 12.7986 73.2709 11.1051 72.7936C9.69788 72.3986 8.36484 71.7437 7 71.2055C7.0053 71.0835 7.0106 70.9642 7.0159 70.8422C8.70937 70.1608 10.3869 69.4423 12.1016 68.8193C12.9496 68.5117 13.4717 68.0663 13.7792 67.1728C14.3754 65.4361 15.1281 63.7552 15.8145 62.0504C15.9364 62.0345 16.0583 62.0159 16.1776 62C16.6811 63.2753 17.2933 64.5188 17.659 65.8338C18.1784 67.6924 19.2332 68.8299 21.1281 69.3389C22.4558 69.6942 23.712 70.3226 25 70.829L24.9762 71.1896V71.1869Z" fill="black"/>
<path d="M180.278 141.003C177.845 141.157 175.416 141.398 172.982 141.429C171.666 141.447 170.831 141.919 170.05 142.941C168.604 144.83 167.013 146.608 165.483 148.429C165.327 148.392 165.168 148.358 165.012 148.321C164.888 146.384 164.599 144.437 164.683 142.51C164.783 140.175 163.992 138.53 162.049 137.216C160.434 136.125 159.022 134.737 157.52 133.483C157.578 133.331 157.635 133.182 157.693 133.03C160.122 132.879 162.546 132.673 164.978 132.604C166.18 132.571 167.028 132.226 167.792 131.224C169.275 129.277 170.933 127.465 172.517 125.595C172.678 125.626 172.84 125.654 172.998 125.684C173.1 127.509 173.353 129.34 173.264 131.158C173.142 133.728 173.999 135.61 176.184 137.049C177.715 138.056 179.041 139.378 180.459 140.56L180.277 141.006L180.278 141.003Z" fill="black"/>
</g>
<defs>
<clipPath id="clip0_5305_12924">
<rect width="185.972" height="218.68" fill="white"/>
</clipPath>
</defs>
</svg>
