<svg width="50" height="50" viewBox="0 0 50 50" fill="none" xmlns="http://www.w3.org/2000/svg">
<rect width="50" height="50" rx="25" fill="#F6F6F6"/>
<path d="M19.8789 31.8981C19.4689 31.8981 19.1289 31.5581 19.1289 31.1481V29.0781C19.1289 28.6681 19.4689 28.3281 19.8789 28.3281C20.2889 28.3281 20.6289 28.6681 20.6289 29.0781V31.1481C20.6289 31.5681 20.2889 31.8981 19.8789 31.8981Z" fill="#081131"/>
<path d="M25 31.9C24.59 31.9 24.25 31.56 24.25 31.15V27C24.25 26.59 24.59 26.25 25 26.25C25.41 26.25 25.75 26.59 25.75 27V31.15C25.75 31.57 25.41 31.9 25 31.9Z" fill="#081131"/>
<path d="M30.1211 31.8997C29.7111 31.8997 29.3711 31.5597 29.3711 31.1497V24.9297C29.3711 24.5197 29.7111 24.1797 30.1211 24.1797C30.5311 24.1797 30.8711 24.5197 30.8711 24.9297V31.1497C30.8711 31.5697 30.5411 31.8997 30.1211 31.8997Z" fill="#081131"/>
<path d="M19.8815 26.1814C19.5415 26.1814 19.2415 25.9514 19.1515 25.6114C19.0515 25.2114 19.2915 24.8014 19.7015 24.7014C23.3815 23.7814 26.6215 21.7714 29.0915 18.9014L29.5515 18.3614C29.8215 18.0514 30.2915 18.0114 30.6115 18.2814C30.9215 18.5514 30.9615 19.0214 30.6915 19.3414L30.2315 19.8814C27.5615 23.0014 24.0415 25.1714 20.0615 26.1614C20.0015 26.1814 19.9415 26.1814 19.8815 26.1814Z" fill="#081131"/>
<path d="M30.1214 22.5216C29.7114 22.5216 29.3714 22.1816 29.3714 21.7716V19.6016H27.1914C26.7814 19.6016 26.4414 19.2616 26.4414 18.8516C26.4414 18.4416 26.7814 18.1016 27.1914 18.1016H30.1214C30.5314 18.1016 30.8714 18.4416 30.8714 18.8516V21.7816C30.8714 22.1916 30.5414 22.5216 30.1214 22.5216Z" fill="#081131"/>
<path d="M28 35.75H22C16.57 35.75 14.25 33.43 14.25 28V22C14.25 16.57 16.57 14.25 22 14.25H28C33.43 14.25 35.75 16.57 35.75 22V28C35.75 33.43 33.43 35.75 28 35.75ZM22 15.75C17.39 15.75 15.75 17.39 15.75 22V28C15.75 32.61 17.39 34.25 22 34.25H28C32.61 34.25 34.25 32.61 34.25 28V22C34.25 17.39 32.61 15.75 28 15.75H22Z" fill="#081131"/>
</svg>
