<svg width="50" height="50" viewBox="0 0 50 50" fill="none" xmlns="http://www.w3.org/2000/svg">
<rect width="50" height="50" rx="25" fill="#F6F6F6"/>
<path d="M28 35.75H22C16.57 35.75 14.25 33.43 14.25 28V22C14.25 16.57 16.57 14.25 22 14.25H28C33.43 14.25 35.75 16.57 35.75 22V28C35.75 33.43 33.43 35.75 28 35.75ZM22 15.75C17.39 15.75 15.75 17.39 15.75 22V28C15.75 32.61 17.39 34.25 22 34.25H28C32.61 34.25 34.25 32.61 34.25 28V22C34.25 17.39 32.61 15.75 28 15.75H22Z" fill="#081131"/>
<path d="M21.5678 29.02C21.3778 29.02 21.1878 28.95 21.0378 28.8C20.7478 28.51 20.7478 28.03 21.0378 27.74L27.5878 21.19C27.8778 20.9 28.3578 20.9 28.6478 21.19C28.9378 21.48 28.9378 21.96 28.6478 22.25L22.0978 28.8C21.9478 28.95 21.7578 29.02 21.5678 29.02Z" fill="#081131"/>
<path d="M21.98 24.11C20.89 24.11 20 23.22 20 22.13C20 21.04 20.89 20.15 21.98 20.15C23.07 20.15 23.96 21.04 23.96 22.13C23.96 23.22 23.07 24.11 21.98 24.11ZM21.98 21.66C21.72 21.66 21.5 21.87 21.5 22.14C21.5 22.41 21.71 22.62 21.98 22.62C22.25 22.62 22.46 22.41 22.46 22.14C22.46 21.87 22.24 21.66 21.98 21.66Z" fill="#081131"/>
<path d="M28.519 29.84C27.429 29.84 26.5391 28.95 26.5391 27.86C26.5391 26.77 27.429 25.88 28.519 25.88C29.609 25.88 30.4991 26.77 30.4991 27.86C30.4991 28.95 29.609 29.84 28.519 29.84ZM28.519 27.39C28.259 27.39 28.0391 27.6 28.0391 27.87C28.0391 28.14 28.249 28.35 28.519 28.35C28.789 28.35 28.9991 28.14 28.9991 27.87C28.9991 27.6 28.789 27.39 28.519 27.39Z" fill="#081131"/>
</svg>
