<svg width="50" height="50" viewBox="0 0 50 50" fill="none" xmlns="http://www.w3.org/2000/svg">
<rect width="50" height="50" rx="25" fill="#F6F6F6"/>
<path d="M20.5014 28.25C20.3114 28.25 20.1214 28.18 19.9714 28.03C19.6814 27.74 19.6814 27.26 19.9714 26.97L23.1714 23.77C23.3314 23.61 23.5414 23.53 23.7714 23.55C23.9914 23.57 24.1914 23.69 24.3214 23.88L25.4114 25.52L28.9614 21.97C29.2514 21.68 29.7314 21.68 30.0214 21.97C30.3114 22.26 30.3114 22.74 30.0214 23.03L25.8214 27.23C25.6614 27.39 25.4514 27.47 25.2214 27.45C25.0014 27.43 24.8014 27.31 24.6714 27.12L23.5814 25.48L21.0314 28.03C20.8814 28.18 20.6914 28.25 20.5014 28.25Z" fill="#292D32"/>
<path d="M29.5 25.25C29.09 25.25 28.75 24.91 28.75 24.5V23.25H27.5C27.09 23.25 26.75 22.91 26.75 22.5C26.75 22.09 27.09 21.75 27.5 21.75H29.5C29.91 21.75 30.25 22.09 30.25 22.5V24.5C30.25 24.91 29.91 25.25 29.5 25.25Z" fill="#292D32"/>
<path d="M28 35.75H22C16.57 35.75 14.25 33.43 14.25 28V22C14.25 16.57 16.57 14.25 22 14.25H28C33.43 14.25 35.75 16.57 35.75 22V28C35.75 33.43 33.43 35.75 28 35.75ZM22 15.75C17.39 15.75 15.75 17.39 15.75 22V28C15.75 32.61 17.39 34.25 22 34.25H28C32.61 34.25 34.25 32.61 34.25 28V22C34.25 17.39 32.61 15.75 28 15.75H22Z" fill="#292D32"/>
</svg>
