<svg width="50" height="50" viewBox="0 0 50 50" fill="none" xmlns="http://www.w3.org/2000/svg">
<rect width="50" height="50" rx="7" fill="#FAFAFF"/>
<path d="M21.02 33.25H19.98C17.97 33.25 17 32.32 17 30.4V19.6C17 17.68 17.98 16.75 19.98 16.75H21.02C23.02 16.75 24 17.68 24 19.6V30.4C24 32.32 23.02 33.25 21.02 33.25ZM19.98 18.25C18.71 18.25 18.5 18.59 18.5 19.6V30.4C18.5 31.41 18.71 31.75 19.98 31.75H21.02C22.29 31.75 22.5 31.41 22.5 30.4V19.6C22.5 18.59 22.29 18.25 21.02 18.25H19.98Z" fill="#081131"/>
<path d="M29.52 31.25H28.48C26.47 31.25 25.5 30.32 25.5 28.4V21.6C25.5 19.68 26.48 18.75 28.48 18.75H29.52C31.53 18.75 32.5 19.68 32.5 21.6V28.4C32.5 30.32 31.52 31.25 29.52 31.25ZM28.48 20.25C27.21 20.25 27 20.59 27 21.6V28.4C27 29.41 27.21 29.75 28.48 29.75H29.52C30.79 29.75 31 29.41 31 28.4V21.6C31 20.59 30.79 20.25 29.52 20.25H28.48Z" fill="#081131"/>
<path d="M17.4 25.75H15C14.59 25.75 14.25 25.41 14.25 25C14.25 24.59 14.58 24.25 15 24.25H17.4C17.81 24.25 18.15 24.59 18.15 25C18.15 25.41 17.82 25.75 17.4 25.75Z" fill="#081131"/>
<path d="M26 25.75H24C23.59 25.75 23.25 25.41 23.25 25C23.25 24.59 23.59 24.25 24 24.25H26C26.41 24.25 26.75 24.59 26.75 25C26.75 25.41 26.41 25.75 26 25.75Z" fill="#081131"/>
<path d="M35.0008 25.75H32.3008C31.8908 25.75 31.5508 25.41 31.5508 25C31.5508 24.59 31.8908 24.25 32.3008 24.25H35.0008C35.4108 24.25 35.7508 24.59 35.7508 25C35.7508 25.41 35.4208 25.75 35.0008 25.75Z" fill="#081131"/>
</svg>
