<svg width="50" height="50" viewBox="0 0 50 50" fill="none" xmlns="http://www.w3.org/2000/svg">
<rect width="50" height="50" rx="7" fill="#FAFAFF"/>
<path d="M25 35.7504C21 35.7504 17.75 32.8804 17.75 29.3504V25.6504C17.75 25.2404 18.09 24.9004 18.5 24.9004C18.91 24.9004 19.25 25.2404 19.25 25.6504C19.25 28.2704 21.72 30.2504 25 30.2504C28.28 30.2504 30.75 28.2704 30.75 25.6504C30.75 25.2404 31.09 24.9004 31.5 24.9004C31.91 24.9004 32.25 25.2404 32.25 25.6504V29.3504C32.25 32.8804 29 35.7504 25 35.7504ZM19.25 29.4604C19.32 32.1104 21.87 34.2504 25 34.2504C28.13 34.2504 30.68 32.1104 30.75 29.4604C29.45 30.8704 27.39 31.7504 25 31.7504C22.61 31.7504 20.56 30.8704 19.25 29.4604Z" fill="#081131"/>
<path d="M25 26.75C22.24 26.75 19.76 25.51 18.55 23.51C18.03 22.66 17.75 21.67 17.75 20.65C17.75 18.93 18.52 17.31 19.91 16.09C21.27 14.9 23.08 14.25 25 14.25C26.92 14.25 28.72 14.9 30.09 16.08C31.48 17.31 32.25 18.93 32.25 20.65C32.25 21.67 31.97 22.65 31.45 23.51C30.24 25.51 27.76 26.75 25 26.75ZM25 15.75C23.44 15.75 21.98 16.27 20.89 17.23C19.83 18.15 19.25 19.37 19.25 20.65C19.25 21.4 19.45 22.1 19.83 22.73C20.78 24.29 22.76 25.25 25 25.25C27.24 25.25 29.22 24.28 30.17 22.73C30.56 22.1 30.75 21.4 30.75 20.65C30.75 19.37 30.17 18.15 29.1 17.21C28.01 16.27 26.56 15.75 25 15.75Z" fill="#081131"/>
<path d="M25 31.75C20.87 31.75 17.75 29.13 17.75 25.65V20.65C17.75 17.12 21 14.25 25 14.25C26.92 14.25 28.72 14.9 30.09 16.08C31.48 17.31 32.25 18.93 32.25 20.65V25.65C32.25 29.13 29.13 31.75 25 31.75ZM25 15.75C21.83 15.75 19.25 17.95 19.25 20.65V25.65C19.25 28.27 21.72 30.25 25 30.25C28.28 30.25 30.75 28.27 30.75 25.65V20.65C30.75 19.37 30.17 18.15 29.1 17.21C28.01 16.27 26.56 15.75 25 15.75Z" fill="#081131"/>
</svg>
