<svg width="50" height="50" viewBox="0 0 50 50" fill="none" xmlns="http://www.w3.org/2000/svg">
<rect width="50" height="50" rx="25" fill="#F6F6F6"/>
<mask id="mask0_2090_1551" style="mask-type:alpha" maskUnits="userSpaceOnUse" x="13" y="13" width="24" height="24">
<rect x="13" y="13" width="24" height="24" rx="12" fill="#D9D9D9"/>
</mask>
<g mask="url(#mask0_2090_1551)">
<path d="M21.9025 36.7892H16.9375C15.8766 36.7892 14.8592 36.3678 14.1091 35.6176C13.3589 34.8675 12.9375 33.85 12.9375 32.7892V27.7892C12.9375 26.7283 13.3589 25.7109 14.1091 24.9608C14.8592 24.2106 15.8766 23.7892 16.9375 23.7892H25.7945C26.3357 23.7894 26.8677 23.9294 27.3389 24.1955C28.0403 24.5916 29.0291 24.7097 29.5713 24.114L31.7015 21.7732C31.9676 21.4806 32.2887 21.2433 32.6466 21.0748C33.0044 20.9064 33.392 20.8102 33.7871 20.7916C34.1821 20.773 34.577 20.8325 34.9491 20.9666C35.3211 21.1007 35.6631 21.3068 35.9555 21.5732C36.5389 22.1091 36.8885 22.8527 36.9291 23.6438C36.9696 24.4349 36.698 25.2104 36.1725 25.8032L29.3725 33.4402C28.4336 34.4932 27.2828 35.3359 25.9954 35.9131C24.7081 36.4902 23.3133 36.7888 21.9025 36.7892ZM16.9375 25.7892C16.4071 25.7892 15.8984 25.9999 15.5233 26.375C15.1482 26.75 14.9375 27.2587 14.9375 27.7892V32.7892C14.9375 33.3196 15.1482 33.8283 15.5233 34.2034C15.8984 34.5785 16.4071 34.7892 16.9375 34.7892H21.9025C23.0304 34.7887 24.1455 34.5499 25.1747 34.0884C26.2039 33.6269 27.1239 32.9531 27.8745 32.1112L34.6795 24.4732C34.8562 24.2742 34.9476 24.0137 34.9342 23.748C34.9207 23.4822 34.8034 23.2323 34.6075 23.0522C34.4083 22.8731 34.1471 22.7788 33.8795 22.7892C33.7468 22.7948 33.6166 22.8268 33.4964 22.8833C33.3762 22.9398 33.2685 23.0196 33.1795 23.1182L29.9001 26.7273C29.143 27.5605 28.6518 28.6518 27.7794 29.3633C27.3363 29.7247 26.8034 29.959 26.2375 30.0412L21.0765 30.7792C20.8139 30.8168 20.5472 30.7487 20.3349 30.5896C20.1226 30.4306 19.9822 30.1937 19.9445 29.9312C19.9068 29.6686 19.975 29.4018 20.1341 29.1896C20.2931 28.9773 20.5299 28.8368 20.7925 28.7992L25.9545 28.0622C26.241 28.0221 26.5017 27.8748 26.6838 27.65C26.8659 27.4252 26.9559 27.1396 26.9356 26.851C26.9153 26.5624 26.7862 26.2922 26.5743 26.0952C26.3625 25.8981 26.0838 25.7887 25.7945 25.7892H16.9375Z" fill="#081131"/>
<mask id="mask1_2090_1551" style="mask-type:alpha" maskUnits="userSpaceOnUse" x="5" y="5" width="34" height="19">
<rect x="39.9766" y="18.3789" width="33.7384" height="14.6689" rx="7.33444" transform="rotate(168.595 39.9766 18.3789)" fill="#D9D9D9"/>
</mask>
<g mask="url(#mask1_2090_1551)">
<path d="M26.1854 27.8965C27.6074 27.6096 28.9123 26.9075 29.9353 25.879C30.9582 24.8505 31.6532 23.5417 31.9324 22.1182C32.2115 20.6947 32.0623 19.2204 31.5035 17.8817C30.9448 16.5431 30.0016 15.4001 28.7933 14.5975C27.585 13.7948 26.1658 13.3685 24.7151 13.3724C23.2645 13.3764 21.8477 13.8104 20.6437 14.6196C19.4398 15.4287 18.5028 16.5768 17.9513 17.9185C17.3998 19.2602 17.2586 20.7353 17.5454 22.1572C17.932 24.063 19.0588 25.7375 20.6786 26.8135C22.2983 27.8895 24.2788 28.2789 26.1854 27.8965ZM23.5264 14.7155C24.7114 14.4765 25.9406 14.5942 27.0587 15.0538C28.1768 15.5133 29.1335 16.2941 29.8078 17.2974C30.4821 18.3007 30.8438 19.4815 30.847 20.6903C30.8503 21.8991 30.495 23.0818 29.8262 24.0887C29.1573 25.0957 28.2049 25.8817 27.0893 26.3473C25.9737 26.8129 24.7451 26.9373 23.5589 26.7047C22.3726 26.472 21.282 25.8929 20.4249 25.0404C19.5678 24.1879 18.9827 23.1005 18.7437 21.9155C18.425 20.3267 18.7495 18.6763 19.6462 17.3265C20.5428 15.9767 21.9383 15.0377 23.5264 14.7155Z" fill="#081131"/>
</g>
</g>
</svg>
