<svg width="50" height="50" viewBox="0 0 50 50" fill="none" xmlns="http://www.w3.org/2000/svg">
<rect width="50" height="50" rx="25" fill="#F6F6F6"/>
<path d="M19.8789 31.9C19.4689 31.9 19.1289 31.56 19.1289 31.15V29.08C19.1289 28.67 19.4689 28.33 19.8789 28.33C20.2889 28.33 20.6289 28.67 20.6289 29.08V31.15C20.6289 31.57 20.2889 31.9 19.8789 31.9Z" fill="#081131"/>
<path d="M25 31.9C24.59 31.9 24.25 31.56 24.25 31.15V27C24.25 26.59 24.59 26.25 25 26.25C25.41 26.25 25.75 26.59 25.75 27V31.15C25.75 31.57 25.41 31.9 25 31.9Z" fill="#081131"/>
<path d="M30.1211 31.9001C29.7111 31.9001 29.3711 31.5601 29.3711 31.1501V24.9301C29.3711 24.5201 29.7111 24.1801 30.1211 24.1801C30.5311 24.1801 30.8711 24.5201 30.8711 24.9301V31.1501C30.8711 31.5701 30.5411 31.9001 30.1211 31.9001Z" fill="#081131"/>
<path d="M19.8815 26.18C19.5415 26.18 19.2415 25.95 19.1515 25.61C19.0515 25.21 19.2915 24.8 19.7015 24.7C23.3815 23.78 26.6215 21.77 29.0915 18.9L29.5515 18.36C29.8215 18.05 30.2915 18.01 30.6115 18.28C30.9215 18.55 30.9615 19.02 30.6915 19.34L30.2315 19.88C27.5615 23 24.0415 25.17 20.0615 26.16C20.0015 26.18 19.9415 26.18 19.8815 26.18Z" fill="#081131"/>
<path d="M30.1214 22.52C29.7114 22.52 29.3714 22.18 29.3714 21.77V19.6H27.1914C26.7814 19.6 26.4414 19.26 26.4414 18.85C26.4414 18.44 26.7814 18.1 27.1914 18.1H30.1214C30.5314 18.1 30.8714 18.44 30.8714 18.85V21.78C30.8714 22.19 30.5414 22.52 30.1214 22.52Z" fill="#081131"/>
<path d="M28 35.75H22C16.57 35.75 14.25 33.43 14.25 28V22C14.25 16.57 16.57 14.25 22 14.25H28C33.43 14.25 35.75 16.57 35.75 22V28C35.75 33.43 33.43 35.75 28 35.75ZM22 15.75C17.39 15.75 15.75 17.39 15.75 22V28C15.75 32.61 17.39 34.25 22 34.25H28C32.61 34.25 34.25 32.61 34.25 28V22C34.25 17.39 32.61 15.75 28 15.75H22Z" fill="#081131"/>
</svg>
