<svg width="50" height="50" viewBox="0 0 50 50" fill="none" xmlns="http://www.w3.org/2000/svg">
<rect width="50" height="50" rx="7" fill="#FAFAFF"/>
<path d="M28.9707 35.75H20.9707C17.5507 35.75 16.2207 34.42 16.2207 31V23C16.2207 22.59 16.5607 22.25 16.9707 22.25H32.9707C33.3807 22.25 33.7207 22.59 33.7207 23V31C33.7207 34.42 32.3907 35.75 28.9707 35.75ZM17.7207 23.75V31C17.7207 33.58 18.3907 34.25 20.9707 34.25H28.9707C31.5507 34.25 32.2207 33.58 32.2207 31V23.75H17.7207Z" fill="#081131"/>
<path d="M32.5 23.75H17.5C15.75 23.75 14.75 22.75 14.75 21V20C14.75 18.25 15.75 17.25 17.5 17.25H32.5C34.2 17.25 35.25 18.3 35.25 20V21C35.25 22.7 34.2 23.75 32.5 23.75ZM17.5 18.75C16.59 18.75 16.25 19.09 16.25 20V21C16.25 21.91 16.59 22.25 17.5 22.25H32.5C33.38 22.25 33.75 21.88 33.75 21V20C33.75 19.12 33.38 18.75 32.5 18.75H17.5Z" fill="#081131"/>
<path d="M24.6391 18.7509H19.1191C18.9091 18.7509 18.7091 18.6609 18.5691 18.5109C17.9591 17.8409 17.9791 16.8109 18.6191 16.1709L20.0391 14.7509C20.6991 14.0909 21.7891 14.0909 22.4491 14.7509L25.1691 17.4709C25.3791 17.6809 25.4491 18.0109 25.3291 18.2909C25.2191 18.5709 24.9491 18.7509 24.6391 18.7509ZM19.6691 17.2509H22.8391L21.3891 15.8109C21.3091 15.7309 21.1791 15.7309 21.0991 15.8109L19.6791 17.2309C19.6791 17.2409 19.6691 17.2409 19.6691 17.2509Z" fill="#081131"/>
<path d="M30.8701 18.7509H25.3501C25.0501 18.7509 24.7701 18.5709 24.6601 18.2909C24.5401 18.0109 24.6101 17.6909 24.8201 17.4709L27.5401 14.7509C28.2001 14.0909 29.2901 14.0909 29.9501 14.7509L31.3701 16.1709C32.0101 16.8109 32.0401 17.8409 31.4201 18.5109C31.2801 18.6609 31.0801 18.7509 30.8701 18.7509ZM27.1701 17.2509H30.3401C30.3301 17.2409 30.3301 17.2409 30.3201 17.2309L28.9001 15.8109C28.8201 15.7309 28.6901 15.7309 28.6101 15.8109L27.1701 17.2509Z" fill="#081131"/>
<path d="M22.9395 29.9C22.6595 29.9 22.3695 29.83 22.1095 29.69C21.5395 29.38 21.1895 28.79 21.1895 28.15V23C21.1895 22.59 21.5295 22.25 21.9395 22.25H27.9795C28.3895 22.25 28.7295 22.59 28.7295 23V28.13C28.7295 28.78 28.3795 29.37 27.8095 29.67C27.2395 29.98 26.5495 29.94 26.0095 29.58L25.1195 28.98C25.0395 28.92 24.9295 28.92 24.8395 28.98L23.8995 29.6C23.6095 29.8 23.2695 29.9 22.9395 29.9ZM22.6895 23.75V28.14C22.6895 28.27 22.7695 28.33 22.8195 28.36C22.8695 28.39 22.9695 28.42 23.0795 28.35L24.0195 27.73C24.6095 27.34 25.3695 27.34 25.9495 27.73L26.8395 28.33C26.9495 28.4 27.0495 28.37 27.0995 28.34C27.1495 28.31 27.2295 28.25 27.2295 28.12V23.74H22.6895V23.75Z" fill="#081131"/>
</svg>
