<svg width="50" height="50" viewBox="0 0 50 50" fill="none" xmlns="http://www.w3.org/2000/svg">
<rect width="50" height="50" rx="7" fill="#FAFAFF"/>
<path d="M31.3033 25.8079L30.7534 25.2979L31.3033 25.8079ZM24.2322 18.7369L24.7422 19.2868L24.2322 18.7369ZM34.6606 17.2713L35.4043 17.3686L34.6606 17.2713ZM32.7688 15.3795L32.866 16.1232L32.7688 15.3795ZM19.4941 25.6496L20.1675 25.9798L19.4941 25.6496ZM24.3905 30.546L24.0603 29.8726L24.3905 30.546ZM21.227 23.1562C20.9341 22.8633 20.4593 22.8633 20.1664 23.1562C19.8735 23.4491 19.8735 23.924 20.1664 24.2169L21.227 23.1562ZM25.8232 29.8737C26.1161 30.1666 26.591 30.1666 26.8839 29.8737C27.1768 29.5809 27.1768 29.106 26.8839 28.8131L25.8232 29.8737ZM19.4593 31.6415C19.7522 31.3486 19.7522 30.8737 19.4593 30.5809C19.1664 30.288 18.6915 30.288 18.3986 30.5809L19.4593 31.6415ZM15.5702 33.4093C15.2773 33.7022 15.2773 34.177 15.5702 34.4699C15.8631 34.7628 16.3379 34.7628 16.6308 34.4699L15.5702 33.4093ZM17.3379 29.5202C17.6308 29.2273 17.6308 28.7524 17.3379 28.4595C17.0451 28.1666 16.5702 28.1666 16.2773 28.4595L17.3379 29.5202ZM14.8631 29.8737C14.5702 30.1666 14.5702 30.6415 14.8631 30.9344C15.156 31.2273 15.6308 31.2273 15.9237 30.9344L14.8631 29.8737ZM21.5806 33.7628C21.8735 33.4699 21.8735 32.9951 21.5806 32.7022C21.2877 32.4093 20.8128 32.4093 20.5199 32.7022L21.5806 33.7628ZM19.1057 34.1164C18.8128 34.4093 18.8128 34.8842 19.1057 35.177C19.3986 35.4699 19.8735 35.4699 20.1664 35.177L19.1057 34.1164ZM23.5958 34.081L24.3383 33.975L23.5958 34.081ZM28.7577 30.6162L29.5002 30.5101L28.7577 30.6162ZM15.9591 26.4443L16.0651 25.7018L16.0651 25.7018L15.9591 26.4443ZM19.4239 21.2824L19.3178 22.0249L19.3178 22.0249L19.4239 21.2824ZM22.75 29.629L20.4111 27.2901L19.3505 28.3508L21.6893 30.6897L22.75 29.629ZM30.7534 25.2979C28.8597 27.3396 25.7851 29.0271 24.0603 29.8726L24.7206 31.2195C26.4609 30.3663 29.7565 28.5786 31.8532 26.3179L30.7534 25.2979ZM20.1675 25.9798C21.0131 24.2551 22.7005 21.1804 24.7422 19.2868L23.7222 18.187C21.4616 20.2836 19.6738 23.5793 18.8207 25.3195L20.1675 25.9798ZM33.917 17.1741C33.6131 19.4974 32.8058 23.085 30.7534 25.2979L31.8532 26.3179C34.2487 23.7351 35.0958 19.7276 35.4043 17.3686L33.917 17.1741ZM24.7422 19.2868C26.9551 17.2343 30.5427 16.427 32.866 16.1232L32.6715 14.6358C30.3125 14.9443 26.305 15.7915 23.7222 18.187L24.7422 19.2868ZM35.4043 17.3686C35.6154 15.7547 34.2854 14.4247 32.6715 14.6358L32.866 16.1232C33.503 16.0398 34.0003 16.5371 33.917 17.1741L35.4043 17.3686ZM20.4111 27.2901C20.0479 26.927 19.9592 26.4047 20.1675 25.9798L18.8207 25.3195C18.3125 26.3561 18.5627 27.563 19.3505 28.3508L20.4111 27.2901ZM21.6893 30.6897C22.4771 31.4775 23.684 31.7276 24.7206 31.2195L24.0603 29.8726C23.6354 30.0809 23.1132 29.9922 22.75 29.629L21.6893 30.6897ZM20.1664 24.2169L25.8232 29.8737L26.8839 28.8131L21.227 23.1562L20.1664 24.2169ZM18.3986 30.5809L15.5702 33.4093L16.6308 34.4699L19.4593 31.6415L18.3986 30.5809ZM16.2773 28.4595L14.8631 29.8737L15.9237 30.9344L17.3379 29.5202L16.2773 28.4595ZM20.5199 32.7022L19.1057 34.1164L20.1664 35.177L21.5806 33.7628L20.5199 32.7022ZM26.1768 19.9743C25.1028 21.0482 25.1028 22.7894 26.1768 23.8633L27.2374 22.8027C26.7493 22.3145 26.7493 21.5231 27.2374 21.0349L26.1768 19.9743ZM26.1768 23.8633C27.2507 24.9373 28.9919 24.9373 30.0659 23.8633L29.0052 22.8027C28.5171 23.2908 27.7256 23.2908 27.2374 22.8027L26.1768 23.8633ZM30.0659 23.8633C31.1398 22.7894 31.1398 21.0482 30.0659 19.9743L29.0052 21.0349C29.4934 21.5231 29.4934 22.3145 29.0052 22.8027L30.0659 23.8633ZM30.0659 19.9743C28.9919 18.9003 27.2507 18.9003 26.1768 19.9743L27.2374 21.0349C27.7256 20.5468 28.5171 20.5468 29.0052 21.0349L30.0659 19.9743ZM27.9445 30.9344L24.7626 34.1164L25.8232 35.177L29.0052 31.9951L27.9445 30.9344ZM24.3383 33.975L23.914 31.0051L22.4291 31.2173L22.8534 34.1871L24.3383 33.975ZM27.7324 28.7424L28.0153 30.7223L29.5002 30.5101L29.2173 28.5302L27.7324 28.7424ZM24.7626 34.1164C24.6169 34.2621 24.3674 34.1789 24.3383 33.975L22.8534 34.1871C23.0573 35.6147 24.8035 36.1968 25.8232 35.177L24.7626 34.1164ZM29.0052 31.9951C29.3947 31.6056 29.5781 31.0554 29.5002 30.5101L28.0153 30.7223C28.0264 30.8002 28.0002 30.8788 27.9445 30.9344L29.0052 31.9951ZM18.045 21.0349L14.8631 24.2169L15.9237 25.2776L19.1057 22.0956L18.045 21.0349ZM15.853 27.1868L18.8228 27.611L19.035 26.1261L16.0651 25.7018L15.853 27.1868ZM21.5099 20.8228L19.53 20.54L19.3178 22.0249L21.2977 22.3077L21.5099 20.8228ZM14.8631 24.2169C13.8433 25.2366 14.4254 26.9828 15.853 27.1868L16.0651 25.7018C15.8612 25.6727 15.778 25.4232 15.9237 25.2776L14.8631 24.2169ZM19.1057 22.0956C19.1613 22.04 19.2399 22.0138 19.3178 22.0249L19.53 20.54C18.9847 20.4621 18.4345 20.6454 18.045 21.0349L19.1057 22.0956Z" fill="#081131"/>
</svg>
