<svg width="20" height="20" viewBox="0 0 20 20" fill="none" xmlns="http://www.w3.org/2000/svg">
<path d="M12.5005 18.9583H7.50053C6.40053 18.9583 5.48386 18.85 4.70886 18.6166C4.42553 18.5333 4.24219 18.2583 4.25886 17.9666C4.46719 15.475 6.99219 13.5166 10.0005 13.5166C13.0089 13.5166 15.5255 15.4666 15.7422 17.9666C15.7672 18.2666 15.5839 18.5333 15.2922 18.6166C14.5172 18.85 13.6005 18.9583 12.5005 18.9583ZM5.60053 17.55C6.15053 17.6583 6.77553 17.7083 7.50053 17.7083H12.5005C13.2255 17.7083 13.8505 17.6583 14.4005 17.55C13.9589 15.95 12.1339 14.7666 10.0005 14.7666C7.86719 14.7666 6.0422 15.95 5.60053 17.55Z" fill="#DEDEDE"/>
<path d="M12.4993 1.66699H7.49935C3.33268 1.66699 1.66602 3.33366 1.66602 7.50033V12.5003C1.66602 15.6503 2.61602 17.3753 4.88268 18.017C5.06602 15.8503 7.29102 14.142 9.99935 14.142C12.7077 14.142 14.9327 15.8503 15.116 18.017C17.3827 17.3753 18.3327 15.6503 18.3327 12.5003V7.50033C18.3327 3.33366 16.666 1.66699 12.4993 1.66699ZM9.99935 11.8086C8.34935 11.8086 7.01601 10.467 7.01601 8.81701C7.01601 7.16701 8.34935 5.83366 9.99935 5.83366C11.6493 5.83366 12.9827 7.16701 12.9827 8.81701C12.9827 10.467 11.6493 11.8086 9.99935 11.8086Z" stroke="#DEDEDE" stroke-width="1.5" stroke-linecap="round" stroke-linejoin="round"/>
<path d="M9.99896 12.433C8.00729 12.433 6.39062 10.808 6.39062 8.81636C6.39062 6.82469 8.00729 5.20801 9.99896 5.20801C11.9906 5.20801 13.6073 6.82469 13.6073 8.81636C13.6073 10.808 11.9906 12.433 9.99896 12.433ZM9.99896 6.45801C8.69896 6.45801 7.64062 7.51636 7.64062 8.81636C7.64062 10.1247 8.69896 11.183 9.99896 11.183C11.299 11.183 12.3573 10.1247 12.3573 8.81636C12.3573 7.51636 11.299 6.45801 9.99896 6.45801Z" fill="#DEDEDE"/>
</svg>
