<svg width="20" height="20" viewBox="0 0 20 20" fill="none" xmlns="http://www.w3.org/2000/svg">
<path d="M13.491 1.66699H6.50768C3.47435 1.66699 1.66602 3.47533 1.66602 6.50866V13.492C1.66602 15.8337 2.74102 17.442 4.63268 18.0503C5.18268 18.242 5.81602 18.3337 6.50768 18.3337H13.491C14.1827 18.3337 14.816 18.242 15.366 18.0503C17.2577 17.442 18.3327 15.8337 18.3327 13.492V6.50866C18.3327 3.47533 16.5243 1.66699 13.491 1.66699ZM17.0827 13.492C17.0827 15.2753 16.3827 16.4003 14.9743 16.867C14.166 15.2753 12.2493 14.142 9.99935 14.142C7.74935 14.142 5.84102 15.267 5.02435 16.867H5.01602C3.62435 16.417 2.91602 15.2837 2.91602 13.5003V6.50866C2.91602 4.15866 4.15768 2.91699 6.50768 2.91699H13.491C15.841 2.91699 17.0827 4.15866 17.0827 6.50866V13.492Z" fill="#FFA500"/>
<path d="M9.99896 6.66699C8.34896 6.66699 7.01562 8.00033 7.01562 9.65033C7.01562 11.3003 8.34896 12.642 9.99896 12.642C11.649 12.642 12.9823 11.3003 12.9823 9.65033C12.9823 8.00033 11.649 6.66699 9.99896 6.66699Z" fill="#FFA500"/>
</svg>
