<svg width="17" height="17" viewBox="0 0 17 17" fill="none" xmlns="http://www.w3.org/2000/svg">
<path d="M15.5834 11.8574V3.30779C15.5834 2.45779 14.8892 1.82737 14.0463 1.8982H14.0038C12.5163 2.0257 10.2567 2.78362 8.99592 3.57695L8.8755 3.65487C8.67008 3.78237 8.33008 3.78237 8.12467 3.65487L7.94758 3.54862C6.68675 2.76237 4.43425 2.01154 2.94675 1.89112C2.10383 1.82029 1.41675 2.45779 1.41675 3.3007V11.8574C1.41675 12.5374 1.96925 13.1749 2.64925 13.2599L2.85466 13.2882C4.39175 13.4936 6.76467 14.2728 8.12467 15.0165L8.153 15.0307C8.34425 15.137 8.64883 15.137 8.833 15.0307C10.193 14.2799 12.573 13.4936 14.1172 13.2882L14.3509 13.2599C15.0309 13.1749 15.5834 12.5374 15.5834 11.8574Z" stroke="white" stroke-width="1.2" stroke-linecap="round" stroke-linejoin="round"/>
<path d="M8.5 3.88867V14.5137" stroke="white" stroke-width="1.2" stroke-linecap="round" stroke-linejoin="round"/>
<path d="M5.4895 6.01367H3.89575" stroke="#FFA500" stroke-width="1.2" stroke-linecap="round" stroke-linejoin="round"/>
<path d="M6.02075 8.13867H3.89575" stroke="#FFA500" stroke-width="1.2" stroke-linecap="round" stroke-linejoin="round"/>
</svg>
