<svg width="30" height="30" viewBox="0 0 30 30" fill="none" xmlns="http://www.w3.org/2000/svg">
<path d="M29.551 18.6287C27.5474 26.6644 19.4076 31.5548 11.37 29.5509C3.33573 27.5475 -1.55526 19.4082 0.449326 11.373C2.45204 3.33634 10.5918 -1.55455 18.627 0.448868C26.6642 2.45229 31.5547 10.5925 29.551 18.6287Z" fill="#F7931A"/>
<path fill-rule="evenodd" clip-rule="evenodd" d="M21.8358 13.0404C22.1479 10.9388 20.5594 9.80912 18.3874 9.05547L19.092 6.2087L17.3717 5.77684L16.6857 8.5486C16.2335 8.43509 15.769 8.32799 15.3074 8.22187L15.9983 5.43185L14.279 5L13.5739 7.84579C13.1996 7.75991 12.8321 7.67502 12.4754 7.58569L12.4773 7.57681L10.1049 6.98011L9.64726 8.83091C9.64726 8.83091 10.9236 9.12556 10.8967 9.14382C11.5934 9.31903 11.7194 9.78346 11.6983 10.1516L10.8957 13.3947C10.9437 13.4071 11.006 13.4248 11.0745 13.4525L11.0162 13.4378C10.9763 13.4277 10.935 13.4173 10.8928 13.4071L9.76779 17.9502C9.68254 18.1634 9.46646 18.4832 8.97943 18.3618C8.99658 18.387 7.72902 18.0474 7.72902 18.0474L6.875 20.031L9.11368 20.5931C9.36368 20.6562 9.61068 20.7211 9.8551 20.7853L9.8551 20.7853C10.0179 20.8281 10.1795 20.8705 10.3401 20.912L9.62815 23.7913L11.3465 24.2232L12.0516 21.3744C12.5209 21.5027 12.9766 21.6212 13.4225 21.7327L12.7199 24.5681L14.4402 25L15.1521 22.1261C18.0856 22.6853 20.2914 22.4597 21.2199 19.7872C21.9681 17.6353 21.1827 16.394 19.6393 15.5846C20.7632 15.3235 21.6099 14.5788 21.8358 13.0404ZM17.9052 18.5923C17.4175 20.5665 14.3497 19.7503 12.946 19.3769L12.9459 19.3768C12.8197 19.3433 12.7069 19.3132 12.6106 19.2892L13.5553 15.4745C13.6725 15.504 13.8157 15.5364 13.9779 15.573L13.9779 15.573C15.4297 15.9012 18.405 16.5737 17.9052 18.5923ZM14.2696 13.8028C15.4399 14.1174 17.9927 14.8036 18.4374 13.0093C18.8914 11.1739 16.4103 10.6207 15.1986 10.3505C15.0623 10.3201 14.9421 10.2933 14.8439 10.2686L13.9874 13.7284C14.0683 13.7487 14.1633 13.7742 14.2696 13.8028Z" fill="white"/>
</svg>
