<svg width="12" height="12" viewBox="0 0 12 12" fill="none" xmlns="http://www.w3.org/2000/svg">
<path d="M6 12C2.6862 12 0 9.3138 0 6C0 2.6862 2.6862 0 6 0C9.3138 0 12 2.6862 12 6C12 9.3138 9.3138 12 6 12ZM5.63555 10.1238H6.41484V8.97539C6.63624 8.96399 6.84471 8.9385 7.02891 8.8875C7.26531 8.8221 7.46511 8.72133 7.62891 8.58633C7.79271 8.45013 7.91808 8.28059 8.00508 8.07539C8.09088 7.87019 8.13398 7.62783 8.13398 7.34883C8.13398 7.21203 8.12003 7.08225 8.09063 6.95625C8.06243 6.83025 8.01706 6.71332 7.95586 6.60352C7.89346 6.49372 7.81571 6.39406 7.72031 6.30586C7.62671 6.21706 7.51361 6.14372 7.38281 6.08672C7.53581 6.04292 7.66568 5.9757 7.77188 5.8875C7.87868 5.7987 7.96486 5.69632 8.03086 5.57812C8.09686 5.45992 8.14383 5.33235 8.17383 5.19375C8.20383 5.05635 8.21953 4.91413 8.21953 4.76953C8.21953 4.18993 8.06001 3.75223 7.74141 3.45703C7.43361 3.17143 6.98964 3.02718 6.41484 3.01758V1.90664H5.63555V3.01406H4.38047V8.98594H5.63555V10.1238ZM5.58633 7.98164V6.48867H6.21445C6.45505 6.48807 6.63243 6.5502 6.74883 6.675C6.86463 6.7992 6.92344 6.98167 6.92344 7.22227C6.92344 7.49287 6.86858 7.68649 6.75938 7.80469C6.65018 7.92289 6.47217 7.98164 6.22617 7.98164H5.58633ZM5.58633 5.61094V4.01484H6.35742C6.47502 4.01484 6.57459 4.03387 6.65859 4.07227C6.74199 4.11007 6.80967 4.16556 6.86367 4.23516C6.91647 4.30536 6.95626 4.38591 6.98086 4.47891C7.00546 4.57191 7.01719 4.67491 7.01719 4.78711C7.01719 5.04151 6.97136 5.24185 6.87656 5.38945C6.78296 5.53645 6.62284 5.61094 6.39844 5.61094H5.58633Z" fill="#D6D6D6"/>
</svg>
