<svg width="487" height="285" viewBox="0 0 487 285" fill="none" xmlns="http://www.w3.org/2000/svg">
<g filter="url(#filter0_f_6834_13861)">
<rect x="14.5" y="32.5" width="385" height="238" rx="20.5" stroke="#E6E6E6"/>
<path d="M84.046 97.168C83.2527 97.168 82.576 97.0187 82.016 96.72C81.456 96.412 80.98 95.992 80.588 95.46L81.456 94.732C81.8013 95.1893 82.184 95.5393 82.604 95.782C83.024 96.0153 83.5187 96.132 84.088 96.132C84.788 96.132 85.32 95.964 85.684 95.628C86.0573 95.292 86.244 94.844 86.244 94.284C86.244 93.8173 86.104 93.458 85.824 93.206C85.544 92.954 85.082 92.7533 84.438 92.604L83.64 92.422C82.744 92.2167 82.058 91.9087 81.582 91.498C81.1153 91.078 80.882 90.49 80.882 89.734C80.882 89.3047 80.9613 88.922 81.12 88.586C81.2787 88.25 81.498 87.97 81.778 87.746C82.0673 87.522 82.408 87.354 82.8 87.242C83.2013 87.1207 83.64 87.06 84.116 87.06C84.8533 87.06 85.4833 87.1953 86.006 87.466C86.538 87.7367 86.986 88.1333 87.35 88.656L86.468 89.3C86.1973 88.9267 85.8707 88.6327 85.488 88.418C85.1053 88.2033 84.6293 88.096 84.06 88.096C83.4347 88.096 82.94 88.2313 82.576 88.502C82.2213 88.7633 82.044 89.16 82.044 89.692C82.044 90.1587 82.1933 90.5133 82.492 90.756C82.8 90.9893 83.262 91.176 83.878 91.316L84.676 91.498C85.6373 91.7127 86.3327 92.0393 86.762 92.478C87.1913 92.9167 87.406 93.5 87.406 94.228C87.406 94.676 87.3267 95.082 87.168 95.446C87.0187 95.81 86.7993 96.118 86.51 96.37C86.2207 96.622 85.866 96.818 85.446 96.958C85.0353 97.098 84.5687 97.168 84.046 97.168ZM90.9208 97C90.5288 97 90.2301 96.8927 90.0248 96.678C89.8288 96.454 89.7308 96.1647 89.7308 95.81V90.756H88.5408V89.776H89.2128C89.4554 89.776 89.6188 89.7293 89.7028 89.636C89.7961 89.5333 89.8428 89.3607 89.8428 89.118V87.774H90.8508V89.776H92.4328V90.756H90.8508V96.02H92.3208V97H90.9208ZM99.483 97C99.063 97 98.7596 96.888 98.573 96.664C98.3956 96.44 98.2836 96.16 98.237 95.824H98.167C98.0083 96.272 97.747 96.608 97.383 96.832C97.019 97.056 96.585 97.168 96.081 97.168C95.3156 97.168 94.7183 96.972 94.289 96.58C93.869 96.188 93.659 95.656 93.659 94.984C93.659 94.3027 93.9063 93.78 94.401 93.416C94.905 93.052 95.6843 92.87 96.739 92.87H98.167V92.156C98.167 91.6427 98.027 91.2507 97.747 90.98C97.467 90.7093 97.0376 90.574 96.459 90.574C96.0203 90.574 95.6516 90.672 95.353 90.868C95.0636 91.064 94.821 91.3253 94.625 91.652L93.953 91.022C94.149 90.63 94.4616 90.2987 94.891 90.028C95.3203 89.748 95.8616 89.608 96.515 89.608C97.3923 89.608 98.0736 89.8227 98.559 90.252C99.0443 90.6813 99.287 91.2787 99.287 92.044V96.02H100.113V97H99.483ZM96.263 96.216C96.543 96.216 96.7996 96.1833 97.033 96.118C97.2663 96.0527 97.467 95.9593 97.635 95.838C97.803 95.7167 97.9336 95.5767 98.027 95.418C98.1203 95.2593 98.167 95.0867 98.167 94.9V93.71H96.683C96.039 93.71 95.5676 93.8033 95.269 93.99C94.9796 94.1767 94.835 94.4473 94.835 94.802V95.096C94.835 95.4507 94.961 95.726 95.213 95.922C95.4743 96.118 95.8243 96.216 96.263 96.216ZM101.711 86.64H102.831V93.206H102.887L103.993 91.974L106.037 89.776H107.395L104.721 92.632L107.661 97H106.303L103.909 93.318L102.831 94.424V97H101.711V86.64ZM109.654 88.082C109.412 88.082 109.234 88.026 109.122 87.914C109.02 87.7927 108.968 87.6387 108.968 87.452V87.27C108.968 87.0833 109.02 86.934 109.122 86.822C109.234 86.7007 109.412 86.64 109.654 86.64C109.897 86.64 110.07 86.7007 110.172 86.822C110.284 86.934 110.34 87.0833 110.34 87.27V87.452C110.34 87.6387 110.284 87.7927 110.172 87.914C110.07 88.026 109.897 88.082 109.654 88.082ZM109.094 89.776H110.214V97H109.094V89.776ZM112.594 97V89.776H113.714V90.952H113.77C113.948 90.5413 114.195 90.2147 114.512 89.972C114.839 89.7293 115.273 89.608 115.814 89.608C116.561 89.608 117.149 89.8507 117.578 90.336C118.017 90.812 118.236 91.4887 118.236 92.366V97H117.116V92.562C117.116 91.2647 116.57 90.616 115.478 90.616C115.254 90.616 115.035 90.644 114.82 90.7C114.615 90.756 114.428 90.84 114.26 90.952C114.092 91.064 113.957 91.2087 113.854 91.386C113.761 91.554 113.714 91.7547 113.714 91.988V97H112.594ZM126.641 97.798C126.641 98.5447 126.347 99.0907 125.759 99.436C125.181 99.7907 124.308 99.968 123.141 99.968C122.012 99.968 121.2 99.814 120.705 99.506C120.211 99.198 119.963 98.7593 119.963 98.19C119.963 97.798 120.066 97.49 120.271 97.266C120.477 97.0513 120.757 96.8927 121.111 96.79V96.636C120.682 96.4307 120.467 96.0947 120.467 95.628C120.467 95.264 120.584 94.9887 120.817 94.802C121.051 94.606 121.349 94.4613 121.713 94.368V94.312C121.284 94.1067 120.948 93.8127 120.705 93.43C120.472 93.0473 120.355 92.604 120.355 92.1C120.355 91.736 120.421 91.4 120.551 91.092C120.682 90.784 120.864 90.5227 121.097 90.308C121.34 90.084 121.625 89.9113 121.951 89.79C122.287 89.6687 122.661 89.608 123.071 89.608C123.585 89.608 124.042 89.7013 124.443 89.888V89.762C124.443 89.482 124.509 89.2533 124.639 89.076C124.77 88.8893 124.985 88.796 125.283 88.796H126.361V89.776H124.989V90.238C125.251 90.462 125.451 90.7327 125.591 91.05C125.741 91.358 125.815 91.708 125.815 92.1C125.815 92.464 125.75 92.8 125.619 93.108C125.489 93.416 125.302 93.682 125.059 93.906C124.826 94.1207 124.541 94.2887 124.205 94.41C123.869 94.5313 123.496 94.592 123.085 94.592C122.852 94.592 122.619 94.5687 122.385 94.522C122.143 94.5873 121.923 94.6853 121.727 94.816C121.531 94.9373 121.433 95.11 121.433 95.334C121.433 95.5487 121.536 95.6933 121.741 95.768C121.947 95.8427 122.213 95.88 122.539 95.88H124.079C124.975 95.88 125.624 96.0527 126.025 96.398C126.436 96.734 126.641 97.2007 126.641 97.798ZM125.591 97.882C125.591 97.5927 125.479 97.3593 125.255 97.182C125.041 97.014 124.653 96.93 124.093 96.93H121.685C121.237 97.1353 121.013 97.462 121.013 97.91C121.013 98.2273 121.13 98.498 121.363 98.722C121.606 98.946 122.012 99.058 122.581 99.058H123.617C124.243 99.058 124.728 98.96 125.073 98.764C125.419 98.568 125.591 98.274 125.591 97.882ZM123.085 93.696C123.561 93.696 123.939 93.584 124.219 93.36C124.499 93.1267 124.639 92.772 124.639 92.296V91.904C124.639 91.428 124.499 91.078 124.219 90.854C123.939 90.6207 123.561 90.504 123.085 90.504C122.609 90.504 122.231 90.6207 121.951 90.854C121.671 91.078 121.531 91.428 121.531 91.904V92.296C121.531 92.772 121.671 93.1267 121.951 93.36C122.231 93.584 122.609 93.696 123.085 93.696Z" fill="#71839B"/>
<path d="M81.72 61.04H87.9C89.06 61.04 89.9667 61.3667 90.62 62.02C91.2867 62.6733 91.62 63.5467 91.62 64.64C91.62 65.16 91.5467 65.6067 91.4 65.98C91.2533 66.34 91.0667 66.64 90.84 66.88C90.6133 67.1067 90.3533 67.28 90.06 67.4C89.7667 67.5067 89.48 67.5733 89.2 67.6V67.72C89.48 67.7333 89.7867 67.8 90.12 67.92C90.4667 68.04 90.7867 68.2333 91.08 68.5C91.3733 68.7533 91.62 69.0867 91.82 69.5C92.02 69.9 92.12 70.3933 92.12 70.98C92.12 71.54 92.0267 72.0667 91.84 72.56C91.6667 73.0533 91.42 73.48 91.1 73.84C90.78 74.2 90.4 74.4867 89.96 74.7C89.52 74.9 89.04 75 88.52 75H81.72V61.04ZM83.98 73.06H87.86C88.4467 73.06 88.9067 72.9067 89.24 72.6C89.5733 72.2933 89.74 71.8533 89.74 71.28V70.6C89.74 70.0267 89.5733 69.5867 89.24 69.28C88.9067 68.9733 88.4467 68.82 87.86 68.82H83.98V73.06ZM83.98 66.94H87.48C88.04 66.94 88.4733 66.8 88.78 66.52C89.0867 66.2267 89.24 65.8133 89.24 65.28V64.64C89.24 64.1067 89.0867 63.7 88.78 63.42C88.4733 63.1267 88.04 62.98 87.48 62.98H83.98V66.94ZM99.5758 63.04V75H97.3158V63.04H93.1558V61.04H103.736V63.04H99.5758ZM110.73 75.24C108.903 75.24 107.47 74.6267 106.43 73.4C105.39 72.16 104.87 70.3667 104.87 68.02C104.87 66.8467 105.003 65.8133 105.27 64.92C105.536 64.0267 105.923 63.2733 106.43 62.66C106.936 62.0467 107.55 61.5867 108.27 61.28C109.003 60.96 109.823 60.8 110.73 60.8C111.943 60.8 112.956 61.0667 113.77 61.6C114.596 62.1333 115.243 62.92 115.71 63.96L113.81 65C113.57 64.3333 113.196 63.8067 112.69 63.42C112.196 63.02 111.543 62.82 110.73 62.82C109.65 62.82 108.803 63.1867 108.19 63.92C107.576 64.6533 107.27 65.6667 107.27 66.96V69.08C107.27 70.3733 107.576 71.3867 108.19 72.12C108.803 72.8533 109.65 73.22 110.73 73.22C111.57 73.22 112.25 73.0067 112.77 72.58C113.303 72.14 113.696 71.58 113.95 70.9L115.77 72C115.303 73.0133 114.65 73.8067 113.81 74.38C112.97 74.9533 111.943 75.24 110.73 75.24Z" fill="#081131"/>
<path d="M42.478 176H41.302V166.228H45.194C46.0527 166.228 46.72 166.466 47.196 166.942C47.6813 167.418 47.924 168.104 47.924 169C47.924 169.719 47.756 170.311 47.42 170.778C47.0933 171.235 46.608 171.539 45.964 171.688L48.204 176H46.874L44.76 171.8H42.478V176ZM45.194 170.792C45.6607 170.792 46.02 170.671 46.272 170.428C46.5333 170.185 46.664 169.84 46.664 169.392V168.664C46.664 168.216 46.5333 167.871 46.272 167.628C46.02 167.385 45.6607 167.264 45.194 167.264H42.478V170.792H45.194ZM52.656 176.168C52.1613 176.168 51.7133 176.079 51.312 175.902C50.92 175.725 50.5793 175.473 50.29 175.146C50.01 174.81 49.7907 174.413 49.632 173.956C49.4827 173.489 49.408 172.967 49.408 172.388C49.408 171.819 49.4827 171.301 49.632 170.834C49.7907 170.367 50.01 169.971 50.29 169.644C50.5793 169.308 50.92 169.051 51.312 168.874C51.7133 168.697 52.1613 168.608 52.656 168.608C53.1413 168.608 53.5753 168.697 53.958 168.874C54.3407 169.051 54.6673 169.299 54.938 169.616C55.2087 169.924 55.414 170.293 55.554 170.722C55.7033 171.151 55.778 171.623 55.778 172.136V172.668H50.584V173.004C50.584 173.312 50.6307 173.601 50.724 173.872C50.8267 174.133 50.9667 174.362 51.144 174.558C51.3307 174.754 51.5547 174.908 51.816 175.02C52.0867 175.132 52.39 175.188 52.726 175.188C53.1833 175.188 53.58 175.081 53.916 174.866C54.2613 174.651 54.5273 174.343 54.714 173.942L55.512 174.516C55.2787 175.011 54.9147 175.412 54.42 175.72C53.9253 176.019 53.3373 176.168 52.656 176.168ZM52.656 169.546C52.348 169.546 52.068 169.602 51.816 169.714C51.564 169.817 51.3447 169.966 51.158 170.162C50.9807 170.358 50.8407 170.591 50.738 170.862C50.6353 171.123 50.584 171.413 50.584 171.73V171.828H54.574V171.674C54.574 171.03 54.3967 170.517 54.042 170.134C53.6967 169.742 53.2347 169.546 52.656 169.546ZM58.0156 169.756H56.8396V168.776H58.0156V167.32C58.0156 166.816 58.1463 166.41 58.4076 166.102C58.6689 165.794 59.0656 165.64 59.5976 165.64H60.6896V166.62H59.1356V168.776H60.6896V169.756H59.1356V176H58.0156V169.756ZM64.824 176.168C64.3293 176.168 63.8813 176.079 63.48 175.902C63.088 175.725 62.7473 175.473 62.458 175.146C62.178 174.81 61.9586 174.413 61.8 173.956C61.6506 173.489 61.576 172.967 61.576 172.388C61.576 171.819 61.6506 171.301 61.8 170.834C61.9586 170.367 62.178 169.971 62.458 169.644C62.7473 169.308 63.088 169.051 63.48 168.874C63.8813 168.697 64.3293 168.608 64.824 168.608C65.3093 168.608 65.7433 168.697 66.126 168.874C66.5086 169.051 66.8353 169.299 67.106 169.616C67.3766 169.924 67.582 170.293 67.722 170.722C67.8713 171.151 67.946 171.623 67.946 172.136V172.668H62.752V173.004C62.752 173.312 62.7986 173.601 62.892 173.872C62.9946 174.133 63.1346 174.362 63.312 174.558C63.4986 174.754 63.7226 174.908 63.984 175.02C64.2546 175.132 64.558 175.188 64.894 175.188C65.3513 175.188 65.748 175.081 66.084 174.866C66.4293 174.651 66.6953 174.343 66.882 173.942L67.68 174.516C67.4466 175.011 67.0826 175.412 66.588 175.72C66.0933 176.019 65.5053 176.168 64.824 176.168ZM64.824 169.546C64.516 169.546 64.236 169.602 63.984 169.714C63.732 169.817 63.5126 169.966 63.326 170.162C63.1486 170.358 63.0086 170.591 62.906 170.862C62.8033 171.123 62.752 171.413 62.752 171.73V171.828H66.742V171.674C66.742 171.03 66.5646 170.517 66.21 170.134C65.8646 169.742 65.4026 169.546 64.824 169.546ZM69.7916 176V168.776H70.9116V170.106H70.9816C71.1122 169.761 71.3456 169.453 71.6816 169.182C72.0176 168.911 72.4796 168.776 73.0676 168.776H73.5016V169.896H72.8436C72.2369 169.896 71.7609 170.013 71.4156 170.246C71.0796 170.47 70.9116 170.755 70.9116 171.1V176H69.7916ZM77.5798 176.168C77.0852 176.168 76.6372 176.079 76.2358 175.902C75.8438 175.725 75.5032 175.473 75.2138 175.146C74.9338 174.81 74.7145 174.413 74.5558 173.956C74.4065 173.489 74.3318 172.967 74.3318 172.388C74.3318 171.819 74.4065 171.301 74.5558 170.834C74.7145 170.367 74.9338 169.971 75.2138 169.644C75.5032 169.308 75.8438 169.051 76.2358 168.874C76.6372 168.697 77.0852 168.608 77.5798 168.608C78.0652 168.608 78.4992 168.697 78.8818 168.874C79.2645 169.051 79.5912 169.299 79.8618 169.616C80.1325 169.924 80.3378 170.293 80.4778 170.722C80.6272 171.151 80.7018 171.623 80.7018 172.136V172.668H75.5078V173.004C75.5078 173.312 75.5545 173.601 75.6478 173.872C75.7505 174.133 75.8905 174.362 76.0678 174.558C76.2545 174.754 76.4785 174.908 76.7398 175.02C77.0105 175.132 77.3138 175.188 77.6498 175.188C78.1072 175.188 78.5038 175.081 78.8398 174.866C79.1852 174.651 79.4512 174.343 79.6378 173.942L80.4358 174.516C80.2025 175.011 79.8385 175.412 79.3438 175.72C78.8492 176.019 78.2612 176.168 77.5798 176.168ZM77.5798 169.546C77.2718 169.546 76.9918 169.602 76.7398 169.714C76.4878 169.817 76.2685 169.966 76.0818 170.162C75.9045 170.358 75.7645 170.591 75.6618 170.862C75.5592 171.123 75.5078 171.413 75.5078 171.73V171.828H79.4978V171.674C79.4978 171.03 79.3205 170.517 78.9658 170.134C78.6205 169.742 78.1585 169.546 77.5798 169.546ZM82.5474 176V168.776H83.6674V169.952H83.7234C83.9008 169.541 84.1481 169.215 84.4654 168.972C84.7921 168.729 85.2261 168.608 85.7674 168.608C86.5141 168.608 87.1021 168.851 87.5314 169.336C87.9701 169.812 88.1894 170.489 88.1894 171.366V176H87.0694V171.562C87.0694 170.265 86.5234 169.616 85.4314 169.616C85.2074 169.616 84.9881 169.644 84.7734 169.7C84.5681 169.756 84.3814 169.84 84.2134 169.952C84.0454 170.064 83.9101 170.209 83.8074 170.386C83.7141 170.554 83.6674 170.755 83.6674 170.988V176H82.5474ZM93.1925 176.168C92.6885 176.168 92.2358 176.079 91.8345 175.902C91.4331 175.725 91.0925 175.473 90.8125 175.146C90.5418 174.819 90.3318 174.423 90.1825 173.956C90.0425 173.489 89.9725 172.967 89.9725 172.388C89.9725 171.809 90.0425 171.287 90.1825 170.82C90.3318 170.353 90.5418 169.957 90.8125 169.63C91.0925 169.303 91.4331 169.051 91.8345 168.874C92.2358 168.697 92.6885 168.608 93.1925 168.608C93.9111 168.608 94.4851 168.767 94.9145 169.084C95.3531 169.392 95.6798 169.798 95.8945 170.302L94.9565 170.778C94.8258 170.405 94.6111 170.115 94.3125 169.91C94.0138 169.705 93.6405 169.602 93.1925 169.602C92.8565 169.602 92.5625 169.658 92.3105 169.77C92.0585 169.873 91.8485 170.022 91.6805 170.218C91.5125 170.405 91.3865 170.633 91.3025 170.904C91.2185 171.165 91.1765 171.455 91.1765 171.772V173.004C91.1765 173.639 91.3445 174.161 91.6805 174.572C92.0258 174.973 92.5298 175.174 93.1925 175.174C94.0978 175.174 94.7511 174.754 95.1525 173.914L95.9645 174.46C95.7311 174.983 95.3811 175.398 94.9145 175.706C94.4571 176.014 93.8831 176.168 93.1925 176.168ZM100.179 176.168C99.6848 176.168 99.2368 176.079 98.8354 175.902C98.4434 175.725 98.1028 175.473 97.8134 175.146C97.5334 174.81 97.3141 174.413 97.1554 173.956C97.0061 173.489 96.9314 172.967 96.9314 172.388C96.9314 171.819 97.0061 171.301 97.1554 170.834C97.3141 170.367 97.5334 169.971 97.8134 169.644C98.1028 169.308 98.4434 169.051 98.8354 168.874C99.2368 168.697 99.6848 168.608 100.179 168.608C100.665 168.608 101.099 168.697 101.481 168.874C101.864 169.051 102.191 169.299 102.461 169.616C102.732 169.924 102.937 170.293 103.077 170.722C103.227 171.151 103.301 171.623 103.301 172.136V172.668H98.1074V173.004C98.1074 173.312 98.1541 173.601 98.2474 173.872C98.3501 174.133 98.4901 174.362 98.6674 174.558C98.8541 174.754 99.0781 174.908 99.3394 175.02C99.6101 175.132 99.9134 175.188 100.249 175.188C100.707 175.188 101.103 175.081 101.439 174.866C101.785 174.651 102.051 174.343 102.237 173.942L103.035 174.516C102.802 175.011 102.438 175.412 101.943 175.72C101.449 176.019 100.861 176.168 100.179 176.168ZM100.179 169.546C99.8714 169.546 99.5914 169.602 99.3394 169.714C99.0874 169.817 98.8681 169.966 98.6814 170.162C98.5041 170.358 98.3641 170.591 98.2614 170.862C98.1588 171.123 98.1074 171.413 98.1074 171.73V171.828H102.097V171.674C102.097 171.03 101.92 170.517 101.565 170.134C101.22 169.742 100.758 169.546 100.179 169.546ZM114.686 176L113.706 173.116H109.758L108.778 176H107.588L111.004 166.228H112.502L115.918 176H114.686ZM111.76 167.32H111.69L110.038 172.08H113.412L111.76 167.32ZM117.536 176V166.228H121.428C122.306 166.228 122.978 166.48 123.444 166.984C123.92 167.479 124.158 168.16 124.158 169.028C124.158 169.896 123.92 170.582 123.444 171.086C122.978 171.581 122.306 171.828 121.428 171.828H118.712V176H117.536ZM118.712 170.792H121.428C121.895 170.792 122.254 170.671 122.506 170.428C122.768 170.185 122.898 169.84 122.898 169.392V168.664C122.898 168.216 122.768 167.871 122.506 167.628C122.254 167.385 121.895 167.264 121.428 167.264H118.712V170.792ZM128.267 176V172.136L124.907 166.228H126.251L128.855 170.932H128.897L131.501 166.228H132.845L129.443 172.094V176H128.267Z" fill="#71839B"/>
<path d="M47.18 149V146.28H40.7V144.34L46.36 135.04H49.32V144.5H51.22V146.28H49.32V149H47.18ZM42.62 144.5H47.18V137.1H47.04L42.62 144.5ZM54.8922 149.24C54.3989 149.24 54.0322 149.113 53.7922 148.86C53.5522 148.593 53.4322 148.267 53.4322 147.88V147.58C53.4322 147.193 53.5522 146.873 53.7922 146.62C54.0322 146.353 54.3989 146.22 54.8922 146.22C55.3855 146.22 55.7522 146.353 55.9922 146.62C56.2322 146.873 56.3522 147.193 56.3522 147.58V147.88C56.3522 148.267 56.2322 148.593 55.9922 148.86C55.7522 149.113 55.3855 149.24 54.8922 149.24ZM67.953 137H61.753L61.393 141.94H61.533C61.693 141.66 61.8596 141.413 62.033 141.2C62.2063 140.973 62.4063 140.78 62.633 140.62C62.8596 140.46 63.1196 140.34 63.413 140.26C63.7063 140.167 64.053 140.12 64.453 140.12C65.053 140.12 65.6063 140.22 66.113 140.42C66.633 140.62 67.0796 140.907 67.453 141.28C67.8396 141.653 68.1396 142.113 68.353 142.66C68.5663 143.193 68.673 143.8 68.673 144.48C68.673 145.173 68.5596 145.813 68.333 146.4C68.1196 146.987 67.7996 147.493 67.373 147.92C66.9463 148.333 66.4196 148.66 65.793 148.9C65.1796 149.127 64.4796 149.24 63.693 149.24C63.0663 149.24 62.513 149.167 62.033 149.02C61.553 148.887 61.1263 148.707 60.753 148.48C60.393 148.24 60.073 147.973 59.793 147.68C59.5263 147.373 59.2863 147.06 59.073 146.74L60.713 145.44C60.8863 145.72 61.0663 145.973 61.253 146.2C61.4396 146.427 61.653 146.627 61.893 146.8C62.133 146.973 62.3996 147.107 62.693 147.2C62.9996 147.293 63.3463 147.34 63.733 147.34C64.5596 147.34 65.193 147.113 65.633 146.66C66.0863 146.207 66.313 145.58 66.313 144.78V144.54C66.313 143.74 66.0863 143.113 65.633 142.66C65.193 142.207 64.5596 141.98 63.733 141.98C63.133 141.98 62.653 142.093 62.293 142.32C61.933 142.547 61.6263 142.8 61.373 143.08L59.513 142.82L60.033 135.04H67.953V137ZM73.4052 149L83.0852 135.04H85.1052L75.4252 149H73.4052ZM74.3052 142.72C73.2252 142.72 72.3985 142.387 71.8252 141.72C71.2518 141.04 70.9652 140.053 70.9652 138.76C70.9652 137.467 71.2518 136.487 71.8252 135.82C72.3985 135.14 73.2252 134.8 74.3052 134.8C75.3852 134.8 76.2118 135.14 76.7852 135.82C77.3585 136.487 77.6452 137.467 77.6452 138.76C77.6452 140.053 77.3585 141.04 76.7852 141.72C76.2118 142.387 75.3852 142.72 74.3052 142.72ZM74.3052 141.38C75.2518 141.38 75.7252 140.693 75.7252 139.32V138.2C75.7252 136.827 75.2518 136.14 74.3052 136.14C73.3585 136.14 72.8852 136.827 72.8852 138.2V139.32C72.8852 140.693 73.3585 141.38 74.3052 141.38ZM84.2052 149.24C83.1252 149.24 82.2985 148.907 81.7252 148.24C81.1518 147.56 80.8652 146.573 80.8652 145.28C80.8652 143.987 81.1518 143.007 81.7252 142.34C82.2985 141.66 83.1252 141.32 84.2052 141.32C85.2852 141.32 86.1118 141.66 86.6852 142.34C87.2585 143.007 87.5452 143.987 87.5452 145.28C87.5452 146.573 87.2585 147.56 86.6852 148.24C86.1118 148.907 85.2852 149.24 84.2052 149.24ZM84.2052 147.9C85.1518 147.9 85.6252 147.213 85.6252 145.84V144.72C85.6252 143.347 85.1518 142.66 84.2052 142.66C83.2585 142.66 82.7852 143.347 82.7852 144.72V145.84C82.7852 147.213 83.2585 147.9 84.2052 147.9Z" fill="#0ECB81"/>
<path d="M339.592 167.264V176H338.416V167.264H335.308V166.228H342.7V167.264H339.592ZM346.002 176.168C345.507 176.168 345.059 176.079 344.658 175.902C344.266 175.725 343.925 175.473 343.636 175.146C343.356 174.81 343.136 174.413 342.978 173.956C342.828 173.489 342.754 172.967 342.754 172.388C342.754 171.819 342.828 171.301 342.978 170.834C343.136 170.367 343.356 169.971 343.636 169.644C343.925 169.308 344.266 169.051 344.658 168.874C345.059 168.697 345.507 168.608 346.002 168.608C346.487 168.608 346.921 168.697 347.304 168.874C347.686 169.051 348.013 169.299 348.284 169.616C348.554 169.924 348.76 170.293 348.9 170.722C349.049 171.151 349.124 171.623 349.124 172.136V172.668H343.93V173.004C343.93 173.312 343.976 173.601 344.07 173.872C344.172 174.133 344.312 174.362 344.49 174.558C344.676 174.754 344.9 174.908 345.162 175.02C345.432 175.132 345.736 175.188 346.072 175.188C346.529 175.188 346.926 175.081 347.262 174.866C347.607 174.651 347.873 174.343 348.06 173.942L348.858 174.516C348.624 175.011 348.26 175.412 347.766 175.72C347.271 176.019 346.683 176.168 346.002 176.168ZM346.002 169.546C345.694 169.546 345.414 169.602 345.162 169.714C344.91 169.817 344.69 169.966 344.504 170.162C344.326 170.358 344.186 170.591 344.084 170.862C343.981 171.123 343.93 171.413 343.93 171.73V171.828H347.92V171.674C347.92 171.03 347.742 170.517 347.388 170.134C347.042 169.742 346.58 169.546 346.002 169.546ZM350.969 176V168.776H352.089V170.106H352.159C352.29 169.761 352.523 169.453 352.859 169.182C353.195 168.911 353.657 168.776 354.245 168.776H354.679V169.896H354.021C353.415 169.896 352.939 170.013 352.593 170.246C352.257 170.47 352.089 170.755 352.089 171.1V176H350.969ZM356.11 176V168.776H357.23V169.952H357.286C357.37 169.765 357.463 169.593 357.566 169.434C357.678 169.266 357.809 169.121 357.958 169C358.117 168.879 358.299 168.785 358.504 168.72C358.709 168.645 358.952 168.608 359.232 168.608C359.708 168.608 360.147 168.725 360.548 168.958C360.949 169.182 361.248 169.555 361.444 170.078H361.472C361.603 169.686 361.845 169.345 362.2 169.056C362.564 168.757 363.054 168.608 363.67 168.608C364.407 168.608 364.981 168.851 365.392 169.336C365.812 169.812 366.022 170.489 366.022 171.366V176H364.902V171.562C364.902 170.918 364.776 170.433 364.524 170.106C364.272 169.779 363.871 169.616 363.32 169.616C363.096 169.616 362.881 169.644 362.676 169.7C362.48 169.756 362.303 169.84 362.144 169.952C361.985 170.064 361.859 170.209 361.766 170.386C361.673 170.554 361.626 170.755 361.626 170.988V176H360.506V171.562C360.506 170.918 360.38 170.433 360.128 170.106C359.876 169.779 359.484 169.616 358.952 169.616C358.728 169.616 358.513 169.644 358.308 169.7C358.103 169.756 357.921 169.84 357.762 169.952C357.603 170.064 357.473 170.209 357.37 170.386C357.277 170.554 357.23 170.755 357.23 170.988V176H356.11ZM370.503 176.168C369.831 176.168 369.266 176.042 368.809 175.79C368.361 175.529 367.973 175.183 367.647 174.754L368.445 174.11C368.725 174.465 369.037 174.74 369.383 174.936C369.728 175.123 370.129 175.216 370.587 175.216C371.063 175.216 371.431 175.113 371.693 174.908C371.963 174.703 372.099 174.413 372.099 174.04C372.099 173.76 372.005 173.522 371.819 173.326C371.641 173.121 371.315 172.981 370.839 172.906L370.265 172.822C369.929 172.775 369.621 172.705 369.341 172.612C369.061 172.509 368.813 172.379 368.599 172.22C368.393 172.052 368.23 171.847 368.109 171.604C367.997 171.361 367.941 171.072 367.941 170.736C367.941 170.381 368.006 170.073 368.137 169.812C368.267 169.541 368.445 169.317 368.669 169.14C368.902 168.963 369.177 168.832 369.495 168.748C369.812 168.655 370.153 168.608 370.517 168.608C371.105 168.608 371.595 168.711 371.987 168.916C372.388 169.121 372.738 169.406 373.037 169.77L372.295 170.442C372.136 170.218 371.903 170.017 371.595 169.84C371.287 169.653 370.899 169.56 370.433 169.56C369.966 169.56 369.611 169.663 369.369 169.868C369.135 170.064 369.019 170.335 369.019 170.68C369.019 171.035 369.135 171.291 369.369 171.45C369.611 171.609 369.957 171.725 370.405 171.8L370.965 171.884C371.767 172.005 372.337 172.239 372.673 172.584C373.009 172.92 373.177 173.363 373.177 173.914C373.177 174.614 372.939 175.165 372.463 175.566C371.987 175.967 371.333 176.168 370.503 176.168Z" fill="#71839B"/>
<path d="M307.24 140.78C308.107 140.78 308.747 140.6 309.16 140.24C309.573 139.867 309.78 139.393 309.78 138.82V138.68C309.78 138.04 309.58 137.553 309.18 137.22C308.78 136.873 308.24 136.7 307.56 136.7C306.893 136.7 306.327 136.853 305.86 137.16C305.393 137.453 305 137.867 304.68 138.4L303.18 137.1C303.393 136.793 303.633 136.5 303.9 136.22C304.167 135.94 304.48 135.7 304.84 135.5C305.2 135.287 305.607 135.12 306.06 135C306.513 134.867 307.033 134.8 307.62 134.8C308.273 134.8 308.88 134.88 309.44 135.04C310 135.2 310.48 135.44 310.88 135.76C311.28 136.067 311.593 136.447 311.82 136.9C312.047 137.34 312.16 137.84 312.16 138.4C312.16 138.84 312.087 139.24 311.94 139.6C311.807 139.96 311.613 140.28 311.36 140.56C311.12 140.827 310.833 141.047 310.5 141.22C310.18 141.393 309.84 141.52 309.48 141.6V141.7C309.88 141.78 310.253 141.913 310.6 142.1C310.96 142.273 311.273 142.507 311.54 142.8C311.807 143.08 312.013 143.42 312.16 143.82C312.32 144.207 312.4 144.653 312.4 145.16C312.4 145.773 312.28 146.333 312.04 146.84C311.8 147.333 311.46 147.76 311.02 148.12C310.593 148.48 310.073 148.76 309.46 148.96C308.847 149.147 308.167 149.24 307.42 149.24C306.767 149.24 306.193 149.167 305.7 149.02C305.207 148.887 304.767 148.707 304.38 148.48C304.007 148.24 303.673 147.973 303.38 147.68C303.1 147.373 302.853 147.06 302.64 146.74L304.3 145.44C304.473 145.72 304.653 145.98 304.84 146.22C305.04 146.447 305.26 146.647 305.5 146.82C305.753 146.98 306.033 147.107 306.34 147.2C306.66 147.293 307.02 147.34 307.42 147.34C308.273 147.34 308.927 147.14 309.38 146.74C309.833 146.327 310.06 145.76 310.06 145.04V144.9C310.06 144.18 309.82 143.633 309.34 143.26C308.86 142.887 308.18 142.7 307.3 142.7H305.82V140.78H307.24ZM319.992 149.24C319.126 149.24 318.372 149.08 317.732 148.76C317.092 148.427 316.566 147.953 316.152 147.34C315.739 146.727 315.432 145.973 315.232 145.08C315.032 144.187 314.932 143.167 314.932 142.02C314.932 140.887 315.032 139.873 315.232 138.98C315.432 138.073 315.739 137.313 316.152 136.7C316.566 136.087 317.092 135.62 317.732 135.3C318.372 134.967 319.126 134.8 319.992 134.8C321.726 134.8 322.999 135.433 323.812 136.7C324.639 137.967 325.052 139.74 325.052 142.02C325.052 144.3 324.639 146.073 323.812 147.34C322.999 148.607 321.726 149.24 319.992 149.24ZM319.992 147.32C320.472 147.32 320.879 147.227 321.212 147.04C321.559 146.84 321.839 146.56 322.052 146.2C322.266 145.84 322.419 145.413 322.512 144.92C322.606 144.413 322.652 143.853 322.652 143.24V140.8C322.652 140.187 322.606 139.633 322.512 139.14C322.419 138.633 322.266 138.2 322.052 137.84C321.839 137.48 321.559 137.207 321.212 137.02C320.879 136.82 320.472 136.72 319.992 136.72C319.512 136.72 319.099 136.82 318.752 137.02C318.419 137.207 318.146 137.48 317.932 137.84C317.719 138.2 317.566 138.633 317.472 139.14C317.379 139.633 317.332 140.187 317.332 140.8V143.24C317.332 143.853 317.379 144.413 317.472 144.92C317.566 145.413 317.719 145.84 317.932 146.2C318.146 146.56 318.419 146.84 318.752 147.04C319.099 147.227 319.512 147.32 319.992 147.32ZM338.811 147.28H338.711C338.484 147.893 338.111 148.373 337.591 148.72C337.084 149.067 336.484 149.24 335.791 149.24C334.471 149.24 333.451 148.767 332.731 147.82C332.011 146.86 331.651 145.52 331.651 143.8C331.651 142.08 332.011 140.747 332.731 139.8C333.451 138.84 334.471 138.36 335.791 138.36C336.484 138.36 337.084 138.533 337.591 138.88C338.111 139.213 338.484 139.693 338.711 140.32H338.811V134.2H340.991V149H338.811V147.28ZM336.451 147.36C337.118 147.36 337.678 147.2 338.131 146.88C338.584 146.547 338.811 146.113 338.811 145.58V142.02C338.811 141.487 338.584 141.06 338.131 140.74C337.678 140.407 337.118 140.24 336.451 140.24C335.691 140.24 335.084 140.487 334.631 140.98C334.178 141.46 333.951 142.1 333.951 142.9V144.7C333.951 145.5 334.178 146.147 334.631 146.64C335.084 147.12 335.691 147.36 336.451 147.36ZM351.727 149C351.154 149 350.714 148.84 350.407 148.52C350.1 148.187 349.914 147.767 349.847 147.26H349.747C349.547 147.913 349.18 148.407 348.647 148.74C348.114 149.073 347.467 149.24 346.707 149.24C345.627 149.24 344.794 148.96 344.207 148.4C343.634 147.84 343.347 147.087 343.347 146.14C343.347 145.1 343.72 144.32 344.467 143.8C345.227 143.28 346.334 143.02 347.787 143.02H349.667V142.14C349.667 141.5 349.494 141.007 349.147 140.66C348.8 140.313 348.26 140.14 347.527 140.14C346.914 140.14 346.414 140.273 346.027 140.54C345.64 140.807 345.314 141.147 345.047 141.56L343.747 140.38C344.094 139.793 344.58 139.313 345.207 138.94C345.834 138.553 346.654 138.36 347.667 138.36C349.014 138.36 350.047 138.673 350.767 139.3C351.487 139.927 351.847 140.827 351.847 142V147.22H352.947V149H351.727ZM347.327 147.58C348.007 147.58 348.567 147.433 349.007 147.14C349.447 146.833 349.667 146.427 349.667 145.92V144.42H347.827C346.32 144.42 345.567 144.887 345.567 145.82V146.18C345.567 146.647 345.72 147 346.027 147.24C346.347 147.467 346.78 147.58 347.327 147.58ZM361.327 138.6H363.427L359.047 151.06C358.927 151.407 358.787 151.7 358.627 151.94C358.48 152.193 358.3 152.393 358.087 152.54C357.887 152.7 357.64 152.813 357.347 152.88C357.053 152.96 356.707 153 356.307 153H355.047V151.22H356.807L357.407 149.46L353.627 138.6H355.807L357.887 144.72L358.487 146.98H358.587L359.247 144.72L361.327 138.6ZM368.403 149.24C367.416 149.24 366.59 149.067 365.923 148.72C365.256 148.373 364.676 147.893 364.183 147.28L365.583 146C365.97 146.467 366.396 146.833 366.863 147.1C367.343 147.353 367.896 147.48 368.523 147.48C369.163 147.48 369.636 147.36 369.943 147.12C370.263 146.867 370.423 146.52 370.423 146.08C370.423 145.747 370.31 145.467 370.083 145.24C369.87 145 369.49 144.847 368.943 144.78L367.983 144.66C366.916 144.527 366.076 144.22 365.463 143.74C364.863 143.247 364.563 142.52 364.563 141.56C364.563 141.053 364.656 140.607 364.843 140.22C365.03 139.82 365.29 139.487 365.623 139.22C365.97 138.94 366.376 138.727 366.843 138.58C367.323 138.433 367.85 138.36 368.423 138.36C369.356 138.36 370.116 138.507 370.703 138.8C371.303 139.093 371.836 139.5 372.303 140.02L370.963 141.3C370.696 140.98 370.343 140.707 369.903 140.48C369.476 140.24 368.983 140.12 368.423 140.12C367.823 140.12 367.376 140.24 367.083 140.48C366.803 140.72 366.663 141.033 366.663 141.42C366.663 141.82 366.79 142.12 367.043 142.32C367.296 142.52 367.703 142.667 368.263 142.76L369.223 142.88C370.37 143.053 371.203 143.393 371.723 143.9C372.256 144.393 372.523 145.06 372.523 145.9C372.523 146.407 372.423 146.867 372.223 147.28C372.036 147.68 371.763 148.027 371.403 148.32C371.043 148.613 370.61 148.84 370.103 149C369.596 149.16 369.03 149.24 368.403 149.24Z" fill="#081131"/>
<g filter="url(#filter1_d_6834_13861)">
<rect x="40" y="206" width="334" height="44" rx="22" fill="white"/>
<rect x="40.5" y="206.5" width="333" height="43" rx="21.5" stroke="#D0D5DD"/>
<path d="M182.63 233.168C181.809 233.168 181.109 233.019 180.53 232.72C179.961 232.421 179.471 232.02 179.06 231.516L180.152 230.494C180.497 230.914 180.875 231.231 181.286 231.446C181.706 231.661 182.182 231.768 182.714 231.768C183.339 231.768 183.811 231.628 184.128 231.348C184.445 231.068 184.604 230.69 184.604 230.214C184.604 229.831 184.492 229.528 184.268 229.304C184.044 229.08 183.647 228.912 183.078 228.8L182.21 228.646C181.258 228.469 180.544 228.156 180.068 227.708C179.592 227.26 179.354 226.644 179.354 225.86C179.354 225.431 179.433 225.043 179.592 224.698C179.76 224.343 179.989 224.049 180.278 223.816C180.577 223.573 180.936 223.387 181.356 223.256C181.776 223.125 182.247 223.06 182.77 223.06C183.507 223.06 184.147 223.191 184.688 223.452C185.229 223.704 185.691 224.073 186.074 224.558L184.968 225.538C184.716 225.211 184.408 224.95 184.044 224.754C183.68 224.558 183.227 224.46 182.686 224.46C182.126 224.46 181.692 224.572 181.384 224.796C181.076 225.02 180.922 225.347 180.922 225.776C180.922 226.187 181.048 226.495 181.3 226.7C181.552 226.896 181.944 227.045 182.476 227.148L183.344 227.33C184.324 227.517 185.038 227.834 185.486 228.282C185.943 228.73 186.172 229.346 186.172 230.13C186.172 230.587 186.093 231.003 185.934 231.376C185.775 231.749 185.542 232.071 185.234 232.342C184.935 232.603 184.567 232.809 184.128 232.958C183.689 233.098 183.19 233.168 182.63 233.168ZM192.369 231.796H192.313C192.248 231.973 192.159 232.146 192.047 232.314C191.945 232.482 191.809 232.631 191.641 232.762C191.483 232.883 191.287 232.981 191.053 233.056C190.829 233.131 190.568 233.168 190.269 233.168C189.513 233.168 188.925 232.925 188.505 232.44C188.095 231.955 187.889 231.259 187.889 230.354V225.72H189.415V230.158C189.415 231.287 189.882 231.852 190.815 231.852C191.011 231.852 191.203 231.829 191.389 231.782C191.576 231.726 191.739 231.647 191.879 231.544C192.029 231.441 192.145 231.311 192.229 231.152C192.323 230.993 192.369 230.807 192.369 230.592V225.72H193.895V233H192.369V231.796ZM196.08 222.64H197.606V226.924H197.676C197.835 226.485 198.092 226.149 198.446 225.916C198.81 225.673 199.235 225.552 199.72 225.552C200.644 225.552 201.358 225.888 201.862 226.56C202.366 227.223 202.618 228.156 202.618 229.36C202.618 230.564 202.366 231.502 201.862 232.174C201.358 232.837 200.644 233.168 199.72 233.168C199.235 233.168 198.81 233.047 198.446 232.804C198.092 232.561 197.835 232.225 197.676 231.796H197.606V233H196.08V222.64ZM199.258 231.852C199.79 231.852 200.215 231.684 200.532 231.348C200.85 231.003 201.008 230.55 201.008 229.99V228.73C201.008 228.17 200.85 227.722 200.532 227.386C200.215 227.041 199.79 226.868 199.258 226.868C198.792 226.868 198.4 226.985 198.082 227.218C197.765 227.442 197.606 227.741 197.606 228.114V230.606C197.606 230.979 197.765 231.283 198.082 231.516C198.4 231.74 198.792 231.852 199.258 231.852ZM206.675 233.168C205.985 233.168 205.406 233.047 204.939 232.804C204.473 232.561 204.067 232.225 203.721 231.796L204.701 230.9C204.972 231.227 205.271 231.483 205.597 231.67C205.933 231.847 206.321 231.936 206.759 231.936C207.207 231.936 207.539 231.852 207.753 231.684C207.977 231.507 208.089 231.264 208.089 230.956C208.089 230.723 208.01 230.527 207.851 230.368C207.702 230.2 207.436 230.093 207.053 230.046L206.381 229.962C205.635 229.869 205.047 229.654 204.617 229.318C204.197 228.973 203.987 228.464 203.987 227.792C203.987 227.437 204.053 227.125 204.183 226.854C204.314 226.574 204.496 226.341 204.729 226.154C204.972 225.958 205.257 225.809 205.583 225.706C205.919 225.603 206.288 225.552 206.689 225.552C207.343 225.552 207.875 225.655 208.285 225.86C208.705 226.065 209.079 226.35 209.405 226.714L208.467 227.61C208.281 227.386 208.033 227.195 207.725 227.036C207.427 226.868 207.081 226.784 206.689 226.784C206.269 226.784 205.957 226.868 205.751 227.036C205.555 227.204 205.457 227.423 205.457 227.694C205.457 227.974 205.546 228.184 205.723 228.324C205.901 228.464 206.185 228.567 206.577 228.632L207.249 228.716C208.052 228.837 208.635 229.075 208.999 229.43C209.373 229.775 209.559 230.242 209.559 230.83C209.559 231.185 209.489 231.507 209.349 231.796C209.219 232.076 209.027 232.319 208.775 232.524C208.523 232.729 208.22 232.888 207.865 233C207.511 233.112 207.114 233.168 206.675 233.168ZM211.283 233V225.72H212.809V227.12H212.879C212.982 226.747 213.197 226.42 213.523 226.14C213.85 225.86 214.303 225.72 214.881 225.72H215.287V227.19H214.685C214.079 227.19 213.612 227.288 213.285 227.484C212.968 227.68 212.809 227.969 212.809 228.352V233H211.283ZM217.413 224.418C217.095 224.418 216.862 224.343 216.713 224.194C216.573 224.045 216.503 223.853 216.503 223.62V223.382C216.503 223.149 216.573 222.957 216.713 222.808C216.862 222.659 217.095 222.584 217.413 222.584C217.73 222.584 217.959 222.659 218.099 222.808C218.239 222.957 218.309 223.149 218.309 223.382V223.62C218.309 223.853 218.239 224.045 218.099 224.194C217.959 224.343 217.73 224.418 217.413 224.418ZM216.643 225.72H218.169V233H216.643V225.72ZM220.348 222.64H221.874V226.924H221.944C222.103 226.485 222.359 226.149 222.714 225.916C223.078 225.673 223.503 225.552 223.988 225.552C224.912 225.552 225.626 225.888 226.13 226.56C226.634 227.223 226.886 228.156 226.886 229.36C226.886 230.564 226.634 231.502 226.13 232.174C225.626 232.837 224.912 233.168 223.988 233.168C223.503 233.168 223.078 233.047 222.714 232.804C222.359 232.561 222.103 232.225 221.944 231.796H221.874V233H220.348V222.64ZM223.526 231.852C224.058 231.852 224.483 231.684 224.8 231.348C225.117 231.003 225.276 230.55 225.276 229.99V228.73C225.276 228.17 225.117 227.722 224.8 227.386C224.483 227.041 224.058 226.868 223.526 226.868C223.059 226.868 222.667 226.985 222.35 227.218C222.033 227.442 221.874 227.741 221.874 228.114V230.606C221.874 230.979 222.033 231.283 222.35 231.516C222.667 231.74 223.059 231.852 223.526 231.852ZM231.489 233.168C230.966 233.168 230.5 233.079 230.089 232.902C229.678 232.725 229.328 232.473 229.039 232.146C228.75 231.81 228.526 231.409 228.367 230.942C228.218 230.466 228.143 229.939 228.143 229.36C228.143 228.781 228.218 228.259 228.367 227.792C228.526 227.316 228.75 226.915 229.039 226.588C229.328 226.252 229.678 225.995 230.089 225.818C230.5 225.641 230.966 225.552 231.489 225.552C232.021 225.552 232.488 225.645 232.889 225.832C233.3 226.019 233.64 226.28 233.911 226.616C234.182 226.943 234.382 227.325 234.513 227.764C234.653 228.203 234.723 228.674 234.723 229.178V229.752H229.725V229.99C229.725 230.55 229.888 231.012 230.215 231.376C230.551 231.731 231.027 231.908 231.643 231.908C232.091 231.908 232.469 231.81 232.777 231.614C233.085 231.418 233.346 231.152 233.561 230.816L234.457 231.698C234.186 232.146 233.794 232.505 233.281 232.776C232.768 233.037 232.17 233.168 231.489 233.168ZM231.489 226.742C231.228 226.742 230.985 226.789 230.761 226.882C230.546 226.975 230.36 227.106 230.201 227.274C230.052 227.442 229.935 227.643 229.851 227.876C229.767 228.109 229.725 228.366 229.725 228.646V228.744H233.113V228.604C233.113 228.044 232.968 227.596 232.679 227.26C232.39 226.915 231.993 226.742 231.489 226.742Z" fill="#081131"/>
</g>
<path d="M69.551 81.6287C67.5474 89.6644 59.4076 94.5548 51.37 92.5509C43.3357 90.5475 38.4447 82.4082 40.4493 74.373C42.452 66.3363 50.5918 61.4455 58.627 63.4489C66.6642 65.4523 71.5547 73.5925 69.551 81.6287Z" fill="#F7931A"/>
<path fill-rule="evenodd" clip-rule="evenodd" d="M61.8358 76.0404C62.1479 73.9388 60.5594 72.8091 58.3874 72.0555L59.092 69.2087L57.3717 68.7768L56.6857 71.5486C56.2335 71.4351 55.769 71.328 55.3074 71.2219L55.9983 68.4319L54.279 68L53.5739 70.8458C53.1996 70.7599 52.8321 70.675 52.4754 70.5857L52.4773 70.5768L50.1049 69.9801L49.6473 71.8309C49.6473 71.8309 50.9236 72.1256 50.8967 72.1438C51.5934 72.319 51.7194 72.7835 51.6983 73.1516L50.8957 76.3947C50.9437 76.4071 51.006 76.4248 51.0745 76.4525L51.0162 76.4378C50.9763 76.4277 50.935 76.4173 50.8928 76.4071L49.7678 80.9502C49.6825 81.1634 49.4665 81.4832 48.9794 81.3618C48.9966 81.387 47.729 81.0474 47.729 81.0474L46.875 83.031L49.1137 83.5931C49.3637 83.6562 49.6107 83.7211 49.8551 83.7853L49.8551 83.7853C50.0179 83.8281 50.1795 83.8705 50.3401 83.912L49.6282 86.7913L51.3465 87.2232L52.0516 84.3744C52.5209 84.5027 52.9766 84.6212 53.4225 84.7327L52.7199 87.5681L54.4402 88L55.1521 85.1261C58.0856 85.6853 60.2914 85.4597 61.2199 82.7872C61.9681 80.6353 61.1827 79.394 59.6393 78.5846C60.7632 78.3235 61.6099 77.5788 61.8358 76.0404ZM57.9052 81.5923C57.4175 83.5665 54.3497 82.7503 52.946 82.3769L52.9459 82.3768C52.8197 82.3433 52.7069 82.3132 52.6106 82.2892L53.5553 78.4745C53.6725 78.504 53.8157 78.5364 53.9779 78.573L53.9779 78.573C55.4297 78.9012 58.405 79.5737 57.9052 81.5923ZM54.2696 76.8028C55.4399 77.1174 57.9927 77.8036 58.4374 76.0093C58.8914 74.1739 56.4103 73.6207 55.1986 73.3505C55.0623 73.3201 54.9421 73.2933 54.8439 73.2686L53.9874 76.7284C54.0683 76.7487 54.1633 76.7742 54.2696 76.8028Z" fill="white"/>
</g>
<g filter="url(#filter2_f_6834_13861)">
<rect x="95.5" y="6.5" width="385" height="238" rx="20.5" fill="white" stroke="#E6E6E6"/>
<path d="M165.046 71.168C164.253 71.168 163.576 71.0187 163.016 70.72C162.456 70.412 161.98 69.992 161.588 69.46L162.456 68.732C162.801 69.1893 163.184 69.5393 163.604 69.782C164.024 70.0153 164.519 70.132 165.088 70.132C165.788 70.132 166.32 69.964 166.684 69.628C167.057 69.292 167.244 68.844 167.244 68.284C167.244 67.8173 167.104 67.458 166.824 67.206C166.544 66.954 166.082 66.7533 165.438 66.604L164.64 66.422C163.744 66.2167 163.058 65.9087 162.582 65.498C162.115 65.078 161.882 64.49 161.882 63.734C161.882 63.3047 161.961 62.922 162.12 62.586C162.279 62.25 162.498 61.97 162.778 61.746C163.067 61.522 163.408 61.354 163.8 61.242C164.201 61.1207 164.64 61.06 165.116 61.06C165.853 61.06 166.483 61.1953 167.006 61.466C167.538 61.7367 167.986 62.1333 168.35 62.656L167.468 63.3C167.197 62.9267 166.871 62.6327 166.488 62.418C166.105 62.2033 165.629 62.096 165.06 62.096C164.435 62.096 163.94 62.2313 163.576 62.502C163.221 62.7633 163.044 63.16 163.044 63.692C163.044 64.1587 163.193 64.5133 163.492 64.756C163.8 64.9893 164.262 65.176 164.878 65.316L165.676 65.498C166.637 65.7127 167.333 66.0393 167.762 66.478C168.191 66.9167 168.406 67.5 168.406 68.228C168.406 68.676 168.327 69.082 168.168 69.446C168.019 69.81 167.799 70.118 167.51 70.37C167.221 70.622 166.866 70.818 166.446 70.958C166.035 71.098 165.569 71.168 165.046 71.168ZM171.921 71C171.529 71 171.23 70.8927 171.025 70.678C170.829 70.454 170.731 70.1647 170.731 69.81V64.756H169.541V63.776H170.213C170.455 63.776 170.619 63.7293 170.703 63.636C170.796 63.5333 170.843 63.3607 170.843 63.118V61.774H171.851V63.776H173.433V64.756H171.851V70.02H173.321V71H171.921ZM180.483 71C180.063 71 179.76 70.888 179.573 70.664C179.396 70.44 179.284 70.16 179.237 69.824H179.167C179.008 70.272 178.747 70.608 178.383 70.832C178.019 71.056 177.585 71.168 177.081 71.168C176.316 71.168 175.718 70.972 175.289 70.58C174.869 70.188 174.659 69.656 174.659 68.984C174.659 68.3027 174.906 67.78 175.401 67.416C175.905 67.052 176.684 66.87 177.739 66.87H179.167V66.156C179.167 65.6427 179.027 65.2507 178.747 64.98C178.467 64.7093 178.038 64.574 177.459 64.574C177.02 64.574 176.652 64.672 176.353 64.868C176.064 65.064 175.821 65.3253 175.625 65.652L174.953 65.022C175.149 64.63 175.462 64.2987 175.891 64.028C176.32 63.748 176.862 63.608 177.515 63.608C178.392 63.608 179.074 63.8227 179.559 64.252C180.044 64.6813 180.287 65.2787 180.287 66.044V70.02H181.113V71H180.483ZM177.263 70.216C177.543 70.216 177.8 70.1833 178.033 70.118C178.266 70.0527 178.467 69.9593 178.635 69.838C178.803 69.7167 178.934 69.5767 179.027 69.418C179.12 69.2593 179.167 69.0867 179.167 68.9V67.71H177.683C177.039 67.71 176.568 67.8033 176.269 67.99C175.98 68.1767 175.835 68.4473 175.835 68.802V69.096C175.835 69.4507 175.961 69.726 176.213 69.922C176.474 70.118 176.824 70.216 177.263 70.216ZM182.711 60.64H183.831V67.206H183.887L184.993 65.974L187.037 63.776H188.395L185.721 66.632L188.661 71H187.303L184.909 67.318L183.831 68.424V71H182.711V60.64ZM190.654 62.082C190.412 62.082 190.234 62.026 190.122 61.914C190.02 61.7927 189.968 61.6387 189.968 61.452V61.27C189.968 61.0833 190.02 60.934 190.122 60.822C190.234 60.7007 190.412 60.64 190.654 60.64C190.897 60.64 191.07 60.7007 191.172 60.822C191.284 60.934 191.34 61.0833 191.34 61.27V61.452C191.34 61.6387 191.284 61.7927 191.172 61.914C191.07 62.026 190.897 62.082 190.654 62.082ZM190.094 63.776H191.214V71H190.094V63.776ZM193.594 71V63.776H194.714V64.952H194.77C194.948 64.5413 195.195 64.2147 195.512 63.972C195.839 63.7293 196.273 63.608 196.814 63.608C197.561 63.608 198.149 63.8507 198.578 64.336C199.017 64.812 199.236 65.4887 199.236 66.366V71H198.116V66.562C198.116 65.2647 197.57 64.616 196.478 64.616C196.254 64.616 196.035 64.644 195.82 64.7C195.615 64.756 195.428 64.84 195.26 64.952C195.092 65.064 194.957 65.2087 194.854 65.386C194.761 65.554 194.714 65.7547 194.714 65.988V71H193.594ZM207.641 71.798C207.641 72.5447 207.347 73.0907 206.759 73.436C206.181 73.7907 205.308 73.968 204.141 73.968C203.012 73.968 202.2 73.814 201.705 73.506C201.211 73.198 200.963 72.7593 200.963 72.19C200.963 71.798 201.066 71.49 201.271 71.266C201.477 71.0513 201.757 70.8927 202.111 70.79V70.636C201.682 70.4307 201.467 70.0947 201.467 69.628C201.467 69.264 201.584 68.9887 201.817 68.802C202.051 68.606 202.349 68.4613 202.713 68.368V68.312C202.284 68.1067 201.948 67.8127 201.705 67.43C201.472 67.0473 201.355 66.604 201.355 66.1C201.355 65.736 201.421 65.4 201.551 65.092C201.682 64.784 201.864 64.5227 202.097 64.308C202.34 64.084 202.625 63.9113 202.951 63.79C203.287 63.6687 203.661 63.608 204.071 63.608C204.585 63.608 205.042 63.7013 205.443 63.888V63.762C205.443 63.482 205.509 63.2533 205.639 63.076C205.77 62.8893 205.985 62.796 206.283 62.796H207.361V63.776H205.989V64.238C206.251 64.462 206.451 64.7327 206.591 65.05C206.741 65.358 206.815 65.708 206.815 66.1C206.815 66.464 206.75 66.8 206.619 67.108C206.489 67.416 206.302 67.682 206.059 67.906C205.826 68.1207 205.541 68.2887 205.205 68.41C204.869 68.5313 204.496 68.592 204.085 68.592C203.852 68.592 203.619 68.5687 203.385 68.522C203.143 68.5873 202.923 68.6853 202.727 68.816C202.531 68.9373 202.433 69.11 202.433 69.334C202.433 69.5487 202.536 69.6933 202.741 69.768C202.947 69.8427 203.213 69.88 203.539 69.88H205.079C205.975 69.88 206.624 70.0527 207.025 70.398C207.436 70.734 207.641 71.2007 207.641 71.798ZM206.591 71.882C206.591 71.5927 206.479 71.3593 206.255 71.182C206.041 71.014 205.653 70.93 205.093 70.93H202.685C202.237 71.1353 202.013 71.462 202.013 71.91C202.013 72.2273 202.13 72.498 202.363 72.722C202.606 72.946 203.012 73.058 203.581 73.058H204.617C205.243 73.058 205.728 72.96 206.073 72.764C206.419 72.568 206.591 72.274 206.591 71.882ZM204.085 67.696C204.561 67.696 204.939 67.584 205.219 67.36C205.499 67.1267 205.639 66.772 205.639 66.296V65.904C205.639 65.428 205.499 65.078 205.219 64.854C204.939 64.6207 204.561 64.504 204.085 64.504C203.609 64.504 203.231 64.6207 202.951 64.854C202.671 65.078 202.531 65.428 202.531 65.904V66.296C202.531 66.772 202.671 67.1267 202.951 67.36C203.231 67.584 203.609 67.696 204.085 67.696Z" fill="#71839B"/>
<path d="M162.72 35.04H168.9C170.06 35.04 170.967 35.3667 171.62 36.02C172.287 36.6733 172.62 37.5467 172.62 38.64C172.62 39.16 172.547 39.6067 172.4 39.98C172.253 40.34 172.067 40.64 171.84 40.88C171.613 41.1067 171.353 41.28 171.06 41.4C170.767 41.5067 170.48 41.5733 170.2 41.6V41.72C170.48 41.7333 170.787 41.8 171.12 41.92C171.467 42.04 171.787 42.2333 172.08 42.5C172.373 42.7533 172.62 43.0867 172.82 43.5C173.02 43.9 173.12 44.3933 173.12 44.98C173.12 45.54 173.027 46.0667 172.84 46.56C172.667 47.0533 172.42 47.48 172.1 47.84C171.78 48.2 171.4 48.4867 170.96 48.7C170.52 48.9 170.04 49 169.52 49H162.72V35.04ZM164.98 47.06H168.86C169.447 47.06 169.907 46.9067 170.24 46.6C170.573 46.2933 170.74 45.8533 170.74 45.28V44.6C170.74 44.0267 170.573 43.5867 170.24 43.28C169.907 42.9733 169.447 42.82 168.86 42.82H164.98V47.06ZM164.98 40.94H168.48C169.04 40.94 169.473 40.8 169.78 40.52C170.087 40.2267 170.24 39.8133 170.24 39.28V38.64C170.24 38.1067 170.087 37.7 169.78 37.42C169.473 37.1267 169.04 36.98 168.48 36.98H164.98V40.94ZM180.576 37.04V49H178.316V37.04H174.156V35.04H184.736V37.04H180.576ZM191.73 49.24C189.903 49.24 188.47 48.6267 187.43 47.4C186.39 46.16 185.87 44.3667 185.87 42.02C185.87 40.8467 186.003 39.8133 186.27 38.92C186.536 38.0267 186.923 37.2733 187.43 36.66C187.936 36.0467 188.55 35.5867 189.27 35.28C190.003 34.96 190.823 34.8 191.73 34.8C192.943 34.8 193.956 35.0667 194.77 35.6C195.596 36.1333 196.243 36.92 196.71 37.96L194.81 39C194.57 38.3333 194.196 37.8067 193.69 37.42C193.196 37.02 192.543 36.82 191.73 36.82C190.65 36.82 189.803 37.1867 189.19 37.92C188.576 38.6533 188.27 39.6667 188.27 40.96V43.08C188.27 44.3733 188.576 45.3867 189.19 46.12C189.803 46.8533 190.65 47.22 191.73 47.22C192.57 47.22 193.25 47.0067 193.77 46.58C194.303 46.14 194.696 45.58 194.95 44.9L196.77 46C196.303 47.0133 195.65 47.8067 194.81 48.38C193.97 48.9533 192.943 49.24 191.73 49.24Z" fill="#081131"/>
<path d="M123.478 150H122.302V140.228H126.194C127.053 140.228 127.72 140.466 128.196 140.942C128.681 141.418 128.924 142.104 128.924 143C128.924 143.719 128.756 144.311 128.42 144.778C128.093 145.235 127.608 145.539 126.964 145.688L129.204 150H127.874L125.76 145.8H123.478V150ZM126.194 144.792C126.661 144.792 127.02 144.671 127.272 144.428C127.533 144.185 127.664 143.84 127.664 143.392V142.664C127.664 142.216 127.533 141.871 127.272 141.628C127.02 141.385 126.661 141.264 126.194 141.264H123.478V144.792H126.194ZM133.656 150.168C133.161 150.168 132.713 150.079 132.312 149.902C131.92 149.725 131.579 149.473 131.29 149.146C131.01 148.81 130.791 148.413 130.632 147.956C130.483 147.489 130.408 146.967 130.408 146.388C130.408 145.819 130.483 145.301 130.632 144.834C130.791 144.367 131.01 143.971 131.29 143.644C131.579 143.308 131.92 143.051 132.312 142.874C132.713 142.697 133.161 142.608 133.656 142.608C134.141 142.608 134.575 142.697 134.958 142.874C135.341 143.051 135.667 143.299 135.938 143.616C136.209 143.924 136.414 144.293 136.554 144.722C136.703 145.151 136.778 145.623 136.778 146.136V146.668H131.584V147.004C131.584 147.312 131.631 147.601 131.724 147.872C131.827 148.133 131.967 148.362 132.144 148.558C132.331 148.754 132.555 148.908 132.816 149.02C133.087 149.132 133.39 149.188 133.726 149.188C134.183 149.188 134.58 149.081 134.916 148.866C135.261 148.651 135.527 148.343 135.714 147.942L136.512 148.516C136.279 149.011 135.915 149.412 135.42 149.72C134.925 150.019 134.337 150.168 133.656 150.168ZM133.656 143.546C133.348 143.546 133.068 143.602 132.816 143.714C132.564 143.817 132.345 143.966 132.158 144.162C131.981 144.358 131.841 144.591 131.738 144.862C131.635 145.123 131.584 145.413 131.584 145.73V145.828H135.574V145.674C135.574 145.03 135.397 144.517 135.042 144.134C134.697 143.742 134.235 143.546 133.656 143.546ZM139.016 143.756H137.84V142.776H139.016V141.32C139.016 140.816 139.146 140.41 139.408 140.102C139.669 139.794 140.066 139.64 140.598 139.64H141.69V140.62H140.136V142.776H141.69V143.756H140.136V150H139.016V143.756ZM145.824 150.168C145.329 150.168 144.881 150.079 144.48 149.902C144.088 149.725 143.747 149.473 143.458 149.146C143.178 148.81 142.959 148.413 142.8 147.956C142.651 147.489 142.576 146.967 142.576 146.388C142.576 145.819 142.651 145.301 142.8 144.834C142.959 144.367 143.178 143.971 143.458 143.644C143.747 143.308 144.088 143.051 144.48 142.874C144.881 142.697 145.329 142.608 145.824 142.608C146.309 142.608 146.743 142.697 147.126 142.874C147.509 143.051 147.835 143.299 148.106 143.616C148.377 143.924 148.582 144.293 148.722 144.722C148.871 145.151 148.946 145.623 148.946 146.136V146.668H143.752V147.004C143.752 147.312 143.799 147.601 143.892 147.872C143.995 148.133 144.135 148.362 144.312 148.558C144.499 148.754 144.723 148.908 144.984 149.02C145.255 149.132 145.558 149.188 145.894 149.188C146.351 149.188 146.748 149.081 147.084 148.866C147.429 148.651 147.695 148.343 147.882 147.942L148.68 148.516C148.447 149.011 148.083 149.412 147.588 149.72C147.093 150.019 146.505 150.168 145.824 150.168ZM145.824 143.546C145.516 143.546 145.236 143.602 144.984 143.714C144.732 143.817 144.513 143.966 144.326 144.162C144.149 144.358 144.009 144.591 143.906 144.862C143.803 145.123 143.752 145.413 143.752 145.73V145.828H147.742V145.674C147.742 145.03 147.565 144.517 147.21 144.134C146.865 143.742 146.403 143.546 145.824 143.546ZM150.792 150V142.776H151.912V144.106H151.982C152.112 143.761 152.346 143.453 152.682 143.182C153.018 142.911 153.48 142.776 154.068 142.776H154.502V143.896H153.844C153.237 143.896 152.761 144.013 152.416 144.246C152.08 144.47 151.912 144.755 151.912 145.1V150H150.792ZM158.58 150.168C158.085 150.168 157.637 150.079 157.236 149.902C156.844 149.725 156.503 149.473 156.214 149.146C155.934 148.81 155.714 148.413 155.556 147.956C155.406 147.489 155.332 146.967 155.332 146.388C155.332 145.819 155.406 145.301 155.556 144.834C155.714 144.367 155.934 143.971 156.214 143.644C156.503 143.308 156.844 143.051 157.236 142.874C157.637 142.697 158.085 142.608 158.58 142.608C159.065 142.608 159.499 142.697 159.882 142.874C160.264 143.051 160.591 143.299 160.862 143.616C161.132 143.924 161.338 144.293 161.478 144.722C161.627 145.151 161.702 145.623 161.702 146.136V146.668H156.508V147.004C156.508 147.312 156.554 147.601 156.648 147.872C156.75 148.133 156.89 148.362 157.068 148.558C157.254 148.754 157.478 148.908 157.74 149.02C158.01 149.132 158.314 149.188 158.65 149.188C159.107 149.188 159.504 149.081 159.84 148.866C160.185 148.651 160.451 148.343 160.638 147.942L161.436 148.516C161.202 149.011 160.838 149.412 160.344 149.72C159.849 150.019 159.261 150.168 158.58 150.168ZM158.58 143.546C158.272 143.546 157.992 143.602 157.74 143.714C157.488 143.817 157.268 143.966 157.082 144.162C156.904 144.358 156.764 144.591 156.662 144.862C156.559 145.123 156.508 145.413 156.508 145.73V145.828H160.498V145.674C160.498 145.03 160.32 144.517 159.966 144.134C159.62 143.742 159.158 143.546 158.58 143.546ZM163.547 150V142.776H164.667V143.952H164.723C164.901 143.541 165.148 143.215 165.465 142.972C165.792 142.729 166.226 142.608 166.767 142.608C167.514 142.608 168.102 142.851 168.531 143.336C168.97 143.812 169.189 144.489 169.189 145.366V150H168.069V145.562C168.069 144.265 167.523 143.616 166.431 143.616C166.207 143.616 165.988 143.644 165.773 143.7C165.568 143.756 165.381 143.84 165.213 143.952C165.045 144.064 164.91 144.209 164.807 144.386C164.714 144.554 164.667 144.755 164.667 144.988V150H163.547ZM174.192 150.168C173.688 150.168 173.236 150.079 172.834 149.902C172.433 149.725 172.092 149.473 171.812 149.146C171.542 148.819 171.332 148.423 171.182 147.956C171.042 147.489 170.972 146.967 170.972 146.388C170.972 145.809 171.042 145.287 171.182 144.82C171.332 144.353 171.542 143.957 171.812 143.63C172.092 143.303 172.433 143.051 172.834 142.874C173.236 142.697 173.688 142.608 174.192 142.608C174.911 142.608 175.485 142.767 175.914 143.084C176.353 143.392 176.68 143.798 176.894 144.302L175.956 144.778C175.826 144.405 175.611 144.115 175.312 143.91C175.014 143.705 174.64 143.602 174.192 143.602C173.856 143.602 173.562 143.658 173.31 143.77C173.058 143.873 172.848 144.022 172.68 144.218C172.512 144.405 172.386 144.633 172.302 144.904C172.218 145.165 172.176 145.455 172.176 145.772V147.004C172.176 147.639 172.344 148.161 172.68 148.572C173.026 148.973 173.53 149.174 174.192 149.174C175.098 149.174 175.751 148.754 176.152 147.914L176.964 148.46C176.731 148.983 176.381 149.398 175.914 149.706C175.457 150.014 174.883 150.168 174.192 150.168ZM181.179 150.168C180.685 150.168 180.237 150.079 179.835 149.902C179.443 149.725 179.103 149.473 178.813 149.146C178.533 148.81 178.314 148.413 178.155 147.956C178.006 147.489 177.931 146.967 177.931 146.388C177.931 145.819 178.006 145.301 178.155 144.834C178.314 144.367 178.533 143.971 178.813 143.644C179.103 143.308 179.443 143.051 179.835 142.874C180.237 142.697 180.685 142.608 181.179 142.608C181.665 142.608 182.099 142.697 182.481 142.874C182.864 143.051 183.191 143.299 183.461 143.616C183.732 143.924 183.937 144.293 184.077 144.722C184.227 145.151 184.301 145.623 184.301 146.136V146.668H179.107V147.004C179.107 147.312 179.154 147.601 179.247 147.872C179.35 148.133 179.49 148.362 179.667 148.558C179.854 148.754 180.078 148.908 180.339 149.02C180.61 149.132 180.913 149.188 181.249 149.188C181.707 149.188 182.103 149.081 182.439 148.866C182.785 148.651 183.051 148.343 183.237 147.942L184.035 148.516C183.802 149.011 183.438 149.412 182.943 149.72C182.449 150.019 181.861 150.168 181.179 150.168ZM181.179 143.546C180.871 143.546 180.591 143.602 180.339 143.714C180.087 143.817 179.868 143.966 179.681 144.162C179.504 144.358 179.364 144.591 179.261 144.862C179.159 145.123 179.107 145.413 179.107 145.73V145.828H183.097V145.674C183.097 145.03 182.92 144.517 182.565 144.134C182.22 143.742 181.758 143.546 181.179 143.546ZM195.686 150L194.706 147.116H190.758L189.778 150H188.588L192.004 140.228H193.502L196.918 150H195.686ZM192.76 141.32H192.69L191.038 146.08H194.412L192.76 141.32ZM198.536 150V140.228H202.428C203.306 140.228 203.978 140.48 204.444 140.984C204.92 141.479 205.158 142.16 205.158 143.028C205.158 143.896 204.92 144.582 204.444 145.086C203.978 145.581 203.306 145.828 202.428 145.828H199.712V150H198.536ZM199.712 144.792H202.428C202.895 144.792 203.254 144.671 203.506 144.428C203.768 144.185 203.898 143.84 203.898 143.392V142.664C203.898 142.216 203.768 141.871 203.506 141.628C203.254 141.385 202.895 141.264 202.428 141.264H199.712V144.792ZM209.267 150V146.136L205.907 140.228H207.251L209.855 144.932H209.897L212.501 140.228H213.845L210.443 146.094V150H209.267Z" fill="#71839B"/>
<path d="M128.18 123V120.28H121.7V118.34L127.36 109.04H130.32V118.5H132.22V120.28H130.32V123H128.18ZM123.62 118.5H128.18V111.1H128.04L123.62 118.5ZM135.892 123.24C135.399 123.24 135.032 123.113 134.792 122.86C134.552 122.593 134.432 122.267 134.432 121.88V121.58C134.432 121.193 134.552 120.873 134.792 120.62C135.032 120.353 135.399 120.22 135.892 120.22C136.386 120.22 136.752 120.353 136.992 120.62C137.232 120.873 137.352 121.193 137.352 121.58V121.88C137.352 122.267 137.232 122.593 136.992 122.86C136.752 123.113 136.386 123.24 135.892 123.24ZM148.953 111H142.753L142.393 115.94H142.533C142.693 115.66 142.86 115.413 143.033 115.2C143.206 114.973 143.406 114.78 143.633 114.62C143.86 114.46 144.12 114.34 144.413 114.26C144.706 114.167 145.053 114.12 145.453 114.12C146.053 114.12 146.606 114.22 147.113 114.42C147.633 114.62 148.08 114.907 148.453 115.28C148.84 115.653 149.14 116.113 149.353 116.66C149.566 117.193 149.673 117.8 149.673 118.48C149.673 119.173 149.56 119.813 149.333 120.4C149.12 120.987 148.8 121.493 148.373 121.92C147.946 122.333 147.42 122.66 146.793 122.9C146.18 123.127 145.48 123.24 144.693 123.24C144.066 123.24 143.513 123.167 143.033 123.02C142.553 122.887 142.126 122.707 141.753 122.48C141.393 122.24 141.073 121.973 140.793 121.68C140.526 121.373 140.286 121.06 140.073 120.74L141.713 119.44C141.886 119.72 142.066 119.973 142.253 120.2C142.44 120.427 142.653 120.627 142.893 120.8C143.133 120.973 143.4 121.107 143.693 121.2C144 121.293 144.346 121.34 144.733 121.34C145.56 121.34 146.193 121.113 146.633 120.66C147.086 120.207 147.313 119.58 147.313 118.78V118.54C147.313 117.74 147.086 117.113 146.633 116.66C146.193 116.207 145.56 115.98 144.733 115.98C144.133 115.98 143.653 116.093 143.293 116.32C142.933 116.547 142.626 116.8 142.373 117.08L140.513 116.82L141.033 109.04H148.953V111ZM154.405 123L164.085 109.04H166.105L156.425 123H154.405ZM155.305 116.72C154.225 116.72 153.398 116.387 152.825 115.72C152.252 115.04 151.965 114.053 151.965 112.76C151.965 111.467 152.252 110.487 152.825 109.82C153.398 109.14 154.225 108.8 155.305 108.8C156.385 108.8 157.212 109.14 157.785 109.82C158.358 110.487 158.645 111.467 158.645 112.76C158.645 114.053 158.358 115.04 157.785 115.72C157.212 116.387 156.385 116.72 155.305 116.72ZM155.305 115.38C156.252 115.38 156.725 114.693 156.725 113.32V112.2C156.725 110.827 156.252 110.14 155.305 110.14C154.358 110.14 153.885 110.827 153.885 112.2V113.32C153.885 114.693 154.358 115.38 155.305 115.38ZM165.205 123.24C164.125 123.24 163.298 122.907 162.725 122.24C162.152 121.56 161.865 120.573 161.865 119.28C161.865 117.987 162.152 117.007 162.725 116.34C163.298 115.66 164.125 115.32 165.205 115.32C166.285 115.32 167.112 115.66 167.685 116.34C168.258 117.007 168.545 117.987 168.545 119.28C168.545 120.573 168.258 121.56 167.685 122.24C167.112 122.907 166.285 123.24 165.205 123.24ZM165.205 121.9C166.152 121.9 166.625 121.213 166.625 119.84V118.72C166.625 117.347 166.152 116.66 165.205 116.66C164.258 116.66 163.785 117.347 163.785 118.72V119.84C163.785 121.213 164.258 121.9 165.205 121.9Z" fill="#0ECB81"/>
<path d="M420.592 141.264V150H419.416V141.264H416.308V140.228H423.7V141.264H420.592ZM427.002 150.168C426.507 150.168 426.059 150.079 425.658 149.902C425.266 149.725 424.925 149.473 424.636 149.146C424.356 148.81 424.136 148.413 423.978 147.956C423.828 147.489 423.754 146.967 423.754 146.388C423.754 145.819 423.828 145.301 423.978 144.834C424.136 144.367 424.356 143.971 424.636 143.644C424.925 143.308 425.266 143.051 425.658 142.874C426.059 142.697 426.507 142.608 427.002 142.608C427.487 142.608 427.921 142.697 428.304 142.874C428.686 143.051 429.013 143.299 429.284 143.616C429.554 143.924 429.76 144.293 429.9 144.722C430.049 145.151 430.124 145.623 430.124 146.136V146.668H424.93V147.004C424.93 147.312 424.976 147.601 425.07 147.872C425.172 148.133 425.312 148.362 425.49 148.558C425.676 148.754 425.9 148.908 426.162 149.02C426.432 149.132 426.736 149.188 427.072 149.188C427.529 149.188 427.926 149.081 428.262 148.866C428.607 148.651 428.873 148.343 429.06 147.942L429.858 148.516C429.624 149.011 429.26 149.412 428.766 149.72C428.271 150.019 427.683 150.168 427.002 150.168ZM427.002 143.546C426.694 143.546 426.414 143.602 426.162 143.714C425.91 143.817 425.69 143.966 425.504 144.162C425.326 144.358 425.186 144.591 425.084 144.862C424.981 145.123 424.93 145.413 424.93 145.73V145.828H428.92V145.674C428.92 145.03 428.742 144.517 428.388 144.134C428.042 143.742 427.58 143.546 427.002 143.546ZM431.969 150V142.776H433.089V144.106H433.159C433.29 143.761 433.523 143.453 433.859 143.182C434.195 142.911 434.657 142.776 435.245 142.776H435.679V143.896H435.021C434.415 143.896 433.939 144.013 433.593 144.246C433.257 144.47 433.089 144.755 433.089 145.1V150H431.969ZM437.11 150V142.776H438.23V143.952H438.286C438.37 143.765 438.463 143.593 438.566 143.434C438.678 143.266 438.809 143.121 438.958 143C439.117 142.879 439.299 142.785 439.504 142.72C439.709 142.645 439.952 142.608 440.232 142.608C440.708 142.608 441.147 142.725 441.548 142.958C441.949 143.182 442.248 143.555 442.444 144.078H442.472C442.603 143.686 442.845 143.345 443.2 143.056C443.564 142.757 444.054 142.608 444.67 142.608C445.407 142.608 445.981 142.851 446.392 143.336C446.812 143.812 447.022 144.489 447.022 145.366V150H445.902V145.562C445.902 144.918 445.776 144.433 445.524 144.106C445.272 143.779 444.871 143.616 444.32 143.616C444.096 143.616 443.881 143.644 443.676 143.7C443.48 143.756 443.303 143.84 443.144 143.952C442.985 144.064 442.859 144.209 442.766 144.386C442.673 144.554 442.626 144.755 442.626 144.988V150H441.506V145.562C441.506 144.918 441.38 144.433 441.128 144.106C440.876 143.779 440.484 143.616 439.952 143.616C439.728 143.616 439.513 143.644 439.308 143.7C439.103 143.756 438.921 143.84 438.762 143.952C438.603 144.064 438.473 144.209 438.37 144.386C438.277 144.554 438.23 144.755 438.23 144.988V150H437.11ZM451.503 150.168C450.831 150.168 450.266 150.042 449.809 149.79C449.361 149.529 448.973 149.183 448.647 148.754L449.445 148.11C449.725 148.465 450.037 148.74 450.383 148.936C450.728 149.123 451.129 149.216 451.587 149.216C452.063 149.216 452.431 149.113 452.693 148.908C452.963 148.703 453.099 148.413 453.099 148.04C453.099 147.76 453.005 147.522 452.819 147.326C452.641 147.121 452.315 146.981 451.839 146.906L451.265 146.822C450.929 146.775 450.621 146.705 450.341 146.612C450.061 146.509 449.813 146.379 449.599 146.22C449.393 146.052 449.23 145.847 449.109 145.604C448.997 145.361 448.941 145.072 448.941 144.736C448.941 144.381 449.006 144.073 449.137 143.812C449.267 143.541 449.445 143.317 449.669 143.14C449.902 142.963 450.177 142.832 450.495 142.748C450.812 142.655 451.153 142.608 451.517 142.608C452.105 142.608 452.595 142.711 452.987 142.916C453.388 143.121 453.738 143.406 454.037 143.77L453.295 144.442C453.136 144.218 452.903 144.017 452.595 143.84C452.287 143.653 451.899 143.56 451.433 143.56C450.966 143.56 450.611 143.663 450.369 143.868C450.135 144.064 450.019 144.335 450.019 144.68C450.019 145.035 450.135 145.291 450.369 145.45C450.611 145.609 450.957 145.725 451.405 145.8L451.965 145.884C452.767 146.005 453.337 146.239 453.673 146.584C454.009 146.92 454.177 147.363 454.177 147.914C454.177 148.614 453.939 149.165 453.463 149.566C452.987 149.967 452.333 150.168 451.503 150.168Z" fill="#71839B"/>
<path d="M388.24 114.78C389.107 114.78 389.747 114.6 390.16 114.24C390.573 113.867 390.78 113.393 390.78 112.82V112.68C390.78 112.04 390.58 111.553 390.18 111.22C389.78 110.873 389.24 110.7 388.56 110.7C387.893 110.7 387.327 110.853 386.86 111.16C386.393 111.453 386 111.867 385.68 112.4L384.18 111.1C384.393 110.793 384.633 110.5 384.9 110.22C385.167 109.94 385.48 109.7 385.84 109.5C386.2 109.287 386.607 109.12 387.06 109C387.513 108.867 388.033 108.8 388.62 108.8C389.273 108.8 389.88 108.88 390.44 109.04C391 109.2 391.48 109.44 391.88 109.76C392.28 110.067 392.593 110.447 392.82 110.9C393.047 111.34 393.16 111.84 393.16 112.4C393.16 112.84 393.087 113.24 392.94 113.6C392.807 113.96 392.613 114.28 392.36 114.56C392.12 114.827 391.833 115.047 391.5 115.22C391.18 115.393 390.84 115.52 390.48 115.6V115.7C390.88 115.78 391.253 115.913 391.6 116.1C391.96 116.273 392.273 116.507 392.54 116.8C392.807 117.08 393.013 117.42 393.16 117.82C393.32 118.207 393.4 118.653 393.4 119.16C393.4 119.773 393.28 120.333 393.04 120.84C392.8 121.333 392.46 121.76 392.02 122.12C391.593 122.48 391.073 122.76 390.46 122.96C389.847 123.147 389.167 123.24 388.42 123.24C387.767 123.24 387.193 123.167 386.7 123.02C386.207 122.887 385.767 122.707 385.38 122.48C385.007 122.24 384.673 121.973 384.38 121.68C384.1 121.373 383.853 121.06 383.64 120.74L385.3 119.44C385.473 119.72 385.653 119.98 385.84 120.22C386.04 120.447 386.26 120.647 386.5 120.82C386.753 120.98 387.033 121.107 387.34 121.2C387.66 121.293 388.02 121.34 388.42 121.34C389.273 121.34 389.927 121.14 390.38 120.74C390.833 120.327 391.06 119.76 391.06 119.04V118.9C391.06 118.18 390.82 117.633 390.34 117.26C389.86 116.887 389.18 116.7 388.3 116.7H386.82V114.78H388.24ZM400.992 123.24C400.126 123.24 399.372 123.08 398.732 122.76C398.092 122.427 397.566 121.953 397.152 121.34C396.739 120.727 396.432 119.973 396.232 119.08C396.032 118.187 395.932 117.167 395.932 116.02C395.932 114.887 396.032 113.873 396.232 112.98C396.432 112.073 396.739 111.313 397.152 110.7C397.566 110.087 398.092 109.62 398.732 109.3C399.372 108.967 400.126 108.8 400.992 108.8C402.726 108.8 403.999 109.433 404.812 110.7C405.639 111.967 406.052 113.74 406.052 116.02C406.052 118.3 405.639 120.073 404.812 121.34C403.999 122.607 402.726 123.24 400.992 123.24ZM400.992 121.32C401.472 121.32 401.879 121.227 402.212 121.04C402.559 120.84 402.839 120.56 403.052 120.2C403.266 119.84 403.419 119.413 403.512 118.92C403.606 118.413 403.652 117.853 403.652 117.24V114.8C403.652 114.187 403.606 113.633 403.512 113.14C403.419 112.633 403.266 112.2 403.052 111.84C402.839 111.48 402.559 111.207 402.212 111.02C401.879 110.82 401.472 110.72 400.992 110.72C400.512 110.72 400.099 110.82 399.752 111.02C399.419 111.207 399.146 111.48 398.932 111.84C398.719 112.2 398.566 112.633 398.472 113.14C398.379 113.633 398.332 114.187 398.332 114.8V117.24C398.332 117.853 398.379 118.413 398.472 118.92C398.566 119.413 398.719 119.84 398.932 120.2C399.146 120.56 399.419 120.84 399.752 121.04C400.099 121.227 400.512 121.32 400.992 121.32ZM419.811 121.28H419.711C419.484 121.893 419.111 122.373 418.591 122.72C418.084 123.067 417.484 123.24 416.791 123.24C415.471 123.24 414.451 122.767 413.731 121.82C413.011 120.86 412.651 119.52 412.651 117.8C412.651 116.08 413.011 114.747 413.731 113.8C414.451 112.84 415.471 112.36 416.791 112.36C417.484 112.36 418.084 112.533 418.591 112.88C419.111 113.213 419.484 113.693 419.711 114.32H419.811V108.2H421.991V123H419.811V121.28ZM417.451 121.36C418.118 121.36 418.678 121.2 419.131 120.88C419.584 120.547 419.811 120.113 419.811 119.58V116.02C419.811 115.487 419.584 115.06 419.131 114.74C418.678 114.407 418.118 114.24 417.451 114.24C416.691 114.24 416.084 114.487 415.631 114.98C415.178 115.46 414.951 116.1 414.951 116.9V118.7C414.951 119.5 415.178 120.147 415.631 120.64C416.084 121.12 416.691 121.36 417.451 121.36ZM432.727 123C432.154 123 431.714 122.84 431.407 122.52C431.1 122.187 430.914 121.767 430.847 121.26H430.747C430.547 121.913 430.18 122.407 429.647 122.74C429.114 123.073 428.467 123.24 427.707 123.24C426.627 123.24 425.794 122.96 425.207 122.4C424.634 121.84 424.347 121.087 424.347 120.14C424.347 119.1 424.72 118.32 425.467 117.8C426.227 117.28 427.334 117.02 428.787 117.02H430.667V116.14C430.667 115.5 430.494 115.007 430.147 114.66C429.8 114.313 429.26 114.14 428.527 114.14C427.914 114.14 427.414 114.273 427.027 114.54C426.64 114.807 426.314 115.147 426.047 115.56L424.747 114.38C425.094 113.793 425.58 113.313 426.207 112.94C426.834 112.553 427.654 112.36 428.667 112.36C430.014 112.36 431.047 112.673 431.767 113.3C432.487 113.927 432.847 114.827 432.847 116V121.22H433.947V123H432.727ZM428.327 121.58C429.007 121.58 429.567 121.433 430.007 121.14C430.447 120.833 430.667 120.427 430.667 119.92V118.42H428.827C427.32 118.42 426.567 118.887 426.567 119.82V120.18C426.567 120.647 426.72 121 427.027 121.24C427.347 121.467 427.78 121.58 428.327 121.58ZM442.327 112.6H444.427L440.047 125.06C439.927 125.407 439.787 125.7 439.627 125.94C439.48 126.193 439.3 126.393 439.087 126.54C438.887 126.7 438.64 126.813 438.347 126.88C438.053 126.96 437.707 127 437.307 127H436.047V125.22H437.807L438.407 123.46L434.627 112.6H436.807L438.887 118.72L439.487 120.98H439.587L440.247 118.72L442.327 112.6ZM449.403 123.24C448.416 123.24 447.59 123.067 446.923 122.72C446.256 122.373 445.676 121.893 445.183 121.28L446.583 120C446.97 120.467 447.396 120.833 447.863 121.1C448.343 121.353 448.896 121.48 449.523 121.48C450.163 121.48 450.636 121.36 450.943 121.12C451.263 120.867 451.423 120.52 451.423 120.08C451.423 119.747 451.31 119.467 451.083 119.24C450.87 119 450.49 118.847 449.943 118.78L448.983 118.66C447.916 118.527 447.076 118.22 446.463 117.74C445.863 117.247 445.563 116.52 445.563 115.56C445.563 115.053 445.656 114.607 445.843 114.22C446.03 113.82 446.29 113.487 446.623 113.22C446.97 112.94 447.376 112.727 447.843 112.58C448.323 112.433 448.85 112.36 449.423 112.36C450.356 112.36 451.116 112.507 451.703 112.8C452.303 113.093 452.836 113.5 453.303 114.02L451.963 115.3C451.696 114.98 451.343 114.707 450.903 114.48C450.476 114.24 449.983 114.12 449.423 114.12C448.823 114.12 448.376 114.24 448.083 114.48C447.803 114.72 447.663 115.033 447.663 115.42C447.663 115.82 447.79 116.12 448.043 116.32C448.296 116.52 448.703 116.667 449.263 116.76L450.223 116.88C451.37 117.053 452.203 117.393 452.723 117.9C453.256 118.393 453.523 119.06 453.523 119.9C453.523 120.407 453.423 120.867 453.223 121.28C453.036 121.68 452.763 122.027 452.403 122.32C452.043 122.613 451.61 122.84 451.103 123C450.596 123.16 450.03 123.24 449.403 123.24Z" fill="#081131"/>
<g filter="url(#filter3_d_6834_13861)">
<rect x="121" y="180" width="334" height="44" rx="22" fill="white"/>
<rect x="121.5" y="180.5" width="333" height="43" rx="21.5" stroke="#D0D5DD"/>
<path d="M263.63 207.168C262.809 207.168 262.109 207.019 261.53 206.72C260.961 206.421 260.471 206.02 260.06 205.516L261.152 204.494C261.497 204.914 261.875 205.231 262.286 205.446C262.706 205.661 263.182 205.768 263.714 205.768C264.339 205.768 264.811 205.628 265.128 205.348C265.445 205.068 265.604 204.69 265.604 204.214C265.604 203.831 265.492 203.528 265.268 203.304C265.044 203.08 264.647 202.912 264.078 202.8L263.21 202.646C262.258 202.469 261.544 202.156 261.068 201.708C260.592 201.26 260.354 200.644 260.354 199.86C260.354 199.431 260.433 199.043 260.592 198.698C260.76 198.343 260.989 198.049 261.278 197.816C261.577 197.573 261.936 197.387 262.356 197.256C262.776 197.125 263.247 197.06 263.77 197.06C264.507 197.06 265.147 197.191 265.688 197.452C266.229 197.704 266.691 198.073 267.074 198.558L265.968 199.538C265.716 199.211 265.408 198.95 265.044 198.754C264.68 198.558 264.227 198.46 263.686 198.46C263.126 198.46 262.692 198.572 262.384 198.796C262.076 199.02 261.922 199.347 261.922 199.776C261.922 200.187 262.048 200.495 262.3 200.7C262.552 200.896 262.944 201.045 263.476 201.148L264.344 201.33C265.324 201.517 266.038 201.834 266.486 202.282C266.943 202.73 267.172 203.346 267.172 204.13C267.172 204.587 267.093 205.003 266.934 205.376C266.775 205.749 266.542 206.071 266.234 206.342C265.935 206.603 265.567 206.809 265.128 206.958C264.689 207.098 264.19 207.168 263.63 207.168ZM273.369 205.796H273.313C273.248 205.973 273.159 206.146 273.047 206.314C272.945 206.482 272.809 206.631 272.641 206.762C272.483 206.883 272.287 206.981 272.053 207.056C271.829 207.131 271.568 207.168 271.269 207.168C270.513 207.168 269.925 206.925 269.505 206.44C269.095 205.955 268.889 205.259 268.889 204.354V199.72H270.415V204.158C270.415 205.287 270.882 205.852 271.815 205.852C272.011 205.852 272.203 205.829 272.389 205.782C272.576 205.726 272.739 205.647 272.879 205.544C273.029 205.441 273.145 205.311 273.229 205.152C273.323 204.993 273.369 204.807 273.369 204.592V199.72H274.895V207H273.369V205.796ZM277.08 196.64H278.606V200.924H278.676C278.835 200.485 279.092 200.149 279.446 199.916C279.81 199.673 280.235 199.552 280.72 199.552C281.644 199.552 282.358 199.888 282.862 200.56C283.366 201.223 283.618 202.156 283.618 203.36C283.618 204.564 283.366 205.502 282.862 206.174C282.358 206.837 281.644 207.168 280.72 207.168C280.235 207.168 279.81 207.047 279.446 206.804C279.092 206.561 278.835 206.225 278.676 205.796H278.606V207H277.08V196.64ZM280.258 205.852C280.79 205.852 281.215 205.684 281.532 205.348C281.85 205.003 282.008 204.55 282.008 203.99V202.73C282.008 202.17 281.85 201.722 281.532 201.386C281.215 201.041 280.79 200.868 280.258 200.868C279.792 200.868 279.4 200.985 279.082 201.218C278.765 201.442 278.606 201.741 278.606 202.114V204.606C278.606 204.979 278.765 205.283 279.082 205.516C279.4 205.74 279.792 205.852 280.258 205.852ZM287.675 207.168C286.985 207.168 286.406 207.047 285.939 206.804C285.473 206.561 285.067 206.225 284.721 205.796L285.701 204.9C285.972 205.227 286.271 205.483 286.597 205.67C286.933 205.847 287.321 205.936 287.759 205.936C288.207 205.936 288.539 205.852 288.753 205.684C288.977 205.507 289.089 205.264 289.089 204.956C289.089 204.723 289.01 204.527 288.851 204.368C288.702 204.2 288.436 204.093 288.053 204.046L287.381 203.962C286.635 203.869 286.047 203.654 285.617 203.318C285.197 202.973 284.987 202.464 284.987 201.792C284.987 201.437 285.053 201.125 285.183 200.854C285.314 200.574 285.496 200.341 285.729 200.154C285.972 199.958 286.257 199.809 286.583 199.706C286.919 199.603 287.288 199.552 287.689 199.552C288.343 199.552 288.875 199.655 289.285 199.86C289.705 200.065 290.079 200.35 290.405 200.714L289.467 201.61C289.281 201.386 289.033 201.195 288.725 201.036C288.427 200.868 288.081 200.784 287.689 200.784C287.269 200.784 286.957 200.868 286.751 201.036C286.555 201.204 286.457 201.423 286.457 201.694C286.457 201.974 286.546 202.184 286.723 202.324C286.901 202.464 287.185 202.567 287.577 202.632L288.249 202.716C289.052 202.837 289.635 203.075 289.999 203.43C290.373 203.775 290.559 204.242 290.559 204.83C290.559 205.185 290.489 205.507 290.349 205.796C290.219 206.076 290.027 206.319 289.775 206.524C289.523 206.729 289.22 206.888 288.865 207C288.511 207.112 288.114 207.168 287.675 207.168ZM292.283 207V199.72H293.809V201.12H293.879C293.982 200.747 294.197 200.42 294.523 200.14C294.85 199.86 295.303 199.72 295.881 199.72H296.287V201.19H295.685C295.079 201.19 294.612 201.288 294.285 201.484C293.968 201.68 293.809 201.969 293.809 202.352V207H292.283ZM298.413 198.418C298.095 198.418 297.862 198.343 297.713 198.194C297.573 198.045 297.503 197.853 297.503 197.62V197.382C297.503 197.149 297.573 196.957 297.713 196.808C297.862 196.659 298.095 196.584 298.413 196.584C298.73 196.584 298.959 196.659 299.099 196.808C299.239 196.957 299.309 197.149 299.309 197.382V197.62C299.309 197.853 299.239 198.045 299.099 198.194C298.959 198.343 298.73 198.418 298.413 198.418ZM297.643 199.72H299.169V207H297.643V199.72ZM301.348 196.64H302.874V200.924H302.944C303.103 200.485 303.359 200.149 303.714 199.916C304.078 199.673 304.503 199.552 304.988 199.552C305.912 199.552 306.626 199.888 307.13 200.56C307.634 201.223 307.886 202.156 307.886 203.36C307.886 204.564 307.634 205.502 307.13 206.174C306.626 206.837 305.912 207.168 304.988 207.168C304.503 207.168 304.078 207.047 303.714 206.804C303.359 206.561 303.103 206.225 302.944 205.796H302.874V207H301.348V196.64ZM304.526 205.852C305.058 205.852 305.483 205.684 305.8 205.348C306.117 205.003 306.276 204.55 306.276 203.99V202.73C306.276 202.17 306.117 201.722 305.8 201.386C305.483 201.041 305.058 200.868 304.526 200.868C304.059 200.868 303.667 200.985 303.35 201.218C303.033 201.442 302.874 201.741 302.874 202.114V204.606C302.874 204.979 303.033 205.283 303.35 205.516C303.667 205.74 304.059 205.852 304.526 205.852ZM312.489 207.168C311.966 207.168 311.5 207.079 311.089 206.902C310.678 206.725 310.328 206.473 310.039 206.146C309.75 205.81 309.526 205.409 309.367 204.942C309.218 204.466 309.143 203.939 309.143 203.36C309.143 202.781 309.218 202.259 309.367 201.792C309.526 201.316 309.75 200.915 310.039 200.588C310.328 200.252 310.678 199.995 311.089 199.818C311.5 199.641 311.966 199.552 312.489 199.552C313.021 199.552 313.488 199.645 313.889 199.832C314.3 200.019 314.64 200.28 314.911 200.616C315.182 200.943 315.382 201.325 315.513 201.764C315.653 202.203 315.723 202.674 315.723 203.178V203.752H310.725V203.99C310.725 204.55 310.888 205.012 311.215 205.376C311.551 205.731 312.027 205.908 312.643 205.908C313.091 205.908 313.469 205.81 313.777 205.614C314.085 205.418 314.346 205.152 314.561 204.816L315.457 205.698C315.186 206.146 314.794 206.505 314.281 206.776C313.768 207.037 313.17 207.168 312.489 207.168ZM312.489 200.742C312.228 200.742 311.985 200.789 311.761 200.882C311.546 200.975 311.36 201.106 311.201 201.274C311.052 201.442 310.935 201.643 310.851 201.876C310.767 202.109 310.725 202.366 310.725 202.646V202.744H314.113V202.604C314.113 202.044 313.968 201.596 313.679 201.26C313.39 200.915 312.993 200.742 312.489 200.742Z" fill="#081131"/>
</g>
<path d="M150.551 55.6287C148.547 63.6644 140.408 68.5548 132.37 66.5509C124.336 64.5475 119.445 56.4082 121.449 48.373C123.452 40.3363 131.592 35.4455 139.627 37.4489C147.664 39.4523 152.555 47.5925 150.551 55.6287Z" fill="#F7931A"/>
<path fill-rule="evenodd" clip-rule="evenodd" d="M142.836 50.0404C143.148 47.9388 141.559 46.8091 139.387 46.0555L140.092 43.2087L138.372 42.7768L137.686 45.5486C137.233 45.4351 136.769 45.328 136.307 45.2219L136.998 42.4319L135.279 42L134.574 44.8458C134.2 44.7599 133.832 44.675 133.475 44.5857L133.477 44.5768L131.105 43.9801L130.647 45.8309C130.647 45.8309 131.924 46.1256 131.897 46.1438C132.593 46.319 132.719 46.7835 132.698 47.1516L131.896 50.3947C131.944 50.4071 132.006 50.4248 132.075 50.4525L132.016 50.4378C131.976 50.4277 131.935 50.4173 131.893 50.4071L130.768 54.9502C130.683 55.1634 130.466 55.4832 129.979 55.3618C129.997 55.387 128.729 55.0474 128.729 55.0474L127.875 57.031L130.114 57.5931C130.364 57.6562 130.611 57.7211 130.855 57.7853L130.855 57.7853C131.018 57.8281 131.179 57.8705 131.34 57.912L130.628 60.7913L132.346 61.2232L133.052 58.3744C133.521 58.5027 133.977 58.6212 134.422 58.7327L133.72 61.5681L135.44 62L136.152 59.1261C139.086 59.6853 141.291 59.4597 142.22 56.7872C142.968 54.6353 142.183 53.394 140.639 52.5846C141.763 52.3235 142.61 51.5788 142.836 50.0404ZM138.905 55.5923C138.418 57.5665 135.35 56.7503 133.946 56.3769L133.946 56.3768C133.82 56.3433 133.707 56.3132 133.611 56.2892L134.555 52.4745C134.672 52.504 134.816 52.5364 134.978 52.573L134.978 52.573C136.43 52.9012 139.405 53.5737 138.905 55.5923ZM135.27 50.8028C136.44 51.1174 138.993 51.8036 139.437 50.0093C139.891 48.1739 137.41 47.6207 136.199 47.3505C136.062 47.3201 135.942 47.2933 135.844 47.2686L134.987 50.7284C135.068 50.7487 135.163 50.7742 135.27 50.8028Z" fill="white"/>
</g>
<defs>
<filter id="filter0_f_6834_13861" x="0" y="18" width="414" height="267" filterUnits="userSpaceOnUse" color-interpolation-filters="sRGB">
<feFlood flood-opacity="0" result="BackgroundImageFix"/>
<feBlend mode="normal" in="SourceGraphic" in2="BackgroundImageFix" result="shape"/>
<feGaussianBlur stdDeviation="7" result="effect1_foregroundBlur_6834_13861"/>
</filter>
<filter id="filter1_d_6834_13861" x="38" y="205" width="338" height="48" filterUnits="userSpaceOnUse" color-interpolation-filters="sRGB">
<feFlood flood-opacity="0" result="BackgroundImageFix"/>
<feColorMatrix in="SourceAlpha" type="matrix" values="0 0 0 0 0 0 0 0 0 0 0 0 0 0 0 0 0 0 127 0" result="hardAlpha"/>
<feOffset dy="1"/>
<feGaussianBlur stdDeviation="1"/>
<feColorMatrix type="matrix" values="0 0 0 0 0.0627451 0 0 0 0 0.0941176 0 0 0 0 0.156863 0 0 0 0.05 0"/>
<feBlend mode="normal" in2="BackgroundImageFix" result="effect1_dropShadow_6834_13861"/>
<feBlend mode="normal" in="SourceGraphic" in2="effect1_dropShadow_6834_13861" result="shape"/>
</filter>
<filter id="filter2_f_6834_13861" x="89.7" y="0.7" width="396.6" height="249.6" filterUnits="userSpaceOnUse" color-interpolation-filters="sRGB">
<feFlood flood-opacity="0" result="BackgroundImageFix"/>
<feBlend mode="normal" in="SourceGraphic" in2="BackgroundImageFix" result="shape"/>
<feGaussianBlur stdDeviation="2.65" result="effect1_foregroundBlur_6834_13861"/>
</filter>
<filter id="filter3_d_6834_13861" x="119" y="179" width="338" height="48" filterUnits="userSpaceOnUse" color-interpolation-filters="sRGB">
<feFlood flood-opacity="0" result="BackgroundImageFix"/>
<feColorMatrix in="SourceAlpha" type="matrix" values="0 0 0 0 0 0 0 0 0 0 0 0 0 0 0 0 0 0 127 0" result="hardAlpha"/>
<feOffset dy="1"/>
<feGaussianBlur stdDeviation="1"/>
<feColorMatrix type="matrix" values="0 0 0 0 0.0627451 0 0 0 0 0.0941176 0 0 0 0 0.156863 0 0 0 0.05 0"/>
<feBlend mode="normal" in2="BackgroundImageFix" result="effect1_dropShadow_6834_13861"/>
<feBlend mode="normal" in="SourceGraphic" in2="effect1_dropShadow_6834_13861" result="shape"/>
</filter>
</defs>
</svg>
