<svg width="20" height="20" viewBox="0 0 20 20" fill="none" xmlns="http://www.w3.org/2000/svg">
<circle cx="12.5" cy="7.5" r="5.5" fill="#71839B"/>
<circle cx="7.5" cy="12.5" r="5.5" fill="#71839B"/>
<path d="M13.3328 19.7669C13.1078 19.7669 12.8995 19.642 12.7912 19.4503C12.6828 19.2586 12.6828 19.017 12.7995 18.8253L13.6745 17.367C13.8495 17.067 14.2328 16.9753 14.5328 17.1503C14.8328 17.3253 14.9245 17.7086 14.7495 18.0086L14.5245 18.3836C16.8245 17.8419 18.5495 15.7753 18.5495 13.3086C18.5495 12.9669 18.8328 12.6836 19.1745 12.6836C19.5162 12.6836 19.7995 12.9669 19.7995 13.3086C19.7912 16.8669 16.8912 19.7669 13.3328 19.7669Z" fill="#71839B"/>
<path d="M0.835938 7.26693C0.494271 7.26693 0.210938 6.98359 0.210938 6.64193C0.210938 3.08359 3.11094 0.183594 6.66927 0.183594C6.89427 0.183594 7.10261 0.308598 7.21094 0.500264C7.31927 0.691931 7.31927 0.933598 7.2026 1.12526L6.3276 2.5836C6.1526 2.8836 5.76927 2.97527 5.46927 2.80027C5.16927 2.62527 5.0776 2.24197 5.2526 1.94197L5.4776 1.56696C3.1776 2.10862 1.45261 4.17526 1.45261 6.64193C1.46094 6.98359 1.1776 7.26693 0.835938 7.26693Z" fill="#71839B"/>
<path d="M7.85729 13.4004H5.51562C5.17396 13.4004 4.89062 13.1171 4.89062 12.7754V10.9004C4.89062 10.5587 5.17396 10.2754 5.51562 10.2754H7.85729C8.69063 10.2754 9.42396 11.0087 9.42396 11.8421C9.42396 12.6921 8.71563 13.4004 7.85729 13.4004ZM6.14062 12.1504H7.85729C8.03229 12.1504 8.17396 12.0087 8.17396 11.8337C8.17396 11.7087 8.03229 11.517 7.85729 11.517H6.14062V12.1504Z" fill="white"/>
<path d="M8.19115 15.2754H5.50781C5.16615 15.2754 4.88281 14.9921 4.88281 14.6504V12.7754C4.88281 12.4337 5.16615 12.1504 5.50781 12.1504H8.19115C9.12448 12.1504 9.89114 12.8504 9.89114 13.7171C9.89114 14.5837 9.13281 15.2754 8.19115 15.2754ZM6.14114 14.0254H8.19948C8.46615 14.0254 8.64948 13.8587 8.64948 13.7087C8.64948 13.5587 8.46615 13.392 8.19948 13.392H6.14114V14.0254Z" fill="white"/>
<path d="M7.01562 16.2092C6.67396 16.2092 6.39062 15.9259 6.39062 15.5842V14.6426C6.39062 14.3009 6.67396 14.0176 7.01562 14.0176C7.35729 14.0176 7.64062 14.3009 7.64062 14.6426V15.5842C7.64062 15.9342 7.35729 16.2092 7.01562 16.2092Z" fill="white"/>
<path d="M7.01562 11.5159C6.67396 11.5159 6.39062 11.2326 6.39062 10.8909V9.94922C6.39062 9.60755 6.67396 9.32422 7.01562 9.32422C7.35729 9.32422 7.64062 9.60755 7.64062 9.94922V10.8909C7.64062 11.2409 7.35729 11.5159 7.01562 11.5159Z" fill="white"/>
<path d="M7.2276 18.5412C4.04427 18.5412 1.46094 15.9495 1.46094 12.7745C1.46094 9.59952 4.0526 7.00781 7.2276 7.00781C7.3776 7.00781 7.51094 7.01616 7.66094 7.0245C10.4859 7.24116 12.7693 9.52449 12.9776 12.3328C12.9859 12.5162 12.9943 12.6412 12.9943 12.7745C13.0026 15.9495 10.4109 18.5412 7.2276 18.5412ZM7.2276 8.24952C4.73594 8.24952 2.71094 10.2745 2.71094 12.7662C2.71094 15.2578 4.73594 17.2828 7.2276 17.2828C9.71927 17.2828 11.7526 15.2578 11.7526 12.7662C11.7526 12.6578 11.7443 12.5495 11.7359 12.4412C11.5693 10.2078 9.7776 8.42448 7.5776 8.25781C7.46927 8.25781 7.3526 8.24952 7.2276 8.24952Z" fill="#71839B"/>
<path d="M12.7745 13.0001H12.3661C12.0411 13.0001 11.7661 12.7501 11.7411 12.4251C11.5745 10.2168 9.79114 8.43344 7.58281 8.26677C7.25781 8.24178 7.00781 7.96677 7.00781 7.64177V7.23345C7.00781 4.05012 9.59948 1.4668 12.7828 1.4668C15.9661 1.4668 18.5495 4.05845 18.5495 7.23345C18.5495 10.4085 15.9495 13.0001 12.7745 13.0001ZM8.24948 7.0918C10.5995 7.5168 12.4828 9.39177 12.9078 11.7501C15.3411 11.6751 17.2911 9.67512 17.2911 7.23345C17.2911 4.74178 15.2661 2.7168 12.7745 2.7168C10.3245 2.70846 8.32448 4.65846 8.24948 7.0918Z" fill="#71839B"/>
</svg>
