<svg width="20" height="20" viewBox="0 0 20 20" fill="none" xmlns="http://www.w3.org/2000/svg">
<path d="M13.3328 19.7666C13.1078 19.7666 12.8995 19.6417 12.7912 19.45C12.6828 19.2584 12.6828 19.0167 12.7995 18.825L13.6745 17.3667C13.8495 17.0667 14.2328 16.975 14.5328 17.15C14.8328 17.325 14.9245 17.7083 14.7495 18.0083L14.5245 18.3833C16.8245 17.8417 18.5495 15.775 18.5495 13.3083C18.5495 12.9666 18.8328 12.6833 19.1745 12.6833C19.5162 12.6833 19.7995 12.9666 19.7995 13.3083C19.7912 16.8666 16.8912 19.7666 13.3328 19.7666Z" fill="#71839B"/>
<path d="M0.832031 7.26665C0.490365 7.26665 0.207031 6.98331 0.207031 6.64165C0.207031 3.08331 3.10703 0.183311 6.66536 0.183311C6.89036 0.183311 7.0987 0.308316 7.20703 0.499982C7.31537 0.691649 7.31536 0.933316 7.1987 1.12498L6.3237 2.58332C6.1487 2.88332 5.76537 2.97499 5.46537 2.79999C5.16537 2.62499 5.0737 2.24168 5.2487 1.94168L5.4737 1.56667C3.1737 2.10834 1.4487 4.17498 1.4487 6.64165C1.45703 6.98331 1.1737 7.26665 0.832031 7.26665Z" fill="#71839B"/>
<path d="M7.85729 13.4H5.51562C5.17396 13.4 4.89062 13.1166 4.89062 12.775V10.9C4.89062 10.5583 5.17396 10.275 5.51562 10.275H7.85729C8.69063 10.275 9.42396 11.0083 9.42396 11.8416C9.42396 12.6916 8.71563 13.4 7.85729 13.4ZM6.14062 12.15H7.85729C8.03229 12.15 8.17396 12.0083 8.17396 11.8333C8.17396 11.7083 8.03229 11.5166 7.85729 11.5166H6.14062V12.15Z" fill="#71839B"/>
<path d="M8.19115 15.275H5.50781C5.16615 15.275 4.88281 14.9916 4.88281 14.65V12.775C4.88281 12.4333 5.16615 12.15 5.50781 12.15H8.19115C9.12448 12.15 9.89114 12.85 9.89114 13.7166C9.89114 14.5833 9.13281 15.275 8.19115 15.275ZM6.14114 14.025H8.19948C8.46615 14.025 8.64948 13.8583 8.64948 13.7083C8.64948 13.5583 8.46615 13.3916 8.19948 13.3916H6.14114V14.025Z" fill="#71839B"/>
<path d="M7.01562 16.2083C6.67396 16.2083 6.39062 15.925 6.39062 15.5833V14.6416C6.39062 14.3 6.67396 14.0166 7.01562 14.0166C7.35729 14.0166 7.64062 14.3 7.64062 14.6416V15.5833C7.64062 15.9333 7.35729 16.2083 7.01562 16.2083Z" fill="#71839B"/>
<path d="M7.01562 11.5166C6.67396 11.5166 6.39062 11.2333 6.39062 10.8916V9.94995C6.39062 9.60828 6.67396 9.32495 7.01562 9.32495C7.35729 9.32495 7.64062 9.60828 7.64062 9.94995V10.8916C7.64062 11.2416 7.35729 11.5166 7.01562 11.5166Z" fill="#71839B"/>
<path d="M7.2237 18.5416C4.04036 18.5416 1.45703 15.95 1.45703 12.775C1.45703 9.59997 4.0487 7.00826 7.2237 7.00826C7.3737 7.00826 7.50703 7.01661 7.65703 7.02495C10.482 7.24161 12.7654 9.52494 12.9737 12.3333C12.982 12.5166 12.9904 12.6416 12.9904 12.775C12.9987 15.95 10.407 18.5416 7.2237 18.5416ZM7.2237 8.24997C4.73203 8.24997 2.70703 10.275 2.70703 12.7666C2.70703 15.2583 4.73203 17.2833 7.2237 17.2833C9.71536 17.2833 11.7487 15.2583 11.7487 12.7666C11.7487 12.6583 11.7404 12.5499 11.732 12.4416C11.5654 10.2083 9.7737 8.42493 7.5737 8.25826C7.46536 8.25826 7.3487 8.24997 7.2237 8.24997Z" fill="#71839B"/>
<path d="M12.7745 13H12.3661C12.0411 13 11.7661 12.75 11.7411 12.425C11.5745 10.2166 9.79114 8.43332 7.58281 8.26665C7.25781 8.24165 7.00781 7.96665 7.00781 7.64165V7.23333C7.00781 4.04999 9.59948 1.46667 12.7828 1.46667C15.9661 1.46667 18.5495 4.05833 18.5495 7.23333C18.5495 10.4083 15.9495 13 12.7745 13ZM8.24948 7.09168C10.5995 7.51668 12.4828 9.39165 12.9078 11.75C15.3411 11.675 17.2911 9.67499 17.2911 7.23333C17.2911 4.74166 15.2661 2.71667 12.7745 2.71667C10.3245 2.70834 8.32448 4.65834 8.24948 7.09168Z" fill="#71839B"/>
</svg>
