<svg width="42" height="42" viewBox="0 0 42 42" fill="none" xmlns="http://www.w3.org/2000/svg">
<circle cx="21" cy="21" r="20.5" stroke="#D9D9D9"/>
<path d="M31 17.5C31 21.09 28.09 24 24.5 24C24.33 24 24.15 23.99 23.98 23.98C23.73 20.81 21.19 18.27 18.02 18.02C18.01 17.85 18 17.67 18 17.5C18 13.91 20.91 11 24.5 11C28.09 11 31 13.91 31 17.5Z" stroke="black" stroke-width="1.5" stroke-linecap="round" stroke-linejoin="round"/>
<path d="M24 24.5C24 28.09 21.09 31 17.5 31C13.91 31 11 28.09 11 24.5C11 20.91 13.91 18 17.5 18C17.67 18 17.85 18.01 18.02 18.02C21.19 18.27 23.73 20.81 23.98 23.98C23.99 24.15 24 24.33 24 24.5Z" stroke="black" stroke-width="1.5" stroke-linecap="round" stroke-linejoin="round"/>
<path d="M18.7214 24.3678L19.6929 23.0067L18.2143 21H15V28H18.6071L20 25.8922L18.7214 24.3678ZM17.65 22.0967L18.2786 23.0222L17.8357 23.4189L16.9643 22.0967H17.65ZM15.95 22.7578H16.2L16.9643 24.0022H15.95V22.7578ZM15.95 26.9733C15.925 26.4733 15.925 25.9722 15.95 25.4722H16.1929L17.1 26.9733H15.95ZM18.15 26.5844L17.15 25.0289H17.9571L18.6357 26.0633L18.15 26.5844Z" fill="black"/>
</svg>
