<svg width="45" height="45" viewBox="0 0 45 45" fill="none" xmlns="http://www.w3.org/2000/svg">
<circle cx="22.5" cy="22.5" r="22.5" fill="#FAFAFA"/>
<g clip-path="url(#clip0_4867_11270)">
<path d="M32.1661 23.0008C32.1662 22.8459 32.1231 22.6941 32.0417 22.5624C31.9603 22.4306 31.8438 22.3242 31.7053 22.2549L29.0295 20.9174L31.7053 19.5841C31.844 19.515 31.9606 19.4086 32.0422 19.2768C32.1237 19.1451 32.1669 18.9932 32.1669 18.8383C32.1669 18.6833 32.1237 18.5315 32.0422 18.3997C31.9606 18.268 31.844 18.1616 31.7053 18.0924L23.372 13.9258C23.2563 13.868 23.1288 13.8379 22.9995 13.8379C22.8702 13.8379 22.7426 13.868 22.627 13.9258L14.2936 18.0924C14.155 18.1616 14.0383 18.268 13.9568 18.3997C13.8752 18.5315 13.832 18.6833 13.832 18.8383C13.832 18.9932 13.8752 19.1451 13.9568 19.2768C14.0383 19.4086 14.155 19.515 14.2936 19.5841L16.9695 20.9174L14.2936 22.2549C14.155 22.3241 14.0383 22.4305 13.9568 22.5622C13.8752 22.694 13.832 22.8458 13.832 23.0008C13.832 23.1557 13.8752 23.3076 13.9568 23.4393C14.0383 23.5711 14.155 23.6775 14.2936 23.7466L16.9695 25.0841L14.2936 26.4216C14.155 26.4907 14.0383 26.5971 13.9568 26.7289C13.8752 26.8606 13.832 27.0125 13.832 27.1674C13.832 27.3224 13.8752 27.4743 13.9568 27.606C14.0383 27.7378 14.155 27.8442 14.2936 27.9133L22.627 32.0799C22.7426 32.1377 22.8702 32.1678 22.9995 32.1678C23.1288 32.1678 23.2563 32.1377 23.372 32.0799L31.7053 27.9133C31.844 27.8442 31.9606 27.7378 32.0422 27.606C32.1237 27.4743 32.1669 27.3224 32.1669 27.1674C32.1669 27.0125 32.1237 26.8606 32.0422 26.7289C31.9606 26.5971 31.844 26.4907 31.7053 26.4216L29.0295 25.0841L31.7053 23.7508C31.8445 23.6812 31.9614 23.5741 32.0428 23.4416C32.1243 23.309 32.167 23.1563 32.1661 23.0008ZM29.4695 27.1674L22.9995 30.4024L16.5295 27.1674L18.8328 26.0158L22.627 27.9174C22.7426 27.9752 22.8702 28.0053 22.9995 28.0053C23.1288 28.0053 23.2563 27.9752 23.372 27.9174L27.1661 26.0158L29.4695 27.1674ZM22.9995 26.2358L16.5295 23.0008L18.8328 21.8491L22.627 23.7508C22.7426 23.8086 22.8702 23.8387 22.9995 23.8387C23.1288 23.8387 23.2563 23.8086 23.372 23.7508L27.1661 21.8491L29.4695 23.0008L22.9995 26.2358Z" fill="#081131"/>
</g>
<defs>
<clipPath id="clip0_4867_11270">
<rect width="20" height="20" fill="white" transform="translate(13 13)"/>
</clipPath>
</defs>
</svg>
