<svg width="45" height="45" viewBox="0 0 45 45" fill="none" xmlns="http://www.w3.org/2000/svg">
<circle cx="22.5" cy="22.5" r="22.5" fill="#FAFAFA"/>
<path d="M28.9758 18.5336C28.6174 16.7253 27.2758 15.9336 25.4091 15.9336H18.0924C15.8924 15.9336 14.4258 17.0336 14.4258 19.6003V23.8919C14.4258 25.7419 15.1841 26.8253 16.4341 27.2919C16.6174 27.3586 16.8174 27.4169 17.0258 27.4503C17.3591 27.5253 17.7174 27.5586 18.0924 27.5586H25.4174C27.6174 27.5586 29.0841 26.4586 29.0841 23.8919V19.6003C29.0841 19.2086 29.0508 18.8586 28.9758 18.5336ZM17.6091 23.0003C17.6091 23.3419 17.3258 23.6253 16.9841 23.6253C16.6424 23.6253 16.3591 23.3419 16.3591 23.0003V20.5003C16.3591 20.1586 16.6424 19.8753 16.9841 19.8753C17.3258 19.8753 17.6091 20.1586 17.6091 20.5003V23.0003ZM21.7508 23.9503C20.5341 23.9503 19.5508 22.9669 19.5508 21.7503C19.5508 20.5336 20.5341 19.5503 21.7508 19.5503C22.9674 19.5503 23.9508 20.5336 23.9508 21.7503C23.9508 22.9669 22.9674 23.9503 21.7508 23.9503ZM27.1341 23.0003C27.1341 23.3419 26.8508 23.6253 26.5091 23.6253C26.1674 23.6253 25.8841 23.3419 25.8841 23.0003V20.5003C25.8841 20.1586 26.1674 19.8753 26.5091 19.8753C26.8508 19.8753 27.1341 20.1586 27.1341 20.5003V23.0003Z" fill="#081131"/>
<path d="M31.5841 22.1006V26.3922C31.5841 28.9589 30.1174 30.0672 27.9091 30.0672H20.5925C19.9675 30.0672 19.4091 29.9756 18.9258 29.7922C18.5341 29.6506 18.1925 29.4422 17.9175 29.1756C17.7675 29.0339 17.8841 28.8089 18.0925 28.8089H25.4091C28.4924 28.8089 30.3258 26.9756 30.3258 23.9006V19.6006C30.3258 19.4006 30.5508 19.2756 30.6924 19.4256C31.2591 20.0256 31.5841 20.9006 31.5841 22.1006Z" fill="#081131"/>
</svg>
