<svg width="45" height="45" viewBox="0 0 45 45" fill="none" xmlns="http://www.w3.org/2000/svg">
<circle cx="22.5" cy="22.5" r="22.5" fill="#FAFAFA"/>
<path d="M26.5423 31.7507C27.3477 31.7507 28.0007 31.0977 28.0007 30.2923C28.0007 29.4869 27.3477 28.834 26.5423 28.834C25.7369 28.834 25.084 29.4869 25.084 30.2923C25.084 31.0977 25.7369 31.7507 26.5423 31.7507Z" fill="#081131"/>
<path d="M19.8743 31.7507C20.6798 31.7507 21.3327 31.0977 21.3327 30.2923C21.3327 29.4869 20.6798 28.834 19.8743 28.834C19.0689 28.834 18.416 29.4869 18.416 30.2923C18.416 31.0977 19.0689 31.7507 19.8743 31.7507Z" fill="#081131"/>
<path d="M17.0327 16.2827L16.866 18.3243C16.8327 18.716 17.141 19.041 17.5327 19.041H30.291C30.641 19.041 30.9327 18.7743 30.9577 18.4243C31.066 16.9493 29.941 15.7493 28.466 15.7493H18.2243C18.141 15.3827 17.9743 15.0327 17.716 14.741C17.2993 14.2993 16.716 14.041 16.116 14.041H14.666C14.3243 14.041 14.041 14.3243 14.041 14.666C14.041 15.0077 14.3243 15.291 14.666 15.291H16.116C16.3743 15.291 16.616 15.3993 16.791 15.5827C16.966 15.7743 17.0493 16.0243 17.0327 16.2827Z" fill="#081131"/>
<path d="M30.0924 20.291H17.309C16.959 20.291 16.6757 20.5577 16.6424 20.8993L16.3424 24.5243C16.2257 25.9493 17.3424 27.166 18.7674 27.166H28.034C29.284 27.166 30.384 26.141 30.4757 24.891L30.7507 20.9993C30.784 20.616 30.484 20.291 30.0924 20.291Z" fill="#081131"/>
</svg>
