<svg width="45" height="45" viewBox="0 0 45 45" fill="none" xmlns="http://www.w3.org/2000/svg">
<circle cx="22.5" cy="22.5" r="22.5" fill="#FAFAFA"/>
<path d="M31.3327 15.291H14.666C14.3243 15.291 14.041 15.0077 14.041 14.666C14.041 14.3243 14.3243 14.041 14.666 14.041H31.3327C31.6743 14.041 31.9577 14.3243 31.9577 14.666C31.9577 15.0077 31.6743 15.291 31.3327 15.291Z" fill="#081131"/>
<path d="M26.8909 31.616C26.7826 31.8327 26.5576 31.9577 26.3326 31.9577C26.2409 31.9577 26.1409 31.9327 26.0576 31.891L22.9992 30.366L19.9409 31.891C19.8576 31.9327 19.7576 31.9577 19.6659 31.9577C19.4409 31.9577 19.2159 31.8327 19.1076 31.616C18.9492 31.2993 19.0742 30.9243 19.3909 30.7743L22.3742 29.2827V27.166H23.6242V29.2827L26.6076 30.7743C26.9242 30.9243 27.0492 31.2993 26.8909 31.616Z" fill="#081131"/>
<path d="M15.5 14.666V24.7493C15.5 26.3327 16.3333 27.166 17.9167 27.166H28.0833C29.6667 27.166 30.5 26.3327 30.5 24.7493V14.666H15.5ZM27.15 20.1493L24.525 22.341C24.2833 22.541 23.975 22.6243 23.6833 22.5743C23.3833 22.5243 23.125 22.341 22.9667 22.0743L22.0917 20.616L19.65 22.6493C19.5333 22.7493 19.3917 22.791 19.25 22.791C19.075 22.791 18.8917 22.716 18.7667 22.566C18.5417 22.2993 18.5833 21.9077 18.85 21.6827L21.475 19.491C21.7167 19.291 22.025 19.2077 22.3167 19.2577C22.6167 19.3077 22.875 19.491 23.0333 19.7577L23.9083 21.216L26.35 19.1827C26.6167 18.9577 27.0083 18.9993 27.2333 19.266C27.45 19.5327 27.4167 19.9243 27.15 20.1493Z" fill="#081131"/>
</svg>
