<svg width="55" height="55" viewBox="0 0 55 55" fill="none" xmlns="http://www.w3.org/2000/svg">
<circle cx="27.5" cy="27.5" r="27.5" fill="#FAFAFA"/>
<path d="M33.45 37.75C32.32 37.75 31.13 37.48 29.9 36.96C28.7 36.45 27.49 35.75 26.31 34.9C25.14 34.04 24.01 33.08 22.94 32.03C21.88 30.96 20.92 29.83 20.07 28.67C19.21 27.47 18.52 26.27 18.03 25.11C17.51 23.87 17.25 22.67 17.25 21.54C17.25 20.76 17.39 20.02 17.66 19.33C17.94 18.62 18.39 17.96 19 17.39C19.77 16.63 20.65 16.25 21.59 16.25C21.98 16.25 22.38 16.34 22.72 16.5C23.11 16.68 23.44 16.95 23.68 17.31L26 20.58C26.21 20.87 26.37 21.15 26.48 21.43C26.61 21.73 26.68 22.03 26.68 22.32C26.68 22.7 26.57 23.07 26.36 23.42C26.21 23.69 25.98 23.98 25.69 24.27L25.01 24.98C25.02 25.01 25.03 25.03 25.04 25.05C25.16 25.26 25.4 25.62 25.86 26.16C26.35 26.72 26.81 27.23 27.27 27.7C27.86 28.28 28.35 28.74 28.81 29.12C29.38 29.6 29.75 29.84 29.97 29.95L29.95 30L30.68 29.28C30.99 28.97 31.29 28.74 31.58 28.59C32.13 28.25 32.83 28.19 33.53 28.48C33.79 28.59 34.07 28.74 34.37 28.95L37.69 31.31C38.06 31.56 38.33 31.88 38.49 32.26C38.64 32.64 38.71 32.99 38.71 33.34C38.71 33.82 38.6 34.3 38.39 34.75C38.18 35.2 37.92 35.59 37.59 35.95C37.02 36.58 36.4 37.03 35.68 37.32C34.99 37.6 34.24 37.75 33.45 37.75ZM21.59 17.75C21.04 17.75 20.53 17.99 20.04 18.47C19.58 18.9 19.26 19.37 19.06 19.88C18.85 20.4 18.75 20.95 18.75 21.54C18.75 22.47 18.97 23.48 19.41 24.52C19.86 25.58 20.49 26.68 21.29 27.78C22.09 28.88 23 29.95 24 30.96C25 31.95 26.08 32.87 27.19 33.68C28.27 34.47 29.38 35.11 30.48 35.57C32.19 36.3 33.79 36.47 35.11 35.92C35.62 35.71 36.07 35.39 36.48 34.93C36.71 34.68 36.89 34.41 37.04 34.09C37.16 33.84 37.22 33.58 37.22 33.32C37.22 33.16 37.19 33 37.11 32.82C37.08 32.76 37.02 32.65 36.83 32.52L33.51 30.16C33.31 30.02 33.13 29.92 32.96 29.85C32.74 29.76 32.65 29.67 32.31 29.88C32.11 29.98 31.93 30.13 31.73 30.33L30.97 31.08C30.58 31.46 29.98 31.55 29.52 31.38L29.25 31.26C28.84 31.04 28.36 30.7 27.83 30.25C27.35 29.84 26.83 29.36 26.2 28.74C25.71 28.24 25.22 27.71 24.71 27.12C24.24 26.57 23.9 26.1 23.69 25.71L23.57 25.41C23.51 25.18 23.49 25.05 23.49 24.91C23.49 24.55 23.62 24.23 23.87 23.98L24.62 23.2C24.82 23 24.97 22.81 25.07 22.64C25.15 22.51 25.18 22.4 25.18 22.3C25.18 22.22 25.15 22.1 25.1 21.98C25.03 21.82 24.92 21.64 24.78 21.45L22.46 18.17C22.36 18.03 22.24 17.93 22.09 17.86C21.93 17.79 21.76 17.75 21.59 17.75ZM29.95 30.01L29.79 30.69L30.06 29.99C30.01 29.98 29.97 29.99 29.95 30.01Z" fill="#71839B"/>
</svg>
