<svg width="14" height="14" viewBox="0 0 14 14" fill="none" xmlns="http://www.w3.org/2000/svg">
<path d="M8.45817 5.39584H1.1665C0.927337 5.39584 0.729004 5.19751 0.729004 4.95834C0.729004 4.71918 0.927337 4.52084 1.1665 4.52084H8.45817C8.69734 4.52084 8.89567 4.71918 8.89567 4.95834C8.89567 5.19751 8.69734 5.39584 8.45817 5.39584Z" fill="white"/>
<path d="M4.66667 10.0625H3.5C3.26083 10.0625 3.0625 9.86417 3.0625 9.625C3.0625 9.38583 3.26083 9.1875 3.5 9.1875H4.66667C4.90583 9.1875 5.10417 9.38583 5.10417 9.625C5.10417 9.86417 4.90583 10.0625 4.66667 10.0625Z" fill="white"/>
<path d="M8.45833 10.0625H6.125C5.88583 10.0625 5.6875 9.86417 5.6875 9.625C5.6875 9.38583 5.88583 9.1875 6.125 9.1875H8.45833C8.6975 9.1875 8.89583 9.38583 8.89583 9.625C8.89583 9.86417 8.6975 10.0625 8.45833 10.0625Z" fill="white"/>
<path d="M10.2432 12.3958H3.7565C1.43484 12.3958 0.729004 11.6958 0.729004 9.39749V4.60249C0.729004 2.30416 1.43484 1.60416 3.7565 1.60416H8.45817C8.69734 1.60416 8.89567 1.80249 8.89567 2.04166C8.89567 2.28082 8.69734 2.47916 8.45817 2.47916H3.7565C1.92484 2.47916 1.604 2.79416 1.604 4.60249V9.39166C1.604 11.2 1.92484 11.515 3.7565 11.515H10.2373C12.069 11.515 12.3898 11.2 12.3898 9.39166V8.17832C12.3898 7.93916 12.5882 7.74082 12.8273 7.74082C13.0665 7.74082 13.2648 7.93916 13.2648 8.17832V9.39166C13.2707 11.6958 12.5648 12.3958 10.2432 12.3958Z" fill="white"/>
<path d="M11.6665 5.97915C11.4273 5.97915 11.229 5.78082 11.229 5.54165V2.04165C11.229 1.86665 11.334 1.70332 11.4973 1.63915C11.6607 1.57498 11.8473 1.60998 11.9757 1.73248L13.1423 2.89915C13.3115 3.06832 13.3115 3.34832 13.1423 3.51749C12.9732 3.68665 12.6932 3.68665 12.524 3.51749L12.104 3.09748V5.54165C12.104 5.78082 11.9057 5.97915 11.6665 5.97915Z" fill="white"/>
<path d="M10.5 3.64583C10.3892 3.64583 10.2783 3.605 10.1908 3.5175C10.0217 3.34833 10.0217 3.06833 10.1908 2.89916L11.3575 1.7325C11.5267 1.56333 11.8067 1.56333 11.9758 1.7325C12.145 1.90166 12.145 2.18166 11.9758 2.35083L10.8092 3.5175C10.7217 3.605 10.6108 3.64583 10.5 3.64583Z" fill="white"/>
</svg>
