<svg width="20" height="20" viewBox="0 0 20 20" fill="none" xmlns="http://www.w3.org/2000/svg">
<path d="M6.03268 1.66669H4.44935C2.62435 1.66669 1.66602 2.62502 1.66602 4.44169V6.02502C1.66602 7.84169 2.62435 8.80002 4.44102 8.80002H6.02435C7.84102 8.80002 8.79935 7.84169 8.79935 6.02502V4.44169C8.80768 2.62502 7.84935 1.66669 6.03268 1.66669Z" fill="#FFA500"/>
<path d="M15.5576 1.66669H13.9742C12.1576 1.66669 11.1992 2.62502 11.1992 4.44169V6.02502C11.1992 7.84169 12.1576 8.80002 13.9742 8.80002H15.5576C17.3742 8.80002 18.3326 7.84169 18.3326 6.02502V4.44169C18.3326 2.62502 17.3742 1.66669 15.5576 1.66669Z" fill="#FFA500"/>
<path d="M15.5576 11.1917H13.9742C12.1576 11.1917 11.1992 12.15 11.1992 13.9667V15.55C11.1992 17.3667 12.1576 18.325 13.9742 18.325H15.5576C17.3742 18.325 18.3326 17.3667 18.3326 15.55V13.9667C18.3326 12.15 17.3742 11.1917 15.5576 11.1917Z" fill="#FFA500"/>
<path d="M6.03268 11.1917H4.44935C2.62435 11.1917 1.66602 12.15 1.66602 13.9667V15.55C1.66602 17.375 2.62435 18.3333 4.44102 18.3333H6.02435C7.84102 18.3333 8.79935 17.375 8.79935 15.5583V13.975C8.80768 12.15 7.84935 11.1917 6.03268 11.1917Z" fill="#FFA500"/>
</svg>
