<svg width="30" height="30" viewBox="0 0 30 30" fill="none" xmlns="http://www.w3.org/2000/svg">
<path d="M7.5 16.25C4.05 16.25 1.25 19.0375 1.25 22.5C1.25 25.9625 4.05 28.75 7.5 28.75C10.95 28.75 13.75 25.95 13.75 22.5C13.75 19.05 10.9625 16.25 7.5 16.25ZM4.94999 19.95H7.5C7.975 19.95 8.34999 20.3375 8.34999 20.8C8.34999 21.2625 7.9625 21.65 7.5 21.65H4.94999C4.47499 21.65 4.1 21.2625 4.1 20.8C4.1 20.3375 4.47499 19.95 4.94999 19.95ZM10.05 25.05H4.93752C4.46252 25.05 4.08749 24.6625 4.08749 24.2C4.08749 23.7375 4.47502 23.35 4.93752 23.35H10.05C10.525 23.35 10.9 23.7375 10.9 24.2C10.9 24.6625 10.525 25.05 10.05 25.05Z" fill="#FFA500"/>
<path opacity="0.4" d="M21.25 3.75H8.75C5 3.75 2.5 5.625 2.5 10V13.925C2.5 14.8375 3.43752 15.4125 4.27502 15.05C5.65002 14.45 7.21248 14.225 8.84998 14.4875C12.125 15.025 14.8 17.6125 15.4625 20.8625C15.65 21.8125 15.675 22.7375 15.55 23.625C15.45 24.3625 16.05 25.0125 16.7875 25.0125H21.25C25 25.0125 27.5 23.1375 27.5 18.7625V10.0125C27.5 5.62499 25 3.75 21.25 3.75Z" fill="#FFA500"/>
<path d="M15.0034 14.8379C13.9534 14.8379 12.8909 14.513 12.0784 13.8505L8.16588 10.7255C7.76588 10.4005 7.69089 9.81295 8.01589 9.41295C8.34089 9.01295 8.92837 8.93796 9.32837 9.26296L13.2409 12.388C14.1909 13.1505 15.8034 13.1505 16.7534 12.388L20.6659 9.26296C21.0659 8.93796 21.6659 9.00045 21.9784 9.41295C22.3034 9.81295 22.2409 10.413 21.8284 10.7255L17.9159 13.8505C17.1159 14.513 16.0534 14.8379 15.0034 14.8379Z" fill="#FFA500"/>
</svg>
