<svg width="76" height="76" viewBox="0 0 76 76" fill="none" xmlns="http://www.w3.org/2000/svg">
<circle cx="38" cy="38" r="38" fill="#FFF7F0"/>
<path d="M48.9166 47.9167H28.0833C27.6562 47.9167 27.302 47.5626 27.302 47.1355C27.302 46.7084 27.6562 46.3542 28.0833 46.3542H48.9166C49.3437 46.3542 49.6978 46.7084 49.6978 47.1355C49.6978 47.5626 49.3437 47.9167 48.9166 47.9167Z" fill="#FF9A3B"/>
<path d="M36.1562 29.1666V47.9166H40.8438V29.1666C40.8438 28.0208 40.375 27.0833 38.9687 27.0833H38.0313C36.625 27.0833 36.1562 28.0208 36.1562 29.1666Z" fill="#FF9A3B"/>
<path d="M29.125 35.4166V47.9166H33.2917V35.4166C33.2917 34.2708 32.875 33.3333 31.625 33.3333H30.7917C29.5417 33.3333 29.125 34.2708 29.125 35.4166Z" fill="#FF9A3B"/>
<path d="M43.7083 40.6251V47.9167H47.8749V40.6251C47.8749 39.4792 47.4583 38.5417 46.2083 38.5417H45.3749C44.1249 38.5417 43.7083 39.4792 43.7083 40.6251Z" fill="#FF9A3B"/>
</svg>
