<svg width="12" height="12" viewBox="0 0 12 12" fill="none" xmlns="http://www.w3.org/2000/svg">
<path d="M6 0L4.57822 0.694294L2.99938 0.803094L2.117 2.117L0.803094 2.99939L0.694601 4.57822L0 6L0.694601 7.42178L0.803094 9.00062L2.117 9.883L2.99938 11.1969L4.57822 11.3054L6 12L6.63107 5.77794L6 0Z" fill="#FBB91E"/>
<path d="M12 6L11.3054 7.42178L11.1969 9.00062L9.883 9.883L9.00061 11.1969L7.42178 11.3054L6 12V0L7.42178 0.694294L9.00061 0.803094L9.883 2.117L11.1969 2.99939L11.3054 4.57822L12 6Z" fill="#F98A52"/>
<path d="M7.44526 6.0002L6.00313 9.8585C3.872 9.8585 2.14453 8.13103 2.14453 6.0002C2.14453 3.86907 3.872 2.1416 6.00313 2.1416L7.44526 6.0002Z" fill="#FEDE0E"/>
<path d="M9.8586 6.0002C9.8586 8.131 8.13113 9.8585 6 9.8585V2.1416C8.13113 2.1416 9.8586 3.86907 9.8586 6.0002Z" fill="#FBB91E"/>
<path d="M5.9955 5.82973L5.64236 6.18287L4.59524 5.13574L3.94336 5.78762L5.64236 7.48694L5.9955 7.1338L6.43633 6.12217L5.9955 5.82973Z" fill="#58557D"/>
<path d="M8.05215 5.07571L6 7.12816V5.82409L7.40027 4.42383L8.05215 5.07571Z" fill="#3E3B58"/>
</svg>
