<svg width="24" height="24" viewBox="0 0 24 24" fill="none" xmlns="http://www.w3.org/2000/svg">
<path opacity="0.4" d="M16.24 3.65002H7.75998C5.28998 3.65002 3.28998 5.66002 3.28998 8.12002V17.53C3.28998 19.99 5.29998 22 7.75998 22H16.23C18.7 22 20.7 19.99 20.7 17.53V8.12002C20.71 5.65002 18.7 3.65002 16.24 3.65002Z" fill="white"/>
<path d="M14.35 2H9.65001C8.61001 2 7.76001 2.84 7.76001 3.88V4.82C7.76001 5.86 8.60001 6.7 9.64001 6.7H14.35C15.39 6.7 16.23 5.86 16.23 4.82V3.88C16.24 2.84 15.39 2 14.35 2Z" fill="white"/>
<path d="M15 12.95H8C7.59 12.95 7.25 12.61 7.25 12.2C7.25 11.79 7.59 11.45 8 11.45H15C15.41 11.45 15.75 11.79 15.75 12.2C15.75 12.61 15.41 12.95 15 12.95Z" fill="white"/>
<path d="M12.38 16.95H8C7.59 16.95 7.25 16.61 7.25 16.2C7.25 15.79 7.59 15.45 8 15.45H12.38C12.79 15.45 13.13 15.79 13.13 16.2C13.13 16.61 12.79 16.95 12.38 16.95Z" fill="white"/>
</svg>
