<svg width="20" height="20" viewBox="0 0 20 20" fill="none" xmlns="http://www.w3.org/2000/svg">
<path d="M8.78361 18.2833C8.59194 18.2833 8.40861 18.2 8.28361 18.0333L7.44193 16.9083C7.26693 16.675 7.03362 16.5416 6.78362 16.525C6.53362 16.5083 6.28359 16.625 6.08359 16.8333C4.87526 18.125 3.9586 18.0167 3.51694 17.85C3.06694 17.675 2.30859 17.1 2.30859 15.25V5.86666C2.30859 2.16666 3.37526 1.04166 6.86693 1.04166H13.1586C16.6503 1.04166 17.7169 2.16666 17.7169 5.86666V9.41665C17.7169 9.75831 17.4336 10.0416 17.0919 10.0416C16.7503 10.0416 16.4669 9.75831 16.4669 9.41665V5.86666C16.4669 2.85833 15.9419 2.29166 13.1586 2.29166H6.86693C4.08359 2.29166 3.55859 2.85833 3.55859 5.86666V15.25C3.55859 16.125 3.77526 16.6083 3.97526 16.6833C4.12526 16.7416 4.53361 16.6583 5.16695 15.9833C5.62528 15.5 6.22527 15.2416 6.85027 15.275C7.46694 15.3083 8.05027 15.6333 8.44194 16.1583L9.29193 17.2833C9.50026 17.5583 9.44194 17.95 9.16694 18.1583C9.04194 18.25 8.90861 18.2833 8.78361 18.2833Z" fill="#71839B"/>
<path d="M15.1667 18.4583C13.35 18.4583 11.875 16.9833 11.875 15.1667C11.875 13.35 13.35 11.875 15.1667 11.875C16.9833 11.875 18.4583 13.35 18.4583 15.1667C18.4583 16.9833 16.9833 18.4583 15.1667 18.4583ZM15.1667 13.125C14.0417 13.125 13.125 14.0417 13.125 15.1667C13.125 16.2917 14.0417 17.2083 15.1667 17.2083C16.2917 17.2083 17.2083 16.2917 17.2083 15.1667C17.2083 14.0417 16.2917 13.125 15.1667 13.125Z" fill="#71839B"/>
<path d="M18.3352 18.9583C18.1768 18.9583 18.0185 18.9 17.8935 18.775L17.0602 17.9417C16.8185 17.7 16.8185 17.3 17.0602 17.0583C17.3018 16.8167 17.7018 16.8167 17.9435 17.0583L18.7768 17.8917C19.0185 18.1333 19.0185 18.5333 18.7768 18.775C18.6518 18.9 18.4935 18.9583 18.3352 18.9583Z" fill="#71839B"/>
<path d="M13.3346 6.45834H6.66797C6.3263 6.45834 6.04297 6.17501 6.04297 5.83334C6.04297 5.49168 6.3263 5.20834 6.66797 5.20834H13.3346C13.6763 5.20834 13.9596 5.49168 13.9596 5.83334C13.9596 6.17501 13.6763 6.45834 13.3346 6.45834Z" fill="#71839B"/>
<path d="M12.5 9.79166H7.5C7.15833 9.79166 6.875 9.50832 6.875 9.16666C6.875 8.82499 7.15833 8.54166 7.5 8.54166H12.5C12.8417 8.54166 13.125 8.82499 13.125 9.16666C13.125 9.50832 12.8417 9.79166 12.5 9.79166Z" fill="#71839B"/>
</svg>
