<svg width="20" height="20" viewBox="0 0 20 20" fill="none" xmlns="http://www.w3.org/2000/svg">
<path d="M13.1474 1.66602H6.8474C3.6974 1.66602 2.91406 2.50768 2.91406 5.86602V15.2493C2.91406 17.466 4.13073 17.991 5.60573 16.4077L5.61406 16.3994C6.2974 15.6743 7.33906 15.7327 7.93073 16.5243L8.7724 17.6494C9.4474 18.541 10.5391 18.541 11.2141 17.6494L12.0557 16.5243C12.6557 15.7243 13.6974 15.666 14.3807 16.3994C15.8641 17.9827 17.0724 17.4577 17.0724 15.241V5.86602C17.0807 2.50768 16.2974 1.66602 13.1474 1.66602ZM13.0474 12.1077C12.9224 12.2327 12.7641 12.291 12.6057 12.291C12.4474 12.291 12.2891 12.2327 12.1641 12.1077L11.5474 11.491C11.0641 11.8077 10.4807 11.9993 9.85573 11.9993C8.15573 11.9993 6.7724 10.616 6.7724 8.91602C6.7724 7.21602 8.1474 5.83268 9.85573 5.83268C11.5641 5.83268 12.9391 7.21602 12.9391 8.91602C12.9391 9.54102 12.7474 10.1243 12.4307 10.6077L13.0474 11.2243C13.2891 11.466 13.2891 11.866 13.0474 12.1077Z" fill="#71839B"/>
</svg>
