<svg width="26" height="26" viewBox="0 0 26 26" fill="none" xmlns="http://www.w3.org/2000/svg">
<path d="M8.09627 21.9511C7.57233 22.1258 7.28917 22.6921 7.46382 23.216C7.63846 23.74 8.20478 24.0231 8.72873 23.8485L8.09627 21.9511ZM15.1625 23.3498L15.0718 22.3539L15.1625 23.3498ZM19.2125 22.4498L19.6511 23.3485L19.2125 22.4498ZM23.0824 18.9294L22.3053 18.3001V18.3001L23.0824 18.9294ZM20.4356 16.7267L21.1427 17.4338L20.4356 16.7267ZM18.6533 18.509L19.3604 19.2161H19.3604L18.6533 18.509ZM13.8125 18.2998C13.2602 18.2998 12.8125 18.7475 12.8125 19.2998C12.8125 19.8521 13.2602 20.2998 13.8125 20.2998V18.2998ZM22.6709 16.5054L22.1162 17.3374L22.6709 16.5054ZM9.78228 15.9149L10.2295 16.8093L9.78228 15.9149ZM14.6265 15.4718L14.8896 14.507V14.507L14.6265 15.4718ZM16.5182 15.9877L16.2551 16.9525L16.5182 15.9877ZM17.1176 18.2447L16.4105 17.5376H16.4105L17.1176 18.2447ZM15.3554 18.5927C14.9649 18.9832 14.9649 19.6164 15.3554 20.0069C15.7459 20.3974 16.3791 20.3974 16.7696 20.0069L15.3554 18.5927ZM8.72873 23.8485C8.87145 23.8009 9.1574 23.7715 9.64918 23.8066C10.1205 23.8402 10.6699 23.9226 11.2948 24.0208C12.4859 24.2079 13.9768 24.462 15.2532 24.3457L15.0718 22.3539C14.0982 22.4426 12.8891 22.2467 11.6052 22.045C10.9926 21.9488 10.3607 21.8522 9.79145 21.8116C9.2426 21.7725 8.62855 21.7737 8.09627 21.9511L8.72873 23.8485ZM15.2532 24.3457C16.0858 24.2698 16.7849 24.2345 17.4309 24.1176C18.1275 23.9915 18.7817 23.7727 19.6511 23.3485L18.7739 21.5511C18.0327 21.9128 17.5543 22.0628 17.0747 22.1496C16.5445 22.2455 16.024 22.2672 15.0718 22.3539L15.2532 24.3457ZM19.6511 23.3485C20.4885 22.9399 21.2997 22.2789 22.0004 21.6056C22.7107 20.9231 23.3563 20.1801 23.8595 19.5588L22.3053 18.3001C21.8333 18.8828 21.245 19.5578 20.6147 20.1635C19.9747 20.7784 19.3386 21.2756 18.7739 21.5511L19.6511 23.3485ZM19.7285 16.0196L17.9462 17.8019L19.3604 19.2161L21.1427 17.4338L19.7285 16.0196ZM16.7441 18.2998H13.8125V20.2998H16.7441V18.2998ZM17.9462 17.8019C17.6274 18.1207 17.195 18.2998 16.7441 18.2998V20.2998C17.7254 20.2998 18.6665 19.91 19.3604 19.2161L17.9462 17.8019ZM23.2256 15.6733C22.1263 14.9405 20.6626 15.0854 19.7285 16.0196L21.1427 17.4338C21.4027 17.1738 21.8102 17.1334 22.1162 17.3374L23.2256 15.6733ZM23.8595 19.5588C24.88 18.2988 24.4974 16.5212 23.2256 15.6733L22.1162 17.3374C22.4862 17.5841 22.5267 18.0267 22.3053 18.3001L23.8595 19.5588ZM3.4625 15.7998H7.0625V13.7998H3.4625V15.7998ZM6.9625 15.6998V23.7998H8.9625V15.6998H6.9625ZM7.0625 23.6998H3.4625V25.6998H7.0625V23.6998ZM3.5625 23.7998V15.6998H1.5625V23.7998H3.5625ZM3.4625 23.6998C3.51773 23.6998 3.5625 23.7446 3.5625 23.7998H1.5625C1.5625 24.8491 2.41316 25.6998 3.4625 25.6998V23.6998ZM6.9625 23.7998C6.9625 23.7446 7.00727 23.6998 7.0625 23.6998V25.6998C8.11184 25.6998 8.9625 24.8491 8.9625 23.7998H6.9625ZM7.0625 15.7998C7.00727 15.7998 6.9625 15.755 6.9625 15.6998H8.9625C8.9625 14.6505 8.11184 13.7998 7.0625 13.7998V15.7998ZM3.4625 13.7998C2.41316 13.7998 1.5625 14.6505 1.5625 15.6998H3.5625C3.5625 15.755 3.51773 15.7998 3.4625 15.7998V13.7998ZM8.85971 17.4942L10.2295 16.8093L9.33507 15.0205L7.96529 15.7054L8.85971 17.4942ZM12.5997 16.2498H12.9688V14.2498H12.5997V16.2498ZM14.3633 16.4366L16.2551 16.9525L16.7813 15.023L14.8896 14.507L14.3633 16.4366ZM16.4105 17.5376L15.3554 18.5927L16.7696 20.0069L17.8247 18.9518L16.4105 17.5376ZM16.2551 16.9525C16.5143 17.0232 16.6005 17.3476 16.4105 17.5376L17.8247 18.9518C19.1006 17.676 18.5221 15.4977 16.7813 15.023L16.2551 16.9525ZM12.9688 16.2498C13.4399 16.2498 13.9089 16.3126 14.3633 16.4366L14.8896 14.507C14.2636 14.3363 13.6177 14.2498 12.9688 14.2498V16.2498ZM10.2295 16.8093C10.9654 16.4414 11.7769 16.2498 12.5997 16.2498V14.2498C11.4664 14.2498 10.3487 14.5137 9.33507 15.0205L10.2295 16.8093ZM18.6625 8.4998C18.6625 9.93574 17.4984 11.0998 16.0625 11.0998V13.0998C18.603 13.0998 20.6625 11.0403 20.6625 8.4998H18.6625ZM16.0625 11.0998C14.6266 11.0998 13.4625 9.93574 13.4625 8.4998H11.4625C11.4625 11.0403 13.522 13.0998 16.0625 13.0998V11.0998ZM13.4625 8.4998C13.4625 7.06386 14.6266 5.8998 16.0625 5.8998V3.8998C13.522 3.8998 11.4625 5.95929 11.4625 8.4998H13.4625ZM16.0625 5.8998C17.4984 5.8998 18.6625 7.06386 18.6625 8.4998H20.6625C20.6625 5.95929 18.603 3.8998 16.0625 3.8998V5.8998ZM12.4625 7.4998C11.0266 7.4998 9.8625 6.33574 9.8625 4.8998H7.8625C7.8625 7.44031 9.92199 9.4998 12.4625 9.4998V7.4998ZM9.8625 4.8998C9.8625 3.46386 11.0266 2.2998 12.4625 2.2998V0.299805C9.92199 0.299805 7.8625 2.35929 7.8625 4.8998H9.8625ZM12.4625 2.2998C13.8984 2.2998 15.0625 3.46386 15.0625 4.8998H17.0625C17.0625 2.35929 15.003 0.299805 12.4625 0.299805V2.2998Z" fill="#71839B"/>
</svg>
