<svg width="15" height="15" viewBox="0 0 15 15" fill="none" xmlns="http://www.w3.org/2000/svg">
<path d="M7.5 14.2188C5 14.2188 2.96875 12.425 2.96875 10.2188V7.90627C2.96875 7.65002 3.18125 7.43752 3.4375 7.43752C3.69375 7.43752 3.90625 7.65002 3.90625 7.90627C3.90625 9.54377 5.45 10.7813 7.5 10.7813C9.55 10.7813 11.0938 9.54377 11.0938 7.90627C11.0938 7.65002 11.3063 7.43752 11.5625 7.43752C11.8187 7.43752 12.0312 7.65002 12.0312 7.90627V10.2188C12.0312 12.425 10 14.2188 7.5 14.2188ZM3.90625 10.2875C3.95 11.9438 5.54375 13.2813 7.5 13.2813C9.45625 13.2813 11.05 11.9438 11.0938 10.2875C10.2813 11.1688 8.99375 11.7188 7.5 11.7188C6.00625 11.7188 4.725 11.1688 3.90625 10.2875Z" fill="white"/>
<path d="M7.5 8.59375C5.775 8.59375 4.22499 7.81875 3.46874 6.56875C3.14374 6.0375 2.96875 5.41875 2.96875 4.78125C2.96875 3.70625 3.45 2.69375 4.31875 1.93125C5.16875 1.1875 6.3 0.78125 7.5 0.78125C8.7 0.78125 9.825 1.1875 10.6812 1.925C11.55 2.69375 12.0312 3.70625 12.0312 4.78125C12.0312 5.41875 11.8563 6.03125 11.5313 6.56875C10.775 7.81875 9.225 8.59375 7.5 8.59375ZM7.5 1.71875C6.525 1.71875 5.61251 2.04375 4.93126 2.64375C4.26876 3.21875 3.90625 3.98125 3.90625 4.78125C3.90625 5.25 4.03124 5.6875 4.26874 6.08125C4.86249 7.05625 6.1 7.65625 7.5 7.65625C8.9 7.65625 10.1375 7.05 10.7313 6.08125C10.975 5.6875 11.0938 5.25 11.0938 4.78125C11.0938 3.98125 10.7313 3.21875 10.0625 2.63125C9.38125 2.04375 8.475 1.71875 7.5 1.71875Z" fill="white"/>
<path d="M7.5 11.7188C4.91875 11.7188 2.96875 10.0813 2.96875 7.90625V4.78125C2.96875 2.575 5 0.78125 7.5 0.78125C8.7 0.78125 9.825 1.1875 10.6812 1.925C11.55 2.69375 12.0312 3.70625 12.0312 4.78125V7.90625C12.0312 10.0813 10.0813 11.7188 7.5 11.7188ZM7.5 1.71875C5.51875 1.71875 3.90625 3.09375 3.90625 4.78125V7.90625C3.90625 9.54375 5.45 10.7812 7.5 10.7812C9.55 10.7812 11.0938 9.54375 11.0938 7.90625V4.78125C11.0938 3.98125 10.7313 3.21875 10.0625 2.63125C9.38125 2.04375 8.475 1.71875 7.5 1.71875Z" fill="white"/>
</svg>
