<svg width="15" height="15" viewBox="0 0 15 15" fill="none" xmlns="http://www.w3.org/2000/svg">
<path d="M11.0376 14.1687C10.7063 14.1687 10.2813 14.0625 9.75007 13.75L7.88132 12.6437C7.68757 12.5312 7.31257 12.5312 7.12507 12.6437L5.25007 13.75C4.14382 14.4062 3.49382 14.1437 3.20007 13.9312C2.91257 13.7187 2.46257 13.175 2.75632 11.925L3.20007 10.0062C3.25007 9.8062 3.15007 9.46245 3.00007 9.31245L1.45007 7.76245C0.675074 6.98745 0.737574 6.32495 0.843824 5.99995C0.950074 5.67495 1.28757 5.09995 2.36257 4.9187L4.35632 4.58745C4.54382 4.5562 4.81257 4.3562 4.89382 4.18745L6.00007 1.9812C6.50007 0.974951 7.15632 0.824951 7.50007 0.824951C7.84382 0.824951 8.50007 0.974951 9.00007 1.9812L10.1001 4.1812C10.1876 4.34995 10.4563 4.54995 10.6438 4.5812L12.6376 4.91245C13.7188 5.0937 14.0563 5.6687 14.1563 5.9937C14.2563 6.3187 14.3188 6.9812 13.5501 7.7562L12.0001 9.31245C11.8501 9.46245 11.7563 9.79995 11.8001 10.0062L12.2438 11.925C12.5313 13.175 12.0876 13.7187 11.8001 13.9312C11.6438 14.0437 11.3938 14.1687 11.0376 14.1687ZM7.50007 11.6187C7.80632 11.6187 8.11257 11.6937 8.35632 11.8375L10.2251 12.9437C10.7688 13.2687 11.1126 13.2687 11.2438 13.175C11.3751 13.0812 11.4688 12.75 11.3313 12.1375L10.8876 10.2187C10.7688 9.69995 10.9626 9.0312 11.3376 8.64995L12.8876 7.09995C13.1938 6.7937 13.3313 6.4937 13.2688 6.28745C13.2001 6.0812 12.9126 5.91245 12.4876 5.8437L10.4938 5.51245C10.0126 5.4312 9.48757 5.0437 9.26882 4.6062L8.16882 2.4062C7.96882 2.0062 7.71882 1.7687 7.50007 1.7687C7.28132 1.7687 7.03132 2.0062 6.83757 2.4062L5.73132 4.6062C5.51257 5.0437 4.98757 5.4312 4.50632 5.51245L2.51882 5.8437C2.09382 5.91245 1.80632 6.0812 1.73757 6.28745C1.66882 6.4937 1.81257 6.79995 2.11882 7.09995L3.66882 8.64995C4.04382 9.02495 4.23757 9.69995 4.11882 10.2187L3.67507 12.1375C3.53132 12.7562 3.63132 13.0812 3.76257 13.175C3.89382 13.2687 4.23132 13.2625 4.78132 12.9437L6.65007 11.8375C6.88757 11.6937 7.19382 11.6187 7.50007 11.6187Z" fill="#ADB1B8"/>
</svg>
