<?xml version="1.0" encoding="UTF-8"?>
<svg width="24px" height="24px" viewBox="0 0 24 24" version="1.1" xmlns="http://www.w3.org/2000/svg" xmlns:xlink="http://www.w3.org/1999/xlink">
    <title>切片</title>
    <defs>
        <path d="M17.9530924,9.64839331 C18.3269448,7.12687767 16.4218911,5.7711194 13.8155981,4.86645348 L14.6605636,1.45030956 L12.5959965,0.931434939 L11.7734614,4.25802956 L11.7734686,4.25803134 C11.223476,4.12203897 10.6721659,3.99150001 10.1196204,3.86643175 L10.9487241,0.518934776 L8.88471685,0 L8.03896764,3.41445218 L8.03896552,3.4144517 C7.59846383,3.31503507 7.1589437,3.21127029 6.72046112,3.10317204 L6.72296168,3.09226973 L3.8765776,2.37591297 L3.32738738,4.59697607 C3.32738738,4.59697607 4.85858869,4.9509627 4.8262307,4.97272972 C5.66283607,5.1828059 5.81320559,5.74013935 5.78827463,6.18202113 L4.82455122,10.0735056 C4.88269857,10.0885433 4.95745413,10.1094833 5.04053245,10.1429796 L4.82205066,10.0885809 L3.47197202,15.5399976 C3.36978494,15.796089 3.10972667,16.1793615 2.52567788,16.0337593 C2.5464288,16.0638722 1.02522973,15.6571786 1.02522973,15.6571786 L0,18.037265 L2.68683713,18.7117418 C3.18620276,18.8372687 3.6754915,18.9694874 4.15821161,19.0941872 L3.30413963,22.5496547 L5.36624349,23.0677022 L6.21199271,19.6490395 L6.21199331,19.6490396 C6.75878001,19.7983982 7.30715662,19.9417907 7.8570261,20.0791921 L7.01456121,23.4819524 L9.07830723,24 L9.9323792,20.5511868 C13.452571,21.2223553 16.0995447,20.9511886 17.214496,17.7442938 C18.1117866,15.1625147 17.1696352,13.6728837 15.3177277,12.7012625 C16.6661642,12.3882911 17.6822501,11.4944899 17.9530944,9.64835342 L17.9530924,9.64839331 Z M13.2365505,16.3099285 C12.598497,18.8925346 8.28238065,17.4966258 6.88329849,17.1468121 L8.0165375,12.5690838 C9.41561966,12.9205892 13.9036776,13.6176977 13.2365505,16.3099285 L13.2365505,16.3099285 Z M13.875425,9.61072396 C13.2930557,11.9598328 9.70060889,10.7664437 8.53497456,10.4743746 L9.56266753,6.32262576 C10.7283019,6.61552187 14.4811204,7.16116354 13.8746039,9.61155103 L13.875425,9.61072396 Z" id="path-1"></path>
    </defs>
    <g id="首页" stroke="none" stroke-width="1" fill="none" fill-rule="evenodd">
        <g id="首页活动icon下拉" transform="translate(-196.000000, -20.000000)">
            <g id="编组-7" transform="translate(196.000000, 20.000000)">
                <g id="路径-8备份-+-路径-10备份-+-路径-11备份-+-路径-12备份-+-路径-13备份-+-路径-14备份-+-路径-16备份-+-路径-17备份-+-路径-18备份-+-路径-19备份-+-路径-20备份-+-路径-21备份-+-路径-22备份-+-路径-23备份-+-路径-24备份-蒙版" transform="translate(3.000000, 0.000000)">
                    <mask id="mask-2" fill="white">
                        <use xlink:href="#path-1"></use>
                    </mask>
                    <use id="蒙版" fill="#555555" fill-rule="nonzero" xlink:href="#path-1"></use>
                    <polygon id="路径-8备份" fill="#FF5B50" mask="url(#mask-2)" points="8.03896764 3.41445218 5.49415054 7.36268206 3.32738738 4.59697607 3.8765776 2.37591297"></polygon>
                    <polygon id="路径-10备份" fill="#FEA600" mask="url(#mask-2)" points="0 18.037265 1.02522973 15.6571786 3.5402092 15.203308 4.15821161 19.0941872"></polygon>
                    <polygon id="路径-11备份" fill="#25C072" mask="url(#mask-2)" points="8.03896764 3.41445218 8.88471685 0 10.9487241 0.518934776 10.1196204 3.86643175"></polygon>
                    <polygon id="路径-12备份" fill="#FF5B50" mask="url(#mask-2)" points="11.7734686 4.25803134 12.5959965 0.931434939 14.6605636 1.45030956 13.8155981 4.86645348"></polygon>
                    <polygon id="路径-13备份" fill="#0F6AFF" mask="url(#mask-2)" points="4.15821161 19.0941872 3.30413963 22.5496547 5.36624349 23.0677022 6.21199271 19.6490395"></polygon>
                    <polygon id="路径-14备份" fill="#FEA600" mask="url(#mask-2)" points="7.01456121 23.4819524 7.8570261 20.0791921 9.9323792 20.5511868 9.07830723 24"></polygon>
                    <polygon id="路径-16备份" fill="#FF5B50" mask="url(#mask-2)" points="8.0165375 12.5690838 6.26332397 19.6697062 4.15821161 19.0941872 3.5402092 15.203308 4.43344574 11.687542"></polygon>
                    <polygon id="路径-17备份" fill="#0F6AFF" mask="url(#mask-2)" points="4.43344574 11.687542 5.49415054 7.36268206 8.03896764 3.4144517 10.1751595 3.86643175 8.0165375 12.5690838"></polygon>
                    <path d="M8.53497456,10.4743746 C9.78297294,10.8105451 10.6504929,10.9898367 11.1375343,11.0122496 C11.7415729,11.7231157 11.7388114,13.0190009 11.007272,13.3839117 C10.3802341,13.148173 9.38332266,12.8765636 8.0165375,12.5690838 L8.53497456,10.4743746 Z" id="路径-18备份" fill="#25C072" mask="url(#mask-2)"></path>
                    <path d="M6.26332397,19.6697062 L6.88329849,17.1487476 C8.39000931,17.5581071 9.56324463,17.787702 10.4030045,17.8375322 C11.6626442,17.9122776 10.8647584,20.717831 9.9323792,20.5511868 C9.31079307,20.4400906 8.08777466,20.1462637 6.26332397,19.6697062 Z" id="路径-19备份" fill="#0F6AFF" mask="url(#mask-2)"></path>
                    <path d="M9.56266753,6.32262576 L10.1751595,3.86643175 C12.2030639,4.33958077 13.4165434,4.67386936 13.8155981,4.86929751 C14.4141801,5.16243975 13.9240414,8.19652576 12.9831528,7.52010269 C12.3558937,7.06915398 11.215732,6.669995 9.56266753,6.32262576 Z" id="路径-20备份" fill="#FEA600" mask="url(#mask-2)"></path>
                    <path d="M10.4609053,17.8375322 C10.9397392,17.8375322 12.2259121,17.9005142 12.9384121,16.9833698 C13.6509121,16.0662254 16.4955507,19.043673 15.7758694,19.9286808 C14.7901955,20.691267 13.2047024,21.2156776 10.0312866,20.5583253 C11.0001892,20.3538815 11.0535862,18.4022072 10.4609053,17.8375322 Z" id="路径-21备份" fill="#25C072" mask="url(#mask-2)"></path>
                    <path d="M12.9384121,16.9833698 C14.6707432,16.8099779 15.9054657,18.9561069 15.813866,19.8794632 C16.589875,19.5167702 19.6484894,14.8273487 15.3177277,12.7012625 C14.2848518,12.6367942 13.0948254,13.260759 12.7875366,14.488266 C13.7330853,15.6093172 13.1387959,16.6433784 12.9384121,16.9833698 Z" id="路径-22备份" fill="#0F6AFF" mask="url(#mask-2)"></path>
                    <path d="M13.0552671,7.55874767 C13.5668604,7.55874767 14.4194332,5.73829193 13.8155981,4.86645348 C15.5120007,5.36846151 17.4304037,6.36972891 17.8671673,7.99176773 C18.3966064,9.95798206 17.481847,12.287804 15.3177277,12.6967259 C15.1872594,11.5500332 14.5924667,10.4350704 13.4235134,10.4350704 C14.4770966,9.05396057 13.6042791,7.94036329 13.0552671,7.55874767 Z" id="路径-23备份" fill="#0F6AFF" mask="url(#mask-2)"></path>
                    <path d="M11.1375343,11.0122496 C11.5146601,11.6077957 11.9432528,12.8096357 10.9834242,13.3839117 C11.7289663,13.67992 12.3303371,14.0480381 12.7875366,14.488266 C13.3780582,13.2582181 14.2214552,12.661038 15.3177277,12.6967259 C15.2383959,11.681707 14.7864836,10.5271887 13.4235134,10.4350704 C13.2574156,10.6390441 12.6065992,11.1517399 11.1375343,11.0122496 Z" id="路径-24备份" fill="#FEA600" mask="url(#mask-2)"></path>
                </g>
            </g>
        </g>
    </g>
</svg>