<svg width="1919" height="752" viewBox="0 0 1919 752" fill="none" xmlns="http://www.w3.org/2000/svg">
<mask id="mask0_4004_10747" style="mask-type:alpha" maskUnits="userSpaceOnUse" x="0" y="0" width="1919" height="752">
<rect width="1919" height="752" fill="#D9D9D9"/>
</mask>
<g mask="url(#mask0_4004_10747)">
<rect x="-1" width="1920" height="752" fill="#FAFAFA"/>
<mask id="mask1_4004_10747" style="mask-type:alpha" maskUnits="userSpaceOnUse" x="-1" y="-17" width="1920" height="769">
<rect x="-1" y="-17" width="1920" height="769" fill="#FAFAFA"/>
</mask>
<g mask="url(#mask1_4004_10747)">
<path d="M254 79.0725C167.6 346.501 -64 317.358 -169 269.358L-189 103.501L-235 -157.499C-36 -190.07 340.4 -188.356 254 79.0725Z" fill="#F3F4F5"/>
<path d="M1702.03 182.244C1912.2 286.354 2055.59 50.7082 2101.02 -80.1284L2021.44 -213.178L1906.24 -436.07C1750.6 -273.345 1491.86 78.1336 1702.03 182.244Z" fill="#F3F4F5"/>
</g>
<ellipse cx="558" cy="54" rx="20" ry="21" fill="#F3F4F5"/>
<ellipse cx="1257" cy="12.5" rx="49" ry="48.5" fill="#F3F4F5"/>
<path d="M1319.67 206.605L1322.21 202.604L1318.3 196.714H1310V217.285H1319.38L1323 211.085L1319.67 206.605ZM1316.89 199.947L1318.52 202.651L1317.38 203.83L1315.11 199.947H1316.89ZM1312.46 201.889H1313.12L1315.11 205.545H1312.46V201.889ZM1312.46 214.273C1312.35 214.273 1312.46 209.86 1312.46 209.86H1313.1L1315.46 214.273C1315.46 214.273 1312.58 214.273 1312.46 214.273ZM1318.19 213.114L1315.6 208.531H1317.69L1319.44 211.569L1318.19 213.114Z" fill="white"/>
</g>
</svg>
