<svg width="70" height="70" viewBox="0 0 70 70" fill="none" xmlns="http://www.w3.org/2000/svg">
<circle cx="35" cy="35" r="35" fill="#FAFAFA" fill-opacity="0.980392"/>
<path d="M45.7711 36.3379C45.2961 36.3379 44.8961 35.9754 44.8336 35.5004C44.5336 32.6754 43.0086 30.1129 40.6586 28.4879C40.2336 28.1879 40.1336 27.6129 40.4211 27.1879C40.7211 26.7629 41.3086 26.6629 41.7211 26.9504C44.5211 28.8879 46.3211 31.9379 46.6836 35.3004C46.7336 35.8129 46.3711 36.2754 45.8461 36.3379C45.8336 36.3379 45.7961 36.3379 45.7711 36.3379Z" fill="#292D32"/>
<path d="M24.3638 36.4001C24.3263 36.4001 24.3013 36.4001 24.2638 36.4001C23.7513 36.3376 23.3763 35.8751 23.4263 35.3626C23.7638 32.0001 25.5513 28.9626 28.3138 27.0001C28.7388 26.7001 29.3263 26.8001 29.6263 27.2251C29.9263 27.6501 29.8263 28.2376 29.4013 28.5376C27.0763 30.1751 25.5763 32.7376 25.2888 35.5626C25.2513 36.0376 24.8388 36.4001 24.3638 36.4001Z" fill="#292D32"/>
<path d="M35.075 48.2625C33.225 48.2625 31.4625 47.8375 29.8125 47.0125C29.35 46.775 29.1625 46.2125 29.4 45.75C29.6375 45.2875 30.2 45.1 30.6625 45.3375C33.3625 46.7 36.6125 46.725 39.3375 45.4125C39.8 45.1875 40.3625 45.3875 40.5875 45.85C40.8125 46.3125 40.6125 46.875 40.15 47.1C38.55 47.875 36.85 48.2625 35.075 48.2625Z" fill="#292D32"/>
<path d="M35.0766 30.5496C32.6391 30.5496 30.6641 28.5746 30.6641 26.1371C30.6641 23.6996 32.6391 21.7246 35.0766 21.7246C37.5141 21.7246 39.4891 23.6996 39.4891 26.1371C39.4891 28.5746 37.5016 30.5496 35.0766 30.5496ZM35.0766 23.6121C33.6766 23.6121 32.5391 24.7496 32.5391 26.1496C32.5391 27.5496 33.6766 28.6871 35.0766 28.6871C36.4766 28.6871 37.6141 27.5496 37.6141 26.1496C37.6141 24.7496 36.4641 23.6121 35.0766 23.6121Z" fill="#292D32"/>
<path d="M26.0375 45.8377C23.6 45.8377 21.625 43.8627 21.625 41.4252C21.625 39.0002 23.6 37.0127 26.0375 37.0127C28.475 37.0127 30.45 38.9877 30.45 41.4252C30.45 43.8502 28.475 45.8377 26.0375 45.8377ZM26.0375 38.8877C24.6375 38.8877 23.5 40.0252 23.5 41.4252C23.5 42.8252 24.6375 43.9627 26.0375 43.9627C27.4375 43.9627 28.575 42.8252 28.575 41.4252C28.575 40.0252 27.4375 38.8877 26.0375 38.8877Z" fill="#292D32"/>
<path d="M43.9594 45.8377C41.5219 45.8377 39.5469 43.8627 39.5469 41.4252C39.5469 39.0002 41.5219 37.0127 43.9594 37.0127C46.3969 37.0127 48.3719 38.9877 48.3719 41.4252C48.3594 43.8502 46.3844 45.8377 43.9594 45.8377ZM43.9594 38.8877C42.5594 38.8877 41.4219 40.0252 41.4219 41.4252C41.4219 42.8252 42.5594 43.9627 43.9594 43.9627C45.3594 43.9627 46.4969 42.8252 46.4969 41.4252C46.4844 40.0252 45.3594 38.8877 43.9594 38.8877Z" fill="#292D32"/>
</svg>
