<svg width="50" height="50" viewBox="0 0 50 50" fill="none" xmlns="http://www.w3.org/2000/svg">
<path d="M25 50C38.8071 50 50 38.8071 50 25C50 11.1929 38.8071 0 25 0C11.1929 0 0 11.1929 0 25C0 38.8071 11.1929 50 25 50Z" fill="url(#paint0_linear_62_3668)"/>
<path d="M24.8641 43.2516C35.0133 43.2516 43.2409 35.0241 43.2409 24.8748C43.2409 14.7256 35.0133 6.49805 24.8641 6.49805C14.7149 6.49805 6.4873 14.7256 6.4873 24.8748C6.4873 35.0241 14.7149 43.2516 24.8641 43.2516Z" fill="url(#paint1_linear_62_3668)"/>
<path d="M22.4648 36.2448C22.4648 34.7836 23.4796 33.7285 24.9001 33.7285C26.3206 33.7285 27.2542 34.7836 27.2542 36.2448C27.2542 37.6653 26.3206 38.7611 24.819 38.7611C23.4389 38.7611 22.4648 37.6653 22.4648 36.2448ZM23.4796 30.4815L22.9113 10.959H26.8077L26.2395 30.4815H23.4796Z" fill="white"/>
<defs>
<linearGradient id="paint0_linear_62_3668" x1="0" y1="25" x2="50.0001" y2="25" gradientUnits="userSpaceOnUse">
<stop stop-color="white"/>
<stop offset="1" stop-color="#FFA500"/>
</linearGradient>
<linearGradient id="paint1_linear_62_3668" x1="19.6007" y1="7.576" x2="27.6643" y2="34.0777" gradientUnits="userSpaceOnUse">
<stop stop-color="#FFA500"/>
<stop offset="1" stop-color="#FF8000"/>
</linearGradient>
</defs>
</svg>
