<svg width="66" height="66" viewBox="0 0 66 66" fill="none" xmlns="http://www.w3.org/2000/svg">
<circle cx="33" cy="33" r="33" fill="#FF9330" fill-opacity="0.13"/>
<path d="M33 10.5C20.6025 10.5 10.5 20.6025 10.5 33C10.5 45.3975 20.6025 55.5 33 55.5C45.3975 55.5 55.5 45.3975 55.5 33C55.5 20.6025 45.3975 10.5 33 10.5ZM31.3125 24C31.3125 23.0775 32.0775 22.3125 33 22.3125C33.9225 22.3125 34.6875 23.0775 34.6875 24V35.25C34.6875 36.1725 33.9225 36.9375 33 36.9375C32.0775 36.9375 31.3125 36.1725 31.3125 35.25V24ZM35.07 42.855C34.9575 43.1475 34.8 43.3725 34.5975 43.5975C34.3725 43.8 34.125 43.9575 33.855 44.07C33.585 44.1825 33.2925 44.25 33 44.25C32.7075 44.25 32.415 44.1825 32.145 44.07C31.875 43.9575 31.6275 43.8 31.4025 43.5975C31.2 43.3725 31.0425 43.1475 30.93 42.855C30.8175 42.585 30.75 42.2925 30.75 42C30.75 41.7075 30.8175 41.415 30.93 41.145C31.0425 40.875 31.2 40.6275 31.4025 40.4025C31.6275 40.2 31.875 40.0425 32.145 39.93C32.685 39.705 33.315 39.705 33.855 39.93C34.125 40.0425 34.3725 40.2 34.5975 40.4025C34.8 40.6275 34.9575 40.875 35.07 41.145C35.1825 41.415 35.25 41.7075 35.25 42C35.25 42.2925 35.1825 42.585 35.07 42.855Z" fill="#FF7A00"/>
</svg>
