<svg width="64" height="64" viewBox="0 0 64 64" fill="none" xmlns="http://www.w3.org/2000/svg">
<circle cx="32" cy="32" r="32" fill="#6FE67A" fill-opacity="0.2"/>
<circle cx="31.5868" cy="31.5809" r="24.118" fill="url(#paint0_linear_4546_11577)"/>
<path d="M28.7896 40.6282C28.3933 40.6304 28.0005 40.5568 27.6336 40.4114C27.2667 40.2661 26.9331 40.0519 26.6517 39.7813L20.6297 33.9401C20.0627 33.3902 19.7441 32.6443 19.7441 31.8665C19.7441 31.0888 20.0627 30.3429 20.6297 29.7929C21.1966 29.243 21.9656 28.934 22.7675 28.934C23.5693 28.934 24.3383 29.243 24.9053 29.7929L28.7896 33.5897L38.6958 23.9518C38.9758 23.678 39.3088 23.4608 39.6757 23.3125C40.0426 23.1642 40.4362 23.0879 40.8337 23.0879C41.2312 23.0879 41.6247 23.1642 41.9916 23.3125C42.3586 23.4608 42.6916 23.678 42.9715 23.9518C43.2537 24.2233 43.4777 24.5463 43.6306 24.9022C43.7835 25.2581 43.8622 25.6398 43.8622 26.0254C43.8622 26.4109 43.7835 26.7927 43.6306 27.1486C43.4777 27.5045 43.2537 27.8275 42.9715 28.099L30.9274 39.7813C30.646 40.0519 30.3124 40.2661 29.9455 40.4114C29.5786 40.5568 29.1858 40.6304 28.7896 40.6282Z" fill="white"/>
<defs>
<linearGradient id="paint0_linear_4546_11577" x1="32.0984" y1="-3.61826" x2="31.5868" y2="55.6989" gradientUnits="userSpaceOnUse">
<stop stop-color="#77F087"/>
<stop offset="1" stop-color="#5BCE5C"/>
</linearGradient>
</defs>
</svg>
