<svg width="17" height="17" viewBox="0 0 17 17" fill="none" xmlns="http://www.w3.org/2000/svg">
<path d="M8.51315 5.60223V9.2329M7.57354 1.33262C8.09972 0.889126 8.94914 0.889126 9.46029 1.33262L10.648 2.34741C10.8735 2.53533 11.3019 2.69318 11.6026 2.69318H12.8805C13.6773 2.69318 14.3312 3.34716 14.3312 4.14395V5.42182C14.3312 5.7225 14.4891 6.14345 14.677 6.36895L15.6918 7.55663C16.1353 8.08281 16.1353 8.93222 15.6918 9.44337L14.677 10.631C14.4891 10.8566 14.3312 11.2775 14.3312 11.5782V12.8561C14.3312 13.6528 13.6773 14.3068 12.8805 14.3068H11.6026C11.3019 14.3068 10.881 14.4647 10.6555 14.6526L9.4678 15.6674C8.94162 16.1109 8.09221 16.1109 7.58106 15.6674L6.39339 14.6526C6.16788 14.4647 5.73941 14.3068 5.44625 14.3068H4.13079C3.334 14.3068 2.68003 13.6528 2.68003 12.8561V11.5707C2.68003 11.2775 2.52969 10.849 2.34177 10.631L1.32699 9.43586C0.891005 8.91719 0.891005 8.07529 1.32699 7.55663L2.34177 6.36144C2.52969 6.13593 2.68003 5.71498 2.68003 5.42182V4.15147C2.68003 3.35467 3.334 2.7007 4.13079 2.7007H5.43122C5.7319 2.7007 6.15284 2.54285 6.37835 2.35492L7.57354 1.33262Z" stroke="#81858C" stroke-linecap="round" stroke-linejoin="round"/>
<path d="M8.50537 11.5176H8.51214" stroke="#81858C" stroke-linecap="round" stroke-linejoin="round"/>
</svg>
