<svg width="21" height="20" viewBox="0 0 21 20" fill="none" xmlns="http://www.w3.org/2000/svg">
<path d="M16.4974 7.85C16.4807 7.85 16.4641 7.85833 16.4474 7.85833C16.3641 7.875 16.2807 7.88333 16.1891 7.9C15.8391 7.93333 15.4641 7.91667 15.0807 7.84167C14.9807 7.81667 14.8974 7.8 14.8057 7.76667C14.5307 7.7 14.2724 7.59167 14.0307 7.45C13.9307 7.4 13.8307 7.33333 13.7391 7.275C13.3391 7 12.9974 6.65833 12.7224 6.25833C12.6641 6.16667 12.5974 6.06667 12.5474 5.96667C12.4057 5.725 12.2974 5.46667 12.2307 5.19167C12.1974 5.1 12.1807 5.01667 12.1557 4.91667C12.0807 4.53333 12.0641 4.15833 12.0974 3.80833C12.1141 3.71667 12.1224 3.63333 12.1391 3.55C12.1391 3.53333 12.1474 3.51667 12.1474 3.5C12.2474 2.98333 11.8641 2.5 11.3307 2.5H6.26406C6.1474 2.5 6.03073 2.50833 5.9224 2.51667C5.8224 2.525 5.73073 2.53333 5.63073 2.55C5.53073 2.55833 5.43073 2.575 5.33906 2.59167C3.33073 2.88333 2.0474 4.15833 1.75573 6.175C1.73906 6.26667 1.7224 6.36667 1.71406 6.46667C1.6974 6.56667 1.68906 6.65833 1.68073 6.75833C1.6724 6.86667 1.66406 6.98333 1.66406 7.1V13.7333C1.66406 13.85 1.6724 13.9667 1.68073 14.075C1.68906 14.175 1.6974 14.2667 1.71406 14.3667C1.7224 14.4667 1.73906 14.5667 1.75573 14.6583C2.0474 16.675 3.33073 17.95 5.33906 18.2417C5.43073 18.2583 5.53073 18.275 5.63073 18.2833C5.73073 18.3 5.8224 18.3083 5.9224 18.3167C6.03073 18.325 6.1474 18.3333 6.26406 18.3333H12.8974C13.0141 18.3333 13.1307 18.325 13.2391 18.3167C13.3391 18.3083 13.4307 18.3 13.5307 18.2833C13.6307 18.275 13.7307 18.2583 13.8224 18.2417C15.8307 17.95 17.1141 16.675 17.4057 14.6583C17.4224 14.5667 17.4391 14.4667 17.4474 14.3667C17.4641 14.2667 17.4724 14.175 17.4807 14.075C17.4891 13.9667 17.4974 13.85 17.4974 13.7333V8.66667C17.4974 8.13333 17.0141 7.75 16.4974 7.85ZM5.6224 10.4167H9.78906C10.1307 10.4167 10.4141 10.7 10.4141 11.0417C10.4141 11.3833 10.1307 11.6667 9.78906 11.6667H5.6224C5.28073 11.6667 4.9974 11.3833 4.9974 11.0417C4.9974 10.7 5.28073 10.4167 5.6224 10.4167ZM13.1224 15H5.6224C5.28073 15 4.9974 14.7167 4.9974 14.375C4.9974 14.0333 5.28073 13.75 5.6224 13.75H13.1224C13.4641 13.75 13.7474 14.0333 13.7474 14.375C13.7474 14.7167 13.4641 15 13.1224 15Z" fill="#71839B"/>
<path d="M19.2002 4.24498C19.2569 4.14673 19.2549 4.02424 19.1985 3.92862C19.1384 3.83089 19.0366 3.77206 18.9198 3.77258L18.1265 3.78521C17.9514 3.78599 17.8147 3.93027 17.8155 4.10539C17.8163 4.28051 17.9606 4.41718 18.1357 4.4164L18.2827 4.41393C17.5309 5.17828 16.3334 5.36995 15.3654 4.81111C15.2162 4.72497 15.0211 4.77726 14.9349 4.92646C14.8488 5.07565 14.9032 5.26717 15.056 5.3554C16.5043 6.19157 18.364 5.69327 19.2002 4.24498Z" fill="#71839B"/>
<path d="M18.5786 1.94736C18.6647 1.79816 18.6161 1.60511 18.4632 1.51687C17.0149 0.6807 15.1552 1.17901 14.3191 2.62729C14.2602 2.72918 14.2644 2.84803 14.3187 2.9473C14.3787 3.04503 14.4806 3.10385 14.5973 3.10333L15.387 3.0886C15.5642 3.08418 15.7045 2.942 15.698 2.76842C15.6972 2.5933 15.5529 2.45663 15.3778 2.45741L15.2308 2.45988C15.9806 1.69917 17.1801 1.50386 18.1481 2.06271C18.3009 2.15094 18.4924 2.09655 18.5786 1.94736Z" fill="#71839B"/>
</svg>
