<svg width="51" height="38" viewBox="0 0 51 38" fill="none" xmlns="http://www.w3.org/2000/svg">
<rect y="1" width="51" height="36" fill="#FFFCF7"/>
<path opacity="0.4" d="M41.6647 12.1992V25.4517C41.6647 31.215 38.2289 34.6508 32.4655 34.6508H19.1972C13.4339 34.6667 9.99805 31.2308 9.99805 25.4675V12.1992C9.99805 6.43583 13.4339 3 19.1972 3H32.4497C38.2289 3 41.6647 6.43583 41.6647 12.1992Z" fill="#E1E1E1"/>
<g clip-path="url(#clip0_2231_31854)">
<path d="M22.2493 11.4997H24.7493V26.9163L18.916 21.083H22.2493V11.4997ZM29.7493 26.4997H27.2493V11.083L33.0827 16.9163H29.7493V26.4997Z" fill="#324054"/>
<path d="M22.2493 11.4997H24.7493V26.9163L18.916 21.083H22.2493V11.4997ZM29.7493 26.4997H27.2493V11.083L33.0827 16.9163H29.7493V26.4997Z" fill="#324054"/>
</g>
<defs>
<clipPath id="clip0_2231_31854">
<rect width="20" height="20" fill="white" transform="translate(16 9)"/>
</clipPath>
</defs>
</svg>
