<svg width="219" height="188" viewBox="0 0 219 188" fill="none" xmlns="http://www.w3.org/2000/svg">
<path d="M146.407 39.0627C136.095 30.9145 121.653 27.9922 105.862 31.5888C104.26 31.9539 102.658 32.4035 101.085 32.8811C100.86 32.9654 100.636 33.0217 100.411 33.0778C98.9215 33.5557 97.4325 34.0893 95.9714 34.6794C95.8307 34.7358 95.6903 34.7636 95.5499 34.82C95.3249 34.9043 95.1284 35.0165 94.9035 35.1008C94.3134 35.3537 93.7234 35.6065 93.1334 35.8597C92.7119 36.0562 92.2905 36.2248 91.869 36.4498C91.279 36.7305 90.689 37.0398 90.0989 37.3205C89.8179 37.4612 89.5368 37.6016 89.256 37.742C89.1717 37.7984 89.0875 37.8263 89.0032 37.8827C87.5699 38.6413 86.137 39.456 84.7602 40.3271C84.648 40.4114 84.5073 40.4675 84.3669 40.5518C84.2265 40.6361 84.114 40.7203 83.9736 40.8328C82.7372 41.6196 81.5289 42.4065 80.3489 43.2494C80.321 43.2494 80.2928 43.3054 80.2367 43.3054C80.1242 43.3897 80.0117 43.5022 79.8713 43.5865C78.9159 44.289 77.9605 45.0195 77.0334 45.7499C76.893 45.8624 76.7244 45.9748 76.5837 46.1152C76.4433 46.2277 76.3308 46.3399 76.1904 46.4524C75.2633 47.211 74.3361 47.9978 73.4368 48.8125C73.3807 48.8689 73.3246 48.925 73.2403 48.9811C73.2403 48.9811 73.2403 48.9811 73.2121 49.0093C72.2567 49.8522 71.3577 50.7515 70.4305 51.6505C70.3462 51.7348 70.2337 51.8191 70.1495 51.9315C69.9809 52.1001 69.8405 52.2687 69.6719 52.4373C69.0255 53.1116 68.3512 53.7859 67.7329 54.4885C67.5644 54.657 67.424 54.8256 67.2554 54.9942C67.1711 55.1064 67.0586 55.2189 66.9743 55.3314C66.1596 56.2585 65.3446 57.1857 64.5581 58.1411C64.5581 58.1411 64.5299 58.1972 64.5017 58.2254C63.687 59.2369 62.9002 60.2484 62.1416 61.2881C62.0573 61.4006 61.973 61.5127 61.8605 61.6252C61.7201 61.7938 61.6076 61.9906 61.4955 62.1592C60.8772 63.03 60.259 63.9011 59.669 64.8004C59.5565 64.9689 59.4161 65.1375 59.3036 65.334C59.2475 65.4183 59.2193 65.4747 59.1632 65.559C58.4046 66.7108 57.7021 67.9191 56.9996 69.0992C56.9435 69.1834 56.8874 69.2959 56.831 69.3802C56.7467 69.5206 56.6624 69.6892 56.5781 69.8578C55.8477 71.1221 55.1734 72.4147 54.527 73.7354C54.4991 73.8197 54.4427 73.904 54.3866 73.9883C54.3866 73.9883 54.3866 74.0444 54.3584 74.0726C53.5437 75.7302 52.8133 77.416 52.139 79.13C52.0826 79.2425 52.0265 79.355 51.9983 79.4671C51.9704 79.5514 51.9422 79.6078 51.914 79.6921C51.4643 80.844 51.0429 81.968 50.6496 83.148C50.5653 83.4009 50.481 83.6538 50.425 83.8787C50.1157 84.8059 49.8349 85.7331 49.5821 86.6603C49.5257 86.8289 49.4696 86.9975 49.4414 87.166C49.3853 87.3628 49.3571 87.5593 49.301 87.7561C49.0199 88.7676 48.7952 89.779 48.5703 90.7905C48.5142 91.0716 48.4299 91.3245 48.3738 91.6055C48.1209 92.8699 47.8959 94.1342 47.6995 95.3986C47.6431 95.6797 47.6152 95.9886 47.587 96.2697C47.4466 97.2812 47.3341 98.2927 47.2498 99.3323C47.2216 99.6977 47.1937 100.063 47.1655 100.4C47.0812 101.692 46.9969 102.985 46.9688 104.278L56.8592 112.089C56.8592 110.796 56.9435 109.504 57.056 108.211C57.056 107.846 57.1121 107.481 57.1403 107.116C57.2246 106.104 57.3367 105.092 57.4774 104.053C57.5056 103.772 57.5617 103.463 57.5899 103.182C57.7864 101.917 58.0114 100.653 58.2642 99.3884C58.3203 99.1077 58.3764 98.8266 58.4607 98.5737C58.6857 97.5622 58.9386 96.5508 59.1914 95.5393C59.2757 95.1739 59.3879 94.8086 59.5004 94.4435C59.7533 93.516 60.0622 92.5888 60.3433 91.6616C60.4276 91.4088 60.484 91.1559 60.5683 90.903C60.9615 89.7512 61.383 88.599 61.8326 87.4471C61.9169 87.2503 61.973 87.0818 62.0573 86.885C62.7316 85.171 63.4902 83.4852 64.277 81.8276C64.3331 81.7151 64.3895 81.6308 64.4456 81.5183C65.0917 80.1979 65.7943 78.9053 66.4968 77.641C66.6372 77.3881 66.7779 77.1352 66.9182 76.8824C67.6208 75.6741 68.323 74.494 69.0819 73.3419C69.2505 73.089 69.419 72.8361 69.5876 72.5833C70.1777 71.6843 70.7956 70.8132 71.4138 69.9421C71.6106 69.6613 71.8353 69.352 72.032 69.071C72.7906 68.0316 73.5775 66.9919 74.3922 66.0083C74.3922 66.0083 74.4486 65.9522 74.4486 65.924C75.2351 64.9689 76.0219 64.0417 76.8648 63.1142C77.1176 62.8335 77.3705 62.5524 77.6234 62.2713C78.2698 61.5691 78.9159 60.8945 79.5621 60.2202C79.8149 59.9673 80.0681 59.6865 80.321 59.4337C81.22 58.5344 82.1472 57.6354 83.1025 56.7925C83.1868 56.7361 83.2429 56.6518 83.3272 56.5957C84.2265 55.781 85.1537 54.9942 86.0809 54.2356C86.362 54.0106 86.6427 53.7859 86.9238 53.5613C87.851 52.8305 88.8064 52.1001 89.7618 51.3976C89.9022 51.2851 90.0707 51.1729 90.2111 51.0604C91.3915 50.2175 92.5994 49.4025 93.8359 48.6439C94.0888 48.4753 94.3416 48.3068 94.6227 48.1664C96.0274 47.2953 97.4325 46.4806 98.8654 45.722C99.2305 45.5252 99.5679 45.3566 99.933 45.1598C100.523 44.8509 101.113 44.5698 101.703 44.289C102.125 44.0923 102.546 43.8955 102.968 43.7269C103.558 43.474 104.148 43.193 104.738 42.9683C105.075 42.8279 105.44 42.6872 105.805 42.5468C107.267 41.9568 108.756 41.4229 110.245 40.9453C110.47 40.861 110.695 40.8046 110.919 40.7485C112.493 40.271 114.094 39.8214 115.696 39.456C131.515 35.8876 145.929 38.8099 156.241 46.9299L146.35 39.1188L146.407 39.0627Z" fill="#EBE9E9" stroke="black" stroke-width="0.412515" stroke-miterlimit="10"/>
<path d="M69.7341 52.4146C69.088 53.0889 68.4134 53.7633 67.7954 54.4658C67.6269 54.6344 67.4862 54.8029 67.3176 54.9715C67.2333 55.0837 67.1211 55.1962 67.0368 55.3087C66.2218 56.2359 65.4071 57.1631 64.6203 58.1185C64.6203 58.1185 64.5921 58.1745 64.5642 58.2027C63.7492 59.2142 62.9624 60.2257 62.2038 61.2654C62.1195 61.3776 62.0352 61.4901 61.923 61.6025C61.7823 61.7711 61.6701 61.9679 61.5577 62.1365C60.9394 63.0073 60.3212 63.8784 59.7312 64.7777C59.619 64.9463 59.4783 65.1148 59.3661 65.3113C59.3097 65.3956 59.2818 65.452 59.2254 65.5363C58.4668 66.6882 57.7646 67.8964 57.0621 69.0765C57.0057 69.1608 56.9496 69.2733 56.8935 69.3575C56.8092 69.4979 56.7249 69.6665 56.6406 69.8351C55.9099 71.0994 55.2356 72.392 54.5895 73.7127C54.5613 73.797 54.5052 73.8813 54.4488 73.9656C54.4488 73.9656 54.4488 74.0217 54.4209 74.0499C53.6059 75.7075 52.8755 77.3933 52.2011 79.1073C52.1451 79.2198 52.0887 79.3323 52.0608 79.4445C52.0326 79.5288 52.0044 79.5851 51.9762 79.6694C51.5268 80.8213 51.1054 81.9453 50.7118 83.1253C50.6275 83.3782 50.5432 83.6311 50.4871 83.8561C50.1782 84.7833 49.8971 85.7104 49.6442 86.6376C49.5881 86.8062 49.5318 86.9748 49.5039 87.1434C49.4475 87.3401 49.4196 87.5366 49.3632 87.7334C49.0821 88.7449 48.8574 89.7564 48.6328 90.7679C48.5764 91.0489 48.4921 91.3018 48.436 91.5829C48.1831 92.8472 47.9584 94.1116 47.7617 95.3759C47.7056 95.657 47.6774 95.9659 47.6492 96.247C47.5088 97.2585 47.3963 98.27 47.312 99.3097C47.2841 99.675 47.2559 100.04 47.2277 100.377C47.1434 101.67 47.0591 102.962 47.0312 104.255L56.9214 112.066C56.9214 110.773 57.0057 109.481 57.1182 108.189C57.1182 107.823 57.1743 107.458 57.2025 107.093C57.2868 106.081 57.3992 105.07 57.5396 104.03C57.5678 103.749 57.6239 103.44 57.6521 103.159C57.8489 101.895 58.0736 100.63 58.3264 99.3658C58.3825 99.085 58.4389 98.8039 58.5232 98.551C58.7479 97.5396 59.0008 96.5281 59.2536 95.5166C59.3379 95.1512 59.4504 94.7859 59.5626 94.4205C59.8155 93.4933 60.1247 92.5661 60.4055 91.639C60.4901 91.3861 60.5462 91.1332 60.6305 90.8803C61.0237 89.7285 61.4452 88.5763 61.8948 87.4244C61.9791 87.2277 62.0352 87.0591 62.1195 86.8623C62.7938 85.1483 63.5527 83.4625 64.3392 81.8049C64.3956 81.6924 64.4517 81.6081 64.5078 81.4956C65.1542 80.1752 65.8565 78.8826 66.559 77.6183C66.6997 77.3654 66.84 77.1125 66.9804 76.8597C67.6829 75.6514 68.3855 74.4713 69.1441 73.3192C69.3127 73.0663 69.4812 72.8134 69.6498 72.5606C70.2398 71.6616 70.8581 70.7905 71.476 69.9194C71.6728 69.6383 71.8978 69.3293 72.0942 69.0483C72.8528 68.0089 73.6397 66.9692 74.4547 65.9856C74.4547 65.9856 74.5108 65.9295 74.5108 65.9013C75.2976 64.9463 76.0841 64.0188 76.927 63.0916C77.1801 62.8108 77.433 62.5297 77.6859 62.2487C78.332 61.5465 78.9781 60.8718 79.6246 60.1975C79.8774 59.9446 80.1303 59.6639 80.3832 59.411C80.4114 59.3828 80.4675 59.3267 80.4957 59.2985L70.4645 51.5996C70.4645 51.5996 70.268 51.7682 70.1838 51.8807C70.0152 52.0493 69.8745 52.2178 69.7059 52.3864L69.7341 52.4146Z" fill="black" stroke="black" stroke-width="0.412515" stroke-linecap="round" stroke-linejoin="round"/>
<path d="M63.9752 106.111L51.6403 122.043L38.3501 137.862C38.3501 137.862 38.2376 138.03 38.1533 138.143C38.069 138.283 37.9568 138.396 37.8725 138.536C37.76 138.649 37.6757 138.789 37.5633 138.901C37.4511 139.014 37.3386 139.126 37.2543 139.239C37.1418 139.351 37.0296 139.463 36.9171 139.576C36.8046 139.688 36.6643 139.8 36.5518 139.885C36.4114 139.997 36.2707 140.11 36.1303 140.194C35.9617 140.306 35.8214 140.419 35.6528 140.503C35.456 140.615 35.2592 140.728 35.0906 140.84C34.8378 140.98 34.5849 141.093 34.332 141.205L44.2225 149.017C44.4753 148.904 44.7282 148.792 44.9811 148.651C45.1779 148.539 45.3746 148.427 45.5432 148.314C45.7118 148.202 45.8522 148.118 46.0208 148.005C46.1612 147.893 46.3018 147.808 46.4422 147.696C46.5826 147.584 46.6951 147.499 46.8076 147.387C46.9198 147.274 47.0323 147.162 47.1447 147.05C47.2569 146.937 47.3694 146.825 47.4537 146.713C47.5662 146.6 47.6505 146.488 47.763 146.347C47.8752 146.235 47.9594 146.094 48.0437 145.954C48.1001 145.87 48.1844 145.785 48.2405 145.673L61.5308 129.854L73.8656 113.922L63.9752 106.111Z" fill="#EBE9E9" stroke="black" stroke-width="0.412515" stroke-miterlimit="10"/>
<path d="M75.471 111.22C75.471 111.22 75.471 111.164 75.471 111.136C75.5553 110.826 75.5835 110.517 75.5553 110.265V110.208C75.5553 110.124 75.5553 110.012 75.4992 109.927C75.4992 109.927 75.4992 109.899 75.4992 109.871C75.4992 109.871 75.4992 109.871 75.4992 109.843C75.4992 109.815 75.4992 109.787 75.4992 109.759C75.4992 109.703 75.471 109.675 75.4428 109.618C75.4428 109.562 75.4149 109.534 75.3867 109.506C75.3867 109.478 75.3585 109.45 75.3306 109.422C75.3306 109.393 75.2742 109.366 75.2464 109.309C75.2464 109.281 75.19 109.253 75.1621 109.225C75.1339 109.197 75.1057 109.169 75.0496 109.141C75.0496 109.141 74.9935 109.113 74.9935 109.085L65.103 101.273C65.103 101.273 65.3559 101.498 65.4402 101.638C65.5245 101.779 65.6088 101.92 65.637 102.088C65.637 102.088 65.637 102.088 65.637 102.116C65.6649 102.257 65.6931 102.397 65.6931 102.538C65.6931 102.819 65.6931 103.1 65.6088 103.409C65.5806 103.577 65.5245 103.718 65.4681 103.915C65.3838 104.139 65.2716 104.364 65.1309 104.589C65.1309 104.589 65.1309 104.589 65.1309 104.617C64.9905 104.842 64.8502 105.095 64.6534 105.348C64.6534 105.348 64.6534 105.348 64.6534 105.375C64.4566 105.628 64.2601 105.881 64.0352 106.162L73.9256 113.973C73.9256 113.973 74.1224 113.749 74.2349 113.608C74.3471 113.468 74.4595 113.327 74.5438 113.215C74.5438 113.215 74.5438 113.215 74.5438 113.187C74.6281 113.074 74.7124 112.962 74.7685 112.85C74.8528 112.737 74.9371 112.597 74.9935 112.484C74.9935 112.484 74.9935 112.484 74.9935 112.456C75.0496 112.344 75.1057 112.26 75.1621 112.175C75.2182 112.035 75.2742 111.922 75.3306 111.782C75.3867 111.641 75.4428 111.501 75.471 111.36V111.22Z" fill="black" stroke="black" stroke-width="0.412515" stroke-linecap="round" stroke-linejoin="round"/>
<path d="M166.55 14.793L176.441 22.6041L156.801 47.2741L146.91 39.4627L166.55 14.793Z" fill="#EBE9E9" stroke="black" stroke-width="0.412515" stroke-miterlimit="10"/>
<path d="M106.259 3.15769C130.199 -2.26505 151.693 2.65195 166.557 14.7903L146.917 39.4601C136.577 31.0025 121.938 27.9399 105.866 31.5647C73.7223 38.8418 47.4789 71.0701 47.0011 104.197L61.7525 100.854C66.0234 99.8982 66.9788 102.708 64.0004 106.08L51.6656 122.011L38.3753 137.83C37.0267 139.797 35.0598 141.09 33.0365 141.539C31.0417 141.989 28.9906 141.623 27.5577 140.275L15.2789 130.244L3.00017 119.876C-0.231055 117.909 0.780456 114.65 5.38849 113.61L19.4937 110.407C20.168 61.7136 59.0834 13.8067 106.316 3.1298L106.259 3.15769Z" fill="white" stroke="black" stroke-width="0.412515" stroke-linecap="round" stroke-linejoin="round"/>
<path d="M34.3045 141.172L44.1949 148.983C43.7735 149.152 43.352 149.292 42.9306 149.377C41.0762 149.798 39.1936 149.517 37.7889 148.393L27.8984 140.582C29.3032 141.706 31.1858 141.987 33.0401 141.565C33.4616 141.481 33.883 141.341 34.3045 141.172Z" fill="black" stroke="black" stroke-width="0.412515" stroke-linecap="round" stroke-linejoin="round"/>
<path d="M72.5815 148.808L62.691 140.996C62.4943 140.856 62.3257 140.687 62.1289 140.547L72.0194 148.358C72.2161 148.498 72.3847 148.667 72.5815 148.808Z" fill="#EBE9E9"/>
<mask id="mask0_6834_13682" style="mask-type:luminance" maskUnits="userSpaceOnUse" x="62" y="140" width="11" height="9">
<path d="M72.6049 148.784L62.7145 140.973C62.5177 140.833 62.3491 140.664 62.1523 140.523L72.0428 148.335C72.2396 148.475 72.4082 148.644 72.6049 148.784Z" fill="white"/>
</mask>
<g mask="url(#mask0_6834_13682)">
<path d="M62.1523 140.523L72.0428 148.335C72.2396 148.475 72.4082 148.644 72.6049 148.784L62.7145 140.973C62.5177 140.833 62.3491 140.664 62.1523 140.523Z" fill="#EBE9E9" stroke="black" stroke-width="0.412515" stroke-miterlimit="10"/>
</g>
<path d="M72.5815 148.808L62.691 140.996C62.4943 140.856 62.3257 140.687 62.1289 140.547L72.0194 148.358C72.2161 148.498 72.3847 148.667 72.5815 148.808Z" stroke="black" stroke-width="0.412515" stroke-miterlimit="10"/>
<path d="M89.7114 64.9222C89.1495 64.4725 88.3345 64.1915 87.1827 64.1636L81.3945 63.9668L91.285 71.7779L97.0731 71.9747C98.225 72.0029 99.04 72.3118 99.6018 72.7333L89.7114 64.9222Z" fill="#FFA500" stroke="black" stroke-width="0.412515" stroke-linecap="round" stroke-linejoin="round"/>
<path d="M111.096 41.1699L120.986 48.981L117.587 62.9456L107.668 55.1345L111.096 41.1699Z" fill="#FFA500" stroke="black" stroke-width="0.412515" stroke-linecap="round" stroke-linejoin="round"/>
<path d="M125.359 41.6133L135.249 49.4244L131.793 63.67L121.902 55.8589L125.359 41.6133Z" fill="#CD8500" stroke="black" stroke-width="0.412515" stroke-linecap="round" stroke-linejoin="round"/>
<path d="M105.414 65.332L115.304 73.1431L111.09 90.4796L101.199 82.6682L105.414 65.332Z" fill="#FFA500" stroke="black" stroke-width="0.412515" stroke-linecap="round" stroke-linejoin="round"/>
<path d="M120.026 67.9171L129.916 75.7282C126.151 72.7499 118.34 73.2556 115.277 73.1431L105.387 65.332C108.449 65.4445 116.233 64.9388 120.026 67.9171Z" fill="#FFA500"/>
<mask id="mask1_6834_13682" style="mask-type:luminance" maskUnits="userSpaceOnUse" x="105" y="65" width="25" height="11">
<path d="M120.014 67.9191L129.904 75.7302C126.139 72.7518 118.328 73.2576 115.265 73.1451L105.375 65.334C108.438 65.4465 116.221 64.9407 120.014 67.9191Z" fill="white"/>
</mask>
<g mask="url(#mask1_6834_13682)">
<path d="M120.014 67.9191L129.904 75.7302C126.139 72.7518 118.328 73.2576 115.265 73.1451L105.375 65.334C108.438 65.4465 116.221 64.9407 120.014 67.9191Z" fill="#FFA500" stroke="black" stroke-width="0.412515" stroke-linecap="round" stroke-linejoin="round"/>
</g>
<path d="M120.026 67.9171L129.916 75.7282C126.151 72.7499 118.34 73.2556 115.277 73.1431L105.387 65.332C108.449 65.4445 116.233 64.9388 120.026 67.9171Z" stroke="black" stroke-width="0.412515" stroke-linecap="round" stroke-linejoin="round"/>
<path d="M93.6992 128.419L83.8087 120.608C81.9543 120.524 80.0717 120.439 78.1331 120.383L67.793 120.074L77.6834 127.885L88.0232 128.194C89.9622 128.251 91.8445 128.335 93.6992 128.419Z" fill="#FFA500" stroke="black" stroke-width="0.412515" stroke-linecap="round" stroke-linejoin="round"/>
<path d="M99.066 91.4219L108.984 99.233L104.32 118.34L94.4297 110.528L99.066 91.4219Z" fill="#FFA500" stroke="black" stroke-width="0.412515" stroke-linecap="round" stroke-linejoin="round"/>
<path d="M116.965 94.5409L126.855 102.352C122.36 98.8115 112.75 99.3455 108.957 99.233L99.0664 91.4219C102.86 91.5344 112.469 91.0004 116.965 94.5409Z" fill="#FFA500"/>
<mask id="mask2_6834_13682" style="mask-type:luminance" maskUnits="userSpaceOnUse" x="99" y="91" width="28" height="12">
<path d="M116.957 94.5429L126.847 102.354C122.352 98.8135 112.742 99.3474 108.949 99.2349L99.0586 91.4238C102.852 91.5363 112.461 91.0024 116.957 94.5429Z" fill="white"/>
</mask>
<g mask="url(#mask2_6834_13682)">
<path d="M116.957 94.5546L126.847 102.366C122.352 98.8252 112.742 99.3591 108.949 99.2469L99.0586 91.4355C102.852 91.548 112.461 91.0141 116.957 94.5546Z" fill="#FFA500" stroke="black" stroke-width="0.412515" stroke-linecap="round" stroke-linejoin="round"/>
</g>
<path d="M116.965 94.5409L126.855 102.352C122.36 98.8115 112.75 99.3455 108.957 99.233L99.0664 91.4219C102.86 91.5344 112.469 91.0004 116.965 94.5409Z" stroke="black" stroke-width="0.412515" stroke-linecap="round" stroke-linejoin="round"/>
<path d="M98.0252 121.277L107.915 129.088C105.864 129.004 103.757 128.919 101.594 128.807L91.7031 120.996C93.8665 121.108 95.974 121.193 98.0252 121.277Z" fill="#FFA500"/>
<mask id="mask3_6834_13682" style="mask-type:luminance" maskUnits="userSpaceOnUse" x="91" y="120" width="17" height="10">
<path d="M98.033 121.262L107.923 129.073C105.872 128.988 103.765 128.904 101.601 128.792L91.7109 120.98C93.8743 121.093 95.9818 121.177 98.033 121.262Z" fill="white"/>
</mask>
<g mask="url(#mask3_6834_13682)">
<path d="M98.0447 121.262L107.935 129.073C105.884 128.988 103.776 128.904 101.613 128.792L91.7227 120.98C93.886 121.093 95.9936 121.177 98.0447 121.262Z" fill="#FFA500" stroke="black" stroke-width="0.412515" stroke-linecap="round" stroke-linejoin="round"/>
</g>
<path d="M98.0252 121.277L107.915 129.088C105.864 129.004 103.757 128.919 101.594 128.807L91.7031 120.996C93.8665 121.108 95.974 121.193 98.0252 121.277Z" stroke="black" stroke-width="0.412515" stroke-linecap="round" stroke-linejoin="round"/>
<path d="M91.7137 120.996L101.632 128.807L98.1483 143.081L88.2578 135.27L91.7137 120.996Z" fill="#FFA500" stroke="black" stroke-width="0.412515" stroke-linecap="round" stroke-linejoin="round"/>
<path d="M88.2517 135.28L98.1422 143.091L90.2186 142.838L80.3281 135.027L88.2517 135.28Z" fill="#FFA500" stroke="black" stroke-width="0.412515" stroke-linecap="round" stroke-linejoin="round"/>
<path d="M147.726 76.2934C147.726 75.872 147.726 75.4506 147.67 75.0291C147.67 74.9448 147.67 74.8605 147.67 74.7762C147.67 74.5795 147.614 74.4109 147.586 74.2144C147.558 73.9615 147.501 73.7365 147.474 73.5119C147.474 73.4276 147.474 73.3433 147.445 73.2872C147.361 72.9779 147.277 72.6972 147.164 72.3879C147.164 72.3597 147.164 72.3036 147.136 72.2754C147.136 72.2754 147.136 72.2754 147.136 72.2475C147.024 71.9665 146.911 71.6854 146.799 71.4046C146.743 71.2921 146.687 71.2078 146.631 71.0954C146.602 71.0393 146.546 70.955 146.518 70.8989C146.49 70.8425 146.434 70.7582 146.406 70.6739C146.265 70.4492 146.125 70.2246 145.984 69.9996C145.956 69.9435 145.9 69.9153 145.872 69.8592C145.844 69.8031 145.787 69.7467 145.76 69.6906C145.675 69.5781 145.591 69.4656 145.507 69.3535C145.338 69.1567 145.141 68.932 144.973 68.7352C144.973 68.7352 144.945 68.707 144.917 68.6791C144.748 68.5106 144.551 68.3138 144.354 68.1452C144.214 68.0048 144.046 67.8923 143.905 67.7798L134.015 59.9688C134.38 60.2498 134.717 60.5588 135.026 60.8677C135.026 60.8677 135.054 60.8959 135.082 60.9241C135.363 61.2331 135.644 61.5424 135.897 61.8795C135.925 61.9356 135.982 61.9917 136.009 62.0481C136.234 62.3853 136.459 62.7224 136.656 63.0875C136.684 63.1439 136.74 63.2282 136.768 63.2843C136.965 63.6496 137.133 64.0429 137.274 64.4643C137.274 64.4925 137.274 64.5486 137.302 64.5768C137.415 64.9422 137.527 65.3072 137.611 65.7008C137.667 65.9255 137.695 66.1783 137.723 66.403C137.752 66.6559 137.808 66.9369 137.836 67.1898C137.864 67.5834 137.892 68.0048 137.892 68.4542C137.892 68.6509 137.892 68.8477 137.892 69.0724C137.892 69.7188 137.808 70.421 137.695 71.1236C137.555 72.0789 137.358 73.0061 137.105 73.8772C136.881 74.6637 136.628 75.4224 136.347 76.1531C136.319 76.2374 136.291 76.2934 136.262 76.3498C135.982 77.0521 135.672 77.6985 135.307 78.3167C135.307 78.3167 135.307 78.3167 135.307 78.3446C134.942 78.991 134.548 79.5811 134.099 80.1711C134.071 80.199 134.043 80.2554 134.015 80.2833C133.593 80.8454 133.115 81.3794 132.638 81.8569C132.16 82.3345 131.626 82.7841 131.092 83.2055C131.036 83.2616 130.98 83.2898 130.924 83.3459C130.418 83.7113 129.912 84.0766 129.378 84.3856C129.266 84.4699 129.126 84.5263 129.013 84.5824C128.479 84.8913 127.945 85.2006 127.355 85.4535L137.246 93.2646C137.583 93.1242 137.892 92.9556 138.229 92.787C138.454 92.6745 138.679 92.5342 138.904 92.3935C139.016 92.3374 139.156 92.2531 139.269 92.197C139.325 92.1688 139.409 92.1127 139.466 92.0845C139.803 91.8877 140.112 91.6631 140.421 91.4381C140.561 91.3538 140.674 91.2416 140.814 91.1291C140.87 91.073 140.926 91.0448 140.983 90.9887C141.067 90.9323 141.123 90.8763 141.208 90.8202C141.433 90.6234 141.685 90.4266 141.91 90.2301C142.107 90.0333 142.332 89.8366 142.528 89.6401C142.725 89.4433 142.922 89.2465 143.09 89.0219C143.287 88.8251 143.455 88.6004 143.624 88.3754C143.708 88.2633 143.793 88.1508 143.877 88.0383C143.905 87.9822 143.933 87.954 143.961 87.9261C144.017 87.8418 144.074 87.7854 144.13 87.7011C144.298 87.4482 144.467 87.2236 144.636 86.9707C144.804 86.6896 144.973 86.4089 145.141 86.1278C145.31 85.8185 145.478 85.4814 145.647 85.1442C145.816 84.8353 145.956 84.4699 146.097 84.1327C146.125 84.0766 146.153 83.9924 146.181 83.9363C146.181 83.9081 146.209 83.8799 146.237 83.8238C146.49 83.1495 146.743 82.4469 146.94 81.7165C146.94 81.7165 146.94 81.6601 146.94 81.6322C147.164 80.7611 147.389 79.8618 147.53 78.8785C147.642 78.1478 147.698 77.4735 147.726 76.8274C147.726 76.6027 147.726 76.4059 147.726 76.2092V76.2934Z" fill="#CD8500" stroke="black" stroke-width="0.412515" stroke-linecap="round" stroke-linejoin="round"/>
<path d="M102.553 135.724L112.443 143.535L104.492 143.282L94.6016 135.471L102.553 135.724Z" fill="#FFA500" stroke="black" stroke-width="0.412515" stroke-linecap="round" stroke-linejoin="round"/>
<path d="M106.035 121.318L115.925 129.158L112.441 143.544L102.551 135.733L106.035 121.318Z" fill="#CD8500" stroke="black" stroke-width="0.412515" stroke-linecap="round" stroke-linejoin="round"/>
<path d="M131.011 83.2627C131.011 83.2627 130.898 83.347 130.842 83.4031C130.336 83.7685 129.83 84.1335 129.297 84.471C129.184 84.5553 129.044 84.6113 128.931 84.6674C128.397 84.9767 127.864 85.2857 127.273 85.5385L137.164 93.3496C137.501 93.2093 137.81 93.0407 138.147 92.8721C138.372 92.7596 138.597 92.6192 138.822 92.4785C138.934 92.4224 139.075 92.3382 139.187 92.2821C139.243 92.2539 139.328 92.1978 139.384 92.1696C139.721 91.9728 140.03 91.7481 140.339 91.5234C140.479 91.4392 140.592 91.3267 140.732 91.2142C140.789 91.1581 140.845 91.1299 140.901 91.0738C140.985 91.0177 141.042 90.9613 141.126 90.9052C141.35 90.7084 141.603 90.512 141.828 90.3152C142.025 90.1184 142.25 89.9219 142.446 89.7252C142.559 89.6127 142.643 89.5002 142.756 89.388L132.556 81.9141C132.078 82.3916 131.544 82.8413 131.011 83.2627Z" fill="#FFA500"/>
<path d="M147.726 76.2935C147.726 75.872 147.726 75.4506 147.67 75.0291C147.67 74.9448 147.67 74.8605 147.67 74.7762C147.67 74.5795 147.614 74.4109 147.586 74.2144C147.558 73.9615 147.501 73.7365 147.474 73.5119C147.474 73.4276 147.474 73.3433 147.445 73.2872C147.361 72.9779 147.277 72.6972 147.164 72.3879C147.164 72.3597 147.164 72.3036 147.136 72.2754C147.136 72.2754 147.136 72.2754 147.136 72.2475C147.024 71.9665 146.911 71.6854 146.799 71.4046C146.743 71.2921 146.687 71.2078 146.631 71.0954C146.602 71.0393 146.546 70.955 146.518 70.8989C146.49 70.8425 146.434 70.7582 146.406 70.6739C146.265 70.4492 146.125 70.2246 145.984 69.9996C145.956 69.9435 145.9 69.9153 145.872 69.8592C145.844 69.8031 145.787 69.7467 145.76 69.6906C145.675 69.5781 145.591 69.4656 145.507 69.3535C145.338 69.1567 145.141 68.932 144.973 68.7352C144.973 68.7352 144.945 68.707 144.917 68.6791C144.748 68.5106 144.551 68.3138 144.354 68.1452C144.214 68.0048 144.046 67.8923 143.905 67.7798L134.015 59.9688C134.38 60.2498 134.717 60.5588 135.026 60.8677C135.026 60.8677 135.054 60.8959 135.082 60.9241C135.363 61.2331 135.644 61.5424 135.897 61.8795C135.925 61.9356 135.982 61.9917 136.009 62.0481C136.234 62.3853 136.459 62.7224 136.656 63.0875C136.684 63.1439 136.74 63.2282 136.768 63.2843C136.965 63.6496 137.133 64.0429 137.274 64.4643C137.274 64.4925 137.274 64.5486 137.302 64.5768C137.415 64.9422 137.527 65.3072 137.611 65.7008C137.667 65.9255 137.695 66.1783 137.723 66.403C137.752 66.6559 137.808 66.9369 137.836 67.1898C137.864 67.5834 137.892 68.0048 137.892 68.4542C137.892 68.6509 137.892 68.8477 137.892 69.0724C137.892 69.7188 137.808 70.421 137.695 71.1236C137.555 72.0789 137.358 73.0061 137.105 73.8772C136.881 74.6637 136.628 75.4224 136.347 76.1531C136.319 76.2374 136.291 76.2934 136.262 76.3498C135.982 77.0521 135.672 77.6985 135.307 78.3167C135.307 78.3167 135.307 78.3167 135.307 78.3446C134.942 78.991 134.548 79.5811 134.099 80.1711C134.071 80.199 134.043 80.2554 134.015 80.2833C133.593 80.8454 133.115 81.3794 132.638 81.8569C132.16 82.3345 131.626 82.7841 131.092 83.2055C131.036 83.2616 130.98 83.2898 130.924 83.3459C130.418 83.7113 129.912 84.0766 129.378 84.3856C129.266 84.4699 129.126 84.5263 129.013 84.5824C128.479 84.8913 127.945 85.2006 127.355 85.4535L137.246 93.2646C137.583 93.1242 137.892 92.9556 138.229 92.787C138.454 92.6745 138.679 92.5342 138.904 92.3935C139.016 92.3374 139.156 92.2531 139.269 92.197C139.325 92.1688 139.409 92.1127 139.466 92.0845C139.803 91.8877 140.112 91.6631 140.421 91.4381C140.561 91.3538 140.674 91.2416 140.814 91.1291C140.87 91.073 140.926 91.0448 140.983 90.9887C141.067 90.9323 141.123 90.8763 141.208 90.8202C141.433 90.6234 141.685 90.4266 141.91 90.2301C142.107 90.0333 142.332 89.8366 142.528 89.6401C142.725 89.4433 142.922 89.2465 143.09 89.0219C143.287 88.8251 143.455 88.6004 143.624 88.3754C143.708 88.2633 143.793 88.1508 143.877 88.0383C143.905 87.9822 143.933 87.954 143.961 87.9261C144.017 87.8418 144.074 87.7854 144.13 87.7011C144.298 87.4482 144.467 87.2236 144.636 86.9707C144.804 86.6896 144.973 86.4086 145.141 86.1278C145.31 85.8185 145.478 85.4814 145.647 85.1442C145.816 84.8353 145.956 84.4699 146.097 84.1327C146.125 84.0766 146.153 83.9924 146.181 83.9363C146.181 83.9081 146.209 83.8799 146.237 83.8238C146.49 83.1495 146.743 82.4469 146.94 81.7165C146.94 81.7165 146.94 81.6601 146.94 81.6322C147.164 80.7611 147.389 79.8618 147.53 78.8785C147.642 78.1478 147.698 77.4735 147.726 76.8274C147.726 76.6027 147.726 76.4059 147.726 76.2092V76.2935Z" stroke="black" stroke-width="0.412515" stroke-linecap="round" stroke-linejoin="round"/>
<path d="M145.428 106.526C145.428 106.386 145.484 106.217 145.512 106.077C145.597 105.346 145.625 104.644 145.625 103.969C145.625 103.801 145.625 103.632 145.625 103.464C145.625 103.127 145.625 102.817 145.568 102.508C145.568 102.368 145.512 102.227 145.484 102.087C145.456 101.862 145.428 101.665 145.372 101.469C145.344 101.3 145.316 101.131 145.288 100.963C145.203 100.626 145.091 100.289 144.978 99.9514C144.866 99.6703 144.754 99.3895 144.641 99.1367C144.529 98.9117 144.417 98.6588 144.276 98.4342C144.276 98.4342 144.276 98.3781 144.248 98.3781C144.248 98.3781 144.22 98.3217 144.192 98.2938C144.079 98.1252 143.995 97.9566 143.883 97.8159C143.742 97.6194 143.602 97.4227 143.433 97.2259C143.377 97.1698 143.321 97.0855 143.264 97.0291C143.237 97.0012 143.18 96.9448 143.152 96.9169C143.068 96.8327 143.012 96.7484 142.927 96.692C142.731 96.4955 142.562 96.3269 142.337 96.1583C142.197 96.0458 142.056 95.9333 141.944 95.8212L132.054 88.0098C132.503 88.3469 132.896 88.7405 133.262 89.1337C133.29 89.1619 133.346 89.218 133.374 89.2462C133.711 89.6395 134.049 90.0609 134.301 90.5106C134.301 90.5106 134.329 90.5667 134.358 90.5949C134.639 91.0724 134.892 91.6063 135.088 92.1685C135.257 92.646 135.369 93.1518 135.482 93.6857C135.509 93.8822 135.566 94.1072 135.594 94.3036C135.65 94.7533 135.706 95.2029 135.706 95.6805C135.706 95.8491 135.706 96.0176 135.706 96.1862C135.706 96.8605 135.678 97.5631 135.594 98.2938C135.594 98.4342 135.538 98.6027 135.509 98.7431C135.425 99.3613 135.313 99.9796 135.172 100.654C135.116 100.935 135.032 101.188 134.976 101.469C134.779 102.255 134.582 103.042 134.301 103.857C133.936 104.953 133.515 105.992 133.093 106.948C133.009 107.116 132.925 107.313 132.868 107.482C132.419 108.465 131.913 109.364 131.379 110.207C131.351 110.263 131.323 110.291 131.295 110.348C130.733 111.219 130.143 112.033 129.497 112.764C129.468 112.82 129.412 112.848 129.384 112.904C128.738 113.635 128.064 114.31 127.361 114.927C127.305 114.984 127.249 115.012 127.221 115.068C126.518 115.658 125.788 116.22 125.001 116.698C124.945 116.726 124.917 116.754 124.86 116.782C124.158 117.231 123.427 117.597 122.697 117.962C122.416 118.103 122.135 118.215 121.854 118.355C121.264 118.608 120.646 118.861 120.028 119.086C119.747 119.17 119.494 119.283 119.213 119.367C118.314 119.648 117.386 119.929 116.431 120.126C113.256 120.856 109.772 121.193 106.035 121.306L115.925 129.117C119.663 129.005 123.147 128.667 126.321 127.937C127.277 127.712 128.204 127.459 129.103 127.178C129.384 127.094 129.665 126.982 129.918 126.897C130.311 126.757 130.705 126.644 131.098 126.476C131.323 126.392 131.52 126.279 131.745 126.167C132.025 126.054 132.306 125.914 132.587 125.773C132.812 125.661 133.037 125.576 133.234 125.464C133.711 125.211 134.189 124.93 134.639 124.649C134.667 124.649 134.695 124.593 134.751 124.593C134.807 124.565 134.835 124.537 134.891 124.509C135.2 124.312 135.482 124.115 135.762 123.919C136.072 123.694 136.409 123.441 136.718 123.188C136.858 123.076 136.971 122.964 137.111 122.851C137.167 122.795 137.223 122.767 137.252 122.711C137.364 122.626 137.448 122.542 137.561 122.458C137.813 122.233 138.066 121.98 138.319 121.727C138.572 121.474 138.797 121.221 139.05 120.968C139.134 120.884 139.218 120.772 139.275 120.688C139.303 120.631 139.359 120.603 139.387 120.547C139.5 120.407 139.612 120.294 139.724 120.154C139.949 119.873 140.174 119.564 140.399 119.254C140.623 118.917 140.876 118.58 141.101 118.243C141.101 118.187 141.157 118.159 141.185 118.103C141.213 118.046 141.241 118.018 141.27 117.962C141.466 117.653 141.635 117.372 141.831 117.063C142.113 116.585 142.365 116.08 142.618 115.574C142.674 115.461 142.703 115.349 142.759 115.237C142.843 115.068 142.927 114.871 142.984 114.703C143.152 114.31 143.349 113.916 143.517 113.494C143.77 112.876 143.995 112.258 144.192 111.612C144.36 111.078 144.529 110.544 144.669 110.039C144.754 109.758 144.81 109.476 144.866 109.224C144.922 108.971 145.007 108.662 145.063 108.409C145.203 107.735 145.316 107.116 145.4 106.498L145.428 106.526Z" fill="#CD8500" stroke="black" stroke-width="0.412515" stroke-linecap="round" stroke-linejoin="round"/>
<path d="M122.697 118.002C122.416 118.142 122.135 118.254 121.854 118.395C121.264 118.648 120.646 118.901 120.028 119.126C119.747 119.21 119.494 119.322 119.213 119.407C118.314 119.687 117.386 119.968 116.431 120.165C113.256 120.896 109.772 121.233 106.035 121.345L115.925 129.156C119.663 129.044 123.147 128.707 126.322 127.976C127.277 127.752 128.204 127.498 129.103 127.218C129.384 127.133 129.665 127.021 129.918 126.937C130.311 126.796 130.705 126.684 131.098 126.515C131.323 126.431 131.52 126.318 131.745 126.206C132.025 126.094 132.306 125.953 132.587 125.813C132.812 125.7 133.037 125.616 133.234 125.504C133.627 125.279 134.02 125.054 134.414 124.829L125.001 116.709C125.001 116.709 124.917 116.765 124.86 116.793C124.158 117.243 123.427 117.608 122.697 117.973V118.002Z" fill="#FFA500"/>
<path d="M137.644 71.1883C136.492 78.7183 132.53 83.1578 127.276 85.5743C134.356 87.794 137.925 92.8796 134.329 103.866C131.069 113.756 124.803 118.28 116.458 120.163C113.283 120.893 109.799 121.23 106.062 121.343L102.578 135.729L94.6263 135.476L98.0543 121.286C96.0032 121.202 93.8956 121.118 91.7323 121.006L88.2482 135.279L80.3246 135.026L83.8087 120.612C81.9543 120.528 80.0717 120.443 78.1331 120.387L67.793 120.078L71.8671 109.766L77.6552 109.963C77.9924 109.963 78.3017 109.963 78.6106 109.879C80.2121 109.514 80.9989 108.109 81.3643 107.181L90.833 68.1256C90.9455 66.3552 90.4115 64.2762 87.2085 64.1919L81.4204 63.9951L83.668 54.7229L94.6542 55.0882C96.284 55.1725 97.998 55.2004 99.712 55.2004L103.196 40.9551L111.148 41.1797L107.748 55.1725C109.883 55.1725 112.047 55.2286 114.126 55.2847L117.498 41.4044L125.45 41.6576L121.993 55.9029C132.024 57.1955 139.302 60.8764 137.7 71.2162L137.644 71.1883ZM119.043 101.674C121.769 90.4352 104.46 91.5871 99.0658 91.4467L94.4296 110.553C97.3797 110.637 103.617 111.199 109.153 109.963C113.761 108.924 117.863 106.62 119.043 101.702M121.881 74.6442C124.382 64.4165 109.883 65.5405 105.416 65.4001L101.229 82.7363C103.59 82.8206 108.591 83.2981 113.115 82.2588C117.133 81.3595 120.785 79.2522 121.909 74.6442" fill="white"/>
<path d="M119.043 101.674C121.769 90.4352 104.46 91.5871 99.0658 91.4467L94.4296 110.553C97.3797 110.637 103.617 111.199 109.153 109.963C113.761 108.924 117.863 106.62 119.043 101.702M121.881 74.6442C124.382 64.4165 109.883 65.5405 105.416 65.4001L101.229 82.7363C103.59 82.8206 108.591 83.2981 113.115 82.2588C117.133 81.3595 120.785 79.2522 121.909 74.6442M137.644 71.1883C136.492 78.7183 132.53 83.1578 127.276 85.5743C134.356 87.794 137.925 92.8796 134.329 103.866C131.069 113.756 124.803 118.28 116.458 120.163C113.283 120.893 109.799 121.23 106.062 121.343L102.578 135.729L94.6263 135.476L98.0543 121.286C96.0032 121.202 93.8956 121.118 91.7323 121.006L88.2482 135.279L80.3246 135.026L83.8087 120.612C81.9543 120.528 80.0717 120.443 78.1331 120.387L67.793 120.078L71.8671 109.766L77.6552 109.963C77.9924 109.963 78.3017 109.963 78.6106 109.879C80.2121 109.514 80.9989 108.109 81.3643 107.181L90.833 68.1256C90.9455 66.3552 90.4115 64.2762 87.2085 64.1919L81.4204 63.9951L83.668 54.7229L94.6542 55.0882C96.284 55.1725 97.998 55.2004 99.712 55.2004L103.196 40.9551L111.148 41.1797L107.748 55.1725C109.883 55.1725 112.047 55.2286 114.126 55.2847L117.498 41.4044L125.45 41.6576L121.993 55.9029C132.024 57.1955 139.302 60.8764 137.7 71.2162L137.644 71.1883Z" stroke="black" stroke-width="0.412515" stroke-linecap="round" stroke-linejoin="round"/>
<path d="M145.428 106.526C145.428 106.386 145.484 106.217 145.512 106.077C145.597 105.346 145.625 104.644 145.625 103.969C145.625 103.801 145.625 103.632 145.625 103.464C145.625 103.127 145.625 102.817 145.568 102.508C145.568 102.368 145.512 102.227 145.484 102.087C145.456 101.862 145.428 101.665 145.372 101.469C145.344 101.3 145.316 101.131 145.288 100.963C145.203 100.626 145.091 100.289 144.978 99.9514C144.866 99.6703 144.754 99.3895 144.641 99.1367C144.529 98.9117 144.417 98.6588 144.276 98.4342C144.276 98.4342 144.276 98.3781 144.248 98.3781C144.248 98.3781 144.22 98.3217 144.192 98.2938C144.079 98.1252 143.995 97.9566 143.883 97.8159C143.742 97.6195 143.602 97.4227 143.433 97.2259C143.377 97.1698 143.321 97.0855 143.264 97.0291C143.237 97.0012 143.18 96.9448 143.152 96.9169C143.068 96.8326 143.012 96.7484 142.927 96.692C142.731 96.4955 142.562 96.3269 142.337 96.1583C142.197 96.0458 142.056 95.9333 141.944 95.8212L132.054 88.0098C132.503 88.3469 132.896 88.7405 133.262 89.1337C133.29 89.1619 133.346 89.218 133.374 89.2462C133.711 89.6395 134.049 90.0609 134.301 90.5106C134.301 90.5106 134.329 90.5667 134.358 90.5949C134.639 91.0724 134.892 91.6063 135.088 92.1685C135.257 92.646 135.369 93.1518 135.482 93.6857C135.509 93.8822 135.566 94.1072 135.594 94.3036C135.65 94.7533 135.706 95.2029 135.706 95.6805C135.706 95.8491 135.706 96.0176 135.706 96.1862C135.706 96.8605 135.678 97.5631 135.594 98.2938C135.594 98.4342 135.538 98.6027 135.509 98.7431C135.425 99.3613 135.313 99.9796 135.172 100.654C135.116 100.935 135.032 101.188 134.976 101.469C134.779 102.255 134.582 103.042 134.301 103.857C133.936 104.953 133.515 105.992 133.093 106.948C133.009 107.116 132.925 107.313 132.868 107.482C132.419 108.465 131.913 109.364 131.379 110.207C131.351 110.263 131.323 110.291 131.295 110.348C130.733 111.219 130.143 112.033 129.497 112.764C129.468 112.82 129.412 112.848 129.384 112.904C128.738 113.635 128.064 114.31 127.361 114.927C127.305 114.984 127.249 115.012 127.221 115.068C126.518 115.658 125.788 116.22 125.001 116.698C124.945 116.726 124.917 116.754 124.86 116.782C124.158 117.231 123.427 117.597 122.697 117.962C122.416 118.103 122.135 118.215 121.854 118.355C121.264 118.608 120.646 118.861 120.028 119.086C119.747 119.17 119.494 119.283 119.213 119.367C118.314 119.648 117.386 119.929 116.431 120.126C113.256 120.856 109.772 121.193 106.035 121.306L115.925 129.117C119.663 129.005 123.147 128.667 126.321 127.937C127.277 127.712 128.204 127.459 129.103 127.178C129.384 127.094 129.665 126.982 129.918 126.897C130.311 126.757 130.705 126.644 131.098 126.476C131.323 126.392 131.52 126.279 131.745 126.167C132.025 126.054 132.306 125.914 132.587 125.773C132.812 125.661 133.037 125.576 133.234 125.464C133.711 125.211 134.189 124.93 134.639 124.649C134.667 124.649 134.695 124.593 134.751 124.593C134.807 124.565 134.835 124.537 134.891 124.509C135.2 124.312 135.482 124.115 135.762 123.919C136.072 123.694 136.409 123.441 136.718 123.188C136.858 123.076 136.971 122.964 137.111 122.851C137.167 122.795 137.223 122.767 137.252 122.711C137.364 122.626 137.448 122.542 137.561 122.458C137.813 122.233 138.066 121.98 138.319 121.727C138.572 121.474 138.797 121.221 139.05 120.968C139.134 120.884 139.218 120.772 139.275 120.688C139.303 120.631 139.359 120.603 139.387 120.547C139.5 120.407 139.612 120.294 139.724 120.154C139.949 119.873 140.174 119.564 140.399 119.254C140.623 118.917 140.876 118.58 141.101 118.243C141.101 118.187 141.157 118.159 141.185 118.103C141.213 118.046 141.241 118.018 141.27 117.962C141.466 117.653 141.635 117.372 141.831 117.063C142.113 116.585 142.365 116.08 142.618 115.574C142.674 115.461 142.703 115.349 142.759 115.237C142.843 115.068 142.927 114.871 142.984 114.703C143.152 114.31 143.349 113.916 143.517 113.495C143.77 112.876 143.995 112.258 144.192 111.612C144.36 111.078 144.529 110.544 144.669 110.039C144.754 109.758 144.81 109.476 144.866 109.224C144.922 108.971 145.007 108.662 145.063 108.409C145.203 107.735 145.316 107.116 145.4 106.498L145.428 106.526Z" stroke="black" stroke-width="0.412515" stroke-linecap="round" stroke-linejoin="round"/>
<path d="M162.09 75.4727L147.338 78.8164C145.849 79.1535 144.781 79.041 144.191 78.5914L154.082 86.4028C154.672 86.8803 155.739 86.9646 157.229 86.6275L171.98 83.2837L162.09 75.4727Z" fill="#EBE9E9" stroke="black" stroke-width="0.412515" stroke-miterlimit="10"/>
<path d="M217.972 71.066C217.972 71.066 217.972 70.7849 218 70.6446C218 70.5603 218 70.476 218 70.3635C218 70.3635 218 70.3356 218 70.3074C218 70.1949 217.972 70.0827 217.944 69.9702C217.944 69.8577 217.888 69.7735 217.86 69.6613C217.86 69.6049 217.832 69.577 217.804 69.5206C217.804 69.5206 217.804 69.4927 217.804 69.4645C217.804 69.4363 217.776 69.3802 217.748 69.352C217.691 69.2398 217.635 69.1555 217.579 69.043C217.523 68.9306 217.439 68.8184 217.354 68.7059C217.326 68.6498 217.298 68.6216 217.242 68.5655C217.242 68.5655 217.214 68.5091 217.186 68.4812C217.129 68.4248 217.101 68.3687 217.045 68.2844C216.905 68.1159 216.764 67.9755 216.624 67.8066C216.539 67.6944 216.427 67.6101 216.315 67.4976L204.036 57.495L194.145 49.6836L206.424 59.6865C206.761 60.0237 207.07 60.3327 207.295 60.6419C207.295 60.6419 207.323 60.698 207.351 60.7262C207.576 61.0352 207.773 61.3441 207.885 61.6534C207.885 61.6534 207.885 61.6813 207.885 61.7095C207.998 61.9906 208.082 62.2713 208.082 62.5524C208.082 62.6367 208.082 62.721 208.082 62.8335C208.082 63.0581 208.082 63.2831 207.97 63.4796C207.857 63.7607 207.689 64.0135 207.464 64.2664C207.239 64.5193 206.958 64.7439 206.593 64.9689C206.593 64.9689 206.593 64.9689 206.565 64.9689C206.256 65.1654 205.862 65.3343 205.469 65.5029C204.963 65.6993 204.373 65.8961 203.699 66.0365L189.594 69.2398L199.484 77.0509L213.589 73.8479C214.263 73.7072 214.854 73.5104 215.359 73.3139C215.387 73.3139 215.444 73.3139 215.5 73.2857C215.725 73.2015 215.949 73.089 216.146 72.9768C216.259 72.9204 216.371 72.8643 216.483 72.78C216.483 72.78 216.483 72.78 216.511 72.78C216.596 72.7239 216.68 72.6675 216.764 72.6114C216.82 72.5553 216.905 72.4989 216.961 72.471C217.017 72.4146 217.073 72.3868 217.129 72.3304C217.186 72.3025 217.214 72.2461 217.27 72.2182C217.298 72.19 217.326 72.1618 217.354 72.1339C217.382 72.1057 217.41 72.0496 217.467 72.0214C217.495 71.9932 217.523 71.9371 217.551 71.9089C217.551 71.881 217.607 71.8246 217.635 71.7967C217.635 71.7685 217.691 71.7124 217.719 71.6842C217.719 71.6281 217.776 71.5999 217.804 71.5439C217.804 71.4875 217.86 71.4596 217.86 71.4032C217.86 71.3189 217.916 71.2628 217.916 71.1785L217.972 71.066Z" fill="#EBE9E9" stroke="black" stroke-width="0.412515" stroke-miterlimit="10"/>
<path d="M176.224 38.6558C178.247 38.2065 180.27 38.4873 181.9 39.6676L194.151 49.6985L206.429 59.7011C209.323 62.4266 208.649 64.9274 203.732 66.0514L189.627 69.2544C188.953 117.948 150.346 166.472 102.805 177.234C78.8654 182.657 58.017 177.599 42.5352 164.927L62.1475 140.594C72.4873 149.052 87.1544 152.48 103.226 148.827C135.342 141.55 161.641 108.647 162.091 75.4922L147.34 78.8359C143.406 79.7349 142.451 77.5712 145.12 73.6096L158.073 57.8749L170.717 42.1963C172.206 40.342 174.201 39.1337 176.196 38.684L176.224 38.6558Z" fill="white" stroke="black" stroke-width="0.412515" stroke-linecap="round" stroke-linejoin="round"/>
<path d="M194.235 107.658C194.713 106.169 195.19 104.679 195.612 103.162C195.668 102.937 195.752 102.712 195.808 102.488C195.893 102.179 195.949 101.898 196.033 101.589C196.427 100.099 196.792 98.6104 197.129 97.1211C197.213 96.6715 197.326 96.25 197.41 95.8286C197.803 93.9742 198.14 92.0916 198.421 90.209C198.478 89.7876 198.534 89.3943 198.59 88.9729C198.815 87.4556 198.983 85.9102 199.124 84.393C199.18 83.859 199.208 83.3251 199.264 82.7912C199.405 80.8807 199.517 78.9699 199.545 77.0594L189.655 69.248C189.655 71.1588 189.514 73.0696 189.374 74.9801C189.346 75.514 189.289 76.048 189.233 76.5816C189.093 78.127 188.924 79.6442 188.699 81.1618C188.643 81.5832 188.587 81.9765 188.531 82.3979C188.25 84.2805 187.913 86.1349 187.519 88.0175C187.435 88.4671 187.323 88.8886 187.238 89.31C186.901 90.799 186.536 92.2884 186.143 93.7774C186.002 94.3113 185.862 94.8453 185.721 95.351C185.3 96.8682 184.85 98.3576 184.344 99.8466C184.26 100.099 184.204 100.352 184.091 100.605C183.501 102.347 182.883 104.061 182.209 105.747C181.928 106.478 181.619 107.208 181.31 107.939C181.029 108.585 180.776 109.231 180.495 109.85C180.158 110.608 179.793 111.395 179.455 112.154C179.174 112.771 178.893 113.39 178.584 114.008C178.416 114.317 178.247 114.654 178.107 114.963C177.151 116.902 176.112 118.841 175.044 120.723C174.903 120.976 174.763 121.257 174.594 121.51C173.555 123.308 172.459 125.106 171.335 126.849C171.054 127.27 170.773 127.72 170.492 128.141C169.593 129.49 168.666 130.838 167.738 132.159C167.486 132.524 167.233 132.861 166.98 133.227C165.856 134.772 164.676 136.289 163.468 137.779C163.187 138.116 162.906 138.453 162.625 138.79C161.67 139.942 160.714 141.066 159.731 142.162C159.337 142.611 158.944 143.033 158.551 143.454C157.539 144.55 156.499 145.646 155.46 146.714C155.179 146.995 154.898 147.304 154.617 147.585C153.296 148.905 151.92 150.226 150.515 151.49C150.178 151.799 149.84 152.08 149.503 152.389C148.351 153.401 147.199 154.412 146.019 155.368C145.598 155.705 145.176 156.042 144.755 156.379C143.181 157.644 141.608 158.852 140.006 160.004C139.894 160.088 139.781 160.173 139.669 160.257C138.011 161.437 136.325 162.561 134.612 163.657C134.218 163.91 133.853 164.162 133.459 164.387C131.436 165.624 129.385 166.804 127.306 167.928C126.772 168.208 126.238 168.489 125.704 168.77C124.89 169.192 124.075 169.585 123.26 169.978C122.614 170.288 121.996 170.569 121.349 170.878C120.534 171.243 119.692 171.608 118.849 171.974C118.146 172.282 117.415 172.564 116.713 172.845C116.179 173.041 115.674 173.238 115.14 173.435C114.297 173.744 113.454 174.053 112.611 174.334C112.105 174.502 111.571 174.699 111.065 174.868C110.138 175.177 109.211 175.458 108.284 175.71C107.834 175.851 107.413 175.963 106.963 176.104C105.586 176.469 104.21 176.834 102.805 177.143C79.3151 182.454 58.8038 177.706 43.4062 165.539L53.2964 173.35C68.6942 185.517 89.2055 190.293 112.695 184.955C114.1 184.646 115.477 184.28 116.854 183.915C117.303 183.803 117.725 183.662 118.174 183.522C119.102 183.241 120.029 182.988 120.956 182.679C121.462 182.51 121.996 182.341 122.501 182.145C123.344 181.864 124.187 181.555 125.03 181.246C125.564 181.049 126.07 180.852 126.604 180.656C126.941 180.515 127.306 180.403 127.643 180.262C128.008 180.122 128.374 179.953 128.739 179.785C129.582 179.42 130.397 179.082 131.24 178.689C131.886 178.408 132.532 178.099 133.15 177.79C133.965 177.396 134.78 177.003 135.595 176.582C135.96 176.385 136.353 176.216 136.719 176.02C136.887 175.935 137.028 175.823 137.196 175.739C139.276 174.643 141.327 173.463 143.35 172.198C143.49 172.114 143.659 172.03 143.827 171.917C144.052 171.777 144.277 171.608 144.53 171.468C146.244 170.372 147.958 169.248 149.615 168.068C149.7 168.012 149.784 167.955 149.868 167.899C149.868 167.899 149.925 167.871 149.953 167.843C151.582 166.691 153.156 165.455 154.729 164.218C154.898 164.078 155.095 163.937 155.263 163.797C155.516 163.6 155.741 163.376 155.994 163.179C157.174 162.196 158.326 161.212 159.478 160.2C159.703 159.976 159.956 159.807 160.208 159.583C160.321 159.498 160.405 159.386 160.49 159.301C161.894 158.037 163.243 156.745 164.592 155.396C164.648 155.34 164.732 155.283 164.788 155.199C165.013 154.974 165.21 154.75 165.435 154.525C166.474 153.457 167.514 152.361 168.525 151.265C168.722 151.069 168.919 150.872 169.115 150.647C169.312 150.423 169.509 150.198 169.705 149.973C170.689 148.877 171.644 147.753 172.599 146.601C172.796 146.348 173.021 146.124 173.246 145.871C173.33 145.787 173.386 145.702 173.443 145.618C174.651 144.129 175.803 142.611 176.955 141.066C177.039 140.954 177.123 140.869 177.18 140.757C177.348 140.504 177.517 140.251 177.685 139.998C178.64 138.678 179.568 137.329 180.439 135.98C180.607 135.728 180.804 135.475 180.973 135.194C181.085 135.025 181.169 134.856 181.282 134.688C182.406 132.946 183.501 131.147 184.541 129.349C184.597 129.265 184.654 129.181 184.682 129.096C184.794 128.928 184.878 128.731 184.962 128.534C186.03 126.624 187.042 124.713 188.025 122.774C188.109 122.578 188.25 122.381 188.334 122.184C188.39 122.072 188.447 121.932 188.503 121.819C188.812 121.201 189.093 120.583 189.374 119.965C189.739 119.206 190.076 118.447 190.413 117.661C190.695 117.014 190.947 116.368 191.228 115.75C191.481 115.16 191.734 114.57 191.959 113.98C192.015 113.839 192.071 113.699 192.127 113.53C192.802 111.816 193.42 110.102 194.01 108.388C194.094 108.136 194.179 107.883 194.263 107.63L194.235 107.658Z" fill="#EBE9E9" stroke="black" stroke-width="0.412515" stroke-miterlimit="10"/>
<path d="M189.23 76.5445C189.09 78.0899 188.921 79.6071 188.697 81.1244C188.64 81.5458 188.584 81.9394 188.528 82.3608C188.247 84.2434 187.91 86.0978 187.516 87.9804C187.432 88.43 187.32 88.8515 187.236 89.2729C186.898 90.7619 186.533 92.2513 186.14 93.7403C185.999 94.2742 185.859 94.8082 185.718 95.3139C185.297 96.8311 184.847 98.3202 184.341 99.8095C184.257 100.062 184.201 100.315 184.089 100.568C183.498 102.31 182.88 104.024 182.206 105.71C181.925 106.441 181.616 107.171 181.307 107.902C181.026 108.548 180.773 109.194 180.492 109.812C180.155 110.571 179.79 111.358 179.452 112.116C179.171 112.734 178.89 113.353 178.581 113.971C178.413 114.28 178.244 114.617 178.104 114.926C177.148 116.865 176.109 118.804 175.041 120.686C174.901 120.939 174.76 121.22 174.592 121.473C173.552 123.271 172.456 125.069 171.332 126.811C171.051 127.233 170.77 127.683 170.489 128.104C169.59 129.453 168.663 130.801 167.736 132.122C167.483 132.487 167.23 132.824 166.977 133.19C165.853 134.735 164.673 136.252 163.465 137.741C163.184 138.078 162.903 138.416 162.622 138.753C161.667 139.905 160.711 141.029 159.728 142.125C159.334 142.574 158.941 142.996 158.548 143.417C157.536 144.513 156.497 145.609 155.457 146.677C155.176 146.957 154.895 147.267 154.614 147.547C153.293 148.868 151.917 150.189 150.512 151.453C150.175 151.762 149.838 152.043 149.5 152.352C148.826 152.942 148.124 153.532 147.449 154.122L158.379 161.063C158.716 160.782 159.053 160.501 159.391 160.192C159.616 159.967 159.868 159.798 160.121 159.573C160.234 159.489 160.318 159.377 160.402 159.292C161.807 158.028 163.156 156.735 164.504 155.387C164.561 155.331 164.645 155.275 164.701 155.19C164.926 154.965 165.123 154.741 165.348 154.516C166.387 153.448 167.427 152.352 168.438 151.256C168.635 151.06 168.832 150.863 169.028 150.638C169.225 150.414 169.422 150.189 169.618 149.964C170.602 148.868 171.557 147.744 172.512 146.592C172.709 146.339 172.934 146.114 173.159 145.862C173.243 145.777 173.299 145.693 173.355 145.609C174.563 144.12 175.716 142.602 176.867 141.057C176.952 140.945 177.036 140.86 177.092 140.748C177.261 140.495 177.43 140.242 177.598 139.989C178.553 138.669 179.481 137.32 180.351 135.971C180.52 135.718 180.717 135.465 180.885 135.184C180.998 135.016 181.082 134.847 181.194 134.679C182.318 132.937 183.414 131.138 184.454 129.34C184.51 129.256 184.566 129.172 184.594 129.087C184.707 128.919 184.791 128.722 184.875 128.525C185.943 126.615 186.955 124.704 187.938 122.765C188.022 122.569 188.163 122.372 188.247 122.175C188.303 122.063 188.359 121.922 188.416 121.81C188.725 121.192 189.006 120.574 189.287 119.955C189.652 119.197 189.989 118.438 190.326 117.651C190.607 117.005 190.86 116.359 191.141 115.741C191.394 115.151 191.647 114.561 191.872 113.971C191.928 113.83 191.984 113.69 192.04 113.521C192.715 111.807 193.333 110.093 193.923 108.379C194.007 108.126 194.091 107.873 194.176 107.621C194.653 106.132 195.131 104.642 195.553 103.125C195.609 102.9 195.693 102.675 195.749 102.451C195.834 102.141 195.89 101.861 195.974 101.551C196.367 100.062 196.733 98.573 197.07 97.084C197.154 96.6343 197.267 96.2129 197.351 95.7914C197.744 93.9371 198.081 92.0545 198.362 90.1719C198.418 89.7504 198.475 89.3572 198.531 88.9358C198.756 87.4182 198.924 85.8731 199.065 84.3556C199.121 83.8219 199.149 83.288 199.205 82.7541C199.346 80.8436 199.458 78.9328 199.486 77.0223L189.596 69.2109C189.596 71.1217 189.455 73.0322 189.315 74.943C189.287 75.4769 189.23 76.0105 189.174 76.5445H189.23Z" fill="black" stroke="black" stroke-width="0.412515" stroke-linecap="round" stroke-linejoin="round"/>
<path d="M134.637 163.717C134.244 163.97 133.878 164.223 133.485 164.448C133.373 164.504 133.288 164.56 133.176 164.616L144.162 171.781C144.162 171.781 144.415 171.613 144.556 171.529C146.269 170.433 147.983 169.309 149.641 168.129C149.725 168.072 149.81 168.016 149.894 167.96C149.894 167.96 149.95 167.932 149.978 167.904C150.372 167.623 150.737 167.314 151.102 167.033L140.088 160.064C140.088 160.064 139.863 160.233 139.751 160.317C138.093 161.498 136.407 162.621 134.693 163.717H134.637Z" fill="black" stroke="black" stroke-width="0.412515" stroke-linecap="round" stroke-linejoin="round"/>
<path d="M208.029 63.4562L217.975 71.0987C217.975 71.0987 217.975 71.0708 217.975 71.0426C218.003 70.9022 217.975 70.7615 218.003 70.6211C218.003 70.5368 218.003 70.4525 218.003 70.34C218.003 70.34 218.003 70.3122 218.003 70.284C218.003 70.1715 217.975 70.0593 217.947 69.9468C217.947 69.8343 217.891 69.75 217.863 69.6378C217.863 69.5814 217.835 69.5535 217.807 69.4972C217.807 69.4972 217.807 69.4693 217.807 69.4411C217.807 69.4129 217.778 69.3568 217.75 69.3286C217.694 69.2164 217.638 69.1321 217.582 69.0196C217.526 68.9071 217.441 68.7946 217.357 68.6824C217.329 68.6261 217.301 68.5982 217.245 68.5418C217.245 68.5418 217.217 68.4857 217.188 68.4575C217.132 68.4014 217.104 68.3453 217.048 68.261C216.907 68.0924 216.767 67.9517 216.627 67.7831C216.542 67.671 216.43 67.5867 216.317 67.4742L204.039 57.4712L194.148 49.6602L206.427 59.6631C206.764 60.0003 207.073 60.3092 207.298 60.6182C207.298 60.6182 207.326 60.6746 207.354 60.7028C207.579 61.0117 207.776 61.3207 207.888 61.63C207.888 61.63 207.888 61.6579 207.888 61.6861C208.001 61.9671 208.085 62.2479 208.085 62.529C208.085 62.6132 208.085 62.6975 208.085 62.81C208.085 63.0347 208.085 63.2594 207.972 63.4562H208.029Z" fill="black" stroke="black" stroke-width="0.412515" stroke-linecap="round" stroke-linejoin="round"/>
</svg>
