<svg width="21" height="20" viewBox="0 0 21 20" fill="none" xmlns="http://www.w3.org/2000/svg">
<path d="M10.0026 11.459H5.83594C5.49427 11.459 5.21094 11.1757 5.21094 10.834C5.21094 10.4923 5.49427 10.209 5.83594 10.209H10.0026C10.3443 10.209 10.6276 10.4923 10.6276 10.834C10.6276 11.1757 10.3443 11.459 10.0026 11.459Z" fill="#71839B"/>
<path d="M13.3359 14.791H5.83594C5.49427 14.791 5.21094 14.5077 5.21094 14.166C5.21094 13.8243 5.49427 13.541 5.83594 13.541H13.3359C13.6776 13.541 13.9609 13.8243 13.9609 14.166C13.9609 14.5077 13.6776 14.791 13.3359 14.791Z" fill="#71839B"/>
<path d="M12.4974 18.9577H7.4974C2.9724 18.9577 1.03906 17.0243 1.03906 12.4993V7.49935C1.03906 2.97435 2.9724 1.04102 7.4974 1.04102H11.6641C12.0057 1.04102 12.2891 1.32435 12.2891 1.66602C12.2891 2.00768 12.0057 2.29102 11.6641 2.29102H7.4974C3.65573 2.29102 2.28906 3.65768 2.28906 7.49935V12.4993C2.28906 16.341 3.65573 17.7077 7.4974 17.7077H12.4974C16.3391 17.7077 17.7057 16.341 17.7057 12.4993V8.33268C17.7057 7.99102 17.9891 7.70768 18.3307 7.70768C18.6724 7.70768 18.9557 7.99102 18.9557 8.33268V12.4993C18.9557 17.0243 17.0224 18.9577 12.4974 18.9577Z" fill="#71839B"/>
<path d="M19.2002 4.24498C19.2569 4.14673 19.2549 4.02424 19.1985 3.92862C19.1384 3.83089 19.0366 3.77206 18.9198 3.77258L18.1265 3.78521C17.9514 3.78599 17.8147 3.93027 17.8155 4.10539C17.8163 4.28051 17.9606 4.41718 18.1357 4.4164L18.2827 4.41393C17.5309 5.17828 16.3334 5.36995 15.3654 4.81111C15.2162 4.72497 15.0211 4.77726 14.9349 4.92646C14.8488 5.07565 14.9032 5.26717 15.056 5.3554C16.5043 6.19157 18.364 5.69327 19.2002 4.24498Z" fill="#71839B"/>
<path d="M18.5786 1.94736C18.6647 1.79816 18.6161 1.60511 18.4632 1.51687C17.0149 0.6807 15.1552 1.17901 14.3191 2.62729C14.2602 2.72918 14.2644 2.84803 14.3187 2.9473C14.3787 3.04503 14.4806 3.10385 14.5973 3.10333L15.387 3.0886C15.5642 3.08418 15.7045 2.942 15.698 2.76842C15.6972 2.5933 15.5529 2.45663 15.3778 2.45741L15.2308 2.45988C15.9806 1.69917 17.1801 1.50386 18.1481 2.06271C18.3009 2.15094 18.4924 2.09655 18.5786 1.94736Z" fill="#71839B"/>
</svg>
