<svg xmlns="http://www.w3.org/2000/svg" xmlns:xlink="http://www.w3.org/1999/xlink" width="17" height="17" viewBox="0 0 17 17">
  <defs>
    <clipPath id="clip-path">
      <rect id="Rectangle_19232" data-name="Rectangle 19232" width="17" height="17" transform="translate(1043 730)" fill="#EAECEF" opacity="0.33"/>
    </clipPath>
  </defs>
  <g id="Mask_Group_220" data-name="Mask Group 220" transform="translate(-1043 -730)" clip-path="url(#clip-path)">
    <g id="Group_59796" data-name="Group 59796" transform="translate(23.5 -0.501)">
      <path id="Path_43186" data-name="Path 43186" d="M154.5,1253.453v3.176a3.736,3.736,0,0,1-1.5,2.888,5.869,5.869,0,0,1-3.6,1.2h-2.735v.719a.786.786,0,0,1-.191.5,1.065,1.065,0,0,1-.509.331,1.437,1.437,0,0,1-.654.057,1.232,1.232,0,0,1-.581-.251l-3.33-2.665a1.18,1.18,0,0,1,0-1.926l3.33-2.665a1.232,1.232,0,0,1,.581-.251,1.433,1.433,0,0,1,.654.05,1.133,1.133,0,0,1,.509.338.787.787,0,0,1,.191.5v.719h3.3a3.868,3.868,0,0,0,2.4-.8,2.48,2.48,0,0,0,1-1.926.417.417,0,0,1,.166-.323.685.685,0,0,1,.8,0A.417.417,0,0,1,154.5,1253.453Zm-8.966,6.8a.414.414,0,0,1,.166-.316.64.64,0,0,1,.4-.137h3.3a4.5,4.5,0,0,0,2.8-.927,2.912,2.912,0,0,0,1.162-2.249v-.776a4.644,4.644,0,0,1-1.533.912,5.587,5.587,0,0,1-1.865.316H146.1a.635.635,0,0,1-.4-.129.417.417,0,0,1-.166-.323v-1.171l-3.33,2.665a.419.419,0,0,0-.166.323.4.4,0,0,0,.166.316l3.33,2.673Z" transform="translate(881.182 -515.534)" fill="#EAECEF" stroke="#EAECEF" stroke-width="0.3"/>
      <path id="Path_43187" data-name="Path 43187" d="M138,1251.887v-3.176a3.733,3.733,0,0,1,1.494-2.888,5.872,5.872,0,0,1,3.6-1.2h2.736v-.718a.783.783,0,0,1,.191-.5,1.065,1.065,0,0,1,.508-.331,1.439,1.439,0,0,1,.655-.057,1.226,1.226,0,0,1,.58.251l3.331,2.665a1.181,1.181,0,0,1,0,1.926l-3.331,2.666a1.226,1.226,0,0,1-.58.251,1.437,1.437,0,0,1-.655-.05,1.132,1.132,0,0,1-.508-.338.783.783,0,0,1-.191-.5v-.718h-3.3a3.87,3.87,0,0,0-2.4.8,2.482,2.482,0,0,0-1,1.926.417.417,0,0,1-.166.323.685.685,0,0,1-.8,0A.417.417,0,0,1,138,1251.887Zm8.966-6.8a.417.417,0,0,1-.166.316.642.642,0,0,1-.4.136h-3.3a4.5,4.5,0,0,0-2.8.927,2.908,2.908,0,0,0-1.162,2.249v.776a4.639,4.639,0,0,1,1.533-.912,5.587,5.587,0,0,1,1.865-.316H146.4a.636.636,0,0,1,.4.129.419.419,0,0,1,.166.323v1.171l3.329-2.665a.417.417,0,0,0,.166-.323.393.393,0,0,0-.166-.316l-3.329-2.673Z" transform="translate(882 -512)" fill="#EAECEF" stroke="#EAECEF" stroke-width="0.3"/>
    </g>
  </g>
</svg>
