<svg width="70" height="70" viewBox="0 0 70 70" fill="none" xmlns="http://www.w3.org/2000/svg">
<circle cx="35" cy="35" r="35" fill="white"/>
<path d="M47.5 48.4375H26.25C23.6625 48.4375 21.5625 46.3375 21.5625 43.75V22.5C21.5625 21.9875 21.9875 21.5625 22.5 21.5625C23.0125 21.5625 23.4375 21.9875 23.4375 22.5V43.75C23.4375 45.3 24.7 46.5625 26.25 46.5625H47.5C48.0125 46.5625 48.4375 46.9875 48.4375 47.5C48.4375 48.0125 48.0125 48.4375 47.5 48.4375Z" fill="#292D32"/>
<path d="M26.2498 42.1873C26.0373 42.1873 25.8123 42.1123 25.6373 41.9623C25.2498 41.6248 25.1998 41.0373 25.5373 40.6373L31.2748 33.9373C31.8998 33.2123 32.7998 32.7748 33.7498 32.7373C34.6998 32.7123 35.6373 33.0623 36.3123 33.7373L37.4998 34.9248C37.8123 35.2373 38.2248 35.3873 38.6623 35.3873C39.0998 35.3748 39.4998 35.1748 39.7873 34.8373L45.5248 28.1373C45.8623 27.7498 46.4498 27.6998 46.8498 28.0373C47.2373 28.3748 47.2873 28.9623 46.9498 29.3623L41.2123 36.0623C40.5873 36.7873 39.6873 37.2248 38.7373 37.2623C37.7873 37.2873 36.8498 36.9373 36.1748 36.2623L34.9998 35.0748C34.6873 34.7623 34.2748 34.5998 33.8373 34.6123C33.3998 34.6248 32.9998 34.8248 32.7123 35.1623L26.9748 41.8623C26.7748 42.0748 26.5123 42.1873 26.2498 42.1873Z" fill="#292D32"/>
</svg>
