<svg width="1920" height="332" viewBox="0 0 1920 332" fill="none" xmlns="http://www.w3.org/2000/svg">
<rect x="0.98114" width="1919.02" height="331.304" fill="#0C1014"/>
<mask id="mask0_1194_4170" style="mask-type:alpha" maskUnits="userSpaceOnUse" x="0" y="0" width="1920" height="332">
<rect width="1920" height="331.304" fill="#272727"/>
</mask>
<g mask="url(#mask0_1194_4170)">
<path d="M228.692 20.6506C46.2105 123.016 -150.229 -30.1903 -225.639 -119.589L-247.731 -262.867L-168.472 -380.696L84.6039 -419.641C208.667 -315.53 411.174 -81.7148 228.692 20.6506Z" fill="url(#paint0_linear_1194_4170)" fill-opacity="0.3"/>
<path d="M1226.17 84.5466L1222.27 80.3867L1218.37 84.5466L1222.27 88.7064L1226.17 84.5466Z" fill="white"/>
<path opacity="0.68" d="M1140.5 13.1297L1137.53 9.95703L1134.55 13.1297L1137.53 16.3023L1140.5 13.1297Z" fill="white"/>
<path opacity="0.69" d="M1103.58 67.5518L1097.3 60.8594L1091.03 67.5518L1097.3 74.2443L1103.58 67.5518Z" fill="white"/>
<path d="M150.172 81.3513L146.271 77.1914L142.37 81.3513L146.271 85.5111L150.172 81.3513Z" fill="#FFA500"/>
<path opacity="0.68" d="M64.5011 9.9324L61.5258 6.75977L58.5506 9.9324L61.5258 13.105L64.5011 9.9324Z" fill="#FFA500"/>
<path opacity="0.69" d="M27.5798 64.3565L21.3037 57.6641L15.0277 64.3565L21.3037 71.0489L27.5798 64.3565Z" fill="#FFA500"/>
<path opacity="0.58" d="M1844.99 23.602L1842.26 20.6895L1839.53 23.602L1842.26 26.5145L1844.99 23.602Z" fill="white"/>
<path opacity="0.58" d="M1829.57 41.7039L1827.7 39.709L1825.83 41.7039L1827.7 43.6988L1829.57 41.7039Z" fill="white"/>
<path opacity="0.24" d="M1869.41 -0.272194L1867.8 -1.98242L1866.2 -0.272188L1867.8 1.43804L1869.41 -0.272194Z" fill="white"/>
<path opacity="0.88" d="M1883.35 31.013L1881.75 29.3027L1880.15 31.013L1881.75 32.7232L1883.35 31.013Z" fill="white"/>
<path opacity="0.68" d="M1856.5 62.1316L1853.53 58.959L1850.55 62.1316L1853.53 65.3042L1856.5 62.1316Z" fill="white"/>
<path opacity="0.68" d="M1767.13 0.580836L1764.16 -2.5918L1761.18 0.580836L1764.16 3.75347L1767.13 0.580836Z" fill="white"/>
<path opacity="0.69" d="M1819.58 116.554L1813.3 109.861L1807.03 116.554L1813.3 123.246L1819.58 116.554Z" fill="white"/>
<path opacity="0.88" d="M1812.34 5.83497L1811.57 5.01367L1810.8 5.83496L1811.57 6.65626L1812.34 5.83497Z" fill="white"/>
</g>
<path opacity="0.4" d="M164.4 216.6C137 216.6 115.5 207.4 99.9 189C84.3 170.4 76.5 143.5 76.5 108.3C76.5 90.7 78.5 75.2 82.5 61.8C86.5 48.4 92.3 37.1 99.9 27.9C107.5 18.7 116.7 11.8 127.5 7.19999C138.5 2.39999 150.8 -1.14441e-05 164.4 -1.14441e-05C182.6 -1.14441e-05 197.8 3.99999 210 12C222.4 20 232.1 31.8 239.1 47.4L210.6 63C207 53 201.4 45.1 193.8 39.3C186.4 33.3 176.6 30.3 164.4 30.3C148.2 30.3 135.5 35.8 126.3 46.8C117.1 57.8 112.5 73 112.5 92.4V124.2C112.5 143.6 117.1 158.8 126.3 169.8C135.5 180.8 148.2 186.3 164.4 186.3C177 186.3 187.2 183.1 195 176.7C203 170.1 208.9 161.7 212.7 151.5L240 168C233 183.2 223.2 195.1 210.6 203.7C198 212.3 182.6 216.6 164.4 216.6ZM353.128 216.6C339.528 216.6 327.128 214.3 315.928 209.7C304.928 204.9 295.428 198 287.428 189C279.628 179.8 273.528 168.5 269.128 155.1C264.928 141.5 262.828 125.9 262.828 108.3C262.828 90.7 264.928 75.2 269.128 61.8C273.528 48.2 279.628 36.9 287.428 27.9C295.428 18.7 304.928 11.8 315.928 7.19999C327.128 2.39999 339.528 -1.14441e-05 353.128 -1.14441e-05C366.728 -1.14441e-05 379.028 2.39999 390.028 7.19999C401.228 11.8 410.728 18.7 418.528 27.9C426.528 36.9 432.628 48.2 436.828 61.8C441.228 75.2 443.428 90.7 443.428 108.3C443.428 125.9 441.228 141.5 436.828 155.1C432.628 168.5 426.528 179.8 418.528 189C410.728 198 401.228 204.9 390.028 209.7C379.028 214.3 366.728 216.6 353.128 216.6ZM353.128 186.3C361.128 186.3 368.428 184.9 375.028 182.1C381.828 179.3 387.528 175.3 392.128 170.1C396.928 164.7 400.628 158.2 403.228 150.6C405.828 143 407.128 134.4 407.128 124.8V91.8C407.128 82.2 405.828 73.6 403.228 66C400.628 58.4 396.928 52 392.128 46.8C387.528 41.4 381.828 37.3 375.028 34.5C368.428 31.7 361.128 30.3 353.128 30.3C344.928 30.3 337.528 31.7 330.928 34.5C324.328 37.3 318.628 41.4 313.828 46.8C309.228 52 305.628 58.4 303.028 66C300.428 73.6 299.128 82.2 299.128 91.8V124.8C299.128 134.4 300.428 143 303.028 150.6C305.628 158.2 309.228 164.7 313.828 170.1C318.628 175.3 324.328 179.3 330.928 182.1C337.528 184.9 344.928 186.3 353.128 186.3ZM485.702 213V3.6H575.702C595.102 3.6 610.102 9.29999 620.702 20.7C631.302 32.1 636.602 47.4 636.602 66.6C636.602 85.8 631.302 101.1 620.702 112.5C610.102 123.9 595.102 129.6 575.702 129.6H519.602V213H485.702ZM519.602 99.9H573.602C582.202 99.9 588.902 97.7 593.702 93.3C598.502 88.7 600.902 82.2 600.902 73.8V59.4C600.902 51 598.502 44.6 593.702 40.2C588.902 35.6 582.202 33.3 573.602 33.3H519.602V99.9ZM720.066 213V130.5L648.066 3.6H686.766L737.766 96.9H738.666L789.366 3.6H826.566L753.966 129.9V213H720.066ZM1004.32 33.6V213H970.42V33.6H908.02V3.6H1066.72V33.6H1004.32ZM1133.66 213H1099.76V3.6H1190.06C1208.86 3.6 1223.66 9.29999 1234.46 20.7C1245.26 31.9 1250.66 47.2 1250.66 66.6C1250.66 81.6 1247.16 94.1 1240.16 104.1C1233.36 113.9 1223.26 120.8 1209.86 124.8L1255.16 213H1217.36L1175.36 128.4H1133.66V213ZM1187.66 99.9C1196.26 99.9 1202.96 97.7 1207.76 93.3C1212.56 88.7 1214.96 82.2 1214.96 73.8V59.4C1214.96 51 1212.56 44.6 1207.76 40.2C1202.96 35.6 1196.26 33.3 1187.66 33.3H1133.66V99.9H1187.66ZM1427.15 213L1408.25 156.3H1329.95L1311.65 213H1277.15L1348.55 3.6H1391.15L1462.55 213H1427.15ZM1369.85 34.8H1368.35L1338.05 127.2H1399.85L1369.85 34.8ZM1494.98 3.6H1569.08C1582.48 3.6 1594.58 5.79999 1605.38 10.2C1616.38 14.6 1625.68 21.2 1633.28 30C1641.08 38.6 1647.08 49.5 1651.28 62.7C1655.48 75.7 1657.58 90.9 1657.58 108.3C1657.58 125.7 1655.48 141 1651.28 154.2C1647.08 167.2 1641.08 178.1 1633.28 186.9C1625.68 195.5 1616.38 202 1605.38 206.4C1594.58 210.8 1582.48 213 1569.08 213H1494.98V3.6ZM1569.08 183C1584.68 183 1597.28 178.1 1606.88 168.3C1616.48 158.5 1621.28 144.1 1621.28 125.1V91.5C1621.28 72.5 1616.48 58.1 1606.88 48.3C1597.28 38.5 1584.68 33.6 1569.08 33.6H1528.88V183H1569.08ZM1699.76 213V3.6H1833.86V33.6H1733.66V91.8H1824.56V121.8H1733.66V183H1833.86V213H1699.76Z" fill="url(#paint1_linear_1194_4170)"/>
<defs>
<linearGradient id="paint0_linear_1194_4170" x1="-153.315" y1="-78.019" x2="329.431" y2="-5.38501" gradientUnits="userSpaceOnUse">
<stop stop-color="#FF9A3B"/>
<stop offset="1" stop-color="#070707" stop-opacity="0"/>
</linearGradient>
<linearGradient id="paint1_linear_1194_4170" x1="960.5" y1="25" x2="960.5" y2="348" gradientUnits="userSpaceOnUse">
<stop stop-color="white" stop-opacity="0.2"/>
<stop offset="0.6" stop-color="#0C1014" stop-opacity="0"/>
</linearGradient>
</defs>
</svg>
