<svg width="12" height="12" viewBox="0 0 12 12" fill="none" xmlns="http://www.w3.org/2000/svg">
<path d="M10 4H8V1.78C7.99824 1.30846 7.81014 0.856725 7.47671 0.52329C7.14328 0.189855 6.69155 0.00175624 6.22 0H1.78C1.30846 0.00175624 0.856725 0.189855 0.52329 0.52329C0.189855 0.856725 0.00175624 1.30846 0 1.78V6.22C0.00175624 6.69155 0.189855 7.14328 0.52329 7.47671C0.856725 7.81014 1.30846 7.99824 1.78 8H4V10C4 10.5304 4.21071 11.0391 4.58579 11.4142C4.96086 11.7893 5.46957 12 6 12H10C10.5304 12 11.0391 11.7893 11.4142 11.4142C11.7893 11.0391 12 10.5304 12 10V6C12 5.46957 11.7893 4.96086 11.4142 4.58579C11.0391 4.21071 10.5304 4 10 4ZM4 6V6.66667H1.78C1.66154 6.66667 1.54793 6.61961 1.46416 6.53584C1.38039 6.45208 1.33333 6.33846 1.33333 6.22V1.78C1.33333 1.66154 1.38039 1.54793 1.46416 1.46416C1.54793 1.38039 1.66154 1.33333 1.78 1.33333H6.22C6.33846 1.33333 6.45208 1.38039 6.53584 1.46416C6.61961 1.54793 6.66667 1.66154 6.66667 1.78V4H6C5.46957 4 4.96086 4.21071 4.58579 4.58579C4.21071 4.96086 4 5.46957 4 6Z" fill="#9B9A9A"/>
</svg>
