<svg width="100" height="100" viewBox="0 0 100 100" fill="none" xmlns="http://www.w3.org/2000/svg">
<mask id="mask0_5305_12959" style="mask-type:alpha" maskUnits="userSpaceOnUse" x="0" y="0" width="100" height="100">
<rect width="100" height="100" fill="#D9D9D9"/>
</mask>
<g mask="url(#mask0_5305_12959)">
<mask id="mask1_5305_12959" style="mask-type:luminance" maskUnits="userSpaceOnUse" x="12" y="7" width="77" height="87">
<path d="M88.626 7H12V93.8226H88.626V7Z" fill="white"/>
</mask>
<g mask="url(#mask1_5305_12959)">
<path d="M52.148 93.4751L40.5938 86.7699L49.2525 81.7686L52.148 93.4751Z" fill="#080013" stroke="#080013" stroke-width="0.5" stroke-miterlimit="10" stroke-linecap="round" stroke-linejoin="round"/>
<path d="M75.495 7.56757C74.7607 7.19349 73.8048 7.26276 72.7381 7.91385L64.4673 12.652L55.2959 17.944L18.4446 39.1545C16.1725 40.4567 14.3438 43.657 14.3438 46.2616L14.4546 83.9857C14.4546 85.2326 14.8841 86.1192 15.5907 86.5764L26.8539 93.1016C26.175 92.6583 25.7594 91.7993 25.7594 90.5802L25.6762 52.8422C25.6625 50.2515 27.505 47.0651 29.7631 45.7628L84.0706 14.4945C85.1789 13.8711 86.1625 13.8018 86.9107 14.1896L75.495 7.56757Z" fill="#080013"/>
<path d="M75.495 7.56757C74.7607 7.19349 73.8048 7.26276 72.7381 7.91385L64.4673 12.652L55.2959 17.944L18.4446 39.1545C16.1725 40.4567 14.3438 43.657 14.3438 46.2616L14.4546 83.9857C14.4546 85.2326 14.8841 86.1192 15.5907 86.5764L26.8539 93.1016C26.175 92.6583 25.7594 91.7993 25.7594 90.5802L25.6762 52.8422C25.6625 50.2515 27.505 47.0651 29.7631 45.7628L84.0706 14.4945C85.1789 13.8711 86.1625 13.8018 86.9107 14.1896L75.495 7.56757Z" fill="#FFA500"/>
<path d="M75.495 7.56757C74.7607 7.19349 73.8048 7.26276 72.7381 7.91385L64.4673 12.652L55.2959 17.944L18.4446 39.1545C16.1725 40.4567 14.3438 43.657 14.3438 46.2615L14.4546 83.9857C14.4546 85.2326 14.8841 86.1193 15.5907 86.5764L26.8539 93.1016C26.175 92.6583 25.7594 91.7993 25.7594 90.5802L25.6762 52.8422C25.6625 50.2515 27.505 47.0651 29.7631 45.7628L84.0706 14.4945C85.1789 13.8711 86.1625 13.8018 86.9107 14.1896L75.495 7.56757Z" stroke="#080013" stroke-width="0.5" stroke-miterlimit="10" stroke-linecap="round" stroke-linejoin="round"/>
<path d="M84.0463 14.4798C86.3045 13.1775 88.147 14.2304 88.1609 16.8349L88.2718 54.5869C88.2718 57.1776 86.4431 60.3639 84.1849 61.6523L62.3233 74.2455L52.1269 93.4887L49.2175 81.7821L29.8914 92.9207C27.6331 94.223 25.7767 93.17 25.7767 90.5655L25.6797 52.8412C25.6797 50.2506 27.5223 47.0642 29.7805 45.7619L84.0463 14.4798Z" stroke="#080013" stroke-width="0.5" stroke-miterlimit="10" stroke-linecap="round" stroke-linejoin="round"/>
<path d="M29.7852 45.7628L18.4688 39.187" stroke="#080013" stroke-width="0.5" stroke-miterlimit="10" stroke-linecap="round" stroke-linejoin="round"/>
<path d="M25.6812 52.8418L14.3359 46.2729" stroke="#080013" stroke-width="0.5" stroke-miterlimit="10" stroke-linecap="round" stroke-linejoin="round"/>
</g>
<path d="M70.8359 34.7281L80.251 28.9517L79.9852 39.9173" stroke="#080013" stroke-miterlimit="10" stroke-linecap="round" stroke-linejoin="round"/>
<path d="M64.773 50.8443C65.7221 50.2951 66.5953 50.1815 67.2597 50.4276C67.6014 50.5603 67.905 50.7875 68.1327 51.0906C68.4934 51.564 68.6832 52.2458 68.7022 53.0791C68.7022 55.5601 66.956 58.5903 64.792 59.8402C62.6281 61.0902 60.8438 60.0864 60.8438 57.6055C60.8438 56.8479 61.0146 56.0335 61.2993 55.2382C61.5081 54.651 61.7929 54.0639 62.1346 53.5336C62.8369 52.3973 63.7481 51.4314 64.773 50.8443Z" fill="black" stroke="#080013" stroke-width="0.5" stroke-miterlimit="10" stroke-linecap="round" stroke-linejoin="round"/>
<path d="M80.1451 29.104L67.75 50.6942" stroke="#080013" stroke-miterlimit="10" stroke-linecap="round" stroke-linejoin="round"/>
<path d="M50.7614 54.8994L45.4844 64.009" stroke="#080013" stroke-miterlimit="10" stroke-linecap="round" stroke-linejoin="round"/>
<path d="M42.3327 64.0074C43.2629 63.4582 44.1361 63.3445 44.8194 63.5908C45.1801 63.7233 45.4838 63.9316 45.7115 64.2536C46.0721 64.7271 46.2809 65.4089 46.2809 66.2422C46.2809 68.7422 44.5347 71.7723 42.3707 73.0223C40.2068 74.2722 38.4225 73.2686 38.4225 70.7686C38.3845 68.2875 40.1499 65.2574 42.3327 64.0074Z" fill="black" stroke="#080013" stroke-width="0.5" stroke-miterlimit="10" stroke-linecap="round" stroke-linejoin="round"/>
<path d="M53.5169 45.5989C55.6807 44.3489 57.4461 45.3527 57.4651 47.8526C57.4651 48.6858 57.2753 49.595 56.9146 50.4662C56.6868 51.0532 56.3831 51.6215 56.0414 52.1516C55.358 53.1744 54.504 54.0645 53.5548 54.6138C52.6057 55.163 51.7325 55.2766 51.0492 55.0304C50.7076 54.8978 50.4039 54.6706 50.1761 54.3675C49.8344 53.894 49.6256 53.2312 49.6256 52.3979C49.5876 49.8791 51.3529 46.8488 53.5169 45.5989Z" fill="#080013"/>
<path d="M53.5169 45.5989C55.6807 44.3489 57.4461 45.3527 57.4651 47.8526C57.4651 48.6858 57.2753 49.595 56.9146 50.4662C56.6868 51.0532 56.3831 51.6215 56.0414 52.1516C55.358 53.1744 54.504 54.0645 53.5548 54.6138C52.6057 55.163 51.7325 55.2766 51.0492 55.0304C50.7076 54.8978 50.4039 54.6706 50.1761 54.3675C49.8344 53.894 49.6256 53.2312 49.6256 52.3979C49.5876 49.8791 51.3529 46.8488 53.5169 45.5989Z" fill="#FFA500"/>
<path d="M53.5169 45.5989C55.6807 44.3489 57.4461 45.3527 57.4651 47.8526C57.4651 48.6858 57.2753 49.595 56.9146 50.4662C56.6868 51.0532 56.3831 51.6215 56.0414 52.1516C55.358 53.1744 54.504 54.0645 53.5548 54.6138C52.6057 55.163 51.7325 55.2766 51.0492 55.0304C50.7076 54.8978 50.4039 54.6706 50.1761 54.3675C49.8344 53.894 49.6256 53.2312 49.6256 52.3979C49.5876 49.8791 51.3529 46.8488 53.5169 45.5989Z" stroke="#080013" stroke-width="0.5" stroke-miterlimit="10" stroke-linecap="round" stroke-linejoin="round"/>
<path d="M61.4298 54.6886L56.3047 51.6963" stroke="#080013" stroke-miterlimit="10" stroke-linecap="round" stroke-linejoin="round"/>
</g>
</svg>
