<svg width="70" height="70" viewBox="0 0 70 70" fill="none" xmlns="http://www.w3.org/2000/svg">
<path d="M35 70C54.33 70 70 54.33 70 35C70 15.67 54.33 0 35 0C15.67 0 0 15.67 0 35C0 54.33 15.67 70 35 70Z" fill="#FFFAF2"/>
<path d="M34.4844 42.5378H31.6133C30.2096 42.5378 29.0612 43.6862 29.0612 45.0898V45.4089H27.7852C27.262 45.4089 26.8281 45.8427 26.8281 46.3659C26.8281 46.8891 27.262 47.3229 27.7852 47.3229H43.0977C43.6208 47.3229 44.0547 46.8891 44.0547 46.3659C44.0547 45.8427 43.6208 45.4089 43.0977 45.4089H41.8216V45.0898C41.8216 43.6862 40.6732 42.5378 39.2695 42.5378H36.3984V39.6156C36.0794 39.6539 35.7604 39.6667 35.4414 39.6667C35.1224 39.6667 34.8034 39.6539 34.4844 39.6156V42.5378Z" fill="#FF9900"/>
<path d="M43.7031 34.1031C44.5453 33.7841 45.2854 33.2609 45.8724 32.674C47.0591 31.3596 47.8375 29.7901 47.8375 27.9526C47.8375 26.1151 46.3956 24.6732 44.5581 24.6732H43.8435C43.0141 22.976 41.2786 21.8021 39.2625 21.8021H31.6062C29.5901 21.8021 27.8547 22.976 27.0253 24.6732H26.3107C24.4732 24.6732 23.0312 26.1151 23.0312 27.9526C23.0312 29.7901 23.8096 31.3596 24.9964 32.674C25.5833 33.2609 26.3234 33.7841 27.1656 34.1031C28.4927 37.3698 31.6828 39.6667 35.4344 39.6667C39.1859 39.6667 42.376 37.3698 43.7031 34.1031ZM39.0583 30.0325L38.2672 31.0023C38.1396 31.1427 38.0503 31.4234 38.063 31.6148L38.1396 32.8654C38.1906 33.631 37.6419 34.0266 36.9273 33.7458L35.7661 33.2865C35.5875 33.2227 35.2812 33.2227 35.1026 33.2865L33.9414 33.7458C33.2268 34.0266 32.6781 33.631 32.7292 32.8654L32.8057 31.6148C32.8185 31.4234 32.7292 31.1427 32.6016 31.0023L31.8104 30.0325C31.3128 29.4456 31.5297 28.7948 32.2698 28.6034L33.482 28.2971C33.6734 28.2461 33.9031 28.0674 34.0052 27.9016L34.6815 26.8552C35.1026 26.2044 35.7661 26.2044 36.1872 26.8552L36.8635 27.9016C36.9656 28.0674 37.1953 28.2461 37.3867 28.2971L38.599 28.6034C39.3391 28.7948 39.556 29.4456 39.0583 30.0325Z" fill="url(#paint0_linear_545_7739)"/>
<defs>
<linearGradient id="paint0_linear_545_7739" x1="24.0243" y1="30.4617" x2="37.4231" y2="30.4617" gradientUnits="userSpaceOnUse">
<stop stop-color="#FF8000"/>
<stop offset="1" stop-color="#FFA500"/>
</linearGradient>
</defs>
</svg>
