<svg width="20" height="20" viewBox="0 0 20 20" fill="none" xmlns="http://www.w3.org/2000/svg">
<path d="M3.65279 1.64645L3.29924 1.29289L2.94568 1.64645L1.64645 2.94568L1.29289 3.29924L1.64645 3.65279L7.99366 10L1.64645 16.3472L1.29289 16.7008L1.64645 17.0543L2.94568 18.3536L3.29924 18.7071L3.65279 18.3536L10 12.0063L16.3472 18.3536L16.7008 18.7071L17.0543 18.3536L18.3536 17.0543L18.7071 16.7008L18.3536 16.3472L12.0063 10L18.3536 3.65279L18.7071 3.29924L18.3536 2.94568L17.0543 1.64645L16.7008 1.29289L16.3472 1.64645L10 7.99366L3.65279 1.64645Z" fill="#AFAFAF" stroke="#AFAFAF"/>
</svg>
