<svg width="12" height="12" viewBox="0 0 12 12" fill="none" xmlns="http://www.w3.org/2000/svg">
<circle cx="6" cy="6" r="6" fill="#D9D9D9"/>
<path d="M4.41789 8.0014C4.31167 8.0014 4.20545 7.96226 4.12159 7.87841C3.95947 7.71628 3.95947 7.44794 4.12159 7.28581L7.28581 4.12159C7.44794 3.95947 7.71628 3.95947 7.87841 4.12159C8.04053 4.28372 8.04053 4.55206 7.87841 4.71419L4.71419 7.87841C4.63592 7.96226 4.52411 8.0014 4.41789 8.0014Z" fill="#7E7E7E"/>
<path d="M7.58211 8.0014C7.47589 8.0014 7.36967 7.96226 7.28581 7.87841L4.12159 4.71419C3.95947 4.55206 3.95947 4.28372 4.12159 4.12159C4.28372 3.95947 4.55206 3.95947 4.71419 4.12159L7.87841 7.28581C8.04053 7.44794 8.04053 7.71628 7.87841 7.87841C7.79455 7.96226 7.68833 8.0014 7.58211 8.0014Z" fill="#7E7E7E"/>
</svg>
