<svg width="15" height="15" viewBox="0 0 15 15" fill="none" xmlns="http://www.w3.org/2000/svg">
<path d="M1.56654 15C1.16835 15 0.770171 14.8533 0.455816 14.5389C-0.151939 13.9312 -0.151939 12.9253 0.455816 12.3175L12.3175 0.455816C12.9253 -0.151939 13.9312 -0.151939 14.5389 0.455816C15.1467 1.06357 15.1467 2.06951 14.5389 2.67726L2.67726 14.5389C2.38386 14.8533 1.96472 15 1.56654 15Z" fill="#7E7E7E"/>
<path d="M13.4282 15C13.03 15 12.6319 14.8533 12.3175 14.5389L0.455816 2.67726C-0.151939 2.06951 -0.151939 1.06357 0.455816 0.455816C1.06357 -0.151939 2.06951 -0.151939 2.67726 0.455816L14.5389 12.3175C15.1467 12.9253 15.1467 13.9312 14.5389 14.5389C14.2246 14.8533 13.8264 15 13.4282 15Z" fill="#7E7E7E"/>
</svg>
