<svg width="24" height="24" viewBox="0 0 24 24" fill="none" xmlns="http://www.w3.org/2000/svg">
<path d="M17 22H7C6.59 22 6.25 21.66 6.25 21.25C6.25 20.84 6.59 20.5 7 20.5H17C17.41 20.5 17.75 20.84 17.75 21.25C17.75 21.66 17.41 22 17 22Z" fill="#71839B"/>
<path d="M20.3483 5.52004L16.3483 8.38004C15.8183 8.76004 15.0583 8.53004 14.8283 7.92004L12.9383 2.88004C12.6183 2.01004 11.3883 2.01004 11.0683 2.88004L9.16827 7.91004C8.93827 8.53004 8.18827 8.76004 7.65827 8.37004L3.65827 5.51004C2.85827 4.95004 1.79827 5.74004 2.12827 6.67004L6.28827 18.32C6.42827 18.72 6.80827 18.98 7.22827 18.98H16.7583C17.1783 18.98 17.5583 18.71 17.6983 18.32L21.8583 6.67004C22.1983 5.74004 21.1383 4.95004 20.3483 5.52004ZM14.4983 14.75H9.49827C9.08827 14.75 8.74827 14.41 8.74827 14C8.74827 13.59 9.08827 13.25 9.49827 13.25H14.4983C14.9083 13.25 15.2483 13.59 15.2483 14C15.2483 14.41 14.9083 14.75 14.4983 14.75Z" fill="#71839B"/>
</svg>
