<svg width="306" height="140" viewBox="0 0 306 140" fill="none" xmlns="http://www.w3.org/2000/svg">
<path d="M296.982 97.2367C295.966 102.565 291.237 107.141 283.043 110.739C274.883 114.322 263.521 116.824 249.729 118.131C222.16 120.743 185.117 118.561 145.152 110.941C105.187 103.321 69.9404 91.7184 45.2666 79.1441C32.9235 72.8537 23.2791 66.3466 17.0103 60.0128C10.7146 53.6518 8.00162 47.6561 9.01752 42.3282C10.0334 37.0003 14.7623 32.4236 22.957 28.8256C31.1166 25.243 42.4789 22.7413 56.2706 21.4343C83.8402 18.8217 120.883 21.0034 160.848 28.6239C200.813 36.2443 236.059 47.8465 260.733 60.4208C273.076 66.7112 282.721 73.2183 288.989 79.5521C295.285 85.9131 297.998 91.9088 296.982 97.2367Z" stroke="url(#paint0_linear_1730_1712)" stroke-width="2"/>
<mask id="path-2-inside-1_1730_1712" fill="white">
<path d="M297.965 97.424C296.795 103.557 291.036 108.737 281.088 112.604C271.14 116.472 257.244 118.932 240.37 119.814C223.495 120.696 204.049 119.979 183.389 117.711C162.728 115.444 141.352 111.682 120.751 106.687C100.151 101.692 80.8229 95.5859 64.1166 88.7937C47.4104 82.0014 33.7285 74.6872 24.0262 67.3616C14.3238 60.036 8.83481 52.8755 7.94229 46.3801C7.04978 39.8847 10.7753 34.2109 18.8587 29.7547L153 69.7824L297.965 97.424Z"/>
</mask>
<path d="M297.965 97.424C296.795 103.557 291.036 108.737 281.088 112.604C271.14 116.472 257.244 118.932 240.37 119.814C223.495 120.696 204.049 119.979 183.389 117.711C162.728 115.444 141.352 111.682 120.751 106.687C100.151 101.692 80.8229 95.5859 64.1166 88.7937C47.4104 82.0014 33.7285 74.6872 24.0262 67.3616C14.3238 60.036 8.83481 52.8755 7.94229 46.3801C7.04978 39.8847 10.7753 34.2109 18.8587 29.7547L153 69.7824L297.965 97.424Z" stroke="url(#paint1_linear_1730_1712)" stroke-width="4" mask="url(#path-2-inside-1_1730_1712)"/>
<circle cx="239.382" cy="48.9064" r="14.586" fill="#22A079"/>
<path fill-rule="evenodd" clip-rule="evenodd" d="M241.357 44.0943V46.5183L241.359 46.5209C245.782 46.7282 249.107 47.6228 249.107 48.6905C249.107 49.7608 245.782 50.6528 241.359 50.86V58.6305H237.419V50.86C232.991 50.6502 229.658 49.7582 229.658 48.6879C229.658 47.6175 232.988 46.7256 237.419 46.5183V44.0943H231.968V40.3979H246.808V44.0943H241.357ZM241.357 50.1937V50.1963V50.1989C245.261 50.0205 248.176 49.328 248.176 48.499C248.176 47.67 245.264 46.9774 241.357 46.799V49.5064C241.243 49.5169 240.635 49.5693 239.419 49.5693C238.406 49.5693 237.671 49.5247 237.416 49.5064V46.7964C233.504 46.9722 230.581 47.6674 230.581 48.4964C230.581 49.328 233.501 50.0205 237.416 50.1963V50.1937C237.669 50.2068 238.382 50.2357 239.401 50.2357C240.674 50.2357 241.246 50.2016 241.357 50.1937Z" fill="white"/>
<circle cx="41.1842" cy="75.5043" r="17.1601" fill="#EDEFF1"/>
<path d="M34.0342 75.7167L41.1821 79.8677V72.5247V64.0645L34.0342 75.7167Z" fill="#898989"/>
<path d="M41.1821 64.0645V72.5247V79.8677L48.33 75.7167L41.1821 64.0645Z" fill="#323232"/>
<path d="M41.1841 72.5259L48.3299 75.7169L41.1841 79.8668V72.5259Z" fill="#141414"/>
<path d="M41.1821 72.5249L41.1842 72.5256V79.8658L41.1821 79.8679L34.0342 75.7169L41.1821 72.5249Z" fill="#373737"/>
<path d="M34.0342 77.0483L41.1821 86.9444V81.1973L34.0342 77.0483Z" fill="#898989"/>
<path d="M41.1821 81.1973V86.9444L48.3343 77.0483L41.1821 81.1973Z" fill="#323232"/>
<path d="M77.6927 21.9893C75.9736 28.884 68.9897 33.08 62.0934 31.3606C55.2 29.6417 51.0035 22.6582 52.7234 15.7639C54.4417 8.86845 61.4257 4.67205 68.3199 6.39099C75.2158 8.10993 79.4119 15.0943 77.6927 21.9893Z" fill="#F7931A"/>
<path fill-rule="evenodd" clip-rule="evenodd" d="M71.073 17.1946C71.3408 15.3914 69.9778 14.4221 68.1142 13.7755L68.7188 11.333L67.2427 10.9624L66.6542 13.3406C66.2662 13.2432 65.8676 13.1513 65.4716 13.0603L66.0644 10.6664L64.5892 10.2959L63.9842 12.7376C63.6631 12.6639 63.3478 12.5911 63.0417 12.5144L63.0434 12.5068L61.0078 11.9948L60.6152 13.5828C60.6152 13.5828 61.7103 13.8356 61.6872 13.8513C62.285 14.0016 62.393 14.4001 62.375 14.716L61.6864 17.4986C61.7275 17.5092 61.7809 17.5244 61.8398 17.5482L61.7898 17.5356L61.7896 17.5355C61.7554 17.5269 61.72 17.5179 61.6838 17.5092L60.7186 21.4072C60.6454 21.5901 60.4601 21.8645 60.0422 21.7604C60.0569 21.782 58.9693 21.4906 58.9693 21.4906L58.2366 23.1925L60.1574 23.6748C60.3719 23.729 60.5838 23.7847 60.7935 23.8397L60.7936 23.8398C60.9332 23.8764 61.0719 23.9129 61.2096 23.9484L60.5988 26.4189L62.0731 26.7894L62.6781 24.3452C63.0808 24.4553 63.4718 24.5569 63.8543 24.6526L63.2515 27.0854L64.7275 27.456L65.3383 24.9901C67.8553 25.4699 69.7479 25.2764 70.5445 22.9833C71.1865 21.137 70.5126 20.072 69.1883 19.3775C70.1527 19.1535 70.8792 18.5145 71.073 17.1946ZM67.7006 21.9581C67.2821 23.652 64.6499 22.9517 63.4455 22.6313L63.4454 22.6313C63.3371 22.6024 63.2403 22.5767 63.1577 22.556L63.9683 19.2831C64.0688 19.3084 64.1917 19.3361 64.3309 19.3676C65.5766 19.6492 68.1294 20.2262 67.7006 21.9581ZM64.5812 17.8487C65.5853 18.1186 67.7756 18.7074 68.1571 17.1679C68.5467 15.5931 66.4179 15.1184 65.3783 14.8866C65.2613 14.8605 65.1582 14.8375 65.0739 14.8164L64.3391 17.7849C64.4085 17.8023 64.4899 17.8242 64.5812 17.8487Z" fill="white"/>
<circle cx="143.286" cy="107.25" r="14.586" fill="#7950DD"/>
<path d="M148.238 103.94C147.879 103.724 147.413 103.724 147.018 103.94L144.219 105.595L142.318 106.675L139.519 108.33C139.16 108.545 138.694 108.545 138.299 108.33L136.074 107.034C135.715 106.819 135.464 106.423 135.464 105.991V103.437C135.464 103.005 135.68 102.609 136.074 102.393L138.263 101.134C138.622 100.918 139.088 100.918 139.483 101.134L141.672 102.393C142.031 102.609 142.282 103.005 142.282 103.437V105.092L144.184 103.976V102.321C144.184 101.89 143.968 101.494 143.574 101.278L139.519 98.9036C139.16 98.6877 138.694 98.6877 138.299 98.9036L134.172 101.278C133.778 101.494 133.562 101.89 133.562 102.321V107.106C133.562 107.538 133.778 107.934 134.172 108.15L138.299 110.524C138.658 110.74 139.124 110.74 139.519 110.524L142.318 108.905L144.219 107.79L147.018 106.171C147.377 105.955 147.844 105.955 148.238 106.171L150.427 107.43C150.786 107.646 151.037 108.042 151.037 108.473V111.028C151.037 111.459 150.822 111.855 150.427 112.071L148.238 113.366C147.879 113.582 147.413 113.582 147.018 113.366L144.829 112.107C144.471 111.891 144.219 111.495 144.219 111.064V109.409L142.318 110.524V112.179C142.318 112.611 142.533 113.006 142.928 113.222L147.054 115.597C147.413 115.813 147.879 115.813 148.274 115.597L152.401 113.222C152.759 113.006 153.011 112.611 153.011 112.179V107.394C153.011 106.962 152.795 106.567 152.401 106.351L148.238 103.94Z" fill="white"/>
<circle cx="239.383" cy="113.256" r="14.586" fill="#FF0000"/>
<path d="M244.334 109.947C243.976 109.731 243.509 109.731 243.114 109.947L240.316 111.602L238.414 112.681L235.615 114.336C235.256 114.552 234.79 114.552 234.395 114.336L232.17 113.041C231.812 112.825 231.56 112.429 231.56 111.997V109.443C231.56 109.011 231.776 108.616 232.17 108.4L234.359 107.141C234.718 106.925 235.184 106.925 235.579 107.141L237.768 108.4C238.127 108.616 238.378 109.011 238.378 109.443V111.098L240.28 109.983V108.328C240.28 107.896 240.065 107.5 239.67 107.284L235.615 104.91C235.256 104.694 234.79 104.694 234.395 104.91L230.269 107.284C229.874 107.5 229.659 107.896 229.659 108.328V113.113C229.659 113.544 229.874 113.94 230.269 114.156L234.395 116.53C234.754 116.746 235.22 116.746 235.615 116.53L238.414 114.911L240.316 113.796L243.114 112.177C243.473 111.961 243.94 111.961 244.334 112.177L246.523 113.436C246.882 113.652 247.133 114.048 247.133 114.48V117.034C247.133 117.466 246.918 117.862 246.523 118.077L244.334 119.373C243.976 119.588 243.509 119.588 243.114 119.373L240.926 118.113C240.567 117.898 240.316 117.502 240.316 117.07V115.415L238.414 116.53V118.185C238.414 118.617 238.629 119.013 239.024 119.229L243.15 121.603C243.509 121.819 243.976 121.819 244.37 121.603L248.497 119.229C248.856 119.013 249.107 118.617 249.107 118.185V113.4C249.107 112.969 248.891 112.573 248.497 112.357L244.334 109.947Z" fill="white"/>
<defs>
<linearGradient id="paint0_linear_1730_1712" x1="286.379" y1="25.3381" x2="144.965" y2="111.923" gradientUnits="userSpaceOnUse">
<stop stop-color="#D7D7D7"/>
<stop offset="1" stop-color="#DADADA"/>
</linearGradient>
<linearGradient id="paint1_linear_1730_1712" x1="154.44" y1="71.6432" x2="144.965" y2="111.923" gradientUnits="userSpaceOnUse">
<stop offset="0.567021" stop-color="#D7D7D7" stop-opacity="0"/>
<stop offset="1" stop-color="#DADADA"/>
</linearGradient>
</defs>
</svg>
