<svg width="16" height="16" viewBox="0 0 16 16" fill="none" xmlns="http://www.w3.org/2000/svg">
<mask id="mask0_15_2670" style="mask-type:alpha" maskUnits="userSpaceOnUse" x="0" y="0" width="16" height="16">
<rect width="15.4994" height="15.3457" fill="#D9D9D9"/>
</mask>
<g mask="url(#mask0_15_2670)">
<path d="M15.2311 7.67651C15.2311 8.03182 15.2062 8.38138 15.1581 8.72132C15.1216 8.98061 15.0717 9.23797 15.0103 9.48765C14.484 11.608 13.0512 13.3711 11.1479 14.343H11.146C11.1229 14.3545 11.098 14.366 11.0749 14.3795C10.1204 14.8538 9.05058 15.1304 7.91742 15.1554C7.89821 15.1554 7.88093 15.1554 7.86172 15.1573C7.82523 15.1573 7.78682 15.1573 7.75033 15.1573C7.71383 15.1573 7.67542 15.1573 7.63893 15.1573C7.61973 15.1573 7.60244 15.1573 7.58323 15.1554C6.45199 15.1304 5.38029 14.8538 4.42574 14.3795C4.39501 14.3641 4.3662 14.3487 4.33739 14.3353H4.33547C2.44175 13.3615 1.01665 11.6042 0.490402 9.48957C0.428942 9.23989 0.379006 8.98253 0.342514 8.72324C0.294499 8.38137 0.269531 8.03182 0.269531 7.67843C0.269531 3.54719 3.61908 0.197632 7.75033 0.197632C11.8816 0.197632 15.2311 3.54526 15.2311 7.67651Z" fill="#EAECEF"/>
</g>
<path d="M7.75153 8.47353C9.48582 8.47353 10.8917 7.06761 10.8917 5.33332C10.8917 3.59903 9.48582 2.19312 7.75153 2.19312C6.01725 2.19312 4.61133 3.59903 4.61133 5.33332C4.61133 7.06761 6.01725 8.47353 7.75153 8.47353Z" fill="url(#paint0_linear_15_2670)"/>
<path d="M11.1504 14.3441C11.1273 14.3556 11.1024 14.3671 11.0793 14.3805C10.1248 14.8549 9.05499 15.1315 7.92182 15.1565C7.90262 15.1565 7.88533 15.1565 7.86613 15.1584C7.82963 15.1584 7.79122 15.1584 7.75473 15.1584C7.71824 15.1584 7.67983 15.1584 7.64333 15.1584C7.62413 15.1584 7.60684 15.1584 7.58764 15.1565C6.45639 15.1315 5.38469 14.8549 4.43014 14.3805C4.39941 14.3652 4.37061 14.3498 4.3418 14.3364L4.43014 9.22369L7.71056 13.9715L11.0793 9.22369L11.1504 14.3441Z" fill="url(#paint1_linear_15_2670)"/>
<path d="M15.0096 9.48876C14.4833 11.6091 13.0505 13.3722 11.1472 14.3441H11.1453C11.1222 14.3556 11.0973 14.3671 11.0742 14.3806V9.22371C11.0742 9.22371 11.6293 9.22371 13.1062 9.22371C14.0089 9.22179 14.6485 9.3716 15.0096 9.48876Z" fill="#929AA5"/>
<path d="M4.42948 9.22229V14.3791C4.39875 14.3638 4.36994 14.3484 4.34113 14.335H4.33921C2.44549 13.3612 1.02039 11.6039 0.494141 9.48926C0.855216 9.37402 1.49478 9.22229 2.39747 9.22229C3.87442 9.22229 4.42948 9.22229 4.42948 9.22229Z" fill="#929AA5"/>
<defs>
<linearGradient id="paint0_linear_15_2670" x1="7.75153" y1="2.19312" x2="7.75153" y2="8.47353" gradientUnits="userSpaceOnUse">
<stop stop-color="#FF8D00"/>
<stop offset="1" stop-color="#FFA500"/>
</linearGradient>
<linearGradient id="paint1_linear_15_2670" x1="7.74609" y1="9.22369" x2="7.74609" y2="15.1584" gradientUnits="userSpaceOnUse">
<stop stop-color="#FF8D00"/>
<stop offset="1" stop-color="#FFA500"/>
</linearGradient>
</defs>
</svg>
