<svg width="30" height="30" viewBox="0 0 30 30" fill="none" xmlns="http://www.w3.org/2000/svg">
<path opacity="0.4" d="M23.75 12.85V21.7875C23.7125 25.35 22.7375 26.25 19.025 26.25H7.22504C3.45004 26.25 2.5 25.3125 2.5 21.5875V12.85C2.5 9.475 3.2875 8.3875 6.25 8.2125C6.55 8.2 6.87504 8.1875 7.22504 8.1875H19.025C22.8 8.1875 23.75 9.125 23.75 12.85Z" fill="#FFA500"/>
<path d="M27.5 8.4125V17.15C27.5 20.525 26.7125 21.6125 23.75 21.7875V12.85C23.75 9.125 22.8 8.1875 19.025 8.1875H7.22504C6.87504 8.1875 6.55 8.2 6.25 8.2125C6.2875 4.65 7.26254 3.75 10.975 3.75H22.775C26.55 3.75 27.5 4.6875 27.5 8.4125Z" fill="#FFA500"/>
<path d="M8.69691 23.2002H6.54688C6.03438 23.2002 5.60938 22.7752 5.60938 22.2627C5.60938 21.7502 6.03438 21.3252 6.54688 21.3252H8.69691C9.20941 21.3252 9.63441 21.7502 9.63441 22.2627C9.63441 22.7752 9.22191 23.2002 8.69691 23.2002Z" fill="#FFA500"/>
<path d="M15.6906 23.2002H11.3906C10.8781 23.2002 10.4531 22.7752 10.4531 22.2627C10.4531 21.7502 10.8781 21.3252 11.3906 21.3252H15.6906C16.2031 21.3252 16.6281 21.7502 16.6281 22.2627C16.6281 22.7752 16.2156 23.2002 15.6906 23.2002Z" fill="#FFA500"/>
<path d="M23.75 14.8252H2.5V16.7002H23.75V14.8252Z" fill="#FFA500"/>
</svg>
