<svg width="80" height="80" viewBox="0 0 80 80" fill="none" xmlns="http://www.w3.org/2000/svg">
<path d="M40 80C62.0914 80 80 62.0914 80 40C80 17.9086 62.0914 0 40 0C17.9086 0 0 17.9086 0 40C0 62.0914 17.9086 80 40 80Z" fill="#FAFAFA" fill-opacity="0.980392"/>
<path fill-rule="evenodd" clip-rule="evenodd" d="M38.1504 31.0939C39.3712 30.8406 40.6288 30.8406 41.8496 31.0939C45.9364 31.9418 49.0799 35.2173 49.9271 39.3306C49.4352 39.0815 48.8819 38.9416 48.297 38.9416C47.8638 38.9416 47.4327 39.0033 47.0159 39.125L46.6936 39.2191C44.8391 39.7604 43.4378 41.3321 43.07 43.2833C42.8599 44.3979 42.8599 45.5438 43.07 46.6583C43.4378 48.6095 44.8391 50.1812 46.6936 50.7225L47.0159 50.8166C47.4327 50.9383 47.8638 51 48.297 51C50.3421 51 52 49.2902 52 47.181L52 41.1303L51.9708 40.6917C51.5949 35.0394 47.5994 30.3448 42.2137 29.2274C40.7525 28.9242 39.2475 28.9242 37.7863 29.2274C32.4006 30.3448 28.4051 35.0394 28.0292 40.6917L28 41.1303L28 47.181C28 49.2902 29.6579 51 31.703 51C32.1362 51 32.5673 50.9383 32.9841 50.8166L33.3064 50.7225C35.1609 50.1812 36.5622 48.6095 36.93 46.6583C37.14 45.5438 37.14 44.3979 36.93 43.2833C36.5622 41.3321 35.1609 39.7604 33.3064 39.2191L32.9841 39.125C32.5673 39.0033 32.1362 38.9416 31.703 38.9416C31.1181 38.9416 30.5648 39.0815 30.0729 39.3306C30.9201 35.2173 34.0636 31.9418 38.1504 31.0939Z" fill="#71839B"/>
</svg>
