<svg width="96" height="96" viewBox="0 0 96 96" fill="none" xmlns="http://www.w3.org/2000/svg">
<path d="M48 96C74.5097 96 96 74.5097 96 48C96 21.4903 74.5097 0 48 0C21.4903 0 0 21.4903 0 48C0 74.5097 21.4903 96 48 96Z" fill="#FFFBF2"/>
<path d="M28.7303 61.8542C27.8761 61.8542 27.1678 61.1459 27.1678 60.2917V48.4167C27.0636 42.7709 29.1678 37.4375 33.0844 33.4375C37.0011 29.4584 42.2511 27.2709 47.8969 27.2709C59.4386 27.2709 68.8344 36.6667 68.8344 48.2084V60.0834C68.8344 60.9375 68.1261 61.6459 67.2719 61.6459C66.4178 61.6459 65.7094 60.9375 65.7094 60.0834V48.2084C65.7094 38.3959 57.7303 30.3959 47.8969 30.3959C43.0844 30.3959 38.6261 32.25 35.3136 35.625C31.9803 39.0209 30.2094 43.5417 30.2928 48.375V60.2709C30.2928 61.1459 29.6053 61.8542 28.7303 61.8542Z" fill="#FFA500"/>
<g filter="url(#filter0_b_2683_9852)">
<path d="M35.3763 48.9375H35.1055C30.7305 48.9375 27.168 52.5 27.168 56.875V60.7917C27.168 65.1667 30.7305 68.7292 35.1055 68.7292H35.3763C39.7513 68.7292 43.3138 65.1667 43.3138 60.7917V56.875C43.3138 52.5 39.7513 48.9375 35.3763 48.9375Z" fill="#FFD17C"/>
<path d="M35.1055 49.2434H35.3763C39.5823 49.2434 43.0079 52.669 43.0079 56.875V60.7917C43.0079 64.9977 39.5823 68.4232 35.3763 68.4232H35.1055C30.8994 68.4232 27.4739 64.9977 27.4739 60.7917V56.875C27.4739 52.669 30.8994 49.2434 35.1055 49.2434Z" stroke="url(#paint0_linear_2683_9852)" stroke-width="0.611895"/>
</g>
<g filter="url(#filter1_b_2683_9852)">
<path d="M60.8958 48.9375H60.625C56.25 48.9375 52.6875 52.5 52.6875 56.875V60.7917C52.6875 65.1667 56.25 68.7292 60.625 68.7292H60.8958C65.2708 68.7292 68.8333 65.1667 68.8333 60.7917V56.875C68.8333 52.5 65.2708 48.9375 60.8958 48.9375Z" fill="#FFD17C"/>
<path d="M60.625 49.2434H60.8958C65.1019 49.2434 68.5274 52.669 68.5274 56.875V60.7917C68.5274 64.9977 65.1019 68.4232 60.8958 68.4232H60.625C56.419 68.4232 52.9934 64.9977 52.9934 60.7917V56.875C52.9934 52.669 56.419 49.2434 60.625 49.2434Z" stroke="url(#paint1_linear_2683_9852)" stroke-width="0.611895"/>
</g>
<defs>
<filter id="filter0_b_2683_9852" x="14.1112" y="35.8808" width="42.258" height="45.9051" filterUnits="userSpaceOnUse" color-interpolation-filters="sRGB">
<feFlood flood-opacity="0" result="BackgroundImageFix"/>
<feGaussianBlur in="BackgroundImageFix" stdDeviation="6.52837"/>
<feComposite in2="SourceAlpha" operator="in" result="effect1_backgroundBlur_2683_9852"/>
<feBlend mode="normal" in="SourceGraphic" in2="effect1_backgroundBlur_2683_9852" result="shape"/>
</filter>
<filter id="filter1_b_2683_9852" x="39.6308" y="35.8808" width="42.258" height="45.9051" filterUnits="userSpaceOnUse" color-interpolation-filters="sRGB">
<feFlood flood-opacity="0" result="BackgroundImageFix"/>
<feGaussianBlur in="BackgroundImageFix" stdDeviation="6.52837"/>
<feComposite in2="SourceAlpha" operator="in" result="effect1_backgroundBlur_2683_9852"/>
<feBlend mode="normal" in="SourceGraphic" in2="effect1_backgroundBlur_2683_9852" result="shape"/>
</filter>
<linearGradient id="paint0_linear_2683_9852" x1="26.0147" y1="50.7367" x2="50.558" y2="61.0747" gradientUnits="userSpaceOnUse">
<stop stop-color="white"/>
<stop offset="1" stop-color="white" stop-opacity="0"/>
</linearGradient>
<linearGradient id="paint1_linear_2683_9852" x1="51.5342" y1="50.7367" x2="76.0775" y2="61.0747" gradientUnits="userSpaceOnUse">
<stop stop-color="white"/>
<stop offset="1" stop-color="white" stop-opacity="0"/>
</linearGradient>
</defs>
</svg>
