<svg width="58" height="58" viewBox="0 0 58 58" fill="none" xmlns="http://www.w3.org/2000/svg">
<mask id="mask0_2018_33444" style="mask-type:alpha" maskUnits="userSpaceOnUse" x="0" y="0" width="58" height="58">
<rect width="58" height="58" fill="#D9D9D9"/>
</mask>
<g mask="url(#mask0_2018_33444)">
</g>
<rect x="5.5" y="7.5" width="47" height="43" rx="7.5" fill="#292D32"/>
<path opacity="0.4" d="M37.1967 27.9848C37.1967 27.5998 36.8854 27.2803 36.4922 27.2803H21.517C21.1238 27.2803 20.8125 27.5916 20.8125 27.9848C20.8125 32.8099 24.1794 36.1769 29.0046 36.1769C33.8297 36.1769 37.1967 32.8017 37.1967 27.9848Z" fill="white"/>
<path d="M29.383 32.1954L31.7177 29.8689C31.9553 29.6313 31.9553 29.2381 31.7177 29.0005C31.4801 28.7629 31.0869 28.7629 30.8493 29.0005L29.5714 30.2785V22.4386C29.5714 22.1027 29.2928 21.8242 28.957 21.8242C28.6211 21.8242 28.3426 22.1027 28.3426 22.4386V30.2785L27.0564 29.0005C26.8188 28.7629 26.4256 28.7629 26.188 29.0005C26.0652 29.1234 26.0078 29.279 26.0078 29.4347C26.0078 29.5903 26.0652 29.746 26.188 29.8689L28.5228 32.1954C28.7604 32.4412 29.1454 32.4412 29.383 32.1954Z" fill="white"/>
<rect x="5.5" y="7.5" width="47" height="43" rx="7.5" stroke="#292D32"/>
</svg>
