<svg width="13" height="13" viewBox="0 0 13 13" fill="none" xmlns="http://www.w3.org/2000/svg">
<path d="M6.49836 3.05243C4.59432 3.05243 3.05078 4.59597 3.05078 6.50001C3.05078 8.40407 4.59432 9.94757 6.49836 9.94757C8.40242 9.94757 9.94593 8.40407 9.94593 6.50001C9.94593 4.59597 8.40242 3.05243 6.49836 3.05243Z" fill="#C7C7C7"/>
<path fill-rule="evenodd" clip-rule="evenodd" d="M6.5 0.875C6.80063 0.875 7.04438 1.11872 7.04438 1.41936V1.46109C7.04438 1.76173 6.80063 2.00545 6.5 2.00545C6.19938 2.00545 5.95563 1.76173 5.95563 1.46109V1.41936C5.95563 1.11872 6.19938 0.875 6.5 0.875ZM2.48604 2.48605C2.69862 2.27347 3.04329 2.27347 3.25587 2.48605L3.32187 2.55205C3.53445 2.76463 3.53445 3.1093 3.32187 3.32188C3.10928 3.53447 2.76462 3.53447 2.55203 3.32188L2.48604 3.25589C2.27345 3.0433 2.27345 2.69863 2.48604 2.48605ZM10.514 2.48605C10.7266 2.69864 10.7266 3.0433 10.514 3.25589L10.448 3.32188C10.2354 3.53447 9.89075 3.53447 9.67813 3.32188C9.46556 3.1093 9.46556 2.76463 9.67813 2.55205L9.74413 2.48605C9.95675 2.27347 10.3014 2.27347 10.514 2.48605ZM0.875 6.5C0.875 6.19937 1.11872 5.95562 1.41936 5.95562H1.46109C1.76173 5.95562 2.00545 6.19937 2.00545 6.5C2.00545 6.80063 1.76173 7.04438 1.46109 7.04438H1.41936C1.11872 7.04438 0.875 6.80063 0.875 6.5ZM10.9946 6.5C10.9946 6.19937 11.2383 5.95562 11.5389 5.95562H11.5806C11.8813 5.95562 12.125 6.19937 12.125 6.5C12.125 6.80063 11.8813 7.04438 11.5806 7.04438H11.5389C11.2383 7.04438 10.9946 6.80063 10.9946 6.5ZM9.67813 9.67819C9.89069 9.46556 10.2353 9.46556 10.4479 9.67812L10.5139 9.74406C10.7265 9.95663 10.7266 10.3013 10.514 10.5139C10.3014 10.7265 9.95675 10.7266 9.74413 10.514L9.67819 10.448C9.46556 10.2354 9.46556 9.89081 9.67813 9.67819ZM3.32183 9.67812C3.53444 9.89069 3.53448 10.2353 3.32191 10.4479L3.25593 10.5139C3.04338 10.7266 2.69871 10.7266 2.4861 10.5141C2.27349 10.3015 2.27345 9.95681 2.48601 9.74419L2.55199 9.67819C2.76455 9.46556 3.10922 9.46556 3.32183 9.67812ZM6.5 10.9946C6.80063 10.9946 7.04438 11.2383 7.04438 11.5389V11.5806C7.04438 11.8813 6.80063 12.125 6.5 12.125C6.19938 12.125 5.95563 11.8813 5.95563 11.5806V11.5389C5.95563 11.2383 6.19938 10.9946 6.5 10.9946Z" fill="#C7C7C7"/>
</svg>
