<svg width="50" height="50" viewBox="0 0 50 50" fill="none" xmlns="http://www.w3.org/2000/svg">
<path d="M40.625 50H9.375C4.19688 50 0 45.8031 0 40.625V9.375C0 4.19688 4.19688 0 9.375 0H40.625C45.8031 0 50 4.19688 50 9.375V40.625C50 45.8031 45.8031 50 40.625 50Z" fill="#FFA500" fill-opacity="0.15"/>
<path d="M34.0736 18.23C32.4636 18.07 30.8536 17.95 29.2336 17.86V17.85L29.0136 16.55C28.8636 15.63 28.6436 14.25 26.3036 14.25H23.6836C21.3536 14.25 21.1336 15.57 20.9736 16.54L20.7636 17.82C19.8336 17.88 18.9036 17.94 17.9736 18.03L15.9336 18.23C15.5136 18.27 15.2136 18.64 15.2536 19.05C15.2936 19.46 15.6536 19.76 16.0736 19.72L18.1136 19.52C23.3536 19 28.6336 19.2 33.9336 19.73C33.9636 19.73 33.9836 19.73 34.0136 19.73C34.3936 19.73 34.7236 19.44 34.7636 19.05C34.7936 18.64 34.4936 18.27 34.0736 18.23Z" fill="#FFA500"/>
<path opacity="0.3991" d="M32.2317 21.14C31.9917 20.89 31.6617 20.75 31.3217 20.75H18.6817C18.3417 20.75 18.0017 20.89 17.7717 21.14C17.5417 21.39 17.4117 21.73 17.4317 22.08L18.0517 32.34C18.1617 33.86 18.3017 35.76 21.7917 35.76H28.2117C31.7017 35.76 31.8417 33.87 31.9517 32.34L32.5717 22.09C32.5917 21.73 32.4617 21.39 32.2317 21.14Z" fill="#FFA500"/>
<path fill-rule="evenodd" clip-rule="evenodd" d="M22.5781 30C22.5781 29.5858 22.9139 29.25 23.3281 29.25H26.6581C27.0723 29.25 27.4081 29.5858 27.4081 30C27.4081 30.4142 27.0723 30.75 26.6581 30.75H23.3281C22.9139 30.75 22.5781 30.4142 22.5781 30Z" fill="#FFA500"/>
<path fill-rule="evenodd" clip-rule="evenodd" d="M21.75 26C21.75 25.5858 22.0858 25.25 22.5 25.25H27.5C27.9142 25.25 28.25 25.5858 28.25 26C28.25 26.4142 27.9142 26.75 27.5 26.75H22.5C22.0858 26.75 21.75 26.4142 21.75 26Z" fill="#FFA500"/>
</svg>
