<svg width="83" height="81" viewBox="0 0 83 81" fill="none" xmlns="http://www.w3.org/2000/svg">
<path d="M41.2643 80.0879C41.2046 80.0899 41.1448 80.0912 41.085 80.0928C41.0594 80.1592 41.0318 80.2249 41 80.2895L41.2643 80.0879Z" fill="#2F2E41"/>
<path d="M41 72.8887C41.0116 72.9616 41.0294 73.0334 41.0531 73.1034C41.0433 73.0301 41.0255 72.9581 41 72.8887Z" fill="#2F2E41"/>
<path d="M82.5118 5.83247V12.0753H2.01042e-07V5.83247C-0.000400478 4.28855 0.611528 2.80749 1.70158 1.71412C2.79163 0.620738 4.27082 0.00430202 5.81473 0H76.6971C78.241 0.00430202 79.7202 0.620738 80.8103 1.71412C81.9003 2.80749 82.5122 4.28855 82.5118 5.83247ZM2.01042e-07 53.456C-0.000404933 55 0.611518 56.481 1.70157 57.5744C2.79162 58.6678 4.2708 59.2843 5.81473 59.2886H20.5833C22.7511 55.7519 25.79 52.8305 29.4094 50.8037C33.0288 48.777 37.1077 47.7127 41.2559 47.7127C45.4042 47.7127 49.483 48.777 53.1024 50.8037C56.7218 52.8305 59.7607 55.7519 61.9285 59.2886H76.6971C78.241 59.2843 79.7202 58.6678 80.8103 57.5744C81.9003 56.481 82.5123 55 82.5119 53.456V15.6426H2.01042e-07V53.456ZM59.6989 44.8945H72.0061C72.4791 44.8945 72.9328 45.0825 73.2673 45.417C73.6018 45.7515 73.7897 46.2051 73.7897 46.6782C73.7897 47.1512 73.6018 47.6049 73.2673 47.9394C72.9328 48.2739 72.4791 48.4618 72.0061 48.4618H59.6989C59.2259 48.4618 58.7722 48.2739 58.4377 47.9394C58.1032 47.6049 57.9153 47.1512 57.9153 46.6782C57.9153 46.2051 58.1032 45.7515 58.4377 45.417C58.7722 45.0825 59.2259 44.8945 59.6989 44.8945ZM10.5058 24.1863H35.1023C35.337 24.1856 35.5695 24.2312 35.7865 24.3205C36.0036 24.4099 36.2008 24.5411 36.3671 24.7068C36.5333 24.8725 36.6651 25.0694 36.7551 25.2862C36.8451 25.5029 36.8914 25.7353 36.8914 25.97C36.8914 26.2047 36.8451 26.4371 36.7551 26.6538C36.6651 26.8706 36.5333 27.0675 36.3671 27.2332C36.2008 27.3989 36.0036 27.5301 35.7865 27.6194C35.5695 27.7088 35.337 27.7544 35.1023 27.7536H10.5058C10.2711 27.7544 10.0385 27.7088 9.82151 27.6194C9.60448 27.5301 9.40721 27.3989 9.241 27.2332C9.0748 27.0675 8.94293 26.8706 8.85295 26.6538C8.76297 26.4371 8.71666 26.2047 8.71666 25.97C8.71666 25.7353 8.76297 25.5029 8.85295 25.2862C8.94293 25.0694 9.0748 24.8725 9.241 24.7068C9.40721 24.5411 9.60448 24.4099 9.82151 24.3205C10.0385 24.2312 10.2711 24.1856 10.5058 24.1863ZM10.5058 34.4958L30.6076 34.478C31.0806 34.478 31.5343 34.6659 31.8688 35.0004C32.2033 35.3349 32.3912 35.7886 32.3912 36.2616C32.3912 36.7347 32.2033 37.1883 31.8688 37.5228C31.5343 37.8573 31.0806 38.0453 30.6076 38.0453L10.5058 38.0631C10.0327 38.0631 9.57903 37.8752 9.24453 37.5407C8.91003 37.2062 8.72211 36.7525 8.72211 36.2795C8.72211 35.8064 8.91003 35.3527 9.24453 35.0182C9.57903 34.6837 10.0327 34.4958 10.5058 34.4958Z" fill="#F5F5F5"/>
<g clip-path="url(#clip0_1173_29741)">
<path d="M61.2433 72.0919H20.7569C17.8617 72.0919 16.0568 68.9533 17.5177 66.4504L37.7608 31.7692C39.2071 29.2914 42.7904 29.2869 44.2393 31.7692L64.4825 66.4505C65.9421 68.951 64.1413 72.0919 61.2433 72.0919Z" fill="#FF6B6B"/>
<path d="M40.5094 33.3742L20.2663 68.0555C20.0449 68.4348 20.3161 68.9085 20.7561 68.9085H61.2425C61.6816 68.9085 61.9542 68.4355 61.7323 68.0555L41.4891 33.3742C41.27 32.9988 40.7298 32.9965 40.5094 33.3742Z" fill="#EE5253"/>
<path d="M41.0119 60.5752C41.9475 60.5752 42.7379 61.3538 42.7379 62.2753C42.7379 63.1846 41.9475 63.9529 41.0119 63.9529C40.049 63.9529 39.2656 63.2003 39.2656 62.2753C39.2656 61.3537 40.0653 60.5752 41.0119 60.5752Z" fill="#E4EAF8"/>
<path d="M41.0119 57.95C40.0435 57.95 39.3672 57.481 39.3672 56.8095V47.3269C39.3672 46.7654 40.0281 46.1641 41.0119 46.1641C41.8989 46.1641 42.677 46.7075 42.677 47.3269V56.8095C42.677 57.4703 41.9768 57.95 41.0119 57.95Z" fill="#E4EAF8"/>
<path d="M19.4492 66.4505L39.6924 31.7692C40.2046 30.8916 41.0187 30.2809 41.9658 30.0329C40.3869 29.6196 38.6516 30.2427 37.7607 31.7692L17.5175 66.4505C16.0579 68.9509 17.8588 72.0919 20.7567 72.0919H22.6885C19.793 72.0918 17.9884 68.953 19.4492 66.4505Z" fill="#EE5253"/>
<path d="M22.198 68.0555L41.9652 34.1897L41.4891 33.3742C41.2697 32.998 40.7295 32.9973 40.5094 33.3742L20.2663 68.0555C20.0449 68.4348 20.3162 68.9085 20.7561 68.9085H22.6879C22.2486 68.9086 21.9762 68.4355 22.198 68.0555Z" fill="#E24951"/>
<path d="M41.1973 62.2753C41.1973 61.7006 41.5084 61.1817 41.9721 60.8723C41.6955 60.6856 41.364 60.5752 41.0119 60.5752C40.0653 60.5752 39.2656 61.3538 39.2656 62.2753C39.2656 63.2004 40.049 63.953 41.0119 63.953C41.3612 63.953 41.6901 63.8458 41.9653 63.6643C41.5021 63.3622 41.1973 62.8524 41.1973 62.2753Z" fill="#D8DCE5"/>
<path d="M41.2989 56.8095V47.3269C41.2989 46.9804 41.5511 46.6193 41.9748 46.3932C41.6988 46.2509 41.3644 46.1641 41.0119 46.1641C40.0281 46.1641 39.3672 46.7654 39.3672 47.3269V56.8095C39.3672 57.481 40.0435 57.95 41.0119 57.95C41.3808 57.95 41.7103 57.8795 41.9775 57.7561C41.5554 57.5582 41.2989 57.2223 41.2989 56.8095Z" fill="#D8DCE5"/>
</g>
<defs>
<clipPath id="clip0_1173_29741">
<rect width="48" height="48" fill="white" transform="translate(17 27)"/>
</clipPath>
</defs>
</svg>
