<svg width="70" height="70" viewBox="0 0 70 70" fill="none" xmlns="http://www.w3.org/2000/svg">
<circle cx="35" cy="35" r="35" fill="white"/>
<path d="M35.0031 48.4374C34.1656 48.4374 33.3156 48.2249 32.5656 47.7874L25.1406 43.4999C23.6406 42.6249 22.7031 41.0124 22.7031 39.2749V30.7249C22.7031 28.9874 23.6406 27.3749 25.1406 26.4999L32.5656 22.2124C34.0656 21.3374 35.9281 21.3374 37.4406 22.2124L44.8656 26.4999C46.3656 27.3749 47.3031 28.9874 47.3031 30.7249V39.2749C47.3031 41.0124 46.3656 42.6249 44.8656 43.4999L37.4406 47.7874C36.6906 48.2249 35.8406 48.4374 35.0031 48.4374ZM35.0031 23.4374C34.4906 23.4374 33.9656 23.5749 33.5031 23.8374L26.0781 28.1249C25.1531 28.6624 24.5781 29.6499 24.5781 30.7249V39.2749C24.5781 40.3374 25.1531 41.3374 26.0781 41.8749L33.5031 46.1624C34.4281 46.6999 35.5781 46.6999 36.5031 46.1624L43.9281 41.8749C44.8531 41.3374 45.4281 40.3499 45.4281 39.2749V30.7249C45.4281 29.6624 44.8531 28.6624 43.9281 28.1249L36.5031 23.8374C36.0406 23.5749 35.5156 23.4374 35.0031 23.4374Z" fill="#292D32"/>
<path d="M34.9984 34.6878C32.8734 34.6878 31.1484 32.9627 31.1484 30.8377C31.1484 28.7127 32.8734 26.9878 34.9984 26.9878C37.1234 26.9878 38.8484 28.7127 38.8484 30.8377C38.8484 32.9627 37.1234 34.6878 34.9984 34.6878ZM34.9984 28.8628C33.9109 28.8628 33.0234 29.7502 33.0234 30.8377C33.0234 31.9252 33.9109 32.8128 34.9984 32.8128C36.0859 32.8128 36.9734 31.9252 36.9734 30.8377C36.9734 29.7502 36.0859 28.8628 34.9984 28.8628Z" fill="#292D32"/>
<path d="M40 41.7624C39.4875 41.7624 39.0625 41.3374 39.0625 40.8249C39.0625 39.0999 37.2375 37.6875 35 37.6875C32.7625 37.6875 30.9375 39.0999 30.9375 40.8249C30.9375 41.3374 30.5125 41.7624 30 41.7624C29.4875 41.7624 29.0625 41.3374 29.0625 40.8249C29.0625 38.0624 31.725 35.8125 35 35.8125C38.275 35.8125 40.9375 38.0624 40.9375 40.8249C40.9375 41.3374 40.5125 41.7624 40 41.7624Z" fill="#292D32"/>
</svg>
