<svg width="188" height="126" viewBox="0 0 188 126" fill="none" xmlns="http://www.w3.org/2000/svg">
<circle cx="92.7275" cy="63" r="63" fill="url(#paint0_linear_362_19783)"/>
<rect x="26.2092" y="57.5729" width="134.945" height="37.5818" rx="4.7" fill="white" stroke="#EEEEEE" stroke-width="0.6"/>
<path d="M127.797 17.9465L128.416 21.7567L132.058 23.0366L128.626 24.8032L128.534 28.6623L125.793 25.9439L122.095 27.0491L123.833 23.6024L121.639 20.4264L125.454 21.0146L127.797 17.9465Z" fill="white"/>
<path d="M65.5477 20.6364L65.863 22.5757L67.7166 23.2271L65.9697 24.1262L65.9229 26.0904L64.528 24.7068L62.6455 25.2693L63.5303 23.5151L62.4136 21.8986L64.3554 22.198L65.5477 20.6364Z" fill="white"/>
<g filter="url(#filter0_d_362_19783)">
<rect x="13.5" y="47.7271" width="160.364" height="41.0455" rx="5" fill="white"/>
<rect x="13.8" y="48.0271" width="159.764" height="40.4455" rx="4.7" stroke="#EEEEEE" stroke-width="0.6"/>
</g>
<g filter="url(#filter1_d_362_19783)">
<rect x="3" y="32.4546" width="181.364" height="48.6818" rx="5" fill="white"/>
<rect x="3.3" y="32.7546" width="180.764" height="48.0818" rx="4.7" stroke="#EEEEEE" stroke-width="0.6"/>
</g>
<circle cx="45.9547" cy="57.2726" r="7.63636" fill="#22A079"/>
<path fill-rule="evenodd" clip-rule="evenodd" d="M46.9887 54.7531V56.0221L46.9901 56.0235C49.3055 56.132 51.0461 56.6003 51.0461 57.1593C51.0461 57.7197 49.3055 58.1867 46.9901 58.2952V62.3633H44.927V58.2952C42.6089 58.1853 40.8643 57.7183 40.8643 57.158C40.8643 56.5976 42.6076 56.1306 44.927 56.0221V54.7531H42.0732V52.8179H49.8425V54.7531H46.9887ZM46.9887 57.9463V57.9477V57.9491C49.0329 57.8557 50.559 57.4931 50.559 57.0591C50.559 56.6251 49.0343 56.2625 46.9887 56.1691V57.5865C46.9294 57.592 46.6109 57.6194 45.9741 57.6194C45.4438 57.6194 45.0592 57.5961 44.9257 57.5865V56.1677C42.8774 56.2597 41.3473 56.6237 41.3473 57.0577C41.3473 57.4931 42.8761 57.8557 44.9257 57.9477V57.9463C45.0579 57.9532 45.4316 57.9683 45.9646 57.9683C46.6312 57.9683 46.9307 57.9504 46.9887 57.9463Z" fill="white"/>
<ellipse cx="21.6136" cy="57.2726" rx="8.11364" ry="7.63636" fill="#EDEFF1"/>
<path d="M18.2334 57.367L21.6131 59.2142V55.9465V52.1816L18.2334 57.367Z" fill="#898989"/>
<path d="M21.6133 52.1816V55.9465V59.2142L24.993 57.367L21.6133 52.1816Z" fill="#323232"/>
<path d="M21.6143 55.9468L24.9929 57.3668L21.6143 59.2136V55.9468Z" fill="#141414"/>
<path d="M21.6131 55.9468L21.6141 55.9471V59.2136L21.6131 59.2145L18.2334 57.3672L21.6131 55.9468Z" fill="#373737"/>
<path d="M18.2334 57.9595L21.6131 62.3633V59.8058L18.2334 57.9595Z" fill="#898989"/>
<path d="M21.6133 59.8058V62.3633L24.995 57.9595L21.6133 59.8058Z" fill="#323232"/>
<g filter="url(#filter2_d_362_19783)">
<path d="M43.7316 59.813C42.3291 65.438 36.6312 68.8613 31.0049 67.4586C25.3809 66.0562 21.9572 60.3587 23.3604 54.734C24.7623 49.1084 30.4602 45.6848 36.0848 47.0872C41.7108 48.4895 45.1342 54.1877 43.7316 59.813Z" fill="#F7931A"/>
<path fill-rule="evenodd" clip-rule="evenodd" d="M38.331 55.9012C38.5494 54.4301 37.4375 53.6393 35.9171 53.1118L36.4103 51.119L35.2061 50.8167L34.7259 52.757C34.4093 52.6775 34.0842 52.6025 33.7611 52.5283L34.2447 50.5752L33.0412 50.2729L32.5476 52.265C32.2856 52.2049 32.0284 52.1455 31.7787 52.0829L31.78 52.0767L30.1193 51.659L29.799 52.9546C29.799 52.9546 30.6924 53.1608 30.6736 53.1736C31.1613 53.2963 31.2494 53.6214 31.2347 53.8791L30.6729 56.1493C30.7065 56.1579 30.7501 56.1703 30.7981 56.1897L30.7573 56.1794C30.7294 56.1724 30.7004 56.1651 30.6708 56.1579L29.8834 59.3381C29.8237 59.4873 29.6724 59.7112 29.3315 59.6262C29.3435 59.6438 28.4562 59.4061 28.4562 59.4061L27.8584 60.7946L29.4255 61.1881C29.6005 61.2323 29.7734 61.2777 29.9445 61.3227C30.0584 61.3526 30.1716 61.3823 30.284 61.4113L29.7856 63.4269L30.9884 63.7292L31.482 61.735C31.8106 61.8249 32.1295 61.9078 32.4416 61.9859L31.9498 63.9707L33.154 64.2729L33.6524 62.2612C35.7058 62.6526 37.2499 62.4947 37.8998 60.624C38.4236 59.1177 37.8738 58.2488 36.7934 57.6822C37.5802 57.4994 38.1728 56.9781 38.331 55.9012ZM35.5796 59.7875C35.2382 61.1695 33.0907 60.5982 32.1081 60.3368C32.0197 60.3132 31.9407 60.2922 31.8733 60.2754L32.5346 57.6051C32.6166 57.6258 32.7169 57.6484 32.8304 57.6741C33.8467 57.9038 35.9294 58.3745 35.5796 59.7875ZM33.0346 56.4349C33.8539 56.6551 35.6408 57.1355 35.952 55.8794C36.2699 54.5947 34.5331 54.2074 33.6849 54.0183C33.5895 53.997 33.5054 53.9782 33.4366 53.961L32.8371 56.3828C32.8937 56.397 32.9602 56.4149 33.0346 56.4349Z" fill="white"/>
</g>
<rect x="61.2275" y="46.7729" width="67.7727" height="7.63636" rx="3.81818" fill="#EFEFEF"/>
<rect x="61.2275" y="60.1362" width="107.864" height="7.63636" rx="3.81818" fill="#EFEFEF"/>
<defs>
<filter id="filter0_d_362_19783" x="10.5" y="47.7271" width="166.363" height="47.0454" filterUnits="userSpaceOnUse" color-interpolation-filters="sRGB">
<feFlood flood-opacity="0" result="BackgroundImageFix"/>
<feColorMatrix in="SourceAlpha" type="matrix" values="0 0 0 0 0 0 0 0 0 0 0 0 0 0 0 0 0 0 127 0" result="hardAlpha"/>
<feOffset dy="3"/>
<feGaussianBlur stdDeviation="1.5"/>
<feComposite in2="hardAlpha" operator="out"/>
<feColorMatrix type="matrix" values="0 0 0 0 0.845833 0 0 0 0 0.845833 0 0 0 0 0.845833 0 0 0 0.25 0"/>
<feBlend mode="normal" in2="BackgroundImageFix" result="effect1_dropShadow_362_19783"/>
<feBlend mode="normal" in="SourceGraphic" in2="effect1_dropShadow_362_19783" result="shape"/>
</filter>
<filter id="filter1_d_362_19783" x="0" y="32.4546" width="187.363" height="54.6816" filterUnits="userSpaceOnUse" color-interpolation-filters="sRGB">
<feFlood flood-opacity="0" result="BackgroundImageFix"/>
<feColorMatrix in="SourceAlpha" type="matrix" values="0 0 0 0 0 0 0 0 0 0 0 0 0 0 0 0 0 0 127 0" result="hardAlpha"/>
<feOffset dy="3"/>
<feGaussianBlur stdDeviation="1.5"/>
<feComposite in2="hardAlpha" operator="out"/>
<feColorMatrix type="matrix" values="0 0 0 0 0.845833 0 0 0 0 0.845833 0 0 0 0 0.845833 0 0 0 0.25 0"/>
<feBlend mode="normal" in2="BackgroundImageFix" result="effect1_dropShadow_362_19783"/>
<feBlend mode="normal" in="SourceGraphic" in2="effect1_dropShadow_362_19783" result="shape"/>
</filter>
<filter id="filter2_d_362_19783" x="17.0459" y="42.7729" width="33" height="33" filterUnits="userSpaceOnUse" color-interpolation-filters="sRGB">
<feFlood flood-opacity="0" result="BackgroundImageFix"/>
<feColorMatrix in="SourceAlpha" type="matrix" values="0 0 0 0 0 0 0 0 0 0 0 0 0 0 0 0 0 0 127 0" result="hardAlpha"/>
<feOffset dy="2"/>
<feGaussianBlur stdDeviation="3"/>
<feComposite in2="hardAlpha" operator="out"/>
<feColorMatrix type="matrix" values="0 0 0 0 0 0 0 0 0 0 0 0 0 0 0 0 0 0 0.34 0"/>
<feBlend mode="normal" in2="BackgroundImageFix" result="effect1_dropShadow_362_19783"/>
<feBlend mode="normal" in="SourceGraphic" in2="effect1_dropShadow_362_19783" result="shape"/>
</filter>
<linearGradient id="paint0_linear_362_19783" x1="92.7275" y1="-88.65" x2="92.7275" y2="150.5" gradientUnits="userSpaceOnUse">
<stop stop-color="#FFA500"/>
<stop offset="1" stop-color="white" stop-opacity="0"/>
</linearGradient>
</defs>
</svg>
