<svg width="44" height="44" viewBox="0 0 44 44" fill="none" xmlns="http://www.w3.org/2000/svg">
<circle cx="22" cy="22" r="22" fill="#EBEBEB"/>
<g clip-path="url(#clip0_1470_11401)">
<path d="M26.1304 22.8691C25.0497 22.8691 24.1738 23.745 24.1738 24.8257C24.1738 25.9063 25.0497 26.7822 26.1304 26.7822H31.9999V22.8691H26.1304ZM26.1304 25.4778C25.7702 25.4778 25.4782 25.1858 25.4782 24.8256C25.4782 24.4654 25.7702 24.1734 26.1304 24.1734C26.4905 24.1734 26.7825 24.4654 26.7825 24.8256C26.7825 25.1858 26.4905 25.4778 26.1304 25.4778Z" fill="black"/>
<path d="M26.1304 21.5654H29.3913V19.6089C29.3913 18.53 28.5136 17.6523 27.4348 17.6523H12.6522C12.2921 17.6523 12 17.9445 12 18.3045V31.348C12 31.708 12.2921 32.0002 12.6522 32.0002H27.4348C28.5136 32.0002 29.3913 31.1225 29.3913 30.0436V28.0871H26.1304C24.3323 28.0871 22.8696 26.6244 22.8696 24.8263C22.8696 23.0281 24.3323 21.5654 26.1304 21.5654Z" fill="black"/>
<path d="M30.0433 17.6523H30.0371C30.4484 18.1982 30.6955 18.8743 30.6955 19.6089V21.5654H31.9998V19.6089C31.9998 18.53 31.1221 17.6523 30.0433 17.6523Z" fill="black"/>
<path d="M30.6955 28.0879V30.0444C30.6955 30.779 30.4485 31.4551 30.0371 32.0009H30.0433C31.1221 32.0009 31.9998 31.1233 31.9998 30.0444V28.0879H30.6955Z" fill="black"/>
<path d="M22.678 12.191C22.4233 11.9363 22.0106 11.9363 21.7558 12.191L21.1826 12.7642L24.7662 16.3478H26.8348L22.678 12.191Z" fill="url(#paint0_linear_1470_11401)"/>
<path d="M18.7655 12.1911C18.5107 11.9363 18.098 11.9363 17.8433 12.1911L13.6865 16.3478H22.9223L18.7655 12.1911Z" fill="url(#paint1_linear_1470_11401)"/>
</g>
<defs>
<linearGradient id="paint0_linear_1470_11401" x1="24.0087" y1="12" x2="24.0087" y2="16.3478" gradientUnits="userSpaceOnUse">
<stop stop-color="#FFA500"/>
<stop offset="1" stop-color="#FF7F00"/>
</linearGradient>
<linearGradient id="paint1_linear_1470_11401" x1="18.3044" y1="12" x2="18.3044" y2="16.3478" gradientUnits="userSpaceOnUse">
<stop stop-color="#FFA500"/>
<stop offset="1" stop-color="#FF7F00"/>
</linearGradient>
<clipPath id="clip0_1470_11401">
<rect width="20" height="20" fill="white" transform="translate(12 12)"/>
</clipPath>
</defs>
</svg>
