<svg width="50" height="50" viewBox="0 0 50 50" fill="none" xmlns="http://www.w3.org/2000/svg">
<path opacity="0.4" d="M8.31313 30.5416L5.14648 27.375C3.85482 26.0834 3.85482 23.9584 5.14648 22.6667L8.31313 19.5C8.85479 18.9583 9.2923 17.8958 9.2923 17.1458V12.6667C9.2923 10.8334 10.7923 9.33331 12.6256 9.33331H17.1048C17.8548 9.33331 18.9173 8.89587 19.459 8.35421L22.6256 5.1875C23.9173 3.89583 26.0423 3.89583 27.334 5.1875L30.5007 8.35421C31.0423 8.89587 32.1048 9.33331 32.8548 9.33331H37.334C39.1673 9.33331 40.6673 10.8334 40.6673 12.6667V17.1458C40.6673 17.8958 41.1048 18.9583 41.6465 19.5L44.8132 22.6667C46.1048 23.9584 46.1048 26.0834 44.8132 27.375L41.6465 30.5416C41.1048 31.0833 40.6673 32.1458 40.6673 32.8958V37.375C40.6673 39.2084 39.1673 40.7083 37.334 40.7083H32.8548C32.1048 40.7083 31.0423 41.1459 30.5007 41.6875L27.334 44.8542C26.0423 46.1459 23.9173 46.1459 22.6256 44.8542L19.459 41.6875C18.9173 41.1459 17.8548 40.7083 17.1048 40.7083H12.6256C10.7923 40.7083 9.2923 39.2084 9.2923 37.375V32.8958C9.2923 32.125 8.85479 31.0625 8.31313 30.5416Z" fill="#FFA500"/>
<path d="M31.2507 33.3337C30.084 33.3337 29.1465 32.3962 29.1465 31.2503C29.1465 30.1045 30.084 29.167 31.2298 29.167C32.3757 29.167 33.3132 30.1045 33.3132 31.2503C33.3132 32.3962 32.3965 33.3337 31.2507 33.3337Z" fill="#FFA500"/>
<path d="M18.7702 20.8337C17.6035 20.8337 16.666 19.8962 16.666 18.7503C16.666 17.6045 17.6035 16.667 18.7493 16.667C19.8952 16.667 20.8327 17.6045 20.8327 18.7503C20.8327 19.8962 19.916 20.8337 18.7702 20.8337Z" fill="#FFA500"/>
<path d="M18.7506 32.8122C18.3548 32.8122 17.959 32.6665 17.6465 32.354C17.0423 31.7498 17.0423 30.7497 17.6465 30.1455L30.1465 17.6455C30.7507 17.0413 31.7506 17.0413 32.3548 17.6455C32.959 18.2497 32.959 19.2498 32.3548 19.854L19.8548 32.354C19.5423 32.6665 19.1465 32.8122 18.7506 32.8122Z" fill="#FFA500"/>
</svg>
