<svg width="59" height="11" viewBox="0 0 59 11" fill="none" xmlns="http://www.w3.org/2000/svg">
<path fill-rule="evenodd" clip-rule="evenodd" d="M31.0414 0.0625167C33.8844 0.0801682 36.1088 2.35192 36.0948 5.22031C36.0808 7.9916 33.811 10.274 31.0221 10.2492C28.1424 10.2245 25.8988 7.94218 25.9704 5.03319C26.0421 2.29367 28.2176 0.055456 31.0414 0.0625167Z" fill="url(#paint0_linear_1145_2253)"/>
<path fill-rule="evenodd" clip-rule="evenodd" d="M0.00232985 5.09319C0.00232985 3.71283 -0.00291231 2.33248 0.00232985 0.953888C0.00582462 0.348438 0.103689 0.247826 0.711779 0.239C2.06426 0.219584 3.4237 0.168408 4.73075 0.606167C8.02457 1.70763 9.06429 5.80809 6.71056 8.37463C5.75124 9.42137 4.57349 9.94737 3.15811 9.94737C2.37179 9.94737 1.58372 9.9509 0.797394 9.94737C0.056502 9.94737 0.00931748 9.90147 0.0058227 9.17423C0.00232793 7.81152 0.0058227 6.45236 0.0058227 5.08966L0.00232985 5.09319ZM2.10967 5.06496C2.10967 5.8381 2.10792 6.60945 2.10967 7.38259C2.11142 8.04453 2.14463 8.07454 2.78592 8.06747C2.87853 8.06747 2.96941 8.06395 3.06202 8.06042C4.19782 8.01276 5.07151 7.54675 5.52408 6.45059C6.02034 5.24675 5.92597 4.13294 5.05577 3.10738C4.40574 2.33954 3.5338 2.23892 2.6304 2.15243C2.23723 2.11536 2.10094 2.25658 2.10793 2.63962C2.12191 3.44806 2.11143 4.25828 2.11143 5.06496H2.10967Z" fill="black"/>
<path fill-rule="evenodd" clip-rule="evenodd" d="M53.7037 6.41798C53.5622 6.50624 53.6181 6.64215 53.6304 6.76395C53.716 7.66595 53.6409 8.56265 53.5884 9.46111C53.5675 9.77355 53.4242 9.93771 53.1096 9.93771C53.0922 9.93771 53.0729 9.93773 53.0555 9.93949C51.5894 10.0472 51.5178 9.99773 51.4968 8.38614C51.4723 6.21676 51.4915 4.04739 51.4915 1.87801C51.4915 1.52851 51.4916 1.17899 51.5003 0.829487C51.5108 0.434091 51.703 0.216996 52.1189 0.231117C53.2302 0.268185 54.3433 0.155201 55.4529 0.404088C56.524 0.64415 57.3453 1.17547 57.6651 2.23103C58.0023 3.34661 57.8346 4.41984 57.0028 5.31301C56.8368 5.49129 56.6219 5.59543 56.407 5.70487C55.7097 6.05614 55.7779 5.95375 56.2252 6.57156C56.87 7.46296 57.5393 8.33847 58.198 9.22105C58.2749 9.32343 58.357 9.42582 58.4147 9.53879C58.523 9.74884 58.4689 9.92182 58.2208 9.92888C57.5987 9.943 56.9766 9.94829 56.3563 9.90946C56.061 9.88828 55.9212 9.5988 55.7692 9.3711C55.1611 8.45322 54.553 7.53534 53.9449 6.61746C53.8872 6.53096 53.8523 6.41092 53.7072 6.42151L53.7037 6.41798ZM53.6636 3.32895C53.6636 3.32895 53.6636 3.32895 53.6653 3.32895C53.6653 3.60432 53.6723 3.87792 53.6653 4.15505C53.6531 4.51338 53.8278 4.66165 54.1721 4.61576C54.3346 4.59281 54.4971 4.56633 54.6561 4.52397C55.3498 4.34039 55.6835 3.8938 55.6434 3.20716C55.6049 2.54699 55.2397 2.19572 54.5041 2.10393C53.7684 2.01567 53.6688 2.10042 53.6653 2.83296C53.6653 2.99712 53.6653 3.16126 53.6653 3.32895H53.6636Z" fill="black"/>
<path fill-rule="evenodd" clip-rule="evenodd" d="M45.1031 5.07433C45.1031 3.75046 45.0996 2.42484 45.1031 1.10097C45.1066 0.34372 45.2202 0.232507 45.9611 0.232507C47.2419 0.230742 48.5245 0.228977 49.8071 0.232507C50.4746 0.234272 50.5829 0.345491 50.5969 0.991539C50.6231 2.11771 50.6144 2.12652 49.4943 2.12652C48.9072 2.12652 48.3218 2.13358 47.7364 2.12652C47.366 2.12122 47.2244 2.28716 47.2087 2.66138C47.1546 3.97289 47.144 3.97288 48.4563 3.97288C48.8967 3.97288 49.3353 3.96759 49.7756 3.97641C50.3488 3.987 50.4536 4.09292 50.4763 4.64718C50.5218 5.80336 50.4746 5.85455 49.3108 5.85631C48.7796 5.85631 48.2484 5.86337 47.7155 5.85631C47.3765 5.85102 47.2052 5.99576 47.2139 6.35055C47.2227 6.73712 47.2279 7.12191 47.2139 7.50848C47.1982 7.90741 47.3677 8.07864 47.7661 8.06982C48.4633 8.05746 49.1588 8.06099 49.856 8.06982C50.4693 8.07688 50.5829 8.1969 50.5969 8.82176C50.6144 9.57019 50.2457 9.94441 49.4925 9.94441C48.2991 9.94441 47.1109 9.94617 45.9191 9.94441C45.194 9.94088 45.1066 9.85086 45.1031 9.10773C45.0996 7.76267 45.1031 6.42114 45.1031 5.07786V5.07433Z" fill="black"/>
<path fill-rule="evenodd" clip-rule="evenodd" d="M36.4541 0.234294C36.5467 0.234294 36.6358 0.234294 36.7284 0.234294C37.4536 0.239589 37.5445 0.301371 37.8171 0.991548C38.357 2.35955 38.8917 3.72754 39.4299 5.09907C39.5103 5.30382 39.5854 5.51033 39.6763 5.71333C39.7374 5.85454 39.7427 6.08932 39.9471 6.07344C40.1306 6.05755 40.1498 5.83512 40.2092 5.68685C40.8662 4.04878 41.5285 2.41249 42.168 0.765598C42.3183 0.379028 42.549 0.209569 42.9526 0.232516C43.2444 0.248403 43.538 0.228984 43.8316 0.236044C44.4991 0.250166 44.5952 0.382569 44.3418 0.991548C43.524 2.9597 42.6992 4.92784 41.8762 6.89423C41.5005 7.79446 41.1144 8.68762 40.7561 9.59314C40.5919 10.0009 40.3595 10.1986 39.8947 10.1951C39.4281 10.1898 39.2115 9.97797 39.0455 9.57375C37.9044 6.76362 36.7529 3.95701 35.5944 1.15393C35.2763 0.38609 35.3585 0.243105 36.1763 0.236044C36.2689 0.236044 36.358 0.236044 36.4506 0.236044L36.4541 0.234294Z" fill="black"/>
<path fill-rule="evenodd" clip-rule="evenodd" d="M14.4245 10.1646C13.1332 10.2123 12.1337 9.67034 11.3421 8.66773C11.1132 8.37472 11.0992 8.15053 11.398 7.92106C11.426 7.89988 11.4487 7.86811 11.4767 7.84516C11.7562 7.61216 11.9397 7.20267 12.2979 7.14442C12.7173 7.07558 12.8344 7.57686 13.107 7.79927C13.7133 8.29175 14.5643 8.39062 15.1427 7.98463C15.8085 7.51686 15.8015 6.6184 15.1042 6.19652C14.795 6.00765 14.4507 5.86467 14.11 5.73934C13.7133 5.59107 13.3289 5.41983 12.955 5.2239C12.0096 4.73142 11.4959 3.99537 11.5553 2.87626C11.6147 1.77834 12.1197 0.959287 13.079 0.500346C14.47 -0.163354 15.8172 0.0678817 17.0683 0.941635C17.4108 1.17817 17.4615 1.44648 17.1609 1.76068C17.0858 1.83834 17.0299 1.93718 16.9617 2.02191C16.4602 2.65384 16.4637 2.645 15.7962 2.21077C15.3227 1.90364 14.8159 1.8154 14.283 2.06606C13.9807 2.20903 13.785 2.4226 13.7588 2.77917C13.7343 3.11808 13.8828 3.34403 14.1607 3.49936C14.3337 3.59821 14.5101 3.69882 14.6954 3.77649C15.1008 3.94771 15.5149 4.09421 15.915 4.27426C17.4702 4.97149 18.0608 6.08177 17.7236 7.67041C17.4196 9.11255 16.1422 10.1416 14.6395 10.1558C14.5678 10.1558 14.4944 10.1558 14.4193 10.1558L14.4245 10.1646Z" fill="black"/>
<path fill-rule="evenodd" clip-rule="evenodd" d="M18.1439 5.19152C18.0461 2.55614 20.129 0.413244 22.6767 0.0990458C23.5468 -0.00686374 24.3437 0.192599 25.1352 0.490911C25.4078 0.59329 25.6105 0.780387 25.6175 1.09812C25.6262 1.57647 25.6455 2.05659 25.6175 2.53142C25.5895 2.97094 25.3921 3.05215 25.0514 2.75031C24.5289 2.28784 23.9453 2.07601 23.2463 2.07954C21.8484 2.0919 20.8891 2.76265 20.4295 4.09888C19.762 6.04055 20.9485 8.0087 22.9318 8.22582C23.6761 8.30701 24.3437 8.09344 24.929 7.62567C25.0863 7.50034 25.2453 7.33267 25.462 7.4527C25.6507 7.55684 25.6263 7.76864 25.628 7.94869C25.635 8.25936 25.635 8.57355 25.628 8.88775C25.6175 9.53556 25.5214 9.68384 24.9011 9.8886C21.976 10.8612 19.0596 9.3414 18.2662 6.44654C18.1509 6.03173 18.1597 5.60985 18.1422 5.18621L18.1439 5.19152Z" fill="black"/>
<path fill-rule="evenodd" clip-rule="evenodd" d="M10.6755 5.13121C10.6755 6.51157 10.6807 7.89016 10.6738 9.27051C10.672 9.86714 10.6021 9.93071 10.0045 9.94306C9.69348 9.94659 9.38069 9.93424 9.06966 9.94306C8.67125 9.95542 8.5 9.75771 8.50349 9.37467C8.50349 9.26346 8.5 9.15402 8.5 9.04281C8.5 6.43038 8.5 3.81794 8.5 1.2055C8.5 0.317627 8.58562 0.236453 9.47853 0.231158C10.6493 0.224097 10.6738 0.248809 10.6738 1.43323C10.6738 2.66531 10.6738 3.89913 10.6738 5.13121H10.6755Z" fill="black"/>
<defs>
<linearGradient id="paint0_linear_1145_2253" x1="28.5583" y1="0.0625166" x2="34.3593" y2="10.3989" gradientUnits="userSpaceOnUse">
<stop stop-color="#DD7941"/>
<stop offset="1" stop-color="#EDA84F"/>
</linearGradient>
</defs>
</svg>
