<svg width="30" height="30" viewBox="0 0 30 30" fill="none" xmlns="http://www.w3.org/2000/svg">
<path d="M15 28.4377C14.2125 28.4377 13.475 28.1377 12.925 27.5752L11.025 25.6752C10.875 25.5252 10.475 25.3627 10.275 25.3627H7.575C5.95 25.3627 4.63749 24.0501 4.63749 22.4251V19.7252C4.63749 19.5252 4.47499 19.1252 4.32499 18.9752L2.425 17.0752C1.875 16.5252 1.5625 15.7877 1.5625 15.0002C1.5625 14.2127 1.8625 13.4751 2.425 12.9251L4.32499 11.0251C4.47499 10.8751 4.63749 10.4751 4.63749 10.2751V7.57524C4.63749 5.95024 5.95 4.63762 7.575 4.63762H10.275C10.475 4.63762 10.875 4.47512 11.025 4.32512L12.925 2.4251C14.025 1.3251 15.975 1.3251 17.075 2.4251L18.975 4.32512C19.125 4.47512 19.525 4.63762 19.725 4.63762H22.425C24.05 4.63762 25.3625 5.95024 25.3625 7.57524V10.2751C25.3625 10.4751 25.525 10.8751 25.675 11.0251L27.575 12.9251C28.125 13.4751 28.4375 14.2127 28.4375 15.0002C28.4375 15.7877 28.1375 16.5252 27.575 17.0752L25.675 18.9752C25.525 19.1252 25.3625 19.5252 25.3625 19.7252V22.4251C25.3625 24.0501 24.05 25.3627 22.425 25.3627H19.725C19.525 25.3627 19.125 25.5252 18.975 25.6752L17.075 27.5752C16.525 28.1377 15.7875 28.4377 15 28.4377ZM5.64999 17.6502C6.14999 18.1502 6.51249 19.0252 6.51249 19.7252V22.4251C6.51249 23.0126 6.9875 23.4877 7.575 23.4877H10.275C10.975 23.4877 11.85 23.8501 12.35 24.3501L14.25 26.2502C14.65 26.6502 15.35 26.6502 15.75 26.2502L17.65 24.3501C18.15 23.8501 19.025 23.4877 19.725 23.4877H22.425C23.0125 23.4877 23.4875 23.0126 23.4875 22.4251V19.7252C23.4875 19.0252 23.85 18.1502 24.35 17.6502L26.25 15.7501C26.45 15.5501 26.5625 15.2877 26.5625 15.0002C26.5625 14.7127 26.45 14.4502 26.25 14.2502L24.35 12.3502C23.85 11.8502 23.4875 10.9751 23.4875 10.2751V7.57524C23.4875 6.98774 23.0125 6.51262 22.425 6.51262H19.725C19.025 6.51262 18.15 6.1502 17.65 5.6502L15.75 3.75017C15.35 3.35017 14.65 3.35017 14.25 3.75017L12.35 5.6502C11.85 6.1502 10.975 6.51262 10.275 6.51262H7.575C6.9875 6.51262 6.51249 6.98774 6.51249 7.57524V10.2751C6.51249 10.9751 6.14999 11.8502 5.64999 12.3502L3.75 14.2502C3.55 14.4502 3.4375 14.7127 3.4375 15.0002C3.4375 15.2877 3.55 15.5501 3.75 15.7501L5.64999 17.6502Z" fill="#081131"/>
<path d="M18.7469 20C18.0469 20 17.4844 19.4375 17.4844 18.75C17.4844 18.0625 18.0469 17.5 18.7344 17.5C19.4219 17.5 19.9844 18.0625 19.9844 18.75C19.9844 19.4375 19.4344 20 18.7469 20Z" fill="#081131"/>
<path d="M11.2625 12.5C10.5625 12.5 10 11.9375 10 11.25C10 10.5625 10.5625 10 11.25 10C11.9375 10 12.5 10.5625 12.5 11.25C12.5 11.9375 11.95 12.5 11.2625 12.5Z" fill="#081131"/>
<path d="M11.2469 19.6873C11.0094 19.6873 10.7719 19.5999 10.5844 19.4124C10.2219 19.0499 10.2219 18.4498 10.5844 18.0873L18.0844 10.5873C18.4469 10.2248 19.0469 10.2248 19.4094 10.5873C19.7719 10.9498 19.7719 11.5499 19.4094 11.9124L11.9094 19.4124C11.7219 19.5999 11.4844 19.6873 11.2469 19.6873Z" fill="#081131"/>
</svg>
