<svg width="20" height="20" viewBox="0 0 20 20" fill="none" xmlns="http://www.w3.org/2000/svg">
<path d="M13.0084 4.58327V13.0499C13.0084 13.3833 12.9084 13.7083 12.7251 13.9833L10.4501 17.3666C10.0918 17.9083 9.20009 18.2916 8.44176 18.0083C7.62509 17.7333 7.08343 16.8166 7.25843 15.9999L7.69176 13.2749C7.72509 13.0249 7.65843 12.7999 7.51676 12.6249C7.3751 12.4666 7.16676 12.3666 6.94176 12.3666H3.51676C2.85843 12.3666 2.29176 12.0999 1.95843 11.6333C1.64176 11.1833 1.58343 10.5999 1.79176 10.0083L3.84176 3.7666C4.10009 2.73327 5.22509 1.8916 6.34176 1.8916H9.59176C10.1501 1.8916 10.9334 2.08327 11.2918 2.4416L12.3584 3.2666C12.7668 3.58327 13.0084 4.0666 13.0084 4.58327Z" fill="#E95950"/>
<path d="M15.6582 14.6747H16.5166C17.8082 14.6747 18.3332 14.1747 18.3332 12.9413V4.56634C18.3332 3.33301 17.8082 2.83301 16.5166 2.83301H15.6582C14.3666 2.83301 13.8416 3.33301 13.8416 4.56634V12.9497C13.8416 14.1747 14.3666 14.6747 15.6582 14.6747Z" fill="#E95950"/>
</svg>
