<svg width="20" height="20" viewBox="0 0 20 20" fill="none" xmlns="http://www.w3.org/2000/svg">
<path d="M13.1667 1.84207C12.8251 1.5004 12.2334 1.73373 12.2334 2.20873V5.11707C12.2334 6.33373 13.2667 7.34207 14.5251 7.34207C15.3167 7.3504 16.4167 7.3504 17.3584 7.3504C17.8334 7.3504 18.0834 6.79207 17.7501 6.45873C16.5501 5.2504 14.4001 3.0754 13.1667 1.84207Z" fill="white" fill-opacity="0.5"/>
<path d="M17.083 8.49199H14.6747C12.6997 8.49199 11.0913 6.88366 11.0913 4.90866V2.50033C11.0913 2.04199 10.7163 1.66699 10.258 1.66699H6.72467C4.15801 1.66699 2.08301 3.33366 2.08301 6.30866V13.692C2.08301 16.667 4.15801 18.3337 6.72467 18.3337H13.2747C15.8413 18.3337 17.9163 16.667 17.9163 13.692V9.32533C17.9163 8.86699 17.5413 8.49199 17.083 8.49199ZM9.58301 14.792H6.24967C5.90801 14.792 5.62467 14.5087 5.62467 14.167C5.62467 13.8253 5.90801 13.542 6.24967 13.542H9.58301C9.92467 13.542 10.208 13.8253 10.208 14.167C10.208 14.5087 9.92467 14.792 9.58301 14.792ZM11.2497 11.4587H6.24967C5.90801 11.4587 5.62467 11.1753 5.62467 10.8337C5.62467 10.492 5.90801 10.2087 6.24967 10.2087H11.2497C11.5913 10.2087 11.8747 10.492 11.8747 10.8337C11.8747 11.1753 11.5913 11.4587 11.2497 11.4587Z" fill="white" fill-opacity="0.5"/>
</svg>
