<svg width="13" height="13" viewBox="0 0 13 13" fill="none" xmlns="http://www.w3.org/2000/svg">
<path d="M8.66667 1.08301H4.33333C2.4375 1.08301 1.625 2.16634 1.625 3.79134V9.20801C1.625 10.833 2.4375 11.9163 4.33333 11.9163H8.66667C10.5625 11.9163 11.375 10.833 11.375 9.20801V3.79134C11.375 2.16634 10.5625 1.08301 8.66667 1.08301ZM4.33333 6.63509H6.5C6.72208 6.63509 6.90625 6.81926 6.90625 7.04134C6.90625 7.26342 6.72208 7.44759 6.5 7.44759H4.33333C4.11125 7.44759 3.92708 7.26342 3.92708 7.04134C3.92708 6.81926 4.11125 6.63509 4.33333 6.63509ZM8.66667 9.61426H4.33333C4.11125 9.61426 3.92708 9.43009 3.92708 9.20801C3.92708 8.98592 4.11125 8.80176 4.33333 8.80176H8.66667C8.88875 8.80176 9.07292 8.98592 9.07292 9.20801C9.07292 9.43009 8.88875 9.61426 8.66667 9.61426ZM10.0208 5.01009H8.9375C8.11417 5.01009 7.44792 4.34384 7.44792 3.52051V2.43717C7.44792 2.21509 7.63208 2.03092 7.85417 2.03092C8.07625 2.03092 8.26042 2.21509 8.26042 2.43717V3.52051C8.26042 3.89426 8.56375 4.19759 8.9375 4.19759H10.0208C10.2429 4.19759 10.4271 4.38176 10.4271 4.60384C10.4271 4.82592 10.2429 5.01009 10.0208 5.01009Z" fill="#555A5F"/>
</svg>
