<svg width="24" height="23" viewBox="0 0 24 23" fill="none" xmlns="http://www.w3.org/2000/svg">
<g clip-path="url(#clip0_2_10097)">
<path d="M11.7794 23C17.8577 23 22.7852 17.8513 22.7852 11.5C22.7852 5.14873 17.8577 0 11.7794 0C5.70099 0 0.773499 5.14873 0.773499 11.5C0.773499 17.8513 5.70099 23 11.7794 23Z" fill="#E88102"/>
<path d="M11.7794 21.7871C17.7957 21.7871 22.6729 16.9099 22.6729 10.8936C22.6729 4.87721 17.7957 0 11.7794 0C5.76301 0 0.885803 4.87721 0.885803 10.8936C0.885803 16.9099 5.76301 21.7871 11.7794 21.7871Z" fill="#FDD835"/>
<path opacity="0.5" d="M16.1278 0.902924L1.78872 15.2375C1.30806 14.1369 1.00708 12.942 0.917236 11.6887L12.5745 0.026947C13.8278 0.121283 15.0227 0.42226 16.1278 0.902924Z" fill="white"/>
<path opacity="0.5" d="M21.2713 5.54785L6.43365 20.3855C5.50826 19.8645 4.67272 19.2131 3.94049 18.4539L19.3442 3.05469C20.0989 3.78242 20.7503 4.62246 21.2713 5.54785Z" fill="white"/>
<path opacity="0.5" d="M18.8995 2.64591L3.5362 18.0092C3.29811 17.7307 3.06901 17.4387 2.85788 17.1377L18.028 1.96759C18.329 2.17872 18.621 2.40782 18.8995 2.64591Z" fill="white"/>
<path opacity="0.5" d="M22.3315 8.17579L9.06159 21.4457C8.66179 21.3424 8.27097 21.2166 7.88913 21.0729L21.9587 7.00333C22.1024 7.38516 22.2282 7.77598 22.3315 8.17579Z" fill="white"/>
<path opacity="0.5" d="M22.6729 10.8936C22.6729 10.9699 22.6729 11.0418 22.6684 11.1182C22.5516 5.20645 17.7225 0.449219 11.7794 0.449219C5.83619 0.449219 1.00709 5.20645 0.890295 11.1182C0.890295 11.0418 0.885803 10.9699 0.885803 10.8936C0.885803 4.87852 5.76432 0 11.7794 0C17.7944 0 22.6729 4.87852 22.6729 10.8936Z" fill="white"/>
<path opacity="0.5" d="M20.629 11.3652C20.629 16.0775 16.8061 19.9004 12.0938 19.9004C9.44791 19.9004 7.08053 18.692 5.51276 16.8008C7.07155 18.4854 9.29967 19.541 11.7794 19.541C16.4917 19.541 20.3145 15.7182 20.3145 11.0059C20.3145 8.93945 19.5823 7.04824 18.3604 5.57031C19.7665 7.09316 20.629 9.12813 20.629 11.3652Z" fill="white"/>
<path d="M11.7794 19.541C16.4932 19.541 20.3145 15.7197 20.3145 11.0059C20.3145 6.29202 16.4932 2.4707 11.7794 2.4707C7.06552 2.4707 3.2442 6.29202 3.2442 11.0059C3.2442 15.7197 7.06552 19.541 11.7794 19.541Z" fill="#F39E09"/>
<path d="M18.2481 5.43555C16.7522 4.14629 14.8071 3.36914 12.6778 3.36914C7.96549 3.36914 4.14264 7.19199 4.14264 11.9043C4.14264 14.0336 4.91979 15.9787 6.20905 17.4746C4.3942 15.9068 3.2442 13.5934 3.2442 11.0059C3.2442 6.29355 7.06705 2.4707 11.7794 2.4707C14.3624 2.4707 16.6803 3.6207 18.2481 5.43555Z" fill="#E88102"/>
<path d="M11.2448 8.83164C11.0921 9.00684 11.0112 9.24941 11.0112 9.55938C11.0112 9.86934 11.101 10.1254 11.2807 10.3096C11.4604 10.4937 11.7479 10.6689 12.1432 10.8396C12.5385 11.0059 12.9114 11.1811 13.2618 11.3607C13.6122 11.5404 13.9132 11.7471 14.1692 11.9762C14.4253 12.2053 14.6229 12.4748 14.7667 12.7803C14.8206 12.8971 14.9823 13.1172 14.9823 13.1172C14.9823 13.1172 14.9823 13.8629 14.9823 13.8854C14.9823 14.6131 14.7532 15.2061 14.2905 15.6643C13.8278 16.1225 13.2034 16.392 12.4083 16.4684V17.7441H11.393V16.4549C10.4676 16.3561 9.75788 16.0416 9.25925 15.5025C8.76511 14.9635 8.51804 14.2582 8.51804 13.3777V12.7039L10.6653 13.3777C10.6653 13.8629 10.7731 14.2312 10.9887 14.4828C11.2044 14.7344 11.5098 14.8602 11.9051 14.8602C12.1926 14.8602 12.4217 14.7748 12.588 14.5996C12.7542 14.4244 12.835 14.1908 12.835 13.8898C12.835 13.5529 12.7542 13.2924 12.588 13.0992C12.4217 12.9061 12.1298 12.7264 11.7165 12.5557C11.2987 12.385 10.9169 12.2143 10.562 12.0391C10.2071 11.8639 9.90612 11.6617 9.65007 11.4326C9.39401 11.2035 9.20085 10.9385 9.06159 10.6375C8.92683 10.3365 8.85944 9.97266 8.85944 9.54141V8.82715C8.85944 8.82715 9.25925 8.07695 9.58718 7.76699C10.0723 7.2998 10.7192 7.03027 11.5233 6.95391V5.61523H12.5385V6.98535C13.3157 7.10215 13.9266 7.42109 14.3714 7.94668C14.6768 8.30605 15.0362 9.27187 15.0362 9.27187V9.9457H12.88C12.88 9.50547 12.7946 9.16406 12.6239 8.92598C12.4532 8.68789 12.2106 8.57109 11.8962 8.57109C11.6176 8.5666 11.402 8.65645 11.2448 8.83164Z" fill="#DB6704"/>
<path d="M12.835 13.2205C12.835 12.8836 12.7542 12.623 12.588 12.4299C12.4218 12.2367 12.1298 12.057 11.7165 11.8863C11.2987 11.7156 10.9169 11.5449 10.562 11.3697C10.2071 11.1945 9.90613 10.9924 9.65007 10.7633C9.39402 10.5342 9.20085 10.2691 9.0616 9.96816C8.92683 9.66719 8.85945 9.29883 8.85945 8.87207C8.85945 8.15332 9.10203 7.56035 9.58718 7.09766C10.0723 6.63496 10.7192 6.36094 11.5233 6.28457V4.94141H12.5385V6.31152C13.3157 6.42832 13.9266 6.74727 14.3714 7.27285C14.8161 7.79844 15.0362 8.46328 15.0362 9.27187H12.88C12.88 8.83164 12.7946 8.49023 12.6239 8.25215C12.4532 8.01406 12.2106 7.89727 11.8962 7.89727C11.6177 7.89727 11.3975 7.98711 11.2448 8.1623C11.0921 8.3375 11.0112 8.58008 11.0112 8.89004C11.0112 9.2 11.101 9.45605 11.2807 9.64023C11.4604 9.82441 11.7479 9.99961 12.1387 10.1703C12.5341 10.3365 12.9069 10.5117 13.2573 10.6914C13.6077 10.8711 13.9087 11.0777 14.1647 11.3068C14.4208 11.5359 14.6184 11.8055 14.7622 12.1109C14.9059 12.4164 14.9778 12.7848 14.9778 13.2115C14.9778 13.9393 14.7487 14.5322 14.286 14.9904C13.8233 15.4486 13.1989 15.7182 12.4038 15.7945V17.0703H11.3886V15.7811C10.4632 15.6822 9.75339 15.3678 9.25476 14.8287C8.76062 14.2896 8.51355 13.5844 8.51355 12.7039H10.6608C10.6608 13.1891 10.7686 13.5574 10.9843 13.809C11.1999 14.0605 11.5053 14.1863 11.9007 14.1863C12.1882 14.1863 12.4173 14.101 12.5835 13.9258C12.7497 13.7506 12.835 13.5215 12.835 13.2205Z" fill="#FDD835"/>
<path opacity="0.5" d="M9.58718 7.09766C9.84772 6.84609 10.1577 6.65293 10.5126 6.51367L8.98972 8.04102C9.10651 7.68164 9.30417 7.37168 9.58718 7.09766Z" fill="white"/>
<path opacity="0.5" d="M12.0848 4.94141L11.5233 5.50293V4.94141H12.0848Z" fill="white"/>
<path opacity="0.5" d="M14.7487 12.0705L11.0786 15.7406C10.3059 15.6104 9.69948 15.3049 9.26373 14.8332C8.98073 14.5233 8.77858 14.1594 8.65729 13.7416L9.69049 12.7084H10.6698C10.6698 13.1936 10.7776 13.5619 10.9932 13.8135C11.2089 14.0651 11.5143 14.1908 11.9096 14.1908C12.1971 14.1908 12.4262 14.1055 12.5924 13.9303C12.7587 13.7551 12.8395 13.5215 12.8395 13.2205C12.8395 12.8836 12.7587 12.6231 12.5924 12.4299C12.4262 12.2367 12.1342 12.057 11.721 11.8863C11.4245 11.7651 11.146 11.6438 10.8809 11.518L12.2106 10.1883C12.5835 10.35 12.9339 10.5117 13.2663 10.6824C13.6167 10.8621 13.9176 11.0688 14.1737 11.2979C14.4163 11.5225 14.6094 11.7785 14.7487 12.0705Z" fill="white"/>
<path opacity="0.5" d="M15.0362 9.2674H13.127L14.6768 7.71759C14.9149 8.15782 15.0362 8.67443 15.0362 9.2674Z" fill="white"/>
<path opacity="0.5" d="M8.52252 12.7039H8.84147L8.536 13.0094C8.52701 12.9106 8.52252 12.8072 8.52252 12.7039Z" fill="white"/>
<path opacity="0.5" d="M11.2807 9.63575C11.3706 9.73008 11.4874 9.81993 11.6356 9.90977L10.3059 11.2395C10.0589 11.1002 9.83873 10.943 9.65006 10.7678C9.57369 10.7004 9.50631 10.6285 9.44342 10.5566L11.0202 8.97989C11.0337 9.24942 11.1235 9.46954 11.2807 9.63575Z" fill="white"/>
<path opacity="0.5" d="M14.3264 7.21893L12.826 8.71932C12.7856 8.53514 12.7182 8.37792 12.6284 8.25214C12.4936 8.06346 12.3139 7.95116 12.0893 7.91073L13.4325 6.56757C13.7784 6.72479 14.0749 6.94042 14.3264 7.21893Z" fill="white"/>
<path opacity="0.5" d="M11.8872 17.0703L12.4083 16.5492V17.0703H11.8872Z" fill="white"/>
<path opacity="0.5" d="M14.843 14.1144C14.7307 14.4469 14.5466 14.7344 14.295 14.9859C14.0434 15.2375 13.7424 15.4307 13.3921 15.5654L14.843 14.1144Z" fill="white"/>
<path opacity="0.25" d="M18.8995 6.29355C13.3741 8.23418 8.9358 12.4973 6.76158 17.9104C6.57291 17.7711 6.38873 17.6273 6.20905 17.4701C4.91979 15.9742 4.14264 14.0291 4.14264 11.9043C4.14264 7.19199 7.96549 3.36914 12.6778 3.36914C14.8071 3.36914 16.7522 4.14629 18.2436 5.43555C18.4817 5.70957 18.6973 5.99707 18.8995 6.29355Z" fill="white"/>
</g>
<defs>
<clipPath id="clip0_2_10097">
<rect width="23" height="23" fill="white" transform="translate(0.279358)"/>
</clipPath>
</defs>
</svg>
