<svg width="20" height="20" viewBox="0 0 20 20" fill="none" xmlns="http://www.w3.org/2000/svg">
<path d="M7.68333 9.81499C8.37069 9.81499 9.02989 9.54194 9.51592 9.0559C10.0019 8.56987 10.275 7.91067 10.275 7.22332C10.275 6.53597 10.0019 5.87677 9.51592 5.39073C9.02989 4.9047 8.37069 4.63165 7.68333 4.63165C6.99598 4.63165 6.33678 4.9047 5.85075 5.39073C5.36472 5.87677 5.09167 6.53597 5.09167 7.22332C5.09167 7.91067 5.36472 8.56987 5.85075 9.0559C6.33678 9.54194 6.99598 9.81499 7.68333 9.81499ZM5.09167 11.4817C4.40431 11.4817 3.74511 11.7547 3.25908 12.2407C2.77305 12.7268 2.5 13.386 2.5 14.0733V15.3683H12.8667V14.0725C12.8667 13.3851 12.5936 12.7259 12.1076 12.2399C11.6216 11.7539 10.9624 11.4808 10.275 11.4808L5.09167 11.4817ZM17.5 15.3683H14.5333V14.0725C14.5333 13.0975 14.205 12.1992 13.6542 11.4808H14.9083C15.5957 11.4808 16.2549 11.7539 16.7409 12.2399C17.2269 12.7259 17.5 13.3851 17.5 14.0725V15.3683ZM11.9417 7.22332C11.9428 8.06095 11.6957 8.88014 11.2317 9.57749C11.6265 9.75927 12.0608 9.83882 12.4944 9.8088C12.9281 9.77878 13.3473 9.64016 13.7133 9.4057C14.0794 9.17124 14.3806 8.84848 14.5892 8.46711C14.7978 8.08574 14.9071 7.65802 14.9071 7.22332C14.9071 6.78862 14.7978 6.3609 14.5892 5.97953C14.3806 5.59816 14.0794 5.27539 13.7133 5.04094C13.3473 4.80648 12.9281 4.66786 12.4944 4.63784C12.0608 4.60782 11.6265 4.68737 11.2317 4.86915C11.68 5.54332 11.9417 6.35249 11.9417 7.22332Z" fill="#71839B"/>
</svg>
