<svg width="44" height="44" viewBox="0 0 44 44" fill="none" xmlns="http://www.w3.org/2000/svg">
<rect x="0.5" y="0.5" width="43" height="43" rx="21.5" fill="#292D32"/>
<rect x="0.5" y="0.5" width="43" height="43" rx="21.5" stroke="#292D32"/>
<path opacity="0.4" d="M30.1889 20.9843C30.1889 20.5993 29.8776 20.2798 29.4843 20.2798H14.5092C14.116 20.2798 13.8047 20.5911 13.8047 20.9843C13.8047 25.8094 17.1716 29.1764 21.9968 29.1764C26.8219 29.1764 30.1889 25.8013 30.1889 20.9843Z" fill="white"/>
<path d="M22.3751 25.1949L24.7099 22.8684C24.9475 22.6308 24.9475 22.2376 24.7099 22C24.4723 21.7624 24.0791 21.7624 23.8415 22L22.5636 23.278V15.4381C22.5636 15.1023 22.285 14.8237 21.9492 14.8237C21.6133 14.8237 21.3347 15.1023 21.3347 15.4381V23.278L20.0486 22C19.811 21.7624 19.4178 21.7624 19.1802 22C19.0573 22.1229 19 22.2785 19 22.4342C19 22.5898 19.0573 22.7455 19.1802 22.8684L21.515 25.1949C21.7525 25.4407 22.1376 25.4407 22.3751 25.1949Z" fill="white"/>
</svg>
