<svg width="18" height="18" viewBox="0 0 18 18" fill="none" xmlns="http://www.w3.org/2000/svg">
<path d="M11.4454 0.000285864H6.55535C2.87285 0.000285864 1.29785 1.57529 1.29785 5.25779V5.35529C1.29785 8.68529 2.61035 10.2903 5.55035 10.5678C5.85035 10.5903 6.13535 10.3653 6.16535 10.0578C6.19535 9.75029 5.97035 9.47279 5.65535 9.44279C3.30035 9.22529 2.42285 8.11529 2.42285 5.34779V5.25029C2.42285 2.19779 3.50285 1.11779 6.55535 1.11779H11.4454C14.4979 1.11779 15.5779 2.19779 15.5779 5.25029V5.34779C15.5779 8.13029 14.6854 9.24029 12.2854 9.44279C11.9779 9.47279 11.7454 9.74279 11.7754 10.0503C11.8054 10.3578 12.0679 10.5903 12.3829 10.5603C15.3679 10.3053 16.7029 8.69279 16.7029 5.34029V5.24279C16.7029 1.57529 15.1279 0.000285864 11.4454 0.000285864Z" fill="#292D32"/>
<path d="M8.8125 14C8.505 14 8.25 13.8345 8.25 13.6349V7.36509C8.25 7.16551 8.505 7 8.8125 7C9.12 7 9.375 7.16551 9.375 7.36509V13.6349C9.375 13.8394 9.12 14 8.8125 14Z" fill="#292D32"/>
<path d="M8.99988 15.3856C8.85738 15.3856 8.71488 15.3331 8.60238 15.2206L6.08988 12.7081C5.87238 12.4906 5.87238 12.1306 6.08988 11.9131C6.30738 11.6956 6.66738 11.6956 6.88488 11.9131L8.99988 14.0281L11.1149 11.9131C11.3324 11.6956 11.6924 11.6956 11.9099 11.9131C12.1274 12.1306 12.1274 12.4906 11.9099 12.7081L9.39738 15.2206C9.28488 15.3331 9.14238 15.3856 8.99988 15.3856Z" fill="#292D32"/>
</svg>
