<svg width="14" height="16" viewBox="0 0 14 16" fill="none" xmlns="http://www.w3.org/2000/svg">
<path fill-rule="evenodd" clip-rule="evenodd" d="M6.99855 0C7.30561 0 7.55453 0.24892 7.55453 0.555984V9.09788L10.312 6.34044C10.5291 6.12331 10.8811 6.12331 11.0982 6.34044C11.3154 6.55757 11.3154 6.9096 11.0982 7.12673L7.39169 10.8333C7.17456 11.0504 6.82254 11.0504 6.60541 10.8333L2.89884 7.12673C2.68171 6.9096 2.68171 6.55757 2.89884 6.34044C3.11598 6.12331 3.468 6.12331 3.68513 6.34044L6.44256 9.09788V0.555984C6.44256 0.24892 6.69148 0 6.99855 0ZM0.820885 11.0579C1.16206 11.0579 1.43865 11.3346 1.43865 11.6757V13.529C1.43865 14.2133 1.98925 14.7645 2.66966 14.7645H11.3243C12.0059 14.7645 12.5583 14.212 12.5583 13.529V11.6757C12.5583 11.3346 12.835 11.0579 13.1761 11.0579C13.5172 11.0579 13.7938 11.3346 13.7938 11.6757V13.529C13.7938 14.8931 12.6895 16 11.3243 16H2.66966C1.30297 16 0.203125 14.8917 0.203125 13.529V11.6757C0.203125 11.3346 0.479709 11.0579 0.820885 11.0579Z" fill="black"/>
</svg>
