<svg width="100" height="100" viewBox="0 0 100 100" fill="none" xmlns="http://www.w3.org/2000/svg">
<mask id="mask0_4927_13895" style="mask-type:alpha" maskUnits="userSpaceOnUse" x="0" y="0" width="100" height="100">
<rect width="100" height="100" fill="#D9D9D9"/>
</mask>
<g mask="url(#mask0_4927_13895)">
<path d="M61.2077 51.5365L55.8617 54.684L50.5117 51.6095L55.8617 48.4619L61.2077 51.5365Z" fill="#DBE0E6"/>
<path d="M55.8632 54.8347L55.9281 54.7982L61.4687 51.5371L55.8632 48.3125L55.7982 48.349L50.2617 51.6101L55.8632 54.8347ZM60.9536 51.5371L55.8632 54.5346L50.7727 51.606L55.8632 48.6086L60.9536 51.5371Z" fill="#060607"/>
<path d="M55.8695 85.3582L50.5195 82.2836V51.6113L55.8695 54.6859V85.3582Z" fill="#C2C7CB"/>
<path d="M56.004 85.5857V54.6133L50.3984 51.3887V82.3611L56.004 85.5857ZM55.7444 54.7633V85.1396L50.6581 82.2151V51.8389L55.7444 54.7633Z" fill="#060607"/>
<path d="M61.2092 82.2094L55.8633 85.357V54.6847L61.2092 51.5371V82.2094Z" fill="#96999E"/>
<path d="M55.7695 85.53L61.3142 82.2649V51.3613L55.7695 54.6265V85.53ZM61.1195 82.1513L55.9723 85.1852V54.7401L61.1195 51.7061V82.1513Z" fill="#060607"/>
<path d="M73.4575 34.6038L68.1116 37.7514L62.7656 34.6768L68.1116 31.5293L73.4575 34.6038Z" fill="#DBE0E6"/>
<path d="M68.1131 37.9011L68.1781 37.8646L73.7187 34.6035L68.1131 31.3789L68.0483 31.4154L62.5117 34.6765L68.1131 37.9011ZM73.2036 34.6035L68.1131 37.601L63.0227 34.6725L68.1131 31.675L73.2036 34.6035Z" fill="#060607"/>
<path d="M68.1155 77.9483L62.7695 74.8697V34.6777L68.1155 37.7522V77.9483Z" fill="#C2C7CB"/>
<path d="M68.2462 78.1719V37.6797L62.6406 34.4551V74.9473L68.2462 78.1719ZM67.9866 37.8298V77.7257L62.9002 74.7971V34.9013L67.9866 37.8298Z" fill="#060607"/>
<path d="M73.467 74.7994L68.1211 77.951V37.755L73.467 34.6074V74.7994Z" fill="#96999E"/>
<path d="M68.0195 78.121L73.5643 74.8558V34.4326L68.0195 37.6978V78.121ZM73.3655 74.7423L68.2183 77.7762V37.8114L73.3655 34.7815V74.7423Z" fill="#060607"/>
<path d="M36.7194 76.096L31.3734 79.2475L26.0234 76.1731L31.3734 73.0215L36.7194 76.096Z" fill="#DBE0E6"/>
<path d="M31.3713 79.3972L31.4361 79.3608L36.9728 76.0996L31.3672 72.875L31.3023 72.9116L25.7617 76.1726L31.3713 79.3972ZM36.4577 76.0996L31.3672 79.0971L26.2768 76.1686L31.3672 73.1711L36.4577 76.0996Z" fill="#060607"/>
<path d="M31.3695 79.2464V99.4864L26.0195 96.4119V76.1719L31.3695 79.2464Z" fill="#C2C7CB"/>
<path d="M31.4962 99.7081V79.168L25.8906 75.9434V96.4835L31.4962 99.7081ZM31.2366 79.3181V99.262L26.1462 96.3375V76.3937L31.2366 79.3181Z" fill="#060607"/>
<path d="M36.721 76.0938V96.3378L31.375 99.4854V79.2454L36.721 76.0938Z" fill="#96999E"/>
<path d="M31.2695 99.6602L36.8142 96.3949V75.9238L31.2695 79.1889V99.6602ZM36.6155 96.2814L31.4682 99.3154V79.3026L36.6155 76.2726V96.2814Z" fill="#060607"/>
<path d="M48.9653 67.3226L43.6194 70.4701L38.2734 67.3956L43.6194 64.248L48.9653 67.3226Z" fill="#DBE0E6"/>
<path d="M43.6171 70.6208L43.682 70.5844L49.2227 67.3232L43.6171 64.0986L43.5523 64.1352L38.0156 67.3962L43.6171 70.6208ZM48.7075 67.3232L43.6171 70.3207L38.5267 67.3922L43.6171 64.3947L48.7075 67.3232Z" fill="#060607"/>
<path d="M43.6194 92.4146L38.2734 89.34V67.3965L43.6194 70.471V92.4146Z" fill="#C2C7CB"/>
<path d="M43.7462 92.6371V70.3975L38.1406 67.1729V89.4125L43.7462 92.6371ZM43.4866 70.5475V92.1909L38.4002 89.2624V67.619L43.4866 70.5475Z" fill="#060607"/>
<path d="M48.9592 89.2668L43.6133 92.4143V70.4708L48.9592 67.3232V89.2668Z" fill="#96999E"/>
<path d="M43.5117 92.5882L49.0565 89.323V67.1523L43.5117 70.4175V92.5882ZM48.8577 89.2095L43.7105 92.2434V70.5311L48.8577 67.5011V89.2095Z" fill="#060607"/>
<path d="M44.2171 47.0105L35.5938 42.2568L50.0336 43.7048L58.6568 48.4627L44.2171 47.0105Z" fill="#FFA500"/>
<path d="M59.2686 48.6525L50.045 43.5784L34.9766 42.0654L44.2002 47.1397L59.2686 48.6525ZM49.9923 43.8299L58.0396 48.2672L44.2569 46.8841L36.2096 42.4467L49.9923 43.8299Z" fill="#060607"/>
<path d="M44.2148 47.0107L44.2717 50.9816L58.7114 52.4297L58.6546 48.4628L44.2148 47.0107Z" fill="#060607"/>
<path d="M82.8282 22.6286L66.3242 13.5307L82.8282 5.4834V22.6286Z" fill="#060607"/>
<path d="M35.5736 42.248L44.1976 47.0038L24.5186 82.69L15.8945 77.9343L35.5736 42.248Z" fill="#FFA500"/>
<path d="M24.5613 82.8581L24.6222 82.7445L44.3917 46.9615L35.5413 42.082L35.4805 42.1955L15.7109 77.9785L24.5613 82.8581ZM44.0388 47.063L24.4559 82.5093L16.0597 77.8772L35.6426 42.4308L44.0388 47.063Z" fill="#060607"/>
<path d="M66.3242 9.68262V13.5318L69.561 15.2557L70.3113 11.8486L66.3242 9.68262Z" fill="#060607"/>
<path d="M24.5078 82.6842L27.7324 80.9239L44.2732 50.9816L44.2164 47.0107L24.5078 82.6842Z" fill="#060607"/>
<path d="M58.6367 48.4637L58.7097 52.4306L78.7226 20.1398L78.6496 16.1689L58.6367 48.4637Z" fill="#060607"/>
<path d="M82.9352 1.63867L66.3253 9.68194L69.8826 11.641L50.0117 43.7046L58.635 48.4624L78.5018 16.3989L82.4722 18.5851L82.9352 1.63867Z" fill="#FFA500"/>
<path d="M58.6824 48.6328L78.5534 16.5692L82.6014 18.8L83.0715 1.42773L66.0484 9.67381L69.7029 11.6897L49.832 43.7533L58.6824 48.6328ZM78.4601 16.2244L58.5891 48.288L50.193 43.6559L70.0639 11.5964L66.608 9.69004L82.8045 1.84551L82.3537 18.3701L78.4601 16.2244Z" fill="#060607"/>
<path d="M82.834 22.6291L83.369 3.614L82.9396 1.63867L82.4766 18.5851L82.834 22.6291Z" fill="#060607"/>
</g>
</svg>
