<svg width="115" height="115" viewBox="0 0 115 115" fill="none" xmlns="http://www.w3.org/2000/svg">
<mask id="mask0_5015_11679" style="mask-type:alpha" maskUnits="userSpaceOnUse" x="0" y="0" width="115" height="115">
<rect width="115" height="115" fill="#D9D9D9"/>
</mask>
<g mask="url(#mask0_5015_11679)">
<g clip-path="url(#clip0_5015_11679)">
<path d="M104.475 23.5769C104.207 21.5778 102.004 19.9584 98.7123 19.6182L57.89 15.3668C53.6056 14.9211 49.1033 16.8147 47.8301 19.5945L18.0784 84.5632C17.8027 85.1408 17.6951 85.7922 17.7765 86.4384L18.4144 91.4151C18.6822 93.4142 20.8821 95.0415 24.1768 95.3843L65.0017 99.6357C69.2835 100.081 73.7884 98.1878 75.0616 95.4107L104.813 30.4393C105.092 29.8617 105.197 29.2103 105.118 28.5668L104.48 23.5927C104.48 23.5927 104.477 23.5848 104.475 23.5795V23.5769Z" fill="white" stroke="black" stroke-width="0.24" stroke-miterlimit="10" stroke-linecap="round"/>
<path d="M104.475 23.5769C104.207 21.5778 102.004 19.9584 98.7123 19.6182L57.89 15.3668C53.6056 14.9211 49.1033 16.8147 47.8301 19.5945L18.0784 84.5632C17.8027 85.1408 17.6951 85.7922 17.7765 86.4384L18.4144 91.4151C18.6822 93.4142 20.8821 95.0415 24.1768 95.3843L65.0017 99.6357C69.2835 100.081 73.7884 98.1878 75.0616 95.4107L104.813 30.4393C105.092 29.8617 105.197 29.2103 105.118 28.5668L104.48 23.5927C104.48 23.5927 104.477 23.5848 104.475 23.5795V23.5769Z" fill="#999999"/>
<path d="M18.0784 84.5608C17.8027 85.1384 17.6951 85.7925 17.7765 86.436L18.4144 91.4127C18.6822 93.4118 20.8821 95.0391 24.1768 95.3819L65.0017 99.6334C66.5086 99.7837 68.026 99.6676 69.4908 99.2905L68.488 91.7872L19.3621 81.7837L18.081 84.5608H18.0784Z" fill="#999999"/>
<path d="M98.7135 19.6347C102.998 20.0804 105.437 22.6967 104.163 25.4765L74.4117 90.4452C73.1437 93.2329 68.6362 95.1186 64.3545 94.6729L23.5296 90.4189C19.2478 89.9732 16.8064 87.3569 18.0796 84.5771L47.8313 19.6083C49.1019 16.8206 53.6068 14.9349 57.8886 15.3806L98.7135 19.6347Z" fill="white" stroke="black" stroke-miterlimit="10"/>
<path d="M53.8553 96.7186C54.1808 96.6738 54.4066 96.3625 54.3594 96.0223C54.3121 95.6821 54.0128 95.4421 53.6899 95.4843C53.367 95.5265 53.1386 95.8404 53.1859 96.1806C53.2331 96.5208 53.5324 96.7608 53.8553 96.7186Z" fill="black"/>
<path d="M55.9413 96.9378C56.2668 96.893 56.4926 96.5818 56.4453 96.2416C56.398 95.9013 56.0988 95.6613 55.7759 95.7035C55.453 95.7457 55.2246 96.0596 55.2718 96.3998C55.3191 96.74 55.6184 96.98 55.9413 96.9378Z" fill="black"/>
<path d="M58.0272 97.1541C58.3527 97.1093 58.5785 96.7981 58.5312 96.4579C58.484 96.1177 58.1847 95.8777 57.8618 95.9199C57.5389 95.962 57.3105 96.2759 57.3578 96.6161C57.405 96.9563 57.7043 97.1963 58.0272 97.1541Z" fill="black"/>
<path d="M60.1131 97.3729C60.4387 97.328 60.6644 97.0168 60.6172 96.6766C60.5699 96.3364 60.2706 96.0964 59.9477 96.1386C59.6248 96.1808 59.3964 96.4946 59.4437 96.8349C59.4909 97.1751 59.7902 97.4151 60.1131 97.3729Z" fill="black"/>
<path d="M25.0584 93.6781C25.384 93.6332 25.6097 93.322 25.5625 92.9818C25.5152 92.6416 25.216 92.4016 24.8931 92.4438C24.5701 92.486 24.3418 92.7998 24.389 93.14C24.4363 93.4803 24.7355 93.7203 25.0584 93.6781Z" fill="black"/>
<path d="M27.1444 93.8968C27.4699 93.852 27.6957 93.5408 27.6484 93.2006C27.6012 92.8603 27.3019 92.6203 26.979 92.6625C26.6561 92.7047 26.4277 93.0186 26.4749 93.3588C26.5222 93.699 26.8215 93.939 27.1444 93.8968Z" fill="black"/>
<path d="M29.2225 94.1131C29.548 94.0683 29.7738 93.7571 29.7265 93.4169C29.6793 93.0766 29.38 92.8366 29.0571 92.8788C28.7342 92.921 28.5058 93.2349 28.5531 93.5751C28.6003 93.9153 28.8996 94.1553 29.2225 94.1131Z" fill="black"/>
<path d="M31.3163 94.3319C31.6418 94.287 31.8676 93.9758 31.8203 93.6356C31.773 93.2954 31.4738 93.0554 31.1509 93.0976C30.828 93.1398 30.5996 93.4536 30.6468 93.7938C30.6941 94.1341 30.9934 94.3741 31.3163 94.3319Z" fill="black"/>
<path d="M21.9804 86.428C22.747 87.2508 24.0727 87.8627 25.787 88.0394L21.9804 86.428ZM21.9804 86.428C21.2191 85.6104 20.9986 84.5818 21.4842 83.5137L21.9804 86.428Z" stroke="#B8A9A9" stroke-width="0.24"/>
<path d="M54.5063 23.4976L73.6679 25.1116L72.5522 27.5274L53.3906 25.9134L54.5063 23.4976Z" fill="#FFA500"/>
<path d="M51.5454 29.7192L91.3964 33.7148L90.2806 36.1307L50.4297 32.1351L51.5454 29.7192Z" fill="#FFA500"/>
<path d="M48.3892 36.1465L81.6928 39.2955L80.5771 41.7113L47.2734 38.5623L48.3892 36.1465Z" fill="#FFA500"/>
<path d="M45.0845 42.6582L84.9354 46.6538L83.8197 49.0696L43.9688 45.074L45.0845 42.6582Z" fill="#FFA500"/>
<path d="M41.8188 49.5181L68.3573 51.8785L67.2416 54.2943L40.7031 51.9339L41.8188 49.5181Z" fill="#FFA500"/>
<path d="M36.6626 62.9106L76.5136 66.9062L75.3978 69.3221L35.5469 65.3265L36.6626 62.9106Z" fill="#EBE9E9"/>
<path d="M33.3501 69.9336L73.2011 73.9292L72.0853 76.345L32.2344 72.3494L33.3501 69.9336Z" fill="#EBE9E9"/>
<path d="M28.7251 76.7671L55.2635 79.1275L54.1478 81.5434L27.6094 79.1829L28.7251 76.7671Z" fill="#EBE9E9"/>
<path d="M104.475 23.5769C104.207 21.5778 102.004 19.9584 98.7123 19.6182L57.89 15.3668C53.6056 14.9211 49.1033 16.8147 47.8301 19.5945L18.0784 84.5632C17.8027 85.1408 17.6951 85.7922 17.7765 86.4384L18.4144 91.4151C18.6822 93.4142 20.8821 95.0415 24.1768 95.3843L65.0017 99.6357C69.2835 100.081 73.7884 98.1878 75.0616 95.4107L104.813 30.4393C105.092 29.8617 105.197 29.2103 105.118 28.5668L104.48 23.5927C104.48 23.5927 104.477 23.5848 104.475 23.5795V23.5769Z" stroke="black" stroke-width="0.5" stroke-miterlimit="10" stroke-linecap="round"/>
<path d="M24.8047 74.4911C26.4901 74.2643 27.8158 73.8186 30.9766 72.8428" stroke="#EBE9E9" stroke-width="0.96" stroke-linecap="round"/>
<path d="M29.6272 56.5093L27.0781 60.5893C27.0781 60.5893 34.8567 62.86 42.5565 61.842C50.2589 60.824 57.326 58.9699 57.326 58.9699L29.6246 56.5093H29.6272Z" fill="black"/>
<path d="M24.8163 58.3926C13.3362 54.6792 3.06104 46.1526 -0.328125 29.0466C1.3809 28.862 3.23693 28.7091 5.21373 28.5482C13.1813 27.902 23.081 27.095 32.9309 23.2075C35.102 35.6743 41.0376 48.8743 56.9727 58.9095C48.7426 61.0352 36.1835 62.0743 24.8137 58.3952L24.8163 58.3926Z" fill="white" stroke="black" stroke-width="0.24" stroke-linecap="round"/>
<path d="M6.57031 33.0211C12.6162 32.7125 24.5873 30.6079 29.0475 29.3921" stroke="#EBE9E9" stroke-width="0.96" stroke-linecap="round"/>
<path d="M7.71875 36.2099C13.3866 35.8222 18.7946 34.9572 23.5252 33.9761" stroke="#EBE9E9" stroke-width="0.96" stroke-linecap="round"/>
<path d="M10.6641 42.5315C17.7128 42.5315 28.5602 40.055 33.0205 38.8418" stroke="#EBE9E9" stroke-width="0.96" stroke-linecap="round"/>
<path d="M13.2578 45.5777C20.7292 45.2163 30.1459 43.1064 34.6062 41.8906" stroke="#EBE9E9" stroke-width="0.96" stroke-linecap="round"/>
<path d="M16.2188 48.5527C23.2911 48.2099 32.2064 46.2134 36.4278 45.0635" stroke="#EBE9E9" stroke-width="0.96" stroke-linecap="round"/>
<path d="M19.25 51.4221C22.6838 51.2085 26.9367 50.6124 30.9086 49.6313" stroke="#EBE9E9" stroke-width="0.96" stroke-linecap="round"/>
<path d="M27.9062 55.9003C33.5741 55.5127 38.9821 54.6476 43.7127 53.6665" stroke="#EBE9E9" stroke-width="0.96" stroke-linecap="round"/>
<path d="M39.5536 61.3015C34.1982 60.9771 24.0884 59.6083 16.3125 56.0294C17.4781 55.916 19.0611 55.6206 20.6966 55.043C22.6446 54.3573 24.6817 53.2681 26.1807 51.5986C28.0788 54.1068 33.0431 59.0518 39.5536 61.2989V61.3015Z" fill="#EBE9E9" stroke="black" stroke-linecap="round"/>
<path d="M24.8264 58.3585C13.3673 54.6503 3.11317 46.1448 -0.28125 29.0785C1.41465 28.8939 3.25493 28.7462 5.21598 28.5853C13.1704 27.9391 23.0623 27.1347 32.9043 23.2578C35.0806 35.6982 41.011 48.8692 56.8805 58.8912C48.653 61.0011 36.149 62.0191 24.8291 58.3558L24.8264 58.3585Z" stroke="black" stroke-linecap="round"/>
<path d="M95.0642 90.8481L89.3281 79.1171L95.0721 68.6441L108.671 66.79L114.407 78.5184L108.663 88.9887L95.0642 90.8454V90.8481Z" fill="white" stroke="black" stroke-width="0.24"/>
<path d="M103.086 77.3972L108.688 66.7871L114.395 78.5075L108.688 89.0095L103.086 77.3972Z" fill="#EBE9E9"/>
<path d="M108.744 66.7002L103.121 77.3841M103.121 77.3841L89.3047 79.167M103.121 77.3841L108.603 88.9463" stroke="black"/>
<path d="M92.3516 80.6938L101.598 79.5044L103.186 82.9303L93.9424 84.1198L92.3542 80.6938H92.3516Z" fill="#FFA500"/>
<path d="M94.5625 85.4966L103.809 84.3071L105.397 87.7331L96.1508 88.9225L94.5625 85.4966Z" fill="#FFA500"/>
<path d="M94.3125 81.8834L95.6907 81.7173" stroke="black" stroke-width="0.72" stroke-linecap="round"/>
<path d="M97.5312 81.4112L100.629 81.0552" stroke="black" stroke-width="0.72" stroke-linecap="round"/>
<path d="M98.2266 86.4328L99.6048 86.2666" stroke="black" stroke-width="0.72" stroke-linecap="round"/>
<path d="M101.383 85.9713L102.758 85.8052" stroke="black" stroke-width="0.72" stroke-linecap="round"/>
<path d="M95.0823 90.8059L89.3672 79.1171L95.0928 68.6784L108.644 66.8296L114.359 78.5157L108.634 88.9518L95.0797 90.8032L95.0823 90.8059Z" stroke="black"/>
</g>
</g>
<defs>
<clipPath id="clip0_5015_11679">
<rect width="115.253" height="84.9231" fill="white" transform="translate(-0.59375 15.0371)"/>
</clipPath>
</defs>
</svg>
