<svg width="115" height="115" viewBox="0 0 115 115" fill="none" xmlns="http://www.w3.org/2000/svg">
<mask id="mask0_5015_11638" style="mask-type:alpha" maskUnits="userSpaceOnUse" x="0" y="0" width="115" height="115">
<rect width="115" height="115" fill="#D9D9D9"/>
</mask>
<g mask="url(#mask0_5015_11638)">
</g>
<g clip-path="url(#clip0_5015_11638)">
<path fill-rule="evenodd" clip-rule="evenodd" d="M52.1941 52.0793C49.7656 53.4835 47.7969 56.8995 47.7969 59.7102V108.887C47.7969 110.47 48.4205 111.524 49.4012 111.889L52.265 113.546C53.1357 114.045 54.3365 113.972 55.6645 113.205L97.5605 88.9742C100.216 87.4378 102.369 83.7007 102.371 80.6278V32.1689C102.371 30.6227 101.828 29.5395 100.95 29.0396L98.1157 27.4002C97.3086 26.7141 96.0785 26.6896 94.6967 27.4885L52.1941 52.0793ZM99.0939 30.1546V78.8512C99.0939 78.812 99.0939 78.7728 99.0939 78.7311V30.2722C99.0939 30.233 99.0939 30.1938 99.0939 30.1546ZM94.3372 87.0481L92.7035 87.9916L94.2834 87.0776C94.3005 87.0678 94.3201 87.0555 94.3372 87.0457V87.0481Z" fill="#FFA500"/>
<path d="M53.5142 114.112C53.1571 114.112 52.8197 114.053 52.5066 113.933V113.97L52.1398 113.761L49.2931 112.115C48.1827 111.691 47.5469 110.517 47.5469 108.89V59.7104C47.5469 56.8286 49.5767 53.3096 52.0664 51.8687L94.569 27.2778C95.9874 26.4569 97.3277 26.4275 98.2521 27.1994L101.067 28.829C102.062 29.3951 102.613 30.5836 102.613 32.1691V80.6304C102.613 83.7768 100.399 87.6168 97.6798 89.19L55.7838 113.421C54.9889 113.881 54.2161 114.114 53.5142 114.114V114.112ZM52.064 113.149L52.3843 113.332C53.2134 113.813 54.3359 113.693 55.5392 112.994L97.4353 88.7636C100.02 87.2688 102.124 83.62 102.124 80.6279V32.1691C102.124 30.7649 101.664 29.7308 100.825 29.2529L97.9537 27.5866C97.198 26.9421 96.0535 26.9838 94.816 27.7018L52.3134 52.2927C49.9558 53.6551 48.0384 56.9854 48.0384 59.7104V108.887C48.0384 110.306 48.5643 111.316 49.4838 111.659L49.5205 111.676L52.064 113.149ZM92.8228 88.2049L92.5782 87.781L94.2119 86.8375L94.4565 87.2615L94.3342 87.0507L94.4565 87.2639L92.8228 88.2074V88.2049ZM99.3331 78.8562L98.8439 78.8513V30.1547L99.3355 30.1498C99.3355 30.1915 99.3355 30.2307 99.3355 30.2724V78.8562H99.3331Z" fill="black"/>
<path d="M47.7969 59.715C47.7969 56.9067 49.7656 53.4907 52.1941 52.0841L94.6967 27.4932C97.1252 26.0891 99.0939 27.2261 99.0939 30.0369V79.2137C99.0939 82.022 97.1228 85.438 94.6967 86.8446L52.1941 111.435C49.7656 112.84 47.7969 111.703 47.7969 108.892V59.715Z" fill="white"/>
<path d="M50.2248 112.286C49.7651 112.286 49.3371 112.178 48.958 111.958C48.0482 111.431 47.5469 110.343 47.5469 108.894V59.7151C47.5469 56.8333 49.5767 53.3144 52.0664 51.8735L94.569 27.2826C95.8211 26.5573 97.0122 26.447 97.9219 26.9738C98.8317 27.5007 99.3331 28.5887 99.3331 30.037V79.2138C99.3331 82.0956 97.3056 85.6146 94.8135 87.0555L52.311 111.646C51.5797 112.07 50.8705 112.284 50.2248 112.284V112.286ZM96.6551 27.1356C96.0951 27.1356 95.469 27.3267 94.816 27.7065L52.3134 52.2974C49.9558 53.6599 48.0384 56.9877 48.0384 59.7151V108.892C48.0384 110.159 48.4518 111.097 49.2026 111.531C49.9558 111.965 50.9708 111.857 52.0664 111.222L94.569 86.6315C96.9266 85.2691 98.8439 81.9413 98.8439 79.2138V30.0394C98.8439 28.7725 98.4306 27.834 97.6798 27.4002C97.3766 27.2262 97.0317 27.138 96.6551 27.138V27.1356Z" fill="black"/>
<path d="M13.5103 39.7018C13.5103 36.8935 15.479 33.4775 17.9075 32.0709L60.4101 7.48004C62.8386 6.0759 64.8073 7.21294 64.8073 10.0237V59.203C64.8073 62.0113 62.8361 65.4273 60.4101 66.8339L17.9051 91.4223C15.4765 92.8265 13.5078 91.6894 13.5078 88.8787V39.7018H13.5103Z" fill="white"/>
<path d="M15.9411 92.2702C15.4814 92.2702 15.0534 92.1624 14.6743 91.9419C13.767 91.4175 13.2656 90.3294 13.2656 88.8787V39.7019C13.2656 36.8201 15.2931 33.3011 17.7851 31.8602L60.2902 7.26935C61.5423 6.544 62.7358 6.43618 63.6431 6.96059C64.5529 7.48745 65.0543 8.57548 65.0543 10.0237V59.203C65.0543 62.0849 63.0268 65.6038 60.5347 67.0447L18.0297 91.6356C17.2985 92.0595 16.5892 92.2727 15.9436 92.2727L15.9411 92.2702ZM62.3738 7.12232C61.8138 7.12232 61.1877 7.31346 60.5347 7.69329L18.0297 32.2842C15.6721 33.6467 13.7548 36.9745 13.7548 39.7019V88.8787C13.7548 90.1457 14.1656 91.0842 14.9189 91.518C15.6697 91.9517 16.6871 91.8439 17.7827 91.2092L60.2853 66.6183C62.6429 65.2558 64.5602 61.928 64.5602 59.2006V10.0237C64.5602 8.75681 64.1469 7.81827 63.3961 7.38453C63.0929 7.21054 62.748 7.12232 62.3714 7.12232H62.3738Z" fill="black"/>
<path d="M73.4413 65.6458C76.0483 64.1363 78.1638 60.4679 78.1638 57.4513C78.1638 54.4347 76.0507 53.2119 73.4413 54.719C70.8342 56.2285 68.7188 59.8969 68.7188 62.9135C68.7188 65.9301 70.8318 67.1529 73.4413 65.6458Z" fill="#192026"/>
<path d="M70.1552 70.2817C66.1077 72.622 62.8281 78.317 62.8281 82.9974V83.4214C62.8281 85.2936 64.1414 86.0532 65.758 85.1171L81.1434 76.2169C82.7624 75.2808 84.0733 73.0018 84.0733 71.1296V70.7057C84.0733 66.0227 80.7937 64.126 76.7462 66.4663L70.1528 70.2817H70.1552Z" fill="#192026"/>
<path d="M36.1434 46.5783C37.9826 45.5148 39.4768 42.9246 39.4768 40.7951C39.4768 38.6656 37.985 37.803 36.1459 38.8665C34.3043 39.93 32.8125 42.5202 32.8125 44.6497C32.8125 46.7792 34.3043 47.6418 36.1459 46.5758L36.1434 46.5783Z" fill="#192026"/>
<path d="M33.8185 49.8495C30.962 51.5011 28.6484 55.5199 28.6484 58.8232V59.1222C28.6484 60.443 29.5753 60.9797 30.7174 60.3181L41.5736 54.0374C42.7157 53.3758 43.6426 51.7682 43.6426 50.4474V50.1484C43.6426 46.8451 41.3266 45.5047 38.4725 47.1564L33.8209 49.847L33.8185 49.8495Z" fill="#192026"/>
<path d="M22.4457 97.0904C20.7411 96.2083 19.6797 94.1792 19.6797 91.2484C19.6797 85.5853 23.6489 78.6994 28.5426 75.8666C31.025 74.4306 33.2676 74.3129 34.8768 75.2833L37.0901 76.5625C38.7776 77.4545 39.8268 79.4762 39.8268 82.3898C39.8268 88.053 35.8575 94.9389 30.9638 97.7717C28.4644 99.2175 26.2071 99.3278 24.5954 98.3328L22.4457 97.088V97.0904Z" fill="#FFA500"/>
<path d="M27.0092 99.2372C26.0798 99.2372 25.2214 99.0069 24.4706 98.5437L22.3307 97.3062C20.4647 96.3358 19.4375 94.1867 19.4375 91.2486C19.4375 85.5168 23.4679 78.5206 28.4227 75.656C30.8684 74.2396 33.1746 74.019 34.9257 75.0286L35.0039 75.0727L37.271 76.3838C37.3322 76.4181 37.3933 76.4524 37.4544 76.4891L37.5718 76.5577H37.5669C39.1884 77.6164 40.0762 79.6674 40.0762 82.3949C40.0762 88.1266 36.0458 95.1228 31.0909 97.9875C29.6529 98.8182 28.2662 99.2397 27.0116 99.2397L27.0092 99.2372ZM32.502 74.8963C31.333 74.8963 30.0271 75.2933 28.6673 76.0799C23.8494 78.8686 19.9266 85.6737 19.9266 91.2486C19.9266 93.9956 20.8633 95.9928 22.5606 96.8725L22.5704 96.8774L24.7201 98.1222C26.3317 99.1147 28.5034 98.9138 30.8439 97.5611C35.6642 94.7724 39.5846 87.9673 39.5846 82.3924C39.5846 79.6625 38.6577 77.6703 36.9776 76.7832L36.6009 76.5847L36.618 76.5749L34.8694 75.5628H34.867L34.7496 75.4967C34.0868 75.0972 33.3262 74.8963 32.4996 74.8963H32.502Z" fill="black"/>
<path d="M34.0359 89.2947C37.0642 84.0392 37.064 78.3585 34.0356 76.6066C31.0072 74.8546 26.0973 77.6948 23.069 82.9503C20.0408 88.2059 20.041 93.8865 23.0694 95.6385C26.0978 97.3904 31.0077 94.5502 34.0359 89.2947Z" fill="white"/>
<path d="M25.0835 96.4043C24.3034 96.4043 23.5795 96.2205 22.9411 95.8505C21.398 94.9585 20.5469 93.0961 20.5469 90.6088C20.5469 85.5828 24.0808 79.4516 28.4242 76.9374C30.574 75.6926 32.6087 75.499 34.1519 76.3934C35.6951 77.2854 36.5462 79.1478 36.5462 81.635C36.5462 86.661 33.0122 92.7922 28.6688 95.3065C27.4093 96.0367 26.1865 96.4043 25.0835 96.4043ZM32.0095 76.3297C30.9897 76.3297 29.8525 76.6752 28.6688 77.3614C24.4599 79.7972 21.036 85.7396 21.036 90.6088C21.036 92.9147 21.799 94.6252 23.1857 95.4265C24.5724 96.2278 26.4335 96.0343 28.4242 94.8825C32.6332 92.4467 36.0571 86.5042 36.0571 81.635C36.0571 79.3291 35.294 77.6187 33.9073 76.8173C33.3449 76.4914 32.7041 76.3297 32.0095 76.3297Z" fill="black"/>
<path fill-rule="evenodd" clip-rule="evenodd" d="M36.3068 63.8446C43.5972 59.6273 49.5059 49.3694 49.5059 40.9347C49.5059 32.5001 43.5972 29.0816 36.3068 33.2989C29.0164 37.5163 23.1077 47.7741 23.1077 56.2088C23.1077 64.6435 29.0164 68.0619 36.3068 63.8446ZM36.3068 64.7096C44.0105 60.2521 50.2542 49.416 50.2542 40.5035C50.2542 31.5909 44.0105 27.9789 36.3068 32.4339C28.6031 36.8914 22.3594 47.7276 22.3594 56.6401C22.3594 65.5526 28.6031 69.1646 36.3068 64.7096Z" fill="#192026"/>
<path d="M88.7092 2.74081C87.0217 1.65768 84.6348 1.75325 81.9911 3.28482C76.8773 6.24259 72.7344 13.4348 72.7344 19.3504C72.7344 22.3498 73.8007 24.445 75.5175 25.3958L77.8311 26.7362C79.5161 27.7973 81.8908 27.6919 84.5199 26.1701C89.6337 23.2124 93.7766 16.0201 93.7766 10.1046C93.7766 7.08311 92.6956 4.98058 90.9568 4.03958L88.7092 2.74081Z" fill="#FFA500"/>
<path d="M80.3813 27.692C79.5474 27.692 78.7696 27.5131 78.0702 27.1578L77.9993 27.121C77.9137 27.0745 77.8281 27.0279 77.7449 26.9765L77.7033 26.952L75.2675 25.5405C73.4724 24.472 72.4844 22.2837 72.4844 19.3529C72.4844 13.3688 76.6933 6.06625 81.8634 3.07417C84.512 1.5426 86.987 1.35146 88.831 2.53261L91.0736 3.82893C92.969 4.85569 94.0157 7.08566 94.0157 10.1071C94.0157 16.0913 89.8068 23.3938 84.6367 26.3859C83.1351 27.2534 81.6873 27.692 80.3789 27.692H80.3813ZM77.5811 26.2952L77.9552 26.5305C79.6378 27.5915 81.9245 27.3906 84.3921 25.9619C89.4301 23.0483 93.5266 15.9369 93.5266 10.1071C93.5266 7.27435 92.5703 5.19631 90.8364 4.25777L88.5742 2.9492C86.8891 1.86607 84.5927 2.06211 82.1079 3.49811C77.0699 6.41177 72.9735 13.5256 72.9735 19.3529C72.9735 22.1637 73.9151 24.2343 75.6295 25.1851L75.7566 25.2611L77.5811 26.3173V26.2977V26.2952Z" fill="black"/>
<path d="M87.7207 17.3103C90.884 11.8204 90.8843 5.88656 87.7214 4.05679C84.5585 2.22702 79.43 5.19417 76.2667 10.6841C73.1034 16.174 73.1031 22.1078 76.2661 23.9376C79.429 25.7674 84.5574 22.8002 87.7207 17.3103Z" fill="white"/>
<path d="M78.3734 24.7269C77.559 24.7269 76.8082 24.5358 76.143 24.1511C74.5338 23.2199 73.6484 21.2791 73.6484 18.684C73.6484 13.4374 77.3364 7.0367 81.8706 4.41465C84.1133 3.11833 86.2336 2.91493 87.8429 3.84613C89.4521 4.77732 90.3374 6.71813 90.3374 9.31322C90.3374 14.5598 86.6494 20.9605 82.1152 23.5826C80.7995 24.3422 79.5277 24.7269 78.3758 24.7269H78.3734ZM74.1351 18.684C74.1351 21.0953 74.9348 22.8866 76.3851 23.7271C77.8354 24.5652 79.7821 24.3643 81.8682 23.1586C86.2679 20.615 89.8458 14.4029 89.8458 9.31322C89.8458 6.90192 89.0461 5.11059 87.5959 4.27007C86.1456 3.42954 84.1989 3.63293 82.1128 4.83859C77.7131 7.38222 74.1351 13.5943 74.1351 18.684Z" fill="black"/>
<path fill-rule="evenodd" clip-rule="evenodd" d="M86.0535 15.0793C84.7867 18.9364 82.6027 20.2596 79.5432 19.1937C79.3451 19.674 79.1495 20.1518 78.9514 20.637C78.7778 21.0561 78.6041 20.9311 78.4378 20.6615C77.8166 19.6005 77.2003 18.5345 76.5791 17.4759C76.4715 17.248 76.4838 17.0568 76.6819 16.9196C77.9487 16.3315 79.2106 15.7458 80.4775 15.1577C80.7709 15.0744 80.9617 15.3782 80.7881 15.763C80.6095 16.2114 80.4286 16.6549 80.2427 17.1058C82.8497 18.113 84.684 17.1769 86.0535 15.0817V15.0793ZM76.2734 14.3784C77.5403 10.5213 79.7218 9.19804 82.7788 10.264C82.9769 9.78371 83.1726 9.29851 83.3707 8.82066C83.5443 8.40162 83.7179 8.5266 83.8842 8.79615C84.5054 9.85723 85.1217 10.9232 85.7429 11.9818C85.8505 12.2097 85.8383 12.4009 85.6402 12.5381C84.3734 13.1262 83.1114 13.7119 81.8446 14.3C81.5511 14.3833 81.3603 14.0795 81.534 13.6947C81.7125 13.2463 81.8935 12.8027 82.0769 12.3518C79.4772 11.352 77.6405 12.2808 76.2734 14.376V14.3784Z" fill="white"/>
<mask id="mask1_5015_11638" style="mask-type:luminance" maskUnits="userSpaceOnUse" x="23" y="79" width="12" height="14">
<path d="M23.2031 89.0971L28.5346 79.5132L34.7367 83.1522L29.4052 92.7337L23.2031 89.0971Z" fill="white"/>
</mask>
<g mask="url(#mask1_5015_11638)">
<path d="M25.1704 88.3865C25.1141 88.3546 26.31 86.3329 26.31 86.3329L26.6157 86.5094L26.6011 89.2196C26.6011 89.2196 25.2266 88.4183 25.1704 88.3865ZM28.2029 89.4402L28.1491 86.5829L29.1445 87.1637L29.1983 89.0677L28.2029 89.4377M27.4228 84.3186L28.3668 82.6155L28.6798 82.7993L28.6847 85.0538L27.4228 84.3186ZM30.2084 84.8847L30.1325 82.4464L30.9812 82.9414L31.057 84.6519L30.2084 84.8847ZM32.4852 81.8264L28.5282 79.5181L23.2188 89.102L27.6943 91.7094L31.0203 89.8298L30.5874 86.8157L32.8276 85.659L32.4828 81.8289" fill="black"/>
</g>
<path d="M87.518 11.2637C88.0682 10.1022 87.1389 9.70764 85.7449 9.59001L86.6864 7.98003L85.5566 7.97513L84.6395 9.54345C84.3435 9.54345 84.0354 9.5459 83.7297 9.5508L84.6517 7.97267L83.5218 7.96777L82.5802 9.57776C82.6316 9.57776 80.3009 9.57041 80.3009 9.57041L79.6895 10.6168C79.6895 10.6168 80.5332 10.607 80.5112 10.6192C80.9686 10.6192 80.9832 10.852 80.9099 11.053L78.3297 15.4663C78.2368 15.5913 78.0363 15.7898 77.7159 15.7898C77.7232 15.8021 76.8941 15.7849 76.8941 15.7849L75.9844 16.9563L77.4566 16.9636C77.7306 16.9636 77.9971 16.971 78.2613 16.9734L77.3099 18.603L78.4398 18.6079L79.3814 16.9955C79.6871 17.0028 79.9879 17.0053 80.2813 17.0077L79.3422 18.6128L80.4721 18.6177L81.4235 16.9906C83.38 16.9048 84.9525 16.4956 86.0212 14.9493C86.8821 13.7044 86.5324 13.1433 85.5859 12.9154C86.4101 12.6286 87.1193 12.1214 87.5204 11.2711L87.518 11.2637ZM83.9009 14.741C83.1892 15.9589 80.8659 15.8094 80.1004 15.807L81.3623 13.6481C82.1278 13.6505 84.6419 13.4716 83.9009 14.741ZM85.1555 11.6926C84.5074 12.8002 82.5778 12.663 81.9419 12.6605L83.0865 10.7025C83.7248 10.705 85.8329 10.5384 85.1579 11.6926H85.1555Z" fill="#231F20"/>
</g>
<defs>
<clipPath id="clip0_5015_11638">
<rect width="89.3461" height="112.346" fill="white" transform="translate(13.2656 1.76562)"/>
</clipPath>
</defs>
</svg>
