<svg width="50" height="50" viewBox="0 0 50 50" fill="none" xmlns="http://www.w3.org/2000/svg">
<path opacity="0.4" d="M42.414 26.5211C41.6432 26.5211 40.9973 25.9378 40.914 25.1669C40.414 20.5836 37.9557 16.4586 34.164 13.8336C33.4765 13.3544 33.3098 12.4169 33.789 11.7294C34.2682 11.0419 35.2057 10.8753 35.8932 11.3544C40.414 14.5003 43.3307 19.4169 43.9348 24.8544C44.0182 25.6878 43.414 26.4378 42.5807 26.5211C42.5182 26.5211 42.4765 26.5211 42.414 26.5211Z" fill="#FFA500"/>
<path opacity="0.4" d="M7.78893 26.6252C7.74726 26.6252 7.68476 26.6252 7.6431 26.6252C6.80976 26.5418 6.2056 25.7918 6.28893 24.9585C6.85143 19.521 9.72643 14.6043 14.2056 11.4377C14.8723 10.9585 15.8306 11.1252 16.3098 11.7918C16.7889 12.4793 16.6223 13.4168 15.9556 13.896C12.2056 16.5627 9.7681 20.6877 9.30976 25.2502C9.22643 26.0418 8.55976 26.6252 7.78893 26.6252Z" fill="#FFA500"/>
<path opacity="0.4" d="M33.3116 43.9584C30.7491 45.1875 27.9991 45.8125 25.1241 45.8125C22.1241 45.8125 19.2699 45.1459 16.6033 43.7917C15.8533 43.4375 15.5616 42.5209 15.9366 41.7709C16.2908 41.0209 17.2074 40.7292 17.9574 41.0834C19.2699 41.75 20.6658 42.2084 22.0824 42.4792C23.9991 42.8542 25.9574 42.875 27.8741 42.5417C29.2908 42.2917 30.6866 41.8542 31.9783 41.2292C32.7491 40.875 33.6658 41.1667 33.9991 41.9375C34.3741 42.6875 34.0824 43.6042 33.3116 43.9584Z" fill="#FFA500"/>
<path d="M25.1016 4.1875C21.8724 4.1875 19.2266 6.8125 19.2266 10.0625C19.2266 13.3125 21.8516 15.9375 25.1016 15.9375C28.3516 15.9375 30.9766 13.3125 30.9766 10.0625C30.9766 6.8125 28.3516 4.1875 25.1016 4.1875Z" fill="#FFA500"/>
<path d="M10.5234 28.8955C7.29427 28.8955 4.64844 31.5205 4.64844 34.7705C4.64844 38.0205 7.27344 40.6455 10.5234 40.6455C13.7734 40.6455 16.3984 38.0205 16.3984 34.7705C16.3984 31.5205 13.7526 28.8955 10.5234 28.8955Z" fill="#FFA500"/>
<path d="M39.4766 28.8955C36.2474 28.8955 33.6016 31.5205 33.6016 34.7705C33.6016 38.0205 36.2266 40.6455 39.4766 40.6455C42.7266 40.6455 45.3516 38.0205 45.3516 34.7705C45.3516 31.5205 42.7266 28.8955 39.4766 28.8955Z" fill="#FFA500"/>
</svg>
