<svg width="115" height="115" viewBox="0 0 115 115" fill="none" xmlns="http://www.w3.org/2000/svg">
<mask id="mask0_5015_11596" style="mask-type:alpha" maskUnits="userSpaceOnUse" x="0" y="0" width="115" height="115">
<rect width="115" height="115" fill="#D9D9D9"/>
</mask>
<g mask="url(#mask0_5015_11596)">
<g clip-path="url(#clip0_5015_11596)">
<path d="M108.801 71.9254C108.801 74.8641 108.763 77.8028 108.82 80.7399C108.842 81.8757 108.366 82.5699 107.427 83.0957C99.8879 87.3195 92.3568 91.5544 84.8226 95.7861C75.7904 100.861 66.7662 105.952 57.7229 111.009C53.291 113.487 48.8417 113.415 44.4399 110.891C42.1255 109.563 39.8317 108.197 37.5062 106.888C37.225 106.731 36.7532 106.718 36.4451 106.836C35.3855 107.239 34.3657 107.749 33.3173 108.181C32.1307 108.67 31.0108 108.662 29.8512 107.935C25.6179 105.282 21.3464 102.691 17.0845 100.085C16.0282 99.4381 15.4404 98.5723 15.5341 97.2793C15.5929 96.4628 15.5119 95.6368 15.5564 94.8187C15.585 94.2786 15.4086 93.9737 14.9273 93.7004C12.651 92.4106 10.4097 91.062 8.13653 89.7657C6.66559 88.927 5.91741 87.7213 5.9603 86.0105C5.99365 84.7143 5.98412 83.4165 5.9603 82.1203C5.93488 80.778 6.54327 79.7964 7.60597 79.0482C7.75688 78.9418 7.92208 78.8576 8.08093 78.7623C8.80529 78.3318 9.91564 78.0538 10.1634 77.4327C10.5288 76.5161 10.3016 75.3549 10.2715 74.3002C10.2651 74.1 10.0427 73.8443 9.85051 73.7204C9.18335 73.2931 8.48123 72.9214 7.80295 72.5115C6.6227 71.7999 5.99842 70.7467 5.97459 69.3695C5.94918 67.835 5.92694 66.2989 5.96824 64.7645C6.00636 63.3269 6.84191 62.3754 8.0444 61.7003C11.7329 59.6304 15.4198 57.5606 19.1082 55.4908C25.8387 51.715 32.566 47.9344 39.3059 44.1728C39.7587 43.9203 39.8587 43.7074 39.7205 43.1895C38.8262 39.8537 38.445 36.4829 39.3695 33.0851C40.0398 30.623 41.4075 28.7152 43.795 27.6001C44.8688 27.0981 45.895 26.477 46.8878 25.8257C49.6137 24.0387 52.465 24.0705 55.3878 25.1856C59.2908 26.674 62.3041 29.3458 64.8155 32.5895C66.0561 34.1923 67.0553 35.981 68.1831 37.6743C68.3658 37.9491 68.5993 38.2319 68.8789 38.3939C80.7497 45.315 92.6284 52.2233 104.507 59.1332C105.625 59.7829 106.75 60.4215 107.865 61.0776C108.544 61.4763 108.817 62.0799 108.812 62.8694C108.793 65.8875 108.804 68.9041 108.804 71.9222L108.801 71.9254ZM69.1156 39.2771C69.7033 41.0228 70.3625 42.5939 70.7597 44.2268C71.9669 49.2036 72.4768 54.1184 68.7359 58.4407C68.89 58.5439 69.0362 58.6551 69.1918 58.7457C71.7509 60.2325 74.3052 61.7288 76.877 63.1966C77.4234 63.508 77.6696 63.8924 77.6426 64.5341C77.5981 65.5905 77.5918 66.6532 77.6442 67.7095C77.676 68.3243 77.4647 68.6626 76.9294 68.9581C73.5729 70.8087 70.2275 72.6815 66.8996 74.5813C66.4088 74.8625 66.0625 74.8291 65.6018 74.5559C63.0761 73.0627 60.5345 71.5982 57.9977 70.124C49.5215 65.1949 41.0453 60.2627 32.5628 55.3447C32.172 55.1191 31.9957 54.8777 32.0116 54.4154C32.0433 53.3845 32.0672 52.3488 32.0068 51.3195C31.9607 50.53 32.234 50.0598 32.9377 49.6785C35.1917 48.4554 37.395 47.1401 39.6522 45.9249C40.3527 45.5485 40.5195 45.1831 40.0303 44.5144C39.8047 44.6287 39.5664 44.7399 39.3393 44.867C32.4468 48.735 25.5559 52.6061 18.6651 56.4757C15.2069 58.4168 11.744 60.3469 8.29061 62.2959C6.05243 63.5604 6.03813 65.9622 8.24614 67.2552C8.70203 67.5221 9.15634 67.7937 9.61224 68.059C12.0315 69.4648 14.4508 70.869 16.77 72.2145C17.5039 71.6808 18.1202 71.128 18.8271 70.734C20.8604 69.6046 22.927 68.5339 24.9841 67.4474C28.5963 65.5396 32.369 65.2918 36.2036 66.5753C38.8437 67.4585 40.8976 68.9279 41.1025 72.1081C41.3106 75.3311 40.5831 77.9632 37.4522 79.5295C36.0924 80.2094 34.8248 81.0767 33.465 81.89C33.6811 82.0361 33.8256 82.1473 33.9829 82.2379C37.6841 84.3903 41.3662 86.5776 45.0944 88.6824C49.0958 90.9412 53.1941 90.9825 57.1971 88.7475C70.8597 81.1164 84.4906 73.4313 98.1326 65.7652C100.892 64.2148 103.649 62.6613 106.521 61.0458C94.012 53.7641 81.5995 46.5397 69.1188 39.2739L69.1156 39.2771ZM32.674 82.2252C32.674 83.4912 32.6962 84.546 32.6644 85.5991C32.6501 86.082 32.8058 86.3537 33.2363 86.5983C35.4872 87.8802 37.7111 89.2082 39.954 90.5012C42.0604 91.7148 44.1064 93.0682 46.3112 94.0658C50.3523 95.8957 54.2393 95.2508 58.0581 93.0873C72.7564 84.7652 87.496 76.5193 102.221 68.2464C103.545 67.503 104.542 68.0765 104.547 69.5871C104.555 72.5512 104.537 75.517 104.555 78.4811C104.561 79.4818 104.162 80.1887 103.287 80.6812C88.0313 89.2527 72.7945 97.8559 57.5164 106.389C53.3816 108.699 49.1038 108.685 44.9324 106.402C41.9651 104.779 39.074 103.019 36.148 101.32C35.0377 100.677 33.9273 100.035 32.674 99.311C32.674 100.55 32.693 101.624 32.6644 102.696C32.6517 103.15 32.809 103.4 33.2109 103.63C37.1281 105.884 41.0136 108.194 44.9403 110.429C49.072 112.781 53.2577 112.778 57.402 110.456C70.361 103.193 83.3072 95.91 96.2566 88.6331C99.8291 86.6269 103.39 84.6 106.974 82.6159C107.83 82.141 108.196 81.5548 108.188 80.535C108.14 74.6846 108.167 68.8358 108.164 62.9853C108.164 61.6351 107.478 61.2348 106.31 61.8909C90.0424 71.0326 73.7794 80.1855 57.5005 89.3083C53.7771 91.3939 49.844 91.6688 45.9982 89.8229C43.0055 88.3853 40.1955 86.5633 37.3076 84.9081C35.824 84.0567 34.3467 83.1941 32.674 82.2236V82.2252ZM32.674 87.0081C32.674 87.4068 32.674 87.661 32.674 87.9167C32.674 89.8229 32.7057 91.7291 32.6565 93.6337C32.639 94.3025 32.8455 94.671 33.4269 95.0062C37.4077 97.3095 41.3662 99.6478 45.3295 101.98C48.0871 103.602 51.0544 104.159 54.0996 103.198C55.9136 102.626 57.6149 101.638 59.2939 100.706C73.9478 92.5758 88.5841 84.4125 103.235 76.2779C103.746 75.9935 103.939 75.6949 103.927 75.1135C103.889 73.3407 103.916 71.5664 103.913 69.7936C103.912 68.5165 103.489 68.2734 102.372 68.9009C87.4373 77.2881 72.5118 85.6913 57.5625 94.0499C53.2704 96.4501 48.9179 96.3723 44.6385 93.9467C42.0858 92.5011 39.5649 91 37.028 89.5259C35.6206 88.7078 34.2085 87.8945 32.674 87.0081ZM66.1959 52.7809C66.1959 52.1995 66.2229 51.6165 66.188 51.0367C66.1562 50.5109 66.0768 49.9835 65.9815 49.4641C64.8457 43.3071 62.023 38.0111 57.7309 33.4934C55.3894 31.0296 52.7112 29.0313 49.3833 28.0735C44.7052 26.7264 40.8674 28.9233 39.9032 33.6951C39.5315 35.5314 39.4473 37.4996 39.6506 39.3613C40.2876 45.2053 42.8435 50.2615 46.5082 54.7919C46.7178 55.0508 47.0006 55.2716 47.2897 55.4416C50.9591 57.5956 54.6238 59.7543 58.3202 61.8591C58.8031 62.1339 59.4734 62.2721 60.0246 62.2054C62.0929 61.9592 63.6686 60.8695 64.7552 59.0967C65.9434 57.1588 66.2642 55.0048 66.1959 52.7793V52.7809ZM29.2873 106.812C29.2301 105.937 29.1348 105.15 29.1332 104.362C29.1221 97.0601 29.1332 89.7578 29.1205 82.4555C29.1173 80.9893 29.7273 79.9393 30.9934 79.2102C33.1902 77.9426 35.3808 76.6639 37.5459 75.3406C38.2369 74.9181 38.9152 74.4193 39.46 73.8268C40.6498 72.5338 40.7197 70.8182 39.5537 69.5077C38.8866 68.7579 38.0399 68.0574 37.1329 67.6523C33.3602 65.9669 29.5335 65.9622 25.7942 67.7731C23.537 68.8659 21.3496 70.1018 19.1368 71.2868C17.1925 72.3273 16.187 73.9602 16.1854 76.1682C16.1759 83.2323 16.1886 90.2963 16.1743 97.3603C16.1727 98.3277 16.5381 99.0124 17.372 99.5143C19.6579 100.892 21.9199 102.307 24.1946 103.703C25.8768 104.736 27.5654 105.76 29.2889 106.812H29.2873ZM103.892 76.6559C103.567 76.8243 103.379 76.9132 103.2 77.0133C99.8259 78.8877 96.452 80.759 93.0812 82.6382C81.1214 89.3019 69.168 95.9783 57.2003 102.629C53.1179 104.898 49.018 104.852 44.9737 102.498C41.1136 100.25 37.2695 97.9767 33.4158 95.7178C33.2014 95.5923 32.9758 95.4843 32.674 95.3239C32.674 96.2849 32.7042 97.1316 32.6613 97.9751C32.6374 98.4484 32.8455 98.6756 33.222 98.8932C37.2044 101.192 41.1518 103.554 45.1627 105.802C49.1387 108.029 53.218 108.043 57.1955 105.83C66.3437 100.744 75.4537 95.5892 84.578 90.4631C90.6158 87.0701 96.6521 83.6755 102.69 80.2856C103.255 79.9679 103.832 79.6486 103.88 78.9211C103.926 78.2142 103.889 77.5026 103.889 76.6591L103.892 76.6559ZM32.4579 50.7111C32.8122 50.9557 32.9901 51.0971 33.1855 51.2098C43.8347 57.3859 54.4887 63.5524 65.1285 69.7444C65.9386 70.2162 66.6185 70.2066 67.4143 69.7491C70.3927 68.0383 73.3934 66.3688 76.3829 64.6787C76.618 64.5468 76.8277 64.3721 77.0469 64.2196C76.9548 64.0782 76.9373 64.0163 76.896 63.9924C74.0701 62.3372 71.2458 60.682 68.4119 59.0411C68.2784 58.9633 68.037 58.941 67.9083 59.0093C67.3571 59.3048 66.8297 59.6432 66.1769 60.0355C67.4826 60.8107 68.6819 61.5239 70.0242 62.3214C69.6271 62.5962 69.4269 62.7566 69.2061 62.8821C67.6653 63.7526 66.1006 64.585 64.5836 65.4952C64.0515 65.8145 63.6734 65.797 63.1492 65.4888C55.588 61.0553 48.0125 56.6441 40.4449 52.2217C40.213 52.0867 40.016 51.8897 39.6856 51.6308C40.6975 51.0415 41.5743 50.5316 42.4448 50.0248C41.8158 48.6794 41.2153 47.3991 40.6053 46.0933C37.9065 47.6246 35.2537 49.1273 32.4579 50.7127V50.7111ZM65.9958 45.9265C67.0442 45.334 68.1704 44.651 69.3411 44.0537C69.9559 43.7392 70.029 43.4103 69.6112 42.8544C69.06 43.161 68.5183 43.4882 67.9512 43.7614C67.8067 43.8313 67.5811 43.7344 67.3937 43.7153C67.4763 43.5501 67.5176 43.3246 67.651 43.2308C67.9941 42.9878 68.361 42.7575 68.7518 42.605C69.3872 42.3572 69.4666 42.0204 69.2125 41.393C67.6383 37.5012 65.4779 33.9795 62.5726 30.947C60.1295 28.3975 57.3623 26.3023 53.8708 25.3651C51.1354 24.6328 48.6653 25.1617 46.4081 26.9472C46.5145 26.9853 46.578 27.0266 46.6432 27.0282C49.153 27.0679 51.4023 27.9305 53.5023 29.2331C57.6784 31.8255 60.7506 35.4568 63.0873 39.7139C64.1738 41.6932 65.0141 43.8059 65.9958 45.9265ZM65.9259 73.992C65.9259 73.3248 65.8592 72.8165 65.9402 72.3336C66.1197 71.2503 65.6574 70.7229 64.7075 70.178C54.3458 64.2371 44.0238 58.2294 33.689 52.2408C33.3856 52.0645 33.0743 51.904 32.6533 51.6721C32.6533 52.452 32.6994 53.0636 32.6406 53.6641C32.5707 54.3868 32.8376 54.7855 33.4762 55.1557C41.5759 59.8338 49.6566 64.5468 57.7452 69.2488C60.4138 70.8007 63.0857 72.3447 65.9259 73.992ZM40.4719 73.8681C39.6713 74.5114 38.9342 75.2326 38.0796 75.7648C35.9479 77.088 33.7843 78.3651 31.589 79.5803C30.2801 80.3047 29.7369 81.3023 29.7448 82.7938C29.7845 89.8579 29.7591 96.9235 29.7654 103.988C29.7654 104.648 29.7861 105.312 29.8592 105.968C30.0403 107.609 30.9965 108.273 32.5596 107.747C33.797 107.331 34.9805 106.756 36.3434 106.188C35.4221 105.663 34.6485 105.219 33.8701 104.783C33.7843 104.736 33.67 104.726 33.5699 104.726C32.3324 104.712 32.0418 104.434 32.0418 103.195C32.0386 96.474 32.0481 89.753 32.029 83.0321C32.0275 82.276 32.3102 81.8042 32.9535 81.4357C34.6501 80.4635 36.3291 79.4596 38.0018 78.4461C39.7396 77.393 40.4195 75.7743 40.4735 73.8697L40.4719 73.8681ZM65.1459 59.8131C70.8582 57.4066 71.5333 52.0359 70.658 47.21C69.3999 47.9169 68.153 48.5952 66.9394 49.3291C66.7726 49.4307 66.69 49.8279 66.7185 50.0693C67.1093 53.4036 67.0442 56.6616 65.1459 59.8131ZM16.3427 72.7228C13.1816 70.8722 9.91246 68.9565 6.60205 67.0185C6.60205 67.7016 6.60522 68.4561 6.60205 69.2106C6.59569 70.4608 7.14213 71.3917 8.21595 72.0175C10.0427 73.0834 11.8695 74.1477 13.6978 75.2104C14.2824 75.5503 14.8717 75.8855 15.3594 76.1667C15.6898 75.0102 16.0043 73.9062 16.3427 72.7212V72.7228ZM10.4033 78.2079C9.54235 78.6844 8.91966 79.0212 8.30332 79.3706C6.06672 80.643 6.03019 83.0258 8.24137 84.3347C10.4255 85.6261 12.6256 86.8922 14.8193 88.1677C15.029 88.29 15.245 88.3996 15.5468 88.5617C15.5468 88.0629 15.496 87.7102 15.5564 87.3767C15.8423 85.7961 15.2927 84.7811 13.7598 84.1425C11.2643 83.1004 9.80921 81.3181 10.4049 78.2079H10.4033ZM6.60205 84.0805C6.60205 84.7398 6.61317 85.453 6.59887 86.1646C6.57187 87.5149 7.18185 88.4807 8.33668 89.1446C9.96171 90.0787 11.5788 91.0286 13.2006 91.9706C13.9441 92.4026 14.6891 92.8331 15.5453 93.3303C15.5453 92.2676 15.4849 91.3447 15.5627 90.4345C15.6326 89.6164 15.4039 89.0684 14.6192 88.7841C14.4969 88.7396 14.3872 88.657 14.2745 88.5903C11.7345 87.0971 9.19447 85.6039 6.60205 84.0805ZM10.9577 74.3605C10.9577 76.4399 10.8751 78.3874 11.0038 80.3206C11.0482 80.9877 11.4676 81.8042 11.9823 82.2268C13.0227 83.0798 14.2459 83.7104 15.5437 84.5269C15.5437 81.9774 15.5468 79.6407 15.5341 77.3024C15.5341 77.1706 15.4372 76.98 15.3276 76.9148C13.9091 76.0713 12.4795 75.2453 10.9577 74.359V74.3605ZM66.6121 73.9444C70.0544 72.0128 73.3251 70.1796 76.5894 68.337C76.734 68.256 76.9151 68.0765 76.9198 67.9383C76.95 67.0551 76.9357 66.1703 76.9357 65.2458C76.7403 65.3014 76.6577 65.3093 76.5926 65.3458C73.36 67.1424 70.1274 68.939 66.9028 70.7483C66.7694 70.823 66.6296 71.0215 66.6248 71.1677C66.5994 72.0318 66.6121 72.8975 66.6121 73.9444ZM66.5502 48.7906C67.9528 47.9963 69.2935 47.2354 70.6548 46.4634C70.4769 45.7248 70.3165 45.056 70.1402 44.3253C68.8281 45.064 67.6081 45.7375 66.4088 46.4428C66.2499 46.5365 66.0784 46.8145 66.1054 46.9749C66.2039 47.5643 66.3834 48.1409 66.5502 48.7906Z" fill="black"/>
<path d="M92.8716 22.3962C92.7922 24.358 92.4761 26.2149 91.3959 27.8717C91.1243 28.2879 90.8209 28.7263 90.4301 29.0154C88.5493 30.4022 86.5272 31.5824 84.2668 32.1861C82.1811 32.7436 80.2304 32.0352 78.4402 30.9629C74.596 28.6628 72.064 25.2221 70.2261 21.2318C68.7901 18.1152 67.9879 14.8445 68.2897 11.38C68.4644 9.38801 68.9299 7.4151 70.5549 6.1316C72.4627 4.62412 74.6739 3.49788 77.0296 2.92443C79.4409 2.33828 81.6267 3.3565 83.5599 4.74485C88.2221 8.09498 90.9003 12.7683 92.2505 18.2518C92.5825 19.602 92.6699 21.011 92.87 22.393L92.8716 22.3962ZM68.6948 12.7779C68.744 12.7906 68.7948 12.8033 68.8441 12.816C68.8917 13.4752 68.8997 14.1408 68.995 14.7921C69.6749 19.4765 71.6494 23.5717 74.7755 27.0997C76.5864 29.1441 78.6896 30.8184 81.4138 31.5141C84.2604 32.2401 86.659 31.0185 87.763 28.2958C88.4985 26.4834 88.6018 24.5867 88.3825 22.6773C87.8583 18.085 86.0189 14.0423 83.0944 10.4952C81.2169 8.21729 79.0263 6.3254 76.1083 5.49938C73.0949 4.64636 70.5533 5.89809 69.524 8.85269C69.0871 10.1044 68.9632 11.4658 68.6979 12.7779H68.6948ZM88.9528 20.6997C89.6994 20.2851 90.4936 19.8101 91.3197 19.3987C91.7343 19.1922 91.793 18.9777 91.693 18.5314C90.8383 14.7428 89.1164 11.3847 86.6479 8.41427C84.918 6.33175 82.8689 4.63683 80.2463 3.77745C78.321 3.14841 76.4895 3.32315 74.6993 4.59394C77.2837 4.87987 79.3313 6.04265 81.166 7.62161C83.5456 9.66759 85.4152 12.125 86.7083 14.9747C87.5438 16.8158 88.1919 18.7426 88.9512 20.6997H88.9528ZM89.1561 23.0618C89.5691 22.833 89.9202 22.5947 90.3062 22.4422C90.5302 22.3533 90.8082 22.4025 91.0623 22.3898C90.9051 22.5947 90.7764 22.8346 90.581 22.9935C90.3602 23.1745 90.0902 23.3064 89.8249 23.4176C89.2784 23.6463 89.0576 23.9799 89.0847 24.6232C89.1545 26.2832 88.7908 27.8717 88.0172 29.3554C87.9425 29.4967 87.8981 29.654 87.8154 29.8653C91.8359 28.3673 92.6238 24.1721 91.8502 19.8387C91.2116 20.185 90.5905 20.517 89.9742 20.8601C89.2138 21.2826 88.9126 21.9339 89.0704 22.814C89.0799 22.8648 89.1037 22.9124 89.1577 23.0602L89.1561 23.0618Z" fill="black"/>
<path d="M28.0404 18.114C27.0237 18.5238 26.0214 18.9702 24.9873 19.3276C24.4281 19.5214 24.139 19.8407 23.95 20.3871C23.6005 21.3974 23.1732 22.3807 22.7777 23.3735C22.7062 23.3798 22.6331 23.3878 22.5617 23.3941C22.2344 22.5856 21.8357 21.7961 21.599 20.9622C21.3115 19.9519 20.7412 19.3625 19.7262 19.0766C18.8827 18.8399 18.0837 18.4476 17.2656 18.1251C17.2688 18.052 17.272 17.9806 17.2752 17.9075C18.2902 17.4992 19.2957 17.0688 20.3235 16.6955C20.8318 16.5112 21.1447 16.2443 21.329 15.709C21.6864 14.6685 22.1375 13.6614 22.549 12.64C22.622 12.6305 22.6951 12.6194 22.7666 12.6099C23.0684 13.3739 23.4353 14.1189 23.6545 14.9068C23.9659 16.0204 24.5981 16.7018 25.7339 17.0068C26.5297 17.2197 27.2827 17.5961 28.0547 17.8995L28.0404 18.1156V18.114Z" fill="black"/>
<path d="M69.1193 39.2773C81.6001 46.5431 94.0126 53.7676 106.522 61.0492C103.65 62.6647 100.892 64.2183 98.1332 65.7686C84.4912 73.4347 70.8587 81.1214 57.1977 88.751C53.1947 90.986 49.0964 90.9447 45.095 88.6858C41.3668 86.5811 37.6847 84.3937 33.9835 82.2413C33.8262 82.1508 33.6817 82.0396 33.4656 81.8934C34.8254 81.0801 36.093 80.2128 37.4527 79.5329C40.5853 77.9683 41.3112 75.3361 41.1031 72.1115C40.8982 68.9313 38.8443 67.462 36.2042 66.5788C32.3696 65.2953 28.5985 65.5431 24.9847 67.4509C22.9276 68.5374 20.8609 69.6064 18.8277 70.7375C18.1208 71.1298 17.5029 71.6826 16.7706 72.2179C14.4514 70.8709 12.0321 69.4667 9.61282 68.0624C9.15534 67.7971 8.70262 67.5255 8.24672 67.2586C6.03871 65.964 6.05301 63.5622 8.2912 62.2994C11.7446 60.3503 15.2075 58.4203 18.6656 56.4791C25.5581 52.6096 32.449 48.7384 39.3399 44.8704C39.567 44.7433 39.8037 44.6322 40.0309 44.5178C40.5217 45.1865 40.3533 45.5519 39.6528 45.9284C37.3956 47.1436 35.1923 48.4588 32.9382 49.682C32.2345 50.0632 31.9613 50.5334 32.0074 51.3229C32.0678 52.3522 32.0439 53.3879 32.0122 54.4189C31.9979 54.8795 32.1742 55.121 32.5634 55.3481C41.0475 60.2661 49.5221 65.1984 57.9983 70.1275C60.5351 71.6016 63.0767 73.0662 65.6024 74.5594C66.0631 74.8326 66.4094 74.8644 66.9002 74.5848C70.2297 72.6849 73.5735 70.8137 76.93 68.9615C77.4669 68.6661 77.6766 68.3277 77.6448 67.713C77.5908 66.6566 77.5987 65.5939 77.6432 64.5376C77.6702 63.8958 77.424 63.513 76.8775 63.2001C74.3074 61.7323 71.7515 60.2375 69.1924 58.7491C69.0352 58.6586 68.889 58.5474 68.7365 58.4441C72.479 54.1218 71.9691 49.207 70.7603 44.2303C70.3631 42.5957 69.7039 41.0247 69.1162 39.2805L69.1193 39.2773Z" fill="white"/>
<path d="M32.6745 82.2254C34.3488 83.1959 35.8245 84.0585 37.3081 84.9099C40.196 86.5667 43.0045 88.3887 45.9988 89.8247C49.8445 91.6705 53.7776 91.3957 57.501 89.31C73.7799 80.1873 90.0429 71.0344 106.311 61.8927C107.478 61.2366 108.163 61.6353 108.164 62.9871C108.169 68.8376 108.142 74.688 108.188 80.5368C108.196 81.5566 107.831 82.1428 106.975 82.6177C103.389 84.6018 99.828 86.6271 96.2571 88.6349C83.3061 95.9118 70.3599 103.195 57.4026 110.458C53.2598 112.78 49.0725 112.783 44.9408 110.431C41.0141 108.194 37.127 105.886 33.2114 103.632C32.8111 103.402 32.6538 103.154 32.665 102.698C32.6935 101.626 32.6745 100.552 32.6745 99.3128C33.9278 100.037 35.0382 100.679 36.1485 101.322C39.0745 103.02 41.9672 104.78 44.9329 106.404C49.1027 108.686 53.3805 108.701 57.5169 106.391C72.7935 97.8577 88.0319 89.2544 103.288 80.6829C104.161 80.1921 104.562 79.4852 104.555 78.4829C104.538 75.5188 104.555 72.553 104.547 69.5889C104.544 68.0783 103.545 67.5048 102.222 68.2482C87.4966 76.5211 72.7553 84.767 58.0586 93.0891C54.2399 95.251 50.3528 95.8975 46.3117 94.0676C44.1069 93.0684 42.0609 91.7166 39.9546 90.503C37.71 89.21 35.4861 87.882 33.2368 86.6001C32.8063 86.3555 32.6507 86.0822 32.665 85.6009C32.6983 84.5478 32.6745 83.493 32.6745 82.227V82.2254Z" fill="#999999"/>
<path d="M32.6747 87.0085C34.2092 87.8964 35.6198 88.7082 37.0288 89.5262C39.5656 91.0003 42.0866 92.5015 44.6393 93.947C48.9187 96.371 53.2711 96.4489 57.5632 94.0503C72.5126 85.6916 87.438 77.2869 102.373 68.9012C103.49 68.2738 103.912 68.5168 103.914 69.794C103.917 71.5683 103.89 73.3411 103.928 75.1138C103.941 75.6952 103.749 75.9939 103.236 76.2782C88.5849 84.4129 73.9486 92.5761 59.2947 100.706C57.6157 101.638 55.9144 102.625 54.1003 103.198C51.0552 104.159 48.0879 103.602 45.3303 101.98C41.367 99.6481 37.4084 97.3082 33.4277 95.0065C32.8463 94.6698 32.6398 94.3028 32.6573 93.6341C32.7065 91.7295 32.6747 89.8233 32.6747 87.9171C32.6747 87.6629 32.6747 87.4088 32.6747 87.0085Z" fill="white"/>
<path d="M29.2865 106.812C27.563 105.76 25.876 104.736 24.1922 103.703C21.9175 102.308 19.6554 100.893 17.3696 99.5143C16.5356 99.0108 16.1703 98.3277 16.1719 97.3603C16.1846 90.2963 16.1719 83.2323 16.183 76.1683C16.1862 73.9603 17.1901 72.3273 19.1344 71.2868C21.3472 70.1018 23.5345 68.866 25.7918 67.7731C29.5311 65.9622 33.3578 65.9685 37.1305 67.6523C38.0375 68.0574 38.8842 68.7579 39.5513 69.5077C40.7157 70.8182 40.6474 72.5338 39.4576 73.8268C38.9127 74.4193 38.2345 74.9181 37.5435 75.3407C35.3783 76.6623 33.1878 77.9426 30.9909 79.2102C29.7249 79.9393 29.1149 80.9909 29.1181 82.4555C29.1308 89.7578 29.1181 97.0601 29.1308 104.362C29.1308 105.15 29.2277 105.937 29.2849 106.812H29.2865ZM30.848 74.5194C32.5206 74.5273 33.8184 74.1842 35.0734 73.5345C36.9843 72.5465 36.8969 68.9231 35.1655 67.9017C32.9877 66.6167 29.3453 66.6024 27.196 67.8938C25.4344 68.9517 25.3899 72.4957 27.1849 73.4774C28.4335 74.1604 29.7217 74.494 30.848 74.5178V74.5194Z" fill="#FFA500"/>
<path d="M103.894 76.656C103.894 77.4979 103.93 78.2111 103.884 78.918C103.837 79.6471 103.26 79.9664 102.695 80.2825C96.6552 83.6724 90.6189 87.067 84.5826 90.46C75.4583 95.5877 66.3483 100.741 57.2002 105.827C53.221 108.04 49.1434 108.026 45.1674 105.798C41.1564 103.551 37.209 101.19 33.2267 98.8901C32.8486 98.6725 32.6421 98.4454 32.6659 97.972C32.7088 97.1285 32.6786 96.2818 32.6786 95.3208C32.9804 95.4797 33.206 95.5877 33.4205 95.7147C37.2725 97.9752 41.1183 100.248 44.9783 102.494C49.0226 104.849 53.1225 104.895 57.205 102.626C69.1727 95.9768 81.1261 89.3004 93.0858 82.6351C96.4566 80.7559 99.8322 78.8847 103.205 77.0102C103.384 76.9102 103.571 76.8212 103.897 76.6528L103.894 76.656Z" fill="black"/>
<path d="M32.4609 50.7111C35.2567 49.1258 37.9079 47.6215 40.6083 46.0918C41.2199 47.3975 41.8187 48.6779 42.4478 50.0233C41.5789 50.53 40.702 51.04 39.6886 51.6293C40.019 51.8898 40.216 52.0852 40.4479 52.2202C48.017 56.6426 55.591 61.0538 63.1522 65.4873C63.6764 65.7939 64.0545 65.8129 64.5866 65.4937C66.1036 64.5834 67.6667 63.7511 69.2091 62.8806C69.4299 62.7567 69.6301 62.5947 70.0272 62.3198C68.6849 61.5224 67.484 60.8092 66.1799 60.034C66.8327 59.6416 67.3601 59.3033 67.9113 59.0078C68.04 58.9395 68.2814 58.9618 68.4149 59.0396C71.2488 60.6805 74.0747 62.3357 76.899 63.9909C76.9403 64.0148 76.9578 64.0767 77.0499 64.2181C76.8323 64.3706 76.621 64.5453 76.3859 64.6772C73.3964 66.3673 70.3957 68.0384 67.4173 69.7476C66.6215 70.2051 65.9416 70.2147 65.1315 69.7429C54.4917 63.5509 43.8377 57.3844 33.1885 51.2083C32.9931 51.0956 32.8152 50.9542 32.4609 50.7095V50.7111Z" fill="#FFA500"/>
<path d="M66.0018 45.9268C65.0185 43.8078 64.1782 41.6935 63.0932 39.7142C60.7566 35.4571 57.6844 31.8258 53.5083 29.2334C51.4099 27.9308 49.159 27.0682 46.6492 27.0285C46.584 27.0285 46.5205 26.9856 46.4141 26.9475C48.6713 25.1621 51.143 24.6331 53.8768 25.3654C57.3683 26.301 60.1355 28.3978 62.5786 30.9473C65.4823 33.9782 67.6443 37.4999 69.2185 41.3933C69.4726 42.0207 69.3932 42.3559 68.7578 42.6053C68.367 42.7578 68.0001 42.9881 67.657 43.2312C67.5235 43.3249 67.4822 43.5504 67.3996 43.7157C67.5871 43.7363 67.8126 43.8316 67.9572 43.7617C68.5243 43.4885 69.066 43.1613 69.6172 42.8547C70.0349 43.4122 69.9619 43.7411 69.3471 44.054C68.178 44.6513 67.0502 45.3343 66.0018 45.9268Z" fill="#C6C6C6"/>
<path d="M65.9293 73.9923C63.0875 72.345 60.4157 70.801 57.7486 69.249C49.6616 64.5471 41.5809 59.834 33.4796 55.1559C32.841 54.7874 32.5726 54.3871 32.6441 53.6643C32.7028 53.0639 32.6568 52.4523 32.6568 51.6724C33.0793 51.9027 33.3906 52.0647 33.6925 52.241C44.0272 58.2297 54.3508 64.2373 64.711 70.1783C65.6609 70.7232 66.1231 71.249 65.9436 72.3339C65.8642 72.8168 65.9293 73.3251 65.9293 73.9923Z" fill="white"/>
<path d="M40.4709 73.8698C40.4169 75.7744 39.7371 77.393 37.9993 78.4462C36.3266 79.4597 34.6475 80.4636 32.951 81.4357C32.3061 81.8059 32.0233 82.2776 32.0265 83.0322C32.0456 89.7531 32.0361 96.474 32.0392 103.195C32.0392 104.434 32.3299 104.714 33.5674 104.726C33.669 104.726 33.7834 104.737 33.8676 104.783C34.6459 105.219 35.4195 105.662 36.3409 106.188C34.9779 106.756 33.7945 107.331 32.5571 107.748C30.994 108.273 30.0377 107.608 29.8566 105.968C29.7836 105.312 29.7645 104.648 29.7629 103.988C29.7566 96.9235 29.7804 89.8579 29.7423 82.7939C29.7343 81.3023 30.2776 80.3047 31.5865 79.5804C33.7818 78.3668 35.9453 77.088 38.0771 75.7648C38.9333 75.2343 39.6688 74.5115 40.4694 73.8682L40.4709 73.8698Z" fill="white"/>
<path d="M65.1484 59.8131C67.0467 56.6615 67.1134 53.4019 66.721 50.0692C66.6925 49.8262 66.7751 49.4291 66.9418 49.329C68.1539 48.5951 69.4008 47.9184 70.6605 47.21C71.5358 52.0374 70.8607 57.4065 65.1484 59.8131Z" fill="#C6C6C6"/>
<path d="M16.3423 72.7232C16.0039 73.9082 15.6894 75.0106 15.359 76.1686C14.8697 75.8875 14.282 75.5523 13.6974 75.2124C11.8691 74.1497 10.0423 73.0838 8.21553 72.0195C7.1417 71.392 6.59526 70.4612 6.60162 69.2126C6.60479 68.4581 6.60162 67.7036 6.60162 67.0205C9.91204 68.9601 13.1812 70.8742 16.3423 72.7248V72.7232Z" fill="#999999"/>
<path d="M10.4022 78.2095C9.80814 81.3197 11.2616 83.1004 13.7571 84.1441C15.2884 84.7842 15.8396 85.7993 15.5537 87.3783C15.4934 87.7103 15.5442 88.0629 15.5442 88.5633C15.244 88.4012 15.0263 88.2901 14.8167 88.1693C12.6229 86.8938 10.4229 85.6293 8.23871 84.3363C6.02753 83.029 6.06406 80.6446 8.30066 79.3723C8.91541 79.0228 9.53968 78.686 10.4006 78.2095H10.4022Z" fill="white"/>
<path d="M6.6055 84.0806C9.19792 85.6039 11.7379 87.0971 14.2779 88.5903C14.3923 88.657 14.5003 88.7396 14.6226 88.7841C15.4089 89.0684 15.6361 89.6181 15.5662 90.4345C15.4884 91.3447 15.5487 92.2661 15.5487 93.3304C14.6925 92.8332 13.9475 92.4027 13.2041 91.9706C11.5823 91.0286 9.96517 90.0803 8.34014 89.1447C7.1853 88.4807 6.57691 87.5149 6.60233 86.1647C6.61662 85.453 6.6055 84.7414 6.6055 84.0806Z" fill="#999999"/>
<path d="M10.9558 74.3608C12.4792 75.2472 13.9072 76.0732 15.3257 76.9167C15.4353 76.9819 15.5306 77.1725 15.5322 77.3043C15.5449 79.6426 15.5418 81.9793 15.5418 84.5288C14.2424 83.7123 13.0192 83.0817 11.9804 82.2286C11.4657 81.8061 11.0463 80.988 11.0019 80.3225C10.8732 78.3893 10.9558 76.4402 10.9558 74.3624V74.3608Z" fill="white"/>
<path d="M66.6126 73.9461C66.6126 72.8993 66.5998 72.0336 66.6253 71.1695C66.63 71.0249 66.7698 70.8248 66.9032 70.7501C70.1279 68.9408 73.3605 67.1442 76.5931 65.3476C76.6582 65.3111 76.7408 65.3032 76.9362 65.2476C76.9362 66.1721 76.9505 67.0568 76.9203 67.9401C76.9155 68.0783 76.7344 68.2578 76.5899 68.3388C73.3255 70.1814 70.0548 72.0145 66.6126 73.9461Z" fill="white"/>
<path d="M66.5491 48.7909C66.3824 48.1412 66.2029 47.5646 66.1044 46.9753C66.0774 46.8149 66.2505 46.5353 66.4078 46.4431C67.6071 45.7379 68.827 45.0659 70.1391 44.3257C70.3155 45.058 70.4759 45.7267 70.6538 46.4638C69.2909 47.2358 67.9502 47.9951 66.5491 48.7909Z" fill="#C6C6C6"/>
<path d="M68.6907 12.7778C68.9575 11.4657 69.0814 10.106 69.5167 8.85266C70.546 5.89648 73.0876 4.64474 76.101 5.49935C79.0206 6.32537 81.2096 8.21885 83.0872 10.4952C86.0116 14.0423 87.8511 18.0866 88.3753 22.6773C88.5929 24.5867 88.4896 26.4833 87.7558 28.2958C86.6518 31.0185 84.2531 32.24 81.4066 31.5141C78.6823 30.8199 76.5807 29.1457 74.7683 27.0997C71.6437 23.5716 69.6692 19.4765 68.9877 14.792C68.8924 14.1392 68.8861 13.4752 68.8368 12.816C68.7876 12.8032 68.7367 12.7905 68.6875 12.7778H68.6907ZM80.6933 26.3563V24.3246C81.3303 24.5486 81.8847 24.8027 82.4677 24.9346C83.4637 25.1601 84.0037 24.7725 84.1419 23.7813C84.3183 22.5169 84.053 21.362 83.2016 20.3756C83.0205 20.1659 82.8441 19.9515 82.6249 19.6925C83.4192 19.4416 83.5367 18.8713 83.5256 18.2216C83.4986 16.6871 82.7123 15.5355 81.5495 14.6808C80.8093 14.136 80.5361 13.5324 80.6759 12.6809C80.8204 11.8104 80.4106 11.3672 79.5051 11.1782V13.0796C78.3567 12.9414 78.5187 12.1281 78.5854 11.4498C78.6712 10.5873 78.3185 10.1346 77.394 9.91219V11.9979C76.5728 11.5324 75.8802 11.1385 75.1606 10.7303C74.9779 11.5642 75.0161 12.1758 75.823 12.5364C76.3774 12.7842 76.5807 13.2814 76.5728 13.9057C76.549 15.7054 76.5664 17.5052 76.5617 19.3034C76.5617 19.5019 76.5204 19.7021 76.4838 20.0166C76.0502 19.8196 75.7023 19.6624 75.3528 19.5051C74.9128 20.76 74.8906 20.8776 76.0263 21.4208C77.0906 21.9291 77.6275 22.5979 77.4036 23.8036C77.2399 24.6836 77.8658 24.8821 78.6045 25.1045V23.1427C79.5734 23.2937 79.6036 23.9481 79.5226 24.6375C79.4225 25.4858 79.5861 26.1482 80.6933 26.3594V26.3563Z" fill="white"/>
<path d="M88.9551 20.7013C88.1958 18.7443 87.5477 16.8175 86.7121 14.9764C85.4175 12.1267 83.5479 9.66926 81.1699 7.62328C79.3352 6.04591 77.2876 4.88313 74.7031 4.59562C76.4934 3.32482 78.3249 3.15009 80.2501 3.77913C82.8727 4.63692 84.9219 6.33343 86.6518 8.41594C89.1187 11.3864 90.8406 14.7445 91.6968 18.533C91.7969 18.9794 91.7381 19.1923 91.3235 19.4004C90.4975 19.8134 89.7033 20.2867 88.9567 20.7013H88.9551Z" fill="#C6C6C6"/>
<path d="M89.1548 23.0637C89.1024 22.916 89.0769 22.8684 89.0674 22.8175C88.9107 21.9396 89.212 21.2883 89.9713 20.8637C90.5876 20.5206 91.2103 20.1886 91.8473 19.8423C92.6193 24.1757 91.833 28.3709 87.8125 29.8688C87.8951 29.6576 87.9412 29.5003 88.0142 29.3589C88.7878 27.8753 89.1516 26.2868 89.0817 24.6268C89.0547 23.9835 89.2755 23.6499 89.8219 23.4212C90.0888 23.31 90.3573 23.1781 90.5781 22.997C90.7734 22.8382 90.9021 22.5967 91.0594 22.3934C90.8052 22.4061 90.5272 22.3569 90.3033 22.4458C89.9173 22.5983 89.5662 22.8366 89.1532 23.0653L89.1548 23.0637Z" fill="#C6C6C6"/>
<path d="M30.8495 74.5179C29.7233 74.4941 28.435 74.1605 27.1864 73.4774C25.393 72.4958 25.4375 68.9518 27.1976 67.8939C29.3468 66.6024 32.9892 66.6167 35.167 67.9018C36.8985 68.9232 36.9859 72.5466 35.0749 73.5346C33.82 74.1843 32.5222 74.5274 30.8495 74.5195V74.5179ZM31.191 72.491C32.5937 72.4846 33.9407 72.2543 35.067 71.3441C36.0788 70.5244 36.0629 69.4967 35.0685 68.6643C33.2656 67.1536 29.2102 67.1155 27.3644 68.5896C26.2206 69.503 26.2381 70.6245 27.4295 71.4648C28.5557 72.2591 29.8392 72.5037 31.191 72.4926V72.491ZM35.6706 71.8858C32.6572 73.6204 29.6883 73.6061 26.6765 71.8921C27.7424 73.5775 29.4485 73.8777 31.2355 73.8634C32.994 73.8507 34.6682 73.5219 35.6706 71.8842V71.8858Z" fill="black"/>
<path d="M80.6923 26.3564C79.5852 26.1452 79.4215 25.4828 79.5216 24.6345C79.6026 23.9451 79.574 23.2906 78.6035 23.1397V25.1015C77.8648 24.8776 77.2389 24.6806 77.4026 23.8006C77.6265 22.5949 77.0896 21.9261 76.0253 21.4178C74.8896 20.8745 74.9118 20.757 75.3518 19.5021C75.6997 19.6594 76.0476 19.8182 76.4828 20.0136C76.5178 19.6991 76.5591 19.4989 76.5607 19.3004C76.5654 17.5006 76.548 15.7008 76.5718 13.9027C76.5797 13.2784 76.3764 12.7812 75.822 12.5334C75.0151 12.1728 74.9785 11.5612 75.1596 10.7273C75.8792 11.1355 76.5718 11.5279 77.393 11.9949V9.90918C78.3175 10.1316 78.6702 10.5843 78.5844 11.4468C78.5177 12.1235 78.3557 12.9384 79.5041 13.0766V11.1752C80.408 11.3642 80.8178 11.8074 80.6749 12.6779C80.5335 13.5294 80.8083 14.1346 81.5485 14.6778C82.7097 15.5324 83.4976 16.6841 83.5246 18.2186C83.5357 18.8683 83.4182 19.4386 82.6239 19.6895C82.8432 19.95 83.0195 20.1629 83.2006 20.3726C84.052 21.359 84.3173 22.5139 84.1409 23.7783C84.0027 24.7695 83.4642 25.1571 82.4667 24.9316C81.8837 24.7997 81.3293 24.5456 80.6923 24.3216V26.3533V26.3564ZM78.7925 18.3568C78.7242 18.4108 78.6543 18.4632 78.586 18.5172V19.6991C78.586 21.5655 78.7369 21.8006 80.5557 22.4011C80.8957 22.5139 81.4834 22.5726 81.6327 22.3916C81.844 22.1342 81.8535 21.6053 81.7646 21.2367C81.6708 20.8491 81.4262 20.4377 81.126 20.174C80.3857 19.5259 79.5756 18.9572 78.7925 18.3568ZM78.8116 14.2648L78.5987 14.4221C78.5987 15.1321 78.5669 15.8454 78.6162 16.5523C78.6321 16.7905 78.8004 17.0892 78.9942 17.229C79.3516 17.4879 79.7615 17.7039 80.1824 17.8326C80.4779 17.9231 80.9417 17.9676 81.1196 17.804C81.3087 17.6293 81.3293 17.1718 81.2785 16.862C81.2245 16.5427 81.0625 16.1806 80.8305 15.9629C80.1904 15.3625 79.4883 14.8256 78.8116 14.2648Z" fill="black"/>
<path d="M31.1935 72.4925C29.8417 72.5052 28.5582 72.259 27.4319 71.4648C26.2406 70.6245 26.2231 69.503 27.3668 68.5896C29.2126 67.1155 33.2696 67.1552 35.071 68.6642C36.0638 69.4966 36.0813 70.526 35.0694 71.344C33.9432 72.2558 32.5961 72.4846 31.1935 72.4909V72.4925ZM28.9839 69.2329C29.8449 69.6634 30.7058 70.0542 31.5271 70.518C32.1926 70.8929 32.7264 70.7785 33.3046 70.2575C32.4468 69.8381 31.6128 69.4966 30.8504 69.036C30.1594 68.6182 29.5923 68.6515 28.9839 69.2329Z" fill="white"/>
<path d="M35.6737 71.8872C34.6714 73.5249 32.9971 73.8522 31.2387 73.8665C29.4532 73.8808 27.7456 73.5805 26.6797 71.8951C29.6899 73.6091 32.6604 73.6234 35.6737 71.8888V71.8872Z" fill="white"/>
<path d="M78.7924 18.3569C79.574 18.9574 80.3857 19.5261 81.1259 20.1742C81.4262 20.4363 81.6708 20.8493 81.7645 21.2369C81.8535 21.6054 81.8439 22.1344 81.6327 22.3917C81.4833 22.5728 80.8956 22.514 80.5557 22.4012C78.7368 21.8008 78.5859 21.5657 78.5859 19.6992V18.5174C78.6542 18.4634 78.7241 18.4109 78.7924 18.3569Z" fill="white"/>
<path d="M78.8167 14.2646C79.495 14.827 80.1955 15.3623 80.8357 15.9627C81.0676 16.1804 81.2296 16.5425 81.2836 16.8618C81.336 17.1716 81.3138 17.6275 81.1248 17.8038C80.9469 17.9674 80.483 17.9245 80.1876 17.8324C79.7666 17.7021 79.3568 17.4877 78.9994 17.2288C78.8056 17.089 78.6372 16.7904 78.6213 16.5521C78.5721 15.8452 78.6038 15.132 78.6038 14.4219L78.8167 14.2646Z" fill="white"/>
<path d="M28.9844 69.2316C29.5928 68.6502 30.1599 68.6168 30.8509 69.0346C31.6133 69.4953 32.4473 69.8352 33.3051 70.2562C32.7269 70.7772 32.1931 70.8931 31.5276 70.5167C30.7063 70.0528 29.8453 69.6621 28.9844 69.2316Z" fill="black"/>
<mask id="mask1_5015_11596" style="mask-type:luminance" maskUnits="userSpaceOnUse" x="46" y="32" width="13" height="25">
<path d="M46.8594 49.5546L46.9086 32.1733L58.8986 39.096L58.8493 56.4773L46.8594 49.5546Z" fill="white"/>
</mask>
<g mask="url(#mask1_5015_11596)">
<path d="M49.1606 48.3301C49.0542 48.2682 49.1638 44.6019 49.1638 44.6019L49.7531 44.9403L51.9214 49.917C51.9214 49.917 49.267 48.3921 49.1606 48.3301ZM54.4344 50.3825L52.0501 45.1373L53.9737 46.2428L55.5908 49.7407L54.4328 50.3809M49.1669 40.9548L49.1701 37.8651L49.7753 38.213L51.6037 42.3558L49.1669 40.9548ZM53.6926 42.108L51.6116 37.6285L53.2509 38.5704L54.7425 41.7125L53.6926 42.1064M54.5456 36.58L46.9081 32.1895L46.8906 49.5707L55.5273 54.5364L58.8631 51.2132L55.8021 45.6662L58.1387 43.6282L54.544 36.58" fill="#192026"/>
</g>
</g>
</g>
<defs>
<clipPath id="clip0_5015_11596">
<rect width="102.877" height="110.068" fill="white" transform="translate(5.94531 2.75781)"/>
</clipPath>
</defs>
</svg>
