<svg width="15" height="15" viewBox="0 0 15 15" fill="none" xmlns="http://www.w3.org/2000/svg">
<path d="M13.125 13.75H1.875C1.61875 13.75 1.40625 13.5375 1.40625 13.2812C1.40625 13.025 1.61875 12.8125 1.875 12.8125H13.125C13.3813 12.8125 13.5938 13.025 13.5938 13.2812C13.5938 13.5375 13.3813 13.75 13.125 13.75Z" fill="#718096"/>
<path d="M11.8875 2.17504C10.675 0.962537 9.48749 0.931287 8.24374 2.17504L7.48749 2.93129C7.42499 2.99379 7.39999 3.09379 7.42499 3.18129C7.89999 4.83754 9.22499 6.16254 10.8812 6.63754C10.9062 6.64379 10.9312 6.65004 10.9562 6.65004C11.025 6.65004 11.0875 6.62504 11.1375 6.57504L11.8875 5.81879C12.5062 5.20629 12.8062 4.61254 12.8062 4.01254C12.8125 3.39379 12.5125 2.79379 11.8875 2.17504Z" fill="#718096"/>
<path d="M9.75627 7.20625C9.57502 7.11875 9.40002 7.03125 9.23127 6.93125C9.09377 6.85 8.96252 6.7625 8.83127 6.66875C8.72502 6.6 8.60002 6.5 8.48127 6.4C8.46877 6.39375 8.42502 6.35625 8.37502 6.30625C8.16877 6.13125 7.93752 5.90625 7.73127 5.65625C7.71252 5.64375 7.68127 5.6 7.63752 5.54375C7.57502 5.46875 7.46877 5.34375 7.37502 5.2C7.30002 5.10625 7.21252 4.96875 7.13127 4.83125C7.03127 4.6625 6.94377 4.49375 6.85627 4.31875C6.74154 4.07291 6.41888 3.99988 6.22705 4.19171L2.71252 7.70625C2.63127 7.7875 2.55627 7.94375 2.53752 8.05L2.20002 10.4437C2.13752 10.8687 2.25627 11.2687 2.51877 11.5375C2.74377 11.7562 3.05627 11.875 3.39377 11.875C3.46877 11.875 3.54377 11.8687 3.61877 11.8562L6.01877 11.5188C6.13127 11.5 6.28752 11.425 6.36252 11.3437L9.88285 7.82341C10.0708 7.63542 10.0002 7.31196 9.75627 7.20625Z" fill="#718096"/>
</svg>
