<svg width="9" height="10" viewBox="0 0 9 10" fill="none" xmlns="http://www.w3.org/2000/svg">
<path d="M7.53057 8.99609H0.50933C0.376319 8.99609 0.248756 9.04893 0.154704 9.14298C0.0606509 9.23704 0.0078125 9.3646 0.0078125 9.49761C0.0078125 9.63062 0.0606509 9.75818 0.154704 9.85224C0.248756 9.94629 0.376319 9.99913 0.50933 9.99913H7.53057C7.66358 9.99913 7.79115 9.94629 7.8852 9.85224C7.97925 9.75818 8.03209 9.63062 8.03209 9.49761C8.03209 9.3646 7.97925 9.23704 7.8852 9.14298C7.79115 9.04893 7.66358 8.99609 7.53057 8.99609Z" fill="#AFAFAF"/>
<path d="M0.503625 7.99531H0.548762L2.64009 7.80473C2.86918 7.78191 3.08345 7.68097 3.24693 7.51887L7.76058 3.00521C7.93577 2.82014 8.03045 2.57316 8.02387 2.3184C8.01729 2.06365 7.90999 1.82189 7.72548 1.6461L6.35132 0.271943C6.17197 0.103481 5.93696 0.0068204 5.69099 0.00034743C5.44501 -0.00612555 5.20524 0.0780412 5.01728 0.236837L0.503625 4.75049C0.341518 4.91397 0.240582 5.12824 0.21776 5.35733L0.00210785 7.44865C-0.00464811 7.52211 0.00488342 7.59615 0.0300229 7.6655C0.0551624 7.73485 0.0952908 7.7978 0.147548 7.84987C0.19441 7.89635 0.249986 7.93312 0.31109 7.95808C0.372193 7.98304 0.437622 7.99569 0.503625 7.99531ZM5.65421 0.974067L7.02335 2.34321L6.02032 3.32117L4.67625 1.9771L5.65421 0.974067ZM1.1907 5.44259L4.01425 2.6391L5.36834 3.9932L2.55985 6.8017L1.05529 6.94212L1.1907 5.44259Z" fill="#AFAFAF"/>
</svg>
