<svg width="20" height="20" viewBox="0 0 20 20" fill="none" xmlns="http://www.w3.org/2000/svg">
<path d="M14.166 2.9165H5.83268C3.33268 2.9165 1.66602 4.1665 1.66602 7.08317V12.9165C1.66602 15.8332 3.33268 17.0832 5.83268 17.0832H14.166C16.666 17.0832 18.3327 15.8332 18.3327 12.9165V7.08317C18.3327 4.1665 16.666 2.9165 14.166 2.9165ZM14.5577 7.9915L11.9493 10.0748C11.3993 10.5165 10.6993 10.7332 9.99935 10.7332C9.29935 10.7332 8.59102 10.5165 8.04935 10.0748L5.44102 7.9915C5.17435 7.77484 5.13268 7.37484 5.34102 7.10817C5.55768 6.8415 5.94935 6.7915 6.21602 7.00817L8.82435 9.0915C9.45768 9.59984 10.5327 9.59984 11.166 9.0915L13.7743 7.00817C14.041 6.7915 14.441 6.83317 14.6493 7.10817C14.866 7.37484 14.8243 7.77484 14.5577 7.9915Z" fill="#FFA500"/>
</svg>
