<svg width="44" height="44" viewBox="0 0 44 44" fill="none" xmlns="http://www.w3.org/2000/svg">
<rect x="0.5" y="0.5" width="43" height="43" rx="21.5" fill="#75797C"/>
<rect x="0.5" y="0.5" width="43" height="43" rx="21.5" stroke="#777777"/>
<path opacity="0.6" d="M27 30.5H17C14 30.5 12 29 12 25.5V18.5C12 15 14 13.5 17 13.5H27C30 13.5 32 15 32 18.5V25.5C32 29 30 30.5 27 30.5Z" fill="white"/>
<path d="M21.9988 22.87C21.1588 22.87 20.3088 22.61 19.6588 22.08L16.5288 19.58C16.2088 19.32 16.1488 18.85 16.4088 18.53C16.6688 18.21 17.1388 18.15 17.4588 18.41L20.5888 20.91C21.3488 21.52 22.6388 21.52 23.3988 20.91L26.5288 18.41C26.8488 18.15 27.3288 18.2 27.5788 18.53C27.8388 18.85 27.7888 19.33 27.4588 19.58L24.3288 22.08C23.6888 22.61 22.8388 22.87 21.9988 22.87Z" fill="#292D32"/>
</svg>
