<svg width="20" height="20" viewBox="0 0 20 20" fill="none" xmlns="http://www.w3.org/2000/svg">
<path d="M14.166 17.7077H5.83268C2.79102 17.7077 1.04102 15.9577 1.04102 12.916V7.08268C1.04102 4.04102 2.79102 2.29102 5.83268 2.29102H14.166C17.2077 2.29102 18.9577 4.04102 18.9577 7.08268V12.916C18.9577 15.9577 17.2077 17.7077 14.166 17.7077ZM5.83268 3.54102C3.44935 3.54102 2.29102 4.69935 2.29102 7.08268V12.916C2.29102 15.2993 3.44935 16.4577 5.83268 16.4577H14.166C16.5493 16.4577 17.7077 15.2993 17.7077 12.916V7.08268C17.7077 4.69935 16.5493 3.54102 14.166 3.54102H5.83268Z" fill="#DEDEDE"/>
<path d="M9.999 10.7259C9.299 10.7259 8.59067 10.5093 8.049 10.0676L5.44067 7.98429C5.174 7.76762 5.124 7.37595 5.34067 7.10928C5.55734 6.84262 5.94901 6.79262 6.21567 7.00929L8.824 9.09262C9.45733 9.60095 10.5323 9.60095 11.1657 9.09262L13.774 7.00929C14.0407 6.79262 14.4407 6.83428 14.649 7.10928C14.8657 7.37595 14.824 7.77595 14.549 7.98429L11.9407 10.0676C11.4073 10.5093 10.699 10.7259 9.999 10.7259Z" fill="#DEDEDE"/>
</svg>
