<svg width="50" height="50" viewBox="0 0 50 50" fill="none" xmlns="http://www.w3.org/2000/svg">
<path d="M40.625 50H9.375C4.19688 50 0 45.8031 0 40.625V9.375C0 4.19688 4.19688 0 9.375 0H40.625C45.8031 0 50 4.19688 50 9.375V40.625C50 45.8031 45.8031 50 40.625 50Z" fill="#FFA500" fill-opacity="0.15"/>
<path d="M19.2513 25.5417C16.3763 25.5417 14.043 27.8646 14.043 30.75C14.043 33.6354 16.3763 35.9583 19.2513 35.9583C22.1263 35.9583 24.4596 33.625 24.4596 30.75C24.4596 27.875 22.1367 25.5417 19.2513 25.5417ZM17.1263 28.625H19.2513C19.6471 28.625 19.9596 28.9479 19.9596 29.3333C19.9596 29.7187 19.6471 30.0417 19.2513 30.0417H17.1263C16.7305 30.0417 16.418 29.7187 16.418 29.3333C16.418 28.9479 16.7305 28.625 17.1263 28.625ZM21.3763 32.875H17.1263C16.7305 32.875 16.418 32.5521 16.418 32.1667C16.418 31.7812 16.7409 31.4583 17.1263 31.4583H21.3867C21.7826 31.4583 22.0951 31.7812 22.0951 32.1667C22.0951 32.5521 21.7721 32.875 21.3763 32.875Z" fill="#FFA500"/>
<path d="M30.707 15.125H20.2904C17.1654 15.125 15.082 16.6875 15.082 20.3333V23.6042C15.082 24.3646 15.8633 24.8437 16.5612 24.5417C17.707 24.0417 19.0091 23.8542 20.3737 24.0729C23.1029 24.5208 25.332 26.6771 25.8841 29.3854C26.0404 30.1771 26.0612 30.9479 25.957 31.6875C25.8737 32.3021 26.3737 32.8437 26.9883 32.8437H30.707C33.832 32.8437 35.9154 31.2812 35.9154 27.6354V20.3333C35.9154 16.6875 33.832 15.125 30.707 15.125ZM31.1966 20.9479L27.9362 23.5521C27.2487 24.1042 26.3737 24.375 25.4987 24.375C24.6237 24.375 23.7383 24.1042 23.0612 23.5521L19.8008 20.9479C19.4674 20.6771 19.4154 20.1771 19.6758 19.8438C19.9466 19.5104 20.4362 19.4479 20.7695 19.7187L24.0299 22.3229C24.8216 22.9583 26.1654 22.9583 26.957 22.3229L30.2174 19.7187C30.5508 19.4479 31.0508 19.5 31.3112 19.8438C31.582 20.1771 31.5299 20.6771 31.1966 20.9479Z" fill="#FFA500"/>
</svg>
