<svg width="20" height="20" viewBox="0 0 20 20" fill="none" xmlns="http://www.w3.org/2000/svg">
<path d="M14.166 17.7082H5.83268C2.79102 17.7082 1.04102 15.9582 1.04102 12.9165V7.08317C1.04102 4.0415 2.79102 2.2915 5.83268 2.2915H14.166C17.2077 2.2915 18.9577 4.0415 18.9577 7.08317V12.9165C18.9577 15.9582 17.2077 17.7082 14.166 17.7082ZM5.83268 3.5415C3.44935 3.5415 2.29102 4.69984 2.29102 7.08317V12.9165C2.29102 15.2998 3.44935 16.4582 5.83268 16.4582H14.166C16.5493 16.4582 17.7077 15.2998 17.7077 12.9165V7.08317C17.7077 4.69984 16.5493 3.5415 14.166 3.5415H5.83268Z" fill="#DEDEDE"/>
<path d="M9.999 10.725C9.299 10.725 8.59067 10.5083 8.049 10.0666L5.44067 7.98331C5.174 7.76664 5.124 7.37497 5.34067 7.10831C5.55734 6.84164 5.94901 6.79164 6.21567 7.00831L8.824 9.09164C9.45733 9.59998 10.5323 9.59998 11.1657 9.09164L13.774 7.00831C14.0407 6.79164 14.4407 6.83331 14.649 7.10831C14.8657 7.37497 14.824 7.77498 14.549 7.98331L11.9407 10.0666C11.4073 10.5083 10.699 10.725 9.999 10.725Z" fill="#DEDEDE"/>
</svg>
