<svg width="20" height="20" viewBox="0 0 20 20" fill="none" xmlns="http://www.w3.org/2000/svg">
<path d="M14.166 2.91602H5.83268C3.33268 2.91602 1.66602 4.16602 1.66602 7.08268V12.916C1.66602 15.8327 3.33268 17.0827 5.83268 17.0827H14.166C16.666 17.0827 18.3327 15.8327 18.3327 12.916V7.08268C18.3327 4.16602 16.666 2.91602 14.166 2.91602ZM14.5577 7.99102L11.9493 10.0743C11.3993 10.516 10.6993 10.7327 9.99935 10.7327C9.29935 10.7327 8.59102 10.516 8.04935 10.0743L5.44102 7.99102C5.17435 7.77435 5.13268 7.37435 5.34102 7.10768C5.55768 6.84102 5.94935 6.79102 6.21602 7.00768L8.82435 9.09102C9.45768 9.59935 10.5327 9.59935 11.166 9.09102L13.7743 7.00768C14.041 6.79102 14.441 6.83268 14.6493 7.10768C14.866 7.37435 14.8243 7.77435 14.5577 7.99102Z" fill="#FFA500"/>
</svg>
