<svg width="96" height="96" viewBox="0 0 96 96" fill="none" xmlns="http://www.w3.org/2000/svg">
<path fill-rule="evenodd" clip-rule="evenodd" d="M64 8H26V88H84V28L64 8ZM36 37H74V41H36V37ZM36 46H74V50H36V46ZM74 55H36V59H74V55Z" fill="url(#paint0_linear)"/>
<path d="M62 71L66 67L70 71L66 75L62 71Z" fill="white"/>
<path d="M86 50L89 47L92 50L89 53L86 50Z" fill="#E6E8EA"/>
<path d="M47 21L50 18L53 21L50 24L47 21Z" fill="#E6E8EA"/>
<path d="M84 28H64V8L84 28Z" fill="#E6E8EA"/>
<path fill-rule="evenodd" clip-rule="evenodd" d="M4.17163 73.1715L18.6717 58.6716L24.3285 64.3285L9.82846 78.8284L4.17163 73.1715Z" fill="url(#paint1_linear)"/>
<path fill-rule="evenodd" clip-rule="evenodd" d="M51 48C51 39.1634 43.8366 32 35 32C26.1634 32 19 39.1634 19 48C19 56.8366 26.1634 64 35 64C43.8366 64 51 56.8366 51 48ZM55 48C55 36.9543 46.0457 28 35 28C23.9543 28 15 36.9543 15 48C15 59.0457 23.9543 68 35 68C46.0457 68 55 59.0457 55 48Z" fill="url(#paint2_linear)"/>
<defs>
<linearGradient id="paint0_linear" x1="84" y1="10.1622" x2="84" y2="88" gradientUnits="userSpaceOnUse">
<stop stop-color="#F5F5F5"/>
<stop offset="1" stop-color="#E6E8EA"/>
</linearGradient>
<linearGradient id="paint1_linear" x1="4.17163" y1="68.75" x2="24.3285" y2="68.75" gradientUnits="userSpaceOnUse">
<stop stop-color="#929AA5"/>
<stop offset="1" stop-color="#76808F"/>
</linearGradient>
<linearGradient id="paint2_linear" x1="15" y1="48" x2="55" y2="48" gradientUnits="userSpaceOnUse">
<stop stop-color="#929AA5"/>
<stop offset="1" stop-color="#76808F"/>
</linearGradient>
</defs>
</svg>
