<svg width="63" height="17" viewBox="0 0 63 17" fill="none" xmlns="http://www.w3.org/2000/svg">
<path d="M16.1797 4.83948H18.3661C18.8396 4.83948 19.233 4.8782 19.5428 4.95952C19.8527 5.03696 20.1033 5.16087 20.2844 5.32351C20.4689 5.48614 20.5977 5.69137 20.6708 5.93145C20.7474 6.1754 20.7822 6.45808 20.7822 6.78334C20.7822 7.15895 20.7126 7.46873 20.5768 7.72043C20.441 7.96825 20.1939 8.15025 19.8387 8.25867V8.30126C20.5977 8.51424 20.9772 9.07184 20.9772 9.97407C20.9772 10.2993 20.9389 10.5936 20.8658 10.8531C20.7892 11.1125 20.6604 11.3332 20.4793 11.5075C20.2948 11.6817 20.0476 11.8211 19.7378 11.9141C19.4279 12.007 19.0345 12.0535 18.561 12.0535H16.1797V4.83948ZM18.0771 7.81336C18.3069 7.81336 18.5053 7.80174 18.669 7.77851C18.8361 7.7514 18.9684 7.70881 19.0763 7.64685C19.1842 7.5849 19.2608 7.49971 19.3096 7.38741C19.3583 7.27512 19.3862 7.13185 19.3862 6.94985C19.3862 6.76398 19.3618 6.61297 19.3096 6.50454C19.2608 6.39225 19.1842 6.30706 19.0798 6.2451C18.9788 6.18315 18.843 6.14442 18.6724 6.12506C18.5053 6.1057 18.3034 6.09796 18.0736 6.09796H17.5967V7.81336H18.0771ZM18.2547 10.7834C18.5019 10.7834 18.7107 10.7679 18.8744 10.7408C19.0415 10.7137 19.1738 10.6672 19.2713 10.6014C19.3722 10.5355 19.4419 10.4426 19.4802 10.3264C19.5219 10.2103 19.5393 10.0554 19.5393 9.86952C19.5393 9.70302 19.5185 9.56361 19.4802 9.44357C19.4384 9.32741 19.3722 9.2306 19.2747 9.15703C19.1773 9.08346 19.045 9.03312 18.8779 9.00214C18.7107 8.97116 18.5019 8.95567 18.2512 8.95567H17.5967V10.7872H18.2547V10.7834Z" fill="white"/>
<path d="M23.4764 6.4425H22.1221V12.0534H23.4764V6.4425Z" fill="white"/>
<path d="M26.3249 7.62356V10.1289C26.3249 10.2954 26.3319 10.4309 26.3493 10.5316C26.3632 10.6362 26.3946 10.7175 26.4363 10.7756C26.4781 10.8375 26.5373 10.8762 26.6139 10.8995C26.6905 10.9227 26.7845 10.9343 26.9029 10.9343C27.063 10.9343 27.1988 10.9188 27.3032 10.8917V12.0573C27.2023 12.0689 27.0978 12.0844 26.9864 12.0921C26.875 12.1037 26.7636 12.1076 26.6487 12.1076C26.3389 12.1076 26.0743 12.0805 25.8584 12.0263C25.6426 11.9721 25.472 11.8753 25.3397 11.7359C25.2074 11.5965 25.1134 11.4067 25.0542 11.1667C24.995 10.9266 24.9672 10.6207 24.9672 10.2528V7.62356H24.3057V6.44253H24.9706V5.11047H26.3249V6.44253H27.3694V7.62743H26.3249V7.62356Z" fill="white"/>
<path d="M37.4131 6.3457C37.8379 6.3457 38.193 6.38443 38.4819 6.46574C38.7709 6.54319 39.0042 6.66323 39.1817 6.81424C39.3593 6.96526 39.4881 7.155 39.5647 7.37959C39.6448 7.60418 39.683 7.86749 39.683 8.16179V12.0495H38.468L38.3392 11.3951C38.2313 11.6042 38.0433 11.7823 37.7682 11.9295C37.4932 12.0766 37.1485 12.1541 36.7307 12.1541C36.1632 12.1541 35.735 12.0147 35.4426 11.732C35.1501 11.4532 35.0039 11.0195 35.0039 10.4387C35.0039 9.78813 35.178 9.3312 35.5331 9.06789C35.8847 8.80458 36.4 8.67292 37.0789 8.67292H38.3322V8.52965C38.3322 8.36314 38.3183 8.21987 38.2904 8.1037C38.2626 7.98753 38.2069 7.89073 38.1268 7.81716C38.0467 7.74358 37.9388 7.68937 37.7996 7.65452C37.6603 7.61967 37.4827 7.60418 37.2564 7.60418C37.0754 7.60418 36.8944 7.61193 36.7133 7.63129C36.5323 7.65065 36.3547 7.67388 36.1807 7.70873V6.43089C36.3756 6.40379 36.581 6.38443 36.8073 6.36894C37.0301 6.35345 37.2321 6.3457 37.4131 6.3457ZM37.0754 11.0001C37.3887 11.0001 37.6498 10.9382 37.8692 10.8181C38.0885 10.6942 38.2382 10.5393 38.3253 10.3457V9.69132H37.2773C36.9396 9.69132 36.6994 9.73779 36.5532 9.82685C36.407 9.91591 36.3338 10.1018 36.3338 10.3883C36.3338 10.6129 36.3895 10.7678 36.5079 10.8607C36.6263 10.9537 36.8143 11.0001 37.0754 11.0001Z" fill="white"/>
<path d="M42.4584 12.1116C42.1659 12.1116 41.8839 12.0961 41.6089 12.0651C41.3338 12.0341 41.0866 11.9915 40.8604 11.9334V10.675C41.1041 10.7601 41.3582 10.8221 41.6298 10.8686C41.9013 10.915 42.152 10.9383 42.3818 10.9383C42.6742 10.9383 42.8866 10.8996 43.0189 10.826C43.1512 10.7485 43.2208 10.6014 43.2208 10.3807C43.2208 10.2684 43.2069 10.1754 43.1825 10.1019C43.1581 10.0244 43.1094 9.96247 43.0363 9.90438C42.9667 9.85017 42.8657 9.79983 42.7438 9.75337C42.6185 9.7069 42.4549 9.65656 42.2495 9.60235C41.9814 9.53265 41.7621 9.4552 41.588 9.37001C41.4139 9.28482 41.2746 9.18027 41.1772 9.06023C41.0762 8.93632 41.0101 8.79305 40.9718 8.62267C40.9335 8.45229 40.9161 8.25094 40.9161 8.01473C40.9161 7.75142 40.9509 7.51521 41.024 7.30998C41.0936 7.10088 41.212 6.92663 41.3756 6.78335C41.5358 6.64008 41.7447 6.53166 42.0023 6.45421C42.2564 6.37677 42.5698 6.34192 42.9353 6.34192C43.2173 6.34192 43.4819 6.36128 43.7326 6.39613C43.9833 6.43098 44.1817 6.47358 44.3175 6.53166L44.2618 7.68559C44.1921 7.66623 44.1086 7.64299 44.0111 7.61976C43.9101 7.59653 43.8022 7.57329 43.6873 7.55006C43.5724 7.5307 43.4541 7.51134 43.3322 7.49585C43.2104 7.48423 43.0955 7.47649 42.9806 7.47649C42.6673 7.47649 42.4584 7.51521 42.3504 7.58878C42.239 7.66623 42.1868 7.80175 42.1868 7.99537C42.1868 8.08443 42.1972 8.158 42.2181 8.21608C42.239 8.2703 42.2843 8.32064 42.3539 8.35936C42.4235 8.40195 42.5175 8.44455 42.6394 8.48327C42.7613 8.52586 42.9214 8.57233 43.1198 8.63042C43.3949 8.70786 43.6212 8.78918 43.8022 8.88598C43.9833 8.97892 44.126 9.09121 44.2339 9.219C44.3419 9.34678 44.4115 9.50167 44.4533 9.68754C44.4916 9.86953 44.5124 10.0903 44.5124 10.3458C44.5124 10.6788 44.4672 10.9576 44.3732 11.1822C44.2792 11.4068 44.1469 11.5888 43.9728 11.7282C43.7987 11.8676 43.5829 11.9683 43.3287 12.0302C43.0711 12.0845 42.7821 12.1116 42.4584 12.1116Z" fill="white"/>
<path d="M50.2741 4.15405V12.0496H49.0521L48.9511 11.2712C48.8501 11.5268 48.683 11.7359 48.4532 11.9024C48.22 12.0689 47.8718 12.1541 47.4123 12.1541C47.0015 12.1541 46.6638 12.0844 46.4026 11.9528C46.1415 11.8172 45.9361 11.6236 45.7864 11.3719C45.6367 11.1163 45.5357 10.8104 45.48 10.4503C45.4243 10.0902 45.3965 9.68749 45.3965 9.24605C45.3965 8.84334 45.4243 8.46773 45.48 8.11536C45.5357 7.76298 45.6367 7.4532 45.7864 7.18989C45.9361 6.92658 46.1415 6.71748 46.4026 6.56646C46.6638 6.41544 47.0015 6.338 47.4123 6.338C47.8718 6.338 48.2165 6.41157 48.4428 6.56259C48.6691 6.70973 48.8327 6.91109 48.9337 7.15891V4.15405H50.2741ZM47.837 11.0118C48.0668 11.0118 48.2583 10.9731 48.408 10.8995C48.5577 10.8221 48.6761 10.7098 48.7631 10.5587C48.8501 10.4077 48.9128 10.218 48.9441 10.0011C48.9789 9.78042 48.9964 9.5326 48.9964 9.24605C48.9964 8.975 48.9789 8.73104 48.9441 8.5142C48.9093 8.29348 48.8501 8.10761 48.7631 7.95272C48.6761 7.79783 48.5577 7.67392 48.408 7.58873C48.2583 7.49967 48.0703 7.45708 47.837 7.45708C47.6003 7.45708 47.4123 7.50354 47.273 7.60422C47.1338 7.70103 47.0258 7.83268 46.9562 7.99145C46.8866 8.15408 46.8378 8.34382 46.8169 8.55679C46.796 8.77364 46.7856 9.0021 46.7856 9.24218C46.7856 9.49775 46.796 9.73396 46.8169 9.95467C46.8378 10.1715 46.8866 10.3574 46.9632 10.5161C47.0363 10.671 47.1442 10.7911 47.2869 10.8801C47.4227 10.9692 47.6072 11.0118 47.837 11.0118Z" fill="white"/>
<path d="M53.7481 6.3457C54.1728 6.3457 54.5279 6.38443 54.8169 6.46574C55.1059 6.54319 55.3391 6.66323 55.5167 6.81424C55.6942 6.96526 55.823 7.155 55.8996 7.37959C55.9797 7.60418 56.018 7.86749 56.018 8.16179V12.0495H54.803L54.6741 11.3951C54.5662 11.6042 54.3782 11.7823 54.1032 11.9295C53.8281 12.0766 53.4835 12.1541 53.0657 12.1541C52.4982 12.1541 52.07 12.0147 51.7775 11.732C51.4851 11.4532 51.3389 11.0195 51.3389 10.4387C51.3389 9.78813 51.5129 9.3312 51.8681 9.06789C52.2197 8.80458 52.735 8.67292 53.4138 8.67292H54.6672V8.52965C54.6672 8.36314 54.6533 8.21987 54.6254 8.1037C54.5976 7.98753 54.5419 7.89073 54.4618 7.81716C54.3817 7.74358 54.2738 7.68937 54.1345 7.65452C53.9987 7.61967 53.8177 7.60418 53.5914 7.60418C53.4104 7.60418 53.2293 7.61193 53.0483 7.63129C52.8672 7.65065 52.6897 7.67388 52.5156 7.70873V6.43089C52.7106 6.40379 52.916 6.38443 53.1423 6.36894C53.3651 6.35345 53.567 6.3457 53.7481 6.3457ZM53.4138 11.0001C53.7272 11.0001 53.9883 10.9382 54.2076 10.8181C54.427 10.6942 54.5767 10.5393 54.6637 10.3457V9.69132H53.6158C53.2781 9.69132 53.0378 9.73779 52.8916 9.82685C52.7454 9.91591 52.6723 10.1018 52.6723 10.3883C52.6723 10.6129 52.728 10.7678 52.8464 10.8607C52.9647 10.9537 53.1527 11.0001 53.4138 11.0001Z" fill="white"/>
<path d="M62.0448 6.44256V14.129H60.6905V11.2713C60.5896 11.5346 60.4259 11.7475 60.1996 11.9102C59.9733 12.0728 59.6287 12.1541 59.1691 12.1541C58.7583 12.1541 58.4206 12.0844 58.1595 11.9528C57.8984 11.8172 57.693 11.6236 57.5433 11.3719C57.3935 11.1164 57.2926 10.8105 57.2369 10.4503C57.1812 10.0902 57.1533 9.6875 57.1533 9.24607C57.1533 8.84335 57.1812 8.46775 57.2369 8.11537C57.2926 7.763 57.3935 7.45322 57.5433 7.18991C57.693 6.92659 57.8984 6.71749 58.1595 6.56648C58.4206 6.41546 58.7583 6.33801 59.1691 6.33801C59.6287 6.33801 59.9733 6.41159 60.1996 6.5626C60.4259 6.71362 60.5896 6.9111 60.6905 7.15893V6.44256H62.0448ZM59.5973 11.0118C59.8271 11.0118 60.0186 10.9731 60.1683 10.8995C60.318 10.8221 60.4364 10.7098 60.5234 10.5588C60.6105 10.4077 60.6731 10.218 60.7045 10.0012C60.7393 9.78044 60.7567 9.53261 60.7567 9.24607C60.7567 8.97501 60.7393 8.73106 60.7045 8.51421C60.6696 8.2935 60.6105 8.10763 60.5234 7.95274C60.4364 7.79785 60.318 7.67394 60.1683 7.58875C60.0186 7.49969 59.8306 7.45709 59.5973 7.45709C59.3606 7.45709 59.1726 7.50356 59.0333 7.60424C58.8941 7.70104 58.7861 7.8327 58.7165 7.99146C58.6469 8.15409 58.5981 8.34383 58.5773 8.55681C58.5564 8.77365 58.5459 9.00212 58.5459 9.2422C58.5459 9.49776 58.5564 9.73397 58.5773 9.95469C58.5981 10.1715 58.6469 10.3574 58.7235 10.5162C58.7966 10.6711 58.9045 10.7911 59.0473 10.8802C59.183 10.9692 59.3676 11.0118 59.5973 11.0118Z" fill="white"/>
<path d="M29.6493 6.74061H30.9131L32.5494 10.2334H32.5947L34.8193 3.97583H35.9369L33.3397 11.9798H32.1873L30.3421 8.20432H30.2969L29.3081 11.9798H28.1836L29.6493 6.74061Z" fill="white"/>
<path d="M35.9092 2.396L33.7158 4.11914L36.6298 5.27307L35.9092 2.396Z" fill="white"/>
<path d="M22.8009 3.08521L21.377 5.57119H24.2248L22.8009 3.08521Z" fill="white"/>
<path d="M33.3398 11.9838L33.3572 11.9218L32.5634 10.2374H32.546L31.1534 7.25964L30.9097 6.74463H29.6494L30.478 8.48714L32.1874 11.9838H33.3398Z" fill="white"/>
<path d="M9.60022 7.83435L12.1171 4.66554L8.2352 0H0V16.2927H9.31328L12.9041 11.3824L9.60022 7.83435ZM6.84149 2.56115L8.45246 4.70224L7.32109 5.63617L5.07475 2.56115H6.84149ZM2.4431 4.09866H3.09486L5.07066 6.99423H2.4431V4.09866ZM2.4431 13.9069C2.32832 13.9069 2.4431 10.4118 2.4431 10.4118H3.07847L5.41908 13.9069C5.41908 13.9069 2.55787 13.9069 2.4431 13.9069ZM8.12863 12.9893L5.55436 9.35963H7.62853L9.37477 11.7658L8.12863 12.9893Z" fill="url(#paint0_linear_1878_12055)"/>
<defs>
<linearGradient id="paint0_linear_1878_12055" x1="6.4508" y1="0.00183522" x2="6.4508" y2="16.2949" gradientUnits="userSpaceOnUse">
<stop offset="5.20186e-07" stop-color="#FFA700"/>
<stop offset="1" stop-color="#FF7F00"/>
</linearGradient>
</defs>
</svg>
