<svg width="20" height="20" viewBox="0 0 20 20" fill="none" xmlns="http://www.w3.org/2000/svg">
<path d="M10.8339 9.79121C10.6755 9.79121 10.5172 9.73288 10.3922 9.60788C10.1505 9.36621 10.1505 8.96621 10.3922 8.72454L17.2255 1.89121C17.4672 1.64954 17.8672 1.64954 18.1089 1.89121C18.3505 2.13288 18.3505 2.53288 18.1089 2.77454L11.2755 9.60788C11.1505 9.73288 10.9922 9.79121 10.8339 9.79121Z" fill="#292D32"/>
<path d="M18.332 6.29199C17.9904 6.29199 17.707 6.00866 17.707 5.66699V2.29199H14.332C13.9904 2.29199 13.707 2.00866 13.707 1.66699C13.707 1.32533 13.9904 1.04199 14.332 1.04199H18.332C18.6737 1.04199 18.957 1.32533 18.957 1.66699V5.66699C18.957 6.00866 18.6737 6.29199 18.332 6.29199Z" fill="#292D32"/>
<path d="M12.5013 18.9587H7.5013C2.9763 18.9587 1.04297 17.0253 1.04297 12.5003V7.50033C1.04297 2.97533 2.9763 1.04199 7.5013 1.04199H9.16797C9.50963 1.04199 9.79297 1.32533 9.79297 1.66699C9.79297 2.00866 9.50963 2.29199 9.16797 2.29199H7.5013C3.65964 2.29199 2.29297 3.65866 2.29297 7.50033V12.5003C2.29297 16.342 3.65964 17.7087 7.5013 17.7087H12.5013C16.343 17.7087 17.7096 16.342 17.7096 12.5003V10.8337C17.7096 10.492 17.993 10.2087 18.3346 10.2087C18.6763 10.2087 18.9596 10.492 18.9596 10.8337V12.5003C18.9596 17.0253 17.0263 18.9587 12.5013 18.9587Z" fill="#292D32"/>
</svg>
