<svg xmlns="http://www.w3.org/2000/svg" xmlns:xlink="http://www.w3.org/1999/xlink" width="17" height="17" viewBox="0 0 17 17">
  <defs>
    <clipPath id="clip-path">
      <rect id="Rectangle_19248" data-name="Rectangle 19248" width="17" height="17" transform="translate(1165 928)" fill="#6e3333" opacity="0.33"/>
    </clipPath>
  </defs>
  <g id="Mask_Group_231" data-name="Mask Group 231" transform="translate(-1165 -928)" clip-path="url(#clip-path)">
    <g id="Group_59801" data-name="Group 59801" transform="translate(-22 -31)">
      <path id="Path_43593" data-name="Path 43593" d="M598.722,390.667A1.279,1.279,0,0,1,600,391.945a.417.417,0,1,0,.833,0v-.051a2.114,2.114,0,0,0-2.111-2.061h-.389v-.416a.417.417,0,1,0-.833,0v.416h-.388a2.112,2.112,0,0,0-.667,4.115l1.055.352v3.033h-.388a1.279,1.279,0,0,1-1.279-1.278.417.417,0,1,0-.833,0v.051a2.114,2.114,0,0,0,2.112,2.061h.388v.416a.417.417,0,1,0,.833,0v-.416h.389a2.112,2.112,0,0,0,.666-4.115l-1.055-.352v-3.033Zm.4,4.175a1.278,1.278,0,0,1-.4,2.491h-.389v-2.755Zm-1.626-1.42-.792-.264a1.278,1.278,0,0,1,.4-2.491h.388Z" transform="translate(597.5 573.5)" fill="#777e90" stroke="#777e90" stroke-width="0.4"/>
      <g id="Ellipse_77" data-name="Ellipse 77" transform="translate(1187 959)" fill="none" stroke="#777e90" stroke-width="1.6">
        <circle cx="8.5" cy="8.5" r="8.5" stroke="none"/>
        <circle cx="8.5" cy="8.5" r="7.7" fill="none"/>
      </g>
    </g>
  </g>
</svg>
