<svg width="20" height="20" viewBox="0 0 20 20" fill="none" xmlns="http://www.w3.org/2000/svg">
<path opacity="0.4" d="M17.5667 7.15002V12.85C17.5667 13.7833 17.0667 14.65 16.2584 15.125L11.3084 17.9834C10.5 18.45 9.50005 18.45 8.68338 17.9834L3.73338 15.125C2.92505 14.6584 2.42505 13.7917 2.42505 12.85V7.15002C2.42505 6.21668 2.92505 5.34998 3.73338 4.87498L8.68338 2.01666C9.49172 1.54999 10.4917 1.54999 11.3084 2.01666L16.2584 4.87498C17.0667 5.34998 17.5667 6.20835 17.5667 7.15002Z" fill="#FFA500"/>
<path d="M11.8571 5.42857C11.8571 5.19188 12.049 5 12.2857 5C13.7848 5 15 6.21523 15 7.71429C15 7.95098 14.8081 8.14286 14.5714 8.14286C14.3347 8.14286 14.1429 7.95098 14.1429 7.71429C14.1429 6.68861 13.3114 5.85714 12.2857 5.85714C12.049 5.85714 11.8571 5.66526 11.8571 5.42857Z" fill="#FFA500"/>
<path d="M10 7C9.21102 7 8.57143 7.63959 8.57143 8.42857C8.57143 9.21755 9.21102 9.85714 10 9.85714C10.789 9.85714 11.4286 9.21755 11.4286 8.42857C11.4286 7.63959 10.789 7 10 7Z" fill="#FFA500"/>
<path d="M9.03695 10.2911C8.35726 10.3996 7.85714 10.9859 7.85714 11.6742V11.7799C7.85714 12.2959 8.27548 12.7143 8.79152 12.7143H11.2085C11.7245 12.7143 12.1429 12.2959 12.1429 11.7799V11.6742C12.1429 10.9859 11.6427 10.3996 10.9631 10.2911C10.3251 10.1893 9.67495 10.1893 9.03695 10.2911Z" fill="#FFA500"/>
<path d="M5.85714 12.2857C5.85714 12.049 5.66526 11.8571 5.42857 11.8571C5.19188 11.8571 5 12.049 5 12.2857C5 13.7848 6.21523 15 7.71429 15C7.95098 15 8.14286 14.8081 8.14286 14.5714C8.14286 14.3347 7.95098 14.1429 7.71429 14.1429C6.68861 14.1429 5.85714 13.3114 5.85714 12.2857Z" fill="#FFA500"/>
<path d="M5 7.71429C5 6.21523 6.21523 5 7.71429 5C7.95098 5 8.14286 5.19188 8.14286 5.42857C8.14286 5.66526 7.95098 5.85714 7.71429 5.85714C6.68861 5.85714 5.85714 6.68861 5.85714 7.71429C5.85714 7.95098 5.66526 8.14286 5.42857 8.14286C5.19188 8.14286 5 7.95098 5 7.71429Z" fill="#FFA500"/>
<path d="M15 12.2857C15 12.049 14.8081 11.8571 14.5714 11.8571C14.3347 11.8571 14.1429 12.049 14.1429 12.2857C14.1429 13.3114 13.3114 14.1429 12.2857 14.1429C12.049 14.1429 11.8571 14.3347 11.8571 14.5714C11.8571 14.8081 12.049 15 12.2857 15C13.7848 15 15 13.7848 15 12.2857Z" fill="#FFA500"/>
</svg>
