<svg width="76" height="76" viewBox="0 0 76 76" fill="none" xmlns="http://www.w3.org/2000/svg">
<circle cx="38" cy="38" r="38" fill="#FFF7F0"/>
<path d="M37.9992 51.4379C37.1617 51.4379 36.3117 51.2253 35.5617 50.7878L28.1367 46.5004C26.6367 45.6254 25.6992 44.0128 25.6992 42.2753V33.7254C25.6992 31.9879 26.6367 30.3754 28.1367 29.5004L35.5617 25.2129C37.0617 24.3379 38.9242 24.3379 40.4367 25.2129L47.8617 29.5004C49.3617 30.3754 50.2992 31.9879 50.2992 33.7254V42.2753C50.2992 44.0128 49.3617 45.6254 47.8617 46.5004L40.4367 50.7878C39.6867 51.2253 38.8367 51.4379 37.9992 51.4379ZM37.9992 26.4379C37.4867 26.4379 36.9617 26.5754 36.4992 26.8379L29.0742 31.1254C28.1492 31.6629 27.5742 32.6504 27.5742 33.7254V42.2753C27.5742 43.3378 28.1492 44.3379 29.0742 44.8754L36.4992 49.1629C37.4242 49.7004 38.5742 49.7004 39.4992 49.1629L46.9242 44.8754C47.8492 44.3379 48.4242 43.3503 48.4242 42.2753V33.7254C48.4242 32.6629 47.8492 31.6629 46.9242 31.1254L39.4992 26.8379C39.0367 26.5754 38.5117 26.4379 37.9992 26.4379Z" fill="#FFA500"/>
<path d="M37.9984 37.6882C35.8734 37.6882 34.1484 35.9632 34.1484 33.8382C34.1484 31.7132 35.8734 29.9883 37.9984 29.9883C40.1234 29.9883 41.8484 31.7132 41.8484 33.8382C41.8484 35.9632 40.1234 37.6882 37.9984 37.6882ZM37.9984 31.8633C36.9109 31.8633 36.0234 32.7507 36.0234 33.8382C36.0234 34.9257 36.9109 35.8132 37.9984 35.8132C39.0859 35.8132 39.9734 34.9257 39.9734 33.8382C39.9734 32.7507 39.0859 31.8633 37.9984 31.8633Z" fill="#FFA500"/>
<path d="M43 44.7624C42.4875 44.7624 42.0625 44.3374 42.0625 43.8249C42.0625 42.0999 40.2375 40.6875 38 40.6875C35.7625 40.6875 33.9375 42.0999 33.9375 43.8249C33.9375 44.3374 33.5125 44.7624 33 44.7624C32.4875 44.7624 32.0625 44.3374 32.0625 43.8249C32.0625 41.0624 34.725 38.8125 38 38.8125C41.275 38.8125 43.9375 41.0624 43.9375 43.8249C43.9375 44.3374 43.5125 44.7624 43 44.7624Z" fill="#FFA500"/>
<path d="M37.9992 51.4379C37.1617 51.4379 36.3117 51.2253 35.5617 50.7878L28.1367 46.5004C26.6367 45.6254 25.6992 44.0128 25.6992 42.2753V33.7254C25.6992 31.9879 26.6367 30.3754 28.1367 29.5004L35.5617 25.2129C37.0617 24.3379 38.9242 24.3379 40.4367 25.2129L47.8617 29.5004C49.3617 30.3754 50.2992 31.9879 50.2992 33.7254V42.2753C50.2992 44.0128 49.3617 45.6254 47.8617 46.5004L40.4367 50.7878C39.6867 51.2253 38.8367 51.4379 37.9992 51.4379ZM37.9992 26.4379C37.4867 26.4379 36.9617 26.5754 36.4992 26.8379L29.0742 31.1254C28.1492 31.6629 27.5742 32.6504 27.5742 33.7254V42.2753C27.5742 43.3378 28.1492 44.3379 29.0742 44.8754L36.4992 49.1629C37.4242 49.7004 38.5742 49.7004 39.4992 49.1629L46.9242 44.8754C47.8492 44.3379 48.4242 43.3503 48.4242 42.2753V33.7254C48.4242 32.6629 47.8492 31.6629 46.9242 31.1254L39.4992 26.8379C39.0367 26.5754 38.5117 26.4379 37.9992 26.4379Z" fill="#FFA500"/>
<path d="M37.9984 37.6882C35.8734 37.6882 34.1484 35.9632 34.1484 33.8382C34.1484 31.7132 35.8734 29.9883 37.9984 29.9883C40.1234 29.9883 41.8484 31.7132 41.8484 33.8382C41.8484 35.9632 40.1234 37.6882 37.9984 37.6882ZM37.9984 31.8633C36.9109 31.8633 36.0234 32.7507 36.0234 33.8382C36.0234 34.9257 36.9109 35.8132 37.9984 35.8132C39.0859 35.8132 39.9734 34.9257 39.9734 33.8382C39.9734 32.7507 39.0859 31.8633 37.9984 31.8633Z" fill="#FFA500"/>
<path d="M43 44.7624C42.4875 44.7624 42.0625 44.3374 42.0625 43.8249C42.0625 42.0999 40.2375 40.6875 38 40.6875C35.7625 40.6875 33.9375 42.0999 33.9375 43.8249C33.9375 44.3374 33.5125 44.7624 33 44.7624C32.4875 44.7624 32.0625 44.3374 32.0625 43.8249C32.0625 41.0624 34.725 38.8125 38 38.8125C41.275 38.8125 43.9375 41.0624 43.9375 43.8249C43.9375 44.3374 43.5125 44.7624 43 44.7624Z" fill="#FFA500"/>
</svg>
