<svg width="76" height="76" viewBox="0 0 76 76" fill="none" xmlns="http://www.w3.org/2000/svg">
<circle cx="38" cy="38" r="38" fill="#FFF7F0"/>
<path d="M25.5 35.1875C24.9875 35.1875 24.5625 34.7625 24.5625 34.25V31.125C24.5625 27.5 27.5125 24.5625 31.125 24.5625H34.25C34.7625 24.5625 35.1875 24.9875 35.1875 25.5C35.1875 26.0125 34.7625 26.4375 34.25 26.4375H31.125C28.5375 26.4375 26.4375 28.5375 26.4375 31.125V34.25C26.4375 34.7625 26.0125 35.1875 25.5 35.1875Z" fill="#FFA500"/>
<path d="M50.5 35.1875C49.9875 35.1875 49.5625 34.7625 49.5625 34.25V31.125C49.5625 28.5375 47.4625 26.4375 44.875 26.4375H41.75C41.2375 26.4375 40.8125 26.0125 40.8125 25.5C40.8125 24.9875 41.2375 24.5625 41.75 24.5625H44.875C48.4875 24.5625 51.4375 27.5 51.4375 31.125V34.25C51.4375 34.7625 51.0125 35.1875 50.5 35.1875Z" fill="#FFA500"/>
<path d="M44.875 51.4375H43C42.4875 51.4375 42.0625 51.0125 42.0625 50.5C42.0625 49.9875 42.4875 49.5625 43 49.5625H44.875C47.4625 49.5625 49.5625 47.4625 49.5625 44.875V43C49.5625 42.4875 49.9875 42.0625 50.5 42.0625C51.0125 42.0625 51.4375 42.4875 51.4375 43V44.875C51.4375 48.5 48.4875 51.4375 44.875 51.4375Z" fill="#FFA500"/>
<path d="M34.25 51.4375H31.125C27.5125 51.4375 24.5625 48.5 24.5625 44.875V41.75C24.5625 41.2375 24.9875 40.8125 25.5 40.8125C26.0125 40.8125 26.4375 41.2375 26.4375 41.75V44.875C26.4375 47.4625 28.5375 49.5625 31.125 49.5625H34.25C34.7625 49.5625 35.1875 49.9875 35.1875 50.5C35.1875 51.0125 34.7625 51.4375 34.25 51.4375Z" fill="#FFA500"/>
<path d="M40.5 45.8125H35.5C32.475 45.8125 30.8125 44.15 30.8125 41.125V34.875C30.8125 31.85 32.475 30.1875 35.5 30.1875H40.5C43.525 30.1875 45.1875 31.85 45.1875 34.875V41.125C45.1875 44.15 43.525 45.8125 40.5 45.8125ZM35.5 32.0625C33.525 32.0625 32.6875 32.9 32.6875 34.875V41.125C32.6875 43.1 33.525 43.9375 35.5 43.9375H40.5C42.475 43.9375 43.3125 43.1 43.3125 41.125V34.875C43.3125 32.9 42.475 32.0625 40.5 32.0625H35.5Z" fill="#FFA500"/>
<path d="M46.75 38.9375H29.25C28.7375 38.9375 28.3125 38.5125 28.3125 38C28.3125 37.4875 28.7375 37.0625 29.25 37.0625H46.75C47.2625 37.0625 47.6875 37.4875 47.6875 38C47.6875 38.5125 47.2625 38.9375 46.75 38.9375Z" fill="#FFA500"/>
<path d="M25.5 35.1875C24.9875 35.1875 24.5625 34.7625 24.5625 34.25V31.125C24.5625 27.5 27.5125 24.5625 31.125 24.5625H34.25C34.7625 24.5625 35.1875 24.9875 35.1875 25.5C35.1875 26.0125 34.7625 26.4375 34.25 26.4375H31.125C28.5375 26.4375 26.4375 28.5375 26.4375 31.125V34.25C26.4375 34.7625 26.0125 35.1875 25.5 35.1875Z" fill="#FFA500"/>
<path d="M50.5 35.1875C49.9875 35.1875 49.5625 34.7625 49.5625 34.25V31.125C49.5625 28.5375 47.4625 26.4375 44.875 26.4375H41.75C41.2375 26.4375 40.8125 26.0125 40.8125 25.5C40.8125 24.9875 41.2375 24.5625 41.75 24.5625H44.875C48.4875 24.5625 51.4375 27.5 51.4375 31.125V34.25C51.4375 34.7625 51.0125 35.1875 50.5 35.1875Z" fill="#FFA500"/>
<path d="M44.875 51.4375H43C42.4875 51.4375 42.0625 51.0125 42.0625 50.5C42.0625 49.9875 42.4875 49.5625 43 49.5625H44.875C47.4625 49.5625 49.5625 47.4625 49.5625 44.875V43C49.5625 42.4875 49.9875 42.0625 50.5 42.0625C51.0125 42.0625 51.4375 42.4875 51.4375 43V44.875C51.4375 48.5 48.4875 51.4375 44.875 51.4375Z" fill="#FFA500"/>
<path d="M34.25 51.4375H31.125C27.5125 51.4375 24.5625 48.5 24.5625 44.875V41.75C24.5625 41.2375 24.9875 40.8125 25.5 40.8125C26.0125 40.8125 26.4375 41.2375 26.4375 41.75V44.875C26.4375 47.4625 28.5375 49.5625 31.125 49.5625H34.25C34.7625 49.5625 35.1875 49.9875 35.1875 50.5C35.1875 51.0125 34.7625 51.4375 34.25 51.4375Z" fill="#FFA500"/>
<path d="M40.5 45.8125H35.5C32.475 45.8125 30.8125 44.15 30.8125 41.125V34.875C30.8125 31.85 32.475 30.1875 35.5 30.1875H40.5C43.525 30.1875 45.1875 31.85 45.1875 34.875V41.125C45.1875 44.15 43.525 45.8125 40.5 45.8125ZM35.5 32.0625C33.525 32.0625 32.6875 32.9 32.6875 34.875V41.125C32.6875 43.1 33.525 43.9375 35.5 43.9375H40.5C42.475 43.9375 43.3125 43.1 43.3125 41.125V34.875C43.3125 32.9 42.475 32.0625 40.5 32.0625H35.5Z" fill="#FFA500"/>
<path d="M46.75 38.9375H29.25C28.7375 38.9375 28.3125 38.5125 28.3125 38C28.3125 37.4875 28.7375 37.0625 29.25 37.0625H46.75C47.2625 37.0625 47.6875 37.4875 47.6875 38C47.6875 38.5125 47.2625 38.9375 46.75 38.9375Z" fill="#FFA500"/>
</svg>
