<svg width="76" height="76" viewBox="0 0 76 76" fill="none" xmlns="http://www.w3.org/2000/svg">
<circle cx="38" cy="38" r="38" fill="#FFF7F0"/>
<g clip-path="url(#clip0_4937_21390)">
<path d="M47.7513 47.75V51H45.5846V47.75C45.5846 46.5551 44.6129 45.5833 43.418 45.5833H32.5846C31.3897 45.5833 30.418 46.5551 30.418 47.75V51H28.2513V47.75C28.2513 45.3602 30.1948 43.4167 32.5846 43.4167H43.418C45.8078 43.4167 47.7513 45.3602 47.7513 47.75ZM48.8346 31.5V36.9167H46.668V41.25H29.3346V36.9167H27.168V31.5H29.3346V30.4167C29.3346 28.6248 30.7928 27.1667 32.5846 27.1667H36.918V25H39.0846V27.1667H43.418C45.2098 27.1667 46.668 28.6248 46.668 30.4167V31.5H48.8346ZM44.5013 30.4167C44.5013 29.8187 44.0149 29.3333 43.418 29.3333H32.5846C31.9877 29.3333 31.5013 29.8187 31.5013 30.4167V39.0833H44.5013V30.4167ZM35.293 32.5833C34.396 32.5833 33.668 33.3113 33.668 34.2083C33.668 35.1053 34.396 35.8333 35.293 35.8333C36.19 35.8333 36.918 35.1053 36.918 34.2083C36.918 33.3113 36.19 32.5833 35.293 32.5833ZM40.7096 32.5833C39.8126 32.5833 39.0846 33.3113 39.0846 34.2083C39.0846 35.1053 39.8126 35.8333 40.7096 35.8333C41.6066 35.8333 42.3346 35.1053 42.3346 34.2083C42.3346 33.3113 41.6066 32.5833 40.7096 32.5833Z" fill="#FFA500"/>
</g>
<g clip-path="url(#clip1_4937_21390)">
<path d="M47.7513 47.75V51H45.5846V47.75C45.5846 46.5551 44.6129 45.5833 43.418 45.5833H32.5846C31.3897 45.5833 30.418 46.5551 30.418 47.75V51H28.2513V47.75C28.2513 45.3602 30.1948 43.4167 32.5846 43.4167H43.418C45.8078 43.4167 47.7513 45.3602 47.7513 47.75ZM48.8346 31.5V36.9167H46.668V41.25H29.3346V36.9167H27.168V31.5H29.3346V30.4167C29.3346 28.6248 30.7928 27.1667 32.5846 27.1667H36.918V25H39.0846V27.1667H43.418C45.2098 27.1667 46.668 28.6248 46.668 30.4167V31.5H48.8346ZM44.5013 30.4167C44.5013 29.8187 44.0149 29.3333 43.418 29.3333H32.5846C31.9877 29.3333 31.5013 29.8187 31.5013 30.4167V39.0833H44.5013V30.4167ZM35.293 32.5833C34.396 32.5833 33.668 33.3113 33.668 34.2083C33.668 35.1053 34.396 35.8333 35.293 35.8333C36.19 35.8333 36.918 35.1053 36.918 34.2083C36.918 33.3113 36.19 32.5833 35.293 32.5833ZM40.7096 32.5833C39.8126 32.5833 39.0846 33.3113 39.0846 34.2083C39.0846 35.1053 39.8126 35.8333 40.7096 35.8333C41.6066 35.8333 42.3346 35.1053 42.3346 34.2083C42.3346 33.3113 41.6066 32.5833 40.7096 32.5833Z" fill="#FFA500"/>
</g>
<defs>
<clipPath id="clip0_4937_21390">
<rect width="26" height="26" fill="white" transform="translate(25 25)"/>
</clipPath>
<clipPath id="clip1_4937_21390">
<rect width="26" height="26" fill="white" transform="translate(25 25)"/>
</clipPath>
</defs>
</svg>
