<svg width="76" height="76" viewBox="0 0 76 76" fill="none" xmlns="http://www.w3.org/2000/svg">
<circle cx="38" cy="38" r="38" fill="#FFF7F0"/>
<path d="M38 43.3125C34.725 43.3125 32.0625 40.65 32.0625 37.375V30.5C32.0625 27.225 34.725 24.5625 38 24.5625C41.275 24.5625 43.9375 27.225 43.9375 30.5V37.375C43.9375 40.65 41.275 43.3125 38 43.3125ZM38 26.4375C35.7625 26.4375 33.9375 28.2625 33.9375 30.5V37.375C33.9375 39.6125 35.7625 41.4375 38 41.4375C40.2375 41.4375 42.0625 39.6125 42.0625 37.375V30.5C42.0625 28.2625 40.2375 26.4375 38 26.4375Z" fill="#FFA500"/>
<path d="M38 47.6875C32.2125 47.6875 27.5 42.975 27.5 37.1875V35.0625C27.5 34.55 27.925 34.125 28.4375 34.125C28.95 34.125 29.375 34.55 29.375 35.0625V37.1875C29.375 41.9375 33.25 45.8125 38 45.8125C42.75 45.8125 46.625 41.9375 46.625 37.1875V35.0625C46.625 34.55 47.05 34.125 47.5625 34.125C48.075 34.125 48.5 34.55 48.5 35.0625V37.1875C48.5 42.975 43.7875 47.6875 38 47.6875Z" fill="#FFA500"/>
<path d="M39.7339 31.9749C39.6339 31.9749 39.5214 31.9624 39.4089 31.9249C38.4964 31.5874 37.4964 31.5874 36.5839 31.9249C36.0964 32.0999 35.5589 31.8499 35.3839 31.3624C35.2089 30.8749 35.4589 30.3374 35.9464 30.1624C37.2714 29.6874 38.7339 29.6874 40.0589 30.1624C40.5464 30.3374 40.7964 30.8749 40.6214 31.3624C40.4714 31.7374 40.1089 31.9749 39.7339 31.9749Z" fill="#FFA500"/>
<path d="M39.0006 34.6249C38.9131 34.6249 38.8381 34.6124 38.7506 34.5874C38.2506 34.4499 37.7381 34.4499 37.2381 34.5874C36.7381 34.7249 36.2256 34.4249 36.0881 33.9249C35.9506 33.4374 36.2506 32.9249 36.7506 32.7874C37.5631 32.5624 38.4381 32.5624 39.2506 32.7874C39.7506 32.9249 40.0506 33.4374 39.9131 33.9374C39.8006 34.3499 39.4131 34.6249 39.0006 34.6249Z" fill="#FFA500"/>
<path d="M38 51.4375C37.4875 51.4375 37.0625 51.0125 37.0625 50.5V46.75C37.0625 46.2375 37.4875 45.8125 38 45.8125C38.5125 45.8125 38.9375 46.2375 38.9375 46.75V50.5C38.9375 51.0125 38.5125 51.4375 38 51.4375Z" fill="#FFA500"/>
</svg>
