<svg width="76" height="76" viewBox="0 0 76 76" fill="none" xmlns="http://www.w3.org/2000/svg">
<circle cx="38" cy="38" r="38" fill="#FFF7F0"/>
<path d="M38 42.5377C36.35 42.5377 35 41.1877 35 39.5377V36.4502C35 34.8002 36.35 33.4502 38 33.4502C39.65 33.4502 41 34.8002 41 36.4502V39.5377C41 41.2002 39.65 42.5377 38 42.5377ZM38 35.3377C37.3875 35.3377 36.875 35.8377 36.875 36.4627V39.5502C36.875 40.1752 37.375 40.6752 38 40.6752C38.625 40.6752 39.125 40.1752 39.125 39.5502V36.4627C39.125 35.8377 38.6125 35.3377 38 35.3377Z" fill="#FFA500"/>
<path d="M38 46.5251C34.0375 46.5251 30.8125 43.3001 30.8125 39.3376V36.6626C30.8125 32.7001 34.0375 29.4751 38 29.4751C41.7 29.4751 44.775 32.2501 45.15 35.9251C45.2 36.4376 44.825 36.9001 44.3125 36.9501C43.8 37.0126 43.3375 36.6251 43.2875 36.1126C43.0125 33.4001 40.7375 31.3501 38 31.3501C35.075 31.3501 32.6875 33.7376 32.6875 36.6626V39.3376C32.6875 42.2626 35.075 44.6501 38 44.6501C40.75 44.6501 43.075 42.5001 43.3 39.7626C43.3375 39.2501 43.7875 38.8626 44.3125 38.9001C44.825 38.9376 45.2125 39.3876 45.175 39.9126C44.875 43.6251 41.725 46.5251 38 46.5251Z" fill="#FFA500"/>
<path d="M50.5 35.1875C49.9875 35.1875 49.5625 34.7625 49.5625 34.25V31.75C49.5625 28.525 47.475 26.4375 44.25 26.4375H41.75C41.2375 26.4375 40.8125 26.0125 40.8125 25.5C40.8125 24.9875 41.2375 24.5625 41.75 24.5625H44.25C48.55 24.5625 51.4375 27.45 51.4375 31.75V34.25C51.4375 34.7625 51.0125 35.1875 50.5 35.1875Z" fill="#FFA500"/>
<path d="M25.5 35.1875C24.9875 35.1875 24.5625 34.7625 24.5625 34.25V31.75C24.5625 27.45 27.45 24.5625 31.75 24.5625H34.25C34.7625 24.5625 35.1875 24.9875 35.1875 25.5C35.1875 26.0125 34.7625 26.4375 34.25 26.4375H31.75C28.525 26.4375 26.4375 28.525 26.4375 31.75V34.25C26.4375 34.7625 26.0125 35.1875 25.5 35.1875Z" fill="#FFA500"/>
<path d="M44.25 51.4375H41.75C41.2375 51.4375 40.8125 51.0125 40.8125 50.5C40.8125 49.9875 41.2375 49.5625 41.75 49.5625H44.25C47.475 49.5625 49.5625 47.475 49.5625 44.25V41.75C49.5625 41.2375 49.9875 40.8125 50.5 40.8125C51.0125 40.8125 51.4375 41.2375 51.4375 41.75V44.25C51.4375 48.55 48.55 51.4375 44.25 51.4375Z" fill="#FFA500"/>
<path d="M34.25 51.4375H31.75C27.45 51.4375 24.5625 48.55 24.5625 44.25V41.75C24.5625 41.2375 24.9875 40.8125 25.5 40.8125C26.0125 40.8125 26.4375 41.2375 26.4375 41.75V44.25C26.4375 47.475 28.525 49.5625 31.75 49.5625H34.25C34.7625 49.5625 35.1875 49.9875 35.1875 50.5C35.1875 51.0125 34.7625 51.4375 34.25 51.4375Z" fill="#FFA500"/>
</svg>
