<svg width="69" height="69" viewBox="0 0 69 69" fill="none" xmlns="http://www.w3.org/2000/svg">
<path d="M66.3401 10.6133L59.871 4.14452C59.2404 3.51355 58.217 3.51276 57.5857 4.14373C57.5857 4.14413 57.5853 4.14452 57.5845 4.14452L38.1786 23.5512C37.8752 23.8542 37.7051 24.2652 37.7051 24.694V31.1632C37.7051 32.0561 38.429 32.78 39.3219 32.78H45.791C46.2198 32.78 46.6309 32.6099 46.9339 32.3065L66.3401 12.9002C66.9715 12.2692 66.9719 11.2458 66.3413 10.6145C66.3409 10.6145 66.3409 10.6137 66.3401 10.6133ZM45.1213 29.546H40.9391V25.3642L58.7281 7.57511L62.91 11.7569L45.1213 29.546Z" fill="#FF0505"/>
<path d="M61.9625 23.0777C61.0697 23.0777 60.3457 23.8017 60.3457 24.6945V47.3352C60.343 50.0133 58.1723 52.184 55.4942 52.1871H39.3223C38.9722 52.1863 38.6316 52.2999 38.3519 52.5103L28.002 60.2731V53.8043C28.002 52.9111 27.278 52.1871 26.3848 52.1871H10.2129C7.53472 52.184 5.3641 50.0133 5.36172 47.3356V18.2258C5.36449 15.548 7.53472 13.3774 10.2129 13.3746H39.3223C40.2155 13.3746 40.9395 12.6507 40.9395 11.7574C40.9395 10.8646 40.2155 10.1406 39.3223 10.1406H10.2129C5.74901 10.145 2.1313 13.7627 2.12695 18.2258V47.3356C2.1313 51.799 5.74901 55.4167 10.2129 55.4215H24.7676V63.5074C24.7676 64.4003 25.4915 65.1242 26.3848 65.1242C26.7349 65.1242 27.0751 65.0107 27.3552 64.801L39.8631 55.4211H55.4942C59.958 55.4167 63.5754 51.799 63.5801 47.3352V24.6949C63.5801 23.8017 62.8558 23.0777 61.9625 23.0777Z" fill="black"/>
<path d="M29.6188 19.8428H13.4477C12.554 19.8428 11.8301 20.5667 11.8301 21.46C11.8301 22.3528 12.554 23.0768 13.4477 23.0768H29.6188C30.512 23.0768 31.2363 22.3528 31.2363 21.46C31.2363 20.5667 30.512 19.8428 29.6188 19.8428Z" fill="black"/>
<path d="M13.4477 32.7803H29.6188C30.512 32.7803 31.2363 32.0559 31.2363 31.1631C31.2363 30.2698 30.512 29.5459 29.6188 29.5459H13.4477C12.554 29.5459 11.8301 30.2698 11.8301 31.1631C11.8301 32.0559 12.554 32.7803 13.4477 32.7803Z" fill="black"/>
<path d="M13.4477 42.483H52.2598C53.153 42.483 53.8766 41.7591 53.8766 40.8658C53.8766 39.973 53.1526 39.249 52.2598 39.249H13.4477C12.554 39.249 11.8301 39.973 11.8301 40.8658C11.8301 41.7591 12.554 42.483 13.4477 42.483Z" fill="black"/>
</svg>
