<svg width="9" height="9" viewBox="0 0 9 9" fill="none" xmlns="http://www.w3.org/2000/svg">
<g clip-path="url(#clip0_439_1796)">
<path d="M7.875 4.3125V5.625H6.75C6.45163 5.625 6.16548 5.74353 5.9545 5.9545C5.74353 6.16548 5.625 6.45163 5.625 6.75V7.875H1.6875C1.53832 7.875 1.39524 7.81574 1.28975 7.71025C1.18426 7.60476 1.125 7.46168 1.125 7.3125V1.6875C1.125 1.53832 1.18426 1.39524 1.28975 1.28975C1.39524 1.18426 1.53832 1.125 1.6875 1.125H5.0625C5.21168 1.125 5.35476 1.06574 5.46025 0.960248C5.56574 0.854758 5.625 0.711684 5.625 0.5625C5.625 0.413316 5.56574 0.270242 5.46025 0.164752C5.35476 0.0592632 5.21168 0 5.0625 0L1.6875 0C1.23995 0 0.810725 0.17779 0.494257 0.494257C0.17779 0.810725 0 1.23995 0 1.6875L0 7.3125C0 7.76005 0.17779 8.18927 0.494257 8.50574C0.810725 8.82221 1.23995 9 1.6875 9H6.1815C6.62887 9 7.05794 8.82236 7.37438 8.50613L8.50575 7.37475C8.82212 7.05837 8.9999 6.6293 9 6.18188V4.3125C9 4.16332 8.94074 4.02024 8.83525 3.91475C8.72976 3.80926 8.58668 3.75 8.4375 3.75C8.28832 3.75 8.14524 3.80926 8.03975 3.91475C7.93426 4.02024 7.875 4.16332 7.875 4.3125Z" fill="white"/>
<path d="M6.67237 0.672447L1.98488 5.35995C1.91454 5.43026 1.87502 5.52562 1.875 5.62507V6.75007C1.875 6.84953 1.91451 6.94491 1.98484 7.01524C2.05516 7.08556 2.15054 7.12507 2.25 7.12507H3.375C3.47445 7.12505 3.56982 7.08553 3.64012 7.0152L8.26425 2.39107C8.42072 2.24019 8.53575 2.05159 8.59827 1.8434C8.66079 1.63522 8.6687 1.41445 8.62125 1.20232C8.56816 1.00504 8.4643 0.825104 8.32002 0.680452C8.17575 0.535799 7.99608 0.431476 7.79894 0.377874C7.60179 0.324272 7.39404 0.323262 7.19638 0.374946C6.99872 0.42663 6.81805 0.529203 6.67237 0.672447Z" fill="white"/>
</g>
<defs>
<clipPath id="clip0_439_1796">
<rect width="9" height="9" fill="white"/>
</clipPath>
</defs>
</svg>
