<svg width="24" height="28" viewBox="0 0 24 28" fill="none" xmlns="http://www.w3.org/2000/svg">
<path d="M23.7562 21.9979C23.7562 22.3661 23.7562 22.7343 23.7562 23.1024C23.6739 23.3737 23.6159 23.6498 23.5142 23.9066C23.0981 24.953 22.2997 25.636 21.3417 26.1689C19.8949 26.973 18.3078 27.2831 16.6917 27.4817C16.2997 27.5301 15.9078 27.5689 15.5159 27.6125C15.0465 27.6125 14.582 27.6125 14.1126 27.6125C13.7546 27.564 13.3965 27.5301 13.0433 27.4671C11.161 27.1329 9.73359 26.0962 8.64005 24.5703C7.74972 23.3204 7.37714 21.9253 7.65779 20.3945C7.83198 19.4353 8.22875 18.5633 8.74166 17.7398C8.96908 17.3765 9.23521 17.0374 9.48682 16.6789C9.45295 16.6644 9.41424 16.6353 9.37553 16.6353C9.07553 16.645 8.77069 16.6789 8.47069 16.6644C8.24327 16.6547 8.13198 16.7613 8.10779 16.955C8.07875 17.2263 8.06424 17.5024 8.07392 17.7737C8.07875 17.9384 8.02553 18.0111 7.87553 18.0353C7.63843 18.0692 7.40134 18.0983 7.1594 18.1225C6.65617 18.1661 6.58843 18.2436 6.61746 18.7329C6.6223 18.791 6.62714 18.8443 6.62714 18.9024C6.62714 19.2076 6.62714 19.5177 6.62714 19.8374C5.54327 19.9004 4.49327 20.0699 3.42392 20.0021C3.41908 19.9149 3.41424 19.8519 3.41424 19.7889C3.36585 18.6408 3.3465 17.4976 3.26908 16.3495C3.1965 15.2741 2.97875 14.2229 2.65456 13.191C2.31101 12.1011 1.76908 11.0983 1.27553 10.0761C1.01424 9.52389 0.719078 8.98133 0.433594 8.42908C0.433594 8.37095 0.433594 8.31766 0.433594 8.25953C0.593271 8.19171 0.743271 8.08029 0.907787 8.05607C1.19811 8.01247 1.49811 8.01247 1.79811 8.00278C3.36101 7.94465 4.92392 7.89621 6.48682 7.82354C6.98037 7.79932 7.39166 7.61039 7.70134 7.16956C8.36424 6.23462 9.06585 5.32873 9.74811 4.40347C9.93682 4.15157 10.1884 4.03046 10.4836 4.0014C10.682 3.98202 10.8804 3.99171 11.0788 3.98687C11.3594 3.98202 11.6449 3.99655 11.9255 3.97233C12.1675 3.94811 12.2642 3.77856 12.182 3.54603C12.1384 3.41524 12.0659 3.28929 11.9836 3.17302C11.6352 2.67406 11.2723 2.18479 10.9191 1.69067C10.7207 1.4097 10.7836 1.2014 11.1029 1.07545C11.2481 1.01732 11.4029 0.997938 11.5481 0.934962C11.9304 0.770256 12.2642 0.862298 12.5739 1.10936C12.7529 1.24984 12.9223 1.40001 13.111 1.52597C13.3481 1.68583 13.5659 1.67129 13.7642 1.46299C13.9046 1.31766 14.0304 1.14811 14.1271 0.968872C14.2626 0.712125 14.4707 0.634616 14.7223 0.67337C14.911 0.70728 15.0949 0.794478 15.2691 0.876831C15.482 0.973716 15.6755 1.10936 15.8884 1.19171C16.1062 1.27891 16.2949 1.25953 16.4884 1.05123C16.6917 0.838076 16.9675 0.687903 17.2239 0.532886C17.3594 0.455377 17.5239 0.426312 17.6788 0.377869C17.8771 0.377869 18.0755 0.377869 18.2739 0.377869C18.5352 0.494132 18.811 0.591017 19.0481 0.74119C19.1836 0.823543 19.2997 0.871986 19.4546 0.871986C19.7788 0.876831 20.1029 0.886519 20.4175 1.06576C20.3497 1.14811 20.2917 1.21109 20.2336 1.28375C19.8126 1.80693 19.3771 2.32043 18.9755 2.85815C18.5788 3.42008 18.2594 4.02078 18.0368 4.66991C17.9159 5.02839 18.0368 5.24154 18.4046 5.32873C18.5352 5.3578 18.6659 5.38687 18.7965 5.41109C19.3433 5.52251 19.861 5.68721 20.2529 6.12804C20.5288 6.43808 20.6062 6.77718 20.4562 7.16472C20.3788 7.36818 20.2868 7.5668 20.2094 7.7751C20.1126 8.03669 20.0981 8.29828 20.2529 8.55019C20.6884 9.2623 20.5094 10.1246 19.8368 10.5993C19.7546 10.6575 19.6771 10.7204 19.6046 10.7834C19.5029 10.8706 19.4691 10.9626 19.5271 11.0983C19.6433 11.3793 19.5852 11.6408 19.4013 11.8734C19.29 12.0139 19.1546 12.1301 19.0529 12.2754C18.8884 12.5177 18.7046 12.7599 18.6029 13.0312C18.482 13.3606 18.5207 13.6561 18.8642 13.9128C19.832 14.6443 20.6788 15.5114 21.4336 16.4658C22.4546 17.764 23.2191 19.1931 23.5626 20.8256C23.6449 21.2132 23.6933 21.6056 23.7562 21.9979ZM12.9078 4.86368C12.9078 4.85884 12.9078 4.85399 12.9078 4.84915C12.1529 4.84915 11.3933 4.8443 10.6384 4.85399C10.5417 4.85399 10.4159 4.91212 10.3578 4.98479C9.68037 5.84707 9.00295 6.70936 8.35456 7.59102C7.77392 8.38064 7.79811 8.39033 7.78843 9.37856C7.76908 11.3938 7.88521 13.3993 8.04488 15.4049C8.0594 15.5599 8.12714 15.5696 8.24811 15.5696C8.85779 15.5793 9.46746 15.5793 10.0723 15.618C10.3965 15.6374 10.6142 15.5453 10.832 15.2934C11.4175 14.6104 12.0175 13.9419 12.4917 13.1716C12.6175 12.9633 12.6465 12.7647 12.6223 12.5322C12.5546 11.8685 12.5691 11.2049 12.6997 10.546C12.7094 10.4879 12.7288 10.4104 12.6997 10.362C12.4626 9.90174 12.5062 9.41732 12.5497 8.92804C12.5981 8.4097 12.7239 7.93496 13.111 7.55226C13.3723 7.29552 13.5755 6.97579 13.8513 6.73842C14.2723 6.3751 14.3691 6.39448 14.7852 6.76264C15.061 7.00486 15.3223 7.26645 15.6078 7.49898C15.8884 7.7315 16.2175 7.85261 16.59 7.82839C16.8949 7.81386 17.0255 7.60555 16.9094 7.33427C16.8659 7.23738 16.8271 7.13565 16.7739 7.04846C16.3917 6.41385 15.9949 5.7841 15.6271 5.13981C15.5062 4.9315 15.3659 4.85884 15.1384 4.85884C14.3933 4.86853 13.6481 4.86368 12.9078 4.86368ZM15.6949 24.2021C16.0965 24.0713 16.4691 23.9938 16.7933 23.8242C17.3933 23.5142 17.6062 22.9765 17.5626 22.3128C17.5239 21.7121 17.2336 21.281 16.682 21.0485C16.4449 20.9467 16.1836 20.8886 15.9417 20.8014C15.8884 20.782 15.8159 20.719 15.8159 20.6754C15.8062 20.3363 15.811 20.0021 15.811 19.5952C16.261 19.6969 16.6771 19.7889 17.1078 19.8858C17.1175 19.7405 17.132 19.5806 17.1465 19.4208C17.2046 18.8443 17.2046 18.8443 16.6142 18.7571C16.6094 18.7571 16.5997 18.7571 16.5949 18.7571C16.3384 18.728 16.082 18.7038 15.8062 18.6748C15.8062 18.4616 15.8062 18.2678 15.8062 18.0644C15.6465 18.0644 15.511 18.0644 15.3562 18.0644C15.3562 18.2727 15.3562 18.4713 15.3562 18.6796C15.1675 18.7087 14.9933 18.7232 14.8239 18.7668C14.2481 18.9024 13.7884 19.1883 13.6142 19.7938C13.3868 20.5883 13.7304 21.2907 14.5288 21.6395C14.761 21.7412 15.0078 21.7993 15.2497 21.8817C15.2497 22.2886 15.2497 22.7052 15.2497 23.1703C14.7659 23.0782 14.3013 22.991 13.8368 22.9038C13.8078 23.2332 13.7739 23.5772 13.74 23.9647C14.2529 24.0277 14.7465 24.0907 15.2691 24.1536C15.2691 24.3426 15.2691 24.546 15.2691 24.7495C15.4239 24.7495 15.5546 24.7495 15.7046 24.7495C15.6949 24.5412 15.6949 24.3474 15.6949 24.2021ZM18.3078 8.37579C18.3078 8.39517 18.3078 8.4097 18.3029 8.42908C17.2723 8.48721 16.2417 8.5405 15.211 8.60347C14.6836 8.63738 14.1562 8.71005 13.6675 8.93773C13.3578 9.07821 13.1933 9.40763 13.2659 9.71766C13.3433 10.0422 13.6481 10.2893 13.9771 10.2748C14.4029 10.2554 14.8239 10.2263 15.2449 10.2021C16.4884 10.1246 17.7271 10.0374 18.9707 9.96472C19.4062 9.9405 19.6917 9.71282 19.7497 9.3059C19.8029 8.96195 19.5465 8.57441 19.1594 8.48721C18.8884 8.41939 18.5933 8.4097 18.3078 8.37579ZM16.0046 12.2173C16.0046 12.2222 16.0046 12.2222 16.0046 12.227C16.6917 12.1979 17.3739 12.1786 18.061 12.1301C18.211 12.1204 18.3755 12.0429 18.4965 11.9509C18.6997 11.7959 18.782 11.5585 18.7288 11.3066C18.6755 11.0547 18.4723 10.9433 18.2352 10.8997C18.0852 10.8706 17.9255 10.8609 17.7755 10.8706C16.532 10.9287 15.2933 11.0111 14.0497 11.0498C13.6917 11.0595 13.3771 11.3841 13.4691 11.8007C13.5368 12.1253 13.7884 12.3045 14.161 12.29C14.7755 12.2706 15.39 12.2415 16.0046 12.2173ZM7.05779 8.836C7.03359 8.83116 7.01424 8.82631 6.99005 8.82147C6.93682 8.80693 6.87876 8.7924 6.82553 8.78271C6.48198 8.71974 6.37553 8.80209 6.38521 9.15572C6.42392 10.5945 6.46263 12.0332 6.51585 13.4671C6.55456 14.5377 6.6223 15.6035 6.68037 16.6741C6.68521 16.737 6.75779 16.8339 6.81101 16.8436C6.99005 16.863 7.16908 16.8533 7.36746 16.8533C7.3723 14.1308 7.20295 11.481 7.05779 8.836ZM14.1223 14.3779V14.373C14.3497 14.3633 14.5723 14.3536 14.7997 14.3391C15.6029 14.2955 16.411 14.2568 17.2142 14.2132C17.5288 14.1938 17.6739 14.0388 17.6884 13.7287C17.7029 13.3799 17.5626 13.1959 17.2481 13.1426C16.1739 12.9633 15.1046 13.1426 14.0352 13.2007C13.8852 13.2104 13.7207 13.3267 13.5949 13.4284C13.411 13.5834 13.3675 13.8014 13.44 14.0291C13.5126 14.2568 13.711 14.344 13.9336 14.373C13.9917 14.3876 14.0594 14.3779 14.1223 14.3779ZM17.4078 6.25399C17.5094 6.73842 17.7126 7.08721 17.9981 7.3924C18.0175 7.41178 18.0417 7.436 18.0659 7.44084C18.5739 7.53289 19.0868 7.6443 19.59 7.43116C19.6675 7.39725 19.74 7.28098 19.7497 7.19379C19.8078 6.69967 19.5852 6.40417 19.1013 6.29759C18.9997 6.27337 18.8933 6.25884 18.7868 6.25399C18.3417 6.25399 17.8965 6.25399 17.4078 6.25399Z" fill="url(#paint0_linear_346_672)"/>
<path d="M15.7031 23.0976C15.7031 22.7197 15.7031 22.337 15.7031 21.9592C16.066 21.9495 16.3515 22.1869 16.3564 22.4872C16.3564 22.8699 16.0999 23.1121 15.7031 23.0976Z" fill="url(#paint1_linear_346_672)"/>
<path d="M15.3356 19.6678C15.3356 19.9972 15.3356 20.3315 15.3356 20.6609C14.992 20.6512 14.7452 20.4381 14.7501 20.1523C14.7549 19.8713 15.0114 19.6581 15.3356 19.6678Z" fill="url(#paint2_linear_346_672)"/>
<defs>
<linearGradient id="paint0_linear_346_672" x1="12.0949" y1="0.377869" x2="12.0949" y2="27.6125" gradientUnits="userSpaceOnUse">
<stop stop-color="#FF8D00"/>
<stop offset="1" stop-color="#FFA500"/>
</linearGradient>
<linearGradient id="paint1_linear_346_672" x1="16.0297" y1="21.9589" x2="16.0297" y2="23.0982" gradientUnits="userSpaceOnUse">
<stop stop-color="#FF8D00"/>
<stop offset="1" stop-color="#FFA500"/>
</linearGradient>
<linearGradient id="paint2_linear_346_672" x1="15.0428" y1="19.6675" x2="15.0428" y2="20.6609" gradientUnits="userSpaceOnUse">
<stop stop-color="#FF8D00"/>
<stop offset="1" stop-color="#FFA500"/>
</linearGradient>
</defs>
</svg>
