<svg width="120" height="120" viewBox="0 0 120 120" fill="none" xmlns="http://www.w3.org/2000/svg">
<g clip-path="url(#clip0_1133_2079)">
<path d="M115 0H56.5L28 28.2499V115C28 117.75 30.25 120 32.9999 120H115C117.75 120 120 117.75 120 115V4.99992C120 2.25 117.75 0 115 0Z" fill="#F3F3F3"/>
<path d="M107.5 96.5H40.5V104.25H107.5V96.5Z" fill="#E8EAE9"/>
<path d="M107.5 76H40.5V83.7501H107.5V76Z" fill="#E8EAE9"/>
<path d="M107.5 55.5H40.5V63.2501H107.5V55.5Z" fill="#E8EAE9"/>
<path d="M107.5 35H40.5V42.7501H107.5V35Z" fill="#E8EAE9"/>
<path d="M107.5 14.25H67.75V22.0001H107.5V14.25Z" fill="#E8EAE9"/>
<path d="M56.5 0L28 28.2499H56.5V0Z" fill="#CED6E0"/>
<path d="M34.7501 120C53.942 120 69.5002 104.442 69.5002 85.2501C69.5002 66.0581 53.942 50.5 34.7501 50.5C15.5581 50.5 0 66.0581 0 85.2501C0 104.442 15.5581 120 34.7501 120Z" fill="#F7B64C"/>
<path d="M34.7499 110.5C48.6951 110.5 59.9998 99.1951 59.9998 85.2499C59.9998 71.3048 48.6951 60 34.7499 60C20.8048 60 9.5 71.3048 9.5 85.2499C9.5 99.1951 20.8048 110.5 34.7499 110.5Z" fill="#FFD15C"/>
<path d="M32.9999 101.75V98.7499C29.5 98.25 26.5 96.75 23.5 93.9998L27.25 89.4998C29.2499 91.2499 31.2501 92.4998 32.9999 92.9998V86.9998C30.25 86.2498 28 85.2497 26.7498 83.9998C25.4999 82.7498 24.7499 80.9998 24.7499 78.7498C24.7499 76.4998 25.4999 74.4998 26.9999 72.9998C28.4999 71.4998 30.4998 70.4998 32.9999 70.2499V68.25H37.2498V70.2499C39.9998 70.5 42.7499 71.7499 45.2498 73.5L41.9999 78.2501C40.2498 77.0002 38.7498 76.2502 37.2498 75.75V81.4999C40.2498 82.2499 42.2498 83.25 43.7498 84.4999C45.2498 85.7498 45.7497 87.4999 45.7497 90C45.7497 92.25 44.9997 94.2499 43.4997 95.7499C41.9997 97.2499 39.9998 98.25 37.2496 98.4998V101.25H32.9999V101.75ZM32.9999 76.2499C31.75 76.7498 31.2498 77.4998 31.2498 78.4999C31.2498 79.5 31.7498 80.4998 32.9999 81V76.2499ZM39.4998 91.0001C39.4998 90.5002 39.2498 90 38.9999 89.5001C38.7498 89.0002 38.2499 88.7501 37.4999 88.5V93.4999C38.7498 93 39.4998 92.25 39.4998 91.0001Z" fill="#F7B64C"/>
</g>
<defs>
<clipPath id="clip0_1133_2079">
<rect width="120" height="120" fill="white"/>
</clipPath>
</defs>
</svg>
