<svg width="15" height="15" viewBox="0 0 15 15" fill="none" xmlns="http://www.w3.org/2000/svg">
<path d="M13.4758 6.71255L12.632 5.72505C12.4758 5.53755 12.3445 5.18755 12.3445 4.93755V3.87505C12.3445 3.21255 11.8008 2.6688 11.1383 2.6688H10.0758C9.82578 2.6688 9.46953 2.53755 9.28203 2.3813L8.29453 1.53755C7.86328 1.1688 7.15703 1.1688 6.72578 1.53755L5.72578 2.3813C5.53828 2.53755 5.18828 2.6688 4.93828 2.6688H3.85703C3.19453 2.6688 2.65078 3.21255 2.65078 3.87505V4.93755C2.65078 5.1813 2.52578 5.5313 2.36953 5.7188L1.52578 6.71255C1.16328 7.15005 1.16328 7.85005 1.52578 8.27505L2.36953 9.2688C2.52578 9.45005 2.65078 9.8063 2.65078 10.05V11.1188C2.65078 11.7813 3.19453 12.325 3.85703 12.325H4.94453C5.18828 12.325 5.54453 12.4563 5.73203 12.6125L6.71953 13.4563C7.15078 13.825 7.85703 13.825 8.28828 13.4563L9.27578 12.6125C9.46328 12.4563 9.81328 12.325 10.0633 12.325H11.1258C11.7883 12.325 12.332 11.7813 12.332 11.1188V10.0563C12.332 9.8063 12.4633 9.4563 12.6195 9.2688L13.4633 8.2813C13.8445 7.8563 13.8445 7.15005 13.4758 6.71255ZM7.03203 5.0813C7.03203 4.82505 7.24453 4.61255 7.50078 4.61255C7.75703 4.61255 7.96953 4.82505 7.96953 5.0813V8.10005C7.96953 8.3563 7.75703 8.5688 7.50078 8.5688C7.24453 8.5688 7.03203 8.3563 7.03203 8.10005V5.0813ZM7.50078 10.5438C7.15703 10.5438 6.87578 10.2625 6.87578 9.9188C6.87578 9.57505 7.15078 9.2938 7.50078 9.2938C7.84453 9.2938 8.12578 9.57505 8.12578 9.9188C8.12578 10.2625 7.85078 10.5438 7.50078 10.5438Z" fill="#FF3838"/>
</svg>
