<svg width="42" height="44" viewBox="0 0 42 44" fill="none" xmlns="http://www.w3.org/2000/svg">
<rect x="0.5" y="0.5" width="41" height="43" rx="7.5" stroke="#D0D5DD"/>
<path d="M20.2942 29.1004C19.9742 29.1004 19.6609 29.0204 19.3676 28.8604C18.7809 28.5337 18.4276 27.9404 18.4276 27.2737V23.7404C18.4276 23.4071 18.2076 22.9071 18.0009 22.6537L15.5076 20.0137C15.0876 19.5937 14.7676 18.8737 14.7676 18.3337V16.8004C14.7676 15.7337 15.5742 14.9004 16.6009 14.9004H25.4009C26.4142 14.9004 27.2342 15.7204 27.2342 16.7337V18.2004C27.2342 18.9004 26.8142 19.6937 26.4209 20.0871L23.5342 22.6404C23.2542 22.8737 23.0342 23.3871 23.0342 23.8004V26.6671C23.0342 27.2604 22.6609 27.9471 22.1942 28.2271L21.2742 28.8204C20.9742 29.0071 20.6342 29.1004 20.2942 29.1004ZM16.6009 15.9004C16.1342 15.9004 15.7676 16.2937 15.7676 16.8004V18.3337C15.7676 18.5804 15.9676 19.0604 16.2209 19.3137L18.7609 21.9871C19.1009 22.4071 19.4342 23.1071 19.4342 23.7337V27.2671C19.4342 27.7004 19.7342 27.9137 19.8609 27.9804C20.1409 28.1337 20.4809 28.1337 20.7409 27.9737L21.6676 27.3804C21.8542 27.2671 22.0409 26.9071 22.0409 26.6671V23.8004C22.0409 23.0871 22.3876 22.3004 22.8876 21.8804L25.7409 19.3537C25.9676 19.1271 26.2409 18.5871 26.2409 18.1937V16.7337C26.2409 16.2737 25.8676 15.9004 25.4076 15.9004H16.6009Z" fill="#081131"/>
</svg>
