<svg width="20" height="20" viewBox="0 0 20 20" fill="none" xmlns="http://www.w3.org/2000/svg">
<path fill-rule="evenodd" clip-rule="evenodd" d="M2.45005 4.21686L15.7834 17.5502L17.5501 15.7835L15.5117 13.7444L19.1667 10.0002L14.5376 5.25853C13.4824 4.16588 12.0682 3.49089 10.5551 3.35769C9.04192 3.22449 7.53157 3.64203 6.30172 4.53353L4.21672 2.4502L2.44922 4.21686H2.45005ZM8.07255 6.3052C8.85889 5.89434 9.75584 5.74521 10.6328 5.87951C11.5098 6.01382 12.321 6.42454 12.9484 7.05189C13.5757 7.67923 13.9864 8.49045 14.1207 9.36743C14.255 10.2444 14.1059 11.1414 13.6951 11.9277L8.07255 6.3052Z" fill="#9E9E9E"/>
<path d="M0.832031 9.99992L2.74036 8.04492L11.2387 16.5433C10.2018 16.751 9.12943 16.6948 8.11993 16.38C7.11043 16.0652 6.1962 15.5018 5.4612 14.7416L0.832031 9.99992Z" fill="#9E9E9E"/>
</svg>
