<svg width="20" height="20" viewBox="0 0 20 20" fill="none" xmlns="http://www.w3.org/2000/svg">
<path d="M18.3307 15.8333V18.3333H1.66406V15.8333C1.66406 15.375 2.03906 15 2.4974 15H17.4974C17.9557 15 18.3307 15.375 18.3307 15.8333Z" fill="#71839B" stroke="#71839B" stroke-width="1.5" stroke-miterlimit="10" stroke-linecap="round" stroke-linejoin="round"/>
<path d="M5.83073 9.16602H4.16406V14.9993H5.83073V9.16602Z" fill="#71839B"/>
<path d="M9.16667 9.16602H7.5V14.9993H9.16667V9.16602Z" fill="#71839B"/>
<path d="M12.5026 9.16602H10.8359V14.9993H12.5026V9.16602Z" fill="#71839B"/>
<path d="M15.8307 9.16602H14.1641V14.9993H15.8307V9.16602Z" fill="#71839B"/>
<path d="M19.1693 18.959H0.835937C0.494271 18.959 0.210938 18.6757 0.210938 18.334C0.210938 17.9923 0.494271 17.709 0.835937 17.709H19.1693C19.5109 17.709 19.7943 17.9923 19.7943 18.334C19.7943 18.6757 19.5109 18.959 19.1693 18.959Z" fill="#71839B"/>
<path d="M17.8057 4.79219L10.3057 1.79219C10.1391 1.72552 9.85573 1.72552 9.68906 1.79219L2.18906 4.79219C1.8974 4.90885 1.66406 5.25052 1.66406 5.56719V8.33385C1.66406 8.79219 2.03906 9.16719 2.4974 9.16719H17.4974C17.9557 9.16719 18.3307 8.79219 18.3307 8.33385V5.56719C18.3307 5.25052 18.0974 4.90885 17.8057 4.79219ZM9.9974 7.08385C9.30573 7.08385 8.7474 6.52552 8.7474 5.83385C8.7474 5.14219 9.30573 4.58385 9.9974 4.58385C10.6891 4.58385 11.2474 5.14219 11.2474 5.83385C11.2474 6.52552 10.6891 7.08385 9.9974 7.08385Z" fill="#71839B"/>
</svg>
