<svg id="Layer_1" data-name="Layer 1" xmlns="http://www.w3.org/2000/svg" xmlns:xlink="http://www.w3.org/1999/xlink" width="470.21" height="318" viewBox="0 0 470.21 318"><defs><style>.cls-1{fill:#3d3d3d;}.cls-2,.cls-5{fill:none;}.cls-2{stroke:#3d3d3d;}.cls-3{fill:orange;}.cls-4{fill:#ffd17c;}.cls-5{stroke-width:0.61px;stroke:url(#linear-gradient);}.cls-6{fill:#fff;}.cls-7{mask:url(#mask);}.cls-10,.cls-11,.cls-12,.cls-13,.cls-8,.cls-9{fill:#afafaf;}.cls-10,.cls-12,.cls-13,.cls-8,.cls-9{isolation:isolate;}.cls-8{opacity:0.58;}.cls-9{opacity:0.24;}.cls-10{opacity:0.88;}.cls-12{opacity:0.68;}.cls-13{opacity:0.69;}.cls-14{mask:url(#mask-2);}</style><linearGradient id="linear-gradient" x1="22.49" y1="175.2" x2="66.88" y2="146.03" gradientTransform="matrix(1, 0, 0, -1, 0, 290)" gradientUnits="userSpaceOnUse"><stop offset="0" stop-color="#fff"/><stop offset="1" stop-color="#fff" stop-opacity="0"/></linearGradient><mask id="mask" x="43" y="0" width="388" height="248" maskUnits="userSpaceOnUse"><g id="mask0_1570_9041" data-name="mask0 1570 9041"><path class="cls-1" d="M43,16A16,16,0,0,1,59,0H415a16,16,0,0,1,16,16V232a16,16,0,0,1-16,16H59a16,16,0,0,1-16-16V196.79A16,16,0,0,1,53,182l10.34-4.18c48.38-19.54,48.38-88,0-107.56L53,66A16,16,0,0,1,43,51.21Z"/></g></mask><mask id="mask-2" x="-91.62" y="69.23" width="388" height="248" maskUnits="userSpaceOnUse"><g id="mask0_1570_9041-2" data-name="mask0 1570 9041"><path class="cls-1" d="M-91.62,85.23a16,16,0,0,1,16-16h356a16,16,0,0,1,16,16v216a16,16,0,0,1-16,16h-356a16,16,0,0,1-16-16V266a16,16,0,0,1,10-14.83L-71.26,247c48.37-19.54,48.37-88,0-107.56l-10.35-4.18a16,16,0,0,1-10-14.83Z"/></g></mask></defs><path class="cls-1" d="M43,16C43,7.16,50.89,0,60.62,0h392c9.73,0,17.61,7.16,17.61,16V232c0,8.84-7.88,16-17.61,16h-392C50.89,248,43,240.84,43,232V196.79c0-6.52,4.36-12.39,11-14.83l11.39-4.18c53.26-19.54,53.26-88,0-107.56L54,66c-6.66-2.44-11-8.31-11-14.83Z"/><path class="cls-1" d="M43,81h0a43,43,0,0,1,43,43h0a43,43,0,0,1-43,43h0A43,43,0,0,1,0,124H0A43,43,0,0,1,43,81Z"/><path class="cls-2" d="M43,81.5h0A42.5,42.5,0,0,1,85.5,124h0A42.5,42.5,0,0,1,43,166.5h0A42.5,42.5,0,0,1,.5,124h0A42.5,42.5,0,0,1,43,81.5Z"/><rect class="cls-3" x="24.14" y="106" width="30.44" height="32.97" rx="9"/><rect class="cls-4" x="24.14" y="113.61" width="35.51" height="27.9" rx="10"/><rect class="cls-5" x="24.45" y="113.91" width="34.9" height="27.29" rx="9.69"/><rect class="cls-3" x="46.97" y="121.22" width="15.22" height="10.15" rx="5.07"/><path class="cls-6" d="M54.58,126.29h0A2.54,2.54,0,0,1,52,128.83h0a2.54,2.54,0,0,1-2.53-2.54h0A2.53,2.53,0,0,1,52,123.76h0A2.54,2.54,0,0,1,54.58,126.29Z"/><g class="cls-7"><path class="cls-8" d="M372.84,40.29l-2.73-2.73-2.73,2.73L370.11,43Z"/><path class="cls-8" d="M357.42,57.29l-1.87-1.87-1.87,1.87,1.87,1.87Z"/><path class="cls-9" d="M397.26,17.88l-1.61-1.6-1.6,1.6,1.6,1.61Z"/><path class="cls-10" d="M411.2,47.25l-1.6-1.6L408,47.25l1.61,1.61Z"/><path class="cls-9" d="M325.16,7.35l-1.61-1.6L322,7.35,323.55,9Z"/><path class="cls-11" d="M410.8,134.9l-3.9-3.9-3.9,3.9,3.9,3.91Z"/><path class="cls-12" d="M384.35,76.46l-3-3-3,3,3,3Z"/><path class="cls-12" d="M295,18.68l-3-3-3,3,3,3Z"/><path class="cls-13" d="M307.55,50.28,301.27,44,295,50.28l6.27,6.28Z"/><path class="cls-10" d="M340.19,23.62l-.77-.77-.77.77.77.77Z"/></g><g class="cls-14"><path class="cls-8" d="M238.22,109.53l-2.73-2.74-2.73,2.74,2.73,2.73Z"/><path class="cls-8" d="M222.8,126.52l-1.87-1.87-1.87,1.87,1.87,1.87Z"/><path class="cls-9" d="M262.64,87.12,261,85.51l-1.61,1.61,1.61,1.6Z"/><path class="cls-10" d="M276.58,116.48l-1.6-1.6-1.6,1.6,1.6,1.61Z"/><path class="cls-9" d="M190.54,76.58l-1.6-1.6-1.61,1.6,1.61,1.61Z"/><path class="cls-11" d="M276.18,204.14l-3.9-3.91-3.9,3.91,3.9,3.9Z"/><path class="cls-12" d="M249.73,145.69l-3-3-3,3,3,3Z"/><path class="cls-12" d="M160.37,87.92l-3-3-3,3,3,3Z"/><path class="cls-13" d="M172.93,119.51l-6.27-6.28-6.28,6.28,6.28,6.29Z"/><path class="cls-10" d="M205.57,92.85l-.76-.77-.77.77.77.77Z"/></g></svg>