<svg width="1920" height="311" viewBox="0 0 1920 311" fill="none" xmlns="http://www.w3.org/2000/svg">
<rect width="1920" height="311" fill="url(#paint0_linear_6287_11767)"/>
<mask id="mask0_6287_11767" style="mask-type:alpha" maskUnits="userSpaceOnUse" x="0" y="0" width="1920" height="311">
<rect width="1920" height="311" fill="#272727"/>
</mask>
<g mask="url(#mask0_6287_11767)">
<path d="M238.508 77.525C56.0261 173.617 -140.414 29.8 -215.823 -54.1198L-237.915 -188.617L-158.656 -299.225L94.4196 -335.783C218.483 -238.052 420.99 -18.5667 238.508 77.525Z" fill="url(#paint1_linear_6287_11767)" fill-opacity="0.3"/>
<path opacity="0.58" d="M1138.81 34.2946L1136.08 31.5605L1133.35 34.2946L1136.08 37.0286L1138.81 34.2946Z" fill="white"/>
<path opacity="0.58" d="M1123.39 51.2887L1121.51 49.416L1119.64 51.2887L1121.51 53.1613L1123.39 51.2887Z" fill="white"/>
<path opacity="0.24" d="M1163.22 11.8847L1161.62 10.2793L1160.02 11.8847L1161.62 13.4901L1163.22 11.8847Z" fill="white"/>
<path opacity="0.88" d="M1177.17 41.2519L1175.57 39.6465L1173.96 41.2519L1175.57 42.8573L1177.17 41.2519Z" fill="white"/>
<path opacity="0.24" d="M1091.13 1.35347L1089.52 -0.251953L1087.92 1.35347L1089.52 2.95889L1091.13 1.35347Z" fill="white"/>
<path d="M1235.99 137.503L1232.09 133.598L1228.19 137.503L1232.09 141.408L1235.99 137.503Z" fill="white"/>
<path opacity="0.68" d="M1150.32 70.4626L1147.34 67.4844L1144.37 70.4626L1147.34 73.4408L1150.32 70.4626Z" fill="white"/>
<path opacity="0.68" d="M1060.95 12.6842L1057.98 9.70605L1055 12.6842L1057.98 15.6624L1060.95 12.6842Z" fill="white"/>
<path opacity="0.69" d="M1113.4 121.551L1107.12 115.269L1100.84 121.551L1107.12 127.833L1113.4 121.551Z" fill="white"/>
<path opacity="0.88" d="M1106.16 17.6167L1105.39 16.8457L1104.62 17.6167L1105.39 18.3877L1106.16 17.6167Z" fill="white"/>
<path opacity="0.58" d="M62.8094 31.2946L60.0781 28.5605L57.3468 31.2946L60.0781 34.0286L62.8094 31.2946Z" fill="#FFA500"/>
<path opacity="0.58" d="M47.3854 48.2887L45.5146 46.416L43.6438 48.2887L45.5146 50.1613L47.3854 48.2887Z" fill="#FFA500"/>
<path opacity="0.24" d="M87.2249 8.88471L85.6211 7.2793L84.0173 8.88472L85.6211 10.4901L87.2249 8.88471Z" fill="#FFA500"/>
<path opacity="0.88" d="M101.169 38.2519L99.5654 36.6465L97.9616 38.2519L99.5654 39.8573L101.169 38.2519Z" fill="#FFA500"/>
<path d="M159.99 134.503L156.089 130.598L152.188 134.503L156.089 138.408L159.99 134.503Z" fill="#FFA500"/>
<path opacity="0.68" d="M74.3161 67.4626L71.3408 64.4844L68.3656 67.4626L71.3408 70.4408L74.3161 67.4626Z" fill="#FFA500"/>
<path opacity="0.69" d="M37.3962 118.551L31.1201 112.269L24.8441 118.551L31.1201 124.833L37.3962 118.551Z" fill="#FFA500"/>
<path opacity="0.88" d="M30.1599 14.6167L29.3896 13.8457L28.6194 14.6167L29.3897 15.3877L30.1599 14.6167Z" fill="#FFA500"/>
<path opacity="0.58" d="M1854.81 80.2946L1852.08 77.5605L1849.35 80.2946L1852.08 83.0286L1854.81 80.2946Z" fill="white"/>
<path opacity="0.58" d="M1839.39 97.2887L1837.51 95.416L1835.64 97.2887L1837.51 99.1613L1839.39 97.2887Z" fill="white"/>
<path opacity="0.24" d="M1879.22 57.8847L1877.62 56.2793L1876.02 57.8847L1877.62 59.4901L1879.22 57.8847Z" fill="white"/>
<path opacity="0.88" d="M1893.17 87.2519L1891.57 85.6465L1889.96 87.2519L1891.57 88.8573L1893.17 87.2519Z" fill="white"/>
<path opacity="0.24" d="M1807.13 47.3535L1805.52 45.748L1803.92 47.3535L1805.52 48.9589L1807.13 47.3535Z" fill="white"/>
<path opacity="0.68" d="M1866.32 116.463L1863.34 113.484L1860.37 116.463L1863.34 119.441L1866.32 116.463Z" fill="white"/>
<path opacity="0.68" d="M1776.95 58.6842L1773.98 55.7061L1771 58.6842L1773.98 61.6624L1776.95 58.6842Z" fill="white"/>
<path opacity="0.69" d="M1829.4 167.551L1823.12 161.269L1816.84 167.551L1823.12 173.833L1829.4 167.551Z" fill="white"/>
<path opacity="0.88" d="M1822.16 63.6167L1821.39 62.8457L1820.62 63.6167L1821.39 64.3877L1822.16 63.6167Z" fill="white"/>
</g>
<defs>
<linearGradient id="paint0_linear_6287_11767" x1="960" y1="0" x2="960" y2="311" gradientUnits="userSpaceOnUse">
<stop offset="0.197917" stop-color="#1C1F25"/>
<stop offset="1" stop-color="#0E1114"/>
</linearGradient>
<linearGradient id="paint1_linear_6287_11767" x1="-143.5" y1="-15.0975" x2="337.81" y2="62.0483" gradientUnits="userSpaceOnUse">
<stop stop-color="#FF9A3B"/>
<stop offset="1" stop-color="#070707" stop-opacity="0"/>
</linearGradient>
</defs>
</svg>
