<svg width="445" height="198" viewBox="0 0 445 198" fill="none" xmlns="http://www.w3.org/2000/svg">
<path d="M57 16C57 7.16344 64.1634 0 73 0H429C437.837 0 445 7.16344 445 16V182C445 190.837 437.837 198 429 198H73C64.1634 198 57 190.837 57 182V160.802C57 155.023 60.3771 149.776 65.6378 147.383C107.295 128.434 107.199 69.2058 65.6197 50.0882C60.3769 47.6777 57 42.4274 57 36.6569V16Z" fill="#22272C"/>
<path d="M51.5 95.5625H26.5C25.9875 95.5625 25.5625 95.1375 25.5625 94.625C25.5625 94.1125 25.9875 93.6875 26.5 93.6875H51.5C52.0125 93.6875 52.4375 94.1125 52.4375 94.625C52.4375 95.1375 52.0125 95.5625 51.5 95.5625Z" fill="white"/>
<path d="M34 105.562H31.5C30.9875 105.562 30.5625 105.138 30.5625 104.625C30.5625 104.113 30.9875 103.688 31.5 103.688H34C34.5125 103.688 34.9375 104.113 34.9375 104.625C34.9375 105.138 34.5125 105.562 34 105.562Z" fill="white"/>
<path d="M42.125 105.562H37.125C36.6125 105.562 36.1875 105.138 36.1875 104.625C36.1875 104.113 36.6125 103.688 37.125 103.688H42.125C42.6375 103.688 43.0625 104.113 43.0625 104.625C43.0625 105.138 42.6375 105.562 42.125 105.562Z" fill="white"/>
<path d="M45.95 110.562H32.05C27.075 110.562 25.5625 109.062 25.5625 104.138V93.8625C25.5625 88.9375 27.075 87.4375 32.05 87.4375H45.9375C50.9125 87.4375 52.425 88.9375 52.425 93.8625V104.125C52.4375 109.062 50.925 110.562 45.95 110.562ZM32.05 89.3125C28.125 89.3125 27.4375 89.9875 27.4375 93.8625V104.125C27.4375 108 28.125 108.675 32.05 108.675H45.9375C49.8625 108.675 50.55 108 50.55 104.125V93.8625C50.55 89.9875 49.8625 89.3125 45.9375 89.3125H32.05Z" fill="white"/>
<mask id="mask0_6418_13877" style="mask-type:alpha" maskUnits="userSpaceOnUse" x="66" y="0" width="379" height="198">
<path d="M66 16C66 7.16344 73.1634 0 82 0H429C437.837 0 445 7.16344 445 16V182C445 190.837 437.837 198 429 198H82C73.1634 198 66 190.837 66 182V158.254C66 152.432 69.7341 147.267 75.2622 145.442C120.03 130.663 120.03 67.3369 75.2622 52.5578C69.7341 50.7327 66 45.5677 66 39.7461V16Z" fill="#22272C"/>
</mask>
<g mask="url(#mask0_6418_13877)">
<path opacity="0.58" d="M369.809 52.2946L367.078 49.5605L364.347 52.2946L367.078 55.0286L369.809 52.2946Z" fill="#929292"/>
<path opacity="0.58" d="M354.385 69.2887L352.515 67.416L350.644 69.2887L352.515 71.1613L354.385 69.2887Z" fill="#929292"/>
<path opacity="0.24" d="M394.225 29.8847L392.621 28.2793L391.017 29.8847L392.621 31.4901L394.225 29.8847Z" fill="#929292"/>
<path opacity="0.88" d="M408.169 59.2519L406.565 57.6465L404.962 59.2519L406.565 60.8573L408.169 59.2519Z" fill="#929292"/>
<path opacity="0.24" d="M322.125 19.3535L320.521 17.748L318.918 19.3535L320.521 20.9589L322.125 19.3535Z" fill="#929292"/>
<path d="M407.768 146.905L403.867 143L399.966 146.905L403.867 150.81L407.768 146.905Z" fill="#929292"/>
<path opacity="0.68" d="M381.316 88.4626L378.341 85.4844L375.366 88.4626L378.341 91.4408L381.316 88.4626Z" fill="#929292"/>
<path opacity="0.68" d="M291.951 30.6842L288.976 27.7061L286 30.6842L288.976 33.6624L291.951 30.6842Z" fill="#929292"/>
<path opacity="0.69" d="M304.518 62.2823L298.242 56L291.966 62.2823L298.242 68.5646L304.518 62.2823Z" fill="#929292"/>
<path opacity="0.88" d="M337.16 35.6167L336.39 34.8457L335.619 35.6167L336.39 36.3877L337.16 35.6167Z" fill="#929292"/>
<path opacity="0.88" d="M441.236 7.77099L440.466 7L439.696 7.77098L440.466 8.54197L441.236 7.77099Z" fill="#929292"/>
</g>
<rect y="56" width="86" height="86" rx="43" fill="#22272C"/>
<path d="M55.5 95.5625H30.5C29.9875 95.5625 29.5625 95.1375 29.5625 94.625C29.5625 94.1125 29.9875 93.6875 30.5 93.6875H55.5C56.0125 93.6875 56.4375 94.1125 56.4375 94.625C56.4375 95.1375 56.0125 95.5625 55.5 95.5625Z" fill="white"/>
<path d="M38 105.562H35.5C34.9875 105.562 34.5625 105.138 34.5625 104.625C34.5625 104.113 34.9875 103.688 35.5 103.688H38C38.5125 103.688 38.9375 104.113 38.9375 104.625C38.9375 105.138 38.5125 105.562 38 105.562Z" fill="white"/>
<path d="M46.125 105.562H41.125C40.6125 105.562 40.1875 105.138 40.1875 104.625C40.1875 104.113 40.6125 103.688 41.125 103.688H46.125C46.6375 103.688 47.0625 104.113 47.0625 104.625C47.0625 105.138 46.6375 105.562 46.125 105.562Z" fill="white"/>
<path d="M49.95 110.562H36.05C31.075 110.562 29.5625 109.062 29.5625 104.138V93.8625C29.5625 88.9375 31.075 87.4375 36.05 87.4375H49.9375C54.9125 87.4375 56.425 88.9375 56.425 93.8625V104.125C56.4375 109.062 54.925 110.562 49.95 110.562ZM36.05 89.3125C32.125 89.3125 31.4375 89.9875 31.4375 93.8625V104.125C31.4375 108 32.125 108.675 36.05 108.675H49.9375C53.8625 108.675 54.55 108 54.55 104.125V93.8625C54.55 89.9875 53.8625 89.3125 49.9375 89.3125H36.05Z" fill="white"/>
</svg>
