<svg xmlns="http://www.w3.org/2000/svg" xmlns:xlink="http://www.w3.org/1999/xlink" width="17" height="17" viewBox="0 0 17 17">
  <defs>
    <clipPath id="clip-path">
      <rect id="Rectangle_19226" data-name="Rectangle 19226" width="17" height="17" transform="translate(1143 739)" fill="#6e3333" opacity="0.33"/>
    </clipPath>
    <clipPath id="clip-path-2">
      <rect id="Rectangle_19064" data-name="Rectangle 19064" width="17" height="17" transform="translate(137 823.506)" fill="#fff"/>
    </clipPath>
  </defs>
  <g id="Mask_Group_215" data-name="Mask Group 215" transform="translate(-1143 -739)" clip-path="url(#clip-path)">
    <g id="Group_59494" data-name="Group 59494" transform="translate(1006 -84.506)" clip-path="url(#clip-path-2)">
      <path id="Path_43183" data-name="Path 43183" d="M149.358,832.238a.686.686,0,1,1-.686-.687A.687.687,0,0,1,149.358,832.238Zm-7.551-4.805a.686.686,0,0,0,.686-.687,1.373,1.373,0,0,1,2.746,0,.686.686,0,1,0,1.373,0,2.746,2.746,0,0,0-5.492,0A.686.686,0,0,0,141.807,827.432Zm11.67,5.492V834.3a1.329,1.329,0,0,1-1.076,1.341,5.506,5.506,0,0,1-2.356,2.714v.063a2.06,2.06,0,0,1-4,.686h-1.608a2.06,2.06,0,0,1-4-.686v-.054a5.469,5.469,0,0,1-2.734-5.115,5.282,5.282,0,0,1,.484-1.892,2.059,2.059,0,0,1,.877-3.922.686.686,0,0,1,0,1.373.686.686,0,0,0-.121,1.362,5.753,5.753,0,0,1,4.423-2.048h3.681a3.887,3.887,0,0,1,2.7-2.022,1.353,1.353,0,0,1,1.154.257,1.373,1.373,0,0,1,.524,1.082v2.55a5.53,5.53,0,0,1,.983,1.6,1.328,1.328,0,0,1,1.076,1.341Zm-1.373,0h-.2a.686.686,0,0,1-.658-.491,4.145,4.145,0,0,0-1-1.7.686.686,0,0,1-.2-.479v-2.819a2.487,2.487,0,0,0-1.9,1.6.682.682,0,0,1-.68.47c-.047,0-4.105-.015-4.105-.015a4.224,4.224,0,0,0-4.292,3.844,4.1,4.1,0,0,0,2.346,3.992.686.686,0,0,1,.391.62v.469a.686.686,0,1,0,1.373,0,.687.687,0,0,1,.686-.686h2.746a.686.686,0,0,1,.686.686.686.686,0,1,0,1.373,0v-.476a.686.686,0,0,1,.391-.619,4.126,4.126,0,0,0,2.182-2.532.686.686,0,0,1,.658-.491h.2v-1.373Z" transform="translate(0 0.031)" fill="#777e90"/>
    </g>
  </g>
</svg>
