<svg width="431" height="248" viewBox="0 0 431 248" fill="none" xmlns="http://www.w3.org/2000/svg">
<path d="M43 16C43 7.16344 50.1634 0 59 0H415C423.837 0 431 7.16344 431 16V232C431 240.837 423.837 248 415 248H59C50.1634 248 43 240.837 43 232V196.793C43 190.27 46.9597 184.401 53.0078 181.958L63.354 177.779C111.725 158.241 111.725 89.7586 63.354 70.2211L53.0078 66.0422C46.9597 63.5993 43 57.7295 43 51.2067V16Z" fill="#22272C"/>
<mask id="mask0_6359_13871" style="mask-type:alpha" maskUnits="userSpaceOnUse" x="43" y="0" width="388" height="248">
<path d="M43 16C43 7.16344 50.1634 0 59 0H415C423.837 0 431 7.16344 431 16V232C431 240.837 423.837 248 415 248H59C50.1634 248 43 240.837 43 232V196.793C43 190.27 46.9597 184.401 53.0078 181.958L63.354 177.779C111.725 158.241 111.725 89.7586 63.354 70.2211L53.0078 66.0422C46.9597 63.5993 43 57.7295 43 51.2067V16Z" fill="#22272C"/>
</mask>
<g mask="url(#mask0_6359_13871)">
<path opacity="0.58" d="M372.843 40.2946L370.111 37.5605L367.38 40.2946L370.111 43.0286L372.843 40.2946Z" fill="#929292"/>
<path opacity="0.58" d="M357.419 57.2887L355.548 55.416L353.677 57.2887L355.548 59.1613L357.419 57.2887Z" fill="#929292"/>
<path opacity="0.24" d="M397.258 17.8847L395.654 16.2793L394.05 17.8847L395.654 19.4901L397.258 17.8847Z" fill="#929292"/>
<path opacity="0.88" d="M411.202 47.2519L409.599 45.6465L407.995 47.2519L409.599 48.8573L411.202 47.2519Z" fill="#929292"/>
<path opacity="0.24" d="M325.159 7.35347L323.555 5.74805L321.951 7.35347L323.555 8.95889L325.159 7.35347Z" fill="#929292"/>
<path d="M410.801 134.905L406.9 131L402.999 134.905L406.9 138.81L410.801 134.905Z" fill="#929292"/>
<path opacity="0.68" d="M384.349 76.4626L381.374 73.4844L378.399 76.4626L381.374 79.4408L384.349 76.4626Z" fill="#929292"/>
<path opacity="0.68" d="M294.984 18.6842L292.009 15.7061L289.034 18.6842L292.009 21.6624L294.984 18.6842Z" fill="#929292"/>
<path opacity="0.69" d="M307.551 50.2823L301.275 44L294.999 50.2823L301.275 56.5646L307.551 50.2823Z" fill="#929292"/>
<path opacity="0.88" d="M340.193 23.6167L339.423 22.8457L338.653 23.6167L339.423 24.3877L340.193 23.6167Z" fill="#929292"/>
</g>
<path d="M66.6484 184.5C76.7175 178.925 88.0382 176 99.5477 176H411C416.523 176 421 180.477 421 186V228C421 233.523 416.523 238 411 238H59.1269C55.7431 238 53 235.257 53 231.873V204.646C53 195.771 58.4061 187.791 66.6484 184.5Z" fill="#181B20"/>
<line x1="118" y1="87.75" x2="398" y2="87.75" stroke="#3B444D" stroke-width="0.5"/>
<rect y="81" width="86" height="86" rx="43" fill="#22272C"/>
<path d="M55.5 120.562H30.5C29.9875 120.562 29.5625 120.138 29.5625 119.625C29.5625 119.113 29.9875 118.688 30.5 118.688H55.5C56.0125 118.688 56.4375 119.113 56.4375 119.625C56.4375 120.138 56.0125 120.562 55.5 120.562Z" fill="white"/>
<path d="M38 130.562H35.5C34.9875 130.562 34.5625 130.138 34.5625 129.625C34.5625 129.113 34.9875 128.688 35.5 128.688H38C38.5125 128.688 38.9375 129.113 38.9375 129.625C38.9375 130.138 38.5125 130.562 38 130.562Z" fill="white"/>
<path d="M46.125 130.562H41.125C40.6125 130.562 40.1875 130.138 40.1875 129.625C40.1875 129.113 40.6125 128.688 41.125 128.688H46.125C46.6375 128.688 47.0625 129.113 47.0625 129.625C47.0625 130.138 46.6375 130.562 46.125 130.562Z" fill="white"/>
<path d="M49.95 135.562H36.05C31.075 135.562 29.5625 134.062 29.5625 129.138V118.862C29.5625 113.937 31.075 112.438 36.05 112.438H49.9375C54.9125 112.438 56.425 113.937 56.425 118.862V129.125C56.4375 134.062 54.925 135.562 49.95 135.562ZM36.05 114.312C32.125 114.312 31.4375 114.987 31.4375 118.862V129.125C31.4375 133 32.125 133.675 36.05 133.675H49.9375C53.8625 133.675 54.55 133 54.55 129.125V118.862C54.55 114.987 53.8625 114.312 49.9375 114.312H36.05Z" fill="white"/>
</svg>
