<svg width="13" height="16" viewBox="0 0 13 16" fill="none" xmlns="http://www.w3.org/2000/svg">
<path fill-rule="evenodd" clip-rule="evenodd" d="M8.7747 14.8505C8.3444 15.0543 7.8828 15.2083 7.399 15.3124C7.5743 15.1529 7.7255 14.963 7.8434 14.7509C8.0259 14.4226 8.1317 14.0418 8.1317 13.6351C8.1317 13.1805 8.0007 12.7425 7.7537 12.37L6.01512 9.58615L4.2765 12.37C4.02957 12.7425 3.89854 13.1796 3.89854 13.6351C3.89854 14.0418 4.00336 14.4226 4.1868 14.7509C4.30472 14.963 4.45591 15.152 4.63128 15.3124C4.1485 15.2083 3.68688 15.0533 3.25651 14.8505C1.32438 13.9367 0 12.0971 0 9.97995C0 7.48747 1.51789 6.22418 3.99933 3.7769C6.15018 1.65513 6.01008 0.00823688 6.0121 0.00270688C5.98992 -0.0258831 6.2036 0.175137 6.4173 0.457307C6.387 0.416727 8.045 2.27017 8.3323 4.42238C8.5339 5.9328 8.1307 7.0965 8.1307 7.0965C8.1307 7.0965 9.1164 6.81341 9.4561 5.59715C9.5135 5.39244 9.5377 5.11027 9.5538 5.01806C9.5538 5.01806 10.1052 5.62204 10.848 6.69723C11.5908 7.77333 12.0302 8.85865 12.0302 9.97905C12.0312 12.0971 10.7069 13.9367 8.7747 14.8505Z" fill="url(#paint0_linear_1931_7201)"/>
<defs>
<linearGradient id="paint0_linear_1931_7201" x1="9.76532e-09" y1="1.27625" x2="13.28" y2="2.58025" gradientUnits="userSpaceOnUse">
<stop stop-color="#FFD748"/>
<stop offset="1" stop-color="#F7A600"/>
</linearGradient>
</defs>
</svg>
