<svg width="160" height="38" viewBox="0 0 160 38" fill="none" xmlns="http://www.w3.org/2000/svg">
<path d="M33.6562 10.602H39.5668C40.8468 10.602 41.9104 10.697 42.748 10.8965C43.5857 11.0865 44.2633 11.3905 44.7527 11.7895C45.2515 12.1885 45.5998 12.692 45.7974 13.281C46.0045 13.8795 46.0986 14.573 46.0986 15.371C46.0986 16.2925 45.9104 17.0525 45.5433 17.67C45.1763 18.278 44.508 18.7245 43.548 18.9905V19.095C45.5998 19.6175 46.6257 20.9855 46.6257 23.199C46.6257 23.997 46.5221 24.719 46.3245 25.3555C46.1174 25.992 45.7692 26.5335 45.2798 26.961C44.781 27.3885 44.1127 27.7305 43.2751 27.9585C42.4374 28.1865 41.3739 28.3005 40.0939 28.3005H33.6562V10.602ZM38.7857 17.898C39.4068 17.898 39.9433 17.8695 40.3857 17.8125C40.8374 17.746 41.1951 17.6415 41.4868 17.4895C41.7786 17.3375 41.9857 17.1285 42.1174 16.853C42.2492 16.5775 42.3245 16.226 42.3245 15.7795C42.3245 15.3235 42.2586 14.953 42.1174 14.687C41.9857 14.4115 41.7786 14.2025 41.4963 14.0505C41.2233 13.8985 40.8563 13.8035 40.3951 13.756C39.9433 13.7085 39.3974 13.6895 38.7763 13.6895H37.4868V17.898H38.7857ZM39.2657 25.1845C39.9339 25.1845 40.4986 25.1465 40.941 25.08C41.3927 25.0135 41.7504 24.8995 42.0139 24.738C42.2868 24.5765 42.4751 24.3485 42.5786 24.0635C42.6915 23.7785 42.7386 23.3985 42.7386 22.9425C42.7386 22.534 42.6821 22.192 42.5786 21.8975C42.4657 21.6125 42.2868 21.375 42.0233 21.1945C41.7598 21.014 41.4021 20.8905 40.9504 20.8145C40.4986 20.7385 39.9339 20.7005 39.2563 20.7005H37.4868V25.194H39.2657V25.1845Z" fill="#324054"/>
<path d="M53.3829 14.535H49.7217V28.3005H53.3829V14.535Z" fill="#324054"/>
<path d="M61.0819 17.4325V23.579C61.0819 23.9875 61.1007 24.32 61.1478 24.567C61.1854 24.8235 61.2701 25.023 61.383 25.1655C61.496 25.3175 61.656 25.4125 61.8631 25.4695C62.0701 25.5265 62.3242 25.555 62.6442 25.555C63.0772 25.555 63.4442 25.517 63.7266 25.4505V28.31C63.4536 28.3385 63.1713 28.3765 62.8701 28.3955C62.5689 28.424 62.2678 28.4335 61.9572 28.4335C61.1195 28.4335 60.4042 28.367 59.8207 28.234C59.2372 28.101 58.776 27.8635 58.4183 27.5215C58.0607 27.1795 57.8066 26.714 57.6466 26.125C57.4866 25.536 57.4113 24.7855 57.4113 23.883V17.4325H55.623V14.535H57.4207V11.267H61.0819V14.535H63.9054V17.442H61.0819V17.4325Z" fill="#324054"/>
<path d="M91.0588 14.2975C92.2071 14.2975 93.1671 14.3925 93.9482 14.592C94.7294 14.782 95.36 15.0765 95.84 15.447C96.32 15.8175 96.6683 16.283 96.8753 16.834C97.0918 17.385 97.1953 18.031 97.1953 18.753V28.291H93.9106L93.5624 26.6855C93.2706 27.1985 92.7624 27.6355 92.0188 27.9965C91.2753 28.3575 90.3435 28.5475 89.2141 28.5475C87.68 28.5475 86.5224 28.2055 85.7318 27.512C84.9412 26.828 84.5459 25.764 84.5459 24.339C84.5459 22.743 85.0165 21.622 85.9765 20.976C86.9271 20.33 88.32 20.007 90.1553 20.007H93.5435V19.6555C93.5435 19.247 93.5059 18.8955 93.4306 18.6105C93.3553 18.3255 93.2047 18.088 92.9883 17.9075C92.7718 17.727 92.48 17.594 92.1035 17.5085C91.7271 17.423 91.2471 17.385 90.6353 17.385C90.1459 17.385 89.6565 17.404 89.1671 17.4515C88.6777 17.499 88.1977 17.556 87.7271 17.6415V14.5065C88.2541 14.44 88.8094 14.3925 89.4212 14.3545C90.0235 14.3165 90.5694 14.2975 91.0588 14.2975ZM90.1459 25.7165C90.993 25.7165 91.6988 25.5645 92.2918 25.27C92.8847 24.966 93.2894 24.586 93.5247 24.111V22.5055H90.6918C89.7788 22.5055 89.1294 22.6195 88.7341 22.838C88.3388 23.0565 88.1412 23.5125 88.1412 24.2155C88.1412 24.7665 88.2918 25.1465 88.6118 25.3745C88.9318 25.6025 89.44 25.7165 90.1459 25.7165Z" fill="#324054"/>
<path d="M104.696 28.443C103.905 28.443 103.143 28.405 102.4 28.329C101.656 28.253 100.988 28.1485 100.376 28.006V24.9185C101.035 25.1275 101.722 25.2795 102.456 25.3935C103.19 25.5075 103.868 25.5645 104.489 25.5645C105.28 25.5645 105.854 25.4695 106.211 25.289C106.569 25.099 106.757 24.738 106.757 24.1965C106.757 23.921 106.72 23.693 106.654 23.5125C106.588 23.3225 106.456 23.1705 106.258 23.028C106.07 22.895 105.797 22.7715 105.468 22.6575C105.129 22.5435 104.687 22.42 104.131 22.287C103.407 22.116 102.814 21.926 102.343 21.717C101.872 21.508 101.496 21.2515 101.232 20.957C100.96 20.653 100.781 20.3015 100.677 19.8835C100.574 19.4655 100.527 18.9715 100.527 18.392C100.527 17.746 100.621 17.1665 100.818 16.663C101.007 16.15 101.327 15.7225 101.769 15.371C102.202 15.0195 102.767 14.7535 103.463 14.5635C104.15 14.3735 104.997 14.288 105.985 14.288C106.748 14.288 107.463 14.3355 108.141 14.421C108.818 14.5065 109.355 14.611 109.722 14.7535L109.571 17.5845C109.383 17.537 109.157 17.48 108.894 17.423C108.621 17.366 108.329 17.309 108.018 17.252C107.708 17.2045 107.388 17.157 107.058 17.119C106.729 17.0905 106.418 17.0715 106.108 17.0715C105.261 17.0715 104.696 17.1665 104.404 17.347C104.103 17.537 103.962 17.8695 103.962 18.3445C103.962 18.563 103.99 18.7435 104.047 18.886C104.103 19.019 104.225 19.1425 104.414 19.2375C104.602 19.342 104.856 19.4465 105.185 19.5415C105.515 19.646 105.948 19.76 106.484 19.9025C107.228 20.0925 107.84 20.292 108.329 20.5295C108.818 20.7575 109.204 21.033 109.496 21.3465C109.788 21.66 109.976 22.04 110.089 22.496C110.192 22.9425 110.249 23.484 110.249 24.111C110.249 24.928 110.127 25.612 109.872 26.163C109.618 26.714 109.261 27.1605 108.79 27.5025C108.32 27.8445 107.736 28.0915 107.049 28.2435C106.352 28.3765 105.571 28.443 104.696 28.443Z" fill="#324054"/>
<path d="M125.826 8.92047V28.291H122.522L122.249 26.3815C121.976 27.0085 121.524 27.5215 120.903 27.93C120.273 28.3385 119.331 28.5475 118.089 28.5475C116.978 28.5475 116.066 28.3765 115.36 28.0535C114.654 27.721 114.098 27.246 113.694 26.6285C113.289 26.0015 113.016 25.251 112.866 24.3675C112.715 23.484 112.64 22.496 112.64 21.413C112.64 20.425 112.715 19.5035 112.866 18.639C113.016 17.7745 113.289 17.0145 113.694 16.3685C114.098 15.7225 114.654 15.2095 115.36 14.839C116.066 14.4685 116.978 14.2785 118.089 14.2785C119.331 14.2785 120.263 14.459 120.875 14.8295C121.487 15.1905 121.929 15.6845 122.202 16.2925V8.92047H125.826ZM119.237 25.745C119.858 25.745 120.376 25.65 120.781 25.4695C121.186 25.2795 121.506 25.004 121.741 24.6335C121.976 24.263 122.146 23.7975 122.23 23.2655C122.324 22.724 122.371 22.116 122.371 21.413C122.371 20.748 122.324 20.1495 122.23 19.6175C122.136 19.076 121.976 18.62 121.741 18.24C121.506 17.86 121.186 17.556 120.781 17.347C120.376 17.1285 119.868 17.024 119.237 17.024C118.597 17.024 118.089 17.138 117.713 17.385C117.336 17.6225 117.044 17.9455 116.856 18.335C116.668 18.734 116.536 19.1995 116.48 19.722C116.423 20.254 116.395 20.8145 116.395 21.4035C116.395 22.0305 116.423 22.61 116.48 23.1515C116.536 23.6835 116.668 24.1395 116.875 24.529C117.073 24.909 117.364 25.2035 117.75 25.422C118.117 25.6405 118.616 25.745 119.237 25.745Z" fill="#324054"/>
<path d="M135.219 14.2975C136.367 14.2975 137.327 14.3925 138.108 14.592C138.89 14.782 139.52 15.0765 140 15.447C140.48 15.8175 140.828 16.283 141.035 16.834C141.252 17.385 141.355 18.031 141.355 18.753V28.291H138.071L137.723 26.6855C137.431 27.1985 136.923 27.6355 136.179 27.9965C135.435 28.3575 134.504 28.5475 133.374 28.5475C131.84 28.5475 130.683 28.2055 129.892 27.512C129.101 26.828 128.706 25.764 128.706 24.339C128.706 22.743 129.177 21.622 130.137 20.976C131.087 20.33 132.48 20.007 134.315 20.007H137.704V19.6555C137.704 19.247 137.666 18.8955 137.591 18.6105C137.515 18.3255 137.365 18.088 137.148 17.9075C136.932 17.727 136.64 17.594 136.264 17.5085C135.897 17.423 135.407 17.385 134.795 17.385C134.306 17.385 133.817 17.404 133.327 17.4515C132.838 17.499 132.358 17.556 131.887 17.6415V14.5065C132.414 14.44 132.97 14.3925 133.581 14.3545C134.184 14.3165 134.73 14.2975 135.219 14.2975ZM134.315 25.7165C135.163 25.7165 135.868 25.5645 136.461 25.27C137.054 24.966 137.459 24.586 137.694 24.111V22.5055H134.861C133.948 22.5055 133.299 22.6195 132.904 22.838C132.508 23.0565 132.311 23.5125 132.311 24.2155C132.311 24.7665 132.461 25.1465 132.781 25.3745C133.101 25.6025 133.61 25.7165 134.315 25.7165Z" fill="#324054"/>
<path d="M157.646 14.535V33.3925H153.985V26.3815C153.712 27.0275 153.27 27.55 152.658 27.949C152.046 28.348 151.115 28.5475 149.872 28.5475C148.762 28.5475 147.849 28.3765 147.143 28.0535C146.437 27.721 145.882 27.246 145.477 26.6285C145.072 26.0015 144.799 25.251 144.649 24.3675C144.498 23.484 144.423 22.496 144.423 21.413C144.423 20.425 144.498 19.5035 144.649 18.639C144.799 17.7745 145.072 17.0145 145.477 16.3685C145.882 15.7225 146.437 15.2095 147.143 14.839C147.849 14.4685 148.762 14.2785 149.872 14.2785C151.115 14.2785 152.046 14.459 152.658 14.8295C153.27 15.2 153.712 15.6845 153.985 16.2925V14.535H157.646ZM151.03 25.745C151.651 25.745 152.169 25.65 152.573 25.4695C152.978 25.2795 153.298 25.004 153.533 24.6335C153.769 24.263 153.938 23.7975 154.023 23.2655C154.117 22.724 154.164 22.116 154.164 21.413C154.164 20.748 154.117 20.1495 154.023 19.6175C153.929 19.076 153.769 18.62 153.533 18.24C153.298 17.86 152.978 17.556 152.573 17.347C152.169 17.1285 151.661 17.024 151.03 17.024C150.39 17.024 149.882 17.138 149.505 17.385C149.129 17.6225 148.837 17.9455 148.649 18.335C148.461 18.734 148.329 19.1995 148.272 19.722C148.216 20.254 148.188 20.8145 148.188 21.4035C148.188 22.0305 148.216 22.61 148.272 23.1515C148.329 23.6835 148.461 24.1395 148.668 24.529C148.865 24.909 149.157 25.2035 149.543 25.422C149.91 25.6405 150.409 25.745 151.03 25.745Z" fill="#324054"/>
<path d="M70.0708 15.2665H73.4872L77.9108 23.8355H78.0331L84.0472 8.48346H87.0684L80.0472 28.12H76.9319L71.9437 18.8575H71.8213L69.1484 28.12H66.1084L70.0708 15.2665Z" fill="#324054"/>
<path d="M86.9929 4.60748L81.0635 8.83498L88.9411 11.666L86.9929 4.60748Z" fill="#324054"/>
<path d="M51.5574 6.29846L47.708 12.3975H55.4068L51.5574 6.29846Z" fill="#324054"/>
<path d="M80.0468 28.1295L80.0938 27.9775L77.948 23.845H77.9009L74.1362 16.5395L73.4774 15.276H70.0703L72.3103 19.551L76.9315 28.1295H80.0468Z" fill="#324054"/>
<path d="M23.4545 18.2685L29.2333 10.887L20.3203 0.0189819H1.41211V37.9715H22.7956L31.0403 26.5335L23.4545 18.2685ZM17.1203 5.98498L20.8192 10.9725L18.2215 13.148L13.0639 5.98498H17.1203ZM7.02152 9.56648H8.51799L13.0545 16.3115H7.02152V9.56648ZM7.02152 32.414C6.75799 32.414 7.02152 24.2725 7.02152 24.2725H8.48034L13.8545 32.414C13.8545 32.414 7.28505 32.414 7.02152 32.414ZM20.0756 30.2765L14.1651 21.8215H18.9274L22.9368 27.4265L20.0756 30.2765Z" fill="url(#paint0_linear_93_9068)"/>
<defs>
<linearGradient id="paint0_linear_93_9068" x1="16.2233" y1="0.0232569" x2="16.2233" y2="37.9767" gradientUnits="userSpaceOnUse">
<stop offset="5.20186e-07" stop-color="#FFA700"/>
<stop offset="1" stop-color="#FF7F00"/>
</linearGradient>
</defs>
</svg>
