<svg width="70" height="70" viewBox="0 0 70 70" fill="none" xmlns="http://www.w3.org/2000/svg">
<circle cx="35" cy="35" r="35" fill="white"/>
<path d="M46.25 48.4375H23.75C23.2375 48.4375 22.8125 48.0125 22.8125 47.5C22.8125 46.9875 23.2375 46.5625 23.75 46.5625H46.25C46.7625 46.5625 47.1875 46.9875 47.1875 47.5C47.1875 48.0125 46.7625 48.4375 46.25 48.4375Z" fill="#292D32"/>
<path d="M27 44.6876H25C23.8 44.6876 22.8125 43.7001 22.8125 42.5001V31.7251C22.8125 30.5251 23.8 29.5376 25 29.5376H27C28.2 29.5376 29.1875 30.5251 29.1875 31.7251V42.5001C29.1875 43.7001 28.2 44.6876 27 44.6876ZM25 31.4001C24.825 31.4001 24.6875 31.5376 24.6875 31.7126V42.5001C24.6875 42.6751 24.825 42.8126 25 42.8126H27C27.175 42.8126 27.3125 42.6751 27.3125 42.5001V31.7251C27.3125 31.5501 27.175 31.4126 27 31.4126H25V31.4001Z" fill="#292D32"/>
<path d="M36 44.6873H34C32.8 44.6873 31.8125 43.6998 31.8125 42.4998V27.7373C31.8125 26.5373 32.8 25.5498 34 25.5498H36C37.2 25.5498 38.1875 26.5373 38.1875 27.7373V42.4998C38.1875 43.6998 37.2 44.6873 36 44.6873ZM34 27.4248C33.825 27.4248 33.6875 27.5623 33.6875 27.7373V42.4998C33.6875 42.6748 33.825 42.8123 34 42.8123H36C36.175 42.8123 36.3125 42.6748 36.3125 42.4998V27.7373C36.3125 27.5623 36.175 27.4248 36 27.4248H34Z" fill="#292D32"/>
<path d="M45 44.6875H43C41.8 44.6875 40.8125 43.7 40.8125 42.5V23.75C40.8125 22.55 41.8 21.5625 43 21.5625H45C46.2 21.5625 47.1875 22.55 47.1875 23.75V42.5C47.1875 43.7 46.2 44.6875 45 44.6875ZM43 23.4375C42.825 23.4375 42.6875 23.575 42.6875 23.75V42.5C42.6875 42.675 42.825 42.8125 43 42.8125H45C45.175 42.8125 45.3125 42.675 45.3125 42.5V23.75C45.3125 23.575 45.175 23.4375 45 23.4375H43Z" fill="#292D32"/>
</svg>
