<svg width="15" height="15" viewBox="0 0 15 15" fill="none" xmlns="http://www.w3.org/2000/svg">
<path d="M9.375 9.6875C9.375 11.9313 7.55625 13.75 5.3125 13.75C3.06875 13.75 1.25 11.9313 1.25 9.6875C1.25 7.44375 3.06875 5.625 5.3125 5.625C5.41875 5.625 5.53125 5.63125 5.6375 5.6375C7.61875 5.79375 9.20625 7.38125 9.3625 9.3625C9.36875 9.46875 9.375 9.58125 9.375 9.6875Z" fill="#718096"/>
<path d="M13.7508 5.3125C13.7508 7.35 12.2508 9.03125 10.3008 9.325V9.2875C10.107 6.8625 8.13828 4.89375 5.69453 4.7H5.67578C5.96953 2.75 7.65078 1.25 9.68828 1.25C11.932 1.25 13.7508 3.06875 13.7508 5.3125Z" fill="#718096"/>
<path d="M3.49375 1.25H1.875C1.53125 1.25 1.25 1.53125 1.25 1.875V3.49375C1.25 4.05 1.925 4.33125 2.31875 3.9375L3.9375 2.31875C4.325 1.925 4.05 1.25 3.49375 1.25Z" fill="#718096"/>
<path d="M11.5056 13.7502H13.1243C13.4681 13.7502 13.7493 13.4689 13.7493 13.1252V11.5064C13.7493 10.9502 13.0743 10.6689 12.6806 11.0627L11.0618 12.6814C10.6743 13.0752 10.9493 13.7502 11.5056 13.7502Z" fill="#718096"/>
</svg>
