<svg width="15" height="19" viewBox="0 0 15 19" fill="none" xmlns="http://www.w3.org/2000/svg">
<g clip-path="url(#clip0_1927_5581)">
<path fill-rule="evenodd" clip-rule="evenodd" d="M11.0297 18.1331C10.5132 18.3777 9.9593 18.5625 9.37875 18.6875C9.5892 18.4961 9.77062 18.2681 9.91213 18.0136C10.131 17.6197 10.258 17.1627 10.258 16.6747C10.258 16.1292 10.1008 15.6036 9.80449 15.1566L7.71815 11.8159L5.6318 15.1566C5.33548 15.6036 5.17825 16.1281 5.17825 16.6747C5.17825 17.1627 5.30403 17.6197 5.52416 18.0136C5.66567 18.2681 5.84709 18.495 6.05754 18.6875C5.4782 18.5625 4.92426 18.3766 4.40781 18.1331C2.08925 17.0366 0.5 14.829 0.5 12.2884C0.5 9.29747 2.32147 7.78152 5.2992 4.84478C7.88021 2.29865 7.7121 0.322386 7.71452 0.315747C7.68791 0.281445 7.94432 0.522669 8.20073 0.861268C8.16444 0.81258 10.154 3.03671 10.4987 5.61936C10.7406 7.43186 10.2568 8.8283 10.2568 8.8283C10.2568 8.8283 11.4397 8.48859 11.8473 7.02908C11.9162 6.78343 11.9453 6.44483 11.9646 6.33418C11.9646 6.33418 12.6262 7.05895 13.5176 8.34917C14.409 9.64049 14.9363 10.9429 14.9363 12.2873C14.9375 14.829 13.3482 17.0366 11.0297 18.1331Z" fill="#FFC35C"/>
</g>
<defs>
<clipPath id="clip0_1927_5581">
<rect width="15" height="19" fill="white"/>
</clipPath>
</defs>
</svg>
