<svg width="44" height="44" viewBox="0 0 44 44" fill="none" xmlns="http://www.w3.org/2000/svg">
<g filter="url(#filter0_d_255_16697)">
<rect x="2" y="1" width="40" height="40" rx="8" fill="#FFF2D9"/>
<rect x="2.5" y="1.5" width="39" height="39" rx="7.5" stroke="#FFF2D9"/>
</g>
<path d="M28.75 17V19.1C28.31 19.04 27.81 19.01 27.25 19V17C27.25 13.85 26.36 11.75 22 11.75C17.64 11.75 16.75 13.85 16.75 17V19C16.19 19.01 15.69 19.04 15.25 19.1V17C15.25 14.1 15.95 10.25 22 10.25C28.05 10.25 28.75 14.1 28.75 17Z" fill="#FFA500"/>
<path opacity="0.4" d="M32 24V26C32 30 31 31 27 31H17C13 31 12 30 12 26V24C12 20.66 12.7 19.41 15.25 19.1C15.69 19.04 16.19 19.01 16.75 19H27.25C27.81 19.01 28.31 19.04 28.75 19.1C31.3 19.41 32 20.66 32 24Z" fill="#FFA500"/>
<path d="M18 26.0001C17.87 26.0001 17.74 25.9701 17.62 25.9201C17.49 25.8701 17.39 25.8001 17.29 25.7101C17.11 25.5201 17 25.2601 17 25.0001C17 24.8701 17.03 24.7401 17.08 24.6201C17.13 24.5001 17.2 24.3901 17.29 24.2901C17.39 24.2001 17.49 24.1301 17.62 24.0801C17.99 23.9201 18.43 24.0101 18.71 24.2901C18.8 24.3901 18.87 24.5001 18.92 24.6201C18.97 24.7401 19 24.8701 19 25.0001C19 25.2601 18.89 25.5201 18.71 25.7101C18.52 25.8901 18.26 26.0001 18 26.0001Z" fill="#FFA500"/>
<path d="M22 26C21.73 26 21.48 25.89 21.29 25.71C21.2 25.61 21.13 25.5 21.08 25.38C21.03 25.26 21 25.13 21 25C21 24.73 21.11 24.48 21.29 24.29C21.66 23.92 22.33 23.92 22.71 24.29C22.89 24.48 23 24.73 23 25C23 25.13 22.97 25.26 22.92 25.38C22.87 25.5 22.8 25.61 22.71 25.71C22.52 25.89 22.26 26 22 26Z" fill="#FFA500"/>
<path d="M26 26C25.74 26 25.48 25.89 25.29 25.71C25.11 25.52 25 25.27 25 25C25 24.73 25.11 24.48 25.29 24.29C25.67 23.92 26.34 23.92 26.71 24.29C26.75 24.34 26.79 24.39 26.83 24.45C26.87 24.5 26.9 24.56 26.92 24.62C26.95 24.68 26.97 24.74 26.98 24.8C26.99 24.87 27 24.94 27 25C27 25.26 26.89 25.52 26.71 25.71C26.52 25.89 26.26 26 26 26Z" fill="#FFA500"/>
<defs>
<filter id="filter0_d_255_16697" x="0" y="0" width="44" height="44" filterUnits="userSpaceOnUse" color-interpolation-filters="sRGB">
<feFlood flood-opacity="0" result="BackgroundImageFix"/>
<feColorMatrix in="SourceAlpha" type="matrix" values="0 0 0 0 0 0 0 0 0 0 0 0 0 0 0 0 0 0 127 0" result="hardAlpha"/>
<feOffset dy="1"/>
<feGaussianBlur stdDeviation="1"/>
<feColorMatrix type="matrix" values="0 0 0 0 0.0627451 0 0 0 0 0.0941176 0 0 0 0 0.156863 0 0 0 0.05 0"/>
<feBlend mode="normal" in2="BackgroundImageFix" result="effect1_dropShadow_255_16697"/>
<feBlend mode="normal" in="SourceGraphic" in2="effect1_dropShadow_255_16697" result="shape"/>
</filter>
</defs>
</svg>
