<svg width="24" height="24" viewBox="0 0 24 24" fill="none" xmlns="http://www.w3.org/2000/svg">
<mask id="mask0_552_1972" style="mask-type:alpha" maskUnits="userSpaceOnUse" x="0" y="0" width="24" height="24">
<rect width="24" height="24" fill="#D9D9D9"/>
</mask>
<g mask="url(#mask0_552_1972)">
<path d="M3.1007 22.9999C3.39262 22.9999 3.67259 22.884 3.87901 22.6775C4.08543 22.4711 4.20139 22.1911 4.20139 21.8992V14.1943C4.20139 13.9024 4.08543 13.6224 3.87901 13.416C3.67259 13.2096 3.39262 13.0936 3.1007 13.0936C2.80877 13.0936 2.52881 13.2096 2.32239 13.416C2.11597 13.6224 2 13.9024 2 14.1943V21.8992C2 22.1911 2.11597 22.4711 2.32239 22.6775C2.52881 22.884 2.80877 22.9999 3.1007 22.9999Z" fill="#777E90"/>
<path d="M7.50391 11.9923V21.8986C7.50391 22.1905 7.61987 22.4705 7.8263 22.6769C8.03272 22.8833 8.31269 22.9993 8.60461 22.9993C8.89654 22.9993 9.1765 22.8833 9.38293 22.6769C9.58935 22.4705 9.70532 22.1905 9.70532 21.8986V11.9923C9.70532 11.7004 9.58935 11.4204 9.38293 11.214C9.1765 11.0076 8.89654 10.8916 8.60461 10.8916C8.31269 10.8916 8.03272 11.0076 7.8263 11.214C7.61987 11.4204 7.50391 11.7004 7.50391 11.9923Z" fill="#777E90"/>
<path d="M13.0059 15.295V21.8992C13.0059 22.1911 13.1218 22.4711 13.3282 22.6775C13.5347 22.8839 13.8146 22.9999 14.1066 22.9999C14.3985 22.9999 14.6785 22.8839 14.8849 22.6775C15.0913 22.4711 15.2073 22.1911 15.2073 21.8992V15.295C15.2073 15.0031 15.0913 14.7231 14.8849 14.5167C14.6785 14.3103 14.3985 14.1943 14.1066 14.1943C13.8146 14.1943 13.5347 14.3103 13.3282 14.5167C13.1218 14.7231 13.0059 15.0031 13.0059 15.295Z" fill="#777E90"/>
<path d="M18.5098 10.8917V21.8987C18.5098 22.1906 18.6257 22.4706 18.8322 22.677C19.0386 22.8834 19.3185 22.9994 19.6105 22.9994C19.9024 22.9994 20.1824 22.8834 20.3888 22.677C20.5952 22.4706 20.7112 22.1906 20.7112 21.8987V10.8917C20.7112 10.5998 20.5952 10.3198 20.3888 10.1134C20.1824 9.90698 19.9024 9.79102 19.6105 9.79102C19.3185 9.79102 19.0386 9.90698 18.8322 10.1134C18.6257 10.3198 18.5098 10.5998 18.5098 10.8917Z" fill="#777E90"/>
<path d="M3.10046 10.8928C3.39236 10.8927 3.67229 10.7767 3.87866 10.5703L7.82576 6.62315C8.03556 6.42329 8.3142 6.31181 8.60396 6.31181C8.89371 6.31181 9.17236 6.42329 9.38215 6.62315L11.7729 9.01387C12.3921 9.63292 13.2319 9.98068 14.1075 9.98068C14.983 9.98068 15.8228 9.63292 16.442 9.01387L22.5905 2.86537C22.791 2.65777 22.902 2.37973 22.8995 2.09113C22.897 1.80253 22.7812 1.52647 22.5771 1.32239C22.373 1.11831 22.097 1.00255 21.8084 1.00004C21.5198 0.997534 21.2417 1.10848 21.0341 1.30898L14.8856 7.45638C14.6792 7.66273 14.3993 7.77865 14.1075 7.77865C13.8156 7.77865 13.5357 7.66273 13.3293 7.45638L10.9385 5.06676C10.3193 4.44772 9.47956 4.09996 8.60396 4.09996C7.72836 4.09996 6.88861 4.44772 6.26938 5.06676L2.32227 9.01387C2.16838 9.1678 2.06359 9.36391 2.02114 9.57739C1.97869 9.79088 2.00048 10.0122 2.08377 10.2133C2.16706 10.4143 2.30811 10.5862 2.48907 10.7072C2.67004 10.8281 2.8828 10.8927 3.10046 10.8928Z" fill="#777E90"/>
</g>
</svg>
