<svg width="24" height="24" viewBox="0 0 24 24" fill="none" xmlns="http://www.w3.org/2000/svg">
<mask id="mask0_276_281" style="mask-type:alpha" maskUnits="userSpaceOnUse" x="0" y="0" width="24" height="24">
<rect width="24" height="24" fill="#D9D9D9"/>
</mask>
<g mask="url(#mask0_276_281)">
<path d="M12 1C15.4375 1 18.1875 3.75 18.1875 7.1875V9.9375C19.3562 9.9375 20.25 10.8312 20.25 12V20.9375C20.25 22.1063 19.3562 23 18.1875 23H5.8125C4.64375 23 3.75 22.1063 3.75 20.9375V12C3.75 10.8312 4.64375 9.9375 5.8125 9.9375V7.1875C5.8125 3.75 8.5625 1 12 1ZM5.125 12V20.9375C5.125 21.35 5.4 21.625 5.8125 21.625H18.1875C18.6 21.625 18.875 21.35 18.875 20.9375V12C18.875 11.5875 18.6 11.3125 18.1875 11.3125H17.5H6.5H5.8125C5.4 11.3125 5.125 11.5875 5.125 12ZM16.8125 9.9375V7.1875C16.8125 4.50625 14.6812 2.375 12 2.375C9.31875 2.375 7.1875 4.50625 7.1875 7.1875V9.9375H16.8125Z" fill="black"/>
<path d="M12 13.375C13.1687 13.375 14.0625 14.2688 14.0625 15.4375C14.0625 16.3313 13.5125 17.0875 12.6875 17.3625V18.875C12.6875 19.2875 12.4125 19.5625 12 19.5625C11.5875 19.5625 11.3125 19.2875 11.3125 18.875V17.3625C10.4875 17.0875 9.9375 16.3313 9.9375 15.4375C9.9375 14.2688 10.8312 13.375 12 13.375ZM12 16.125C12.4125 16.125 12.6875 15.85 12.6875 15.4375C12.6875 15.025 12.4125 14.75 12 14.75C11.5875 14.75 11.3125 15.025 11.3125 15.4375C11.3125 15.85 11.5875 16.125 12 16.125Z" fill="black"/>
</g>
</svg>
