<svg xmlns="http://www.w3.org/2000/svg" xmlns:xlink="http://www.w3.org/1999/xlink" width="17" height="17" viewBox="0 0 17 17">
  <defs>
    <clipPath id="clip-path">
      <rect id="Rectangle_19235" data-name="Rectangle 19235" width="17" height="17" transform="translate(1361 935)" fill="#6e3333" opacity="0.33"/>
    </clipPath>
  </defs>
  <g id="Mask_Group_223" data-name="Mask Group 223" transform="translate(-1361 -935)" clip-path="url(#clip-path)">
    <path id="Path_43590" data-name="Path 43590" d="M759,1302.542v.708a.708.708,0,0,1-1.417,0v-.708a2.129,2.129,0,0,0-2.125-2.125h-9.917a2.129,2.129,0,0,0-2.125,2.125v7.083a2.129,2.129,0,0,0,2.125,2.125h2.125a.708.708,0,1,1,0,1.417h-2.125a3.544,3.544,0,0,1-3.542-3.542v-7.083a3.544,3.544,0,0,1,3.542-3.542h9.917A3.544,3.544,0,0,1,759,1302.542Zm-6.375,1.417h2.833a.708.708,0,1,0,0-1.417h-2.833a.708.708,0,1,0,0,1.417Zm5.752,2.04a2.122,2.122,0,0,1,0,3l-4.751,4.753a2.829,2.829,0,0,1-2,.829H750.5a.709.709,0,0,1-.708-.708v-1.119a2.808,2.808,0,0,1,.83-2l4.751-4.753a2.126,2.126,0,0,1,3,0Zm-.794,1.5a.708.708,0,0,0-1.209-.5l-4.751,4.753a1.426,1.426,0,0,0-.415,1v.418h.415a1.4,1.4,0,0,0,1-.418l4.751-4.746A.706.706,0,0,0,757.583,1307.5Zm-9.208.708h-1.607a.71.71,0,0,1-.614-.354.708.708,0,0,0-1.225.708,2.124,2.124,0,0,0,1.84,1.063h.19a.708.708,0,0,0,1.417,0,2.129,2.129,0,0,0,2.125-2.125,1.953,1.953,0,0,0-1.64-1.934l-2.154-.361a.542.542,0,0,1-.456-.538.71.71,0,0,1,.708-.708h1.607a.71.71,0,0,1,.614.354.708.708,0,0,0,1.225-.708,2.124,2.124,0,0,0-1.84-1.062h-.19a.708.708,0,1,0-1.417,0,2.125,2.125,0,0,0-2.125,2.125,1.952,1.952,0,0,0,1.64,1.934l2.154.361a.542.542,0,0,1,.456.538.709.709,0,0,1-.708.708Zm3.542-2.125a.708.708,0,1,0,.708-.708A.709.709,0,0,0,751.917,1306.083Z" transform="translate(619 -363)" fill="#777e90"/>
  </g>
</svg>
