<svg width="20" height="20" viewBox="0 0 20 20" fill="none" xmlns="http://www.w3.org/2000/svg">
<path d="M13.4891 1.66602H6.50573C3.4724 1.66602 1.66406 3.47435 1.66406 6.50768V13.4827C1.66406 16.5244 3.4724 18.3327 6.50573 18.3327H13.4807C16.5141 18.3327 18.3224 16.5244 18.3224 13.491V6.50768C18.3307 3.47435 16.5224 1.66602 13.4891 1.66602ZM14.0641 9.60768C14.0641 9.93268 13.8057 10.191 13.4807 10.191C13.1557 10.191 12.8974 9.93268 12.8974 9.60768V9.45768L10.6307 11.7243C10.5057 11.8493 10.3391 11.9077 10.1641 11.891C9.98906 11.8743 9.83073 11.7827 9.73906 11.6327L8.88906 10.366L6.90573 12.3493C6.78906 12.466 6.6474 12.516 6.4974 12.516C6.3474 12.516 6.1974 12.4577 6.08906 12.3493C5.86406 12.1243 5.86406 11.7577 6.08906 11.5243L8.5724 9.04102C8.6974 8.91602 8.86406 8.85768 9.03906 8.87435C9.21406 8.89102 9.3724 8.98268 9.46406 9.13268L10.3141 10.3993L12.0724 8.64102H11.9224C11.5974 8.64102 11.3391 8.38268 11.3391 8.05768C11.3391 7.73268 11.5974 7.47435 11.9224 7.47435H13.4724C13.5474 7.47435 13.6224 7.49102 13.6974 7.51602C13.8391 7.57435 13.9557 7.69102 14.0141 7.83268C14.0474 7.90768 14.0557 7.98268 14.0557 8.05768V9.60768H14.0641Z" fill="#71839B"/>
</svg>
