<svg width="62" height="62" viewBox="0 0 62 62" fill="none" xmlns="http://www.w3.org/2000/svg">
<circle cx="31" cy="31" r="31" fill="#FFA500" fill-opacity="0.07"/>
<path d="M20.5256 44.9991C19.6937 44.9991 19.0039 44.3093 19.0039 43.4774V39.2775C19.0039 38.4457 19.6937 37.7559 20.5256 37.7559C21.3574 37.7559 22.0473 38.4457 22.0473 39.2775V43.4774C22.0473 44.3295 21.3574 44.9991 20.5256 44.9991Z" fill="#FFDB99"/>
<path d="M30.9118 44.9985C30.08 44.9985 29.3901 44.3087 29.3901 43.4768V35.0568C29.3901 34.225 30.08 33.5352 30.9118 33.5352C31.7437 33.5352 32.4335 34.225 32.4335 35.0568V43.4768C32.4335 44.329 31.7437 44.9985 30.9118 44.9985Z" fill="#FFDB99"/>
<path d="M41.2981 44.9992C40.4662 44.9992 39.7764 44.3093 39.7764 43.4775V30.8576C39.7764 30.0258 40.4662 29.3359 41.2981 29.3359C42.1299 29.3359 42.8197 30.0258 42.8197 30.8576V43.4775C42.8197 44.3296 42.1502 44.9992 41.2981 44.9992Z" fill="#FFDB99"/>
<path d="M42.8236 18.4608C42.8236 18.3594 42.7831 18.2376 42.7628 18.1362C42.7425 18.055 42.7222 17.9536 42.7019 17.8724C42.6613 17.7913 42.6005 17.7304 42.5599 17.6493C42.499 17.5681 42.4381 17.4667 42.357 17.4058C42.3367 17.3855 42.3367 17.3652 42.3164 17.3652C42.2555 17.3246 42.1947 17.3043 42.1338 17.2638C42.0527 17.2029 41.9512 17.142 41.8498 17.1014C41.7483 17.0609 41.6469 17.0609 41.5454 17.0406C41.4643 17.0203 41.4034 17 41.3222 17H35.3775C34.5457 17 33.8558 17.6898 33.8558 18.5217C33.8558 19.3535 34.5457 20.0434 35.3775 20.0434H37.9137C33.0848 25.1157 26.9981 28.6866 20.1606 30.4111C19.3491 30.614 18.8418 31.4459 19.0447 32.2575C19.2071 32.9473 19.836 33.4139 20.5258 33.4139C20.6476 33.4139 20.7693 33.3936 20.8911 33.3734C28.1343 31.5676 34.6065 27.8141 39.7803 22.4984V24.4664C39.7803 25.2983 40.4701 25.9881 41.302 25.9881C42.1338 25.9881 42.8236 25.2983 42.8236 24.4664V18.5217C42.8236 18.5014 42.8236 18.4811 42.8236 18.4608Z" fill="#FFA500"/>
</svg>
