<svg width="20" height="20" viewBox="0 0 20 20" fill="none" xmlns="http://www.w3.org/2000/svg">
<path d="M6.25182 12.7083C6.09349 12.7083 5.93516 12.65 5.81016 12.525C5.56849 12.2833 5.56849 11.8833 5.81016 11.6417L8.47682 8.975C8.61016 8.84166 8.78516 8.775 8.97682 8.79166C9.16016 8.80833 9.32682 8.90833 9.43516 9.06666L10.3435 10.4333L13.3018 7.475C13.5435 7.23333 13.9435 7.23333 14.1852 7.475C14.4268 7.71666 14.4268 8.11666 14.1852 8.35833L10.6852 11.8583C10.5518 11.9917 10.3768 12.0583 10.1852 12.0417C10.0018 12.025 9.83516 11.925 9.72682 11.7667L8.81849 10.4L6.69349 12.525C6.56849 12.65 6.41016 12.7083 6.25182 12.7083Z" fill="#71839B"/>
<path d="M13.7487 10.2083C13.407 10.2083 13.1237 9.92501 13.1237 9.58334V8.54167H12.082C11.7404 8.54167 11.457 8.25834 11.457 7.91667C11.457 7.57501 11.7404 7.29167 12.082 7.29167H13.7487C14.0904 7.29167 14.3737 7.57501 14.3737 7.91667V9.58334C14.3737 9.92501 14.0904 10.2083 13.7487 10.2083Z" fill="#71839B"/>
<path d="M12.5013 18.9583H7.5013C2.9763 18.9583 1.04297 17.025 1.04297 12.5V7.50001C1.04297 2.97501 2.9763 1.04167 7.5013 1.04167H12.5013C17.0263 1.04167 18.9596 2.97501 18.9596 7.50001V12.5C18.9596 17.025 17.0263 18.9583 12.5013 18.9583ZM7.5013 2.29167C3.65964 2.29167 2.29297 3.65834 2.29297 7.50001V12.5C2.29297 16.3417 3.65964 17.7083 7.5013 17.7083H12.5013C16.343 17.7083 17.7096 16.3417 17.7096 12.5V7.50001C17.7096 3.65834 16.343 2.29167 12.5013 2.29167H7.5013Z" fill="#71839B"/>
</svg>
