<svg width="20" height="20" viewBox="0 0 20 20" fill="none" xmlns="http://www.w3.org/2000/svg">
<path d="M13.4891 1.66602H6.50573C3.4724 1.66602 1.66406 3.47435 1.66406 6.50768V13.4827C1.66406 16.5244 3.4724 18.3327 6.50573 18.3327H13.4807C16.5141 18.3327 18.3224 16.5244 18.3224 13.491V6.50768C18.3307 3.47435 16.5224 1.66602 13.4891 1.66602ZM6.35573 15.1243C6.35573 15.466 6.0724 15.7493 5.73073 15.7493C5.38906 15.7493 5.10573 15.466 5.10573 15.1243V13.3993C5.10573 13.0577 5.38906 12.7743 5.73073 12.7743C6.0724 12.7743 6.35573 13.0577 6.35573 13.3993V15.1243ZM10.6224 15.1243C10.6224 15.466 10.3391 15.7493 9.9974 15.7493C9.65573 15.7493 9.3724 15.466 9.3724 15.1243V11.666C9.3724 11.3243 9.65573 11.041 9.9974 11.041C10.3391 11.041 10.6224 11.3243 10.6224 11.666V15.1243ZM14.8891 15.1243C14.8891 15.466 14.6057 15.7493 14.2641 15.7493C13.9224 15.7493 13.6391 15.466 13.6391 15.1243V9.94102C13.6391 9.59935 13.9224 9.31602 14.2641 9.31602C14.6057 9.31602 14.8891 9.59935 14.8891 9.94102V15.1243ZM14.8891 7.30768C14.8891 7.64935 14.6057 7.93268 14.2641 7.93268C13.9224 7.93268 13.6391 7.64935 13.6391 7.30768V6.49935C11.5141 8.68268 8.85573 10.2243 5.88073 10.966C5.83073 10.9827 5.78073 10.9827 5.73073 10.9827C5.4474 10.9827 5.1974 10.791 5.1224 10.5077C5.03906 10.1743 5.23906 9.83268 5.58073 9.74935C8.38906 9.04935 10.8891 7.57435 12.8724 5.49102H11.8307C11.4891 5.49102 11.2057 5.20768 11.2057 4.86602C11.2057 4.52435 11.4891 4.24102 11.8307 4.24102H14.2724C14.3057 4.24102 14.3307 4.25768 14.3641 4.25768C14.4057 4.26602 14.4474 4.26602 14.4891 4.28268C14.5307 4.29935 14.5641 4.32435 14.6057 4.34935C14.6307 4.36602 14.6557 4.37435 14.6807 4.39102C14.6891 4.39935 14.6891 4.40768 14.6974 4.40768C14.7307 4.44102 14.7557 4.47435 14.7807 4.50768C14.8057 4.54102 14.8307 4.56602 14.8391 4.59935C14.8557 4.63268 14.8557 4.66602 14.8641 4.70768C14.8724 4.74935 14.8891 4.79102 14.8891 4.84102C14.8891 4.84935 14.8974 4.85768 14.8974 4.86602V7.30768H14.8891Z" fill="#71839B"/>
</svg>
