<svg width="20" height="20" viewBox="0 0 20 20" fill="none" xmlns="http://www.w3.org/2000/svg">
<path d="M6.96338 1.66602C7.30685 1.66602 7.57672 1.93898 7.57672 2.26814C7.57672 2.50898 7.78117 2.70166 8.02651 2.70166H8.83613C10.071 2.70969 11.0769 3.69717 11.0851 4.9014V5.05394C11.862 5.05394 12.6389 5.07 13.424 5.07803C16.2617 5.07803 18.3307 7.10115 18.3307 9.89498V13.4836C18.3307 16.2774 16.2617 18.3006 13.424 18.3006C12.2872 18.3247 11.1505 18.3327 10.0056 18.3327C8.86066 18.3327 7.70757 18.3247 6.57083 18.3006C3.73308 18.3006 1.66406 16.2774 1.66406 13.4836V9.89498C1.66406 7.10115 3.73308 5.07803 6.57901 5.07803C7.65032 5.06197 8.74617 5.04591 9.85837 5.04591V4.90943C9.85837 4.35548 9.39223 3.9059 8.83613 3.9059H8.02651C7.1024 3.9059 6.35003 3.1673 6.35003 2.26814C6.35003 1.93898 6.62808 1.66602 6.96338 1.66602ZM7.56854 9.63808C7.22507 9.63808 6.9552 9.91104 6.9552 10.2402V11.0832H6.08833C5.75304 11.0832 5.47499 11.3561 5.47499 11.6853C5.47499 12.0225 5.75304 12.2874 6.08833 12.2874H6.9552V13.1384C6.9552 13.4676 7.22507 13.7405 7.56854 13.7405C7.90384 13.7405 8.18189 13.4676 8.18189 13.1384V12.2874H9.04058C9.37587 12.2874 9.65392 12.0225 9.65392 11.6853C9.65392 11.3561 9.37587 11.0832 9.04058 11.0832H8.18189V10.2402C8.18189 9.91104 7.90384 9.63808 7.56854 9.63808ZM13.9964 12.4881H13.9146C13.5703 12.4881 13.3013 12.7611 13.3013 13.0902C13.3013 13.4274 13.5703 13.6923 13.9146 13.6923H13.9964C14.3317 13.6923 14.6098 13.4274 14.6098 13.0902C14.6098 12.7611 14.3317 12.4881 13.9964 12.4881ZM12.598 9.72639H12.5162C12.1727 9.72639 11.9029 9.99935 11.9029 10.3285C11.9029 10.6657 12.1727 10.9306 12.5162 10.9306H12.598C12.9333 10.9306 13.2113 10.6657 13.2113 10.3285C13.2113 9.99935 12.9333 9.72639 12.598 9.72639Z" fill="#71839B"/>
</svg>
