<svg width="20" height="20" viewBox="0 0 20 20" fill="none" xmlns="http://www.w3.org/2000/svg">
<path d="M6.96631 1.66663C7.30978 1.66663 7.57965 1.93959 7.57965 2.26875C7.57965 2.50959 7.7841 2.70227 8.02944 2.70227H8.83906C10.0739 2.7103 11.0798 3.69778 11.088 4.90201V5.05455C11.8649 5.05455 12.6418 5.07061 13.4269 5.07864C16.2646 5.07864 18.3337 7.10176 18.3337 9.89559V13.4842C18.3337 16.2781 16.2646 18.3012 13.4269 18.3012C12.2902 18.3253 11.1534 18.3333 10.0085 18.3333C8.86359 18.3333 7.7105 18.3253 6.57376 18.3012C3.73601 18.3012 1.66699 16.2781 1.66699 13.4842V9.89559C1.66699 7.10176 3.73601 5.07864 6.58194 5.07864C7.65325 5.06258 8.7491 5.04652 9.8613 5.04652V4.91004C9.8613 4.35609 9.39516 3.90651 8.83906 3.90651H8.02944C7.10533 3.90651 6.35296 3.16791 6.35296 2.26875C6.35296 1.93959 6.63101 1.66663 6.96631 1.66663ZM7.57147 9.63869C7.228 9.63869 6.95813 9.91165 6.95813 10.2408V11.0838H6.09126C5.75597 11.0838 5.47792 11.3567 5.47792 11.6859C5.47792 12.0231 5.75597 12.288 6.09126 12.288H6.95813V13.139C6.95813 13.4682 7.228 13.7411 7.57147 13.7411C7.90677 13.7411 8.18482 13.4682 8.18482 13.139V12.288H9.0435C9.3788 12.288 9.65685 12.0231 9.65685 11.6859C9.65685 11.3567 9.3788 11.0838 9.0435 11.0838H8.18482V10.2408C8.18482 9.91165 7.90677 9.63869 7.57147 9.63869ZM13.9993 12.4887H13.9176C13.5733 12.4887 13.3042 12.7617 13.3042 13.0908C13.3042 13.428 13.5733 13.693 13.9176 13.693H13.9993C14.3346 13.693 14.6127 13.428 14.6127 13.0908C14.6127 12.7617 14.3346 12.4887 13.9993 12.4887ZM12.6009 9.727H12.5191C12.1757 9.727 11.9058 9.99996 11.9058 10.3291C11.9058 10.6663 12.1757 10.9312 12.5191 10.9312H12.6009C12.9362 10.9312 13.2143 10.6663 13.2143 10.3291C13.2143 9.99996 12.9362 9.727 12.6009 9.727Z" fill="white"/>
</svg>
