<svg width="20" height="20" viewBox="0 0 20 20" fill="none" xmlns="http://www.w3.org/2000/svg">
<path d="M5.21822 11.0898L9.8721 13.7741C9.91483 13.8008 9.95757 13.8142 10.0003 13.8142C10.043 13.8142 10.0858 13.8008 10.1285 13.7741L14.7744 11.0898L10.6253 8.69231V11.4583H9.37533V8.69231L5.21822 11.0898ZM9.37533 7.25646V6.58175C8.82831 6.44393 8.37906 6.15298 8.02758 5.70889C7.67608 5.2648 7.50033 4.75073 7.50033 4.16671C7.50033 3.47335 7.74364 2.88335 8.23028 2.39671C8.71694 1.91007 9.30694 1.66675 10.0003 1.66675C10.6937 1.66675 11.2837 1.91007 11.7703 2.39671C12.257 2.88335 12.5003 3.47335 12.5003 4.16671C12.5003 4.75073 12.3245 5.2648 11.973 5.70889C11.6215 6.15298 11.1723 6.44393 10.6253 6.58175V7.25646L16.3304 10.5385C16.5689 10.6762 16.7541 10.8608 16.8859 11.0923C17.0177 11.3238 17.0836 11.5773 17.0836 11.8526V13.1474C17.0836 13.4228 17.0177 13.6762 16.8859 13.9077C16.7541 14.1393 16.5689 14.3239 16.3304 14.4615L10.7535 17.6715C10.5146 17.8082 10.2631 17.8766 9.99899 17.8766C9.73491 17.8766 9.48428 17.8082 9.2471 17.6715L3.6702 14.4615C3.43169 14.3239 3.24653 14.1393 3.11472 13.9077C2.9829 13.6762 2.91699 13.4228 2.91699 13.1474V11.8526C2.91699 11.5773 2.9829 11.3238 3.11472 11.0923C3.24653 10.8608 3.43169 10.6762 3.6702 10.5385L9.37533 7.25646ZM9.2471 14.851L4.16697 11.9279V13.1474C4.16697 13.1902 4.17766 13.2316 4.19903 13.2716C4.22039 13.3117 4.25244 13.3451 4.29518 13.3718L9.8721 16.5946C9.91483 16.6213 9.95757 16.6346 10.0003 16.6346C10.043 16.6346 10.0858 16.6213 10.1285 16.5946L15.7054 13.3718C15.7482 13.3451 15.7802 13.3117 15.8016 13.2716C15.823 13.2316 15.8336 13.1902 15.8336 13.1474V11.9279L10.7535 14.851C10.5146 14.9877 10.2631 15.0561 9.99899 15.0561C9.73491 15.0561 9.48428 14.9877 9.2471 14.851ZM10.0003 5.41671C10.3475 5.41671 10.6427 5.29518 10.8857 5.05212C11.1288 4.80907 11.2503 4.51393 11.2503 4.16671C11.2503 3.81948 11.1288 3.52435 10.8857 3.28129C10.6427 3.03823 10.3475 2.91671 10.0003 2.91671C9.65308 2.91671 9.35794 3.03823 9.11489 3.28129C8.87183 3.52435 8.7503 3.81948 8.7503 4.16671C8.7503 4.51393 8.87183 4.80907 9.11489 5.05212C9.35794 5.29518 9.65308 5.41671 10.0003 5.41671Z" fill="white"/>
</svg>
