<svg width="20" height="20" viewBox="0 0 20 20" fill="none" xmlns="http://www.w3.org/2000/svg">
<g clip-path="url(#clip0_7346_13443)">
<path d="M7.37402 10.2616V13.3824" stroke="#71839B" stroke-width="1.5" stroke-linecap="round" stroke-linejoin="round"/>
<path d="M8.96639 11.8225H5.78223" stroke="#71839B" stroke-width="1.5" stroke-linecap="round" stroke-linejoin="round"/>
<path d="M12.805 10.3566H12.7158" stroke="#71839B" stroke-width="1.5" stroke-linecap="round" stroke-linejoin="round"/>
<path d="M14.3167 13.3358H14.2275" stroke="#71839B" stroke-width="1.5" stroke-linecap="round" stroke-linejoin="round"/>
<path d="M6.72713 1.66663C6.72713 2.2837 7.23753 2.78393 7.86714 2.78393H8.74754C9.7189 2.78739 10.5057 3.55851 10.5101 4.51051V5.07305M13.6906 18.3021C11.1863 18.3445 8.72785 18.3428 6.31095 18.3021C3.62824 18.3021 1.66699 16.3886 1.66699 13.7594V9.88472C1.66699 7.25547 3.62824 5.34195 6.31095 5.34195C8.7411 5.30041 11.2013 5.30128 13.6906 5.34195C16.3733 5.34195 18.3337 7.25634 18.3337 9.88472V13.7594C18.3337 16.3886 16.3733 18.3021 13.6906 18.3021Z" stroke="#71839B" stroke-width="1.5" stroke-linecap="round" stroke-linejoin="round"/>
</g>
<defs>
<clipPath id="clip0_7346_13443">
<rect width="20" height="20" fill="white"/>
</clipPath>
</defs>
</svg>
