<svg width="20" height="20" viewBox="0 0 20 20" fill="none" xmlns="http://www.w3.org/2000/svg">
<path d="M9.3724 7.25573V6.58102C8.82538 6.4432 8.37613 6.15287 8.02465 5.71004C7.67315 5.2672 7.4974 4.75252 7.4974 4.16597C7.4974 3.47261 7.74072 2.88261 8.22735 2.39597C8.71401 1.90934 9.30401 1.66602 9.99738 1.66602C10.6907 1.66602 11.2807 1.90934 11.7674 2.39597C12.254 2.88261 12.4974 3.47261 12.4974 4.16597C12.4974 4.75252 12.3216 5.2672 11.9701 5.71004C11.6186 6.15287 11.1694 6.4432 10.6224 6.58102V7.25573L16.3275 10.5378C16.5647 10.6745 16.7495 10.8593 16.882 11.0922C17.0144 11.3251 17.0807 11.5784 17.0807 11.8519V13.1467C17.0807 13.4202 17.0144 13.6734 16.882 13.9063C16.7495 14.1392 16.5647 14.3241 16.3275 14.4608L10.7506 17.6707C10.5134 17.8075 10.2623 17.8759 9.99738 17.8759C9.73242 17.8759 9.48135 17.8075 9.24417 17.6707L3.66727 14.4608C3.43009 14.3241 3.24526 14.1392 3.11279 13.9063C2.98031 13.6734 2.91406 13.4202 2.91406 13.1467V11.8519C2.91406 11.5784 2.98031 11.3251 3.11279 11.0922C3.24526 10.8593 3.43009 10.6745 3.66727 10.5378L9.3724 7.25573ZM5.21529 11.0891L9.86917 13.7733C9.9119 13.8001 9.95464 13.8134 9.99738 13.8134C10.0401 13.8134 10.0828 13.8001 10.1256 13.7733L14.7714 11.0891L10.6224 8.69158V11.4576H9.3724V8.69158L5.21529 11.0891Z" fill="#71839B"/>
</svg>
