<svg width="174" height="39" viewBox="0 0 174 39" fill="none" xmlns="http://www.w3.org/2000/svg">
<g clip-path="url(#clip0_0_1260)">
<path fill-rule="evenodd" clip-rule="evenodd" d="M11.7274 13.1197C11.9487 12.9402 12.2102 12.8206 12.5119 12.7408C12.5924 12.7209 12.693 12.681 12.7935 12.6611C12.874 12.5215 12.9545 12.362 13.0349 12.2224C14.1212 10.3282 15.4086 8.49389 16.8971 6.85892C16.8971 6.71935 16.8971 6.57978 16.8971 6.44021C16.8569 5.42334 16.9374 3.88806 17.4 2.97089C16.5954 3.36966 15.3683 3.25003 14.3424 3.82825C13.216 4.46628 11.1441 6.2807 10.8021 7.5169C10.3596 9.13193 11.5464 10.9264 11.7878 11.704C11.828 11.8436 11.828 12.7807 11.7274 13.1197Z" fill="url(#paint0_linear_0_1260)"/>
<path style="mix-blend-mode:screen" fill-rule="evenodd" clip-rule="evenodd" d="M11.7073 6.02148C11.7475 6.73928 12.0292 7.59664 12.6729 8.39418C12.4114 7.75615 12.2303 7.01842 12.6125 6.3405C12.6729 7.11811 13.0752 7.67639 13.6384 8.41412C13.6384 9.09204 13.6786 9.63038 13.4976 10.2884C12.2504 9.23161 11.4257 8.65339 10.9832 7.03836C11.1642 6.71934 11.4056 6.38038 11.7073 6.02148Z" fill="url(#paint1_linear_0_1260)"/>
<path style="mix-blend-mode:multiply" opacity="0.5" fill-rule="evenodd" clip-rule="evenodd" d="M13.6183 10.2086C13.7591 9.35123 13.6585 8.454 13.7591 7.57669C14.0206 5.18406 16.0523 3.82823 17.4 2.95093C16.9374 3.86811 16.8569 5.40338 16.8971 6.42025C16.8971 6.55982 16.8971 6.69939 16.8971 6.83896C15.4086 8.47393 14.1212 10.3282 13.0349 12.2025C12.9545 12.342 12.874 12.5015 12.7935 12.6411C12.693 12.6611 12.6125 12.7009 12.5119 12.7209C12.2303 12.8206 11.9487 12.9402 11.7274 13.0997C12.6527 12.2224 13.397 11.4847 13.6183 10.1887V10.2086Z" fill="url(#paint2_linear_0_1260)"/>
<path fill-rule="evenodd" clip-rule="evenodd" d="M11.7676 10.388C12.3108 10.9064 13.0349 11.0859 13.7189 11.0659C13.4775 11.4448 13.2562 11.8236 13.0148 12.2224C12.9343 12.362 12.8539 12.5215 12.7734 12.661C12.6728 12.681 12.5924 12.7209 12.4918 12.7408C12.2102 12.8405 11.9286 12.9601 11.7073 13.1196C11.8079 12.7807 11.8079 11.8436 11.7676 11.704C11.5665 11.046 10.7015 9.6503 10.6814 8.27454C10.782 9.07208 11.0234 9.71012 11.7475 10.388H11.7676Z" fill="#6F963F"/>
<path style="mix-blend-mode:screen" fill-rule="evenodd" clip-rule="evenodd" d="M16.877 5.78224C16.8167 5.24389 16.7764 4.54604 16.5149 4.10739C16.0925 3.42948 14.9459 3.74849 14.3827 4.0077C13.739 4.28684 13.1758 4.70555 12.6326 5.12426C13.2361 4.56598 13.8798 4.10739 14.3425 3.82825C15.3885 3.25003 16.5954 3.36966 17.4 2.97089C17.0178 3.70862 16.8971 4.84512 16.8971 5.78224H16.877Z" fill="url(#paint3_linear_0_1260)"/>
<path fill-rule="evenodd" clip-rule="evenodd" d="M17.3799 2.95093C15.1873 4.28682 13.9401 5.64265 13.5982 7.55676C13.0953 6.38038 13.0349 5.82209 13.4574 4.50614L13.2361 4.98467C12.874 5.9816 13.1154 6.79909 13.4775 7.71627C13.5177 7.81596 13.5177 7.97547 13.4976 8.29449C13.4574 9.15185 13.4574 9.71013 13.4372 10.1288C12.2705 9.31136 11.6268 8.69326 11.0234 7.33743C11.4458 8.65338 12.17 9.39111 13.216 10.1687C13.3568 10.2684 13.4372 10.4479 13.397 10.6074C13.397 10.6273 13.397 10.6672 13.397 10.6871C13.2763 11.3451 12.8941 11.9233 11.7073 13.1396C12.6527 12.4218 13.2361 11.7638 13.5177 11.1657C13.5781 11.046 13.6786 10.9663 13.7993 10.9463C13.8396 10.8865 13.8798 10.8267 13.8999 10.7868C13.8194 10.7868 13.739 10.8068 13.6585 10.8068C13.7792 10.3482 13.7591 9.8497 13.739 9.25154C15.127 8.85277 15.831 8.05522 16.4345 6.75921C16.6155 6.3405 16.6759 6.16105 16.7764 5.7224C16.6557 6.10123 16.5552 6.38038 16.3741 6.73927C15.7707 7.95553 15.0867 8.73314 13.739 9.11197C13.739 8.57363 13.739 7.95553 13.8798 7.19786C14.3022 5.1043 16.0322 3.94786 17.4 2.9908L17.3799 2.95093Z" fill="url(#paint4_linear_0_1260)"/>
<path fill-rule="evenodd" clip-rule="evenodd" d="M8.04626 19.819C7.12094 19.3006 6.25597 18.5031 5.79331 17.5261C4.88811 15.6319 4.40533 13.9371 4.44556 12.2623C4.82776 12.7807 5.23007 13.1795 5.83354 13.5982C5.33065 13.0399 4.78753 12.1626 4.50591 11.5046C4.50591 11.4448 4.50591 11.4049 4.52603 11.3451C4.84788 9.13193 6.43701 5.64266 6.6784 3.94788C7.76464 5.28377 9.25319 6.50002 10.6211 7.79604C10.8222 7.99542 11.0234 8.19481 11.2446 8.3942C11.1642 8.71321 11.0636 9.07211 11.0033 9.35125C10.9228 9.67027 11.1642 9.65033 11.3653 9.49082C11.5464 9.35125 11.6872 9.15186 11.7878 8.95248C12.4516 9.65033 13.0953 10.3881 13.6384 11.1657C13.4171 11.5046 13.216 11.8635 13.0148 12.2025C11.7274 14.4157 10.5808 16.8881 9.87678 19.3605L9.83655 19.4801L9.87678 19.5997C9.95724 19.8589 10.0176 20.0982 10.098 20.3574C9.33366 20.2577 8.58938 20.0982 8.02614 19.7991L8.04626 19.819Z" fill="url(#paint5_linear_0_1260)"/>
<path style="mix-blend-mode:multiply" opacity="0.5" fill-rule="evenodd" clip-rule="evenodd" d="M9.61528 15.4724C7.86522 11.6442 7.38244 8.0353 6.6784 3.94788C6.43701 5.64266 4.84788 9.13193 4.52603 11.3451C4.52603 11.4049 4.52603 11.4448 4.50591 11.5046C4.80764 12.1626 5.33065 13.0399 5.83354 13.5982C5.23007 13.1795 4.82776 12.7807 4.44556 12.2623C4.40533 13.9371 4.88811 15.6319 5.79331 17.5261C6.25597 18.5031 7.12094 19.3006 8.04626 19.819C8.60949 20.1381 9.35377 20.2776 10.1182 20.3773C10.0377 20.1181 9.95724 19.8589 9.89689 19.6197L9.85666 19.5L9.89689 19.3804C10.098 18.7025 10.3193 18.0246 10.5808 17.3466C10.2389 16.7684 9.93713 16.1703 9.61528 15.4924V15.4724Z" fill="url(#paint6_linear_0_1260)"/>
<path style="mix-blend-mode:screen" fill-rule="evenodd" clip-rule="evenodd" d="M5.89389 7.59665C6.31632 6.61965 6.83932 5.76229 7.36233 5.72242C8.08649 5.68254 9.39401 6.73929 10.3193 7.53683C9.01181 6.32058 7.66406 5.18407 6.63817 3.94788C6.39678 5.64266 4.80765 9.13193 4.4858 11.3451C4.4858 11.4049 4.4858 11.4448 4.46568 11.5046C4.50591 11.6043 4.56626 11.7239 4.62661 11.8236C4.84788 10.3681 5.31054 8.95248 5.87377 7.59665H5.89389ZM4.42545 12.2623C4.42545 12.681 4.42545 13.0798 4.4858 13.4985C4.4858 13.1396 4.52603 12.7807 4.54614 12.4218C4.50591 12.362 4.46568 12.3022 4.40533 12.2424L4.42545 12.2623Z" fill="url(#paint7_linear_0_1260)"/>
<path style="mix-blend-mode:screen" fill-rule="evenodd" clip-rule="evenodd" d="M8.62962 13.0797C9.91701 11.5046 10.6814 10.1687 11.0837 8.23465C10.9228 8.07514 10.782 7.93557 10.6211 7.796C10.3596 7.5368 10.0779 7.29753 9.81644 7.03833C10.0377 9.01226 8.93135 11.3451 8.32788 12.0429C8.42846 12.3819 8.52904 12.7208 8.64973 13.0598L8.62962 13.0797Z" fill="url(#paint8_linear_0_1260)"/>
<path style="mix-blend-mode:screen" fill-rule="evenodd" clip-rule="evenodd" d="M12.4315 9.65033C11.5464 11.3252 9.97737 12.8605 8.85089 13.658C9.23309 14.635 9.67563 15.592 10.1785 16.5292C10.6211 16.25 11.0033 15.8712 11.3653 15.4325C11.8682 14.316 12.4315 13.2393 13.0349 12.2224L13.0752 12.1427C13.216 11.704 13.3568 11.2853 13.4372 10.8865C13.1154 10.4678 12.7734 10.0491 12.4315 9.65033Z" fill="url(#paint9_linear_0_1260)"/>
<path style="mix-blend-mode:multiply" fill-rule="evenodd" clip-rule="evenodd" d="M10.3193 17.9847C8.34801 18.4632 5.93414 17.4463 4.60651 14.1764C4.80766 15.2531 5.20997 16.3497 5.77321 17.5261C6.23587 18.5031 7.10084 19.3006 8.02616 19.819C8.5894 20.138 9.33367 20.2776 10.0981 20.3773C10.0176 20.1181 9.93714 19.8589 9.8768 19.6196L9.83656 19.5L9.8768 19.3804C9.99749 18.9218 10.1584 18.4632 10.3193 17.9847ZM13.6384 11.1856C13.2361 10.6074 12.7734 10.0491 12.2907 9.51074C12.7936 10.3482 13.1154 10.9463 13.3166 11.704C13.4171 11.5245 13.5177 11.365 13.6384 11.1856Z" fill="url(#paint10_linear_0_1260)"/>
<path fill-rule="evenodd" clip-rule="evenodd" d="M6.67841 3.94786C7.16119 6.69939 7.62385 9.2316 8.42847 11.7638C9.31356 10.2285 9.73599 9.37117 9.85668 7.477C9.99749 9.35123 9.3739 10.5077 8.54916 12.1227C9.01182 13.5184 9.55494 14.9141 10.2791 16.3497C10.7015 16.1304 11.1038 15.7117 11.486 15.1933C11.3251 15.5322 11.1843 15.8512 11.0435 16.1902C10.8423 16.3896 10.6412 16.5491 10.44 16.6687C10.5205 16.8083 10.601 16.9479 10.6613 17.0874C10.601 17.227 10.5607 17.3466 10.5004 17.4862C10.3395 17.227 10.1986 16.9678 10.0578 16.7086C9.77622 16.2101 9.53483 15.7316 9.31356 15.2531C9.25321 15.1135 9.1124 15.0138 8.95148 14.9739C7.28188 14.6549 5.71286 13.8773 4.74731 12.6411C5.99448 13.7577 7.36234 14.4356 9.05205 14.6749C8.54916 13.4785 8.16697 12.3022 7.86523 11.0859C7.80489 10.8666 7.70431 10.6871 7.54338 10.5276C6.73876 9.76994 6.19564 9.19172 5.75309 8.13497C6.47726 9.17178 6.77899 9.55062 7.70431 10.3482C7.26177 8.31442 7.00026 6.20092 6.67841 3.92792V3.94786ZM13.0752 12.1426C13.1959 11.8236 13.2964 11.5245 13.3568 11.2653C13.3568 11.4249 13.3166 11.6043 13.2763 11.7837C13.216 11.9034 13.1355 12.0031 13.0752 12.1227V12.1426ZM10.2992 18.0844C8.66986 18.1641 7.02038 17.8252 5.75309 16.908C7.10084 17.6457 8.66986 17.9847 10.3797 17.865C10.3596 17.9448 10.3193 18.0245 10.2992 18.1043V18.0844Z" fill="url(#paint11_linear_0_1260)"/>
<path fill-rule="evenodd" clip-rule="evenodd" d="M14.1413 28.592C12.9545 28.6718 10.782 29.888 9.67562 29.888C6.81921 29.908 4.3651 28.0736 2.59493 25.9801C3.27886 26.2791 3.98291 26.2393 4.70707 26.1196C3.80187 25.9601 2.37366 25.362 1.6495 24.6442C0.643717 22.8297 -0.020098 20.4172 1.75741e-05 18.5031C0.0201332 16.9478 0.241405 15.3926 0.100596 13.977C0.764411 15.0337 1.44834 15.6718 2.37366 16.1304C2.91678 16.6687 3.17828 17.0874 3.66106 17.8251C3.7214 17.3067 3.66106 16.9877 3.5806 16.6288C4.58638 16.9478 5.81343 17.227 7.44279 17.6457C8.36811 17.885 9.31354 18.0644 10.2187 18.3436C10.0981 18.7024 9.99747 19.0613 9.8969 19.4003L9.85667 19.5199L9.8969 19.6396C10.6211 22.2316 11.8682 24.8436 13.2361 27.1564C13.5177 27.635 13.8194 28.1334 14.1413 28.612V28.592Z" fill="url(#paint12_linear_0_1260)"/>
<path style="mix-blend-mode:multiply" opacity="0.5" fill-rule="evenodd" clip-rule="evenodd" d="M2.61505 25.9801C4.38522 28.0736 6.83932 29.908 9.69574 29.888C10.782 29.888 12.9746 28.6718 14.1614 28.592C14.0206 28.3926 13.8999 28.1932 13.7591 27.9739C11.4659 25.8405 7.98591 25.661 4.70707 22.4908C2.23285 20.0982 0.543139 16.9279 0.100596 13.977C0.241405 15.3926 0.0201331 16.9678 1.75095e-05 18.5031C-0.0200981 20.4172 0.643717 22.8297 1.66961 24.6442C2.37366 25.362 3.82198 25.9601 4.72718 26.1196C4.00302 26.2393 3.29898 26.2791 2.61505 25.9801Z" fill="url(#paint13_linear_0_1260)"/>
<path style="mix-blend-mode:multiply" opacity="0.5" fill-rule="evenodd" clip-rule="evenodd" d="M11.2446 26.9571C8.99169 28.7316 5.51169 28.1334 3.4599 26.9172C5.1295 28.592 7.26175 29.888 9.67562 29.888C10.7619 29.888 12.9545 28.6718 14.1413 28.592C13.8194 28.1135 13.5177 27.635 13.2361 27.1365C12.9545 26.6779 12.693 26.1994 12.4315 25.7009C12.1297 26.1396 11.7475 26.5583 11.2446 26.9571ZM10.2187 18.3037C9.95724 18.2239 9.69574 18.1641 9.43424 18.0844C9.69574 18.184 9.93713 18.3236 10.1785 18.4632C10.1785 18.4034 10.2187 18.3635 10.2389 18.3037H10.2187Z" fill="url(#paint14_linear_0_1260)"/>
<path style="mix-blend-mode:screen" fill-rule="evenodd" clip-rule="evenodd" d="M9.19287 21.0552C8.99171 20.0583 8.2072 18.5828 7.18131 17.566C6.89969 17.4862 6.61807 17.4264 6.35657 17.3666C7.06061 18.1242 7.42269 18.8819 7.78478 19.9387C8.46871 21.8528 8.14686 22.9693 7.88535 24.9433C8.26755 25.1427 8.64975 25.3221 9.01183 25.5015C9.41414 23.8865 9.47449 22.3911 9.21298 21.0752L9.19287 21.0552Z" fill="url(#paint15_linear_0_1260)"/>
<path style="mix-blend-mode:screen" fill-rule="evenodd" clip-rule="evenodd" d="M2.37364 21.9923C1.68971 21.0154 0.804624 19.52 0.482775 18.3635C0.341965 17.8252 0.120694 16.5092 0.603468 16.0506C0.764393 15.9111 0.985665 15.8512 1.2874 15.931C2.11214 16.1503 2.91676 16.9877 3.50012 17.546C3.11792 16.9479 2.85642 16.569 2.37364 16.0905C1.46844 15.6319 0.764393 15.0138 0.100578 13.9371C0.241387 15.3927 0.0201156 16.9678 0 18.5031C0 18.543 0 18.5828 0 18.6227C0.382197 19.9985 1.10636 20.6963 2.37364 21.9724V21.9923Z" fill="url(#paint16_linear_0_1260)"/>
<path style="mix-blend-mode:screen" fill-rule="evenodd" clip-rule="evenodd" d="M9.4946 25.681C9.95726 25.8604 10.4199 26.0598 10.8625 26.2592C10.963 25.8205 11.2447 24.4647 11.2447 23.3282C10.963 22.6902 10.7015 22.0521 10.4602 21.4141C10.4602 21.4141 10.44 21.3942 10.4199 21.3742C10.1182 20.9754 9.97738 20.5368 9.6153 20.158C10.1383 21.9923 10.0176 23.5874 9.47449 25.681H9.4946Z" fill="url(#paint17_linear_0_1260)"/>
<path fill-rule="evenodd" clip-rule="evenodd" d="M0.100586 13.977C0.58336 16.6886 1.95122 19.5199 4.34498 21.9525C4.68694 19.8589 3.94267 18.0245 2.6955 16.4294C4.12371 18.0844 4.96856 19.9785 4.58637 22.1917C5.23007 22.8298 5.93411 23.4478 6.73874 24.0061C7.0807 24.2653 7.4629 24.4847 7.82498 24.704C8.28764 21.454 7.86521 19.6595 6.53758 17.4663C7.54336 18.6426 8.06637 19.9785 8.30775 21.2147C8.46868 22.0521 8.16694 23.388 8.08648 24.8436C9.0118 25.342 10.0578 25.7807 11.1843 26.2393C11.2446 26.2592 11.3251 26.2991 11.3854 26.319C11.5262 25.6012 11.6469 24.9233 11.7274 24.2853C11.7676 24.385 11.828 24.4847 11.8682 24.5844C11.7878 25.2024 11.6872 25.8405 11.6469 26.4386C12.4315 26.8175 13.1757 27.3558 13.6987 27.8344C13.7591 27.934 13.8194 28.0337 13.8999 28.1534C13.3367 27.6748 12.8338 27.3558 12.2906 27.0767C10.8826 27.3359 9.83654 28.0138 8.66983 28.2132C7.32209 28.4325 5.89388 28.2132 4.28463 27.3159C7.68417 28.6518 8.91122 27.7945 12.0291 26.9571C11.7274 26.7975 11.4056 26.658 11.0435 26.4985C10.5205 26.2592 9.97735 26.0399 9.45434 25.8205C8.64972 25.4816 8.52903 25.5015 8.14683 25.5015C6.87955 25.5015 5.73296 25.5015 4.68694 25.2623C4.00301 25.1227 2.57481 24.2255 1.30752 23.2684C3.82197 24.9034 5.18983 25.2623 8.1066 25.2224C7.58359 24.9831 7.06059 24.704 6.5577 24.365C3.48001 22.3512 0.442551 17.8251 0.100586 13.977ZM10.1182 18.6028C10.1182 18.6028 10.0779 18.5629 10.0578 18.5429L10.1182 18.6028Z" fill="url(#paint18_linear_0_1260)"/>
<path fill-rule="evenodd" clip-rule="evenodd" d="M13.8195 28.0736C13.3367 28.2531 12.8338 28.4524 12.3108 28.6917C10.44 29.5491 7.5635 31.8021 5.41113 31.0245C6.87957 32.2408 7.26177 33.2975 8.46871 34.2546C9.01183 34.6733 9.71587 35.1518 10.5004 35.5905C11.1038 35.9294 11.7274 36.0491 12.4315 35.9494C12.7131 35.9095 12.9947 35.8497 13.3367 35.7699C13.1959 35.8696 12.7533 36.0491 12.6326 36.1288C12.5522 36.1687 12.5321 36.3083 12.4516 36.3681C12.3912 36.408 12.3108 36.4478 12.2303 36.4678C13.8798 37.2055 15.6299 37.704 16.9575 37.4647C18.5466 37.1656 19.6731 36.4478 20.5783 35.411C20.518 35.3712 20.4576 35.3313 20.3973 35.2914C17.7621 33.3773 15.5896 30.8052 13.8396 28.0736H13.8195Z" fill="url(#paint19_linear_0_1260)"/>
<path style="mix-blend-mode:screen" fill-rule="evenodd" clip-rule="evenodd" d="M8.04625 33.9157C9.09226 34.0752 10.0176 34.0552 11.4659 33.9157C9.87677 33.7362 8.44856 33.3973 7.16116 32.9387C6.69851 32.3604 6.21573 31.7224 5.39099 31.0445C8.48879 32.3804 11.4659 33.2178 14.8051 33.6764C13.0148 35.112 12.0291 35.431 9.95723 35.2914C9.63538 35.092 9.35377 34.9126 9.07215 34.7132C9.37388 34.6933 9.6555 34.6135 9.93712 34.5338C9.394 34.4939 9.0118 34.4341 8.54914 34.3344C8.50891 34.3144 8.48879 34.2746 8.44856 34.2546C8.30775 34.135 8.16694 34.0353 8.04625 33.9157Z" fill="url(#paint20_linear_0_1260)"/>
<path style="mix-blend-mode:screen" opacity="0.85" fill-rule="evenodd" clip-rule="evenodd" d="M15.5896 33.6764C12.532 33.6764 6.63816 31.6426 5.39099 31.0245C7.54336 31.8021 10.4199 29.5291 12.2906 28.6917C12.8137 28.4524 13.3165 28.2531 13.7993 28.0736C15.0264 29.9877 16.4546 31.842 18.1242 33.4172C17.2793 33.5767 16.4345 33.6764 15.5896 33.6764Z" fill="url(#paint21_linear_0_1260)"/>
<path style="mix-blend-mode:multiply" fill-rule="evenodd" clip-rule="evenodd" d="M13.8999 28.2132C13.7189 28.2132 13.5378 28.2132 13.3769 28.2531C13.5177 28.1933 13.6786 28.1334 13.8194 28.0936L13.8999 28.2132ZM20.5582 35.431C19.6328 36.4479 18.5064 37.1856 16.9374 37.4847C16.0724 37.6442 14.9861 37.4847 13.8798 37.1258C15.0264 37.2454 15.8913 37.2055 17.0379 36.7868C18.2046 36.3482 19.0696 35.5706 19.5122 34.6334C19.7938 34.8727 20.0955 35.092 20.3972 35.3114C20.4576 35.3512 20.5179 35.3911 20.5783 35.431H20.5582Z" fill="url(#paint22_linear_0_1260)"/>
<path fill-rule="evenodd" clip-rule="evenodd" d="M5.39103 31.0246C7.08074 32.0614 12.0091 33.497 14.4833 33.796C12.8338 35.0322 12.4114 35.1917 10.2188 35.3114C12.2102 35.451 13.035 35.1319 14.4632 34.1549C15.127 33.6964 14.7448 33.8559 15.5695 33.8559C16.3138 33.8559 17.1587 33.7562 17.9834 33.5967C16.4948 35.4908 15.1471 36.1887 13.0148 36.6672C15.0867 36.4678 16.4747 35.4709 17.9432 34.0552C18.1242 33.8758 18.2248 33.7362 18.3455 33.6365C18.2248 33.5169 18.1041 33.3973 17.9834 33.2976C17.7822 33.3175 17.6615 33.2976 17.4805 33.0783C16.4546 31.7424 15.3281 30.885 13.6585 30.3865C15.5695 31.1043 16.3138 31.8819 17.3397 33.3973C16.173 33.5568 14.9661 33.497 13.7994 33.3574C12.3309 31.862 11.4257 30.7853 9.21299 30.5062C11.5263 31.1641 11.9085 31.6825 13.4373 33.2976C10.5004 32.8789 7.44282 31.8221 5.37091 31.0246H5.39103ZM19.0294 34.2546C18.3254 35.0123 17.3397 35.9295 16.3138 36.4678C17.5006 35.9095 18.3656 35.2316 19.1903 34.3942C19.13 34.3543 19.0898 34.2945 19.0294 34.2546Z" fill="url(#paint23_linear_0_1260)"/>
<path fill-rule="evenodd" clip-rule="evenodd" d="M162.273 13.1197C162.051 12.9402 161.79 12.8206 161.488 12.7408C161.408 12.7209 161.307 12.681 161.207 12.6611C161.126 12.5215 161.046 12.362 160.965 12.2224C159.879 10.3282 158.591 8.49389 157.103 6.85892C157.103 6.71935 157.103 6.57978 157.103 6.44021C157.143 5.42334 157.063 3.88806 156.6 2.97089C157.405 3.36966 158.632 3.25003 159.658 3.82825C160.784 4.46628 162.856 6.2807 163.198 7.5169C163.64 9.13193 162.454 10.9264 162.212 11.704C162.172 11.8436 162.172 12.7807 162.273 13.1197Z" fill="url(#paint24_linear_0_1260)"/>
<path style="mix-blend-mode:screen" fill-rule="evenodd" clip-rule="evenodd" d="M162.293 6.02148C162.253 6.73928 161.971 7.59664 161.327 8.39418C161.589 7.75615 161.77 7.01842 161.388 6.3405C161.327 7.11811 160.925 7.67639 160.362 8.41412C160.362 9.09204 160.321 9.63038 160.502 10.2884C161.75 9.23161 162.574 8.65339 163.017 7.03836C162.836 6.71934 162.594 6.38038 162.293 6.02148Z" fill="url(#paint25_linear_0_1260)"/>
<path style="mix-blend-mode:multiply" opacity="0.5" fill-rule="evenodd" clip-rule="evenodd" d="M160.382 10.2086C160.241 9.35123 160.342 8.454 160.241 7.57669C159.979 5.18406 157.948 3.82823 156.6 2.95093C157.063 3.86811 157.143 5.40338 157.103 6.42025C157.103 6.55982 157.103 6.69939 157.103 6.83896C158.591 8.47393 159.879 10.3282 160.965 12.2025C161.046 12.342 161.126 12.5015 161.207 12.6411C161.307 12.6611 161.388 12.7009 161.488 12.7209C161.77 12.8206 162.051 12.9402 162.273 13.0997C161.347 12.2224 160.603 11.4847 160.382 10.1887V10.2086Z" fill="url(#paint26_linear_0_1260)"/>
<path fill-rule="evenodd" clip-rule="evenodd" d="M162.232 10.388C161.689 10.9064 160.965 11.0859 160.281 11.0659C160.523 11.4448 160.744 11.8236 160.985 12.2224C161.066 12.362 161.146 12.5215 161.227 12.661C161.327 12.681 161.408 12.7209 161.508 12.7408C161.79 12.8405 162.071 12.9601 162.293 13.1196C162.192 12.7807 162.192 11.8436 162.232 11.704C162.434 11.046 163.299 9.6503 163.319 8.27454C163.218 9.07208 162.977 9.71012 162.253 10.388H162.232Z" fill="#6F963F"/>
<path style="mix-blend-mode:screen" fill-rule="evenodd" clip-rule="evenodd" d="M157.123 5.78224C157.183 5.24389 157.224 4.54604 157.485 4.10739C157.908 3.42948 159.054 3.74849 159.617 4.0077C160.261 4.28684 160.824 4.70555 161.367 5.12426C160.764 4.56598 160.12 4.10739 159.658 3.82825C158.612 3.25003 157.405 3.36966 156.6 2.97089C156.982 3.70862 157.103 4.84512 157.103 5.78224H157.123Z" fill="url(#paint27_linear_0_1260)"/>
<path fill-rule="evenodd" clip-rule="evenodd" d="M156.62 2.95093C158.813 4.28682 160.06 5.64265 160.402 7.55676C160.905 6.38038 160.965 5.82209 160.543 4.50614L160.764 4.98467C161.126 5.9816 160.885 6.79909 160.523 7.71627C160.482 7.81596 160.482 7.97547 160.502 8.29449C160.543 9.15185 160.543 9.71013 160.563 10.1288C161.73 9.31136 162.373 8.69326 162.977 7.33743C162.554 8.65338 161.83 9.39111 160.784 10.1687C160.643 10.2684 160.563 10.4479 160.603 10.6074C160.603 10.6273 160.603 10.6672 160.603 10.6871C160.724 11.3451 161.106 11.9233 162.293 13.1396C161.347 12.4218 160.764 11.7638 160.482 11.1657C160.422 11.046 160.321 10.9663 160.201 10.9463C160.161 10.8865 160.12 10.8267 160.1 10.7868C160.181 10.7868 160.261 10.8068 160.342 10.8068C160.221 10.3482 160.241 9.8497 160.261 9.25154C158.873 8.85277 158.169 8.05522 157.566 6.75921C157.385 6.3405 157.324 6.16105 157.224 5.7224C157.344 6.10123 157.445 6.38038 157.626 6.73927C158.25 7.95553 158.913 8.73314 160.261 9.11197C160.261 8.57363 160.261 7.95553 160.12 7.19786C159.698 5.1043 157.968 3.94786 156.6 2.9908L156.62 2.95093Z" fill="url(#paint28_linear_0_1260)"/>
<path fill-rule="evenodd" clip-rule="evenodd" d="M165.954 19.819C166.879 19.3006 167.744 18.5031 168.207 17.5261C169.112 15.6319 169.595 13.9371 169.554 12.2623C169.172 12.7807 168.77 13.1795 168.166 13.5982C168.669 13.0399 169.213 12.1626 169.494 11.5046C169.494 11.4448 169.494 11.4049 169.474 11.3451C169.152 9.13193 167.563 5.64266 167.322 3.94788C166.235 5.28377 164.747 6.50002 163.379 7.79604C163.178 7.99542 162.977 8.19481 162.755 8.3942C162.836 8.71321 162.936 9.07211 162.997 9.35125C163.077 9.67027 162.836 9.65033 162.635 9.49082C162.454 9.35125 162.313 9.15186 162.212 8.95248C161.548 9.65033 160.905 10.3881 160.362 11.1657C160.583 11.5046 160.784 11.8635 160.985 12.2025C162.273 14.4157 163.439 16.8881 164.123 19.3605L164.163 19.4801L164.123 19.5997C164.043 19.8589 163.982 20.0982 163.902 20.3574C164.666 20.2577 165.411 20.0982 165.974 19.7991L165.954 19.819Z" fill="url(#paint29_linear_0_1260)"/>
<path style="mix-blend-mode:multiply" opacity="0.5" fill-rule="evenodd" clip-rule="evenodd" d="M164.385 15.4724C166.135 11.6442 166.618 8.0353 167.322 3.94788C167.563 5.64266 169.152 9.13193 169.474 11.3451C169.474 11.4049 169.474 11.4448 169.494 11.5046C169.192 12.1626 168.669 13.0399 168.166 13.5982C168.77 13.1795 169.172 12.7807 169.554 12.2623C169.595 13.9371 169.112 15.6319 168.207 17.5261C167.744 18.5031 166.879 19.3006 165.954 19.819C165.391 20.1381 164.646 20.2776 163.882 20.3773C163.962 20.1181 164.043 19.8589 164.103 19.6197L164.143 19.5L164.103 19.3804C163.902 18.7025 163.681 18.0246 163.419 17.3466C163.761 16.7684 164.063 16.1703 164.385 15.4924V15.4724Z" fill="url(#paint30_linear_0_1260)"/>
<path style="mix-blend-mode:screen" fill-rule="evenodd" clip-rule="evenodd" d="M168.106 7.59665C167.684 6.61965 167.161 5.76229 166.638 5.72242C165.914 5.68254 164.606 6.73929 163.681 7.53683C164.988 6.32058 166.336 5.18407 167.362 3.94788C167.603 5.64266 169.192 9.13193 169.514 11.3451C169.514 11.4049 169.514 11.4448 169.534 11.5046C169.494 11.6043 169.434 11.7239 169.373 11.8236C169.152 10.3681 168.69 8.95248 168.126 7.59665H168.106ZM169.575 12.2623C169.575 12.681 169.575 13.0798 169.514 13.4985C169.514 13.1396 169.474 12.7807 169.454 12.4218C169.494 12.362 169.534 12.3022 169.595 12.2424L169.575 12.2623Z" fill="url(#paint31_linear_0_1260)"/>
<path style="mix-blend-mode:screen" fill-rule="evenodd" clip-rule="evenodd" d="M165.37 13.0797C164.083 11.5046 163.319 10.1687 162.916 8.23465C163.077 8.07514 163.218 7.93557 163.379 7.796C163.64 7.5368 163.922 7.29753 164.184 7.03833C163.962 9.01226 165.069 11.3451 165.672 12.0429C165.572 12.3819 165.471 12.7208 165.35 13.0598L165.37 13.0797Z" fill="url(#paint32_linear_0_1260)"/>
<path style="mix-blend-mode:screen" fill-rule="evenodd" clip-rule="evenodd" d="M161.569 9.65033C162.454 11.3252 164.023 12.8605 165.149 13.658C164.767 14.635 164.324 15.592 163.822 16.5292C163.379 16.25 162.997 15.8712 162.635 15.4325C162.132 14.316 161.569 13.2393 160.965 12.2224L160.925 12.1427C160.784 11.704 160.643 11.2853 160.563 10.8865C160.885 10.4678 161.227 10.0491 161.569 9.65033Z" fill="url(#paint33_linear_0_1260)"/>
<path style="mix-blend-mode:multiply" fill-rule="evenodd" clip-rule="evenodd" d="M163.661 17.9847C165.632 18.4632 168.046 17.4463 169.373 14.1764C169.172 15.2531 168.77 16.3497 168.207 17.5261C167.744 18.5031 166.879 19.3006 165.954 19.819C165.391 20.138 164.646 20.2776 163.882 20.3773C163.962 20.1181 164.043 19.8589 164.103 19.6196L164.143 19.5L164.103 19.3804C163.982 18.9218 163.822 18.4632 163.661 17.9847ZM160.342 11.1856C160.744 10.6074 161.207 10.0491 161.689 9.51074C161.186 10.3482 160.865 10.9463 160.663 11.704C160.563 11.5245 160.462 11.365 160.342 11.1856Z" fill="url(#paint34_linear_0_1260)"/>
<path fill-rule="evenodd" clip-rule="evenodd" d="M167.322 3.94786C166.839 6.69939 166.376 9.2316 165.572 11.7638C164.686 10.2285 164.264 9.37117 164.143 7.477C164.003 9.35123 164.626 10.5077 165.451 12.1227C164.988 13.5184 164.445 14.9141 163.721 16.3497C163.299 16.1304 162.896 15.7117 162.514 15.1933C162.675 15.5322 162.816 15.8512 162.957 16.1902C163.158 16.3896 163.359 16.5491 163.56 16.6687C163.48 16.8083 163.399 16.9479 163.319 17.0874C163.379 17.227 163.419 17.3466 163.48 17.4862C163.64 17.227 163.781 16.9678 163.922 16.7086C164.204 16.2101 164.445 15.7316 164.666 15.2531C164.727 15.1135 164.868 15.0138 165.028 14.9739C166.698 14.6549 168.267 13.8773 169.233 12.6411C167.985 13.7577 166.618 14.4356 164.928 14.6749C165.431 13.4785 165.813 12.3022 166.115 11.0859C166.175 10.8666 166.276 10.6871 166.437 10.5276C167.241 9.76994 167.784 9.19172 168.227 8.13497C167.503 9.17178 167.201 9.55062 166.276 10.3482C166.718 8.31442 166.98 6.20092 167.302 3.92792L167.322 3.94786ZM160.925 12.1426C160.804 11.8236 160.704 11.5245 160.643 11.2653C160.643 11.4249 160.683 11.6043 160.724 11.7837C160.784 11.9034 160.865 12.0031 160.925 12.1227V12.1426ZM163.701 18.0844C165.33 18.1641 166.98 17.8252 168.247 16.908C166.899 17.6457 165.33 17.9847 163.62 17.865C163.64 17.9448 163.681 18.0245 163.701 18.1043V18.0844Z" fill="url(#paint35_linear_0_1260)"/>
<path fill-rule="evenodd" clip-rule="evenodd" d="M159.859 28.592C161.046 28.6718 163.218 29.888 164.324 29.888C167.181 29.908 169.635 28.0736 171.405 25.9801C170.721 26.2791 170.017 26.2393 169.293 26.1196C170.198 25.9601 171.626 25.362 172.351 24.6442C173.397 22.8297 174.04 20.4172 174.02 18.5031C174 16.9478 173.779 15.3926 173.92 13.977C173.256 15.0337 172.572 15.6718 171.647 16.1304C171.103 16.6687 170.842 17.0874 170.359 17.8251C170.299 17.3067 170.359 16.9877 170.44 16.6288C169.434 16.9478 168.207 17.227 166.577 17.6457C165.652 17.885 164.707 18.0644 163.801 18.3436C163.922 18.7024 164.023 19.0613 164.123 19.4003L164.164 19.5199L164.123 19.6396C163.399 22.2316 162.152 24.8436 160.784 27.1564C160.502 27.635 160.201 28.1334 159.879 28.612L159.859 28.592Z" fill="url(#paint36_linear_0_1260)"/>
<path style="mix-blend-mode:multiply" opacity="0.5" fill-rule="evenodd" clip-rule="evenodd" d="M171.385 25.9801C169.615 28.0736 167.161 29.908 164.304 29.888C163.218 29.888 161.025 28.6718 159.839 28.592C159.979 28.3926 160.1 28.1932 160.241 27.9739C162.534 25.8405 166.014 25.661 169.293 22.4908C171.767 20.0982 173.437 16.9279 173.879 13.977C173.739 15.3926 173.96 16.9678 173.98 18.5031C174 20.4172 173.336 22.8297 172.31 24.6442C171.606 25.362 170.158 25.9601 169.253 26.1196C169.977 26.2393 170.681 26.2791 171.365 25.9801H171.385Z" fill="url(#paint37_linear_0_1260)"/>
<path style="mix-blend-mode:multiply" opacity="0.5" fill-rule="evenodd" clip-rule="evenodd" d="M162.755 26.9571C165.008 28.7316 168.488 28.1334 170.54 26.9172C168.871 28.592 166.738 29.888 164.324 29.888C163.238 29.888 161.046 28.6718 159.859 28.592C160.181 28.1135 160.482 27.635 160.764 27.1365C161.046 26.6779 161.307 26.1994 161.569 25.7009C161.87 26.1396 162.253 26.5583 162.755 26.9571ZM163.781 18.3037C164.043 18.2239 164.304 18.1641 164.566 18.0844C164.304 18.184 164.063 18.3236 163.822 18.4632C163.822 18.4034 163.781 18.3635 163.761 18.3037H163.781Z" fill="url(#paint38_linear_0_1260)"/>
<path style="mix-blend-mode:screen" fill-rule="evenodd" clip-rule="evenodd" d="M164.807 21.0552C165.008 20.0583 165.793 18.5828 166.819 17.566C167.1 17.4862 167.382 17.4264 167.643 17.3666C166.939 18.1242 166.577 18.8819 166.215 19.9387C165.531 21.8528 165.853 22.9693 166.115 24.9433C165.732 25.1427 165.35 25.3221 164.988 25.5015C164.586 23.8865 164.526 22.3911 164.787 21.0752L164.807 21.0552Z" fill="url(#paint39_linear_0_1260)"/>
<path style="mix-blend-mode:screen" fill-rule="evenodd" clip-rule="evenodd" d="M171.606 21.9923C172.29 21.0154 173.175 19.52 173.497 18.3635C173.638 17.8252 173.859 16.5092 173.376 16.0506C173.216 15.9111 173.014 15.8512 172.693 15.931C171.868 16.1503 171.063 16.9877 170.48 17.546C170.862 16.9479 171.123 16.569 171.606 16.0905C172.511 15.6319 173.216 15.0138 173.879 13.9371C173.739 15.3528 173.96 16.9279 173.98 18.4632C173.98 18.5031 173.98 18.543 173.98 18.5828C173.598 19.9586 172.874 20.6565 171.606 21.9325V21.9923Z" fill="url(#paint40_linear_0_1260)"/>
<path style="mix-blend-mode:screen" fill-rule="evenodd" clip-rule="evenodd" d="M164.505 25.681C164.043 25.8604 163.58 26.0598 163.138 26.2592C163.037 25.8205 162.755 24.4647 162.755 23.3282C163.037 22.6902 163.299 22.0521 163.54 21.4141C163.54 21.4141 163.56 21.3942 163.58 21.3742C163.882 20.9754 164.023 20.5368 164.385 20.158C163.862 21.9923 163.982 23.5874 164.526 25.681H164.505Z" fill="url(#paint41_linear_0_1260)"/>
<path fill-rule="evenodd" clip-rule="evenodd" d="M173.899 13.977C173.417 16.6887 172.049 19.52 169.655 21.9525C169.313 19.8589 170.057 18.0246 171.305 16.4295C169.876 18.0844 169.031 19.9786 169.414 22.1918C168.77 22.8298 168.066 23.4479 167.261 24.0062C166.919 24.2654 166.537 24.4847 166.175 24.704C165.712 21.454 166.135 19.6595 167.462 17.4663C166.457 18.6427 165.934 19.9786 165.692 21.2148C165.531 22.0522 165.833 23.3881 165.914 24.8436C164.988 25.3421 163.942 25.7807 162.816 26.2393C162.755 26.2592 162.675 26.2991 162.615 26.3191C162.474 25.6013 162.353 24.9234 162.273 24.2853C162.232 24.385 162.172 24.4847 162.132 24.5844C162.212 25.2025 162.313 25.8405 162.353 26.4387C161.569 26.8175 160.824 27.3559 160.301 27.8344C160.241 27.9341 160.181 28.0338 160.1 28.1534C160.663 27.6749 161.166 27.3559 161.709 27.0767C163.118 27.3359 164.164 28.0138 165.33 28.2132C166.678 28.4326 168.106 28.2132 169.715 27.316C166.316 28.6519 165.089 27.7945 161.971 26.9571C162.273 26.7976 162.595 26.658 162.957 26.4985C163.48 26.2592 164.023 26.0399 164.546 25.8206C165.35 25.4816 165.471 25.5016 165.853 25.5016C167.121 25.5016 168.267 25.5016 169.313 25.2623C169.997 25.1227 171.425 24.2255 172.693 23.2684C170.178 24.9034 168.81 25.2623 165.893 25.2224C166.416 24.9832 166.939 24.704 167.442 24.3651C170.5 22.3313 173.537 17.8053 173.879 13.9571L173.899 13.977ZM163.882 18.6028C163.882 18.6028 163.922 18.5629 163.942 18.543L163.882 18.6028Z" fill="url(#paint42_linear_0_1260)"/>
<path fill-rule="evenodd" clip-rule="evenodd" d="M160.181 28.0736C160.663 28.2531 161.166 28.4524 161.689 28.6917C163.56 29.5491 166.437 31.8021 168.589 31.0245C167.12 32.2408 166.738 33.2975 165.531 34.2546C164.988 34.6733 164.284 35.1518 163.5 35.5905C162.896 35.9294 162.273 36.0491 161.569 35.9494C161.287 35.9095 161.005 35.8497 160.663 35.7699C160.804 35.8696 161.247 36.0491 161.367 36.1288C161.468 36.1687 161.468 36.3083 161.548 36.3681C161.609 36.408 161.689 36.4478 161.77 36.4678C160.12 37.2055 158.37 37.704 157.043 37.4647C155.453 37.1656 154.327 36.4478 153.422 35.411C153.482 35.3712 153.542 35.3313 153.603 35.2914C156.238 33.3773 158.41 30.8052 160.16 28.0736H160.181Z" fill="url(#paint43_linear_0_1260)"/>
<path style="mix-blend-mode:screen" fill-rule="evenodd" clip-rule="evenodd" d="M165.954 33.9157C164.908 34.0752 163.982 34.0552 162.534 33.9157C164.123 33.7362 165.551 33.3973 166.839 32.9387C167.302 32.3604 167.784 31.7224 168.609 31.0445C165.511 32.3804 162.534 33.2178 159.195 33.6764C160.985 35.112 161.971 35.431 164.043 35.2914C164.365 35.092 164.646 34.9126 164.928 34.7132C164.626 34.6933 164.345 34.6135 164.063 34.5338C164.606 34.4939 164.988 34.4341 165.451 34.3344C165.491 34.3144 165.511 34.2746 165.551 34.2546C165.692 34.135 165.833 34.0353 165.954 33.9157Z" fill="url(#paint44_linear_0_1260)"/>
<path style="mix-blend-mode:screen" opacity="0.85" fill-rule="evenodd" clip-rule="evenodd" d="M158.41 33.6764C161.468 33.6764 167.362 31.6426 168.609 31.0245C166.457 31.8021 163.58 29.5291 161.709 28.6917C161.186 28.4524 160.683 28.2531 160.201 28.0736C158.974 29.9877 157.545 31.842 155.876 33.4172C156.721 33.5767 157.566 33.6764 158.41 33.6764Z" fill="url(#paint45_linear_0_1260)"/>
<path style="mix-blend-mode:multiply" fill-rule="evenodd" clip-rule="evenodd" d="M160.1 28.2132C160.281 28.2132 160.462 28.2132 160.623 28.2531C160.482 28.1933 160.321 28.1334 160.181 28.0936L160.1 28.2132ZM153.442 35.431C154.347 36.4479 155.494 37.1856 157.063 37.4847C157.928 37.6442 159.014 37.4847 160.12 37.1258C158.974 37.2454 158.109 37.2055 156.962 36.7868C155.795 36.3482 154.93 35.5706 154.488 34.6334C154.206 34.8727 153.905 35.092 153.603 35.3114C153.542 35.3512 153.482 35.3911 153.422 35.431H153.442Z" fill="url(#paint46_linear_0_1260)"/>
<path fill-rule="evenodd" clip-rule="evenodd" d="M168.609 31.0246C166.919 32.0614 161.991 33.497 159.517 33.796C161.166 35.0322 161.589 35.1917 163.781 35.3114C161.79 35.451 160.965 35.1319 159.537 34.1549C158.873 33.6964 159.255 33.8559 158.431 33.8559C157.686 33.8559 156.862 33.7562 156.017 33.5967C157.505 35.4908 158.853 36.1887 160.985 36.6672C158.913 36.4678 157.525 35.4709 156.057 34.0552C155.876 33.8758 155.775 33.7362 155.655 33.6365C155.775 33.5169 155.896 33.3973 156.017 33.2976C156.218 33.3175 156.339 33.2976 156.52 33.0783C157.545 31.7424 158.672 30.885 160.342 30.3865C158.431 31.1043 157.686 31.8819 156.66 33.3973C157.827 33.5568 159.034 33.497 160.201 33.3574C161.669 31.862 162.574 30.7853 164.787 30.5062C162.474 31.1641 162.092 31.6825 160.563 33.2976C163.5 32.8789 166.557 31.8221 168.629 31.0246H168.609ZM154.971 34.2546C155.675 35.0123 156.66 35.9295 157.686 36.4678C156.499 35.9095 155.634 35.2316 154.81 34.3942C154.87 34.3543 154.91 34.2945 154.971 34.2546Z" fill="url(#paint47_linear_0_1260)"/>
<path fill-rule="evenodd" clip-rule="evenodd" d="M144.41 39H29.5901C19.2909 39 11.7475 28.3926 9.25317 19.5C11.7475 10.6074 19.2909 0 29.5901 0H144.41C154.709 0 162.252 10.6074 164.747 19.5C162.252 28.3727 154.709 39 144.41 39ZM146.904 29.7086C150.022 29.4494 152.517 27.6549 154.387 25.2822C155.212 24.2454 155.916 23.089 156.479 21.8926C156.841 21.1549 157.183 20.3175 157.405 19.5C157.183 18.7025 156.841 17.865 156.479 17.1074C155.916 15.911 155.212 14.7546 154.387 13.7178C152.517 11.3252 150.022 9.53068 146.904 9.29141L146.1 9.2316V8.43405C146.1 5.20399 143.465 2.57209 140.186 2.57209H33.7942C30.5355 2.57209 27.8802 5.18405 27.8802 8.43405V9.2316L27.0756 9.29141C23.9577 9.55061 21.4633 11.3451 19.5926 13.7178C18.7679 14.7546 18.0638 15.911 17.5006 17.1074C17.1385 17.8451 16.7965 18.6825 16.5753 19.5C16.7965 20.2975 17.1385 21.135 17.5006 21.8926C18.0638 23.089 18.7679 24.2454 19.5926 25.2822C21.4633 27.6748 23.9577 29.4693 27.0756 29.7086L27.8802 29.7684V30.566C27.8802 33.796 30.5154 36.4279 33.7942 36.4279H140.186C143.444 36.4279 146.1 33.816 146.1 30.566V29.7684L146.904 29.7086Z" fill="url(#paint48_linear_0_1260)"/>
<path fill-rule="evenodd" clip-rule="evenodd" d="M11.0636 19.5C13.4573 11.4847 20.3369 1.71472 29.5901 1.71472H144.41C153.683 1.71472 160.543 11.4847 162.936 19.5H164.747C162.252 10.6273 154.709 0 144.41 0H29.5901C19.2909 0 11.7475 10.6074 9.25317 19.5H11.0636Z" fill="url(#paint49_linear_0_1260)"/>
<path fill-rule="evenodd" clip-rule="evenodd" d="M11.0636 19.5C13.4775 27.5153 20.3369 37.2853 29.5901 37.2853H144.41C153.683 37.2853 160.543 27.5153 162.936 19.5H164.747C162.252 28.3727 154.709 39 144.41 39H29.5901C19.2909 39 11.7475 28.3926 9.25317 19.5H11.0636Z" fill="url(#paint50_linear_0_1260)"/>
<path fill-rule="evenodd" clip-rule="evenodd" d="M15.6902 19.5C16.3339 16.8681 19.8742 9.01227 27.0153 8.43405C27.0153 4.72546 30.0527 1.71472 33.7942 1.71472H29.5901C20.3369 1.71472 13.4574 11.4847 11.0636 19.5H15.6902Z" fill="url(#paint51_linear_0_1260)"/>
<path fill-rule="evenodd" clip-rule="evenodd" d="M15.6902 19.5C16.3339 22.1319 19.8742 29.9877 27.0153 30.566C27.0153 34.2745 30.0527 37.2853 33.7942 37.2853H29.5901C20.3168 37.2853 13.4574 27.5153 11.0636 19.5H15.6902Z" fill="url(#paint52_linear_0_1260)"/>
<path fill-rule="evenodd" clip-rule="evenodd" d="M11.486 19.5C13.8798 11.4847 20.7593 1.71472 30.0125 1.71472H29.5901C20.3369 1.71472 13.4574 11.4847 11.0636 19.5H11.486Z" fill="url(#paint53_linear_0_1260)"/>
<path fill-rule="evenodd" clip-rule="evenodd" d="M11.486 19.5C13.8798 27.5153 20.7593 37.2853 30.0125 37.2853H29.5901C20.3168 37.2853 13.4574 27.5153 11.0636 19.5H11.486Z" fill="url(#paint54_linear_0_1260)"/>
<path fill-rule="evenodd" clip-rule="evenodd" d="M158.31 19.5C157.666 16.8681 154.126 9.01227 146.985 8.43405C146.985 4.72546 143.947 1.71472 140.206 1.71472H144.41C153.683 1.71472 160.543 11.4847 162.936 19.5H158.31Z" fill="url(#paint55_linear_0_1260)"/>
<path fill-rule="evenodd" clip-rule="evenodd" d="M158.31 19.5C157.666 22.1319 154.126 29.9877 146.985 30.566C146.985 34.2745 143.947 37.2853 140.206 37.2853H144.41C153.683 37.2853 160.543 27.5153 162.936 19.5H158.31Z" fill="url(#paint56_linear_0_1260)"/>
<path fill-rule="evenodd" clip-rule="evenodd" d="M162.514 19.5C160.1 11.4847 153.241 1.71472 143.988 1.71472H144.41C153.683 1.71472 160.543 11.4847 162.936 19.5H162.514Z" fill="url(#paint57_linear_0_1260)"/>
<path fill-rule="evenodd" clip-rule="evenodd" d="M162.514 19.5C160.1 27.5153 153.241 37.2853 143.988 37.2853H144.41C153.683 37.2853 160.543 27.5153 162.936 19.5H162.514Z" fill="url(#paint58_linear_0_1260)"/>
<path fill-rule="evenodd" clip-rule="evenodd" d="M146.965 30.546C154.106 29.9678 157.646 22.1119 158.29 19.48C157.646 16.8481 154.106 8.99231 146.965 8.41409C146.965 4.7055 143.927 1.69476 140.186 1.69476H33.7942C30.0527 1.69476 27.0153 4.7055 27.0153 8.41409C19.8742 8.99231 16.3339 16.8481 15.6902 19.48C16.3339 22.1119 19.8742 29.9678 27.0153 30.546C27.0153 34.2546 30.0527 37.2653 33.7942 37.2653H140.186C143.927 37.2653 146.965 34.2546 146.965 30.546ZM157.405 19.48C157.183 18.6825 156.841 17.8451 156.479 17.0874C155.916 15.8911 155.212 14.7346 154.387 13.6978C152.517 11.3052 150.022 9.51071 146.904 9.27145L146.1 9.21163V8.41409C146.1 5.18403 143.465 2.55213 140.186 2.55213H33.7942C30.5355 2.55213 27.8802 5.16409 27.8802 8.41409V9.21163L27.0756 9.27145C23.9577 9.53065 21.4634 11.3251 19.5926 13.6978C18.7679 14.7346 18.0638 15.8911 17.5006 17.0874C17.1385 17.8251 16.7965 18.6626 16.5753 19.48C16.7965 20.2776 17.1385 21.115 17.5006 21.8727C18.0638 23.069 18.7679 24.2254 19.5926 25.2622C21.4634 27.6549 23.9577 29.4494 27.0756 29.6886L27.8802 29.7484V30.546C27.8802 33.776 30.5154 36.408 33.7942 36.408H140.186C143.444 36.408 146.1 33.796 146.1 30.546V29.7484L146.904 29.6886C150.022 29.4294 152.517 27.6349 154.387 25.2622C155.212 24.2254 155.916 23.069 156.479 21.8727C156.841 21.1349 157.183 20.2975 157.405 19.48Z" fill="#CCCCCC"/>
<path fill-rule="evenodd" clip-rule="evenodd" d="M16.5954 19.5C16.8167 18.7024 17.1587 17.865 17.5207 17.1073C18.084 15.911 18.788 14.7546 19.6128 13.7178C21.4835 11.3251 23.9778 9.53065 27.0958 9.29138L27.9004 9.23157L27.0354 8.43402C19.8944 9.01224 16.354 16.8681 15.7103 19.5H16.6155H16.5954Z" fill="url(#paint59_linear_0_1260)"/>
<path fill-rule="evenodd" clip-rule="evenodd" d="M17.5207 21.8727C17.1586 21.1349 16.8167 20.2975 16.5954 19.48H15.6902C16.3339 22.1119 19.8742 29.9678 27.0153 30.546L27.8802 29.7484L27.0756 29.6886C23.9577 29.4294 21.4634 27.6349 19.5926 25.2622C18.7679 24.2254 18.0638 23.069 17.5006 21.8727H17.5207Z" fill="url(#paint60_linear_0_1260)"/>
<path fill-rule="evenodd" clip-rule="evenodd" d="M157.405 19.5C157.183 18.7024 156.841 17.865 156.479 17.1073C155.916 15.911 155.212 14.7546 154.387 13.7178C152.517 11.3251 150.022 9.53065 146.904 9.29138L146.1 9.23157L146.965 8.43402C154.106 9.01224 157.646 16.8681 158.29 19.5H157.385H157.405Z" fill="url(#paint61_linear_0_1260)"/>
<path fill-rule="evenodd" clip-rule="evenodd" d="M156.479 21.8727C156.841 21.1349 157.183 20.2975 157.405 19.48H158.31C157.666 22.1119 154.126 29.9678 146.985 30.546L146.12 29.7484L146.924 29.6886C150.042 29.4294 152.537 27.6349 154.407 25.2622C155.232 24.2254 155.936 23.069 156.499 21.8727H156.479Z" fill="url(#paint62_linear_0_1260)"/>
<path fill-rule="evenodd" clip-rule="evenodd" d="M27.9003 8.43405C27.9003 5.20399 30.5355 2.57208 33.8143 2.57208H140.206C143.464 2.57208 146.12 5.18405 146.12 8.43405V9.23159L146.985 8.43405C146.985 4.72546 143.947 1.71472 140.206 1.71472H33.7942C30.0527 1.71472 27.0153 4.72546 27.0153 8.43405L27.8802 9.23159V8.43405H27.9003Z" fill="url(#paint63_linear_0_1260)"/>
<path fill-rule="evenodd" clip-rule="evenodd" d="M33.7942 36.408C30.5355 36.408 27.8802 33.796 27.8802 30.546V29.7485L27.0153 30.546C27.0153 34.2546 30.0527 37.2653 33.7942 37.2653H140.186C143.927 37.2653 146.965 34.2546 146.965 30.546L146.1 29.7485V30.546C146.1 33.7761 143.465 36.408 140.186 36.408H33.7942Z" fill="url(#paint64_linear_0_1260)"/>
<path style="mix-blend-mode:screen" fill-rule="evenodd" clip-rule="evenodd" d="M87 1.11658C107.397 1.11658 125.944 1.35584 139.723 1.71474H34.277C48.0562 1.3359 66.6028 1.11658 87 1.11658Z" fill="url(#paint65_linear_0_1260)"/>
<path fill-rule="evenodd" clip-rule="evenodd" d="M87 36.6871C105.245 36.6871 121.84 36.8865 134.171 37.2255H39.8289C52.1598 36.8865 68.7552 36.6871 87 36.6871Z" fill="white"/>
<path opacity="0.35" fill-rule="evenodd" clip-rule="evenodd" d="M26.09 7.57669C22.8514 8.05521 21.0611 8.97239 19.2507 11.1258C20.2162 8.41411 22.3887 6.99846 25.0239 6.59969C25.5267 4.82515 26.5124 3.8681 28.2423 3.30981C27.0153 4.36656 26.4521 5.32362 26.0699 7.57669H26.09Z" fill="#936037"/>
<path opacity="0.35" fill-rule="evenodd" clip-rule="evenodd" d="M147.91 7.57669C151.149 8.05521 152.939 8.97239 154.729 11.1258C153.764 8.41411 151.591 6.99846 148.956 6.59969C148.453 4.82515 147.467 3.8681 145.738 3.30981C146.965 4.36656 147.528 5.32362 147.91 7.57669Z" fill="#936037"/>
<path opacity="0.75" fill-rule="evenodd" clip-rule="evenodd" d="M26.09 31.4233C22.8514 30.9448 21.0611 30.0276 19.2507 27.8742C20.2162 30.5859 22.3887 32.0015 25.0239 32.4003C25.5267 34.1748 26.5124 35.1319 28.2423 35.6902C27.0153 34.6334 26.4521 33.6764 26.0699 31.4233H26.09Z" fill="#683C11"/>
<path opacity="0.75" fill-rule="evenodd" clip-rule="evenodd" d="M147.91 31.4233C151.149 30.9448 152.939 30.0276 154.729 27.8742C153.764 30.5859 151.591 32.0015 148.956 32.4003C148.453 34.1748 147.467 35.1319 145.738 35.6902C146.965 34.6334 147.528 33.6764 147.91 31.4233Z" fill="#683C11"/>
</g>
<defs>
<linearGradient id="paint0_linear_0_1260" x1="10.6814" y1="8.0353" x2="17.3799" y2="8.0353" gradientUnits="userSpaceOnUse">
<stop offset="0.06" stop-color="#9E651E"/>
<stop offset="0.41" stop-color="#EDA82B"/>
<stop offset="0.49" stop-color="#F3B637"/>
<stop offset="0.63" stop-color="#FBCA48"/>
<stop offset="0.72" stop-color="#FFD24F"/>
<stop offset="1" stop-color="#FFF4E1"/>
</linearGradient>
<linearGradient id="paint1_linear_0_1260" x1="10.9832" y1="8.15492" x2="13.6384" y2="8.15492" gradientUnits="userSpaceOnUse">
<stop/>
<stop offset="1" stop-color="#FFD426"/>
</linearGradient>
<linearGradient id="paint2_linear_0_1260" x1="11.7274" y1="8.03528" x2="17.3799" y2="8.03528" gradientUnits="userSpaceOnUse">
<stop stop-color="#80521A"/>
<stop offset="1" stop-color="white"/>
</linearGradient>
<linearGradient id="paint3_linear_0_1260" x1="12.6125" y1="4.36659" x2="17.3799" y2="4.36659" gradientUnits="userSpaceOnUse">
<stop/>
<stop offset="1" stop-color="#FFD426"/>
</linearGradient>
<linearGradient id="paint4_linear_0_1260" x1="11.828" y1="11.3252" x2="15.7524" y2="2.367" gradientUnits="userSpaceOnUse">
<stop stop-color="#9C6100"/>
<stop offset="1" stop-color="#FFCD59"/>
</linearGradient>
<linearGradient id="paint5_linear_0_1260" x1="9.05204" y1="20.3773" x2="9.05204" y2="3.94788" gradientUnits="userSpaceOnUse">
<stop offset="0.06" stop-color="#9E651E"/>
<stop offset="0.41" stop-color="#EDA82B"/>
<stop offset="0.49" stop-color="#F3B637"/>
<stop offset="0.63" stop-color="#FBCA48"/>
<stop offset="0.72" stop-color="#FFD24F"/>
<stop offset="1" stop-color="#FFF4E1"/>
</linearGradient>
<linearGradient id="paint6_linear_0_1260" x1="4.44556" y1="12.1626" x2="10.5607" y2="12.1626" gradientUnits="userSpaceOnUse">
<stop stop-color="white"/>
<stop offset="1" stop-color="#80521A"/>
</linearGradient>
<linearGradient id="paint7_linear_0_1260" x1="7.38244" y1="13.4985" x2="7.38244" y2="3.94788" gradientUnits="userSpaceOnUse">
<stop/>
<stop offset="1" stop-color="#FFD426"/>
</linearGradient>
<linearGradient id="paint8_linear_0_1260" x1="8.30777" y1="10.069" x2="11.0837" y2="10.069" gradientUnits="userSpaceOnUse">
<stop/>
<stop offset="1" stop-color="#FFD426"/>
</linearGradient>
<linearGradient id="paint9_linear_0_1260" x1="8.85089" y1="13.0798" x2="13.4372" y2="13.0798" gradientUnits="userSpaceOnUse">
<stop/>
<stop offset="1" stop-color="#FFD426"/>
</linearGradient>
<linearGradient id="paint10_linear_0_1260" x1="9.13252" y1="20.3773" x2="9.13252" y2="9.51074" gradientUnits="userSpaceOnUse">
<stop stop-color="#80521A"/>
<stop offset="1" stop-color="white"/>
</linearGradient>
<linearGradient id="paint11_linear_0_1260" x1="10.5004" y1="17.2071" x2="6.68057" y2="4.32809" gradientUnits="userSpaceOnUse">
<stop stop-color="#9C6100"/>
<stop offset="1" stop-color="#FFCD59"/>
</linearGradient>
<linearGradient id="paint12_linear_0_1260" x1="1.75741e-05" y1="21.9325" x2="14.1413" y2="21.9325" gradientUnits="userSpaceOnUse">
<stop stop-color="#FFF4E1"/>
<stop offset="0.28" stop-color="#FFD24F"/>
<stop offset="0.37" stop-color="#FBCA48"/>
<stop offset="0.51" stop-color="#F3B637"/>
<stop offset="0.59" stop-color="#EDA82B"/>
<stop offset="0.94" stop-color="#9E651E"/>
</linearGradient>
<linearGradient id="paint13_linear_0_1260" x1="1.75095e-05" y1="21.9325" x2="14.1413" y2="21.9325" gradientUnits="userSpaceOnUse">
<stop stop-color="white"/>
<stop offset="1" stop-color="#80521A"/>
</linearGradient>
<linearGradient id="paint14_linear_0_1260" x1="3.48002" y1="23.9862" x2="14.1413" y2="23.9862" gradientUnits="userSpaceOnUse">
<stop stop-color="white"/>
<stop offset="1" stop-color="#80521A"/>
</linearGradient>
<linearGradient id="paint15_linear_0_1260" x1="7.86524" y1="25.4617" x2="7.86524" y2="17.3466" gradientUnits="userSpaceOnUse">
<stop/>
<stop offset="1" stop-color="#FFD426"/>
</linearGradient>
<linearGradient id="paint16_linear_0_1260" x1="1.75006" y1="21.9923" x2="1.75006" y2="13.977" gradientUnits="userSpaceOnUse">
<stop/>
<stop offset="1" stop-color="#FFD426"/>
</linearGradient>
<linearGradient id="paint17_linear_0_1260" x1="10.3797" y1="26.2791" x2="10.3797" y2="20.1779" gradientUnits="userSpaceOnUse">
<stop/>
<stop offset="1" stop-color="#FFD426"/>
</linearGradient>
<linearGradient id="paint18_linear_0_1260" x1="-0.663807" y1="15.0138" x2="12.9711" y2="29.0714" gradientUnits="userSpaceOnUse">
<stop stop-color="#FFCD59"/>
<stop offset="1" stop-color="#9C6100"/>
</linearGradient>
<linearGradient id="paint19_linear_0_1260" x1="5.39102" y1="32.7991" x2="20.5582" y2="32.7991" gradientUnits="userSpaceOnUse">
<stop stop-color="#EDA82B"/>
<stop offset="0.94" stop-color="#9E5B08"/>
</linearGradient>
<linearGradient id="paint20_linear_0_1260" x1="5.39099" y1="33.158" x2="14.8051" y2="33.158" gradientUnits="userSpaceOnUse">
<stop stop-color="#FFD426"/>
<stop offset="1"/>
</linearGradient>
<linearGradient id="paint21_linear_0_1260" x1="5.39099" y1="30.885" x2="18.1242" y2="30.885" gradientUnits="userSpaceOnUse">
<stop stop-color="#FFE887"/>
<stop offset="0.13" stop-color="#D4C170"/>
<stop offset="0.37" stop-color="#897D48"/>
<stop offset="0.59" stop-color="#4E4729"/>
<stop offset="0.77" stop-color="#232013"/>
<stop offset="0.92" stop-color="#090805"/>
<stop offset="1"/>
</linearGradient>
<linearGradient id="paint22_linear_0_1260" x1="13.3769" y1="32.7991" x2="20.5582" y2="32.7991" gradientUnits="userSpaceOnUse">
<stop stop-color="white"/>
<stop offset="1" stop-color="#80521A"/>
</linearGradient>
<linearGradient id="paint23_linear_0_1260" x1="5.39103" y1="33.5169" x2="19.2104" y2="33.5169" gradientUnits="userSpaceOnUse">
<stop stop-color="#FFCD59"/>
<stop offset="1" stop-color="#9C6100"/>
</linearGradient>
<linearGradient id="paint24_linear_0_1260" x1="163.319" y1="2.75505e-05" x2="156.62" y2="2.75505e-05" gradientUnits="userSpaceOnUse">
<stop offset="0.06" stop-color="#9E651E"/>
<stop offset="0.41" stop-color="#EDA82B"/>
<stop offset="0.49" stop-color="#F3B637"/>
<stop offset="0.63" stop-color="#FBCA48"/>
<stop offset="0.72" stop-color="#FFD24F"/>
<stop offset="1" stop-color="#FFF4E1"/>
</linearGradient>
<linearGradient id="paint25_linear_0_1260" x1="163.017" y1="1.23592e-05" x2="160.362" y2="1.23592e-05" gradientUnits="userSpaceOnUse">
<stop/>
<stop offset="1" stop-color="#FFD426"/>
</linearGradient>
<linearGradient id="paint26_linear_0_1260" x1="162.273" y1="7.58281e-06" x2="156.62" y2="7.58281e-06" gradientUnits="userSpaceOnUse">
<stop stop-color="#80521A"/>
<stop offset="1" stop-color="white"/>
</linearGradient>
<linearGradient id="paint27_linear_0_1260" x1="161.388" y1="4.36659" x2="156.62" y2="4.36659" gradientUnits="userSpaceOnUse">
<stop/>
<stop offset="1" stop-color="#FFD426"/>
</linearGradient>
<linearGradient id="paint28_linear_0_1260" x1="162.172" y1="11.3252" x2="158.248" y2="2.367" gradientUnits="userSpaceOnUse">
<stop stop-color="#9C6100"/>
<stop offset="1" stop-color="#FFCD59"/>
</linearGradient>
<linearGradient id="paint29_linear_0_1260" x1="164.968" y1="20.3773" x2="164.968" y2="3.94788" gradientUnits="userSpaceOnUse">
<stop offset="0.06" stop-color="#9E651E"/>
<stop offset="0.41" stop-color="#EDA82B"/>
<stop offset="0.49" stop-color="#F3B637"/>
<stop offset="0.63" stop-color="#FBCA48"/>
<stop offset="0.72" stop-color="#FFD24F"/>
<stop offset="1" stop-color="#FFF4E1"/>
</linearGradient>
<linearGradient id="paint30_linear_0_1260" x1="169.575" y1="2.36921e-05" x2="163.439" y2="2.36921e-05" gradientUnits="userSpaceOnUse">
<stop stop-color="white"/>
<stop offset="1" stop-color="#80521A"/>
</linearGradient>
<linearGradient id="paint31_linear_0_1260" x1="166.618" y1="13.4985" x2="166.618" y2="3.94788" gradientUnits="userSpaceOnUse">
<stop/>
<stop offset="1" stop-color="#FFD426"/>
</linearGradient>
<linearGradient id="paint32_linear_0_1260" x1="165.692" y1="10.069" x2="162.916" y2="10.069" gradientUnits="userSpaceOnUse">
<stop/>
<stop offset="1" stop-color="#FFD426"/>
</linearGradient>
<linearGradient id="paint33_linear_0_1260" x1="165.169" y1="13.0798" x2="160.563" y2="13.0798" gradientUnits="userSpaceOnUse">
<stop/>
<stop offset="1" stop-color="#FFD426"/>
</linearGradient>
<linearGradient id="paint34_linear_0_1260" x1="164.868" y1="20.3773" x2="164.868" y2="9.51074" gradientUnits="userSpaceOnUse">
<stop stop-color="#80521A"/>
<stop offset="1" stop-color="white"/>
</linearGradient>
<linearGradient id="paint35_linear_0_1260" x1="163.5" y1="17.2071" x2="167.339" y2="4.32791" gradientUnits="userSpaceOnUse">
<stop stop-color="#9C6100"/>
<stop offset="1" stop-color="#FFCD59"/>
</linearGradient>
<linearGradient id="paint36_linear_0_1260" x1="174" y1="-3.95619e-06" x2="159.859" y2="-3.95619e-06" gradientUnits="userSpaceOnUse">
<stop stop-color="#FFF4E1"/>
<stop offset="0.28" stop-color="#FFD24F"/>
<stop offset="0.37" stop-color="#FBCA48"/>
<stop offset="0.51" stop-color="#F3B637"/>
<stop offset="0.59" stop-color="#EDA82B"/>
<stop offset="0.94" stop-color="#9E651E"/>
</linearGradient>
<linearGradient id="paint37_linear_0_1260" x1="174" y1="21.9325" x2="159.859" y2="21.9325" gradientUnits="userSpaceOnUse">
<stop stop-color="white"/>
<stop offset="1" stop-color="#80521A"/>
</linearGradient>
<linearGradient id="paint38_linear_0_1260" x1="170.52" y1="23.9862" x2="159.859" y2="23.9862" gradientUnits="userSpaceOnUse">
<stop stop-color="white"/>
<stop offset="1" stop-color="#80521A"/>
</linearGradient>
<linearGradient id="paint39_linear_0_1260" x1="166.135" y1="25.4617" x2="166.135" y2="17.3466" gradientUnits="userSpaceOnUse">
<stop/>
<stop offset="1" stop-color="#FFD426"/>
</linearGradient>
<linearGradient id="paint40_linear_0_1260" x1="172.25" y1="21.9923" x2="172.25" y2="13.977" gradientUnits="userSpaceOnUse">
<stop/>
<stop offset="1" stop-color="#FFD426"/>
</linearGradient>
<linearGradient id="paint41_linear_0_1260" x1="163.62" y1="26.2791" x2="163.62" y2="20.1779" gradientUnits="userSpaceOnUse">
<stop/>
<stop offset="1" stop-color="#FFD426"/>
</linearGradient>
<linearGradient id="paint42_linear_0_1260" x1="174.664" y1="15.0138" x2="161.029" y2="29.0714" gradientUnits="userSpaceOnUse">
<stop stop-color="#FFCD59"/>
<stop offset="1" stop-color="#9C6100"/>
</linearGradient>
<linearGradient id="paint43_linear_0_1260" x1="168.609" y1="-2.09295e-05" x2="153.462" y2="-2.09295e-05" gradientUnits="userSpaceOnUse">
<stop stop-color="#EDA82B"/>
<stop offset="0.94" stop-color="#9E5B08"/>
</linearGradient>
<linearGradient id="paint44_linear_0_1260" x1="168.609" y1="1.3685e-06" x2="159.195" y2="1.3685e-06" gradientUnits="userSpaceOnUse">
<stop stop-color="#FFD426"/>
<stop offset="1"/>
</linearGradient>
<linearGradient id="paint45_linear_0_1260" x1="168.609" y1="-6.45499e-06" x2="155.876" y2="-6.45499e-06" gradientUnits="userSpaceOnUse">
<stop stop-color="#FFE887"/>
<stop offset="0.13" stop-color="#D4C170"/>
<stop offset="0.37" stop-color="#897D48"/>
<stop offset="0.59" stop-color="#4E4729"/>
<stop offset="0.77" stop-color="#232013"/>
<stop offset="0.92" stop-color="#090805"/>
<stop offset="1"/>
</linearGradient>
<linearGradient id="paint46_linear_0_1260" x1="160.643" y1="32.7991" x2="153.462" y2="32.7991" gradientUnits="userSpaceOnUse">
<stop stop-color="white"/>
<stop offset="1" stop-color="#80521A"/>
</linearGradient>
<linearGradient id="paint47_linear_0_1260" x1="168.609" y1="33.5169" x2="154.81" y2="33.5169" gradientUnits="userSpaceOnUse">
<stop stop-color="#FFCD59"/>
<stop offset="1" stop-color="#9C6100"/>
</linearGradient>
<linearGradient id="paint48_linear_0_1260" x1="87" y1="39" x2="87" y2="0" gradientUnits="userSpaceOnUse">
<stop stop-color="#4D2F00"/>
<stop offset="1" stop-color="#F0A324"/>
</linearGradient>
<linearGradient id="paint49_linear_0_1260" x1="87" y1="19.5" x2="87" y2="0" gradientUnits="userSpaceOnUse">
<stop stop-color="#FFC640"/>
<stop offset="1" stop-color="#FFFAE3"/>
</linearGradient>
<linearGradient id="paint50_linear_0_1260" x1="87" y1="39" x2="87" y2="19.5" gradientUnits="userSpaceOnUse">
<stop stop-color="#6E4500"/>
<stop offset="1" stop-color="#CF9353"/>
</linearGradient>
<linearGradient id="paint51_linear_0_1260" x1="22.4289" y1="19.5" x2="22.4289" y2="1.71472" gradientUnits="userSpaceOnUse">
<stop stop-color="#F5AD24"/>
<stop offset="1" stop-color="#FFE56B"/>
</linearGradient>
<linearGradient id="paint52_linear_0_1260" x1="11.0636" y1="28.3926" x2="33.7942" y2="28.3926" gradientUnits="userSpaceOnUse">
<stop stop-color="#CF9353"/>
<stop offset="1" stop-color="#6E4500"/>
</linearGradient>
<linearGradient id="paint53_linear_0_1260" x1="20.5381" y1="19.5" x2="20.5381" y2="1.71472" gradientUnits="userSpaceOnUse">
<stop stop-color="#CF9353"/>
<stop offset="1" stop-color="#6E4500"/>
</linearGradient>
<linearGradient id="paint54_linear_0_1260" x1="20.538" y1="37.2653" x2="20.538" y2="19.5" gradientUnits="userSpaceOnUse">
<stop stop-color="#FFBE45"/>
<stop offset="1" stop-color="#FFF0AB"/>
</linearGradient>
<linearGradient id="paint55_linear_0_1260" x1="151.571" y1="-2.2497e-06" x2="151.571" y2="-2.2497e-06" gradientUnits="userSpaceOnUse">
<stop stop-color="#F5AD24"/>
<stop offset="1" stop-color="#FFE56B"/>
</linearGradient>
<linearGradient id="paint56_linear_0_1260" x1="151.571" y1="37.2653" x2="151.571" y2="-2.87417e-06" gradientUnits="userSpaceOnUse">
<stop stop-color="#6E4500"/>
<stop offset="1" stop-color="#CF9353"/>
</linearGradient>
<linearGradient id="paint57_linear_0_1260" x1="153.462" y1="19.5" x2="153.462" y2="1.71472" gradientUnits="userSpaceOnUse">
<stop stop-color="#CF9353"/>
<stop offset="1" stop-color="#6E4500"/>
</linearGradient>
<linearGradient id="paint58_linear_0_1260" x1="153.462" y1="-2.16857e-06" x2="153.462" y2="-2.16857e-06" gradientUnits="userSpaceOnUse">
<stop stop-color="#FFBE45"/>
<stop offset="1" stop-color="#FFF0AB"/>
</linearGradient>
<linearGradient id="paint59_linear_0_1260" x1="21.8054" y1="19.5" x2="21.8054" y2="8.43402" gradientUnits="userSpaceOnUse">
<stop stop-color="#CF7B23"/>
<stop offset="1" stop-color="#7A4000"/>
</linearGradient>
<linearGradient id="paint60_linear_0_1260" x1="21.8053" y1="30.546" x2="21.8053" y2="19.5" gradientUnits="userSpaceOnUse">
<stop stop-color="#FFE56B"/>
<stop offset="1" stop-color="#F5AD24"/>
</linearGradient>
<linearGradient id="paint61_linear_0_1260" x1="152.195" y1="-2.75362e-05" x2="152.195" y2="-2.75362e-05" gradientUnits="userSpaceOnUse">
<stop stop-color="#CF7B23"/>
<stop offset="1" stop-color="#7A4000"/>
</linearGradient>
<linearGradient id="paint62_linear_0_1260" x1="152.195" y1="-1.72376e-05" x2="152.195" y2="-1.72376e-05" gradientUnits="userSpaceOnUse">
<stop stop-color="#FFE56B"/>
<stop offset="1" stop-color="#F5AD24"/>
</linearGradient>
<linearGradient id="paint63_linear_0_1260" x1="87" y1="9.23159" x2="87" y2="1.71472" gradientUnits="userSpaceOnUse">
<stop stop-color="#FFB566"/>
<stop offset="1" stop-color="#6E4500"/>
</linearGradient>
<linearGradient id="paint64_linear_0_1260" x1="87" y1="37.2653" x2="87" y2="29.7684" gradientUnits="userSpaceOnUse">
<stop stop-color="#FFF0AB"/>
<stop offset="1" stop-color="#FFBE45"/>
</linearGradient>
<linearGradient id="paint65_linear_0_1260" x1="87" y1="1.71474" x2="87" y2="1.11658" gradientUnits="userSpaceOnUse">
<stop stop-color="#E8E7B3"/>
<stop offset="1" stop-color="#473626"/>
</linearGradient>
<clipPath id="clip0_0_1260">
<rect width="174" height="39" fill="white"/>
</clipPath>
</defs>
</svg>
