<svg width="70" height="70" viewBox="0 0 70 70" fill="none" xmlns="http://www.w3.org/2000/svg">
<circle cx="35" cy="35" r="35" fill="#FAFAFA"/>
<path d="M35 47.6004C34.625 47.6004 34.25 47.5129 33.9375 47.3379C31.6 46.0629 27.4875 44.7129 24.9125 44.3754L24.55 44.3254C22.9125 44.1254 21.5625 42.5879 21.5625 40.9254V25.8254C21.5625 24.8379 21.95 23.9379 22.6625 23.2879C23.375 22.6379 24.3 22.3254 25.275 22.4129C28.025 22.6254 32.175 24.0004 34.525 25.4754L34.825 25.6504C34.9125 25.7004 35.1 25.7004 35.175 25.6629L35.375 25.5379C37.725 24.0629 41.875 22.6629 44.6375 22.4254C44.6625 22.4254 44.7625 22.4254 44.7875 22.4254C45.7 22.3379 46.6375 22.6629 47.3375 23.3129C48.05 23.9629 48.4375 24.8629 48.4375 25.8504V40.9379C48.4375 42.6129 47.0875 44.1379 45.4375 44.3379L45.025 44.3879C42.45 44.7254 38.325 46.0879 36.0375 47.3504C35.7375 47.5254 35.375 47.6004 35 47.6004ZM24.975 24.2754C24.575 24.2754 24.2125 24.4129 23.925 24.6754C23.6125 24.9629 23.4375 25.3754 23.4375 25.8254V40.9254C23.4375 41.6629 24.075 42.3754 24.7875 42.4754L25.1625 42.5254C27.975 42.9004 32.2875 44.3129 34.7875 45.6754C34.9 45.7254 35.0625 45.7379 35.125 45.7129C37.625 44.3254 41.9625 42.9004 44.7875 42.5254L45.2125 42.4754C45.925 42.3879 46.5625 41.6629 46.5625 40.9254V25.8379C46.5625 25.3754 46.3875 24.9754 46.075 24.6754C45.75 24.3879 45.3375 24.2504 44.875 24.2754C44.85 24.2754 44.75 24.2754 44.725 24.2754C42.3375 24.4879 38.4875 25.7754 36.3875 27.0879L36.1875 27.2254C35.5 27.6504 34.525 27.6504 33.8625 27.2379L33.5625 27.0629C31.425 25.7504 27.575 24.4754 25.125 24.2754C25.075 24.2754 25.025 24.2754 24.975 24.2754Z" fill="#292D32"/>
<path d="M35 46.5498C34.4875 46.5498 34.0625 46.1248 34.0625 45.6123V26.8623C34.0625 26.3498 34.4875 25.9248 35 25.9248C35.5125 25.9248 35.9375 26.3498 35.9375 26.8623V45.6123C35.9375 46.1373 35.5125 46.5498 35 46.5498Z" fill="#292D32"/>
<path d="M29.6875 31.5498H26.875C26.3625 31.5498 25.9375 31.1248 25.9375 30.6123C25.9375 30.0998 26.3625 29.6748 26.875 29.6748H29.6875C30.2 29.6748 30.625 30.0998 30.625 30.6123C30.625 31.1248 30.2 31.5498 29.6875 31.5498Z" fill="#292D32"/>
<path d="M30.625 35.2998H26.875C26.3625 35.2998 25.9375 34.8748 25.9375 34.3623C25.9375 33.8498 26.3625 33.4248 26.875 33.4248H30.625C31.1375 33.4248 31.5625 33.8498 31.5625 34.3623C31.5625 34.8748 31.1375 35.2998 30.625 35.2998Z" fill="#292D32"/>
</svg>
