<svg width="54" height="54" viewBox="0 0 54 54" fill="none" xmlns="http://www.w3.org/2000/svg">
<path d="M37.7011 46.183L22.5515 48.5498C16.0751 49.5616 13.163 47.4364 12.1512 40.96L9.78439 25.8104C9.66309 25.034 10.2064 24.2895 10.9828 24.1683L41.2819 19.4347C42.0583 19.3134 42.8028 19.8567 42.9241 20.6331L45.2909 35.7826C46.3027 42.2591 44.1775 45.1712 37.7011 46.183ZM12.8468 26.7869L14.9917 40.5162C15.755 45.4019 17.222 46.4725 22.1077 45.7092L37.2573 43.3424C42.143 42.5791 43.2136 41.1121 42.4503 36.2264L40.3054 22.4971L12.8468 26.7869Z" fill="#F6F6F6"/>
<path d="M40.833 22.4142L12.4276 26.8519C9.11358 27.3696 6.92404 25.7718 6.40631 22.4578L6.11046 20.5641C5.59272 17.2501 7.19057 15.0606 10.5045 14.5429L38.91 10.1051C42.1293 9.6022 44.4283 11.2799 44.9312 14.4992L45.2271 16.3929C45.73 19.6122 44.0523 21.9112 40.833 22.4142ZM10.9483 17.3834C9.22505 17.6526 8.68178 18.3971 8.951 20.1203L9.24685 22.014C9.51607 23.7373 10.2605 24.2806 11.9838 24.0113L40.3892 19.5736C42.0557 19.3133 42.6469 18.5031 42.3865 16.8367L42.0907 14.943C41.8303 13.2765 41.0202 12.6853 39.3538 12.9457L10.9483 17.3834Z" fill="#F6F6F6"/>
<path d="M24.4703 15.271L14.0171 16.9041C13.6194 16.9662 13.214 16.855 12.9045 16.6123C11.5512 15.524 11.2843 13.5676 12.3069 12.1663L14.5759 9.05713C15.6305 7.61203 17.6946 7.28955 19.1397 8.34413L25.0953 12.6903C25.5551 13.0258 25.7852 13.63 25.6408 14.1958C25.5154 14.7586 25.0573 15.1793 24.4703 15.271ZM14.6148 13.9008L20.6179 12.963L17.446 10.665C17.2708 10.5372 17.0246 10.5757 16.8968 10.7508L14.6279 13.86C14.6308 13.8789 14.6119 13.8819 14.6148 13.9008Z" fill="#F6F6F6"/>
<path d="M36.2669 13.4281L25.8137 15.0612C25.2456 15.15 24.6621 14.8919 24.371 14.3943C24.0609 13.8995 24.0988 13.2728 24.4314 12.7941L28.7775 6.83853C29.8321 5.39343 31.8962 5.07096 33.3413 6.12554L36.4505 8.39448C37.8518 9.4171 38.2133 11.3587 37.2375 12.8109C37.0167 13.1364 36.6646 13.366 36.2669 13.4281ZM28.8165 11.6822L34.8195 10.7444C34.7976 10.7284 34.7976 10.7284 34.7757 10.7124L31.6665 8.4435C31.4914 8.31567 31.2452 8.35413 31.1174 8.52929L28.8165 11.6822Z" fill="#F6F6F6"/>
<path d="M24.5499 36.889C24.0196 36.9718 23.4497 36.925 22.916 36.7368C21.7448 36.3184 20.9075 35.3047 20.7182 34.0927L19.1945 24.3402C19.0732 23.5638 19.6165 22.8193 20.3929 22.698L31.8309 20.9111C32.6073 20.7898 33.3517 21.3331 33.473 22.1095L34.9907 31.8242C35.183 33.0551 34.6948 34.2759 33.7041 35.0126C32.7164 35.7683 31.3979 35.8967 30.2688 35.3747L28.4059 34.5018C28.2367 34.4119 28.0284 34.4444 27.8757 34.5847L26.2791 36.0368C25.7891 36.5014 25.1748 36.7913 24.5499 36.889ZM22.257 25.3167L23.5557 33.63C23.5942 33.8762 23.7635 33.9662 23.867 34.0082C23.9706 34.0502 24.1688 34.0774 24.3564 33.9123L25.9531 32.4601C26.955 31.547 28.3942 31.3222 29.6079 31.8891L31.4708 32.7621C31.6998 32.8621 31.8803 32.7757 31.9661 32.7041C32.0519 32.6325 32.1857 32.4952 32.1472 32.249L30.8514 23.9546L22.254 25.2978L22.257 25.3167Z" fill="#F6F6F6"/>
</svg>
