<svg width="58" height="58" viewBox="0 0 58 58" fill="none" xmlns="http://www.w3.org/2000/svg">
<mask id="mask0_1358_85015" style="mask-type:alpha" maskUnits="userSpaceOnUse" x="0" y="0" width="58" height="58">
<rect width="58" height="58" fill="#D9D9D9"/>
</mask>
<g mask="url(#mask0_1358_85015)">
</g>
<rect x="5.5" y="7.5" width="47.4177" height="43" rx="7.5" fill="white"/>
<path d="M25.5895 39.2632C26.3158 39.2632 26.5211 38.979 26.5211 38.6158C26.5211 38.2527 26.5211 37.4632 26.5053 36.3422C22.7316 37.1474 21.9264 34.5422 21.9264 34.5422C21.3106 33.0106 20.4106 32.5843 20.4106 32.5843C19.179 31.7632 20.5053 31.779 20.5053 31.779C21.8632 31.8737 22.5895 33.1527 22.5895 33.1527C23.8053 35.2053 25.7632 34.6053 26.5369 34.258C26.6 33.579 26.9 32.9316 27.4053 32.458C24.3895 32.1264 21.2158 30.9737 21.2158 25.858C21.2 24.5316 21.7053 23.2369 22.6211 22.2737C22.4632 21.9422 22.0053 20.5843 22.7316 18.7369C22.7316 18.7369 23.8685 18.3737 26.4737 20.1106C28.7 19.5106 31.0369 19.5106 33.2632 20.1106C35.8369 18.3895 36.9895 18.7369 36.9895 18.7369C37.7158 20.5685 37.2579 21.9264 37.1316 22.2737C38.0474 23.2369 38.5369 24.5316 38.5211 25.858C38.5211 30.9895 35.3474 32.1106 32.3158 32.4422C32.7895 32.8369 33.2316 33.658 33.2316 34.9053C33.2316 36.7053 33.2158 38.1264 33.2158 38.5527C33.2158 38.9001 33.3737 39.1843 34.1474 39.1843L25.5895 39.2632Z" fill="#171515"/>
<rect x="5.5" y="7.5" width="47.4177" height="43" rx="7.5" stroke="#ECECEC"/>
</svg>
