<svg width="20" height="20" viewBox="0 0 20 20" fill="none" xmlns="http://www.w3.org/2000/svg">
<path d="M15.6084 12.225L12.15 15.6833C12.0167 15.8167 11.8917 16.075 11.8584 16.2583L11.6667 17.5833C11.6 18.0583 11.9334 18.4 12.4084 18.325L13.7334 18.1333C13.9167 18.1083 14.175 17.975 14.3084 17.8417L17.7667 14.3833C18.3584 13.7917 18.6417 13.0917 17.7667 12.2167C16.9 11.35 16.2084 11.625 15.6084 12.225Z" fill="#FFA500"/>
<path d="M15.1172 12.7167C15.4089 13.7667 16.2339 14.5833 17.2839 14.8833L15.1172 12.7167Z" fill="#FFA500"/>
<path opacity="0.4" d="M1.69245 12.1917C1.69245 12.2167 1.67578 12.25 1.67578 12.275C2.44245 13.8083 3.69246 15.0667 5.22579 15.825C5.25079 15.825 5.28412 15.8083 5.30912 15.8083C5.02578 14.8417 4.80912 13.85 4.65079 12.8583C3.65079 12.6917 2.65912 12.475 1.69245 12.1917Z" fill="#FFA500"/>
<path opacity="0.4" d="M15.8921 5.35833C15.1087 3.71666 13.7837 2.39167 12.1504 1.61667C12.4504 2.60834 12.7004 3.62501 12.8671 4.64167C13.8837 4.80834 14.9004 5.04999 15.8921 5.35833Z" fill="#FFA500"/>
<path opacity="0.4" d="M1.60742 5.35832C2.60742 5.05832 3.6241 4.80833 4.64077 4.64167C4.80743 3.65 5.01576 2.66667 5.2991 1.7C5.2741 1.7 5.24076 1.68332 5.21576 1.68332C3.64909 2.45832 2.37409 3.76666 1.60742 5.35832Z" fill="#FFA500"/>
<path opacity="0.4" d="M11.5158 4.46666C11.3158 3.38333 11.0658 2.30001 10.7074 1.25001C10.6908 1.19167 10.6908 1.14168 10.6824 1.07501C10.0658 0.925012 9.41576 0.824997 8.74909 0.824997C8.07409 0.824997 7.43243 0.916679 6.80743 1.07501C6.79909 1.13335 6.80742 1.18334 6.79076 1.25001C6.44076 2.30001 6.18242 3.38333 5.98242 4.46666C7.82409 4.26666 9.6741 4.26666 11.5158 4.46666Z" fill="#FFA500"/>
<path opacity="0.4" d="M4.46588 5.98332C3.37421 6.18332 2.29921 6.43332 1.24921 6.79166C1.19088 6.80832 1.14088 6.80832 1.07421 6.81666C0.924209 7.43332 0.824219 8.08333 0.824219 8.74999C0.824219 9.425 0.915875 10.0667 1.07421 10.6917C1.13254 10.7 1.18255 10.6917 1.24921 10.7083C2.29921 11.0583 3.37421 11.3167 4.46588 11.5167C4.26588 9.675 4.26588 7.82499 4.46588 5.98332Z" fill="#FFA500"/>
<path opacity="0.4" d="M16.4171 6.81666C16.3587 6.81666 16.3087 6.80832 16.2421 6.79166C15.1921 6.44166 14.1087 6.18332 13.0254 5.98332C13.2337 7.82499 13.2337 9.67499 13.0254 11.5083C14.1087 11.3083 15.1921 11.0583 16.2421 10.7C16.3004 10.6833 16.3504 10.6917 16.4171 10.6833C16.5671 10.0583 16.6671 9.41665 16.6671 8.74165C16.6671 8.08332 16.5754 7.44166 16.4171 6.81666Z" fill="#FFA500"/>
<path opacity="0.4" d="M5.98242 13.0333C6.18242 14.125 6.43242 15.2 6.79076 16.25C6.80742 16.3083 6.79909 16.3583 6.80743 16.425C7.43243 16.575 8.07409 16.675 8.74909 16.675C9.41576 16.675 10.0658 16.5833 10.6824 16.425C10.6908 16.3667 10.6908 16.3167 10.7074 16.25C11.0574 15.2 11.3158 14.125 11.5158 13.0333C10.5991 13.1333 9.67409 13.2083 8.74909 13.2083C7.82409 13.2 6.89909 13.1333 5.98242 13.0333Z" fill="#FFA500"/>
<path opacity="0.4" d="M5.79102 5.79167C5.54102 7.75834 5.54102 9.74166 5.79102 11.7167C7.75768 11.9667 9.74102 11.9667 11.716 11.7167C11.966 9.74999 11.966 7.76667 11.716 5.79167C9.74102 5.54167 7.75768 5.54167 5.79102 5.79167Z" fill="#FFA500"/>
</svg>
