<svg width="25" height="25" viewBox="0 0 25 25" fill="none" xmlns="http://www.w3.org/2000/svg">
<g clip-path="url(#clip0_346_641)">
<path d="M17.5683 18.989C17.4682 19.1133 17.342 19.214 17.1987 19.2842C17.0554 19.3543 16.8984 19.392 16.7389 19.3948C15.4427 19.4501 14.6686 20.2511 14.6686 21.5411C14.6686 22.0792 14.6686 22.6174 14.6686 23.1559C14.6686 23.5542 14.8182 23.7016 15.2254 23.7016C17.5857 23.7016 19.9449 23.7016 22.3032 23.7016H22.6492C22.5948 23.7588 22.5372 23.8129 22.4766 23.8636C21.4712 24.5827 20.3493 24.9699 19.1132 24.9881C17.8488 25.0053 16.5836 25.0013 15.3192 24.9881C14.5083 24.9783 13.7052 24.8286 12.9453 24.5455V23.0325C12.9453 21.7048 12.9453 20.3772 12.9453 19.0496C12.9497 16.0191 14.9704 13.586 17.9462 13.0271C21.1016 12.4336 24.3363 14.6693 24.8943 17.8362C25.2319 19.7538 24.7683 21.457 23.5038 22.9457C23.4481 23.0112 23.4007 23.0838 23.3494 23.1533L23.2812 23.1135C23.2812 22.5975 23.2812 22.0812 23.2812 21.5646C23.2812 20.2493 22.5196 19.4559 21.2039 19.3961C21.0445 19.3924 20.888 19.3538 20.7452 19.283C20.6024 19.2122 20.4769 19.1109 20.3776 18.9863C21.0136 18.5363 21.4535 17.9486 21.5198 17.1719C21.5703 16.5869 21.5822 15.981 21.4862 15.4053C21.2773 14.1547 20.0528 13.274 18.7702 13.3723C17.5054 13.4696 16.4636 14.5229 16.3995 15.7814C16.3756 16.1845 16.3756 16.5887 16.3995 16.9918C16.4504 17.7463 16.7898 18.3606 17.378 18.8367C17.439 18.8876 17.501 18.9363 17.5683 18.989Z" fill="url(#paint0_linear_346_641)"/>
<path d="M10.3606 10.2089C10.3606 9.63361 10.3629 9.08619 10.3606 8.5401C10.3549 7.35011 9.53085 6.50707 8.3417 6.47786C7.9912 6.46901 7.69646 6.35218 7.45659 6.06762C7.98766 5.68837 8.39215 5.21263 8.53598 4.57316C8.70681 3.81288 8.72274 3.03622 8.51784 2.28346C8.19787 1.10276 6.96801 0.30663 5.77311 0.462847C4.48969 0.6288 3.51607 1.65771 3.4758 2.91364C3.46164 3.34334 3.44792 3.77792 3.4935 4.20364C3.57449 4.95906 3.84754 5.36708 4.64415 6.07957C4.42287 6.34244 4.1383 6.46679 3.79842 6.47786C2.54864 6.52211 1.75071 7.34214 1.7485 8.59055C1.7485 9.1154 1.7485 9.64069 1.6923 10.1894C1.54537 10.0151 1.38737 9.84913 1.25417 9.66504C-0.0965165 7.79928 -0.384178 5.77333 0.527488 3.66551C1.43252 1.57495 3.07351 0.315923 5.35578 0.0835897C6.67946 -0.0491725 8.02528 0.0145534 9.36047 0.0251743C9.93092 0.0300423 10.5036 0.104832 11.0696 0.185817C11.4108 0.234496 11.7414 0.355752 12.0835 0.44603V2.11574C12.0835 3.4615 12.0972 4.80683 12.0778 6.15215C12.0565 7.64484 11.5294 8.94989 10.5363 10.066C10.5067 10.0992 10.4762 10.1328 10.4443 10.1638C10.4178 10.1812 10.3898 10.1963 10.3606 10.2089Z" fill="url(#paint1_linear_346_641)"/>
<path d="M17.1229 8.19939C17.2309 8.19939 17.3885 8.19939 17.5473 8.19939C17.9691 8.19718 18.1204 8.05247 18.112 7.6356C18.0713 5.69874 17.4543 3.96679 16.2608 2.43973C15.6003 1.59769 14.7872 0.887451 13.8639 0.346067C13.7883 0.306819 13.7226 0.250815 13.6719 0.182327C13.8529 0.226581 14.0357 0.266853 14.2144 0.31863C14.4034 0.373062 14.5911 0.434133 14.7761 0.501842C17.7323 1.58076 19.7818 4.45373 19.8345 7.59046C19.8429 8.08212 19.9637 8.19895 20.4651 8.19983H20.8112L18.96 10.0439L17.1229 8.19939Z" fill="url(#paint2_linear_346_641)"/>
<path d="M7.94621 16.8121C7.78954 16.8121 7.62845 16.8121 7.4678 16.8121C7.06286 16.8152 6.91107 16.9613 6.91771 17.3626C6.93479 19.0319 7.44388 20.659 8.38124 22.0403C9.09804 23.1097 10.0457 24.0047 11.1543 24.6592C11.2314 24.703 11.3039 24.7545 11.3707 24.8128C10.2856 24.6117 9.2619 24.1615 8.38035 23.4976C6.34165 21.9599 5.27951 19.9117 5.19395 17.3529C5.18112 16.9621 5.04038 16.8161 4.65669 16.8121C4.48896 16.8121 4.32123 16.8121 4.18359 16.8121L6.0649 14.93L7.94621 16.8121Z" fill="url(#paint3_linear_346_641)"/>
<path d="M3.46772 9.08314V9.90228H2.6242C2.6242 9.3584 2.58437 8.81142 2.63527 8.27241C2.68616 7.73339 3.16634 7.36741 3.72086 7.33466C3.99126 7.31873 4.19528 7.37582 4.41257 7.57054C5.34814 8.40915 6.74661 8.42862 7.67598 7.58249C8.04684 7.24615 8.40355 7.29528 8.78237 7.42538C9.20811 7.57142 9.45993 7.91218 9.48781 8.35472C9.51923 8.86276 9.49533 9.37256 9.49533 9.90361H8.64695V9.08049H7.78131V9.90759H4.34221V9.08314H3.46772Z" fill="url(#paint4_linear_346_641)"/>
<path d="M16.3965 22.8298H15.5477C15.5477 22.2713 15.5034 21.7146 15.5601 21.1685C15.6154 20.6343 16.0912 20.2861 16.6359 20.2542C16.9055 20.2383 17.1104 20.2918 17.3285 20.4874C18.2632 21.3282 19.64 21.3234 20.6035 20.5157C20.7225 20.4157 20.8624 20.2529 20.9836 20.2604C21.2965 20.2807 21.6275 20.3303 21.9081 20.4609C22.2321 20.6118 22.3949 20.9388 22.41 21.2995C22.4286 21.8004 22.4148 22.3018 22.4148 22.8218H21.5665V22.0013H20.7013V22.8262H17.2622V21.9974H16.3965V22.8298Z" fill="url(#paint5_linear_346_641)"/>
<path d="M7.77522 3.45358C7.77522 3.62352 7.78098 3.7939 7.77522 3.96383C7.75581 4.39784 7.57368 4.80862 7.26509 5.11441C6.95649 5.42021 6.54406 5.5986 6.10989 5.61407C5.19734 5.63796 4.40162 4.95026 4.34453 4.04747C4.31576 3.59431 4.30868 3.12832 4.38347 2.68356C4.52952 1.8184 5.33187 1.24309 6.19795 1.31169C6.62133 1.34942 7.01598 1.54173 7.30659 1.85191C7.59719 2.16209 7.76339 2.56842 7.77346 2.99334C7.77744 3.14513 7.77346 3.29781 7.77346 3.45004L7.77522 3.45358Z" fill="url(#paint6_linear_346_641)"/>
<path d="M17.2514 16.3687C17.2514 16.2165 17.2483 16.0642 17.2514 15.912C17.2753 15.0101 17.9953 14.2693 18.884 14.2303C19.7987 14.1905 20.5993 14.8499 20.6776 15.7624C20.7241 16.2256 20.7128 16.6929 20.644 17.1533C20.4984 18.0282 19.6744 18.6137 18.8056 18.5278C18.3825 18.4847 17.9901 18.2872 17.7033 17.9731C17.4165 17.659 17.2555 17.2502 17.2509 16.8249C17.2487 16.6732 17.2514 16.5209 17.2514 16.3687Z" fill="url(#paint7_linear_346_641)"/>
<path d="M2.39453 10.7914H9.7029C8.05704 12.2712 4.74804 12.7 2.39453 10.7914Z" fill="url(#paint8_linear_346_641)"/>
<path d="M17.9453 19.8581C18.2086 19.4815 18.5158 19.3713 18.9884 19.3594C19.4699 19.3492 19.7408 19.5081 19.9966 19.8409C19.5518 20.3834 18.5401 20.3962 17.9453 19.8581Z" fill="url(#paint9_linear_346_641)"/>
<path d="M7.07365 6.95365C6.47752 7.47009 5.5809 7.46567 5.03125 6.94081C5.15871 6.79478 5.27775 6.63944 5.41804 6.50624C5.47027 6.45667 5.57073 6.4403 5.6495 6.43986C5.78227 6.43986 5.9261 6.5027 6.0478 6.46951C6.52665 6.33719 6.83644 6.54828 7.07365 6.95365Z" fill="url(#paint10_linear_346_641)"/>
</g>
<defs>
<linearGradient id="paint0_linear_346_641" x1="18.9732" y1="12.9314" x2="18.9732" y2="24.9996" gradientUnits="userSpaceOnUse">
<stop stop-color="#FF8D00"/>
<stop offset="1" stop-color="#FFA500"/>
</linearGradient>
<linearGradient id="paint1_linear_346_641" x1="6.0441" y1="0.000595093" x2="6.0441" y2="10.2089" gradientUnits="userSpaceOnUse">
<stop stop-color="#FF8D00"/>
<stop offset="1" stop-color="#FFA500"/>
</linearGradient>
<linearGradient id="paint2_linear_346_641" x1="17.2415" y1="0.182327" x2="17.2415" y2="10.0439" gradientUnits="userSpaceOnUse">
<stop stop-color="#FF8D00"/>
<stop offset="1" stop-color="#FFA500"/>
</linearGradient>
<linearGradient id="paint3_linear_346_641" x1="7.77715" y1="14.93" x2="7.77715" y2="24.8128" gradientUnits="userSpaceOnUse">
<stop stop-color="#FF8D00"/>
<stop offset="1" stop-color="#FFA500"/>
</linearGradient>
<linearGradient id="paint4_linear_346_641" x1="6.0567" y1="7.32661" x2="6.0567" y2="9.90759" gradientUnits="userSpaceOnUse">
<stop stop-color="#FF8D00"/>
<stop offset="1" stop-color="#FFA500"/>
</linearGradient>
<linearGradient id="paint5_linear_346_641" x1="18.9755" y1="20.2516" x2="18.9755" y2="22.8298" gradientUnits="userSpaceOnUse">
<stop stop-color="#FF8D00"/>
<stop offset="1" stop-color="#FFA500"/>
</linearGradient>
<linearGradient id="paint6_linear_346_641" x1="6.051" y1="1.30615" x2="6.051" y2="5.61467" gradientUnits="userSpaceOnUse">
<stop stop-color="#FF8D00"/>
<stop offset="1" stop-color="#FFA500"/>
</linearGradient>
<linearGradient id="paint7_linear_346_641" x1="18.9778" y1="14.2286" x2="18.9778" y2="18.5362" gradientUnits="userSpaceOnUse">
<stop stop-color="#FF8D00"/>
<stop offset="1" stop-color="#FFA500"/>
</linearGradient>
<linearGradient id="paint8_linear_346_641" x1="6.04872" y1="10.7914" x2="6.04872" y2="12.0671" gradientUnits="userSpaceOnUse">
<stop stop-color="#FF8D00"/>
<stop offset="1" stop-color="#FFA500"/>
</linearGradient>
<linearGradient id="paint9_linear_346_641" x1="18.9709" y1="19.3589" x2="18.9709" y2="20.2548" gradientUnits="userSpaceOnUse">
<stop stop-color="#FF8D00"/>
<stop offset="1" stop-color="#FFA500"/>
</linearGradient>
<linearGradient id="paint10_linear_346_641" x1="6.05245" y1="6.43013" x2="6.05245" y2="7.33774" gradientUnits="userSpaceOnUse">
<stop stop-color="#FF8D00"/>
<stop offset="1" stop-color="#FFA500"/>
</linearGradient>
<clipPath id="clip0_346_641">
<rect width="25" height="25" fill="white"/>
</clipPath>
</defs>
</svg>
