<svg width="194" height="48" viewBox="0 0 194 48" fill="none" xmlns="http://www.w3.org/2000/svg">
<g filter="url(#filter0_d_228_17007)">
<rect x="2" y="1" width="190" height="44" rx="8" fill="white"/>
<path d="M34.6584 11.3709C34.387 11.6581 34.2266 12.1041 34.2266 12.6818V33.3182C34.2266 33.8964 34.3871 34.3419 34.6584 34.6291L34.7274 34.6964L46.2875 23.1364V23.0001V22.8636L34.7274 11.3032L34.6584 11.3709Z" fill="url(#paint0_linear_228_17007)"/>
<path d="M50.1422 26.9914L46.2891 23.1364V23.0001V22.8636L50.1431 19.0096L50.2299 19.0592L54.7954 21.6533C56.0995 22.3941 56.0995 23.6064 54.7954 24.3478L50.2299 26.9419L50.1422 26.9914Z" fill="url(#paint1_linear_228_17007)"/>
<path d="M50.2302 26.9413L46.2893 23.0001L34.6602 34.6291C35.0901 35.0841 35.7996 35.1405 36.5992 34.6864L50.2302 26.9413Z" fill="url(#paint2_linear_228_17007)"/>
<path d="M50.2302 19.0587L36.5992 11.3136C35.7996 10.8595 35.0901 10.9159 34.6602 11.3709L46.2893 23.0001L50.2302 19.0587Z" fill="url(#paint3_linear_228_17007)"/>
<path d="M77.9432 21.0795C77.8485 20.7727 77.7178 20.4981 77.5511 20.2557C77.3883 20.0095 77.1913 19.7992 76.9602 19.625C76.733 19.4508 76.4716 19.3201 76.1761 19.233C75.8807 19.142 75.5587 19.0966 75.2102 19.0966C74.5852 19.0966 74.0284 19.2538 73.5398 19.5682C73.0511 19.8826 72.6667 20.3447 72.3864 20.9545C72.1098 21.5606 71.9716 22.2992 71.9716 23.1705C71.9716 24.0492 72.1098 24.7936 72.3864 25.4034C72.6629 26.0133 73.0473 26.4773 73.5398 26.7955C74.0322 27.1098 74.6042 27.267 75.2557 27.267C75.8466 27.267 76.358 27.1534 76.7898 26.9261C77.2254 26.6989 77.5606 26.3769 77.7955 25.9602C78.0303 25.5398 78.1477 25.0473 78.1477 24.483L78.625 24.5568H75.4659V22.9091H80.1875V24.3068C80.1875 25.303 79.9754 26.1648 79.5511 26.892C79.1269 27.6193 78.5436 28.1799 77.8011 28.5739C77.0587 28.964 76.2064 29.1591 75.2443 29.1591C74.1723 29.1591 73.2311 28.9186 72.4205 28.4375C71.6136 27.9527 70.983 27.2652 70.5284 26.375C70.0777 25.4811 69.8523 24.4205 69.8523 23.1932C69.8523 22.2538 69.9848 21.4148 70.25 20.6761C70.5189 19.9375 70.8939 19.3106 71.375 18.7955C71.8561 18.2765 72.4205 17.8826 73.0682 17.6136C73.7159 17.3409 74.4205 17.2045 75.1818 17.2045C75.8258 17.2045 76.4261 17.2992 76.983 17.4886C77.5398 17.6742 78.0341 17.9394 78.4659 18.2841C78.9015 18.6288 79.2595 19.0379 79.5398 19.5114C79.8201 19.9848 80.0038 20.5076 80.0909 21.0795H77.9432ZM85.9418 29.1705C85.0895 29.1705 84.3509 28.983 83.7259 28.608C83.1009 28.233 82.616 27.7083 82.2713 27.0341C81.9304 26.3598 81.7599 25.572 81.7599 24.6705C81.7599 23.7689 81.9304 22.9792 82.2713 22.3011C82.616 21.6231 83.1009 21.0966 83.7259 20.7216C84.3509 20.3466 85.0895 20.1591 85.9418 20.1591C86.794 20.1591 87.5327 20.3466 88.1577 20.7216C88.7827 21.0966 89.2656 21.6231 89.6065 22.3011C89.9512 22.9792 90.1236 23.7689 90.1236 24.6705C90.1236 25.572 89.9512 26.3598 89.6065 27.0341C89.2656 27.7083 88.7827 28.233 88.1577 28.608C87.5327 28.983 86.794 29.1705 85.9418 29.1705ZM85.9531 27.5227C86.4152 27.5227 86.8016 27.3958 87.1122 27.142C87.4228 26.8845 87.6539 26.5398 87.8054 26.108C87.9607 25.6761 88.0384 25.1951 88.0384 24.6648C88.0384 24.1307 87.9607 23.6477 87.8054 23.2159C87.6539 22.7803 87.4228 22.4337 87.1122 22.1761C86.8016 21.9186 86.4152 21.7898 85.9531 21.7898C85.4796 21.7898 85.0857 21.9186 84.7713 22.1761C84.4607 22.4337 84.2277 22.7803 84.0724 23.2159C83.9209 23.6477 83.8452 24.1307 83.8452 24.6648C83.8452 25.1951 83.9209 25.6761 84.0724 26.108C84.2277 26.5398 84.4607 26.8845 84.7713 27.142C85.0857 27.3958 85.4796 27.5227 85.9531 27.5227ZM95.6761 29.1705C94.8239 29.1705 94.0852 28.983 93.4602 28.608C92.8352 28.233 92.3504 27.7083 92.0057 27.0341C91.6648 26.3598 91.4943 25.572 91.4943 24.6705C91.4943 23.7689 91.6648 22.9792 92.0057 22.3011C92.3504 21.6231 92.8352 21.0966 93.4602 20.7216C94.0852 20.3466 94.8239 20.1591 95.6761 20.1591C96.5284 20.1591 97.267 20.3466 97.892 20.7216C98.517 21.0966 99 21.6231 99.3409 22.3011C99.6856 22.9792 99.858 23.7689 99.858 24.6705C99.858 25.572 99.6856 26.3598 99.3409 27.0341C99 27.7083 98.517 28.233 97.892 28.608C97.267 28.983 96.5284 29.1705 95.6761 29.1705ZM95.6875 27.5227C96.1496 27.5227 96.536 27.3958 96.8466 27.142C97.1572 26.8845 97.3883 26.5398 97.5398 26.108C97.6951 25.6761 97.7727 25.1951 97.7727 24.6648C97.7727 24.1307 97.6951 23.6477 97.5398 23.2159C97.3883 22.7803 97.1572 22.4337 96.8466 22.1761C96.536 21.9186 96.1496 21.7898 95.6875 21.7898C95.214 21.7898 94.8201 21.9186 94.5057 22.1761C94.1951 22.4337 93.9621 22.7803 93.8068 23.2159C93.6553 23.6477 93.5795 24.1307 93.5795 24.6648C93.5795 25.1951 93.6553 25.6761 93.8068 26.108C93.9621 26.5398 94.1951 26.8845 94.5057 27.142C94.8201 27.3958 95.214 27.5227 95.6875 27.5227ZM105.399 32.4545C104.661 32.4545 104.026 32.3542 103.496 32.1534C102.965 31.9564 102.539 31.6913 102.217 31.358C101.895 31.0246 101.672 30.6553 101.547 30.25L103.399 29.8011C103.482 29.9716 103.604 30.1402 103.763 30.3068C103.922 30.4773 104.136 30.6174 104.405 30.7273C104.678 30.8409 105.02 30.8977 105.433 30.8977C106.017 30.8977 106.5 30.7557 106.882 30.4716C107.265 30.1913 107.456 29.7292 107.456 29.0852V27.4318H107.354C107.248 27.6439 107.092 27.8617 106.888 28.0852C106.687 28.3087 106.42 28.4962 106.087 28.6477C105.757 28.7992 105.342 28.875 104.842 28.875C104.172 28.875 103.564 28.7178 103.018 28.4034C102.477 28.0852 102.045 27.6117 101.723 26.983C101.405 26.3504 101.246 25.5587 101.246 24.608C101.246 23.6496 101.405 22.8409 101.723 22.1818C102.045 21.5189 102.479 21.017 103.024 20.6761C103.57 20.3314 104.178 20.1591 104.848 20.1591C105.359 20.1591 105.78 20.2462 106.109 20.4205C106.443 20.5909 106.708 20.7973 106.905 21.0398C107.102 21.2784 107.251 21.5038 107.354 21.7159H107.467V20.2727H109.496V29.142C109.496 29.8883 109.318 30.5057 108.962 30.9943C108.606 31.483 108.119 31.8485 107.501 32.0909C106.884 32.3333 106.183 32.4545 105.399 32.4545ZM105.416 27.2614C105.852 27.2614 106.223 27.1553 106.53 26.9432C106.837 26.7311 107.07 26.4261 107.229 26.0284C107.388 25.6307 107.467 25.1534 107.467 24.5966C107.467 24.0473 107.388 23.5663 107.229 23.1534C107.073 22.7405 106.842 22.4205 106.536 22.1932C106.232 21.9621 105.859 21.8466 105.416 21.8466C104.958 21.8466 104.575 21.9659 104.268 22.2045C103.962 22.4432 103.731 22.7708 103.575 23.1875C103.42 23.6004 103.342 24.0701 103.342 24.5966C103.342 25.1307 103.42 25.5985 103.575 26C103.734 26.3977 103.967 26.7083 104.274 26.9318C104.585 27.1515 104.965 27.2614 105.416 27.2614ZM113.661 17.3636V29H111.604V17.3636H113.661ZM119.639 29.1705C118.764 29.1705 118.009 28.9886 117.372 28.625C116.74 28.2576 116.253 27.7386 115.912 27.0682C115.571 26.3939 115.401 25.6004 115.401 24.6875C115.401 23.7898 115.571 23.0019 115.912 22.3239C116.257 21.642 116.738 21.1117 117.355 20.733C117.973 20.3504 118.698 20.1591 119.531 20.1591C120.069 20.1591 120.577 20.2462 121.054 20.4205C121.535 20.5909 121.959 20.8561 122.327 21.2159C122.698 21.5758 122.99 22.0341 123.202 22.5909C123.414 23.1439 123.52 23.803 123.52 24.5682V25.1989H116.366V23.8125H121.548C121.545 23.4186 121.459 23.0682 121.293 22.7614C121.126 22.4508 120.893 22.2064 120.594 22.0284C120.298 21.8504 119.954 21.7614 119.56 21.7614C119.139 21.7614 118.77 21.8636 118.452 22.0682C118.134 22.2689 117.885 22.5341 117.707 22.8636C117.533 23.1894 117.444 23.5473 117.44 23.9375V25.1477C117.44 25.6553 117.533 26.0909 117.719 26.4545C117.904 26.8144 118.164 27.0909 118.497 27.2841C118.83 27.4735 119.221 27.5682 119.668 27.5682C119.967 27.5682 120.238 27.5265 120.48 27.4432C120.723 27.3561 120.933 27.2292 121.111 27.0625C121.289 26.8958 121.423 26.6894 121.514 26.4432L123.435 26.6591C123.313 27.1667 123.082 27.6098 122.741 27.9886C122.404 28.3636 121.973 28.6553 121.446 28.8636C120.92 29.0682 120.317 29.1705 119.639 29.1705ZM129.32 29V17.3636H133.683C134.577 17.3636 135.327 17.5303 135.933 17.8636C136.543 18.197 137.003 18.6553 137.314 19.2386C137.628 19.8182 137.786 20.4773 137.786 21.2159C137.786 21.9621 137.628 22.625 137.314 23.2045C137 23.7841 136.536 24.2405 135.922 24.5739C135.308 24.9034 134.553 25.0682 133.655 25.0682H130.763V23.3352H133.371C133.893 23.3352 134.321 23.2443 134.655 23.0625C134.988 22.8807 135.234 22.6307 135.393 22.3125C135.556 21.9943 135.638 21.6288 135.638 21.2159C135.638 20.803 135.556 20.4394 135.393 20.125C135.234 19.8106 134.986 19.5663 134.649 19.392C134.316 19.214 133.886 19.125 133.359 19.125H131.428V29H129.32ZM141.582 17.3636V29H139.526V17.3636H141.582ZM146.209 29.1761C145.656 29.1761 145.158 29.0777 144.714 28.8807C144.275 28.6799 143.927 28.3845 143.669 27.9943C143.415 27.6042 143.288 27.1231 143.288 26.5511C143.288 26.0587 143.379 25.6515 143.561 25.3295C143.743 25.0076 143.991 24.75 144.305 24.5568C144.62 24.3636 144.974 24.2178 145.368 24.1193C145.766 24.017 146.177 23.9432 146.601 23.8977C147.112 23.8447 147.527 23.7973 147.845 23.7557C148.163 23.7102 148.394 23.642 148.538 23.5511C148.686 23.4564 148.76 23.3106 148.76 23.1136V23.0795C148.76 22.6515 148.633 22.3201 148.379 22.0852C148.125 21.8504 147.76 21.733 147.283 21.733C146.779 21.733 146.379 21.8428 146.084 22.0625C145.792 22.2822 145.595 22.5417 145.493 22.8409L143.572 22.5682C143.724 22.0379 143.974 21.5947 144.322 21.2386C144.671 20.8788 145.097 20.6098 145.601 20.4318C146.105 20.25 146.661 20.1591 147.271 20.1591C147.692 20.1591 148.11 20.2083 148.527 20.3068C148.944 20.4053 149.324 20.5682 149.669 20.7955C150.014 21.0189 150.29 21.3239 150.499 21.7102C150.711 22.0966 150.817 22.5795 150.817 23.1591V29H148.839V27.8011H148.771C148.646 28.0436 148.47 28.2708 148.243 28.483C148.019 28.6913 147.737 28.8598 147.396 28.9886C147.059 29.1136 146.663 29.1761 146.209 29.1761ZM146.743 27.6648C147.156 27.6648 147.514 27.5833 147.817 27.4205C148.12 27.2538 148.353 27.0341 148.516 26.7614C148.682 26.4886 148.766 26.1913 148.766 25.8693V24.8409C148.701 24.8939 148.591 24.9432 148.436 24.9886C148.285 25.0341 148.114 25.0739 147.925 25.108C147.735 25.142 147.548 25.1723 147.362 25.1989C147.177 25.2254 147.016 25.2481 146.879 25.267C146.572 25.3087 146.298 25.3769 146.055 25.4716C145.813 25.5663 145.622 25.6989 145.482 25.8693C145.341 26.036 145.271 26.2519 145.271 26.517C145.271 26.8958 145.41 27.1818 145.686 27.375C145.963 27.5682 146.315 27.6648 146.743 27.6648ZM153.851 32.2727C153.571 32.2727 153.311 32.25 153.072 32.2045C152.838 32.1629 152.65 32.1136 152.51 32.0568L152.987 30.4545C153.286 30.5417 153.554 30.5833 153.788 30.5795C154.023 30.5758 154.23 30.5019 154.408 30.358C154.589 30.2178 154.743 29.983 154.868 29.6534L155.044 29.1818L151.879 20.2727H154.061L156.072 26.8636H156.163L158.18 20.2727H160.368L156.874 30.0568C156.711 30.5189 156.495 30.9148 156.226 31.2443C155.957 31.5777 155.627 31.8314 155.237 32.0057C154.851 32.1837 154.389 32.2727 153.851 32.2727Z" fill="#344054"/>
<rect x="2.5" y="1.5" width="189" height="43" rx="7.5" stroke="#D0D5DD"/>
</g>
<defs>
<filter id="filter0_d_228_17007" x="0" y="0" width="194" height="48" filterUnits="userSpaceOnUse" color-interpolation-filters="sRGB">
<feFlood flood-opacity="0" result="BackgroundImageFix"/>
<feColorMatrix in="SourceAlpha" type="matrix" values="0 0 0 0 0 0 0 0 0 0 0 0 0 0 0 0 0 0 127 0" result="hardAlpha"/>
<feOffset dy="1"/>
<feGaussianBlur stdDeviation="1"/>
<feColorMatrix type="matrix" values="0 0 0 0 0.0627451 0 0 0 0 0.0941176 0 0 0 0 0.156863 0 0 0 0.05 0"/>
<feBlend mode="normal" in2="BackgroundImageFix" result="effect1_dropShadow_228_17007"/>
<feBlend mode="normal" in="SourceGraphic" in2="effect1_dropShadow_228_17007" result="shape"/>
</filter>
<linearGradient id="paint0_linear_228_17007" x1="45.2624" y1="12.4643" x2="29.6028" y2="28.1238" gradientUnits="userSpaceOnUse">
<stop stop-color="#00A0FF"/>
<stop offset="0.0066" stop-color="#00A2FF"/>
<stop offset="0.2601" stop-color="#00BEFF"/>
<stop offset="0.5122" stop-color="#00D2FF"/>
<stop offset="0.7604" stop-color="#00DFFF"/>
<stop offset="1" stop-color="#00E3FF"/>
</linearGradient>
<linearGradient id="paint1_linear_228_17007" x1="56.4933" y1="23.0005" x2="33.9154" y2="23.0005" gradientUnits="userSpaceOnUse">
<stop stop-color="#FFE000"/>
<stop offset="0.4087" stop-color="#FFBD00"/>
<stop offset="0.7754" stop-color="#FFA600"/>
<stop offset="1" stop-color="#FF9C00"/>
</linearGradient>
<linearGradient id="paint2_linear_228_17007" x1="48.0888" y1="25.1416" x2="26.8532" y2="46.3772" gradientUnits="userSpaceOnUse">
<stop stop-color="#FF3743"/>
<stop offset="1" stop-color="#E30864"/>
</linearGradient>
<linearGradient id="paint3_linear_228_17007" x1="31.7321" y1="4.50168" x2="41.2146" y2="13.9843" gradientUnits="userSpaceOnUse">
<stop stop-color="#00A06F"/>
<stop offset="0.0685" stop-color="#00A86E"/>
<stop offset="0.4762" stop-color="#00CF6E"/>
<stop offset="0.8009" stop-color="#00E76D"/>
<stop offset="1" stop-color="#00EF6D"/>
</linearGradient>
</defs>
</svg>
