<svg width="18" height="18" viewBox="0 0 18 18" fill="none" xmlns="http://www.w3.org/2000/svg">
<path d="M9.16588 17.9577C5.79921 17.9577 2.76589 16.0993 1.21589 13.1077C1.19089 13.0827 1.17421 13.0494 1.15755 13.016C0.524214 11.7494 0.199219 10.3993 0.199219 8.99935C0.199219 7.59935 0.524214 6.24934 1.15755 4.98268C2.69088 1.93268 5.75755 0.0410156 9.15755 0.0410156C11.4409 0.0410156 13.5159 0.849339 15.1575 2.37434C15.2825 2.49101 15.3575 2.64935 15.3575 2.82435C15.3575 2.99935 15.2909 3.15769 15.1659 3.28269L12.8159 5.58268C12.5742 5.81601 12.1992 5.82435 11.9492 5.59102C11.4242 5.09935 10.5159 4.51601 9.15755 4.51601C7.44089 4.51601 5.86588 5.54936 5.15755 7.15769C5.09922 7.29102 5.04921 7.41601 4.99921 7.55767C4.84088 8.04101 4.76588 8.53269 4.76588 9.00769C4.76588 9.48269 4.84921 9.95768 4.99921 10.4327C4.99921 10.441 5.00755 10.4494 5.00755 10.466C5.60755 12.2827 7.27422 13.4993 9.15755 13.4993C10.1492 13.4993 10.9992 13.2577 11.6909 12.7743C12.3242 12.3327 12.7242 11.741 12.9409 11.2077H9.16588C8.82421 11.2077 8.54088 10.9243 8.54088 10.5827V7.49102C8.54088 7.14935 8.82421 6.86602 9.16588 6.86602H16.9909C17.2825 6.86602 17.5325 7.06601 17.5992 7.34934C17.7325 7.93267 17.7909 8.48269 17.7909 9.19102C17.7909 11.841 16.8409 14.1827 15.1076 15.7827C13.5659 17.1994 11.5075 17.9577 9.16588 17.9577ZM2.23255 12.3743C2.25755 12.4077 2.28255 12.4494 2.29922 12.491C3.60755 15.0827 6.24088 16.7077 9.16588 16.7077C11.1909 16.7077 12.9492 16.066 14.2575 14.8577C15.7325 13.4993 16.5409 11.4827 16.5409 9.18268C16.5409 8.76602 16.5242 8.43268 16.4742 8.10768H9.79088V9.94936H13.7575C13.9325 9.94936 14.1075 10.0244 14.2242 10.1577C14.3409 10.291 14.3992 10.4744 14.3742 10.6494C14.2659 11.5827 13.6825 12.8993 12.4075 13.791C11.5075 14.416 10.4159 14.741 9.15755 14.741C6.74922 14.741 4.61589 13.191 3.83255 10.8743C3.83255 10.866 3.82422 10.8577 3.82422 10.8493C3.61588 10.241 3.51588 9.62436 3.51588 9.00769C3.51588 8.39936 3.61588 7.78267 3.81588 7.16601C3.87422 6.98267 3.94088 6.81601 4.01588 6.64934C4.93255 4.59101 6.94922 3.26601 9.15755 3.26601C10.5826 3.26601 11.6325 3.76602 12.3492 4.29102L13.8075 2.86603C12.4909 1.83269 10.8909 1.29102 9.15755 1.29102C6.23255 1.29102 3.59088 2.91602 2.27422 5.54102C1.73255 6.63269 1.44922 7.79935 1.44922 8.99935C1.45755 10.1743 1.71588 11.3077 2.23255 12.3743Z" fill="#DEDEDE"/>
</svg>
