<svg width="20" height="20" viewBox="0 0 20 20" fill="none" xmlns="http://www.w3.org/2000/svg">
<path d="M18.1173 9.22435C18.0757 8.79935 17.7173 8.48268 17.2923 8.48268H11.0007C10.5423 8.48268 10.1673 8.85768 10.1673 9.31601V10.741C10.1673 11.1994 10.5423 11.5744 11.0007 11.5744H14.759C14.6673 12.341 14.1673 13.4994 13.059 14.2744C12.3507 14.766 11.409 15.1077 10.1673 15.1077C10.109 15.1077 10.059 15.1077 10.0007 15.0993C7.87565 15.0327 6.07566 13.6077 5.42566 11.6494C5.25066 11.1244 5.15065 10.5743 5.15065 9.99935C5.15065 9.42435 5.25065 8.86601 5.41732 8.34934C5.46732 8.19934 5.52565 8.04936 5.59232 7.89936C6.35899 6.17436 8.03399 4.95769 10.0007 4.89935C10.0507 4.89102 10.109 4.89101 10.1673 4.89101C11.359 4.89101 12.2507 5.28267 12.8757 5.716C13.2007 5.941 13.634 5.89101 13.9173 5.61601L15.0757 4.48269C15.4423 4.12435 15.409 3.516 14.9923 3.216C13.6673 2.241 12.0507 1.66602 10.1673 1.66602C10.109 1.66602 10.059 1.66602 10.0007 1.67436C6.80899 1.73269 4.06732 3.58269 2.72565 6.25769C2.15898 7.39102 1.83398 8.65768 1.83398 9.99935C1.83398 11.341 2.15898 12.6077 2.72565 13.741H2.73399C4.07565 16.416 6.81732 18.266 10.0007 18.3243C10.059 18.3327 10.109 18.3327 10.1673 18.3327C12.4173 18.3327 14.309 17.591 15.684 16.316C17.259 14.8577 18.1673 12.7243 18.1673 10.1827C18.1673 9.82435 18.1507 9.51602 18.1173 9.22435Z" fill="#FFA500"/>
</svg>
