<svg width="65" height="65" viewBox="0 0 65 65" fill="none" xmlns="http://www.w3.org/2000/svg">
<rect x="0.5" y="0.5" width="64" height="64" rx="8.5" fill="#FFA500" stroke="#FFA500"/>
<path d="M20.8666 19.4173C20.5614 19.7404 20.3809 20.242 20.3809 20.892V44.1079C20.3809 44.7585 20.5614 45.2596 20.8666 45.5827L20.9443 45.6584L33.9494 32.6534V32.5V32.3466L20.9443 19.3411L20.8666 19.4173Z" fill="#EEEEEE"/>
<path d="M38.284 36.9902L33.9492 32.6533V32.5V32.3465L38.285 28.0107L38.3827 28.0665L43.5188 30.9849C44.9859 31.8183 44.9859 33.1821 43.5188 34.0161L38.3827 36.9345L38.284 36.9902Z" fill="#EEEEEE"/>
<path d="M38.3825 36.934L33.949 32.5L20.8662 45.5827C21.3499 46.0946 22.1481 46.158 23.0477 45.6471L38.3825 36.934Z" fill="white"/>
<path d="M38.3825 28.066L23.0477 19.3528C22.1481 18.8419 21.3499 18.9053 20.8662 19.4173L33.949 32.5L38.3825 28.066Z" fill="white"/>
</svg>
