<svg width="50" height="50" viewBox="0 0 50 50" fill="none" xmlns="http://www.w3.org/2000/svg">
<path d="M40.625 50H9.375C4.19688 50 0 45.8031 0 40.625V9.375C0 4.19688 4.19688 0 9.375 0H40.625C45.8031 0 50 4.19688 50 9.375V40.625C50 45.8031 45.8031 50 40.625 50Z" fill="#FFA500" fill-opacity="0.15"/>
<path d="M22.944 14.197C24.877 13.83 26.9094 13.9844 28.7596 14.657C30.2692 15.2042 31.6582 16.085 32.7896 17.225C32.6688 17.332 32.5594 17.451 32.444 17.5636C32.36 17.6506 32.2692 17.731 32.1904 17.8228C32.189 17.8246 32.186 17.828 32.1844 17.8296C32.1666 17.8488 32.1488 17.868 32.1314 17.8872C32.1306 17.888 32.129 17.8894 32.128 17.8902C32.0262 17.9708 31.9384 18.0676 31.8504 18.1626C31.8488 18.1644 31.8456 18.1676 31.844 18.1692C31.7818 18.2226 31.7236 18.2806 31.67 18.3426C31.6684 18.3442 31.6652 18.3474 31.6636 18.349C31.6228 18.3838 31.5844 18.4212 31.5508 18.463C31.5486 18.4654 31.5442 18.47 31.542 18.4724C31.535 18.4796 31.5208 18.4938 31.5138 18.5008C31.5114 18.503 31.5066 18.5074 31.5044 18.5096C31.4274 18.5748 31.357 18.6478 31.29 18.723C31.2884 18.7246 31.2852 18.7278 31.2836 18.7294C31.258 18.7528 31.2332 18.777 31.21 18.8026C31.2084 18.8044 31.2054 18.8076 31.2038 18.8092C31.1856 18.8268 31.1678 18.8446 31.1508 18.8628C31.1492 18.8644 31.146 18.8678 31.1446 18.8694C31.1262 18.8888 31.1084 18.9082 31.0908 18.9276C31.0902 18.9282 31.0892 18.9292 31.0886 18.9298C31.069 18.9476 31.0498 18.9654 31.0308 18.9834C31.0292 18.985 31.0258 18.988 31.0242 18.9896C31.0056 19.007 30.9876 19.0248 30.97 19.0428C30.9684 19.0444 30.965 19.0476 30.9634 19.0492C30.9376 19.0724 30.9136 19.0974 30.8902 19.123C30.8886 19.1244 30.8854 19.1276 30.8838 19.1292C30.5738 19.4262 30.2736 19.7338 29.9706 20.038C29.7742 19.8676 29.593 19.6782 29.3794 19.5286C29.3776 19.527 29.3738 19.524 29.372 19.5226C29.1552 19.3366 28.915 19.1792 28.6734 19.027C27.7046 18.4316 26.5876 18.0782 25.4526 18.0106C25.2432 17.9852 25.0318 18.005 24.8214 17.9982C24.694 17.9904 24.5688 18.0196 24.4416 18.0194C23.5666 18.0898 22.7054 18.327 21.9174 18.7144C21.6966 18.8266 21.4746 18.9406 21.2712 19.0828C21.2692 19.084 21.2654 19.0864 21.2636 19.0878C21.112 19.1762 20.9644 19.2742 20.8306 19.3878C20.8302 19.388 20.8294 19.3888 20.829 19.389C20.8032 19.4072 20.7776 19.4254 20.752 19.4436C20.75 19.445 20.7462 19.4476 20.7442 19.449C20.4928 19.631 20.262 19.8408 20.0438 20.0616C18.8518 21.2474 18.109 22.8778 18.0144 24.558C17.9858 24.7708 18.0056 24.9862 17.999 25.2002C18.0242 25.8864 18.1394 26.5712 18.3568 27.2236C18.5676 27.858 18.8706 28.4618 19.2528 29.0102C19.3012 29.0784 19.3472 29.1484 19.4036 29.2102C19.4052 29.2122 19.408 29.216 19.4094 29.2178C19.4478 29.2802 19.4916 29.3392 19.5436 29.391C19.545 29.393 19.548 29.3966 19.5496 29.3984C19.6768 29.5724 19.8244 29.731 19.9736 29.8862C20.8502 30.7956 21.978 31.4602 23.1988 31.7848C23.7282 31.9274 24.2748 32.0008 24.8216 32.022C25.0136 32.016 25.2068 32.033 25.3982 32.0106C25.85 31.983 26.3034 31.9242 26.74 31.8018C26.7696 31.7976 26.7998 31.7946 26.8298 31.7916C27.0554 32.0322 27.2936 32.2604 27.5248 32.4956C28.1114 33.0824 28.6976 33.6694 29.2844 34.2562C29.4874 34.463 29.699 34.6616 29.8938 34.8764C28.185 35.7302 26.2486 36.1134 24.3432 35.9958C22.5378 35.8926 20.7622 35.3282 19.2258 34.3748C18.1726 33.7236 17.2302 32.8932 16.4522 31.9296C15.5602 30.833 14.8882 29.5606 14.4742 28.2094C14.486 28.1878 14.4958 28.1652 14.5056 28.143L14.4902 28.1724C14.4816 28.1684 14.4644 28.1606 14.4558 28.1566C14.4196 27.9758 14.359 27.8008 14.3164 27.6214C13.8178 25.5772 13.9162 23.3884 14.6092 21.4006C15.281 19.4546 16.5166 17.7098 18.123 16.423C19.5162 15.3024 21.1866 14.5284 22.944 14.197ZM14.6806 28.7174C14.6974 28.766 14.6954 28.8304 14.7392 28.8642C14.7222 28.8146 14.7214 28.7538 14.6806 28.7174ZM14.9612 29.4086C14.9454 29.4304 14.9644 29.4812 14.9944 29.4746C15.0054 29.4524 14.9894 29.4042 14.9612 29.4086ZM15.0818 29.6682C15.0656 29.69 15.0846 29.74 15.1142 29.7352C15.1256 29.713 15.1102 29.6644 15.0818 29.6682ZM24.3858 33.5844C24.3958 33.5948 24.3958 33.5948 24.3858 33.5844V33.5844ZM25.6266 33.5848C25.637 33.5948 25.637 33.5948 25.6266 33.5848V33.5848ZM20.2268 34.8062C20.2204 34.8356 20.2698 34.856 20.2922 34.8404C20.2964 34.8118 20.2488 34.795 20.2268 34.8062ZM20.4864 34.926C20.4788 34.9556 20.5308 34.9766 20.5524 34.959C20.5544 34.9306 20.5086 34.9158 20.4864 34.926ZM29.5062 34.925C29.5132 34.991 29.5638 34.8902 29.5062 34.925V34.925ZM20.5852 34.9658C20.596 34.9762 20.596 34.9762 20.5852 34.9658V34.9658ZM29.367 34.9838C29.3704 35.05 29.4262 34.9518 29.367 34.9838V34.9838ZM20.6662 35.0052C20.6556 35.0352 20.727 35.0624 20.7338 35.0296C20.7208 35.0086 20.6892 34.9934 20.6662 35.0052ZM29.2698 35.0236C29.2526 35.023 29.2066 35.0518 29.2398 35.0646C29.2714 35.0804 29.3288 35.0148 29.2698 35.0236ZM20.8068 35.0634C20.8082 35.1298 20.8672 35.034 20.8068 35.0634V35.0634ZM29.1284 35.0828C29.1258 35.149 29.1902 35.0564 29.1284 35.0828V35.0828ZM20.907 35.104C20.9062 35.1702 20.9684 35.0764 20.907 35.104V35.104ZM20.9658 35.1268C20.9558 35.1574 21.0284 35.1836 21.0342 35.1498C21.02 35.13 20.9888 35.1154 20.9658 35.1268ZM29.0272 35.1236C29.0256 35.19 29.0886 35.0964 29.0272 35.1236V35.1236ZM28.9696 35.1444C28.9522 35.1434 28.9048 35.174 28.9404 35.1852C28.9718 35.2 29.0292 35.134 28.9696 35.1444ZM21.067 35.167C21.0562 35.1976 21.1294 35.2242 21.1356 35.1904C21.121 35.1704 21.0904 35.1566 21.067 35.167ZM28.7576 35.2416C28.806 35.2254 28.8736 35.2278 28.904 35.1814C28.8552 35.2 28.7954 35.2034 28.7576 35.2416ZM21.1662 35.2044C21.1704 35.2706 21.2254 35.1726 21.1662 35.2044V35.2044ZM21.2252 35.2248C21.2292 35.2906 21.2846 35.1932 21.2252 35.2248V35.2248ZM21.2862 35.2476C21.2968 35.258 21.2968 35.258 21.2862 35.2476V35.2476ZM28.7066 35.245C28.7126 35.311 28.7646 35.2112 28.7066 35.245V35.245ZM21.3272 35.2632C21.3256 35.3294 21.3888 35.2362 21.3272 35.2632V35.2632ZM28.6474 35.2634C28.6488 35.3294 28.7078 35.2338 28.6474 35.2634V35.2634ZM21.387 35.2842C21.389 35.35 21.4478 35.2542 21.387 35.2842V35.2842ZM21.4466 35.3042C21.4508 35.3704 21.5058 35.2722 21.4466 35.3042V35.3042ZM28.5324 35.3052C28.5088 35.3078 28.4878 35.3158 28.4694 35.329C28.474 35.3832 28.6076 35.3046 28.5324 35.3052ZM21.5064 35.3242C21.5098 35.3902 21.5662 35.2932 21.5064 35.3242V35.3242ZM21.5672 35.3434C21.5684 35.4092 21.628 35.3144 21.5672 35.3434V35.3434ZM28.4082 35.3448C28.4108 35.411 28.4678 35.3138 28.4082 35.3448V35.3448ZM21.6264 35.3652C21.633 35.4308 21.6846 35.3314 21.6264 35.3652V35.3652ZM28.3476 35.3644C28.3504 35.4302 28.4076 35.3334 28.3476 35.3644V35.3644ZM21.6892 35.385C21.6936 35.4112 21.7084 35.4162 21.7336 35.4C21.7288 35.3732 21.714 35.3684 21.6892 35.385ZM28.2872 35.3838C28.2874 35.4498 28.3482 35.355 28.2872 35.3838V35.3838ZM21.7656 35.4056C21.7724 35.4714 21.8236 35.3718 21.7656 35.4056V35.4056ZM28.226 35.4044C28.2294 35.4702 28.2858 35.3732 28.226 35.4044V35.4044ZM21.826 35.4236C21.8278 35.4898 21.8866 35.3942 21.826 35.4236V35.4236ZM28.1492 35.4268C28.1544 35.4526 28.1692 35.4566 28.1936 35.4388C28.188 35.4124 28.1732 35.4084 28.1492 35.4268ZM21.886 35.4442C21.8894 35.51 21.946 35.413 21.886 35.4442V35.4442ZM28.0868 35.4446C28.0904 35.5104 28.1466 35.4134 28.0868 35.4446V35.4446ZM21.95 35.4652C21.9534 35.4912 21.9678 35.496 21.9934 35.4794C21.9898 35.4528 21.9752 35.448 21.95 35.4652ZM28.0092 35.4664C28.0144 35.4924 28.0294 35.4966 28.0538 35.4792C28.0482 35.4526 28.0334 35.4484 28.0092 35.4664ZM22.0286 35.4858C22.0328 35.5118 22.0476 35.5166 22.0726 35.4998C22.0678 35.473 22.0532 35.4684 22.0286 35.4858ZM27.9466 35.4844C27.9514 35.5502 28.0058 35.4518 27.9466 35.4844V35.4844ZM22.1064 35.5044C22.1086 35.5702 22.1666 35.4742 22.1064 35.5044V35.5044ZM27.8688 35.5058C27.8738 35.5318 27.8888 35.536 27.9134 35.5184C27.9078 35.492 27.8928 35.4878 27.8688 35.5058ZM22.1686 35.5258C22.1728 35.552 22.1874 35.5566 22.2126 35.5398C22.208 35.5132 22.1934 35.5086 22.1686 35.5258ZM27.7896 35.526C27.7954 35.5518 27.8102 35.5558 27.8344 35.538C27.8284 35.5116 27.8134 35.5076 27.7896 35.526ZM22.2486 35.547C22.2546 35.5722 22.2698 35.576 22.2944 35.5582C22.2882 35.5324 22.2728 35.5286 22.2486 35.547ZM27.7104 35.5436C27.7132 35.5698 27.7276 35.5754 27.7536 35.56C27.7504 35.5332 27.736 35.5276 27.7104 35.5436ZM22.3278 35.5664C22.3334 35.5922 22.3484 35.596 22.3728 35.5782C22.367 35.552 22.352 35.548 22.3278 35.5664ZM27.6292 35.5648C27.6328 35.591 27.6472 35.5958 27.6728 35.5794C27.6688 35.5528 27.6542 35.5478 27.6292 35.5648ZM22.4088 35.5856C22.4138 35.6116 22.4288 35.6158 22.4536 35.5988C22.4482 35.5724 22.4332 35.568 22.4088 35.5856ZM27.5498 35.5856C27.5538 35.6116 27.5686 35.6162 27.594 35.5994C27.5896 35.5728 27.5748 35.5682 27.5498 35.5856ZM22.4886 35.606C22.4938 35.6316 22.5088 35.636 22.5338 35.6188C22.5284 35.5926 22.5134 35.5884 22.4886 35.606ZM27.4692 35.6058C27.4738 35.6318 27.4886 35.6362 27.5134 35.619C27.5084 35.5924 27.4936 35.588 27.4692 35.6058ZM22.5876 35.626C22.592 35.6516 22.607 35.656 22.6326 35.639C22.628 35.6128 22.613 35.6086 22.5876 35.626ZM27.3694 35.6268C27.3646 35.6566 27.436 35.6568 27.4328 35.627C27.4116 35.6116 27.3906 35.6114 27.3694 35.6268ZM22.6684 35.6468C22.6676 35.675 22.7176 35.673 22.7328 35.6572C22.7326 35.629 22.6836 35.631 22.6684 35.6468ZM27.2882 35.6462C27.2934 35.6718 27.3086 35.676 27.3338 35.659C27.3282 35.6328 27.313 35.6286 27.2882 35.6462ZM22.7678 35.6674C22.7748 35.6926 22.7902 35.696 22.814 35.6774C22.8068 35.6516 22.7912 35.6484 22.7678 35.6674ZM27.19 35.6654C27.1946 35.6912 27.2094 35.6958 27.2348 35.6792C27.2298 35.6528 27.215 35.6482 27.19 35.6654ZM22.8676 35.6876C22.867 35.7166 22.9184 35.7116 22.9334 35.696C22.9318 35.6682 22.8828 35.6724 22.8676 35.6876ZM27.0886 35.6874C27.0872 35.7158 27.1378 35.7132 27.1532 35.6978C27.1532 35.6694 27.1038 35.6718 27.0886 35.6874ZM22.9688 35.707C22.9636 35.737 23.0352 35.7358 23.033 35.7068C23.0116 35.6916 22.9902 35.6916 22.9688 35.707ZM26.9688 35.7074C26.9742 35.7348 27.049 35.7378 27.0536 35.7082C27.029 35.6922 26.9936 35.6932 26.9688 35.7074ZM23.0688 35.7268C23.0722 35.7568 23.1472 35.7558 23.154 35.7286C23.129 35.7142 23.0938 35.7118 23.0688 35.7268ZM26.8684 35.727C26.8682 35.7552 26.918 35.7526 26.9334 35.7366C26.932 35.7086 26.8834 35.7112 26.8684 35.727ZM23.1886 35.747C23.1918 35.7772 23.2686 35.7766 23.2726 35.7486C23.2478 35.735 23.213 35.7316 23.1886 35.747ZM26.7486 35.7462C26.7472 35.7744 26.7978 35.7724 26.8138 35.7578C26.8142 35.7292 26.7644 35.7314 26.7486 35.7462ZM23.3092 35.7678C23.3136 35.7964 23.3902 35.7976 23.3928 35.7678C23.3684 35.753 23.3334 35.753 23.3092 35.7678ZM26.6094 35.7688C26.6148 35.7968 26.6904 35.7966 26.6942 35.767C26.669 35.7524 26.6338 35.7542 26.6094 35.7688ZM23.4488 35.7884C23.4574 35.805 23.475 35.8114 23.5012 35.8078C23.5118 35.8106 23.5776 35.8 23.5426 35.784C23.5122 35.7778 23.4768 35.7724 23.4488 35.7884ZM26.469 35.7886C26.4738 35.8168 26.5504 35.8182 26.5552 35.7882C26.5294 35.7736 26.4946 35.7758 26.469 35.7886ZM23.6078 35.8094C23.613 35.838 23.688 35.835 23.6934 35.8072C23.6678 35.793 23.6322 35.7936 23.6078 35.8094ZM26.3098 35.808C26.322 35.836 26.403 35.838 26.414 35.8082C26.3824 35.793 26.3416 35.7956 26.3098 35.808ZM23.7686 35.8286C23.7758 35.8554 23.8226 35.844 23.8446 35.8474C23.8546 35.8498 23.9164 35.8376 23.8818 35.8246C23.8448 35.8202 23.8034 35.8124 23.7686 35.8286ZM26.1312 35.829C26.138 35.8534 26.1816 35.8442 26.2024 35.8478C26.214 35.8508 26.2744 35.838 26.2408 35.822C26.2048 35.8158 26.1654 35.816 26.1312 35.829ZM23.9366 35.8532C23.997 35.8704 24.063 35.8712 24.1226 35.8492C24.0606 35.842 23.9974 35.8378 23.9366 35.8532ZM25.8988 35.853C25.959 35.8676 26.0244 35.8738 26.0828 35.8484C26.0216 35.842 25.9592 35.8386 25.8988 35.853ZM24.1786 35.8684C24.2498 35.8944 24.3292 35.8904 24.4012 35.8692C24.3272 35.8616 24.2524 35.8604 24.1786 35.8684ZM25.6186 35.8728C25.686 35.8814 25.7626 35.902 25.8258 35.8674C25.7566 35.861 25.6868 35.86 25.6186 35.8728ZM24.4976 35.8896C24.5248 35.8968 24.5522 35.9034 24.5808 35.9044C24.7876 35.9102 24.9944 35.8936 25.2014 35.904C25.302 35.9002 25.406 35.918 25.5044 35.8896C25.3568 35.8764 25.2088 35.8868 25.0612 35.8862C24.8732 35.89 24.6852 35.8746 24.4976 35.8896Z" fill="#FFA500"/>
<path d="M24.8409 24.0178C24.8497 24.0172 24.8675 24.0158 24.8763 24.0152C25.1647 24.0054 25.4533 24.0126 25.7417 24.0104C28.5077 24.0116 31.2739 24.0096 34.0399 24.0136C34.3079 24.0082 34.5687 24.136 34.7489 24.3306C34.9121 24.4986 35.0049 24.7282 35.0195 24.9606C35.0181 25.0402 35.0021 25.1186 34.9975 25.198C34.9887 25.2532 34.9737 25.307 34.9589 25.361C34.9325 25.378 34.9225 25.4076 34.9211 25.4378C34.8987 25.491 34.8681 25.5406 34.8341 25.5872C34.8329 25.589 34.8303 25.5924 34.8291 25.5942C34.8127 25.6152 34.7975 25.637 34.7821 25.6586C34.7559 25.6628 34.7417 25.678 34.7395 25.7044C34.7275 25.7156 34.7159 25.7272 34.7045 25.7388C34.6779 25.741 34.6627 25.7552 34.6585 25.7812C34.6369 25.7966 34.6147 25.8118 34.5939 25.8276C34.5923 25.8288 34.5887 25.8312 34.5869 25.8324C34.4887 25.9026 34.3765 25.9504 34.2607 25.9824C34.2345 25.9752 34.1913 25.9688 34.1841 26.0042C33.8629 26.0138 33.5413 26.0088 33.2201 26.01C30.8999 26.0106 28.5795 26.0096 26.2593 26.0082C25.7863 26.0054 25.3131 26.0144 24.8405 26.0026C24.8295 25.9768 24.8095 25.9696 24.7807 25.9806C24.7717 25.98 24.7539 25.9786 24.7449 25.978C24.7335 25.9736 24.7109 25.9648 24.6995 25.9604C24.6015 25.9268 24.5097 25.8782 24.4235 25.8212C24.4175 25.795 24.4011 25.7826 24.3743 25.7836C24.3173 25.7302 24.2605 25.676 24.2137 25.6132C24.2123 25.6114 24.2097 25.6078 24.2085 25.6062C24.1663 25.5486 24.1319 25.486 24.0997 25.4228C24.0945 25.4116 24.0845 25.3894 24.0793 25.3784C24.0733 25.3592 24.0675 25.34 24.0619 25.3212C24.0563 25.3104 24.0451 25.2888 24.0397 25.278C24.0399 25.2686 24.0407 25.2498 24.0411 25.2406C24.0507 25.2112 24.0425 25.1918 24.0171 25.1822C24.0111 25.0316 24.0007 24.8772 24.0473 24.7312C24.1355 24.4172 24.3879 24.1582 24.6975 24.0572C24.7087 24.0524 24.7311 24.0428 24.7423 24.038C24.7515 24.0382 24.7699 24.0388 24.7791 24.0392C24.8043 24.0454 24.8247 24.0384 24.8409 24.0178Z" fill="#FFA500"/>
<path d="M32.4417 17.5636C32.5571 17.451 32.6665 17.332 32.7873 17.225C34.1207 18.5566 35.1073 20.234 35.6101 22.051C36.1411 23.9598 36.1525 26.0134 35.6255 27.9244C35.2103 29.4416 34.4627 30.8666 33.4517 32.0718C32.4763 33.2394 31.2595 34.2084 29.8915 34.8764C29.6967 34.6616 29.4851 34.463 29.2821 34.2562C28.6953 33.6694 28.1091 33.0824 27.5225 32.4956C27.2913 32.2604 27.0531 32.0322 26.8275 31.7916C26.9257 31.739 27.0381 31.7248 27.1415 31.6858C28.5397 31.24 29.7897 30.343 30.6571 29.1592C31.3075 28.2774 31.7469 27.2402 31.9263 26.1592C32.4903 26.1428 33.0553 26.1578 33.6197 26.1548C33.8169 26.1518 34.0157 26.1668 34.2113 26.1334C34.5761 26.0584 34.8931 25.7728 34.9925 25.4118C35.0091 25.3416 34.9947 25.2692 34.9953 25.198C34.9999 25.1186 35.0159 25.0402 35.0173 24.9606C35.0027 24.7282 34.9099 24.4986 34.7467 24.3306C34.5665 24.136 34.3057 24.0082 34.0377 24.0136C31.2717 24.0096 28.5055 24.0116 25.7395 24.0104C25.4511 24.0126 25.1625 24.0054 24.8741 24.0152C24.9283 24.0076 24.9825 23.9986 25.0377 23.999C26.1471 24.001 27.2567 23.998 28.3663 24.0008C28.2731 23.6446 28.0989 23.3126 27.8907 23.0104C27.3605 22.2344 26.5003 21.6946 25.5727 21.5476C25.3243 21.5028 25.0711 21.517 24.8201 21.5166C24.6161 21.5086 24.4149 21.5526 24.2163 21.5938C23.4293 21.7752 22.7097 22.239 22.2231 22.884C21.8527 23.3628 21.6109 23.9402 21.5345 24.541C21.5137 24.666 21.5151 24.7932 21.5017 24.919C21.4877 25.0598 21.5175 25.1994 21.5175 25.3402C21.5799 26.0514 21.8743 26.7378 22.3367 27.2808C22.5427 27.5216 22.7717 27.7412 22.9949 27.9658C24.2629 29.236 25.5325 30.5048 26.7997 31.776C26.7789 31.7846 26.7583 31.7932 26.7377 31.8018C26.3011 31.9242 25.8477 31.983 25.3959 32.0106C25.2045 32.033 25.0113 32.016 24.8193 32.022C24.2725 32.0008 23.7259 31.9274 23.1965 31.7848C21.9757 31.4602 20.8479 30.7956 19.9713 29.8862C19.8221 29.731 19.6745 29.5724 19.5473 29.3984C19.5457 29.3966 19.5427 29.393 19.5413 29.391C19.4893 29.3392 19.4455 29.2802 19.4071 29.2178C19.4057 29.216 19.4029 29.2122 19.4013 29.2102C19.3449 29.1484 19.2989 29.0784 19.2505 29.0102C18.8683 28.4618 18.5653 27.858 18.3545 27.2236C18.1371 26.5712 18.0219 25.8864 17.9967 25.2002C18.0033 24.9862 17.9835 24.7708 18.0121 24.558C18.1067 22.8778 18.8495 21.2474 20.0415 20.0616C20.2597 19.8408 20.4905 19.631 20.7419 19.449C20.7439 19.4476 20.7477 19.445 20.7497 19.4436C20.7753 19.4254 20.8009 19.4072 20.8267 19.389C20.8271 19.3888 20.8279 19.388 20.8283 19.3878C20.9621 19.2742 21.1097 19.1762 21.2613 19.0878C21.2631 19.0864 21.2669 19.084 21.2689 19.0828C21.4723 18.9406 21.6943 18.8266 21.9151 18.7144C22.7031 18.327 23.5643 18.0898 24.4393 18.0194C24.5665 18.0196 24.6917 17.9904 24.8191 17.9982C25.0295 18.005 25.2409 17.9852 25.4503 18.0106C26.5853 18.0782 27.7023 18.4316 28.6711 19.027C28.9127 19.1792 29.1529 19.3366 29.3697 19.5226C29.3715 19.524 29.3753 19.527 29.3771 19.5286C29.5907 19.6782 29.7719 19.8676 29.9683 20.038C30.2713 19.7338 30.5715 19.4262 30.8815 19.1292C30.8831 19.1276 30.8863 19.1244 30.8879 19.123C30.9113 19.0974 30.9353 19.0724 30.9611 19.0492C30.9627 19.0476 30.9661 19.0444 30.9677 19.0428C30.9853 19.0248 31.0033 19.007 31.0219 18.9896C31.0235 18.988 31.0269 18.985 31.0285 18.9834C31.0475 18.9654 31.0667 18.9476 31.0863 18.9298L31.0875 18.9288L31.0885 18.9276C31.1061 18.9082 31.1239 18.8888 31.1423 18.8694C31.1437 18.8678 31.1469 18.8644 31.1485 18.8628C31.1655 18.8446 31.1833 18.8268 31.2015 18.8092C31.2031 18.8076 31.2061 18.8044 31.2077 18.8026C31.2309 18.777 31.2557 18.7528 31.2813 18.7294C31.2829 18.7278 31.2861 18.7246 31.2877 18.723C31.3547 18.6478 31.4251 18.5748 31.5021 18.5096C31.5043 18.5074 31.5091 18.503 31.5115 18.5008C31.5185 18.4938 31.5327 18.4796 31.5397 18.4724C31.5419 18.47 31.5463 18.4654 31.5485 18.463C31.5821 18.4212 31.6205 18.3838 31.6613 18.349C31.6629 18.3474 31.6661 18.3442 31.6677 18.3426C31.7213 18.2806 31.7795 18.2226 31.8417 18.1692C31.8433 18.1676 31.8465 18.1644 31.8481 18.1626C31.9361 18.0676 32.0239 17.9708 32.1257 17.8902L32.1277 17.8888L32.1291 17.8872C32.1465 17.868 32.1643 17.8488 32.1821 17.8296C32.1837 17.828 32.1867 17.8246 32.1881 17.8228C32.2669 17.731 32.3577 17.6506 32.4417 17.5636ZM31.1635 30.6626C31.1701 30.7286 31.2211 30.6284 31.1635 30.6626V30.6626ZM31.5833 30.6616C31.5905 30.7276 31.6407 30.627 31.5833 30.6616V30.6616ZM31.8051 30.764C31.8139 30.7746 31.8139 30.7746 31.8051 30.764V30.764ZM32.0053 30.9642C32.0149 30.974 32.0149 30.974 32.0053 30.9642V30.9642ZM30.6591 31.1658C30.6321 31.2272 30.7255 31.1644 30.6591 31.1658V31.1658ZM30.6593 31.5862C30.6305 31.6466 30.7257 31.5866 30.6593 31.5862V31.5862ZM30.8251 31.887C30.8339 31.8976 30.8339 31.8976 30.8251 31.887V31.887ZM30.9635 32.0066C30.9739 32.016 30.9739 32.016 30.9635 32.0066V32.0066ZM31.8055 32.0034C31.8131 32.0148 31.8131 32.0148 31.8055 32.0034V32.0034ZM31.5845 32.1032C31.5907 32.1692 31.6423 32.0692 31.5845 32.1032V32.1032Z" fill="#FFA500" fill-opacity="0.38"/>
<path d="M24.7773 24.0392C24.7895 24.0116 24.8101 24.0046 24.8391 24.0178C24.8229 24.0384 24.8025 24.0454 24.7773 24.0392Z" fill="#686868"/>
<path d="M24.0147 25.1822C24.0401 25.1918 24.0483 25.2112 24.0387 25.2406C24.0147 25.228 24.0067 25.2084 24.0147 25.1822Z" fill="#686868"/>
<path d="M34.9219 25.4378C34.9233 25.4076 34.9333 25.378 34.9597 25.361C34.9733 25.3928 34.9641 25.4388 34.9219 25.4378Z" fill="#686868"/>
<path d="M34.7383 25.7044C34.7405 25.678 34.7547 25.6628 34.7809 25.6586C34.7823 25.6886 34.7681 25.7038 34.7383 25.7044Z" fill="#686868"/>
<path d="M34.6562 25.7812C34.6605 25.7552 34.6757 25.741 34.7023 25.7388C34.7013 25.7688 34.6859 25.7828 34.6562 25.7812Z" fill="#686868"/>
<path d="M24.375 25.7836C24.4018 25.7826 24.4182 25.795 24.4242 25.8212C24.395 25.825 24.3786 25.8126 24.375 25.7836Z" fill="#686868"/>
<path d="M24.7812 25.9806C24.8101 25.9696 24.83 25.9768 24.841 26.0026C24.8148 26.0108 24.7949 26.0036 24.7812 25.9806Z" fill="#686868"/>
<path d="M34.1836 26.0042C34.1908 25.9688 34.234 25.9752 34.2602 25.9824C34.242 26.0068 34.211 26.0122 34.1836 26.0042Z" fill="#686868"/>
<path d="M14.6797 28.7174C14.7205 28.7538 14.7213 28.8146 14.7383 28.8642C14.6945 28.8304 14.6965 28.766 14.6797 28.7174Z" fill="#686868"/>
<path d="M14.9588 29.4086C14.987 29.4042 15.003 29.4524 14.992 29.4746C14.962 29.4812 14.943 29.4304 14.9588 29.4086Z" fill="#686868"/>
<path d="M15.0802 29.6682C15.1086 29.6644 15.124 29.713 15.1126 29.7352C15.083 29.74 15.064 29.69 15.0802 29.6682Z" fill="#686868"/>
<path d="M24.3867 33.5844C24.3967 33.5948 24.3967 33.5948 24.3867 33.5844V33.5844Z" fill="#686868"/>
<path d="M25.625 33.5848C25.6354 33.5948 25.6354 33.5948 25.625 33.5848V33.5848Z" fill="#686868"/>
<path d="M20.2271 34.8062C20.2491 34.795 20.2967 34.8118 20.2925 34.8404C20.2701 34.856 20.2207 34.8356 20.2271 34.8062Z" fill="#686868"/>
<path d="M20.4851 34.926C20.5073 34.9158 20.5531 34.9306 20.5511 34.959C20.5295 34.9766 20.4775 34.9556 20.4851 34.926Z" fill="#686868"/>
<path d="M29.5039 34.925C29.5109 34.991 29.5615 34.8902 29.5039 34.925V34.925Z" fill="#686868"/>
<path d="M20.5859 34.9658C20.5967 34.9762 20.5967 34.9762 20.5859 34.9658V34.9658Z" fill="#686868"/>
<path d="M29.3672 34.9838C29.3706 35.05 29.4264 34.9518 29.3672 34.9838V34.9838Z" fill="#686868"/>
<path d="M20.6651 35.0052C20.6881 34.9934 20.7197 35.0086 20.7327 35.0296C20.7259 35.0624 20.6545 35.0352 20.6651 35.0052Z" fill="#686868"/>
<path d="M29.2683 35.0236C29.3273 35.0148 29.2699 35.0804 29.2383 35.0646C29.2051 35.0518 29.2511 35.023 29.2683 35.0236Z" fill="#686868"/>
<path d="M20.8047 35.0634C20.8061 35.1298 20.8651 35.034 20.8047 35.0634V35.0634Z" fill="#686868"/>
<path d="M29.129 35.0828C29.1264 35.149 29.1908 35.0564 29.129 35.0828V35.0828Z" fill="#686868"/>
<path d="M20.9063 35.104C20.9055 35.1702 20.9677 35.0764 20.9063 35.104V35.104Z" fill="#686868"/>
<path d="M20.9658 35.1268C20.9888 35.1154 21.02 35.13 21.0342 35.1498C21.0284 35.1836 20.9558 35.1574 20.9658 35.1268Z" fill="#686868"/>
<path d="M29.0274 35.1236C29.0258 35.19 29.0888 35.0964 29.0274 35.1236V35.1236Z" fill="#686868"/>
<path d="M28.9679 35.1444C29.0275 35.134 28.9701 35.2 28.9387 35.1852C28.9031 35.174 28.9505 35.1434 28.9679 35.1444Z" fill="#686868"/>
<path d="M21.0675 35.167C21.0909 35.1566 21.1215 35.1704 21.1361 35.1904C21.1299 35.2242 21.0567 35.1976 21.0675 35.167Z" fill="#686868"/>
<path d="M28.7578 35.2416C28.7956 35.2034 28.8554 35.2 28.9042 35.1814C28.8738 35.2278 28.8062 35.2254 28.7578 35.2416Z" fill="#686868"/>
<path d="M21.1641 35.2044C21.1683 35.2706 21.2233 35.1726 21.1641 35.2044V35.2044Z" fill="#686868"/>
<path d="M21.2227 35.2248C21.2267 35.2906 21.2821 35.1932 21.2227 35.2248V35.2248Z" fill="#686868"/>
<path d="M21.2852 35.2476C21.2958 35.258 21.2958 35.258 21.2852 35.2476V35.2476Z" fill="#686868"/>
<path d="M28.707 35.245C28.713 35.311 28.765 35.2112 28.707 35.245V35.245Z" fill="#686868"/>
<path d="M21.3282 35.2632C21.3266 35.3294 21.3898 35.2362 21.3282 35.2632V35.2632Z" fill="#686868"/>
<path d="M28.6484 35.2634C28.6498 35.3294 28.7088 35.2338 28.6484 35.2634V35.2634Z" fill="#686868"/>
<path d="M21.3867 35.2842C21.3887 35.35 21.4475 35.2542 21.3867 35.2842V35.2842Z" fill="#686868"/>
<path d="M21.4453 35.3042C21.4495 35.3704 21.5045 35.2722 21.4453 35.3042V35.3042Z" fill="#686868"/>
<path d="M28.5318 35.3052C28.607 35.3046 28.4734 35.3832 28.4688 35.329C28.4872 35.3158 28.5082 35.3078 28.5318 35.3052Z" fill="#686868"/>
<path d="M21.5039 35.3242C21.5073 35.3902 21.5637 35.2932 21.5039 35.3242V35.3242Z" fill="#686868"/>
<path d="M21.5664 35.3434C21.5676 35.4092 21.6272 35.3144 21.5664 35.3434V35.3434Z" fill="#686868"/>
<path d="M28.4062 35.3448C28.4088 35.411 28.4658 35.3138 28.4062 35.3448V35.3448Z" fill="#686868"/>
<path d="M21.625 35.3652C21.6316 35.4308 21.6832 35.3314 21.625 35.3652V35.3652Z" fill="#686868"/>
<path d="M28.3477 35.3644C28.3505 35.4302 28.4077 35.3334 28.3477 35.3644V35.3644Z" fill="#686868"/>
<path d="M21.6875 35.385C21.7123 35.3684 21.7271 35.3732 21.7319 35.4C21.7067 35.4162 21.6919 35.4112 21.6875 35.385Z" fill="#686868"/>
<path d="M28.2852 35.3838C28.2854 35.4498 28.3462 35.355 28.2852 35.3838V35.3838Z" fill="#686868"/>
<path d="M21.7656 35.4056C21.7724 35.4714 21.8236 35.3718 21.7656 35.4056V35.4056Z" fill="#686868"/>
<path d="M28.2266 35.4044C28.23 35.4702 28.2864 35.3732 28.2266 35.4044V35.4044Z" fill="#686868"/>
<path d="M21.8242 35.4236C21.826 35.4898 21.8848 35.3942 21.8242 35.4236V35.4236Z" fill="#686868"/>
<path d="M28.1484 35.4268C28.1724 35.4084 28.1872 35.4124 28.1928 35.4388C28.1684 35.4566 28.1536 35.4526 28.1484 35.4268Z" fill="#686868"/>
<path d="M21.8867 35.4442C21.8901 35.51 21.9467 35.413 21.8867 35.4442V35.4442Z" fill="#686868"/>
<path d="M28.0859 35.4446C28.0895 35.5104 28.1457 35.4134 28.0859 35.4446V35.4446Z" fill="#686868"/>
<path d="M21.9492 35.4652C21.9744 35.448 21.989 35.4528 21.9926 35.4794C21.967 35.496 21.9526 35.4912 21.9492 35.4652Z" fill="#686868"/>
<path d="M28.0078 35.4664C28.032 35.4484 28.0468 35.4526 28.0524 35.4792C28.028 35.4966 28.013 35.4924 28.0078 35.4664Z" fill="#686868"/>
<path d="M22.0273 35.4858C22.0519 35.4684 22.0665 35.473 22.0713 35.4998C22.0463 35.5166 22.0315 35.5118 22.0273 35.4858Z" fill="#686868"/>
<path d="M27.9453 35.4844C27.9501 35.5502 28.0045 35.4518 27.9453 35.4844V35.4844Z" fill="#686868"/>
<path d="M22.1055 35.5044C22.1077 35.5702 22.1657 35.4742 22.1055 35.5044V35.5044Z" fill="#686868"/>
<path d="M27.8672 35.5058C27.8912 35.4878 27.9062 35.492 27.9118 35.5184C27.8872 35.536 27.8722 35.5318 27.8672 35.5058Z" fill="#686868"/>
<path d="M22.168 35.5258C22.1928 35.5086 22.2074 35.5132 22.212 35.5398C22.1868 35.5566 22.1722 35.552 22.168 35.5258Z" fill="#686868"/>
<path d="M27.7891 35.526C27.8129 35.5076 27.8279 35.5116 27.8339 35.538C27.8097 35.5558 27.7949 35.5518 27.7891 35.526Z" fill="#686868"/>
<path d="M22.2461 35.547C22.2703 35.5286 22.2857 35.5324 22.2919 35.5582C22.2673 35.576 22.2521 35.5722 22.2461 35.547Z" fill="#686868"/>
<path d="M27.7109 35.5436C27.7365 35.5276 27.7509 35.5332 27.7541 35.56C27.7281 35.5754 27.7137 35.5698 27.7109 35.5436Z" fill="#686868"/>
<path d="M22.3281 35.5664C22.3523 35.548 22.3673 35.552 22.3731 35.5782C22.3487 35.596 22.3337 35.5922 22.3281 35.5664Z" fill="#686868"/>
<path d="M27.6289 35.5648C27.6539 35.5478 27.6685 35.5528 27.6725 35.5794C27.6469 35.5958 27.6325 35.591 27.6289 35.5648Z" fill="#686868"/>
<path d="M22.4062 35.5856C22.4306 35.568 22.4456 35.5724 22.451 35.5988C22.4262 35.6158 22.4112 35.6116 22.4062 35.5856Z" fill="#686868"/>
<path d="M27.5508 35.5856C27.5758 35.5682 27.5906 35.5728 27.595 35.5994C27.5696 35.6162 27.5548 35.6116 27.5508 35.5856Z" fill="#686868"/>
<path d="M22.4883 35.606C22.5131 35.5884 22.5281 35.5926 22.5335 35.6188C22.5085 35.636 22.4935 35.6316 22.4883 35.606Z" fill="#686868"/>
<path d="M27.4688 35.6058C27.4932 35.588 27.508 35.5924 27.513 35.619C27.4882 35.6362 27.4734 35.6318 27.4688 35.6058Z" fill="#686868"/>
<path d="M22.5859 35.626C22.6113 35.6086 22.6263 35.6128 22.6309 35.639C22.6053 35.656 22.5903 35.6516 22.5859 35.626Z" fill="#686868"/>
<path d="M27.3674 35.6268C27.3886 35.6114 27.4096 35.6116 27.4308 35.627C27.434 35.6568 27.3626 35.6566 27.3674 35.6268Z" fill="#686868"/>
<path d="M22.668 35.6468C22.6832 35.631 22.7322 35.629 22.7324 35.6572C22.7172 35.673 22.6672 35.675 22.668 35.6468Z" fill="#686868"/>
<path d="M27.2891 35.6462C27.3139 35.6286 27.3291 35.6328 27.3347 35.659C27.3095 35.676 27.2943 35.6718 27.2891 35.6462Z" fill="#686868"/>
<path d="M22.7656 35.6674C22.789 35.6484 22.8046 35.6516 22.8118 35.6774C22.788 35.696 22.7726 35.6926 22.7656 35.6674Z" fill="#686868"/>
<path d="M27.1875 35.6654C27.2125 35.6482 27.2273 35.6528 27.2323 35.6792C27.2069 35.6958 27.1921 35.6912 27.1875 35.6654Z" fill="#686868"/>
<path d="M22.8672 35.6876C22.8824 35.6724 22.9314 35.6682 22.933 35.696C22.918 35.7116 22.8666 35.7166 22.8672 35.6876Z" fill="#686868"/>
<path d="M27.086 35.6874C27.1012 35.6718 27.1506 35.6694 27.1506 35.6978C27.1352 35.7132 27.0846 35.7158 27.086 35.6874Z" fill="#686868"/>
<path d="M22.969 35.707C22.9904 35.6916 23.0118 35.6916 23.0332 35.7068C23.0354 35.7358 22.9638 35.737 22.969 35.707Z" fill="#686868"/>
<path d="M26.9688 35.7074C26.9936 35.6932 27.0289 35.6922 27.0535 35.7082C27.0489 35.7378 26.9742 35.7348 26.9688 35.7074Z" fill="#686868"/>
<path d="M23.0664 35.7268C23.0914 35.7118 23.1266 35.7142 23.1516 35.7286C23.1448 35.7558 23.0698 35.7568 23.0664 35.7268Z" fill="#686868"/>
<path d="M26.8672 35.727C26.8822 35.7112 26.9308 35.7086 26.9322 35.7366C26.9168 35.7526 26.867 35.7552 26.8672 35.727Z" fill="#686868"/>
<path d="M23.1875 35.747C23.2119 35.7316 23.2467 35.735 23.2715 35.7486C23.2675 35.7766 23.1907 35.7772 23.1875 35.747Z" fill="#686868"/>
<path d="M26.7461 35.7462C26.7619 35.7314 26.8117 35.7292 26.8113 35.7578C26.7953 35.7724 26.7447 35.7744 26.7461 35.7462Z" fill="#686868"/>
<path d="M23.3086 35.7678C23.3328 35.753 23.3678 35.753 23.3922 35.7678C23.3896 35.7976 23.313 35.7964 23.3086 35.7678Z" fill="#686868"/>
<path d="M26.6094 35.7688C26.6338 35.7542 26.669 35.7524 26.6942 35.767C26.6904 35.7966 26.6148 35.7968 26.6094 35.7688Z" fill="#686868"/>
<path d="M23.4492 35.7884C23.4772 35.7724 23.5126 35.7778 23.543 35.784C23.578 35.8 23.5122 35.8106 23.5016 35.8078C23.4754 35.8114 23.4578 35.805 23.4492 35.7884Z" fill="#686868"/>
<path d="M26.4688 35.7886C26.4944 35.7758 26.5291 35.7736 26.5549 35.7882C26.5501 35.8182 26.4736 35.8168 26.4688 35.7886Z" fill="#686868"/>
<path d="M23.6055 35.8094C23.6299 35.7936 23.6655 35.793 23.6911 35.8072C23.6857 35.835 23.6107 35.838 23.6055 35.8094Z" fill="#686868"/>
<path d="M26.3086 35.808C26.3404 35.7956 26.3812 35.793 26.4128 35.8082C26.4018 35.838 26.3208 35.836 26.3086 35.808Z" fill="#686868"/>
<path d="M23.7695 35.8286C23.8043 35.8124 23.8457 35.8202 23.8827 35.8246C23.9173 35.8376 23.8555 35.8498 23.8455 35.8474C23.8235 35.844 23.7767 35.8554 23.7695 35.8286Z" fill="#686868"/>
<path d="M26.1289 35.829C26.1631 35.816 26.2025 35.8158 26.2385 35.822C26.2721 35.838 26.2117 35.8508 26.2001 35.8478C26.1793 35.8442 26.1357 35.8534 26.1289 35.829Z" fill="#686868"/>
<path d="M23.9375 35.8532C23.9983 35.8378 24.0615 35.842 24.1235 35.8492C24.0639 35.8712 23.9979 35.8704 23.9375 35.8532Z" fill="#686868"/>
<path d="M25.8984 35.853C25.9588 35.8386 26.0212 35.842 26.0824 35.8484C26.024 35.8738 25.9586 35.8676 25.8984 35.853Z" fill="#686868"/>
<path d="M24.1758 35.8684C24.2496 35.8604 24.3244 35.8616 24.3984 35.8692C24.3264 35.8904 24.247 35.8944 24.1758 35.8684Z" fill="#686868"/>
<path d="M25.6172 35.8728C25.6854 35.86 25.7552 35.861 25.8244 35.8674C25.7612 35.902 25.6846 35.8814 25.6172 35.8728Z" fill="#686868"/>
<path d="M24.4961 35.8896C24.6837 35.8746 24.8717 35.89 25.0597 35.8862C25.2073 35.8868 25.3553 35.8764 25.5029 35.8896C25.4045 35.918 25.3005 35.9002 25.1999 35.904C24.9929 35.8936 24.7861 35.9102 24.5793 35.9044C24.5507 35.9034 24.5233 35.8968 24.4961 35.8896Z" fill="#686868"/>
<path d="M32.125 17.8906C32.1261 17.8897 32.1279 17.8881 32.1288 17.8872L32.1272 17.889L32.125 17.8906Z" fill="#474747"/>
<path d="M31.0859 18.9309C31.0868 18.93 31.0883 18.9285 31.0892 18.9276L31.0877 18.9294L31.0859 18.9309Z" fill="#474747"/>
<path d="M24.2183 21.5938C24.4169 21.5526 24.6181 21.5086 24.8221 21.5166C25.0731 21.517 25.3263 21.5028 25.5747 21.5476C26.5023 21.6946 27.3625 22.2344 27.8927 23.0104C28.1009 23.3126 28.2751 23.6446 28.3683 24.0008C27.2587 23.998 26.1491 24.001 25.0397 23.999C24.9845 23.9986 24.9303 24.0076 24.8761 24.0152C24.8673 24.0158 24.8495 24.0172 24.8407 24.0178C24.8117 24.0046 24.7911 24.0116 24.7789 24.0392C24.7697 24.0388 24.7513 24.0382 24.7421 24.038C24.7309 24.0428 24.7085 24.0524 24.6973 24.0572C24.3877 24.1582 24.1353 24.4172 24.0471 24.7312C24.0005 24.8772 24.0109 25.0316 24.0169 25.1822C24.0089 25.2084 24.0169 25.228 24.0409 25.2406C24.0405 25.2498 24.0397 25.2686 24.0395 25.278C24.0449 25.2888 24.0561 25.3104 24.0617 25.3212C24.0673 25.34 24.0731 25.3592 24.0791 25.3784C24.0843 25.3894 24.0943 25.4116 24.0995 25.4228C24.1317 25.486 24.1661 25.5486 24.2083 25.6062C24.2095 25.6078 24.2121 25.6114 24.2135 25.6132C24.2603 25.676 24.3171 25.7302 24.3741 25.7836C24.3777 25.8126 24.3941 25.825 24.4233 25.8212C24.5095 25.8782 24.6013 25.9268 24.6993 25.9604C24.7107 25.9648 24.7333 25.9736 24.7447 25.978C24.7537 25.9786 24.7715 25.98 24.7805 25.9806C24.7941 26.0036 24.8141 26.0108 24.8403 26.0026C25.3129 26.0144 25.7861 26.0054 26.2591 26.0082C28.5793 26.0096 30.8997 26.0106 33.2199 26.01C33.5411 26.0088 33.8627 26.0138 34.1839 26.0042C34.2113 26.0122 34.2423 26.0068 34.2605 25.9824C34.3763 25.9504 34.4885 25.9026 34.5867 25.8324C34.5885 25.8312 34.5921 25.8288 34.5937 25.8276C34.6145 25.8118 34.6367 25.7966 34.6583 25.7812C34.6879 25.7828 34.7033 25.7688 34.7043 25.7388C34.7157 25.7272 34.7273 25.7156 34.7393 25.7044C34.7691 25.7038 34.7833 25.6886 34.7819 25.6586C34.7973 25.637 34.8125 25.6152 34.8289 25.5942C34.8301 25.5924 34.8327 25.589 34.8339 25.5872C34.8679 25.5406 34.8985 25.491 34.9209 25.4378C34.9631 25.4388 34.9723 25.3928 34.9587 25.361C34.9735 25.307 34.9885 25.2532 34.9973 25.198C34.9967 25.2692 35.0111 25.3416 34.9945 25.4118C34.8951 25.7728 34.5781 26.0584 34.2133 26.1334C34.0177 26.1668 33.8189 26.1518 33.6217 26.1548C33.0573 26.1578 32.4923 26.1428 31.9283 26.1592C31.7489 27.2402 31.3095 28.2774 30.6591 29.1592C29.7917 30.343 28.5417 31.24 27.1435 31.6858C27.0401 31.7248 26.9277 31.739 26.8295 31.7916C26.7995 31.7946 26.7693 31.7976 26.7397 31.8018C26.7603 31.7932 26.7809 31.7846 26.8017 31.776C25.5345 30.5048 24.2649 29.236 22.9969 27.9658C22.7737 27.7412 22.5447 27.5216 22.3387 27.2808C21.8763 26.7378 21.5819 26.0514 21.5195 25.3402C21.5195 25.1994 21.4897 25.0598 21.5037 24.919C21.5171 24.7932 21.5157 24.666 21.5365 24.541C21.6129 23.9402 21.8547 23.3628 22.2251 22.884C22.7117 22.239 23.4313 21.7752 24.2183 21.5938Z" fill="#FFE600" fill-opacity="0.58"/>
<path d="M31.1641 30.6626C31.1707 30.7286 31.2217 30.6284 31.1641 30.6626V30.6626Z" fill="#474747"/>
<path d="M31.5859 30.6616C31.5931 30.7276 31.6433 30.627 31.5859 30.6616V30.6616Z" fill="#474747"/>
<path d="M31.8047 30.764C31.8135 30.7746 31.8135 30.7746 31.8047 30.764V30.764Z" fill="#474747"/>
<path d="M32.0078 30.9642C32.0174 30.974 32.0174 30.974 32.0078 30.9642V30.9642Z" fill="#474747"/>
<path d="M30.6613 31.1658C30.6343 31.2272 30.7277 31.1644 30.6613 31.1658V31.1658Z" fill="#474747"/>
<path d="M30.6618 31.5862C30.633 31.6466 30.7282 31.5866 30.6618 31.5862V31.5862Z" fill="#474747"/>
<path d="M30.8242 31.887C30.833 31.8976 30.833 31.8976 30.8242 31.887V31.887Z" fill="#474747"/>
<path d="M30.9648 32.0066C30.9752 32.016 30.9752 32.016 30.9648 32.0066V32.0066Z" fill="#474747"/>
<path d="M31.8047 32.0034C31.8123 32.0148 31.8123 32.0148 31.8047 32.0034V32.0034Z" fill="#474747"/>
<path d="M31.5859 32.1032C31.5921 32.1692 31.6437 32.0692 31.5859 32.1032V32.1032Z" fill="#474747"/>
</svg>
