<svg width="24" height="24" viewBox="0 0 24 24" fill="none" xmlns="http://www.w3.org/2000/svg">
<mask id="mask0_276_282" style="mask-type:alpha" maskUnits="userSpaceOnUse" x="0" y="0" width="24" height="24">
<rect width="24" height="24" fill="#D9D9D9"/>
</mask>
<g mask="url(#mask0_276_282)">
<path d="M22.8078 9.94519C22.7688 9.73971 22.5892 9.59104 22.38 9.59104H12.2322C11.9917 9.59104 11.7968 9.78595 11.7968 10.0264V14.2058C11.7968 14.4463 11.9917 14.6412 12.2322 14.6412H17.2152C16.7102 15.6358 15.9233 16.4759 14.952 17.0456C14.0613 17.5684 13.0405 17.8448 12 17.8448C9.57583 17.8448 7.37592 16.3203 6.52561 14.0508C6.27983 13.3971 6.15522 12.7071 6.15522 12C6.15522 11.3497 6.26139 10.7105 6.47061 10.1005C7.28147 7.74068 9.5036 6.15518 12 6.15518C13.0969 6.15518 14.1656 6.46068 15.0902 7.03866C15.2485 7.13761 15.4523 7.12464 15.5967 7.00634L19.0192 4.20439C19.1198 4.12202 19.1783 3.999 19.1787 3.86907C19.1792 3.73904 19.1215 3.61568 19.0215 3.53262C17.0545 1.89946 14.5609 1 12 1C5.93457 1 1 5.93457 1 12C1 13.8195 1.45341 15.6222 2.31123 17.2132C4.23585 20.7826 7.94839 23 12 23C14.5353 23 17.0096 22.1167 18.9669 20.513C20.8972 18.9315 22.2441 16.7236 22.7594 14.2964C22.919 13.5467 23 12.774 23 12C23 11.3085 22.9353 10.6171 22.8078 9.94519ZM12 1.87072C14.1805 1.87072 16.3079 2.57871 18.048 3.87427L15.2808 6.13975C14.2822 5.57931 13.1546 5.2845 12 5.2845C9.33877 5.2845 6.94988 6.85333 5.87459 9.24553L3.17405 7.03462C4.91355 3.95483 8.21776 1.87072 12 1.87072ZM1.87072 12C1.87072 10.5139 2.19247 9.10163 2.7698 7.82898L5.55499 10.1092C5.37568 10.7216 5.2845 11.3561 5.2845 12C5.2845 12.706 5.393 13.3975 5.60685 14.0599L2.83915 16.3255C2.20489 14.9816 1.87072 13.4974 1.87072 12ZM12 22.1293C8.38848 22.1293 5.06953 20.2158 3.25307 17.1119L5.94613 14.9074C6.44045 15.938 7.18737 16.8237 8.13277 17.4908C9.2683 18.292 10.6056 18.7155 12 18.7155C13.0924 18.7155 14.1661 18.4493 15.1246 17.9447L17.9113 20.226C16.1976 21.4573 14.1221 22.1293 12 22.1293ZM21.9078 14.1154C21.451 16.2667 20.2841 18.2307 18.6115 19.6739L15.908 17.4606C16.9873 16.6865 17.8224 15.604 18.2891 14.3585C18.3392 14.2248 18.3205 14.075 18.2392 13.9577C18.1579 13.8404 18.0242 13.7704 17.8814 13.7704H12.6676V10.4617H22.013C22.0902 10.9679 22.1293 11.4838 22.1293 12C22.1293 12.7132 22.0548 13.4249 21.9078 14.1154Z" fill="black" stroke="black" stroke-width="0.6"/>
</g>
</svg>
