<svg width="588" height="287" viewBox="0 0 588 287" fill="none" xmlns="http://www.w3.org/2000/svg">
<path d="M587 1C458.836 128.734 186.949 219.4 1 227.415V274H587V1Z" fill="url(#paint0_linear_5015_11739)"/>
<path d="M1 227.415C186.949 219.4 458.836 128.734 587 1" stroke="url(#paint1_linear_5015_11739)" stroke-width="2"/>
<rect x="587" y="274" width="520" height="34" transform="rotate(-180 587 274)" fill="url(#paint2_linear_5015_11739)"/>
<path d="M333 147.333C331.527 147.333 330.333 148.527 330.333 150C330.333 151.473 331.527 152.667 333 152.667C334.473 152.667 335.667 151.473 335.667 150C335.667 148.527 334.473 147.333 333 147.333ZM332.5 152.95C332.5 153.226 332.724 153.45 333 153.45C333.276 153.45 333.5 153.226 333.5 152.95L332.5 152.95ZM333.5 158.85C333.5 158.574 333.276 158.35 333 158.35C332.724 158.35 332.5 158.574 332.5 158.85L333.5 158.85ZM332.5 164.75C332.5 165.026 332.724 165.25 333 165.25C333.276 165.25 333.5 165.026 333.5 164.75L332.5 164.75ZM333.5 170.65C333.5 170.374 333.276 170.15 333 170.15C332.724 170.15 332.5 170.374 332.5 170.65L333.5 170.65ZM332.5 176.55C332.5 176.826 332.724 177.05 333 177.05C333.276 177.05 333.5 176.826 333.5 176.55L332.5 176.55ZM333.5 182.45C333.5 182.174 333.276 181.95 333 181.95C332.724 181.95 332.5 182.174 332.5 182.45L333.5 182.45ZM332.5 188.35C332.5 188.626 332.724 188.85 333 188.85C333.276 188.85 333.5 188.626 333.5 188.35L332.5 188.35ZM333.5 194.25C333.5 193.974 333.276 193.75 333 193.75C332.724 193.75 332.5 193.974 332.5 194.25L333.5 194.25ZM332.5 200.15C332.5 200.426 332.724 200.65 333 200.65C333.276 200.65 333.5 200.426 333.5 200.15L332.5 200.15ZM333.5 206.05C333.5 205.774 333.276 205.55 333 205.55C332.724 205.55 332.5 205.774 332.5 206.05L333.5 206.05ZM332.5 211.95C332.5 212.226 332.724 212.45 333 212.45C333.276 212.45 333.5 212.226 333.5 211.95L332.5 211.95ZM333.5 217.85C333.5 217.574 333.276 217.35 333 217.35C332.724 217.35 332.5 217.574 332.5 217.85L333.5 217.85ZM332.5 223.75C332.5 224.026 332.724 224.25 333 224.25C333.276 224.25 333.5 224.026 333.5 223.75L332.5 223.75ZM333.5 229.65C333.5 229.374 333.276 229.15 333 229.15C332.724 229.15 332.5 229.374 332.5 229.65L333.5 229.65ZM332.5 235.55C332.5 235.826 332.724 236.05 333 236.05C333.276 236.05 333.5 235.826 333.5 235.55L332.5 235.55ZM333.5 241.45C333.5 241.174 333.276 240.95 333 240.95C332.724 240.95 332.5 241.174 332.5 241.45L333.5 241.45ZM332.5 247.35C332.5 247.626 332.724 247.85 333 247.85C333.276 247.85 333.5 247.626 333.5 247.35L332.5 247.35ZM333.5 253.25C333.5 252.974 333.276 252.75 333 252.75C332.724 252.75 332.5 252.974 332.5 253.25L333.5 253.25ZM332.5 259.15C332.5 259.426 332.724 259.65 333 259.65C333.276 259.65 333.5 259.426 333.5 259.15L332.5 259.15ZM333.5 265.05C333.5 264.774 333.276 264.55 333 264.55C332.724 264.55 332.5 264.774 332.5 265.05L333.5 265.05ZM332.5 150L332.5 152.95L333.5 152.95L333.5 150L332.5 150ZM332.5 158.85L332.5 164.75L333.5 164.75L333.5 158.85L332.5 158.85ZM332.5 170.65L332.5 176.55L333.5 176.55L333.5 170.65L332.5 170.65ZM332.5 182.45L332.5 188.35L333.5 188.35L333.5 182.45L332.5 182.45ZM332.5 194.25L332.5 200.15L333.5 200.15L333.5 194.25L332.5 194.25ZM332.5 206.05L332.5 211.95L333.5 211.95L333.5 206.05L332.5 206.05ZM332.5 217.85L332.5 223.75L333.5 223.75L333.5 217.85L332.5 217.85ZM332.5 229.65L332.5 235.55L333.5 235.55L333.5 229.65L332.5 229.65ZM332.5 241.45L332.5 247.35L333.5 247.35L333.5 241.45L332.5 241.45ZM332.5 253.25L332.5 259.15L333.5 259.15L333.5 253.25L332.5 253.25ZM332.5 265.05L332.5 268L333.5 268L333.5 265.05L332.5 265.05ZM333 144.667C330.054 144.667 327.667 147.054 327.667 150C327.667 152.946 330.054 155.333 333 155.333C335.946 155.333 338.333 152.946 338.333 150C338.333 147.054 335.946 144.667 333 144.667ZM332 152.95C332 153.502 332.448 153.95 333 153.95C333.552 153.95 334 153.502 334 152.95L332 152.95ZM334 158.85C334 158.298 333.552 157.85 333 157.85C332.448 157.85 332 158.298 332 158.85L334 158.85ZM332 164.75C332 165.302 332.448 165.75 333 165.75C333.552 165.75 334 165.302 334 164.75L332 164.75ZM334 170.65C334 170.098 333.552 169.65 333 169.65C332.448 169.65 332 170.098 332 170.65L334 170.65ZM332 176.55C332 177.102 332.448 177.55 333 177.55C333.552 177.55 334 177.102 334 176.55L332 176.55ZM334 182.45C334 181.898 333.552 181.45 333 181.45C332.448 181.45 332 181.898 332 182.45L334 182.45ZM332 188.35C332 188.902 332.448 189.35 333 189.35C333.552 189.35 334 188.902 334 188.35L332 188.35ZM334 194.25C334 193.698 333.552 193.25 333 193.25C332.448 193.25 332 193.698 332 194.25L334 194.25ZM332 200.15C332 200.702 332.448 201.15 333 201.15C333.552 201.15 334 200.702 334 200.15L332 200.15ZM334 206.05C334 205.498 333.552 205.05 333 205.05C332.448 205.05 332 205.498 332 206.05L334 206.05ZM332 211.95C332 212.502 332.448 212.95 333 212.95C333.552 212.95 334 212.502 334 211.95L332 211.95ZM334 217.85C334 217.298 333.552 216.85 333 216.85C332.448 216.85 332 217.298 332 217.85L334 217.85ZM332 223.75C332 224.302 332.448 224.75 333 224.75C333.552 224.75 334 224.302 334 223.75L332 223.75ZM334 229.65C334 229.098 333.552 228.65 333 228.65C332.448 228.65 332 229.098 332 229.65L334 229.65ZM332 235.55C332 236.102 332.448 236.55 333 236.55C333.552 236.55 334 236.102 334 235.55L332 235.55ZM334 241.45C334 240.898 333.552 240.45 333 240.45C332.448 240.45 332 240.898 332 241.45L334 241.45ZM332 247.35C332 247.902 332.448 248.35 333 248.35C333.552 248.35 334 247.902 334 247.35L332 247.35ZM334 253.25C334 252.698 333.552 252.25 333 252.25C332.448 252.25 332 252.698 332 253.25L334 253.25ZM332 259.15C332 259.702 332.448 260.15 333 260.15C333.552 260.15 334 259.702 334 259.15L332 259.15ZM334 265.05C334 264.498 333.552 264.05 333 264.05C332.448 264.05 332 264.498 332 265.05L334 265.05ZM332 150L332 152.95L334 152.95L334 150L332 150ZM332 158.85L332 164.75L334 164.75L334 158.85L332 158.85ZM332 170.65L332 176.55L334 176.55L334 170.65L332 170.65ZM332 182.45L332 188.35L334 188.35L334 182.45L332 182.45ZM332 194.25L332 200.15L334 200.15L334 194.25L332 194.25ZM332 206.05L332 211.95L334 211.95L334 206.05L332 206.05ZM332 217.85L332 223.75L334 223.75L334 217.85L332 217.85ZM332 229.65L332 235.55L334 235.55L334 229.65L332 229.65ZM332 241.45L332 247.35L334 247.35L334 241.45L332 241.45ZM332 253.25L332 259.15L334 259.15L334 253.25L332 253.25ZM332 265.05L332 268L334 268L334 265.05L332 265.05Z" fill="#FFA500"/>
<circle cx="333" cy="150" r="8.5" fill="#1E2329" stroke="#FFA500"/>
<rect x="219" y="62" width="136" height="63.2281" rx="5" fill="#41474E"/>
<path d="M330.802 132.961C331.601 133.907 333.06 133.907 333.859 132.961L349.185 114.799C350.282 113.498 349.358 111.509 347.656 111.509H317.005C315.304 111.509 314.38 113.498 315.477 114.799L330.802 132.961Z" fill="#282D33"/>
<rect x="219.5" y="62.5" width="135" height="62.2281" rx="4.5" fill="#282D33" stroke="url(#paint3_linear_5015_11739)"/>
<path d="M238.068 88.144C237.004 88.144 236.176 87.784 235.584 87.064C234.992 86.336 234.696 85.268 234.696 83.86C234.696 82.452 234.992 81.372 235.584 80.62C236.176 79.86 237.004 79.48 238.068 79.48C238.772 79.48 239.36 79.64 239.832 79.96C240.312 80.28 240.684 80.732 240.948 81.316L240.132 81.808C239.964 81.376 239.708 81.032 239.364 80.776C239.02 80.512 238.588 80.38 238.068 80.38C237.708 80.38 237.384 80.448 237.096 80.584C236.816 80.72 236.576 80.916 236.376 81.172C236.184 81.42 236.036 81.72 235.932 82.072C235.828 82.416 235.776 82.804 235.776 83.236V84.484C235.776 85.348 235.976 86.024 236.376 86.512C236.776 87 237.34 87.244 238.068 87.244C238.604 87.244 239.052 87.108 239.412 86.836C239.772 86.556 240.036 86.188 240.204 85.732L241.008 86.236C240.744 86.828 240.364 87.296 239.868 87.64C239.372 87.976 238.772 88.144 238.068 88.144ZM244.813 88.144C244.397 88.144 244.017 88.068 243.673 87.916C243.329 87.764 243.033 87.548 242.785 87.268C242.545 86.98 242.357 86.64 242.221 86.248C242.085 85.848 242.017 85.4 242.017 84.904C242.017 84.416 242.085 83.972 242.221 83.572C242.357 83.172 242.545 82.832 242.785 82.552C243.033 82.264 243.329 82.044 243.673 81.892C244.017 81.74 244.397 81.664 244.813 81.664C245.229 81.664 245.605 81.74 245.941 81.892C246.285 82.044 246.581 82.264 246.829 82.552C247.077 82.832 247.269 83.172 247.405 83.572C247.541 83.972 247.609 84.416 247.609 84.904C247.609 85.4 247.541 85.848 247.405 86.248C247.269 86.64 247.077 86.98 246.829 87.268C246.581 87.548 246.285 87.764 245.941 87.916C245.605 88.068 245.229 88.144 244.813 88.144ZM244.813 87.292C245.333 87.292 245.757 87.132 246.085 86.812C246.413 86.492 246.577 86.004 246.577 85.348V84.46C246.577 83.804 246.413 83.316 246.085 82.996C245.757 82.676 245.333 82.516 244.813 82.516C244.293 82.516 243.869 82.676 243.541 82.996C243.213 83.316 243.049 83.804 243.049 84.46V85.348C243.049 86.004 243.213 86.492 243.541 86.812C243.869 87.132 244.293 87.292 244.813 87.292ZM249.188 88V81.808H250.148V82.816H250.196C250.268 82.656 250.348 82.508 250.436 82.372C250.532 82.228 250.644 82.104 250.772 82C250.908 81.896 251.064 81.816 251.24 81.76C251.416 81.696 251.624 81.664 251.864 81.664C252.272 81.664 252.648 81.764 252.992 81.964C253.336 82.156 253.592 82.476 253.76 82.924H253.784C253.896 82.588 254.104 82.296 254.408 82.048C254.72 81.792 255.14 81.664 255.668 81.664C256.3 81.664 256.792 81.872 257.144 82.288C257.504 82.696 257.684 83.276 257.684 84.028V88H256.724V84.196C256.724 83.644 256.616 83.228 256.4 82.948C256.184 82.668 255.84 82.528 255.368 82.528C255.176 82.528 254.992 82.552 254.816 82.6C254.648 82.648 254.496 82.72 254.36 82.816C254.224 82.912 254.116 83.036 254.036 83.188C253.956 83.332 253.916 83.504 253.916 83.704V88H252.956V84.196C252.956 83.644 252.848 83.228 252.632 82.948C252.416 82.668 252.08 82.528 251.624 82.528C251.432 82.528 251.248 82.552 251.072 82.6C250.896 82.648 250.74 82.72 250.604 82.816C250.468 82.912 250.356 83.036 250.268 83.188C250.188 83.332 250.148 83.504 250.148 83.704V88H249.188ZM259.665 88V81.808H260.625V82.816H260.673C260.745 82.656 260.825 82.508 260.913 82.372C261.009 82.228 261.121 82.104 261.249 82C261.385 81.896 261.541 81.816 261.717 81.76C261.893 81.696 262.101 81.664 262.341 81.664C262.749 81.664 263.125 81.764 263.469 81.964C263.813 82.156 264.069 82.476 264.237 82.924H264.261C264.373 82.588 264.581 82.296 264.885 82.048C265.197 81.792 265.617 81.664 266.145 81.664C266.777 81.664 267.269 81.872 267.621 82.288C267.981 82.696 268.161 83.276 268.161 84.028V88H267.201V84.196C267.201 83.644 267.093 83.228 266.877 82.948C266.661 82.668 266.317 82.528 265.845 82.528C265.653 82.528 265.469 82.552 265.293 82.6C265.125 82.648 264.973 82.72 264.837 82.816C264.701 82.912 264.593 83.036 264.513 83.188C264.433 83.332 264.393 83.504 264.393 83.704V88H263.433V84.196C263.433 83.644 263.325 83.228 263.109 82.948C262.893 82.668 262.557 82.528 262.101 82.528C261.909 82.528 261.725 82.552 261.549 82.6C261.373 82.648 261.217 82.72 261.081 82.816C260.945 82.912 260.833 83.036 260.745 83.188C260.665 83.332 260.625 83.504 260.625 83.704V88H259.665ZM270.621 80.356C270.413 80.356 270.261 80.308 270.165 80.212C270.077 80.108 270.033 79.976 270.033 79.816V79.66C270.033 79.5 270.077 79.372 270.165 79.276C270.261 79.172 270.413 79.12 270.621 79.12C270.829 79.12 270.977 79.172 271.065 79.276C271.161 79.372 271.209 79.5 271.209 79.66V79.816C271.209 79.976 271.161 80.108 271.065 80.212C270.977 80.308 270.829 80.356 270.621 80.356ZM270.141 81.808H271.101V88H270.141V81.808ZM275.001 88.144C274.425 88.144 273.941 88.036 273.549 87.82C273.165 87.596 272.833 87.3 272.553 86.932L273.237 86.38C273.477 86.684 273.745 86.92 274.041 87.088C274.337 87.248 274.681 87.328 275.073 87.328C275.481 87.328 275.797 87.24 276.021 87.064C276.253 86.888 276.369 86.64 276.369 86.32C276.369 86.08 276.289 85.876 276.129 85.708C275.977 85.532 275.697 85.412 275.289 85.348L274.797 85.276C274.509 85.236 274.245 85.176 274.005 85.096C273.765 85.008 273.553 84.896 273.369 84.76C273.193 84.616 273.053 84.44 272.949 84.232C272.853 84.024 272.805 83.776 272.805 83.488C272.805 83.184 272.861 82.92 272.973 82.696C273.085 82.464 273.237 82.272 273.429 82.12C273.629 81.968 273.865 81.856 274.137 81.784C274.409 81.704 274.701 81.664 275.013 81.664C275.517 81.664 275.937 81.752 276.273 81.928C276.617 82.104 276.917 82.348 277.173 82.66L276.537 83.236C276.401 83.044 276.201 82.872 275.937 82.72C275.673 82.56 275.341 82.48 274.941 82.48C274.541 82.48 274.237 82.568 274.029 82.744C273.829 82.912 273.729 83.144 273.729 83.44C273.729 83.744 273.829 83.964 274.029 84.1C274.237 84.236 274.533 84.336 274.917 84.4L275.397 84.472C276.085 84.576 276.573 84.776 276.861 85.072C277.149 85.36 277.293 85.74 277.293 86.212C277.293 86.812 277.089 87.284 276.681 87.628C276.273 87.972 275.713 88.144 275.001 88.144ZM280.778 88.144C280.202 88.144 279.718 88.036 279.326 87.82C278.942 87.596 278.61 87.3 278.33 86.932L279.014 86.38C279.254 86.684 279.522 86.92 279.818 87.088C280.114 87.248 280.458 87.328 280.85 87.328C281.258 87.328 281.574 87.24 281.798 87.064C282.03 86.888 282.146 86.64 282.146 86.32C282.146 86.08 282.066 85.876 281.906 85.708C281.754 85.532 281.474 85.412 281.066 85.348L280.574 85.276C280.286 85.236 280.022 85.176 279.782 85.096C279.542 85.008 279.33 84.896 279.146 84.76C278.97 84.616 278.83 84.44 278.726 84.232C278.63 84.024 278.582 83.776 278.582 83.488C278.582 83.184 278.638 82.92 278.75 82.696C278.862 82.464 279.014 82.272 279.206 82.12C279.406 81.968 279.642 81.856 279.914 81.784C280.186 81.704 280.478 81.664 280.79 81.664C281.294 81.664 281.714 81.752 282.05 81.928C282.394 82.104 282.694 82.348 282.95 82.66L282.314 83.236C282.178 83.044 281.978 82.872 281.714 82.72C281.45 82.56 281.118 82.48 280.718 82.48C280.318 82.48 280.014 82.568 279.806 82.744C279.606 82.912 279.506 83.144 279.506 83.44C279.506 83.744 279.606 83.964 279.806 84.1C280.014 84.236 280.31 84.336 280.694 84.4L281.174 84.472C281.862 84.576 282.35 84.776 282.638 85.072C282.926 85.36 283.07 85.74 283.07 86.212C283.07 86.812 282.866 87.284 282.458 87.628C282.05 87.972 281.49 88.144 280.778 88.144ZM285.246 80.356C285.038 80.356 284.886 80.308 284.79 80.212C284.702 80.108 284.658 79.976 284.658 79.816V79.66C284.658 79.5 284.702 79.372 284.79 79.276C284.886 79.172 285.038 79.12 285.246 79.12C285.454 79.12 285.602 79.172 285.69 79.276C285.786 79.372 285.834 79.5 285.834 79.66V79.816C285.834 79.976 285.786 80.108 285.69 80.212C285.602 80.308 285.454 80.356 285.246 80.356ZM284.766 81.808H285.726V88H284.766V81.808ZM290.106 88.144C289.69 88.144 289.31 88.068 288.966 87.916C288.622 87.764 288.326 87.548 288.078 87.268C287.838 86.98 287.65 86.64 287.514 86.248C287.378 85.848 287.31 85.4 287.31 84.904C287.31 84.416 287.378 83.972 287.514 83.572C287.65 83.172 287.838 82.832 288.078 82.552C288.326 82.264 288.622 82.044 288.966 81.892C289.31 81.74 289.69 81.664 290.106 81.664C290.522 81.664 290.898 81.74 291.234 81.892C291.578 82.044 291.874 82.264 292.122 82.552C292.37 82.832 292.562 83.172 292.698 83.572C292.834 83.972 292.902 84.416 292.902 84.904C292.902 85.4 292.834 85.848 292.698 86.248C292.562 86.64 292.37 86.98 292.122 87.268C291.874 87.548 291.578 87.764 291.234 87.916C290.898 88.068 290.522 88.144 290.106 88.144ZM290.106 87.292C290.626 87.292 291.05 87.132 291.378 86.812C291.706 86.492 291.87 86.004 291.87 85.348V84.46C291.87 83.804 291.706 83.316 291.378 82.996C291.05 82.676 290.626 82.516 290.106 82.516C289.586 82.516 289.162 82.676 288.834 82.996C288.506 83.316 288.342 83.804 288.342 84.46V85.348C288.342 86.004 288.506 86.492 288.834 86.812C289.162 87.132 289.586 87.292 290.106 87.292ZM294.481 88V81.808H295.441V82.816H295.489C295.641 82.464 295.853 82.184 296.125 81.976C296.405 81.768 296.777 81.664 297.241 81.664C297.881 81.664 298.385 81.872 298.753 82.288C299.129 82.696 299.317 83.276 299.317 84.028V88H298.357V84.196C298.357 83.084 297.889 82.528 296.953 82.528C296.761 82.528 296.573 82.552 296.389 82.6C296.213 82.648 296.053 82.72 295.909 82.816C295.765 82.912 295.649 83.036 295.561 83.188C295.481 83.332 295.441 83.504 295.441 83.704V88H294.481ZM300.389 89.812L303.521 79.12H304.385L301.253 89.812H300.389ZM305.895 88V81.808H306.855V82.816H306.903C306.975 82.656 307.055 82.508 307.143 82.372C307.239 82.228 307.351 82.104 307.479 82C307.615 81.896 307.771 81.816 307.947 81.76C308.123 81.696 308.331 81.664 308.571 81.664C308.979 81.664 309.355 81.764 309.699 81.964C310.043 82.156 310.299 82.476 310.467 82.924H310.491C310.603 82.588 310.811 82.296 311.115 82.048C311.427 81.792 311.847 81.664 312.375 81.664C313.007 81.664 313.499 81.872 313.851 82.288C314.211 82.696 314.391 83.276 314.391 84.028V88H313.431V84.196C313.431 83.644 313.323 83.228 313.107 82.948C312.891 82.668 312.547 82.528 312.075 82.528C311.883 82.528 311.699 82.552 311.523 82.6C311.355 82.648 311.203 82.72 311.067 82.816C310.931 82.912 310.823 83.036 310.743 83.188C310.663 83.332 310.623 83.504 310.623 83.704V88H309.663V84.196C309.663 83.644 309.555 83.228 309.339 82.948C309.123 82.668 308.787 82.528 308.331 82.528C308.139 82.528 307.955 82.552 307.779 82.6C307.603 82.648 307.447 82.72 307.311 82.816C307.175 82.912 307.063 83.036 306.975 83.188C306.895 83.332 306.855 83.504 306.855 83.704V88H305.895ZM318.712 88.144C318.296 88.144 317.916 88.068 317.572 87.916C317.228 87.764 316.932 87.548 316.684 87.268C316.444 86.98 316.256 86.64 316.12 86.248C315.984 85.848 315.916 85.4 315.916 84.904C315.916 84.416 315.984 83.972 316.12 83.572C316.256 83.172 316.444 82.832 316.684 82.552C316.932 82.264 317.228 82.044 317.572 81.892C317.916 81.74 318.296 81.664 318.712 81.664C319.128 81.664 319.504 81.74 319.84 81.892C320.184 82.044 320.48 82.264 320.728 82.552C320.976 82.832 321.168 83.172 321.304 83.572C321.44 83.972 321.508 84.416 321.508 84.904C321.508 85.4 321.44 85.848 321.304 86.248C321.168 86.64 320.976 86.98 320.728 87.268C320.48 87.548 320.184 87.764 319.84 87.916C319.504 88.068 319.128 88.144 318.712 88.144ZM318.712 87.292C319.232 87.292 319.656 87.132 319.984 86.812C320.312 86.492 320.476 86.004 320.476 85.348V84.46C320.476 83.804 320.312 83.316 319.984 82.996C319.656 82.676 319.232 82.516 318.712 82.516C318.192 82.516 317.768 82.676 317.44 82.996C317.112 83.316 316.948 83.804 316.948 84.46V85.348C316.948 86.004 317.112 86.492 317.44 86.812C317.768 87.132 318.192 87.292 318.712 87.292ZM323.086 88V81.808H324.046V82.816H324.094C324.246 82.464 324.458 82.184 324.73 81.976C325.01 81.768 325.382 81.664 325.846 81.664C326.486 81.664 326.99 81.872 327.358 82.288C327.734 82.696 327.922 83.276 327.922 84.028V88H326.962V84.196C326.962 83.084 326.494 82.528 325.558 82.528C325.366 82.528 325.178 82.552 324.994 82.6C324.818 82.648 324.658 82.72 324.514 82.816C324.37 82.912 324.254 83.036 324.166 83.188C324.086 83.332 324.046 83.504 324.046 83.704V88H323.086ZM331.275 88C330.939 88 330.683 87.908 330.507 87.724C330.339 87.532 330.255 87.284 330.255 86.98V82.648H329.235V81.808H329.811C330.019 81.808 330.159 81.768 330.231 81.688C330.311 81.6 330.351 81.452 330.351 81.244V80.092H331.215V81.808H332.571V82.648H331.215V87.16H332.475V88H331.275ZM334.114 79.12H335.074V82.816H335.122C335.274 82.464 335.486 82.184 335.758 81.976C336.038 81.768 336.41 81.664 336.874 81.664C337.514 81.664 338.018 81.872 338.386 82.288C338.762 82.696 338.95 83.276 338.95 84.028V88H337.99V84.196C337.99 83.084 337.522 82.528 336.586 82.528C336.394 82.528 336.206 82.552 336.022 82.6C335.846 82.648 335.686 82.72 335.542 82.816C335.398 82.912 335.282 83.036 335.194 83.188C335.114 83.332 335.074 83.504 335.074 83.704V88H334.114V79.12Z" fill="white"/>
<path d="M243.672 104.72C243.277 104.72 242.931 104.672 242.632 104.576C242.333 104.469 242.003 104.325 241.64 104.144C241.352 103.995 241.064 103.867 240.776 103.76C240.499 103.653 240.195 103.6 239.864 103.6C239.619 103.6 239.405 103.637 239.224 103.712C239.043 103.787 238.835 103.904 238.6 104.064L237.88 102.912C238.083 102.635 238.344 102.405 238.664 102.224C238.995 102.043 239.416 101.952 239.928 101.952C240.323 101.952 240.669 102.005 240.968 102.112C241.267 102.208 241.597 102.347 241.96 102.528C242.248 102.677 242.531 102.805 242.808 102.912C243.096 103.008 243.405 103.056 243.736 103.056C243.981 103.056 244.195 103.024 244.376 102.96C244.557 102.885 244.765 102.768 245 102.608L245.72 103.76C245.517 104.037 245.251 104.267 244.92 104.448C244.6 104.629 244.184 104.72 243.672 104.72ZM243.672 108.272C243.277 108.272 242.931 108.224 242.632 108.128C242.333 108.021 242.003 107.877 241.64 107.696C241.352 107.547 241.064 107.419 240.776 107.312C240.499 107.205 240.195 107.152 239.864 107.152C239.619 107.152 239.405 107.189 239.224 107.264C239.043 107.339 238.835 107.456 238.6 107.616L237.88 106.464C238.083 106.187 238.344 105.957 238.664 105.776C238.995 105.595 239.416 105.504 239.928 105.504C240.323 105.504 240.669 105.557 240.968 105.664C241.267 105.76 241.597 105.899 241.96 106.08C242.248 106.229 242.531 106.357 242.808 106.464C243.096 106.56 243.405 106.608 243.736 106.608C243.981 106.608 244.195 106.576 244.376 106.512C244.557 106.437 244.765 106.32 245 106.16L245.72 107.312C245.517 107.589 245.251 107.819 244.92 108C244.6 108.181 244.184 108.272 243.672 108.272ZM254.567 103.344C255.207 103.344 255.676 103.216 255.975 102.96C256.284 102.693 256.439 102.357 256.439 101.952V101.84C256.439 101.381 256.29 101.024 255.991 100.768C255.703 100.501 255.303 100.368 254.791 100.368C254.3 100.368 253.863 100.485 253.479 100.72C253.106 100.955 252.78 101.285 252.503 101.712L251.159 100.496C251.351 100.24 251.559 100 251.783 99.776C252.018 99.5413 252.284 99.344 252.583 99.184C252.882 99.0133 253.218 98.88 253.591 98.784C253.964 98.688 254.386 98.64 254.855 98.64C255.42 98.64 255.932 98.7093 256.391 98.848C256.86 98.976 257.26 99.168 257.591 99.424C257.932 99.68 258.194 99.9893 258.375 100.352C258.556 100.704 258.647 101.104 258.647 101.552C258.647 101.915 258.588 102.24 258.471 102.528C258.364 102.816 258.21 103.067 258.007 103.28C257.815 103.493 257.586 103.669 257.319 103.808C257.063 103.936 256.791 104.032 256.503 104.096V104.192C256.823 104.256 257.127 104.357 257.415 104.496C257.703 104.635 257.948 104.821 258.151 105.056C258.364 105.28 258.53 105.547 258.647 105.856C258.775 106.165 258.839 106.517 258.839 106.912C258.839 107.403 258.738 107.851 258.535 108.256C258.343 108.661 258.066 109.008 257.703 109.296C257.34 109.584 256.908 109.808 256.407 109.968C255.906 110.117 255.346 110.192 254.727 110.192C254.183 110.192 253.703 110.133 253.287 110.016C252.871 109.909 252.503 109.76 252.183 109.568C251.874 109.376 251.602 109.157 251.367 108.912C251.132 108.656 250.93 108.389 250.759 108.112L252.311 106.928C252.439 107.152 252.578 107.36 252.727 107.552C252.876 107.733 253.047 107.893 253.239 108.032C253.431 108.171 253.65 108.277 253.895 108.352C254.14 108.427 254.418 108.464 254.727 108.464C255.346 108.464 255.82 108.315 256.151 108.016C256.482 107.717 256.647 107.307 256.647 106.784V106.672C256.647 106.16 256.466 105.771 256.103 105.504C255.751 105.237 255.239 105.104 254.567 105.104H253.463V103.344H254.567ZM262.353 107.536C262.79 107.536 263.11 107.648 263.313 107.872C263.526 108.096 263.633 108.379 263.633 108.72V109.008C263.633 109.296 263.59 109.595 263.505 109.904C263.43 110.213 263.318 110.512 263.169 110.8C263.03 111.088 262.859 111.36 262.657 111.616C262.465 111.872 262.246 112.096 262.001 112.288H260.545C260.907 111.936 261.211 111.589 261.457 111.248C261.702 110.917 261.889 110.549 262.017 110.144C261.686 110.091 261.446 109.963 261.297 109.76C261.147 109.547 261.073 109.296 261.073 109.008V108.72C261.073 108.379 261.174 108.096 261.377 107.872C261.579 107.648 261.905 107.536 262.353 107.536ZM273.55 103.024C273.55 103.824 273.428 104.581 273.182 105.296C272.948 106 272.638 106.651 272.254 107.248C271.87 107.835 271.438 108.363 270.958 108.832C270.489 109.291 270.02 109.68 269.55 110H266.702C267.353 109.531 267.94 109.077 268.462 108.64C268.985 108.203 269.438 107.76 269.822 107.312C270.217 106.864 270.537 106.4 270.782 105.92C271.038 105.429 271.23 104.901 271.358 104.336L271.23 104.304C271.124 104.517 270.996 104.725 270.846 104.928C270.708 105.131 270.537 105.307 270.334 105.456C270.132 105.605 269.897 105.728 269.63 105.824C269.364 105.909 269.054 105.952 268.702 105.952C268.233 105.952 267.801 105.872 267.406 105.712C267.012 105.552 266.665 105.323 266.366 105.024C266.078 104.715 265.849 104.352 265.678 103.936C265.518 103.509 265.438 103.029 265.438 102.496C265.438 101.931 265.534 101.413 265.726 100.944C265.918 100.475 266.19 100.069 266.542 99.728C266.894 99.3867 267.316 99.12 267.806 98.928C268.308 98.736 268.868 98.64 269.486 98.64C270.126 98.64 270.697 98.7467 271.198 98.96C271.7 99.1627 272.126 99.456 272.478 99.84C272.83 100.213 273.097 100.672 273.278 101.216C273.46 101.749 273.55 102.352 273.55 103.024ZM269.486 104.32C270.084 104.32 270.548 104.16 270.878 103.84C271.209 103.509 271.374 103.04 271.374 102.432V102.192C271.374 101.584 271.209 101.12 270.878 100.8C270.548 100.469 270.084 100.304 269.486 100.304C268.9 100.304 268.436 100.469 268.094 100.8C267.764 101.12 267.598 101.584 267.598 102.192V102.432C267.598 103.04 267.764 103.509 268.094 103.84C268.436 104.16 268.9 104.32 269.486 104.32ZM282.568 100.656H277.544L277.288 104.4H277.4C277.517 104.165 277.645 103.947 277.784 103.744C277.923 103.541 278.083 103.371 278.264 103.232C278.445 103.093 278.653 102.987 278.888 102.912C279.133 102.827 279.427 102.784 279.768 102.784C280.248 102.784 280.696 102.864 281.112 103.024C281.528 103.184 281.885 103.419 282.184 103.728C282.493 104.027 282.733 104.395 282.904 104.832C283.085 105.269 283.176 105.765 283.176 106.32C283.176 106.885 283.085 107.403 282.904 107.872C282.723 108.341 282.456 108.752 282.104 109.104C281.752 109.445 281.32 109.712 280.808 109.904C280.296 110.096 279.709 110.192 279.048 110.192C278.536 110.192 278.077 110.133 277.672 110.016C277.267 109.909 276.909 109.76 276.6 109.568C276.291 109.376 276.024 109.157 275.8 108.912C275.576 108.656 275.379 108.389 275.208 108.112L276.744 106.928C276.872 107.141 277.005 107.344 277.144 107.536C277.283 107.717 277.443 107.877 277.624 108.016C277.816 108.155 278.024 108.267 278.248 108.352C278.483 108.427 278.755 108.464 279.064 108.464C279.693 108.464 280.168 108.288 280.488 107.936C280.819 107.584 280.984 107.104 280.984 106.496V106.368C280.984 105.792 280.819 105.339 280.488 105.008C280.157 104.677 279.699 104.512 279.112 104.512C278.653 104.512 278.28 104.603 277.992 104.784C277.704 104.955 277.475 105.141 277.304 105.344L275.576 105.104L275.992 98.832H282.568V100.656ZM288.722 110.192C288.071 110.192 287.49 110.112 286.978 109.952C286.477 109.781 286.05 109.552 285.698 109.264C285.357 108.976 285.095 108.635 284.914 108.24C284.733 107.845 284.642 107.413 284.642 106.944C284.642 106.219 284.839 105.632 285.234 105.184C285.639 104.725 286.178 104.405 286.85 104.224V104.096C286.295 103.893 285.842 103.579 285.49 103.152C285.149 102.725 284.978 102.187 284.978 101.536C284.978 101.109 285.058 100.72 285.218 100.368C285.389 100.016 285.634 99.712 285.954 99.456C286.274 99.2 286.663 99.0027 287.122 98.864C287.591 98.7147 288.125 98.64 288.722 98.64C289.319 98.64 289.847 98.7147 290.306 98.864C290.775 99.0027 291.17 99.2 291.49 99.456C291.81 99.712 292.05 100.016 292.21 100.368C292.381 100.72 292.466 101.109 292.466 101.536C292.466 102.187 292.29 102.725 291.938 103.152C291.597 103.579 291.149 103.893 290.594 104.096V104.224C291.266 104.405 291.799 104.725 292.194 105.184C292.599 105.632 292.802 106.219 292.802 106.944C292.802 107.413 292.711 107.845 292.53 108.24C292.349 108.635 292.082 108.976 291.73 109.264C291.389 109.552 290.962 109.781 290.45 109.952C289.949 110.112 289.373 110.192 288.722 110.192ZM288.722 108.544C289.33 108.544 289.794 108.405 290.114 108.128C290.445 107.851 290.61 107.461 290.61 106.96V106.624C290.61 106.123 290.445 105.733 290.114 105.456C289.794 105.179 289.33 105.04 288.722 105.04C288.114 105.04 287.645 105.179 287.314 105.456C286.994 105.733 286.834 106.123 286.834 106.624V106.96C286.834 107.461 286.994 107.851 287.314 108.128C287.645 108.405 288.114 108.544 288.722 108.544ZM288.722 103.472C289.287 103.472 289.719 103.344 290.018 103.088C290.317 102.832 290.466 102.469 290.466 102V101.744C290.466 101.285 290.317 100.928 290.018 100.672C289.719 100.416 289.287 100.288 288.722 100.288C288.157 100.288 287.725 100.416 287.426 100.672C287.127 100.928 286.978 101.285 286.978 101.744V102C286.978 102.469 287.127 102.832 287.426 103.088C287.725 103.344 288.157 103.472 288.722 103.472Z" fill="white"/>
<path d="M298.824 100.926V106.542C298.824 107.409 298.984 108.067 299.305 108.518C299.626 108.96 300.189 109.181 300.995 109.181C301.801 109.181 302.364 108.96 302.685 108.518C303.006 108.067 303.166 107.409 303.166 106.542V100.926H304.258V106.282C304.258 106.941 304.197 107.513 304.076 107.998C303.963 108.483 303.777 108.886 303.517 109.207C303.257 109.528 302.915 109.766 302.49 109.922C302.074 110.078 301.563 110.156 300.956 110.156C300.349 110.156 299.838 110.078 299.422 109.922C299.015 109.766 298.685 109.528 298.434 109.207C298.183 108.886 298.001 108.483 297.888 107.998C297.784 107.513 297.732 106.941 297.732 106.282V100.926H298.824ZM309.155 110.156C308.419 110.156 307.79 110.017 307.27 109.74C306.75 109.454 306.308 109.064 305.944 108.57L306.75 107.894C307.071 108.319 307.426 108.644 307.816 108.869C308.206 109.086 308.666 109.194 309.194 109.194C309.844 109.194 310.338 109.038 310.676 108.726C311.023 108.414 311.196 107.998 311.196 107.478C311.196 107.045 311.066 106.711 310.806 106.477C310.546 106.243 310.117 106.057 309.519 105.918L308.778 105.749C307.946 105.558 307.309 105.272 306.867 104.891C306.434 104.501 306.217 103.955 306.217 103.253C306.217 102.854 306.291 102.499 306.438 102.187C306.586 101.875 306.789 101.615 307.049 101.407C307.318 101.199 307.634 101.043 307.998 100.939C308.371 100.826 308.778 100.77 309.22 100.77C309.905 100.77 310.49 100.896 310.975 101.147C311.469 101.398 311.885 101.767 312.223 102.252L311.404 102.85C311.153 102.503 310.85 102.23 310.494 102.031C310.139 101.832 309.697 101.732 309.168 101.732C308.588 101.732 308.128 101.858 307.79 102.109C307.461 102.352 307.296 102.72 307.296 103.214C307.296 103.647 307.435 103.977 307.712 104.202C307.998 104.419 308.427 104.592 308.999 104.722L309.74 104.891C310.633 105.09 311.279 105.394 311.677 105.801C312.076 106.208 312.275 106.75 312.275 107.426C312.275 107.842 312.202 108.219 312.054 108.557C311.916 108.895 311.712 109.181 311.443 109.415C311.175 109.649 310.845 109.831 310.455 109.961C310.074 110.091 309.641 110.156 309.155 110.156ZM314.161 100.926H317.203C317.766 100.926 318.278 101.021 318.737 101.212C319.196 101.403 319.586 101.689 319.907 102.07C320.236 102.443 320.488 102.915 320.661 103.487C320.834 104.05 320.921 104.709 320.921 105.463C320.921 106.217 320.834 106.88 320.661 107.452C320.488 108.015 320.236 108.488 319.907 108.869C319.586 109.242 319.196 109.523 318.737 109.714C318.278 109.905 317.766 110 317.203 110H314.161V100.926ZM317.203 109.038C317.576 109.038 317.918 108.977 318.23 108.856C318.542 108.726 318.811 108.54 319.036 108.297C319.261 108.054 319.435 107.76 319.556 107.413C319.686 107.058 319.751 106.655 319.751 106.204V104.722C319.751 104.271 319.686 103.873 319.556 103.526C319.435 103.171 319.261 102.872 319.036 102.629C318.811 102.386 318.542 102.204 318.23 102.083C317.918 101.953 317.576 101.888 317.203 101.888H315.253V109.038H317.203ZM325.582 101.888V110H324.49V101.888H321.604V100.926H328.468V101.888H325.582Z" fill="white" fill-opacity="0.5"/>
<rect x="78" y="268" width="89" height="19" rx="3" fill="#282D33"/>
<path d="M95.132 277.176C95.7 277.176 96.124 277.048 96.404 276.792C96.692 276.528 96.836 276.192 96.836 275.784V275.7C96.836 275.26 96.696 274.932 96.416 274.716C96.144 274.492 95.784 274.38 95.336 274.38C94.904 274.38 94.552 274.476 94.28 274.668C94.008 274.852 93.784 275.104 93.608 275.424L92.864 274.848C92.968 274.68 93.092 274.516 93.236 274.356C93.388 274.188 93.564 274.04 93.764 273.912C93.964 273.784 94.196 273.68 94.46 273.6C94.724 273.52 95.024 273.48 95.36 273.48C95.712 273.48 96.044 273.528 96.356 273.624C96.668 273.712 96.936 273.848 97.16 274.032C97.392 274.208 97.572 274.428 97.7 274.692C97.836 274.956 97.904 275.256 97.904 275.592C97.904 275.864 97.86 276.108 97.772 276.324C97.692 276.54 97.58 276.728 97.436 276.888C97.292 277.048 97.12 277.184 96.92 277.296C96.728 277.408 96.52 277.492 96.296 277.548V277.596C96.52 277.644 96.736 277.724 96.944 277.836C97.16 277.94 97.348 278.08 97.508 278.256C97.676 278.424 97.808 278.632 97.904 278.88C98.008 279.12 98.06 279.396 98.06 279.708C98.06 280.068 97.992 280.4 97.856 280.704C97.72 281 97.528 281.256 97.28 281.472C97.032 281.68 96.732 281.844 96.38 281.964C96.028 282.084 95.64 282.144 95.216 282.144C94.856 282.144 94.536 282.104 94.256 282.024C93.976 281.944 93.728 281.836 93.512 281.7C93.296 281.564 93.104 281.412 92.936 281.244C92.776 281.076 92.632 280.9 92.504 280.716L93.26 280.14C93.364 280.308 93.476 280.46 93.596 280.596C93.724 280.732 93.864 280.848 94.016 280.944C94.168 281.04 94.34 281.116 94.532 281.172C94.724 281.22 94.948 281.244 95.204 281.244C95.796 281.244 96.244 281.112 96.548 280.848C96.852 280.576 97.004 280.192 97.004 279.696V279.6C97.004 279.104 96.852 278.724 96.548 278.46C96.244 278.188 95.796 278.052 95.204 278.052H94.22V277.176H95.132ZM102.795 282.144C101.795 282.144 101.063 281.764 100.599 281.004C100.143 280.244 99.9153 279.18 99.9153 277.812C99.9153 276.444 100.143 275.38 100.599 274.62C101.063 273.86 101.795 273.48 102.795 273.48C103.795 273.48 104.523 273.86 104.979 274.62C105.443 275.38 105.675 276.444 105.675 277.812C105.675 279.18 105.443 280.244 104.979 281.004C104.523 281.764 103.795 282.144 102.795 282.144ZM102.795 281.268C103.123 281.268 103.403 281.2 103.635 281.064C103.867 280.928 104.055 280.736 104.199 280.488C104.343 280.24 104.447 279.948 104.511 279.612C104.583 279.276 104.619 278.904 104.619 278.496V277.128C104.619 276.72 104.583 276.348 104.511 276.012C104.447 275.676 104.343 275.384 104.199 275.136C104.055 274.888 103.867 274.696 103.635 274.56C103.403 274.424 103.123 274.356 102.795 274.356C102.467 274.356 102.187 274.424 101.955 274.56C101.723 274.696 101.535 274.888 101.391 275.136C101.247 275.384 101.139 275.676 101.067 276.012C101.003 276.348 100.971 276.72 100.971 277.128V278.496C100.971 278.904 101.003 279.276 101.067 279.612C101.139 279.948 101.247 280.24 101.391 280.488C101.535 280.736 101.723 280.928 101.955 281.064C102.187 281.2 102.467 281.268 102.795 281.268ZM109.947 282V281.16H111.123V274.464H109.947V273.624H113.307V274.464H112.131V281.16H113.307V282H109.947ZM115.051 282V275.808H116.011V276.816H116.059C116.211 276.464 116.423 276.184 116.695 275.976C116.975 275.768 117.347 275.664 117.811 275.664C118.451 275.664 118.955 275.872 119.323 276.288C119.699 276.696 119.887 277.276 119.887 278.028V282H118.927V278.196C118.927 277.084 118.459 276.528 117.523 276.528C117.331 276.528 117.143 276.552 116.959 276.6C116.783 276.648 116.623 276.72 116.479 276.816C116.335 276.912 116.219 277.036 116.131 277.188C116.051 277.332 116.011 277.504 116.011 277.704V282H115.051ZM123.146 282L120.974 275.808H121.934L123.014 278.88L123.686 280.992H123.746L124.418 278.88L125.522 275.808H126.446L124.262 282H123.146ZM128.164 274.356C127.956 274.356 127.804 274.308 127.708 274.212C127.62 274.108 127.576 273.976 127.576 273.816V273.66C127.576 273.5 127.62 273.372 127.708 273.276C127.804 273.172 127.956 273.12 128.164 273.12C128.372 273.12 128.52 273.172 128.608 273.276C128.704 273.372 128.752 273.5 128.752 273.66V273.816C128.752 273.976 128.704 274.108 128.608 274.212C128.52 274.308 128.372 274.356 128.164 274.356ZM127.684 275.808H128.644V282H127.684V275.808ZM132.052 282C131.716 282 131.46 281.908 131.284 281.724C131.116 281.532 131.032 281.284 131.032 280.98V276.648H130.012V275.808H130.588C130.796 275.808 130.936 275.768 131.008 275.688C131.088 275.6 131.128 275.452 131.128 275.244V274.092H131.992V275.808H133.348V276.648H131.992V281.16H133.252V282H132.052ZM137.172 282.144C136.748 282.144 136.364 282.068 136.02 281.916C135.684 281.764 135.392 281.548 135.144 281.268C134.904 280.98 134.716 280.64 134.58 280.248C134.452 279.848 134.388 279.4 134.388 278.904C134.388 278.416 134.452 277.972 134.58 277.572C134.716 277.172 134.904 276.832 135.144 276.552C135.392 276.264 135.684 276.044 136.02 275.892C136.364 275.74 136.748 275.664 137.172 275.664C137.588 275.664 137.96 275.74 138.288 275.892C138.616 276.044 138.896 276.256 139.128 276.528C139.36 276.792 139.536 277.108 139.656 277.476C139.784 277.844 139.848 278.248 139.848 278.688V279.144H135.396V279.432C135.396 279.696 135.436 279.944 135.516 280.176C135.604 280.4 135.724 280.596 135.876 280.764C136.036 280.932 136.228 281.064 136.452 281.16C136.684 281.256 136.944 281.304 137.232 281.304C137.624 281.304 137.964 281.212 138.252 281.028C138.548 280.844 138.776 280.58 138.936 280.236L139.62 280.728C139.42 281.152 139.108 281.496 138.684 281.76C138.26 282.016 137.756 282.144 137.172 282.144ZM137.172 276.468C136.908 276.468 136.668 276.516 136.452 276.612C136.236 276.7 136.048 276.828 135.888 276.996C135.736 277.164 135.616 277.364 135.528 277.596C135.44 277.82 135.396 278.068 135.396 278.34V278.424H138.816V278.292C138.816 277.74 138.664 277.3 138.36 276.972C138.064 276.636 137.668 276.468 137.172 276.468ZM143.758 282.144C143.334 282.144 142.95 282.068 142.606 281.916C142.27 281.764 141.978 281.548 141.73 281.268C141.49 280.98 141.302 280.64 141.166 280.248C141.038 279.848 140.974 279.4 140.974 278.904C140.974 278.416 141.038 277.972 141.166 277.572C141.302 277.172 141.49 276.832 141.73 276.552C141.978 276.264 142.27 276.044 142.606 275.892C142.95 275.74 143.334 275.664 143.758 275.664C144.174 275.664 144.546 275.74 144.874 275.892C145.202 276.044 145.482 276.256 145.714 276.528C145.946 276.792 146.122 277.108 146.242 277.476C146.37 277.844 146.434 278.248 146.434 278.688V279.144H141.982V279.432C141.982 279.696 142.022 279.944 142.102 280.176C142.19 280.4 142.31 280.596 142.462 280.764C142.622 280.932 142.814 281.064 143.038 281.16C143.27 281.256 143.53 281.304 143.818 281.304C144.21 281.304 144.55 281.212 144.838 281.028C145.134 280.844 145.362 280.58 145.522 280.236L146.206 280.728C146.006 281.152 145.694 281.496 145.27 281.76C144.846 282.016 144.342 282.144 143.758 282.144ZM143.758 276.468C143.494 276.468 143.254 276.516 143.038 276.612C142.822 276.7 142.634 276.828 142.474 276.996C142.322 277.164 142.202 277.364 142.114 277.596C142.026 277.82 141.982 278.068 141.982 278.34V278.424H145.402V278.292C145.402 277.74 145.25 277.3 144.946 276.972C144.65 276.636 144.254 276.468 143.758 276.468ZM149.876 282.144C149.3 282.144 148.816 282.036 148.424 281.82C148.04 281.596 147.708 281.3 147.428 280.932L148.112 280.38C148.352 280.684 148.62 280.92 148.916 281.088C149.212 281.248 149.556 281.328 149.948 281.328C150.356 281.328 150.672 281.24 150.896 281.064C151.128 280.888 151.244 280.64 151.244 280.32C151.244 280.08 151.164 279.876 151.004 279.708C150.852 279.532 150.572 279.412 150.164 279.348L149.672 279.276C149.384 279.236 149.12 279.176 148.88 279.096C148.64 279.008 148.428 278.896 148.244 278.76C148.068 278.616 147.928 278.44 147.824 278.232C147.728 278.024 147.68 277.776 147.68 277.488C147.68 277.184 147.736 276.92 147.848 276.696C147.96 276.464 148.112 276.272 148.304 276.12C148.504 275.968 148.74 275.856 149.012 275.784C149.284 275.704 149.576 275.664 149.888 275.664C150.392 275.664 150.812 275.752 151.148 275.928C151.492 276.104 151.792 276.348 152.048 276.66L151.412 277.236C151.276 277.044 151.076 276.872 150.812 276.72C150.548 276.56 150.216 276.48 149.816 276.48C149.416 276.48 149.112 276.568 148.904 276.744C148.704 276.912 148.604 277.144 148.604 277.44C148.604 277.744 148.704 277.964 148.904 278.1C149.112 278.236 149.408 278.336 149.792 278.4L150.272 278.472C150.96 278.576 151.448 278.776 151.736 279.072C152.024 279.36 152.168 279.74 152.168 280.212C152.168 280.812 151.964 281.284 151.556 281.628C151.148 281.972 150.588 282.144 149.876 282.144Z" fill="white"/>
<rect x="183" y="268" width="89" height="19" rx="3" fill="#282D33"/>
<path d="M200.612 282.144C200.18 282.144 199.788 282.072 199.436 281.928C199.092 281.776 198.796 281.564 198.548 281.292C198.308 281.012 198.124 280.672 197.996 280.272C197.868 279.872 197.804 279.424 197.804 278.928C197.804 278.304 197.896 277.72 198.08 277.176C198.264 276.624 198.5 276.124 198.788 275.676C199.084 275.22 199.408 274.82 199.76 274.476C200.112 274.124 200.456 273.84 200.792 273.624H202.088C201.64 273.952 201.24 274.272 200.888 274.584C200.536 274.896 200.228 275.224 199.964 275.568C199.7 275.904 199.476 276.268 199.292 276.66C199.108 277.044 198.96 277.48 198.848 277.968L198.908 277.992C199.108 277.648 199.364 277.364 199.676 277.14C199.996 276.908 200.412 276.792 200.924 276.792C201.284 276.792 201.616 276.852 201.92 276.972C202.224 277.092 202.484 277.264 202.7 277.488C202.916 277.712 203.084 277.984 203.204 278.304C203.332 278.624 203.396 278.98 203.396 279.372C203.396 279.78 203.328 280.156 203.192 280.5C203.064 280.836 202.876 281.128 202.628 281.376C202.388 281.616 202.096 281.804 201.752 281.94C201.408 282.076 201.028 282.144 200.612 282.144ZM200.6 281.268C201.152 281.268 201.58 281.116 201.884 280.812C202.196 280.508 202.352 280.072 202.352 279.504V279.408C202.352 278.84 202.196 278.404 201.884 278.1C201.58 277.796 201.152 277.644 200.6 277.644C200.048 277.644 199.616 277.796 199.304 278.1C199 278.404 198.848 278.84 198.848 279.408V279.504C198.848 280.072 199 280.508 199.304 280.812C199.616 281.116 200.048 281.268 200.6 281.268ZM207.795 282.144C206.795 282.144 206.063 281.764 205.599 281.004C205.143 280.244 204.915 279.18 204.915 277.812C204.915 276.444 205.143 275.38 205.599 274.62C206.063 273.86 206.795 273.48 207.795 273.48C208.795 273.48 209.523 273.86 209.979 274.62C210.443 275.38 210.675 276.444 210.675 277.812C210.675 279.18 210.443 280.244 209.979 281.004C209.523 281.764 208.795 282.144 207.795 282.144ZM207.795 281.268C208.123 281.268 208.403 281.2 208.635 281.064C208.867 280.928 209.055 280.736 209.199 280.488C209.343 280.24 209.447 279.948 209.511 279.612C209.583 279.276 209.619 278.904 209.619 278.496V277.128C209.619 276.72 209.583 276.348 209.511 276.012C209.447 275.676 209.343 275.384 209.199 275.136C209.055 274.888 208.867 274.696 208.635 274.56C208.403 274.424 208.123 274.356 207.795 274.356C207.467 274.356 207.187 274.424 206.955 274.56C206.723 274.696 206.535 274.888 206.391 275.136C206.247 275.384 206.139 275.676 206.067 276.012C206.003 276.348 205.971 276.72 205.971 277.128V278.496C205.971 278.904 206.003 279.276 206.067 279.612C206.139 279.948 206.247 280.24 206.391 280.488C206.535 280.736 206.723 280.928 206.955 281.064C207.187 281.2 207.467 281.268 207.795 281.268ZM214.947 282V281.16H216.123V274.464H214.947V273.624H218.307V274.464H217.131V281.16H218.307V282H214.947ZM220.051 282V275.808H221.011V276.816H221.059C221.211 276.464 221.423 276.184 221.695 275.976C221.975 275.768 222.347 275.664 222.811 275.664C223.451 275.664 223.955 275.872 224.323 276.288C224.699 276.696 224.887 277.276 224.887 278.028V282H223.927V278.196C223.927 277.084 223.459 276.528 222.523 276.528C222.331 276.528 222.143 276.552 221.959 276.6C221.783 276.648 221.623 276.72 221.479 276.816C221.335 276.912 221.219 277.036 221.131 277.188C221.051 277.332 221.011 277.504 221.011 277.704V282H220.051ZM228.146 282L225.974 275.808H226.934L228.014 278.88L228.686 280.992H228.746L229.418 278.88L230.522 275.808H231.446L229.262 282H228.146ZM233.164 274.356C232.956 274.356 232.804 274.308 232.708 274.212C232.62 274.108 232.576 273.976 232.576 273.816V273.66C232.576 273.5 232.62 273.372 232.708 273.276C232.804 273.172 232.956 273.12 233.164 273.12C233.372 273.12 233.52 273.172 233.608 273.276C233.704 273.372 233.752 273.5 233.752 273.66V273.816C233.752 273.976 233.704 274.108 233.608 274.212C233.52 274.308 233.372 274.356 233.164 274.356ZM232.684 275.808H233.644V282H232.684V275.808ZM237.052 282C236.716 282 236.46 281.908 236.284 281.724C236.116 281.532 236.032 281.284 236.032 280.98V276.648H235.012V275.808H235.588C235.796 275.808 235.936 275.768 236.008 275.688C236.088 275.6 236.128 275.452 236.128 275.244V274.092H236.992V275.808H238.348V276.648H236.992V281.16H238.252V282H237.052ZM242.172 282.144C241.748 282.144 241.364 282.068 241.02 281.916C240.684 281.764 240.392 281.548 240.144 281.268C239.904 280.98 239.716 280.64 239.58 280.248C239.452 279.848 239.388 279.4 239.388 278.904C239.388 278.416 239.452 277.972 239.58 277.572C239.716 277.172 239.904 276.832 240.144 276.552C240.392 276.264 240.684 276.044 241.02 275.892C241.364 275.74 241.748 275.664 242.172 275.664C242.588 275.664 242.96 275.74 243.288 275.892C243.616 276.044 243.896 276.256 244.128 276.528C244.36 276.792 244.536 277.108 244.656 277.476C244.784 277.844 244.848 278.248 244.848 278.688V279.144H240.396V279.432C240.396 279.696 240.436 279.944 240.516 280.176C240.604 280.4 240.724 280.596 240.876 280.764C241.036 280.932 241.228 281.064 241.452 281.16C241.684 281.256 241.944 281.304 242.232 281.304C242.624 281.304 242.964 281.212 243.252 281.028C243.548 280.844 243.776 280.58 243.936 280.236L244.62 280.728C244.42 281.152 244.108 281.496 243.684 281.76C243.26 282.016 242.756 282.144 242.172 282.144ZM242.172 276.468C241.908 276.468 241.668 276.516 241.452 276.612C241.236 276.7 241.048 276.828 240.888 276.996C240.736 277.164 240.616 277.364 240.528 277.596C240.44 277.82 240.396 278.068 240.396 278.34V278.424H243.816V278.292C243.816 277.74 243.664 277.3 243.36 276.972C243.064 276.636 242.668 276.468 242.172 276.468ZM248.758 282.144C248.334 282.144 247.95 282.068 247.606 281.916C247.27 281.764 246.978 281.548 246.73 281.268C246.49 280.98 246.302 280.64 246.166 280.248C246.038 279.848 245.974 279.4 245.974 278.904C245.974 278.416 246.038 277.972 246.166 277.572C246.302 277.172 246.49 276.832 246.73 276.552C246.978 276.264 247.27 276.044 247.606 275.892C247.95 275.74 248.334 275.664 248.758 275.664C249.174 275.664 249.546 275.74 249.874 275.892C250.202 276.044 250.482 276.256 250.714 276.528C250.946 276.792 251.122 277.108 251.242 277.476C251.37 277.844 251.434 278.248 251.434 278.688V279.144H246.982V279.432C246.982 279.696 247.022 279.944 247.102 280.176C247.19 280.4 247.31 280.596 247.462 280.764C247.622 280.932 247.814 281.064 248.038 281.16C248.27 281.256 248.53 281.304 248.818 281.304C249.21 281.304 249.55 281.212 249.838 281.028C250.134 280.844 250.362 280.58 250.522 280.236L251.206 280.728C251.006 281.152 250.694 281.496 250.27 281.76C249.846 282.016 249.342 282.144 248.758 282.144ZM248.758 276.468C248.494 276.468 248.254 276.516 248.038 276.612C247.822 276.7 247.634 276.828 247.474 276.996C247.322 277.164 247.202 277.364 247.114 277.596C247.026 277.82 246.982 278.068 246.982 278.34V278.424H250.402V278.292C250.402 277.74 250.25 277.3 249.946 276.972C249.65 276.636 249.254 276.468 248.758 276.468ZM254.876 282.144C254.3 282.144 253.816 282.036 253.424 281.82C253.04 281.596 252.708 281.3 252.428 280.932L253.112 280.38C253.352 280.684 253.62 280.92 253.916 281.088C254.212 281.248 254.556 281.328 254.948 281.328C255.356 281.328 255.672 281.24 255.896 281.064C256.128 280.888 256.244 280.64 256.244 280.32C256.244 280.08 256.164 279.876 256.004 279.708C255.852 279.532 255.572 279.412 255.164 279.348L254.672 279.276C254.384 279.236 254.12 279.176 253.88 279.096C253.64 279.008 253.428 278.896 253.244 278.76C253.068 278.616 252.928 278.44 252.824 278.232C252.728 278.024 252.68 277.776 252.68 277.488C252.68 277.184 252.736 276.92 252.848 276.696C252.96 276.464 253.112 276.272 253.304 276.12C253.504 275.968 253.74 275.856 254.012 275.784C254.284 275.704 254.576 275.664 254.888 275.664C255.392 275.664 255.812 275.752 256.148 275.928C256.492 276.104 256.792 276.348 257.048 276.66L256.412 277.236C256.276 277.044 256.076 276.872 255.812 276.72C255.548 276.56 255.216 276.48 254.816 276.48C254.416 276.48 254.112 276.568 253.904 276.744C253.704 276.912 253.604 277.144 253.604 277.44C253.604 277.744 253.704 277.964 253.904 278.1C254.112 278.236 254.408 278.336 254.792 278.4L255.272 278.472C255.96 278.576 256.448 278.776 256.736 279.072C257.024 279.36 257.168 279.74 257.168 280.212C257.168 280.812 256.964 281.284 256.556 281.628C256.148 281.972 255.588 282.144 254.876 282.144Z" fill="white"/>
<rect x="288" y="268" width="89" height="19" rx="3" fill="#282D33"/>
<path d="M308.396 276.696C308.396 277.32 308.304 277.908 308.12 278.46C307.936 279.004 307.696 279.504 307.4 279.96C307.112 280.408 306.792 280.808 306.44 281.16C306.088 281.504 305.744 281.784 305.408 282H304.112C304.56 281.672 304.96 281.352 305.312 281.04C305.664 280.728 305.972 280.404 306.236 280.068C306.5 279.724 306.724 279.36 306.908 278.976C307.092 278.584 307.24 278.144 307.352 277.656L307.292 277.632C307.092 277.976 306.832 278.264 306.512 278.496C306.2 278.72 305.788 278.832 305.276 278.832C304.916 278.832 304.584 278.772 304.28 278.652C303.976 278.532 303.716 278.36 303.5 278.136C303.284 277.912 303.112 277.644 302.984 277.332C302.864 277.012 302.804 276.652 302.804 276.252C302.804 275.844 302.868 275.472 302.996 275.136C303.132 274.792 303.32 274.5 303.56 274.26C303.808 274.012 304.1 273.82 304.436 273.684C304.78 273.548 305.164 273.48 305.588 273.48C306.02 273.48 306.408 273.556 306.752 273.708C307.104 273.852 307.4 274.064 307.64 274.344C307.888 274.616 308.076 274.952 308.204 275.352C308.332 275.752 308.396 276.2 308.396 276.696ZM305.6 277.98C306.152 277.98 306.58 277.828 306.884 277.524C307.196 277.22 307.352 276.784 307.352 276.216V276.12C307.352 275.552 307.196 275.116 306.884 274.812C306.58 274.508 306.152 274.356 305.6 274.356C305.048 274.356 304.616 274.508 304.304 274.812C304 275.116 303.848 275.552 303.848 276.12V276.216C303.848 276.784 304 277.22 304.304 277.524C304.616 277.828 305.048 277.98 305.6 277.98ZM312.795 282.144C311.795 282.144 311.063 281.764 310.599 281.004C310.143 280.244 309.915 279.18 309.915 277.812C309.915 276.444 310.143 275.38 310.599 274.62C311.063 273.86 311.795 273.48 312.795 273.48C313.795 273.48 314.523 273.86 314.979 274.62C315.443 275.38 315.675 276.444 315.675 277.812C315.675 279.18 315.443 280.244 314.979 281.004C314.523 281.764 313.795 282.144 312.795 282.144ZM312.795 281.268C313.123 281.268 313.403 281.2 313.635 281.064C313.867 280.928 314.055 280.736 314.199 280.488C314.343 280.24 314.447 279.948 314.511 279.612C314.583 279.276 314.619 278.904 314.619 278.496V277.128C314.619 276.72 314.583 276.348 314.511 276.012C314.447 275.676 314.343 275.384 314.199 275.136C314.055 274.888 313.867 274.696 313.635 274.56C313.403 274.424 313.123 274.356 312.795 274.356C312.467 274.356 312.187 274.424 311.955 274.56C311.723 274.696 311.535 274.888 311.391 275.136C311.247 275.384 311.139 275.676 311.067 276.012C311.003 276.348 310.971 276.72 310.971 277.128V278.496C310.971 278.904 311.003 279.276 311.067 279.612C311.139 279.948 311.247 280.24 311.391 280.488C311.535 280.736 311.723 280.928 311.955 281.064C312.187 281.2 312.467 281.268 312.795 281.268ZM319.947 282V281.16H321.123V274.464H319.947V273.624H323.307V274.464H322.131V281.16H323.307V282H319.947ZM325.051 282V275.808H326.011V276.816H326.059C326.211 276.464 326.423 276.184 326.695 275.976C326.975 275.768 327.347 275.664 327.811 275.664C328.451 275.664 328.955 275.872 329.323 276.288C329.699 276.696 329.887 277.276 329.887 278.028V282H328.927V278.196C328.927 277.084 328.459 276.528 327.523 276.528C327.331 276.528 327.143 276.552 326.959 276.6C326.783 276.648 326.623 276.72 326.479 276.816C326.335 276.912 326.219 277.036 326.131 277.188C326.051 277.332 326.011 277.504 326.011 277.704V282H325.051ZM333.146 282L330.974 275.808H331.934L333.014 278.88L333.686 280.992H333.746L334.418 278.88L335.522 275.808H336.446L334.262 282H333.146ZM338.164 274.356C337.956 274.356 337.804 274.308 337.708 274.212C337.62 274.108 337.576 273.976 337.576 273.816V273.66C337.576 273.5 337.62 273.372 337.708 273.276C337.804 273.172 337.956 273.12 338.164 273.12C338.372 273.12 338.52 273.172 338.608 273.276C338.704 273.372 338.752 273.5 338.752 273.66V273.816C338.752 273.976 338.704 274.108 338.608 274.212C338.52 274.308 338.372 274.356 338.164 274.356ZM337.684 275.808H338.644V282H337.684V275.808ZM342.052 282C341.716 282 341.46 281.908 341.284 281.724C341.116 281.532 341.032 281.284 341.032 280.98V276.648H340.012V275.808H340.588C340.796 275.808 340.936 275.768 341.008 275.688C341.088 275.6 341.128 275.452 341.128 275.244V274.092H341.992V275.808H343.348V276.648H341.992V281.16H343.252V282H342.052ZM347.172 282.144C346.748 282.144 346.364 282.068 346.02 281.916C345.684 281.764 345.392 281.548 345.144 281.268C344.904 280.98 344.716 280.64 344.58 280.248C344.452 279.848 344.388 279.4 344.388 278.904C344.388 278.416 344.452 277.972 344.58 277.572C344.716 277.172 344.904 276.832 345.144 276.552C345.392 276.264 345.684 276.044 346.02 275.892C346.364 275.74 346.748 275.664 347.172 275.664C347.588 275.664 347.96 275.74 348.288 275.892C348.616 276.044 348.896 276.256 349.128 276.528C349.36 276.792 349.536 277.108 349.656 277.476C349.784 277.844 349.848 278.248 349.848 278.688V279.144H345.396V279.432C345.396 279.696 345.436 279.944 345.516 280.176C345.604 280.4 345.724 280.596 345.876 280.764C346.036 280.932 346.228 281.064 346.452 281.16C346.684 281.256 346.944 281.304 347.232 281.304C347.624 281.304 347.964 281.212 348.252 281.028C348.548 280.844 348.776 280.58 348.936 280.236L349.62 280.728C349.42 281.152 349.108 281.496 348.684 281.76C348.26 282.016 347.756 282.144 347.172 282.144ZM347.172 276.468C346.908 276.468 346.668 276.516 346.452 276.612C346.236 276.7 346.048 276.828 345.888 276.996C345.736 277.164 345.616 277.364 345.528 277.596C345.44 277.82 345.396 278.068 345.396 278.34V278.424H348.816V278.292C348.816 277.74 348.664 277.3 348.36 276.972C348.064 276.636 347.668 276.468 347.172 276.468ZM353.758 282.144C353.334 282.144 352.95 282.068 352.606 281.916C352.27 281.764 351.978 281.548 351.73 281.268C351.49 280.98 351.302 280.64 351.166 280.248C351.038 279.848 350.974 279.4 350.974 278.904C350.974 278.416 351.038 277.972 351.166 277.572C351.302 277.172 351.49 276.832 351.73 276.552C351.978 276.264 352.27 276.044 352.606 275.892C352.95 275.74 353.334 275.664 353.758 275.664C354.174 275.664 354.546 275.74 354.874 275.892C355.202 276.044 355.482 276.256 355.714 276.528C355.946 276.792 356.122 277.108 356.242 277.476C356.37 277.844 356.434 278.248 356.434 278.688V279.144H351.982V279.432C351.982 279.696 352.022 279.944 352.102 280.176C352.19 280.4 352.31 280.596 352.462 280.764C352.622 280.932 352.814 281.064 353.038 281.16C353.27 281.256 353.53 281.304 353.818 281.304C354.21 281.304 354.55 281.212 354.838 281.028C355.134 280.844 355.362 280.58 355.522 280.236L356.206 280.728C356.006 281.152 355.694 281.496 355.27 281.76C354.846 282.016 354.342 282.144 353.758 282.144ZM353.758 276.468C353.494 276.468 353.254 276.516 353.038 276.612C352.822 276.7 352.634 276.828 352.474 276.996C352.322 277.164 352.202 277.364 352.114 277.596C352.026 277.82 351.982 278.068 351.982 278.34V278.424H355.402V278.292C355.402 277.74 355.25 277.3 354.946 276.972C354.65 276.636 354.254 276.468 353.758 276.468ZM359.876 282.144C359.3 282.144 358.816 282.036 358.424 281.82C358.04 281.596 357.708 281.3 357.428 280.932L358.112 280.38C358.352 280.684 358.62 280.92 358.916 281.088C359.212 281.248 359.556 281.328 359.948 281.328C360.356 281.328 360.672 281.24 360.896 281.064C361.128 280.888 361.244 280.64 361.244 280.32C361.244 280.08 361.164 279.876 361.004 279.708C360.852 279.532 360.572 279.412 360.164 279.348L359.672 279.276C359.384 279.236 359.12 279.176 358.88 279.096C358.64 279.008 358.428 278.896 358.244 278.76C358.068 278.616 357.928 278.44 357.824 278.232C357.728 278.024 357.68 277.776 357.68 277.488C357.68 277.184 357.736 276.92 357.848 276.696C357.96 276.464 358.112 276.272 358.304 276.12C358.504 275.968 358.74 275.856 359.012 275.784C359.284 275.704 359.576 275.664 359.888 275.664C360.392 275.664 360.812 275.752 361.148 275.928C361.492 276.104 361.792 276.348 362.048 276.66L361.412 277.236C361.276 277.044 361.076 276.872 360.812 276.72C360.548 276.56 360.216 276.48 359.816 276.48C359.416 276.48 359.112 276.568 358.904 276.744C358.704 276.912 358.604 277.144 358.604 277.44C358.604 277.744 358.704 277.964 358.904 278.1C359.112 278.236 359.408 278.336 359.792 278.4L360.272 278.472C360.96 278.576 361.448 278.776 361.736 279.072C362.024 279.36 362.168 279.74 362.168 280.212C362.168 280.812 361.964 281.284 361.556 281.628C361.148 281.972 360.588 282.144 359.876 282.144Z" fill="white"/>
<rect x="393" y="268" width="89" height="19" rx="3" fill="#282D33"/>
<path d="M404.056 282V281.112H406.396V274.368H406.312L404.2 276.336L403.612 275.7L405.832 273.624H407.404V281.112H409.564V282H404.056ZM416.591 282H411.095V280.968L413.831 278.448C414.223 278.088 414.551 277.708 414.815 277.308C415.079 276.9 415.211 276.492 415.211 276.084V275.94C415.211 275.476 415.083 275.1 414.827 274.812C414.571 274.524 414.183 274.38 413.663 274.38C413.407 274.38 413.183 274.416 412.991 274.488C412.799 274.56 412.631 274.66 412.487 274.788C412.351 274.916 412.235 275.068 412.139 275.244C412.051 275.412 411.979 275.596 411.923 275.796L411.023 275.448C411.103 275.2 411.211 274.96 411.347 274.728C411.491 274.488 411.667 274.276 411.875 274.092C412.091 273.908 412.347 273.76 412.643 273.648C412.947 273.536 413.303 273.48 413.711 273.48C414.119 273.48 414.483 273.54 414.803 273.66C415.123 273.78 415.391 273.948 415.607 274.164C415.823 274.38 415.987 274.636 416.099 274.932C416.219 275.228 416.279 275.556 416.279 275.916C416.279 276.244 416.231 276.548 416.135 276.828C416.047 277.108 415.923 277.376 415.763 277.632C415.603 277.88 415.407 278.124 415.175 278.364C414.951 278.604 414.707 278.844 414.443 279.084L412.187 281.112H416.591V282ZM420.991 282.144C419.991 282.144 419.259 281.764 418.795 281.004C418.339 280.244 418.111 279.18 418.111 277.812C418.111 276.444 418.339 275.38 418.795 274.62C419.259 273.86 419.991 273.48 420.991 273.48C421.991 273.48 422.719 273.86 423.175 274.62C423.639 275.38 423.871 276.444 423.871 277.812C423.871 279.18 423.639 280.244 423.175 281.004C422.719 281.764 421.991 282.144 420.991 282.144ZM420.991 281.268C421.319 281.268 421.599 281.2 421.831 281.064C422.063 280.928 422.251 280.736 422.395 280.488C422.539 280.24 422.643 279.948 422.707 279.612C422.779 279.276 422.815 278.904 422.815 278.496V277.128C422.815 276.72 422.779 276.348 422.707 276.012C422.643 275.676 422.539 275.384 422.395 275.136C422.251 274.888 422.063 274.696 421.831 274.56C421.599 274.424 421.319 274.356 420.991 274.356C420.663 274.356 420.383 274.424 420.151 274.56C419.919 274.696 419.731 274.888 419.587 275.136C419.443 275.384 419.335 275.676 419.263 276.012C419.199 276.348 419.167 276.72 419.167 277.128V278.496C419.167 278.904 419.199 279.276 419.263 279.612C419.335 279.948 419.443 280.24 419.587 280.488C419.731 280.736 419.919 280.928 420.151 281.064C420.383 281.2 420.663 281.268 420.991 281.268ZM428.142 282V281.16H429.318V274.464H428.142V273.624H431.502V274.464H430.326V281.16H431.502V282H428.142ZM433.247 282V275.808H434.207V276.816H434.255C434.407 276.464 434.619 276.184 434.891 275.976C435.171 275.768 435.543 275.664 436.007 275.664C436.647 275.664 437.151 275.872 437.519 276.288C437.895 276.696 438.083 277.276 438.083 278.028V282H437.123V278.196C437.123 277.084 436.655 276.528 435.719 276.528C435.527 276.528 435.339 276.552 435.155 276.6C434.979 276.648 434.819 276.72 434.675 276.816C434.531 276.912 434.415 277.036 434.327 277.188C434.247 277.332 434.207 277.504 434.207 277.704V282H433.247ZM441.341 282L439.169 275.808H440.129L441.209 278.88L441.881 280.992H441.941L442.613 278.88L443.717 275.808H444.641L442.457 282H441.341ZM446.359 274.356C446.151 274.356 445.999 274.308 445.903 274.212C445.815 274.108 445.771 273.976 445.771 273.816V273.66C445.771 273.5 445.815 273.372 445.903 273.276C445.999 273.172 446.151 273.12 446.359 273.12C446.567 273.12 446.715 273.172 446.803 273.276C446.899 273.372 446.947 273.5 446.947 273.66V273.816C446.947 273.976 446.899 274.108 446.803 274.212C446.715 274.308 446.567 274.356 446.359 274.356ZM445.879 275.808H446.839V282H445.879V275.808ZM450.247 282C449.911 282 449.655 281.908 449.479 281.724C449.311 281.532 449.227 281.284 449.227 280.98V276.648H448.207V275.808H448.783C448.991 275.808 449.131 275.768 449.203 275.688C449.283 275.6 449.323 275.452 449.323 275.244V274.092H450.187V275.808H451.543V276.648H450.187V281.16H451.447V282H450.247ZM455.368 282.144C454.944 282.144 454.56 282.068 454.216 281.916C453.88 281.764 453.588 281.548 453.34 281.268C453.1 280.98 452.912 280.64 452.776 280.248C452.648 279.848 452.584 279.4 452.584 278.904C452.584 278.416 452.648 277.972 452.776 277.572C452.912 277.172 453.1 276.832 453.34 276.552C453.588 276.264 453.88 276.044 454.216 275.892C454.56 275.74 454.944 275.664 455.368 275.664C455.784 275.664 456.156 275.74 456.484 275.892C456.812 276.044 457.092 276.256 457.324 276.528C457.556 276.792 457.732 277.108 457.852 277.476C457.98 277.844 458.044 278.248 458.044 278.688V279.144H453.592V279.432C453.592 279.696 453.632 279.944 453.712 280.176C453.8 280.4 453.92 280.596 454.072 280.764C454.232 280.932 454.424 281.064 454.648 281.16C454.88 281.256 455.14 281.304 455.428 281.304C455.82 281.304 456.16 281.212 456.448 281.028C456.744 280.844 456.972 280.58 457.132 280.236L457.816 280.728C457.616 281.152 457.304 281.496 456.88 281.76C456.456 282.016 455.952 282.144 455.368 282.144ZM455.368 276.468C455.104 276.468 454.864 276.516 454.648 276.612C454.432 276.7 454.244 276.828 454.084 276.996C453.932 277.164 453.812 277.364 453.724 277.596C453.636 277.82 453.592 278.068 453.592 278.34V278.424H457.012V278.292C457.012 277.74 456.86 277.3 456.556 276.972C456.26 276.636 455.864 276.468 455.368 276.468ZM461.953 282.144C461.529 282.144 461.145 282.068 460.801 281.916C460.465 281.764 460.173 281.548 459.925 281.268C459.685 280.98 459.497 280.64 459.361 280.248C459.233 279.848 459.169 279.4 459.169 278.904C459.169 278.416 459.233 277.972 459.361 277.572C459.497 277.172 459.685 276.832 459.925 276.552C460.173 276.264 460.465 276.044 460.801 275.892C461.145 275.74 461.529 275.664 461.953 275.664C462.369 275.664 462.741 275.74 463.069 275.892C463.397 276.044 463.677 276.256 463.909 276.528C464.141 276.792 464.317 277.108 464.437 277.476C464.565 277.844 464.629 278.248 464.629 278.688V279.144H460.177V279.432C460.177 279.696 460.217 279.944 460.297 280.176C460.385 280.4 460.505 280.596 460.657 280.764C460.817 280.932 461.009 281.064 461.233 281.16C461.465 281.256 461.725 281.304 462.013 281.304C462.405 281.304 462.745 281.212 463.033 281.028C463.329 280.844 463.557 280.58 463.717 280.236L464.401 280.728C464.201 281.152 463.889 281.496 463.465 281.76C463.041 282.016 462.537 282.144 461.953 282.144ZM461.953 276.468C461.689 276.468 461.449 276.516 461.233 276.612C461.017 276.7 460.829 276.828 460.669 276.996C460.517 277.164 460.397 277.364 460.309 277.596C460.221 277.82 460.177 278.068 460.177 278.34V278.424H463.597V278.292C463.597 277.74 463.445 277.3 463.141 276.972C462.845 276.636 462.449 276.468 461.953 276.468ZM468.071 282.144C467.495 282.144 467.011 282.036 466.619 281.82C466.235 281.596 465.903 281.3 465.623 280.932L466.307 280.38C466.547 280.684 466.815 280.92 467.111 281.088C467.407 281.248 467.751 281.328 468.143 281.328C468.551 281.328 468.867 281.24 469.091 281.064C469.323 280.888 469.439 280.64 469.439 280.32C469.439 280.08 469.359 279.876 469.199 279.708C469.047 279.532 468.767 279.412 468.359 279.348L467.867 279.276C467.579 279.236 467.315 279.176 467.075 279.096C466.835 279.008 466.623 278.896 466.439 278.76C466.263 278.616 466.123 278.44 466.019 278.232C465.923 278.024 465.875 277.776 465.875 277.488C465.875 277.184 465.931 276.92 466.043 276.696C466.155 276.464 466.307 276.272 466.499 276.12C466.699 275.968 466.935 275.856 467.207 275.784C467.479 275.704 467.771 275.664 468.083 275.664C468.587 275.664 469.007 275.752 469.343 275.928C469.687 276.104 469.987 276.348 470.243 276.66L469.607 277.236C469.471 277.044 469.271 276.872 469.007 276.72C468.743 276.56 468.411 276.48 468.011 276.48C467.611 276.48 467.307 276.568 467.099 276.744C466.899 276.912 466.799 277.144 466.799 277.44C466.799 277.744 466.899 277.964 467.099 278.1C467.307 278.236 467.603 278.336 467.987 278.4L468.467 278.472C469.155 278.576 469.643 278.776 469.931 279.072C470.219 279.36 470.363 279.74 470.363 280.212C470.363 280.812 470.159 281.284 469.751 281.628C469.343 281.972 468.783 282.144 468.071 282.144Z" fill="white"/>
<rect x="498" y="268" width="89" height="19" rx="3" fill="#282D33"/>
<path d="M509.056 282V281.112H511.396V274.368H511.312L509.2 276.336L508.612 275.7L510.832 273.624H512.404V281.112H514.564V282H509.056ZM521.171 274.512H517.499L517.259 277.704H517.343C517.543 277.424 517.767 277.2 518.015 277.032C518.271 276.864 518.619 276.78 519.059 276.78C519.419 276.78 519.751 276.84 520.055 276.96C520.359 277.08 520.623 277.252 520.847 277.476C521.071 277.692 521.243 277.96 521.363 278.28C521.491 278.6 521.555 278.964 521.555 279.372C521.555 279.78 521.491 280.156 521.363 280.5C521.235 280.836 521.047 281.128 520.799 281.376C520.559 281.616 520.263 281.804 519.911 281.94C519.567 282.076 519.175 282.144 518.735 282.144C518.383 282.144 518.071 282.104 517.799 282.024C517.535 281.944 517.299 281.836 517.091 281.7C516.883 281.564 516.699 281.412 516.539 281.244C516.387 281.076 516.247 280.9 516.119 280.716L516.875 280.14C516.979 280.308 517.087 280.46 517.199 280.596C517.319 280.732 517.447 280.848 517.583 280.944C517.727 281.04 517.891 281.116 518.075 281.172C518.259 281.22 518.479 281.244 518.735 281.244C519.311 281.244 519.747 281.092 520.043 280.788C520.339 280.484 520.487 280.056 520.487 279.504V279.384C520.487 278.832 520.339 278.404 520.043 278.1C519.747 277.796 519.311 277.644 518.735 277.644C518.351 277.644 518.047 277.716 517.823 277.86C517.607 277.996 517.411 278.16 517.235 278.352L516.383 278.232L516.683 273.624H521.171V274.512ZM525.991 282.144C524.991 282.144 524.259 281.764 523.795 281.004C523.339 280.244 523.111 279.18 523.111 277.812C523.111 276.444 523.339 275.38 523.795 274.62C524.259 273.86 524.991 273.48 525.991 273.48C526.991 273.48 527.719 273.86 528.175 274.62C528.639 275.38 528.871 276.444 528.871 277.812C528.871 279.18 528.639 280.244 528.175 281.004C527.719 281.764 526.991 282.144 525.991 282.144ZM525.991 281.268C526.319 281.268 526.599 281.2 526.831 281.064C527.063 280.928 527.251 280.736 527.395 280.488C527.539 280.24 527.643 279.948 527.707 279.612C527.779 279.276 527.815 278.904 527.815 278.496V277.128C527.815 276.72 527.779 276.348 527.707 276.012C527.643 275.676 527.539 275.384 527.395 275.136C527.251 274.888 527.063 274.696 526.831 274.56C526.599 274.424 526.319 274.356 525.991 274.356C525.663 274.356 525.383 274.424 525.151 274.56C524.919 274.696 524.731 274.888 524.587 275.136C524.443 275.384 524.335 275.676 524.263 276.012C524.199 276.348 524.167 276.72 524.167 277.128V278.496C524.167 278.904 524.199 279.276 524.263 279.612C524.335 279.948 524.443 280.24 524.587 280.488C524.731 280.736 524.919 280.928 525.151 281.064C525.383 281.2 525.663 281.268 525.991 281.268ZM533.142 282V281.16H534.318V274.464H533.142V273.624H536.502V274.464H535.326V281.16H536.502V282H533.142ZM538.247 282V275.808H539.207V276.816H539.255C539.407 276.464 539.619 276.184 539.891 275.976C540.171 275.768 540.543 275.664 541.007 275.664C541.647 275.664 542.151 275.872 542.519 276.288C542.895 276.696 543.083 277.276 543.083 278.028V282H542.123V278.196C542.123 277.084 541.655 276.528 540.719 276.528C540.527 276.528 540.339 276.552 540.155 276.6C539.979 276.648 539.819 276.72 539.675 276.816C539.531 276.912 539.415 277.036 539.327 277.188C539.247 277.332 539.207 277.504 539.207 277.704V282H538.247ZM546.341 282L544.169 275.808H545.129L546.209 278.88L546.881 280.992H546.941L547.613 278.88L548.717 275.808H549.641L547.457 282H546.341ZM551.359 274.356C551.151 274.356 550.999 274.308 550.903 274.212C550.815 274.108 550.771 273.976 550.771 273.816V273.66C550.771 273.5 550.815 273.372 550.903 273.276C550.999 273.172 551.151 273.12 551.359 273.12C551.567 273.12 551.715 273.172 551.803 273.276C551.899 273.372 551.947 273.5 551.947 273.66V273.816C551.947 273.976 551.899 274.108 551.803 274.212C551.715 274.308 551.567 274.356 551.359 274.356ZM550.879 275.808H551.839V282H550.879V275.808ZM555.247 282C554.911 282 554.655 281.908 554.479 281.724C554.311 281.532 554.227 281.284 554.227 280.98V276.648H553.207V275.808H553.783C553.991 275.808 554.131 275.768 554.203 275.688C554.283 275.6 554.323 275.452 554.323 275.244V274.092H555.187V275.808H556.543V276.648H555.187V281.16H556.447V282H555.247ZM560.368 282.144C559.944 282.144 559.56 282.068 559.216 281.916C558.88 281.764 558.588 281.548 558.34 281.268C558.1 280.98 557.912 280.64 557.776 280.248C557.648 279.848 557.584 279.4 557.584 278.904C557.584 278.416 557.648 277.972 557.776 277.572C557.912 277.172 558.1 276.832 558.34 276.552C558.588 276.264 558.88 276.044 559.216 275.892C559.56 275.74 559.944 275.664 560.368 275.664C560.784 275.664 561.156 275.74 561.484 275.892C561.812 276.044 562.092 276.256 562.324 276.528C562.556 276.792 562.732 277.108 562.852 277.476C562.98 277.844 563.044 278.248 563.044 278.688V279.144H558.592V279.432C558.592 279.696 558.632 279.944 558.712 280.176C558.8 280.4 558.92 280.596 559.072 280.764C559.232 280.932 559.424 281.064 559.648 281.16C559.88 281.256 560.14 281.304 560.428 281.304C560.82 281.304 561.16 281.212 561.448 281.028C561.744 280.844 561.972 280.58 562.132 280.236L562.816 280.728C562.616 281.152 562.304 281.496 561.88 281.76C561.456 282.016 560.952 282.144 560.368 282.144ZM560.368 276.468C560.104 276.468 559.864 276.516 559.648 276.612C559.432 276.7 559.244 276.828 559.084 276.996C558.932 277.164 558.812 277.364 558.724 277.596C558.636 277.82 558.592 278.068 558.592 278.34V278.424H562.012V278.292C562.012 277.74 561.86 277.3 561.556 276.972C561.26 276.636 560.864 276.468 560.368 276.468ZM566.953 282.144C566.529 282.144 566.145 282.068 565.801 281.916C565.465 281.764 565.173 281.548 564.925 281.268C564.685 280.98 564.497 280.64 564.361 280.248C564.233 279.848 564.169 279.4 564.169 278.904C564.169 278.416 564.233 277.972 564.361 277.572C564.497 277.172 564.685 276.832 564.925 276.552C565.173 276.264 565.465 276.044 565.801 275.892C566.145 275.74 566.529 275.664 566.953 275.664C567.369 275.664 567.741 275.74 568.069 275.892C568.397 276.044 568.677 276.256 568.909 276.528C569.141 276.792 569.317 277.108 569.437 277.476C569.565 277.844 569.629 278.248 569.629 278.688V279.144H565.177V279.432C565.177 279.696 565.217 279.944 565.297 280.176C565.385 280.4 565.505 280.596 565.657 280.764C565.817 280.932 566.009 281.064 566.233 281.16C566.465 281.256 566.725 281.304 567.013 281.304C567.405 281.304 567.745 281.212 568.033 281.028C568.329 280.844 568.557 280.58 568.717 280.236L569.401 280.728C569.201 281.152 568.889 281.496 568.465 281.76C568.041 282.016 567.537 282.144 566.953 282.144ZM566.953 276.468C566.689 276.468 566.449 276.516 566.233 276.612C566.017 276.7 565.829 276.828 565.669 276.996C565.517 277.164 565.397 277.364 565.309 277.596C565.221 277.82 565.177 278.068 565.177 278.34V278.424H568.597V278.292C568.597 277.74 568.445 277.3 568.141 276.972C567.845 276.636 567.449 276.468 566.953 276.468ZM573.071 282.144C572.495 282.144 572.011 282.036 571.619 281.82C571.235 281.596 570.903 281.3 570.623 280.932L571.307 280.38C571.547 280.684 571.815 280.92 572.111 281.088C572.407 281.248 572.751 281.328 573.143 281.328C573.551 281.328 573.867 281.24 574.091 281.064C574.323 280.888 574.439 280.64 574.439 280.32C574.439 280.08 574.359 279.876 574.199 279.708C574.047 279.532 573.767 279.412 573.359 279.348L572.867 279.276C572.579 279.236 572.315 279.176 572.075 279.096C571.835 279.008 571.623 278.896 571.439 278.76C571.263 278.616 571.123 278.44 571.019 278.232C570.923 278.024 570.875 277.776 570.875 277.488C570.875 277.184 570.931 276.92 571.043 276.696C571.155 276.464 571.307 276.272 571.499 276.12C571.699 275.968 571.935 275.856 572.207 275.784C572.479 275.704 572.771 275.664 573.083 275.664C573.587 275.664 574.007 275.752 574.343 275.928C574.687 276.104 574.987 276.348 575.243 276.66L574.607 277.236C574.471 277.044 574.271 276.872 574.007 276.72C573.743 276.56 573.411 276.48 573.011 276.48C572.611 276.48 572.307 276.568 572.099 276.744C571.899 276.912 571.799 277.144 571.799 277.44C571.799 277.744 571.899 277.964 572.099 278.1C572.307 278.236 572.603 278.336 572.987 278.4L573.467 278.472C574.155 278.576 574.643 278.776 574.931 279.072C575.219 279.36 575.363 279.74 575.363 280.212C575.363 280.812 575.159 281.284 574.751 281.628C574.343 281.972 573.783 282.144 573.071 282.144Z" fill="white"/>
<defs>
<linearGradient id="paint0_linear_5015_11739" x1="-113.5" y1="30.0532" x2="633.117" y2="13.1485" gradientUnits="userSpaceOnUse">
<stop offset="0.196981" stop-color="#1E2329" stop-opacity="0"/>
<stop offset="0.567146" stop-color="#FFA500" stop-opacity="0.3"/>
<stop offset="0.745383" stop-color="#FFA500" stop-opacity="0.3"/>
<stop offset="1" stop-color="#1E2329" stop-opacity="0"/>
</linearGradient>
<linearGradient id="paint1_linear_5015_11739" x1="71.5" y1="236.5" x2="587" y2="29" gradientUnits="userSpaceOnUse">
<stop stop-opacity="0"/>
<stop offset="0.574891" stop-color="#FFA500"/>
<stop offset="1" stop-opacity="0"/>
</linearGradient>
<linearGradient id="paint2_linear_5015_11739" x1="847" y1="274" x2="847" y2="304" gradientUnits="userSpaceOnUse">
<stop stop-color="#1E2329"/>
<stop offset="1" stop-color="#1E2329" stop-opacity="0"/>
</linearGradient>
<linearGradient id="paint3_linear_5015_11739" x1="300.5" y1="40" x2="331" y2="120.5" gradientUnits="userSpaceOnUse">
<stop stop-color="#FFA500"/>
<stop offset="1" stop-opacity="0"/>
</linearGradient>
</defs>
</svg>
