<svg width="16" height="16" viewBox="0 0 16 16" fill="none" xmlns="http://www.w3.org/2000/svg">
<g clip-path="url(#clip0_646_12986)">
<path d="M8 16C12.4188 16 16 12.4188 16 8C16 3.58125 12.4188 6.40591e-07 8 2.54292e-07C3.58125 -1.32007e-07 2.03936e-06 3.58125 1.65306e-06 8C1.26676e-06 12.4187 3.58125 16 8 16ZM6.94688 3.00937C6.94688 2.77812 7.13438 2.5875 7.36563 2.5875L8.63125 2.5875C8.8625 2.5875 9.05313 2.775 9.05313 3.00625L9.05313 9.475C9.05313 9.70625 8.86563 9.89687 8.63438 9.89687L7.36875 9.89687C7.1375 9.89687 6.94688 9.70937 6.94688 9.47812L6.94688 3.00937ZM8 10.975C8.67188 10.975 9.21875 11.5219 9.21875 12.1937C9.21875 12.8656 8.67188 13.4125 8 13.4125C7.32813 13.4125 6.78125 12.8656 6.78125 12.1937C6.78125 11.5219 7.32813 10.975 8 10.975Z" fill="white" fill-opacity="0.5"/>
</g>
<defs>
<clipPath id="clip0_646_12986">
<rect width="16" height="16" fill="white" transform="translate(16 16) rotate(-180)"/>
</clipPath>
</defs>
</svg>
