<svg width="48" height="23" viewBox="0 0 48 23" fill="none" xmlns="http://www.w3.org/2000/svg">
<path d="M32.2172 10.8016L22.8081 0.347091C22.6074 0.125454 22.3272 0 22.0303 0H15.7576C15.3457 0 14.9714 0.242545 14.802 0.618909C14.6347 0.997364 14.7037 1.43855 14.9797 1.74382L23.7595 11.5L14.9797 21.2541C14.7037 21.5615 14.6327 22.0026 14.802 22.379C14.9714 22.7575 15.3457 23 15.7576 23H22.0303C22.3272 23 22.6074 22.8725 22.8081 22.655L32.2172 12.2005C32.5748 11.8032 32.5748 11.1968 32.2172 10.8016Z" fill="url(#paint0_linear_15_630)"/>
<path d="M17.5063 10.8016L8.09718 0.347091C7.89645 0.125454 7.61627 0 7.31936 0H1.04663C0.634721 0 0.260448 0.242545 0.0910848 0.618909C-0.076188 0.997364 -0.00718798 1.43855 0.268812 1.74382L9.04854 11.5L0.268812 21.2541C-0.00718798 21.5615 -0.0782789 22.0026 0.0910848 22.379C0.260448 22.7575 0.634721 23 1.04663 23H7.31936C7.61627 23 7.89645 22.8725 8.09718 22.655L17.5063 12.2005C17.8638 11.8032 17.8638 11.1968 17.5063 10.8016Z" fill="url(#paint1_linear_15_630)"/>
<path d="M46.8188 10.8016L37.4097 0.347091C37.209 0.125454 36.9288 0 36.6319 0H30.3591C29.9472 0 29.5729 0.242545 29.4036 0.618909C29.2363 0.997364 29.3053 1.43855 29.5813 1.74382L38.361 11.5L29.5813 21.2541C29.3053 21.5615 29.2342 22.0026 29.4036 22.379C29.5729 22.7575 29.9472 23 30.3591 23H36.6319C36.9288 23 37.209 22.8725 37.4097 22.655L46.8188 12.2005C47.1763 11.8032 47.1763 11.1968 46.8188 10.8016Z" fill="url(#paint2_linear_15_630)"/>
<defs>
<linearGradient id="paint0_linear_15_630" x1="10.0032" y1="16.8621" x2="39.4476" y2="16.2141" gradientUnits="userSpaceOnUse">
<stop offset="0.0551299" stop-color="white"/>
<stop offset="0.579063" stop-color="#DCE0E3"/>
<stop offset="1" stop-color="#A7B2BA"/>
</linearGradient>
<linearGradient id="paint1_linear_15_630" x1="-4.70773" y1="16.8621" x2="24.7367" y2="16.2141" gradientUnits="userSpaceOnUse">
<stop offset="0.0551299" stop-color="white"/>
<stop offset="0.579063" stop-color="#DCE0E3"/>
<stop offset="1" stop-color="#A7B2BA"/>
</linearGradient>
<linearGradient id="paint2_linear_15_630" x1="24.6048" y1="16.8621" x2="54.0492" y2="16.2141" gradientUnits="userSpaceOnUse">
<stop offset="0.0551299" stop-color="white"/>
<stop offset="0.579063" stop-color="#DCE0E3"/>
<stop offset="1" stop-color="#A7B2BA"/>
</linearGradient>
</defs>
</svg>
