<svg width="20" height="20" viewBox="0 0 20 20" fill="none" xmlns="http://www.w3.org/2000/svg">
<rect width="20" height="20" rx="10" fill="#71839B"/>
<path d="M10.9399 10.1897C10.9399 12.5036 9.08025 14.3793 6.78642 14.3793C4.49258 14.3793 2.63281 12.5031 2.63281 10.1897C2.63281 7.8763 4.49244 6 6.78642 6C9.08039 6 10.9399 7.87588 10.9399 10.1897Z" fill="white"/>
<path d="M15.4974 10.1899C15.4974 12.3679 14.5675 14.1342 13.4206 14.1342C12.2736 14.1342 11.3438 12.3679 11.3438 10.1899C11.3438 8.01192 12.2734 6.24561 13.4204 6.24561C14.5674 6.24561 15.4972 8.01135 15.4972 10.1899" fill="white"/>
<path d="M17.3591 10.1897C17.3591 12.1407 17.0322 13.7232 16.6287 13.7232C16.2253 13.7232 15.8984 12.1411 15.8984 10.1897C15.8984 8.23835 16.2254 6.65625 16.6287 6.65625C17.032 6.65625 17.3591 8.23821 17.3591 10.1897Z" fill="white"/>
</svg>
