<svg width="13" height="13" viewBox="0 0 13 13" fill="none" xmlns="http://www.w3.org/2000/svg">
<path d="M6.5 12.75C9.94375 12.75 12.75 9.94375 12.75 6.5C12.75 3.05625 9.94375 0.25 6.5 0.249999C3.05625 0.249999 0.250001 3.05625 0.250001 6.5C0.25 9.94375 3.05625 12.75 6.5 12.75ZM6.96875 9C6.96875 9.25625 6.75625 9.46875 6.5 9.46875C6.24375 9.46875 6.03125 9.25625 6.03125 9L6.03125 5.875C6.03125 5.61875 6.24375 5.40625 6.5 5.40625C6.75625 5.40625 6.96875 5.61875 6.96875 5.875L6.96875 9ZM5.925 3.7625C5.95625 3.68125 6 3.61875 6.05625 3.55625C6.11875 3.5 6.1875 3.45625 6.2625 3.425C6.3375 3.39375 6.41875 3.375 6.5 3.375C6.58125 3.375 6.6625 3.39375 6.7375 3.425C6.8125 3.45625 6.88125 3.5 6.94375 3.55625C7 3.61875 7.04375 3.68125 7.075 3.7625C7.10625 3.8375 7.125 3.91875 7.125 4C7.125 4.08125 7.10625 4.1625 7.075 4.2375C7.04375 4.3125 7 4.38125 6.94375 4.44375C6.88125 4.5 6.8125 4.54375 6.7375 4.575C6.5875 4.6375 6.4125 4.6375 6.2625 4.575C6.1875 4.54375 6.11875 4.5 6.05625 4.44375C6 4.38125 5.95625 4.3125 5.925 4.2375C5.89375 4.1625 5.875 4.08125 5.875 4C5.875 3.91875 5.89375 3.8375 5.925 3.7625Z" fill="#718096"/>
</svg>
