<svg width="28" height="26" viewBox="0 0 28 26" fill="none" xmlns="http://www.w3.org/2000/svg">
<path d="M3.58203 11.8897C3.06427 11.8911 2.5575 12.0392 2.12035 12.3166C1.6832 12.5941 1.33354 12.9896 1.11181 13.4575C0.890087 13.9254 0.805361 14.4465 0.867437 14.9605C0.929512 15.4745 1.13585 15.9605 1.46259 16.3621L8.42778 24.8945C8.67612 25.2028 8.99446 25.4475 9.35635 25.6081C9.71823 25.7688 10.1132 25.8407 10.5085 25.8181C11.3539 25.7727 12.1172 25.3204 12.6038 24.5768L27.0723 1.27534C27.0747 1.27148 27.0772 1.26761 27.0797 1.26381C27.2155 1.05536 27.1714 0.642287 26.8912 0.382787C26.8142 0.311525 26.7235 0.256776 26.6246 0.221912C26.5256 0.187048 26.4206 0.172806 26.316 0.180065C26.2113 0.187323 26.1093 0.215928 26.0161 0.264118C25.9229 0.312307 25.8406 0.379061 25.7742 0.460268C25.769 0.466653 25.7636 0.472941 25.7581 0.479133L11.1665 16.9655C11.111 17.0283 11.0435 17.0793 10.9681 17.1158C10.8927 17.1522 10.8108 17.1733 10.7271 17.1779C10.6434 17.1824 10.5597 17.1703 10.4808 17.1421C10.4019 17.114 10.3293 17.0705 10.2674 17.0142L5.42466 12.6073C4.92171 12.1462 4.26433 11.8902 3.58203 11.8897Z" fill="#0ECB81"/>
</svg>
