<svg width="10" height="13" viewBox="0 0 10 13" fill="none" xmlns="http://www.w3.org/2000/svg">
<path d="M9.75802 4.2333L6.17468 0.6583C5.86241 0.347881 5.43999 0.173645 4.99968 0.173645C4.55937 0.173645 4.13695 0.347881 3.82468 0.6583L0.24135 4.2333C0.0861414 4.38944 -0.000976562 4.60065 -0.000976562 4.8208C-0.000976562 5.04095 0.0861414 5.25216 0.24135 5.4083C0.31882 5.48641 0.410987 5.5484 0.512536 5.59071C0.614086 5.63302 0.723007 5.6548 0.833017 5.6548C0.943027 5.6548 1.05195 5.63302 1.1535 5.59071C1.25505 5.5484 1.34721 5.48641 1.42468 5.4083L4.16635 2.66663V11.8333C4.16635 12.0543 4.25415 12.2663 4.41043 12.4226C4.56671 12.5788 4.77867 12.6666 4.99968 12.6666C5.2207 12.6666 5.43266 12.5788 5.58894 12.4226C5.74522 12.2663 5.83302 12.0543 5.83302 11.8333V2.66663L8.57468 5.4083C8.7305 5.56522 8.94227 5.65382 9.1634 5.6546C9.38454 5.65538 9.59693 5.56828 9.75385 5.41247C9.91077 5.25665 9.99937 5.04488 10.0001 4.82375C10.0009 4.60261 9.91383 4.39022 9.75802 4.2333Z" fill="#0ECB81"/>
</svg>
