<svg width="24" height="24" viewBox="0 0 24 24" fill="none" xmlns="http://www.w3.org/2000/svg">
<rect width="24" height="24" rx="3" fill="#0ECB81"/>
<path d="M16.9987 12.0001C16.9946 11.5617 16.818 11.1425 16.507 10.8335L12.932 7.25014C12.7759 7.09493 12.5647 7.00781 12.3445 7.00781C12.1244 7.00781 11.9132 7.09493 11.757 7.25014C11.6789 7.32761 11.6169 7.41978 11.5746 7.52133C11.5323 7.62287 11.5105 7.7318 11.5105 7.84181C11.5105 7.95182 11.5323 8.06074 11.5746 8.16229C11.6169 8.26383 11.6789 8.356 11.757 8.43347L14.4987 11.1668H6.16536C5.94435 11.1668 5.73239 11.2546 5.57611 11.4109C5.41983 11.5672 5.33203 11.7791 5.33203 12.0001C5.33203 12.2211 5.41983 12.4331 5.57611 12.5894C5.73239 12.7457 5.94435 12.8335 6.16536 12.8335H14.4987L11.757 15.5751C11.6001 15.7309 11.5115 15.9427 11.5107 16.1638C11.51 16.385 11.597 16.5974 11.7529 16.7543C11.9087 16.9112 12.1204 16.9998 12.3416 17.0006C12.5627 17.0014 12.7751 16.9143 12.932 16.7585L16.507 13.1751C16.82 12.864 16.9968 12.4414 16.9987 12.0001Z" fill="white"/>
</svg>
