<svg width="50" height="50" viewBox="0 0 50 50" fill="none" xmlns="http://www.w3.org/2000/svg">
<g clip-path="url(#clip0_1280_30645)">
<path d="M36.6672 49.1659H45.0089C45.6945 49.1642 46.369 48.9933 46.9728 48.6685C47.5765 48.3436 48.0908 47.8748 48.47 47.3036C48.8491 46.7323 49.0815 46.0764 49.1464 45.3939C49.2113 44.7114 49.1068 44.0234 48.8422 43.3909L44.2505 32.4909C43.1131 29.7922 41.1187 27.5431 38.5755 26.0909L37.6505 25.5576C38.6441 23.8434 39.1673 21.8972 39.1672 19.9159C39.1652 18.8676 39.0194 17.8245 38.7339 16.8159L36.6839 9.64924C35.9595 7.10936 34.4272 4.8747 32.3191 3.2837C30.2109 1.6927 27.6417 0.832031 25.0005 0.832031C22.3594 0.832031 19.7902 1.6927 17.682 3.2837C15.5738 4.8747 14.0415 7.10936 13.3172 9.64924L11.2672 16.8159C10.9816 17.8245 10.8358 18.8676 10.8339 19.9159C10.8338 21.8972 11.357 23.8434 12.3505 25.5576L11.4255 26.0909C8.88234 27.5431 6.888 29.7922 5.75053 32.4909L1.15887 43.3909C0.894222 44.0234 0.789735 44.7114 0.854669 45.3939C0.919603 46.0764 1.15195 46.7323 1.53111 47.3036C1.91027 47.8748 2.42453 48.3436 3.02827 48.6685C3.63202 48.9933 4.3066 49.1642 4.9922 49.1659H13.3339" fill="#FFE4B2"/>
<path d="M38.3086 32.7757L36.3669 44.4423C36.3009 44.8305 36.1001 45.1829 35.7998 45.4375C35.4995 45.6921 35.1189 45.8325 34.7252 45.834L34.1669 46.6673H15.8336L15.2752 45.834C14.8815 45.8325 14.501 45.6921 14.2006 45.4375C13.9003 45.1829 13.6995 44.8305 13.6336 44.4423L11.6919 32.7757C11.6509 32.5369 11.6627 32.292 11.7264 32.0583C11.7901 31.8245 11.9041 31.6075 12.0605 31.4225C12.217 31.2375 12.412 31.0889 12.6319 30.9873C12.8518 30.8856 13.0913 30.8333 13.3336 30.834H36.6669C36.9092 30.8333 37.1487 30.8856 37.3686 30.9873C37.5885 31.0889 37.7835 31.2375 37.9399 31.4225C38.0963 31.6075 38.2104 31.8245 38.2741 32.0583C38.3377 32.292 38.3495 32.5369 38.3086 32.7757Z" fill="white"/>
<path d="M17.717 23.8591C16.9705 21.5367 16.6156 19.1063 16.667 16.6674V15.8008L33.3337 15.8424V16.6674C33.385 19.1063 33.0302 21.5367 32.2837 23.8591H17.717Z" fill="white"/>
<path d="M27.9535 38.8589L25.2593 42.368C25.2297 42.4088 25.1909 42.442 25.146 42.4649C25.1011 42.4878 25.0514 42.4998 25.001 42.4998C24.9506 42.4998 24.9009 42.4878 24.856 42.4649C24.8111 42.442 24.7722 42.4088 24.7426 42.368L22.0485 38.8589C22.0007 38.795 21.9736 38.718 21.9709 38.6383C21.9682 38.5586 21.9901 38.4799 22.0335 38.413L24.7276 34.3189C24.7563 34.2721 24.7965 34.2336 24.8444 34.2068C24.8922 34.1801 24.9461 34.166 25.001 34.166C25.0558 34.166 25.1097 34.1801 25.1575 34.2068C25.2054 34.2336 25.2456 34.2721 25.2743 34.3189L27.9685 38.4164C28.0111 38.4829 28.0325 38.5609 28.0298 38.6399C28.0272 38.719 28.0005 38.7953 27.9535 38.8589Z" fill="#FFE4B2"/>
<path d="M32.2835 23.859C30.0501 30.384 25.0001 30.834 25.0001 30.834C25.0001 30.834 19.9501 30.384 17.7168 23.859C19.5418 23.534 20.8335 23.334 20.8335 23.334H29.1668C29.1668 23.334 30.4585 23.534 32.2835 23.859Z" fill="#FBDD4D"/>
<path d="M29.1673 21.791V23.3327C29.1673 24.4378 28.7283 25.4976 27.9469 26.279C27.1655 27.0604 26.1057 27.4993 25.0007 27.4993C23.8956 27.4993 22.8358 27.0604 22.0544 26.279C21.273 25.4976 20.834 24.4378 20.834 23.3327V21.791H29.1673Z" fill="#FFBB3F"/>
<path d="M33.3337 15.934C33.314 16.9417 33.054 17.9302 32.5754 18.8173C31.4912 20.7006 27.157 23.334 25.0004 23.334C22.8437 23.334 18.5004 20.7006 17.417 18.8173C16.9475 17.9211 16.6909 16.9287 16.667 15.9173C16.6507 15.6115 16.7019 15.3058 16.8172 15.022C16.9324 14.7383 17.1088 14.4834 17.3337 14.2756C19.4709 12.474 22.2079 11.5429 25.0004 11.6673C28.2504 11.6673 30.8937 12.6173 32.667 14.2756C32.8897 14.4887 33.0644 14.7469 33.1793 15.0328C33.2943 15.3188 33.3469 15.626 33.3337 15.934Z" fill="#FFBB3F"/>
<path d="M36.6667 45.834H13.3333C12.8731 45.834 12.5 46.2071 12.5 46.6673V48.334C12.5 48.7942 12.8731 49.1673 13.3333 49.1673H36.6667C37.1269 49.1673 37.5 48.7942 37.5 48.334V46.6673C37.5 46.2071 37.1269 45.834 36.6667 45.834Z" fill="white"/>
</g>
<defs>
<clipPath id="clip0_1280_30645">
<rect width="50" height="50" fill="white"/>
</clipPath>
</defs>
</svg>
