<svg width="20" height="20" viewBox="0 0 20 20" fill="none" xmlns="http://www.w3.org/2000/svg">
<path d="M9.50606 18.9991C9.12655 18.9403 8.745 18.897 8.36853 18.8194C5.74234 18.2763 3.56417 16.1603 3.12377 13.7185C2.74679 11.6279 3.22829 9.7127 4.60531 8.02367C5.24055 7.24499 5.99095 6.54718 6.67135 5.79859C7.12799 5.29734 7.5897 4.79561 7.98038 4.2511C8.63693 3.33558 8.84647 2.31474 8.64352 1.22524C8.63033 1.15423 8.67041 1.07524 8.68614 1C8.76022 1.01646 8.84698 1.01552 8.90685 1.0522C10.3443 1.93762 11.4087 3.08778 11.875 4.66019C12.152 5.5931 12.116 6.52179 11.8912 7.46082C11.8065 7.81536 11.7629 8.2 11.8151 8.55643C11.9166 9.26175 12.6853 9.81238 13.4489 9.80674C14.247 9.8011 14.9497 9.2627 15.0862 8.53715C15.1207 8.35423 15.1014 8.16097 15.1192 7.97759C15.1258 7.91034 15.1699 7.8464 15.1963 7.78151C15.2623 7.81536 15.3485 7.83464 15.3911 7.88542C16.1552 8.80376 16.6149 9.84765 16.8478 10.9809C17.2537 12.9558 16.8575 14.7746 15.5413 16.3851C14.3028 17.9006 12.6538 18.7729 10.6025 18.9713C10.5529 18.9783 10.5038 18.9879 10.4554 19L9.50606 18.9991Z" fill="white" stroke="white" stroke-width="1.5" stroke-miterlimit="10" stroke-linejoin="round"/>
</svg>
