<svg width="20" height="20" viewBox="0 0 20 20" fill="none" xmlns="http://www.w3.org/2000/svg">
<path d="M6.03317 1.66699H4.44984C2.62484 1.66699 1.6665 2.62533 1.6665 4.44199V6.02533C1.6665 7.84199 2.62484 8.80033 4.4415 8.80033H6.02484C7.8415 8.80033 8.79984 7.84199 8.79984 6.02533V4.44199C8.80817 2.62533 7.84984 1.66699 6.03317 1.66699Z" fill="#324054"/>
<path d="M15.5585 1.66699H13.9752C12.1585 1.66699 11.2002 2.62533 11.2002 4.44199V6.02533C11.2002 7.84199 12.1585 8.80033 13.9752 8.80033H15.5585C17.3752 8.80033 18.3335 7.84199 18.3335 6.02533V4.44199C18.3335 2.62533 17.3752 1.66699 15.5585 1.66699Z" fill="#324054"/>
<path d="M15.5585 11.1914H13.9752C12.1585 11.1914 11.2002 12.1497 11.2002 13.9664V15.5497C11.2002 17.3664 12.1585 18.3247 13.9752 18.3247H15.5585C17.3752 18.3247 18.3335 17.3664 18.3335 15.5497V13.9664C18.3335 12.1497 17.3752 11.1914 15.5585 11.1914Z" fill="#FFA500"/>
<path d="M6.03317 11.1914H4.44984C2.62484 11.1914 1.6665 12.1497 1.6665 13.9664V15.5497C1.6665 17.3747 2.62484 18.3331 4.4415 18.3331H6.02484C7.8415 18.3331 8.79984 17.3747 8.79984 15.5581V13.9747C8.80817 12.1497 7.84984 11.1914 6.03317 11.1914Z" fill="#324054"/>
</svg>
