<svg width="363" height="100" viewBox="0 0 363 100" fill="none" xmlns="http://www.w3.org/2000/svg">
<g clip-path="url(#clip0_362_13387)">
<path fill-rule="evenodd" clip-rule="evenodd" d="M42.427 12.956L18.7166 49.979L42.427 87.0021H320.573L344.284 49.979L320.573 12.956H42.427ZM49.5191 25.9119L34.1178 49.979L49.5191 74.0461H313.439L328.84 49.979L313.439 25.9119H49.5191Z" fill="url(#paint0_linear_362_13387)"/>
<path fill-rule="evenodd" clip-rule="evenodd" d="M313.481 25.912L343.906 73.5011V79.8323L311.593 29.3501L313.481 25.912Z" fill="url(#paint1_linear_362_13387)"/>
<path fill-rule="evenodd" clip-rule="evenodd" d="M343.906 73.501L313.481 25.9119L315.327 22.4738L343.906 67.1279V73.501Z" fill="url(#paint2_linear_362_13387)"/>
<path fill-rule="evenodd" clip-rule="evenodd" d="M4.07064 49.979L19.0942 26.499V20.1258L0 49.979H4.07064Z" fill="url(#paint3_linear_362_13387)"/>
<path fill-rule="evenodd" clip-rule="evenodd" d="M19.0941 26.499L4.07056 49.979H8.14119L19.0941 32.8721V26.499Z" fill="url(#paint4_linear_362_13387)"/>
<path fill-rule="evenodd" clip-rule="evenodd" d="M49.5191 74.0881L19.0942 26.499V20.1258L51.4075 70.6499L49.5191 74.0881Z" fill="url(#paint5_linear_362_13387)"/>
<path fill-rule="evenodd" clip-rule="evenodd" d="M19.0942 26.499L49.5191 74.0881L47.6726 77.4843L19.0942 32.8721V26.499Z" fill="url(#paint6_linear_362_13387)"/>
<path fill-rule="evenodd" clip-rule="evenodd" d="M18.7164 49.979L42.4268 87.044L40.5384 90.4402L14.6877 49.979H18.7164Z" fill="url(#paint7_linear_362_13387)"/>
<path fill-rule="evenodd" clip-rule="evenodd" d="M42.427 87.044L18.7166 49.979H22.7872L44.3154 83.6059L42.427 87.044Z" fill="url(#paint8_linear_362_13387)"/>
<path fill-rule="evenodd" clip-rule="evenodd" d="M42.427 87.044H320.573L322.42 90.4402H40.5386L42.427 87.044Z" fill="url(#paint9_linear_362_13387)"/>
<path fill-rule="evenodd" clip-rule="evenodd" d="M320.573 87.044H42.427L44.3154 83.6059H318.685L320.573 87.044Z" fill="url(#paint10_linear_362_13387)"/>
<path fill-rule="evenodd" clip-rule="evenodd" d="M318.685 83.6059L340.213 49.979H344.241L320.573 87.044L318.685 83.6059Z" fill="url(#paint11_linear_362_13387)"/>
<path fill-rule="evenodd" clip-rule="evenodd" d="M320.573 87.044L344.241 49.979H348.312L322.419 90.4402L320.573 87.044Z" fill="url(#paint12_linear_362_13387)"/>
<path fill-rule="evenodd" clip-rule="evenodd" d="M49.5191 25.912L19.0942 73.5011V79.8323L51.4075 29.3501L49.5191 25.912Z" fill="url(#paint13_linear_362_13387)"/>
<path fill-rule="evenodd" clip-rule="evenodd" d="M19.0942 73.501L49.5191 25.9119L47.6726 22.4738L19.0942 67.1279V73.501Z" fill="url(#paint14_linear_362_13387)"/>
<path fill-rule="evenodd" clip-rule="evenodd" d="M49.5191 25.9119H313.481L315.327 22.4738H47.6726L49.5191 25.9119Z" fill="url(#paint15_linear_362_13387)"/>
<path fill-rule="evenodd" clip-rule="evenodd" d="M313.481 25.912H49.519L51.4075 29.3501H311.592L313.481 25.912Z" fill="url(#paint16_linear_362_13387)"/>
<path fill-rule="evenodd" clip-rule="evenodd" d="M49.5191 74.088H313.481L315.327 77.4843H47.6726L49.5191 74.088Z" fill="url(#paint17_linear_362_13387)"/>
<path fill-rule="evenodd" clip-rule="evenodd" d="M313.481 74.0881H49.519L51.4075 70.6499H311.592L313.481 74.0881Z" fill="url(#paint18_linear_362_13387)"/>
<path fill-rule="evenodd" clip-rule="evenodd" d="M4.07064 49.979L19.0942 73.501V79.8323L0 49.979H4.07064Z" fill="url(#paint19_linear_362_13387)"/>
<path fill-rule="evenodd" clip-rule="evenodd" d="M19.0941 73.501L4.07056 49.979H8.14119L19.0941 67.1279V73.501Z" fill="url(#paint20_linear_362_13387)"/>
<path fill-rule="evenodd" clip-rule="evenodd" d="M358.929 49.979L343.906 26.499V20.1258L363 49.979H358.929Z" fill="url(#paint21_linear_362_13387)"/>
<path fill-rule="evenodd" clip-rule="evenodd" d="M343.906 26.499L358.929 49.979H354.859L343.906 32.8721V26.499Z" fill="url(#paint22_linear_362_13387)"/>
<path fill-rule="evenodd" clip-rule="evenodd" d="M358.929 49.979L343.906 73.501V79.8323L363 49.979H358.929Z" fill="url(#paint23_linear_362_13387)"/>
<path fill-rule="evenodd" clip-rule="evenodd" d="M343.906 73.501L358.929 49.979H354.859L343.906 67.1279V73.501Z" fill="url(#paint24_linear_362_13387)"/>
<path fill-rule="evenodd" clip-rule="evenodd" d="M18.7164 49.979L42.4268 12.956L40.5384 9.51782L14.6877 49.979H18.7164Z" fill="url(#paint25_linear_362_13387)"/>
<path fill-rule="evenodd" clip-rule="evenodd" d="M42.427 12.956L18.7166 49.979H22.7872L44.3154 16.3941L42.427 12.956Z" fill="url(#paint26_linear_362_13387)"/>
<path fill-rule="evenodd" clip-rule="evenodd" d="M42.427 12.956H320.573L322.42 9.51782H40.5386L42.427 12.956Z" fill="url(#paint27_linear_362_13387)"/>
<path fill-rule="evenodd" clip-rule="evenodd" d="M320.573 12.956H42.427L44.3154 16.3941H318.685L320.573 12.956Z" fill="url(#paint28_linear_362_13387)"/>
<path fill-rule="evenodd" clip-rule="evenodd" d="M318.685 16.3941L340.213 49.979H344.241L320.573 12.956L318.685 16.3941Z" fill="url(#paint29_linear_362_13387)"/>
<path fill-rule="evenodd" clip-rule="evenodd" d="M320.573 12.956L344.241 49.979H348.312L322.419 9.51782L320.573 12.956Z" fill="url(#paint30_linear_362_13387)"/>
<path fill-rule="evenodd" clip-rule="evenodd" d="M313.481 74.0881L343.906 26.499V20.1258L311.593 70.6499L313.481 74.0881Z" fill="url(#paint31_linear_362_13387)"/>
<path fill-rule="evenodd" clip-rule="evenodd" d="M343.906 26.499L313.481 74.0881L315.327 77.4843L343.906 32.8721V26.499Z" fill="url(#paint32_linear_362_13387)"/>
<path fill-rule="evenodd" clip-rule="evenodd" d="M42.4268 12.956L37.6008 14.13L38.7759 6.28931L42.4268 12.956Z" fill="url(#paint33_linear_362_13387)"/>
<path fill-rule="evenodd" clip-rule="evenodd" d="M42.4269 12.956L46.0359 9.51782L38.7759 6.28931L42.4269 12.956Z" fill="url(#paint34_linear_362_13387)"/>
<path fill-rule="evenodd" clip-rule="evenodd" d="M320.573 12.956L325.399 14.13L324.224 6.28931L320.573 12.956Z" fill="url(#paint35_linear_362_13387)"/>
<path fill-rule="evenodd" clip-rule="evenodd" d="M320.573 12.956L316.964 9.51782L324.224 6.28931L320.573 12.956Z" fill="url(#paint36_linear_362_13387)"/>
<path fill-rule="evenodd" clip-rule="evenodd" d="M42.4268 87.044L37.6008 85.87L38.7759 93.7107L42.4268 87.044Z" fill="url(#paint37_linear_362_13387)"/>
<path fill-rule="evenodd" clip-rule="evenodd" d="M42.4269 87.044L46.0359 90.4402L38.7759 93.7107L42.4269 87.044Z" fill="url(#paint38_linear_362_13387)"/>
<path fill-rule="evenodd" clip-rule="evenodd" d="M320.573 87.044L325.399 85.87L324.224 93.7107L320.573 87.044Z" fill="url(#paint39_linear_362_13387)"/>
<path fill-rule="evenodd" clip-rule="evenodd" d="M320.573 87.044L316.964 90.4402L324.224 93.7107L320.573 87.044Z" fill="url(#paint40_linear_362_13387)"/>
<g style="mix-blend-mode:screen" opacity="0.35">
<path fill-rule="evenodd" clip-rule="evenodd" d="M181.5 22.4738H47.6726C48.2182 20.0839 60.9336 19.6227 181.5 19.6227C302.066 19.6227 314.824 20.0839 315.327 22.4738H181.5Z" fill="#FF9566"/>
</g>
<g style="mix-blend-mode:screen" opacity="0.35">
<path fill-rule="evenodd" clip-rule="evenodd" d="M181.5 83.6059H44.3154C44.861 81.2159 57.8702 80.7547 181.5 80.7547C305.13 80.7547 318.139 81.2159 318.685 83.6059H181.5Z" fill="#FF9566"/>
</g>
<path style="mix-blend-mode:multiply" fill-rule="evenodd" clip-rule="evenodd" d="M26.4382 44.3187L30.0472 49.979L34.1179 43.6059L30.5089 37.9455L26.4382 44.3187ZM34.1179 56.3522L37.7269 62.0126L41.7975 55.6394L38.1885 49.979L34.1179 56.3522Z" fill="url(#paint41_radial_362_13387)"/>
<path style="mix-blend-mode:multiply" fill-rule="evenodd" clip-rule="evenodd" d="M18.7166 56.3522L22.3256 62.0126L26.3962 55.6394L22.7872 49.979L18.7166 56.3522ZM26.3962 68.3857L30.0052 74.0461L34.0759 67.673L30.4668 62.0126L26.3962 68.3857Z" fill="url(#paint42_radial_362_13387)"/>
<path style="mix-blend-mode:multiply" fill-rule="evenodd" clip-rule="evenodd" d="M328.882 56.3522L332.491 62.0126L336.562 55.6394L332.953 49.979L328.882 56.3522ZM336.562 68.3857L340.171 74.0461L344.242 67.673L340.633 62.0126L336.562 68.3857Z" fill="url(#paint43_radial_362_13387)"/>
<path style="mix-blend-mode:multiply" fill-rule="evenodd" clip-rule="evenodd" d="M328.882 32.2851L332.491 37.9455L336.562 31.5723L332.953 25.912L328.882 32.2851ZM336.562 44.3187L340.171 49.979L344.242 43.6059L340.633 37.9455L336.562 44.3187Z" fill="url(#paint44_radial_362_13387)"/>
<path fill-rule="evenodd" clip-rule="evenodd" d="M181.5 0L194.467 12.956L181.5 25.9119L168.533 12.956L181.5 0ZM181.5 4.8218L173.401 12.914L181.5 21.0063L189.599 12.914L181.5 4.8218Z" fill="#999999"/>
<path fill-rule="evenodd" clip-rule="evenodd" d="M170.967 12.956L181.5 2.43187V0L168.533 12.956H170.967Z" fill="url(#paint45_linear_362_13387)"/>
<path fill-rule="evenodd" clip-rule="evenodd" d="M181.5 2.43185L170.967 12.956H173.401L181.5 4.82179V2.43185Z" fill="url(#paint46_linear_362_13387)"/>
<path fill-rule="evenodd" clip-rule="evenodd" d="M192.033 12.956L181.5 2.43187V0L194.467 12.956H192.033Z" fill="url(#paint47_linear_362_13387)"/>
<path fill-rule="evenodd" clip-rule="evenodd" d="M181.5 2.43185L192.033 12.956H189.599L181.5 4.82179V2.43185Z" fill="url(#paint48_linear_362_13387)"/>
<path fill-rule="evenodd" clip-rule="evenodd" d="M170.967 12.956L181.5 23.4801V25.9119L168.533 12.956H170.967Z" fill="url(#paint49_linear_362_13387)"/>
<path fill-rule="evenodd" clip-rule="evenodd" d="M181.5 23.4801L170.967 12.956H173.401L181.5 21.0482V23.4801Z" fill="url(#paint50_linear_362_13387)"/>
<path fill-rule="evenodd" clip-rule="evenodd" d="M192.033 12.956L181.5 23.4801V25.9119L194.467 12.956H192.033Z" fill="url(#paint51_linear_362_13387)"/>
<path fill-rule="evenodd" clip-rule="evenodd" d="M181.5 23.4801L192.033 12.956H189.599L181.5 21.0482V23.4801Z" fill="url(#paint52_linear_362_13387)"/>
<path fill-rule="evenodd" clip-rule="evenodd" d="M173.401 12.956L181.5 4.82181L189.599 12.956L181.5 21.0482L173.401 12.956Z" fill="#990099"/>
<path fill-rule="evenodd" clip-rule="evenodd" d="M176.254 12.956L181.5 7.71487L186.746 12.956L181.5 18.1971L176.254 12.956Z" fill="url(#paint53_linear_362_13387)"/>
<path fill-rule="evenodd" clip-rule="evenodd" d="M176.254 12.956L181.5 7.71489V4.82181L173.401 12.956H176.254Z" fill="url(#paint54_linear_362_13387)"/>
<path fill-rule="evenodd" clip-rule="evenodd" d="M186.746 12.956L181.5 7.71489V4.82181L189.599 12.956H186.746Z" fill="url(#paint55_linear_362_13387)"/>
<path fill-rule="evenodd" clip-rule="evenodd" d="M176.254 12.956L181.5 18.1551V21.0482L173.401 12.956H176.254Z" fill="url(#paint56_linear_362_13387)"/>
<path fill-rule="evenodd" clip-rule="evenodd" d="M186.746 12.956L181.5 18.1551V21.0482L189.599 12.956H186.746Z" fill="url(#paint57_linear_362_13387)"/>
<path fill-rule="evenodd" clip-rule="evenodd" d="M181.5 74.088L194.467 87.044L181.5 100L168.533 87.044L181.5 74.088ZM181.5 78.9098L173.401 87.0021L181.5 95.0943L189.599 87.0021L181.5 78.9098Z" fill="#999999"/>
<path fill-rule="evenodd" clip-rule="evenodd" d="M170.967 87.044L181.5 76.478V74.088L168.533 87.044H170.967Z" fill="url(#paint58_linear_362_13387)"/>
<path fill-rule="evenodd" clip-rule="evenodd" d="M181.5 76.478L170.967 87.044H173.401L181.5 78.9098V76.478Z" fill="url(#paint59_linear_362_13387)"/>
<path fill-rule="evenodd" clip-rule="evenodd" d="M192.033 87.044L181.5 76.478V74.088L194.467 87.044H192.033Z" fill="url(#paint60_linear_362_13387)"/>
<path fill-rule="evenodd" clip-rule="evenodd" d="M181.5 76.478L192.033 87.044H189.599L181.5 78.9098V76.478Z" fill="url(#paint61_linear_362_13387)"/>
<path fill-rule="evenodd" clip-rule="evenodd" d="M170.967 87.044L181.5 97.5681V100L168.533 87.044H170.967Z" fill="url(#paint62_linear_362_13387)"/>
<path fill-rule="evenodd" clip-rule="evenodd" d="M181.5 97.5681L170.967 87.044H173.401L181.5 95.1363V97.5681Z" fill="url(#paint63_linear_362_13387)"/>
<path fill-rule="evenodd" clip-rule="evenodd" d="M192.033 87.044L181.5 97.5681V100L194.467 87.044H192.033Z" fill="url(#paint64_linear_362_13387)"/>
<path fill-rule="evenodd" clip-rule="evenodd" d="M181.5 97.5681L192.033 87.044H189.599L181.5 95.1363V97.5681Z" fill="url(#paint65_linear_362_13387)"/>
<path fill-rule="evenodd" clip-rule="evenodd" d="M173.401 87.044L181.5 78.9099L189.599 87.044L181.5 95.1363L173.401 87.044Z" fill="#990099"/>
<path fill-rule="evenodd" clip-rule="evenodd" d="M176.254 87.044L181.5 81.8029L186.746 87.044L181.5 92.2432L176.254 87.044Z" fill="url(#paint66_linear_362_13387)"/>
<path fill-rule="evenodd" clip-rule="evenodd" d="M176.254 87.044L181.5 81.8029V78.9099L173.401 87.044H176.254Z" fill="url(#paint67_linear_362_13387)"/>
<path fill-rule="evenodd" clip-rule="evenodd" d="M186.746 87.044L181.5 81.8029V78.9099L189.599 87.044H186.746Z" fill="url(#paint68_linear_362_13387)"/>
<path fill-rule="evenodd" clip-rule="evenodd" d="M176.254 87.0021L181.5 92.2432V95.1363L173.401 87.0021H176.254Z" fill="url(#paint69_linear_362_13387)"/>
<path fill-rule="evenodd" clip-rule="evenodd" d="M186.746 87.0021L181.5 92.2432V95.1363L189.599 87.0021H186.746Z" fill="url(#paint70_linear_362_13387)"/>
</g>
<defs>
<linearGradient id="paint0_linear_362_13387" x1="181.5" y1="87.044" x2="181.5" y2="12.956" gradientUnits="userSpaceOnUse">
<stop stop-color="#750016"/>
<stop offset="1" stop-color="#45000D"/>
</linearGradient>
<linearGradient id="paint1_linear_362_13387" x1="327.749" y1="79.8323" x2="327.749" y2="25.912" gradientUnits="userSpaceOnUse">
<stop stop-color="#6E4500"/>
<stop offset="1" stop-color="#CF9353"/>
</linearGradient>
<linearGradient id="paint2_linear_362_13387" x1="328.672" y1="73.501" x2="328.672" y2="22.4738" gradientUnits="userSpaceOnUse">
<stop stop-color="#AB671C"/>
<stop offset="1" stop-color="#784C00"/>
</linearGradient>
<linearGradient id="paint3_linear_362_13387" x1="9.56809" y1="49.979" x2="9.56809" y2="20.1258" gradientUnits="userSpaceOnUse">
<stop stop-color="#F5AD24"/>
<stop offset="1" stop-color="#FFE56B"/>
</linearGradient>
<linearGradient id="paint4_linear_362_13387" x1="11.5823" y1="49.979" x2="11.5823" y2="26.499" gradientUnits="userSpaceOnUse">
<stop stop-color="#AB671C"/>
<stop offset="1" stop-color="#784C00"/>
</linearGradient>
<linearGradient id="paint5_linear_362_13387" x1="35.2509" y1="74.0881" x2="35.2509" y2="20.1258" gradientUnits="userSpaceOnUse">
<stop stop-color="#AB671C"/>
<stop offset="1" stop-color="#784C00"/>
</linearGradient>
<linearGradient id="paint6_linear_362_13387" x1="34.3276" y1="77.4843" x2="34.3276" y2="26.499" gradientUnits="userSpaceOnUse">
<stop stop-color="#F5B41E"/>
<stop offset="1" stop-color="#D18900"/>
</linearGradient>
<linearGradient id="paint7_linear_362_13387" x1="28.5363" y1="90.4402" x2="28.5363" y2="49.979" gradientUnits="userSpaceOnUse">
<stop stop-color="#F5B41E"/>
<stop offset="1" stop-color="#D18900"/>
</linearGradient>
<linearGradient id="paint8_linear_362_13387" x1="31.516" y1="87.044" x2="31.516" y2="49.979" gradientUnits="userSpaceOnUse">
<stop stop-color="#AB671C"/>
<stop offset="1" stop-color="#784C00"/>
</linearGradient>
<linearGradient id="paint9_linear_362_13387" x1="181.5" y1="90.4402" x2="181.5" y2="87.044" gradientUnits="userSpaceOnUse">
<stop stop-color="#472D00"/>
<stop offset="1" stop-color="#784814"/>
</linearGradient>
<linearGradient id="paint10_linear_362_13387" x1="181.5" y1="87.044" x2="181.5" y2="83.6059" gradientUnits="userSpaceOnUse">
<stop stop-color="#FFBE45"/>
<stop offset="1" stop-color="#FFF0AB"/>
</linearGradient>
<linearGradient id="paint11_linear_362_13387" x1="331.484" y1="87.044" x2="331.484" y2="49.979" gradientUnits="userSpaceOnUse">
<stop stop-color="#F5AD24"/>
<stop offset="1" stop-color="#FFE56B"/>
</linearGradient>
<linearGradient id="paint12_linear_362_13387" x1="334.464" y1="90.4402" x2="334.464" y2="49.979" gradientUnits="userSpaceOnUse">
<stop stop-color="#784C00"/>
<stop offset="1" stop-color="#AB671C"/>
</linearGradient>
<linearGradient id="paint13_linear_362_13387" x1="35.2509" y1="79.8323" x2="35.2509" y2="25.912" gradientUnits="userSpaceOnUse">
<stop stop-color="#E3A436"/>
<stop offset="1" stop-color="#784C00"/>
</linearGradient>
<linearGradient id="paint14_linear_362_13387" x1="34.3276" y1="73.501" x2="34.3276" y2="22.4738" gradientUnits="userSpaceOnUse">
<stop stop-color="#F5AD24"/>
<stop offset="1" stop-color="#FFE56B"/>
</linearGradient>
<linearGradient id="paint15_linear_362_13387" x1="181.5" y1="25.9119" x2="181.5" y2="22.4738" gradientUnits="userSpaceOnUse">
<stop stop-color="#FFBE45"/>
<stop offset="1" stop-color="#FFF0AB"/>
</linearGradient>
<linearGradient id="paint16_linear_362_13387" x1="181.5" y1="29.3501" x2="181.5" y2="1.16869e-06" gradientUnits="userSpaceOnUse">
<stop stop-color="#6E4500"/>
<stop offset="1" stop-color="#CF9353"/>
</linearGradient>
<linearGradient id="paint17_linear_362_13387" x1="181.5" y1="77.4843" x2="181.5" y2="74.088" gradientUnits="userSpaceOnUse">
<stop stop-color="#784C00"/>
<stop offset="1" stop-color="#AB671C"/>
</linearGradient>
<linearGradient id="paint18_linear_362_13387" x1="181.5" y1="74.0881" x2="181.5" y2="70.6499" gradientUnits="userSpaceOnUse">
<stop stop-color="#FFBE45"/>
<stop offset="1" stop-color="#FFF0AB"/>
</linearGradient>
<linearGradient id="paint19_linear_362_13387" x1="9.56809" y1="-6.59784e-06" x2="9.56809" y2="49.979" gradientUnits="userSpaceOnUse">
<stop stop-color="#6E4500"/>
<stop offset="1" stop-color="#CF9353"/>
</linearGradient>
<linearGradient id="paint20_linear_362_13387" x1="11.5823" y1="-4.93268e-06" x2="11.5823" y2="49.979" gradientUnits="userSpaceOnUse">
<stop stop-color="#AB671C"/>
<stop offset="1" stop-color="#784C00"/>
</linearGradient>
<linearGradient id="paint21_linear_362_13387" x1="353.432" y1="49.979" x2="353.432" y2="20.1258" gradientUnits="userSpaceOnUse">
<stop stop-color="#AB671C"/>
<stop offset="1" stop-color="#784C00"/>
</linearGradient>
<linearGradient id="paint22_linear_362_13387" x1="351.418" y1="49.979" x2="351.418" y2="26.499" gradientUnits="userSpaceOnUse">
<stop stop-color="#6E4500"/>
<stop offset="1" stop-color="#CF9353"/>
</linearGradient>
<linearGradient id="paint23_linear_362_13387" x1="353.432" y1="79.8323" x2="353.432" y2="49.979" gradientUnits="userSpaceOnUse">
<stop stop-color="#AB671C"/>
<stop offset="1" stop-color="#784C00"/>
</linearGradient>
<linearGradient id="paint24_linear_362_13387" x1="351.418" y1="73.501" x2="351.418" y2="49.979" gradientUnits="userSpaceOnUse">
<stop stop-color="#F5AD24"/>
<stop offset="1" stop-color="#FFE56B"/>
</linearGradient>
<linearGradient id="paint25_linear_362_13387" x1="28.5363" y1="3.83271e-06" x2="28.5363" y2="9.51782" gradientUnits="userSpaceOnUse">
<stop stop-color="#F5AD24"/>
<stop offset="1" stop-color="#FFE56B"/>
</linearGradient>
<linearGradient id="paint26_linear_362_13387" x1="31.516" y1="49.979" x2="31.516" y2="12.956" gradientUnits="userSpaceOnUse">
<stop stop-color="#AB671C"/>
<stop offset="1" stop-color="#784C00"/>
</linearGradient>
<linearGradient id="paint27_linear_362_13387" x1="181.5" y1="12.956" x2="181.5" y2="9.51782" gradientUnits="userSpaceOnUse">
<stop stop-color="#FFF18F"/>
<stop offset="1" stop-color="#FFFAE3"/>
</linearGradient>
<linearGradient id="paint28_linear_362_13387" x1="181.5" y1="16.3941" x2="181.5" y2="12.956" gradientUnits="userSpaceOnUse">
<stop stop-color="#6E4500"/>
<stop offset="1" stop-color="#CF9353"/>
</linearGradient>
<linearGradient id="paint29_linear_362_13387" x1="331.484" y1="49.979" x2="331.484" y2="12.956" gradientUnits="userSpaceOnUse">
<stop stop-color="#6E4500"/>
<stop offset="1" stop-color="#CF9353"/>
</linearGradient>
<linearGradient id="paint30_linear_362_13387" x1="334.464" y1="49.979" x2="334.464" y2="9.51782" gradientUnits="userSpaceOnUse">
<stop stop-color="#AB671C"/>
<stop offset="1" stop-color="#784C00"/>
</linearGradient>
<linearGradient id="paint31_linear_362_13387" x1="327.749" y1="74.0881" x2="327.749" y2="8.5794e-06" gradientUnits="userSpaceOnUse">
<stop stop-color="#F5AD24"/>
<stop offset="1" stop-color="#FFE56B"/>
</linearGradient>
<linearGradient id="paint32_linear_362_13387" x1="328.672" y1="77.4843" x2="328.672" y2="26.499" gradientUnits="userSpaceOnUse">
<stop stop-color="#E3A436"/>
<stop offset="1" stop-color="#784C00"/>
</linearGradient>
<linearGradient id="paint33_linear_362_13387" x1="37.6008" y1="10.1887" x2="42.4268" y2="10.1887" gradientUnits="userSpaceOnUse">
<stop stop-color="#FFF18F"/>
<stop offset="1" stop-color="#FFFAE3"/>
</linearGradient>
<linearGradient id="paint34_linear_362_13387" x1="38.7759" y1="9.60168" x2="46.0359" y2="9.60168" gradientUnits="userSpaceOnUse">
<stop stop-color="#F5AD24"/>
<stop offset="1" stop-color="#FFE56B"/>
</linearGradient>
<linearGradient id="paint35_linear_362_13387" x1="320.573" y1="10.1887" x2="325.399" y2="10.1887" gradientUnits="userSpaceOnUse">
<stop stop-color="#AB671C"/>
<stop offset="1" stop-color="#784C00"/>
</linearGradient>
<linearGradient id="paint36_linear_362_13387" x1="316.964" y1="9.60168" x2="324.224" y2="9.60168" gradientUnits="userSpaceOnUse">
<stop stop-color="#FFF18F"/>
<stop offset="1" stop-color="#FFFAE3"/>
</linearGradient>
<linearGradient id="paint37_linear_362_13387" x1="37.6008" y1="89.7694" x2="42.4268" y2="89.7694" gradientUnits="userSpaceOnUse">
<stop stop-color="#F5B41E"/>
<stop offset="1" stop-color="#D18900"/>
</linearGradient>
<linearGradient id="paint38_linear_362_13387" x1="38.7759" y1="90.3564" x2="46.0359" y2="90.3564" gradientUnits="userSpaceOnUse">
<stop stop-color="#472D00"/>
<stop offset="1" stop-color="#784814"/>
</linearGradient>
<linearGradient id="paint39_linear_362_13387" x1="320.573" y1="89.7694" x2="325.399" y2="89.7694" gradientUnits="userSpaceOnUse">
<stop stop-color="#784814"/>
<stop offset="1" stop-color="#472D00"/>
</linearGradient>
<linearGradient id="paint40_linear_362_13387" x1="316.964" y1="90.3564" x2="324.224" y2="90.3564" gradientUnits="userSpaceOnUse">
<stop stop-color="#784C00"/>
<stop offset="1" stop-color="#AB671C"/>
</linearGradient>
<radialGradient id="paint41_radial_362_13387" cx="0" cy="0" r="1" gradientUnits="userSpaceOnUse" gradientTransform="translate(34.1179 49.979) scale(10.1136 10.1048)">
<stop stop-color="#80521A"/>
<stop offset="0.94" stop-color="white"/>
</radialGradient>
<radialGradient id="paint42_radial_362_13387" cx="0" cy="0" r="1" gradientUnits="userSpaceOnUse" gradientTransform="translate(26.4382 62.0126) scale(10.1136 10.1048)">
<stop stop-color="#80521A"/>
<stop offset="0.94" stop-color="white"/>
</radialGradient>
<radialGradient id="paint43_radial_362_13387" cx="0" cy="0" r="1" gradientUnits="userSpaceOnUse" gradientTransform="translate(336.562 62.0126) scale(10.1136 10.1048)">
<stop stop-color="#80521A"/>
<stop offset="0.94" stop-color="white"/>
</radialGradient>
<radialGradient id="paint44_radial_362_13387" cx="0" cy="0" r="1" gradientUnits="userSpaceOnUse" gradientTransform="translate(336.562 37.9874) scale(10.1136 10.1048)">
<stop stop-color="#80521A"/>
<stop offset="0.94" stop-color="white"/>
</radialGradient>
<linearGradient id="paint45_linear_362_13387" x1="168.533" y1="6.45702" x2="4.19652" y2="6.45702" gradientUnits="userSpaceOnUse">
<stop stop-color="#FFF18F"/>
<stop offset="1" stop-color="#FFFAE3"/>
</linearGradient>
<linearGradient id="paint46_linear_362_13387" x1="170.967" y1="7.67294" x2="181.5" y2="7.67294" gradientUnits="userSpaceOnUse">
<stop stop-color="#AB5F0B"/>
<stop offset="1" stop-color="#753C00"/>
</linearGradient>
<linearGradient id="paint47_linear_362_13387" x1="181.5" y1="6.45702" x2="194.467" y2="6.45702" gradientUnits="userSpaceOnUse">
<stop stop-color="#EDA85F"/>
<stop offset="1" stop-color="#A36700"/>
</linearGradient>
<linearGradient id="paint48_linear_362_13387" x1="181.5" y1="7.67294" x2="192.033" y2="7.67294" gradientUnits="userSpaceOnUse">
<stop stop-color="#A15900"/>
<stop offset="1" stop-color="#E39644"/>
</linearGradient>
<linearGradient id="paint49_linear_362_13387" x1="168.533" y1="19.413" x2="181.5" y2="19.413" gradientUnits="userSpaceOnUse">
<stop stop-color="#EDA85F"/>
<stop offset="1" stop-color="#A36700"/>
</linearGradient>
<linearGradient id="paint50_linear_362_13387" x1="170.967" y1="18.239" x2="181.5" y2="18.239" gradientUnits="userSpaceOnUse">
<stop stop-color="#6E4500"/>
<stop offset="1" stop-color="#CF9353"/>
</linearGradient>
<linearGradient id="paint51_linear_362_13387" x1="181.5" y1="19.413" x2="194.467" y2="19.413" gradientUnits="userSpaceOnUse">
<stop stop-color="#AB5F0B"/>
<stop offset="1" stop-color="#753C00"/>
</linearGradient>
<linearGradient id="paint52_linear_362_13387" x1="181.5" y1="18.239" x2="192.033" y2="18.239" gradientUnits="userSpaceOnUse">
<stop stop-color="#FFBE45"/>
<stop offset="1" stop-color="#FFF0AB"/>
</linearGradient>
<linearGradient id="paint53_linear_362_13387" x1="181.5" y1="18.1971" x2="181.5" y2="7.71487" gradientUnits="userSpaceOnUse">
<stop stop-color="#F72F2F"/>
<stop offset="1" stop-color="#FF8A8A"/>
</linearGradient>
<linearGradient id="paint54_linear_362_13387" x1="178.898" y1="10.3564" x2="177.431" y2="8.88761" gradientUnits="userSpaceOnUse">
<stop stop-color="#FF8C8C"/>
<stop offset="1" stop-color="#FF5252"/>
</linearGradient>
<linearGradient id="paint55_linear_362_13387" x1="181.5" y1="8.88889" x2="189.599" y2="8.88889" gradientUnits="userSpaceOnUse">
<stop stop-color="#FF5E5E"/>
<stop offset="1" stop-color="#B80000"/>
</linearGradient>
<linearGradient id="paint56_linear_362_13387" x1="173.401" y1="16.9811" x2="181.5" y2="16.9811" gradientUnits="userSpaceOnUse">
<stop stop-color="#FF5E5E"/>
<stop offset="1" stop-color="#B80000"/>
</linearGradient>
<linearGradient id="paint57_linear_362_13387" x1="185.571" y1="16.9811" x2="184.103" y2="15.5543" gradientUnits="userSpaceOnUse">
<stop stop-color="#FF6666"/>
<stop offset="1" stop-color="#DE0000"/>
</linearGradient>
<linearGradient id="paint58_linear_362_13387" x1="168.533" y1="80.5451" x2="4.19652" y2="80.5451" gradientUnits="userSpaceOnUse">
<stop stop-color="#FFF18F"/>
<stop offset="1" stop-color="#FFFAE3"/>
</linearGradient>
<linearGradient id="paint59_linear_362_13387" x1="0.00019428" y1="81.761" x2="4.19672" y2="81.761" gradientUnits="userSpaceOnUse">
<stop stop-color="#AB5F0B"/>
<stop offset="1" stop-color="#753C00"/>
</linearGradient>
<linearGradient id="paint60_linear_362_13387" x1="-1.85565e-05" y1="80.5451" x2="4.19651" y2="80.5451" gradientUnits="userSpaceOnUse">
<stop stop-color="#EDA85F"/>
<stop offset="1" stop-color="#A36700"/>
</linearGradient>
<linearGradient id="paint61_linear_362_13387" x1="0.000116407" y1="81.761" x2="4.19665" y2="81.761" gradientUnits="userSpaceOnUse">
<stop stop-color="#A15900"/>
<stop offset="1" stop-color="#E39644"/>
</linearGradient>
<linearGradient id="paint62_linear_362_13387" x1="168.533" y1="93.501" x2="181.5" y2="93.501" gradientUnits="userSpaceOnUse">
<stop stop-color="#EDA85F"/>
<stop offset="1" stop-color="#A36700"/>
</linearGradient>
<linearGradient id="paint63_linear_362_13387" x1="170.967" y1="92.2851" x2="181.5" y2="92.2851" gradientUnits="userSpaceOnUse">
<stop stop-color="#6E4500"/>
<stop offset="1" stop-color="#CF9353"/>
</linearGradient>
<linearGradient id="paint64_linear_362_13387" x1="181.5" y1="93.501" x2="194.467" y2="93.501" gradientUnits="userSpaceOnUse">
<stop stop-color="#AB5F0B"/>
<stop offset="1" stop-color="#753C00"/>
</linearGradient>
<linearGradient id="paint65_linear_362_13387" x1="181.5" y1="92.2851" x2="192.033" y2="92.2851" gradientUnits="userSpaceOnUse">
<stop stop-color="#FFBE45"/>
<stop offset="1" stop-color="#FFF0AB"/>
</linearGradient>
<linearGradient id="paint66_linear_362_13387" x1="6.91196e-05" y1="92.2432" x2="4.1903" y2="81.8004" gradientUnits="userSpaceOnUse">
<stop stop-color="#F72F2F"/>
<stop offset="1" stop-color="#FF8A8A"/>
</linearGradient>
<linearGradient id="paint67_linear_362_13387" x1="178.898" y1="84.4025" x2="177.431" y2="82.9757" gradientUnits="userSpaceOnUse">
<stop stop-color="#FF8C8C"/>
<stop offset="1" stop-color="#FF5252"/>
</linearGradient>
<linearGradient id="paint68_linear_362_13387" x1="-4.20321e-05" y1="82.9769" x2="4.19649" y2="82.9769" gradientUnits="userSpaceOnUse">
<stop stop-color="#FF5E5E"/>
<stop offset="1" stop-color="#B80000"/>
</linearGradient>
<linearGradient id="paint69_linear_362_13387" x1="173.401" y1="91.0692" x2="181.5" y2="91.0692" gradientUnits="userSpaceOnUse">
<stop stop-color="#FF5E5E"/>
<stop offset="1" stop-color="#B80000"/>
</linearGradient>
<linearGradient id="paint70_linear_362_13387" x1="185.571" y1="91.0692" x2="184.103" y2="89.6423" gradientUnits="userSpaceOnUse">
<stop stop-color="#FF6666"/>
<stop offset="1" stop-color="#DE0000"/>
</linearGradient>
<clipPath id="clip0_362_13387">
<rect width="363" height="100" fill="white"/>
</clipPath>
</defs>
</svg>
