<svg width="70" height="70" viewBox="0 0 70 70" fill="none" xmlns="http://www.w3.org/2000/svg">
<circle cx="35" cy="35" r="35" fill="white"/>
<path d="M42.625 42.1875H27.375C24.475 42.1875 22.8125 40.525 22.8125 37.625V22.5C22.8125 21.9875 23.2375 21.5625 23.75 21.5625H46.25C46.7625 21.5625 47.1875 21.9875 47.1875 22.5V37.625C47.1875 40.525 45.525 42.1875 42.625 42.1875ZM24.6875 23.4375V37.625C24.6875 39.4875 25.5125 40.3125 27.375 40.3125H42.6125C44.475 40.3125 45.3 39.4875 45.3 37.625V23.4375H24.6875Z" fill="#292D32"/>
<path d="M47.5 23.4375H22.5C21.9875 23.4375 21.5625 23.0125 21.5625 22.5C21.5625 21.9875 21.9875 21.5625 22.5 21.5625H47.5C48.0125 21.5625 48.4375 21.9875 48.4375 22.5C48.4375 23.0125 48.0125 23.4375 47.5 23.4375Z" fill="#292D32"/>
<path d="M30.0028 48.4375C29.6528 48.4375 29.3278 48.25 29.1653 47.925C28.9278 47.4625 29.1153 46.9 29.5903 46.6625L34.0653 44.425V41.25C34.0653 40.7375 34.4903 40.3125 35.0028 40.3125C35.5153 40.3125 35.9403 40.7375 35.9403 41.25V45C35.9403 45.35 35.7403 45.675 35.4153 45.8375L30.4153 48.3375C30.2903 48.4 30.1403 48.4375 30.0028 48.4375Z" fill="#292D32"/>
<path d="M40.0029 48.4377C39.8654 48.4377 39.7154 48.4002 39.5904 48.3377L34.5904 45.8377C34.1279 45.6002 33.9404 45.0377 34.1654 44.5752C34.4029 44.1127 34.9654 43.9252 35.4279 44.1502L40.4279 46.6502C40.8904 46.8877 41.0779 47.4502 40.8529 47.9127C40.6779 48.2502 40.3404 48.4377 40.0029 48.4377Z" fill="#292D32"/>
<path d="M29.3732 34.6873C29.1107 34.6873 28.8357 34.5749 28.6482 34.3499C28.3107 33.9499 28.3732 33.3624 28.7732 33.0249L32.7107 29.7374C33.0732 29.4374 33.5357 29.3124 33.9732 29.3874C34.4232 29.4624 34.8107 29.7373 35.0482 30.1373L36.3607 32.3248L40.0232 29.2749C40.4232 28.9499 41.0107 28.9998 41.3482 29.3998C41.6857 29.7998 41.6232 30.3873 41.2232 30.7248L37.2857 34.0123C36.9232 34.3123 36.4607 34.4373 36.0232 34.3623C35.5732 34.2873 35.1857 34.0124 34.9482 33.6124L33.6357 31.4249L29.9732 34.4748C29.7982 34.6123 29.5857 34.6873 29.3732 34.6873Z" fill="#292D32"/>
</svg>
