<svg width="20" height="20" viewBox="0 0 20 20" fill="none" xmlns="http://www.w3.org/2000/svg">
<path d="M7.63362 17.3093V14.7537C7.6336 14.1037 8.16354 13.5755 8.82011 13.5712H11.2252C11.8849 13.5712 12.4197 14.1006 12.4197 14.7537V17.3173C12.4195 17.8692 12.8645 18.3202 13.4218 18.3332H15.0252C16.6235 18.3332 17.9193 17.0504 17.9193 15.468V8.19803C17.9107 7.57553 17.6155 6.99096 17.1176 6.6107L11.634 2.23759C10.6734 1.47614 9.30777 1.47614 8.34712 2.23759L2.88763 6.61863C2.38782 6.99736 2.09209 7.58289 2.08594 8.20597V15.468C2.08594 17.0504 3.38167 18.3332 4.98003 18.3332H6.58341C7.15457 18.3332 7.61758 17.8748 7.61758 17.3093" stroke="#71839B" stroke-width="1.5" stroke-linecap="round" stroke-linejoin="round"/>
</svg>
