<svg width="24" height="24" viewBox="0 0 24 24" fill="none" xmlns="http://www.w3.org/2000/svg">
<path fill-rule="evenodd" clip-rule="evenodd" d="M1 1H10.625V10.625H1V1ZM1 13.375H10.625V23H1V13.375ZM16.125 13.375H13.375V18.875H18.875V16.125H23V13.375H17.5V16.125H16.125V13.375ZM23 17.5H20.25V20.25H17.5V23H23V17.5ZM16.125 20.25H13.375V23H16.125V20.25ZM13.375 1H23V10.625H13.375V1ZM7.1875 4.4375H4.4375V7.1875H7.1875V4.4375ZM4.4375 16.8125H7.1875V19.5625H4.4375V16.8125ZM19.5625 4.4375H16.8125V7.1875H19.5625V4.4375Z" fill="#FFA500"/>
</svg>
