<svg width="30" height="30" viewBox="0 0 30 30" fill="none" xmlns="http://www.w3.org/2000/svg">
<mask id="mask0_1420_6882" style="mask-type:alpha" maskUnits="userSpaceOnUse" x="0" y="0" width="30" height="30">
<rect width="30" height="30" fill="#D9D9D9"/>
</mask>
<g mask="url(#mask0_1420_6882)">
<mask id="mask1_1420_6882" style="mask-type:alpha" maskUnits="userSpaceOnUse" x="1" y="1" width="29" height="29">
<rect x="1.5" y="1.5" width="27.75" height="27.75" fill="#D9D9D9"/>
</mask>
<g mask="url(#mask1_1420_6882)">
<path fill-rule="evenodd" clip-rule="evenodd" d="M19.0852 4.23909L19.3644 3.81651L19.6434 3.40008L20.2654 2.46388C20.3428 2.34885 20.311 2.19322 20.1957 2.11756C20.0818 2.04007 19.9256 2.07204 19.8512 2.18769L18.9017 3.61168L18.6164 4.04042C17.7139 3.68919 16.7081 3.49296 15.6462 3.49296C14.5858 3.49296 13.5785 3.68919 12.676 4.04042L12.3922 3.61168L11.4441 2.18769C11.3668 2.07204 11.212 2.04129 11.0967 2.11756C10.983 2.19322 10.9511 2.34885 11.0269 2.46388L11.6489 3.40008L11.928 3.81651L12.2087 4.23909C10.0895 5.22882 8.6559 7.10245 8.6559 9.24735H22.6365C22.6365 7.10245 21.2029 5.22882 19.0852 4.23909ZM18.6423 7.24578C18.2282 7.24578 17.8929 6.90991 17.8929 6.49472C17.8929 6.08013 18.2282 5.74551 18.6423 5.74551C19.0564 5.74551 19.3916 6.08013 19.3916 6.49472C19.3916 6.90991 19.0564 7.24578 18.6423 7.24578ZM11.9007 6.49472C11.9007 6.90991 12.236 7.24578 12.6501 7.24578C13.0643 7.24578 13.3995 6.90991 13.3995 6.49472C13.3995 6.08013 13.0643 5.74551 12.6501 5.74551C12.236 5.74551 11.9007 6.08013 11.9007 6.49472ZM22.6365 10.2469H8.6559V21.2537C8.6559 22.1278 9.36434 22.8389 10.2381 22.8389H11.3789C11.3394 22.9711 11.3182 23.1096 11.3182 23.2554V26.4244C11.3182 27.253 11.9902 27.9247 12.817 27.9247C13.6438 27.9247 14.3157 27.253 14.3157 26.4244V23.2554C14.3157 23.1096 14.2931 22.9711 14.2551 22.8389H17.0373C16.9993 22.9711 16.9781 23.1096 16.9781 23.2554V26.4244C16.9781 27.253 17.6486 27.9247 18.4754 27.9247C19.3036 27.9247 19.9757 27.253 19.9757 26.4244V23.2554C19.9757 23.1096 19.953 22.9711 19.9134 22.8389H21.0557C21.9295 22.8389 22.6365 22.1278 22.6365 21.2537V10.2469ZM6.15895 10.2469C5.33067 10.2469 4.66016 10.9186 4.66016 11.7472V18.1683C4.66016 18.9969 5.33067 19.6686 6.15895 19.6686C6.9857 19.6686 7.65621 18.9969 7.65621 18.1683V11.7472C7.65621 10.9186 6.9857 10.2469 6.15895 10.2469ZM25.135 10.2469C24.3067 10.2469 23.6361 10.9186 23.6361 11.7472V18.1683C23.6361 18.9969 24.3067 19.6686 25.135 19.6686C25.9617 19.6686 26.6322 18.9969 26.6322 18.1683V11.7472C26.6322 10.9186 25.9617 10.2469 25.135 10.2469Z" fill="#7ADF15"/>
</g>
</g>
</svg>
