<svg width="30" height="30" viewBox="0 0 30 30" fill="none" xmlns="http://www.w3.org/2000/svg">
<g clip-path="url(#clip0_1425_2802)">
<path d="M15.6008 14.3998L1.08828 28.9123C0.394531 28.2561 0.0195312 27.3561 0.0195312 26.3811V3.61855C0.0195312 2.6248 0.413281 1.7248 1.12578 1.0498L15.6008 14.3998Z" fill="#2196F3"/>
<path d="M28.1453 15.0002C28.1453 16.3127 27.4328 17.4752 26.2516 18.1314L22.1266 20.4189L17.0078 15.6939L15.6016 14.4002L21.0203 8.98145L26.2516 11.8689C27.4328 12.5252 28.1453 13.6877 28.1453 15.0002Z" fill="#FFC107"/>
<path d="M15.6 14.4002L1.125 1.05018C1.3125 0.862685 1.55625 0.693935 1.8 0.543935C2.98125 -0.168565 4.40625 -0.187315 5.625 0.487685L21.0188 8.98143L15.6 14.4002Z" fill="#4CAF50"/>
<path d="M22.1234 20.4187L5.62344 29.5124C5.04219 29.8499 4.38594 29.9999 3.74844 29.9999C3.07344 29.9999 2.39844 29.8312 1.79844 29.4562C1.53806 29.307 1.2985 29.1242 1.08594 28.9124L15.5984 14.3999L17.0047 15.6937L22.1234 20.4187Z" fill="#F44336"/>
</g>
<defs>
<clipPath id="clip0_1425_2802">
<rect width="30" height="30" fill="white"/>
</clipPath>
</defs>
</svg>
