<svg width="20" height="20" viewBox="0 0 20 20" fill="none" xmlns="http://www.w3.org/2000/svg">
<path d="M7.61492 17.3105V14.7624C7.61492 14.1119 8.14608 13.5846 8.8013 13.5846H11.1964C11.5111 13.5846 11.8129 13.7087 12.0353 13.9296C12.2578 14.1504 12.3828 14.45 12.3828 14.7624V17.3105C12.3808 17.5809 12.4877 17.8409 12.6796 18.0328C12.8715 18.2247 13.1326 18.3327 13.4051 18.3327H15.0391C15.8023 18.3346 16.5349 18.0351 17.0752 17.5C17.6156 16.965 17.9193 16.2385 17.9193 15.4809V8.22173C17.9193 7.60973 17.646 7.02922 17.1731 6.63657L11.6143 2.22924C10.6473 1.45648 9.26186 1.48143 8.32376 2.2885L2.89178 6.63657C2.39655 7.01764 2.10056 7.59988 2.08594 8.22173V15.4735C2.08594 17.0526 3.37542 18.3327 4.96608 18.3327H6.56285C7.12863 18.3327 7.58843 17.8795 7.59253 17.3179L7.61492 17.3105Z" fill="#71839B"/>
</svg>
