<svg width="20" height="20" viewBox="0 0 20 20" fill="none" xmlns="http://www.w3.org/2000/svg">
<path d="M9.99935 1.66667C7.81602 1.66667 6.04102 3.44167 6.04102 5.62501C6.04102 7.76667 7.71602 9.50001 9.89935 9.57501C9.96602 9.56667 10.0327 9.56667 10.0827 9.57501C10.0993 9.57501 10.1077 9.57501 10.1243 9.57501C10.1327 9.57501 10.1327 9.57501 10.141 9.57501C12.2743 9.50001 13.9493 7.76667 13.9577 5.62501C13.9577 3.44167 12.1827 1.66667 9.99935 1.66667Z" fill="#FFA500"/>
<path opacity="0.4" d="M14.2328 11.8C11.9078 10.25 8.11615 10.25 5.77448 11.8C4.71615 12.5 4.13281 13.4583 4.13281 14.4833C4.13281 15.5083 4.71615 16.4583 5.76615 17.1583C6.93281 17.9417 8.46615 18.3333 9.99948 18.3333C11.5328 18.3333 13.0661 17.9417 14.2328 17.1583C15.2828 16.45 15.8661 15.5 15.8661 14.4667C15.8578 13.45 15.2828 12.4917 14.2328 11.8Z" fill="#FFA500"/>
<path d="M5.89798 14.2446L5.40039 14.0786L5.5712 13.6569L6.05394 13.802C6.30645 13.885 6.44756 13.9611 6.60352 14.0579C6.55896 13.8919 6.53668 13.726 6.53668 13.4909V13H7.01941V13.4909C7.01941 13.726 6.99713 13.8988 6.96 14.0579C7.10111 13.968 7.24964 13.885 7.50215 13.802L7.99231 13.6499L8.16312 14.0786L7.65811 14.2446C7.42045 14.3206 7.22736 14.3483 7.06397 14.369C7.21993 14.4935 7.33133 14.5972 7.46501 14.7839L7.76208 15.1987L7.36104 15.4545L7.06397 15.0604C6.90801 14.8599 6.83374 14.7009 6.7669 14.5557C6.71492 14.7355 6.61837 14.9014 6.49212 15.0604L6.18019 15.4545L5.77915 15.1987L6.07622 14.7839C6.22475 14.5903 6.34358 14.4866 6.49212 14.369C6.28417 14.3414 6.12078 14.3206 5.89798 14.2446Z" fill="#FFA500"/>
<path d="M9.01661 14.2446L8.51902 14.0786L8.68984 13.6569L9.17257 13.802C9.42508 13.885 9.56619 13.9611 9.72215 14.0579C9.67759 13.8919 9.65531 13.726 9.65531 13.4909V13H10.138V13.4909C10.138 13.726 10.1158 13.8988 10.0786 14.0579C10.2197 13.968 10.3683 13.885 10.6208 13.802L11.1109 13.6499L11.2818 14.0786L10.7767 14.2446C10.5391 14.3206 10.346 14.3483 10.1826 14.369C10.3386 14.4935 10.45 14.5972 10.5836 14.7839L10.8807 15.1987L10.4797 15.4545L10.1826 15.0604C10.0266 14.8599 9.95238 14.7009 9.88554 14.5557C9.83355 14.7355 9.737 14.9014 9.61075 15.0604L9.29883 15.4545L8.89779 15.1987L9.19485 14.7839C9.34339 14.5903 9.46222 14.4866 9.61075 14.369C9.4028 14.3414 9.23941 14.3206 9.01661 14.2446Z" fill="#FFA500"/>
<path d="M12.1352 14.2446L11.6377 14.0786L11.8085 13.6569L12.2912 13.802C12.5437 13.885 12.6848 13.9611 12.8408 14.0579C12.7962 13.8919 12.7739 13.726 12.7739 13.4909V13H13.2567V13.4909C13.2567 13.726 13.2344 13.8988 13.1973 14.0579C13.3384 13.968 13.4869 13.885 13.7394 13.802L14.2296 13.6499L14.4004 14.0786L13.8954 14.2446C13.6577 14.3206 13.4646 14.3483 13.3012 14.369C13.4572 14.4935 13.5686 14.5972 13.7023 14.7839L13.9993 15.1987L13.5983 15.4545L13.3012 15.0604C13.1453 14.8599 13.071 14.7009 13.0042 14.5557C12.9522 14.7355 12.8556 14.9014 12.7294 15.0604L12.4175 15.4545L12.0164 15.1987L12.3135 14.7839C12.462 14.5903 12.5808 14.4866 12.7294 14.369C12.5214 14.3414 12.358 14.3206 12.1352 14.2446Z" fill="#FFA500"/>
</svg>
