<svg width="20" height="20" viewBox="0 0 20 20" fill="none" xmlns="http://www.w3.org/2000/svg">
<path d="M14.9974 2.5H4.9974C3.15573 2.5 1.66406 3.98333 1.66406 5.80833V14.1917C1.66406 16.0167 3.15573 17.5 4.9974 17.5H14.9974C16.8391 17.5 18.3307 16.0167 18.3307 14.1917V5.80833C18.3307 3.98333 16.8391 2.5 14.9974 2.5ZM7.08073 5.975C8.13906 5.975 9.00573 6.84167 9.00573 7.9C9.00573 8.95833 8.13906 9.825 7.08073 9.825C6.0224 9.825 5.15573 8.95833 5.15573 7.9C5.15573 6.84167 6.0224 5.975 7.08073 5.975ZM10.3057 13.8833C10.2307 13.9667 10.1141 14.0167 9.9974 14.0167H4.16406C4.0474 14.0167 3.93073 13.9667 3.85573 13.8833C3.81758 13.8404 3.78836 13.7902 3.76976 13.7359C3.75116 13.6815 3.74356 13.624 3.7474 13.5667C3.81705 12.887 4.11994 12.2524 4.60456 11.7709C5.08919 11.2893 5.72564 10.9904 6.40573 10.925C6.85198 10.8833 7.30114 10.8833 7.7474 10.925C9.1474 11.0583 10.2724 12.1667 10.4057 13.5667C10.4224 13.6833 10.3807 13.8 10.3057 13.8833V13.8833ZM15.8307 13.9583H14.1641C13.8224 13.9583 13.5391 13.675 13.5391 13.3333C13.5391 12.9917 13.8224 12.7083 14.1641 12.7083H15.8307C16.1724 12.7083 16.4557 12.9917 16.4557 13.3333C16.4557 13.675 16.1724 13.9583 15.8307 13.9583ZM15.8307 10.625H12.4974C12.1557 10.625 11.8724 10.3417 11.8724 10C11.8724 9.65833 12.1557 9.375 12.4974 9.375H15.8307C16.1724 9.375 16.4557 9.65833 16.4557 10C16.4557 10.3417 16.1724 10.625 15.8307 10.625ZM15.8307 7.29167H11.6641C11.3224 7.29167 11.0391 7.00833 11.0391 6.66667C11.0391 6.325 11.3224 6.04167 11.6641 6.04167H15.8307C16.1724 6.04167 16.4557 6.325 16.4557 6.66667C16.4557 7.00833 16.1724 7.29167 15.8307 7.29167Z" fill="#71839B"/>
</svg>
