<svg xmlns="http://www.w3.org/2000/svg" width="12.699" height="17.699" viewBox="0 0 12.699 17.699">
  <g id="Huge-icon_device_outline_finger_print" data-name="Huge-icon/device/outline/finger print" transform="translate(0.1 0.1)">
    <path id="Vector_1415" data-name="Vector 1415" d="M1.21.673A.642.642,0,0,0,.6,0,.642.642,0,0,0,0,.673ZM0,4.263a.642.642,0,0,0,.6.673.642.642,0,0,0,.6-.673ZM0,.673v3.59H1.21V.673Z" transform="translate(5.645 6.282)" fill="#777e90" stroke="#777e90" stroke-width="0.2"/>
    <path id="Vector_1416" data-name="Vector 1416" d="M.177,13.21a.728.728,0,0,0,0,.952.562.562,0,0,0,.855,0Zm5.645,0a.728.728,0,0,0,0,.952.562.562,0,0,0,.855,0Zm.623.258-.428-.476Zm-5.645,0-.428-.476Zm.232.694.2-.218-.855-.952-.2.218Zm1.79-4.5V3.814H1.613V9.661ZM7.258,3.814V9.661h1.21V3.814Zm-1.24,9.178-.2.218.855.952.2-.218Zm1.24-3.332a4.994,4.994,0,0,1-1.24,3.332l.855.952A6.421,6.421,0,0,0,8.468,9.661ZM5.04,1.346A2.353,2.353,0,0,1,7.258,3.814h1.21A3.636,3.636,0,0,0,5.04,0ZM2.823,3.814A2.353,2.353,0,0,1,5.04,1.346V0A3.636,3.636,0,0,0,1.613,3.814ZM1.228,13.944A6.421,6.421,0,0,0,2.823,9.661H1.613a4.994,4.994,0,0,1-1.24,3.332Z" transform="translate(1.21 3.141)" fill="#777e90" stroke="#777e90" stroke-width="0.2"/>
    <path id="Vector_2842" data-name="Vector 2842" d="M0,13.237a.642.642,0,0,0,.6.673.642.642,0,0,0,.6-.673Zm11.29,0a.608.608,0,1,0,1.21,0Zm-10.081,0V6.955H0v6.282ZM11.29,6.955v6.282H12.5V6.955ZM6.25,1.346a5.347,5.347,0,0,1,5.04,5.609H12.5C12.5,3.114,9.7,0,6.25,0ZM1.21,6.955A5.348,5.348,0,0,1,6.25,1.346V0C2.8,0,0,3.114,0,6.955Z" fill="#777e90" stroke="#777e90" stroke-width="0.2"/>
  </g>
</svg>
