<svg width="20" height="20" viewBox="0 0 20 20" fill="none" xmlns="http://www.w3.org/2000/svg">
<g clip-path="url(#clip0_155_14587)">
<path d="M14.1641 18.125H5.83073C2.15573 18.125 1.03906 17.0083 1.03906 13.3333V6.66667C1.03906 2.99167 2.15573 1.875 5.83073 1.875H14.1641C17.8391 1.875 18.9557 2.99167 18.9557 6.66667V13.3333C18.9557 17.0083 17.8391 18.125 14.1641 18.125ZM5.83073 3.125C2.8474 3.125 2.28906 3.69167 2.28906 6.66667V13.3333C2.28906 16.3083 2.8474 16.875 5.83073 16.875H14.1641C17.1474 16.875 17.7057 16.3083 17.7057 13.3333V6.66667C17.7057 3.69167 17.1474 3.125 14.1641 3.125H5.83073Z" fill="#FFA500"/>
<g clip-path="url(#clip1_155_14587)">
<path d="M14.1641 18.125H5.83073C2.15573 18.125 1.03906 17.0083 1.03906 13.3333V6.66667C1.03906 2.99167 2.15573 1.875 5.83073 1.875H14.1641C17.8391 1.875 18.9557 2.99167 18.9557 6.66667V13.3333C18.9557 17.0083 17.8391 18.125 14.1641 18.125ZM5.83073 3.125C2.8474 3.125 2.28906 3.69167 2.28906 6.66667V13.3333C2.28906 16.3083 2.8474 16.875 5.83073 16.875H14.1641C17.1474 16.875 17.7057 16.3083 17.7057 13.3333V6.66667C17.7057 3.69167 17.1474 3.125 14.1641 3.125H5.83073Z" fill="#71839B"/>
<path d="M15.8343 7.29189H11.6676C11.326 7.29189 11.0426 7.00855 11.0426 6.66689C11.0426 6.32522 11.326 6.04189 11.6676 6.04189H15.8343C16.176 6.04189 16.4593 6.32522 16.4593 6.66689C16.4593 7.00855 16.176 7.29189 15.8343 7.29189ZM15.8343 10.6252H12.501C12.1593 10.6252 11.876 10.3419 11.876 10.0002C11.876 9.65855 12.1593 9.37522 12.501 9.37522H15.8343C16.176 9.37522 16.4593 9.65855 16.4593 10.0002C16.4593 10.3419 16.176 10.6252 15.8343 10.6252ZM15.8343 13.9586H14.1676C13.826 13.9586 13.5426 13.6752 13.5426 13.3336C13.5426 12.9919 13.826 12.7086 14.1676 12.7086H15.8343C16.176 12.7086 16.4593 12.9919 16.4593 13.3336C16.4593 13.6752 16.176 13.9586 15.8343 13.9586ZM7.08429 10.0352C5.90929 10.0352 4.95096 9.07689 4.95096 7.90189C4.95096 6.72689 5.90929 5.76855 7.08429 5.76855C8.25929 5.76855 9.21763 6.72689 9.21763 7.90189C9.21763 9.07689 8.25929 10.0352 7.08429 10.0352ZM7.08429 7.01855C6.60096 7.01855 6.20096 7.41856 6.20096 7.90189C6.20096 8.38522 6.60096 8.78522 7.08429 8.78522C7.56763 8.78522 7.96763 8.38522 7.96763 7.90189C7.96763 7.41856 7.56763 7.01855 7.08429 7.01855ZM10.001 14.2352C9.68429 14.2352 9.40929 13.9936 9.37596 13.6686C9.32969 13.2285 9.13265 12.818 8.81825 12.5066C8.50385 12.1953 8.09145 12.0022 7.65096 11.9602C7.26835 11.9269 6.88357 11.9269 6.50096 11.9602C5.59263 12.0436 4.86763 12.7602 4.77596 13.6686C4.74263 14.0102 4.43429 14.2686 4.09263 14.2269C3.92808 14.21 3.77692 14.1287 3.67227 14.0006C3.56761 13.8725 3.518 13.7082 3.53429 13.5436C3.68429 12.0436 4.87596 10.8519 6.38429 10.7186C6.84263 10.6769 7.30929 10.6769 7.76763 10.7186C9.26763 10.8602 10.4676 12.0519 10.6176 13.5436C10.6339 13.7082 10.5843 13.8725 10.4797 14.0006C10.375 14.1287 10.2238 14.21 10.0593 14.2269C10.0426 14.2352 10.0176 14.2352 10.001 14.2352Z" fill="#71839B"/>
</g>
</g>
<defs>
<clipPath id="clip0_155_14587">
<rect width="20" height="20" fill="white"/>
</clipPath>
<clipPath id="clip1_155_14587">
<rect width="20" height="20" fill="white"/>
</clipPath>
</defs>
</svg>
