<svg width="30" height="30" viewBox="0 0 30 30" fill="none" xmlns="http://www.w3.org/2000/svg">
<path opacity="0.4" d="M27.5 9.7625V17.375L25.4625 15.625C24.4875 14.7875 22.9125 14.7875 21.9375 15.625L16.7375 20.0875C15.7625 20.925 14.1875 20.925 13.2125 20.0875L12.7875 19.7375C11.9 18.9625 10.4875 18.8875 9.4875 19.5625L3.3375 23.6875L3.2 23.7875C2.7375 22.7875 2.5 21.6 2.5 20.2375V9.7625C2.5 5.2125 5.2125 2.5 9.7625 2.5H20.2375C24.7875 2.5 27.5 5.2125 27.5 9.7625Z" fill="#FFA500"/>
<path d="M11.2504 12.9754C12.8934 12.9754 14.2254 11.6434 14.2254 10.0004C14.2254 8.35734 12.8934 7.02539 11.2504 7.02539C9.60734 7.02539 8.27539 8.35734 8.27539 10.0004C8.27539 11.6434 9.60734 12.9754 11.2504 12.9754Z" fill="#FFA500"/>
<path d="M27.5002 17.3752V20.2377C27.5002 24.7877 24.7877 27.5002 20.2377 27.5002H9.7627C6.5752 27.5002 4.2752 26.1627 3.2002 23.7877L3.3377 23.6877L9.4877 19.5627C10.4877 18.8877 11.9002 18.9627 12.7877 19.7377L13.2127 20.0877C14.1877 20.9252 15.7627 20.9252 16.7377 20.0877L21.9377 15.6252C22.9127 14.7877 24.4877 14.7877 25.4627 15.6252L27.5002 17.3752Z" fill="#FFA500"/>
</svg>
