<svg width="243" height="295" viewBox="0 0 243 295" fill="none" xmlns="http://www.w3.org/2000/svg">
<g clip-path="url(#clip0_5305_12727)">
<path d="M125.276 44.4819H117.469V91.3274H125.276V44.4819Z" fill="black"/>
<path d="M78.51 148.486C74.3305 144.125 71.0333 139.359 68.591 134.009C65.3844 126.985 63.9151 119.595 64.0648 111.898C64.0924 110.354 63.6512 110.322 62.4221 110.693C51.4277 114.017 40.8548 118.311 31.0855 124.413C29.8722 125.173 29.1238 124.937 27.942 124.358C24.9048 122.873 23.8964 120.73 24.1564 117.342C24.503 112.844 24.377 108.298 24.1839 103.779C24.0933 101.632 24.9088 100.526 26.6539 99.4659C38.4204 92.3004 51.1008 87.3724 64.3563 83.8074C64.4193 83.7917 64.4863 83.7877 64.5493 83.772C67.7953 83.0038 71.1672 82.5705 74.2477 81.3769C77.3125 80.1873 78.8763 76.961 81.3029 74.826C100.4 57.9897 129.708 58.1354 148.601 75.2593C149.377 75.9644 150.314 76.5711 150.87 77.4219C152.989 80.6797 156.247 81.4833 159.78 82.2514C176.77 85.9425 192.89 91.9026 207.437 101.613C216.919 107.939 225.093 115.581 230.486 125.823C233.74 132.004 235.493 138.575 235.457 145.598C235.422 151.956 235.303 158.322 235.481 164.676C235.851 178.062 230.734 189.249 222.044 199.054C215.229 206.739 206.992 212.605 198.046 217.537C197.207 217.998 196.608 218.352 196.719 219.577C197.723 230.765 192.657 238.832 183.542 244.725C175.813 249.72 167.198 252.45 158.197 253.64C124.828 258.06 93.6445 251.473 64.7423 234.282C57.3248 229.87 50.8329 224.273 45.5189 217.379C37.3646 206.798 36.2892 195.709 42.7575 183.892C51.0023 168.828 62.7333 157.314 77.6985 149.01C77.927 148.884 78.1397 148.734 78.5179 148.498L78.51 148.486Z" fill="black"/>
<path d="M22.0919 137.944C31.4752 138.059 38.3295 144.074 39.4521 152.201C40.5512 160.158 35.5759 167.942 27.792 170.215C26.5236 170.585 26.1454 171.046 26.1769 172.314C26.2596 175.785 26.1572 179.263 26.2321 182.734C26.2557 183.884 25.909 184.648 25.0503 185.42C18.909 190.943 13.7998 197.254 10.3687 204.848C9.66756 206.404 9.6518 207.696 10.3648 209.272C15.3361 220.247 23.5455 228.354 33.2045 235.149C45.0813 243.504 58.2502 249.141 72.0927 253.297C73.4281 253.699 73.9835 254.207 73.9717 255.688C73.8968 263.878 73.8811 272.072 73.9796 280.261C73.9993 281.987 72.8726 282.841 72.0021 283.913C69.6937 286.765 69.6464 286.777 66.1168 285.63C51.0335 280.73 36.8641 274.021 24.3649 264.118C14.9895 256.689 7.31977 247.881 2.97873 236.532C1.04457 231.474 0.0361216 226.235 0.0518786 220.802C0.075514 212.416 0.229144 204.021 0.0164254 195.638C-0.259321 184.691 2.94328 174.898 9.13576 165.996C9.80937 165.027 9.91573 164.404 9.2303 163.309C5.73226 157.731 5.54318 151.925 8.80487 146.209C11.9523 140.702 16.9039 138.063 22.0919 137.937V137.944Z" fill="black"/>
<path d="M235.879 221.665C234.548 223.048 233.622 224.025 232.68 224.986C232.294 225.38 231.826 225.707 231.321 225.238C230.797 224.75 231.144 224.265 231.518 223.883C232.988 222.386 234.481 220.913 235.954 219.42C236.525 218.841 237.092 218.833 237.656 219.396C239.145 220.873 240.626 222.358 242.107 223.844C242.509 224.245 242.788 224.746 242.347 225.218C241.886 225.711 241.374 225.415 240.988 225.01C239.972 223.938 238.979 222.843 237.577 221.33C237.207 227.759 235.777 233.207 233.334 238.379C228.725 248.141 221.584 255.787 213.15 262.302C211.921 263.252 212.027 263.862 212.657 265.052C217.904 274.959 214.052 287.112 204.093 292.3C194.241 297.429 181.931 293.422 177.011 283.342C176.192 281.668 175.431 281.644 173.923 282.148C163.35 285.697 152.47 287.939 141.44 289.444C140.569 289.562 138.938 290.393 138.769 289.006C138.604 287.639 140.317 288.069 141.243 287.939C152.407 286.363 163.385 283.984 174.124 280.509C175.203 280.159 175.55 279.836 175.294 278.524C173.497 269.263 177.716 260.585 185.843 256.488C194.025 252.364 203.412 254.117 209.853 260.991C210.443 261.621 210.798 262.243 211.842 261.424C221.355 253.939 229.356 245.285 233.563 233.664C234.89 229.997 235.808 226.239 235.887 221.673L235.879 221.665Z" fill="black"/>
<path d="M191.16 24.5141C191.132 38.0493 180.197 48.8704 166.571 48.8468C153.146 48.8231 142.168 37.8366 142.211 24.4708C142.258 10.8252 153.237 -0.0549406 166.902 0.000208729C180.284 0.0553581 191.184 11.0734 191.16 24.5141Z" fill="#010101"/>
<path d="M120.035 291.378C117.818 291.378 115.6 291.378 113.378 291.378C112.76 291.378 112.082 291.295 112.094 290.523C112.106 289.684 112.862 289.802 113.429 289.794C119.437 289.708 125.44 289.479 131.428 288.987C132.023 288.939 132.7 288.825 132.787 289.648C132.881 290.511 132.117 290.519 131.569 290.558C127.725 290.822 123.88 291.051 120.035 291.291V291.382V291.378Z" fill="#070707"/>
<path d="M179.182 196.135C176.968 196.915 174.77 197.75 172.533 198.455C171.56 198.762 171.201 199.208 171.209 200.251C171.252 207.46 171.154 214.669 171.276 221.874C171.315 224.379 173.636 225.624 175.105 227.286C175.526 227.767 176.334 227.2 176.945 226.991C181.368 225.482 185.642 223.591 190.161 221.641C189.014 227.29 186.068 231.576 182.16 235.271C174.104 242.886 164.248 246.616 153.494 248.22C128.72 251.915 104.872 248.05 81.7332 239.025C71.1406 234.893 61.2059 229.5 52.6656 221.89C47.0482 216.879 42.1951 211.277 40.5367 203.552C39.3982 198.25 40.32 193.299 42.5181 188.477C45.9374 181.619 52.0077 177.845 58.6335 174.812C66.6972 171.117 75.2768 169.419 84.0653 168.572C90.8014 167.922 97.5611 167.981 104.27 168.336C115.142 168.911 125.833 170.908 136.311 173.933C149.677 177.794 162.275 183.321 173.758 191.254C175.215 192.259 176.637 193.307 177.989 194.445C178.532 194.902 179.186 195.288 179.182 196.135Z" fill="#FEFEFE"/>
<path d="M65.5938 112.962C65.5938 85.8518 87.7086 63.8275 114.909 63.8433C141.932 63.859 163.913 85.9463 163.886 113.052C163.858 140.426 141.893 162.123 114.228 162.1C87.5432 162.076 65.5898 139.898 65.5938 112.962Z" fill="#FEFEFE"/>
<path d="M147.715 151.641C160.123 140.442 166.056 126.615 165.43 109.901C172.3 111.717 178.882 114.021 185.279 116.838C196.561 121.805 207.012 128.053 215.651 137.007C220.378 141.907 224.16 147.43 226.641 153.816C227.197 155.245 227.189 156.53 226.614 157.96C223.569 165.547 218.605 171.711 212.59 177.108C205.708 183.281 197.834 187.91 189.554 191.912C188.537 192.404 187.938 192.515 187.249 191.297C177.83 174.701 164.878 161.588 148.318 152.066C148.148 151.968 147.995 151.842 147.711 151.645L147.715 151.641Z" fill="#FEFEFE"/>
<path d="M46.5617 181.135C46.156 180.532 46.6878 180.165 46.9438 179.764C54.9444 167.292 65.4701 157.531 78.4144 150.334C79.5056 149.727 80.0925 149.979 80.9237 150.728C98.5045 166.658 125.339 168.092 144.42 154.088C145.799 153.075 146.756 152.874 148.324 153.804C164.081 163.16 176.513 175.765 185.703 191.605C186.401 192.81 186.582 193.492 184.967 193.933C183.537 194.323 182.174 194.953 180.779 195.481C179.866 195.375 179.283 194.701 178.621 194.193C160.473 180.177 139.579 172.945 117.232 169.242C110.436 168.115 103.574 167.426 96.7358 167.454C82.657 167.505 68.7593 169.002 55.9056 175.513C53.4436 176.762 51.147 178.259 48.9607 179.941C48.2517 180.489 47.5859 181.19 46.5657 181.138L46.5617 181.135Z" fill="#FEFEFE"/>
<path d="M228.063 152.964C227.35 151.412 226.862 150.246 226.29 149.128C221.205 139.189 213.441 131.72 204.353 125.508C192.862 117.649 180.166 112.422 166.843 108.624C166.012 108.388 165.224 108.297 165.106 107.143C164.452 100.77 162.522 94.774 159.43 88.9715C160.891 88.8534 162.081 89.3812 163.29 89.6924C178.775 93.6632 193.5 99.3829 206.555 108.825C214.886 114.852 221.949 122.018 226.086 131.641C228.969 138.35 229.773 145.287 228.067 152.957L228.063 152.964Z" fill="#D9D9D9"/>
<path d="M233.555 157.735C236.199 178.243 227.564 193.815 212.094 206.294C201.758 214.638 190.031 220.468 177.646 225.088C176.515 225.51 176.141 225.376 176.145 224.147C176.161 217.789 176.165 211.431 176.102 205.073C176.09 203.793 177.016 203.805 177.76 203.549C187.726 200.094 197.291 195.784 206.15 190.017C215.585 183.876 223.837 176.537 229.553 166.662C231.188 163.837 232.488 160.859 233.555 157.739V157.735Z" fill="#D9D9D9"/>
<path d="M69.8337 89.3693C67.5529 93.9704 65.7921 98.6462 64.9255 103.621C64.8821 103.878 64.7482 104.138 64.7639 104.386C65.0357 107.911 63.0701 108.987 59.9108 109.909C50.1809 112.737 40.8764 116.696 32.1431 121.903C31.6546 122.195 31.1504 122.463 30.3468 122.916C30.3468 119.134 30.3468 115.636 30.3468 112.134C30.3468 111.283 30.4729 110.409 30.3232 109.585C29.6535 105.91 31.2331 103.929 34.5382 102.219C45.442 96.5742 56.8343 92.3513 68.7189 89.3811C69.0183 89.3063 69.3532 89.3733 69.8298 89.3733L69.8337 89.3693Z" fill="#D9D9D9"/>
<path d="M155.52 82.9131C167.404 85.2648 178.446 88.5974 189.035 93.3166C199.355 97.9137 209.022 103.602 217.31 111.398C224.842 118.48 230.653 126.67 232.937 136.928C235.604 148.895 232.709 159.772 225.792 169.651C218.488 180.086 208.491 187.382 197.433 193.35C191.272 196.674 184.839 199.4 178.233 201.717C176.3 202.394 174.725 201.769 173.506 199.842C179.041 197.998 184.493 196.005 189.744 193.527C201.936 187.776 213.131 180.657 221.541 169.84C226.241 163.797 229.443 157.077 230.298 149.38C231.504 138.539 227.939 129.144 221.38 120.734C213.982 111.248 204.319 104.606 193.738 99.2018C183.216 93.8287 172.104 90.0077 160.585 87.4905C157.899 86.9035 157.261 84.9339 155.516 82.917L155.52 82.9131Z" fill="#FEFEFE"/>
<path d="M46.5612 181.134C56.173 172.988 67.6755 169.474 79.8596 168.024C108.124 164.66 134.958 169.935 160.496 182.182C167.827 185.7 174.72 189.974 180.779 195.481C180.247 195.698 179.711 195.918 179.18 196.135C171.664 189.671 163.127 184.861 154.095 180.914C138.913 174.284 123.038 170.36 106.524 169.076C91.5828 167.914 76.8067 168.544 62.5506 173.768C54.5933 176.683 47.5066 180.851 42.8426 188.276C42.7835 188.371 42.6259 188.406 42.5156 188.473C43.2483 185.936 44.7216 183.754 45.8837 181.422C45.9664 181.252 46.3288 181.225 46.5652 181.134H46.5612Z" fill="#FFA500"/>
<path d="M26.4844 101.66C35.3949 94.8569 60.61 85.0994 73.3731 83.4292C72.1835 85.5918 71.1396 87.2857 68.3585 87.9396C55.0242 91.0792 42.2728 95.826 30.463 102.885C28.5997 104 28.0837 101.916 26.4844 101.66Z" fill="#FEFEFE"/>
<path d="M28.783 122.601C26.1713 121.963 25.671 120.415 25.7498 118.158C25.9231 113.198 25.8049 108.227 25.8049 103.129C27.873 103.866 28.9642 104.843 28.8539 107.254C28.6254 112.335 28.783 117.433 28.783 122.601Z" fill="#F7F7F7"/>
<path d="M174.455 224.343C173.664 223.276 172.797 222.791 172.797 221.657C172.809 215.204 172.805 208.756 172.805 202.134C174.199 202.957 174.609 203.973 174.593 205.411C174.522 211.029 174.566 216.65 174.562 222.267C174.562 222.823 174.507 223.378 174.459 224.343H174.455Z" fill="#FEFEFE"/>
<path d="M68.5621 284.764C62.4996 282.909 56.7247 280.714 51.0719 278.185C38.8051 272.694 27.4286 265.844 17.9035 256.236C10.159 248.424 4.43922 239.411 2.34355 228.421C2.01265 226.692 1.7566 224.919 1.73297 223.166C1.65418 217.738 1.70539 212.309 1.82751 206.838C3.0014 209.777 4.12802 212.719 5.62099 215.504C11.4629 226.392 20.1292 234.613 30.1782 241.515C41.3617 249.189 53.5852 254.723 66.4665 258.836C68.1012 259.356 68.6409 260.045 68.6133 261.814C68.4873 269.409 68.5621 277.004 68.5621 284.768V284.764Z" fill="#D9D9D9"/>
<path d="M71.5047 254.94C71.0832 256.023 70.1062 256.642 69.4996 257.54C69.2081 257.969 68.826 258.009 68.3021 257.835C47.042 250.792 27.2394 241.326 12.7391 223.438C5.0182 213.917 0.874118 203.037 1.71711 190.565C2.31194 181.777 5.54999 173.961 10.4583 166.748C11.0649 165.858 11.3446 166.173 12.0694 166.622C13.8972 167.757 13.8145 168.734 12.6879 170.518C1.61076 188.068 3.43068 207.185 17.5292 223.28C26.7667 233.826 38.2929 241.137 50.8473 246.999C57.3628 250.04 64.0871 252.557 70.9847 254.605C71.158 254.656 71.3077 254.806 71.5086 254.94H71.5047Z" fill="#FEFEFE"/>
<path d="M8.70505 204.769C5.08883 191.809 7.74781 180.515 14.7951 169.994C15.323 169.202 15.772 169.198 16.5441 169.56C18.7107 170.58 21.0309 170.99 23.4063 170.892C24.3635 170.852 24.6629 171.1 24.6511 172.062C24.6078 175.599 24.6274 179.136 24.6393 182.674C24.6393 183.292 24.525 183.769 24.0169 184.222C17.6747 189.906 12.4237 196.43 8.70111 204.773L8.70505 204.769Z" fill="#FEFEFE"/>
<path d="M72.3727 256.807C72.3727 264.855 72.3609 272.489 72.3846 280.127C72.3885 281.648 71.1279 282.266 70.1234 283.259V279.453C70.1234 273.438 70.2101 267.419 70.0722 261.408C70.0289 259.493 70.7183 258.209 72.3727 256.803V256.807Z" fill="#F6F6F6"/>
<path d="M213.411 274.336C213.431 284.614 205.108 292.969 194.869 292.949C184.722 292.925 176.418 284.606 176.406 274.446C176.394 264.141 184.651 255.881 194.96 255.889C205.155 255.897 213.388 264.13 213.411 274.336Z" fill="#22A079"/>
<path d="M189.587 24.5258C189.535 37.2259 179.278 47.3182 166.467 47.271C153.98 47.2276 143.785 36.9699 143.789 24.4588C143.793 11.7666 154.094 1.5364 166.826 1.5758C179.412 1.61519 189.638 11.9242 189.587 24.5258Z" fill="#FFA500"/>
<path d="M121.378 47.2709C125.69 47.2709 129.185 43.7753 129.185 39.4633C129.185 35.1513 125.69 31.6558 121.378 31.6558C117.066 31.6558 113.57 35.1513 113.57 39.4633C113.57 43.7753 117.066 47.2709 121.378 47.2709Z" fill="black"/>
<path d="M121.672 45C124.709 45 127.172 42.5376 127.172 39.5C127.172 36.4624 124.709 34 121.672 34C118.634 34 116.172 36.4624 116.172 39.5C116.172 42.5376 118.634 45 121.672 45Z" fill="white"/>
<path d="M130.671 106.905L81.3054 99.6595C77.6461 99.1224 74.2443 101.653 73.7072 105.313C73.1701 108.972 75.7011 112.374 79.3604 112.911L128.726 120.157C132.385 120.694 135.787 118.163 136.324 114.503C136.861 110.844 134.33 107.442 130.671 106.905Z" fill="#231F20"/>
<path d="M88.2967 112.087C90.8595 112.087 92.9371 110.009 92.9371 107.447C92.9371 104.884 90.8595 102.806 88.2967 102.806C85.7338 102.806 83.6562 104.884 83.6562 107.447C83.6562 110.009 85.7338 112.087 88.2967 112.087Z" fill="white"/>
<path d="M118.328 116.495C120.891 116.495 122.968 114.418 122.968 111.855C122.968 109.292 120.891 107.214 118.328 107.214C115.765 107.214 113.688 109.292 113.688 111.855C113.688 114.418 115.765 116.495 118.328 116.495Z" fill="white"/>
<path fill-rule="evenodd" clip-rule="evenodd" d="M30.9165 152.779C31.2702 150.398 29.4699 149.117 27.0083 148.263L27.8068 145.037L25.8572 144.547L25.0797 147.689C24.5672 147.56 24.0408 147.439 23.5177 147.318L24.3006 144.156L22.3521 143.667L21.553 146.892C21.1288 146.795 20.7123 146.699 20.308 146.597L20.3103 146.587L17.6215 145.911L17.1028 148.009C17.1028 148.009 18.5494 148.343 18.5189 148.363C19.3085 148.562 19.4512 149.088 19.4273 149.506L18.5177 153.181C18.5722 153.195 18.6427 153.215 18.7204 153.246L18.6544 153.23C18.6091 153.218 18.5623 153.207 18.5144 153.195L17.2394 158.344C17.1428 158.585 16.8979 158.948 16.346 158.81C16.3654 158.839 14.9288 158.454 14.9288 158.454L13.9609 160.702L16.4981 161.339C16.7815 161.411 17.0615 161.484 17.3385 161.557L17.3389 161.557C17.5232 161.606 17.7062 161.654 17.888 161.701L17.0812 164.964L19.0286 165.453L19.8277 162.225C20.3597 162.37 20.8761 162.504 21.3814 162.631L20.5851 165.844L22.5348 166.334L23.3416 163.077C26.6662 163.71 29.1662 163.455 30.2185 160.426C31.0664 157.987 30.1763 156.58 28.4271 155.663C29.701 155.367 30.6605 154.523 30.9165 152.779ZM26.4619 159.072C25.9091 161.309 22.4322 160.384 20.8414 159.961L20.8411 159.961C20.6981 159.923 20.5703 159.889 20.4613 159.861L21.5319 155.538C21.6648 155.572 21.8271 155.608 22.0109 155.65C23.6563 156.022 27.0283 156.784 26.4619 159.072ZM22.3415 153.643C23.6679 154 26.561 154.778 27.0649 152.744C27.5796 150.664 24.7677 150.037 23.3944 149.731C23.2399 149.696 23.1036 149.666 22.9924 149.638L22.0217 153.559C22.1134 153.582 22.221 153.611 22.3415 153.643Z" fill="white"/>
<path fill-rule="evenodd" clip-rule="evenodd" d="M197.009 269.688V272.763L197.012 272.766C202.622 273.029 206.839 274.163 206.839 275.518C206.839 276.875 202.622 278.007 197.012 278.269V288.125H192.014V278.269C186.398 278.003 182.172 276.872 182.172 275.514C182.172 274.157 186.395 273.026 192.014 272.763V269.688H185.101V265H203.923V269.688H197.009ZM197.009 277.424V277.428V277.431C201.961 277.205 205.658 276.326 205.658 275.275C205.658 274.223 201.965 273.345 197.009 273.119V276.553C196.865 276.566 196.094 276.632 194.551 276.632C193.266 276.632 192.335 276.576 192.011 276.553V273.115C187.049 273.338 183.342 274.22 183.342 275.271C183.342 276.326 187.046 277.205 192.011 277.428V277.424C192.331 277.441 193.237 277.478 194.528 277.478C196.143 277.478 196.869 277.434 197.009 277.424Z" fill="white"/>
</g>
<path d="M172.307 23.5404L176.013 18.8726L170.297 12H158.172V36H171.885L177.172 28.767L172.307 23.5404ZM168.245 15.7727L170.617 18.9267L168.951 20.3024L165.644 15.7727H168.245ZM161.769 18.0375H162.729L165.638 22.3029H161.769V18.0375ZM161.769 32.4856C161.6 32.4856 161.769 27.3372 161.769 27.3372H162.705L166.151 32.4856C166.151 32.4856 161.938 32.4856 161.769 32.4856ZM170.14 31.1339L166.35 25.7872H169.404L171.975 29.3317L170.14 31.1339Z" fill="white"/>
<defs>
<clipPath id="clip0_5305_12727">
<rect width="242.57" height="294.525" fill="white"/>
</clipPath>
</defs>
</svg>
