<svg width="20" height="20" viewBox="0 0 20 20" fill="none" xmlns="http://www.w3.org/2000/svg">
<path d="M9.9987 11.4583H5.83203C5.49036 11.4583 5.20703 11.175 5.20703 10.8333C5.20703 10.4916 5.49036 10.2083 5.83203 10.2083H9.9987C10.3404 10.2083 10.6237 10.4916 10.6237 10.8333C10.6237 11.175 10.3404 11.4583 9.9987 11.4583Z" fill="#71839B"/>
<path d="M13.332 14.7917H5.83203C5.49036 14.7917 5.20703 14.5084 5.20703 14.1667C5.20703 13.825 5.49036 13.5417 5.83203 13.5417H13.332C13.6737 13.5417 13.957 13.825 13.957 14.1667C13.957 14.5084 13.6737 14.7917 13.332 14.7917Z" fill="#71839B"/>
<path d="M12.5013 18.9584H7.5013C2.9763 18.9584 1.04297 17.025 1.04297 12.5V7.50002C1.04297 2.97502 2.9763 1.04169 7.5013 1.04169H11.668C12.0096 1.04169 12.293 1.32502 12.293 1.66669C12.293 2.00835 12.0096 2.29169 11.668 2.29169H7.5013C3.65964 2.29169 2.29297 3.65835 2.29297 7.50002V12.5C2.29297 16.3417 3.65964 17.7084 7.5013 17.7084H12.5013C16.343 17.7084 17.7096 16.3417 17.7096 12.5V8.33335C17.7096 7.99169 17.993 7.70835 18.3346 7.70835C18.6763 7.70835 18.9596 7.99169 18.9596 8.33335V12.5C18.9596 17.025 17.0263 18.9584 12.5013 18.9584Z" fill="#71839B"/>
<path d="M13.6325 6.82225C13.2882 6.43106 12.944 6.02423 12.7249 5.53916C12.5059 5.0228 12.4433 4.4282 12.5528 3.8649C12.6623 3.30159 12.9127 2.76958 13.2726 2.31581C13.2413 2.707 13.3821 3.11383 13.6481 3.41113C13.4916 2.66006 13.742 1.84639 14.2427 1.2518C14.7434 0.657203 15.4319 0.266 16.1517 0C15.7918 0.375536 15.7449 0.97013 15.8857 1.47085C16.0265 1.97156 16.3238 2.4097 16.5898 2.86346C16.8558 3.31723 17.1062 3.78665 17.1218 4.30301C17.2626 4.03701 17.4191 3.771 17.513 3.47371C17.6069 3.17641 17.6538 2.86346 17.5756 2.56616C17.8573 2.91041 18.0137 3.25464 18.092 3.69277C18.1702 4.1309 18.1546 4.58467 18.1076 5.0228C18.045 5.50787 17.9199 6.00858 17.6539 6.4154C17.3409 6.90048 16.8402 7.24471 16.2925 7.43248C15.3224 7.60461 14.3679 7.46378 13.6325 6.82225Z" fill="#F3705A"/>
<path d="M14.819 7.40125C16.102 7.90197 17.3695 6.38417 16.6653 5.21062C16.6653 5.19497 16.6497 5.19497 16.6497 5.17933C16.7123 5.82087 16.5558 6.29029 16.2585 6.5563C16.415 6.18077 16.3054 5.74264 16.1177 5.3671C15.9299 5.00722 15.6639 4.67862 15.4605 4.33438C15.2571 3.97449 15.1006 3.56765 15.1945 3.16083C14.819 3.44248 14.553 3.86496 14.4434 4.31873C14.3339 4.77249 14.3965 5.27322 14.5999 5.6957C14.3652 5.52358 14.1931 5.24193 14.1774 4.94462C13.9271 5.24193 13.7706 5.6331 13.7862 6.02429C13.7862 6.63454 14.2713 7.18219 14.819 7.40125Z" fill="#FFD15C"/>
</svg>
