<svg width="24" height="24" viewBox="0 0 24 24" fill="none" xmlns="http://www.w3.org/2000/svg">
<path d="M19.8 9.42C19.78 9.42 19.76 9.43 19.74 9.43C19.64 9.45 19.54 9.46 19.43 9.48C19.01 9.52 18.56 9.5 18.1 9.41C17.98 9.38 17.88 9.36 17.77 9.32C17.44 9.24 17.13 9.11 16.84 8.94C16.72 8.88 16.6 8.8 16.49 8.73C16.01 8.4 15.6 7.99 15.27 7.51C15.2 7.4 15.12 7.28 15.06 7.16C14.89 6.87 14.76 6.56 14.68 6.23C14.64 6.12 14.62 6.02 14.59 5.9C14.5 5.44 14.48 4.99 14.52 4.57C14.54 4.46 14.55 4.36 14.57 4.26C14.57 4.24 14.58 4.22 14.58 4.2C14.7 3.58 14.24 3 13.6 3H7.52C7.38 3 7.24 3.01 7.11 3.02C6.99 3.03 6.88 3.04 6.76 3.06C6.64 3.07 6.52 3.09 6.41 3.11C4 3.46 2.46 4.99 2.11 7.41C2.09 7.52 2.07 7.64 2.06 7.76C2.04 7.88 2.03 7.99 2.02 8.11C2.01 8.24 2 8.38 2 8.52V16.48C2 16.62 2.01 16.76 2.02 16.89C2.03 17.01 2.04 17.12 2.06 17.24C2.07 17.36 2.09 17.48 2.11 17.59C2.46 20.01 4 21.54 6.41 21.89C6.52 21.91 6.64 21.93 6.76 21.94C6.88 21.96 6.99 21.97 7.11 21.98C7.24 21.99 7.38 22 7.52 22H15.48C15.62 22 15.76 21.99 15.89 21.98C16.01 21.97 16.12 21.96 16.24 21.94C16.36 21.93 16.48 21.91 16.59 21.89C19 21.54 20.54 20.01 20.89 17.59C20.91 17.48 20.93 17.36 20.94 17.24C20.96 17.12 20.97 17.01 20.98 16.89C20.99 16.76 21 16.62 21 16.48V10.4C21 9.76 20.42 9.3 19.8 9.42ZM6.75 12.5H11.75C12.16 12.5 12.5 12.84 12.5 13.25C12.5 13.66 12.16 14 11.75 14H6.75C6.34 14 6 13.66 6 13.25C6 12.84 6.34 12.5 6.75 12.5ZM15.75 18H6.75C6.34 18 6 17.66 6 17.25C6 16.84 6.34 16.5 6.75 16.5H15.75C16.16 16.5 16.5 16.84 16.5 17.25C16.5 17.66 16.16 18 15.75 18Z" fill="#71839B"/>
<path d="M16.4683 8.18669C16.0552 7.71727 15.6422 7.22908 15.3793 6.64699C15.1164 6.02736 15.0413 5.31384 15.1727 4.63788C15.3042 3.96191 15.6046 3.3235 16.0365 2.77897C15.9989 3.2484 16.1679 3.73659 16.4871 4.09336C16.2993 3.19207 16.5998 2.21567 17.2006 1.50216C17.8015 0.788644 18.6277 0.3192 19.4914 0C19.0595 0.450643 19.0032 1.16416 19.1722 1.76503C19.3412 2.36588 19.6979 2.89163 20.0171 3.43616C20.3363 3.98068 20.6368 4.54398 20.6556 5.16362C20.8246 4.84442 21.0123 4.5252 21.125 4.16845C21.2376 3.81169 21.294 3.43616 21.2001 3.07939C21.5381 3.49249 21.7259 3.90556 21.8197 4.43132C21.9136 4.95708 21.8948 5.5016 21.8385 6.02736C21.7634 6.60944 21.6132 7.21029 21.294 7.69849C20.9185 8.28057 20.3176 8.69365 19.6604 8.91897C18.4962 9.12553 17.3508 8.95654 16.4683 8.18669Z" fill="#F3705A"/>
<path d="M17.8968 8.88147C19.4365 9.48234 20.9574 7.66099 20.1125 6.25273C20.1125 6.23394 20.0937 6.23394 20.0937 6.21518C20.1688 6.98502 19.981 7.54832 19.6243 7.86754C19.812 7.4169 19.6806 6.89114 19.4553 6.4405C19.23 6.00864 18.9108 5.61433 18.6667 5.20123C18.4225 4.76937 18.2348 4.28116 18.3475 3.79297C17.8968 4.13095 17.5776 4.63793 17.4462 5.18245C17.3147 5.72697 17.3898 6.32784 17.6339 6.83481C17.3523 6.62827 17.1457 6.29029 17.127 5.93352C16.8265 6.29029 16.6388 6.7597 16.6575 7.22912C16.6576 7.96142 17.2396 8.6186 17.8968 8.88147Z" fill="#FFD15C"/>
</svg>
