<svg width="13" height="13" viewBox="0 0 13 13" fill="none" xmlns="http://www.w3.org/2000/svg">
<g clip-path="url(#clip0_140_10893)">
<path d="M6.5 13C10.0902 13 13 10.0902 13 6.5C13 2.90977 10.0902 -2.5438e-07 6.5 -5.68248e-07C2.90977 -8.82116e-07 8.82116e-07 2.90976 5.68248e-07 6.5C2.5438e-07 10.0902 2.90977 13 6.5 13ZM5.64434 2.44512C5.64434 2.25723 5.79668 2.10234 5.98457 2.10234L7.01289 2.10234C7.20078 2.10234 7.35566 2.25469 7.35566 2.44258L7.35566 7.69844C7.35566 7.88633 7.20332 8.04121 7.01543 8.04121L5.98711 8.04121C5.79922 8.04121 5.64434 7.88887 5.64434 7.70098L5.64434 2.44512ZM6.5 8.91719C7.0459 8.91719 7.49023 9.36152 7.49023 9.90742C7.49023 10.4533 7.0459 10.8977 6.5 10.8977C5.9541 10.8977 5.50977 10.4533 5.50977 9.90742C5.50977 9.36152 5.9541 8.91719 6.5 8.91719Z" fill="white" fill-opacity="0.5"/>
</g>
<defs>
<clipPath id="clip0_140_10893">
<rect width="13" height="13" fill="white" transform="translate(13 13) rotate(-180)"/>
</clipPath>
</defs>
</svg>
