<svg width="14" height="14" viewBox="0 0 14 14" fill="none" xmlns="http://www.w3.org/2000/svg">
<path d="M7.00065 12.8333C10.2148 12.8333 12.834 10.2142 12.834 6.99999C12.834 3.78583 10.2148 1.16666 7.00065 1.16666C3.78648 1.16666 1.16732 3.78583 1.16732 6.99999C1.16732 10.2142 3.78648 12.8333 7.00065 12.8333ZM7.43815 9.33333C7.43815 9.57249 7.23982 9.77083 7.00065 9.77083C6.76148 9.77083 6.56315 9.57249 6.56315 9.33333L6.56315 6.41666C6.56315 6.17749 6.76148 5.97916 7.00065 5.97916C7.23982 5.97916 7.43815 6.17749 7.43815 6.41666L7.43815 9.33333ZM6.46398 4.44499C6.49315 4.36916 6.53398 4.31083 6.58648 4.25249C6.64482 4.19999 6.70898 4.15916 6.77898 4.12999C6.84898 4.10083 6.92482 4.08333 7.00065 4.08333C7.07648 4.08333 7.15232 4.10083 7.22232 4.12999C7.29232 4.15916 7.35648 4.19999 7.41482 4.25249C7.46732 4.31083 7.50815 4.36916 7.53732 4.44499C7.56648 4.51499 7.58398 4.59083 7.58398 4.66666C7.58398 4.74249 7.56648 4.81833 7.53732 4.88833C7.50815 4.95833 7.46732 5.02249 7.41482 5.08083C7.35648 5.13333 7.29232 5.17416 7.22232 5.20333C7.08232 5.26166 6.91898 5.26166 6.77898 5.20333C6.70898 5.17416 6.64482 5.13333 6.58648 5.08083C6.53398 5.02249 6.49315 4.95833 6.46398 4.88833C6.43482 4.81833 6.41732 4.74249 6.41732 4.66666C6.41732 4.59083 6.43482 4.51499 6.46398 4.44499Z" fill="#718096"/>
</svg>
