<svg width="105" height="105" viewBox="0 0 105 105" fill="none" xmlns="http://www.w3.org/2000/svg">
<g clip-path="url(#clip0_3660_12984)">
<path d="M52.5 4.5897e-06C81.498 2.05461e-06 105 23.502 105 52.5C105 81.498 81.4981 105 52.5 105C23.502 105 -5.04609e-07 81.498 -3.0397e-06 52.5C-5.57479e-06 23.502 23.5019 7.12479e-06 52.5 4.5897e-06ZM45.5889 85.251C45.5889 86.7686 46.8193 88.0195 48.3369 88.0195L56.6426 88.0195C58.1602 88.0195 59.4111 86.7891 59.4111 85.2715L59.4111 42.8203C59.4111 41.3027 58.1807 40.0518 56.6631 40.0518L48.3574 40.0518C46.8398 40.0518 45.5889 41.2822 45.5889 42.7998L45.5889 85.251ZM52.5 32.9766C56.9092 32.9766 60.498 29.3877 60.498 24.9785C60.498 20.5693 56.9092 16.9805 52.5 16.9805C48.0908 16.9805 44.502 20.5693 44.502 24.9785C44.502 29.3877 48.0908 32.9766 52.5 32.9766Z" fill="#FFA500"/>
</g>
<defs>
<clipPath id="clip0_3660_12984">
<rect width="105" height="105" fill="white" transform="matrix(-1 8.74228e-08 8.74228e-08 1 105 0)"/>
</clipPath>
</defs>
</svg>
