<svg width="20" height="20" viewBox="0 0 20 20" fill="none" xmlns="http://www.w3.org/2000/svg">
<path d="M9.99935 1.66666C5.40768 1.66666 1.66602 5.40832 1.66602 9.99999C1.66602 14.5917 5.40768 18.3333 9.99935 18.3333C14.591 18.3333 18.3327 14.5917 18.3327 9.99999C18.3327 5.40832 14.591 1.66666 9.99935 1.66666ZM9.37435 6.66666C9.37435 6.32499 9.65768 6.04166 9.99935 6.04166C10.341 6.04166 10.6243 6.32499 10.6243 6.66666V10.8333C10.6243 11.175 10.341 11.4583 9.99935 11.4583C9.65768 11.4583 9.37435 11.175 9.37435 10.8333V6.66666ZM10.766 13.65C10.7243 13.7583 10.666 13.8417 10.591 13.925C10.5077 14 10.416 14.0583 10.316 14.1C10.216 14.1417 10.1077 14.1667 9.99935 14.1667C9.89102 14.1667 9.78268 14.1417 9.68268 14.1C9.58268 14.0583 9.49102 14 9.40768 13.925C9.33268 13.8417 9.27435 13.7583 9.23268 13.65C9.19102 13.55 9.16602 13.4417 9.16602 13.3333C9.16602 13.225 9.19102 13.1167 9.23268 13.0167C9.27435 12.9167 9.33268 12.825 9.40768 12.7417C9.49102 12.6667 9.58268 12.6083 9.68268 12.5667C9.88268 12.4833 10.116 12.4833 10.316 12.5667C10.416 12.6083 10.5077 12.6667 10.591 12.7417C10.666 12.825 10.7243 12.9167 10.766 13.0167C10.8077 13.1167 10.8327 13.225 10.8327 13.3333C10.8327 13.4417 10.8077 13.55 10.766 13.65Z" fill="#FF725E"/>
</svg>
