<svg width="77" height="80" viewBox="0 0 77 80" fill="none" xmlns="http://www.w3.org/2000/svg">
<ellipse cx="38.2382" cy="39.6618" rx="38.2382" ry="39.6618" fill="#FAFAFA"/>
<path d="M33.025 50.3125H31.725C29.2125 50.3125 28 49.15 28 46.75V33.25C28 30.85 29.225 29.6875 31.725 29.6875H33.025C35.525 29.6875 36.75 30.85 36.75 33.25V46.75C36.75 49.15 35.525 50.3125 33.025 50.3125ZM31.725 31.5625C30.1375 31.5625 29.875 31.9875 29.875 33.25V46.75C29.875 48.0125 30.1375 48.4375 31.725 48.4375H33.025C34.6125 48.4375 34.875 48.0125 34.875 46.75V33.25C34.875 31.9875 34.6125 31.5625 33.025 31.5625H31.725Z" fill="#71839B"/>
<path d="M43.65 47.8125H42.35C39.8375 47.8125 38.625 46.65 38.625 44.25V35.75C38.625 33.35 39.85 32.1875 42.35 32.1875H43.65C46.1625 32.1875 47.375 33.35 47.375 35.75V44.25C47.375 46.65 46.15 47.8125 43.65 47.8125ZM42.35 34.0625C40.7625 34.0625 40.5 34.4875 40.5 35.75V44.25C40.5 45.5125 40.7625 45.9375 42.35 45.9375H43.65C45.2375 45.9375 45.5 45.5125 45.5 44.25V35.75C45.5 34.4875 45.2375 34.0625 43.65 34.0625H42.35Z" fill="#71839B"/>
<path d="M28.5 40.9375H25.5C24.9875 40.9375 24.5625 40.5125 24.5625 40C24.5625 39.4875 24.975 39.0625 25.5 39.0625H28.5C29.0125 39.0625 29.4375 39.4875 29.4375 40C29.4375 40.5125 29.025 40.9375 28.5 40.9375Z" fill="#71839B"/>
<path d="M39.25 40.9375H36.75C36.2375 40.9375 35.8125 40.5125 35.8125 40C35.8125 39.4875 36.2375 39.0625 36.75 39.0625H39.25C39.7625 39.0625 40.1875 39.4875 40.1875 40C40.1875 40.5125 39.7625 40.9375 39.25 40.9375Z" fill="#71839B"/>
<path d="M50.5 40.9375H47.125C46.6125 40.9375 46.1875 40.5125 46.1875 40C46.1875 39.4875 46.6125 39.0625 47.125 39.0625H50.5C51.0125 39.0625 51.4375 39.4875 51.4375 40C51.4375 40.5125 51.025 40.9375 50.5 40.9375Z" fill="#71839B"/>
</svg>
