<svg width="77" height="80" viewBox="0 0 77 80" fill="none" xmlns="http://www.w3.org/2000/svg">
<ellipse cx="38.2382" cy="39.6618" rx="38.2382" ry="39.6618" fill="#FAFAFA"/>
<path d="M49.25 39.6875H26.75C25.55 39.6875 24.5625 38.7 24.5625 37.5V33.35C24.5625 32.5 25.15 31.6375 25.9375 31.325L37.1875 26.8251C37.6625 26.6376 38.3375 26.6376 38.8125 26.8251L50.0625 31.325C50.85 31.6375 51.4375 32.5125 51.4375 33.35V37.5C51.4375 38.7 50.45 39.6875 49.25 39.6875ZM38 28.5501C37.95 28.5501 37.9 28.55 37.875 28.5625L26.6375 33.0626C26.5625 33.1001 26.4375 33.2625 26.4375 33.35V37.5C26.4375 37.675 26.575 37.8125 26.75 37.8125H49.25C49.425 37.8125 49.5625 37.675 49.5625 37.5V33.35C49.5625 33.2625 49.45 33.1001 49.3625 33.0626L38.1125 28.5625C38.0875 28.55 38.05 28.5501 38 28.5501Z" fill="#71839B"/>
<path d="M50.5 53.4375H25.5C24.9875 53.4375 24.5625 53.0125 24.5625 52.5V48.75C24.5625 47.55 25.55 46.5625 26.75 46.5625H49.25C50.45 46.5625 51.4375 47.55 51.4375 48.75V52.5C51.4375 53.0125 51.0125 53.4375 50.5 53.4375ZM26.4375 51.5625H49.5625V48.75C49.5625 48.575 49.425 48.4375 49.25 48.4375H26.75C26.575 48.4375 26.4375 48.575 26.4375 48.75V51.5625Z" fill="#71839B"/>
<path d="M28 48.4375C27.4875 48.4375 27.0625 48.0125 27.0625 47.5V38.75C27.0625 38.2375 27.4875 37.8125 28 37.8125C28.5125 37.8125 28.9375 38.2375 28.9375 38.75V47.5C28.9375 48.0125 28.5125 48.4375 28 48.4375Z" fill="#71839B"/>
<path d="M48 48.4375C47.4875 48.4375 47.0625 48.0125 47.0625 47.5V38.75C47.0625 38.2375 47.4875 37.8125 48 37.8125C48.5125 37.8125 48.9375 38.2375 48.9375 38.75V47.5C48.9375 48.0125 48.5125 48.4375 48 48.4375Z" fill="#71839B"/>
<path d="M51.75 53.4375H24.25C23.7375 53.4375 23.3125 53.0125 23.3125 52.5C23.3125 51.9875 23.7375 51.5625 24.25 51.5625H51.75C52.2625 51.5625 52.6875 51.9875 52.6875 52.5C52.6875 53.0125 52.2625 53.4375 51.75 53.4375Z" fill="#71839B"/>
</svg>
