<svg width="77" height="80" viewBox="0 0 77 80" fill="none" xmlns="http://www.w3.org/2000/svg">
<ellipse cx="38.2382" cy="39.6618" rx="38.2382" ry="39.6618" fill="#FAFAFA"/>
<path d="M45.625 47.1875H30.375C27.475 47.1875 25.8125 45.525 25.8125 42.625V27.5C25.8125 26.9875 26.2375 26.5625 26.75 26.5625H49.25C49.7625 26.5625 50.1875 26.9875 50.1875 27.5V42.625C50.1875 45.525 48.525 47.1875 45.625 47.1875ZM27.6875 28.4375V42.625C27.6875 44.4875 28.5125 45.3125 30.375 45.3125H45.6125C47.475 45.3125 48.3 44.4875 48.3 42.625V28.4375H27.6875Z" fill="#71839B"/>
<path d="M50.5 28.4375H25.5C24.9875 28.4375 24.5625 28.0125 24.5625 27.5C24.5625 26.9875 24.9875 26.5625 25.5 26.5625H50.5C51.0125 26.5625 51.4375 26.9875 51.4375 27.5C51.4375 28.0125 51.0125 28.4375 50.5 28.4375Z" fill="#71839B"/>
<path d="M32.9989 53.4375C32.6489 53.4375 32.3239 53.25 32.1614 52.925C31.9239 52.4625 32.1114 51.9 32.5864 51.6625L37.0614 49.425V46.25C37.0614 45.7375 37.4864 45.3125 37.9989 45.3125C38.5114 45.3125 38.9364 45.7375 38.9364 46.25V50C38.9364 50.35 38.7364 50.675 38.4114 50.8375L33.4114 53.3375C33.2864 53.4 33.1364 53.4375 32.9989 53.4375Z" fill="#71839B"/>
<path d="M42.999 53.4375C42.8615 53.4375 42.7115 53.4 42.5865 53.3375L37.5865 50.8375C37.124 50.6 36.9364 50.0375 37.1614 49.575C37.3989 49.1125 37.9615 48.925 38.424 49.15L43.424 51.65C43.8865 51.8875 44.074 52.45 43.849 52.9125C43.674 53.25 43.3365 53.4375 42.999 53.4375Z" fill="#71839B"/>
<path d="M32.3732 39.6875C32.1107 39.6875 31.8357 39.575 31.6482 39.35C31.3107 38.95 31.3732 38.3625 31.7732 38.025L35.7107 34.7375C36.0732 34.4375 36.5357 34.3125 36.9732 34.3875C37.4232 34.4625 37.8107 34.7375 38.0482 35.1375L39.3607 37.325L43.0232 34.275C43.4232 33.95 44.0107 34 44.3482 34.4C44.6857 34.8 44.6232 35.3875 44.2232 35.725L40.2857 39.0125C39.9232 39.3125 39.4607 39.4375 39.0232 39.3625C38.5732 39.2875 38.1857 39.0125 37.9482 38.6125L36.6357 36.425L32.9732 39.475C32.7982 39.6125 32.5857 39.6875 32.3732 39.6875Z" fill="#71839B"/>
</svg>
