<svg width="210" height="231" viewBox="0 0 210 231" fill="none" xmlns="http://www.w3.org/2000/svg">
<mask id="mask0_6834_13746" style="mask-type:luminance" maskUnits="userSpaceOnUse" x="8" y="1" width="193" height="227">
<path d="M200.713 1.25195H8.75V227.819H200.713V1.25195Z" fill="white"/>
</mask>
<g mask="url(#mask0_6834_13746)">
<path d="M64.5125 227.191L78.9125 160.06L86.9375 145.101C90.8375 137.365 92.5625 128.716 91.9 120.078L91.7875 118.576L113.787 98.21C115.887 96.2698 116.213 93.0528 114.55 90.7246L114.463 90.6119C112.488 87.8455 108.625 87.3323 106 89.4603C98.6125 95.4687 85.3 106.271 85.3 106.271L116.35 74.99C118.525 72.7995 118.6 69.2695 116.512 66.9913L116.412 66.8787C114.225 64.4878 110.562 64.2625 108.112 66.3529C98.2625 74.8148 75.2 94.63 75.2 94.63L82.875 78.3197C84.225 75.4532 86.375 73.0373 89.075 71.385L103.438 62.5476C106.238 60.8202 107.238 57.2276 105.713 54.3111L105.638 54.1734C103.95 50.9438 99.975 49.7296 96.8125 51.4696C91.75 54.261 84.5 58.2416 79.9875 60.72C77.275 62.2096 75.0375 64.4377 73.55 67.1415L60.05 91.6008L74.0125 49.0412C75.25 45.2609 72.875 41.2553 68.975 40.5418L68.8125 40.5167C65.55 39.9159 62.375 41.7309 61.25 44.8103C56.675 57.3653 45.575 87.6953 45.575 87.6953C37.3625 103.117 34.025 120.666 35.9875 138.041L38.125 156.968L9.375 227.191" fill="white"/>
<path d="M64.5125 227.191L78.9125 160.06L86.9375 145.101C90.8375 137.365 92.5625 128.716 91.9 120.078L91.7875 118.576L113.787 98.21C115.887 96.2698 116.212 93.0528 114.55 90.7246L114.462 90.6119C112.487 87.8455 108.625 87.3323 106 89.4603C98.6125 95.4687 85.3 106.271 85.3 106.271L116.35 74.99C118.525 72.7995 118.6 69.2695 116.512 66.9913L116.412 66.8787C114.225 64.4878 110.562 64.2625 108.112 66.3529C98.2625 74.8148 75.2 94.63 75.2 94.63L82.875 78.3197C84.225 75.4532 86.375 73.0373 89.075 71.385L103.438 62.5476C106.238 60.8202 107.237 57.2276 105.712 54.3111L105.638 54.1734C103.95 50.9438 99.975 49.7296 96.8125 51.4696C91.75 54.261 84.5 58.2416 79.9875 60.72C77.275 62.2096 75.0375 64.4377 73.55 67.1415L60.05 91.6008L74.0125 49.0412C75.25 45.2609 72.875 41.2553 68.975 40.5418L68.8125 40.5167C65.55 39.9159 62.375 41.7309 61.25 44.8103C56.675 57.3653 45.575 87.6953 45.575 87.6953C37.3625 103.117 34.025 120.666 35.9875 138.041L38.125 156.968L9.375 227.191" stroke="#202020" stroke-linecap="round" stroke-linejoin="round"/>
<path d="M124.525 1.87695H68.15C63.4763 1.87695 59.6875 5.67106 59.6875 10.3513V128.467C59.6875 133.147 63.4763 136.941 68.15 136.941H124.525C129.199 136.941 132.988 133.147 132.988 128.467V10.3513C132.988 5.67106 129.199 1.87695 124.525 1.87695Z" fill="white" stroke="#202020" stroke-linecap="round" stroke-linejoin="round"/>
<path d="M58.9234 29.5645H59.6859V42.7955H58.9234C57.6984 42.7955 56.7109 41.8066 56.7109 40.5799V31.7801C56.7109 30.5533 57.6984 29.5645 58.9234 29.5645Z" fill="#FFA500" stroke="#202020" stroke-linecap="round" stroke-linejoin="round"/>
<path d="M58.9234 42.8086H59.6859V56.0396H58.9234C57.6984 56.0396 56.7109 55.0507 56.7109 53.824V45.0242C56.7109 43.7975 57.6984 42.8086 58.9234 42.8086Z" fill="#FFA500" stroke="#202020" stroke-linecap="round" stroke-linejoin="round"/>
<path d="M133.561 51.0689H133.023V34.5332H133.561C134.936 34.5332 136.061 35.6598 136.061 37.0367V48.5779C136.061 49.9548 134.936 51.0814 133.561 51.0814V51.0689Z" fill="#FFA500" stroke="#202020" stroke-linecap="round" stroke-linejoin="round"/>
<path d="M62.0117 128.292C62.0117 131.697 64.7616 134.451 68.1616 134.451H123.887C127.286 134.451 130.036 131.697 130.036 128.292V10.5278C130.036 7.123 127.286 4.36914 123.887 4.36914L68.1616 4.40669C64.7616 4.40669 62.0117 7.17307 62.0117 10.5653V128.292Z" fill="white" stroke="#202020" stroke-linecap="round" stroke-linejoin="round"/>
<path d="M80.9266 1.91602H111.789V3.34301C111.789 5.30827 110.189 6.91051 108.227 6.91051H84.4766C82.5141 6.91051 80.9141 5.30827 80.9141 3.34301V1.91602H80.9266Z" fill="#232323" stroke="#202020" stroke-linecap="round" stroke-linejoin="round"/>
<path d="M77.0742 128.766H115.599" stroke="#202020" stroke-linecap="round" stroke-linejoin="round"/>
<path d="M76.2258 53.7617H88.6008V95.2699H73.4008C72.7508 95.2699 72.2383 94.7441 72.2383 94.1057V54.9384C72.2383 54.2875 72.7633 53.7742 73.4008 53.7742H76.2258V53.7617Z" fill="white" stroke="#202020" stroke-miterlimit="10"/>
<path d="M93.0641 95.2698H88.6016V53.7617H93.0641C93.7141 53.7617 94.2266 54.2875 94.2266 54.9258V94.0932C94.2266 94.7441 93.7016 95.2573 93.0641 95.2573V95.2698Z" fill="#202020" stroke="#202020" stroke-linecap="round" stroke-linejoin="round"/>
<path d="M80.9367 40.7051H84.9117V53.7609H79.7617V41.8692C79.7617 41.2183 80.2867 40.7051 80.9242 40.7051H80.9367Z" fill="white" stroke="#202020" stroke-miterlimit="10"/>
<path d="M86.6891 53.7609H84.9141V40.7051H85.5141C86.1641 40.7051 86.6766 41.2308 86.6766 41.8692V53.7609H86.6891Z" fill="#202020" stroke="#202020" stroke-linecap="round" stroke-linejoin="round"/>
<path d="M79.7617 95.418H84.9117V108.474H80.9367C80.2867 108.474 79.7742 107.948 79.7742 107.31V95.418H79.7617Z" fill="white" stroke="#202020" stroke-miterlimit="10"/>
<path d="M85.5141 108.462H84.9141V95.4062H86.6891V107.298C86.6891 107.949 86.1641 108.462 85.5266 108.462H85.5141Z" fill="#202020" stroke="#202020" stroke-linecap="round" stroke-linejoin="round"/>
<path d="M114.851 37.7148V55.8277H99.6508C99.0008 55.8277 98.4883 55.302 98.4883 54.6636V38.8915C98.4883 38.2406 99.0133 37.7274 99.6508 37.7274H114.851V37.7148Z" fill="#FFA500" stroke="#202020" stroke-miterlimit="10"/>
<path d="M119.314 55.8297H114.852V37.7168H119.314C119.964 37.7168 120.477 38.2425 120.477 38.8809V54.653C120.477 55.3039 119.952 55.8171 119.314 55.8171V55.8297Z" fill="#202020" stroke="#202020" stroke-linecap="round" stroke-linejoin="round"/>
<path d="M107.187 25.4355H111.162V37.7152H106.012V26.6122C106.012 25.9613 106.537 25.4481 107.174 25.4481L107.187 25.4355Z" fill="#FFA500" stroke="#202020" stroke-miterlimit="10"/>
<path d="M112.939 37.7152H111.164V25.4355H111.764C112.414 25.4355 112.927 25.9613 112.927 26.5997V37.7027L112.939 37.7152Z" fill="#202020" stroke="#202020" stroke-linecap="round" stroke-linejoin="round"/>
<path d="M106.023 55.9785H111.173V69.0343H107.198C106.548 69.0343 106.036 68.5086 106.036 67.8702V55.9785H106.023Z" fill="#FFA500" stroke="#202020" stroke-miterlimit="10"/>
<path d="M111.76 69.0343H111.16V55.9785H112.935V67.8702C112.935 68.5211 112.41 69.0343 111.773 69.0343H111.76Z" fill="#202020" stroke="#202020" stroke-linecap="round" stroke-linejoin="round"/>
<path d="M119.314 55.8297H114.852V37.7168H119.314C119.964 37.7168 120.477 38.2425 120.477 38.8809V54.653C120.477 55.3039 119.952 55.8171 119.314 55.8171V55.8297Z" fill="#202020" stroke="#202020" stroke-linecap="round" stroke-linejoin="round"/>
<path d="M145.874 227.191L139.987 215.212L125.037 208.891C116.012 205.073 109.099 197.5 106.087 188.162C103.362 179.675 100.087 169.51 98.1368 163.439C97.1993 160.51 98.8368 157.381 101.799 156.48L101.937 156.442C104.737 155.591 107.699 157.156 108.574 159.947L115.112 180.739L108.974 161.274C108.974 161.274 100.524 134.849 95.7618 119.954C94.3243 115.46 98.1868 111.054 102.837 111.892L103.012 111.917C105.174 112.306 106.937 113.858 107.612 115.948L118.837 150.934C118.837 150.934 117.649 147.229 116.362 143.211C114.912 138.717 118.774 134.299 123.437 135.15L123.612 135.175C125.787 135.563 127.562 137.128 128.237 139.243L133.037 154.314L130.274 145.564C128.862 141.083 132.712 136.689 137.337 137.528H137.362C139.637 137.941 141.499 139.581 142.199 141.797L147.212 157.681L144.762 149.933C143.349 145.452 147.199 141.071 151.824 141.909H151.849C154.124 142.322 155.987 143.975 156.687 146.178L171.424 192.881L200.124 227.179" fill="white"/>
<path d="M145.874 227.191L139.987 215.212L125.037 208.891C116.012 205.073 109.099 197.5 106.087 188.162C103.362 179.675 100.087 169.51 98.1368 163.439C97.1993 160.51 98.8368 157.381 101.799 156.48L101.937 156.442C104.737 155.591 107.699 157.156 108.574 159.947L115.112 180.739L108.974 161.274C108.974 161.274 100.524 134.849 95.7618 119.954C94.3243 115.46 98.1868 111.054 102.837 111.892L103.012 111.917C105.174 112.306 106.937 113.858 107.612 115.948L118.837 150.934C118.837 150.934 117.649 147.229 116.362 143.211C114.912 138.717 118.774 134.299 123.437 135.15L123.612 135.175C125.787 135.563 127.562 137.128 128.237 139.243L133.037 154.314L130.274 145.564C128.862 141.083 132.712 136.689 137.337 137.528H137.362C139.637 137.941 141.499 139.581 142.199 141.797L147.212 157.681L144.762 149.933C143.349 145.452 147.199 141.071 151.824 141.909H151.849C154.124 142.322 155.987 143.975 156.687 146.178L171.424 192.881L200.124 227.179" stroke="#202020" stroke-linecap="round" stroke-linejoin="round"/>
<path d="M42.0742 122.071L45.9742 107.038C47.1867 102.344 49.6117 98.0377 52.9992 94.5703L63.1867 84.1182C64.6117 82.6661 66.6617 82.0152 68.6617 82.4033L84.2617 85.4325C87.8492 86.1335 89.9992 89.8137 88.8492 93.281C87.9617 95.9472 85.3742 97.6496 82.5742 97.3993L75.6117 96.7734C72.5867 96.498 69.6992 98.1128 68.3367 100.829C67.2117 103.057 67.2867 105.698 68.5242 107.851C73.2742 116.151 74.9867 125.839 73.3742 135.277L71.6242 145.541" fill="white"/>
<path d="M42.0742 122.071L45.9742 107.038C47.1867 102.344 49.6117 98.0377 52.9992 94.5703L63.1867 84.1182C64.6117 82.6661 66.6617 82.0152 68.6617 82.4033L84.2617 85.4325C87.8492 86.1335 89.9992 89.8136 88.8492 93.281C87.9617 95.9472 85.3742 97.6496 82.5742 97.3993L75.6117 96.7734C72.5867 96.498 69.6992 98.1128 68.3367 100.829C67.2117 103.057 67.2867 105.698 68.5242 107.851C73.2742 116.151 74.9867 125.839 73.3742 135.277L71.6242 145.541" stroke="#202020" stroke-linecap="round" stroke-linejoin="round"/>
<path d="M27.0641 8.14811L25.7016 12.0285C25.2516 13.3179 24.2391 14.3318 22.9516 14.7824L19.0766 16.1468C17.9016 16.5599 17.9016 18.2247 19.0766 18.6378L22.9516 20.0022C24.2391 20.4529 25.2516 21.4668 25.7016 22.7561L27.0641 26.6365C27.4766 27.8132 29.1391 27.8132 29.5516 26.6365L30.9141 22.7561C31.3641 21.4668 32.3766 20.4529 33.6641 20.0022L37.5391 18.6378C38.7141 18.2247 38.7141 16.5599 37.5391 16.1468L33.6641 14.7824C32.3766 14.3318 31.3641 13.3179 30.9141 12.0285L29.5516 8.14811C29.1391 6.97146 27.4766 6.97146 27.0641 8.14811Z" fill="white" stroke="#202020" stroke-linecap="round" stroke-linejoin="round"/>
<path d="M153.576 115.286L152.938 117.101C152.726 117.702 152.251 118.178 151.651 118.39L149.838 119.029C149.288 119.229 149.288 120.005 149.838 120.193L151.651 120.831C152.251 121.044 152.726 121.52 152.938 122.121L153.576 123.936C153.776 124.487 154.551 124.487 154.738 123.936L155.376 122.121C155.588 121.52 156.063 121.044 156.663 120.831L158.476 120.193C159.026 119.993 159.026 119.217 158.476 119.029L156.663 118.39C156.063 118.178 155.588 117.702 155.376 117.101L154.738 115.286C154.538 114.735 153.763 114.735 153.576 115.286Z" fill="white" stroke="#FFA500" stroke-linecap="round" stroke-linejoin="round"/>
<path d="M168.014 90.7017L166.602 94.6948C166.139 96.0216 165.089 97.0606 163.764 97.5362L159.777 98.9507C158.564 99.3763 158.564 101.091 159.777 101.517L163.764 102.931C165.089 103.394 166.127 104.446 166.602 105.773L168.014 109.766C168.439 110.98 170.152 110.98 170.577 109.766L171.989 105.773C172.452 104.446 173.502 103.407 174.827 102.931L178.814 101.517C180.027 101.091 180.027 99.3763 178.814 98.9507L174.827 97.5362C173.502 97.0731 172.464 96.0216 171.989 94.6948L170.577 90.7017C170.152 89.4875 168.439 89.4875 168.014 90.7017Z" fill="#202020" stroke="#202020" stroke-linecap="round" stroke-linejoin="round"/>
</g>
</svg>
