<svg width="1440" height="233" viewBox="0 0 1440 233" fill="none" xmlns="http://www.w3.org/2000/svg">
<rect width="1440" height="233" fill="#FAFAFA"/>
<mask id="mask0_2641_12932" style="mask-type:alpha" maskUnits="userSpaceOnUse" x="0" y="0" width="1440" height="233">
<rect width="1440" height="233" fill="#FAFAFA"/>
</mask>
<g mask="url(#mask0_2641_12932)">
<path d="M257.75 14.0391C192.95 179.892 19.25 161.819 -59.5 132.05L-74.5 29.1892L-109 -132.677C40.25 -152.877 322.55 -151.814 257.75 14.0391Z" fill="#F3F4F5"/>
<circle cx="1394" cy="26" r="115" fill="#F3F4F5"/>
</g>
<ellipse cx="416.519" cy="42" rx="12.5185" ry="13" fill="#F3F4F5"/>
<ellipse cx="612.083" cy="116.5" rx="30.0833" ry="28.5" fill="#F3F4F5"/>
<path d="M990.504 93.132L992.405 90.6507L989.472 86.9973H983.25V99.7553H990.287L993 95.9103L990.504 93.132ZM988.419 89.0028L989.636 90.6794L988.782 91.4107L987.084 89.0028H988.419ZM985.096 90.2068H985.588L987.081 92.4741H985.096V90.2068ZM985.096 97.8871C985.009 97.8871 985.096 95.1503 985.096 95.1503H985.576L987.345 97.8871C987.345 97.8871 985.183 97.8871 985.096 97.8871ZM989.392 97.1685L987.447 94.3263H989.014L990.333 96.2105L989.392 97.1685Z" fill="white"/>
</svg>
