<svg width="24" height="24" viewBox="0 0 24 24" fill="none" xmlns="http://www.w3.org/2000/svg">
<path d="M12 12.502H19.7143M12 12.802H19.7143M13.1868 14.902H15.5604M13.1868 15.802H14.3736M12.8901 17.002H18.8242C19.0602 17.002 19.2867 16.9071 19.4536 16.7383C19.6205 16.5696 19.7143 16.3406 19.7143 16.102V11.902C19.7143 11.6633 19.6205 11.4343 19.4536 11.2656C19.2867 11.0968 19.0602 11.002 18.8242 11.002H12.8901C12.654 11.002 12.4276 11.0968 12.2607 11.2656C12.0938 11.4343 12 11.6633 12 11.902V16.102C12 16.3406 12.0938 16.5696 12.2607 16.7383C12.4276 16.9071 12.654 17.002 12.8901 17.002Z" stroke="#777E90" stroke-width="0.5" stroke-linecap="round" stroke-linejoin="round"/>
<path d="M24.0016 23.0015C24.0016 23.2667 23.8963 23.5211 23.7087 23.7086C23.5212 23.8962 23.2668 24.0015 23.0016 24.0015H1.00161C0.736395 24.0015 0.482041 23.8962 0.294505 23.7086C0.106968 23.5211 0.00161154 23.2667 0.00161154 23.0015C0.00161154 22.7363 0.106968 22.482 0.294505 22.2944C0.482041 22.1069 0.736395 22.0015 1.00161 22.0015H23.0016C23.2668 22.0015 23.5212 22.1069 23.7087 22.2944C23.8963 22.482 24.0016 22.7363 24.0016 23.0015ZM0.292612 8.55352C0.0771338 8.15385 -0.0226938 7.70203 0.00433197 7.24877C0.0313577 6.79551 0.184167 6.35876 0.445612 5.98752C0.87287 5.36064 1.44506 4.84608 2.11361 4.48752L9.61461 0.58352C10.3519 0.200151 11.1706 0 12.0016 0C12.8326 0 13.6514 0.200151 14.3886 0.58352L21.8886 4.49052C22.5572 4.84908 23.1294 5.36364 23.5566 5.99052C23.8181 6.36176 23.9709 6.79851 23.9979 7.25177C24.0249 7.70503 23.9251 8.15685 23.7096 8.55652C23.4776 8.99535 23.1297 9.36212 22.7037 9.61691C22.2777 9.8717 21.79 10.0047 21.2936 10.0015L19.0016 10.0015V14.0015L19 18.002L22.0016 18.0015C22.2668 18.0015 22.5212 18.1069 22.7087 18.2944C22.8963 18.482 23.0016 18.7363 23.0016 19.0015C23.0016 19.2667 22.7087 19.7086 22.7087 19.7086C22.5212 19.8962 22.2668 20.0015 22.0016 20.0015H2.00161C1.7364 20.0015 1.48204 19.8962 1.2945 19.7086C1.10697 19.5211 1.00161 19.2667 1.00161 19.0015C1.00161 18.7363 1.10697 18.482 1.2945 18.2944C1.48204 18.1069 1.7364 18.0015 2.00161 18.0015H3.00161V10.0015H2.70961C2.21277 10.0046 1.72462 9.87123 1.2984 9.61589C0.872183 9.36054 0.52427 8.99306 0.292612 8.55352ZM5.00161 18.0015H8.00161V10.0015H5.00161V18.0015ZM10.0016 10.0015V18.0015L9.61461 14.002V9.61691L14.0016 10.0015H10.0016ZM19.0016 10.0015L14.0016 10.0015L9.61461 9.61691V14.002L10.0016 18.0015H14.0016H19.0016L19.0016 10.0015ZM2.06461 7.62652C2.12736 7.7422 2.22073 7.83838 2.33449 7.90452C2.44826 7.97067 2.57804 8.00423 2.70961 8.00152H21.2936C21.4252 8.00423 21.555 7.97067 21.6687 7.90452C21.7825 7.83838 21.8759 7.7422 21.9386 7.62652C21.9843 7.55008 22.0064 7.46185 22.0021 7.3729C21.9979 7.28394 21.9674 7.19823 21.9146 7.12652C21.6723 6.76643 21.3468 6.47006 20.9656 6.26252L13.4656 2.35552C13.0136 2.12094 12.5119 1.99849 12.0026 1.99849C11.4934 1.99849 10.9916 2.12094 10.5396 2.35552L3.03961 6.26252C2.6586 6.47073 2.33314 6.76738 2.09061 7.12752C2.0377 7.19893 2.00701 7.28435 2.00239 7.3731C1.99777 7.46185 2.01941 7.55 2.06461 7.62652Z" fill="white"/>
</svg>
