<svg width="337" height="310" viewBox="0 0 337 310" fill="none" xmlns="http://www.w3.org/2000/svg">
<g clip-path="url(#clip0_3120_2884)">
<path d="M186.978 161.967L229.928 309.998H106.73L149.678 161.957L186.978 161.967Z" fill="#D9D9D9" fill-opacity="0.21"/>
<path d="M149.164 162.17L155.433 45.2365L180.397 45.2305L186.731 162.161L149.164 162.17Z" fill="#D9D9D9" fill-opacity="0.21"/>
<path d="M194.082 45.5097L167.743 0L141.43 45.524L194.082 45.5097Z" fill="#D9D9D9" fill-opacity="0.21"/>
<path d="M91.7812 161.169L96.5437 80.3711H116.88L121.642 161.169H91.7812Z" fill="#D9D9D9" fill-opacity="0.21"/>
<path d="M128.047 80.3186L107.115 44.1289L86.1836 80.3186H128.047Z" fill="#D9D9D9" fill-opacity="0.21"/>
<path d="M-6.62891 309.955L91.7404 161.152L121.601 161.066L71.2656 309.871L-6.62891 309.955Z" fill="#D9D9D9" fill-opacity="0.21"/>
<path d="M208.727 161.169L213.489 80.3711H233.825L238.588 161.169H208.727Z" fill="#D9D9D9" fill-opacity="0.21"/>
<path d="M244.063 80.3186L223.131 44.1289L202.199 80.3186H244.063Z" fill="#D9D9D9" fill-opacity="0.21"/>
<path d="M337 310.002L238.631 161.199L208.77 161.113L259.107 309.918L337 310.002Z" fill="#D9D9D9" fill-opacity="0.21"/>
<g clip-path="url(#clip1_3120_2884)">
<path d="M166.16 183.007C166.16 183.007 183.908 158.036 207.094 170.833C230.281 183.629 179.36 175.547 166.16 183.007Z" fill="white"/>
<path d="M165.535 183.577L166.013 182.893C166.057 182.831 170.555 176.568 177.835 171.949C182.118 169.239 186.514 167.618 190.9 167.137C196.391 166.535 201.864 167.718 207.186 170.655C211.627 173.105 213.544 174.879 213.217 176.233C212.62 178.7 204.566 178.969 194.373 179.302C183.764 179.651 171.74 180.048 166.254 183.15L165.535 183.577ZM193.723 167.39C187.456 167.39 182.054 169.722 178.044 172.264C172.189 175.969 168.148 180.75 166.803 182.462C172.644 179.662 184.155 179.284 194.361 178.946C203.6 178.643 212.327 178.356 212.858 176.158C213.132 175.018 211.164 173.281 207.007 170.987C202.301 168.4 197.825 167.399 193.723 167.399V167.39Z" fill="#272C37"/>
<path d="M166.158 183.006C166.158 183.006 151.855 162.882 133.167 173.202C114.479 183.523 155.521 176.994 166.158 183.006Z" fill="white"/>
<path d="M166.783 183.577L166.064 183.171C161.651 180.663 151.966 180.355 143.413 180.075C135.176 179.804 128.681 179.589 128.194 177.567C127.926 176.457 129.475 175.016 133.072 173.033C137.366 170.662 141.789 169.706 146.218 170.194C149.758 170.582 153.311 171.888 156.761 174.07C160.427 176.441 163.654 179.425 166.3 182.891L166.783 183.577ZM143.946 170.468C140.645 170.468 137.043 171.272 133.255 173.363C129.921 175.203 128.34 176.591 128.557 177.49C128.981 179.234 136 179.466 143.429 179.71C151.579 179.979 160.761 180.28 165.515 182.483C162.983 179.325 159.959 176.592 156.558 174.389C153.327 172.342 148.987 170.468 143.946 170.468Z" fill="#272C37"/>
<path d="M166.16 183.007C167.993 180.579 170.071 178.345 172.361 176.339C186.686 174.342 208.257 175.983 209.593 172.312C226.144 182.994 178.815 175.855 166.16 183.007Z" fill="#808080"/>
<path d="M209.648 172.497C212.059 174.071 213.155 175.32 212.908 176.214C212.634 177.199 210.723 177.887 207.072 178.316C203.701 178.71 199.164 178.861 194.36 179.018C184.018 179.36 172.335 179.743 166.588 182.645C168.338 180.412 170.288 178.342 172.413 176.46C178.037 175.678 184.903 175.452 190.964 175.254C195.719 175.097 200.21 174.948 203.576 174.57C207.204 174.153 209.145 173.494 209.648 172.504M209.593 172.324C208.257 175.995 186.686 174.353 172.361 176.35C170.071 178.357 167.993 180.591 166.16 183.019C178.815 175.863 226.144 183.001 209.593 172.324Z" fill="#272C37"/>
<path d="M166.156 183.006C156.35 177.459 120.703 182.566 129.839 175.316C138.382 176.304 155.76 175.36 162.463 178.841C163.807 180.127 165.042 181.52 166.156 183.006Z" fill="#808080"/>
<path d="M129.872 175.448C132.585 175.758 136.193 175.877 140.014 176.002C148.366 176.278 157.829 176.59 162.386 178.945C163.583 180.102 164.698 181.339 165.725 182.648C161.057 180.35 151.708 180.042 143.426 179.768C136.054 179.524 129.089 179.296 128.513 177.561C128.334 177.023 128.792 176.314 129.872 175.448ZM129.835 175.32C120.699 182.57 156.346 177.463 166.152 183.01C165.038 181.524 163.803 180.131 162.46 178.845C155.756 175.364 138.379 176.307 129.835 175.32Z" fill="#272C37"/>
<path d="M166.145 207.488C166.145 207.488 177.003 192.213 191.189 200.04C205.374 207.867 174.221 202.922 166.145 207.488Z" fill="white"/>
<path d="M165.516 208.051L165.994 207.381C168.005 204.744 170.458 202.474 173.247 200.671C175.878 199.007 178.575 198.013 181.271 197.708C184.641 197.336 188.007 198.063 191.276 199.869C194.022 201.385 195.209 202.495 195.001 203.359C194.642 204.846 190.361 205.062 183.405 205.29C176.924 205.505 169.574 205.746 166.245 207.636L165.516 208.051ZM182.966 197.97C179.8 197.97 176.621 198.973 173.455 200.975C170.928 202.61 168.675 204.632 166.779 206.966C170.439 205.37 177.303 205.142 183.394 204.935C189.018 204.75 194.33 204.575 194.644 203.282C194.751 202.826 194.228 201.914 191.098 200.197C188.409 198.713 185.698 197.97 182.966 197.97Z" fill="#272C37"/>
<path d="M166.142 207.485C166.142 207.485 157.392 195.174 145.959 201.482C134.526 207.791 159.635 203.805 166.142 207.485Z" fill="white"/>
<path d="M166.768 208.054L166.049 207.648C163.365 206.13 157.449 205.934 152.23 205.763C146.608 205.578 143.146 205.403 142.849 204.167C142.673 203.442 143.604 202.571 145.867 201.315C151.852 198.012 157.092 199.84 160.432 201.956C162.684 203.411 164.665 205.244 166.289 207.373L166.768 208.054ZM152.582 199.847C150.39 199.847 148.211 200.443 146.045 201.636C143.542 203.018 143.121 203.729 143.206 204.083C143.451 205.1 147.919 205.245 152.239 205.387C157.08 205.546 162.519 205.727 165.509 206.983C164.002 205.151 162.22 203.563 160.226 202.273C157.684 200.661 155.129 199.856 152.584 199.856L152.582 199.847Z" fill="#272C37"/>
<path d="M166.145 207.485C166.968 206.387 167.88 205.356 168.87 204.403C176.34 202.474 190.681 203.596 194.097 201.973C199.558 206.997 173.439 203.361 166.145 207.485Z" fill="#808080"/>
<path d="M194.074 202.119C194.6 202.618 194.806 203.031 194.685 203.359C194.207 204.638 188.965 204.811 183.396 204.993C177.173 205.199 170.158 205.431 166.57 207.127C167.301 206.207 168.09 205.334 168.931 204.512C172.752 203.532 178.41 203.347 183.403 203.181C188.194 203.024 192.34 202.887 194.074 202.119ZM194.097 201.973C190.681 203.596 176.34 202.474 168.87 204.403C167.88 205.356 166.968 206.387 166.145 207.485C173.439 203.361 199.549 206.997 194.097 201.973Z" fill="#272C37"/>
<path d="M166.142 207.488C160.136 204.093 138.304 207.224 143.935 202.773C147.067 203.861 157.457 203.152 163.383 204.472C164.397 205.387 165.321 206.397 166.142 207.488Z" fill="#808080"/>
<path d="M143.96 202.91C145.514 203.423 148.632 203.526 152.233 203.644C156.006 203.77 160.278 203.911 163.328 204.584C164.187 205.374 164.986 206.227 165.719 207.135C162.795 205.806 157.205 205.621 152.24 205.457C147.747 205.309 143.5 205.17 143.159 204.139C143.059 203.834 143.329 203.421 143.96 202.91ZM143.935 202.773C138.304 207.224 160.136 204.093 166.142 207.488C165.325 206.398 164.406 205.388 163.397 204.472C157.466 203.152 147.076 203.861 143.949 202.773H143.935Z" fill="#272C37"/>
<path d="M166.661 147.305H164.332V227.074H166.661V147.305Z" fill="white"/>
<path d="M166.85 227.262H164.152V147.125H166.85V227.262ZM164.521 226.895H166.482V147.492H164.521V226.895Z" fill="#272C37"/>
<path d="M165.497 152.499C184.523 152.499 199.947 137.13 199.947 118.171C199.947 99.2128 184.523 83.8438 165.497 83.8438C146.471 83.8438 131.047 99.2128 131.047 118.171C131.047 137.13 146.471 152.499 165.497 152.499Z" fill="white"/>
<path d="M165.499 84.2108C173.924 84.2217 182.044 87.3501 188.285 92.9892C194.526 98.6284 198.442 106.376 199.275 114.73C200.107 123.083 197.796 131.447 192.79 138.199C187.784 144.951 180.439 149.609 172.181 151.271C163.923 152.932 155.34 151.478 148.097 147.19C140.854 142.903 135.468 136.088 132.982 128.066C130.497 120.045 131.09 111.39 134.646 103.78C138.202 96.1702 144.469 90.1475 152.229 86.8805C156.427 85.1096 160.941 84.2015 165.499 84.2108ZM165.499 83.8438C158.686 83.8433 152.025 85.8562 146.359 89.6279C140.694 93.3996 136.278 98.7607 133.67 105.033C131.062 111.306 130.38 118.208 131.709 124.867C133.038 131.526 136.318 137.643 141.136 142.444C145.954 147.245 152.093 150.515 158.775 151.839C165.458 153.164 172.385 152.485 178.68 149.886C184.975 147.288 190.356 142.888 194.141 137.243C197.927 131.598 199.947 124.961 199.947 118.171C199.947 109.068 196.318 100.337 189.858 93.8989C183.398 87.4613 174.636 83.8444 165.499 83.8438Z" fill="#272C37"/>
<path d="M165.499 144.801C180.26 144.801 192.225 132.878 192.225 118.17C192.225 103.462 180.26 91.5391 165.499 91.5391C150.739 91.5391 138.773 103.462 138.773 118.17C138.773 132.878 150.739 144.801 165.499 144.801Z" fill="white"/>
<path d="M165.945 91.9335C172.457 91.9425 178.733 94.3612 183.557 98.7206C188.381 103.08 191.408 109.069 192.051 115.526C192.693 121.984 190.907 128.449 187.036 133.668C183.166 138.886 177.489 142.487 171.106 143.771C164.722 145.054 158.088 143.93 152.489 140.615C146.891 137.301 142.727 132.032 140.806 125.832C138.886 119.632 139.344 112.942 142.094 107.059C144.843 101.177 149.687 96.5218 155.685 93.9967C158.931 92.6279 162.42 91.9261 165.945 91.9335ZM165.945 91.5664C160.659 91.5664 155.492 93.1283 151.097 96.0545C146.702 98.9808 143.276 103.14 141.253 108.006C139.23 112.872 138.701 118.227 139.732 123.393C140.764 128.559 143.309 133.304 147.047 137.028C150.784 140.753 155.546 143.289 160.731 144.317C165.915 145.344 171.289 144.817 176.172 142.801C181.056 140.786 185.23 137.372 188.167 132.993C191.103 128.613 192.671 123.464 192.671 118.197C192.671 111.134 189.855 104.361 184.843 99.3664C179.831 94.3722 173.033 91.5664 165.945 91.5664Z" fill="#272C37"/>
<path d="M185.381 100.376C180.298 95.7798 173.635 93.3087 166.774 93.4745C159.912 93.6404 153.377 96.4305 148.524 101.267C143.67 106.103 140.87 112.614 140.704 119.452C140.537 126.289 143.017 132.928 147.63 137.993C144.95 135.57 142.792 132.63 141.286 129.351C139.78 126.072 138.959 122.522 138.871 118.917C138.783 115.312 139.431 111.727 140.775 108.379C142.12 105.031 144.132 101.99 146.691 99.4407C149.25 96.8909 152.302 94.8855 155.662 93.546C159.022 92.2066 162.62 91.561 166.237 91.6485C169.855 91.7359 173.417 92.5545 176.708 94.0547C179.999 95.5549 182.95 97.7054 185.381 100.376Z" fill="#808080"/>
<path d="M165.5 91.6635C172.261 91.6536 178.77 94.2177 183.696 98.8313C178.526 94.9434 172.12 93.0487 165.659 93.4965C159.198 93.9443 153.116 96.7045 148.536 101.268C143.957 105.832 141.187 111.891 140.737 118.33C140.288 124.768 142.189 131.152 146.091 136.303C142.537 132.533 140.169 127.809 139.277 122.713C138.386 117.618 139.01 112.374 141.074 107.628C143.138 102.882 146.55 98.8414 150.89 96.0046C155.231 93.1678 160.309 91.6587 165.5 91.6635ZM165.5 91.5404C160.092 91.5403 154.811 93.1749 150.355 96.2283C145.9 99.2818 142.478 103.61 140.543 108.642C138.608 113.674 138.25 119.173 139.517 124.411C140.785 129.65 143.617 134.382 147.64 137.983C143.028 132.918 140.548 126.279 140.714 119.442C140.881 112.604 143.681 106.093 148.534 101.257C153.387 96.4204 159.922 93.6302 166.784 93.4644C173.646 93.2985 180.309 95.7697 185.392 100.366C182.888 97.5822 179.823 95.3566 176.397 93.8343C172.97 92.312 169.26 91.5272 165.509 91.5313L165.5 91.5404Z" fill="#272C37"/>
<path d="M173.055 117.451L177.581 111.443L170.601 102.598H155.793V133.487H172.539L178.996 124.178L173.055 117.451ZM168.095 107.453L170.992 111.513L168.957 113.283L164.918 107.453H168.095ZM160.186 110.368H161.358L164.911 115.858H160.186V110.368ZM160.186 128.964C159.98 128.964 160.186 122.338 160.186 122.338H161.328L165.537 128.964C165.537 128.964 160.392 128.964 160.186 128.964ZM170.409 127.224L165.78 120.343H169.51L172.65 124.905L170.409 127.224Z" fill="#272C37"/>
</g>
<g clip-path="url(#clip2_3120_2884)">
<path d="M95.8359 177.648C95.8359 177.648 103.442 167.083 113.379 172.497C123.316 177.911 101.493 174.492 95.8359 177.648Z" fill="white"/>
<path d="M95.5664 177.891L95.7713 177.602C95.79 177.576 97.7178 174.926 100.838 172.972C102.674 171.825 104.557 171.139 106.437 170.936C108.79 170.681 111.136 171.182 113.417 172.424C115.32 173.461 116.142 174.211 116.001 174.784C115.745 175.828 112.294 175.942 107.925 176.082C103.379 176.23 98.2257 176.398 95.8743 177.711L95.5664 177.891ZM107.647 171.043C104.961 171.043 102.646 172.029 100.927 173.105C98.4179 174.672 96.6862 176.695 96.1096 177.419C98.613 176.235 103.546 176.075 107.921 175.932C111.88 175.804 115.62 175.682 115.847 174.752C115.965 174.27 115.122 173.535 113.34 172.565C111.323 171.47 109.405 171.046 107.647 171.046V171.043Z" fill="#272C37"/>
<path d="M95.8337 177.647C95.8337 177.647 89.7042 169.133 81.695 173.5C73.6857 177.866 91.2751 175.104 95.8337 177.647Z" fill="white"/>
<path d="M96.1016 177.89L95.7937 177.718C93.9022 176.657 89.7515 176.527 86.0861 176.409C82.5561 176.294 79.7723 176.203 79.5634 175.348C79.4487 174.878 80.1125 174.268 81.654 173.429C83.4945 172.426 85.3899 172.022 87.2883 172.228C88.8052 172.392 90.3281 172.945 91.8068 173.868C93.3778 174.871 94.7608 176.133 95.8947 177.6L96.1016 177.89ZM86.3146 172.344C84.8997 172.344 83.3562 172.684 81.7324 173.569C80.3037 174.347 79.6262 174.935 79.7193 175.315C79.9007 176.053 82.9091 176.151 86.093 176.254C89.5858 176.368 93.5208 176.495 95.5584 177.427C94.4732 176.091 93.1771 174.935 91.7195 174.003C90.3349 173.137 88.4748 172.344 86.3146 172.344Z" fill="#272C37"/>
<path d="M95.8359 177.65C96.6215 176.623 97.5119 175.677 98.4933 174.828C104.633 173.983 113.877 174.678 114.45 173.125C121.543 177.644 101.259 174.624 95.8359 177.65Z" fill="#808080"/>
<path d="M114.474 173.202C115.507 173.868 115.977 174.396 115.871 174.774C115.753 175.191 114.934 175.482 113.369 175.664C111.925 175.831 109.981 175.894 107.921 175.961C103.489 176.106 98.4825 176.268 96.0193 177.495C96.7693 176.551 97.6049 175.675 98.5158 174.879C100.926 174.548 103.869 174.452 106.466 174.368C108.504 174.302 110.429 174.239 111.871 174.079C113.426 173.902 114.258 173.624 114.474 173.205M114.45 173.129C113.877 174.682 104.633 173.987 98.4933 174.832C97.5119 175.681 96.6215 176.626 95.8359 177.654C101.259 174.626 121.543 177.646 114.45 173.129Z" fill="#272C37"/>
<path d="M95.8332 177.648C91.6305 175.301 76.3533 177.462 80.2687 174.395C83.9301 174.812 91.3775 174.413 94.2505 175.886C94.8261 176.43 95.3554 177.019 95.8332 177.648Z" fill="#808080"/>
<path d="M80.2843 174.452C81.4473 174.584 82.9936 174.634 84.6312 174.687C88.2102 174.804 92.2659 174.936 94.2191 175.932C94.7318 176.421 95.2098 176.945 95.6498 177.499C93.6494 176.526 89.6429 176.396 86.0932 176.28C82.9338 176.177 79.949 176.081 79.7019 175.347C79.6254 175.119 79.8215 174.819 80.2843 174.452ZM80.2687 174.398C76.3533 177.466 91.6305 175.305 95.8332 177.652C95.3554 177.023 94.8261 176.434 94.2505 175.89C91.3775 174.417 83.9301 174.816 80.2687 174.398Z" fill="#272C37"/>
<path d="M95.8281 188.005C95.8281 188.005 100.482 181.543 106.561 184.854C112.641 188.166 99.2895 186.073 95.8281 188.005Z" fill="white"/>
<path d="M95.5586 188.244L95.7635 187.961C96.6253 186.845 97.677 185.885 98.8719 185.122C99.9996 184.418 101.156 183.997 102.311 183.868C103.755 183.711 105.198 184.019 106.599 184.782C107.775 185.424 108.284 185.894 108.195 186.259C108.041 186.888 106.207 186.98 103.226 187.076C100.448 187.167 97.2981 187.269 95.8714 188.069L95.5586 188.244ZM103.037 183.979C101.68 183.979 100.318 184.403 98.9611 185.25C97.8781 185.942 96.9125 186.798 96.0999 187.785C97.6688 187.11 100.61 187.013 103.221 186.926C105.631 186.848 107.908 186.773 108.042 186.226C108.088 186.033 107.864 185.648 106.522 184.921C105.37 184.293 104.208 183.979 103.037 183.979Z" fill="#272C37"/>
<path d="M95.8252 188.008C95.8252 188.008 92.0755 182.799 87.1757 185.468C82.2758 188.137 93.0365 186.451 95.8252 188.008Z" fill="white"/>
<path d="M96.0957 188.246L95.7878 188.075C94.6376 187.432 92.1019 187.349 89.8652 187.277C87.456 187.199 85.9724 187.125 85.8449 186.602C85.7694 186.295 86.1685 185.927 87.1383 185.395C89.7034 183.998 91.9489 184.771 93.3805 185.666C94.3454 186.282 95.1947 187.057 95.8908 187.958L96.0957 188.246ZM90.0162 184.774C89.0768 184.774 88.143 185.026 87.2147 185.531C86.142 186.116 85.9616 186.417 85.9979 186.566C86.1028 186.996 88.0178 187.058 89.8691 187.118C91.944 187.185 94.2748 187.262 95.5564 187.793C94.9103 187.018 94.1466 186.346 93.2923 185.8C92.2029 185.118 91.1076 184.778 90.0172 184.778L90.0162 184.774Z" fill="#272C37"/>
<path d="M95.8281 188.004C96.1813 187.539 96.5718 187.103 96.996 186.7C100.198 185.884 106.344 186.359 107.808 185.672C110.148 187.798 98.9542 186.259 95.8281 188.004Z" fill="#808080"/>
<path d="M107.798 185.734C108.023 185.945 108.112 186.119 108.06 186.258C107.855 186.799 105.608 186.873 103.222 186.95C100.554 187.037 97.548 187.135 96.0105 187.853C96.324 187.464 96.6619 187.094 97.0224 186.746C98.66 186.332 101.085 186.254 103.225 186.183C105.278 186.117 107.055 186.059 107.798 185.734ZM107.808 185.672C106.344 186.359 100.198 185.884 96.996 186.7C96.5718 187.103 96.1813 187.539 95.8281 188.004C98.9542 186.259 110.144 187.798 107.808 185.672Z" fill="#272C37"/>
<path d="M95.8254 188.006C93.2514 186.57 83.8949 187.895 86.308 186.012C87.6504 186.472 92.1032 186.172 94.6428 186.73C95.0775 187.118 95.4735 187.545 95.8254 188.006Z" fill="#808080"/>
<path d="M86.3188 186.07C86.9846 186.287 88.3211 186.33 89.8646 186.38C91.4815 186.433 93.3122 186.493 94.6193 186.778C94.9876 187.112 95.3301 187.473 95.644 187.857C94.3908 187.295 91.9953 187.216 89.8675 187.147C87.9417 187.084 86.1217 187.025 85.9756 186.589C85.9325 186.46 86.0482 186.286 86.3188 186.07ZM86.308 186.012C83.8949 187.895 93.2514 186.57 95.8254 188.006C95.4754 187.545 95.0813 187.118 94.6487 186.73C92.1071 186.172 87.6544 186.472 86.3139 186.012H86.308Z" fill="#272C37"/>
<path d="M96.049 162.543H95.0508V196.292H96.049V162.543Z" fill="white"/>
<path d="M96.1287 196.373H94.9727V162.469H96.1287V196.373ZM95.1305 196.217H95.9709V162.624H95.1305V196.217Z" fill="#272C37"/>
<path d="M95.5534 164.742C103.708 164.742 110.318 158.24 110.318 150.219C110.318 142.198 103.708 135.695 95.5534 135.695C87.3993 135.695 80.7891 142.198 80.7891 150.219C80.7891 158.24 87.3993 164.742 95.5534 164.742Z" fill="white"/>
<path d="M95.5544 135.851C99.165 135.855 102.645 137.179 105.32 139.565C107.994 141.95 109.673 145.228 110.03 148.763C110.386 152.297 109.396 155.835 107.25 158.692C105.105 161.548 101.957 163.519 98.4181 164.222C94.8789 164.925 91.2005 164.31 88.0964 162.496C84.9923 160.682 82.6837 157.798 81.6185 154.405C80.5533 151.011 80.8074 147.35 82.3316 144.13C83.8557 140.91 86.5412 138.362 89.8671 136.98C91.6663 136.231 93.6007 135.847 95.5544 135.851ZM95.5544 135.695C92.6342 135.695 89.7796 136.547 87.3515 138.142C84.9234 139.738 83.0309 142.006 81.9132 144.66C80.7956 147.314 80.5031 150.234 81.0726 153.051C81.6422 155.869 83.0483 158.457 85.1131 160.488C87.1779 162.519 89.8086 163.902 92.6727 164.463C95.5367 165.023 98.5054 164.736 101.203 163.636C103.901 162.537 106.207 160.676 107.829 158.287C109.452 155.899 110.318 153.091 110.318 150.219C110.318 146.367 108.762 142.673 105.994 139.949C103.225 137.226 99.47 135.696 95.5544 135.695Z" fill="#272C37"/>
<path d="M95.5516 161.487C101.877 161.487 107.006 156.443 107.006 150.22C107.006 143.998 101.877 138.953 95.5516 138.953C89.2258 138.953 84.0977 143.998 84.0977 150.22C84.0977 156.443 89.2258 161.487 95.5516 161.487Z" fill="white"/>
<path d="M95.5516 139.108C98.3425 139.112 101.033 140.136 103.1 141.98C105.167 143.824 106.464 146.358 106.74 149.09C107.015 151.822 106.25 154.557 104.591 156.765C102.932 158.973 100.499 160.496 97.7635 161.039C95.0277 161.583 92.1844 161.107 89.7851 159.705C87.3857 158.302 85.6013 156.073 84.7781 153.45C83.9549 150.827 84.1515 147.997 85.3297 145.508C86.5079 143.019 88.5839 141.05 91.1548 139.981C92.5457 139.402 94.0412 139.105 95.5516 139.108ZM95.5516 138.953C93.2863 138.953 91.0718 139.614 89.1882 140.852C87.3046 142.09 85.8365 143.85 84.9695 145.908C84.1026 147.967 83.8758 150.233 84.3177 152.418C84.7597 154.604 85.8506 156.611 87.4525 158.187C89.0543 159.763 91.0952 160.836 93.3171 161.271C95.5389 161.705 97.8419 161.482 99.9349 160.629C102.028 159.777 103.817 158.332 105.075 156.48C106.334 154.627 107.006 152.448 107.006 150.22C107.006 147.232 105.799 144.366 103.651 142.253C101.503 140.14 98.5894 138.953 95.5516 138.953Z" fill="#272C37"/>
<path d="M104.073 142.688C101.895 140.743 99.0391 139.698 96.0983 139.768C93.1575 139.838 90.3569 141.019 88.2769 143.065C86.1968 145.111 84.9968 147.866 84.9255 150.758C84.8541 153.651 85.917 156.46 87.8937 158.603C86.7452 157.578 85.8203 156.334 85.175 154.947C84.5298 153.559 84.1777 152.057 84.1401 150.532C84.1025 149.007 84.3801 147.49 84.9562 146.074C85.5323 144.658 86.3948 143.371 87.4915 142.292C88.5882 141.213 89.8961 140.365 91.3361 139.798C92.776 139.232 94.318 138.959 95.8685 138.996C97.4189 139.032 98.9456 139.379 100.356 140.014C101.766 140.648 103.031 141.558 104.073 142.688Z" fill="#808080"/>
<path d="M95.5519 139.005C98.4493 139.001 101.239 140.086 103.35 142.038C101.135 140.393 98.3892 139.591 95.62 139.781C92.8509 139.97 90.2447 141.138 88.2818 143.069C86.319 144.999 85.1319 147.563 84.9392 150.287C84.7466 153.011 85.5616 155.712 87.2338 157.891C85.7108 156.296 84.6957 154.297 84.3137 152.142C83.9316 149.986 84.1992 147.767 85.0836 145.759C85.968 143.751 87.4304 142.042 89.2906 140.842C91.1507 139.642 93.3273 139.003 95.5519 139.005ZM95.5519 138.953C93.2342 138.953 90.9711 139.645 89.0614 140.936C87.1517 142.228 85.6853 144.06 84.856 146.188C84.0267 148.317 83.8735 150.644 84.4165 152.86C84.9596 155.076 86.1734 157.079 87.8976 158.602C85.9209 156.459 84.858 153.65 84.9294 150.757C85.0007 147.865 86.2007 145.11 88.2808 143.064C90.3608 141.018 93.1614 139.837 96.1022 139.767C99.043 139.697 101.898 140.742 104.077 142.687C103.004 141.509 101.69 140.568 100.222 139.924C98.7535 139.28 97.1635 138.947 95.5558 138.949L95.5519 138.953Z" fill="#272C37"/>
<path d="M97.7446 150.97L99.0377 149.254L97.0433 146.727H92.8125V155.552H97.5972L99.442 152.892L97.7446 150.97ZM96.3273 148.114L97.155 149.274L96.5737 149.78L95.4197 148.114H96.3273ZM94.0676 148.947H94.4025L95.4176 150.515H94.0676V148.947ZM94.0676 154.26C94.0087 154.26 94.0676 152.367 94.0676 152.367H94.3941L95.5966 154.26C95.5966 154.26 94.1266 154.26 94.0676 154.26ZM96.9886 153.763L95.6661 151.797H96.7317L97.6288 153.1L96.9886 153.763Z" fill="#272C37"/>
</g>
<ellipse cx="95.024" cy="196.368" rx="6.62951" ry="3.30961" fill="#D9D9D9" fill-opacity="0.11"/>
<ellipse cx="165.739" cy="227.259" rx="6.62951" ry="3.30961" fill="#D9D9D9" fill-opacity="0.11"/>
<ellipse cx="229.825" cy="187.544" rx="6.62951" ry="3.30961" fill="#D9D9D9" fill-opacity="0.11"/>
<g clip-path="url(#clip3_3120_2884)">
<path d="M229.531 168.82C229.531 168.82 237.137 158.255 247.075 163.669C257.012 169.083 235.188 165.664 229.531 168.82Z" fill="white"/>
<path d="M229.262 169.063L229.467 168.773C229.485 168.747 231.413 166.098 234.533 164.144C236.369 162.997 238.253 162.311 240.132 162.107C242.486 161.853 244.831 162.353 247.112 163.596C249.015 164.633 249.837 165.383 249.697 165.956C249.441 167 245.989 167.113 241.621 167.254C237.074 167.402 231.921 167.57 229.57 168.882L229.262 169.063ZM241.342 162.214C238.657 162.214 236.341 163.201 234.622 164.277C232.113 165.844 230.382 167.867 229.805 168.591C232.308 167.407 237.242 167.247 241.616 167.104C245.575 166.976 249.315 166.854 249.543 165.924C249.66 165.442 248.817 164.707 247.035 163.737C245.018 162.642 243.1 162.218 241.342 162.218V162.214Z" fill="#272C37"/>
<path d="M229.529 168.819C229.529 168.819 223.4 160.305 215.39 164.672C207.381 169.038 224.97 166.276 229.529 168.819Z" fill="white"/>
<path d="M229.797 169.062L229.489 168.89C227.598 167.829 223.447 167.699 219.781 167.58C216.251 167.466 213.468 167.375 213.259 166.519C213.144 166.05 213.808 165.44 215.349 164.601C217.19 163.598 219.085 163.194 220.984 163.4C222.501 163.564 224.023 164.117 225.502 165.04C227.073 166.043 228.456 167.305 229.59 168.772L229.797 169.062ZM220.01 163.516C218.595 163.516 217.052 163.856 215.428 164.741C213.999 165.519 213.321 166.107 213.415 166.487C213.596 167.225 216.604 167.323 219.788 167.426C223.281 167.54 227.216 167.667 229.254 168.599C228.169 167.263 226.872 166.107 225.415 165.175C224.03 164.309 222.17 163.516 220.01 163.516Z" fill="#272C37"/>
<path d="M229.531 168.822C230.317 167.794 231.207 166.849 232.189 166C238.328 165.155 247.573 165.85 248.145 164.297C255.239 168.816 234.955 165.796 229.531 168.822Z" fill="#808080"/>
<path d="M248.169 164.374C249.202 165.04 249.672 165.568 249.566 165.946C249.448 166.363 248.63 166.654 247.065 166.836C245.62 167.002 243.676 167.066 241.617 167.133C237.185 167.277 232.178 167.439 229.715 168.667C230.465 167.723 231.3 166.847 232.211 166.05C234.621 165.72 237.564 165.624 240.162 165.54C242.199 165.474 244.124 165.411 245.566 165.251C247.122 165.074 247.953 164.796 248.169 164.377M248.145 164.301C247.573 165.854 238.328 165.159 232.189 166.004C231.207 166.853 230.317 167.798 229.531 168.826C234.955 165.798 255.239 168.818 248.145 164.301Z" fill="#272C37"/>
<path d="M229.528 168.82C225.326 166.473 210.049 168.634 213.964 165.566C217.625 165.984 225.073 165.585 227.946 167.058C228.521 167.602 229.051 168.191 229.528 168.82Z" fill="#808080"/>
<path d="M213.98 165.624C215.143 165.756 216.689 165.806 218.326 165.859C221.906 165.975 225.961 166.108 227.914 167.104C228.427 167.593 228.905 168.117 229.345 168.67C227.345 167.698 223.338 167.568 219.789 167.452C216.629 167.349 213.644 167.252 213.397 166.518C213.321 166.291 213.517 165.991 213.98 165.624ZM213.964 165.57C210.049 168.638 225.326 166.477 229.528 168.824C229.051 168.195 228.521 167.605 227.946 167.062C225.073 165.589 217.625 165.988 213.964 165.57Z" fill="#272C37"/>
<path d="M229.523 179.177C229.523 179.177 234.177 172.715 240.257 176.026C246.336 179.337 232.985 177.245 229.523 179.177Z" fill="white"/>
<path d="M229.254 179.416L229.459 179.133C230.321 178.017 231.372 177.056 232.567 176.294C233.695 175.59 234.851 175.169 236.006 175.04C237.45 174.883 238.893 175.19 240.294 175.954C241.471 176.596 241.98 177.065 241.89 177.431C241.736 178.06 239.902 178.152 236.921 178.248C234.143 178.339 230.993 178.441 229.567 179.241L229.254 179.416ZM236.733 175.151C235.376 175.151 234.014 175.575 232.656 176.422C231.573 177.114 230.608 177.97 229.795 178.957C231.364 178.282 234.306 178.185 236.916 178.098C239.326 178.019 241.603 177.945 241.737 177.398C241.784 177.205 241.559 176.82 240.218 176.093C239.065 175.465 237.903 175.151 236.733 175.151Z" fill="#272C37"/>
<path d="M229.521 179.18C229.521 179.18 225.771 173.971 220.871 176.64C215.971 179.309 226.732 177.623 229.521 179.18Z" fill="white"/>
<path d="M229.791 179.418L229.483 179.247C228.333 178.604 225.797 178.521 223.561 178.449C221.151 178.371 219.668 178.296 219.54 177.774C219.465 177.467 219.864 177.098 220.834 176.567C223.399 175.169 225.644 175.943 227.076 176.838C228.041 177.454 228.89 178.229 229.586 179.13L229.791 179.418ZM223.712 175.946C222.772 175.946 221.838 176.198 220.91 176.703C219.837 177.288 219.657 177.588 219.693 177.738C219.798 178.168 221.713 178.23 223.564 178.29C225.639 178.357 227.97 178.433 229.252 178.965C228.606 178.19 227.842 177.518 226.988 176.972C225.898 176.29 224.803 175.95 223.713 175.95L223.712 175.946Z" fill="#272C37"/>
<path d="M229.523 179.176C229.877 178.711 230.267 178.275 230.691 177.872C233.893 177.056 240.039 177.531 241.503 176.844C243.844 178.97 232.649 177.431 229.523 179.176Z" fill="#808080"/>
<path d="M241.493 176.905C241.719 177.117 241.807 177.291 241.755 177.43C241.55 177.971 239.304 178.045 236.917 178.122C234.25 178.209 231.243 178.307 229.706 179.025C230.019 178.635 230.357 178.266 230.718 177.918C232.355 177.504 234.78 177.425 236.92 177.355C238.973 177.288 240.75 177.231 241.493 176.905ZM241.503 176.844C240.039 177.531 233.893 177.056 230.691 177.872C230.267 178.275 229.877 178.711 229.523 179.176C232.649 177.431 243.84 178.97 241.503 176.844Z" fill="#272C37"/>
<path d="M229.521 179.178C226.947 177.742 217.59 179.066 220.003 177.184C221.346 177.644 225.798 177.344 228.338 177.902C228.773 178.289 229.169 178.717 229.521 179.178Z" fill="#808080"/>
<path d="M220.014 177.241C220.68 177.459 222.016 177.502 223.56 177.552C225.177 177.605 227.008 177.665 228.315 177.949C228.683 178.284 229.025 178.645 229.339 179.029C228.086 178.466 225.691 178.388 223.563 178.319C221.637 178.256 219.817 178.197 219.671 177.761C219.628 177.632 219.744 177.458 220.014 177.241ZM220.003 177.184C217.59 179.066 226.947 177.742 229.521 179.178C229.171 178.717 228.777 178.29 228.344 177.902C225.802 177.344 221.35 177.644 220.009 177.184H220.003Z" fill="#272C37"/>
<path d="M229.744 153.715H228.746V187.464H229.744V153.715Z" fill="white"/>
<path d="M229.824 187.545H228.668V153.641H229.824V187.545ZM228.826 187.389H229.666V153.796H228.826V187.389Z" fill="#272C37"/>
<path d="M229.249 155.914C237.403 155.914 244.013 149.411 244.013 141.39C244.013 133.369 237.403 126.867 229.249 126.867C221.095 126.867 214.484 133.369 214.484 141.39C214.484 149.411 221.095 155.914 229.249 155.914Z" fill="white"/>
<path d="M229.25 127.022C232.86 127.027 236.34 128.351 239.015 130.736C241.69 133.122 243.368 136.4 243.725 139.934C244.082 143.469 243.091 147.007 240.946 149.864C238.8 152.72 235.653 154.691 232.113 155.394C228.574 156.097 224.896 155.482 221.792 153.668C218.688 151.854 216.379 148.97 215.314 145.577C214.249 142.183 214.503 138.522 216.027 135.302C217.551 132.082 220.237 129.534 223.562 128.152C225.362 127.403 227.296 127.019 229.25 127.022ZM229.25 126.867C226.33 126.867 223.475 127.719 221.047 129.314C218.619 130.91 216.726 133.178 215.609 135.832C214.491 138.486 214.198 141.406 214.768 144.223C215.338 147.041 216.744 149.628 218.808 151.66C220.873 153.691 223.504 155.074 226.368 155.635C229.232 156.195 232.201 155.908 234.899 154.808C237.596 153.709 239.902 151.848 241.525 149.459C243.147 147.071 244.013 144.263 244.013 141.39C244.013 137.539 242.458 133.845 239.689 131.121C236.92 128.398 233.165 126.867 229.25 126.867Z" fill="#272C37"/>
<path d="M229.247 152.659C235.573 152.659 240.701 147.615 240.701 141.392C240.701 135.169 235.573 130.125 229.247 130.125C222.921 130.125 217.793 135.169 217.793 141.392C217.793 147.615 222.921 152.659 229.247 152.659Z" fill="white"/>
<path d="M229.247 130.28C232.038 130.284 234.728 131.307 236.795 133.152C238.862 134.996 240.16 137.53 240.435 140.262C240.711 142.994 239.945 145.729 238.286 147.937C236.628 150.145 234.195 151.668 231.459 152.211C228.723 152.755 225.88 152.279 223.48 150.876C221.081 149.474 219.297 147.245 218.473 144.622C217.65 141.999 217.847 139.168 219.025 136.68C220.203 134.191 222.279 132.222 224.85 131.153C226.241 130.574 227.737 130.277 229.247 130.28ZM229.247 130.125C226.982 130.125 224.767 130.786 222.883 132.024C221 133.262 219.532 135.022 218.665 137.08C217.798 139.139 217.571 141.404 218.013 143.59C218.455 145.776 219.546 147.783 221.148 149.359C222.75 150.935 224.791 152.008 227.012 152.442C229.234 152.877 231.537 152.654 233.63 151.801C235.723 150.948 237.512 149.504 238.771 147.652C240.029 145.799 240.701 143.62 240.701 141.392C240.701 138.404 239.494 135.538 237.346 133.425C235.198 131.312 232.285 130.125 229.247 130.125Z" fill="#272C37"/>
<path d="M237.768 133.86C235.59 131.915 232.734 130.87 229.794 130.94C226.853 131.01 224.052 132.191 221.972 134.237C219.892 136.283 218.692 139.038 218.621 141.93C218.549 144.823 219.612 147.632 221.589 149.775C220.44 148.75 219.516 147.506 218.87 146.118C218.225 144.731 217.873 143.229 217.835 141.704C217.798 140.179 218.075 138.662 218.652 137.246C219.228 135.829 220.09 134.543 221.187 133.464C222.283 132.385 223.591 131.537 225.031 130.97C226.471 130.404 228.013 130.13 229.564 130.167C231.114 130.204 232.641 130.551 234.051 131.185C235.462 131.82 236.726 132.73 237.768 133.86Z" fill="#808080"/>
<path d="M229.247 130.177C232.145 130.173 234.934 131.258 237.046 133.21C234.83 131.565 232.085 130.763 229.315 130.953C226.546 131.142 223.94 132.31 221.977 134.241C220.014 136.171 218.827 138.735 218.635 141.459C218.442 144.183 219.257 146.884 220.929 149.063C219.406 147.468 218.391 145.469 218.009 143.313C217.627 141.158 217.895 138.939 218.779 136.931C219.663 134.923 221.126 133.214 222.986 132.014C224.846 130.813 227.023 130.175 229.247 130.177ZM229.247 130.125C226.93 130.125 224.666 130.816 222.757 132.108C220.847 133.4 219.381 135.231 218.551 137.36C217.722 139.489 217.569 141.815 218.112 144.032C218.655 146.248 219.869 148.25 221.593 149.774C219.616 147.631 218.553 144.822 218.625 141.929C218.696 139.037 219.896 136.282 221.976 134.236C224.056 132.19 226.857 131.009 229.798 130.939C232.738 130.869 235.594 131.914 237.772 133.859C236.699 132.681 235.385 131.74 233.917 131.095C232.449 130.451 230.859 130.119 229.251 130.121L229.247 130.125Z" fill="#272C37"/>
<path d="M231.44 142.142L232.733 140.426L230.739 137.898H226.508V146.724H231.293L233.137 144.064L231.44 142.142ZM230.023 139.286L230.85 140.446L230.269 140.952L229.115 139.286H230.023ZM227.763 140.119H228.098L229.113 141.687H227.763V140.119ZM227.763 145.432C227.704 145.432 227.763 143.538 227.763 143.538H228.089L229.292 145.432C229.292 145.432 227.822 145.432 227.763 145.432ZM230.684 144.935L229.361 142.968H230.427L231.324 144.272L230.684 144.935Z" fill="#272C37"/>
</g>
</g>
<defs>
<clipPath id="clip0_3120_2884">
<rect width="337" height="310" fill="white"/>
</clipPath>
<clipPath id="clip1_3120_2884">
<rect width="85.0787" height="143.416" fill="white" transform="translate(128.172 83.8438)"/>
</clipPath>
<clipPath id="clip2_3120_2884">
<rect width="36.4623" height="60.6762" fill="white" transform="translate(79.5547 135.695)"/>
</clipPath>
<clipPath id="clip3_3120_2884">
<rect width="36.4623" height="60.6762" fill="white" transform="translate(213.25 126.867)"/>
</clipPath>
</defs>
</svg>
