<svg width="1919" height="2170" viewBox="0 0 1919 2170" fill="none" xmlns="http://www.w3.org/2000/svg">
<g opacity="0.35" clip-path="url(#clip0_3334_3145)">
<path d="M1296.93 504.347H1274.57V574.41H1268.51V504.347H1246.15V246.753H1268.51V185.305H1274.57V246.753H1296.93V504.347Z" fill="#EAEAEA"/>
<path d="M1919 601.978H1896.65V672.03H1890.59V601.978H1868.23V344.374H1890.59V182.621H1896.65V344.374H1919V601.978Z" fill="#DADADA"/>
<path d="M1652.4 537.245H1630.04V607.297H1623.98V537.245H1601.62V279.652H1623.98V218.203H1630.04V279.652H1652.4V537.245Z" fill="#EAEAEA"/>
<path d="M919.104 544.76H913.041V513.963H890.68V347.736H913.041V293.055H919.104V347.736H941.454V513.963H919.104V544.76Z" fill="#EAEAEA"/>
<path d="M1807.78 784.998H1801.72V754.202H1779.36V587.975H1801.72V533.293H1807.78V587.975H1830.13V754.202H1807.78V784.998Z" fill="#EAEAEA"/>
<path d="M1007.97 612.762H1001.91V570.023H979.547V403.796H1001.91V324.094H1007.97V403.796H1030.32V570.023H1007.97V612.762Z" fill="#DADADA"/>
<path d="M1096.84 516.667H1090.78V458.167H1068.41V346.199H1090.78V308.836H1096.84V346.199H1119.2V458.167H1096.84V516.667Z" fill="#EAEAEA"/>
<path d="M1452.3 422.542H1446.24V364.042H1423.89V252.074H1446.24V214.711H1452.3V252.074H1474.67V364.042H1452.3V422.542Z" fill="#EAEAEA"/>
<path d="M1185.71 620.575H1179.64V549.154H1157.28V428.794H1179.64V347.801H1185.71V428.794H1208.07V549.154H1185.71V620.575Z" fill="#DADADA"/>
<path d="M1363.44 613.231H1357.37V541.798H1335.01V421.438H1357.37V340.445H1363.44V421.438H1385.8V541.798H1363.44V613.231Z" fill="#DADADA"/>
<path d="M830.237 643.803H824.163V613.006H801.812V446.779H824.163V392.098H830.237V446.779H852.587V613.006H830.237V643.803Z" fill="#DADADA"/>
<path d="M1718.92 631.26H1712.85V600.474H1690.49V434.236H1712.85V379.555H1718.92V434.236H1741.27V600.474H1718.92V631.26Z" fill="#DADADA"/>
<path d="M297.026 514.952H290.963V484.166H268.602V275.378H290.963V263.258H297.026V275.378H319.387V484.166H297.026V514.952Z" fill="#DADADA"/>
<path d="M741.37 543.212H735.296V500.472H712.945V397.72H735.296V254.555H741.37V397.72H763.72V500.472H741.37V543.212Z" fill="#EAEAEA"/>
<path d="M24.3613 183.367H30.4245V226.095H52.7747V328.859H30.4245V472.024H24.3613V328.859H2V226.095H24.3613V183.367Z" fill="#EAEAEA"/>
<path d="M652.492 613.653H646.428V595.11H624.078V403.229H646.428V379.266H652.492V403.229H674.853V595.11H652.492V613.653Z" fill="#DADADA"/>
<path d="M119.292 303.973H113.229V285.43H90.8672V93.5489H113.229V69.5859H119.292V93.5489H141.653V285.43H119.292V303.973Z" fill="#DADADA"/>
<path d="M563.624 717.564H557.561V646.132H535.211V525.783H557.561V185.305H563.624V525.783H585.986V646.132H563.624V717.564Z" fill="#EAEAEA"/>
<path d="M474.76 389.738H468.697V319.686H446.336V25.1411H468.697V0.632812H474.76V25.1411H497.122V319.686H474.76V389.738Z" fill="#DADADA"/>
<path d="M1535.11 0H1541.17V70.0523H1563.53V364.586H1541.17V389.105H1535.11V364.586H1512.76V70.0523H1535.11V0Z" fill="#DADADA"/>
<path d="M385.893 423.108H379.83V392.323H357.469V226.096H379.83V171.414H385.893V226.096H408.255V392.323H385.893V423.108Z" fill="#EAEAEA"/>
<path d="M208.159 414.705H202.096V383.909H179.734V217.682H202.096V163H208.159V217.682H230.52V383.909H208.159V414.705Z" fill="#EAEAEA"/>
</g>
<g opacity="0.35" clip-path="url(#clip1_3334_3145)">
<path d="M1294.93 1253.35H1272.57V1323.41H1266.51V1253.35H1244.15V995.753H1266.51V934.305H1272.57V995.753H1294.93V1253.35Z" fill="#EAEAEA"/>
<path d="M1917 1350.98H1894.65V1421.03H1888.59V1350.98H1866.23V1093.37H1888.59V931.621H1894.65V1093.37H1917V1350.98Z" fill="#DADADA"/>
<path d="M1650.4 1286.25H1628.04V1356.3H1621.98V1286.25H1599.62V1028.65H1621.98V967.203H1628.04V1028.65H1650.4V1286.25Z" fill="#EAEAEA"/>
<path d="M917.104 1293.76H911.041V1262.96H888.68V1096.74H911.041V1042.05H917.104V1096.74H939.454V1262.96H917.104V1293.76Z" fill="#EAEAEA"/>
<path d="M1805.78 1534H1799.72V1503.2H1777.36V1336.97H1799.72V1282.29H1805.78V1336.97H1828.13V1503.2H1805.78V1534Z" fill="#EAEAEA"/>
<path d="M1005.97 1361.76H999.908V1319.02H977.547V1152.8H999.908V1073.09H1005.97V1152.8H1028.32V1319.02H1005.97V1361.76Z" fill="#DADADA"/>
<path d="M1094.84 1265.67H1088.78V1207.17H1066.41V1095.2H1088.78V1057.84H1094.84V1095.2H1117.2V1207.17H1094.84V1265.67Z" fill="#EAEAEA"/>
<path d="M1450.3 1171.54H1444.24V1113.04H1421.89V1001.07H1444.24V963.711H1450.3V1001.07H1472.67V1113.04H1450.3V1171.54Z" fill="#EAEAEA"/>
<path d="M1183.71 1369.58H1177.64V1298.15H1155.28V1177.79H1177.64V1096.8H1183.71V1177.79H1206.07V1298.15H1183.71V1369.58Z" fill="#DADADA"/>
<path d="M1361.44 1362.23H1355.37V1290.8H1333.01V1170.44H1355.37V1089.45H1361.44V1170.44H1383.8V1290.8H1361.44V1362.23Z" fill="#DADADA"/>
<path d="M828.237 1392.8H822.163V1362.01H799.812V1195.78H822.163V1141.1H828.237V1195.78H850.587V1362.01H828.237V1392.8Z" fill="#DADADA"/>
<path d="M1716.92 1380.26H1710.85V1349.47H1688.49V1183.24H1710.85V1128.55H1716.92V1183.24H1739.27V1349.47H1716.92V1380.26Z" fill="#DADADA"/>
<path d="M295.026 1263.95H288.963V1233.17H266.602V1024.38H288.963V1012.26H295.026V1024.38H317.387V1233.17H295.026V1263.95Z" fill="#DADADA"/>
<path d="M739.37 1292.21H733.296V1249.47H710.945V1146.72H733.296V1003.55H739.37V1146.72H761.72V1249.47H739.37V1292.21Z" fill="#EAEAEA"/>
<path d="M22.3613 932.367H28.4245V975.095H50.7747V1077.86H28.4245V1221.02H22.3613V1077.86H0V975.095H22.3613V932.367Z" fill="#EAEAEA"/>
<path d="M650.492 1362.65H644.428V1344.11H622.078V1152.23H644.428V1128.27H650.492V1152.23H672.853V1344.11H650.492V1362.65Z" fill="#DADADA"/>
<path d="M117.292 1052.97H111.229V1034.43H88.8672V842.549H111.229V818.586H117.292V842.549H139.653V1034.43H117.292V1052.97Z" fill="#DADADA"/>
<path d="M561.624 1466.56H555.561V1395.13H533.211V1274.78H555.561V934.305H561.624V1274.78H583.986V1395.13H561.624V1466.56Z" fill="#EAEAEA"/>
<path d="M472.76 1138.74H466.697V1068.69H444.336V774.141H466.697V749.633H472.76V774.141H495.122V1068.69H472.76V1138.74Z" fill="#DADADA"/>
<path d="M1533.11 749H1539.17V819.052H1561.53V1113.59H1539.17V1138.11H1533.11V1113.59H1510.76V819.052H1533.11V749Z" fill="#DADADA"/>
<path d="M383.893 1172.11H377.83V1141.32H355.469V975.096H377.83V920.414H383.893V975.096H406.255V1141.32H383.893V1172.11Z" fill="#EAEAEA"/>
<path d="M206.159 1163.71H200.096V1132.91H177.734V966.682H200.096V912H206.159V966.682H228.52V1132.91H206.159V1163.71Z" fill="#EAEAEA"/>
</g>
<g opacity="0.35" clip-path="url(#clip2_3334_3145)">
<path d="M1294.93 1889.35H1272.57V1959.41H1266.51V1889.35H1244.15V1631.75H1266.51V1570.3H1272.57V1631.75H1294.93V1889.35Z" fill="#EAEAEA"/>
<path d="M1917 1986.98H1894.65V2057.03H1888.59V1986.98H1866.23V1729.37H1888.59V1567.62H1894.65V1729.37H1917V1986.98Z" fill="#DADADA"/>
<path d="M1650.4 1922.25H1628.04V1992.3H1621.98V1922.25H1599.62V1664.65H1621.98V1603.2H1628.04V1664.65H1650.4V1922.25Z" fill="#EAEAEA"/>
<path d="M917.104 1929.76H911.041V1898.96H888.68V1732.74H911.041V1678.05H917.104V1732.74H939.454V1898.96H917.104V1929.76Z" fill="#EAEAEA"/>
<path d="M1805.78 2170H1799.72V2139.2H1777.36V1972.97H1799.72V1918.29H1805.78V1972.97H1828.13V2139.2H1805.78V2170Z" fill="#EAEAEA"/>
<path d="M1005.97 1997.76H999.908V1955.02H977.547V1788.8H999.908V1709.09H1005.97V1788.8H1028.32V1955.02H1005.97V1997.76Z" fill="#DADADA"/>
<path d="M1094.84 1901.67H1088.78V1843.17H1066.41V1731.2H1088.78V1693.84H1094.84V1731.2H1117.2V1843.17H1094.84V1901.67Z" fill="#EAEAEA"/>
<path d="M1450.3 1807.54H1444.24V1749.04H1421.89V1637.07H1444.24V1599.71H1450.3V1637.07H1472.67V1749.04H1450.3V1807.54Z" fill="#EAEAEA"/>
<path d="M1183.71 2005.58H1177.64V1934.15H1155.28V1813.79H1177.64V1732.8H1183.71V1813.79H1206.07V1934.15H1183.71V2005.58Z" fill="#DADADA"/>
<path d="M1361.44 1998.23H1355.37V1926.8H1333.01V1806.44H1355.37V1725.45H1361.44V1806.44H1383.8V1926.8H1361.44V1998.23Z" fill="#DADADA"/>
<path d="M828.237 2028.8H822.163V1998.01H799.812V1831.78H822.163V1777.1H828.237V1831.78H850.587V1998.01H828.237V2028.8Z" fill="#DADADA"/>
<path d="M1716.92 2016.26H1710.85V1985.47H1688.49V1819.24H1710.85V1764.55H1716.92V1819.24H1739.27V1985.47H1716.92V2016.26Z" fill="#DADADA"/>
<path d="M295.026 1899.95H288.963V1869.17H266.602V1660.38H288.963V1648.26H295.026V1660.38H317.387V1869.17H295.026V1899.95Z" fill="#DADADA"/>
<path d="M739.37 1928.21H733.296V1885.47H710.945V1782.72H733.296V1639.55H739.37V1782.72H761.72V1885.47H739.37V1928.21Z" fill="#EAEAEA"/>
<path d="M22.3613 1568.37H28.4245V1611.1H50.7747V1713.86H28.4245V1857.02H22.3613V1713.86H0V1611.1H22.3613V1568.37Z" fill="#EAEAEA"/>
<path d="M650.492 1998.65H644.428V1980.11H622.078V1788.23H644.428V1764.27H650.492V1788.23H672.853V1980.11H650.492V1998.65Z" fill="#DADADA"/>
<path d="M117.292 1688.97H111.229V1670.43H88.8672V1478.55H111.229V1454.59H117.292V1478.55H139.653V1670.43H117.292V1688.97Z" fill="#DADADA"/>
<path d="M561.624 2102.56H555.561V2031.13H533.211V1910.78H555.561V1570.3H561.624V1910.78H583.986V2031.13H561.624V2102.56Z" fill="#EAEAEA"/>
<path d="M472.76 1774.74H466.697V1704.69H444.336V1410.14H466.697V1385.63H472.76V1410.14H495.122V1704.69H472.76V1774.74Z" fill="#DADADA"/>
<path d="M1533.11 1385H1539.17V1455.05H1561.53V1749.59H1539.17V1774.11H1533.11V1749.59H1510.76V1455.05H1533.11V1385Z" fill="#DADADA"/>
<path d="M383.893 1808.11H377.83V1777.32H355.469V1611.1H377.83V1556.41H383.893V1611.1H406.255V1777.32H383.893V1808.11Z" fill="#EAEAEA"/>
<path d="M206.159 1799.71H200.096V1768.91H177.734V1602.68H200.096V1548H206.159V1602.68H228.52V1768.91H206.159V1799.71Z" fill="#EAEAEA"/>
</g>
<defs>
<clipPath id="clip0_3334_3145">
<rect width="1917" height="785" fill="white" transform="translate(2)"/>
</clipPath>
<clipPath id="clip1_3334_3145">
<rect width="1917" height="785" fill="white" transform="translate(0 749)"/>
</clipPath>
<clipPath id="clip2_3334_3145">
<rect width="1917" height="785" fill="white" transform="translate(0 1385)"/>
</clipPath>
</defs>
</svg>
