<svg width="76" height="76" viewBox="0 0 76 76" fill="none" xmlns="http://www.w3.org/2000/svg">
<g clip-path="url(#clip0_4927_13989)">
<mask id="mask0_4927_13989" style="mask-type:luminance" maskUnits="userSpaceOnUse" x="0" y="0" width="76" height="76">
<path d="M76 0H0V76H76V0Z" fill="white"/>
</mask>
<g mask="url(#mask0_4927_13989)">
<path d="M67.6388 61.1793L47.8788 72.1993L16.7188 54.6965L37.6188 43.3193L67.6388 61.1793Z" fill="#CDCDCD"/>
<path d="M16.9258 7.14958C18.9105 5.99953 22.1497 4.06737 23.3163 5.19047L51.8858 69.5362C51.51 70.9985 46.6228 72.4608 45.8711 72.0953L16.9258 7.14958Z" fill="black"/>
<path d="M52.2148 68.7462V23.9334C52.2148 22.7696 51.3991 21.3522 50.3928 20.7676L23.4558 5.11773C22.4495 4.53308 21.6338 5.00259 21.6338 6.16641V50.9791C21.6338 52.1429 22.4495 53.5603 23.4558 54.145L50.3928 69.7948C51.3991 70.3795 52.2148 69.91 52.2148 68.7462Z" fill="black" stroke="black"/>
<path d="M47.4492 70.6939V26.037C47.4492 24.8731 46.6334 23.4557 45.6271 22.8711L18.6902 7.22124C17.6839 6.6366 16.8681 7.10611 16.8681 8.26992V52.9268C16.8681 54.0906 17.6839 55.5081 18.6902 56.0927L45.6271 71.7425C46.6334 72.3272 47.4492 71.8577 47.4492 70.6939Z" fill="white" stroke="black"/>
<path d="M44.4102 43.3569V38.6415C44.4102 37.4776 43.5944 36.0602 42.5881 35.4756L21.7312 23.3581C20.7249 22.7735 19.9091 23.243 19.9091 24.4068V29.1222C19.9091 30.2861 20.7249 31.7035 21.7312 32.2881L42.5881 44.4055C43.5944 44.9902 44.4102 44.5207 44.4102 43.3569Z" fill="white" stroke="black"/>
<path d="M37.3711 55.3508V55.3507C37.3711 54.2482 36.5983 52.9055 35.645 52.3517L26.1956 46.8617C25.2423 46.3079 24.4695 46.7526 24.4695 47.8551V47.8552C24.4695 48.9577 25.2423 50.3004 26.1956 50.8542L35.645 56.3442C36.5983 56.898 37.3711 56.4533 37.3711 55.3508Z" fill="black" stroke="black"/>
<path d="M24.0427 28.3805L25.2088 28.113L25.7474 29.5235L24.4464 29.4688L25.7361 30.8975L25.1795 31.6757L24.0289 30.0585L24.1525 31.7669L23.0573 31.1346L23.1864 29.5843L22.0308 29.8578L21.4922 28.4473L22.772 28.5021L21.5034 27.0733L22.06 26.2951L23.2002 27.8941L23.0977 26.21L24.1928 26.8423L24.0427 28.3805Z" fill="black"/>
<path d="M28.8981 31.1832L30.0642 30.9157L30.6029 32.3263L29.3019 32.2715L30.5916 33.7003L30.035 34.4785L28.8844 32.8612L29.0079 34.5697L27.9127 33.9374L28.0418 32.387L26.8863 32.6606L26.3477 31.25L27.6275 31.3048L26.3589 29.876L26.9155 29.0978L28.0557 30.6968L27.9531 29.0127L29.0483 29.645L28.8981 31.1832Z" fill="black"/>
<path d="M33.7497 33.985L34.9158 33.7175L35.4544 35.1279L34.1534 35.0733L35.4433 36.5021L34.8865 37.2801L33.736 35.663L33.8595 37.3713L32.7643 36.7391L32.8934 35.1887L31.7379 35.4623L31.1992 34.0518L32.4791 34.1065L31.2105 32.6778L31.7671 31.8996L32.9072 33.4986L32.8047 31.8145L33.8999 32.4468L33.7497 33.985Z" fill="black"/>
<path d="M38.6052 36.7877L39.7711 36.5203L40.3097 37.9308L39.0087 37.8759L40.2986 39.3047L39.7421 40.083L38.5914 38.4656L38.7147 40.1742L37.6196 39.5416L37.7488 37.9916L36.5933 38.2652L36.0547 36.8544L37.3343 36.9093L36.0657 35.4805L36.6223 34.7022L37.7626 36.3013L37.66 34.6172L38.7551 35.2494L38.6052 36.7877Z" fill="black"/>
<path d="M60.8628 35.2523C62.4751 34.0564 63.452 31.8355 63.452 28.7871C63.452 22.1095 58.7642 13.9896 52.9809 10.6508C49.7361 8.77732 46.836 8.8073 44.9153 10.3742L44.9077 10.3632L41.4531 12.6662L42.6145 15.042C42.5458 15.5623 42.5099 16.1142 42.5099 16.6962C42.5099 22.9844 46.6671 30.5515 51.9812 34.2008L54.1196 38.5752C56.8317 38.5752 59.5439 36.4462 60.8628 35.2523Z" fill="black"/>
<path d="M49.5285 36.9634C55.2289 40.2545 59.8499 37.5866 59.8499 31.0043C59.8499 24.4221 55.2289 16.4182 49.5285 13.1271C43.8281 9.83594 39.207 12.5039 39.207 19.0862C39.207 25.6684 43.8281 33.6723 49.5285 36.9634Z" fill="#FFA500" stroke="black"/>
<path d="M48.1512 26.1962V31.3786L50.1455 32.5301V27.3477L54.634 29.9389V27.6359L50.1455 25.0446V19.8634L48.1512 18.7119V23.8931L43.6641 21.3026V23.6056L48.1512 26.1962Z" fill="white"/>
</g>
</g>
<defs>
<clipPath id="clip0_4927_13989">
<rect width="76" height="76" fill="white"/>
</clipPath>
</defs>
</svg>
