<svg xmlns="http://www.w3.org/2000/svg" xmlns:xlink="http://www.w3.org/1999/xlink" width="24" height="24" viewBox="0 0 24 24">
  <defs>
    <clipPath id="clip-path">
      <rect id="Rectangle_18850" data-name="Rectangle 18850" width="24" height="24" transform="translate(396 16000)" fill="#fff" opacity="0.3"/>
    </clipPath>
    <clipPath id="clip-path-2">
      <rect id="Rectangle_18806" data-name="Rectangle 18806" width="24" height="24" transform="translate(-9481 -4630)" fill="#fff"/>
    </clipPath>
  </defs>
  <g id="Mask_Group_118" data-name="Mask Group 118" transform="translate(-396 -16000)" clip-path="url(#clip-path)">
    <g id="invite" transform="translate(9877 20630)" clip-path="url(#clip-path-2)">
      <g id="Huge-icon_user_outline_users_02" data-name="Huge-icon/user/outline/users 02" transform="translate(-9480 -4626)">
        <g id="Ellipse_295" data-name="Ellipse 295" transform="translate(4 9)" fill="none" stroke-linejoin="round">
          <path d="M12,3.25a.651.651,0,0,1-.248.439,3.339,3.339,0,0,1-1.048.637A10.666,10.666,0,0,1,6.75,5V6.5a12.139,12.139,0,0,0,4.531-.79A4.8,4.8,0,0,0,12.8,4.757a2.122,2.122,0,0,0,.7-1.507ZM6.75,5A10.666,10.666,0,0,1,2.8,4.325a3.338,3.338,0,0,1-1.048-.637A.651.651,0,0,1,1.5,3.25H0A2.122,2.122,0,0,0,.7,4.757a4.8,4.8,0,0,0,1.524.953A12.139,12.139,0,0,0,6.75,6.5ZM1.5,3.25a.651.651,0,0,1,.248-.439A3.338,3.338,0,0,1,2.8,2.175,10.666,10.666,0,0,1,6.75,1.5V0A12.139,12.139,0,0,0,2.219.79,4.8,4.8,0,0,0,.7,1.743,2.122,2.122,0,0,0,0,3.25ZM6.75,1.5a10.666,10.666,0,0,1,3.954.675,3.339,3.339,0,0,1,1.048.637A.651.651,0,0,1,12,3.25h1.5a2.122,2.122,0,0,0-.7-1.507A4.8,4.8,0,0,0,11.281.79,12.139,12.139,0,0,0,6.75,0Z" stroke="none"/>
          <path d="M 6.75 6.500004768371582 C 5.018869876861572 6.500004768371582 3.416450023651123 6.209054946899414 2.218899965286255 5.710074901580811 C 1.621760010719299 5.461265087127686 1.089550018310547 5.145915031433105 0.695169985294342 4.757414817810059 C 0.2981500029563904 4.366294860839844 -8.881784197001252e-16 3.856445074081421 -8.881784197001252e-16 3.250005006790161 L 1.5 3.250005006790161 C 1.5 3.333914995193481 1.537639975547791 3.481745004653931 1.747849941253662 3.688814878463745 C 1.960700035095215 3.898494958877563 2.307169914245605 4.121864795684814 2.795819997787476 4.325465202331543 C 3.769840002059937 4.731295108795166 5.167419910430908 5.000004768371582 6.75 5.000004768371582 L 6.75 6.500004768371582 Z M 6.75 6.500004768371582 L 6.75 5.000004768371582 C 8.332579612731934 5.000004768371582 9.730159759521484 4.731295108795166 10.70417976379395 4.325465202331543 C 11.19279956817627 4.121864795684814 11.53929996490479 3.898494958877563 11.75220012664795 3.688814878463745 C 11.96240043640137 3.481745004653931 12 3.333914995193481 12 3.250005006790161 L 13.5 3.250005006790161 C 13.5 3.856445074081421 13.20189952850342 4.366294860839844 12.80480003356934 4.757414817810059 C 12.410400390625 5.145925045013428 11.87819957733154 5.461275100708008 11.28110027313232 5.710074901580811 C 10.08355045318604 6.209054946899414 8.48112964630127 6.500004768371582 6.75 6.500004768371582 Z M -8.881784197001252e-16 3.250015020370483 C -8.881784197001252e-16 3.250005006790161 -8.881784197001252e-16 3.250005006790161 -8.881784197001252e-16 3.250005006790161 L -8.881784197001252e-16 3.250015020370483 Z M -8.881784197001252e-16 3.250005006790161 C -8.881784197001252e-16 3.250015020370483 -8.881784197001252e-16 3.250015020370483 -8.881784197001252e-16 3.250015020370483 Z M 13.5 3.250005006790161 L 12 3.250005006790161 C 12 3.166095018386841 11.96240043640137 3.018265008926392 11.75220012664795 2.811184883117676 C 11.53929996490479 2.601505041122437 11.19279956817627 2.378144979476929 10.70417976379395 2.174545049667358 C 9.730159759521484 1.768705010414124 8.332579612731934 1.500005006790161 6.75 1.500005006790161 L 6.75 -5.006790161132812e-06 C 8.48112964630127 -5.006790161132812e-06 10.08355045318604 0.2909449934959412 11.28110027313232 0.7899249792098999 C 11.87819957733154 1.038725018501282 12.410400390625 1.354084968566895 12.80480003356934 1.742594957351685 C 13.20189952850342 2.133704900741577 13.5 2.643554925918579 13.5 3.250005006790161 Z M 1.5 3.250005006790161 L -8.881784197001252e-16 3.250005006790161 C -8.881784197001252e-16 2.643564939498901 0.2981399893760681 2.133714914321899 0.695169985294342 1.742604970932007 C 1.089560031890869 1.354094982147217 1.621760010719299 1.038745045661926 2.218899965286255 0.7899349927902222 C 3.416450023651123 0.2909550070762634 5.018869876861572 4.99321004099329e-06 6.75 4.99321004099329e-06 L 6.75 1.500005006790161 C 5.167419910430908 1.500005006790161 3.769840002059937 1.768705010414124 2.795819997787476 2.174545049667358 C 2.307169914245605 2.378144979476929 1.960700035095215 2.601505041122437 1.747849941253662 2.811184883117676 C 1.537639975547791 3.018265008926392 1.5 3.166095018386841 1.5 3.250005006790161 Z" stroke="none" fill="#787d96"/>
        </g>
        <g id="Ellipse_296" data-name="Ellipse 296" transform="translate(7)" fill="none" stroke-linejoin="round">
          <path d="M6,3.75A2.25,2.25,0,0,1,3.75,6V7.5A3.75,3.75,0,0,0,7.5,3.75ZM3.75,6A2.25,2.25,0,0,1,1.5,3.75H0A3.75,3.75,0,0,0,3.75,7.5ZM1.5,3.75A2.25,2.25,0,0,1,3.75,1.5V0A3.75,3.75,0,0,0,0,3.75ZM3.75,1.5A2.25,2.25,0,0,1,6,3.75H7.5A3.75,3.75,0,0,0,3.75,0Z" stroke="none"/>
          <path d="M 3.75 0 C 5.821069717407227 0 7.5 1.678929805755615 7.5 3.75 L 6 3.75 C 6 2.507359981536865 4.992640018463135 1.5 3.75 1.5 L 3.75 0 Z M 3.75 0 L 3.75 1.5 C 2.507359981536865 1.5 1.5 2.507359981536865 1.5 3.75 L 0 3.75 C 0 1.678929805755615 1.678929805755615 0 3.75 0 Z M 0 3.75 L 1.5 3.75 C 1.5 4.992640018463135 2.507359981536865 6 3.75 6 L 3.75 7.5 C 1.678929805755615 7.5 0 5.821069717407227 0 3.75 Z M 6 3.75 L 7.5 3.75 C 7.5 5.821069717407227 5.821069717407227 7.5 3.75 7.5 L 3.75 6 C 4.992640018463135 6 6 4.992640018463135 6 3.75 Z" stroke="none" fill="#787d96"/>
        </g>
        <g id="Subtract" transform="translate(0 9.011)" fill="#28303f">
          <path d="M 2.528291463851929 4.531478881835938 C 2.387244939804077 4.485732555389404 2.251547336578369 4.436814785003662 2.121612548828125 4.384841918945312 C 1.633032560348511 4.189402103424072 1.245952486991882 3.958522081375122 0.9711525440216064 3.698632001876831 C 0.6585125327110291 3.402992010116577 0.5000025629997253 3.079962015151978 0.5000025629997253 2.738522052764893 C 0.5000025629997253 2.397082090377808 0.6585225462913513 2.074042081832886 0.9711425304412842 1.77839207649231 C 1.245962500572205 1.518492102622986 1.633032560348511 1.287622094154358 2.121622562408447 1.092192053794861 C 2.49453592300415 0.9430195689201355 2.92033576965332 0.8184651136398315 3.380796670913696 0.7220198512077332 C 3.177109718322754 0.9298523664474487 2.998975515365601 1.146475076675415 2.848687887191772 1.369826912879944 C 2.656905174255371 1.42664110660553 2.475462675094604 1.489162087440491 2.307312488555908 1.556422114372253 C 1.883552551269531 1.725932121276855 1.540322542190552 1.928302049636841 1.314712524414062 2.141662120819092 C 1.105442523956299 2.339552164077759 0.9995625615119934 2.540712118148804 1.000002503395081 2.739542007446289 C 0.9995625615119934 2.936321973800659 1.105442523956299 3.137482166290283 1.314712524414062 3.335381984710693 C 1.540322542190552 3.548732042312622 1.883552551269531 3.751101970672607 2.307312488555908 3.920612096786499 C 2.314137935638428 3.92334246635437 2.320996284484863 3.926068305969238 2.327876567840576 3.928786993026733 C 2.374289751052856 4.133289813995361 2.441181421279907 4.334371566772461 2.528291463851929 4.531478881835938 Z" stroke="none"/>
          <path d="M 5.195462703704834 1.9073486328125e-06 C 4.284462451934814 0.4944920539855957 3.581562519073486 1.109482288360596 3.1678626537323 1.799342155456543 C 2.922002553939819 1.865102052688599 2.695962429046631 1.939481973648071 2.493012428283691 2.020662069320679 C 2.092892646789551 2.180711984634399 1.819432497024536 2.352522134780884 1.658262491226196 2.504942178726196 C 1.499802589416504 2.654792070388794 1.499992609024048 2.733922004699707 1.50000262260437 2.738432168960571 L 1.50000262260437 2.738602161407471 C 1.499992609024048 2.743112087249756 1.499802589416504 2.822242021560669 1.658262491226196 2.972092151641846 C 1.819432497024536 3.124512195587158 2.092892646789551 3.296322107315063 2.493012428283691 3.456372261047363 C 2.581032514572144 3.491581916809082 2.673412561416626 3.525512218475342 2.769842624664307 3.558022022247314 C 2.848512649536133 4.188841819763184 3.158332586288452 4.783802032470703 3.651962518692017 5.316282272338867 C 3.017002582550049 5.207231998443604 2.435712575912476 5.048992156982422 1.935922622680664 4.849081993103027 C 1.431222438812256 4.647192001342773 0.9724526405334473 4.388051986694336 0.6275925636291504 4.061912059783936 C 0.2811527252197266 3.734292030334473 2.384185791015625e-06 3.287332057952881 2.384185791015625e-06 2.738522052764893 C 2.384185791015625e-06 2.189702033996582 0.2811527252197266 1.74274206161499 0.6275925636291504 1.415112018585205 C 0.9724526405334473 1.088972091674805 1.431222438812256 0.8298320770263672 1.935922622680664 0.6279520988464355 C 2.819122552871704 0.2746620178222656 3.956882476806641 0.05155229568481445 5.195462703704834 1.9073486328125e-06 Z" stroke="none" fill="#787d96"/>
        </g>
        <g id="Subtract-2" data-name="Subtract" transform="translate(16.305 9.011)" fill="#28303f">
          <path d="M 2.667166233062744 4.531481742858887 C 2.754275798797607 4.334373950958252 2.821165323257446 4.13329553604126 2.867578744888306 3.928790330886841 C 2.874465703964233 3.926069259643555 2.881319284439087 3.923345327377319 2.888152599334717 3.920612096786499 C 3.311932563781738 3.751092195510864 3.655162572860718 3.5487220287323 3.880762577056885 3.335371971130371 C 4.089602470397949 3.137852191925049 4.195482730865479 2.937072038650513 4.195472717285156 2.738592147827148 C 4.195482730865479 2.53996205329895 4.089602470397949 2.339182138442993 3.880782604217529 2.141682147979736 C 3.655162572860718 1.928312063217163 3.311932563781738 1.725942134857178 2.888162612915039 1.556422114372253 C 2.719989776611328 1.489162087440491 2.538544893264771 1.4266437292099 2.346766710281372 1.369829535484314 C 2.196483850479126 1.146477699279785 2.018349647521973 0.9298534989356995 1.814664602279663 0.7220206260681152 C 2.275125980377197 0.8184658288955688 2.700924634933472 0.9430195689201355 3.073842525482178 1.092192053794861 C 3.562422513961792 1.287622094154358 3.949492454528809 1.518492102622986 4.224302768707275 1.77839207649231 C 4.536942481994629 2.074052095413208 4.695462703704834 2.397082090377808 4.695462703704834 2.738522052764893 C 4.695462703704834 3.079952001571655 4.536942481994629 3.402981996536255 4.224312782287598 3.698632001876831 C 3.949492454528809 3.958532094955444 3.562422513961792 4.189402103424072 3.073842525482178 4.384841918945312 C 2.943884611129761 4.436826229095459 2.8082435131073 4.485726833343506 2.667166233062744 4.531481742858887 Z" stroke="none"/>
          <path d="M 1.543502569198608 5.316282272338867 C 2.037132501602173 4.783802032470703 2.34694242477417 4.188842296600342 2.425612449645996 3.558022022247314 C 2.522062540054321 3.525511980056763 2.614432573318481 3.491582155227661 2.702462434768677 3.456372022628784 C 3.102572441101074 3.296322107315063 3.376042604446411 3.124512195587158 3.537212610244751 2.972092151641846 C 3.695652484893799 2.822242021560669 3.695472478866577 2.743112087249756 3.695472478866577 2.738602161407471 L 3.695472478866577 2.738432168960571 C 3.695472478866577 2.733922004699707 3.695652484893799 2.654792070388794 3.537212610244751 2.504942178726196 C 3.376042604446411 2.352522134780884 3.102572441101074 2.180711984634399 2.702462434768677 2.020662069320679 C 2.499502658843994 1.939482092857361 2.273462533950806 1.865102052688599 2.027592658996582 1.799342036247253 C 1.613902568817139 1.109482049942017 0.9109925627708435 0.4944920837879181 2.543945356592303e-06 2.089843746944098e-06 C 1.238572597503662 0.05155209079384804 2.376332521438599 0.2746620774269104 3.259542465209961 0.6279520988464355 C 3.764242649078369 0.8298320770263672 4.223002433776855 1.088972091674805 4.567862510681152 1.415112137794495 C 4.914302349090576 1.74274206161499 5.195462703704834 2.189702033996582 5.195462703704834 2.738522052764893 C 5.195462703704834 3.287332057952881 4.914302349090576 3.734292030334473 4.567862510681152 4.061912059783936 C 4.223002433776855 4.388051986694336 3.764242649078369 4.647192001342773 3.259542465209961 4.849081993103027 C 2.759752511978149 5.048992156982422 2.178452491760254 5.207231998443604 1.543502569198608 5.316282272338867 Z" stroke="none" fill="#787d96"/>
        </g>
        <g id="Subtract-3" data-name="Subtract" transform="translate(14.413 2)" fill="#28303f">
          <path d="M 1.337219595909119 5 C 1.161931753158569 5 0.9877324104309082 4.979527473449707 0.818476676940918 4.939582824707031 C 0.9229713082313538 4.793026924133301 1.020174145698547 4.641488075256348 1.1097811460495 4.485399723052979 C 1.184742331504822 4.495119571685791 1.260615229606628 4.5 1.337219595909119 4.5 C 2.302169561386108 4.5 3.087219715118408 3.714950084686279 3.087219715118408 2.75 C 3.087219715118408 1.943126559257507 2.538374185562134 1.262056112289429 1.794366598129272 1.060560584068298 C 1.771989583969116 0.8817921876907349 1.740905165672302 0.7046232223510742 1.701189517974854 0.529420018196106 C 2.769393444061279 0.7038832902908325 3.587219715118408 1.633233308792114 3.587219715118408 2.75 C 3.587219715118408 3.990649938583374 2.577869653701782 5 1.337219595909119 5 Z" stroke="none"/>
          <path d="M 1.337219595909119 5.5 C 0.8518396019935608 5.5 0.3958396315574646 5.374249935150146 -3.80859376036824e-07 5.153560161590576 C 0.3434696197509766 4.784090042114258 0.6317196488380432 4.362589836120605 0.8516096472740173 3.902169942855835 C 1.000909566879272 3.965169906616211 1.164999604225159 4 1.337219595909119 4 C 2.027579545974731 4 2.587219715118408 3.440360069274902 2.587219715118408 2.75 C 2.587219715118408 2.059639930725098 2.027579545974731 1.5 1.337219595909119 1.5 C 1.335169672966003 1.5 1.333119630813599 1.5 1.331079602241516 1.500010013580322 C 1.305519580841064 0.9809600114822388 1.200809597969055 0.4827199876308441 1.028769612312317 0.01710999943315983 C 1.130029678344727 0.005799999926239252 1.232949614524841 -4.440892098500626e-16 1.337219595909119 -4.440892098500626e-16 C 2.855999708175659 -4.440892098500626e-16 4.087219715118408 1.231220006942749 4.087219715118408 2.75 C 4.087219715118408 4.26878023147583 2.855999708175659 5.5 1.337219595909119 5.5 Z" stroke="none" fill="#787d96"/>
        </g>
        <g id="Subtract-4" data-name="Subtract" transform="translate(3 2)" fill="#28303f">
          <path d="M 2.750009536743164 5 C 1.509349584579468 5 0.499999612569809 3.990649938583374 0.499999612569809 2.75 C 0.499999612569809 1.633233308792114 1.31782865524292 0.7038828730583191 2.386039733886719 0.5294195413589478 C 2.34632420539856 0.7046228051185608 2.315239667892456 0.8817910552024841 2.292862892150879 1.060559391975403 C 1.54884922504425 1.262055039405823 0.9999996423721313 1.943126559257507 0.9999996423721313 2.75 C 0.9999996423721313 3.714950084686279 1.785049676895142 4.5 2.750009536743164 4.5 C 2.826602935791016 4.5 2.902491331100464 4.495117664337158 2.977438926696777 4.485401153564453 C 3.067045927047729 4.641489505767822 3.164248704910278 4.793027877807617 3.268743276596069 4.939583778381348 C 3.09948992729187 4.979528903961182 2.925297498703003 5 2.750009536743164 5 Z" stroke="none"/>
          <path d="M 2.750009536743164 0 C 2.854279518127441 0 2.957199573516846 0.005799770355224609 3.058459758758545 0.01709985733032227 C 2.886419773101807 0.482719898223877 2.781709671020508 0.9809598922729492 2.756149768829346 1.500010013580322 C 2.063704252243042 1.496617794036865 1.499999523162842 2.057590007781982 1.499999523162842 2.75 C 1.499999523162842 3.440360069274902 2.059649705886841 4 2.750009536743164 4 C 2.922229766845703 4 3.086319446563721 3.965169906616211 3.235609531402588 3.902169942855835 C 3.455499649047852 4.362589836120605 3.743749618530273 4.784090042114258 4.087219715118408 5.153560161590576 C 3.691389560699463 5.374249935150146 3.235379695892334 5.5 2.750009536743164 5.5 C 1.231219530105591 5.5 -4.76837158203125e-07 4.268779754638672 -4.76837158203125e-07 2.75 C -4.76837158203125e-07 1.23121976852417 1.231219530105591 0 2.750009536743164 0 Z" stroke="none" fill="#787d96"/>
        </g>
      </g>
    </g>
  </g>
</svg>
