<svg width="20" height="20" viewBox="0 0 20 20" fill="none" xmlns="http://www.w3.org/2000/svg">
<path d="M7.49948 1.66602C5.31615 1.66602 3.54115 3.44102 3.54115 5.62435C3.54115 7.76602 5.21615 9.49935 7.39948 9.57435C7.46615 9.56602 7.53281 9.56602 7.58281 9.57435H7.64115C8.66561 9.54017 9.63663 9.10891 10.3489 8.37177C11.0611 7.63463 11.4588 6.64938 11.4578 5.62435C11.4578 3.44102 9.68281 1.66602 7.49948 1.66602ZM11.7328 11.7902C9.40781 10.2402 5.61615 10.2402 3.27448 11.7902C2.21615 12.4985 1.63281 13.4568 1.63281 14.4818C1.63281 15.5068 2.21615 16.4569 3.26615 17.1569C4.43281 17.9402 5.96615 18.3319 7.49948 18.3319C9.03281 18.3319 10.5661 17.9402 11.7328 17.1569C12.7828 16.4485 13.3661 15.4985 13.3661 14.4652C13.3578 13.4402 12.7828 12.4902 11.7328 11.7902V11.7902ZM16.6578 6.11435C16.7911 7.73102 15.6411 9.14768 14.0495 9.33935H14.0078C13.9578 9.33935 13.9078 9.33935 13.8661 9.35602C13.0578 9.39768 12.3161 9.13935 11.7578 8.66435C12.6161 7.89768 13.1078 6.74768 13.0078 5.49768C12.9506 4.84769 12.7299 4.22273 12.3661 3.68102C12.8028 3.46858 13.2846 3.36557 13.7699 3.38087C14.2553 3.39616 14.7296 3.5293 15.152 3.76881C15.5745 4.00831 15.9323 4.34699 16.1946 4.75562C16.4569 5.16425 16.6159 5.63057 16.6578 6.11435V6.11435Z" fill="#71839B"/>
<path d="M18.3229 13.8247C18.2563 14.633 17.7396 15.333 16.8729 15.808C16.0396 16.2663 14.9896 16.483 13.9479 16.458C14.5479 15.9163 14.8979 15.2413 14.9646 14.5247C15.0479 13.4913 14.5563 12.4997 13.5729 11.708C13.0146 11.2663 12.3646 10.9163 11.6562 10.658C13.4979 10.1247 15.8146 10.483 17.2396 11.633C18.0062 12.2497 18.3979 13.0247 18.3229 13.8247V13.8247Z" fill="#71839B"/>
</svg>
