<svg width="58" height="61" viewBox="0 0 58 61" fill="none" xmlns="http://www.w3.org/2000/svg">
<path d="M0 0.499756H47.5C53.0228 0.499756 57.5 4.97691 57.5 10.4998V61L51 54.0286L0 0.499756Z" fill="#F7F7F7"/>
<path opacity="0.4" d="M32.668 14.125C32.3263 14.125 32.043 13.8416 32.043 13.5V11.4166C32.043 8.99996 34.0096 7.04163 36.418 7.04163H38.5013C38.843 7.04163 39.1263 7.32496 39.1263 7.66663C39.1263 8.00829 38.843 8.29163 38.5013 8.29163H36.418C34.693 8.29163 33.293 9.69163 33.293 11.4166V13.5C33.293 13.8416 33.0096 14.125 32.668 14.125Z" fill="#292D32"/>
<path d="M49.3333 14.125C48.9917 14.125 48.7083 13.8416 48.7083 13.5V11.4166C48.7083 9.69163 47.3083 8.29163 45.5833 8.29163H43.5C43.1583 8.29163 42.875 8.00829 42.875 7.66663C42.875 7.32496 43.1583 7.04163 43.5 7.04163H45.5833C47.9917 7.04163 49.9583 8.99996 49.9583 11.4166V13.5C49.9583 13.8416 49.675 14.125 49.3333 14.125Z" fill="#292D32"/>
<path opacity="0.4" d="M45.582 24.9584H44.332C43.9904 24.9584 43.707 24.675 43.707 24.3334C43.707 23.9917 43.9904 23.7084 44.332 23.7084H45.582C47.307 23.7084 48.707 22.3084 48.707 20.5834V19.3334C48.707 18.9917 48.9904 18.7084 49.332 18.7084C49.6737 18.7084 49.957 18.9917 49.957 19.3334V20.5834C49.957 23 47.9904 24.9584 45.582 24.9584Z" fill="#292D32"/>
<path d="M38.5013 24.9583H36.418C34.0096 24.9583 32.043 23 32.043 20.5833V18.5C32.043 18.1583 32.3263 17.875 32.668 17.875C33.0096 17.875 33.293 18.1583 33.293 18.5V20.5833C33.293 22.3083 34.693 23.7083 36.418 23.7083H38.5013C38.843 23.7083 39.1263 23.9917 39.1263 24.3333C39.1263 24.675 38.843 24.9583 38.5013 24.9583Z" fill="#292D32"/>
<path d="M38.5 10.375H36.8333C35.8833 10.375 35.375 10.875 35.375 11.8333V13.5C35.375 14.4583 35.8833 14.9583 36.8333 14.9583H38.5C39.45 14.9583 39.9583 14.4583 39.9583 13.5V11.8333C39.9583 10.875 39.45 10.375 38.5 10.375Z" fill="#292D32"/>
<path opacity="0.4" d="M45.168 10.375H43.5013C42.5513 10.375 42.043 10.875 42.043 11.8333V13.5C42.043 14.4583 42.5513 14.9583 43.5013 14.9583H45.168C46.118 14.9583 46.6263 14.4583 46.6263 13.5V11.8333C46.6263 10.875 46.118 10.375 45.168 10.375Z" fill="#292D32"/>
<path opacity="0.4" d="M38.5 17.0416H36.8333C35.8833 17.0416 35.375 17.5416 35.375 18.5V20.1666C35.375 21.125 35.8833 21.625 36.8333 21.625H38.5C39.45 21.625 39.9583 21.125 39.9583 20.1666V18.5C39.9583 17.5416 39.45 17.0416 38.5 17.0416Z" fill="#292D32"/>
<path d="M45.168 17.0416H43.5013C42.5513 17.0416 42.043 17.5416 42.043 18.5V20.1666C42.043 21.125 42.5513 21.625 43.5013 21.625H45.168C46.118 21.625 46.6263 21.125 46.6263 20.1666V18.5C46.6263 17.5416 46.118 17.0416 45.168 17.0416Z" fill="#292D32"/>
</svg>
