<svg width="33" height="25" viewBox="0 0 33 25" fill="none" xmlns="http://www.w3.org/2000/svg">
<path d="M24.7891 15.1416H27.162C27.2302 15.1416 27.3892 15.1186 27.4556 15.1186C27.9082 15.0268 28.2926 14.6155 28.2926 14.0454C28.2926 13.4964 27.9082 13.0869 27.4556 12.9722C27.3892 12.9492 27.2529 12.9492 27.162 12.9492H24.7891V15.1416Z" fill="url(#paint0_linear_1145_2247)"/>
<path d="M26.9034 0C24.6423 0 22.7883 1.84988 22.7883 4.15694V8.47277H28.5984C28.7347 8.47277 28.892 8.47277 29.0055 8.49572C30.3161 8.56279 31.2894 9.24944 31.2894 10.4356C31.2894 11.3729 30.6324 12.1708 29.4127 12.3314V12.3773C30.7459 12.4691 31.7629 13.2228 31.7629 14.386C31.7629 15.6428 30.6324 16.4654 29.1418 16.4654H22.7656V24.9135H28.8011C31.0622 24.9135 32.9162 23.0653 32.9162 20.7583V0H26.9034Z" fill="#45C187"/>
<path d="M27.999 10.7192C27.999 10.172 27.6146 9.80663 27.162 9.73779C27.1166 9.73779 27.0048 9.71484 26.9366 9.71484H24.7891V11.7236H26.9366C27.0048 11.7236 27.1393 11.7236 27.162 11.7024C27.6146 11.6336 27.999 11.2682 27.999 10.7192Z" fill="url(#paint1_linear_1145_2247)"/>
<path d="M4.13781 0C1.87669 0 0.0227169 1.84988 0.0227169 4.15694V14.409C1.17599 14.9809 2.37294 15.3463 3.57164 15.3463C4.99576 15.3463 5.76462 14.4778 5.76462 13.2899V8.44982H9.29086V13.2669C9.29086 15.1398 8.13757 16.6702 4.22691 16.6702C1.85396 16.6702 0 16.1459 0 16.1459V24.8905H6.03547C8.29659 24.8905 10.1506 23.0424 10.1506 20.7353V0H4.13781Z" fill="#808CE8"/>
<path d="M15.5213 0C13.2602 0 11.4062 1.84988 11.4062 4.15694V9.59188C12.4459 8.70048 14.2545 8.13032 17.1709 8.26624C18.7313 8.33508 20.4036 8.76931 20.4036 8.76931V10.5274C19.5666 10.0932 18.5723 9.70485 17.2845 9.61483C15.0688 9.4542 13.7355 10.5503 13.7355 12.4691C13.7355 14.409 15.0688 15.5052 17.2845 15.3233C18.5723 15.2316 19.5666 14.8203 20.4036 14.409V16.1671C20.4036 16.1671 18.754 16.6013 17.1709 16.6702C14.2545 16.8078 12.4459 16.2359 11.4062 15.3463V24.9364H17.4417C19.7028 24.9364 21.5568 23.0865 21.5568 20.7812V0H15.5213Z" fill="#DA7075"/>
<defs>
<linearGradient id="paint0_linear_1145_2247" x1="22.7726" y1="14.0472" x2="32.9319" y2="14.0472" gradientUnits="userSpaceOnUse">
<stop stop-color="#007940"/>
<stop offset="0.2285" stop-color="#00873F"/>
<stop offset="0.7433" stop-color="#40A737"/>
<stop offset="1" stop-color="#5CB531"/>
</linearGradient>
<linearGradient id="paint1_linear_1145_2247" x1="22.7726" y1="10.7157" x2="32.9319" y2="10.7157" gradientUnits="userSpaceOnUse">
<stop stop-color="#007940"/>
<stop offset="0.2285" stop-color="#00873F"/>
<stop offset="0.7433" stop-color="#40A737"/>
<stop offset="1" stop-color="#5CB531"/>
</linearGradient>
</defs>
</svg>
