<svg width="73" height="73" viewBox="0 0 73 73" fill="none" xmlns="http://www.w3.org/2000/svg">
<g filter="url(#filter0_d_2683_9983)">
<rect x="16" y="12" width="41" height="41" rx="8" fill="#00ACEE" shape-rendering="crispEdges"/>
<path d="M46.9193 26.1714C46.1531 26.5109 45.3301 26.7403 44.4649 26.844C45.3475 26.3155 46.0247 25.4769 46.344 24.4786C45.5182 24.9685 44.6034 25.3245 43.6299 25.5154C42.85 24.6859 41.7398 24.1666 40.5104 24.1666C38.1505 24.1666 36.2365 26.0806 36.2365 28.4423C36.2365 28.7763 36.2751 29.1011 36.3466 29.4149C32.793 29.236 29.645 27.5339 27.5365 24.9484C27.1695 25.5815 26.9585 26.3155 26.9585 27.0972C26.9585 28.5799 27.7136 29.8892 28.8596 30.6554C28.1586 30.6324 27.4998 30.4407 26.9236 30.1204V30.1755C26.9236 32.2464 28.3963 33.9741 30.3524 34.3668C29.9928 34.464 29.6157 34.5154 29.2266 34.5154C28.9514 34.5154 28.6825 34.4897 28.422 34.4402C28.966 36.1376 30.5442 37.3744 32.415 37.4074C30.9516 38.5543 29.1083 39.2379 27.1062 39.2379C26.7612 39.2379 26.4208 39.2177 26.0859 39.1783C27.9779 40.3921 30.224 41.0986 32.6371 41.0986C40.5003 41.0986 44.7989 34.586 44.7989 28.9378C44.7989 28.7543 44.7943 28.5689 44.786 28.3854C45.621 27.7817 46.3458 27.0302 46.9174 26.1742L46.9193 26.1714Z" fill="white"/>
</g>
<defs>
<filter id="filter0_d_2683_9983" x="0" y="0" width="73" height="73" filterUnits="userSpaceOnUse" color-interpolation-filters="sRGB">
<feFlood flood-opacity="0" result="BackgroundImageFix"/>
<feColorMatrix in="SourceAlpha" type="matrix" values="0 0 0 0 0 0 0 0 0 0 0 0 0 0 0 0 0 0 127 0" result="hardAlpha"/>
<feOffset dy="4"/>
<feGaussianBlur stdDeviation="8"/>
<feComposite in2="hardAlpha" operator="out"/>
<feColorMatrix type="matrix" values="0 0 0 0 0 0 0 0 0 0.67451 0 0 0 0 0.933333 0 0 0 0.64 0"/>
<feBlend mode="normal" in2="BackgroundImageFix" result="effect1_dropShadow_2683_9983"/>
<feBlend mode="normal" in="SourceGraphic" in2="effect1_dropShadow_2683_9983" result="shape"/>
</filter>
</defs>
</svg>
