<svg width="50" height="50" viewBox="0 0 50 50" fill="none" xmlns="http://www.w3.org/2000/svg">
<path d="M40.625 50H9.375C4.19688 50 0 45.8031 0 40.625V9.375C0 4.19688 4.19688 0 9.375 0H40.625C45.8031 0 50 4.19688 50 9.375V40.625C50 45.8031 45.8031 50 40.625 50Z" fill="#FFA500" fill-opacity="0.15"/>
<path d="M33.616 16.3958C30.5326 13.3229 25.5326 13.3229 22.4701 16.3958C20.3139 18.5313 19.6681 21.6042 20.5014 24.3125L15.6056 29.2083C15.2618 29.5625 15.0222 30.2604 15.0951 30.7604L15.4076 33.0313C15.5222 33.7813 16.2201 34.4896 16.9701 34.5938L19.241 34.9063C19.741 34.9792 20.4389 34.75 20.7931 34.3854L21.6472 33.5313C21.8556 33.3333 21.8556 33 21.6472 32.7917L19.6264 30.7708C19.3243 30.4688 19.3243 29.9688 19.6264 29.6667C19.9285 29.3646 20.4285 29.3646 20.7306 29.6667L22.7618 31.6979C22.9597 31.8958 23.2931 31.8958 23.491 31.6979L25.6993 29.5C28.3972 30.3438 31.4701 29.6875 33.616 27.5521C36.6889 24.4792 36.6889 19.4688 33.616 16.3958ZM28.1056 24.5C26.6681 24.5 25.5014 23.3333 25.5014 21.8958C25.5014 20.4583 26.6681 19.2917 28.1056 19.2917C29.5431 19.2917 30.7097 20.4583 30.7097 21.8958C30.7097 23.3333 29.5431 24.5 28.1056 24.5Z" fill="#FFA500"/>
</svg>
