<svg width="28" height="15" viewBox="0 0 28 15" fill="none" xmlns="http://www.w3.org/2000/svg">
<rect width="28" height="15" rx="2" fill="#718096"/>
<path d="M6.54 8.088L5.388 9.408V12H4.032V3.624H5.388V7.872H5.436L6.636 6.348L8.892 3.624H10.476L7.488 7.152L10.716 12H9.084L6.54 8.088ZM14.8189 12.144C14.2749 12.144 13.7789 12.052 13.3309 11.868C12.8909 11.676 12.5109 11.4 12.1909 11.04C11.8789 10.672 11.6349 10.22 11.4589 9.684C11.2909 9.14 11.2069 8.516 11.2069 7.812C11.2069 7.108 11.2909 6.488 11.4589 5.952C11.6349 5.408 11.8789 4.956 12.1909 4.596C12.5109 4.228 12.8909 3.952 13.3309 3.768C13.7789 3.576 14.2749 3.48 14.8189 3.48C15.3629 3.48 15.8549 3.576 16.2949 3.768C16.7429 3.952 17.1229 4.228 17.4349 4.596C17.7549 4.956 17.9989 5.408 18.1669 5.952C18.3429 6.488 18.4309 7.108 18.4309 7.812C18.4309 8.516 18.3429 9.14 18.1669 9.684C17.9989 10.22 17.7549 10.672 17.4349 11.04C17.1229 11.4 16.7429 11.676 16.2949 11.868C15.8549 12.052 15.3629 12.144 14.8189 12.144ZM14.8189 10.932C15.1389 10.932 15.4309 10.876 15.6949 10.764C15.9669 10.652 16.1949 10.492 16.3789 10.284C16.5709 10.068 16.7189 9.808 16.8229 9.504C16.9269 9.2 16.9789 8.856 16.9789 8.472V7.152C16.9789 6.768 16.9269 6.424 16.8229 6.12C16.7189 5.816 16.5709 5.56 16.3789 5.352C16.1949 5.136 15.9669 4.972 15.6949 4.86C15.4309 4.748 15.1389 4.692 14.8189 4.692C14.4909 4.692 14.1949 4.748 13.9309 4.86C13.6669 4.972 13.4389 5.136 13.2469 5.352C13.0629 5.56 12.9189 5.816 12.8149 6.12C12.7109 6.424 12.6589 6.768 12.6589 7.152V8.472C12.6589 8.856 12.7109 9.2 12.8149 9.504C12.9189 9.808 13.0629 10.068 13.2469 10.284C13.4389 10.492 13.6669 10.652 13.9309 10.764C14.1949 10.876 14.4909 10.932 14.8189 10.932ZM20.1218 12V3.624H21.4778V10.8H24.8858V12H20.1218Z" fill="white"/>
</svg>
