<svg width="20" height="20" viewBox="0 0 20 20" fill="none" xmlns="http://www.w3.org/2000/svg">
<path d="M10.0003 11.5417C9.89196 11.5417 9.78363 11.5167 9.69196 11.4584C9.39196 11.2834 9.29196 10.9 9.45863 10.6084L10.167 9.37502H9.46696C9.05029 9.37502 8.70863 9.19169 8.52529 8.88335C8.34196 8.56669 8.35863 8.18335 8.56696 7.81669L9.45863 6.26669C9.63363 5.96669 10.017 5.86669 10.3086 6.03335C10.6086 6.20835 10.7086 6.59169 10.542 6.88335L9.83363 8.12502H10.5336C10.9503 8.12502 11.292 8.30835 11.4753 8.61669C11.6586 8.93335 11.642 9.31669 11.4336 9.68335L10.542 11.2334C10.4253 11.4334 10.217 11.5417 10.0003 11.5417Z" fill="#FFA500"/>
<path d="M12.3086 16.4584H7.71693C7.35026 16.4584 6.88359 16.4167 6.57526 16.1C6.27526 15.7917 6.28359 15.4084 6.29193 15.15V14.4084C4.19193 13.0084 2.80859 10.575 2.80859 8.25835C2.80859 6.06669 3.79193 4.01669 5.50026 2.64169C7.20859 1.26669 9.45026 0.750019 11.6419 1.23335C13.7253 1.69169 15.5253 3.08335 16.4586 4.95835C18.2669 8.60002 16.5253 12.5417 13.7419 14.4167V15.0417C13.7503 15.2834 13.7586 15.725 13.4169 16.075C13.1586 16.325 12.7919 16.4584 12.3086 16.4584ZM7.53359 15.2C7.57526 15.2 7.63359 15.2084 7.70859 15.2084H12.3086C12.3919 15.2084 12.4503 15.2 12.4836 15.1917C12.4836 15.1667 12.4836 15.1334 12.4836 15.1084V14.0584C12.4836 13.8417 12.6003 13.6334 12.7836 13.525C15.2503 12.0334 16.8836 8.62502 15.3253 5.50002C14.5586 3.95835 13.0753 2.81669 11.3586 2.44169C9.54193 2.04169 7.68359 2.46669 6.26693 3.60835C4.85026 4.75002 4.04193 6.44169 4.04193 8.25835C4.04193 10.575 5.64193 12.575 7.22526 13.5334C7.41693 13.65 7.52526 13.85 7.52526 14.0667V15.1917C7.53359 15.1917 7.53359 15.1917 7.53359 15.2Z" fill="#081131"/>
<path d="M12.9167 18.9583C12.8584 18.9583 12.8 18.95 12.7417 18.9333C10.9417 18.4167 9.05005 18.4167 7.25005 18.9333C6.91672 19.025 6.57505 18.8333 6.47505 18.5C6.37505 18.1667 6.57505 17.825 6.90838 17.725C8.92505 17.15 11.0667 17.15 13.0834 17.725C13.4167 17.8167 13.6084 18.1667 13.5167 18.5C13.4417 18.7833 13.1917 18.9583 12.9167 18.9583Z" fill="#081131"/>
</svg>
