<svg width="25" height="18" viewBox="0 0 25 18" fill="none" xmlns="http://www.w3.org/2000/svg">
<path d="M0.820312 2.19706L6.216 7.37353L24.4714 3.3147L15.0589 0.608822L0.865277 2.19117L0.820312 2.19706Z" fill="url(#paint0_linear_346_683)"/>
<path d="M5.84354 11.2088L0.507812 5.07647L0.822561 2.22353L1.41908 2.28823L1.13131 4.88529L6.05038 10.5382L23.5804 5.65L23.7452 6.2147L5.84354 11.2088Z" fill="url(#paint1_linear_346_683)"/>
<path d="M11.582 7.96176C11.582 7.96176 15.6288 12.3147 14.7895 17.3735L22.4933 14.3735C22.4933 14.3735 23.3027 8.34412 18.8662 6.10882L11.582 7.96176Z" fill="url(#paint2_linear_346_683)"/>
<defs>
<linearGradient id="paint0_linear_346_683" x1="12.6459" y1="0.608822" x2="12.6459" y2="7.37353" gradientUnits="userSpaceOnUse">
<stop stop-color="#FF8D00"/>
<stop offset="1" stop-color="#FFA500"/>
</linearGradient>
<linearGradient id="paint1_linear_346_683" x1="12.1265" y1="2.22353" x2="12.1265" y2="11.2088" gradientUnits="userSpaceOnUse">
<stop stop-color="#FF8D00"/>
<stop offset="1" stop-color="#FFA500"/>
</linearGradient>
<linearGradient id="paint2_linear_346_683" x1="17.0666" y1="6.10882" x2="17.0666" y2="17.3735" gradientUnits="userSpaceOnUse">
<stop stop-color="#FF8D00"/>
<stop offset="1" stop-color="#FFA500"/>
</linearGradient>
</defs>
</svg>
