<svg width="16" height="14" viewBox="0 0 16 14" fill="none" xmlns="http://www.w3.org/2000/svg">
<path fill-rule="evenodd" clip-rule="evenodd" d="M-2.97037e-07 6.99993C-3.1046e-07 6.69286 0.24892 6.44394 0.555984 6.44394L9.09788 6.44394L6.34044 3.68645C6.12331 3.46936 6.12331 3.11736 6.34044 2.90028C6.55757 2.68308 6.9096 2.68308 7.12673 2.90028L10.8333 6.60678C11.0504 6.82391 11.0504 7.17594 10.8333 7.39307L7.12673 11.0996C6.9096 11.3168 6.55757 11.3168 6.34044 11.0996C6.12331 10.8825 6.12331 10.5305 6.34044 10.3133L9.09788 7.55591L0.555984 7.55591C0.24892 7.55591 -2.83615e-07 7.30699 -2.97037e-07 6.99993ZM11.0579 13.1776C11.0579 12.8364 11.3346 12.5598 11.6757 12.5598L13.529 12.5598C14.2133 12.5598 14.7645 12.0092 14.7645 11.3288L14.7645 2.67418C14.7645 1.99255 14.212 1.44015 13.529 1.44015L11.6757 1.44015C11.3346 1.44015 11.0579 1.16351 11.0579 0.822386C11.0579 0.481259 11.3346 0.204626 11.6757 0.204626L13.529 0.204625C14.8931 0.204625 16 1.30893 16 2.67418L16 11.3288C16 12.6955 14.8917 13.7953 13.529 13.7953L11.6757 13.7953C11.3346 13.7953 11.0579 13.5188 11.0579 13.1776Z" fill="black"/>
</svg>
