<svg width="15" height="15" viewBox="0 0 15 15" fill="none" xmlns="http://www.w3.org/2000/svg">
<path d="M10.625 13.75H4.375C4.11875 13.75 3.90625 13.5375 3.90625 13.2812C3.90625 13.025 4.11875 12.8125 4.375 12.8125H10.625C10.8812 12.8125 11.0938 13.025 11.0938 13.2812C11.0938 13.5375 10.8812 13.75 10.625 13.75Z" fill="#718096"/>
<path d="M12.7188 3.4499L10.2188 5.2374C9.88751 5.4749 9.41251 5.33115 9.26876 4.9499L8.08751 1.7999C7.88751 1.25615 7.11876 1.25615 6.91876 1.7999L5.73126 4.94365C5.58751 5.33115 5.11876 5.4749 4.78751 5.23115L2.28751 3.44365C1.78751 3.09365 1.12502 3.5874 1.33126 4.16865L3.93126 11.4499C4.01876 11.6999 4.25626 11.8624 4.51876 11.8624H10.475C10.7375 11.8624 10.975 11.6937 11.0625 11.4499L13.6625 4.16865C13.875 3.5874 13.2125 3.09365 12.7188 3.4499ZM9.06251 9.21865H5.93751C5.68126 9.21865 5.46876 9.00615 5.46876 8.7499C5.46876 8.49365 5.68126 8.28115 5.93751 8.28115H9.06251C9.31876 8.28115 9.53126 8.49365 9.53126 8.7499C9.53126 9.00615 9.31876 9.21865 9.06251 9.21865Z" fill="#718096"/>
</svg>
