<svg width="15" height="15" viewBox="0 0 15 15" fill="none" xmlns="http://www.w3.org/2000/svg">
<path d="M5.24219 11.5567V5.20669C5.24219 4.95669 5.31719 4.71294 5.45469 4.50669L7.16094 1.96919C7.42969 1.56294 8.09844 1.27544 8.66719 1.48794C9.27969 1.69419 9.68594 2.38169 9.55469 2.99419L9.22969 5.03794C9.20469 5.22544 9.25469 5.39419 9.36094 5.52544C9.46719 5.64419 9.62344 5.71919 9.79219 5.71919H12.3609C12.8547 5.71919 13.2797 5.91919 13.5297 6.26919C13.7672 6.60669 13.8109 7.04419 13.6547 7.48794L12.1172 12.1692C11.9234 12.9442 11.0797 13.5754 10.2422 13.5754H7.80469C7.38594 13.5754 6.79844 13.4317 6.52969 13.1629L5.72969 12.5442C5.42344 12.3129 5.24219 11.9442 5.24219 11.5567Z" fill="#71839B"/>
<path d="M3.25625 3.9873H2.6125C1.64375 3.9873 1.25 4.3623 1.25 5.2873V11.5748C1.25 12.4998 1.64375 12.8748 2.6125 12.8748H3.25625C4.225 12.8748 4.61875 12.4998 4.61875 11.5748V5.2873C4.61875 4.3623 4.225 3.9873 3.25625 3.9873Z" fill="#71839B"/>
</svg>
