<svg width="20" height="20" viewBox="0 0 20 20" fill="none" xmlns="http://www.w3.org/2000/svg">
<path d="M6.9917 15.4086V6.94193C6.9917 6.6086 7.0917 6.2836 7.27503 6.0086L9.55003 2.62526C9.90837 2.0836 10.8 1.70026 11.5584 1.9836C12.375 2.2586 12.9167 3.17526 12.7417 3.99193L12.3084 6.71693C12.275 6.96693 12.3417 7.19193 12.4834 7.36693C12.625 7.52526 12.8334 7.62526 13.0584 7.62526H16.4834C17.1417 7.62526 17.7084 7.89193 18.0417 8.3586C18.3584 8.8086 18.4167 9.39193 18.2084 9.9836L16.1584 16.2253C15.9 17.2586 14.775 18.1003 13.6584 18.1003H10.4084C9.85003 18.1003 9.0667 17.9086 8.70837 17.5503L7.6417 16.7253C7.23337 16.4169 6.9917 15.9253 6.9917 15.4086Z" fill="#0ECB81"/>
<path d="M4.34175 5.31641H3.48341C2.19175 5.31641 1.66675 5.81641 1.66675 7.04974V15.4331C1.66675 16.6664 2.19175 17.1664 3.48341 17.1664H4.34175C5.63341 17.1664 6.15841 16.6664 6.15841 15.4331V7.04974C6.15841 5.81641 5.63341 5.31641 4.34175 5.31641Z" fill="#0ECB81"/>
</svg>
