<svg width="25" height="25" viewBox="0 0 25 25" fill="none" xmlns="http://www.w3.org/2000/svg">
<path d="M22.9193 3.61487V21.3845C22.9193 21.7908 22.7579 22.1804 22.4706 22.4677C22.1833 22.7549 21.7937 22.9163 21.3874 22.9163H3.6178C3.21152 22.9163 2.82189 22.7549 2.53461 22.4677C2.24733 22.1804 2.08594 21.7908 2.08594 21.3845V3.61487C2.08594 3.2086 2.24733 2.81896 2.53461 2.53168C2.82189 2.2444 3.21152 2.08301 3.6178 2.08301H21.3874C21.7937 2.08301 22.1833 2.2444 22.4706 2.53168C22.7579 2.81896 22.9193 3.2086 22.9193 3.61487ZM8.21339 10.0487H5.14966V19.8526H8.21339V10.0487ZM8.48912 6.6786C8.49074 6.44685 8.44669 6.21705 8.35949 6.00233C8.2723 5.78761 8.14366 5.59217 7.98093 5.42716C7.8182 5.26215 7.62456 5.13081 7.41107 5.04064C7.19758 4.95047 6.96842 4.90324 6.73667 4.90163H6.68153C6.21025 4.90163 5.75827 5.08885 5.42502 5.42209C5.09178 5.75534 4.90456 6.20732 4.90456 6.6786C4.90456 7.14987 5.09178 7.60185 5.42502 7.9351C5.75827 8.26834 6.21025 8.45556 6.68153 8.45556C6.91329 8.46126 7.1439 8.42124 7.36019 8.33778C7.57648 8.25433 7.77421 8.12907 7.94207 7.96917C8.10994 7.80927 8.24465 7.61787 8.33852 7.40589C8.43238 7.19391 8.48356 6.96551 8.48912 6.73374V6.6786ZM19.8555 13.8967C19.8555 10.9494 17.9805 9.8036 16.1178 9.8036C15.5079 9.77306 14.9007 9.90296 14.3566 10.1803C13.8126 10.4577 13.3508 10.8729 13.0173 11.3845H12.9315V10.0487H10.0516V19.8526H13.1153V14.6382C13.0711 14.1041 13.2393 13.5742 13.5835 13.1634C13.9277 12.7527 14.42 12.4943 14.9536 12.4445H15.07C16.0443 12.4445 16.7673 13.0573 16.7673 14.6014V19.8526H19.831L19.8555 13.8967Z" fill="#0072B1"/>
</svg>
