<svg width="30" height="29" viewBox="0 0 30 29" fill="none" xmlns="http://www.w3.org/2000/svg">
<path d="M21.3341 15.1736L20.4444 16.0634C20.2028 16.305 19.8021 16.305 19.5605 16.0634C19.3189 15.8218 19.3189 15.4211 19.5605 15.1795L20.4502 14.2897C21.9941 12.7459 21.9941 10.2357 20.4502 8.69181C18.9064 7.14796 16.3962 7.14796 14.8523 8.69181L13.9684 9.5757C13.7268 9.81729 13.3261 9.81729 13.0846 9.5757C12.843 9.3341 12.8371 8.9393 13.0846 8.69181L13.9684 7.80793C16.0014 5.775 19.3012 5.775 21.3341 7.80793C23.3671 9.84086 23.3671 13.1407 21.3341 15.1736Z" fill="#FFA500"/>
<path d="M16.9168 19.5929L16.0329 20.4768C14 22.5097 10.7002 22.5097 8.66722 20.4768C6.63429 18.4439 6.63429 15.144 8.66722 13.1111L9.55111 12.2272C9.7927 11.9856 10.1934 11.9856 10.435 12.2272C10.6766 12.4688 10.6766 12.8695 10.435 13.1111L9.55111 13.995C8.00726 15.5388 8.00726 18.0491 9.55111 19.5929C11.095 21.1368 13.6052 21.1368 15.149 19.5929L16.0329 18.709C16.2745 18.4674 16.6752 18.4674 16.9168 18.709C17.1584 18.9506 17.1584 19.3513 16.9168 19.5929Z" fill="#FFA500"/>
<path d="M17.8016 12.2279L13.0875 16.9419C12.8459 17.1835 12.4453 17.1835 12.2037 16.9419C11.9621 16.7003 11.9621 16.2997 12.2037 16.0581L16.9177 11.344C17.1593 11.1024 17.56 11.1024 17.8016 11.344C18.0432 11.5856 18.0432 11.9863 17.8016 12.2279Z" fill="#FFA500"/>
</svg>
