<svg width="42" height="42" viewBox="0 0 42 42" fill="none" xmlns="http://www.w3.org/2000/svg">
<circle cx="21" cy="21" r="20.5" stroke="#D9D9D9"/>
<path d="M31 25.7402V13.6702C31 12.4702 30.02 11.5802 28.83 11.6802H28.77C26.67 11.8602 23.48 12.9302 21.7 14.0502L21.53 14.1602C21.24 14.3402 20.76 14.3402 20.47 14.1602L20.22 14.0102C18.44 12.9002 15.26 11.8402 13.16 11.6702C11.97 11.5702 11 12.4702 11 13.6602V25.7402C11 26.7002 11.78 27.6002 12.74 27.7202L13.03 27.7602C15.2 28.0502 18.55 29.1502 20.47 30.2002L20.51 30.2202C20.78 30.3702 21.21 30.3702 21.47 30.2202C23.39 29.1602 26.75 28.0502 28.93 27.7602L29.26 27.7202C30.22 27.6002 31 26.7002 31 25.7402Z" stroke="#292D32" stroke-width="1.5" stroke-linecap="round" stroke-linejoin="round"/>
<path d="M21 14.4902V29.4902" stroke="#292D32" stroke-width="1.5" stroke-linecap="round" stroke-linejoin="round"/>
<path d="M16.75 17.4902H14.5" stroke="#292D32" stroke-width="1.5" stroke-linecap="round" stroke-linejoin="round"/>
<path d="M17.5 20.4902H14.5" stroke="#292D32" stroke-width="1.5" stroke-linecap="round" stroke-linejoin="round"/>
</svg>
