<svg width="76" height="76" viewBox="0 0 76 76" fill="none" xmlns="http://www.w3.org/2000/svg">
<circle cx="38" cy="38" r="38" fill="#FAFAFA"/>
<path d="M53.0846 33.4896H23.918C23.3201 33.4896 22.8242 32.9937 22.8242 32.3958C22.8242 31.7979 23.3201 31.3021 23.918 31.3021H53.0846C53.6826 31.3021 54.1784 31.7979 54.1784 32.3958C54.1784 32.9937 53.6826 33.4896 53.0846 33.4896Z" fill="#71839B"/>
<path d="M32.6667 45.1562H29.75C29.1521 45.1562 28.6562 44.6604 28.6562 44.0625C28.6562 43.4646 29.1521 42.9688 29.75 42.9688H32.6667C33.2646 42.9688 33.7604 43.4646 33.7604 44.0625C33.7604 44.6604 33.2646 45.1562 32.6667 45.1562Z" fill="#71839B"/>
<path d="M42.1458 45.1562H36.3125C35.7146 45.1562 35.2188 44.6604 35.2188 44.0625C35.2188 43.4646 35.7146 42.9688 36.3125 42.9688H42.1458C42.7438 42.9688 43.2396 43.4646 43.2396 44.0625C43.2396 44.6604 42.7438 45.1562 42.1458 45.1562Z" fill="#71839B"/>
<path d="M46.6096 50.9896H30.393C24.5888 50.9896 22.8242 49.2396 22.8242 43.4938V31.5063C22.8242 25.7604 24.5888 24.0104 30.393 24.0104H46.5951C52.3992 24.0104 54.1638 25.7604 54.1638 31.5063V43.4792C54.1784 49.2396 52.4138 50.9896 46.6096 50.9896ZM30.393 26.1979C25.8138 26.1979 25.0117 26.9854 25.0117 31.5063V43.4792C25.0117 48 25.8138 48.7875 30.393 48.7875H46.5951C51.1742 48.7875 51.9763 48 51.9763 43.4792V31.5063C51.9763 26.9854 51.1742 26.1979 46.5951 26.1979H30.393Z" fill="#71839B"/>
</svg>
