<svg width="76" height="76" viewBox="0 0 76 76" fill="none" xmlns="http://www.w3.org/2000/svg">
<circle cx="38" cy="38" r="38" fill="#FAFAFA"/>
<path d="M38.4987 53.1916C36.9091 53.1916 35.3341 52.725 34.0945 51.8062L27.8237 47.125C26.1612 45.8854 24.8633 43.3041 24.8633 41.2333V30.3833C24.8633 28.1375 26.5112 25.7458 28.6258 24.9583L35.9029 22.2312C37.3466 21.6916 39.6216 21.6916 41.0654 22.2312L48.357 24.9583C50.4716 25.7458 52.1195 28.1375 52.1195 30.3833V41.2187C52.1195 43.2896 50.8216 45.8708 49.1591 47.1104L42.8883 51.7916C41.6633 52.725 40.0883 53.1916 38.4987 53.1916ZM36.6758 24.2875L29.3987 27.0146C28.1445 27.4812 27.0508 29.0562 27.0508 30.3979V41.2333C27.0508 42.6187 28.0279 44.5583 29.1216 45.375L35.3924 50.0562C37.0695 51.3104 39.9133 51.3104 41.5904 50.0562L47.8612 45.375C48.9695 44.5437 49.932 42.6041 49.932 41.2333V30.3833C49.932 29.0562 48.8383 27.4812 47.5841 27L40.307 24.2729C39.3445 23.9229 37.6529 23.9229 36.6758 24.2875Z" fill="#71839B"/>
<path d="M38.4987 39.3229C36.282 39.3229 34.4883 37.5291 34.4883 35.3125C34.4883 33.0958 36.282 31.3021 38.4987 31.3021C40.7154 31.3021 42.5091 33.0958 42.5091 35.3125C42.5091 37.5291 40.7154 39.3229 38.4987 39.3229ZM38.4987 33.4896C37.4924 33.4896 36.6758 34.3062 36.6758 35.3125C36.6758 36.3187 37.4924 37.1354 38.4987 37.1354C39.5049 37.1354 40.3216 36.3187 40.3216 35.3125C40.3216 34.3062 39.5049 33.4896 38.4987 33.4896Z" fill="#71839B"/>
<path d="M38.5 43.6979C37.9021 43.6979 37.4062 43.2021 37.4062 42.6042V38.2292C37.4062 37.6313 37.9021 37.1354 38.5 37.1354C39.0979 37.1354 39.5938 37.6313 39.5938 38.2292V42.6042C39.5938 43.2021 39.0979 43.6979 38.5 43.6979Z" fill="#71839B"/>
</svg>
