<svg width="76" height="76" viewBox="0 0 76 76" fill="none" xmlns="http://www.w3.org/2000/svg">
<circle cx="38" cy="38" r="38" fill="#FAFAFA"/>
<path d="M32.6945 49.5312H31.1779C28.2466 49.5312 26.832 48.175 26.832 45.375V29.625C26.832 26.825 28.2612 25.4688 31.1779 25.4688H32.6945C35.6112 25.4688 37.0404 26.825 37.0404 29.625V45.375C37.0404 48.175 35.6112 49.5312 32.6945 49.5312ZM31.1779 27.6562C29.3258 27.6562 29.0195 28.1521 29.0195 29.625V45.375C29.0195 46.8479 29.3258 47.3438 31.1779 47.3438H32.6945C34.5466 47.3438 34.8529 46.8479 34.8529 45.375V29.625C34.8529 28.1521 34.5466 27.6562 32.6945 27.6562H31.1779Z" fill="#71839B"/>
<path d="M45.093 46.6146H43.5763C40.6451 46.6146 39.2305 45.2584 39.2305 42.4584V32.5417C39.2305 29.7417 40.6596 28.3854 43.5763 28.3854H45.093C48.0242 28.3854 49.4388 29.7417 49.4388 32.5417V42.4584C49.4388 45.2584 48.0096 46.6146 45.093 46.6146ZM43.5763 30.5729C41.7242 30.5729 41.418 31.0688 41.418 32.5417V42.4584C41.418 43.9313 41.7242 44.4271 43.5763 44.4271H45.093C46.9451 44.4271 47.2513 43.9313 47.2513 42.4584V32.5417C47.2513 31.0688 46.9451 30.5729 45.093 30.5729H43.5763Z" fill="#71839B"/>
<path d="M27.418 38.5938H23.918C23.3201 38.5938 22.8242 38.0979 22.8242 37.5C22.8242 36.9021 23.3055 36.4062 23.918 36.4062H27.418C28.0159 36.4062 28.5117 36.9021 28.5117 37.5C28.5117 38.0979 28.0305 38.5938 27.418 38.5938Z" fill="#71839B"/>
<path d="M39.9596 38.5938H37.043C36.4451 38.5938 35.9492 38.0979 35.9492 37.5C35.9492 36.9021 36.4451 36.4062 37.043 36.4062H39.9596C40.5576 36.4062 41.0534 36.9021 41.0534 37.5C41.0534 38.0979 40.5576 38.5938 39.9596 38.5938Z" fill="#71839B"/>
<path d="M53.082 38.5938H49.1445C48.5466 38.5938 48.0508 38.0979 48.0508 37.5C48.0508 36.9021 48.5466 36.4062 49.1445 36.4062H53.082C53.6799 36.4062 54.1758 36.9021 54.1758 37.5C54.1758 38.0979 53.6945 38.5938 53.082 38.5938Z" fill="#71839B"/>
</svg>
