<svg width="20" height="20" viewBox="0 0 20 20" fill="none" xmlns="http://www.w3.org/2000/svg">
<path opacity="0.4" d="M17.1829 7.04166C16.3079 3.19166 12.9496 1.45833 9.99959 1.45833C9.99959 1.45833 9.99959 1.45833 9.99126 1.45833C7.04959 1.45833 3.68292 3.18333 2.80792 7.03333C1.83292 11.3333 4.46626 14.975 6.84959 17.2667C7.73292 18.1167 8.86626 18.5417 9.99959 18.5417C11.1329 18.5417 12.2663 18.1167 13.1413 17.2667C15.5246 14.975 18.1579 11.3417 17.1829 7.04166Z" fill="#FFA500"/>
<path d="M10 11.2167C11.4497 11.2167 12.625 10.0414 12.625 8.59166C12.625 7.14191 11.4497 5.96666 10 5.96666C8.55025 5.96666 7.375 7.14191 7.375 8.59166C7.375 10.0414 8.55025 11.2167 10 11.2167Z" fill="#FFA500"/>
</svg>
