<svg width="55" height="55" viewBox="0 0 55 55" fill="none" xmlns="http://www.w3.org/2000/svg">
<circle cx="27.5" cy="27.5" r="27.5" fill="#FAFAFA"/>
<path d="M34 25.75C33.59 25.75 33.25 25.41 33.25 25V23C33.25 19.85 32.36 17.75 28 17.75C23.64 17.75 22.75 19.85 22.75 23V25C22.75 25.41 22.41 25.75 22 25.75C21.59 25.75 21.25 25.41 21.25 25V23C21.25 20.1 21.95 16.25 28 16.25C34.05 16.25 34.75 20.1 34.75 23V25C34.75 25.41 34.41 25.75 34 25.75Z" fill="#71839B"/>
<path d="M33 37.75H23C18.59 37.75 17.25 36.41 17.25 32V30C17.25 25.59 18.59 24.25 23 24.25H33C37.41 24.25 38.75 25.59 38.75 30V32C38.75 36.41 37.41 37.75 33 37.75ZM23 25.75C19.42 25.75 18.75 26.43 18.75 30V32C18.75 35.57 19.42 36.25 23 36.25H33C36.58 36.25 37.25 35.57 37.25 32V30C37.25 26.43 36.58 25.75 33 25.75H23Z" fill="#71839B"/>
<path d="M24 32C23.87 32 23.74 31.97 23.62 31.92C23.49 31.87 23.39 31.8 23.29 31.71C23.11 31.52 23 31.27 23 31C23 30.87 23.03 30.74 23.08 30.62C23.13 30.49 23.2 30.39 23.29 30.29C23.39 30.2 23.49 30.13 23.62 30.08C23.98 29.92 24.43 30.01 24.71 30.29C24.8 30.39 24.87 30.5 24.92 30.62C24.97 30.74 25 30.87 25 31C25 31.26 24.89 31.52 24.71 31.71C24.52 31.89 24.26 32 24 32Z" fill="#71839B"/>
<path d="M28 32C27.74 32 27.48 31.89 27.29 31.71C27.11 31.52 27 31.27 27 31C27 30.87 27.02 30.74 27.08 30.62C27.13 30.5 27.2 30.39 27.29 30.29C27.52 30.06 27.87 29.95 28.19 30.02C28.26 30.03 28.32 30.05 28.38 30.08C28.44 30.1 28.5 30.13 28.56 30.17C28.61 30.2 28.66 30.25 28.71 30.29C28.8 30.39 28.87 30.5 28.92 30.62C28.97 30.74 29 30.87 29 31C29 31.27 28.89 31.52 28.71 31.71C28.66 31.75 28.61 31.79 28.56 31.83C28.5 31.87 28.44 31.9 28.38 31.92C28.32 31.95 28.26 31.97 28.19 31.98C28.13 31.99 28.06 32 28 32Z" fill="#71839B"/>
<path d="M32 32C31.73 32 31.48 31.89 31.29 31.71C31.2 31.61 31.13 31.5 31.08 31.38C31.03 31.26 31 31.13 31 31C31 30.74 31.11 30.48 31.29 30.29C31.34 30.25 31.39 30.21 31.44 30.17C31.5 30.13 31.56 30.1 31.62 30.08C31.68 30.05 31.74 30.03 31.8 30.02C32.13 29.95 32.47 30.06 32.71 30.29C32.89 30.48 33 30.73 33 31C33 31.13 32.97 31.26 32.92 31.38C32.87 31.51 32.8 31.61 32.71 31.71C32.52 31.89 32.26 32 32 32Z" fill="#71839B"/>
</svg>
