<svg width="67" height="67" viewBox="0 0 67 67" fill="none" xmlns="http://www.w3.org/2000/svg">
<path opacity="0.4" d="M30.5964 5.89134L15.2422 11.6422C12.311 12.7588 9.91016 16.2205 9.91016 19.3751V41.9876C9.91016 44.2488 11.3897 47.2359 13.2043 48.5759L28.5585 60.0497C31.2664 62.0876 35.7052 62.0876 38.4131 60.0497L53.7672 48.5759C55.5818 47.208 57.0614 44.2488 57.0614 41.9876V19.3751C57.0614 16.2484 54.6606 12.7588 51.7293 11.6701L36.3752 5.91925C34.8118 5.30509 32.1877 5.30509 30.5964 5.89134Z" fill="#FFA500"/>
<path d="M40.4798 29.3132C40.4798 25.4607 37.3532 22.334 33.5007 22.334C29.6482 22.334 26.5215 25.4607 26.5215 29.3132C26.5215 32.4398 28.5873 35.0361 31.4069 35.9294V43.2715C31.4069 44.4161 32.3561 45.3652 33.5007 45.3652C34.6452 45.3652 35.5944 44.4161 35.5944 43.2715V35.9294C38.414 35.0361 40.4798 32.4398 40.4798 29.3132Z" fill="white"/>
</svg>
