<svg xmlns="http://www.w3.org/2000/svg" xmlns:xlink="http://www.w3.org/1999/xlink" width="17" height="17" viewBox="0 0 17 17">
  <defs>
    <clipPath id="clip-path">
      <rect id="Rectangle_19223" data-name="Rectangle 19223" width="17" height="17" transform="translate(1217.8 693.8)" fill="#6e3333" opacity="0.33"/>
    </clipPath>
  </defs>
  <g id="Mask_Group_212" data-name="Mask Group 212" transform="translate(-1217.8 -693.8)" clip-path="url(#clip-path)">
    <g id="login_hist" data-name="login hist" transform="translate(1218 694)">
      <path id="Rectangle_437" data-name="Rectangle 437" d="M15.349,6.715a.576.576,0,0,0,1.151,0Zm.576,9.785a.576.576,0,0,0,0-1.151ZM3.645,1.151h9.209V0H3.645Zm-2.494,11.7V3.645H0v9.209Zm14.2-9.209v3.07H16.5V3.645Zm.576,11.7H3.645V16.5H15.924ZM0,12.855A3.645,3.645,0,0,0,3.645,16.5V15.349a2.494,2.494,0,0,1-2.494-2.494Zm12.855-11.7a2.494,2.494,0,0,1,2.494,2.494H16.5A3.645,3.645,0,0,0,12.855,0ZM3.645,0A3.645,3.645,0,0,0,0,3.645H1.151A2.494,2.494,0,0,1,3.645,1.151Z" fill="#787d96" stroke="#787d96" stroke-width="0.2"/>
      <path id="Vector_1171" data-name="Vector 1171" d="M3.453.576A.576.576,0,1,0,2.3.576ZM2.134,6.738a.576.576,0,1,0-.814-.814ZM.169,7.076a.576.576,0,0,0,.814.814ZM2.3,4.029a.576.576,0,1,0,1.151,0Zm-.983,1.9L.169,7.076l.814.814L2.134,6.738ZM2.3.576V4.029H3.453V.576Z" transform="translate(5.372 3.07)" fill="#787d96" stroke="#787d96" stroke-width="0.2"/>
      <path id="Ellipse_460" data-name="Ellipse 460" d="M2.3,1.727a.576.576,0,0,1-.576.576V3.453A1.727,1.727,0,0,0,3.453,1.727ZM1.727,2.3a.576.576,0,0,1-.576-.576H0A1.727,1.727,0,0,0,1.727,3.453Zm-.576-.576a.576.576,0,0,1,.576-.576V0A1.727,1.727,0,0,0,0,1.727Zm.576-.576a.576.576,0,0,1,.576.576H3.453A1.727,1.727,0,0,0,1.727,0Z" transform="translate(6.523 6.523)" fill="#787d96" stroke="#787d96" stroke-width="0.2"/>
      <path id="Vector_1160" data-name="Vector 1160" d="M.576,0a.576.576,0,0,0,0,1.151Zm4.6,1.151A.576.576,0,1,0,5.18,0Zm-4.6,0h4.6V0H.576Z" transform="translate(10.744 12.279)" fill="#787d96" stroke="#787d96" stroke-width="0.2"/>
      <path id="Vector_1161" data-name="Vector 1161" d="M.576,0a.576.576,0,0,0,0,1.151Zm3.07,1.151A.576.576,0,0,0,3.645,0Zm-3.07,0h3.07V0H.576Z" transform="translate(12.279 9.209)" fill="#787d96" stroke="#787d96" stroke-width="0.2"/>
    </g>
  </g>
</svg>
