<svg width="20" height="20" viewBox="0 0 20 20" fill="none" xmlns="http://www.w3.org/2000/svg">
<g clip-path="url(#clip0_129_22034)">
<path d="M11.8168 0.173151C11.6966 0.151037 11.5731 0.155615 11.4549 0.186561C11.3367 0.217507 11.2267 0.274063 11.1328 0.352225C11.0389 0.430386 10.9634 0.52824 10.9115 0.638855C10.8596 0.74947 10.8327 0.87014 10.8326 0.992318V3.39148C9.82362 3.25762 8.79736 3.35792 7.83339 3.68461C6.86942 4.0113 5.99363 4.55559 5.27392 5.2753C4.55421 5.99501 4.00992 6.8708 3.68323 7.83477C3.35654 8.79874 3.25624 9.825 3.3901 10.834H0.990938C0.86876 10.834 0.74809 10.861 0.637475 10.9128C0.52686 10.9647 0.429006 11.0403 0.350845 11.1342C0.272683 11.2281 0.216126 11.3381 0.185181 11.4562C0.154235 11.5744 0.149657 11.698 0.171771 11.8182C0.501779 13.6111 1.31563 15.2797 2.52533 16.6435C3.73503 18.0074 5.29454 19.0146 7.03525 19.5563C8.77596 20.098 10.6316 20.1535 12.4016 19.7169C14.1716 19.2803 15.7885 18.3681 17.0776 17.079C18.3667 15.7899 19.2789 14.173 19.7155 12.403C20.1521 10.633 20.0966 8.77734 19.5549 7.03663C19.0132 5.29592 18.006 3.73641 16.6422 2.52671C15.2783 1.31701 13.6097 0.50316 11.8168 0.173151V0.173151ZM9.99927 11.6673C9.70789 11.6665 9.42184 11.5891 9.16983 11.4428C8.91781 11.2965 8.70869 11.0866 8.56344 10.834H6.66594C6.44492 10.834 6.23296 10.7462 6.07668 10.5899C5.9204 10.4336 5.8326 10.2217 5.8326 10.0007C5.8326 9.77964 5.9204 9.56768 6.07668 9.4114C6.23296 9.25512 6.44492 9.16732 6.66594 9.16732H8.56344C8.70868 8.91767 8.91629 8.71006 9.16594 8.56482V5.83398C9.16594 5.61297 9.25374 5.40101 9.41002 5.24473C9.5663 5.08845 9.77826 5.00065 9.99927 5.00065C10.2203 5.00065 10.4322 5.08845 10.5885 5.24473C10.7448 5.40101 10.8326 5.61297 10.8326 5.83398V8.56482C11.1505 8.74742 11.399 9.03001 11.5396 9.36857C11.6801 9.70714 11.7048 10.0827 11.6097 10.4367C11.5146 10.7907 11.3051 11.1034 11.0138 11.326C10.7225 11.5485 10.3658 11.6686 9.99927 11.6673V11.6673ZM8.30927 0.0839844C8.47409 0.0839844 8.63521 0.132859 8.77225 0.224426C8.90929 0.315994 9.0161 0.446143 9.07917 0.598415C9.14224 0.750687 9.15875 0.918242 9.12659 1.07989C9.09444 1.24154 9.01507 1.39003 8.89853 1.50657C8.78198 1.62312 8.6335 1.70248 8.47185 1.73464C8.3102 1.76679 8.14264 1.75029 7.99037 1.68722C7.8381 1.62414 7.70795 1.51733 7.61638 1.38029C7.52481 1.24325 7.47594 1.08214 7.47594 0.917318C7.47594 0.696304 7.56374 0.484342 7.72002 0.328062C7.8763 0.171782 8.08826 0.0839844 8.30927 0.0839844V0.0839844ZM4.8926 1.54732C5.05742 1.54732 5.21854 1.59619 5.35558 1.68776C5.49262 1.77933 5.59943 1.90948 5.6625 2.06175C5.72558 2.21402 5.74208 2.38158 5.70993 2.54323C5.67777 2.70488 5.5984 2.85336 5.48186 2.96991C5.36532 3.08645 5.21683 3.16582 5.05518 3.19797C4.89353 3.23013 4.72597 3.21362 4.5737 3.15055C4.42143 3.08748 4.29128 2.98067 4.19971 2.84363C4.10815 2.70659 4.05927 2.54547 4.05927 2.38065C4.05883 2.15978 4.14609 1.94777 4.30187 1.7912C4.45766 1.63463 4.66924 1.54631 4.8901 1.54565L4.8926 1.54732ZM2.3151 4.03482C2.47992 4.03482 2.64104 4.08369 2.77808 4.17526C2.91512 4.26683 3.02193 4.39698 3.085 4.54925C3.14808 4.70152 3.16458 4.86908 3.13243 5.03073C3.10027 5.19238 3.0209 5.34086 2.90436 5.45741C2.78782 5.57395 2.63933 5.65332 2.47768 5.68547C2.31603 5.71763 2.14847 5.70112 1.9962 5.63805C1.84393 5.57498 1.71378 5.46817 1.62221 5.33113C1.53065 5.19409 1.48177 5.03297 1.48177 4.86815C1.48177 4.64714 1.56957 4.43518 1.72585 4.2789C1.88213 4.12262 2.09409 4.03482 2.3151 4.03482V4.03482ZM0.981771 7.50732C1.14659 7.50732 1.30771 7.55619 1.44475 7.64776C1.58179 7.73933 1.6886 7.86948 1.75167 8.02175C1.81474 8.17402 1.83125 8.34158 1.79909 8.50323C1.76694 8.66488 1.68757 8.81336 1.57103 8.92991C1.45448 9.04645 1.306 9.12582 1.14435 9.15797C0.982695 9.19013 0.81514 9.17362 0.662868 9.11055C0.510596 9.04748 0.380447 8.94067 0.288879 8.80363C0.197312 8.66659 0.148438 8.50547 0.148438 8.34065C0.148437 8.11993 0.236006 7.90822 0.391926 7.75198C0.547846 7.59575 0.759379 7.50776 0.980104 7.50732H0.981771Z" fill="#71839B"/>
</g>
<defs>
<clipPath id="clip0_129_22034">
<rect width="20" height="20" fill="white"/>
</clipPath>
</defs>
</svg>
