<svg xmlns="http://www.w3.org/2000/svg" xmlns:xlink="http://www.w3.org/1999/xlink" width="17" height="17" viewBox="0 0 17 17">
  <defs>
    <clipPath id="clip-path">
      <rect id="Rectangle_19219" data-name="Rectangle 19219" width="17" height="17" transform="translate(1333 667)" fill="#6e3333" opacity="0.33"/>
    </clipPath>
  </defs>
  <g id="Mask_Group_208" data-name="Mask Group 208" transform="translate(-1333 -667)" clip-path="url(#clip-path)">
    <g id="icons_Share_Square_Line" data-name="icons/Share Square/Line" transform="translate(1333.5 682.112) rotate(-90)">
      <path id="Shape" d="M4.37.69a.728.728,0,0,1-.689.766c-.548.029-.983.065-1.322.1a.805.805,0,0,0-.779.731,24.7,24.7,0,0,0-.124,2.744A24.7,24.7,0,0,0,1.58,7.775a.8.8,0,0,0,.777.731,41.207,41.207,0,0,0,4.2.168,41.207,41.207,0,0,0,4.2-.168.8.8,0,0,0,.777-.731,24.7,24.7,0,0,0,.124-2.744,24.7,24.7,0,0,0-.124-2.744.805.805,0,0,0-.779-.731c-.339-.036-.774-.072-1.322-.1A.728.728,0,0,1,9.508,0c.57.03,1.03.068,1.4.107a2.259,2.259,0,0,1,2.073,2.014,26.112,26.112,0,0,1,.133,2.909,26.112,26.112,0,0,1-.133,2.909,2.258,2.258,0,0,1-2.072,2.014,42.586,42.586,0,0,1-4.351.176A42.588,42.588,0,0,1,2.2,9.955,2.258,2.258,0,0,1,.133,7.941,26.1,26.1,0,0,1,0,5.031,26.1,26.1,0,0,1,.133,2.122,2.259,2.259,0,0,1,2.206.108C2.574.069,3.033.031,3.6,0A.728.728,0,0,1,4.37.69Z" transform="translate(0 5.896)" fill="#777e90"/>
      <path id="Shape-2" data-name="Shape" d="M3.793,5.312a.728.728,0,0,1-1.03,1.03L.213,3.793a.728.728,0,0,1,0-1.03L2.763.213a.728.728,0,0,1,1.03,1.03L2.487,2.55H9.47a.728.728,0,1,1,0,1.457H2.487Z" transform="translate(9.834) rotate(90)" fill="#777e90"/>
    </g>
  </g>
</svg>
