<svg width="131" height="34" fill="none" xmlns="http://www.w3.org/2000/svg"><path d="M34.8 10.099h4.561c.988 0 1.809.08 2.455.25.646.162 1.17.42 1.547.76.385.34.653.768.806 1.269.16.509.232 1.099.232 1.777 0 .784-.145 1.43-.428 1.956-.283.517-.8.897-1.54 1.123v.09c1.583.443 2.375 1.607 2.375 3.49 0 .679-.08 1.293-.233 1.834a3.067 3.067 0 0 1-.806 1.366c-.384.364-.9.654-1.546.848-.647.194-1.467.291-2.455.291h-4.967V10.1zm3.959 6.206c.479 0 .893-.024 1.234-.073.349-.056.625-.145.85-.275a1.12 1.12 0 0 0 .486-.541c.102-.234.16-.533.16-.913 0-.388-.05-.703-.16-.93a1.143 1.143 0 0 0-.479-.54c-.21-.13-.494-.21-.85-.251-.348-.04-.77-.057-1.249-.057h-.995v3.58h1.003zm.37 6.198c.516 0 .951-.032 1.293-.09.348-.056.624-.153.828-.29.21-.137.355-.331.435-.574.087-.242.124-.565.124-.953 0-.348-.044-.639-.124-.89a1.26 1.26 0 0 0-.428-.597c-.204-.154-.48-.259-.828-.323a7.343 7.343 0 0 0-1.307-.097h-1.366v3.822h1.373v-.008zM50.022 13.444h-2.825v11.71h2.825v-11.71zM55.962 15.909v5.228c0 .348.014.63.05.84.03.219.095.388.182.51.087.129.211.21.37.258.16.049.357.073.603.073.334 0 .618-.032.836-.089v2.432c-.211.025-.429.057-.661.073a6.768 6.768 0 0 1-.705.032c-.646 0-1.198-.056-1.648-.17-.45-.112-.806-.314-1.082-.605s-.472-.687-.596-1.188c-.123-.501-.181-1.14-.181-1.907v-5.487h-1.38v-2.465h1.387v-2.78h2.825v2.78h2.179v2.473h-2.179v-.008zM79.092 13.242c.886 0 1.626.081 2.23.25.602.162 1.088.413 1.459.728.37.315.639.711.799 1.18.167.468.247 1.018.247 1.632v8.113h-2.535l-.269-1.366c-.225.437-.617.809-1.19 1.116-.574.307-1.293.468-2.165.468-1.183 0-2.077-.29-2.687-.88-.61-.582-.915-1.487-.915-2.7 0-1.357.364-2.31 1.104-2.86.734-.55 1.808-.824 3.225-.824h2.614v-.3c0-.347-.03-.646-.087-.888a1.165 1.165 0 0 0-.341-.598c-.168-.154-.393-.267-.683-.34-.29-.072-.661-.105-1.133-.105-.378 0-.755.017-1.133.057s-.748.089-1.111.162V13.42c.407-.056.835-.097 1.307-.13.465-.031.886-.048 1.264-.048zm-.705 9.713c.654 0 1.199-.129 1.656-.38.458-.258.77-.581.951-.985v-1.366h-2.186c-.704 0-1.205.097-1.51.283-.305.186-.457.574-.457 1.172 0 .468.116.792.363.985.247.194.639.291 1.183.291zM89.615 25.274c-.61 0-1.199-.032-1.772-.097a11.415 11.415 0 0 1-1.562-.274v-2.626a9.892 9.892 0 0 0 1.605.404 9.34 9.34 0 0 0 1.569.145c.61 0 1.053-.08 1.329-.234.276-.162.42-.469.42-.93 0-.234-.028-.428-.079-.581a.847.847 0 0 0-.305-.412 2.428 2.428 0 0 0-.61-.316 11.442 11.442 0 0 0-1.031-.315 7.426 7.426 0 0 1-1.38-.485c-.363-.177-.654-.396-.857-.646a2.155 2.155 0 0 1-.428-.913 5.865 5.865 0 0 1-.117-1.269c0-.55.073-1.042.226-1.47.145-.437.392-.8.733-1.1.334-.298.77-.525 1.307-.686.53-.162 1.184-.235 1.946-.235.589 0 1.14.04 1.663.113.523.073.937.162 1.22.283l-.116 2.408c-.145-.04-.32-.089-.523-.137a25.94 25.94 0 0 0-.675-.146c-.24-.04-.486-.08-.74-.113a7.701 7.701 0 0 0-.734-.04c-.654 0-1.09.08-1.315.234-.232.162-.34.445-.34.849 0 .186.02.34.064.46a.603.603 0 0 0 .284.3c.145.088.341.177.595.258.254.089.588.186 1.002.307.574.162 1.046.331 1.424.533.377.194.675.429.9.695.225.267.37.59.458.978.08.38.123.84.123 1.374 0 .695-.094 1.276-.29 1.745a2.818 2.818 0 0 1-.835 1.14c-.364.29-.814.5-1.344.63-.537.113-1.14.17-1.816.17zM105.918 8.669v16.476h-2.549l-.21-1.624c-.211.533-.559.97-1.039 1.317-.486.348-1.213.525-2.171.525-.857 0-1.561-.145-2.106-.42a3.162 3.162 0 0 1-1.285-1.212c-.313-.533-.523-1.172-.64-1.923a16.556 16.556 0 0 1-.174-2.513c0-.84.058-1.625.174-2.36.117-.735.327-1.382.64-1.931a3.44 3.44 0 0 1 1.285-1.301c.544-.315 1.249-.477 2.106-.477.958 0 1.677.154 2.149.469.472.307.814.727 1.024 1.244V8.67h2.796zm-5.083 14.31c.479 0 .879-.08 1.191-.234.312-.161.559-.396.741-.71.181-.316.312-.712.377-1.165.073-.46.109-.977.109-1.575 0-.566-.036-1.075-.109-1.528-.072-.46-.196-.848-.377-1.171a1.965 1.965 0 0 0-.741-.76c-.312-.186-.705-.274-1.191-.274-.494 0-.886.096-1.177.306-.29.203-.515.477-.66.809-.146.339-.247.735-.29 1.18-.044.452-.066.929-.066 1.43 0 .533.022 1.026.065 1.486.044.453.145.84.305 1.172.153.323.378.574.675.76.284.186.669.275 1.148.275zM113.166 13.242c.886 0 1.627.081 2.229.25.603.162 1.09.413 1.46.728.37.315.639.711.799 1.18.167.468.247 1.018.247 1.632v8.113h-2.535l-.268-1.366c-.225.437-.618.809-1.191 1.116-.574.307-1.293.468-2.164.468-1.184 0-2.077-.29-2.687-.88-.61-.582-.915-1.487-.915-2.7 0-1.357.363-2.31 1.103-2.86.734-.55 1.809-.824 3.225-.824h2.614v-.3a3.9 3.9 0 0 0-.087-.888 1.164 1.164 0 0 0-.341-.598c-.167-.154-.392-.267-.683-.34-.283-.072-.661-.105-1.133-.105-.377 0-.755.017-1.133.057-.377.04-.748.089-1.111.162V13.42c.407-.056.835-.097 1.307-.13.465-.031.886-.048 1.264-.048zm-.697 9.713c.653 0 1.198-.129 1.656-.38.457-.258.769-.581.951-.985v-1.366h-2.186c-.704 0-1.205.097-1.51.283-.306.186-.458.574-.458 1.172 0 .468.116.792.363.985.247.194.639.291 1.184.291zM130.471 13.444v16.04h-2.825v-5.963c-.211.55-.552.994-1.024 1.333-.472.34-1.191.51-2.15.51-.857 0-1.561-.146-2.106-.42a3.163 3.163 0 0 1-1.285-1.213c-.312-.533-.523-1.172-.639-1.923a16.584 16.584 0 0 1-.174-2.513c0-.84.058-1.625.174-2.36.116-.735.327-1.382.639-1.931.312-.55.741-.986 1.285-1.301.545-.315 1.249-.477 2.106-.477.959 0 1.678.154 2.15.469.472.315.813.727 1.024 1.244v-1.495h2.825zm-5.105 9.536c.479 0 .878-.081 1.191-.235a1.78 1.78 0 0 0 .74-.71c.182-.316.313-.712.378-1.165.072-.46.109-.977.109-1.575 0-.566-.037-1.075-.109-1.528-.073-.46-.196-.848-.378-1.171a1.956 1.956 0 0 0-.74-.76c-.313-.186-.705-.274-1.191-.274-.494 0-.886.096-1.177.306-.29.202-.516.477-.661.809-.145.339-.247.735-.29 1.18-.044.452-.066.929-.066 1.43 0 .533.022 1.026.066 1.486.043.453.145.84.305 1.172.152.323.377.574.675.76.283.186.668.275 1.148.275zM62.897 14.067h2.636l3.413 7.288h.095l4.64-13.058h2.331L70.595 25H68.19l-3.849-7.879h-.094L62.185 25H59.84l3.057-10.933z" fill="#081131"/><path d="m75.954 5-4.575 3.596 6.078 2.408L75.954 5zM48.613 6.438l-2.97 5.188h5.94l-2.97-5.188zM70.596 25.008l.036-.13-1.655-3.515h-.037l-2.904-6.214-.509-1.074h-2.629l1.729 3.636 3.566 7.297h2.403z" fill="#081131"/><path d="m20.597 16.349 5.274-6.613L17.737 0H.48v34h19.516l7.524-10.247-6.923-7.404zm-5.78-11.004 3.375 4.468-2.37 1.949-4.708-6.417h3.702zM5.6 8.553h1.366l4.14 6.043H5.6V8.553zm0 20.468c-.24 0 0-7.293 0-7.293H6.93l4.905 7.293H5.6zm11.914-1.915-5.395-7.574h4.347l3.659 5.021-2.611 2.553z" fill="url(#a)"/><defs><linearGradient id="a" x1="13.998" y1=".004" x2="13.998" y2="34.005" gradientUnits="userSpaceOnUse"><stop offset="0" stop-color="#FFA700"/><stop offset="1" stop-color="#FF7F00"/></linearGradient></defs></svg>