<svg width="8" height="10" viewBox="0 0 8 10" fill="none" xmlns="http://www.w3.org/2000/svg">
<path d="M6.07973 4.82766L7.54257 3.07722L5.28637 0.5H0.5V9.5H5.91296L8 6.78761L6.07973 4.82766ZM4.47633 1.91477L5.41264 3.0975L4.75508 3.61339L3.44949 1.91477H4.47633ZM1.91995 2.76408H2.29876L3.44711 4.36358H1.91995V2.76408ZM1.91995 8.1821C1.85324 8.1821 1.91995 6.25144 1.91995 6.25144H2.28923L3.64962 8.1821C3.64962 8.1821 1.98666 8.1821 1.91995 8.1821ZM5.22443 7.67522L3.72824 5.67021H4.93377L5.9487 6.99937L5.22443 7.67522Z" fill="url(#paint0_linear_2141_38486)"/>
<defs>
<linearGradient id="paint0_linear_2141_38486" x1="4.24926" y1="0.501014" x2="4.24926" y2="9.50124" gradientUnits="userSpaceOnUse">
<stop offset="5.20186e-07" stop-color="#FFA700"/>
<stop offset="1" stop-color="#FF7F00"/>
</linearGradient>
</defs>
</svg>
