<svg width="78" height="78" viewBox="0 0 78 78" fill="none" xmlns="http://www.w3.org/2000/svg">
<path d="M54.2734 39.5196C63.8091 39.5196 71.5391 31.7896 71.5391 22.2541C71.5391 12.7186 63.8091 4.98853 54.2734 4.98853C44.7379 4.98853 37.0078 12.7186 37.0078 22.2541C37.0078 31.7896 44.7379 39.5196 54.2734 39.5196Z" fill="black"/>
<path d="M54.276 36.4207C62.1002 36.4207 68.4428 30.0781 68.4428 22.2541C68.4428 14.4301 62.1002 8.08746 54.276 8.08746C46.452 8.08746 40.1094 14.4301 40.1094 22.2541C40.1094 30.0781 46.452 36.4207 54.276 36.4207Z" fill="black" stroke="white" stroke-width="0.807017" stroke-linecap="round" stroke-linejoin="round"/>
<path d="M62.0786 20.3737C62.4149 18.1098 60.7077 16.893 58.3681 16.0818L59.1273 13.015L57.2764 12.5514L56.5375 15.5355C56.0493 15.4113 55.5523 15.2996 55.0557 15.1837L55.7986 12.1789L53.9475 11.7154L53.1882 14.7781C52.7859 14.687 52.3919 14.596 52.0061 14.4967V14.4884L49.4572 13.8469L48.9646 15.8376C48.9646 15.8376 50.3356 16.1563 50.3068 16.1729C51.0579 16.3632 51.1934 16.8599 51.1688 17.2572L50.3068 20.7504C50.3601 20.7628 50.4259 20.7835 50.4998 20.8125C50.4381 20.7959 50.3725 20.7793 50.3027 20.7628L49.0918 25.6548C49.0016 25.8825 48.7676 26.2302 48.2423 26.0977C48.2628 26.1266 46.896 25.7583 46.896 25.7583L45.9766 27.8939L48.3859 28.4982C48.8333 28.61 49.2725 28.73 49.7034 28.8417L48.9359 31.9417L50.7829 32.4052L51.5423 29.3384C52.0471 29.475 52.5356 29.6033 53.0158 29.7233L52.2606 32.7777L54.1117 33.2413L54.8793 30.1454C58.0356 30.7456 60.4082 30.5055 61.4055 27.6291C62.2097 25.3113 61.3644 23.9745 59.706 23.1053C60.9167 22.8239 61.8241 22.021 62.0704 20.3654L62.0786 20.3737ZM57.8508 26.3502C57.2803 28.6679 53.4098 27.4138 52.158 27.0993L53.1759 22.9936C54.4319 23.3081 58.4542 23.9331 57.8552 26.3502H57.8508ZM58.4213 20.3406C57.9001 22.4473 54.6781 21.3795 53.6356 21.1146L54.555 17.3897C55.5978 17.6504 58.9633 18.1429 58.4213 20.3406Z" fill="white"/>
<path d="M74.6242 30.4936H3.28594C2.2284 30.4936 1.37109 31.3509 1.37109 32.4084V70.667C1.37109 71.7246 2.2284 72.5819 3.28594 72.5819H74.6242C75.6818 72.5819 76.5391 71.7246 76.5391 70.667V32.4084C76.5391 31.3509 75.6818 30.4936 74.6242 30.4936Z" fill="white" stroke="#3C3C3C" stroke-width="0.5"/>
<path d="M15.8749 41.2091H15.9409C16.4706 41.2431 16.8899 41.6838 16.8899 42.222V47.3915C16.8899 47.9519 16.4353 48.4065 15.8749 48.4065H7.39783C6.83747 48.4065 6.38281 47.9519 6.38281 47.3915V42.222C6.38281 41.6616 6.83533 41.2091 7.39575 41.2091H15.8749Z" fill="#FFA500" stroke="black" stroke-width="0.807017"/>
<path d="M76.2008 55.8H1.80078V64.2H76.2008V55.8Z" fill="#FFA500"/>
</svg>
