<svg xmlns="http://www.w3.org/2000/svg" xmlns:xlink="http://www.w3.org/1999/xlink" width="17" height="17" viewBox="0 0 17 17">
  <defs>
    <clipPath id="clip-path">
      <rect id="Rectangle_19234" data-name="Rectangle 19234" width="17" height="17" transform="translate(1327.8 934)" fill="#6e3333" opacity="0.33"/>
    </clipPath>
  </defs>
  <g id="Mask_Group_222" data-name="Mask Group 222" transform="translate(-1327.8 -934)" clip-path="url(#clip-path)">
    <path id="Path_43589" data-name="Path 43589" d="M758.442,1228.755a.688.688,0,0,1-.2.486.676.676,0,0,1-.484.2h-15.07a.674.674,0,0,1-.484-.2.685.685,0,0,1-.2-.486.682.682,0,0,1,.685-.685h15.07a.682.682,0,0,1,.685.685Zm-16.241-9.9a1.664,1.664,0,0,1,.1-1.754,3.214,3.214,0,0,1,1.143-1.028l5.138-2.678a3.564,3.564,0,0,1,3.27,0l5.138,2.678a3.226,3.226,0,0,1,1.143,1.028,1.679,1.679,0,0,1,.1,1.76,1.876,1.876,0,0,1-.689.726,1.909,1.909,0,0,1-.966.26h-.2v5.48h.685a.682.682,0,0,1,.685.685.688.688,0,0,1-.2.486.677.677,0,0,1-.484.2h-13.7a.674.674,0,0,1-.484-.2.686.686,0,0,1-.2-.486.682.682,0,0,1,.685-.685h.685v-5.48h-.2a1.914,1.914,0,0,1-.967-.26A1.888,1.888,0,0,1,742.2,1218.857Zm3.226,6.473h2.055v-5.48h-2.055Zm3.425-5.48v5.48h2.74v-5.48Zm6.165,0h-2.055v5.48h2.055Zm-11.6-1.624a.474.474,0,0,0,.184.185.487.487,0,0,0,.258.068h12.73a.486.486,0,0,0,.257-.068.476.476,0,0,0,.185-.185.334.334,0,0,0,.043-.178.293.293,0,0,0-.06-.164,1.883,1.883,0,0,0-.65-.6l-5.138-2.672a2.16,2.16,0,0,0-2,0l-5.138,2.672a1.876,1.876,0,0,0-.65.6.3.3,0,0,0-.061.164A.327.327,0,0,0,743.414,1218.227Z" transform="translate(586 -278.44)" fill="#777e90"/>
  </g>
</svg>
