<svg width="20" height="20" viewBox="0 0 20 20" fill="none" xmlns="http://www.w3.org/2000/svg">
<mask id="mask0_129_22016" style="mask-type:alpha" maskUnits="userSpaceOnUse" x="0" y="0" width="20" height="20">
<rect width="20" height="20" fill="black"/>
</mask>
<g mask="url(#mask0_129_22016)">
<path d="M3.14132 11.8756C2.64686 11.8756 2.16351 11.7289 1.75239 11.4542C1.34127 11.1795 1.02084 10.7891 0.831617 10.3323C0.642398 9.87545 0.59289 9.37278 0.689353 8.88783C0.785816 8.40288 1.02392 7.95742 1.37355 7.60779C1.72318 7.25816 2.16864 7.02006 2.65359 6.92359C3.13854 6.82713 3.64121 6.87664 4.09802 7.06586C4.55484 7.25508 4.94529 7.57551 5.21999 7.98663C5.49469 8.39775 5.64132 8.8811 5.64132 9.37556C5.64132 10.0386 5.37792 10.6745 4.90908 11.1433C4.44024 11.6122 3.80436 11.8756 3.14132 11.8756ZM3.14132 7.29222C2.72927 7.29222 2.32648 7.41441 1.98388 7.64333C1.64128 7.87225 1.37425 8.19762 1.21657 8.5783C1.05888 8.95898 1.01763 9.37787 1.09801 9.78199C1.1784 10.1861 1.37682 10.5573 1.66818 10.8487C1.95954 11.1401 2.33075 11.3385 2.73488 11.4189C3.139 11.4992 3.55789 11.458 3.93857 11.3003C4.31925 11.1426 4.64462 10.8756 4.87354 10.533C5.10246 10.1904 5.22465 9.7876 5.22465 9.37556C5.22465 8.82302 5.00516 8.29312 4.61446 7.90242C4.22375 7.51171 3.69385 7.29222 3.14132 7.29222Z" fill="#71839B"/>
<path d="M13.9747 0.833984C13.1094 0.833984 12.2635 1.09057 11.5441 1.5713C10.8246 2.05204 10.2639 2.73532 9.93273 3.53474C9.6016 4.33417 9.51496 5.21384 9.68377 6.0625C9.85258 6.91117 10.2693 7.69072 10.8811 8.30258C11.493 8.91443 12.2725 9.33111 13.1212 9.49992C13.9698 9.66873 14.8495 9.58209 15.6489 9.25096C16.4484 8.91982 17.1317 8.35907 17.6124 7.6396C18.0931 6.92014 18.3497 6.07428 18.3497 5.20898C18.3497 4.04866 17.8888 2.93586 17.0683 2.11539C16.2478 1.29492 15.135 0.833984 13.9747 0.833984ZM13.9747 8.33398C13.3566 8.33398 12.7524 8.15071 12.2385 7.80733C11.7246 7.46395 11.3241 6.97589 11.0876 6.40487C10.8511 5.83385 10.7892 5.20552 10.9097 4.59933C11.0303 3.99314 11.328 3.43631 11.765 2.99928C12.202 2.56224 12.7589 2.26461 13.365 2.14403C13.9712 2.02345 14.5996 2.08534 15.1706 2.32186C15.7416 2.55838 16.2297 2.95892 16.573 3.47283C16.9164 3.98673 17.0997 4.59092 17.0997 5.20898C17.0997 6.03779 16.7705 6.83264 16.1844 7.41869C15.5984 8.00474 14.8035 8.33398 13.9747 8.33398Z" fill="#71839B"/>
<path d="M18.686 10.2019L0.677348 13.6369C0.225261 13.7231 -0.0713219 14.1595 0.0149107 14.6116C0.101143 15.0637 0.537537 15.3603 0.989624 15.2741L18.9983 11.8391C19.4504 11.7528 19.747 11.3164 19.6607 10.8643C19.5745 10.4122 19.1381 10.1157 18.686 10.2019Z" fill="#71839B"/>
<path d="M7.00307 19.291H12.5256C12.6238 19.2916 12.72 19.2629 12.8018 19.2086C12.8837 19.1544 12.9475 19.0769 12.9851 18.9862C13.0228 18.8955 13.0326 18.7957 13.0133 18.6994C12.9939 18.6031 12.9464 18.5148 12.8767 18.4456L10.1129 15.6868C10.0203 15.5947 9.89497 15.543 9.76435 15.543C9.63374 15.543 9.50843 15.5947 9.41579 15.6868L6.65204 18.4456C6.58232 18.5148 6.53476 18.6031 6.51545 18.6994C6.49613 18.7957 6.50593 18.8955 6.54358 18.9862C6.58124 19.0769 6.64506 19.1544 6.72689 19.2086C6.80872 19.2629 6.90487 19.2916 7.00307 19.291Z" fill="#71839B"/>
</g>
<path d="M18 5.5C18 7.433 16.433 9 14.5 9C12.567 9 10.5 6.933 10.5 5C10.5 3.067 12.567 1.5 14.5 1.5C16.433 1.5 18 3.567 18 5.5Z" fill="#71839B"/>
<path d="M5.49769 9C5.49769 11 4.14389 11.6666 3.11296 11.6666C2.08203 11.6666 0.497694 10.5 0.979627 8.99996C0.979627 7.7113 2.08203 7 3.11296 7C4.14389 7 5.49769 7.71134 5.49769 9Z" fill="#71839B"/>
</svg>
