<svg width="20" height="20" viewBox="0 0 20 20" fill="none" xmlns="http://www.w3.org/2000/svg">
<path d="M3.95573 14.5V5.5C3.95573 4.25 4.48906 3.75 5.81406 3.75H6.68073C8.00573 3.75 8.53906 4.25 8.53906 5.5V14.5C8.53906 15.75 8.00573 16.25 6.68073 16.25H5.81406C4.48906 16.25 3.95573 15.75 3.95573 14.5ZM3.95573 10.625H2.28906C1.9474 10.625 1.66406 10.3417 1.66406 10C1.66406 9.65833 1.9474 9.375 2.28906 9.375H3.95573V10.625ZM11.0391 9.375H8.53906V10.625H11.0391V9.375ZM17.7057 10.625H15.6224V9.375H17.7057C18.0474 9.375 18.3307 9.65833 18.3307 10C18.3307 10.3417 18.0474 10.625 17.7057 10.625ZM11.0391 12.8333V7.16667C11.0391 5.91667 11.5724 5.41667 12.8974 5.41667H13.7641C15.0891 5.41667 15.6224 5.91667 15.6224 7.16667V12.8333C15.6224 14.0833 15.0891 14.5833 13.7641 14.5833H12.8974C11.5724 14.5833 11.0391 14.0833 11.0391 12.8333Z" fill="#71839B"/>
</svg>
