<svg width="62" height="62" viewBox="0 0 62 62" fill="none" xmlns="http://www.w3.org/2000/svg">
<circle cx="31" cy="31" r="31" fill="#FFA500" fill-opacity="0.07"/>
<path d="M18.9165 40V22C18.9165 19.5 19.9832 18.5 22.6332 18.5H24.3665C27.0165 18.5 28.0832 19.5 28.0832 22V40C28.0832 42.5 27.0165 43.5 24.3665 43.5H22.6332C19.9832 43.5 18.9165 42.5 18.9165 40Z" fill="#FFA500"/>
<path d="M18.9168 32.25H15.5835C14.9002 32.25 14.3335 31.6833 14.3335 31C14.3335 30.3167 14.9002 29.75 15.5835 29.75H18.9168V32.25Z" fill="#FFA500"/>
<path d="M33.0835 29.75H28.0835V32.25H33.0835V29.75Z" fill="#FFA500"/>
<path d="M46.4167 32.25H42.25V29.75H46.4167C47.1 29.75 47.6667 30.3167 47.6667 31C47.6667 31.6833 47.1 32.25 46.4167 32.25Z" fill="#FFA500"/>
<path opacity="0.4" d="M33.0835 36.6673V25.334C33.0835 22.834 34.1502 21.834 36.8002 21.834H38.5335C41.1835 21.834 42.2502 22.834 42.2502 25.334V36.6673C42.2502 39.1673 41.1835 40.1673 38.5335 40.1673H36.8002C34.1502 40.1673 33.0835 39.1673 33.0835 36.6673Z" fill="#FFA500"/>
</svg>
