<svg width="36" height="23" viewBox="0 0 36 23" fill="none" xmlns="http://www.w3.org/2000/svg">
<path d="M24.8021 22.6921C30.7939 22.6921 35.6511 17.7854 35.6511 11.7328C35.6511 5.68009 30.7939 0.773438 24.8021 0.773438C18.8104 0.773438 13.9531 5.68009 13.9531 11.7328C13.9531 17.7854 18.8104 22.6921 24.8021 22.6921Z" fill="#F7A928"/>
<path d="M10.849 22.6921C16.8407 22.6921 21.698 17.7854 21.698 11.7328C21.698 5.68009 16.8407 0.773438 10.849 0.773438C4.85725 0.773438 0 5.68009 0 11.7328C0 17.7854 4.85725 22.6921 10.849 22.6921Z" fill="#F01728"/>
<path fill-rule="evenodd" clip-rule="evenodd" d="M17.8271 20.1105C20.1948 18.1 21.701 15.0851 21.701 11.7154C21.701 8.34571 20.1948 5.33083 17.8271 3.32031C15.4576 5.33083 13.9531 8.34571 13.9531 11.7154C13.9531 15.0851 15.4576 18.1 17.8271 20.1105Z" fill="#EA6101"/>
</svg>
