<svg width="55" height="55" viewBox="0 0 55 55" fill="none" xmlns="http://www.w3.org/2000/svg">
<circle cx="27.5" cy="27.5" r="27.5" fill="#FAFAFA"/>
<path d="M28 37.81C27.31 37.81 26.66 37.46 26.2 36.85L24.7 34.85C24.67 34.81 24.55 34.75 24.49 34.75H24C19.83 34.75 17.25 33.62 17.25 28V23C17.25 18.58 19.58 16.25 24 16.25H30C30.41 16.25 30.75 16.59 30.75 17C30.75 17.41 30.41 17.75 30 17.75H24C20.42 17.75 18.75 19.42 18.75 23V28C18.75 32.52 20.3 33.25 24 33.25H24.5C25.01 33.25 25.59 33.54 25.9 33.95L27.4 35.95C27.75 36.41 28.25 36.41 28.6 35.95L30.1 33.95C30.43 33.51 30.95 33.25 31.5 33.25H32C35.58 33.25 37.25 31.58 37.25 28V25C37.25 24.59 37.59 24.25 38 24.25C38.41 24.25 38.75 24.59 38.75 25V28C38.75 32.42 36.42 34.75 32 34.75H31.5C31.42 34.75 31.35 34.79 31.3 34.85L29.8 36.85C29.34 37.46 28.69 37.81 28 37.81Z" fill="#71839B"/>
<path d="M28 27C27.44 27 27 26.55 27 26C27 25.45 27.45 25 28 25C28.55 25 29 25.45 29 26C29 26.55 28.56 27 28 27Z" fill="#71839B"/>
<path d="M32 27C31.44 27 31 26.55 31 26C31 25.45 31.45 25 32 25C32.55 25 33 25.45 33 26C33 26.55 32.56 27 32 27Z" fill="#71839B"/>
<path d="M24 27C23.44 27 23 26.55 23 26C23 25.45 23.45 25 24 25C24.55 25 25 25.45 25 26C25 26.55 24.56 27 24 27Z" fill="#71839B"/>
<path d="M35.5 22.75C33.71 22.75 32.25 21.29 32.25 19.5C32.25 17.71 33.71 16.25 35.5 16.25C37.29 16.25 38.75 17.71 38.75 19.5C38.75 21.29 37.29 22.75 35.5 22.75ZM35.5 17.75C34.54 17.75 33.75 18.54 33.75 19.5C33.75 20.46 34.54 21.25 35.5 21.25C36.46 21.25 37.25 20.46 37.25 19.5C37.25 18.54 36.46 17.75 35.5 17.75Z" fill="#71839B"/>
</svg>
