<svg width="15" height="15" viewBox="0 0 15 15" fill="none" xmlns="http://www.w3.org/2000/svg">
<path d="M9.6875 7.03125H5.3125C5.05625 7.03125 4.84375 6.81875 4.84375 6.5625C4.84375 6.30625 5.05625 6.09375 5.3125 6.09375H9.6875C9.94375 6.09375 10.1562 6.30625 10.1562 6.5625C10.1562 6.81875 9.94375 7.03125 9.6875 7.03125Z" fill="#081131"/>
<path d="M10 13.9504C9.7875 13.9504 9.575 13.8879 9.39375 13.7692L6.73124 11.9941H4.375C2.225 11.9941 0.78125 10.5504 0.78125 8.40039V4.65039C0.78125 2.50039 2.225 1.05664 4.375 1.05664H10.625C12.775 1.05664 14.2188 2.50039 14.2188 4.65039V8.40039C14.2188 10.3879 12.9812 11.7754 11.0938 11.9692V12.8566C11.0938 13.2629 10.875 13.6316 10.5187 13.8191C10.3562 13.9066 10.175 13.9504 10 13.9504ZM4.375 1.98788C2.7625 1.98788 1.71875 3.03163 1.71875 4.64413V8.39413C1.71875 10.0066 2.7625 11.0504 4.375 11.0504H6.875C6.96875 11.0504 7.05626 11.0754 7.13751 11.1316L9.91875 12.9817C9.9875 13.0254 10.05 13.0067 10.0813 12.9879C10.1125 12.9692 10.1625 12.9316 10.1625 12.8504V11.5191C10.1625 11.2629 10.375 11.0504 10.6313 11.0504C12.2438 11.0504 13.2875 10.0066 13.2875 8.39413V4.64413C13.2875 3.03163 12.2438 1.98788 10.6313 1.98788H4.375Z" fill="#081131"/>
</svg>
