<svg width="100" height="100" viewBox="0 0 100 100" fill="none" xmlns="http://www.w3.org/2000/svg">
<mask id="mask0_5305_11923" style="mask-type:alpha" maskUnits="userSpaceOnUse" x="0" y="0" width="100" height="100">
<rect width="100" height="100" fill="#D9D9D9"/>
</mask>
<g mask="url(#mask0_5305_11923)">
<g clip-path="url(#clip0_5305_11923)">
<path d="M59.6172 23.4624C75.771 32.0691 73.0787 72.6932 60.3864 88.0778C83.4633 85.0009 106.54 39.6162 59.6172 23.4624Z" fill="#D9D9D9"/>
<path d="M48.8125 23.4624C32.6587 32.0691 35.351 72.6932 48.0433 88.0778C24.9663 85.0009 1.88943 39.6162 48.8125 23.4624Z" fill="#FFA500"/>
<mask id="path-4-inside-1_5305_11923" fill="white">
<path d="M54.0195 21.5425C52.7985 21.5425 51.5783 21.6081 50.3643 21.739C49.2516 21.8526 48.1525 22.039 47.0681 22.2652C46.8583 22.3091 46.6483 22.3554 46.4385 22.4039C40.0498 23.8585 34.2161 27.1249 29.6372 31.8116C29.2114 32.248 28.7945 32.6974 28.3869 33.1596C16.0178 47.3597 17.5022 68.8984 31.7025 81.2675C45.2975 93.1093 65.7613 92.3214 78.4055 79.4694C78.8321 79.0329 79.2488 78.5835 79.6557 78.1214C85.1144 71.905 88.1226 63.9134 88.1178 55.6405C88.1178 36.8085 72.8515 21.5423 54.0195 21.5425ZM31.1523 33.5165C31.3319 33.3301 31.5183 33.1516 31.7013 32.9709C31.9127 32.7629 32.1229 32.5538 32.3389 32.3526C32.5287 32.1753 32.7242 32.0048 32.9186 31.832C33.1379 31.6377 33.3561 31.4433 33.5812 31.2558C33.779 31.0887 33.9824 30.9284 34.1847 30.767C34.4121 30.5852 34.6394 30.4033 34.8735 30.2283C35.0804 30.0726 35.2906 29.9214 35.5021 29.7736C35.7373 29.6054 35.9737 29.4326 36.2136 29.2758C36.4284 29.1303 36.6455 28.9894 36.8637 28.8496C37.1069 28.6939 37.3513 28.5404 37.598 28.3949C37.82 28.2624 38.0435 28.1319 38.2686 28.0039C38.5202 27.8607 38.7728 27.7209 39.0267 27.5845C39.254 27.4633 39.4813 27.3447 39.7086 27.2288C39.9678 27.0981 40.2292 26.9719 40.4918 26.848C40.7191 26.74 40.9555 26.6321 41.1896 26.5298C41.4567 26.4161 41.7272 26.3024 41.9978 26.1888C42.233 26.0922 42.4672 25.9978 42.7047 25.9069C42.9798 25.8023 43.2582 25.7046 43.5367 25.6068C43.7743 25.5239 44.0118 25.4409 44.2528 25.3625C44.5358 25.2715 44.8211 25.1874 45.1075 25.1045C45.3473 25.0351 45.5849 24.9635 45.8258 24.8987C45.9179 24.8749 46.01 24.8555 46.102 24.8317C42.7377 28.0984 40.241 32.1527 38.838 36.6274C36.1403 35.9158 33.5286 34.9108 31.05 33.6301C31.0875 33.5903 31.1193 33.5506 31.1523 33.5165ZM29.5178 35.3464C32.2481 36.8257 35.1433 37.9779 38.1435 38.7789C36.6728 43.8931 35.9007 49.1827 35.8487 54.5039H22.2208C22.4685 47.4869 25.0345 40.75 29.5178 35.3464ZM29.5178 75.9345C25.0348 70.5308 22.4688 63.7939 22.2208 56.7771H35.8487C35.9007 62.0982 36.6726 67.3878 38.1435 72.502C35.1435 73.3033 32.2482 74.4554 29.5178 75.9345ZM45.819 86.3868C45.5894 86.3288 45.3519 86.2538 45.1155 86.1844C44.8279 86.1003 44.5392 86.0162 44.255 85.9242C44.0152 85.8469 43.7788 85.7639 43.5424 85.6809C43.2628 85.5843 42.9832 85.4854 42.707 85.3797C42.4706 85.2899 42.2376 85.1956 42.0034 85.1001C41.7318 84.9865 41.4601 84.8728 41.1908 84.7591C40.9589 84.6568 40.7282 84.5516 40.4986 84.4432C40.2337 84.3181 39.97 84.1908 39.7029 84.059C39.4756 83.9453 39.2483 83.8317 39.021 83.7078C38.7641 83.5703 38.5095 83.4293 38.2549 83.2838C38.0276 83.1577 37.8116 83.0281 37.5923 82.8962C37.3422 82.7462 37.0967 82.5916 36.8512 82.4336C36.6353 82.2961 36.4193 82.1563 36.2068 82.0131C35.9647 81.8494 35.7248 81.6789 35.4873 81.5084C35.2793 81.3596 35.0713 81.2107 34.8667 81.0538C34.6314 80.8765 34.4007 80.6935 34.1711 80.5094C33.9699 80.3491 33.7699 80.19 33.5732 80.0252C33.3459 79.8365 33.1266 79.6399 32.9061 79.4444C32.7128 79.2728 32.5185 79.1034 32.3298 78.9284C32.1127 78.726 31.9024 78.5158 31.691 78.3078C31.508 78.1271 31.3216 77.9486 31.142 77.7633C31.1091 77.7281 31.0773 77.6917 31.0443 77.6576C33.5228 76.3764 36.1344 75.3709 38.8323 74.6593C40.2356 79.1338 42.7321 83.1879 46.0963 86.455C46.0043 86.4311 45.9111 86.4118 45.819 86.3868ZM52.883 87.3756C48.0195 86.6845 43.7561 81.6085 41.0737 74.1126C44.9518 73.2442 48.9093 72.7783 52.883 72.7225V87.3756ZM52.883 70.4493C48.6676 70.5047 44.47 71.0054 40.3599 71.9428C38.9328 67.0118 38.1799 61.9101 38.1219 56.7771H52.883V70.4493ZM52.883 54.5039H38.1219C38.1798 49.3708 38.9326 44.2692 40.3599 39.3382C44.47 40.2754 48.6678 40.7761 52.883 40.8317V54.5039ZM52.883 38.5584C48.9092 38.503 44.9518 38.0372 41.0737 37.1684C43.7561 29.6725 48.0195 24.5964 52.883 23.9053V38.5584ZM78.5214 35.3464C83.0045 40.7501 85.5705 47.487 85.8184 54.5039H72.1905C72.1385 49.1827 71.3666 43.8931 69.8957 38.7789C72.8958 37.9775 75.791 36.8254 78.5214 35.3464ZM62.2111 24.893C62.4498 24.9522 62.6874 25.0272 62.9238 25.0965C63.2113 25.1806 63.5 25.2647 63.7842 25.3568C64.024 25.4341 64.2604 25.517 64.4968 25.6C64.7764 25.6966 65.0561 25.7955 65.3322 25.9012C65.5687 25.991 65.8017 26.0853 66.0358 26.1808C66.3075 26.2945 66.5791 26.4081 66.8485 26.5218C67.0803 26.6241 67.3111 26.7294 67.5407 26.8378C67.8055 26.9628 68.0692 27.0901 68.3363 27.222C68.5636 27.3356 68.7909 27.4493 69.0183 27.5732C69.2751 27.7107 69.5297 27.8516 69.7843 27.9971C70.0117 28.1233 70.2276 28.2529 70.447 28.3847C70.697 28.5347 70.9425 28.6893 71.188 28.8473C71.404 28.9848 71.6199 29.1246 71.8325 29.2678C72.0746 29.4315 72.3133 29.6009 72.5508 29.7714C72.76 29.9202 72.968 30.0703 73.1737 30.226C73.4078 30.4022 73.6374 30.5852 73.8681 30.7693C74.0682 30.9284 74.2694 31.0875 74.466 31.2535C74.6933 31.4422 74.9127 31.6388 75.1332 31.8343C75.3264 32.0059 75.5208 32.1753 75.7094 32.3503C75.9265 32.5526 76.1368 32.7629 76.3482 32.9709C76.5312 33.1516 76.7176 33.3301 76.8972 33.5153C76.9302 33.5506 76.962 33.5869 76.9949 33.621C74.5164 34.9023 71.9048 35.9077 69.2069 36.6194C67.8009 32.1443 65.3011 28.0905 61.9338 24.8249C62.0259 24.8487 62.1191 24.868 62.2111 24.893ZM55.1562 23.9053C60.0198 24.5964 64.2832 29.6725 66.9655 37.1684C63.0874 38.0367 59.1299 38.5026 55.1562 38.5584V23.9053ZM55.1562 40.8317C59.3716 40.7762 63.5692 40.2756 67.6793 39.3382C69.1065 44.2692 69.8593 49.3708 69.9173 54.5039H55.1562V40.8317ZM55.1562 56.7771H69.9173C69.8595 61.9101 69.1066 67.0118 67.6793 71.9428C63.5692 71.0055 59.3716 70.5048 55.1562 70.4493V56.7771ZM55.1562 87.3756V72.7225C59.1301 72.7779 63.0874 73.2438 66.9655 74.1126C64.2832 81.6085 60.0198 86.6845 55.1562 87.3756ZM76.887 77.7645C76.7074 77.9497 76.5221 78.1282 76.3391 78.3089C76.1277 78.5169 75.9163 78.7272 75.6992 78.9295C75.5105 79.1057 75.3162 79.2705 75.123 79.4467C74.9025 79.6421 74.6831 79.8376 74.458 80.0263C74.2591 80.1923 74.0568 80.3525 73.8545 80.5139C73.6272 80.6958 73.3999 80.8776 73.1657 81.0527C72.9589 81.2084 72.7486 81.3596 72.5372 81.5073C72.3019 81.6755 72.0655 81.8483 71.8257 82.0051C71.6108 82.1506 71.3938 82.2916 71.1755 82.4302C70.9323 82.5871 70.6872 82.7387 70.4401 82.8849C70.2128 83.0179 69.9957 83.1474 69.7718 83.2759C69.5202 83.4191 69.2672 83.5589 69.0126 83.6953C68.7853 83.8165 68.5579 83.9351 68.3306 84.051C68.0715 84.1817 67.81 84.3079 67.5475 84.4318C67.3202 84.5398 67.0838 84.6478 66.8496 84.75C66.5825 84.8637 66.312 84.9774 66.0415 85.091C65.8062 85.1865 65.5721 85.282 65.3357 85.3718C65.0583 85.4775 64.7799 85.5764 64.5003 85.673C64.2638 85.7559 64.0274 85.8389 63.7876 85.9162C63.5034 86.0083 63.2193 86.0924 62.9295 86.1753C62.6919 86.2458 62.4532 86.3163 62.2134 86.3811C62.1213 86.4049 62.0293 86.4243 61.9372 86.4481C65.3016 83.1814 67.7983 79.1271 69.2012 74.6525C71.899 75.364 74.5106 76.369 76.9893 77.6497C76.9518 77.6906 76.9199 77.7304 76.887 77.7645ZM78.5214 75.9345C75.7911 74.4552 72.8959 73.303 69.8957 72.502C71.3665 67.3878 72.1385 62.0982 72.1905 56.7771H85.8184C85.5709 63.7939 83.0047 70.531 78.5214 75.9345Z"/>
</mask>
<path d="M54.0195 21.5425C52.7985 21.5425 51.5783 21.6081 50.3643 21.739C49.2516 21.8526 48.1525 22.039 47.0681 22.2652C46.8583 22.3091 46.6483 22.3554 46.4385 22.4039C40.0498 23.8585 34.2161 27.1249 29.6372 31.8116C29.2114 32.248 28.7945 32.6974 28.3869 33.1596C16.0178 47.3597 17.5022 68.8984 31.7025 81.2675C45.2975 93.1093 65.7613 92.3214 78.4055 79.4694C78.8321 79.0329 79.2488 78.5835 79.6557 78.1214C85.1144 71.905 88.1226 63.9134 88.1178 55.6405C88.1178 36.8085 72.8515 21.5423 54.0195 21.5425ZM31.1523 33.5165C31.3319 33.3301 31.5183 33.1516 31.7013 32.9709C31.9127 32.7629 32.1229 32.5538 32.3389 32.3526C32.5287 32.1753 32.7242 32.0048 32.9186 31.832C33.1379 31.6377 33.3561 31.4433 33.5812 31.2558C33.779 31.0887 33.9824 30.9284 34.1847 30.767C34.4121 30.5852 34.6394 30.4033 34.8735 30.2283C35.0804 30.0726 35.2906 29.9214 35.5021 29.7736C35.7373 29.6054 35.9737 29.4326 36.2136 29.2758C36.4284 29.1303 36.6455 28.9894 36.8637 28.8496C37.1069 28.6939 37.3513 28.5404 37.598 28.3949C37.82 28.2624 38.0435 28.1319 38.2686 28.0039C38.5202 27.8607 38.7728 27.7209 39.0267 27.5845C39.254 27.4633 39.4813 27.3447 39.7086 27.2288C39.9678 27.0981 40.2292 26.9719 40.4918 26.848C40.7191 26.74 40.9555 26.6321 41.1896 26.5298C41.4567 26.4161 41.7272 26.3024 41.9978 26.1888C42.233 26.0922 42.4672 25.9978 42.7047 25.9069C42.9798 25.8023 43.2582 25.7046 43.5367 25.6068C43.7743 25.5239 44.0118 25.4409 44.2528 25.3625C44.5358 25.2715 44.8211 25.1874 45.1075 25.1045C45.3473 25.0351 45.5849 24.9635 45.8258 24.8987C45.9179 24.8749 46.01 24.8555 46.102 24.8317C42.7377 28.0984 40.241 32.1527 38.838 36.6274C36.1403 35.9158 33.5286 34.9108 31.05 33.6301C31.0875 33.5903 31.1193 33.5506 31.1523 33.5165ZM29.5178 35.3464C32.2481 36.8257 35.1433 37.9779 38.1435 38.7789C36.6728 43.8931 35.9007 49.1827 35.8487 54.5039H22.2208C22.4685 47.4869 25.0345 40.75 29.5178 35.3464ZM29.5178 75.9345C25.0348 70.5308 22.4688 63.7939 22.2208 56.7771H35.8487C35.9007 62.0982 36.6726 67.3878 38.1435 72.502C35.1435 73.3033 32.2482 74.4554 29.5178 75.9345ZM45.819 86.3868C45.5894 86.3288 45.3519 86.2538 45.1155 86.1844C44.8279 86.1003 44.5392 86.0162 44.255 85.9242C44.0152 85.8469 43.7788 85.7639 43.5424 85.6809C43.2628 85.5843 42.9832 85.4854 42.707 85.3797C42.4706 85.2899 42.2376 85.1956 42.0034 85.1001C41.7318 84.9865 41.4601 84.8728 41.1908 84.7591C40.9589 84.6568 40.7282 84.5516 40.4986 84.4432C40.2337 84.3181 39.97 84.1908 39.7029 84.059C39.4756 83.9453 39.2483 83.8317 39.021 83.7078C38.7641 83.5703 38.5095 83.4293 38.2549 83.2838C38.0276 83.1577 37.8116 83.0281 37.5923 82.8962C37.3422 82.7462 37.0967 82.5916 36.8512 82.4336C36.6353 82.2961 36.4193 82.1563 36.2068 82.0131C35.9647 81.8494 35.7248 81.6789 35.4873 81.5084C35.2793 81.3596 35.0713 81.2107 34.8667 81.0538C34.6314 80.8765 34.4007 80.6935 34.1711 80.5094C33.9699 80.3491 33.7699 80.19 33.5732 80.0252C33.3459 79.8365 33.1266 79.6399 32.9061 79.4444C32.7128 79.2728 32.5185 79.1034 32.3298 78.9284C32.1127 78.726 31.9024 78.5158 31.691 78.3078C31.508 78.1271 31.3216 77.9486 31.142 77.7633C31.1091 77.7281 31.0773 77.6917 31.0443 77.6576C33.5228 76.3764 36.1344 75.3709 38.8323 74.6593C40.2356 79.1338 42.7321 83.1879 46.0963 86.455C46.0043 86.4311 45.9111 86.4118 45.819 86.3868ZM52.883 87.3756C48.0195 86.6845 43.7561 81.6085 41.0737 74.1126C44.9518 73.2442 48.9093 72.7783 52.883 72.7225V87.3756ZM52.883 70.4493C48.6676 70.5047 44.47 71.0054 40.3599 71.9428C38.9328 67.0118 38.1799 61.9101 38.1219 56.7771H52.883V70.4493ZM52.883 54.5039H38.1219C38.1798 49.3708 38.9326 44.2692 40.3599 39.3382C44.47 40.2754 48.6678 40.7761 52.883 40.8317V54.5039ZM52.883 38.5584C48.9092 38.503 44.9518 38.0372 41.0737 37.1684C43.7561 29.6725 48.0195 24.5964 52.883 23.9053V38.5584ZM78.5214 35.3464C83.0045 40.7501 85.5705 47.487 85.8184 54.5039H72.1905C72.1385 49.1827 71.3666 43.8931 69.8957 38.7789C72.8958 37.9775 75.791 36.8254 78.5214 35.3464ZM62.2111 24.893C62.4498 24.9522 62.6874 25.0272 62.9238 25.0965C63.2113 25.1806 63.5 25.2647 63.7842 25.3568C64.024 25.4341 64.2604 25.517 64.4968 25.6C64.7764 25.6966 65.0561 25.7955 65.3322 25.9012C65.5687 25.991 65.8017 26.0853 66.0358 26.1808C66.3075 26.2945 66.5791 26.4081 66.8485 26.5218C67.0803 26.6241 67.3111 26.7294 67.5407 26.8378C67.8055 26.9628 68.0692 27.0901 68.3363 27.222C68.5636 27.3356 68.7909 27.4493 69.0183 27.5732C69.2751 27.7107 69.5297 27.8516 69.7843 27.9971C70.0117 28.1233 70.2276 28.2529 70.447 28.3847C70.697 28.5347 70.9425 28.6893 71.188 28.8473C71.404 28.9848 71.6199 29.1246 71.8325 29.2678C72.0746 29.4315 72.3133 29.6009 72.5508 29.7714C72.76 29.9202 72.968 30.0703 73.1737 30.226C73.4078 30.4022 73.6374 30.5852 73.8681 30.7693C74.0682 30.9284 74.2694 31.0875 74.466 31.2535C74.6933 31.4422 74.9127 31.6388 75.1332 31.8343C75.3264 32.0059 75.5208 32.1753 75.7094 32.3503C75.9265 32.5526 76.1368 32.7629 76.3482 32.9709C76.5312 33.1516 76.7176 33.3301 76.8972 33.5153C76.9302 33.5506 76.962 33.5869 76.9949 33.621C74.5164 34.9023 71.9048 35.9077 69.2069 36.6194C67.8009 32.1443 65.3011 28.0905 61.9338 24.8249C62.0259 24.8487 62.1191 24.868 62.2111 24.893ZM55.1562 23.9053C60.0198 24.5964 64.2832 29.6725 66.9655 37.1684C63.0874 38.0367 59.1299 38.5026 55.1562 38.5584V23.9053ZM55.1562 40.8317C59.3716 40.7762 63.5692 40.2756 67.6793 39.3382C69.1065 44.2692 69.8593 49.3708 69.9173 54.5039H55.1562V40.8317ZM55.1562 56.7771H69.9173C69.8595 61.9101 69.1066 67.0118 67.6793 71.9428C63.5692 71.0055 59.3716 70.5048 55.1562 70.4493V56.7771ZM55.1562 87.3756V72.7225C59.1301 72.7779 63.0874 73.2438 66.9655 74.1126C64.2832 81.6085 60.0198 86.6845 55.1562 87.3756ZM76.887 77.7645C76.7074 77.9497 76.5221 78.1282 76.3391 78.3089C76.1277 78.5169 75.9163 78.7272 75.6992 78.9295C75.5105 79.1057 75.3162 79.2705 75.123 79.4467C74.9025 79.6421 74.6831 79.8376 74.458 80.0263C74.2591 80.1923 74.0568 80.3525 73.8545 80.5139C73.6272 80.6958 73.3999 80.8776 73.1657 81.0527C72.9589 81.2084 72.7486 81.3596 72.5372 81.5073C72.3019 81.6755 72.0655 81.8483 71.8257 82.0051C71.6108 82.1506 71.3938 82.2916 71.1755 82.4302C70.9323 82.5871 70.6872 82.7387 70.4401 82.8849C70.2128 83.0179 69.9957 83.1474 69.7718 83.2759C69.5202 83.4191 69.2672 83.5589 69.0126 83.6953C68.7853 83.8165 68.5579 83.9351 68.3306 84.051C68.0715 84.1817 67.81 84.3079 67.5475 84.4318C67.3202 84.5398 67.0838 84.6478 66.8496 84.75C66.5825 84.8637 66.312 84.9774 66.0415 85.091C65.8062 85.1865 65.5721 85.282 65.3357 85.3718C65.0583 85.4775 64.7799 85.5764 64.5003 85.673C64.2638 85.7559 64.0274 85.8389 63.7876 85.9162C63.5034 86.0083 63.2193 86.0924 62.9295 86.1753C62.6919 86.2458 62.4532 86.3163 62.2134 86.3811C62.1213 86.4049 62.0293 86.4243 61.9372 86.4481C65.3016 83.1814 67.7983 79.1271 69.2012 74.6525C71.899 75.364 74.5106 76.369 76.9893 77.6497C76.9518 77.6906 76.9199 77.7304 76.887 77.7645ZM78.5214 75.9345C75.7911 74.4552 72.8959 73.303 69.8957 72.502C71.3665 67.3878 72.1385 62.0982 72.1905 56.7771H85.8184C85.5709 63.7939 83.0047 70.531 78.5214 75.9345Z" fill="black" stroke="white" stroke-width="0.6" mask="url(#path-4-inside-1_5305_11923)"/>
<path d="M83.1879 83.7106C82.3236 84.9492 81.3495 86.0218 79.963 86.6481C79.6145 86.8053 79.2362 86.9638 78.8632 86.9893C77.0696 87.1089 75.27 87.0361 73.5549 86.4909C71.9721 85.9882 71.0013 84.7208 70.2852 83.2842C68.7466 80.2008 68.531 76.9218 68.9929 73.5741C69.3534 70.9592 70.1885 68.507 71.8194 66.3866C72.7579 65.1679 73.8769 64.082 75.4619 63.9234C77.3229 63.7367 79.2227 63.9228 80.9871 64.5271C82.7928 65.1462 83.7876 66.7117 84.4654 68.4124C86.0992 72.5153 85.8989 76.6538 84.5023 80.7672C84.1581 81.7799 83.631 82.7293 83.1882 83.7079L83.1879 83.7106ZM71.5028 67.4604C71.5294 67.489 71.5571 67.5183 71.5838 67.547C71.3416 67.994 71.071 68.4287 70.8629 68.8903C69.3628 72.2081 68.946 75.6803 69.5105 79.2621C69.8373 81.3374 70.5068 83.2938 71.9842 84.8734C73.5284 86.5232 75.5891 86.7252 77.4326 85.418C78.6602 84.5479 79.5129 83.3614 80.1619 82.0331C81.7247 78.8395 82.2073 75.4571 81.7814 71.9466C81.5082 69.6923 80.8722 67.5586 79.3231 65.8143C77.7235 64.013 75.5576 63.7714 73.6664 65.2599C72.8647 65.8902 72.2204 66.7212 71.5049 67.4617L71.5028 67.4604ZM81.3508 80.9875C82.0065 81.0281 82.718 81.0493 83.4238 81.1249C83.7781 81.1628 83.905 81.0482 84.0251 80.7174C85.0408 77.9078 85.3159 75.018 84.9467 72.07C84.6882 70.0036 84.0623 68.0561 82.7185 66.4126C81.7313 65.2073 80.4718 64.5618 78.785 64.6437C80.3417 65.8998 81.1871 67.5017 81.722 69.2852C82.4167 71.5971 82.6104 73.9644 82.2678 76.3471C82.0466 77.8865 81.6684 79.4039 81.3498 80.9869L81.3508 80.9875ZM80.504 82.6027C80.8665 82.6256 81.1927 82.6166 81.5061 82.6777C81.6881 82.7128 81.8479 82.8599 82.0178 82.9569C81.831 83.0246 81.6483 83.1268 81.4558 83.1488C81.2377 83.1747 81.008 83.1482 80.79 83.1104C80.3411 83.0323 80.0598 83.157 79.8108 83.5852C79.1684 84.69 78.2745 85.5689 77.1584 86.21C77.0515 86.2707 76.9575 86.3542 76.8164 86.4569C80.0428 87.1517 82.2915 84.759 83.5854 81.6299C83.0281 81.5898 82.488 81.5476 81.9463 81.5147C81.2785 81.4735 80.8134 81.7708 80.5511 82.4066C80.5362 82.4435 80.5319 82.4842 80.5057 82.6023L80.504 82.6027Z" fill="black"/>
<path d="M71.5025 67.4589C72.219 66.719 72.8627 65.8891 73.664 65.2571C75.5559 63.7675 77.7218 64.0092 79.3208 65.8115C80.8709 67.5564 81.5052 69.6905 81.7791 71.9437C82.2049 75.4543 81.7216 78.8376 80.1595 82.0302C79.5095 83.3579 78.6568 84.5444 77.4303 85.4151C75.5868 86.7224 73.526 86.5204 71.9818 84.8706C70.5037 83.292 69.8353 81.3362 69.5082 79.2593C68.9447 75.6781 69.3615 72.2059 70.8605 68.8874C71.0692 68.4248 71.3402 67.9918 71.5814 67.5441C71.5548 67.5155 71.5271 67.4862 71.5004 67.4576L71.5025 67.4589ZM73.6564 81.2321L74.4981 79.9153C74.8182 80.3244 75.0722 80.7188 75.3954 81.0458C75.9475 81.6046 76.4581 81.5771 76.9583 80.9919C77.5965 80.2455 77.903 79.3871 77.7598 78.395C77.7293 78.1841 77.7039 77.972 77.6691 77.7134C78.2878 77.8798 78.6003 77.5588 78.8622 77.1332C79.4804 76.1274 79.4479 75.0552 79.0484 74.0196C78.7943 73.3598 78.8673 72.8554 79.3106 72.3614C79.765 71.8571 79.683 71.4001 79.1744 70.9024L78.3867 72.1348C77.6996 71.5695 78.1415 71.1094 78.4658 70.6975C78.8787 70.1739 78.8377 69.7344 78.3306 69.2073L77.4666 70.5591C77.1271 69.9172 76.8414 69.3749 76.5442 68.8122C76.0803 69.277 75.8516 69.6892 76.2252 70.2572C76.4819 70.6475 76.4077 71.054 76.1439 71.4553C75.3828 72.612 74.6485 73.7857 73.9005 74.9492C73.8182 75.0779 73.7085 75.1905 73.5545 75.3792C73.3551 75.0719 73.1948 74.8258 73.0334 74.5791C72.2283 75.2102 72.1652 75.2772 72.6763 76.0998C73.1555 76.8702 73.2264 77.5261 72.5817 78.2147C72.1111 78.7173 72.4345 79.1053 72.8211 79.5554L73.6339 78.2839C74.1994 78.7832 73.9478 79.2199 73.6097 79.6331C73.1934 80.1415 73.025 80.6386 73.6551 81.2342L73.6564 81.2321Z" fill="white"/>
<path d="M81.3535 80.989C81.6722 79.4061 82.0504 77.8887 82.2716 76.3493C82.6131 73.9659 82.4194 71.5986 81.7258 69.2874C81.1901 67.5049 80.3448 65.903 78.7888 64.6459C80.4756 64.5639 81.735 65.2095 82.7223 66.4148C84.0667 68.0573 84.692 70.0058 84.9504 72.0722C85.3187 75.0195 85.0435 77.9094 84.0288 80.7196C83.9088 81.0503 83.7825 81.164 83.4276 81.1271C82.7211 81.0525 82.0102 81.0303 81.3546 80.9897L81.3535 80.989Z" fill="#C6C6C6"/>
<path d="M73.6502 81.2314C73.0201 80.6358 73.1885 80.1386 73.6048 79.6303C73.9429 79.2171 74.1955 78.781 73.629 78.2811L72.8162 79.5526C72.4303 79.1015 72.1062 78.7145 72.5769 78.2119C73.2215 77.5233 73.1506 76.8674 72.6714 76.097C72.1603 75.2743 72.2234 75.2074 73.0285 74.5763C73.1888 74.8224 73.3485 75.0694 73.5496 75.3764C73.7026 75.187 73.8123 75.0744 73.8956 74.9464C74.6443 73.7819 75.3786 72.6081 76.139 71.4525C76.4028 71.0512 76.477 70.6447 76.2203 70.2544C75.8467 69.6864 76.0764 69.2749 76.5393 68.8094C76.8365 69.3721 77.1229 69.9134 77.4617 70.5563L78.3257 69.2045C78.8328 69.7316 78.8738 70.1711 78.4609 70.6947C78.1373 71.1056 77.6947 71.5666 78.3818 72.132L79.1695 70.8996C79.677 71.3966 79.759 71.8536 79.3057 72.3586C78.8614 72.8519 78.7888 73.358 79.0435 74.0168C79.442 75.0518 79.4755 76.1246 78.8573 77.1303C78.5954 77.556 78.2829 77.877 77.6642 77.7106C77.6983 77.9702 77.7244 78.1812 77.7549 78.3922C77.8981 79.3843 77.5916 80.2427 76.9535 80.9891C76.4532 81.5743 75.9436 81.6024 75.3905 81.043C75.0673 80.716 74.8133 80.3216 74.4932 79.9125L73.6515 81.2293L73.6502 81.2314ZM75.733 75.2594C75.6664 75.2661 75.5994 75.2712 75.5327 75.2779L75.0431 76.0439C74.2698 77.2536 74.2702 77.4685 75.2003 78.6112C75.3739 78.8251 75.7305 79.1067 75.9023 79.0512C76.1458 78.9719 76.3712 78.633 76.4662 78.3573C76.566 78.0673 76.5779 77.6993 76.4926 77.404C76.2813 76.6773 75.9918 75.9731 75.733 75.2594ZM77.4406 72.6152L77.2375 72.6289C76.9434 73.0892 76.6273 73.5383 76.3663 74.0168C76.2779 74.1778 76.2633 74.4411 76.331 74.612C76.4554 74.9279 76.6315 75.2377 76.8511 75.4955C77.005 75.6766 77.2872 75.8976 77.4703 75.8653C77.6653 75.8303 77.8682 75.5424 77.9636 75.3206C78.0608 75.0912 78.1059 74.7894 78.0457 74.5522C77.8795 73.8979 77.6469 73.259 77.4406 72.6152Z" fill="black"/>
<path d="M75.7354 75.2594C75.9932 75.9723 76.2837 76.6772 76.495 77.4039C76.581 77.6982 76.5684 78.0672 76.4686 78.3573C76.3736 78.633 76.1482 78.9719 75.9047 79.0511C75.7329 79.1066 75.3763 78.8251 75.2027 78.6111C74.2726 77.4684 74.2722 77.2535 75.0455 76.0438L75.5351 75.2778C75.6017 75.2711 75.6688 75.2661 75.7354 75.2594Z" fill="white"/>
<path d="M77.4492 72.6173C77.6558 73.2627 77.8881 73.8999 78.0542 74.5543C78.1144 74.7914 78.0694 75.0933 77.9721 75.3226C77.8777 75.5451 77.6745 75.8314 77.4789 75.8673C77.2958 75.8997 77.0129 75.6797 76.8596 75.4976C76.6407 75.2388 76.464 74.93 76.3396 74.6141C76.2719 74.4432 76.2865 74.1799 76.3749 74.0189C76.6358 73.5403 76.9519 73.0912 77.2461 72.631L77.4492 72.6173Z" fill="white"/>
</g>
<path d="M39.8273 13.4649C39.0453 13.7802 38.2743 14.1235 37.4788 14.3984C37.0487 14.5475 36.8263 14.7931 36.6809 15.2135C36.4121 15.9906 36.0834 16.747 35.7791 17.5107C35.7241 17.5156 35.6679 17.5217 35.6129 17.5266C35.3612 16.9046 35.0545 16.2973 34.8725 15.6558C34.6513 14.8787 34.2126 14.4253 33.4318 14.2054C32.783 14.0233 32.1683 13.7215 31.5391 13.4735C31.5415 13.4172 31.544 13.3623 31.5464 13.3061C32.3272 12.992 33.1007 12.6609 33.8913 12.3737C34.2823 12.232 34.523 12.0267 34.6647 11.6149C34.9397 10.8146 35.2867 10.0399 35.6032 9.25417C35.6594 9.24684 35.7156 9.23829 35.7706 9.23096C36.0027 9.8187 36.285 10.3918 36.4536 10.9979C36.6931 11.8544 37.1794 12.3786 38.0531 12.6132C38.6653 12.777 39.2445 13.0666 39.8383 13.2999L39.8273 13.4661V13.4649Z" fill="black"/>
<path d="M23.9535 46.7868C23.0893 48.0254 22.1151 49.098 20.7286 49.7243C20.3801 49.8815 20.0018 50.04 19.6288 50.0655C17.8353 50.1851 16.0357 50.1123 14.3205 49.567C12.7377 49.0643 11.7669 47.797 11.0509 46.3604C9.51225 43.277 9.29658 39.998 9.75852 36.6503C10.119 34.0354 10.9541 31.5832 12.585 29.4627C13.5235 28.2441 14.6425 27.1582 16.2275 26.9995C18.0886 26.8129 19.9883 26.999 21.7527 27.6033C23.5584 28.2224 24.5532 29.7878 25.231 31.4886C26.8648 35.5914 26.6646 39.7299 25.2679 43.8434C24.9237 44.856 24.3966 45.8054 23.9538 46.7841L23.9535 46.7868ZM12.2684 30.5366C12.2951 30.5652 12.3228 30.5945 12.3494 30.6231C12.1072 31.0702 11.8366 31.5048 11.6285 31.9664C10.1285 35.2843 9.71162 38.7565 10.2762 42.3383C10.6029 44.4135 11.2724 46.37 12.7498 47.9496C14.294 49.5994 16.3547 49.8014 18.1983 48.4941C19.4258 47.6241 20.2785 46.4376 20.9275 45.1092C22.4903 41.9156 22.9729 38.5333 22.5471 35.0228C22.2738 32.7685 21.6379 30.6348 20.0888 28.8905C18.4891 27.0892 16.3232 26.8475 14.432 28.3361C13.6303 28.9664 12.986 29.7974 12.2705 30.5379L12.2684 30.5366ZM22.1164 44.0637C22.7721 44.1043 23.4836 44.1255 24.1895 44.2011C24.5437 44.239 24.6707 44.1243 24.7907 43.7936C25.8064 40.984 26.0816 38.0942 25.7123 35.1462C25.4539 33.0798 24.8279 31.1323 23.4841 29.4888C22.4969 28.2835 21.2375 27.6379 19.5507 27.7199C21.1073 28.9759 21.9527 30.5779 22.4877 32.3614C23.1823 34.6733 23.376 37.0406 23.0335 39.4233C22.8123 40.9627 22.4341 42.4801 22.1154 44.063L22.1164 44.0637ZM21.2696 45.6789C21.6321 45.7017 21.9583 45.6927 22.2717 45.7538C22.4537 45.789 22.6135 45.936 22.7835 46.0331C22.5967 46.1008 22.4139 46.2029 22.2214 46.2249C22.0033 46.2508 21.7737 46.2244 21.5557 46.1866C21.1067 46.1084 20.8254 46.2332 20.5764 46.6613C19.934 47.7662 19.0401 48.645 17.924 49.2861C17.8171 49.3468 17.7231 49.4303 17.582 49.5331C20.8084 50.2278 23.0571 47.8352 24.351 44.7061C23.7937 44.6659 23.2536 44.6238 22.712 44.5908C22.0441 44.5497 21.579 44.847 21.3167 45.4827C21.3018 45.5196 21.2975 45.5604 21.2713 45.6785L21.2696 45.6789Z" fill="black"/>
<path d="M12.2681 30.5346C12.9847 29.7947 13.6283 28.9647 14.4296 28.3327C16.3215 26.8432 18.4874 27.0848 20.0864 28.8872C21.6365 30.6321 22.2708 32.7662 22.5447 35.0194C22.9706 38.53 22.4873 41.9133 20.9251 45.1059C20.2751 46.4336 19.4224 47.6201 18.1959 48.4908C16.3524 49.7981 14.2917 49.5961 12.7475 47.9463C11.2694 46.3677 10.6009 44.4119 10.2738 42.3349C9.71028 38.7538 10.1271 35.2816 11.6262 31.9631C11.8349 31.5005 12.1058 31.0675 12.347 30.6198C12.3204 30.5912 12.2927 30.5619 12.266 30.5332L12.2681 30.5346ZM14.422 44.3078L15.2637 42.991C15.5838 43.4001 15.8378 43.7945 16.161 44.1215C16.7131 44.6803 17.2237 44.6528 17.724 44.0676C18.3621 43.3212 18.6686 42.4628 18.5254 41.4707C18.4949 41.2597 18.4695 41.0477 18.4347 40.7891C19.0534 40.9554 19.3659 40.6345 19.6278 40.2088C20.2461 39.2031 20.2136 38.1309 19.814 37.0953C19.5599 36.4355 19.6329 35.931 20.0763 35.4371C20.5306 34.9328 20.4486 34.4758 19.94 33.9781L19.1523 35.2105C18.4652 34.6451 18.9071 34.1851 19.2314 33.7731C19.6443 33.2496 19.6033 32.8101 19.0963 32.283L18.2322 33.6348C17.8927 32.9929 17.607 32.4506 17.3098 31.8879C16.8459 32.3527 16.6172 32.7649 16.9909 33.3329C17.2475 33.7232 17.1733 34.1297 16.9095 34.531C16.1485 35.6876 15.4142 36.8614 14.6661 38.0249C14.5838 38.1536 14.4741 38.2662 14.3202 38.4549C14.1207 38.1476 13.9604 37.9015 13.799 37.6548C12.9939 38.2859 12.9308 38.3528 13.4419 39.1755C13.9211 39.9459 13.992 40.6018 13.3474 41.2904C12.8767 41.793 13.2001 42.181 13.5867 42.6311L14.3995 41.3596C14.965 41.8589 14.7134 42.2955 14.3753 42.7088C13.959 43.2171 13.7906 43.7142 14.4207 44.3099L14.422 44.3078Z" fill="white"/>
<path d="M22.1191 44.0657C22.4378 42.4827 22.816 40.9654 23.0372 39.4259C23.3787 37.0426 23.185 34.6753 22.4914 32.364C21.9558 30.5816 21.1104 28.9796 19.5544 27.7226C21.2412 27.6406 22.5007 28.2861 23.4879 29.4915C24.8323 31.1339 25.4576 33.0824 25.716 35.1489C26.0843 38.0962 25.8091 40.986 24.7945 43.7962C24.6744 44.127 24.5481 44.2406 24.1932 44.2037C23.4867 44.1292 22.7758 44.107 22.1202 44.0664L22.1191 44.0657Z" fill="#C6C6C6"/>
<path d="M14.4158 44.3076C13.7857 43.7119 13.9541 43.2148 14.3704 42.7065C14.7085 42.2932 14.9611 41.8572 14.3946 41.3573L13.5818 42.6288C13.1959 42.1776 12.8718 41.7907 13.3425 41.2881C13.9871 40.5994 13.9162 39.9436 13.437 39.1732C12.9259 38.3505 12.9891 38.2835 13.7941 37.6525C13.9545 37.8985 14.1141 38.1456 14.3153 38.4526C14.4682 38.2632 14.5779 38.1506 14.6612 38.0225C15.4099 36.858 16.1442 35.6843 16.9046 34.5287C17.1684 34.1274 17.2426 33.7209 16.986 33.3306C16.6123 32.7626 16.842 32.3511 17.3049 31.8856C17.6022 32.4483 17.8885 32.9895 18.2273 33.6324L19.0914 32.2806C19.5984 32.8078 19.6394 33.2473 19.2265 33.7708C18.9029 34.1818 18.4603 34.6428 19.1474 35.2082L19.9352 33.9758C20.4427 34.4728 20.5247 34.9298 20.0714 35.4348C19.627 35.9281 19.5544 36.4342 19.8091 37.093C20.2076 38.1279 20.2412 39.2008 19.623 40.2065C19.361 40.6322 19.0486 40.9531 18.4298 40.7867C18.4639 41.0464 18.49 41.2574 18.5205 41.4683C18.6637 42.4604 18.3572 43.3188 17.7191 44.0653C17.2189 44.6505 16.7093 44.6786 16.1561 44.1191C15.8329 43.7922 15.5789 43.3978 15.2588 42.9887L14.4171 44.3055L14.4158 44.3076ZM16.4986 38.3356C16.432 38.3423 16.365 38.3473 16.2983 38.354L15.8087 39.12C15.0354 40.3298 15.0359 40.5447 15.9659 41.6874C16.1395 41.9013 16.4961 42.1829 16.6679 42.1274C16.9115 42.0481 17.1368 41.7092 17.2318 41.4335C17.3317 41.1435 17.3435 40.7755 17.2582 40.4802C17.0469 39.7534 16.7575 39.0492 16.4986 38.3356ZM18.2063 35.6914L18.0032 35.7051C17.709 36.1653 17.3929 36.6144 17.132 37.093C17.0435 37.254 17.029 37.5173 17.0967 37.6882C17.221 38.0041 17.3972 38.3139 17.6167 38.5717C17.7707 38.7528 18.0529 38.9738 18.236 38.9414C18.4309 38.9065 18.6338 38.6185 18.7292 38.3967C18.8264 38.1674 18.8715 37.8655 18.8113 37.6284C18.6452 36.974 18.4125 36.3352 18.2063 35.6914Z" fill="black"/>
<path d="M16.501 38.3351C16.7588 39.048 17.0493 39.7529 17.2606 40.4796C17.3466 40.7739 17.334 41.1429 17.2342 41.433C17.1392 41.7087 16.9139 42.0476 16.6703 42.1268C16.4985 42.1823 16.1419 41.9007 15.9683 41.6868C15.0382 40.5441 15.0378 40.3292 15.8111 39.1195L16.3007 38.3535C16.3674 38.3468 16.4344 38.3418 16.501 38.3351Z" fill="white"/>
<path d="M18.2148 35.6929C18.4215 36.3384 18.6537 36.9756 18.8199 37.63C18.88 37.8671 18.835 38.169 18.7377 38.3983C18.6434 38.6208 18.4401 38.9071 18.2445 38.943C18.0614 38.9754 17.7786 38.7554 17.6252 38.5733C17.4064 38.3145 17.2296 38.0057 17.1052 37.6898C17.0375 37.5189 17.0521 37.2556 17.1405 37.0946C17.4014 36.616 17.7175 36.1669 18.0117 35.7067L18.2148 35.6929Z" fill="white"/>
<mask id="mask1_5305_11923" style="mask-type:alpha" maskUnits="userSpaceOnUse" x="57" y="10" width="31" height="31">
<path d="M86.2438 20.721C83.943 13.2633 75.7047 9.19083 67.8484 11.6144C59.992 14.0379 55.4796 22.0438 57.7802 29.5015L58.134 30.6486C60.4346 38.1062 68.673 42.1787 76.5293 39.7552C84.3856 37.3316 88.8982 29.3257 86.5974 21.8681L86.2438 20.721Z" fill="#C6D2E4" stroke="black" stroke-width="0.284713" stroke-linejoin="round"/>
</mask>
<g mask="url(#mask1_5305_11923)">
<path d="M85.7435 20.6495C83.4775 13.3041 75.3632 9.29296 67.6252 11.68C59.8872 14.0671 55.4427 21.9524 57.7087 29.2978L58.0572 30.4276C60.3231 37.773 68.4375 41.7842 76.1755 39.3971C83.9134 37.0101 88.358 29.1247 86.0918 21.7793L85.7435 20.6495Z" fill="#FFA500" stroke="black" stroke-width="0.284713" stroke-linejoin="round"/>
</g>
<path d="M67.4262 11.4507C59.7403 13.8217 55.3304 21.6834 57.5933 29.019C59.8562 36.3546 67.9287 40.3657 75.6146 37.9947C83.3006 35.6237 87.7104 27.762 85.4478 20.4264C83.1847 13.0908 75.1122 9.07972 67.4262 11.4507Z" fill="white" stroke="black" stroke-width="0.5" stroke-linejoin="round"/>
<path d="M67.9526 13.1061C61.3941 15.1293 57.6295 21.8385 59.5611 28.1002C61.4928 34.3619 68.3828 37.7844 74.9413 35.7611C81.4998 33.738 85.2641 27.0287 83.3327 20.7671C81.4011 14.5054 74.5111 11.0829 67.9526 13.1061Z" fill="black" stroke="black" stroke-width="0.5" stroke-linejoin="round"/>
<path d="M67.6568 13.8126C61.1385 15.8234 57.4174 22.5482 59.3581 28.8395C61.2989 35.1309 68.1619 38.5907 74.6801 36.58C81.1983 34.5692 84.9193 27.8444 82.9787 21.553C81.0379 15.2616 74.175 11.8019 67.6568 13.8126Z" fill="white" stroke="black" stroke-width="0.5" stroke-linejoin="round"/>
<mask id="mask2_5305_11923" style="mask-type:alpha" maskUnits="userSpaceOnUse" x="24" y="78" width="14" height="14">
<path d="M25.0282 82.7409C26.0174 79.5347 29.5592 77.7838 32.9368 78.8258C36.3144 79.8677 38.2543 83.3096 37.2653 86.5158L37.1131 87.0089C36.1241 90.2151 32.5823 91.966 29.2047 90.924C25.8271 89.8821 23.8871 86.4402 24.8762 83.234L25.0282 82.7409Z" fill="#C6D2E4" stroke="black" stroke-width="0.284713" stroke-linejoin="round"/>
</mask>
<g mask="url(#mask2_5305_11923)">
<path d="M25.2399 82.7087C26.2141 79.5507 29.7026 77.8263 33.0293 78.8525C36.356 79.8787 38.2668 83.2688 37.2926 86.4267L37.1427 86.9124C36.1686 90.0704 32.6801 91.7948 29.3534 90.7686C26.0267 89.7424 24.1159 86.3523 25.0902 83.1944L25.2399 82.7087Z" fill="#FFA500" stroke="black" stroke-width="0.284713" stroke-linejoin="round"/>
</g>
<path d="M33.1113 78.7545C36.4157 79.7738 38.3115 83.1537 37.3387 86.3074C36.3658 89.4611 32.8953 91.1856 29.591 90.1662C26.2866 89.1469 24.3908 85.767 25.3635 82.6133C26.3364 79.4596 29.807 77.7352 33.1113 78.7545Z" fill="white" stroke="black" stroke-width="0.5" stroke-linejoin="round"/>
<path d="M32.8856 79.4664C35.7052 80.3362 37.3237 83.2206 36.4932 85.9126C35.6628 88.6047 32.7006 90.076 29.881 89.2062C27.0613 88.3364 25.443 85.452 26.2733 82.76C27.1038 80.068 30.0659 78.5966 32.8856 79.4664Z" fill="black" stroke="black" stroke-width="0.5" stroke-linejoin="round"/>
<path d="M33.008 79.7693C35.8103 80.6338 37.4101 83.5249 36.5757 86.2297C35.7414 88.9344 32.7908 90.4219 29.9885 89.5574C27.1862 88.693 25.5865 85.8018 26.4208 83.097C27.2552 80.3923 30.2057 78.9048 33.008 79.7693Z" fill="white" stroke="black" stroke-width="0.5" stroke-linejoin="round"/>
</g>
<defs>
<clipPath id="clip0_5305_11923">
<rect width="68.1177" height="68.1177" fill="white" transform="translate(20 21.5396)"/>
</clipPath>
</defs>
</svg>
