<svg width="30" height="30" viewBox="0 0 30 30" fill="none" xmlns="http://www.w3.org/2000/svg">
<g clip-path="url(#clip0_275_1592)">
<rect width="30" height="30" rx="15" fill="#222930"/>
</g>
<path d="M20.7015 7.72196C20.5966 7.42601 20.1781 7.42601 20.0732 7.72196L19.7138 8.7363C19.6802 8.83103 19.6057 8.90556 19.511 8.93913L18.4966 9.29854C18.2007 9.4034 18.2007 9.82194 18.4966 9.92681L19.511 10.2862C19.6057 10.3198 19.6802 10.3943 19.7138 10.489L20.0732 11.5034C20.1781 11.7993 20.5966 11.7993 20.7015 11.5034L21.0609 10.489C21.0944 10.3943 21.169 10.3198 21.2637 10.2862L22.278 9.92681C22.574 9.82194 22.574 9.4034 22.278 9.29854L21.2637 8.93913C21.169 8.90556 21.0944 8.83103 21.0609 8.7363L20.7015 7.72196Z" fill="white"/>
<path d="M16.79 11.0336C16.8625 10.8292 17.1516 10.8292 17.224 11.0336L17.4221 11.5927C17.4453 11.6581 17.4968 11.7096 17.5623 11.7328L18.1213 11.9309C18.3258 12.0033 18.3258 12.2924 18.1213 12.3649L17.5623 12.563C17.4968 12.5862 17.4453 12.6377 17.4221 12.7031L17.224 13.2621C17.1516 13.4666 16.8625 13.4666 16.79 13.2621L16.5919 12.7031C16.5688 12.6377 16.5173 12.5862 16.4518 12.563L15.8928 12.3649C15.6883 12.2924 15.6883 12.0033 15.8928 11.9309L16.4518 11.7328C16.5173 11.7096 16.5688 11.6581 16.5919 11.5927L16.79 11.0336Z" fill="white"/>
<path d="M18.975 13.5177C19.0233 13.3814 19.2161 13.3814 19.2644 13.5177L19.3965 13.8904C19.4119 13.934 19.4462 13.9684 19.4899 13.9838L19.8626 14.1159C19.9989 14.1642 19.9989 14.3569 19.8626 14.4052L19.4899 14.5373C19.4462 14.5527 19.4119 14.5871 19.3965 14.6307L19.2644 15.0034C19.2161 15.1397 19.0233 15.1397 18.975 15.0034L18.843 14.6307C18.8275 14.5871 18.7932 14.5527 18.7496 14.5373L18.3769 14.4052C18.2406 14.3569 18.2406 14.1642 18.3769 14.1159L18.7496 13.9838C18.7932 13.9684 18.8275 13.934 18.843 13.8904L18.975 13.5177Z" fill="white"/>
<path d="M14.2789 8.87568C14.4079 9.10136 14.386 9.38291 14.2237 9.58593C13.5426 10.4378 13.1393 11.5043 13.1393 12.662C13.1393 15.4232 15.448 17.6923 18.3345 17.6923C19.1274 17.6923 19.8767 17.5208 20.5467 17.215C20.7822 17.1075 21.0593 17.154 21.2468 17.3324C21.4343 17.5109 21.4944 17.7854 21.3987 18.0259C20.3541 20.651 17.739 22.5 14.6914 22.5C10.737 22.5 7.5 19.3804 7.5 15.4941C7.5 11.9592 10.1797 9.0573 13.6389 8.56274C13.8962 8.52595 14.1499 8.65 14.2789 8.87568Z" fill="white"/>
<defs>
<clipPath id="clip0_275_1592">
<rect width="30" height="30" rx="15" fill="white"/>
</clipPath>
</defs>
</svg>
