<svg width="24" height="24" viewBox="0 0 24 24" fill="none" xmlns="http://www.w3.org/2000/svg">
<path d="M2.75177 18.65C2.34177 18.65 2.00177 18.31 2.00177 17.9V12.2C1.95177 9.49005 2.96177 6.93005 4.84177 5.01005C6.72177 3.10005 9.24177 2.05005 11.9518 2.05005C17.4918 2.05005 22.0018 6.56005 22.0018 12.1V17.8C22.0018 18.21 21.6618 18.55 21.2518 18.55C20.8418 18.55 20.5018 18.21 20.5018 17.8V12.1C20.5018 7.39005 16.6718 3.55005 11.9518 3.55005C9.64177 3.55005 7.50177 4.44005 5.91177 6.06005C4.31177 7.69005 3.46177 9.86005 3.50177 12.18V17.89C3.50177 18.31 3.17177 18.65 2.75177 18.65Z" fill="#71839B"/>
<path d="M5.94 12.45H5.81C3.71 12.45 2 14.16 2 16.26V18.14C2 20.24 3.71 21.95 5.81 21.95H5.94C8.04 21.95 9.75 20.24 9.75 18.14V16.26C9.75 14.16 8.04 12.45 5.94 12.45Z" fill="#71839B"/>
<path d="M18.19 12.45H18.06C15.96 12.45 14.25 14.16 14.25 16.26V18.14C14.25 20.24 15.96 21.95 18.06 21.95H18.19C20.29 21.95 22 20.24 22 18.14V16.26C22 14.16 20.29 12.45 18.19 12.45Z" fill="#71839B"/>
</svg>
