<svg width="20" height="20" viewBox="0 0 20 20" fill="none" xmlns="http://www.w3.org/2000/svg">
<path d="M16.182 9.79199H13.332C12.9904 9.79199 12.707 9.50866 12.707 9.16699V3.34199C12.707 2.72532 12.9487 2.15033 13.382 1.71699C13.8154 1.28366 14.3904 1.04199 15.007 1.04199H15.0154C16.057 1.05033 17.0404 1.45866 17.7904 2.20033C18.5404 2.95866 18.9487 3.95866 18.9487 5.00033V7.01699C18.957 8.67532 17.8404 9.79199 16.182 9.79199ZM13.957 8.54199H16.182C17.1487 8.54199 17.707 7.98366 17.707 7.01699V5.00033C17.707 4.28366 17.4237 3.60033 16.9154 3.08366C16.407 2.58366 15.7237 2.30033 15.0154 2.29199C15.0154 2.29199 15.0154 2.29199 15.007 2.29199C14.732 2.29199 14.4654 2.40032 14.2654 2.60032C14.0654 2.80032 13.957 3.05866 13.957 3.34199V8.54199Z" fill="#71839B"/>
<path d="M7.5013 19.442C7.10964 19.442 6.74297 19.292 6.46797 19.0087L5.08464 17.617C5.00964 17.542 4.89297 17.5337 4.80964 17.6003L3.3763 18.667C2.93464 19.0003 2.3513 19.0587 1.8513 18.8087C1.3513 18.5587 1.04297 18.0587 1.04297 17.5003V5.00033C1.04297 2.48366 2.48464 1.04199 5.0013 1.04199H15.0013C15.343 1.04199 15.6263 1.32533 15.6263 1.66699C15.6263 2.00866 15.343 2.29199 15.0013 2.29199C14.4263 2.29199 13.9596 2.75866 13.9596 3.33366V17.5003C13.9596 18.0587 13.6513 18.5587 13.1513 18.8087C12.6513 19.0587 12.068 19.0087 11.6263 18.6753L10.2013 17.6087C10.118 17.542 10.0013 17.5587 9.93464 17.6253L8.53464 19.0253C8.25963 19.292 7.89297 19.442 7.5013 19.442ZM4.9263 16.3087C5.30964 16.3087 5.68464 16.4503 5.96797 16.742L7.3513 18.1337C7.4013 18.1837 7.46797 18.192 7.5013 18.192C7.53464 18.192 7.6013 18.1837 7.6513 18.1337L9.0513 16.7337C9.56797 16.217 10.3846 16.167 10.9596 16.6087L12.3763 17.667C12.468 17.7337 12.5513 17.7087 12.593 17.6837C12.6346 17.6587 12.7096 17.6087 12.7096 17.5003V3.33366C12.7096 2.95866 12.8013 2.60033 12.9596 2.29199H5.0013C3.1513 2.29199 2.29297 3.15033 2.29297 5.00033V17.5003C2.29297 17.617 2.36797 17.667 2.40964 17.692C2.45964 17.717 2.54297 17.7337 2.6263 17.667L4.0513 16.6003C4.30964 16.4087 4.61797 16.3087 4.9263 16.3087Z" fill="#71839B"/>
<path d="M10 11.4668H7.5C7.15833 11.4668 6.875 11.1835 6.875 10.8418C6.875 10.5001 7.15833 10.2168 7.5 10.2168H10C10.3417 10.2168 10.625 10.5001 10.625 10.8418C10.625 11.1835 10.3417 11.4668 10 11.4668Z" fill="#71839B"/>
<path d="M10 8.13379H7.5C7.15833 8.13379 6.875 7.85046 6.875 7.50879C6.875 7.16712 7.15833 6.88379 7.5 6.88379H10C10.3417 6.88379 10.625 7.16712 10.625 7.50879C10.625 7.85046 10.3417 8.13379 10 8.13379Z" fill="#71839B"/>
<path d="M4.97396 8.34147C4.51562 8.34147 4.14062 7.96647 4.14062 7.50814C4.14062 7.0498 4.51562 6.6748 4.97396 6.6748C5.43229 6.6748 5.80729 7.0498 5.80729 7.50814C5.80729 7.96647 5.43229 8.34147 4.97396 8.34147Z" fill="#71839B"/>
<path d="M4.97396 11.6755C4.51562 11.6755 4.14062 11.3005 4.14062 10.8421C4.14062 10.3838 4.51562 10.0088 4.97396 10.0088C5.43229 10.0088 5.80729 10.3838 5.80729 10.8421C5.80729 11.3005 5.43229 11.6755 4.97396 11.6755Z" fill="#71839B"/>
</svg>
