<svg width="20" height="20" viewBox="0 0 20 20" fill="none" xmlns="http://www.w3.org/2000/svg">
<path d="M5.83073 1.66602H4.9974C2.4974 1.66602 1.66406 3.15768 1.66406 4.99935V5.83268V17.4993C1.66406 18.191 2.4474 18.5827 2.9974 18.166L4.4224 17.0993C4.75573 16.8493 5.2224 16.8827 5.5224 17.1827L6.90573 18.5744C7.23073 18.8994 7.76406 18.8994 8.08906 18.5744L9.48906 17.1743C9.78073 16.8827 10.2474 16.8493 10.5724 17.0993L11.9974 18.166C12.5474 18.5743 13.3307 18.1827 13.3307 17.4993V3.33268C13.3307 2.41602 14.0807 1.66602 14.9974 1.66602H5.83073ZM4.9724 11.6743C4.51406 11.6743 4.13906 11.2993 4.13906 10.841C4.13906 10.3827 4.51406 10.0077 4.9724 10.0077C5.43073 10.0077 5.80573 10.3827 5.80573 10.841C5.80573 11.2993 5.43073 11.6743 4.9724 11.6743ZM4.9724 8.34102C4.51406 8.34102 4.13906 7.96602 4.13906 7.50768C4.13906 7.04935 4.51406 6.67435 4.9724 6.67435C5.43073 6.67435 5.80573 7.04935 5.80573 7.50768C5.80573 7.96602 5.43073 8.34102 4.9724 8.34102ZM9.9974 11.466H7.4974C7.15573 11.466 6.8724 11.1827 6.8724 10.841C6.8724 10.4993 7.15573 10.216 7.4974 10.216H9.9974C10.3391 10.216 10.6224 10.4993 10.6224 10.841C10.6224 11.1827 10.3391 11.466 9.9974 11.466ZM9.9974 8.13268H7.4974C7.15573 8.13268 6.8724 7.84935 6.8724 7.50768C6.8724 7.16602 7.15573 6.88268 7.4974 6.88268H9.9974C10.3391 6.88268 10.6224 7.16602 10.6224 7.50768C10.6224 7.84935 10.3391 8.13268 9.9974 8.13268Z" fill="#71839B"/>
<path d="M15.0109 1.66602V2.91602C15.5609 2.91602 16.0859 3.14102 16.4693 3.51602C16.8693 3.92435 17.0859 4.44935 17.0859 4.99935V7.01602C17.0859 7.63268 16.8109 7.91602 16.1859 7.91602H14.5859V3.34102C14.5859 3.10768 14.7776 2.91602 15.0109 2.91602V1.66602ZM15.0109 1.66602C14.0859 1.66602 13.3359 2.41602 13.3359 3.34102V9.16602H16.1859C17.5026 9.16602 18.3359 8.33268 18.3359 7.01602V4.99935C18.3359 4.08268 17.9609 3.24935 17.3609 2.64102C16.7526 2.04102 15.9276 1.67435 15.0109 1.66602C15.0193 1.66602 15.0109 1.66602 15.0109 1.66602Z" fill="#71839B"/>
</svg>
