<svg width="52" height="52" viewBox="0 0 52 52" fill="none" xmlns="http://www.w3.org/2000/svg">
<rect x="1" y="1" width="50" height="50" rx="9" fill="white" fill-opacity="0.5"/>
<rect x="0.5" y="0.5" width="51" height="51" rx="9.5" stroke="#FFA500" stroke-opacity="0.21"/>
<path opacity="0.4" d="M31.2367 13.5H20.7742C16.2242 13.5 13.5117 16.2125 13.5117 20.7625V31.225C13.5117 35.775 16.2242 38.4875 20.7742 38.4875H31.2367C35.7867 38.4875 38.4992 35.775 38.4992 31.225V20.7625C38.4992 16.2125 35.7867 13.5 31.2367 13.5Z" fill="#FFA500"/>
<path d="M23.6379 24.9375H20.3254C19.5379 24.9375 18.9004 25.5749 18.9004 26.3624V32.7624H23.6379V24.9375Z" fill="#FFA500"/>
<path opacity="0.4" d="M26.95 19.25H25.05C24.2625 19.25 23.625 19.8875 23.625 20.675V32.7501H28.3625V20.675C28.3625 19.8875 27.7375 19.25 26.95 19.25Z" fill="#FFA500"/>
<path d="M31.6875 27.0625H28.375V32.7501H33.1125V28.4875C33.1 27.7 32.4625 27.0625 31.6875 27.0625Z" fill="#FFA500"/>
</svg>
