<svg width="52" height="52" viewBox="0 0 52 52" fill="none" xmlns="http://www.w3.org/2000/svg">
<rect x="1" y="1" width="50" height="50" rx="9" fill="white" fill-opacity="0.5"/>
<rect x="0.5" y="0.5" width="51" height="51" rx="9.5" stroke="#FFA500" stroke-opacity="0.21"/>
<path opacity="0.4" d="M33.55 27.9375C33.025 28.45 32.725 29.1875 32.8 29.975C32.9125 31.325 34.15 32.3125 35.5 32.3125H37.875V33.8C37.875 36.3875 35.7625 38.5 33.175 38.5H18.825C16.2375 38.5 14.125 36.3875 14.125 33.8V25.3875C14.125 22.8 16.2375 20.6875 18.825 20.6875H33.175C35.7625 20.6875 37.875 22.8 37.875 25.3875V27.1875H35.35C34.65 27.1875 34.0125 27.4625 33.55 27.9375Z" fill="#FFA500"/>
<path d="M29.5625 15.9375V20.6875H18.825C16.2375 20.6875 14.125 22.8 14.125 25.3875V20.8001C14.125 19.3126 15.0375 17.9875 16.425 17.4625L26.35 13.7125C27.9 13.1375 29.5625 14.275 29.5625 15.9375Z" fill="#FFA500"/>
<path d="M39.2005 28.4624V31.0375C39.2005 31.725 38.6505 32.2875 37.9505 32.3125H35.5005C34.1505 32.3125 32.913 31.325 32.8005 29.975C32.7255 29.1875 33.0255 28.45 33.5505 27.9375C34.013 27.4625 34.6505 27.1875 35.3505 27.1875H37.9505C38.6505 27.2125 39.2005 27.7749 39.2005 28.4624Z" fill="#FFA500"/>
<path d="M28.5 26.9375H19.75C19.2375 26.9375 18.8125 26.5125 18.8125 26C18.8125 25.4875 19.2375 25.0625 19.75 25.0625H28.5C29.0125 25.0625 29.4375 25.4875 29.4375 26C29.4375 26.5125 29.0125 26.9375 28.5 26.9375Z" fill="#FFA500"/>
</svg>
