<svg width="20" height="20" viewBox="0 0 20 20" fill="none" xmlns="http://www.w3.org/2000/svg">
<path d="M18.3307 8.95898C18.6724 8.95898 18.9557 8.67565 18.9557 8.33398V7.50065C18.9557 3.82565 17.8391 2.70898 14.1641 2.70898H8.95573V4.58398C8.95573 4.92565 8.6724 5.20898 8.33073 5.20898C7.98906 5.20898 7.70573 4.92565 7.70573 4.58398V2.70898H5.83073C2.15573 2.70898 1.03906 3.82565 1.03906 7.50065V7.91732C1.03906 8.25898 1.3224 8.54232 1.66406 8.54232C2.46406 8.54232 3.1224 9.20065 3.1224 10.0007C3.1224 10.8007 2.46406 11.459 1.66406 11.459C1.3224 11.459 1.03906 11.7423 1.03906 12.084V12.5007C1.03906 16.1757 2.15573 17.2923 5.83073 17.2923H7.70573V15.4173C7.70573 15.0757 7.98906 14.7923 8.33073 14.7923C8.6724 14.7923 8.95573 15.0757 8.95573 15.4173V17.2923H14.1641C17.8391 17.2923 18.9557 16.1757 18.9557 12.5007C18.9557 12.159 18.6724 11.8757 18.3307 11.8757C17.5307 11.8757 16.8724 11.2173 16.8724 10.4173C16.8724 9.61732 17.5307 8.95898 18.3307 8.95898ZM8.95573 11.809C8.95573 12.1507 8.6724 12.434 8.33073 12.434C7.98906 12.434 7.70573 12.1507 7.70573 11.809V8.19232C7.70573 7.85065 7.98906 7.56732 8.33073 7.56732C8.6724 7.56732 8.95573 7.85065 8.95573 8.19232V11.809Z" fill="#71839B"/>
</svg>
