<svg width="20" height="20" viewBox="0 0 20 20" fill="none" xmlns="http://www.w3.org/2000/svg">
<path d="M14.168 17.2917H5.83464C2.15964 17.2917 1.04297 16.175 1.04297 12.5V12.0833C1.04297 11.7417 1.3263 11.4583 1.66797 11.4583C2.46797 11.4583 3.1263 10.8 3.1263 10C3.1263 9.20001 2.46797 8.54168 1.66797 8.54168C1.3263 8.54168 1.04297 8.25834 1.04297 7.91668V7.50001C1.04297 3.82501 2.15964 2.70834 5.83464 2.70834H14.168C17.843 2.70834 18.9596 3.82501 18.9596 7.50001V8.33334C18.9596 8.67501 18.6763 8.95834 18.3346 8.95834C17.5346 8.95834 16.8763 9.61668 16.8763 10.4167C16.8763 11.2167 17.5346 11.875 18.3346 11.875C18.6763 11.875 18.9596 12.1583 18.9596 12.5C18.9596 16.175 17.843 17.2917 14.168 17.2917ZM2.29297 12.6333C2.30964 15.5 2.9013 16.0417 5.83464 16.0417H14.168C16.9513 16.0417 17.6263 15.55 17.7013 13.05C17.11 12.9078 16.5838 12.5707 16.2074 12.093C15.831 11.6153 15.6263 11.0248 15.6263 10.4167C15.6263 9.14168 16.518 8.06668 17.7096 7.78334V7.50001C17.7096 4.52501 17.1513 3.95834 14.168 3.95834H5.83464C2.9013 3.95834 2.30964 4.50001 2.29297 7.36668C3.48464 7.65001 4.3763 8.72501 4.3763 10C4.3763 11.275 3.48464 12.35 2.29297 12.6333Z" fill="#71839B"/>
<path d="M8.33203 6.04168C7.99036 6.04168 7.70703 5.75834 7.70703 5.41668V3.33334C7.70703 2.99168 7.99036 2.70834 8.33203 2.70834C8.6737 2.70834 8.95703 2.99168 8.95703 3.33334V5.41668C8.95703 5.75834 8.6737 6.04168 8.33203 6.04168ZM8.33203 12.15C7.99036 12.15 7.70703 11.8667 7.70703 11.525V8.46668C7.70703 8.12501 7.99036 7.84168 8.33203 7.84168C8.6737 7.84168 8.95703 8.12501 8.95703 8.46668V11.525C8.95703 11.875 8.6737 12.15 8.33203 12.15ZM8.33203 17.2917C7.99036 17.2917 7.70703 17.0083 7.70703 16.6667V14.5833C7.70703 14.2417 7.99036 13.9583 8.33203 13.9583C8.6737 13.9583 8.95703 14.2417 8.95703 14.5833V16.6667C8.95703 17.0083 8.6737 17.2917 8.33203 17.2917Z" fill="#71839B"/>
</svg>
