<svg width="40" height="40" viewBox="0 0 40 40" fill="none" xmlns="http://www.w3.org/2000/svg">
<rect width="40" height="40" rx="8" fill="#E95950"/>
<path d="M23.61 13.4995V23.6595C23.61 24.0595 23.49 24.4495 23.27 24.7795L20.54 28.8395C20.11 29.4895 19.04 29.9495 18.13 29.6095C17.15 29.2795 16.5 28.1795 16.71 27.1995L17.23 23.9295C17.27 23.6295 17.19 23.3595 17.02 23.1495C16.85 22.9595 16.6 22.8395 16.33 22.8395H12.22C11.43 22.8395 10.75 22.5195 10.35 21.9595C9.97002 21.4195 9.90002 20.7195 10.15 20.0095L12.61 12.5195C12.92 11.2795 14.27 10.2695 15.61 10.2695H19.51C20.18 10.2695 21.12 10.4995 21.55 10.9295L22.83 11.9195C23.32 12.2995 23.61 12.8795 23.61 13.4995Z" fill="white"/>
<path d="M26.7901 25.6104H27.8201C29.3701 25.6104 30.0001 25.0104 30.0001 23.5304V13.4804C30.0001 12.0004 29.3701 11.4004 27.8201 11.4004H26.7901C25.2401 11.4004 24.6101 12.0004 24.6101 13.4804V23.5404C24.6101 25.0104 25.2401 25.6104 26.7901 25.6104Z" fill="white"/>
</svg>
