<svg width="1920" height="259" viewBox="0 0 1920 259" fill="none" xmlns="http://www.w3.org/2000/svg">
<rect width="1920" height="259" fill="url(#paint0_linear_6641_13403)"/>
<mask id="mask0_6641_13403" style="mask-type:alpha" maskUnits="userSpaceOnUse" x="0" y="0" width="1920" height="259">
<rect width="1920" height="259" fill="#272727"/>
</mask>
<g mask="url(#mask0_6641_13403)">
<path d="M238.508 77.525C56.0261 173.617 -140.414 29.8 -215.823 -54.1198L-237.915 -188.617L-158.656 -299.225L94.4196 -335.783C218.483 -238.052 420.99 -18.5667 238.508 77.525Z" fill="url(#paint1_linear_6641_13403)" fill-opacity="0.3"/>
<path opacity="0.58" d="M1138.81 34.2946L1136.08 31.5605L1133.35 34.2946L1136.08 37.0286L1138.81 34.2946Z" fill="white"/>
<path opacity="0.58" d="M1123.39 51.2882L1121.52 49.4155L1119.64 51.2882L1121.52 53.1608L1123.39 51.2882Z" fill="white"/>
<path opacity="0.24" d="M1163.22 11.8847L1161.62 10.2793L1160.01 11.8847L1161.62 13.4901L1163.22 11.8847Z" fill="white"/>
<path opacity="0.88" d="M1177.17 41.2514L1175.56 39.646L1173.96 41.2514L1175.56 42.8568L1177.17 41.2514Z" fill="white"/>
<path opacity="0.24" d="M1091.13 1.35347L1089.52 -0.251953L1087.92 1.35347L1089.52 2.95889L1091.13 1.35347Z" fill="white"/>
<path d="M1235.99 137.503L1232.09 133.598L1228.18 137.503L1232.09 141.408L1235.99 137.503Z" fill="white"/>
<path opacity="0.68" d="M1150.32 70.4626L1147.34 67.4844L1144.37 70.4626L1147.34 73.4408L1150.32 70.4626Z" fill="white"/>
<path opacity="0.68" d="M1060.95 12.6842L1057.98 9.70605L1055 12.6842L1057.98 15.6624L1060.95 12.6842Z" fill="white"/>
<path opacity="0.69" d="M1113.39 121.551L1107.12 115.269L1100.84 121.551L1107.12 127.833L1113.39 121.551Z" fill="white"/>
<path opacity="0.88" d="M1106.16 17.6172L1105.39 16.8462L1104.62 17.6172L1105.39 18.3882L1106.16 17.6172Z" fill="white"/>
<path opacity="0.58" d="M62.8094 31.2946L60.0781 28.5605L57.3468 31.2946L60.0781 34.0286L62.8094 31.2946Z" fill="#FFA500"/>
<path opacity="0.58" d="M47.3864 48.2882L45.5156 46.4155L43.6448 48.2882L45.5156 50.1608L47.3864 48.2882Z" fill="#FFA500"/>
<path opacity="0.24" d="M87.221 8.88471L85.6172 7.2793L84.0134 8.88472L85.6172 10.4901L87.221 8.88471Z" fill="#FFA500"/>
<path opacity="0.88" d="M101.166 38.2514L99.5625 36.646L97.9587 38.2514L99.5625 39.8568L101.166 38.2514Z" fill="#FFA500"/>
<path d="M159.987 134.503L156.086 130.598L152.185 134.503L156.086 138.408L159.987 134.503Z" fill="#FFA500"/>
<path opacity="0.68" d="M74.319 67.4626L71.3438 64.4844L68.3685 67.4626L71.3438 70.4408L74.319 67.4626Z" fill="#FFA500"/>
<path opacity="0.69" d="M37.3933 118.551L31.1172 112.269L24.8411 118.551L31.1172 124.833L37.3933 118.551Z" fill="#FFA500"/>
<path opacity="0.88" d="M30.1608 14.6172L29.3906 13.8462L28.6204 14.6172L29.3906 15.3882L30.1608 14.6172Z" fill="#FFA500"/>
<path opacity="0.58" d="M1854.81 80.2946L1852.08 77.5605L1849.35 80.2946L1852.08 83.0286L1854.81 80.2946Z" fill="white"/>
<path opacity="0.58" d="M1839.39 97.2882L1837.52 95.4155L1835.64 97.2882L1837.52 99.1608L1839.39 97.2882Z" fill="white"/>
<path opacity="0.24" d="M1879.22 57.8847L1877.62 56.2793L1876.01 57.8847L1877.62 59.4901L1879.22 57.8847Z" fill="white"/>
<path opacity="0.88" d="M1893.17 87.2514L1891.56 85.646L1889.96 87.2514L1891.56 88.8568L1893.17 87.2514Z" fill="white"/>
<path opacity="0.24" d="M1807.13 47.3535L1805.52 45.748L1803.92 47.3535L1805.52 48.9589L1807.13 47.3535Z" fill="white"/>
<path opacity="0.68" d="M1866.32 116.463L1863.34 113.484L1860.37 116.463L1863.34 119.441L1866.32 116.463Z" fill="white"/>
<path opacity="0.68" d="M1776.95 58.6842L1773.98 55.7061L1771 58.6842L1773.98 61.6624L1776.95 58.6842Z" fill="white"/>
<path opacity="0.69" d="M1829.39 167.551L1823.12 161.269L1816.84 167.551L1823.12 173.833L1829.39 167.551Z" fill="white"/>
<path opacity="0.88" d="M1822.16 63.6172L1821.39 62.8462L1820.62 63.6172L1821.39 64.3882L1822.16 63.6172Z" fill="white"/>
</g>
<defs>
<linearGradient id="paint0_linear_6641_13403" x1="960" y1="0" x2="960" y2="259" gradientUnits="userSpaceOnUse">
<stop offset="0.197917" stop-color="#1C1F25"/>
<stop offset="1" stop-color="#0E1114"/>
</linearGradient>
<linearGradient id="paint1_linear_6641_13403" x1="-143.5" y1="-15.0975" x2="337.81" y2="62.0483" gradientUnits="userSpaceOnUse">
<stop stop-color="#FF9A3B"/>
<stop offset="1" stop-color="#070707" stop-opacity="0"/>
</linearGradient>
</defs>
</svg>
