<svg width="15" height="16" viewBox="0 0 15 16" fill="none" xmlns="http://www.w3.org/2000/svg">
<mask id="mask0_6397_13257" style="mask-type:alpha" maskUnits="userSpaceOnUse" x="0" y="0" width="15" height="16">
<rect y="0.5" width="15" height="15" fill="#D9D9D9"/>
</mask>
<g mask="url(#mask0_6397_13257)">
<path d="M5.375 14.5625L4.1875 12.5625L1.9375 12.0625L2.15625 9.75L0.625 8L2.15625 6.25L1.9375 3.9375L4.1875 3.4375L5.375 1.4375L7.5 2.34375L9.625 1.4375L10.8125 3.4375L13.0625 3.9375L12.8438 6.25L14.375 8L12.8438 9.75L13.0625 12.0625L10.8125 12.5625L9.625 14.5625L7.5 13.6563L5.375 14.5625ZM6.84375 10.2188L10.375 6.6875L9.5 5.78125L6.84375 8.4375L5.5 7.125L4.625 8L6.84375 10.2188Z" fill="#FFA500"/>
</g>
</svg>
