<svg width="156" height="99" viewBox="0 0 156 99" fill="none" xmlns="http://www.w3.org/2000/svg">
<path d="M138.47 30.9078H0.524276C0.228476 30.9015 -0.0062017 30.6566 0.000124973 30.3609C0.00625894 30.0741 0.237379 29.843 0.524276 29.8369H138.47C138.766 29.8432 139 30.0881 138.994 30.3838C138.988 30.6706 138.757 30.9017 138.47 30.9078Z" fill="#CACACA"/>
<path d="M43.3197 41.2412H5.18621C2.32194 41.2412 0 43.5625 0 46.4259V46.4259C0 49.2893 2.32194 51.6106 5.18621 51.6106H43.3197C46.184 51.6106 48.506 49.2893 48.506 46.4259C48.506 43.5625 46.184 41.2412 43.3197 41.2412Z" fill="#F5F5F5"/>
<path d="M5.18621 61.9805H92.5888C95.453 61.9805 97.775 64.3017 97.775 67.1652C97.775 70.0286 95.453 72.3498 92.5888 72.3498H5.18621C2.32194 72.3498 0 70.0286 0 67.1652C0 64.3017 2.32194 61.9805 5.18621 61.9805Z" fill="#F5F5F5"/>
<path d="M5.18621 82.7188H92.5888C95.453 82.7188 97.775 85.04 97.775 87.9034C97.775 90.7669 95.453 93.0881 92.5888 93.0881H5.18621C2.32194 93.0881 0 90.7669 0 87.9034C0 85.04 2.32194 82.7188 5.18621 82.7188Z" fill="#F5F5F5"/>
<path d="M40.4616 78.3291C40.4019 78.3311 40.3421 78.3324 40.2823 78.334C40.2567 78.4004 40.2291 78.4662 40.1973 78.5307L40.4616 78.3291Z" fill="#2F2E41"/>
<path d="M42.4922 71.1299C42.5038 71.2028 42.5216 71.2747 42.5453 71.3446C42.5355 71.2713 42.5177 71.1993 42.4922 71.1299Z" fill="#2F2E41"/>
<path d="M7.52276 24.1245C8.90741 24.1245 10.0299 22.9773 10.0299 21.5623C10.0299 20.1472 8.90741 19 7.52276 19C6.13811 19 5.01562 20.1472 5.01562 21.5623C5.01562 22.9773 6.13811 24.1245 7.52276 24.1245Z" fill="#3F3D56"/>
<path d="M16.1829 24.1245C17.5676 24.1245 18.6901 22.9773 18.6901 21.5623C18.6901 20.1472 17.5676 19 16.1829 19C14.7983 19 13.6758 20.1472 13.6758 21.5623C13.6758 22.9773 14.7983 24.1245 16.1829 24.1245Z" fill="#3F3D56"/>
<path d="M24.845 24.1245C26.2297 24.1245 27.3522 22.9773 27.3522 21.5623C27.3522 20.1472 26.2297 19 24.845 19C23.4604 19 22.3379 20.1472 22.3379 21.5623C22.3379 22.9773 23.4604 24.1245 24.845 24.1245Z" fill="#3F3D56"/>
<path d="M34.7206 23.5872C34.6436 23.5872 34.5667 23.5574 34.5087 23.498L32.817 21.7692C32.7042 21.654 32.7042 21.47 32.817 21.3548L34.5087 19.6261C34.6235 19.5092 34.8114 19.5073 34.9279 19.6215C35.045 19.736 35.047 19.9237 34.9325 20.0406L33.4437 21.562L34.9325 23.0836C35.047 23.2005 35.045 23.3882 34.9279 23.5027C34.8703 23.5591 34.7954 23.5872 34.7206 23.5872Z" fill="#3F3D56"/>
<path d="M37.5641 23.5874C37.4892 23.5874 37.4144 23.5593 37.3568 23.5029C37.2397 23.3884 37.2376 23.2009 37.3521 23.0838L38.8409 21.5622L37.3521 20.0408C37.2376 19.9239 37.2397 19.7362 37.3568 19.6217C37.4736 19.5071 37.6615 19.5093 37.776 19.6263L39.4675 21.355C39.5803 21.4702 39.5803 21.6543 39.4675 21.7695L37.776 23.4983C37.7179 23.5576 37.6411 23.5874 37.5641 23.5874Z" fill="#3F3D56"/>
<path d="M126.062 19.2969H122.917C122.558 19.2969 122.268 19.5873 122.268 19.946V23.0935C122.268 23.4522 122.558 23.7426 122.917 23.7426H126.062C126.421 23.7426 126.715 23.4522 126.715 23.0935V19.946C126.715 19.5873 126.421 19.2969 126.062 19.2969Z" fill="#3F3D56"/>
<path d="M118.353 19.2969H115.208C114.849 19.2969 114.559 19.5873 114.559 19.946V23.0935C114.559 23.4522 114.849 23.7426 115.208 23.7426H118.353C118.712 23.7426 119.006 23.4522 119.006 23.0935V19.946C119.006 19.5873 118.712 19.2969 118.353 19.2969Z" fill="#3F3D56"/>
<path d="M133.326 19.4453H130.181C129.822 19.4453 129.531 19.7358 129.531 20.0944V23.242C129.531 23.6006 129.822 23.8911 130.181 23.8911H133.326C133.685 23.8911 133.978 23.6006 133.978 23.242V20.0944C133.978 19.7358 133.685 19.4453 133.326 19.4453Z" fill="#3F3D56"/>
<path d="M85.9138 20.6426H60.7701C60.3313 20.6426 59.9785 20.9982 59.9785 21.4339C59.9785 21.8696 60.3313 22.2253 60.7701 22.2253H85.9138C86.3496 22.2253 86.7053 21.8696 86.7053 21.4339C86.7053 20.9983 86.3496 20.6426 85.9138 20.6426Z" fill="#3F3D56"/>
<path d="M104.688 58.0537C104.688 52.4618 109.221 47.9287 114.812 47.9287H145.188C150.779 47.9287 155.312 52.4618 155.312 58.0537V88.4287C155.312 94.0206 150.779 98.5537 145.188 98.5537H114.812C109.221 98.5537 104.688 94.0206 104.688 88.4287V58.0537Z" fill="#0ECB81" fill-opacity="0.24"/>
<path d="M130.307 84.9407C129.177 83.5484 128.5 81.7736 128.5 79.8408C128.5 77.6357 129.381 75.6365 130.81 74.176C126.304 73.6542 121.676 74.4882 117.556 76.6779C116.906 77.0231 116.5 77.6988 116.5 78.4344V82.8408C116.5 84.0005 117.44 84.9407 118.6 84.9407H130.307Z" fill="url(#paint0_linear_881_27335)"/>
<path fill-rule="evenodd" clip-rule="evenodd" d="M128.2 59.7412C124.721 59.7412 121.9 62.5618 121.9 66.0412C121.9 69.5206 124.721 72.3413 128.2 72.3413C131.68 72.3413 134.5 69.5206 134.5 66.0412C134.5 62.5618 131.68 59.7412 128.2 59.7412Z" fill="url(#paint1_linear_881_27335)"/>
<circle cx="140.747" cy="79.7476" r="9.06884" fill="url(#paint2_linear_881_27335)"/>
<path d="M139.696 83.1492C139.547 83.1501 139.399 83.1223 139.262 83.0677C139.124 83.013 138.998 82.9325 138.892 82.8307L136.628 80.6344C136.415 80.4276 136.295 80.1471 136.295 79.8546C136.295 79.5622 136.415 79.2817 136.628 79.0749C136.841 78.8681 137.13 78.752 137.432 78.752C137.733 78.752 138.022 78.8681 138.236 79.0749L139.696 80.5026L143.421 76.8786C143.526 76.7756 143.652 76.6939 143.79 76.6382C143.928 76.5824 144.076 76.5537 144.225 76.5537C144.374 76.5537 144.522 76.5824 144.66 76.6382C144.798 76.6939 144.924 76.7756 145.029 76.8786C145.135 76.9806 145.219 77.1021 145.277 77.2359C145.334 77.3698 145.364 77.5133 145.364 77.6583C145.364 77.8032 145.334 77.9468 145.277 78.0806C145.219 78.2144 145.135 78.3359 145.029 78.438L140.5 82.8307C140.394 82.9325 140.269 83.013 140.131 83.0677C139.993 83.1223 139.845 83.1501 139.696 83.1492Z" fill="white"/>
<path d="M53.8568 1.30322L55.5421 6.27929L60.3274 4.11069L56.1156 7.25123L59.6568 11.1322L55.3685 8.09705L52.7718 12.6642L54.3332 7.64786L49.1872 6.58958L54.4405 6.52442L53.8568 1.30322Z" fill="#F5F5F5"/>
<defs>
<linearGradient id="paint0_linear_881_27335" x1="123.807" y1="71.5178" x2="123.719" y2="84.9412" gradientUnits="userSpaceOnUse">
<stop stop-color="#77F087"/>
<stop offset="1" stop-color="#5BCE5C"/>
</linearGradient>
<linearGradient id="paint1_linear_881_27335" x1="128.334" y1="56.8466" x2="128.2" y2="72.3413" gradientUnits="userSpaceOnUse">
<stop stop-color="#77F087"/>
<stop offset="1" stop-color="#5BCE5C"/>
</linearGradient>
<linearGradient id="paint2_linear_881_27335" x1="140.939" y1="66.512" x2="140.747" y2="88.8164" gradientUnits="userSpaceOnUse">
<stop stop-color="#77F087"/>
<stop offset="1" stop-color="#5BCE5C"/>
</linearGradient>
</defs>
</svg>
