<svg width="16" height="16" viewBox="0 0 16 16" fill="none" xmlns="http://www.w3.org/2000/svg">
<path d="M13.7015 0.721963C13.5966 0.426012 13.1781 0.426012 13.0732 0.721963L12.7138 1.7363C12.6802 1.83103 12.6057 1.90556 12.511 1.93913L11.4966 2.29854C11.2007 2.4034 11.2007 2.82194 11.4966 2.92681L12.511 3.28622C12.6057 3.31979 12.6802 3.39431 12.7138 3.48905L13.0732 4.50338C13.1781 4.79933 13.5966 4.79933 13.7015 4.50338L14.0609 3.48905C14.0944 3.39431 14.169 3.31979 14.2637 3.28622L15.278 2.92681C15.574 2.82194 15.574 2.4034 15.278 2.29854L14.2637 1.93913C14.169 1.90556 14.0944 1.83103 14.0609 1.7363L13.7015 0.721963Z" fill="white"/>
<path d="M9.79004 4.03361C9.86248 3.82917 10.1516 3.82916 10.224 4.03361L10.4221 4.59267C10.4453 4.65811 10.4968 4.70959 10.5623 4.73278L11.1213 4.93087C11.3258 5.00331 11.3258 5.29245 11.1213 5.36489L10.5623 5.56298C10.4968 5.58617 10.4453 5.63765 10.4221 5.70309L10.224 6.26215C10.1516 6.4666 9.86248 6.4666 9.79004 6.26215L9.59194 5.70309C9.56875 5.63765 9.51727 5.58617 9.45183 5.56298L8.89277 5.36489C8.68832 5.29245 8.68832 5.00331 8.89277 4.93087L9.45183 4.73278C9.51727 4.70959 9.56875 4.65811 9.59194 4.59267L9.79004 4.03361Z" fill="white"/>
<path d="M11.975 6.51771C12.0233 6.38141 12.2161 6.38141 12.2644 6.51771L12.3965 6.89041C12.4119 6.93404 12.4462 6.96836 12.4899 6.98382L12.8626 7.11588C12.9989 7.16418 12.9989 7.35693 12.8626 7.40522L12.4899 7.53729C12.4462 7.55275 12.4119 7.58707 12.3965 7.6307L12.2644 8.0034C12.2161 8.1397 12.0233 8.1397 11.975 8.0034L11.843 7.6307C11.8275 7.58707 11.7932 7.55275 11.7496 7.53729L11.3769 7.40522C11.2406 7.35693 11.2406 7.16418 11.3769 7.11588L11.7496 6.98382C11.7932 6.96836 11.8275 6.93404 11.843 6.89041L11.975 6.51771Z" fill="white"/>
<path d="M7.2789 1.87568C7.40788 2.10136 7.38598 2.38291 7.22367 2.58593C6.54259 3.43785 6.13935 4.50432 6.13935 5.66203C6.13935 8.42317 8.44804 10.6923 11.3345 10.6923C12.1274 10.6923 12.8767 10.5208 13.5467 10.215C13.7822 10.1075 14.0593 10.154 14.2468 10.3324C14.4343 10.5109 14.4944 10.7854 14.3987 11.0259C13.3541 13.651 10.739 15.5 7.69141 15.5C3.73697 15.5 0.5 12.3804 0.5 8.49408C0.5 4.95922 3.17972 2.0573 6.63892 1.56274C6.89624 1.52595 7.14993 1.65 7.2789 1.87568Z" fill="white"/>
</svg>
