<svg width="13" height="12" viewBox="0 0 13 12" fill="none" xmlns="http://www.w3.org/2000/svg">
<path d="M10.7761 0.541472C10.6974 0.319509 10.3835 0.319509 10.3049 0.541472L10.0353 1.30222C10.0102 1.37327 9.95426 1.42917 9.88321 1.45434L9.12246 1.7239C8.9005 1.80255 8.9005 2.11646 9.12246 2.19511L9.88321 2.46467C9.95426 2.48984 10.0102 2.54573 10.0353 2.61678L10.3049 3.37754C10.3835 3.5995 10.6974 3.5995 10.7761 3.37754L11.0457 2.61678C11.0708 2.54573 11.1267 2.48984 11.1978 2.46467L11.9585 2.19511C12.1805 2.11646 12.1805 1.80255 11.9585 1.7239L11.1978 1.45434C11.1267 1.42917 11.0708 1.37327 11.0457 1.30222L10.7761 0.541472Z" fill="#71839B"/>
<path d="M7.84253 3.02521C7.89686 2.87187 8.11371 2.87187 8.16804 3.02521L8.31661 3.4445C8.334 3.49358 8.37261 3.53219 8.42169 3.54959L8.84099 3.69815C8.99432 3.75249 8.99432 3.96933 8.84099 4.02367L8.42169 4.17224C8.37261 4.18963 8.334 4.22824 8.31661 4.27732L8.16804 4.69661C8.11371 4.84995 7.89686 4.84995 7.84253 4.69661L7.69396 4.27732C7.67657 4.22824 7.63795 4.18963 7.58887 4.17224L7.16958 4.02367C7.01624 3.96933 7.01624 3.75249 7.16958 3.69815L7.58887 3.54959C7.63795 3.53219 7.67657 3.49358 7.69396 3.4445L7.84253 3.02521Z" fill="#71839B"/>
<path d="M9.48129 4.88828C9.51751 4.78606 9.66207 4.78606 9.69829 4.88828L9.79734 5.16781C9.80893 5.20053 9.83467 5.22627 9.8674 5.23787L10.1469 5.33691C10.2491 5.37313 10.2491 5.5177 10.1469 5.55392L9.8674 5.65296C9.83467 5.66456 9.80893 5.6903 9.79734 5.72302L9.69829 6.00255C9.66207 6.10477 9.51751 6.10477 9.48129 6.00255L9.38224 5.72302C9.37064 5.6903 9.3449 5.66456 9.31218 5.65296L9.03265 5.55392C8.93043 5.5177 8.93043 5.37313 9.03265 5.33691L9.31218 5.23787C9.3449 5.22627 9.37064 5.20053 9.38224 5.16781L9.48129 4.88828Z" fill="#71839B"/>
<path d="M5.95918 1.40676C6.05591 1.57602 6.03949 1.78718 5.91775 1.93945C5.40694 2.57839 5.10451 3.37824 5.10451 4.24652C5.10451 6.31738 6.83603 8.01925 9.0009 8.01925C9.59552 8.01925 10.1575 7.89058 10.66 7.66121C10.8366 7.58061 11.0445 7.61548 11.1851 7.74931C11.3257 7.88315 11.3708 8.08904 11.2991 8.26941C10.5156 10.2383 8.55428 11.625 6.26856 11.625C3.30273 11.625 0.875 9.28527 0.875 6.37056C0.875 3.71942 2.88479 1.54298 5.47919 1.17205C5.67218 1.14446 5.86245 1.2375 5.95918 1.40676Z" fill="#71839B"/>
</svg>
