<svg width="102" height="87" viewBox="0 0 102 87" fill="none" xmlns="http://www.w3.org/2000/svg">
<g clip-path="url(#clip0_80_935)">
<path d="M45.8084 86.9999C65.0358 86.9999 80.6228 83.0401 80.6228 78.1554C80.6228 73.2706 65.0358 69.3108 45.8084 69.3108C26.5809 69.3108 10.994 73.2706 10.994 78.1554C10.994 83.0401 26.5809 86.9999 45.8084 86.9999Z" fill="#121212"/>
<path d="M41.765 78.3812C63.1851 78.3812 80.5495 61.0398 80.5495 39.6481C80.5495 18.2564 63.1851 0.915039 41.765 0.915039C20.345 0.915039 2.9806 18.2564 2.9806 39.6481C2.9806 61.0398 20.345 78.3812 41.765 78.3812Z" fill="white" stroke="#121212" stroke-miterlimit="10"/>
<path d="M15.5382 40.5568C15.5298 44.7828 16.4831 48.9555 18.3264 52.7597C20.1696 56.5638 22.8544 59.8998 26.178 62.5157C22.6789 60.7646 19.5865 58.3003 17.1002 55.2817C14.6139 52.2631 12.7891 48.7573 11.7436 44.9907C10.6981 41.2242 10.4552 37.2806 11.0304 33.4144C11.6056 29.5483 12.9863 25.8456 15.0832 22.5453C17.1801 19.2451 19.9467 16.4206 23.2044 14.2543C26.4621 12.0881 30.1385 10.6282 33.9961 9.96877C37.8538 9.30939 41.8071 9.46525 45.6007 10.4263C49.3943 11.3872 52.944 13.132 56.0206 15.548C51.7534 13.425 47.014 12.4254 42.2517 12.6439C37.4893 12.8623 32.8617 14.2916 28.8073 16.7963C24.7529 19.301 21.4061 22.798 19.084 26.9561C16.7619 31.1142 15.5414 35.7957 15.5382 40.5568Z" fill="#FFA500"/>
<path d="M83.982 43.0762C83.985 51.1811 81.4416 59.0827 76.7101 65.6678C71.9787 72.2528 65.2978 77.1895 57.6085 79.7822C49.9193 82.3749 41.6093 82.493 33.8493 80.1198C26.0893 77.7466 19.2704 73.0019 14.3533 66.5539C21.8178 72.2538 31.1008 75.053 40.4766 74.4312C49.8524 73.8094 58.6833 69.8089 65.3276 63.1734C71.9719 56.5379 75.9776 47.7187 76.6003 38.3553C77.2229 28.9919 74.42 19.7213 68.7126 12.2666C73.4666 15.8763 77.319 20.5364 79.9682 25.8816C82.6173 31.2268 83.9911 37.1121 83.982 43.0762Z" fill="#121212"/>
<path d="M68.5782 43.076C68.8242 41.5594 68.9468 40.0254 68.9447 38.489C68.9425 32.3601 66.9909 26.3903 63.3715 21.4407C59.7521 16.4912 54.6519 12.8177 48.8067 10.9502C42.9615 9.08268 36.6734 9.11764 30.8494 11.0501C25.0254 12.9826 19.9666 16.7126 16.4027 21.7022C12.8387 26.6917 10.9539 32.6829 11.0201 38.8115C11.0863 44.94 13.1001 50.8892 16.771 55.8008C20.4418 60.7125 25.5801 64.3326 31.4444 66.1392C37.3088 67.9457 43.5963 67.8452 49.3998 65.8522" stroke="#121212" stroke-miterlimit="10"/>
<path d="M88.5629 6.96582C92.3879 11.9321 95.362 17.4972 97.3642 23.435C101.499 35.8906 101.75 53.1771 81.2396 67.1149" stroke="#121212" stroke-width="2" stroke-linecap="round" stroke-linejoin="round"/>
<path d="M97.6696 26.9546C97.6696 26.9546 93.9561 34.7866 91.745 25.9116C89.534 17.0365 97.6696 26.9546 97.6696 26.9546Z" stroke="#121212" stroke-width="2" stroke-linecap="round" stroke-linejoin="round"/>
<path d="M39.7006 21.9834C38.0719 21.9882 36.5112 22.636 35.359 23.7856C34.2068 24.9352 33.5565 26.4931 33.5501 28.1197C33.5501 30.1448 34.2158 32.5053 34.9548 34.8964C35.6939 37.2875 36.549 39.6908 37.0132 41.417C37.1435 42.0046 37.4233 42.5487 37.8255 42.9968C38.0703 43.2441 38.3619 43.4405 38.6832 43.5745C39.0045 43.7085 39.3493 43.7775 39.6975 43.7775C40.0458 43.7775 40.3905 43.7085 40.7119 43.5745C41.0332 43.4405 41.3248 43.2441 41.5696 42.9968C41.9701 42.5483 42.2478 42.0042 42.3758 41.417C42.84 39.6908 43.689 37.2936 44.428 34.8964C45.1671 32.4992 45.8328 30.1448 45.8328 28.1197C45.8296 26.4953 45.1829 24.9382 44.0339 23.7885C42.8849 22.6388 41.3271 21.9898 39.7006 21.9834Z" fill="#121212"/>
<path d="M43.7623 50.597C43.7666 51.5404 43.4435 52.4562 42.848 53.1885C42.2524 53.9208 41.4212 54.4244 40.4958 54.6136C39.5703 54.8029 38.6078 54.666 37.772 54.2263C36.9362 53.7867 36.2787 53.0714 35.9115 52.2022C35.5443 51.333 35.4899 50.3636 35.7578 49.4589C36.0256 48.5542 36.599 47.7701 37.3805 47.2401C38.1619 46.7101 39.1031 46.4668 40.0439 46.5517C40.9848 46.6366 41.8671 47.0444 42.5407 47.7058C42.9253 48.0833 43.2313 48.5332 43.4409 49.0294C43.6506 49.5257 43.7598 50.0584 43.7623 50.597Z" fill="#121212"/>
<path d="M81.2335 69.3049C81.2335 69.3049 91.006 62.5953 101.389 74.1847" stroke="#121212" stroke-width="2" stroke-linecap="round" stroke-linejoin="round"/>
<path d="M1.61078 6.04419L6.49701 11.5339" stroke="#121212" stroke-width="2" stroke-linecap="round" stroke-linejoin="round"/>
<path d="M5.35653 2.98877L6.85904 8.29551" stroke="#121212" stroke-width="1.5" stroke-linecap="round" stroke-linejoin="round"/>
</g>
<defs>
<clipPath id="clip0_80_935">
<rect width="102" height="87" fill="white"/>
</clipPath>
</defs>
</svg>
