<svg xmlns="http://www.w3.org/2000/svg" xmlns:xlink="http://www.w3.org/1999/xlink" width="24" height="24" viewBox="0 0 24 24">
  <defs>
    <clipPath id="clip-path">
      <rect id="Rectangle_19162" data-name="Rectangle 19162" width="24" height="24" transform="translate(10557 -11171)" fill="#fff" stroke="#707070" stroke-width="0.5"/>
    </clipPath>
  </defs>
  <g id="no_data" data-name="no data" transform="translate(-10557 11171)" clip-path="url(#clip-path)">
    <g id="empty_table" data-name="empty table" transform="translate(2 -1.306)">
      <g id="Group_59626" data-name="Group 59626" transform="translate(28.5 -0.288)" style="isolation: isolate">
        <g id="Subtraction_1" data-name="Subtraction 1" transform="translate(10527.5 -11160)" fill="none" stroke-linecap="round" stroke-linejoin="round">
          <path d="M20.5,11H1.5a2,2,0,0,1-2-2V0h7V1a2,2,0,0,0,2,2h5a2,2,0,0,0,2-2V0h7V9A2,2,0,0,1,20.5,11Z" stroke="none"/>
          <path d="M 20.50020027160645 10.49979972839355 C 21.32719039916992 10.49979972839355 22 9.826990127563477 22 9 L 22 0.4999998509883881 L 15.99979972839355 0.4999998509883881 L 15.99979972839355 0.9998998641967773 C 15.99979972839355 2.378289937973022 14.87838935852051 3.499699831008911 13.5 3.499699831008911 L 8.499599456787109 3.499699831008911 C 7.121209621429443 3.499699831008911 5.999799728393555 2.378289937973022 5.999799728393555 0.9998998641967773 L 5.999799728393555 0.4999998509883881 L -0.0004002716159448028 0.4999998509883881 L -0.0004002716159448028 9 C -0.0004002716159448028 9.826990127563477 0.6728097200393677 10.49979972839355 1.500299692153931 10.49979972839355 L 20.50020027160645 10.49979972839355 M 20.50020027160645 10.99979972839355 L 1.500299692153931 10.99979972839355 C 0.397109717130661 10.99979972839355 -0.5004002451896667 10.10268974304199 -0.5004002451896667 9 L -0.5004002451896667 -1.358032193365943e-07 L 6.499799728393555 -1.358032193365943e-07 L 6.499799728393555 0.9998998641967773 C 6.499799728393555 2.102589845657349 7.396909713745117 2.999699831008911 8.499599456787109 2.999699831008911 L 13.5 2.999699831008911 C 14.60268974304199 2.999699831008911 15.49979972839355 2.102589845657349 15.49979972839355 0.9998998641967773 L 15.49979972839355 -1.358032193365943e-07 L 22.5 -1.358032193365943e-07 L 22.5 9 C 22.5 10.10268974304199 21.60289001464844 10.99979972839355 20.50020027160645 10.99979972839355 Z" stroke="none" fill="#d9d9d9"/>
        </g>
      </g>
      <path id="Path_43530" data-name="Path 43530" d="M10527.75-11159.931l5.406-6.475h11.328l5.766,6.475" transform="translate(28 -0.288)" fill="none" stroke="#d9d9d9" stroke-linecap="round" stroke-linejoin="round" stroke-width="0.5"/>
    </g>
  </g>
</svg>
