<svg width="24" height="24" viewBox="0 0 20 20" fill="none" xmlns="http://www.w3.org/2000/svg">
<path d="M16.1163 12.075L15.283 10.6917C15.108 10.3833 14.9496 9.80001 14.9496 9.45834V7.35001C14.9496 5.39167 13.7996 3.70001 12.1413 2.90834C11.708 2.14167 10.908 1.66667 9.99129 1.66667C9.08296 1.66667 8.26629 2.15834 7.83296 2.93334C6.20796 3.74167 5.08296 5.41667 5.08296 7.35001V9.45834C5.08296 9.80001 4.92463 10.3833 4.74963 10.6833L3.90796 12.075C3.57463 12.6333 3.49963 13.25 3.70796 13.8167C3.90796 14.375 4.38296 14.8083 4.99963 15.0167C6.61629 15.5667 8.31629 15.8333 10.0163 15.8333C11.7163 15.8333 13.4163 15.5667 15.033 15.025C15.6163 14.8333 16.0663 14.3917 16.283 13.8167C16.4996 13.2417 16.4413 12.6083 16.1163 12.075Z" fill="#FFA500"/>
<path d="M12.3587 16.675C12.0087 17.6417 11.0837 18.3333 10.0004 18.3333C9.34206 18.3333 8.69206 18.0667 8.23372 17.5917C7.96706 17.3417 7.76706 17.0083 7.65039 16.6667C7.75872 16.6833 7.86706 16.6917 7.98372 16.7083C8.17539 16.7333 8.37539 16.7583 8.57539 16.775C9.05039 16.8167 9.53372 16.8417 10.0171 16.8417C10.4921 16.8417 10.9671 16.8167 11.4337 16.775C11.6087 16.7583 11.7837 16.75 11.9504 16.725C12.0837 16.7083 12.2171 16.6917 12.3587 16.675Z" fill="#FFA500"/>
</svg>
