<svg width="30" height="28" viewBox="0 0 30 28" fill="none" xmlns="http://www.w3.org/2000/svg">
<path d="M29.1413 5.5876C29.0032 6.0646 28.8965 6.55398 28.7145 7.01238C28.0178 8.77168 27.2898 10.5248 26.5806 12.2841C25.4007 15.2265 24.2333 18.1752 23.0471 21.1177C22.909 21.4708 22.7019 21.7929 22.5199 22.1274C21.8986 23.2796 21.271 24.438 20.6433 25.5903C20.1789 26.4513 19.4634 27.0274 18.5408 27.3496C17.75 27.6221 16.9341 27.6283 16.1057 27.5354C15.1768 27.4301 14.3421 27.0646 13.5011 26.7053C10.0429 25.2248 6.57849 23.7566 3.12033 22.2823C2.68728 22.0965 2.34209 21.7805 2.03456 21.4274C1.40694 20.7212 1.08686 19.8726 0.936233 18.9619C0.798157 18.1442 0.848367 17.3265 0.948785 16.5088C0.967613 16.3478 0.980166 16.1867 0.998994 16.0133C1.11824 16.0628 1.22494 16.1062 1.33791 16.1496C2.27305 16.5274 3.20192 16.9053 4.13707 17.2894C5.67473 17.9212 7.20611 18.5655 8.75004 19.1849C9.84837 19.6248 11.0032 19.9159 12.1454 20.2319C12.8672 20.4301 13.589 20.6159 14.317 20.808C14.3421 20.8142 14.3609 20.8265 14.3797 20.8327C14.3044 21.1239 14.2228 21.4088 14.1538 21.7C13.9969 22.369 14.0973 23.0071 14.3923 23.6265C14.4174 23.6761 14.4425 23.7195 14.4739 23.7628C15.045 24.4133 15.704 24.9212 16.6141 25.0018C17.0597 25.0451 17.4551 24.9026 17.8191 24.6549C18.34 24.308 18.7354 23.8372 19.0366 23.3044C19.4383 22.5858 19.8337 21.8549 20.1852 21.1053C20.6245 20.1637 21.0262 19.2035 21.4279 18.2434C23.1036 14.2478 24.7668 10.2522 26.4425 6.25663C26.4613 6.20707 26.4802 6.16371 26.5053 6.09557C21.7542 4.92477 17.022 3.76017 12.271 2.58938C12.2459 2.64513 12.2208 2.69468 12.2019 2.75044C10.5325 6.91327 8.86929 11.0823 7.19983 15.2451C7.16217 15.338 7.11824 15.4248 7.06176 15.5115C6.80443 15.8956 6.46552 16.0195 6.06385 15.8832C5.63707 15.7407 5.42996 15.4124 5.46134 14.9602C5.48644 14.5885 5.61197 14.2354 5.75004 13.8947C7.46343 9.70088 9.17054 5.50707 10.8839 1.31327C10.9153 1.23893 10.9655 1.1646 11.0283 1.10265C11.4362 0.712384 11.8944 0.408844 12.4844 0.408844C12.7479 0.408844 13.0178 0.476986 13.2751 0.532738C16.3756 1.17699 19.4697 1.82123 22.5701 2.46548C24.0011 2.76283 25.4383 3.06637 26.8693 3.3761C27.1705 3.43805 27.4592 3.53716 27.7479 3.64867C28.4446 3.91504 29.0157 4.31769 29.1538 5.11061C29.1413 5.26548 29.1413 5.42654 29.1413 5.5876Z" fill="url(#paint0_linear_346_705)"/>
<path d="M21.5109 12.5938C21.1532 13.1699 20.8017 13.7274 20.4502 14.2788C20.4314 14.3097 20.3436 14.3221 20.2933 14.3097C19.5716 14.1239 18.8436 13.9257 18.1218 13.7336C17.1553 13.4797 16.195 13.2195 15.2285 12.9655C15.2034 12.9593 15.1783 12.9469 15.1406 12.9345C15.1595 12.8974 15.1783 12.8602 15.1971 12.8292C15.5235 12.315 15.8436 11.7947 16.1636 11.2805C16.2076 11.2124 16.2515 11.1814 16.3331 11.2062C18.0277 11.6584 19.7285 12.1106 21.4231 12.5628C21.4482 12.5752 21.4733 12.5814 21.5109 12.5938Z" fill="url(#paint1_linear_346_705)"/>
<path d="M19.3703 16.8062C19 17.3947 18.6423 17.9708 18.272 18.5593C16.5209 18.0947 14.7636 17.6301 13 17.1593C13.0251 17.1159 13.0377 17.085 13.0565 17.054C13.3766 16.5398 13.7029 16.0195 14.023 15.5053C14.0607 15.4434 14.0983 15.4 14.1925 15.4248C15.8996 15.8832 17.6004 16.3354 19.3075 16.7876C19.3201 16.7876 19.3326 16.7938 19.3703 16.8062Z" fill="url(#paint2_linear_346_705)"/>
<path d="M22.9352 8.38759C22.5774 8.9575 22.2322 9.50883 21.8745 10.0664C21.8557 10.0973 21.7678 10.1159 21.7176 10.1035C20.8264 9.86812 19.9352 9.63272 19.0439 9.39733C18.2343 9.18051 17.431 8.96989 16.6214 8.75308C16.6025 8.74688 16.5837 8.74069 16.5586 8.7283C16.5774 8.69733 16.59 8.66635 16.6025 8.64157C16.9289 8.12122 17.2552 7.60087 17.5816 7.08051C17.6255 7.01237 17.6569 6.9752 17.7511 6.99998C19.4519 7.45839 21.1527 7.90441 22.8536 8.35662C22.8787 8.36281 22.8975 8.3752 22.9352 8.38759Z" fill="url(#paint3_linear_346_705)"/>
<path d="M15.1126 6.79557C15.1126 7.56371 14.4725 8.20176 13.6942 8.20176C12.916 8.20176 12.2695 7.5699 12.2695 6.79557C12.2695 6.02743 12.9097 5.38937 13.6942 5.38937C14.4662 5.38937 15.1126 6.02123 15.1126 6.79557Z" fill="url(#paint4_linear_346_705)"/>
<path d="M13.6829 11.008C13.6829 11.7823 13.049 12.4142 12.2645 12.4142C11.48 12.4142 10.8398 11.7885 10.8398 11.0142C10.8398 10.2398 11.4737 9.61417 12.2583 9.60797C13.049 9.60797 13.6829 10.2336 13.6829 11.008Z" fill="url(#paint5_linear_346_705)"/>
<path d="M9.42188 15.2203C9.42188 14.4398 10.0558 13.8203 10.8403 13.8203C11.6248 13.8203 12.2587 14.446 12.2587 15.2203C12.2587 16.0009 11.6311 16.6203 10.8403 16.6203C10.0495 16.6203 9.42188 16.0009 9.42188 15.2203Z" fill="url(#paint6_linear_346_705)"/>
<defs>
<linearGradient id="paint0_linear_346_705" x1="15.0027" y1="0.408844" x2="15.0027" y2="27.5894" gradientUnits="userSpaceOnUse">
<stop stop-color="#FF8D00"/>
<stop offset="1" stop-color="#FFA500"/>
</linearGradient>
<linearGradient id="paint1_linear_346_705" x1="18.3258" y1="11.1977" x2="18.3258" y2="14.3145" gradientUnits="userSpaceOnUse">
<stop stop-color="#FF8D00"/>
<stop offset="1" stop-color="#FFA500"/>
</linearGradient>
<linearGradient id="paint2_linear_346_705" x1="16.1851" y1="15.4177" x2="16.1851" y2="18.5593" gradientUnits="userSpaceOnUse">
<stop stop-color="#FF8D00"/>
<stop offset="1" stop-color="#FFA500"/>
</linearGradient>
<linearGradient id="paint3_linear_346_705" x1="19.7469" y1="6.99228" x2="19.7469" y2="10.1074" gradientUnits="userSpaceOnUse">
<stop stop-color="#FF8D00"/>
<stop offset="1" stop-color="#FFA500"/>
</linearGradient>
<linearGradient id="paint4_linear_346_705" x1="13.6911" y1="5.38937" x2="13.6911" y2="8.20176" gradientUnits="userSpaceOnUse">
<stop stop-color="#FF8D00"/>
<stop offset="1" stop-color="#FFA500"/>
</linearGradient>
<linearGradient id="paint5_linear_346_705" x1="12.2614" y1="9.60797" x2="12.2614" y2="12.4142" gradientUnits="userSpaceOnUse">
<stop stop-color="#FF8D00"/>
<stop offset="1" stop-color="#FFA500"/>
</linearGradient>
<linearGradient id="paint6_linear_346_705" x1="10.8403" y1="13.8203" x2="10.8403" y2="16.6203" gradientUnits="userSpaceOnUse">
<stop stop-color="#FF8D00"/>
<stop offset="1" stop-color="#FFA500"/>
</linearGradient>
</defs>
</svg>
