<svg width="12" height="12" viewBox="0 0 12 12" fill="none" xmlns="http://www.w3.org/2000/svg">
<path d="M6 11.833C9.21417 11.833 11.8333 9.21384 11.8333 5.99967C11.8333 2.78551 9.21417 0.16634 6 0.16634C2.78583 0.16634 0.166666 2.78551 0.166666 5.99967C0.166666 9.21384 2.78583 11.833 6 11.833ZM6.4375 8.33301C6.4375 8.57217 6.23917 8.77051 6 8.77051C5.76083 8.77051 5.5625 8.57217 5.5625 8.33301L5.5625 5.41634C5.5625 5.17717 5.76083 4.97884 6 4.97884C6.23917 4.97884 6.4375 5.17717 6.4375 5.41634L6.4375 8.33301ZM5.46333 3.44467C5.4925 3.36884 5.53333 3.31051 5.58583 3.25217C5.64417 3.19967 5.70833 3.15884 5.77833 3.12967C5.84833 3.10051 5.92417 3.08301 6 3.08301C6.07583 3.08301 6.15167 3.10051 6.22167 3.12967C6.29167 3.15884 6.35583 3.19967 6.41417 3.25217C6.46667 3.31051 6.5075 3.36884 6.53667 3.44467C6.56583 3.51467 6.58333 3.59051 6.58333 3.66634C6.58333 3.74217 6.56583 3.81801 6.53667 3.88801C6.5075 3.95801 6.46667 4.02217 6.41417 4.08051C6.35583 4.13301 6.29167 4.17384 6.22167 4.20301C6.08167 4.26134 5.91833 4.26134 5.77833 4.20301C5.70833 4.17384 5.64417 4.13301 5.58583 4.08051C5.53333 4.02217 5.4925 3.95801 5.46333 3.88801C5.43417 3.81801 5.41667 3.74217 5.41667 3.66634C5.41667 3.59051 5.43417 3.51467 5.46333 3.44467Z" fill="#FFA500"/>
</svg>
