<svg width="20" height="19" viewBox="0 0 20 19" fill="none" xmlns="http://www.w3.org/2000/svg">
<path d="M11.7338 1.36668L13.4943 4.73472C13.7343 5.194 14.3745 5.65328 14.908 5.72983L18.0955 6.24014C20.136 6.57184 20.6161 7.97519 19.1491 9.37854L16.6684 11.7642C16.255 12.1597 16.0149 12.938 16.1483 13.4993L16.8551 16.4463C17.4153 18.7682 16.1216 19.674 13.9744 18.4621L10.9869 16.7653C10.4401 16.4591 9.55988 16.4591 9.01307 16.7653L6.01228 18.4493C3.86505 19.6613 2.57137 18.7555 3.13152 16.4336L3.83837 13.4865C3.97174 12.938 3.73168 12.1597 3.31824 11.7515L0.850918 9.3913C-0.616136 7.98795 -0.136009 6.57184 1.90453 6.2529L5.09204 5.74259C5.62551 5.65328 6.26568 5.20676 6.50574 4.74748L8.26621 1.37944C9.21312 -0.45768 10.7869 -0.45768 11.7338 1.36668Z" fill="#FFA500"/>
</svg>
