<svg width="13" height="13" viewBox="0 0 13 13" fill="none" xmlns="http://www.w3.org/2000/svg">
<path d="M6.5 0.25C3.05625 0.25 0.25 3.05625 0.25 6.5C0.25 9.94375 3.05625 12.75 6.5 12.75C9.94375 12.75 12.75 9.94375 12.75 6.5C12.75 3.05625 9.94375 0.25 6.5 0.25ZM6.03125 4C6.03125 3.74375 6.24375 3.53125 6.5 3.53125C6.75625 3.53125 6.96875 3.74375 6.96875 4V7.125C6.96875 7.38125 6.75625 7.59375 6.5 7.59375C6.24375 7.59375 6.03125 7.38125 6.03125 7.125V4ZM7.075 9.2375C7.04375 9.31875 7 9.38125 6.94375 9.44375C6.88125 9.5 6.8125 9.54375 6.7375 9.575C6.6625 9.60625 6.58125 9.625 6.5 9.625C6.41875 9.625 6.3375 9.60625 6.2625 9.575C6.1875 9.54375 6.11875 9.5 6.05625 9.44375C6 9.38125 5.95625 9.31875 5.925 9.2375C5.89375 9.1625 5.875 9.08125 5.875 9C5.875 8.91875 5.89375 8.8375 5.925 8.7625C5.95625 8.6875 6 8.61875 6.05625 8.55625C6.11875 8.5 6.1875 8.45625 6.2625 8.425C6.4125 8.3625 6.5875 8.3625 6.7375 8.425C6.8125 8.45625 6.88125 8.5 6.94375 8.55625C7 8.61875 7.04375 8.6875 7.075 8.7625C7.10625 8.8375 7.125 8.91875 7.125 9C7.125 9.08125 7.10625 9.1625 7.075 9.2375Z" fill="#FFA500"/>
</svg>
