<svg width="20" height="20" viewBox="0 0 20 20" fill="none" xmlns="http://www.w3.org/2000/svg">
<path d="M13.3333 18.9584H6.66667C3.625 18.9584 1.875 17.2084 1.875 14.1667V5.83335C1.875 2.79169 3.625 1.04169 6.66667 1.04169H13.3333C16.375 1.04169 18.125 2.79169 18.125 5.83335V14.1667C18.125 17.2084 16.375 18.9584 13.3333 18.9584ZM6.66667 2.29169C4.28333 2.29169 3.125 3.45002 3.125 5.83335V14.1667C3.125 16.55 4.28333 17.7084 6.66667 17.7084H13.3333C15.7167 17.7084 16.875 16.55 16.875 14.1667V5.83335C16.875 3.45002 15.7167 2.29169 13.3333 2.29169H6.66667Z" fill="#71839B"/>
<path d="M15.4154 7.70833H13.7487C12.482 7.70833 11.457 6.68333 11.457 5.41667V3.75C11.457 3.40833 11.7404 3.125 12.082 3.125C12.4237 3.125 12.707 3.40833 12.707 3.75V5.41667C12.707 5.99167 13.1737 6.45833 13.7487 6.45833H15.4154C15.757 6.45833 16.0404 6.74167 16.0404 7.08333C16.0404 7.425 15.757 7.70833 15.4154 7.70833Z" fill="#71839B"/>
<path d="M10.0013 11.4583H6.66797C6.3263 11.4583 6.04297 11.175 6.04297 10.8333C6.04297 10.4916 6.3263 10.2083 6.66797 10.2083H10.0013C10.343 10.2083 10.6263 10.4916 10.6263 10.8333C10.6263 11.175 10.343 11.4583 10.0013 11.4583Z" fill="#71839B"/>
<path d="M13.3346 14.7917H6.66797C6.3263 14.7917 6.04297 14.5084 6.04297 14.1667C6.04297 13.825 6.3263 13.5417 6.66797 13.5417H13.3346C13.6763 13.5417 13.9596 13.825 13.9596 14.1667C13.9596 14.5084 13.6763 14.7917 13.3346 14.7917Z" fill="#71839B"/>
</svg>
