<svg width="20" height="20" viewBox="0 0 20 20" fill="none" xmlns="http://www.w3.org/2000/svg">
<path d="M13.3333 1.66602H6.66667C3.75 1.66602 2.5 3.33268 2.5 5.83268V14.166C2.5 16.666 3.75 18.3327 6.66667 18.3327H13.3333C16.25 18.3327 17.5 16.666 17.5 14.166V5.83268C17.5 3.33268 16.25 1.66602 13.3333 1.66602ZM6.66667 10.2077H10C10.3417 10.2077 10.625 10.491 10.625 10.8327C10.625 11.1743 10.3417 11.4577 10 11.4577H6.66667C6.325 11.4577 6.04167 11.1743 6.04167 10.8327C6.04167 10.491 6.325 10.2077 6.66667 10.2077ZM13.3333 14.791H6.66667C6.325 14.791 6.04167 14.5077 6.04167 14.166C6.04167 13.8243 6.325 13.541 6.66667 13.541H13.3333C13.675 13.541 13.9583 13.8243 13.9583 14.166C13.9583 14.5077 13.675 14.791 13.3333 14.791ZM15.4167 7.70768H13.75C12.4833 7.70768 11.4583 6.68268 11.4583 5.41602V3.74935C11.4583 3.40768 11.7417 3.12435 12.0833 3.12435C12.425 3.12435 12.7083 3.40768 12.7083 3.74935V5.41602C12.7083 5.99102 13.175 6.45768 13.75 6.45768H15.4167C15.7583 6.45768 16.0417 6.74102 16.0417 7.08268C16.0417 7.42435 15.7583 7.70768 15.4167 7.70768Z" fill="#71839B"/>
</svg>
