<svg width="15" height="15" viewBox="0 0 15 15" fill="none" xmlns="http://www.w3.org/2000/svg">
<path d="M10.1766 13.8128H7.80156C7.45156 13.8128 6.68906 13.7065 6.28281 13.3003L4.38906 11.8378L4.96406 11.094L6.90156 12.594C7.05781 12.744 7.45156 12.869 7.80156 12.869H10.1766C10.7391 12.869 11.3453 12.419 11.4703 11.9128L12.9828 7.31905C13.0828 7.04405 13.0641 6.79405 12.9328 6.6128C12.7953 6.41905 12.5453 6.30655 12.2391 6.30655H9.73906C9.41406 6.30655 9.11406 6.16905 8.90781 5.93155C8.69531 5.6878 8.60156 5.3628 8.65156 5.0253L8.96406 3.01905C9.03906 2.66905 8.80156 2.2753 8.46406 2.1628C8.15781 2.0503 7.76406 2.2128 7.62656 2.4128L5.06406 6.2253L4.28906 5.70655L6.85156 1.89405C7.24531 1.30655 8.10781 1.0253 8.78281 1.28155C9.56406 1.5378 10.0641 2.4003 9.88906 3.2003L9.58281 5.16905C9.57656 5.2128 9.57656 5.2753 9.62031 5.3253C9.65156 5.35655 9.69531 5.3753 9.74531 5.3753H12.2453C12.8578 5.3753 13.3891 5.63155 13.7016 6.0753C14.0078 6.50655 14.0703 7.0753 13.8703 7.6253L12.3766 12.1753C12.1453 13.0815 11.1828 13.8128 10.1766 13.8128Z" fill="#081131"/>
<path d="M3.35938 13.125H2.73438C1.57812 13.125 1.01562 12.5813 1.01562 11.4688V5.34375C1.01562 4.23125 1.57812 3.6875 2.73438 3.6875H3.35938C4.51562 3.6875 5.07812 4.23125 5.07812 5.34375V11.4688C5.07812 12.5813 4.51562 13.125 3.35938 13.125ZM2.73438 4.625C2.05313 4.625 1.95313 4.7875 1.95313 5.34375V11.4688C1.95313 12.025 2.05313 12.1875 2.73438 12.1875H3.35938C4.04063 12.1875 4.14062 12.025 4.14062 11.4688V5.34375C4.14062 4.7875 4.04063 4.625 3.35938 4.625H2.73438Z" fill="#081131"/>
</svg>
