<svg width="20" height="20" viewBox="0 0 20 20" fill="none" xmlns="http://www.w3.org/2000/svg">
<path d="M14.7826 18.958H10.2159C9.87421 18.958 9.59088 18.6747 9.59088 18.333C9.59088 17.9913 9.87421 17.708 10.2159 17.708H14.7826C16.1659 17.708 17.2909 16.583 17.2909 15.1997V14.833H16.3326C15.0742 14.833 14.0075 13.8997 13.9075 12.6997C13.8409 12.008 14.0909 11.333 14.5909 10.8413C15.0159 10.408 15.5992 10.1664 16.2242 10.1664H17.2826V9.59135C17.2826 8.20802 16.1575 7.08301 14.7742 7.08301H5.20755C3.82421 7.08301 2.69922 8.20802 2.69922 9.59135V11.033C2.69922 11.3747 2.41589 11.658 2.07422 11.658C1.73255 11.658 1.44922 11.3747 1.44922 11.033V9.59135C1.44922 7.51635 3.13255 5.83301 5.20755 5.83301H14.7742C16.8492 5.83301 18.5326 7.51635 18.5326 9.59135V10.7914C18.5326 11.133 18.2492 11.4164 17.9076 11.4164H16.2242C15.9325 11.4164 15.6659 11.5247 15.4742 11.7247C15.2326 11.958 15.1159 12.2747 15.1492 12.5913C15.1992 13.1413 15.7242 13.583 16.3242 13.583H17.9076C18.2492 13.583 18.5326 13.8663 18.5326 14.208V15.1997C18.5409 17.2747 16.8576 18.958 14.7826 18.958Z" fill="#71839B"/>
<path d="M2.08203 10.967C1.74036 10.967 1.45703 10.6837 1.45703 10.342V6.53371C1.45703 5.29204 2.24037 4.167 3.3987 3.72533L10.0154 1.22533C10.6987 0.966997 11.457 1.0587 12.0487 1.47537C12.6487 1.89204 12.9987 2.56703 12.9987 3.29203V6.45869C12.9987 6.80035 12.7154 7.08369 12.3737 7.08369C12.032 7.08369 11.7487 6.80035 11.7487 6.45869V3.29203C11.7487 2.97536 11.5987 2.68369 11.332 2.50035C11.0654 2.31702 10.7487 2.27535 10.4487 2.39202L3.83204 4.89202C3.15704 5.15035 2.6987 5.80871 2.6987 6.53371V10.342C2.70704 10.692 2.4237 10.967 2.08203 10.967Z" fill="#71839B"/>
<path d="M16.334 14.8336C15.0757 14.8336 14.009 13.9003 13.909 12.7003C13.8424 12.0086 14.0924 11.3337 14.5924 10.842C15.0174 10.4087 15.6007 10.167 16.2257 10.167H17.959C18.784 10.192 19.4174 10.842 19.4174 11.642V13.3587C19.4174 14.1587 18.784 14.8086 17.984 14.8336H16.334ZM17.9424 11.417H16.234C15.9424 11.417 15.6757 11.5253 15.484 11.7253C15.2424 11.9587 15.1257 12.2753 15.159 12.592C15.209 13.142 15.734 13.5836 16.334 13.5836H17.9674C18.0757 13.5836 18.1757 13.4837 18.1757 13.3587V11.642C18.1757 11.517 18.0757 11.4253 17.9424 11.417Z" fill="#71839B"/>
<path d="M11.6654 10.625H5.83203C5.49036 10.625 5.20703 10.3417 5.20703 10C5.20703 9.65833 5.49036 9.375 5.83203 9.375H11.6654C12.007 9.375 12.2904 9.65833 12.2904 10C12.2904 10.3417 12.007 10.625 11.6654 10.625Z" fill="#71839B"/>
<path d="M7.91667 16.4083C7.575 16.4083 7.29167 16.125 7.29167 15.7833V14.7166C7.29167 14.5333 7.14166 14.375 6.95 14.375H2.5C2.15833 14.375 1.875 14.0917 1.875 13.75C1.875 13.4083 2.15833 13.125 2.5 13.125H6.95C7.825 13.125 8.54167 13.8416 8.54167 14.7166V15.7833C8.54167 16.125 8.25833 16.4083 7.91667 16.4083Z" fill="#71839B"/>
<path d="M3.51849 15.3916C3.36016 15.3916 3.20182 15.3333 3.07682 15.2083L2.06016 14.1916C1.81849 13.95 1.81849 13.5499 2.06016 13.3082L3.07682 12.2916C3.31849 12.0499 3.71849 12.0499 3.96016 12.2916C4.20182 12.5333 4.20182 12.9333 3.96016 13.1749L3.38515 13.7499L3.96016 14.3249C4.20182 14.5666 4.20182 14.9666 3.96016 15.2083C3.83516 15.3333 3.67682 15.3916 3.51849 15.3916Z" fill="#71839B"/>
<path d="M7.91667 18.7755H3.46667C2.59167 18.7755 1.875 18.0588 1.875 17.1838V16.1172C1.875 15.7755 2.15833 15.4922 2.5 15.4922C2.84167 15.4922 3.125 15.7755 3.125 16.1172V17.1838C3.125 17.3672 3.275 17.5255 3.46667 17.5255H7.91667C8.25833 17.5255 8.54167 17.8089 8.54167 18.1505C8.54167 18.4922 8.25833 18.7755 7.91667 18.7755Z" fill="#71839B"/>
<path d="M6.90026 19.792C6.74193 19.792 6.58359 19.7337 6.45859 19.6087C6.21693 19.367 6.21693 18.9669 6.45859 18.7253L7.0336 18.1503L6.45859 17.5753C6.21693 17.3337 6.21693 16.9337 6.45859 16.692C6.70026 16.4503 7.10026 16.4503 7.34193 16.692L8.35859 17.7086C8.60026 17.9503 8.60026 18.3503 8.35859 18.592L7.34193 19.6087C7.22526 19.7337 7.05859 19.792 6.90026 19.792Z" fill="#71839B"/>
</svg>
