<svg xmlns="http://www.w3.org/2000/svg" xmlns:xlink="http://www.w3.org/1999/xlink" width="17" height="17" viewBox="0 0 17 17">
  <defs>
    <clipPath id="clip-path">
      <rect id="Rectangle_19236" data-name="Rectangle 19236" width="17" height="17" transform="translate(1368 930)" fill="#6e3333" opacity="0.33"/>
    </clipPath>
  </defs>
  <g id="Mask_Group_224" data-name="Mask Group 224" transform="translate(-1368 -930)" clip-path="url(#clip-path)">
    <path id="Path_43591" data-name="Path 43591" d="M752.667,1384.889a5.04,5.04,0,0,0,1.578-1.976,1.374,1.374,0,0,0-.145-1.282,1.424,1.424,0,0,0-1.184-.63h-4.25a1.424,1.424,0,0,0-1.184.63,1.376,1.376,0,0,0-.145,1.282,5.04,5.04,0,0,0,1.578,1.976c-3.3,1.225-5.916,5.433-5.916,8.861a4.254,4.254,0,0,0,4.25,4.25h7.083a4.254,4.254,0,0,0,4.25-4.25C758.583,1390.322,755.965,1386.114,752.667,1384.889Zm.261-2.493a5.056,5.056,0,0,1-2.138,2.061,4.972,4.972,0,0,1-2.124-2.04Zm1.4,14.188H747.25a2.834,2.834,0,0,1-2.833-2.833c0-3.712,3.336-7.792,6.375-7.792s6.375,4.08,6.375,7.792a2.834,2.834,0,0,1-2.833,2.833Zm-3.542,0a.71.71,0,0,1-.708-.708v-.708h-.19a2.125,2.125,0,0,1-1.84-1.062.708.708,0,0,1,1.226-.708.709.709,0,0,0,.614.354H751.5a.71.71,0,0,0,.708-.708.542.542,0,0,0-.456-.538l-2.155-.361a1.953,1.953,0,0,1-1.64-1.934,2.129,2.129,0,0,1,2.125-2.125v-.708a.708.708,0,1,1,1.417,0v.708h.19a2.126,2.126,0,0,1,1.84,1.063.708.708,0,1,1-1.226.708.71.71,0,0,0-.614-.354h-1.607a.71.71,0,0,0-.708.708.542.542,0,0,0,.456.538l2.155.361a1.952,1.952,0,0,1,1.64,1.934,2.129,2.129,0,0,1-2.125,2.125v.708a.709.709,0,0,1-.708.708Z" transform="translate(625.8 -451)" fill="#777e90"/>
  </g>
</svg>
