<svg width="20" height="20" viewBox="0 0 20 20" fill="none" xmlns="http://www.w3.org/2000/svg">
<path d="M10.0026 18.334C14.5943 18.334 18.3359 14.5923 18.3359 10.0007C18.3359 5.40898 14.5943 1.66732 10.0026 1.66732C5.41094 1.66732 1.66927 5.40898 1.66927 10.0006C1.66927 14.5923 5.41094 18.334 10.0026 18.334ZM10.6276 13.334C10.6276 13.6757 10.3443 13.959 10.0026 13.959C9.66094 13.959 9.3776 13.6757 9.3776 13.334L9.37761 9.16732C9.37761 8.82565 9.66094 8.54232 10.0026 8.54232C10.3443 8.54232 10.6276 8.82565 10.6276 9.16732L10.6276 13.334ZM9.23594 6.35065C9.27761 6.24232 9.33594 6.15898 9.41094 6.07565C9.49427 6.00065 9.58594 5.94232 9.68594 5.90065C9.78594 5.85898 9.89427 5.83398 10.0026 5.83398C10.1109 5.83398 10.2193 5.85898 10.3193 5.90065C10.4193 5.94232 10.5109 6.00065 10.5943 6.07565C10.6693 6.15898 10.7276 6.24232 10.7693 6.35065C10.8109 6.45065 10.8359 6.55898 10.8359 6.66732C10.8359 6.77565 10.8109 6.88398 10.7693 6.98398C10.7276 7.08398 10.6693 7.17565 10.5943 7.25898C10.5109 7.33398 10.4193 7.39232 10.3193 7.43398C10.1193 7.51732 9.88594 7.51732 9.68594 7.43398C9.58594 7.39232 9.49427 7.33398 9.41094 7.25898C9.33594 7.17565 9.27761 7.08398 9.23594 6.98398C9.19427 6.88398 9.16927 6.77565 9.16927 6.66732C9.16927 6.55898 9.19427 6.45065 9.23594 6.35065Z" fill="#71839B"/>
</svg>
