<svg width="20" height="20" viewBox="0 0 20 20" fill="none" xmlns="http://www.w3.org/2000/svg">
<path d="M11.6693 10.1182H5.83594C5.49427 10.1182 5.21094 9.84837 5.21094 9.52297C5.21094 9.19758 5.49427 8.92773 5.83594 8.92773H11.6693C12.0109 8.92773 12.2943 9.19758 12.2943 9.52297C12.2943 9.84837 12.0109 10.1182 11.6693 10.1182Z" fill="#71839B"/>
<path d="M14.7865 18.0566H10.2198C9.87812 18.0566 9.59478 17.7868 9.59478 17.4614C9.59478 17.136 9.87812 16.8662 10.2198 16.8662H14.7865C16.1698 16.8662 17.2948 15.7947 17.2948 14.4773V14.1281H16.3365C15.0781 14.1281 14.0115 13.2392 13.9115 12.0963C13.8448 11.4376 14.0948 10.7947 14.5948 10.3265C15.0198 9.91379 15.6031 9.68363 16.2281 9.68363H17.2865V9.13601C17.2865 7.81855 16.1614 6.74712 14.7781 6.74712H5.21145C3.82812 6.74712 2.70312 7.81855 2.70312 9.13601V10.509C2.70312 10.8344 2.41979 11.1043 2.07812 11.1043C1.73646 11.1043 1.45312 10.8344 1.45312 10.509V9.13601C1.45312 7.15982 3.13645 5.55664 5.21145 5.55664H14.7781C16.8531 5.55664 18.5365 7.15982 18.5365 9.13601V10.2789C18.5365 10.6043 18.2531 10.8741 17.9115 10.8741H16.2281C15.9365 10.8741 15.6698 10.9773 15.4781 11.1678C15.2365 11.39 15.1198 11.6915 15.1531 11.9931C15.2031 12.5169 15.7281 12.9376 16.3281 12.9376H17.9115C18.2531 12.9376 18.5365 13.2074 18.5365 13.5328V14.4773C18.5448 16.4535 16.8615 18.0566 14.7865 18.0566Z" fill="#71839B"/>
<path d="M2.08594 10.4445C1.74427 10.4445 1.46094 10.1746 1.46094 9.84924V6.2223C1.46094 5.03976 2.24427 3.96829 3.40261 3.54765L10.0193 1.1667C10.7026 0.92067 11.4609 1.00801 12.0526 1.40484C12.6526 1.80166 13.0026 2.44451 13.0026 3.13499V6.15085C13.0026 6.47625 12.7193 6.74609 12.3776 6.74609C12.0359 6.74609 11.7526 6.47625 11.7526 6.15085V3.13499C11.7526 2.8334 11.6026 2.55561 11.3359 2.38101C11.0693 2.20641 10.7526 2.16672 10.4526 2.27783L3.83594 4.65878C3.16094 4.90482 2.70261 5.53183 2.70261 6.2223V9.84924C2.71094 10.1826 2.4276 10.4445 2.08594 10.4445Z" fill="#71839B"/>
<path d="M14.4801 6.19141H4.38095C3.06599 6.19141 2 7.2574 2 8.57236L1.96902 9.13293C1.71428 13.7425 5.38343 17.62 10 17.62L13.9346 17.0847C15.7899 16.8322 17.3101 15.4864 17.7855 13.6754C17.9273 13.135 17.9701 12.5734 17.9118 12.0177L17.5945 8.99585C17.5328 8.40808 17.306 7.84977 16.9403 7.38546C16.3466 6.63148 15.4398 6.19141 14.4801 6.19141Z" fill="#71839B" stroke="#71839B"/>
<ellipse cx="4.5" cy="15.7134" rx="4.5" ry="4.28571" fill="white"/>
<path d="M16.334 14.1261C15.0757 14.1261 14.009 13.2372 13.909 12.0943C13.8424 11.4356 14.0924 10.7927 14.5924 10.3245C15.0174 9.9118 15.6007 9.68164 16.2257 9.68164H17.959C18.784 9.70545 19.4174 10.3245 19.4174 11.0864V12.7213C19.4174 13.4832 18.784 14.1023 17.984 14.1261H16.334ZM17.9424 10.8721H16.234C15.9424 10.8721 15.6757 10.9753 15.484 11.1658C15.2424 11.388 15.1257 11.6896 15.159 11.9911C15.209 12.515 15.734 12.9356 16.334 12.9356H17.9674C18.0757 12.9356 18.1757 12.8404 18.1757 12.7213V11.0864C18.1757 10.9673 18.0757 10.8801 17.9424 10.8721Z" fill="white"/>
<path d="M6.53125 16.1899C6.275 16.1899 6.0625 16.0255 6.0625 15.8273V15.2085C6.0625 15.1022 5.95 15.0103 5.80625 15.0103H2.46875C2.2125 15.0103 2 14.8459 2 14.6477C2 14.4495 2.2125 14.2852 2.46875 14.2852H5.80625C6.4625 14.2852 7 14.7009 7 15.2085V15.8273C7 16.0255 6.7875 16.1899 6.53125 16.1899Z" fill="#71839B"/>
<path d="M3.44936 16.1911C3.30939 16.1911 3.16943 16.1404 3.05893 16.0315L2.16022 15.1463C1.94659 14.9358 1.94659 14.5875 2.16022 14.3771L3.05893 13.4918C3.27256 13.2814 3.62615 13.2814 3.83978 13.4918C4.05341 13.7022 4.05341 14.0505 3.83978 14.261L3.33149 14.7617L3.83978 15.2623C4.05341 15.4728 4.05341 15.8211 3.83978 16.0315C3.72928 16.1404 3.58932 16.1911 3.44936 16.1911Z" fill="#71839B"/>
<path d="M6.53125 18.0962H3.19375C2.5375 18.0962 2 17.6804 2 17.1728V16.554C2 16.3558 2.2125 16.1914 2.46875 16.1914C2.725 16.1914 2.9375 16.3558 2.9375 16.554V17.1728C2.9375 17.2791 3.05 17.371 3.19375 17.371H6.53125C6.7875 17.371 7 17.5354 7 17.7336C7 17.9318 6.7875 18.0962 6.53125 18.0962Z" fill="#71839B"/>
<path d="M5.55064 19.0485C5.41068 19.0485 5.27072 18.9978 5.16022 18.8889C4.94659 18.6785 4.94659 18.3302 5.16022 18.1197L5.66851 17.6191L5.16022 17.1184C4.94659 16.908 4.94659 16.5597 5.16022 16.3492C5.37385 16.1388 5.72744 16.1388 5.94107 16.3492L6.83978 17.2345C7.05341 17.4449 7.05341 17.7932 6.83978 18.0036L5.94107 18.8889C5.83794 18.9978 5.69061 19.0485 5.55064 19.0485Z" fill="#71839B"/>
<path d="M10.4583 9.76274H4.625C4.28333 9.76274 4 9.4929 4 9.1675C4 8.84211 4.28333 8.57227 4.625 8.57227H10.4583C10.8 8.57227 11.0833 8.84211 11.0833 9.1675C11.0833 9.4929 10.8 9.76274 10.4583 9.76274Z" fill="white"/>
</svg>
