<svg width="20" height="20" viewBox="0 0 20 20" fill="none" xmlns="http://www.w3.org/2000/svg">
<path d="M9.9987 1.04165C14.9404 1.04165 18.957 5.05831 18.957 9.99998C18.957 14.9416 14.9404 18.9583 9.9987 18.9583C5.05703 18.9583 1.04037 14.9416 1.04037 9.99998C1.04037 5.05831 5.05703 1.04165 9.9987 1.04165ZM9.9987 17.7083C14.2487 17.7083 17.707 14.25 17.707 9.99998C17.707 5.74998 14.2487 2.29165 9.9987 2.29165C5.7487 2.29165 2.29037 5.74998 2.29037 9.99998C2.29037 14.25 5.7487 17.7083 9.9987 17.7083Z" fill="#71839B"/>
<path d="M10 8.54165C10.3417 8.54165 10.625 8.82498 10.625 9.16665L10.625 13.3333C10.625 13.675 10.3417 13.9583 10 13.9583C9.65833 13.9583 9.375 13.675 9.375 13.3333L9.375 9.16665C9.375 8.82498 9.65833 8.54165 10 8.54165Z" fill="#71839B"/>
<path d="M9.9987 5.83335C10.107 5.83335 10.2154 5.85835 10.3154 5.90002C10.4154 5.94168 10.507 6.00002 10.5904 6.07502C10.6654 6.15835 10.7237 6.24168 10.7654 6.35002C10.807 6.45002 10.832 6.55835 10.832 6.66668C10.832 6.77502 10.807 6.88335 10.7654 6.98335C10.7237 7.08335 10.6654 7.17502 10.5904 7.25835C10.507 7.33335 10.4154 7.39168 10.3154 7.43335C10.1154 7.51668 9.88203 7.51668 9.68203 7.43335C9.58203 7.39168 9.49036 7.33335 9.40703 7.25835C9.33203 7.17502 9.2737 7.08335 9.23203 6.98335C9.19036 6.88335 9.16536 6.77502 9.16536 6.66668C9.16536 6.55835 9.19036 6.45002 9.23203 6.35002C9.2737 6.24168 9.33203 6.15835 9.40703 6.07502C9.49036 6.00002 9.58203 5.94168 9.68203 5.90002C9.78203 5.85835 9.89036 5.83335 9.9987 5.83335Z" fill="#71839B"/>
</svg>
