<svg width="50" height="50" viewBox="0 0 50 50" fill="none" xmlns="http://www.w3.org/2000/svg">
<g clip-path="url(#clip0_195_16029)">
<path d="M40.625 50H9.375C4.19688 50 0 45.8031 0 40.625V9.375C0 4.19688 4.19688 0 9.375 0H40.625C45.8031 0 50 4.19688 50 9.375V40.625C50 45.8031 45.8031 50 40.625 50Z" fill="#FFA500" fill-opacity="0.15"/>
<path d="M32.0312 21.875H31.25V18.75C31.25 15.3031 28.4469 12.5 25 12.5C21.5531 12.5 18.75 15.3031 18.75 18.75V21.875H17.9688C16.6766 21.875 15.625 22.9266 15.625 24.2188V35.1562C15.625 36.4484 16.6766 37.5 17.9688 37.5H32.0312C33.3234 37.5 34.375 36.4484 34.375 35.1562V24.2188C34.375 22.9266 33.3234 21.875 32.0312 21.875ZM20.8328 18.75C20.8328 16.4531 22.7016 14.5828 25 14.5828C27.2984 14.5828 29.1672 16.4531 29.1672 18.75V21.875H20.8328V18.75ZM26.0422 29.9188V32.2922C26.0422 32.8672 25.5766 33.3344 25 33.3344C24.4234 33.3344 23.9578 32.8672 23.9578 32.2922V29.9188C23.3375 29.5578 22.9156 28.8937 22.9156 28.125C22.9156 26.9766 23.85 26.0422 24.9984 26.0422C26.1469 26.0422 27.0813 26.9766 27.0813 28.125C27.0828 28.8922 26.6609 29.5578 26.0422 29.9188Z" fill="#FFA500"/>
</g>
<defs>
<clipPath id="clip0_195_16029">
<rect width="50" height="50" fill="white"/>
</clipPath>
</defs>
</svg>
