<svg width="110" height="110" viewBox="0 0 110 110" fill="none" xmlns="http://www.w3.org/2000/svg">
<path d="M86.3115 78.6477L86.314 78.6498C86.6257 78.8913 86.7096 79.116 86.7096 79.271C86.7096 79.4644 86.573 79.7794 86.0226 80.0825C86.0224 80.0825 86.0228 80.0823 86.0226 80.0825L56.9163 96.0432C56.3736 96.3406 55.6281 96.504 54.8542 96.504C54.0801 96.504 53.3346 96.3406 52.7919 96.0432L23.6875 80.0827C23.1369 79.7799 23 79.4634 23 79.271C23 79.1146 23.0828 78.8921 23.395 78.649L23.3967 78.6477C23.4765 78.585 23.5727 78.5218 23.6853 78.4605L52.7917 62.4989C53.3352 62.2014 54.0809 62.0381 54.8548 62.0381C55.6287 62.0381 56.374 62.2012 56.9178 62.4989L86.3115 78.6477ZM86.3115 78.6477C86.2336 78.5865 86.1375 78.524 86.0207 78.4587C86.0201 78.4583 86.0195 78.4578 86.0189 78.4574L56.9178 62.4989L86.3115 78.6477Z" fill="#000D1D"/>
<path d="M86.3115 78.6477L86.314 78.6498C86.6257 78.8913 86.7096 79.116 86.7096 79.271C86.7096 79.4644 86.573 79.7794 86.0226 80.0825M86.3115 78.6477L56.9178 62.4989M86.3115 78.6477C86.2336 78.5865 86.1375 78.524 86.0207 78.4587C86.0201 78.4583 86.0195 78.4578 86.0189 78.4574L56.9178 62.4989M86.0226 80.0825C86.0224 80.0825 86.0228 80.0823 86.0226 80.0825ZM86.0226 80.0825L56.9163 96.0432C56.3736 96.3406 55.6281 96.504 54.8542 96.504C54.0801 96.504 53.3346 96.3406 52.7919 96.0432L23.6875 80.0827C23.1369 79.7799 23 79.4634 23 79.271C23 79.1146 23.0828 78.8921 23.395 78.649L23.3967 78.6477C23.4765 78.585 23.5727 78.5218 23.6853 78.4605L52.7917 62.4989C53.3352 62.2014 54.0809 62.0381 54.8548 62.0381C55.6287 62.0381 56.374 62.2012 56.9178 62.4989" stroke="#000D1D" stroke-width="0.5"/>
<path d="M41.2152 53.3778L51.6885 47.3306C53.4782 46.2954 55.6853 46.2954 57.4789 47.3306L67.9522 53.3778H86.0737V72.009C86.0737 72.6591 85.7526 73.3091 85.1107 73.6782L57.4789 89.633C55.6892 90.6682 53.4822 90.6682 51.6885 89.633L24.0568 73.6782C23.4147 73.3051 23.0938 72.6591 23.0938 72.009V53.3778H41.2152Z" fill="#EBE9E9" stroke="#000D1D" stroke-width="0.2" stroke-linecap="round" stroke-linejoin="round"/>
<mask id="mask0_6310_24948" style="mask-type:alpha" maskUnits="userSpaceOnUse" x="23" y="46" width="64" height="45">
<path d="M67.9522 53.3778L57.4789 47.3306C55.6892 46.2954 53.4822 46.2954 51.6885 47.3306L41.2152 53.3778H23.0938V72.009C23.0938 72.6591 23.4147 73.3091 24.0568 73.6782L51.6885 89.633C53.4782 90.6682 55.6853 90.6682 57.4789 89.633L85.1107 73.6782C85.7526 73.3051 86.0737 72.6591 86.0737 72.009V53.3778H67.9522Z" fill="#EBE9E9"/>
</mask>
<g mask="url(#mask0_6310_24948)">
<path d="M89.3208 53.1606H53.8105V103.293H89.3208V53.1606Z" fill="white"/>
<path d="M67.9522 53.3778L57.4789 47.3306C55.6892 46.2954 53.4822 46.2954 51.6885 47.3306L41.2152 53.3778H23.0938V72.009C23.0938 72.6591 23.4147 73.3091 24.0568 73.6782L51.6885 89.633C53.4782 90.6682 55.6853 90.6682 57.4789 89.633L85.1107 73.6782C85.7526 73.3051 86.0737 72.6591 86.0737 72.009V53.3778H67.9522Z" stroke="#000D1D" stroke-width="0.2" stroke-linecap="round" stroke-linejoin="round"/>
</g>
<path d="M57.48 71.0056L85.1119 55.0508C86.3998 54.3084 86.3998 52.4506 85.1119 51.7082L57.48 35.7535C55.6903 34.7182 53.4833 34.7182 51.6896 35.7535L24.0579 51.7082C22.7698 52.4506 22.7698 54.3084 24.0579 55.0508L51.6896 71.0056C53.4793 72.0408 55.6864 72.0408 57.48 71.0056Z" fill="white" stroke="#000D1D" stroke-width="0.2" stroke-linecap="round" stroke-linejoin="round"/>
<path d="M72.1301 56.708L68.8438 54.8101" stroke="#000D1D" stroke-width="0.2" stroke-linecap="round" stroke-linejoin="round"/>
<path d="M59.7844 63.8351L56.498 61.937" stroke="#000D1D" stroke-width="0.2" stroke-linecap="round" stroke-linejoin="round"/>
<path d="M62.2515 62.4096L58.9609 60.5117" stroke="#000D1D" stroke-width="0.2" stroke-linecap="round" stroke-linejoin="round"/>
<path d="M64.7202 60.9853L61.4336 59.0874" stroke="#000D1D" stroke-width="0.2" stroke-linecap="round" stroke-linejoin="round"/>
<path d="M67.1887 59.5611L63.9023 57.6592" stroke="#000D1D" stroke-width="0.2" stroke-linecap="round" stroke-linejoin="round"/>
<path d="M69.6616 58.1325L66.3711 56.2344" stroke="#000D1D" stroke-width="0.2" stroke-linecap="round" stroke-linejoin="round"/>
<path d="M37.041 56.708L40.3316 54.8101" stroke="#000D1D" stroke-width="0.2" stroke-linecap="round" stroke-linejoin="round"/>
<path d="M49.3867 63.8351L52.6771 61.937" stroke="#000D1D" stroke-width="0.2" stroke-linecap="round" stroke-linejoin="round"/>
<path d="M46.918 62.4096L50.2043 60.5117" stroke="#000D1D" stroke-width="0.2" stroke-linecap="round" stroke-linejoin="round"/>
<path d="M44.4512 60.9853L47.7375 59.0874" stroke="#000D1D" stroke-width="0.2" stroke-linecap="round" stroke-linejoin="round"/>
<path d="M41.9785 59.5611L45.2691 57.6592" stroke="#000D1D" stroke-width="0.2" stroke-linecap="round" stroke-linejoin="round"/>
<path d="M39.5078 58.1323L42.7944 56.2344" stroke="#000D1D" stroke-width="0.2" stroke-linecap="round" stroke-linejoin="round"/>
<path d="M72.1301 50.0503L68.8438 51.9482" stroke="#000D1D" stroke-width="0.2" stroke-linecap="round" stroke-linejoin="round"/>
<path d="M59.7844 42.9194L56.498 44.8176" stroke="#000D1D" stroke-width="0.2" stroke-linecap="round" stroke-linejoin="round"/>
<path d="M62.2515 44.3481L58.9609 46.2463" stroke="#000D1D" stroke-width="0.2" stroke-linecap="round" stroke-linejoin="round"/>
<path d="M64.7202 45.7734L61.4336 47.6714" stroke="#000D1D" stroke-width="0.2" stroke-linecap="round" stroke-linejoin="round"/>
<path d="M67.1887 47.1978L63.9023 49.0957" stroke="#000D1D" stroke-width="0.2" stroke-linecap="round" stroke-linejoin="round"/>
<path d="M69.6616 48.626L66.3711 50.5241" stroke="#000D1D" stroke-width="0.2" stroke-linecap="round" stroke-linejoin="round"/>
<path d="M37.041 50.0503L40.3316 51.9482" stroke="#000D1D" stroke-width="0.2" stroke-linecap="round" stroke-linejoin="round"/>
<path d="M49.3867 42.9194L52.6771 44.8176" stroke="#000D1D" stroke-width="0.2" stroke-linecap="round" stroke-linejoin="round"/>
<path d="M46.918 44.3481L50.2043 46.2463" stroke="#000D1D" stroke-width="0.2" stroke-linecap="round" stroke-linejoin="round"/>
<path d="M44.4512 45.7725L47.7375 47.6706" stroke="#000D1D" stroke-width="0.2" stroke-linecap="round" stroke-linejoin="round"/>
<path d="M41.9785 47.1978L45.2691 49.0957" stroke="#000D1D" stroke-width="0.2" stroke-linecap="round" stroke-linejoin="round"/>
<path d="M39.5078 48.626L42.7944 50.5241" stroke="#000D1D" stroke-width="0.2" stroke-linecap="round" stroke-linejoin="round"/>
<path d="M56.1854 63.1324L71.474 54.3044C72.1842 53.8952 72.1842 52.8679 71.474 52.4547L56.1854 43.6266C55.1942 43.0528 53.9746 43.0528 52.9834 43.6266L37.6948 52.4547C36.9846 52.8639 36.9846 53.8912 37.6948 54.3044L52.9834 63.1324C53.9746 63.7062 55.1942 63.7062 56.1854 63.1324Z" fill="#FFA500" stroke="#000D1D" stroke-width="0.2" stroke-linecap="round" stroke-linejoin="round"/>
<path d="M53.5742 49.4089C53.5742 49.4966 53.6375 49.6157 53.8259 49.7245C54.0089 49.8302 54.2754 49.9021 54.5813 49.9021C54.8871 49.9021 55.1536 49.8302 55.3366 49.7245C55.525 49.6157 55.5883 49.4966 55.5883 49.4089C55.5883 49.3212 55.525 49.2019 55.3366 49.0931C55.1536 48.9876 54.8871 48.9155 54.5813 48.9155C54.2754 48.9155 54.0089 48.9876 53.8259 49.0931C53.6375 49.2019 53.5742 49.3212 53.5742 49.4089Z" fill="#FFA500" stroke="#000D1D" stroke-width="0.2"/>
<path d="M50.1367 51.3952C50.1367 51.483 50.2 51.602 50.3884 51.7109C50.5712 51.8166 50.8377 51.8886 51.1435 51.8886C51.4493 51.8886 51.7159 51.8166 51.8989 51.7109C52.0873 51.602 52.1506 51.483 52.1506 51.3952C52.1506 51.3075 52.0873 51.1884 51.8989 51.0796C51.7159 50.9739 51.4493 50.9019 51.1435 50.9019C50.8377 50.9019 50.5712 50.9739 50.3884 51.0796C50.2 51.1884 50.1367 51.3075 50.1367 51.3952Z" fill="#FFA500" stroke="#000D1D" stroke-width="0.2"/>
<path d="M46.7012 53.3777C46.7012 53.4654 46.7645 53.5845 46.9529 53.6933C47.1359 53.799 47.4024 53.8708 47.7082 53.8708C48.014 53.8708 48.2805 53.799 48.4635 53.6933C48.6519 53.5845 48.7152 53.4654 48.7152 53.3777C48.7152 53.2899 48.6519 53.1707 48.4635 53.0618C48.2805 52.9563 48.014 52.8843 47.7082 52.8843C47.4024 52.8843 47.1359 52.9563 46.9529 53.0618C46.7645 53.1707 46.7012 53.2899 46.7012 53.3777Z" fill="#FFA500" stroke="#000D1D" stroke-width="0.2"/>
<path d="M57.0137 51.3952C57.0137 51.483 57.077 51.602 57.2654 51.7109C57.4484 51.8166 57.7149 51.8886 58.0207 51.8886C58.3265 51.8886 58.593 51.8166 58.776 51.7109C58.9644 51.602 59.0277 51.483 59.0277 51.3952C59.0277 51.3075 58.9644 51.1884 58.776 51.0796C58.593 50.9739 58.3265 50.9019 58.0207 50.9019C57.7149 50.9019 57.4484 50.9739 57.2654 51.0796C57.077 51.1884 57.0137 51.3075 57.0137 51.3952Z" fill="#FFA500" stroke="#000D1D" stroke-width="0.2"/>
<path d="M53.5742 53.3777C53.5742 53.4654 53.6375 53.5845 53.8259 53.6933C54.0089 53.799 54.2754 53.8708 54.5813 53.8708C54.8871 53.8708 55.1536 53.799 55.3366 53.6933C55.525 53.5845 55.5883 53.4654 55.5883 53.3777C55.5883 53.2899 55.525 53.1707 55.3366 53.0618C55.1536 52.9563 54.8871 52.8843 54.5813 52.8843C54.2754 52.8843 54.0089 52.9563 53.8259 53.0618C53.6375 53.1707 53.5742 53.2899 53.5742 53.3777Z" fill="#FFA500" stroke="#000D1D" stroke-width="0.2"/>
<path d="M50.1367 55.364C50.1367 55.4517 50.2 55.5708 50.3884 55.6796C50.5712 55.7853 50.8377 55.8574 51.1435 55.8574C51.4493 55.8574 51.7159 55.7853 51.8989 55.6796C52.0873 55.5708 52.1506 55.4517 52.1506 55.364C52.1506 55.2763 52.0873 55.1572 51.8989 55.0484C51.7159 54.9427 51.4493 54.8706 51.1435 54.8706C50.8377 54.8706 50.5712 54.9427 50.3884 55.0484C50.2 55.1572 50.1367 55.2763 50.1367 55.364Z" fill="#FFA500" stroke="#000D1D" stroke-width="0.2"/>
<path d="M60.4531 53.3777C60.4531 53.4654 60.5164 53.5845 60.7048 53.6933C60.8878 53.799 61.1543 53.8708 61.4602 53.8708C61.766 53.8708 62.0325 53.799 62.2155 53.6933C62.4039 53.5845 62.467 53.4654 62.467 53.3777C62.467 53.2899 62.4039 53.1707 62.2155 53.0618C62.0325 52.9563 61.766 52.8843 61.4602 52.8843C61.1543 52.8843 60.8878 52.9563 60.7048 53.0618C60.5164 53.1707 60.4531 53.2899 60.4531 53.3777Z" fill="#FFA500" stroke="#000D1D" stroke-width="0.2"/>
<path d="M57.0137 55.364C57.0137 55.4517 57.077 55.5708 57.2654 55.6796C57.4484 55.7853 57.7149 55.8574 58.0207 55.8574C58.3265 55.8574 58.593 55.7853 58.776 55.6796C58.9644 55.5708 59.0277 55.4517 59.0277 55.364C59.0277 55.2763 58.9644 55.1572 58.776 55.0484C58.593 54.9427 58.3265 54.8706 58.0207 54.8706C57.7149 54.8706 57.4484 54.9427 57.2654 55.0484C57.077 55.1572 57.0137 55.2763 57.0137 55.364Z" fill="#FFA500" stroke="#000D1D" stroke-width="0.2"/>
<path d="M53.5742 57.3498C53.5742 57.4376 53.6375 57.5566 53.8259 57.6655C54.0089 57.7711 54.2754 57.8432 54.5813 57.8432C54.8871 57.8432 55.1536 57.7711 55.3366 57.6655C55.525 57.5566 55.5883 57.4376 55.5883 57.3498C55.5883 57.2621 55.525 57.143 55.3366 57.0342C55.1536 56.9285 54.8871 56.8564 54.5813 56.8564C54.2754 56.8564 54.0089 56.9285 53.8259 57.0342C53.6375 57.143 53.5742 57.2621 53.5742 57.3498Z" fill="#FFA500" stroke="#000D1D" stroke-width="0.2"/>
<path d="M79.9414 65.4722V70.5364" stroke="#000D1D" stroke-width="0.2" stroke-linecap="round" stroke-linejoin="round"/>
<path d="M76.959 67.1938V72.2578" stroke="#000D1D" stroke-width="0.2" stroke-linecap="round" stroke-linejoin="round"/>
<path d="M73.9785 68.915V73.9792" stroke="#000D1D" stroke-width="0.2" stroke-linecap="round" stroke-linejoin="round"/>
<path d="M71 70.6367V75.7007" stroke="#000D1D" stroke-width="0.2" stroke-linecap="round" stroke-linejoin="round"/>
<path d="M68.0176 72.3579V77.4221" stroke="#000D1D" stroke-width="0.2" stroke-linecap="round" stroke-linejoin="round"/>
<path d="M67.9522 30.4004L57.4789 24.3532C55.6892 23.3178 53.4822 23.3178 51.6885 24.3532L41.2152 30.4004H23.0938V49.0316C23.0938 49.6816 23.4147 50.3316 24.0568 50.7007L51.6885 66.6555C53.4782 67.6908 55.6853 67.6908 57.4789 66.6555L85.1107 50.7007C85.7526 50.3277 86.0737 49.6816 86.0737 49.0316V30.4004H67.9522Z" fill="#EBE9E9" stroke="#000D1D" stroke-width="0.2" stroke-linecap="round" stroke-linejoin="round"/>
<mask id="mask1_6310_24948" style="mask-type:alpha" maskUnits="userSpaceOnUse" x="23" y="23" width="64" height="45">
<path d="M67.9522 30.4004L57.4789 24.3532C55.6892 23.3178 53.4822 23.3178 51.6885 24.3532L41.2152 30.4004H23.0938V49.0316C23.0938 49.6816 23.4147 50.3316 24.0568 50.7007L51.6885 66.6555C53.4782 67.6908 55.6853 67.6908 57.4789 66.6555L85.1107 50.7007C85.7526 50.3277 86.0737 49.6816 86.0737 49.0316V30.4004H67.9522Z" fill="#EBE9E9"/>
</mask>
<g mask="url(#mask1_6310_24948)">
<path d="M89.3208 30.1831H53.8105V80.3153H89.3208V30.1831Z" fill="white"/>
<path d="M67.9522 30.4004L57.4789 24.3532C55.6892 23.3178 53.4822 23.3178 51.6885 24.3532L41.2152 30.4004H23.0938V49.0316C23.0938 49.6816 23.4147 50.3316 24.0568 50.7007L51.6885 66.6555C53.4782 67.6908 55.6853 67.6908 57.4789 66.6555L85.1107 50.7007C85.7526 50.3277 86.0737 49.6816 86.0737 49.0316V30.4004H67.9522Z" stroke="#000D1D" stroke-width="0.2" stroke-linecap="round" stroke-linejoin="round"/>
</g>
<path d="M51.6878 48.0285L24.0559 32.0737C22.7678 31.3313 22.7678 29.4735 24.0559 28.7312L51.6878 12.7765C53.4773 11.7412 55.6844 11.7412 57.4781 12.7765L85.1099 28.7312C86.3979 29.4735 86.3979 31.3313 85.1099 32.0737L57.4781 48.0285C55.6883 49.0637 53.4815 49.0637 51.6878 48.0285Z" fill="white" stroke="#000D1D" stroke-width="0.2" stroke-linecap="round" stroke-linejoin="round"/>
<path d="M37.0391 33.7304L40.3254 31.8325" stroke="#000D1D" stroke-width="0.2" stroke-linecap="round" stroke-linejoin="round"/>
<path d="M49.3848 40.8576L52.6711 38.9595" stroke="#000D1D" stroke-width="0.2" stroke-linecap="round" stroke-linejoin="round"/>
<path d="M46.916 39.4326L50.2066 37.5347" stroke="#000D1D" stroke-width="0.2" stroke-linecap="round" stroke-linejoin="round"/>
<path d="M44.4492 38.0078L47.7356 36.1099" stroke="#000D1D" stroke-width="0.2" stroke-linecap="round" stroke-linejoin="round"/>
<path d="M41.9785 36.5835L45.2651 34.6816" stroke="#000D1D" stroke-width="0.2" stroke-linecap="round" stroke-linejoin="round"/>
<path d="M39.5059 35.155L42.7964 33.2568" stroke="#000D1D" stroke-width="0.2" stroke-linecap="round" stroke-linejoin="round"/>
<path d="M72.1263 33.7304L68.8359 31.8325" stroke="#000D1D" stroke-width="0.2" stroke-linecap="round" stroke-linejoin="round"/>
<path d="M59.7825 40.8576L56.4922 38.9595" stroke="#000D1D" stroke-width="0.2" stroke-linecap="round" stroke-linejoin="round"/>
<path d="M62.2493 39.4326L58.9629 37.5347" stroke="#000D1D" stroke-width="0.2" stroke-linecap="round" stroke-linejoin="round"/>
<path d="M64.7182 38.0078L61.4316 36.1099" stroke="#000D1D" stroke-width="0.2" stroke-linecap="round" stroke-linejoin="round"/>
<path d="M67.1907 36.5835L63.9004 34.6816" stroke="#000D1D" stroke-width="0.2" stroke-linecap="round" stroke-linejoin="round"/>
<path d="M69.6594 35.1552L66.373 33.2573" stroke="#000D1D" stroke-width="0.2" stroke-linecap="round" stroke-linejoin="round"/>
<path d="M37.0391 27.0732L40.3254 28.9712" stroke="#000D1D" stroke-width="0.2" stroke-linecap="round" stroke-linejoin="round"/>
<path d="M49.3848 19.9429L52.6711 21.8409" stroke="#000D1D" stroke-width="0.2" stroke-linecap="round" stroke-linejoin="round"/>
<path d="M46.916 21.3711L50.2066 23.2691" stroke="#000D1D" stroke-width="0.2" stroke-linecap="round" stroke-linejoin="round"/>
<path d="M44.4492 22.7959L47.7356 24.6939" stroke="#000D1D" stroke-width="0.2" stroke-linecap="round" stroke-linejoin="round"/>
<path d="M41.9785 24.2202L45.2651 26.1181" stroke="#000D1D" stroke-width="0.2" stroke-linecap="round" stroke-linejoin="round"/>
<path d="M39.5059 25.6489L42.7964 27.5471" stroke="#000D1D" stroke-width="0.2" stroke-linecap="round" stroke-linejoin="round"/>
<path d="M72.1263 27.0732L68.8359 28.9712" stroke="#000D1D" stroke-width="0.2" stroke-linecap="round" stroke-linejoin="round"/>
<path d="M59.7825 19.9429L56.4922 21.8409" stroke="#000D1D" stroke-width="0.2" stroke-linecap="round" stroke-linejoin="round"/>
<path d="M62.2493 21.3711L58.9629 23.2691" stroke="#000D1D" stroke-width="0.2" stroke-linecap="round" stroke-linejoin="round"/>
<path d="M64.7182 22.7954L61.4316 24.6935" stroke="#000D1D" stroke-width="0.2" stroke-linecap="round" stroke-linejoin="round"/>
<path d="M67.1907 24.2202L63.9004 26.1181" stroke="#000D1D" stroke-width="0.2" stroke-linecap="round" stroke-linejoin="round"/>
<path d="M69.6594 25.6489L66.373 27.5471" stroke="#000D1D" stroke-width="0.2" stroke-linecap="round" stroke-linejoin="round"/>
<path d="M52.9834 40.1555L37.6948 31.3274C36.9846 30.9182 36.9846 29.8909 37.6948 29.4777L52.9834 20.6496C53.9746 20.0758 55.1944 20.0758 56.1856 20.6496L71.474 29.4777C72.1844 29.8869 72.1844 30.9142 71.474 31.3274L56.1856 40.1555C55.1944 40.7293 53.9746 40.7293 52.9834 40.1555Z" fill="#FFA500" stroke="#000D1D" stroke-width="0.2" stroke-linecap="round" stroke-linejoin="round"/>
<path d="M55.5939 26.4314C55.5939 26.5191 55.5306 26.6382 55.3422 26.747C55.1592 26.8527 54.8927 26.9245 54.5869 26.9245C54.2813 26.9245 54.0146 26.8527 53.8318 26.747C53.6434 26.6382 53.5801 26.5191 53.5801 26.4314C53.5801 26.3436 53.6434 26.2244 53.8318 26.1155C54.0146 26.0101 54.2813 25.938 54.5869 25.938C54.8927 25.938 55.1592 26.0101 55.3422 26.1155C55.5306 26.2244 55.5939 26.3436 55.5939 26.4314Z" fill="#FFA500" stroke="#000D1D" stroke-width="0.2"/>
<path d="M59.0336 28.4177C59.0336 28.5054 58.9703 28.6245 58.7819 28.7333C58.5989 28.839 58.3324 28.9111 58.0266 28.9111C57.7208 28.9111 57.4542 28.839 57.2712 28.7333C57.0828 28.6245 57.0195 28.5054 57.0195 28.4177C57.0195 28.33 57.0828 28.2109 57.2712 28.1021C57.4542 27.9964 57.7208 27.9243 58.0266 27.9243C58.3324 27.9243 58.5989 27.9964 58.7819 28.1021C58.9703 28.2109 59.0336 28.33 59.0336 28.4177Z" fill="#FFA500" stroke="#000D1D" stroke-width="0.2"/>
<path d="M62.467 30.4001C62.467 30.4879 62.4037 30.6069 62.2153 30.7157C62.0325 30.8214 61.7658 30.8933 61.4602 30.8933C61.1544 30.8933 60.8878 30.8214 60.7048 30.7157C60.5164 30.6069 60.4531 30.4879 60.4531 30.4001C60.4531 30.3124 60.5164 30.1931 60.7048 30.0843C60.8878 29.9788 61.1544 29.9067 61.4602 29.9067C61.7658 29.9067 62.0325 29.9788 62.2153 30.0843C62.4037 30.1931 62.467 30.3124 62.467 30.4001Z" fill="#FFA500" stroke="#000D1D" stroke-width="0.2"/>
<path d="M52.1545 28.4177C52.1545 28.5054 52.0912 28.6245 51.9028 28.7333C51.72 28.839 51.4533 28.9111 51.1477 28.9111C50.8419 28.9111 50.5753 28.839 50.3923 28.7333C50.2039 28.6245 50.1406 28.5054 50.1406 28.4177C50.1406 28.33 50.2039 28.2109 50.3923 28.1021C50.5753 27.9964 50.8419 27.9243 51.1477 27.9243C51.4533 27.9243 51.72 27.9964 51.9028 28.1021C52.0912 28.2109 52.1545 28.33 52.1545 28.4177Z" fill="#FFA500" stroke="#000D1D" stroke-width="0.2"/>
<path d="M55.5939 30.4001C55.5939 30.4879 55.5306 30.6069 55.3422 30.7157C55.1592 30.8214 54.8927 30.8933 54.5869 30.8933C54.2813 30.8933 54.0146 30.8214 53.8318 30.7157C53.6434 30.6069 53.5801 30.4879 53.5801 30.4001C53.5801 30.3124 53.6434 30.1931 53.8318 30.0843C54.0146 29.9788 54.2813 29.9067 54.5869 29.9067C54.8927 29.9067 55.1592 29.9788 55.3422 30.0843C55.5306 30.1931 55.5939 30.3124 55.5939 30.4001Z" fill="#FFA500" stroke="#000D1D" stroke-width="0.2"/>
<path d="M59.0336 32.3865C59.0336 32.4742 58.9703 32.5932 58.7819 32.7021C58.5989 32.8078 58.3324 32.8798 58.0266 32.8798C57.7208 32.8798 57.4542 32.8078 57.2712 32.7021C57.0828 32.5932 57.0195 32.4742 57.0195 32.3865C57.0195 32.2987 57.0828 32.1797 57.2712 32.0708C57.4542 31.9651 57.7208 31.8931 58.0266 31.8931C58.3324 31.8931 58.5989 31.9651 58.7819 32.0708C58.9703 32.1797 59.0336 32.2987 59.0336 32.3865Z" fill="#FFA500" stroke="#000D1D" stroke-width="0.2"/>
<path d="M48.715 30.4001C48.715 30.4879 48.6517 30.6069 48.4633 30.7157C48.2803 30.8214 48.0138 30.8933 47.708 30.8933C47.4022 30.8933 47.1357 30.8214 46.9529 30.7157C46.7645 30.6069 46.7012 30.4879 46.7012 30.4001C46.7012 30.3124 46.7645 30.1931 46.9529 30.0843C47.1357 29.9788 47.4022 29.9067 47.708 29.9067C48.0138 29.9067 48.2803 29.9788 48.4633 30.0843C48.6517 30.1931 48.715 30.3124 48.715 30.4001Z" fill="#FFA500" stroke="#000D1D" stroke-width="0.2"/>
<path d="M52.1545 32.3865C52.1545 32.4742 52.0912 32.5932 51.9028 32.7021C51.72 32.8078 51.4533 32.8798 51.1477 32.8798C50.8419 32.8798 50.5753 32.8078 50.3923 32.7021C50.2039 32.5932 50.1406 32.4742 50.1406 32.3865C50.1406 32.2987 50.2039 32.1797 50.3923 32.0708C50.5753 31.9651 50.8419 31.8931 51.1477 31.8931C51.4533 31.8931 51.72 31.9651 51.9028 32.0708C52.0912 32.1797 52.1545 32.2987 52.1545 32.3865Z" fill="#FFA500" stroke="#000D1D" stroke-width="0.2"/>
<path d="M55.5939 34.3728C55.5939 34.4605 55.5306 34.5796 55.3422 34.6884C55.1592 34.7941 54.8927 34.8662 54.5869 34.8662C54.2813 34.8662 54.0146 34.7941 53.8318 34.6884C53.6434 34.5796 53.5801 34.4605 53.5801 34.3728C53.5801 34.285 53.6434 34.166 53.8318 34.0572C54.0146 33.9515 54.2813 33.8794 54.5869 33.8794C54.8927 33.8794 55.1592 33.9515 55.3422 34.0572C55.5306 34.166 55.5939 34.285 55.5939 34.3728Z" fill="#FFA500" stroke="#000D1D" stroke-width="0.2"/>
<path d="M29.2246 42.4951V47.5593" stroke="#000D1D" stroke-width="0.2" stroke-linecap="round" stroke-linejoin="round"/>
<path d="M32.209 44.2163V49.2803" stroke="#000D1D" stroke-width="0.2" stroke-linecap="round" stroke-linejoin="round"/>
<path d="M35.1914 45.9375V51.0017" stroke="#000D1D" stroke-width="0.2" stroke-linecap="round" stroke-linejoin="round"/>
<path d="M38.1699 47.6597V52.7236" stroke="#000D1D" stroke-width="0.2" stroke-linecap="round" stroke-linejoin="round"/>
<path d="M41.1523 49.3804V54.4446" stroke="#000D1D" stroke-width="0.2" stroke-linecap="round" stroke-linejoin="round"/>
</svg>
