<svg width="110" height="110" viewBox="0 0 110 110" fill="none" xmlns="http://www.w3.org/2000/svg">
<path d="M79.9834 61.1565C79.9834 60.9266 79.9949 60.6852 79.9949 60.4554C79.9949 60.2025 79.9949 59.9497 79.9949 59.6968C79.9834 59.2026 79.9604 58.7084 79.9144 58.2257C79.9144 58.1683 79.903 58.0993 79.8915 58.0418C79.8915 57.9269 79.8685 57.8235 79.857 57.7085C79.8225 57.3752 79.788 57.0419 79.7421 56.7086C79.6961 56.3868 79.6271 56.065 79.5696 55.7317C79.5467 55.5938 79.5237 55.4559 79.5007 55.318C79.4892 55.249 79.4777 55.1686 79.4662 55.0996C79.3513 54.5249 79.2134 53.9503 79.0525 53.3871C79.0295 53.3182 79.0065 53.2492 78.9835 53.1803C78.926 52.9734 78.8571 52.7665 78.7881 52.5596C78.6732 52.2033 78.5812 51.8471 78.4548 51.4908C78.4089 51.3529 78.3399 51.2149 78.2939 51.077C78.156 50.7093 78.0066 50.3415 77.8457 49.9852C77.7423 49.7438 77.6618 49.491 77.5469 49.2496C77.4664 49.0772 77.3745 48.9163 77.294 48.7439C77.1906 48.5256 77.0757 48.3072 76.9607 48.0888C76.7079 47.6061 76.4435 47.1234 76.1677 46.6637C76.0643 46.4798 75.9608 46.2959 75.8459 46.1235C75.7999 46.0546 75.7654 45.9741 75.7195 45.9051C75.3862 45.3765 75.0299 44.8593 74.6506 44.3536C74.5587 44.2272 74.4667 44.1122 74.3748 43.9973C74.007 43.5031 73.6162 43.0319 73.214 42.5607C73.1105 42.4457 73.0071 42.3193 72.9037 42.2044C72.4784 41.7332 72.0417 41.2619 71.5935 40.8252C71.536 40.7677 71.4785 40.7218 71.4326 40.6758C71.2946 40.5379 71.1452 40.4115 70.9958 40.2735C70.5936 39.8943 70.1798 39.538 69.7546 39.1817C69.5707 39.0323 69.3753 38.8829 69.1914 38.7335C69.042 38.6185 68.8926 38.4921 68.7432 38.3772C68.5363 38.2278 68.3179 38.0899 68.0996 37.9404C67.7778 37.7106 67.456 37.4922 67.1341 37.2853C67.0077 37.2049 66.8928 37.1129 66.7549 37.0325C66.4561 36.8486 66.1457 36.6877 65.8354 36.5153C65.64 36.4004 65.4447 36.2854 65.2378 36.182C65.1688 36.1475 65.0999 36.1016 65.0309 36.0671C64.5137 35.8027 63.985 35.5499 63.4564 35.3085C63.3989 35.2855 63.3529 35.2626 63.2955 35.2396C63.1805 35.1936 63.0656 35.1476 62.9507 35.1017C62.6289 34.9637 62.2956 34.8258 61.9623 34.7109C61.6864 34.6075 61.3991 34.527 61.1233 34.4351C61.0083 34.4006 60.8819 34.3546 60.767 34.3201C60.6865 34.2971 60.6176 34.2627 60.5371 34.2397C60.0774 34.1018 59.6062 33.9753 59.135 33.8604C58.9856 33.8259 58.8476 33.8029 58.6982 33.7685C58.5603 33.734 58.4339 33.711 58.296 33.688C58.1121 33.6535 57.9282 33.6076 57.7328 33.5731C57.2616 33.4926 56.8019 33.4237 56.3192 33.3662C56.2272 33.3662 56.1353 33.3432 56.0433 33.3317C55.6526 33.2858 55.2618 33.2628 54.8825 33.2398C54.6297 33.2283 54.3653 33.2283 54.1125 33.2168C53.9746 33.2168 53.8252 33.2168 53.6873 33.2168C53.6068 33.2168 53.5149 33.2168 53.4344 33.2168C52.9402 33.2168 52.446 33.2398 51.9633 33.2743C51.9058 33.2743 51.8598 33.2858 51.8139 33.2858C51.676 33.2858 51.538 33.3202 51.3886 33.3317C51.0668 33.3662 50.7335 33.3892 50.4232 33.4352C50.2623 33.4582 50.1129 33.4926 49.952 33.5156C49.7221 33.5501 49.4923 33.5961 49.2739 33.642C49.1015 33.6765 48.9291 33.6995 48.7567 33.734C48.5498 33.78 48.3545 33.8489 48.1476 33.8949C47.8603 33.9638 47.5729 34.0443 47.2856 34.1247C47.1592 34.1592 47.0328 34.1822 46.9063 34.2282C46.7454 34.2742 46.596 34.3546 46.4351 34.4006C45.9639 34.5615 45.5042 34.7339 45.0559 34.9293C44.918 34.9867 44.7571 35.0327 44.6192 35.0902C44.5043 35.1361 44.4123 35.2051 44.2974 35.2511C43.8262 35.4694 43.378 35.7108 42.9297 35.9636C42.7229 36.0786 42.516 36.182 42.3091 36.3084C41.677 36.6877 41.0564 37.1015 40.4702 37.5497L33.4824 42.8595C34.0686 42.4113 34.6892 42.009 35.3213 41.6182C35.5167 41.4918 35.7351 41.3884 35.9419 41.2734C36.3902 41.0206 36.8384 40.7792 37.3096 40.5609C37.5625 40.4459 37.8153 40.3425 38.0682 40.2276C38.5164 40.0322 38.9876 39.8598 39.4473 39.6989C39.7232 39.6069 40.0105 39.5035 40.2978 39.4231C40.5851 39.3426 40.8725 39.2622 41.1598 39.1932C41.5391 39.1012 41.9068 39.0093 42.2976 38.9403C42.5275 38.8944 42.7458 38.8599 42.9757 38.8139C43.4469 38.7335 43.9296 38.676 44.4123 38.63C44.5503 38.6185 44.6882 38.5956 44.8376 38.5841C45.4582 38.5381 46.0903 38.5151 46.7224 38.5151C46.8604 38.5151 47.0098 38.5151 47.1477 38.5151C47.7798 38.5266 48.4234 38.5611 49.0785 38.63C49.8371 38.7105 50.5841 38.8369 51.3197 38.9863C51.4576 39.0093 51.584 39.0438 51.7219 39.0668C52.423 39.2162 53.1126 39.4001 53.7907 39.6069C53.9056 39.6414 54.032 39.6874 54.147 39.7219C54.7676 39.9287 55.3767 40.1471 55.9744 40.4C56.0893 40.4459 56.2042 40.4919 56.3077 40.5379C56.9743 40.8252 57.6179 41.1355 58.25 41.4688C58.4569 41.5723 58.6523 41.6987 58.8476 41.8021C59.2844 42.0435 59.7211 42.3078 60.1464 42.5722C60.4797 42.779 60.79 43.0089 61.1118 43.2273C61.4796 43.4801 61.8473 43.7444 62.2036 44.0203C62.399 44.1697 62.5829 44.3191 62.7668 44.4685C63.192 44.8133 63.6058 45.1811 64.008 45.5604C64.1574 45.6983 64.3068 45.8247 64.4448 45.9626C64.9505 46.4568 65.4447 46.9625 65.9159 47.4912C66.0193 47.6061 66.1228 47.7325 66.2262 47.8475C66.6284 48.3072 67.0192 48.7899 67.387 49.2841C67.4789 49.399 67.5709 49.514 67.6628 49.6404C68.0881 50.215 68.4788 50.8012 68.8581 51.4103C68.973 51.5827 69.065 51.7666 69.1799 51.9505C69.4557 52.4217 69.7201 52.8929 69.9729 53.3756C70.0879 53.594 70.1913 53.8124 70.3062 54.0307C70.5016 54.433 70.674 54.8582 70.8579 55.272C71.0073 55.6283 71.1682 55.9961 71.3061 56.3638C71.49 56.8465 71.6509 57.3408 71.8118 57.8464C71.8808 58.0533 71.9497 58.2602 72.0072 58.4671C72.2026 59.1681 72.375 59.8807 72.5129 60.6048C72.5359 60.7427 72.5589 60.8806 72.5819 61.0185C72.6968 61.6736 72.7887 62.3287 72.8577 62.9838C72.8692 63.0988 72.8807 63.2022 72.8922 63.3171C72.9611 64.1217 73.0071 64.9262 72.9956 65.7422C72.9956 66.087 72.9726 66.4318 72.9611 66.7766C72.9611 67.0294 72.9381 67.2708 72.9152 67.5121C72.9037 67.7305 72.8807 67.9489 72.8577 68.1672C72.8347 68.4201 72.8002 68.6614 72.7658 68.9028C72.7428 69.1097 72.7083 69.328 72.6738 69.5349C72.6278 69.7992 72.5819 70.0521 72.5359 70.3164C72.5014 70.5118 72.4554 70.7072 72.421 70.9026C72.352 71.1899 72.283 71.4772 72.2141 71.7646C72.1681 71.937 72.1336 72.0979 72.0762 72.2703C71.9497 72.7185 71.8118 73.1552 71.6624 73.5805C71.6624 73.6034 71.6509 73.6264 71.6394 73.6379C71.467 74.1206 71.2717 74.5919 71.0763 75.0516C71.0188 75.178 70.9613 75.2929 70.9154 75.4079C70.7085 75.8676 70.4786 76.3273 70.2373 76.7755C70.2028 76.8445 70.1568 76.9249 70.1223 76.9939C69.7431 77.672 69.3293 78.3156 68.8926 78.9362C68.8466 78.9937 68.8121 79.0512 68.7777 79.1086C68.4903 79.4994 68.203 79.8787 67.8927 80.2464C67.8237 80.3269 67.7433 80.4073 67.6743 80.4878C67.433 80.7751 67.1801 81.051 66.9158 81.3268C66.8123 81.4417 66.6974 81.5567 66.5825 81.6601C66.3411 81.9014 66.0883 82.1428 65.8354 82.3727C65.732 82.4761 65.6171 82.568 65.5136 82.6715C65.1573 82.9818 64.7896 83.2921 64.3988 83.5794L71.3866 78.2696C71.7659 77.9823 72.1336 77.672 72.5014 77.3617C72.6163 77.2697 72.7198 77.1663 72.8232 77.0629C73.0761 76.833 73.3289 76.5916 73.5703 76.3503C73.6852 76.2354 73.7886 76.1319 73.9036 76.017C74.1679 75.7412 74.4093 75.4653 74.6621 75.178C74.7311 75.0975 74.8115 75.0171 74.8805 74.9366C75.1908 74.5689 75.4781 74.1896 75.7654 73.7988C75.7769 73.7758 75.7999 73.7529 75.8229 73.7299C75.8459 73.6954 75.8689 73.6609 75.8919 73.6264C76.3286 73.0058 76.7424 72.3622 77.1216 71.6841C77.1216 71.6611 77.1446 71.6496 77.1561 71.6381C77.1906 71.5807 77.2136 71.5232 77.2366 71.4657C77.4779 71.0175 77.7078 70.5693 77.9146 70.0981C77.9491 70.0291 77.9836 69.9601 78.0181 69.8912C78.0411 69.8452 78.0526 69.7878 78.0756 69.7418C78.2824 69.2821 78.4663 68.8108 78.6387 68.3281C78.6387 68.3051 78.6387 68.2937 78.6617 68.2707C78.8111 67.8339 78.949 67.3972 79.0754 66.949C79.0754 66.9145 79.0984 66.8685 79.1099 66.834C79.1444 66.7076 79.1674 66.5812 79.2019 66.4548C79.2823 66.1674 79.3513 65.8801 79.4202 65.5928C79.4317 65.5238 79.4547 65.4664 79.4662 65.3974C79.4892 65.271 79.5122 65.1331 79.5352 65.0066C79.5811 64.7538 79.6386 64.4894 79.6731 64.2251C79.6846 64.1332 79.7076 64.0527 79.7191 63.9723C79.742 63.8458 79.7421 63.7194 79.765 63.6045C79.7995 63.3631 79.8225 63.1103 79.857 62.8689C79.857 62.7655 79.88 62.6735 79.8915 62.5701C79.8915 62.4552 79.903 62.3287 79.9144 62.2138C79.9374 61.9725 79.9489 61.7196 79.9604 61.4783C79.9604 61.3633 79.9719 61.2599 79.9834 61.145V61.1565Z" fill="#EBE9E9" stroke="black" stroke-width="0.4" stroke-linecap="round" stroke-linejoin="round"/>
<path d="M63.319 35.2396C63.204 35.1936 63.0891 35.1476 62.9742 35.1017C62.6524 34.9637 62.3191 34.8258 61.9858 34.7109C61.7099 34.6075 61.4226 34.527 61.1468 34.4351C61.0318 34.4006 60.9054 34.3546 60.7905 34.3201C60.71 34.2971 60.6411 34.2627 60.5606 34.2397C60.1009 34.1018 59.6297 33.9753 59.1585 33.8604C59.0091 33.8259 58.8711 33.8029 58.7217 33.7685C58.5838 33.734 58.4574 33.711 58.3195 33.688C58.1356 33.6535 57.9517 33.6076 57.7563 33.5731C57.2851 33.4926 56.8254 33.4237 56.3427 33.3662C56.2507 33.3662 56.1588 33.3432 56.0668 33.3317C55.6761 33.2858 55.2853 33.2628 54.906 33.2398C54.6532 33.2283 54.3888 33.2283 54.136 33.2168C53.9981 33.2168 53.8487 33.2168 53.7107 33.2168C53.6303 33.2168 53.5384 33.2168 53.4579 33.2168C52.9637 33.2168 52.4695 33.2398 51.9868 33.2743C51.9293 33.2743 51.8834 33.2858 51.8374 33.2858C51.6995 33.2858 51.5615 33.3202 51.4121 33.3317C51.0903 33.3662 50.757 33.3892 50.4467 33.4352C50.2858 33.4582 50.1364 33.4926 49.9755 33.5156C49.7456 33.5501 49.5158 33.5961 49.2974 33.642C49.125 33.6765 48.9526 33.6995 48.7802 33.734C48.5733 33.78 48.378 33.8489 48.1711 33.8949C47.8838 33.9638 47.5964 34.0443 47.3091 34.1247C47.1827 34.1592 47.0563 34.1822 46.9298 34.2282C46.7689 34.2742 46.6195 34.3546 46.4586 34.4006C45.9874 34.5615 45.5277 34.7339 45.0795 34.9293C44.9415 34.9867 44.7806 35.0327 44.6427 35.0902C44.5278 35.1361 44.4358 35.2051 44.3209 35.2511C43.8497 35.4694 43.4015 35.7108 42.9532 35.9636C42.7464 36.0786 42.5395 36.182 42.3326 36.3084C41.7005 36.6877 41.0799 37.1015 40.4937 37.5497L33.5059 42.8595C34.0921 42.4113 34.7127 42.009 35.3448 41.6182C35.5402 41.4918 35.7586 41.3884 35.9654 41.2734C36.4137 41.0206 36.8619 40.7792 37.3331 40.5609C37.586 40.4459 37.8388 40.3425 38.0917 40.2276C38.5399 40.0322 39.0111 39.8598 39.4708 39.6989C39.7467 39.6069 40.034 39.5035 40.3213 39.4231C40.6086 39.3426 40.896 39.2622 41.1833 39.1932C41.5626 39.1013 41.9303 39.0093 42.3211 38.9403C42.551 38.8944 42.7693 38.8599 42.9992 38.8139C43.4704 38.7335 43.9531 38.676 44.4358 38.63C44.5738 38.6185 44.7117 38.5956 44.8611 38.5841C45.4817 38.5381 46.1138 38.5151 46.7459 38.5151C46.8839 38.5151 47.0333 38.5151 47.1712 38.5151C47.8033 38.5266 48.4469 38.5611 49.102 38.63C49.8606 38.7105 50.6076 38.8369 51.3432 38.9863C51.4811 39.0093 51.6075 39.0438 51.7454 39.0668C52.4465 39.2162 53.1361 39.4001 53.8142 39.6069C53.9291 39.6414 54.0555 39.6874 54.1705 39.7219C54.7911 39.9288 55.4002 40.1471 55.9979 40.4C56.1128 40.4459 56.2277 40.4919 56.3312 40.5379L63.3879 35.2626C63.3879 35.2626 63.3419 35.2396 63.319 35.2396Z" fill="white"/>
<path d="M71.7996 57.8813C71.8685 58.0881 71.9375 58.295 71.9949 58.5019C72.1903 59.203 72.3627 59.9155 72.5006 60.6396C72.5236 60.7775 72.5466 60.9154 72.5696 61.0533C72.6845 61.7085 72.7765 62.3636 72.8454 63.0187C72.8569 63.1336 72.8684 63.237 72.8799 63.352C72.9489 64.1565 72.9948 64.961 72.9833 65.777C72.9833 66.1218 72.9604 66.4666 72.9489 66.8114C72.9374 67.0642 72.9259 67.3056 72.9029 67.5469C72.8914 67.7653 72.8684 67.9837 72.8454 68.202C72.8224 68.4549 72.788 68.6962 72.7535 68.9376C72.7305 69.1445 72.696 69.3628 72.6615 69.5697C72.6156 69.8341 72.5696 70.0869 72.5236 70.3512C72.4891 70.5466 72.4432 70.742 72.4087 70.9374C72.3397 71.2247 72.2708 71.512 72.2018 71.7994C72.1558 71.9718 72.1214 72.1327 72.0639 72.3051C71.9835 72.5924 71.88 72.8797 71.7881 73.167L78.6839 68.1561C78.8103 67.7768 78.9368 67.386 79.0517 66.9953C79.0517 66.9608 79.0747 66.9148 79.0862 66.8803C79.1207 66.7539 79.1436 66.6275 79.1781 66.5011C79.2586 66.2137 79.3275 65.9264 79.3965 65.6391C79.408 65.5701 79.431 65.5127 79.4425 65.4437C79.4654 65.3173 79.4884 65.1794 79.5114 65.0529C79.5574 64.8001 79.6148 64.5358 79.6493 64.2714C79.6608 64.1795 79.6838 64.099 79.6953 64.0186C79.7183 63.8921 79.7183 63.7657 79.7413 63.6508C79.7758 63.4094 79.8102 63.1566 79.8332 62.9152C79.8332 62.8118 79.8562 62.7198 79.8677 62.6164C79.8677 62.5015 79.8792 62.3751 79.8907 62.2601C79.9137 62.0188 79.9252 61.7659 79.9367 61.5246C79.9367 61.4096 79.9481 61.3062 79.9596 61.1913C79.9596 60.9614 79.9711 60.7201 79.9711 60.4902C79.9711 60.2373 79.9711 59.9845 79.9711 59.7316C79.9596 59.2374 79.9367 58.7432 79.8907 58.2605C79.8907 58.2031 79.8792 58.1341 79.8677 58.0766C79.8677 57.9617 79.8447 57.8583 79.8332 57.7433C79.7987 57.41 79.7643 57.0767 79.7183 56.7434C79.6723 56.4216 79.6034 56.0998 79.5459 55.7665C79.5229 55.6286 79.4999 55.4907 79.4769 55.3528C79.4654 55.2838 79.4539 55.2034 79.4425 55.1344C79.3275 54.5598 79.1896 53.9851 79.0287 53.422C79.0057 53.353 78.9827 53.284 78.9597 53.2151C78.9023 53.0082 78.8333 52.8013 78.7644 52.5945C78.7184 52.445 78.6724 52.3071 78.6264 52.1577L71.6387 57.5135C71.6846 57.6514 71.7306 57.7778 71.7766 57.9157L71.7996 57.8813Z" fill="black"/>
<path d="M79.9834 61.1565C79.9834 60.9266 79.9949 60.6852 79.9949 60.4554C79.9949 60.2025 79.9949 59.9497 79.9949 59.6968C79.9834 59.2026 79.9604 58.7084 79.9144 58.2257C79.9144 58.1683 79.903 58.0993 79.8915 58.0418C79.8915 57.9269 79.8685 57.8235 79.857 57.7085C79.8225 57.3752 79.788 57.0419 79.742 56.7086C79.6961 56.3868 79.6271 56.065 79.5697 55.7317C79.5467 55.5938 79.5237 55.4559 79.5007 55.318C79.4892 55.249 79.4777 55.1686 79.4662 55.0996C79.3513 54.5249 79.2134 53.9503 79.0525 53.3871C79.0295 53.3182 79.0065 53.2492 78.9835 53.1803C78.926 52.9734 78.8571 52.7665 78.7881 52.5596C78.6732 52.2033 78.5812 51.8471 78.4548 51.4908C78.4089 51.3529 78.3399 51.2149 78.2939 51.077C78.156 50.7093 78.0066 50.3415 77.8457 49.9852C77.7423 49.7438 77.6618 49.491 77.5469 49.2496C77.4664 49.0772 77.3745 48.9163 77.294 48.7439C77.1906 48.5256 77.0757 48.3072 76.9607 48.0888C76.7079 47.6061 76.4435 47.1234 76.1677 46.6637C76.0643 46.4798 75.9608 46.2959 75.8459 46.1235C75.7999 46.0546 75.7654 45.9741 75.7195 45.9051C75.3862 45.3765 75.0299 44.8593 74.6506 44.3536C74.5587 44.2272 74.4667 44.1122 74.3748 43.9973C74.007 43.5031 73.6162 43.0319 73.214 42.5607C73.1105 42.4457 73.0071 42.3193 72.9037 42.2044C72.4784 41.7332 72.0417 41.2619 71.5935 40.8252C71.536 40.7677 71.4785 40.7218 71.4326 40.6758C71.2946 40.5379 71.1452 40.4115 70.9958 40.2735C70.5936 39.8943 70.1798 39.538 69.7546 39.1817C69.5707 39.0323 69.3753 38.8829 69.1914 38.7335C69.042 38.6185 68.8926 38.4921 68.7432 38.3772C68.5363 38.2278 68.3179 38.0899 68.0996 37.9404C67.7778 37.7106 67.4559 37.4922 67.1341 37.2853C67.0077 37.2049 66.8928 37.1129 66.7549 37.0325C66.4561 36.8486 66.1457 36.6877 65.8354 36.5153C65.64 36.4004 65.4447 36.2854 65.2378 36.182C65.1688 36.1475 65.0999 36.1016 65.0309 36.0671C64.5137 35.8027 63.985 35.5499 63.4564 35.3085C63.3989 35.2855 63.3529 35.2626 63.2955 35.2396C63.1805 35.1936 63.0656 35.1476 62.9507 35.1017C62.6289 34.9637 62.2956 34.8258 61.9623 34.7109C61.6864 34.6075 61.3991 34.527 61.1233 34.4351C61.0083 34.4006 60.8819 34.3546 60.767 34.3201C60.6865 34.2971 60.6176 34.2627 60.5371 34.2397C60.0774 34.1018 59.6062 33.9753 59.135 33.8604C58.9856 33.8259 58.8476 33.8029 58.6982 33.7685C58.5603 33.734 58.4339 33.711 58.296 33.688C58.1121 33.6535 57.9282 33.6076 57.7328 33.5731C57.2616 33.4926 56.8019 33.4237 56.3192 33.3662C56.2272 33.3662 56.1353 33.3432 56.0433 33.3317C55.6526 33.2858 55.2618 33.2628 54.8825 33.2398C54.6297 33.2283 54.3653 33.2283 54.1125 33.2168C53.9746 33.2168 53.8252 33.2168 53.6872 33.2168C53.6068 33.2168 53.5149 33.2168 53.4344 33.2168C52.9402 33.2168 52.446 33.2398 51.9633 33.2743C51.9058 33.2743 51.8598 33.2858 51.8139 33.2858C51.676 33.2858 51.538 33.3202 51.3886 33.3317C51.0668 33.3662 50.7335 33.3892 50.4232 33.4352C50.2623 33.4582 50.1129 33.4926 49.952 33.5156C49.7221 33.5501 49.4923 33.5961 49.2739 33.642C49.1015 33.6765 48.9291 33.6995 48.7567 33.734C48.5498 33.78 48.3545 33.8489 48.1476 33.8949C47.8603 33.9638 47.5729 34.0443 47.2856 34.1247C47.1592 34.1592 47.0328 34.1822 46.9063 34.2282C46.7454 34.2742 46.596 34.3546 46.4351 34.4006C45.9639 34.5615 45.5042 34.7339 45.0559 34.9293C44.918 34.9867 44.7571 35.0327 44.6192 35.0902C44.5043 35.1361 44.4123 35.2051 44.2974 35.2511C43.8262 35.4694 43.378 35.7108 42.9297 35.9636C42.7229 36.0786 42.516 36.182 42.3091 36.3084C41.677 36.6877 41.0564 37.1015 40.4702 37.5497L33.4824 42.8595C34.0686 42.4113 34.6892 42.009 35.3213 41.6182C35.5167 41.4918 35.7351 41.3884 35.9419 41.2734C36.3902 41.0206 36.8384 40.7792 37.3096 40.5609C37.5625 40.4459 37.8153 40.3425 38.0682 40.2276C38.5164 40.0322 38.9876 39.8598 39.4473 39.6989C39.7232 39.6069 40.0105 39.5035 40.2978 39.4231C40.5851 39.3426 40.8725 39.2622 41.1598 39.1932C41.5391 39.1012 41.9068 39.0093 42.2976 38.9403C42.5275 38.8944 42.7458 38.8599 42.9757 38.8139C43.4469 38.7335 43.9296 38.676 44.4123 38.63C44.5503 38.6185 44.6882 38.5956 44.8376 38.5841C45.4582 38.5381 46.0903 38.5151 46.7224 38.5151C46.8604 38.5151 47.0098 38.5151 47.1477 38.5151C47.7798 38.5266 48.4234 38.5611 49.0785 38.63C49.8371 38.7105 50.5841 38.8369 51.3197 38.9863C51.4576 39.0093 51.584 39.0438 51.7219 39.0668C52.423 39.2162 53.1126 39.4001 53.7907 39.6069C53.9056 39.6414 54.032 39.6874 54.147 39.7219C54.7676 39.9287 55.3767 40.1471 55.9744 40.4C56.0893 40.4459 56.2042 40.4919 56.3077 40.5379C56.9743 40.8252 57.6179 41.1355 58.25 41.4688C58.4569 41.5723 58.6523 41.6987 58.8476 41.8021C59.2844 42.0435 59.7211 42.3078 60.1464 42.5722C60.4797 42.779 60.79 43.0089 61.1118 43.2273C61.4796 43.4801 61.8473 43.7444 62.2036 44.0203C62.399 44.1697 62.5829 44.3191 62.7668 44.4685C63.192 44.8133 63.6058 45.1811 64.008 45.5604C64.1574 45.6983 64.3068 45.8247 64.4448 45.9626C64.9505 46.4568 65.4447 46.9625 65.9159 47.4912C66.0193 47.6061 66.1228 47.7325 66.2262 47.8475C66.6284 48.3072 67.0192 48.7899 67.387 49.2841C67.4789 49.399 67.5709 49.514 67.6628 49.6404C68.0881 50.215 68.4788 50.8012 68.8581 51.4103C68.973 51.5827 69.065 51.7666 69.1799 51.9505C69.4557 52.4217 69.7201 52.8929 69.9729 53.3756C70.0879 53.594 70.1913 53.8124 70.3062 54.0307C70.5016 54.433 70.674 54.8582 70.8579 55.272C71.0073 55.6283 71.1682 55.9961 71.3061 56.3638C71.49 56.8466 71.6509 57.3408 71.8118 57.8464C71.8808 58.0533 71.9497 58.2602 72.0072 58.4671C72.2026 59.1681 72.375 59.8807 72.5129 60.6048C72.5359 60.7427 72.5589 60.8806 72.5819 61.0185C72.6968 61.6736 72.7887 62.3287 72.8577 62.9838C72.8692 63.0988 72.8807 63.2022 72.8922 63.3171C72.9611 64.1217 73.0071 64.9262 72.9956 65.7422C72.9956 66.087 72.9726 66.4318 72.9611 66.7766C72.9611 67.0294 72.9381 67.2708 72.9152 67.5121C72.9037 67.7305 72.8807 67.9489 72.8577 68.1672C72.8347 68.4201 72.8002 68.6614 72.7658 68.9028C72.7428 69.1097 72.7083 69.328 72.6738 69.5349C72.6278 69.7992 72.5819 70.0521 72.5359 70.3164C72.5014 70.5118 72.4554 70.7072 72.421 70.9026C72.352 71.1899 72.283 71.4772 72.2141 71.7646C72.1681 71.937 72.1336 72.0979 72.0762 72.2703C71.9497 72.7185 71.8118 73.1552 71.6624 73.5805C71.6624 73.6034 71.6509 73.6264 71.6394 73.6379C71.467 74.1206 71.2717 74.5919 71.0763 75.0516C71.0188 75.178 70.9613 75.2929 70.9154 75.4079C70.7085 75.8676 70.4786 76.3273 70.2373 76.7755C70.2028 76.8445 70.1568 76.9249 70.1223 76.9939C69.7431 77.672 69.3293 78.3156 68.8926 78.9362C68.8466 78.9937 68.8121 79.0512 68.7777 79.1086C68.4903 79.4994 68.203 79.8787 67.8927 80.2464C67.8237 80.3269 67.7433 80.4073 67.6743 80.4878C67.433 80.7751 67.1801 81.051 66.9158 81.3268C66.8123 81.4417 66.6974 81.5567 66.5825 81.6601C66.3411 81.9014 66.0883 82.1428 65.8354 82.3727C65.732 82.4761 65.6171 82.568 65.5136 82.6715C65.1573 82.9818 64.7896 83.2921 64.3988 83.5794L71.3866 78.2696C71.7659 77.9823 72.1336 77.672 72.5014 77.3617C72.6163 77.2697 72.7198 77.1663 72.8232 77.0629C73.0761 76.833 73.3289 76.5916 73.5703 76.3503C73.6852 76.2354 73.7886 76.1319 73.9036 76.017C74.1679 75.7412 74.4093 75.4653 74.6621 75.178C74.7311 75.0975 74.8115 75.0171 74.8805 74.9366C75.1908 74.5689 75.4781 74.1896 75.7654 73.7988C75.7769 73.7758 75.7999 73.7529 75.8229 73.7299C75.8459 73.6954 75.8689 73.6609 75.8919 73.6264C76.3286 73.0058 76.7424 72.3622 77.1216 71.6841C77.1216 71.6611 77.1446 71.6496 77.1561 71.6381C77.1906 71.5807 77.2136 71.5232 77.2366 71.4657C77.4779 71.0175 77.7078 70.5693 77.9146 70.0981C77.9491 70.0291 77.9836 69.9601 78.0181 69.8912C78.0411 69.8452 78.0526 69.7877 78.0756 69.7418C78.2824 69.2821 78.4663 68.8108 78.6387 68.3281C78.6387 68.3051 78.6387 68.2937 78.6617 68.2707C78.8111 67.8339 78.949 67.3972 79.0754 66.949C79.0754 66.9145 79.0984 66.8685 79.1099 66.834C79.1444 66.7076 79.1674 66.5812 79.2019 66.4548C79.2823 66.1674 79.3513 65.8801 79.4202 65.5928C79.4317 65.5238 79.4547 65.4664 79.4662 65.3974C79.4892 65.271 79.5122 65.1331 79.5352 65.0066C79.5811 64.7538 79.6386 64.4894 79.6731 64.2251C79.6846 64.1332 79.7076 64.0527 79.7191 63.9723C79.742 63.8458 79.742 63.7194 79.765 63.6045C79.7995 63.3631 79.8225 63.1103 79.857 62.8689C79.857 62.7655 79.88 62.6735 79.8915 62.5701C79.8915 62.4552 79.9029 62.3287 79.9144 62.2138C79.9374 61.9725 79.9489 61.7196 79.9604 61.4783C79.9604 61.3633 79.9719 61.2599 79.9834 61.145V61.1565Z" stroke="black" stroke-width="0.4" stroke-linecap="round" stroke-linejoin="round"/>
<path d="M90.4291 34.8832L82.6598 18.0803C82.4069 17.5286 82.0506 17.4252 81.7058 17.701C81.361 17.9768 81.0047 18.6204 80.7404 19.5859L72.6148 48.8473C72.27 50.0885 72.4999 51.5481 72.9826 51.1574L78.0051 47.2153L77.9016 66.2708C77.9016 66.696 77.8786 67.1098 77.8556 67.5235C77.8442 67.8223 77.8212 68.1097 77.7982 68.4085C77.7752 68.6728 77.7522 68.9372 77.7292 69.2015C77.6947 69.5003 77.6603 69.7876 77.6258 70.0865C77.5913 70.3393 77.5568 70.5922 77.5109 70.845C77.4649 71.1553 77.4074 71.4656 77.3385 71.776C77.2925 72.0173 77.2465 72.2472 77.189 72.4885C77.1086 72.8333 77.0281 73.1781 76.9362 73.5114C76.8787 73.7183 76.8328 73.9252 76.7753 74.1205C76.6259 74.6377 76.465 75.1434 76.2926 75.6376C76.2811 75.6836 76.2696 75.7296 76.2466 75.7755C76.0397 76.3502 75.8099 76.9248 75.5685 77.4765C75.5111 77.6144 75.4421 77.7638 75.3731 77.9018C75.1203 78.4649 74.8445 79.0051 74.5571 79.5453C74.5112 79.6372 74.4652 79.7292 74.4077 79.8211C73.9595 80.6256 73.4653 81.4071 72.9366 82.1542C72.8906 82.2232 72.8332 82.3036 72.7872 82.3726C72.4424 82.8438 72.0861 83.3035 71.7183 83.7517C71.6379 83.8437 71.5459 83.9471 71.4655 84.0391C71.1667 84.3839 70.8564 84.7286 70.546 85.0619C70.4196 85.1999 70.2817 85.3378 70.1438 85.4642C69.8565 85.763 69.5462 86.0389 69.2473 86.3262C69.1209 86.4411 68.983 86.5675 68.8566 86.6825C68.4198 87.0617 67.9831 87.4295 67.5234 87.7743L74.5112 82.4645C74.9709 82.1197 75.4191 81.7404 75.8558 81.3612C75.9938 81.2462 76.1202 81.1198 76.2466 81.0049C76.5569 80.7291 76.8557 80.4417 77.1431 80.1429C77.281 80.005 77.4074 79.8786 77.5338 79.7407C77.8556 79.4074 78.1545 79.0626 78.4533 78.7178C78.5337 78.6258 78.6257 78.5339 78.6946 78.4304C79.0624 77.9822 79.4187 77.5225 79.7635 77.0513C79.7865 77.0168 79.8095 76.9938 79.8325 76.9708C79.8669 76.9249 79.8899 76.8789 79.9129 76.8329C80.4416 76.0859 80.9358 75.3043 81.384 74.4998C81.3955 74.4768 81.407 74.4538 81.43 74.4308C81.4645 74.3619 81.4989 74.2929 81.5334 74.224C81.8208 73.6953 82.0966 73.1436 82.3494 72.592C82.3839 72.5115 82.4414 72.4311 82.4759 72.3391C82.4988 72.2816 82.5218 72.2242 82.5448 72.1667C82.7862 71.6036 83.016 71.0404 83.2229 70.4657C83.2229 70.4657 83.2229 70.4657 83.2229 70.4542C83.2344 70.4083 83.2459 70.3738 83.2574 70.3278C83.4298 69.8336 83.5907 69.3279 83.7401 68.8107C83.7516 68.7648 83.7746 68.7188 83.7861 68.6613C83.832 68.5119 83.855 68.351 83.901 68.2016C83.9929 67.8568 84.0734 67.5235 84.1539 67.1787C84.1768 67.0983 84.1998 67.0178 84.2113 66.9374C84.2458 66.788 84.2688 66.6271 84.2918 66.4776C84.3492 66.1673 84.4067 65.857 84.4642 65.5467C84.4872 65.4433 84.5101 65.3398 84.5216 65.2364C84.5446 65.087 84.5561 64.9376 84.5791 64.7997C84.6136 64.5008 84.6595 64.2135 84.6825 63.9147C84.694 63.7883 84.717 63.6733 84.7285 63.5469C84.74 63.409 84.74 63.2596 84.7515 63.1217C84.7745 62.8343 84.7975 62.5355 84.809 62.2367C84.809 62.0988 84.8319 61.9724 84.8319 61.8344C84.8319 61.5586 84.8434 61.2713 84.8434 60.9955L84.9469 41.7561L89.9579 37.8254C90.4406 37.4461 90.6934 35.6073 90.3716 34.8947L90.4291 34.8832Z" fill="#EBE9E9" stroke="black" stroke-width="0.4" stroke-linecap="round" stroke-linejoin="round"/>
<path d="M62.5824 84.9356C63.2145 84.5448 63.8352 84.1425 64.4328 83.6943L71.4206 78.3845C70.8345 78.8327 70.2023 79.2465 69.5702 79.6258C69.3633 79.7522 69.1565 79.8556 68.9496 79.9706C68.5014 80.2234 68.0416 80.4648 67.5704 80.6831C67.3176 80.7981 67.0647 80.9015 66.8119 81.0164C66.3522 81.2118 65.8924 81.3842 65.4212 81.5451C65.1454 81.6371 64.8581 81.7405 64.5707 81.8209C64.2834 81.9014 63.9961 81.9818 63.7087 82.0508C63.3295 82.1427 62.9617 82.2347 62.5709 82.3036C62.3411 82.3496 62.1112 82.3841 61.8813 82.4301C61.4101 82.5105 60.9274 82.568 60.4447 82.614C60.3068 82.6255 60.1574 82.6484 60.0195 82.6599C59.3988 82.7059 58.7667 82.7289 58.1346 82.7289C57.9967 82.7289 57.8588 82.7289 57.7209 82.7289C57.0772 82.7174 56.4336 82.6829 55.79 82.614C55.0315 82.5335 54.2844 82.4071 53.5374 82.2577C53.3995 82.2347 53.273 82.2002 53.1351 82.1772C52.434 82.0278 51.7445 81.8439 51.0549 81.6371C50.9284 81.6026 50.8135 81.5566 50.6986 81.5221C50.078 81.3152 49.4573 81.0969 48.8597 80.844C48.7563 80.7981 48.6413 80.7636 48.5379 80.7176C47.8713 80.4303 47.2277 80.12 46.5841 79.7752C46.3772 79.6717 46.1818 79.5453 45.9749 79.4304C45.5382 79.189 45.113 78.9247 44.6877 78.6604C44.3544 78.4535 44.0326 78.2236 43.7223 78.0052C43.3545 77.7409 42.9867 77.4881 42.6304 77.2007C42.4351 77.0513 42.2512 76.9019 42.0558 76.741C41.6306 76.3847 41.2168 76.0284 40.803 75.6492C40.6536 75.5112 40.5042 75.3848 40.3663 75.2469C39.8491 74.7527 39.3549 74.2355 38.8837 73.7068C38.7803 73.5919 38.6768 73.4655 38.5734 73.3505C38.1711 72.8793 37.7804 72.4081 37.4126 71.9139C37.3206 71.799 37.2287 71.6726 37.1368 71.5576C36.7115 70.983 36.3208 70.3853 35.9415 69.7877C35.8265 69.6038 35.7346 69.4199 35.6197 69.2475C35.3438 68.7763 35.0795 68.2936 34.8266 67.8109C34.7117 67.5925 34.6083 67.3742 34.4934 67.1443C34.298 66.7305 34.1141 66.3168 33.9417 65.903C33.7923 65.5353 33.6314 65.179 33.4935 64.8112C33.3096 64.317 33.1487 63.8228 32.9878 63.3286C32.9188 63.1217 32.8498 62.9148 32.7924 62.708C32.597 62.0069 32.4246 61.2943 32.2752 60.5703C32.2522 60.4323 32.2292 60.3059 32.2062 60.168C32.0913 59.5129 31.9879 58.8578 31.9304 58.1912C31.9304 58.0763 31.9074 57.9728 31.8959 57.8579C31.827 57.0534 31.781 56.2489 31.7925 55.4328L31.9074 35.228L24.9196 40.5378L24.8047 60.7426C24.8047 60.9955 24.8047 61.2483 24.8047 61.5012C24.8162 61.9954 24.8392 62.4896 24.8851 62.9723C24.8851 63.0413 24.8966 63.0987 24.9081 63.1677C24.9081 63.2826 24.9311 63.3861 24.9426 63.501C24.9771 63.8343 25.0116 64.1676 25.0575 64.5009C25.1035 64.8342 25.1725 65.156 25.2299 65.4893C25.2529 65.6272 25.2759 65.7536 25.2989 65.8915C25.3104 65.9605 25.3219 66.0295 25.3334 66.1099C25.4483 66.6846 25.5862 67.2592 25.7471 67.8224C25.7701 67.8913 25.7931 67.9603 25.8161 68.0293C25.8735 68.2361 25.954 68.443 26.0115 68.6614C26.1264 69.0177 26.2183 69.3739 26.3448 69.7302C26.3907 69.8681 26.4597 70.0061 26.5172 70.144C26.6551 70.5118 26.8045 70.8795 26.9654 71.2358C27.0688 71.4772 27.1493 71.73 27.2642 71.9714C27.3447 72.1438 27.4366 72.3047 27.5171 72.4771C27.6205 72.6954 27.7354 72.9138 27.8504 73.1437C28.1032 73.6264 28.3675 74.1091 28.6434 74.5803C28.7468 74.7642 28.8503 74.9481 28.9652 75.1205C29.0112 75.1894 29.0456 75.2699 29.0916 75.3389C29.4249 75.8675 29.7927 76.3847 30.1605 76.8904C30.2524 77.0168 30.3444 77.1318 30.4363 77.2467C30.8041 77.7409 31.1948 78.2121 31.5971 78.6833C31.7005 78.7983 31.804 78.9247 31.9074 79.0396C32.3327 79.5223 32.7694 79.9821 33.2291 80.4303C33.2866 80.4763 33.3326 80.5222 33.39 80.5797C33.5279 80.7176 33.6773 80.844 33.8268 80.9819C34.229 81.3612 34.6543 81.729 35.0795 82.0738C35.2634 82.2232 35.4588 82.3841 35.6427 82.5335C35.8036 82.6599 35.9415 82.7864 36.1024 82.9013C36.3093 83.0507 36.5276 83.1886 36.7345 83.3265C37.0563 83.5564 37.3781 83.7748 37.6999 83.9816C37.8263 84.0621 37.9528 84.1655 38.0792 84.246C38.378 84.4299 38.6768 84.5908 38.9871 84.7632C39.194 84.8781 39.3894 84.993 39.5963 85.108C39.6652 85.1424 39.7342 85.1884 39.8146 85.2344C40.3318 85.4987 40.8605 85.7516 41.4007 85.9929C41.4467 86.0159 41.5041 86.0274 41.5501 86.0504C41.6535 86.0964 41.7685 86.1423 41.8834 86.1768C42.2167 86.3147 42.55 86.4527 42.8948 86.5791C43.1706 86.6825 43.4465 86.763 43.7223 86.8549C43.8372 86.8894 43.9636 86.9354 44.0786 86.9698C44.159 86.9928 44.2395 87.0273 44.3084 87.0503C44.7682 87.1882 45.2394 87.3146 45.7106 87.4296C45.8485 87.464 45.9979 87.487 46.1473 87.5215C46.2852 87.556 46.4117 87.579 46.5496 87.602C46.7335 87.6364 46.9289 87.6824 47.1127 87.7169C47.584 87.7973 48.0437 87.8663 48.5264 87.9238C48.6183 87.9238 48.7103 87.9467 48.8022 87.9582C49.193 88.0042 49.5723 88.0272 49.963 88.0502C50.2274 88.0617 50.4802 88.0617 50.7331 88.0732C50.871 88.0732 51.0089 88.0732 51.1583 88.0732C51.2388 88.0732 51.3307 88.0732 51.4112 88.0732C51.9054 88.0732 52.3996 88.0502 52.8823 88.0157C52.9397 88.0157 52.9857 88.0042 53.0432 88.0042C53.1926 88.0042 53.3305 87.9697 53.4684 87.9582C53.7902 87.9238 54.112 87.9008 54.4338 87.8548C54.5947 87.8318 54.7556 87.7973 54.9051 87.7744C55.1349 87.7399 55.3648 87.6939 55.5831 87.6479C55.7555 87.6135 55.9279 87.5905 56.1003 87.556C56.3072 87.51 56.5141 87.4411 56.721 87.3951C57.0083 87.3261 57.2956 87.2457 57.5829 87.1652C57.7094 87.1307 57.8358 87.1078 57.9622 87.0618C58.1231 87.0158 58.2725 86.9354 58.4334 86.8779C58.9046 86.717 59.3644 86.5446 59.8241 86.3492C59.962 86.2918 60.1229 86.2458 60.2608 86.1883C60.3758 86.1423 60.4792 86.0734 60.5826 86.0159C61.0538 85.7976 61.5021 85.5562 61.9503 85.3033C62.1572 85.1884 62.3755 85.085 62.5709 84.9586L62.5824 84.9356Z" fill="#EBE9E9" stroke="black" stroke-width="0.4" stroke-linecap="round" stroke-linejoin="round"/>
<path d="M31.0457 55.5015L31.8617 46.0772V45.4336L24.8854 51.6858V51.7088L24.8164 60.7079C24.8164 60.9607 24.8164 61.2136 24.8164 61.4664C24.8279 61.9606 24.8509 62.4548 24.8969 62.9375C24.8969 63.0065 24.9083 63.064 24.9198 63.1329C24.9198 63.2479 24.9428 63.3513 24.9543 63.4662C24.9888 63.7995 25.0233 64.1328 25.0693 64.4661C25.1152 64.7994 25.1842 65.1212 25.2417 65.4545C25.2417 65.512 25.2646 65.5694 25.2761 65.6269L27.3794 65.9487L26.9656 61.6273V58.4323L31.0457 55.513V55.5015Z" fill="black" stroke="black" stroke-width="0.4" stroke-linecap="round" stroke-linejoin="round"/>
<path d="M60.4321 78.4074L63.2938 76.2352L67.4199 73.0976C66.9142 73.4884 66.374 73.8332 65.8223 74.155C65.6384 74.2584 65.4545 74.3504 65.2592 74.4423C64.8799 74.6492 64.4891 74.8446 64.0869 75.017C63.857 75.1204 63.6157 75.2008 63.3858 75.2813C62.9835 75.4307 62.5698 75.5801 62.156 75.695C61.9951 75.741 61.8457 75.7755 61.6848 75.8215C61.0987 75.9709 60.501 76.0858 59.8919 76.1663C59.8229 76.1663 59.754 76.1778 59.685 76.1892C59.1219 76.2582 58.5357 76.3042 57.9496 76.3042C57.9036 76.3042 57.8691 76.3042 57.8231 76.3042C57.168 76.3042 56.5014 76.2812 55.8233 76.2122C55.2602 76.1548 54.7085 76.0628 54.1569 75.9479C54.0534 75.9249 53.9615 75.9134 53.858 75.8904C53.3408 75.7755 52.8237 75.6491 52.318 75.4882C52.226 75.4652 52.1456 75.4307 52.0536 75.3962C51.5939 75.2468 51.1457 75.0744 50.6974 74.8905C50.617 74.8561 50.525 74.8216 50.4446 74.7871C49.9504 74.5802 49.4677 74.3389 48.9965 74.0975C48.8471 74.0171 48.6976 73.9251 48.5482 73.8447C48.2264 73.6608 47.9046 73.4654 47.5828 73.27C47.3415 73.1091 47.1001 72.9482 46.8587 72.7873C46.5829 72.5919 46.3071 72.3965 46.0427 72.2012C45.9048 72.0862 45.7669 71.9828 45.6175 71.8678C45.2957 71.6035 44.9969 71.3392 44.698 71.0633C44.5946 70.9599 44.4797 70.868 44.3762 70.7645C44.2498 70.6381 44.1349 70.5002 44.0085 70.3738C43.6062 69.96 43.2154 69.5348 42.8477 69.098C42.6983 68.9256 42.5603 68.7417 42.4224 68.5693C42.0776 68.1211 41.7443 67.6614 41.434 67.1902C41.3306 67.0293 41.2156 66.8799 41.1122 66.7075C41.0318 66.5695 40.9513 66.4431 40.8709 66.3052C40.664 65.9604 40.4686 65.6041 40.2847 65.2363C40.2043 65.0754 40.1238 64.9145 40.0434 64.7421C39.8939 64.4433 39.7675 64.133 39.6296 63.8227C39.5147 63.5584 39.3997 63.2825 39.2963 63.0067C39.1584 62.6389 39.032 62.2826 38.917 61.9034C38.8711 61.7539 38.8136 61.593 38.7676 61.4436C38.6182 60.9264 38.4918 60.3978 38.3884 59.8576C38.3654 59.7542 38.3539 59.6507 38.3309 59.5473C38.2389 59.0646 38.17 58.5704 38.124 58.0762C38.124 57.9957 38.101 57.9153 38.101 57.8233C38.0436 57.2257 38.0206 56.628 38.0206 56.0189C38.0206 55.3638 38.0665 54.7202 38.1355 54.0996C38.1355 54.0076 38.1585 53.9157 38.17 53.8237C38.2389 53.2376 38.3424 52.6629 38.4688 52.1113C38.4918 52.0193 38.5148 51.9389 38.5378 51.8469C38.6757 51.2723 38.8366 50.6976 39.032 50.1459C39.032 50.1459 39.032 50.1344 39.032 50.123C39.2159 49.6058 39.4342 49.1116 39.6641 48.6174C39.7445 48.445 39.825 48.2841 39.9169 48.1232C40.0778 47.8128 40.2502 47.514 40.4341 47.2152C40.595 46.9509 40.7559 46.698 40.9283 46.4452C41.0777 46.2268 41.2386 46.0199 41.388 45.8131C41.6984 45.3993 42.0317 45.0085 42.3764 44.6293C42.5259 44.4684 42.6638 44.3075 42.8247 44.1466C43.3304 43.6409 43.8591 43.1582 44.4222 42.7329C44.3073 42.8249 44.1694 42.9283 44.0429 43.0202L38.5493 47.1807C38.17 47.4681 37.7792 47.7669 37.4229 48.0312C36.8598 48.4565 36.3311 48.9392 35.8254 49.4449C35.676 49.5943 35.5266 49.7667 35.3772 49.9276C35.0324 50.3068 34.6991 50.6976 34.3888 51.1114C34.3083 51.2148 34.2164 51.3067 34.1359 51.4217C34.0555 51.5251 33.998 51.64 33.929 51.755C33.7566 52.0078 33.5957 52.2607 33.4348 52.525C33.3429 52.6744 33.2395 52.8238 33.1475 52.9847C33.0671 53.1341 32.9981 53.2836 32.9291 53.433C32.8487 53.5939 32.7567 53.7663 32.6763 53.9272C32.6188 54.0421 32.5499 54.157 32.5039 54.2834C32.343 54.6627 32.1821 55.042 32.0442 55.4328C32.0442 55.4328 32.0442 55.4442 32.0442 55.4557C31.9178 55.812 31.8028 56.1913 31.6879 56.5591C31.6304 56.7545 31.5959 56.9498 31.5385 57.1452C31.5155 57.2372 31.4925 57.3176 31.4695 57.4096C31.458 57.4785 31.435 57.559 31.4121 57.6279C31.3431 57.9727 31.2741 58.329 31.2167 58.6853C31.1937 58.8347 31.1822 58.9726 31.1592 59.122C31.1592 59.214 31.1362 59.3059 31.1247 59.3979C31.1132 59.5128 31.0902 59.6277 31.0788 59.7427C31.0443 60.0875 31.0213 60.4437 31.0098 60.8C31.0098 60.9724 31.0098 61.1448 31.0098 61.3172C31.0098 61.5011 31.0098 61.6965 31.0098 61.8804C31.0098 62.2481 31.0328 62.6159 31.0673 62.9837C31.0673 63.0297 31.0673 63.0757 31.0788 63.1216C31.0788 63.2021 31.1017 63.294 31.1017 63.3745C31.1247 63.6273 31.1477 63.8687 31.1822 64.11C31.2167 64.3514 31.2626 64.5927 31.3086 64.8341C31.3316 64.9375 31.3431 65.041 31.3661 65.1444C31.3661 65.2019 31.3776 65.2478 31.3891 65.3053C31.481 65.7306 31.573 66.1558 31.6879 66.581C31.6994 66.627 31.7224 66.6845 31.7339 66.7304C31.7798 66.8914 31.8373 67.0408 31.8833 67.1902C31.9637 67.4545 32.0442 67.7189 32.1361 67.9832C32.1706 68.0866 32.2166 68.1786 32.2625 68.282C32.366 68.5578 32.4809 68.8222 32.5958 69.098C32.6763 69.2819 32.7338 69.4658 32.8142 69.6497C32.8717 69.7761 32.9406 69.891 32.9981 70.0175C33.0786 70.1784 33.159 70.3508 33.2395 70.5117C33.4233 70.868 33.6187 71.2242 33.8256 71.5805C33.9061 71.7184 33.975 71.8449 34.067 71.9828C34.1014 72.0402 34.1244 72.0862 34.1589 72.1437C34.2279 72.2586 34.3198 72.3506 34.3888 72.454C34.6991 72.9252 35.0324 73.3849 35.3772 73.8332C35.5151 74.0171 35.6645 74.1895 35.8024 74.3618C36.1702 74.7986 36.561 75.2238 36.9632 75.6376C37.0552 75.7295 37.1241 75.8215 37.2161 75.9134C37.2505 75.9479 37.2965 75.9824 37.331 76.0283C37.4344 76.1318 37.5494 76.2237 37.6643 76.3272C37.9631 76.603 38.2734 76.8788 38.5837 77.1317C38.7217 77.2466 38.8596 77.3615 39.009 77.465C39.1239 77.5569 39.2273 77.6489 39.3423 77.7293C39.4917 77.8442 39.6641 77.9362 39.8135 78.0511C40.0548 78.2235 40.2847 78.3844 40.5376 78.5453C40.6295 78.6028 40.7214 78.6718 40.8134 78.7292C41.0318 78.8671 41.2731 78.9936 41.4915 79.12C41.6409 79.2004 41.7788 79.2924 41.9397 79.3728C41.9972 79.3958 42.0431 79.4303 42.0891 79.4648C42.4684 79.6602 42.8707 79.8555 43.2614 80.0279C43.2959 80.0509 43.3419 80.0624 43.3763 80.0739C43.4568 80.1084 43.5487 80.1429 43.6292 80.1773C43.8705 80.2808 44.1119 80.3842 44.3648 80.4762C44.5716 80.5566 44.7785 80.6141 44.9969 80.683C45.0888 80.706 45.1693 80.7405 45.2612 80.775C45.3187 80.798 45.3761 80.8095 45.4336 80.8325C45.7784 80.9359 46.1232 81.0278 46.4795 81.1083C46.5829 81.1313 46.6978 81.1543 46.8128 81.1772C46.9162 81.2002 47.0082 81.2232 47.1116 81.2347C47.2495 81.2577 47.3874 81.2922 47.5253 81.3152C47.8701 81.3726 48.2264 81.4301 48.5712 81.4646C48.6402 81.4646 48.7091 81.4761 48.7781 81.4876C49.0654 81.522 49.3527 81.545 49.6401 81.5565C50.0079 81.5795 50.3641 81.591 50.7204 81.5795C50.7434 81.5795 50.7664 81.5795 50.7894 81.5795C50.8354 81.5795 50.8698 81.5795 50.9158 81.5795C51.2261 81.5795 51.5249 81.568 51.8238 81.545C52.0996 81.522 52.3754 81.4876 52.6513 81.4646C52.6972 81.4646 52.7547 81.4646 52.8007 81.4646C52.8237 81.4646 52.8351 81.4646 52.8581 81.4646C52.8926 81.4646 52.9386 81.4646 52.9731 81.4531C53.3983 81.3956 53.8121 81.3152 54.2143 81.2347C54.3637 81.2002 54.5016 81.1543 54.6396 81.1198C54.8005 81.0853 54.9499 81.0393 55.1108 80.9934C55.2717 80.9474 55.4326 80.9129 55.5935 80.8669C55.8463 80.7865 56.0877 80.6715 56.3405 80.5796C56.5819 80.4877 56.8118 80.4072 57.0416 80.3153C57.1221 80.2808 57.214 80.2578 57.2945 80.2233C57.6163 80.0854 57.9151 79.913 58.2139 79.7521C58.3978 79.6487 58.5932 79.5682 58.7771 79.4648C59.3287 79.143 59.8574 78.7982 60.3746 78.4074H60.4321Z" fill="black" stroke="black" stroke-width="0.5" stroke-miterlimit="10"/>
<path d="M20.0918 39.9973L27.0796 34.6875L31.9182 35.1932L24.9304 40.5029L20.0918 39.9973Z" fill="white" stroke="black" stroke-width="0.4" stroke-linecap="round" stroke-linejoin="round"/>
<path d="M51.9966 44.1699C61.8806 45.2042 69.8453 54.2378 69.7879 64.3402C69.7304 74.4426 61.6738 81.7867 51.7897 80.7523C41.9057 79.7179 33.941 70.6844 33.9984 60.582C34.0559 50.4795 42.1126 43.1355 51.9966 44.1699Z" fill="white" stroke="black" stroke-width="0.5" stroke-miterlimit="10"/>
<path d="M49.078 38.6531C62.364 40.0552 73.0756 52.1919 73.0066 65.7767C72.9261 79.35 62.0996 89.2341 48.8136 87.8434C35.5276 86.4413 24.8161 74.3046 24.8851 60.7198C24.9541 47.135 35.792 37.2624 49.078 38.6531ZM48.8366 81.5337C58.7207 82.5681 66.7773 75.224 66.8348 65.1216C66.8922 55.0192 58.9275 45.9857 49.0435 44.9513C39.1595 43.9169 31.1028 51.261 31.0453 61.3634C30.9879 71.4658 38.9526 80.4993 48.8366 81.5337Z" fill="white" stroke="black" stroke-width="0.4" stroke-linecap="round" stroke-linejoin="round"/>
<path d="M68.8116 86.7284C68.8116 86.7284 68.9035 86.6479 68.9495 86.602C69.0529 86.51 69.1679 86.4066 69.2713 86.3146C69.5816 86.0388 69.8804 85.7515 70.1678 85.4526C70.3057 85.3147 70.4321 85.1883 70.57 85.0504C70.8803 84.7171 71.1906 84.3838 71.4895 84.0275C71.5124 84.0045 71.5239 83.9815 71.5469 83.97C71.6389 83.8666 71.7308 83.7517 71.8228 83.6482C72.1675 83.2345 72.4893 82.8092 72.8112 82.3725C72.8686 82.3035 72.9146 82.2231 72.9606 82.1541C73.4892 81.4071 73.9835 80.6371 74.4317 79.8325C74.4547 79.7981 74.4777 79.7521 74.5006 79.7061C74.5236 79.6486 74.5581 79.6027 74.5811 79.5452C74.8684 79.0165 75.1442 78.4649 75.3971 77.9017C75.4661 77.7638 75.535 77.6144 75.5925 77.4765C75.8108 76.9708 76.0177 76.4651 76.2016 75.9364C76.2591 75.7755 76.3165 75.6261 76.3625 75.4652C76.5004 75.0744 76.6269 74.6836 76.7418 74.2814C76.7763 74.1779 76.7993 74.0745 76.8337 73.9711C76.8797 73.8217 76.9142 73.6608 76.9602 73.4999C77.0521 73.1666 77.1326 72.8218 77.213 72.477C77.2705 72.2471 77.3164 72.0058 77.3624 71.7644C77.4199 71.4541 77.4773 71.1553 77.5348 70.8335C77.5808 70.5806 77.6153 70.3278 77.6497 70.0749C77.6842 69.7761 77.7302 69.4888 77.7532 69.19C77.7762 68.9256 77.7991 68.6613 77.8221 68.3969C77.8451 68.1096 77.8681 67.8108 77.8796 67.512C77.9026 67.0982 77.9141 66.6845 77.9256 66.2592L78.029 47.0888L73.1674 50.9045L73.087 65.7535C73.0065 79.3498 62.1341 89.2798 48.8251 87.8892C35.5161 86.487 24.7586 74.2814 24.8391 60.6851L24.954 40.4803L20.1154 39.9746L20.0005 60.1794C19.9085 76.4995 32.8268 91.1417 48.8021 92.8312C56.0313 93.5897 62.6628 91.5555 67.7772 87.5904C68.1335 87.303 68.4898 87.0157 68.8346 86.7169L68.8116 86.7284Z" fill="white" stroke="black" stroke-width="0.4" stroke-linecap="round" stroke-linejoin="round"/>
<path d="M78.0179 47.1118L73.1562 50.9275H77.9949L78.0179 47.1118Z" fill="black" stroke="black" stroke-width="0.4" stroke-linecap="round" stroke-linejoin="round"/>
<path d="M76.3736 75.4774C76.3736 75.4774 76.3391 75.5923 76.3161 75.6498C76.3046 75.6958 76.2931 75.7417 76.2702 75.7877C76.0633 76.3624 75.8334 76.937 75.5921 77.4887C75.5346 77.6266 75.4656 77.776 75.3967 77.9139C75.1438 78.4771 74.868 79.0173 74.5807 79.5574C74.5347 79.6494 74.4887 79.7413 74.4313 79.8333C73.983 80.6378 73.4888 81.4193 72.9601 82.1664C72.9142 82.2353 72.8567 82.3158 72.8107 82.3847C72.4659 82.8559 72.1097 83.3157 71.7419 83.7639C71.6614 83.8558 71.5695 83.9593 71.489 84.0512C71.1902 84.396 70.8799 84.7408 70.5696 85.0741C70.4432 85.212 70.3052 85.3499 70.1673 85.4764C69.88 85.7752 69.5697 86.051 69.2709 86.3383C69.1444 86.4533 69.0065 86.5797 68.8801 86.6946C68.4434 87.0739 68.0066 87.4417 67.5469 87.7865L74.5347 82.4767C74.9944 82.1319 75.4426 81.7526 75.8794 81.3733C76.0173 81.2584 76.1437 81.132 76.2702 81.0171C76.5805 80.7412 76.8793 80.4539 77.1666 80.1551C77.3045 80.0172 77.431 79.8907 77.5574 79.7528C77.8792 79.4195 78.178 79.0747 78.4768 78.7299C78.5573 78.638 78.6492 78.546 78.7182 78.4426C79.086 77.9944 79.4422 77.5346 79.787 77.0634C79.81 77.029 79.833 77.006 79.856 76.983C79.8905 76.937 79.9135 76.891 79.9364 76.8451C80.4651 76.098 80.9593 75.3165 81.4076 74.512C81.4191 74.489 81.4305 74.466 81.4535 74.443C81.488 74.3741 81.5225 74.3051 81.557 74.2361C81.8443 73.7075 82.1201 73.1558 82.373 72.6041C82.4075 72.5237 82.4649 72.4432 82.4994 72.3513C82.5224 72.2938 82.5454 72.2363 82.5684 72.1789C82.8097 71.6157 83.0396 71.0526 83.2464 70.4779C83.2464 70.4779 83.2464 70.4779 83.2464 70.4664C83.2579 70.4204 83.2694 70.386 83.2809 70.34C83.2924 70.3055 83.3039 70.2595 83.3154 70.2251L76.3391 75.4774H76.3736Z" fill="black" stroke="black" stroke-width="0.4" stroke-linecap="round" stroke-linejoin="round"/>
<path d="M81.213 18.3562C81.2934 18.2068 81.3739 18.0804 81.4543 17.9654C81.5348 17.8505 81.6267 17.7585 81.7072 17.6896C81.7761 17.6321 81.8336 17.5976 81.9026 17.5747C81.9026 17.5747 81.914 17.5747 81.9255 17.5747C81.9945 17.5517 82.052 17.5402 82.1209 17.5517L77.1099 17C77.1099 17 77.0755 17 77.064 17C77.0295 17 77.0065 17 76.972 17C76.9605 17 76.9375 17 76.9261 17.0115C76.9261 17.0115 76.9146 17.0115 76.9031 17.0115C76.9031 17.0115 76.8916 17.0115 76.8801 17.0115C76.8456 17.023 76.8226 17.0345 76.7881 17.0575C76.7537 17.0805 76.7307 17.0919 76.6962 17.1149C76.6732 17.1379 76.6387 17.1609 76.6043 17.1954C76.5698 17.2184 76.5468 17.2528 76.5123 17.2873C76.4893 17.3218 76.4548 17.3563 76.4319 17.3908C76.3974 17.4367 76.3629 17.4827 76.3399 17.5287C76.3054 17.5862 76.271 17.6436 76.2365 17.7011C76.225 17.7241 76.2135 17.7471 76.202 17.77C76.202 17.793 76.179 17.8045 76.179 17.8275C76.156 17.862 76.1445 17.8965 76.1215 17.9309C76.0756 18.0344 76.0181 18.1493 75.9721 18.2642C75.9721 18.2642 75.9721 18.2872 75.9721 18.2987C75.8917 18.5056 75.8112 18.7354 75.7423 18.9998L67.6167 48.2612C67.5822 48.3876 67.5477 48.514 67.5247 48.6404V48.6634C67.5247 48.6634 67.5247 48.6749 67.5247 48.6864C67.5247 48.7209 67.5247 48.7554 67.5132 48.7783C67.5132 48.8243 67.5017 48.8588 67.5017 48.9048C67.5017 48.9392 67.5017 48.9852 67.4902 49.0197C67.4902 49.0427 67.4902 49.0657 67.4902 49.0772C67.4902 49.0772 67.4902 49.0772 67.4902 49.0887V49.1116C67.4902 49.1461 67.4902 49.1806 67.4902 49.2151C67.4902 49.2496 67.4902 49.284 67.4902 49.3185C67.4902 49.353 67.4902 49.3875 67.4902 49.422C67.4902 49.4449 67.4902 49.4564 67.4902 49.4794V49.5139C67.4902 49.5484 67.4902 49.5829 67.4902 49.6173C67.4902 49.6518 67.4902 49.6863 67.4902 49.7208C67.4902 49.7553 67.4902 49.7897 67.4902 49.8242C67.4902 49.8242 67.4902 49.8357 67.4902 49.8472C67.4902 49.8472 67.4902 49.8472 67.4902 49.8587C67.4902 49.8817 67.4902 49.9047 67.4902 49.9277C67.4902 49.9621 67.4902 50.0081 67.5017 50.0426C67.5132 50.0771 67.5132 50.1115 67.5247 50.146C67.5247 50.146 67.5247 50.146 67.5247 50.1575C67.5247 50.1575 67.5247 50.1575 67.5247 50.169C67.5247 50.169 67.5247 50.1805 67.5247 50.192C67.5477 50.2954 67.5822 50.3874 67.6282 50.4563C67.6282 50.4793 67.6511 50.4908 67.6626 50.5138C67.7086 50.5828 67.7661 50.6287 67.8235 50.6402L72.8345 51.1919C72.7771 51.1919 72.7196 51.1344 72.6736 51.0655C72.6621 51.054 72.6506 51.031 72.6391 51.008C72.6047 50.939 72.5702 50.8471 72.5357 50.7437C72.5357 50.7322 72.5357 50.7207 72.5357 50.7092C72.5357 50.7092 72.5357 50.7092 72.5357 50.6977C72.5127 50.6057 72.5012 50.5138 72.4897 50.3989C72.4897 50.3989 72.4897 50.3989 72.4897 50.3874C72.4897 50.2724 72.4782 50.1575 72.4782 50.0311C72.4782 49.8932 72.4782 49.7668 72.5012 49.6403C72.5012 49.6403 72.5012 49.6403 72.5012 49.6288C72.5127 49.5024 72.5357 49.3645 72.5587 49.2381C72.5587 49.2381 72.5587 49.2266 72.5587 49.2151C72.5817 49.0772 72.6162 48.9392 72.6506 48.8128L80.7762 19.5515C80.8452 19.2986 80.9256 19.0687 81.0061 18.8504C81.0751 18.678 81.144 18.5171 81.213 18.3792C81.213 18.3562 81.236 18.3447 81.236 18.3217L81.213 18.3562Z" fill="white" stroke="black" stroke-width="0.4" stroke-linecap="round" stroke-linejoin="round"/>
<path d="M81.2129 18.3562C81.2934 18.2068 81.3738 18.0804 81.4543 17.9654C81.5347 17.8505 81.6267 17.7585 81.7071 17.6896C81.7761 17.6321 81.8336 17.5976 81.9025 17.5747C81.9025 17.5747 81.914 17.5747 81.9255 17.5747C81.9945 17.5517 82.0519 17.5402 82.1209 17.5517L77.1099 17C77.1099 17 77.0754 17 77.0639 17C77.0295 17 77.0065 17 76.972 17C76.9605 17 76.9375 17 76.926 17.0115C76.926 17.0115 76.9145 17.0115 76.903 17.0115C76.903 17.0115 76.8915 17.0115 76.8801 17.0115C76.8456 17.023 76.8226 17.0345 76.7881 17.0575C76.7536 17.0805 76.7306 17.0919 76.6962 17.1149C76.6732 17.1379 76.6387 17.1609 76.6042 17.1954C76.5697 17.2184 76.5468 17.2528 76.5123 17.2873C76.4893 17.3218 76.4548 17.3563 76.4318 17.3908C76.3973 17.4367 76.3629 17.4827 76.3399 17.5287C76.3054 17.5862 76.2709 17.6436 76.2364 17.7011C76.225 17.7241 76.2135 17.7471 76.202 17.77C76.202 17.793 76.179 17.8045 76.179 17.8275C76.156 17.862 76.1445 17.8965 76.1215 17.9309C76.0755 18.0344 76.0181 18.1493 75.9721 18.2642C75.9721 18.2642 75.9721 18.2872 75.9721 18.2987C75.8916 18.5056 75.8112 18.7355 75.7422 18.9998L80.7532 19.5515C80.8222 19.2986 80.9026 19.0687 80.9831 18.8504C81.052 18.678 81.121 18.5171 81.19 18.3792C81.19 18.3562 81.2129 18.3447 81.2129 18.3217V18.3562Z" fill="white"/>
<path d="M72.6624 51.1002C72.6624 51.1002 72.6394 51.0657 72.6279 51.0427C72.5934 50.9737 72.5589 50.8818 72.5244 50.7784C72.5244 50.7669 72.5244 50.7554 72.5244 50.7439C72.5244 50.7439 72.5244 50.7439 72.5244 50.7324C72.5015 50.6404 72.49 50.5485 72.4785 50.4336C72.4785 50.4336 72.4785 50.4336 72.4785 50.4221C72.4785 50.3071 72.467 50.1922 72.467 50.0658C72.467 49.9279 72.467 49.8014 72.49 49.675C72.49 49.675 72.49 49.675 72.49 49.6635C72.5015 49.5371 72.5244 49.3992 72.5474 49.2728C72.5474 49.2728 72.5474 49.2613 72.5474 49.2498C72.5704 49.1119 72.6049 48.9739 72.6394 48.8475L67.6284 48.2959C67.5939 48.4223 67.5594 48.5487 67.5364 48.6751V48.6981C67.5364 48.6981 67.5364 48.7096 67.5364 48.7211C67.5364 48.7556 67.5364 48.7901 67.525 48.813C67.525 48.859 67.5135 48.8935 67.5135 48.9395C67.5135 48.9739 67.5135 49.0199 67.502 49.0544C67.502 49.0774 67.502 49.1004 67.502 49.1119C67.502 49.1119 67.502 49.1119 67.502 49.1234V49.1463C67.502 49.1808 67.502 49.2153 67.502 49.2498C67.502 49.2843 67.502 49.3187 67.502 49.3532C67.502 49.3877 67.502 49.4222 67.502 49.4567C67.502 49.4796 67.502 49.4911 67.502 49.5141V49.5486C67.502 49.5831 67.502 49.6176 67.502 49.652C67.502 49.6865 67.502 49.721 67.502 49.7555C67.502 49.79 67.502 49.8244 67.502 49.8589C67.502 49.8589 67.502 49.8704 67.502 49.8819C67.502 49.8819 67.502 49.8819 67.502 49.8934C67.502 49.9164 67.502 49.9394 67.502 49.9623C67.502 49.9968 67.502 50.0428 67.5135 50.0773C67.525 50.1118 67.525 50.1462 67.5364 50.1807C67.5364 50.1807 67.5364 50.1807 67.5364 50.1922C67.5364 50.1922 67.5364 50.1922 67.5364 50.2037C67.5364 50.2037 67.5364 50.2152 67.5364 50.2267C67.5594 50.3301 67.5939 50.4221 67.6399 50.491C67.6399 50.514 67.6629 50.5255 67.6744 50.5485C67.7203 50.6175 67.7778 50.6634 67.8353 50.6749L72.8462 51.2266C72.7888 51.2266 72.7313 51.1691 72.6853 51.1002H72.6624Z" fill="#C2C8CE"/>
<path d="M81.213 18.3562C81.2934 18.2068 81.3739 18.0804 81.4543 17.9654C81.5348 17.8505 81.6267 17.7585 81.7072 17.6896C81.7761 17.6321 81.8336 17.5976 81.9026 17.5747C81.9026 17.5747 81.914 17.5747 81.9255 17.5747C81.9945 17.5517 82.052 17.5402 82.1209 17.5517L77.1099 17C77.1099 17 77.0755 17 77.064 17C77.0295 17 77.0065 17 76.972 17C76.9605 17 76.9375 17 76.9261 17.0115C76.9261 17.0115 76.9146 17.0115 76.9031 17.0115C76.9031 17.0115 76.8916 17.0115 76.8801 17.0115C76.8456 17.023 76.8226 17.0345 76.7881 17.0575C76.7537 17.0805 76.7307 17.0919 76.6962 17.1149C76.6732 17.1379 76.6387 17.1609 76.6043 17.1954C76.5698 17.2184 76.5468 17.2528 76.5123 17.2873C76.4893 17.3218 76.4548 17.3563 76.4319 17.3908C76.3974 17.4367 76.3629 17.4827 76.3399 17.5287C76.3054 17.5862 76.271 17.6436 76.2365 17.7011C76.225 17.7241 76.2135 17.7471 76.202 17.77C76.202 17.793 76.179 17.8045 76.179 17.8275C76.156 17.862 76.1445 17.8965 76.1215 17.9309C76.0756 18.0344 76.0181 18.1493 75.9721 18.2642C75.9721 18.2642 75.9721 18.2872 75.9721 18.2987C75.8917 18.5056 75.8112 18.7354 75.7423 18.9998L67.6167 48.2612C67.5822 48.3876 67.5477 48.514 67.5247 48.6404V48.6634C67.5247 48.6634 67.5247 48.6749 67.5247 48.6864C67.5247 48.7209 67.5247 48.7554 67.5132 48.7783C67.5132 48.8243 67.5017 48.8588 67.5017 48.9048C67.5017 48.9392 67.5017 48.9852 67.4902 49.0197C67.4902 49.0427 67.4902 49.0657 67.4902 49.0772C67.4902 49.0772 67.4902 49.0772 67.4902 49.0887V49.1116C67.4902 49.1461 67.4902 49.1806 67.4902 49.2151C67.4902 49.2496 67.4902 49.284 67.4902 49.3185C67.4902 49.353 67.4902 49.3875 67.4902 49.422C67.4902 49.4449 67.4902 49.4564 67.4902 49.4794V49.5139C67.4902 49.5484 67.4902 49.5829 67.4902 49.6173C67.4902 49.6518 67.4902 49.6863 67.4902 49.7208C67.4902 49.7553 67.4902 49.7897 67.4902 49.8242C67.4902 49.8242 67.4902 49.8357 67.4902 49.8472C67.4902 49.8472 67.4902 49.8472 67.4902 49.8587C67.4902 49.8817 67.4902 49.9047 67.4902 49.9277C67.4902 49.9621 67.4902 50.0081 67.5017 50.0426C67.5132 50.0771 67.5132 50.1115 67.5247 50.146C67.5247 50.146 67.5247 50.146 67.5247 50.1575C67.5247 50.1575 67.5247 50.1575 67.5247 50.169C67.5247 50.169 67.5247 50.1805 67.5247 50.192C67.5477 50.2954 67.5822 50.3874 67.6282 50.4563C67.6282 50.4793 67.6511 50.4908 67.6626 50.5138C67.7086 50.5828 67.7661 50.6287 67.8235 50.6402L72.8345 51.1919C72.7771 51.1919 72.7196 51.1344 72.6736 51.0655C72.6621 51.054 72.6506 51.031 72.6391 51.008C72.6047 50.939 72.5702 50.8471 72.5357 50.7437C72.5357 50.7322 72.5357 50.7207 72.5357 50.7092C72.5357 50.7092 72.5357 50.7092 72.5357 50.6977C72.5127 50.6057 72.5012 50.5138 72.4897 50.3989C72.4897 50.3989 72.4897 50.3989 72.4897 50.3874C72.4897 50.2724 72.4782 50.1575 72.4782 50.0311C72.4782 49.8932 72.4782 49.7668 72.5012 49.6403C72.5012 49.6403 72.5012 49.6403 72.5012 49.6288C72.5127 49.5024 72.5357 49.3645 72.5587 49.2381C72.5587 49.2381 72.5587 49.2266 72.5587 49.2151C72.5817 49.0772 72.6162 48.9392 72.6506 48.8128L80.7762 19.5515C80.8452 19.2986 80.9256 19.0687 81.0061 18.8504C81.0751 18.678 81.144 18.5171 81.213 18.3792C81.213 18.3562 81.236 18.3447 81.236 18.3217L81.213 18.3562Z" stroke="black" stroke-width="0.4" stroke-linecap="round" stroke-linejoin="round"/>
<path d="M48.7791 92.8429C55.4451 93.5439 61.5938 91.866 66.5129 88.4985L62.5823 85.1885H62.1685C58.3298 87.3951 53.7326 88.4295 48.8021 87.9123C45.63 87.579 42.6188 86.6136 39.8489 85.1885H39.8145L34.9414 87.7859C39.0444 90.5213 43.7566 92.3257 48.7676 92.8544L48.7791 92.8429Z" fill="#FFA500" stroke="black" stroke-width="0.5" stroke-miterlimit="10"/>
<path d="M84.9942 45.2388L82.1094 49.3418V58.0535L84.9022 60.9728L84.9942 45.2388Z" fill="#FFA500" stroke="black" stroke-width="0.5" stroke-miterlimit="10"/>
<path d="M54.9561 62.7661L58.827 60.0713L56.2144 53.5017L47.1934 50.6777L41.4668 68.9708L51.6689 72.1645L57.3283 67.8828L54.9561 62.7661ZM53.7875 55.8994L54.7997 58.8558L53.2321 59.5164L51.8522 55.2936L53.7875 55.8994ZM48.429 56.1174L49.143 56.3409L50.2896 60.2695L47.4113 59.3685L48.429 56.1174ZM44.9816 67.1299C44.8559 67.0905 46.2101 63.2057 46.2101 63.2057L46.9061 63.4236L48.2416 68.1504C48.2416 68.1504 45.1074 67.1693 44.9816 67.1299ZM51.5323 68.0493L49.9881 63.0912L52.2602 63.8025L53.3273 67.1029L51.5323 68.0493Z" fill="black"/>
</svg>
