<svg width="110" height="110" viewBox="0 0 110 110" fill="none" xmlns="http://www.w3.org/2000/svg">
<g clip-path="url(#clip0_6310_24743)">
<mask id="mask0_6310_24743" style="mask-type:luminance" maskUnits="userSpaceOnUse" x="0" y="0" width="110" height="110">
<path d="M110 0H0V110H110V0Z" fill="white"/>
</mask>
<g mask="url(#mask0_6310_24743)">
<path d="M67.2697 88.1259L31.5889 94.4284C30.3447 94.6484 29.0948 94.0734 28.4521 92.9855L23.7581 85.0394C22.8429 83.49 23.4711 81.4891 25.1078 80.741L70.713 59.897C71.4574 59.5567 72.3075 59.5319 73.0703 59.8281L100.115 70.3312C89.4731 76.9152 76.7891 83.3614 68.1321 87.8348C67.8598 87.9753 67.5714 88.0727 67.2697 88.1259Z" fill="url(#paint0_linear_6310_24743)"/>
<path fill-rule="evenodd" clip-rule="evenodd" d="M75.6242 31.7646H35.8242V79.1566V80.1587H35.9055C36.8202 85.7719 45.3439 90.1709 55.7244 90.1709C66.1044 90.1709 74.6282 85.7719 75.543 80.1587H75.6242V79.1566V31.7646Z" fill="white"/>
<mask id="mask1_6310_24743" style="mask-type:luminance" maskUnits="userSpaceOnUse" x="35" y="31" width="41" height="60">
<path fill-rule="evenodd" clip-rule="evenodd" d="M75.6262 31.7646H35.8262V79.1566V80.1587H35.9075C36.8222 85.7719 45.3459 90.1709 55.7263 90.1709C66.1063 90.1709 74.6301 85.7719 75.5449 80.1587H75.6262V79.1566V31.7646Z" fill="white"/>
</mask>
<g mask="url(#mask1_6310_24743)">
<path d="M35.8264 31.7649V31.3057H35.3672V31.7649H35.8264ZM75.6264 31.7649H76.0857V31.3057H75.6264V31.7649ZM35.8264 80.1589H35.3672V80.6182H35.8264V80.1589ZM35.9077 80.1589L36.3609 80.0855L36.2981 79.6997H35.9077V80.1589ZM75.5452 80.1589V79.6997H75.1548L75.0919 80.0855L75.5452 80.1589ZM75.6264 80.1589V80.6182H76.0857V80.1589H75.6264ZM35.8264 32.2241H75.6264V31.3057H35.8264V32.2241ZM36.2857 79.1569V31.7649H35.3672V79.1569H36.2857ZM36.2857 80.1589V79.1569H35.3672V80.1589H36.2857ZM35.9077 79.6997H35.8264V80.6182H35.9077V79.6997ZM55.7266 89.7119C50.5965 89.7119 45.944 88.6239 42.4757 86.8605C38.992 85.0892 36.7843 82.6833 36.3609 80.0855L35.4544 80.2329C35.9458 83.2482 38.4573 85.8479 42.0594 87.6793C45.6767 89.5185 50.4762 90.6303 55.7266 90.6303V89.7119ZM75.0919 80.0855C74.6685 82.6833 72.461 85.0892 68.9772 86.8605C65.5091 88.6239 60.8562 89.7119 55.7266 89.7119V90.6303C60.9765 90.6303 65.7759 89.5185 69.3933 87.6793C72.9955 85.8479 75.507 83.2482 75.9984 80.2329L75.0919 80.0855ZM75.6264 79.6997H75.5452V80.6182H75.6264V79.6997ZM75.1672 79.1569V80.1589H76.0857V79.1569H75.1672ZM75.1672 31.7649V79.1569H76.0857V31.7649H75.1672Z" fill="black"/>
</g>
<mask id="mask2_6310_24743" style="mask-type:alpha" maskUnits="userSpaceOnUse" x="35" y="31" width="41" height="60">
<path fill-rule="evenodd" clip-rule="evenodd" d="M75.6262 31.7656H35.8262V79.1577V80.1597H35.9075C36.8222 85.7729 45.3459 90.1714 55.7263 90.1714C66.1063 90.1714 74.6301 85.7729 75.5449 80.1597H75.6262V79.1577V31.7656Z" fill="#DFDFDF"/>
<mask id="mask3_6310_24743" style="mask-type:alpha" maskUnits="userSpaceOnUse" x="35" y="31" width="41" height="60">
<path fill-rule="evenodd" clip-rule="evenodd" d="M75.6262 31.7651H35.8262V79.1572V80.1592H35.9075C36.8222 85.7724 45.3459 90.1709 55.7263 90.1709C66.1063 90.1709 74.6301 85.7724 75.5449 80.1592H75.6262V79.1572V31.7651Z" fill="white"/>
</mask>
<g mask="url(#mask3_6310_24743)">
<path d="M35.8264 31.7654V31.3062H35.3672V31.7654H35.8264ZM75.6264 31.7654H76.0857V31.3062H75.6264V31.7654ZM35.8264 80.1595H35.3672V80.6187H35.8264V80.1595ZM35.9077 80.1595L36.3609 80.0855L36.2981 79.7002H35.9077V80.1595ZM75.5452 80.1595V79.7002H75.1548L75.0919 80.0855L75.5452 80.1595ZM75.6264 80.1595V80.6187H76.0857V80.1595H75.6264ZM35.8264 32.2246H75.6264V31.3062H35.8264V32.2246ZM36.2857 79.1574V31.7654H35.3672V79.1574H36.2857ZM36.2857 80.1595V79.1574H35.3672V80.1595H36.2857ZM35.9077 79.7002H35.8264V80.6187H35.9077V79.7002ZM55.7266 89.7119C50.5965 89.7119 45.944 88.6245 42.4757 86.861C38.992 85.0898 36.7843 82.6839 36.3609 80.0855L35.4544 80.2334C35.9458 83.2487 38.4573 85.8484 42.0594 87.6798C45.6767 89.5191 50.4762 90.6304 55.7266 90.6304V89.7119ZM75.0919 80.0855C74.6685 82.6839 72.461 85.0898 68.9772 86.861C65.5091 88.6245 60.8562 89.7119 55.7266 89.7119V90.6304C60.9765 90.6304 65.7759 89.5191 69.3933 87.6798C72.9955 85.8484 75.507 83.2487 75.9984 80.2334L75.0919 80.0855ZM75.6264 79.7002H75.5452V80.6187H75.6264V79.7002ZM75.1672 79.1574V80.1595H76.0857V79.1574H75.1672ZM75.1672 31.7654V79.1574H76.0857V31.7654H75.1672Z" fill="black"/>
</g>
</mask>
<g mask="url(#mask2_6310_24743)">
<path d="M75.6262 30.0967C75.6262 36.1795 66.7166 41.1105 55.7263 41.1105C44.7357 41.1105 35.8262 36.1795 35.8262 30.0967" stroke="black"/>
<path d="M75.6262 40.1099C75.6262 46.1927 66.7166 51.1239 55.7263 51.1239C44.7357 51.1239 35.8262 46.1927 35.8262 40.1099" stroke="black"/>
<path d="M75.6262 50.1221C75.6262 56.205 66.7166 61.1358 55.7263 61.1358C44.7357 61.1358 35.8262 56.205 35.8262 50.1221" stroke="black"/>
<path d="M75.6262 58.4648C75.6262 64.5478 66.7166 69.4786 55.7263 69.4786C44.7357 69.4786 35.8262 64.5478 35.8262 58.4648" stroke="black"/>
<path d="M75.6262 68.4771C75.6262 74.5596 66.7166 79.4908 55.7263 79.4908C44.7357 79.4908 35.8262 74.5596 35.8262 68.4771" stroke="black"/>
</g>
<path d="M68.9922 37.6054L75.6258 32.5991V79.3246C73.8288 83.409 72.4066 85.0898 68.9922 86.8339V37.6054Z" fill="black"/>
<path d="M75.3955 31.0977C75.3955 34.0174 73.2545 36.7094 69.6854 38.6848C66.1241 40.6557 61.1892 41.8819 55.7252 41.8819C50.2613 41.8819 45.3259 40.6557 41.7649 38.6848C38.1958 36.7094 36.0547 34.0174 36.0547 31.0977C36.0547 28.178 38.1958 25.486 41.7649 23.5106C45.3259 21.5397 50.2613 20.3135 55.7252 20.3135C61.1892 20.3135 66.1241 21.5397 69.6854 23.5106C73.2545 25.486 75.3955 28.178 75.3955 31.0977Z" fill="#E2E2E2" stroke="black"/>
<path d="M38.7956 89.5767C40.937 87.9762 42.2346 85.0064 42.2346 80.9303C42.2346 71.9973 36.0026 61.1355 28.3149 56.6691C24.0012 54.1626 20.1457 54.203 17.5925 56.2989L17.5825 56.2847L12.9902 59.3652L14.5341 62.5431C14.4426 63.2393 14.3952 63.9773 14.3952 64.7561C14.3952 73.1679 19.9215 83.2902 26.9855 88.1723L29.8287 94.0243C33.436 94.0243 37.0431 91.173 38.7956 89.5767Z" fill="black"/>
<path d="M37.4423 83.8948C37.4423 92.7015 31.2983 96.2697 23.7212 91.8675C16.1441 87.4653 10 76.7583 10 67.9512C10 59.144 16.1441 55.5763 23.7212 59.9785C31.2983 64.3807 37.4423 75.0876 37.4423 83.8948Z" fill="#FFA500" stroke="black"/>
<path d="M21.0386 77.2058L16.8936 71.1274L15.248 71.6289L21.6696 81.7706C22.7718 79.4239 26.2772 75.5517 30.5557 73.7405L30.1654 72.5933C25.5118 73.0911 22.5617 76.1418 21.0386 77.2058Z" fill="white"/>
</g>
</g>
<defs>
<linearGradient id="paint0_linear_6310_24743" x1="60" y1="90" x2="86.5" y2="70.5" gradientUnits="userSpaceOnUse">
<stop stop-color="#CDCDCD"/>
<stop offset="1" stop-color="#CDCDCD" stop-opacity="0"/>
</linearGradient>
<clipPath id="clip0_6310_24743">
<rect width="110" height="110" fill="white"/>
</clipPath>
</defs>
</svg>
