<svg width="110" height="110" viewBox="0 0 110 110" fill="none" xmlns="http://www.w3.org/2000/svg">
<mask id="mask0_6310_24674" style="mask-type:luminance" maskUnits="userSpaceOnUse" x="9" y="20" width="64" height="73">
<path d="M72.542 20.625H9.16602V92.4344H72.542V20.625Z" fill="white"/>
</mask>
<g mask="url(#mask0_6310_24674)">
<path d="M42.361 92.1476L32.8047 86.6018L39.9662 82.4653L42.361 92.1476Z" fill="#080013" stroke="#080013" stroke-width="0.5" stroke-miterlimit="10" stroke-linecap="round" stroke-linejoin="round"/>
<path d="M61.6787 21.0952C61.0714 20.7858 60.2808 20.8431 59.3985 21.3816L52.5579 25.3004L44.9724 29.6774L14.4933 47.2202C12.6141 48.2972 11.1016 50.9441 11.1016 53.0983L11.1933 84.2993C11.1933 85.3306 11.5485 86.0639 12.1329 86.442L21.4485 91.8389C20.887 91.4722 20.5433 90.7618 20.5433 89.7535L20.4745 58.541C20.4631 56.3983 21.987 53.7629 23.8547 52.6858L68.7714 26.8243C69.6881 26.3087 70.5016 26.2514 71.1204 26.5722L61.6787 21.0952Z" fill="#080013"/>
<path d="M61.6787 21.0952C61.0714 20.7858 60.2808 20.8431 59.3985 21.3816L52.5579 25.3004L44.9724 29.6774L14.4933 47.2202C12.6141 48.2972 11.1016 50.9441 11.1016 53.0983L11.1933 84.2993C11.1933 85.3306 11.5485 86.0639 12.1329 86.442L21.4485 91.8389C20.887 91.4722 20.5433 90.7618 20.5433 89.7535L20.4745 58.541C20.4631 56.3983 21.987 53.7629 23.8547 52.6858L68.7714 26.8243C69.6881 26.3087 70.5016 26.2514 71.1204 26.5722L61.6787 21.0952Z" fill="#FFA500"/>
<path d="M61.6787 21.0952C61.0714 20.7858 60.2808 20.8431 59.3985 21.3816L52.5579 25.3004L44.9724 29.6774L14.4933 47.2202C12.6141 48.2972 11.1016 50.9441 11.1016 53.0983L11.1933 84.2993C11.1933 85.3306 11.5485 86.0639 12.1329 86.442L21.4485 91.8389C20.887 91.4722 20.5433 90.7618 20.5433 89.7535L20.4745 58.541C20.4631 56.3983 21.987 53.7629 23.8547 52.6858L68.7714 26.8243C69.6881 26.3087 70.5016 26.2514 71.1204 26.5722L61.6787 21.0952Z" stroke="#080013" stroke-width="0.5" stroke-miterlimit="10" stroke-linecap="round" stroke-linejoin="round"/>
<path d="M68.9874 66.045C69.969 65.4848 70.8427 64.5226 71.4702 63.435C72.0979 62.3473 72.4934 61.1099 72.4934 59.9843V59.9836L72.4017 28.7596L72.4017 28.759C72.3957 27.6287 71.9905 26.7696 71.2704 26.3577C70.5505 25.9458 69.6034 26.0308 68.6238 26.5958C68.6237 26.5958 68.6237 26.5958 68.6237 26.5958L23.7415 52.4687L23.7414 52.4687C22.7605 53.0344 21.8842 53.9991 21.2537 55.088C20.6233 56.1769 20.2246 57.4144 20.2246 58.5405L20.2246 58.5411L20.3048 89.7416C20.3048 89.7417 20.3048 89.7418 20.3048 89.7419L20.3048 89.7422L20.5548 89.7416L68.9874 66.045Z" stroke="#080013" stroke-width="0.5" stroke-miterlimit="10" stroke-linecap="round" stroke-linejoin="round"/>
<path d="M23.8674 52.6853L14.5078 47.2466" stroke="#080013" stroke-width="0.5" stroke-miterlimit="10" stroke-linecap="round" stroke-linejoin="round"/>
<path d="M20.4753 58.5404L11.0918 53.1074" stroke="#080013" stroke-width="0.5" stroke-miterlimit="10" stroke-linecap="round" stroke-linejoin="round"/>
</g>
<path d="M57.8203 43.5588L65.6073 38.7812L65.3875 47.8507" stroke="#080013" stroke-width="0.5" stroke-miterlimit="10" stroke-linecap="round" stroke-linejoin="round"/>
<path d="M52.8103 56.8881C53.5953 56.4339 54.3175 56.3399 54.867 56.5435C55.1496 56.6532 55.4007 56.8411 55.5891 57.0918C55.8874 57.4834 56.0444 58.0473 56.0601 58.7365C56.0601 60.7885 54.6158 63.2947 52.826 64.3285C51.0363 65.3623 49.5605 64.5321 49.5605 62.4802C49.5605 61.8536 49.7018 61.18 49.9373 60.5222C50.11 60.0366 50.3455 59.551 50.6281 59.1124C51.209 58.1726 51.9626 57.3737 52.8103 56.8881Z" fill="white" stroke="#080013" stroke-width="0.5" stroke-miterlimit="10" stroke-linecap="round" stroke-linejoin="round"/>
<path d="M65.5291 38.9067L55.2773 56.7636" stroke="#080013" stroke-width="0.5" stroke-miterlimit="10" stroke-linecap="round" stroke-linejoin="round"/>
<path d="M41.2239 60.2417L36.8594 67.7761" stroke="#080013" stroke-width="0.5" stroke-miterlimit="10" stroke-linecap="round" stroke-linejoin="round"/>
<path d="M34.2541 67.7749C35.0234 67.3206 35.7456 67.2266 36.3108 67.4303C36.6091 67.5399 36.8603 67.7122 37.0486 67.9785C37.3469 68.3701 37.5196 68.934 37.5196 69.6232C37.5196 71.6909 36.0753 74.1971 34.2855 75.2309C32.4958 76.2647 31.02 75.4346 31.02 73.3669C30.9886 71.3149 32.4487 68.8087 34.2541 67.7749Z" fill="white" stroke="#080013" stroke-width="0.5" stroke-miterlimit="10" stroke-linecap="round" stroke-linejoin="round"/>
<path d="M43.5001 52.5499C45.2898 51.5161 46.7499 52.3463 46.7656 54.4139C46.7656 55.1031 46.6086 55.855 46.3103 56.5756C46.1219 57.0611 45.8707 57.5311 45.5881 57.9696C45.0229 58.8155 44.3165 59.5517 43.5315 60.006C42.7465 60.4602 42.0243 60.5542 41.4591 60.3506C41.1766 60.2409 40.9254 60.053 40.737 59.8023C40.4544 59.4107 40.2817 58.8625 40.2817 58.1733C40.2503 56.09 41.7103 53.5837 43.5001 52.5499Z" fill="#080013"/>
<path d="M43.5001 52.5499C45.2898 51.5161 46.7499 52.3463 46.7656 54.4139C46.7656 55.1031 46.6086 55.855 46.3103 56.5756C46.1219 57.0611 45.8707 57.5311 45.5881 57.9696C45.0229 58.8155 44.3165 59.5517 43.5315 60.006C42.7465 60.4602 42.0243 60.5542 41.4591 60.3506C41.1766 60.2409 40.9254 60.053 40.737 59.8023C40.4544 59.4107 40.2817 58.8625 40.2817 58.1733C40.2503 56.09 41.7103 53.5837 43.5001 52.5499Z" fill="#FFA500"/>
<path d="M43.5001 52.5499C45.2898 51.5161 46.7499 52.3463 46.7656 54.4139C46.7656 55.1031 46.6086 55.855 46.3103 56.5756C46.1219 57.0611 45.8707 57.5311 45.5881 57.9696C45.0229 58.8155 44.3165 59.5517 43.5315 60.006C42.7465 60.4602 42.0243 60.5542 41.4591 60.3506C41.1766 60.2409 40.9254 60.053 40.737 59.8023C40.4544 59.4107 40.2817 58.8625 40.2817 58.1733C40.2503 56.09 41.7103 53.5837 43.5001 52.5499Z" stroke="#080013" stroke-width="0.5" stroke-miterlimit="10" stroke-linecap="round" stroke-linejoin="round"/>
<path d="M50.0475 60.0677L45.8086 57.5928" stroke="#080013" stroke-width="0.5" stroke-miterlimit="10" stroke-linecap="round" stroke-linejoin="round"/>
</svg>
