<svg width="80" height="80" viewBox="0 0 80 80" fill="none" xmlns="http://www.w3.org/2000/svg">
<path d="M40 80C62.0914 80 80 62.0914 80 40C80 17.9086 62.0914 0 40 0C17.9086 0 0 17.9086 0 40C0 62.0914 17.9086 80 40 80Z" fill="#FFFAF2"/>
<path d="M22.0547 53.6149V54.9442C22.0547 57.1428 23.837 58.9251 26.0356 58.9251H58.1567V57.4265V35.7812H26.7029H22.0547V53.6149Z" fill="url(#paint0_linear_15_645)"/>
<path d="M53.8065 27.7188L22.0547 33.7776H53.8065V27.7188Z" fill="#FFD486"/>
<path fill-rule="evenodd" clip-rule="evenodd" d="M50.079 33.7828C50.1541 33.2837 50.1931 32.7728 50.1931 32.2528C50.1931 26.6227 45.629 22.0586 39.9989 22.0586C34.3688 22.0586 29.8047 26.6227 29.8047 32.2528C29.8047 32.7728 29.8437 33.2837 29.9188 33.7828H50.079Z" fill="#828B92"/>
<path d="M44.5015 31.0399H35.1562L39.8289 26.3672L44.5015 31.0399Z" fill="white"/>
<path d="M37.7201 33.7852H41.9375V30.7283H37.7201V33.7852Z" fill="white"/>
<path d="M38.9844 46.1926C38.9844 43.0637 41.5208 40.5273 44.6496 40.5273H58.159V51.8578H44.6496C41.5208 51.8578 38.9844 49.3214 38.9844 46.1926Z" fill="#FFD486"/>
<path d="M44.3124 48.4893C45.6025 48.4893 46.6483 47.4415 46.6483 46.1489C46.6483 44.8564 45.6025 43.8086 44.3124 43.8086C43.0224 43.8086 41.9766 44.8564 41.9766 46.1489C41.9766 47.4415 43.0224 48.4893 44.3124 48.4893Z" fill="white"/>
<defs>
<linearGradient id="paint0_linear_15_645" x1="23.5" y1="47" x2="43" y2="47" gradientUnits="userSpaceOnUse">
<stop stop-color="#FF8000"/>
<stop offset="1" stop-color="#FFA500"/>
</linearGradient>
</defs>
</svg>
