<svg width="20" height="20" viewBox="0 0 20 20" fill="none" xmlns="http://www.w3.org/2000/svg">
<path fill-rule="evenodd" clip-rule="evenodd" d="M0.207031 8.49171C0.207031 7.13877 1.23305 6.04199 2.4987 6.04199H17.4987C18.7643 6.04199 19.7904 7.13877 19.7904 8.49171V16.5089C19.7904 17.8619 18.7643 18.9587 17.4987 18.9587H2.4987C1.23304 18.9587 0.207031 17.8619 0.207031 16.5089V8.49171ZM2.4987 7.3782C1.9234 7.3782 1.45703 7.87673 1.45703 8.49171V16.5089C1.45703 17.1239 1.9234 17.6225 2.4987 17.6225H17.4987C18.074 17.6225 18.5404 17.1239 18.5404 16.5089V8.49171C18.5404 7.87673 18.074 7.3782 17.4987 7.3782H2.4987Z" fill="#71839B"/>
<path fill-rule="evenodd" clip-rule="evenodd" d="M1.875 4.16699C1.875 3.82181 2.15482 3.54199 2.5 3.54199H17.5C17.8452 3.54199 18.125 3.82181 18.125 4.16699C18.125 4.51217 17.8452 4.79199 17.5 4.79199H2.5C2.15482 4.79199 1.875 4.51217 1.875 4.16699Z" fill="#71839B"/>
<path fill-rule="evenodd" clip-rule="evenodd" d="M3.53906 1.66699C3.53906 1.32181 3.81888 1.04199 4.16406 1.04199H15.8307C16.1759 1.04199 16.4557 1.32181 16.4557 1.66699C16.4557 2.01217 16.1759 2.29199 15.8307 2.29199H4.16406C3.81888 2.29199 3.53906 2.01217 3.53906 1.66699Z" fill="#71839B"/>
<path fill-rule="evenodd" clip-rule="evenodd" d="M18.957 9.58398C18.957 9.92916 18.6772 10.209 18.332 10.209H17.9154C16.4196 10.209 15.207 8.99642 15.207 7.50065C15.207 7.15547 15.4869 6.87565 15.832 6.87565C16.1772 6.87565 16.457 7.15547 16.457 7.50065C16.457 8.30607 17.1099 8.95898 17.9154 8.95898H18.332C18.6772 8.95898 18.957 9.23881 18.957 9.58398Z" fill="#71839B"/>
<path fill-rule="evenodd" clip-rule="evenodd" d="M18.957 15.417C18.957 15.0718 18.6772 14.792 18.332 14.792H17.9154C16.4196 14.792 15.207 16.0046 15.207 17.5003C15.207 17.8455 15.4869 18.1253 15.832 18.1253C16.1772 18.1253 16.457 17.8455 16.457 17.5003C16.457 16.6949 17.1099 16.042 17.9154 16.042H18.332C18.6772 16.042 18.957 15.7622 18.957 15.417Z" fill="#71839B"/>
<path fill-rule="evenodd" clip-rule="evenodd" d="M1.03906 9.58398C1.03906 9.92916 1.31888 10.209 1.66406 10.209H2.08073C3.5765 10.209 4.78906 8.99642 4.78906 7.50065C4.78906 7.15547 4.50924 6.87565 4.16406 6.87565C3.81888 6.87565 3.53906 7.15547 3.53906 7.50065C3.53906 8.30607 2.88614 8.95898 2.08073 8.95898H1.66406C1.31888 8.95898 1.03906 9.23881 1.03906 9.58398Z" fill="#71839B"/>
<path fill-rule="evenodd" clip-rule="evenodd" d="M1.03906 15.417C1.03906 15.0718 1.31888 14.792 1.66406 14.792H2.08073C3.5765 14.792 4.78906 16.0046 4.78906 17.5003C4.78906 17.8455 4.50924 18.1253 4.16406 18.1253C3.81888 18.1253 3.53906 17.8455 3.53906 17.5003C3.53906 16.6949 2.88614 16.042 2.08073 16.042H1.66406C1.31888 16.042 1.03906 15.7622 1.03906 15.417Z" fill="#71839B"/>
<path fill-rule="evenodd" clip-rule="evenodd" d="M10 11C9.17157 11 8.5 11.6716 8.5 12.5C8.5 13.3284 9.17157 14 10 14C10.8284 14 11.5 13.3284 11.5 12.5C11.5 11.6716 10.8284 11 10 11ZM7.5 12.5C7.5 11.1193 8.61929 10 10 10C11.3807 10 12.5 11.1193 12.5 12.5C12.5 13.8807 11.3807 15 10 15C8.61929 15 7.5 13.8807 7.5 12.5Z" fill="#BFBFBF"/>
</svg>
