<svg width="20" height="20" viewBox="0 0 20 20" fill="none" xmlns="http://www.w3.org/2000/svg">
<rect x="1" y="7" width="18" height="11" fill="#71839B"/>
<path fill-rule="evenodd" clip-rule="evenodd" d="M0.210938 8.49073C0.210938 7.13779 1.23695 6.04102 2.5026 6.04102H17.5026C18.7683 6.04102 19.7943 7.13779 19.7943 8.49073V16.508C19.7943 17.8609 18.7683 18.9577 17.5026 18.9577H2.5026C1.23695 18.9577 0.210938 17.8609 0.210938 16.508V8.49073ZM2.5026 7.37722C1.92731 7.37722 1.46094 7.87576 1.46094 8.49073V16.508C1.46094 17.1229 1.92731 17.6215 2.5026 17.6215H17.5026C18.0779 17.6215 18.5443 17.1229 18.5443 16.508V8.49073C18.5443 7.87576 18.0779 7.37722 17.5026 7.37722H2.5026Z" fill="#71839B"/>
<path fill-rule="evenodd" clip-rule="evenodd" d="M1.875 4.16602C1.875 3.82084 2.15482 3.54102 2.5 3.54102H17.5C17.8452 3.54102 18.125 3.82084 18.125 4.16602C18.125 4.51119 17.8452 4.79102 17.5 4.79102H2.5C2.15482 4.79102 1.875 4.51119 1.875 4.16602Z" fill="#71839B"/>
<path fill-rule="evenodd" clip-rule="evenodd" d="M3.54688 1.66602C3.54688 1.32084 3.8267 1.04102 4.17188 1.04102H15.8385C16.1837 1.04102 16.4635 1.32084 16.4635 1.66602C16.4635 2.01119 16.1837 2.29102 15.8385 2.29102H4.17188C3.8267 2.29102 3.54688 2.01119 3.54688 1.66602Z" fill="#71839B"/>
<path fill-rule="evenodd" clip-rule="evenodd" d="M18.9609 9.58203C18.9609 9.92721 18.6811 10.207 18.3359 10.207H17.9193C16.4235 10.207 15.2109 8.99447 15.2109 7.4987C15.2109 7.15352 15.4908 6.8737 15.8359 6.8737C16.1811 6.8737 16.4609 7.15352 16.4609 7.4987C16.4609 8.30411 17.1139 8.95703 17.9193 8.95703H18.3359C18.6811 8.95703 18.9609 9.23685 18.9609 9.58203Z" fill="white"/>
<path fill-rule="evenodd" clip-rule="evenodd" d="M18.9609 15.416C18.9609 15.0708 18.6811 14.791 18.3359 14.791H17.9193C16.4235 14.791 15.2109 16.0036 15.2109 17.4993C15.2109 17.8445 15.4908 18.1243 15.8359 18.1243C16.1811 18.1243 16.4609 17.8445 16.4609 17.4993C16.4609 16.6939 17.1139 16.041 17.9193 16.041H18.3359C18.6811 16.041 18.9609 15.7612 18.9609 15.416Z" fill="white"/>
<path fill-rule="evenodd" clip-rule="evenodd" d="M1.04688 9.58203C1.04688 9.92721 1.3267 10.207 1.67188 10.207H2.08854C3.58431 10.207 4.79688 8.99447 4.79688 7.4987C4.79688 7.15352 4.51705 6.8737 4.17188 6.8737C3.8267 6.8737 3.54688 7.15352 3.54688 7.4987C3.54688 8.30411 2.89396 8.95703 2.08854 8.95703H1.67188C1.3267 8.95703 1.04688 9.23685 1.04688 9.58203Z" fill="white"/>
<path fill-rule="evenodd" clip-rule="evenodd" d="M1.04688 15.416C1.04688 15.0708 1.3267 14.791 1.67188 14.791H2.08854C3.58431 14.791 4.79688 16.0036 4.79688 17.4993C4.79688 17.8445 4.51705 18.1243 4.17188 18.1243C3.8267 18.1243 3.54688 17.8445 3.54688 17.4993C3.54688 16.6939 2.89396 16.041 2.08854 16.041H1.67188C1.3267 16.041 1.04688 15.7612 1.04688 15.416Z" fill="white"/>
<path fill-rule="evenodd" clip-rule="evenodd" d="M10 11C9.17157 11 8.5 11.6716 8.5 12.5C8.5 13.3284 9.17157 14 10 14C10.8284 14 11.5 13.3284 11.5 12.5C11.5 11.6716 10.8284 11 10 11ZM7.5 12.5C7.5 11.1193 8.61929 10 10 10C11.3807 10 12.5 11.1193 12.5 12.5C12.5 13.8807 11.3807 15 10 15C8.61929 15 7.5 13.8807 7.5 12.5Z" fill="white"/>
</svg>
