<svg width="50" height="50" viewBox="0 0 50 50" fill="none" xmlns="http://www.w3.org/2000/svg">
<g clip-path="url(#clip0_1280_30656)">
<path fill-rule="evenodd" clip-rule="evenodd" d="M37.0696 3.01724V7.75862H31.0352V3.01724C31.0352 1.35086 32.386 0 34.0524 0C35.7154 0.00801935 37.0616 1.3542 37.0696 3.01724Z" fill="#FFBB3F"/>
<path fill-rule="evenodd" clip-rule="evenodd" d="M47.397 6.68171C46.9249 6.267 46.3186 6.03732 45.6901 6.03516H4.31084C3.68243 6.03732 3.07607 6.267 2.60394 6.68171C2.04271 7.16962 1.72171 7.8777 1.72463 8.62136V35.3455C1.72171 36.0892 2.04271 36.7972 2.60394 37.2852C3.07607 37.6999 3.68243 37.9295 4.31084 37.9317H12.9401V22.3627C12.9357 21.9975 13.1621 21.6691 13.505 21.5431C13.8479 21.4172 14.233 21.5211 14.466 21.8024L17.966 25.9921L21.716 30.4834C21.9302 30.7406 21.9762 31.0986 21.834 31.4015C21.6917 31.7045 21.3869 31.8978 21.0522 31.8972H18.9746V37.6731C18.9721 37.7596 18.9778 37.8463 18.9919 37.9317H45.6901C46.3186 37.9295 46.9249 37.6999 47.397 37.2852C47.9583 36.7972 48.2793 36.0892 48.2764 35.3455V8.62136C48.2793 7.8777 47.9583 7.16962 47.397 6.68171Z" fill="#FFE4B2"/>
<path fill-rule="evenodd" clip-rule="evenodd" d="M47.3978 37.2838C46.9257 37.6985 46.3193 37.9282 45.6909 37.9304H18.9927C18.9786 37.8449 18.9728 37.7583 18.9754 37.6717V31.8959H21.053C21.3877 31.8964 21.6925 31.7032 21.8347 31.4002C21.977 31.0972 21.931 30.7393 21.7168 30.4821L17.9668 25.9907L18.6392 25.4217L23.303 21.9648C24.3601 22.5598 25.6511 22.5598 26.7082 21.9648L47.3978 37.2838Z" fill="#FFDE9F"/>
<path fill-rule="evenodd" clip-rule="evenodd" d="M37.0688 37.9317C36.8706 44.1645 32.1206 49.561 25.8447 49.9748C22.5071 50.2022 19.2246 49.0359 16.7789 46.7535C14.3331 44.4711 12.943 41.277 12.9395 37.9317V22.3627C12.9351 21.9974 13.1614 21.6691 13.5043 21.5431C13.8473 21.4172 14.2323 21.5211 14.4654 21.8024L17.9654 25.992L21.7154 30.4834C21.9296 30.7406 21.9756 31.0985 21.8333 31.4015C21.6911 31.7045 21.3863 31.8978 21.0516 31.8972H18.974V37.6731C18.9714 37.7596 18.9772 37.8462 18.9912 37.9317C19.0549 41.0051 21.3704 43.5631 24.4223 43.9317C26.117 44.0996 27.8038 43.5435 29.0665 42.4007C30.3292 41.2579 31.0501 39.6347 31.0516 37.9317H37.0688Z" fill="#FFBB3F"/>
<path fill-rule="evenodd" clip-rule="evenodd" d="M47.3966 6.68171L27.0518 21.7421C26.9422 21.8247 26.827 21.8996 26.707 21.9662C25.6499 22.5611 24.3589 22.5611 23.3018 21.9662C23.1772 21.9028 23.0588 21.8278 22.9483 21.7421L2.60352 6.68171C3.07565 6.267 3.68201 6.03732 4.31041 6.03516H45.6897C46.3181 6.03732 46.9245 6.267 47.3966 6.68171Z" fill="#FFBB3F"/>
<path fill-rule="evenodd" clip-rule="evenodd" d="M12.9397 29.6387V37.9318H4.31041C3.68201 37.9296 3.07565 37.6999 2.60352 37.2852L12.9397 29.6387Z" fill="#FFDE9F"/>
</g>
<defs>
<clipPath id="clip0_1280_30656">
<rect width="50" height="50" fill="white"/>
</clipPath>
</defs>
</svg>
