<svg width="20" height="20" viewBox="0 0 20 20" fill="none" xmlns="http://www.w3.org/2000/svg">
<path d="M14.541 18.9577C13.5994 18.9577 12.6077 18.7327 11.5827 18.2993C10.5827 17.8743 9.57435 17.291 8.59102 16.5827C7.61602 15.866 6.67435 15.066 5.78268 14.191C4.89935 13.2993 4.09935 12.3577 3.39102 11.391C2.67435 10.391 2.09935 9.39102 1.69102 8.42435C1.25768 7.39102 1.04102 6.39102 1.04102 5.44935C1.04102 4.79935 1.15768 4.18268 1.38268 3.60768C1.61602 3.01602 1.99102 2.46602 2.49935 1.99102C3.14102 1.35768 3.87435 1.04102 4.65768 1.04102C4.98268 1.04102 5.31602 1.11602 5.59935 1.24935C5.92435 1.39935 6.19935 1.62435 6.39935 1.92435L8.33268 4.64935C8.50768 4.89102 8.64102 5.12435 8.73268 5.35768C8.84102 5.60768 8.89935 5.85768 8.89935 6.09935C8.89935 6.41602 8.80768 6.72435 8.63268 7.01602C8.50768 7.24102 8.31602 7.48268 8.07435 7.72435L7.50768 8.31602C7.51602 8.34102 7.52435 8.35768 7.53268 8.37435C7.63268 8.54935 7.83268 8.84935 8.21602 9.29935C8.62435 9.76602 9.00768 10.191 9.39102 10.5827C9.88268 11.066 10.291 11.4493 10.6743 11.766C11.1493 12.166 11.4577 12.366 11.641 12.4577L11.6243 12.4993L12.2327 11.8993C12.491 11.641 12.741 11.4493 12.9827 11.3243C13.441 11.041 14.0244 10.991 14.6077 11.2327C14.8244 11.3243 15.0577 11.4493 15.3077 11.6243L18.0744 13.591C18.3827 13.7993 18.6077 14.066 18.741 14.3827C18.866 14.6993 18.9243 14.991 18.9243 15.2827C18.9243 15.6827 18.8327 16.0827 18.6577 16.4577C18.4827 16.8327 18.266 17.1577 17.991 17.4577C17.516 17.9827 16.9993 18.3577 16.3993 18.5993C15.8243 18.8327 15.1994 18.9577 14.541 18.9577ZM4.65768 2.29102C4.19935 2.29102 3.77435 2.49102 3.36602 2.89102C2.98268 3.24935 2.71602 3.64102 2.54935 4.06602C2.37435 4.49935 2.29102 4.95768 2.29102 5.44935C2.29102 6.22435 2.47435 7.06602 2.84102 7.93268C3.21602 8.81602 3.74102 9.73268 4.40768 10.6493C5.07435 11.566 5.83268 12.4577 6.66602 13.2993C7.49935 14.1243 8.39935 14.891 9.32435 15.566C10.2243 16.2243 11.1493 16.7577 12.066 17.141C13.491 17.7493 14.8244 17.891 15.9244 17.4327C16.3494 17.2577 16.7243 16.991 17.066 16.6077C17.2577 16.3993 17.4077 16.1743 17.5327 15.9077C17.6327 15.6993 17.6827 15.4827 17.6827 15.266C17.6827 15.1327 17.6577 14.9993 17.591 14.8493C17.566 14.7993 17.516 14.7077 17.3577 14.5993L14.591 12.6327C14.4243 12.516 14.2743 12.4327 14.1327 12.3743C13.9493 12.2993 13.8743 12.2243 13.591 12.3993C13.4243 12.4827 13.2743 12.6077 13.1077 12.7743L12.4743 13.3993C12.1493 13.716 11.6493 13.791 11.266 13.6493L11.041 13.5493C10.6993 13.366 10.2993 13.0827 9.85768 12.7077C9.45768 12.366 9.02435 11.966 8.49935 11.4493C8.09102 11.0327 7.68268 10.591 7.25768 10.0993C6.86602 9.64102 6.58268 9.24935 6.40768 8.92435L6.30768 8.67435C6.25768 8.48268 6.24102 8.37435 6.24102 8.25768C6.24102 7.95768 6.34935 7.69102 6.55768 7.48268L7.18268 6.83268C7.34935 6.66602 7.47435 6.50768 7.55768 6.36602C7.62435 6.25768 7.64935 6.16602 7.64935 6.08268C7.64935 6.01602 7.62435 5.91602 7.58268 5.81602C7.52435 5.68268 7.43268 5.53268 7.31602 5.37435L5.38268 2.64102C5.29935 2.52435 5.19935 2.44102 5.07435 2.38268C4.94102 2.32435 4.79935 2.29102 4.65768 2.29102ZM11.6243 12.5077L11.491 13.0743L11.716 12.491C11.6743 12.4827 11.641 12.491 11.6243 12.5077Z" fill="#DEDEDE"/>
</svg>
