<svg width="50" height="50" viewBox="0 0 50 50" fill="none" xmlns="http://www.w3.org/2000/svg">
<path d="M40.625 50H9.375C4.19688 50 0 45.8031 0 40.625V9.375C0 4.19688 4.19688 0 9.375 0H40.625C45.8031 0 50 4.19688 50 9.375V40.625C50 45.8031 45.8031 50 40.625 50Z" fill="#FFA500" fill-opacity="0.15"/>
<path d="M33.8333 19.0313C35.4154 19.0313 36.6979 17.7487 36.6979 16.1667C36.6979 14.5846 35.4154 13.3021 33.8333 13.3021C32.2513 13.3021 30.9688 14.5846 30.9688 16.1667C30.9688 17.7487 32.2513 19.0313 33.8333 19.0313Z" fill="#FFA500"/>
<path d="M32.832 20.4896C31.1966 20.1354 29.8633 18.8021 29.5091 17.1667C29.3737 16.5313 29.3633 15.9167 29.4779 15.3333C29.6133 14.6875 29.1341 14.0833 28.4674 14.0833H20.2904C17.4154 14.0833 15.082 16.4167 15.082 19.2917V26.5313C15.082 29.4063 17.4154 31.7396 20.2904 31.7396H21.8529C22.1445 31.7396 22.5195 31.9271 22.6862 32.1563L24.2487 34.2292C24.9362 35.1458 26.0612 35.1458 26.7487 34.2292L28.3112 32.1563C28.5091 31.8958 28.8112 31.7396 29.1445 31.7396H30.7174C33.5924 31.7396 35.9154 29.4167 35.9154 26.5417V21.5313C35.9154 20.875 35.3112 20.3958 34.6654 20.5208C34.082 20.625 33.4675 20.625 32.832 20.4896ZM21.332 24.5C20.7487 24.5 20.2904 24.0313 20.2904 23.4583C20.2904 22.8854 20.7487 22.4167 21.332 22.4167C21.9049 22.4167 22.3737 22.8854 22.3737 23.4583C22.3737 24.0313 21.9154 24.5 21.332 24.5ZM25.4987 24.5C24.9154 24.5 24.457 24.0313 24.457 23.4583C24.457 22.8854 24.9154 22.4167 25.4987 22.4167C26.0716 22.4167 26.5404 22.8854 26.5404 23.4583C26.5404 24.0313 26.082 24.5 25.4987 24.5ZM29.6654 24.5C29.082 24.5 28.6237 24.0313 28.6237 23.4583C28.6237 22.8854 29.082 22.4167 29.6654 22.4167C30.2383 22.4167 30.707 22.8854 30.707 23.4583C30.707 24.0313 30.2487 24.5 29.6654 24.5Z" fill="#FFA500"/>
</svg>
