<svg width="260" height="122" viewBox="0 0 260 122" fill="none" xmlns="http://www.w3.org/2000/svg">
<path d="M67.1641 115.835H68.4766C68.4082 116.464 68.2282 117.027 67.9365 117.523C67.6449 118.02 67.2324 118.414 66.6992 118.706C66.166 118.993 65.5007 119.137 64.7031 119.137C64.1198 119.137 63.5889 119.027 63.1104 118.809C62.6364 118.59 62.2285 118.28 61.8867 117.879C61.5449 117.473 61.2806 116.988 61.0938 116.423C60.9115 115.853 60.8203 115.22 60.8203 114.522V113.531C60.8203 112.834 60.9115 112.203 61.0938 111.638C61.2806 111.068 61.5472 110.58 61.8936 110.175C62.2445 109.769 62.666 109.457 63.1582 109.238C63.6504 109.02 64.2041 108.91 64.8193 108.91C65.5713 108.91 66.207 109.051 66.7266 109.334C67.2461 109.617 67.6494 110.008 67.9365 110.51C68.2282 111.007 68.4082 111.583 68.4766 112.239H67.1641C67.1003 111.774 66.9818 111.376 66.8086 111.043C66.6354 110.706 66.3893 110.446 66.0703 110.264C65.7513 110.081 65.3343 109.99 64.8193 109.99C64.3773 109.99 63.9876 110.075 63.6504 110.243C63.3177 110.412 63.0374 110.651 62.8096 110.961C62.5863 111.271 62.4176 111.642 62.3037 112.075C62.1898 112.508 62.1328 112.989 62.1328 113.518V114.522C62.1328 115.01 62.1829 115.468 62.2832 115.896C62.388 116.325 62.5452 116.701 62.7549 117.024C62.9645 117.348 63.2311 117.603 63.5547 117.79C63.8783 117.972 64.2611 118.063 64.7031 118.063C65.2637 118.063 65.7103 117.975 66.043 117.797C66.3757 117.619 66.6263 117.364 66.7949 117.031C66.9681 116.699 67.0911 116.3 67.1641 115.835ZM81.449 109.929L78.1541 119H76.8074L80.6013 109.047H81.4695L81.449 109.929ZM84.2107 119L80.9089 109.929L80.8884 109.047H81.7566L85.5642 119H84.2107ZM84.0398 115.315V116.396H78.448V115.315H84.0398ZM94.3872 109.047H97.6821C98.4295 109.047 99.0607 109.161 99.5757 109.389C100.095 109.617 100.489 109.954 100.758 110.4C101.032 110.842 101.168 111.387 101.168 112.034C101.168 112.49 101.075 112.907 100.888 113.285C100.706 113.659 100.442 113.978 100.095 114.242C99.7534 114.502 99.3433 114.696 98.8648 114.823L98.4956 114.967H95.3989L95.3853 113.894H97.7232C98.1971 113.894 98.5913 113.812 98.9058 113.647C99.2202 113.479 99.4572 113.253 99.6167 112.971C99.7762 112.688 99.856 112.376 99.856 112.034C99.856 111.651 99.7808 111.316 99.6304 111.029C99.48 110.742 99.243 110.521 98.9195 110.366C98.6004 110.207 98.188 110.127 97.6821 110.127H95.7066V119H94.3872V109.047ZM100.205 119L97.7847 114.488L99.1587 114.481L101.613 118.918V119H100.205ZM113.198 119H111.119L111.133 117.927H113.198C113.908 117.927 114.501 117.779 114.975 117.482C115.449 117.182 115.804 116.762 116.041 116.225C116.283 115.682 116.404 115.049 116.404 114.324V113.716C116.404 113.146 116.335 112.64 116.199 112.198C116.062 111.752 115.861 111.376 115.597 111.07C115.333 110.76 115.009 110.526 114.626 110.366C114.248 110.207 113.813 110.127 113.321 110.127H111.078V109.047H113.321C113.972 109.047 114.567 109.156 115.105 109.375C115.643 109.589 116.105 109.901 116.492 110.312C116.884 110.717 117.185 111.209 117.395 111.788C117.604 112.362 117.709 113.009 117.709 113.729V114.324C117.709 115.044 117.604 115.694 117.395 116.272C117.185 116.847 116.882 117.337 116.486 117.742C116.094 118.148 115.62 118.46 115.064 118.679C114.512 118.893 113.89 119 113.198 119ZM111.824 109.047V119H110.504V109.047H111.824Z" fill="#FF7A00"/>
<path d="M145.5 114.044V117.688C145.377 117.87 145.181 118.075 144.912 118.303C144.643 118.526 144.272 118.722 143.798 118.891C143.328 119.055 142.722 119.137 141.979 119.137C141.373 119.137 140.815 119.032 140.304 118.822C139.799 118.608 139.359 118.298 138.985 117.893C138.616 117.482 138.329 116.986 138.124 116.402C137.923 115.814 137.823 115.149 137.823 114.406V113.634C137.823 112.891 137.91 112.228 138.083 111.645C138.261 111.061 138.52 110.567 138.862 110.161C139.204 109.751 139.623 109.441 140.12 109.231C140.617 109.017 141.186 108.91 141.829 108.91C142.59 108.91 143.226 109.042 143.736 109.307C144.251 109.566 144.652 109.926 144.939 110.387C145.231 110.847 145.418 111.371 145.5 111.959H144.18C144.121 111.599 144.003 111.271 143.825 110.975C143.652 110.678 143.403 110.441 143.08 110.264C142.756 110.081 142.339 109.99 141.829 109.99C141.369 109.99 140.97 110.075 140.633 110.243C140.295 110.412 140.017 110.653 139.799 110.968C139.58 111.282 139.416 111.663 139.306 112.109C139.202 112.556 139.149 113.06 139.149 113.62V114.406C139.149 114.98 139.215 115.493 139.347 115.944C139.484 116.396 139.678 116.781 139.929 117.1C140.179 117.414 140.478 117.653 140.824 117.817C141.175 117.981 141.562 118.063 141.986 118.063C142.456 118.063 142.836 118.025 143.128 117.947C143.419 117.865 143.647 117.77 143.811 117.66C143.975 117.546 144.101 117.439 144.187 117.339V115.11H141.884V114.044H145.5ZM158.862 109.929L155.567 119H154.22L158.014 109.047H158.882L158.862 109.929ZM161.624 119L158.322 109.929L158.301 109.047H159.169L162.977 119H161.624ZM161.453 115.315V116.396H155.861V115.315H161.453ZM172.217 109.047H173.495L176.756 117.161L180.01 109.047H181.295L177.248 119H176.25L172.217 109.047ZM171.8 109.047H172.928L173.113 115.117V119H171.8V109.047ZM180.577 109.047H181.705V119H180.393V115.117L180.577 109.047ZM197.836 117.927V119H192.566V117.927H197.836ZM192.832 109.047V119H191.513V109.047H192.832ZM197.139 113.326V114.399H192.566V113.326H197.139ZM197.768 109.047V110.127H192.566V109.047H197.768Z" fill="white"/>
<path d="M26.3789 87.6426H22.9219V94H26.3789V87.6426ZM33.9082 100.006H3.87891L15.4219 94V75.9824L3.87891 70.0059L30.8906 69.9766C31.7109 69.9766 32.4434 70.2695 33.0293 70.8848C33.6152 71.4707 33.9082 72.1738 33.9082 72.9941V81.6367L30.7734 84.6543L33.9082 87.6426V100.006ZM22.9219 81.6367H26.3789V75.9824H19.9043L22.9219 76.8906V81.6367ZM46.6816 94.5273L44.9531 94L35.6953 96.9297V72.9648C35.6953 72.1445 35.9883 71.4414 36.6035 70.8555C37.1895 70.2695 37.8926 69.9766 38.7129 69.9766H43.2246V88.5801H46.6816V69.9766H51.1934C52.0137 69.9766 52.7461 70.2695 53.332 70.8555C53.918 71.4414 54.2109 72.1445 54.2109 72.9648V96.9297L46.6816 94.5273ZM66.9551 94.5273L65.2266 94L55.9688 96.9297V72.9648C55.9688 72.1445 56.2617 71.4414 56.877 70.8555C57.4629 70.2695 58.166 69.9766 58.9863 69.9766H63.498V88.5801H66.9551V84.918H74.4844V96.9297L66.9551 94.5273ZM87.2285 94.5273L85.5 94L76.2422 96.9297V72.9648C76.2422 72.1445 76.5352 71.4414 77.1504 70.8555C77.7363 70.2695 78.4395 69.9766 79.2598 69.9766H83.7715V88.5801H87.2285V84.918H94.7578V96.9297L87.2285 94.5273Z" fill="white"/>
<path d="M115.002 72.9941V78.9707H107.502V76.0117H104.045V80.9629H106.33V86.9688H104.045V94.5566L96.5156 96.959V72.9941C96.5156 72.1738 96.8086 71.4707 97.3945 70.8848C97.9805 70.2988 98.7129 70.0059 99.5332 70.0059H112.014C112.834 70.0059 113.537 70.2988 114.123 70.8848C114.709 71.4707 115.002 72.1738 115.002 72.9941ZM119.543 88.0234V76.0117H116.789V70.0059H129.797V76.0117H127.043V88.0234H129.826V94.3223L123.322 92.2715L116.789 94.3223V88.0234H119.543ZM150.1 72.9941V78.9707H142.6V76.0117H139.143V88.6094H142.6V86.1484H140.812V80.1719H150.1V96.959L140.871 94L131.613 96.959V72.9941C131.613 72.1738 131.906 71.4707 132.492 70.8848C133.078 70.2988 133.781 70.0059 134.631 70.0059H147.111C147.932 70.0059 148.635 70.2988 149.221 70.8848C149.807 71.4707 150.1 72.1738 150.1 72.9941ZM162.873 87.6426H159.416V94L151.887 96.4023V72.9941C151.887 72.1738 152.18 71.4707 152.766 70.8848C153.381 70.2988 154.084 70.0059 154.904 70.0059H159.416V81.666H162.873V70.0059H167.385C168.205 70.0059 168.938 70.2988 169.523 70.8848C170.109 71.4707 170.402 72.1738 170.402 72.9941V96.4023L162.873 94V87.6426ZM181.477 87.9941V75.9824H179.66V79.7324H172.16V69.9766H198.322V79.7324H190.822V75.9824H188.977V87.9941H191.76V94.293L185.256 92.2422L178.752 94.293V87.9941H181.477ZM202.863 88.0234V76.0117H200.109V70.0059H213.117V76.0117H210.363V88.0234H213.146V94.3223L206.643 92.2715L200.109 94.3223V88.0234H202.863ZM225.92 75.9824H222.434V94L214.934 96.373V72.9648C214.934 72.1445 215.227 71.4414 215.812 70.8555C216.398 70.2695 217.102 69.9766 217.922 69.9766H230.432C231.252 69.9766 231.955 70.2695 232.541 70.8555C233.127 71.4414 233.42 72.1445 233.42 72.9648V96.373L225.92 94V75.9824ZM253.693 72.9941V78.9707H246.193V76.0117H242.736V88.6094H246.193V86.1484H244.406V80.1719H253.693V96.959L244.465 94L235.207 96.959V72.9941C235.207 72.1738 235.5 71.4707 236.086 70.8848C236.672 70.2988 237.375 70.0059 238.225 70.0059H250.705C251.525 70.0059 252.229 70.2988 252.814 70.8848C253.4 71.4707 253.693 72.1738 253.693 72.9941Z" fill="#FF7A00"/>
<g clip-path="url(#clip0_0_425)">
<path d="M84.9212 34.9523C82.5383 39.0974 80.1489 41.3123 80.1489 41.3123C80.1489 41.3123 87.609 42.2095 88.7789 42.5015C89.3372 42.4859 89.7256 42.6622 89.9487 42.7926C87.8027 46.0176 85.1765 46.3206 85.5447 48.0635C85.4621 48.4234 85.1618 48.7558 84.777 48.7604C83.7798 48.7953 83.5392 49.1709 83.5392 49.6558C82.8147 49.4923 81.4088 49.3215 81.0158 49.8146C79.8872 51.439 78.5915 55.6154 78.732 57.2582C81.0497 56.4088 84.1186 53.9175 84.6411 53.5428C85.8477 53.9404 86.1214 52.7614 87.9726 51.4657C88.6356 51.9625 89.4226 51.0662 89.7807 50.3031C91.0553 47.945 92.8367 46.1094 94.9791 44.0286C95.3868 43.6199 96.1719 43.462 96.9047 42.6769C97.6981 41.8275 98.1508 40.2251 97.0378 38.2168C96.4777 37.2067 95.3776 36.9128 94.396 36.9376C93.7394 36.9542 93.193 37.1773 92.3941 37.0589C92.3941 37.0589 86.0938 35.967 84.9203 34.9533L84.9212 34.9523Z" fill="black"/>
<path d="M28.3802 43.4849C27.4225 44.2425 27.2122 45.608 27.8899 46.6227C30.372 50.3371 33.4326 57.3298 34.4353 60.3142C34.7953 61.4831 35.4546 62.2324 36.5336 62.3821C37.9725 63.7605 37.1029 64.5098 37.7925 65.4088C38.8412 66.6677 39.1112 68.136 39.6208 68.765H48.282C46.1241 66.6668 44.6254 63.9698 42.5281 63.5502C42.0487 62.8605 41.2994 62.1415 41.1195 62.0222C41.5694 60.1939 41.1498 60.9432 39.6208 58.4556C38.0928 55.968 36.1139 51.8624 36.5639 49.7044C41.1195 49.0754 54.7595 40.8531 57.058 36.1479C57.058 36.1479 39.4418 35.3857 35.4647 35.1837C34.2985 38.4078 30.7485 41.6107 28.3811 43.484L28.3802 43.4849Z" fill="black"/>
<path d="M122.037 22.9827C124.57 23.2223 127.342 22.8982 128.765 21.1149C124.21 21.7439 120.166 20.0956 118.246 19.0616C116.493 18.1176 116.118 17.0836 114.979 16.7843C112.667 13.3132 105.763 7.07904 96.4228 4.10199C93.1261 2.33339 91.3777 1.78426 90.0894 1.51429C86.5228 -0.254311 81.3529 -0.928325 75.9287 2.03862C70.5044 5.00557 63.9957 11.5942 62.3676 12.8431C60.9195 13.9532 56.7734 15.8403 53.5062 15.81C49.8901 15.3105 43.0168 14.2912 36.6237 18.687C25.8046 25.5501 22.2096 24.833 15.0158 23.6622C11.1499 23.0332 3.17739 24.7715 0.420722 33.4124C-0.867618 36.9092 0.79997 43.3821 5.53552 43.462C4.33717 42.6631 3.9671 41.7035 3.9671 41.0543C4.27656 41.5336 4.52633 41.6934 4.86609 41.8339C4.34635 40.8651 4.45654 39.047 4.81651 38.1673C5.17647 37.2885 4.9368 35.6301 4.04699 35.0102C3.1581 34.3913 2.64846 33.9009 2.70815 32.8725C2.9974 30.8247 6.83396 26.2177 13.2775 26.4188C17.1141 26.5391 19.0617 27.8872 23.767 27.7072C26.1324 27.6172 29.1912 27.1075 31.5594 25.6392C28.9525 30.4941 28.4061 37.3959 25.1159 40.2343C20.531 44.1902 19.0617 41.6429 17.4437 45.2995C15.8257 48.9561 14.3868 52.4024 11.8992 55.9083C10.8505 56.777 10.238 58.1544 9.77152 59.2646C9.1425 60.7633 9.62184 61.6623 10.7302 61.3629C10.4905 63.5208 8.69255 66.6072 10.9699 67.1471C11.8689 67.6962 11.1196 69.0654 11.8689 69.9047H20.1407C19.2417 67.9763 16.7844 65.9488 16.0645 65.2591C15.5851 64.0305 15.7247 62.002 15.7247 62.002C17.6632 61.463 16.5668 60.171 18.4621 56.7669C19.5411 54.8284 20.8395 52.5511 23.2169 50.8927C24.7165 49.8468 26.8928 49.294 28.4713 49.3142C32.0379 50.4281 49.6302 44.7293 49.6302 44.7293C52.5071 44.8495 57.1527 44.3096 58.531 44.2499C65.3345 45.9285 76.3933 47.8459 85.0242 42.6319C85.5935 42.8119 85.9232 43.1269 86.1032 43.3362C82.8066 45.8385 80.049 45.2242 79.8093 47.1122C79.5999 47.4464 79.1803 47.6769 78.79 47.5465C77.7707 47.2316 77.3961 47.5263 77.2262 48.0158C76.5522 47.5961 75.1931 46.9322 74.6238 47.2912C72.9158 48.5346 70.1435 52.2958 69.7092 54.0048C72.3465 53.9598 76.3171 52.5208 76.9764 52.3261C78.0554 53.1508 78.745 52.0562 81.0673 51.3969C81.5623 52.1315 82.6707 51.5015 83.2997 50.8578C85.4126 48.9249 87.8552 47.6962 90.7469 46.3473C91.3015 46.0773 92.1491 46.193 93.1647 45.6576C94.2639 45.0782 95.2823 43.62 94.8626 41.2022C94.6514 39.9864 93.6441 39.3041 92.645 38.9845C91.9765 38.7706 91.3465 38.8045 90.5816 38.4051C92.4246 36.8266 93.0637 35.4078 93.9829 34.4795C94.9388 33.5134 95.0922 33.4602 95.5559 32.9808C96.2602 32.7412 96.5752 32.5465 97.1445 32.2012C97.5192 32.271 97.9838 32.2159 98.2538 32.1415C98.6587 32.3959 99.1381 32.4859 99.2731 32.4859C99.6927 33.1452 99.8121 34.1195 99.8277 34.4638C99.0784 35.3481 97.9746 36.5713 98.6734 38.6898C99.3732 40.8073 99.0178 41.3867 100.756 41.4216C101.055 42.1305 101.397 42.5612 101.605 42.7504C101.935 43.0497 102.465 42.8404 102.869 42.788C103.154 43.013 103.673 43.0203 104.493 42.7908C105.891 42.4207 106.866 42.6209 107.509 42.1011C108.128 41.6016 108.209 40.5924 108.168 40.103C110.226 37.7853 110.986 35.687 111.285 35.0984C112.364 34.4492 113.787 33.4097 114.582 31.3123C115.32 29.3619 116.564 27.4216 117.074 26.6567C121.165 28.4097 127.508 27.8752 129.666 24.8982C126.19 24.9432 122.843 23.4592 122.033 22.9799L122.037 22.9827Z" fill="black"/>
<path d="M109.14 21.394C109.67 20.8843 110.119 19.5262 109.41 18.7668C109.57 19.6235 109.27 20.585 108.781 20.855C108.941 19.4463 108.84 18.2379 108.121 17.1286C106.743 15.1405 105.444 15.4307 104.465 13.9514C103.746 14.6309 103.036 15.8595 103.546 17.4481C103.605 16.2094 104.235 15.3205 104.575 14.9908C104.635 16.4491 105.724 16.9091 106.273 17.4987C106.393 16.9596 106.213 16.4399 106.183 16.2103C106.972 16.91 107.342 17.6988 107.502 18.0386C107.661 18.3784 108.091 19.5069 107.671 20.5464C107.272 19.1075 106.513 18.4684 105.894 18.0689C106.313 19.2379 106.663 19.877 107.102 20.0469C106.772 20.3361 106.288 20.237 106.288 20.237L106.058 20.4463C106.498 21.0808 107.727 21.2608 108.126 21.2709C107.152 21.6355 105.814 21.1359 104.805 21.9257C105.923 21.9055 106.862 22.1157 107.312 22.3352C104.825 22.2654 103.207 23.1341 102.807 23.4739C102.807 22.855 103.177 22.3554 103.327 22.1754C101.728 22.7852 101.649 25.2627 101.828 25.9312C102.518 28.3885 103.886 30.5069 104.266 31.7154C103.496 30.9459 103.037 30.7567 102.408 29.5079C102.188 30.5767 104.685 34.6328 104.536 35.7016C104.435 36.5005 103.846 37.5198 103.596 37.979C103.826 37.0304 103.706 36.3104 103.637 35.8807C103.446 36.8697 102.457 38.6576 102.627 39.2875C102.797 39.9165 102.907 40.1066 103.077 40.3169C103.344 39.6254 103.917 39.3876 104.695 39.0644C105.157 38.7301 105.615 38.2003 105.924 37.1406C106.104 38.529 105.694 39.5777 105.365 39.6484C104.345 39.7485 104.026 40.4574 103.917 40.7173C103.806 40.9771 103.777 41.6759 104.226 41.9257C104.386 41.2168 104.685 40.5768 105.655 40.5171C106.624 40.4574 106.544 40.7071 106.204 40.967C105.864 41.2269 105.075 41.7062 104.875 41.8265C106.094 41.8164 106.823 41.7062 107.093 41.2168C107.363 40.7274 107.243 40.1874 107.083 39.8779C108.461 38.4592 109.071 37.2205 109.321 36.6814C109.57 36.1424 110.08 35.2425 110.4 34.8329C110.14 34.8127 109.88 34.8531 109.88 34.8531C109.54 35.3922 108.691 35.7925 108.691 35.7925C108.511 36.7815 107.882 37.6006 107.572 37.9303C108.262 35.9422 108.022 33.8541 107.672 32.6557C108.142 33.0157 108.491 33.9946 108.612 34.4638C108.892 34.034 108.901 33.3352 108.872 32.8155C108.822 32.5161 107.643 31.5666 108.063 30.7879C108.482 30.0083 109.381 29.9284 109.971 29.9688C109.082 30.7282 108.892 31.5271 109.271 32.4362C109.211 31.5069 109.491 31.2379 109.74 31.0377C109.99 30.8375 110.709 30.5786 110.969 30.1883C111.188 31.0074 111.258 31.7365 111.209 32.2361C111.818 32.7953 113.416 31.8761 113.846 30.6878C114.276 29.4987 115.554 27.3912 116.053 26.2223C113.766 25.0836 112.687 23.7852 112.637 23.675C112.487 23.3949 111.867 23.4353 111.582 23.585C111.867 23.8944 112.357 24.2691 113.051 24.3646C111.593 24.7843 110.348 23.7953 109.979 22.776C109.609 21.7567 109.649 21.5969 109.14 21.3977V21.394Z" fill="#9E602D"/>
<path d="M103.546 17.4481C103.605 16.2094 104.235 15.3205 104.575 14.9908C104.635 16.4491 105.724 16.9091 106.273 17.4986C106.393 16.9596 106.213 16.4399 106.183 16.2103C106.972 16.91 107.342 17.6988 107.502 18.0386C107.661 18.3784 108.091 19.5069 107.671 20.5464C107.272 19.1075 106.513 18.4683 105.894 18.0689C106.313 19.2379 106.663 19.877 107.102 20.0469C106.772 20.3361 106.288 20.2369 106.288 20.2369L106.058 20.4463C106.498 21.0808 107.727 21.2608 108.126 21.2709C107.152 21.6355 105.814 21.1359 104.805 21.9257C105.923 21.9054 106.862 22.1157 107.312 22.3352C104.825 22.2654 103.207 23.1341 102.807 23.4739C102.807 22.8549 103.177 22.3554 103.327 22.1754C101.728 22.7852 101.649 25.2627 101.828 25.9312C102.518 28.3885 103.886 30.5069 104.266 31.7154C103.496 30.9459 103.037 30.7567 102.408 29.5079C102.188 30.5767 104.685 34.6327 104.536 35.7016C104.435 36.5005 103.846 37.5198 103.596 37.9789C103.826 37.0304 103.706 36.3104 103.637 35.8807C103.446 36.8697 102.457 38.6575 102.627 39.2875C102.797 39.9165 102.907 40.1066 103.077 40.3169C103.344 39.6254 103.917 39.3876 104.695 39.0643C105.157 38.7301 105.615 38.2002 105.924 37.1406C106.104 38.529 105.694 39.5777 105.365 39.6484C104.345 39.7485 104.026 40.4574 103.917 40.7172C103.806 40.9771 103.777 41.6759 104.226 41.9257C104.386 41.2168 104.685 40.5767 105.655 40.5171C106.624 40.4574 106.544 40.7071 106.204 40.967C105.864 41.2269 105.075 41.7062 104.875 41.8265C106.094 41.8164 106.823 41.7062 107.093 41.2168C107.363 40.7273 107.243 40.1874 107.083 39.8779C108.461 38.4592 109.071 37.2204 109.321 36.6814C109.57 36.1424 110.08 35.2425 110.4 34.8329C110.14 34.8127 109.88 34.8531 109.88 34.8531C109.54 35.3922 108.691 35.7925 108.691 35.7925C108.511 36.7815 107.882 37.6006 107.572 37.9303C108.262 35.9422 108.022 33.854 107.672 32.6557C108.142 33.0157 108.491 33.9945 108.612 34.4638C108.892 34.034 108.901 33.3352 108.872 32.8155C108.822 32.5161 107.643 31.5666 108.063 30.7879C108.482 30.0083 109.381 29.9284 109.971 29.9688C109.986 29.2269 108.344 28.8889 107.573 29.0992C106.803 29.3095 107.222 27.6281 108.834 26.1561C110.446 24.6851 108.764 23.0028 108.764 23.0028C108.764 23.0028 108.834 22.5822 107.994 21.8816C108.673 21.427 108.783 20.8577 108.783 20.8577C108.783 20.8577 109.045 18.1681 107.153 16.7668C105.261 15.3655 104.467 13.9541 104.467 13.9541C103.748 14.6336 103.038 15.8623 103.547 17.4509L103.546 17.4481Z" fill="#683A1A"/>
<path d="M112.637 23.6713C112.487 23.3912 111.867 23.4316 111.582 23.5813C111.867 23.8908 112.357 24.2654 113.051 24.3609C112.477 24.5262 111.937 24.472 111.47 24.2856C111.661 24.5795 111.903 24.8605 112.196 25.0313C113.037 25.5216 113.667 27.8338 113.667 27.8338C113.667 27.8338 113.457 29.866 112.826 30.8467C112.195 31.8274 112.125 30.7769 110.968 30.1846C111.188 31.0037 111.257 31.7328 111.208 32.2324C111.817 32.7916 113.415 31.8724 113.845 30.6842C114.275 29.495 115.553 27.3876 116.053 26.2186C113.765 25.0799 112.686 23.7815 112.636 23.6713H112.637Z" fill="#683A1A"/>
<path d="M110.919 29.4859C111.058 28.1369 111.848 27.5676 112.557 27.4978C113.266 27.428 113.975 27.4675 114.715 26.709C114.525 27.5483 113.705 28.8366 112.737 28.8467C111.768 28.8568 111.209 29.226 110.919 29.4859Z" fill="black"/>
<path d="M112.417 17.3233C112.537 17.1213 112.911 16.9165 113.256 16.8283C109.63 11.0744 99.6797 6.1745 94.7651 4.90085C95.0948 5.20021 95.9341 6.06981 96.7128 7.11848C96.6228 6.81913 96.4584 6.29387 96.1884 5.88983C97.8671 7.31316 98.1517 8.21215 97.2371 10.6998C97.0874 9.21583 95.2041 5.95962 93.126 4.74107C93.6852 5.60058 94.5245 7.47845 94.2849 9.13685C93.3859 5.92014 90.1489 2.14419 85.1443 1.66485C80.1397 1.18551 77.2775 2.57853 72.0626 6.44539C66.8477 10.3113 61.9478 15.8412 57.1379 18.8531C57.9019 18.1341 58.5612 17.2094 59.4207 16.0111C58.1415 16.4702 56.4739 16.7999 55.4152 16.7007C55.7246 16.8504 56.3142 17.3398 56.3142 17.3398C56.3142 17.3398 48.822 15.6915 42.8275 17.3701C36.8339 19.0487 33.5823 23.619 31.6934 28.1589C29.8054 32.6998 28.6915 40.2664 24.8752 43.8229C25.315 43.1433 25.5942 42.3647 25.4344 41.6052C23.1369 44.0827 20.5997 44.0827 19.6401 44.5621C18.6805 45.0414 18.7613 46.001 17.1424 49.0378C17.6667 48.5832 18.8403 47.1994 19.4004 45.7209C19.7053 45.406 20.7025 45.1691 20.4693 46.8146C20.2526 48.3426 17.2324 51.6695 14.7897 55.4905C14.9844 54.6659 15.3444 53.5722 16.1635 52.114C15.3839 52.833 12.1479 57.249 11.8081 58.6677C12.2672 59.2471 12.7475 58.5281 13.6658 58.5676C14.585 58.608 14.146 60.7807 14.8044 60.8257C15.9835 60.9056 15.7824 59.9735 16.2232 58.7274C17.2617 55.7908 20.1194 51.5143 23.1158 49.1167C22.1167 49.1663 20.8384 49.8357 19.9192 50.7347C20.7181 48.7963 22.6493 47.7265 24.5942 47.0782C26.2728 46.5189 29.4895 45.3004 31.327 45.8991C30.6272 46.0791 29.3086 46.4381 28.4895 47.0782C32.2058 47.9175 36.0414 46.6989 38.6796 44.6209C37.9606 44.7806 35.563 45.44 34.3637 45.4005C40.0175 43.1424 42.3757 40.6254 45.5327 38.7476C45.3325 39.4069 44.2939 41.0249 42.9349 42.2444C43.7944 41.9046 46.7558 40.1856 48.7292 38.7283C51.866 36.4106 52.5658 34.3729 55.2425 32.6943C56.002 31.8155 57.8798 30.0772 60.4372 29.697C59.3987 30.2361 58.3592 31.0157 57.5006 32.1543C58.2802 31.5547 60.5079 30.7953 61.8165 30.9955C60.4574 31.5547 58.4795 32.8137 57.2214 34.5722C59.6787 33.2737 61.0662 34.2012 64.0598 34.8118C66.3371 35.2765 67.002 34.0478 68.7798 33.5685C68.3206 32.2893 67.9258 29.7475 68.3748 28.5933C68.4749 29.8118 69.249 31.6952 70.4281 32.8743C70.2885 32.6943 70.0286 31.5951 69.9689 30.8963C70.0488 31.0965 70.4483 31.8357 70.968 32.215C70.9276 31.8752 70.8082 30.8761 70.8477 30.057C70.6081 29.5979 69.9285 27.9587 69.9689 26.3013C69.6889 27.5804 69.5493 28.3389 69.7293 30.0772C68.1709 26.9808 69.7697 24.9422 71.0479 21.4059C70.6687 22.6851 70.7678 25.2223 71.2674 26.9202C71.5869 26.001 72.406 23.4234 74.844 21.226C74.3243 22.2645 72.7458 25.3022 72.3463 28.259C72.6264 27.6998 74.3243 25.0818 75.5833 24.3426C74.7844 25.4014 73.6852 27.5593 73.2453 28.7182C72.8055 29.877 72.2463 31.136 73.0057 32.4142C73.305 31.7549 74.0047 31.0359 74.7036 30.3564C74.429 29.0423 75.3427 26.8798 76.8211 26.1011C76.2417 26.8807 75.5429 28.1387 75.642 29.7172C76.406 29.1029 77.2206 27.0396 78.6393 26.3609C77.7201 27.36 77.6356 29.3729 75.9423 30.6961C74.5566 31.7788 74.3436 32.1745 73.9845 33.5336C74.3041 33.0139 75.193 32.1305 75.7026 32.1553C75.103 32.6548 72.586 36.9101 74.1838 38.4693C73.8294 36.5217 75.6227 33.9734 76.9607 34.0139C77.081 33.7944 77.3803 33.3949 77.9001 33.2746C77.9001 33.6346 78.1599 34.5336 79.0791 35.2324C78.6797 35.1727 77.8808 35.0524 77.2408 34.653C76.7412 35.5924 77.1407 37.7494 79.6182 38.2095C79.2389 37.8697 78.5796 37.091 78.3794 36.3913C81.1563 38.5088 84.2738 38.5988 85.8321 40.967C85.1526 40.4877 83.9937 39.9882 83.4749 39.8679C82.9552 39.7476 81.3969 39.6677 80.2977 38.8486C79.4382 39.1286 77.6356 38.9781 76.4363 38.3187C76.7357 39.7724 79.1783 40.9064 81.8762 41.0056C81.8762 41.0056 80.957 40.1461 79.9579 39.9468C81.496 39.5474 86.0718 41.3004 86.9855 42.6493C86.9855 42.6493 87.3455 42.17 87.4051 41.9147C87.4051 41.9147 87.35 41.6603 87.1554 41.0901C88.1297 41.5198 88.7137 42.5336 88.2288 43.5777C88.1241 43.2627 87.9644 42.7889 87.6696 42.3637C87.6549 43.8477 85.5814 44.9909 81.2959 46.5198C80.3519 46.8348 80.362 48.2682 80.7063 48.7926C81.1407 48.5226 82.9543 47.8339 83.778 47.6089C83.508 47.7586 82.474 48.3885 81.98 49.6016C82.7541 49.5566 84.3473 48.3426 85.3666 47.7586C86.3859 47.1746 87.2995 46.3647 88.7532 45.541C88.3335 45.541 87.5989 45.6163 86.6705 46.1856C86.9552 45.6163 87.8248 45.1213 88.7385 44.7467C89.6522 44.372 91.6154 44.2076 91.9157 42.529C92.6347 42.8284 92.2151 43.9827 91.6907 44.462C92.44 44.5217 93.474 44.057 93.744 42.8284C94.014 41.5997 93.8037 40.7907 92.9047 40.1911C92.0057 39.5915 90.7614 40.3261 87.9901 38.1681C86.2665 36.8045 85.8321 35.4712 84.0544 33.9725C83.1352 33.1929 81.6971 32.3545 79.4786 32.6741C80.6375 31.6153 84.3133 31.9744 84.7137 30.0965C85.2729 30.6961 85.7128 31.7549 84.9331 32.8339C85.4924 32.8339 86.0516 32.9542 86.6916 33.2535C88.35 30.0166 85.4731 28.6585 82.5557 28.1984C82.8955 28.0588 85.1131 27.5795 85.5723 26.18C85.5723 26.4996 86.1921 28.1984 87.2702 28.2783C86.7109 25.9404 87.4097 24.1424 87.07 21.1057C86.6503 21.7448 86.0314 22.9036 85.7311 25.0616C85.092 23.2838 86.351 21.1057 86.351 18.6878C86.351 17.6888 86.3914 14.7319 84.7522 12.4739C86.6301 13.4133 88.9478 18.4675 88.4887 24.5813C89.1884 23.3426 89.8735 21.012 90.047 19.7264C90.3418 17.5483 89.7725 14.8963 90.8661 13.3325C90.6265 14.4913 90.9736 15.529 91.0461 16.6043C91.1214 17.7135 91.2711 19.3462 90.5668 21.3242C90.9267 20.5446 92.3445 19.0065 92.5245 15.4105C92.7045 11.8145 91.2858 9.55651 92.3849 7.0386C92.0856 10.7943 94.463 12.293 94.8028 16.7686C95.003 15.989 95.6623 12.9523 95.6017 10.4353C96.9203 14.6309 95.6421 18.6667 93.8432 22.8026C93.9029 21.9238 94.283 18.7071 93.7036 17.0083C93.4841 17.9477 92.8423 19.371 92.205 20.7145C91.2435 22.742 92.485 24.2305 92.4446 26.259C92.4446 26.259 93.0443 25.4197 93.384 24.2407C93.3638 24.9 93.474 25.2792 93.2637 26.698C94.6724 24.0956 95.4814 24.0653 96.3657 22.0129C97.4869 19.4096 98.2683 17.248 98.823 14.5951C98.8983 15.6291 98.8377 17.068 97.1894 22.6566C98.0287 21.338 99.0323 19.09 99.5273 17.0671C99.767 18.2507 99.1673 20.3637 98.4336 22.5519C99.722 22.0726 101.835 20.3343 103.064 20.3343C102.3 20.709 101.67 21.1139 100.831 22.237C101.326 21.7273 102.885 20.9486 104.353 20.6034C103.259 19.989 102.69 18.7751 102.48 17.7411C102.27 16.7071 102.764 14.0698 104.607 12.8412C105.39 14.3168 107.183 14.6621 108.472 16.3297C108.761 16.023 109.35 15.6401 109.934 15.6208C109.516 15.8779 109.088 16.4592 108.881 16.9367C108.947 17.0506 109.011 17.1672 109.073 17.2921C109.417 16.663 110.776 16.0487 111.745 16.2581C111.045 16.3977 110.066 17.2673 109.667 17.956C109.787 18.0763 110.206 18.4454 110.386 19.0551C110.476 18.8853 110.996 18.0662 111.735 17.776C111.495 18.0652 110.991 18.7824 110.893 19.4794C110.983 19.2397 111.445 18.6153 111.844 18.3655C111.734 18.5354 111.494 19.0147 111.525 19.4748C111.635 19.3352 111.924 18.9551 112.413 18.7852C112.094 19.1148 111.785 19.9202 111.851 20.4427C112.152 19.7567 113.402 18.2957 114.987 18.5473C114.445 17.5703 113.447 17.0441 112.413 17.3214L112.417 17.3233Z" fill="#9E602D"/>
<path d="M29.7117 38.8642C30.562 37.2645 31.0616 35.3582 32.2342 33.9771C31.4546 34.3316 30.6621 34.81 30.1929 35.5262C31.0294 33.0395 33.8219 31.7549 35.1305 29.4803C35.866 28.203 36.0827 26.7007 36.5896 25.3168C37.1286 23.8448 37.9064 22.2829 39.0359 21.1947C37.6089 21.5271 36.361 22.4215 35.3775 23.5088C34.3949 24.5951 33.6502 25.8733 32.9385 27.1543C32.8008 27.4022 32.6585 27.6566 32.4372 27.8338C32.2489 27.9844 31.9863 28.0643 31.7604 27.9991C31.7384 28.0515 31.7154 28.1047 31.6943 28.1571C30.0478 32.1158 28.99 38.3747 26.2177 42.27C27.7824 41.776 28.9303 40.3371 29.7126 38.8642H29.7117Z" fill="#683A1A"/>
<path d="M91.3822 40.3949C91.3822 40.3949 91.0948 42.7623 89.227 42.4528C88.9947 40.3931 86.6448 40.0102 86.6448 40.0102C86.6448 40.0102 85.2757 38.6667 83.3298 38.2719C81.384 37.877 79.8202 36.6383 79.8202 36.6383C79.8202 36.6383 80.822 36.6548 81.6117 36.1488C79.0975 35.4987 78.7219 32.8917 78.7219 32.8917C78.7219 32.8917 77.8046 32.1286 76.6549 33.5014C74.643 34.5152 74.2839 36.1488 74.2839 36.1488C74.2839 36.1488 74.1709 35.1516 74.4878 34.0643C73.7687 35.5584 73.2095 37.5152 74.1856 38.4666C73.8312 36.5189 75.6246 33.9707 76.9625 34.0111C77.0828 33.7916 77.3822 33.3922 77.9019 33.2719C77.9019 33.6318 78.1618 34.5308 79.081 35.2296C78.6815 35.17 77.8826 35.0497 77.2426 34.6502C76.743 35.5896 77.1425 37.7466 79.62 38.2067C79.2408 37.8669 78.5814 37.0882 78.3812 36.3885C81.1581 38.506 84.2757 38.596 85.834 40.9643C85.1544 40.4849 83.9956 39.9854 83.4768 39.8651C82.957 39.7448 81.3987 39.6649 80.2995 38.8458C79.44 39.1259 77.6374 38.9753 76.4382 38.316C76.7375 39.7696 79.1802 40.9037 81.878 41.0028C81.878 41.0028 80.9589 40.1433 79.9598 39.9441C81.4979 39.5446 86.0736 41.2976 86.9873 42.6466C86.9873 42.6466 87.3473 42.1672 87.407 41.9119C87.407 41.9119 87.3519 41.6576 87.1572 41.0873C88.1315 41.5171 88.7155 42.5308 88.2307 43.5749C88.126 43.26 87.9662 42.7861 87.6714 42.361C87.6568 43.8449 85.5833 44.9882 81.2977 46.5171C80.3537 46.8321 80.3638 48.2655 80.7082 48.7898C81.1425 48.5198 82.9561 47.8311 83.7798 47.6062C83.5098 47.7558 82.4758 48.3858 81.9818 49.5988C82.7559 49.5538 84.3491 48.3399 85.3684 47.7558C86.3877 47.1718 87.3014 46.3619 88.755 45.5382C88.3354 45.5382 87.6007 45.6135 86.6724 46.1828C86.957 45.6135 87.8266 45.1186 88.7403 44.7439C89.654 44.3692 91.6173 44.2049 91.9175 42.5263C92.6366 42.8256 92.2169 43.9799 91.6926 44.4592C92.4419 44.5189 93.4759 44.0543 93.7458 42.8256C93.7973 42.5915 93.8312 42.3729 93.8459 42.1681C93.1627 40.7586 91.3822 40.3931 91.3822 40.3931V40.3949ZM76.0093 30.641C75.9873 30.6585 75.9662 30.6768 75.9442 30.6943C74.5585 31.7769 74.3454 32.1727 73.9864 33.5317C74.3059 33.012 75.1948 32.1286 75.7045 32.1534C76.4988 31.0395 77.3684 30.7117 77.3684 30.7117C76.9304 30.5979 76.4602 30.5721 76.0093 30.641ZM74.7054 30.3554C74.4308 29.0414 75.3445 26.8788 76.8229 26.1001C76.2435 26.8798 75.5447 28.1378 75.6439 29.7163C76.4079 29.102 77.2224 27.0386 78.6411 26.36C77.9368 27.1259 77.721 28.4877 76.8964 29.6777C77.0479 29.5804 77.1967 29.4794 77.339 29.3701C77.9377 28.9147 78.44 28.3352 78.8046 27.6777C79.3252 26.7411 79.6531 25.4078 80.6081 24.9202C79.5355 24.7962 78.4042 25.3398 77.9313 26.3104C77.8991 25.1479 78.3895 23.9128 79.305 23.1956C77.924 23.5574 76.6852 24.4592 76.0351 25.7301C76.2757 23.866 77.2885 22.1304 78.7972 21.0101C77.4529 21.2939 76.092 22.0285 75.2968 23.1497C75.3225 21.9734 76.1122 20.978 76.687 19.9514C78.0966 17.4353 78.3987 14.2406 80.4924 12.2571C80.4924 12.2571 81.778 11.4876 82.8156 11.8549C82.44 10.8329 80.7458 10.9413 80.7458 10.9413C80.0966 9.07716 79.1673 7.12949 77.0112 6.6272C79.3969 8.62628 76.3656 16.6851 75.5328 18.4941C74.6999 20.3031 71.9836 22.5042 71.9836 22.5042C71.9836 22.5042 71.912 20.2048 72.7743 18.7172C71.553 18.8816 69.901 20.2057 67.7449 25.5933C65.5897 30.9817 59.7292 28.3986 59.7292 28.3986C59.7292 28.3986 60.4896 27.6052 61.4951 26.7007C60.1305 26.5143 53.7356 27.8926 50.5749 30.8862C50.5749 29.9284 51.4574 28.9477 51.4574 28.9477C51.4574 28.9477 49.4253 28.8972 45.7613 31.1993C42.0974 33.5014 38.6493 38.0212 37.0423 38.1828C35.4353 38.3444 38.5777 34.2131 41.0203 31.2021C36.4941 32.8605 31.9679 40.248 30.0285 42.4537C28.0891 44.6594 22.4133 45.8523 21.1203 47.2894C19.8274 48.7265 16.4509 54.9046 14.8669 56.2701C13.9817 57.0323 13.1313 57.1452 12.5528 57.0956C12.1745 57.7421 11.8953 58.3041 11.8081 58.6686C12.2672 59.2481 12.7475 58.529 13.6658 58.5685C14.585 58.6089 14.146 60.7816 14.8044 60.8266C15.9835 60.9065 15.7824 59.9744 16.2232 58.7283C17.2617 55.7917 20.1194 51.5153 23.1158 49.1176C22.1167 49.1672 20.8384 49.8367 19.9192 50.7356C20.7181 48.7972 22.6493 47.7274 24.5942 47.0791C26.2728 46.5198 29.4895 45.3013 31.327 45.9C30.6272 46.08 29.3086 46.439 28.4895 47.0791C32.2058 47.9184 36.0414 46.6998 38.6796 44.6218C37.9606 44.7815 35.563 45.4409 34.3637 45.4014C40.0175 43.1433 42.3757 40.6263 45.5327 38.7485C45.3325 39.4078 44.2939 41.0258 42.9349 42.2453C43.7944 41.9055 46.7558 40.1865 48.7292 38.7292C51.866 36.4115 52.5658 34.3738 55.2425 32.6952C56.002 31.8164 57.8798 30.0781 60.4372 29.698C59.3987 30.237 58.3592 31.0166 57.5006 32.1553C58.2802 31.5556 60.5079 30.7962 61.8165 30.9964C60.4574 31.5556 58.4795 32.8146 57.2214 34.5731C59.6787 33.2746 61.0662 34.2021 64.0598 34.8127C66.3371 35.2774 67.002 34.0487 68.7798 33.5694C68.3206 32.2902 67.9258 29.7485 68.3748 28.5942C68.4749 29.8127 69.249 31.6961 70.4281 32.8752C70.2885 32.6952 70.0286 31.596 69.9689 30.8972C70.0488 31.0974 70.4483 31.8366 70.968 32.2159C70.9285 31.8761 70.8082 30.877 70.8477 30.0579C70.6081 29.5988 69.9285 27.9597 69.9689 26.3022C69.6889 27.5813 69.5493 28.3398 69.7293 30.0781C68.1709 26.9817 69.7697 24.9431 71.0479 21.4068C70.6687 22.686 70.7678 25.2232 71.2674 26.9211C71.5869 26.0019 72.406 23.4243 74.844 21.2269C74.3243 22.2654 72.7458 25.3031 72.3463 28.2599C72.6264 27.7007 74.3243 25.0827 75.5833 24.3435C74.7844 25.4023 73.6852 27.5602 73.2453 28.7191C72.8055 29.8779 72.2463 31.1369 73.0057 32.4151C73.305 31.7558 74.0047 31.0368 74.7036 30.3573L74.7054 30.3554Z" fill="#683A1A"/>
<path d="M102.481 17.7429C102.403 17.3573 102.423 16.7494 102.574 16.0753C102.373 16.3205 102.143 16.5593 101.837 16.6052C102.184 15.1185 101.832 13.4628 100.907 12.248C101.332 13.809 100.802 15.4289 100.219 16.9376C99.396 15.045 100.203 12.6933 99.1857 10.8981C99.2086 11.6667 98.9332 12.3416 98.6099 13.0395C98.6283 12.0864 98.3592 11.1167 97.8928 10.2847L97.7761 10.9385C97.7761 10.9385 97.8074 13.9688 97.5512 14.6979C97.295 15.5124 96.7807 15.5978 96.5668 15.2122C96.3528 14.8265 96.6972 11.528 95.6035 10.4344C96.9221 14.63 95.6439 18.6658 93.845 22.8017C93.9047 21.9229 94.2849 18.7062 93.7054 17.0074C93.486 17.9468 92.8441 19.3701 92.2068 20.7136C91.2454 22.7411 92.4869 24.2296 92.4465 26.2581C92.4465 26.2581 93.0461 25.4188 93.3859 24.2397C93.3657 24.899 93.4759 25.2783 93.2656 26.697C94.6742 24.0946 95.4832 24.0643 96.3675 22.012C97.4887 19.4087 98.2702 17.2471 98.8248 14.5942C98.9001 15.6281 98.8395 17.0671 97.1912 22.6557C98.0305 21.3371 99.0342 19.0891 99.5291 17.0662C99.7688 18.2498 99.1692 20.3628 98.4355 22.551C99.7238 22.0717 101.837 20.3334 103.065 20.3334C102.301 20.708 101.671 21.113 100.833 22.236C101.328 21.7264 102.886 20.9477 104.355 20.6024C103.261 19.9881 102.692 18.7742 102.481 17.7402V17.7429ZM112.416 17.3233C112.536 17.1213 112.91 16.9165 113.256 16.8283C113.24 16.8035 113.223 16.7787 113.208 16.7549C112.583 16.7062 111.944 16.8338 111.39 17.1268C111.619 16.7246 111.973 16.3196 112.408 16.1635C111.735 15.9018 110.976 15.8641 110.28 16.0579C110.51 15.7393 110.768 15.4831 111.107 15.2847C110.098 15.1359 109.035 15.4133 108.226 16.0322C108.311 16.1268 108.393 16.2269 108.474 16.3306C108.762 16.0239 109.352 15.641 109.936 15.6217C109.518 15.8788 109.09 16.4601 108.883 16.9376C108.949 17.0515 109.013 17.1681 109.075 17.293C109.419 16.664 110.778 16.0496 111.747 16.259C111.047 16.3986 110.068 17.2682 109.669 17.9569C109.789 18.0772 110.208 18.4463 110.388 19.0561C110.478 18.8862 110.997 18.0671 111.737 17.7769C111.497 18.0662 110.993 18.7833 110.895 19.4803C110.985 19.2406 111.447 18.6162 111.846 18.3664C111.736 18.5363 111.496 19.0157 111.526 19.4757C111.637 19.3361 111.926 18.956 112.415 18.7861C112.096 19.1158 111.787 19.9211 111.852 20.4436C112.153 19.7576 113.404 18.2966 114.989 18.5483C114.447 17.5712 113.449 17.045 112.415 17.3224L112.416 17.3233ZM95.2399 14.6336C94.676 13.6456 94.1646 12.6401 93.5732 11.6603C93.3372 11.2691 93.0994 10.8742 92.8863 10.4693C93.5374 12.2636 94.587 13.9082 94.8037 16.7686C94.8928 16.4224 95.0718 15.6291 95.2389 14.6336H95.2399ZM92.5264 15.4105C92.6586 12.765 91.9258 10.8439 91.9671 9.01105C91.4694 9.6015 91.1884 10.3251 90.9442 11.0762C90.6623 11.9459 90.2343 12.8678 89.3996 13.2415C88.5456 13.6235 87.5521 13.3058 86.6926 12.9376C85.8321 12.5694 84.9194 12.1405 84.0011 12.3187C85.2059 14.5023 85.0084 17.1782 84.2949 19.5666C83.8046 21.2067 83.0479 22.877 83.3647 24.5593C83.4878 23.4234 84.0626 22.4151 84.8588 21.596C84.9258 22.8311 84.8725 24.1865 84.1003 25.1525C83.5998 25.7788 82.8542 26.1451 82.1838 26.585C81.5135 27.0249 80.8606 27.6272 80.7467 28.4206C80.7467 28.4206 81.4492 28.2792 82.5566 28.1975C82.8964 28.0579 85.114 27.5786 85.5732 26.1791C85.5732 26.4987 86.193 28.1975 87.2711 28.2774C86.7118 25.9395 87.4106 24.1415 87.0709 21.1047C86.6512 21.7439 86.0323 22.9027 85.732 25.0607C85.0929 23.2829 86.3519 21.1047 86.3519 18.6869C86.3519 17.6878 86.3923 14.731 84.7532 12.4729C86.631 13.4123 88.9488 18.4665 88.4896 24.5804C89.1893 23.3417 89.8744 21.0111 90.0479 19.7255C90.3427 17.5473 89.7734 14.8954 90.867 13.3315C90.6274 14.4904 90.9745 15.528 91.047 16.6033C91.1223 17.7126 91.272 19.3453 90.5677 21.3233C90.9276 20.5437 92.3455 19.0056 92.5254 15.4096L92.5264 15.4105ZM86.0222 29.4261C86.3445 29.9744 86.5622 30.675 85.7642 30.8853C84.6925 29.36 83.878 29.1461 83.878 29.1461C83.833 31.1755 80.2775 30.8853 79.4795 32.6741C80.6384 31.6153 84.3142 31.9744 84.7146 30.0965C85.2738 30.6961 85.7137 31.7549 84.9341 32.8339C85.4933 32.8339 86.0525 32.9542 86.6926 33.2535C87.6154 31.4528 87.1333 30.2333 86.0231 29.4271L86.0222 29.4261Z" fill="#683A1A"/>
<path d="M127.192 25.8191C122.497 25.1396 118.341 22.3031 117.222 21.2636C116.104 20.225 114.695 20.4243 114.276 20.4941C114.765 19.9348 115.535 19.8044 116.084 19.8549C115.944 19.6648 115.535 19.2957 114.745 19.3554C113.956 19.4151 113.636 19.8871 113.686 20.3646C113.796 21.4031 115.404 22.4224 116.358 23.0469C118.65 24.5473 122.218 26.0285 123.986 26.2535C119.64 26.6584 115.13 24.6805 112.986 22.2076C112.927 22.5372 113.001 22.9872 113.001 22.9872C115.503 25.6695 119.1 26.3738 120.104 26.5684C121.108 26.7631 124.84 27.1231 127.192 25.8191Z" fill="#FFF2E3"/>
<path d="M107.577 35.1847C107.607 34.3757 107.442 32.922 107.233 32.4574C106.379 31.3637 105.314 30.6741 105.195 28.3812C104.626 29.7595 104.73 30.9138 105.75 32.2774C105.54 31.6181 105.532 31.2737 105.517 30.9891C105.974 32.5529 107.248 33.5667 107.578 35.1847H107.577Z" fill="black"/>
<path d="M104.455 29.8357C104.514 28.7971 104.914 27.698 105.214 27.0386C104.165 27.8779 104.065 29.057 104.455 29.8357Z" fill="black"/>
<path d="M110.129 32.8917C110.686 32.5318 110.791 32.0304 110.618 31.1938C109.819 31.7136 109.799 32.3123 110.129 32.8917Z" fill="#FFF2E3"/>
<path d="M106.633 39.7182C106.431 39.6585 105.966 39.5979 105.966 39.5979C106.042 39.3206 106.82 38.8265 107.045 38.5786C106.918 39.1333 106.633 39.7173 106.633 39.7173V39.7182Z" fill="black"/>
<path d="M104.632 16.9183C104.827 17.7347 105.114 18.6869 106.063 19.2856C104.706 18.956 104.143 17.9973 104.632 16.9183Z" fill="#683A1A"/>
<path d="M99.5447 20.9192C100.579 18.1323 101.088 16.6189 101.418 15.0156C101.643 17.4279 101.178 19.1818 99.5447 20.9192Z" fill="black"/>
<path d="M97.7761 10.9394C98.5108 15.5243 96.6219 18.9862 95.643 21.0643C97.0213 17.0487 96.9212 15.5996 97.2215 14.1763C97.395 13.3508 97.6411 12.528 97.7761 10.9394Z" fill="black"/>
<path d="M89.9093 28.3968C90.7339 26.0138 90.4483 22.9275 90.8983 21.7136C90.5686 22.4326 89.969 22.8825 89.6999 24.2306C89.4309 25.5786 89.4299 27.0781 89.9093 28.3968Z" fill="#683A1A"/>
<path d="M59.7301 27.4977C57.4822 28.9964 55.0846 31.1543 54.6649 31.7833C53.406 32.8026 50.7687 35.5896 49.5703 36.6383C51.2186 34.63 52.507 32.1424 53.8256 30.7347C55.1443 29.326 58.8908 27.6474 59.7292 27.4977H59.7301Z" fill="black"/>
<path d="M51.4583 27.1378C53.5639 24.1699 54.0497 21.1966 54.0956 19.9449C56.0139 22.8522 54.6649 25.0698 51.4583 27.1378Z" fill="black"/>
<path d="M31.7485 32.1332C33.5868 26.3793 35.8247 23.8219 37.0432 22.9229C35.6447 25.1011 35.6245 26.439 34.8256 28.0781C34.0267 29.7172 32.5878 30.3756 31.7485 32.1341V32.1332Z" fill="black"/>
<path d="M98.6806 30.8843C98.6007 30.3049 98.5906 29.4757 98.5906 28.9459C98.0415 29.8449 98.2114 30.5639 98.6806 30.8843Z" fill="#683A1A"/>
<path d="M97.5521 31.1736C97.0424 29.9945 96.6531 30.2241 96.463 28.416C95.9938 30.1047 96.6026 30.9532 97.5521 31.1736Z" fill="#683A1A"/>
<path d="M96.1829 31.4537C95.3638 31.2636 94.6246 30.6144 94.4143 30.3444C94.5245 31.0239 94.8441 31.3435 95.1141 31.5336C94.4942 31.9633 93.4354 31.8137 92.8064 31.2838C92.9267 32.023 93.4455 32.2728 93.7357 32.3628C91.778 33.3518 90.7091 35.9689 89.98 36.6585C91.4584 36.3086 92.2876 34.9202 92.6668 34.3408C93.0461 33.7613 93.5759 32.9422 94.1554 32.4528C94.8349 32.4124 95.3188 31.8807 95.4465 31.7163C95.7238 31.8063 96.1186 31.7916 96.1829 31.4537Z" fill="#683A1A"/>
<path d="M100.659 40.395C101.308 39.0359 100.93 37.9423 100.811 37.4932C100.646 36.8642 100.818 36.5694 101.008 36.1498C100.379 36.5391 100.059 37.3683 100.059 38.0782C100.059 38.788 100.339 40.136 100.659 40.3959V40.395Z" fill="#683A1A"/>
<path d="M83.3307 42.2875C82.9708 42.2122 82.4464 42.0028 82.4464 42.0028C74.2949 44.5207 67.8808 44.0111 60.0295 42.2425C55.7742 41.2838 54.1856 41.8228 53.1966 42.0331C56.2536 42.2131 59.6099 43.1718 62.0681 43.7411C64.5254 44.3104 74.0855 46.6484 83.3317 42.2875H83.3307Z" fill="#683A1A"/>
<path d="M79.7724 48.0341C79.7651 48.226 79.7798 48.5162 79.8202 48.6658C79.7605 49.0258 79.5309 49.3949 79.3702 49.5547C79.0709 48.9551 78.2114 48.7751 77.6521 49.844C77.5474 49.1571 77.7384 48.3215 78.1517 48.136C78.5961 47.9358 78.9258 48.3261 79.7724 48.0331V48.0341Z" fill="#683A1A"/>
<path d="M77.013 48.6163C76.8955 48.8137 76.7779 49.3803 76.7779 49.3803C75.7136 48.9156 74.6347 48.9257 74.0552 48.9661C74.4446 48.507 74.8642 48.0671 74.8642 48.0671C75.3234 48.0671 76.5272 48.3968 77.0121 48.6163H77.013Z" fill="#999999"/>
<path d="M33.6566 43.9955C31.7833 45.1195 30.54 44.3702 29.1167 44.8945C31.0047 43.2609 33.4023 41.3132 34.9009 40.0093C33.6576 41.9726 32.2489 43.1112 32.3839 43.5309C32.5189 43.9505 33.2379 43.9955 33.6575 43.9955H33.6566Z" fill="black"/>
<path d="M13.2874 61.9726C13.607 62.1223 14.0166 62.1223 14.2966 62.0828C14.2764 62.8422 14.6263 63.7715 14.776 64.1204C14.9256 64.4703 14.8458 64.9294 14.8458 64.9294H14.2167C14.2663 64.1599 13.517 63.6108 13.2874 61.9726Z" fill="#683A1A"/>
<path d="M33.686 21.6235C29.5198 26.2691 23.4665 26.9578 17.293 25.8788C12.7374 24.9798 9.77045 25.0698 6.38385 26.9881C10.2204 23.8109 14.2957 24.5005 16.8136 24.9504C21.7888 25.9394 27.5125 25.9091 33.6869 21.6235H33.686Z" fill="#9E602D"/>
<path d="M2.6382 34.6401C2.95776 35.2894 3.66667 35.5795 3.94123 36.0561C4.21947 36.5391 4.32232 37.1167 4.14601 38.1066C4.05602 37.3178 3.83655 36.8275 3.59688 36.4785C3.74656 37.3674 3.36731 38.586 3.37741 39.0359C3.18733 38.7366 3.16805 38.0864 3.14784 37.7072C2.74839 38.4161 2.85859 40.8036 3.35721 41.7228C1.72911 40.5942 1.34894 37.4069 1.39945 36.3986C1.76951 37.5272 2.14876 37.5676 2.41873 38.9064C2.75849 37.0488 1.71901 36.3895 1.96878 34.9202C2.37833 35.8991 2.84757 36.0892 2.93756 36.7981C3.18733 35.7494 2.55831 35.2701 2.6382 34.6401Z" fill="#683A1A"/>
<path d="M77.2821 16.7484C79.6595 14.4904 79.9598 12.3132 82.8165 11.8531C82.0975 11.3334 80.7587 11.4133 80.4189 11.5537C79.6393 9.81545 79.0002 8.79617 78.4611 8.23694C79.0204 10.1947 78.8606 11.753 78.8211 12.2131C78.6016 14.0313 77.6227 15.27 77.283 16.7484H77.2821Z" fill="black"/>
<path d="M83.0286 19.2829C83.5319 18.3701 83.8321 17.3453 83.8982 16.3049C83.9331 15.7668 83.901 15.2057 83.6521 14.7273C83.4033 14.2489 82.8946 13.8751 82.3583 13.9211C81.9451 13.956 81.5888 14.2232 81.2949 14.5152C80.0406 15.7613 79.5144 17.5712 78.3877 18.9339C77.9194 19.5005 77.3151 20.0652 77.3059 20.8008C77.7531 20.3747 78.5273 20.3481 79.1443 20.3517C79.7623 20.3554 80.3978 20.4252 80.9836 20.2305C81.7633 19.9716 82.3004 19.663 83.0277 19.2819L83.0286 19.2829Z" fill="#B26D39"/>
<path d="M81.4345 21.9109C81.8046 21.2672 82.5034 20.7282 83.2169 20.528C82.7991 19.9155 81.9506 19.7117 81.2288 19.8779C80.5071 20.0441 79.8927 20.5133 79.3555 21.0239C78.6099 21.731 77.9634 22.5427 77.44 23.4261C78.216 22.9027 79.0901 22.4472 79.9625 22.1084C80.4832 21.9054 80.8817 21.8292 81.4345 21.9119V21.9109Z" fill="#B26D39"/>
<path d="M82.5713 29.1589C81.3666 28.7292 80.0378 29.0423 78.7981 29.3573C78.2821 29.4886 77.7182 29.6529 77.4281 30.1001C78.2747 29.9569 79.1058 29.9973 79.9524 30.1424C79.0993 30.3811 78.3142 30.7319 77.5686 31.2094C76.8229 31.6869 76.1755 32.3518 75.8358 33.1699C76.2049 32.5749 76.8881 32.1433 77.5585 31.9404C78.2288 31.7374 78.9423 31.7209 79.6411 31.7723C79.5447 31.5418 79.8174 31.2884 80.0332 31.1635C80.7284 30.7613 81.4235 30.3591 82.1186 29.9569C82.1645 29.9303 82.249 29.9266 82.2435 29.9789C81.7412 29.6842 81.1654 29.4877 80.5823 29.4959C81.2316 29.1332 81.834 29.0496 82.5695 29.1589H82.5713Z" fill="#B26D39"/>
<path d="M82.5144 21.9798C82.1618 22.3646 81.6668 22.5841 81.1755 22.7631C80.6843 22.9422 80.1765 23.0937 79.7403 23.3802C79.3041 23.6667 78.9395 24.1213 78.9138 24.6428C79.4299 24.1295 80.1306 23.7861 80.8569 23.7402C80.6071 23.8981 80.4097 24.1405 80.2986 24.4142C80.5318 24.1057 80.901 24.169 81.283 24.1084C81.9386 24.0056 82.6246 23.6566 82.834 23.0267C82.5612 23.1635 82.2554 23.1855 81.9524 23.1497C82.6879 22.731 83.1893 21.9293 83.2821 21.0873C83.1232 21.4941 82.8092 21.6575 82.5135 21.9789L82.5144 21.9798Z" fill="#B26D39"/>
<path d="M74.5722 14.5372C74.5493 15.3618 74.6512 16.2397 74.6282 17.0643C75.4134 15.619 76.204 14.1589 76.6521 12.5758C76.7008 12.405 76.7449 12.225 76.7072 12.0515C76.6696 11.8779 76.5245 11.7145 76.3473 11.7163C76.1911 11.7181 76.0653 11.8384 75.957 11.9514C75.0295 12.9174 74.1012 13.8834 73.1737 14.8495C73.0819 14.5887 73.1893 14.3022 73.3169 14.057C73.7531 13.2241 74.4391 12.5556 75.0598 11.8494C75.6806 11.1433 75.8606 10.3582 76.2242 9.49131C76.4914 8.85495 76.4639 8.10196 76.1507 7.48764C75.9019 6.99911 75.4832 6.5914 75.3509 6.05972C75.3307 5.97983 75.3188 5.89259 75.3509 5.81729C75.3877 5.73006 75.4731 5.67588 75.5575 5.63272C76.5346 5.12951 77.7394 5.44264 78.7063 5.96606C80.2453 6.79985 81.6338 8.29939 82.6035 9.7567C84.3711 9.63273 86.1517 10.1304 87.6944 11.0019C89.3932 10.3563 90.7027 8.7769 91.0231 6.98718C91.2141 5.92014 91.0488 4.80168 90.5943 3.81913C89.1379 2.6924 87.306 1.86963 85.1443 1.66302C80.1397 1.18368 77.2775 2.5767 72.0626 6.44356C66.8477 10.3095 61.9478 15.8394 57.1379 18.8513C55.8651 20.8017 54.9799 25.765 54.9799 25.765C58.6558 22.8651 61.1755 24.6116 63.8027 23.5418C66.9101 22.2755 68.2637 19.2866 69.473 14.8807C69.8661 13.4482 72.0415 12.5317 70.6438 15.5124C70.373 16.09 70.0993 16.7255 70.2536 17.3444C70.2839 17.4665 70.3344 17.5896 70.4308 17.6695C70.6319 17.8348 70.9331 17.7484 71.17 17.6419C72.5842 17.0083 73.8367 15.9009 74.5722 14.5372Z" fill="#B26D39"/>
<path d="M97.3831 10.2856C97.3381 10.4187 97.2904 10.5565 97.2371 10.6997C97.0874 9.21578 95.2041 5.95958 93.126 4.74103C93.407 5.1717 93.7578 5.85949 94.0075 6.64737C95.3436 8.22864 96.6871 11.1304 96.9258 12.494C97.2922 11.6483 97.3822 10.2865 97.3822 10.2865L97.3831 10.2856Z" fill="#B26D39"/>
<path d="M111.625 14.719C107.224 9.90726 99.0663 6.01469 94.7642 4.8999C95.092 5.19742 95.9221 6.05693 96.6962 7.09642C96.5668 6.69329 96.3895 6.22222 96.1875 5.88888C97.7872 6.61249 98.3344 6.97153 98.6797 8.23691C98.8597 7.02571 100.668 9.40588 100.507 10.9394C101.088 9.74931 101.029 8.59412 101.029 8.59412C101.5 9.74197 102.205 10.8017 103.373 11.2204C104.115 11.4867 104.994 11.3756 105.642 11.8246C106.037 12.0973 106.282 12.539 106.643 12.8549C107.194 13.337 107.953 13.4839 108.673 13.6125C108.274 13.6244 107.975 13.9422 107.741 14.2645C108.544 14.0009 109.323 14.0882 110.166 14.1479C109.631 14.3343 109.118 14.5813 108.638 14.8806C109.614 14.5813 110.633 14.5418 111.624 14.7199L111.625 14.719Z" fill="#B26D39"/>
<path d="M80.3023 25.8944C79.8046 26.4427 79.4832 27.1488 79.3969 27.8844C80.1287 27.843 80.7247 27.27 81.114 26.6493C81.4685 26.0836 81.8303 25.4491 82.1168 24.854C81.4988 24.8035 80.6916 25.4665 80.3023 25.8954V25.8944Z" fill="#B26D39"/>
<path d="M42.8274 17.3683C41.7632 17.6667 40.7852 18.0561 39.8853 18.5207C39.2379 19.0854 38.6548 19.7227 38.1534 20.4197C39.1626 19.7493 40.3095 19.2875 41.5015 19.0689C39.6631 20.2838 38.7246 22.4179 38.0588 24.5189C37.3931 26.6199 37.0983 28.8219 36.4675 30.933C37.8513 31.2416 39.214 30.439 40.406 29.6713C41.7907 28.7788 43.1755 27.8862 44.5602 26.9945C44.9496 28.2241 44.0974 29.1764 43.1993 30.1011C42.3004 31.0258 41.2673 32.0625 41.3224 33.3508C42.7062 31.619 44.7466 30.6024 46.2113 28.9376C47.0561 27.978 47.6971 26.8596 48.3316 25.7494C48.8927 24.7677 49.4546 23.7852 50.0157 22.8035C49.8523 24.4234 49.6401 25.7696 48.9551 27.2462C50.5134 26.3903 51.2462 24.9266 51.8743 23.2636C52.5024 21.6006 52.9266 19.8375 53.8651 18.3279C54.4611 18.8439 55.0625 19.2526 55.4519 19.9376C55.4344 18.8448 55.0295 17.8439 54.3784 17.0055C51.7595 16.6318 46.9413 16.2177 42.8284 17.3692L42.8274 17.3683Z" fill="#B26D39"/>
<path d="M104.904 33.0543C105.33 33.4592 105.617 34.0084 105.707 34.5896C105.745 34.8339 105.752 35.0938 105.88 35.305C106.008 35.5171 106.316 35.6466 106.506 35.4886C106.636 35.3821 106.752 35.1553 106.896 35.2407C106.944 35.2691 106.967 35.3242 106.986 35.3757C107.299 36.2636 107.117 37.3096 106.522 38.0396C106.586 37.6943 106.551 37.3389 106.421 37.013C106.349 36.8321 106.185 36.6355 105.999 36.6934C105.913 36.72 105.853 36.7962 105.801 36.8697C105.362 37.4804 104.987 38.2141 104.291 38.4996C104.123 37.8045 104.655 37.1002 104.898 36.428C105.108 35.8513 105.121 35.2049 104.937 34.619C104.851 34.3454 104.723 34.0837 104.675 33.8008C104.627 33.518 104.686 33.2388 104.903 33.0515L104.904 33.0543Z" fill="#9E602D"/>
<path d="M105.727 23.3196C104.8 23.5143 103.987 24.1874 103.623 25.0616C103.258 25.9358 103.352 26.9872 103.865 27.7834C104.08 27.0552 104.565 26.45 105.212 26.0533C105.429 24.5409 106.538 23.3233 107.955 22.7503C107.205 22.7843 106.463 22.9285 105.802 23.2829C105.716 23.3297 105.633 23.3004 105.728 23.3196H105.727Z" fill="#9E602D"/>
<path d="M110.076 24.8862C110.066 25.4555 109.858 26.0194 109.495 26.4574C109.048 26.9982 108.364 27.3738 108.132 28.0368C108.661 27.5685 109.491 27.551 110.129 27.8559C109.792 27.8614 109.505 28.0965 109.304 28.3665C109.521 28.237 109.739 28.3288 109.952 28.4656C110.164 28.6025 110.318 28.8109 110.466 29.0157C110.484 28.3499 110.84 27.7632 111.423 27.4418C111.797 27.2352 112.263 27.1342 112.5 26.7788C112.405 26.0396 111.828 25.4409 111.27 24.9477C110.68 24.4262 110.088 23.9046 109.498 23.383C109.877 23.8045 110.084 24.3196 110.075 24.8862H110.076Z" fill="#B26D39"/>
<path d="M84.2251 35.1314C83.4115 34.0359 82.1094 33.3178 80.7485 33.214C80.4354 33.1901 80.0066 33.3104 80.0323 33.6235C80.0929 34.3517 80.7623 34.6998 81.3601 35.1213C82.2242 35.7301 83.0883 36.3389 83.9533 36.9477C83.4712 36.866 82.9882 36.9771 82.5015 37.0193C83.2793 37.6832 84.3289 37.6915 85.2903 38.0386C85.834 38.2351 86.3344 38.5326 86.8321 38.8274C87.9543 39.495 89.1315 40.2177 89.7431 41.371C89.9543 41.1222 89.8817 40.7292 89.7348 40.4372C89.5879 40.1451 89.3344 39.9238 89.0883 39.7099C88.0213 38.7852 86.9543 37.8596 85.8881 36.9348C85.2196 36.3554 84.7531 35.8412 84.2251 35.1304V35.1314Z" fill="#B26D39"/>
<path d="M123.985 26.2535C119.639 26.6585 115.129 24.6805 112.986 22.2076C112.926 22.5372 113 22.9872 113 22.9872C115.503 25.6695 119.099 26.3738 120.103 26.5685C121.096 26.7613 124.755 27.1148 127.111 25.8623C126.88 25.9707 126.084 26.248 123.985 26.2535Z" fill="#999999"/>
<path d="M78.5814 19.4509C78.8404 19.057 79.3261 18.8743 79.7926 18.8045C80.2591 18.7347 80.7385 18.7512 81.1958 18.6373C81.0038 18.9073 80.8064 19.0965 80.5153 19.2553C81.4189 19.2103 82.3317 19.1369 82.9102 18.4417C82.9699 17.7347 82.9056 16.933 82.9653 16.2259C82.9956 15.8742 83.0038 15.4665 82.7403 15.2315C82.4198 14.9459 81.8992 15.1075 81.5732 15.3866C81.3243 15.5997 81.1278 15.8724 81.0029 16.1745C80.8789 16.4748 80.8257 16.8026 80.6815 17.0937C80.2104 18.046 79.0176 18.4821 78.5805 19.4509H78.5814Z" fill="#C67B47"/>
<path d="M89.8009 3.26265C88.4915 2.42702 86.9304 1.83473 85.1443 1.66393C80.1397 1.18459 77.2775 2.57762 72.0626 6.44447C67.2747 9.99453 62.7522 14.9459 58.3206 18.0634C57.9395 18.9505 57.6236 19.8623 57.4602 20.8118C57.3178 21.6364 57.4161 22.6906 58.1893 23.012C58.4363 23.1148 58.7118 23.1185 58.979 23.1066C61.9542 22.9688 64.5979 20.9477 66.1838 18.4271C66.9983 17.1323 67.5823 15.7044 68.372 14.3949C69.1618 13.0845 70.2141 11.8559 71.6292 11.2755C71.7641 11.2204 71.9212 11.1718 72.0516 11.2379C72.3013 11.3646 72.2141 11.7356 72.1103 11.9964C71.7293 12.9523 71.8284 14.0056 72.0185 15.0166C72.2995 13.7475 72.8863 12.5473 73.7146 11.5455C74.1388 11.0322 74.6292 10.5657 74.9689 9.99269C75.3087 9.41969 75.4822 8.69425 75.2132 8.08451C74.8835 7.33704 73.9304 6.74108 74.1792 5.9633C74.2756 5.6621 74.5401 5.44815 74.8091 5.28194C75.766 4.68965 76.9533 4.48028 78.0553 4.70893C79.1517 4.93667 80.1177 5.56568 81.0424 6.19838C81.9432 6.81546 82.834 7.53263 83.4116 8.45917C84.025 8.61987 84.6393 8.78149 85.2527 8.94218C86.1104 9.16716 87.047 9.38663 87.856 9.02391C88.2206 8.86046 88.5273 8.58957 88.7954 8.29205C89.5842 7.41601 90.0746 6.26725 90.115 5.0891C90.1361 4.46743 90.0277 3.84116 89.8027 3.26173L89.8009 3.26265Z" fill="#C67B47"/>
<path d="M50.9395 17.6474C49.1938 17.6291 47.4308 17.6125 45.7237 17.9817C44.0175 18.3517 42.3481 19.147 41.2434 20.4987C40.4757 21.4381 40.0184 22.5923 39.6686 23.7549C39.2149 25.2608 38.9211 26.8137 38.7935 28.3811C41.4289 26.877 43.8412 25.1103 45.9009 22.8816C46.1847 24.7549 45.9643 26.697 45.1066 28.3867C45.4849 28.2388 45.8412 28.0212 46.0634 27.6814C46.9 26.4041 47.4335 24.9551 48.1516 23.607C48.8697 22.259 49.8357 20.9606 51.2186 20.3123C50.8008 21.3894 50.8275 22.4959 50.7173 23.6465C51.0534 22.888 51.3408 22.2673 51.6769 21.5088C51.9101 20.9826 52.1443 20.4537 52.2793 19.8944C52.439 19.2342 52.4188 18.4454 51.9165 17.989C51.6208 17.72 51.3408 17.6511 50.9413 17.6465L50.9395 17.6474Z" fill="#C67B47"/>
<path d="M82.1076 20.3187C80.9588 20.4454 79.8643 21.0074 79.0911 21.866C79.7017 21.5684 80.3482 21.4325 81.0268 21.416C81.2417 20.9587 81.6576 20.5492 82.1076 20.3187Z" fill="#C67B47"/>
</g>
<g clip-path="url(#clip1_0_425)">
<path d="M175.079 34.9523C177.462 39.0974 179.851 41.3123 179.851 41.3123C179.851 41.3123 172.391 42.2095 171.221 42.5015C170.663 42.4859 170.274 42.6622 170.051 42.7926C172.197 46.0176 174.824 46.3206 174.455 48.0635C174.538 48.4234 174.838 48.7558 175.223 48.7604C176.22 48.7953 176.461 49.1709 176.461 49.6558C177.185 49.4923 178.591 49.3215 178.984 49.8146C180.113 51.439 181.408 55.6154 181.268 57.2582C178.95 56.4088 175.881 53.9175 175.359 53.5428C174.152 53.9404 173.879 52.7614 172.027 51.4657C171.364 51.9625 170.577 51.0662 170.219 50.3031C168.945 47.945 167.163 46.1094 165.021 44.0286C164.613 43.6199 163.828 43.462 163.095 42.6769C162.302 41.8275 161.849 40.2251 162.962 38.2168C163.522 37.2067 164.622 36.9128 165.604 36.9376C166.261 36.9542 166.807 37.1773 167.606 37.0589C167.606 37.0589 173.906 35.967 175.08 34.9533L175.079 34.9523Z" fill="black"/>
<path d="M231.62 43.4849C232.578 44.2425 232.788 45.608 232.11 46.6227C229.628 50.3371 226.567 57.3298 225.565 60.3142C225.205 61.4831 224.545 62.2324 223.466 62.3821C222.027 63.7605 222.897 64.5098 222.207 65.4088C221.159 66.6677 220.889 68.136 220.379 68.765H211.718C213.876 66.6668 215.375 63.9698 217.472 63.5502C217.951 62.8605 218.701 62.1415 218.881 62.0222C218.431 60.1939 218.85 60.9432 220.379 58.4556C221.907 55.968 223.886 51.8624 223.436 49.7044C218.881 49.0754 205.24 40.8531 202.942 36.1479C202.942 36.1479 220.558 35.3857 224.535 35.1837C225.701 38.4078 229.252 41.6107 231.619 43.484L231.62 43.4849Z" fill="black"/>
<path d="M137.963 22.9827C135.43 23.2223 132.658 22.8982 131.235 21.1149C135.79 21.7439 139.834 20.0956 141.754 19.0616C143.507 18.1176 143.882 17.0836 145.021 16.7843C147.333 13.3132 154.237 7.07904 163.577 4.10199C166.874 2.33339 168.622 1.78426 169.911 1.51429C173.477 -0.254311 178.647 -0.928325 184.071 2.03862C189.496 5.00557 196.004 11.5942 197.632 12.8431C199.081 13.9532 203.227 15.8403 206.494 15.81C210.11 15.3105 216.983 14.2912 223.376 18.687C234.195 25.5501 237.79 24.833 244.984 23.6622C248.85 23.0332 256.823 24.7715 259.579 33.4124C260.868 36.9092 259.2 43.3821 254.464 43.462C255.663 42.6631 256.033 41.7035 256.033 41.0543C255.723 41.5336 255.474 41.6934 255.134 41.8339C255.654 40.8651 255.543 39.047 255.183 38.1673C254.824 37.2885 255.063 35.6301 255.953 35.0102C256.842 34.3913 257.352 33.9009 257.292 32.8725C257.003 30.8247 253.166 26.2177 246.723 26.4188C242.886 26.5391 240.938 27.8872 236.233 27.7072C233.868 27.6172 230.809 27.1075 228.441 25.6392C231.048 30.4941 231.594 37.3959 234.884 40.2343C239.469 44.1902 240.938 41.6429 242.556 45.2995C244.174 48.9561 245.613 52.4024 248.101 55.9083C249.15 56.777 249.762 58.1544 250.228 59.2646C250.857 60.7633 250.378 61.6623 249.27 61.3629C249.509 63.5208 251.307 66.6072 249.03 67.1471C248.131 67.6962 248.88 69.0654 248.131 69.9047H239.859C240.758 67.9763 243.216 65.9488 243.936 65.2591C244.415 64.0305 244.275 62.002 244.275 62.002C242.337 61.463 243.433 60.171 241.538 56.7669C240.459 54.8284 239.161 52.5511 236.783 50.8927C235.284 49.8468 233.107 49.294 231.529 49.3142C227.962 50.4281 210.37 44.7293 210.37 44.7293C207.493 44.8495 202.847 44.3096 201.469 44.2499C194.665 45.9285 183.607 47.8459 174.976 42.6319C174.406 42.8119 174.077 43.1269 173.897 43.3362C177.193 45.8385 179.951 45.2242 180.191 47.1122C180.4 47.4464 180.82 47.6769 181.21 47.5465C182.229 47.2316 182.604 47.5263 182.774 48.0158C183.448 47.5961 184.807 46.9322 185.376 47.2912C187.084 48.5346 189.856 52.2958 190.291 54.0048C187.654 53.9598 183.683 52.5208 183.024 52.3261C181.945 53.1508 181.255 52.0562 178.933 51.3969C178.438 52.1315 177.329 51.5015 176.7 50.8578C174.587 48.9249 172.145 47.6962 169.253 46.3473C168.698 46.0773 167.851 46.193 166.835 45.6576C165.736 45.0782 164.718 43.62 165.137 41.2022C165.349 39.9864 166.356 39.3041 167.355 38.9845C168.024 38.7706 168.653 38.8045 169.418 38.4051C167.575 36.8266 166.936 35.4078 166.017 34.4795C165.061 33.5134 164.908 33.4602 164.444 32.9808C163.74 32.7412 163.425 32.5465 162.855 32.2012C162.481 32.271 162.016 32.2159 161.746 32.1415C161.341 32.3959 160.862 32.4859 160.727 32.4859C160.307 33.1452 160.188 34.1195 160.172 34.4638C160.922 35.3481 162.025 36.5713 161.327 38.6898C160.627 40.8073 160.982 41.3867 159.244 41.4216C158.945 42.1305 158.603 42.5612 158.395 42.7504C158.065 43.0497 157.535 42.8404 157.131 42.788C156.846 43.013 156.327 43.0203 155.507 42.7908C154.109 42.4207 153.134 42.6209 152.491 42.1011C151.872 41.6016 151.791 40.5924 151.832 40.103C149.774 37.7853 149.014 35.687 148.715 35.0984C147.636 34.4492 146.213 33.4097 145.418 31.3123C144.68 29.3619 143.436 27.4216 142.926 26.6567C138.835 28.4097 132.492 27.8752 130.334 24.8982C133.81 24.9432 137.157 23.4592 137.967 22.9799L137.963 22.9827Z" fill="black"/>
<path d="M150.86 21.394C150.33 20.8843 149.881 19.5262 150.59 18.7668C150.43 19.6235 150.73 20.585 151.219 20.855C151.059 19.4463 151.16 18.2379 151.879 17.1286C153.257 15.1405 154.556 15.4307 155.535 13.9514C156.254 14.6309 156.964 15.8595 156.454 17.4481C156.395 16.2094 155.765 15.3205 155.425 14.9908C155.365 16.4491 154.276 16.9091 153.727 17.4987C153.607 16.9596 153.787 16.4399 153.817 16.2103C153.028 16.91 152.658 17.6988 152.498 18.0386C152.339 18.3784 151.909 19.5069 152.329 20.5464C152.728 19.1075 153.487 18.4684 154.106 18.0689C153.687 19.2379 153.337 19.877 152.898 20.0469C153.228 20.3361 153.712 20.237 153.712 20.237L153.942 20.4463C153.502 21.0808 152.273 21.2608 151.874 21.2709C152.848 21.6355 154.186 21.1359 155.195 21.9257C154.077 21.9055 153.138 22.1157 152.688 22.3352C155.175 22.2654 156.793 23.1341 157.193 23.4739C157.193 22.855 156.823 22.3554 156.673 22.1754C158.272 22.7852 158.351 25.2627 158.172 25.9312C157.482 28.3885 156.114 30.5069 155.734 31.7154C156.504 30.9459 156.963 30.7567 157.592 29.5079C157.812 30.5767 155.315 34.6328 155.464 35.7016C155.565 36.5005 156.154 37.5198 156.404 37.979C156.174 37.0304 156.294 36.3104 156.363 35.8807C156.554 36.8697 157.543 38.6576 157.373 39.2875C157.203 39.9165 157.093 40.1066 156.923 40.3169C156.656 39.6254 156.083 39.3876 155.305 39.0644C154.843 38.7301 154.385 38.2003 154.076 37.1406C153.896 38.529 154.306 39.5777 154.635 39.6484C155.655 39.7485 155.974 40.4574 156.083 40.7173C156.194 40.9771 156.223 41.6759 155.774 41.9257C155.614 41.2168 155.315 40.5768 154.345 40.5171C153.376 40.4574 153.456 40.7071 153.796 40.967C154.136 41.2269 154.925 41.7062 155.125 41.8265C153.906 41.8164 153.177 41.7062 152.907 41.2168C152.637 40.7274 152.757 40.1874 152.917 39.8779C151.539 38.4592 150.929 37.2205 150.679 36.6814C150.43 36.1424 149.92 35.2425 149.6 34.8329C149.86 34.8127 150.12 34.8531 150.12 34.8531C150.46 35.3922 151.309 35.7925 151.309 35.7925C151.489 36.7815 152.118 37.6006 152.428 37.9303C151.738 35.9422 151.978 33.8541 152.328 32.6557C151.858 33.0157 151.509 33.9946 151.388 34.4638C151.108 34.034 151.099 33.3352 151.128 32.8155C151.178 32.5161 152.357 31.5666 151.937 30.7879C151.518 30.0083 150.619 29.9284 150.029 29.9688C150.918 30.7282 151.108 31.5271 150.729 32.4362C150.789 31.5069 150.509 31.2379 150.26 31.0377C150.01 30.8375 149.291 30.5786 149.031 30.1883C148.812 31.0074 148.742 31.7365 148.791 32.2361C148.182 32.7953 146.584 31.8761 146.154 30.6878C145.724 29.4987 144.446 27.3912 143.947 26.2223C146.234 25.0836 147.313 23.7852 147.363 23.675C147.513 23.3949 148.133 23.4353 148.418 23.585C148.133 23.8944 147.643 24.2691 146.949 24.3646C148.407 24.7843 149.652 23.7953 150.021 22.776C150.391 21.7567 150.351 21.5969 150.86 21.3977V21.394Z" fill="white"/>
<path d="M156.454 17.4481C156.395 16.2094 155.765 15.3205 155.425 14.9908C155.365 16.4491 154.276 16.9091 153.727 17.4986C153.607 16.9596 153.787 16.4399 153.817 16.2103C153.028 16.91 152.658 17.6988 152.498 18.0386C152.339 18.3784 151.909 19.5069 152.329 20.5464C152.728 19.1075 153.487 18.4683 154.106 18.0689C153.687 19.2379 153.337 19.877 152.898 20.0469C153.228 20.3361 153.712 20.2369 153.712 20.2369L153.942 20.4463C153.502 21.0808 152.273 21.2608 151.874 21.2709C152.848 21.6355 154.186 21.1359 155.195 21.9257C154.077 21.9054 153.138 22.1157 152.688 22.3352C155.175 22.2654 156.793 23.1341 157.193 23.4739C157.193 22.8549 156.823 22.3554 156.673 22.1754C158.272 22.7852 158.351 25.2627 158.172 25.9312C157.482 28.3885 156.114 30.5069 155.734 31.7154C156.504 30.9459 156.963 30.7567 157.592 29.5079C157.812 30.5767 155.315 34.6327 155.464 35.7016C155.565 36.5005 156.154 37.5198 156.404 37.9789C156.174 37.0304 156.294 36.3104 156.363 35.8807C156.554 36.8697 157.543 38.6575 157.373 39.2875C157.203 39.9165 157.093 40.1066 156.923 40.3169C156.656 39.6254 156.083 39.3876 155.305 39.0643C154.843 38.7301 154.385 38.2002 154.076 37.1406C153.896 38.529 154.306 39.5777 154.635 39.6484C155.655 39.7485 155.974 40.4574 156.083 40.7172C156.194 40.9771 156.223 41.6759 155.774 41.9257C155.614 41.2168 155.315 40.5767 154.345 40.5171C153.376 40.4574 153.456 40.7071 153.796 40.967C154.136 41.2269 154.925 41.7062 155.125 41.8265C153.906 41.8164 153.177 41.7062 152.907 41.2168C152.637 40.7273 152.757 40.1874 152.917 39.8779C151.539 38.4592 150.929 37.2204 150.679 36.6814C150.43 36.1424 149.92 35.2425 149.6 34.8329C149.86 34.8127 150.12 34.8531 150.12 34.8531C150.46 35.3922 151.309 35.7925 151.309 35.7925C151.489 36.7815 152.118 37.6006 152.428 37.9303C151.738 35.9422 151.978 33.854 152.328 32.6557C151.858 33.0157 151.509 33.9945 151.388 34.4638C151.108 34.034 151.099 33.3352 151.128 32.8155C151.178 32.5161 152.357 31.5666 151.937 30.7879C151.518 30.0083 150.619 29.9284 150.029 29.9688C150.014 29.2269 151.656 28.8889 152.427 29.0992C153.197 29.3095 152.778 27.6281 151.166 26.1561C149.554 24.6851 151.236 23.0028 151.236 23.0028C151.236 23.0028 151.166 22.5822 152.006 21.8816C151.327 21.427 151.217 20.8577 151.217 20.8577C151.217 20.8577 150.955 18.1681 152.847 16.7668C154.739 15.3655 155.533 13.9541 155.533 13.9541C156.252 14.6336 156.962 15.8623 156.453 17.4509L156.454 17.4481Z" fill="#868686"/>
<path d="M147.363 23.6713C147.513 23.3912 148.133 23.4316 148.418 23.5813C148.133 23.8908 147.643 24.2654 146.949 24.3609C147.523 24.5262 148.063 24.472 148.53 24.2856C148.339 24.5795 148.097 24.8605 147.804 25.0313C146.963 25.5216 146.333 27.8338 146.333 27.8338C146.333 27.8338 146.543 29.866 147.174 30.8467C147.805 31.8274 147.875 30.7769 149.032 30.1846C148.812 31.0037 148.743 31.7328 148.792 32.2324C148.183 32.7916 146.585 31.8724 146.155 30.6842C145.725 29.495 144.447 27.3876 143.947 26.2186C146.235 25.0799 147.314 23.7815 147.364 23.6713H147.363Z" fill="#868686"/>
<path d="M149.081 29.4859C148.942 28.1369 148.152 27.5676 147.443 27.4978C146.734 27.428 146.025 27.4675 145.285 26.709C145.475 27.5483 146.295 28.8366 147.263 28.8467C148.232 28.8568 148.791 29.226 149.081 29.4859Z" fill="black"/>
<path d="M147.583 17.3233C147.463 17.1213 147.089 16.9165 146.744 16.8283C150.37 11.0744 160.32 6.1745 165.235 4.90085C164.905 5.20021 164.066 6.06981 163.287 7.11848C163.377 6.81913 163.542 6.29387 163.812 5.88983C162.133 7.31316 161.848 8.21215 162.763 10.6998C162.913 9.21583 164.796 5.95962 166.874 4.74107C166.315 5.60058 165.475 7.47845 165.715 9.13685C166.614 5.92014 169.851 2.14419 174.856 1.66485C179.86 1.18551 182.723 2.57853 187.937 6.44539C193.152 10.3113 198.052 15.8412 202.862 18.8531C202.098 18.1341 201.439 17.2094 200.579 16.0111C201.858 16.4702 203.526 16.7999 204.585 16.7007C204.275 16.8504 203.686 17.3398 203.686 17.3398C203.686 17.3398 211.178 15.6915 217.173 17.3701C223.166 19.0487 226.418 23.619 228.307 28.1589C230.195 32.6998 231.308 40.2664 235.125 43.8229C234.685 43.1433 234.406 42.3647 234.566 41.6052C236.863 44.0827 239.4 44.0827 240.36 44.5621C241.32 45.0414 241.239 46.001 242.858 49.0378C242.333 48.5832 241.16 47.1994 240.6 45.7209C240.295 45.406 239.297 45.1691 239.531 46.8146C239.747 48.3426 242.768 51.6695 245.21 55.4905C245.016 54.6659 244.656 53.5722 243.837 52.114C244.616 52.833 247.852 57.249 248.192 58.6677C247.733 59.2471 247.252 58.5281 246.334 58.5676C245.415 58.608 245.854 60.7807 245.196 60.8257C244.016 60.9056 244.218 59.9735 243.777 58.7274C242.738 55.7908 239.881 51.5143 236.884 49.1167C237.883 49.1663 239.162 49.8357 240.081 50.7347C239.282 48.7963 237.351 47.7265 235.406 47.0782C233.727 46.5189 230.51 45.3004 228.673 45.8991C229.373 46.0791 230.691 46.4381 231.51 47.0782C227.794 47.9175 223.959 46.6989 221.32 44.6209C222.039 44.7806 224.437 45.44 225.636 45.4005C219.982 43.1424 217.624 40.6254 214.467 38.7476C214.667 39.4069 215.706 41.0249 217.065 42.2444C216.206 41.9046 213.244 40.1856 211.271 38.7283C208.134 36.4106 207.434 34.3729 204.757 32.6943C203.998 31.8155 202.12 30.0772 199.563 29.697C200.601 30.2361 201.641 31.0157 202.499 32.1543C201.72 31.5547 199.492 30.7953 198.184 30.9955C199.543 31.5547 201.521 32.8137 202.779 34.5722C200.321 33.2737 198.934 34.2012 195.94 34.8118C193.663 35.2765 192.998 34.0478 191.22 33.5685C191.679 32.2893 192.074 29.7475 191.625 28.5933C191.525 29.8118 190.751 31.6952 189.572 32.8743C189.712 32.6943 189.971 31.5951 190.031 30.8963C189.951 31.0965 189.552 31.8357 189.032 32.215C189.072 31.8752 189.192 30.8761 189.152 30.057C189.392 29.5979 190.071 27.9587 190.031 26.3013C190.311 27.5804 190.451 28.3389 190.271 30.0772C191.829 26.9808 190.23 24.9422 188.952 21.4059C189.331 22.6851 189.232 25.2223 188.733 26.9202C188.413 26.001 187.594 23.4234 185.156 21.226C185.676 22.2645 187.254 25.3022 187.654 28.259C187.374 27.6998 185.676 25.0818 184.417 24.3426C185.216 25.4014 186.315 27.5593 186.755 28.7182C187.195 29.877 187.754 31.136 186.994 32.4142C186.695 31.7549 185.995 31.0359 185.296 30.3564C185.571 29.0423 184.657 26.8798 183.179 26.1011C183.758 26.8807 184.457 28.1387 184.358 29.7172C183.594 29.1029 182.779 27.0396 181.361 26.3609C182.28 27.36 182.364 29.3729 184.058 30.6961C185.443 31.7788 185.656 32.1745 186.015 33.5336C185.696 33.0139 184.807 32.1305 184.297 32.1553C184.897 32.6548 187.414 36.9101 185.816 38.4693C186.171 36.5217 184.377 33.9734 183.039 34.0139C182.919 33.7944 182.62 33.3949 182.1 33.2746C182.1 33.6346 181.84 34.5336 180.921 35.2324C181.32 35.1727 182.119 35.0524 182.759 34.653C183.259 35.5924 182.859 37.7494 180.382 38.2095C180.761 37.8697 181.42 37.091 181.621 36.3913C178.844 38.5088 175.726 38.5988 174.168 40.967C174.847 40.4877 176.006 39.9882 176.525 39.8679C177.045 39.7476 178.603 39.6677 179.702 38.8486C180.562 39.1286 182.364 38.9781 183.564 38.3187C183.264 39.7724 180.822 40.9064 178.124 41.0056C178.124 41.0056 179.043 40.1461 180.042 39.9468C178.504 39.5474 173.928 41.3004 173.015 42.6493C173.015 42.6493 172.655 42.17 172.595 41.9147C172.595 41.9147 172.65 41.6603 172.845 41.0901C171.87 41.5198 171.286 42.5336 171.771 43.5777C171.876 43.2627 172.036 42.7889 172.33 42.3637C172.345 43.8477 174.419 44.9909 178.704 46.5198C179.648 46.8348 179.638 48.2682 179.294 48.7926C178.859 48.5226 177.046 47.8339 176.222 47.6089C176.492 47.7586 177.526 48.3885 178.02 49.6016C177.246 49.5566 175.653 48.3426 174.633 47.7586C173.614 47.1746 172.7 46.3647 171.247 45.541C171.666 45.541 172.401 45.6163 173.329 46.1856C173.045 45.6163 172.175 45.1213 171.262 44.7467C170.348 44.372 168.385 44.2076 168.084 42.529C167.365 42.8284 167.785 43.9827 168.309 44.462C167.56 44.5217 166.526 44.057 166.256 42.8284C165.986 41.5997 166.196 40.7907 167.095 40.1911C167.994 39.5915 169.239 40.3261 172.01 38.1681C173.734 36.8045 174.168 35.4712 175.946 33.9725C176.865 33.1929 178.303 32.3545 180.521 32.6741C179.363 31.6153 175.687 31.9744 175.286 30.0965C174.727 30.6961 174.287 31.7549 175.067 32.8339C174.508 32.8339 173.948 32.9542 173.308 33.2535C171.65 30.0166 174.527 28.6585 177.444 28.1984C177.105 28.0588 174.887 27.5795 174.428 26.18C174.428 26.4996 173.808 28.1984 172.73 28.2783C173.289 25.9404 172.59 24.1424 172.93 21.1057C173.35 21.7448 173.969 22.9036 174.269 25.0616C174.908 23.2838 173.649 21.1057 173.649 18.6878C173.649 17.6888 173.609 14.7319 175.248 12.4739C173.37 13.4133 171.052 18.4675 171.511 24.5813C170.812 23.3426 170.127 21.012 169.953 19.7264C169.658 17.5483 170.228 14.8963 169.134 13.3325C169.374 14.4913 169.026 15.529 168.954 16.6043C168.879 17.7135 168.729 19.3462 169.433 21.3242C169.073 20.5446 167.655 19.0065 167.475 15.4105C167.295 11.8145 168.714 9.55651 167.615 7.0386C167.914 10.7943 165.537 12.293 165.197 16.7686C164.997 15.989 164.338 12.9523 164.398 10.4353C163.08 14.6309 164.358 18.6667 166.157 22.8026C166.097 21.9238 165.717 18.7071 166.296 17.0083C166.516 17.9477 167.158 19.371 167.795 20.7145C168.756 22.742 167.515 24.2305 167.555 26.259C167.555 26.259 166.956 25.4197 166.616 24.2407C166.636 24.9 166.526 25.2792 166.736 26.698C165.328 24.0956 164.519 24.0653 163.634 22.0129C162.513 19.4096 161.732 17.248 161.177 14.5951C161.102 15.6291 161.162 17.068 162.811 22.6566C161.971 21.338 160.968 19.09 160.473 17.0671C160.233 18.2507 160.833 20.3637 161.566 22.5519C160.278 22.0726 158.165 20.3343 156.936 20.3343C157.7 20.709 158.33 21.1139 159.169 22.237C158.674 21.7273 157.115 20.9486 155.647 20.6034C156.741 19.989 157.31 18.7751 157.52 17.7411C157.73 16.7071 157.236 14.0698 155.393 12.8412C154.61 14.3168 152.817 14.6621 151.528 16.3297C151.239 16.023 150.65 15.6401 150.066 15.6208C150.484 15.8779 150.912 16.4592 151.119 16.9367C151.053 17.0506 150.989 17.1672 150.927 17.2921C150.583 16.663 149.224 16.0487 148.255 16.2581C148.955 16.3977 149.934 17.2673 150.333 17.956C150.213 18.0763 149.794 18.4454 149.614 19.0551C149.524 18.8853 149.004 18.0662 148.265 17.776C148.505 18.0652 149.009 18.7824 149.107 19.4794C149.017 19.2397 148.555 18.6153 148.156 18.3655C148.266 18.5354 148.506 19.0147 148.475 19.4748C148.365 19.3352 148.076 18.9551 147.587 18.7852C147.906 19.1148 148.215 19.9202 148.149 20.4427C147.848 19.7567 146.598 18.2957 145.013 18.5473C145.555 17.5703 146.553 17.0441 147.587 17.3214L147.583 17.3233Z" fill="white"/>
<path d="M230.288 38.8642C229.438 37.2645 228.938 35.3582 227.766 33.9771C228.545 34.3316 229.338 34.81 229.807 35.5262C228.971 33.0395 226.178 31.7549 224.87 29.4803C224.134 28.203 223.917 26.7007 223.41 25.3168C222.871 23.8448 222.094 22.2829 220.964 21.1947C222.391 21.5271 223.639 22.4215 224.623 23.5088C225.605 24.5951 226.35 25.8733 227.061 27.1543C227.199 27.4022 227.342 27.6566 227.563 27.8338C227.751 27.9844 228.014 28.0643 228.24 27.9991C228.262 28.0515 228.285 28.1047 228.306 28.1571C229.952 32.1158 231.01 38.3747 233.782 42.27C232.218 41.776 231.07 40.3371 230.287 38.8642H230.288Z" fill="#868686"/>
<path d="M168.618 40.3949C168.618 40.3949 168.905 42.7623 170.773 42.4528C171.005 40.3931 173.355 40.0102 173.355 40.0102C173.355 40.0102 174.724 38.6667 176.67 38.2719C178.616 37.877 180.18 36.6383 180.18 36.6383C180.18 36.6383 179.178 36.6548 178.388 36.1488C180.902 35.4987 181.278 32.8917 181.278 32.8917C181.278 32.8917 182.195 32.1286 183.345 33.5014C185.357 34.5152 185.716 36.1488 185.716 36.1488C185.716 36.1488 185.829 35.1516 185.512 34.0643C186.231 35.5584 186.79 37.5152 185.814 38.4666C186.169 36.5189 184.375 33.9707 183.037 34.0111C182.917 33.7916 182.618 33.3922 182.098 33.2719C182.098 33.6318 181.838 34.5308 180.919 35.2296C181.318 35.17 182.117 35.0497 182.757 34.6502C183.257 35.5896 182.858 37.7466 180.38 38.2067C180.759 37.8669 181.419 37.0882 181.619 36.3885C178.842 38.506 175.724 38.596 174.166 40.9643C174.846 40.4849 176.004 39.9854 176.523 39.8651C177.043 39.7448 178.601 39.6649 179.7 38.8458C180.56 39.1259 182.363 38.9753 183.562 38.316C183.262 39.7696 180.82 40.9037 178.122 41.0028C178.122 41.0028 179.041 40.1433 180.04 39.9441C178.502 39.5446 173.926 41.2976 173.013 42.6466C173.013 42.6466 172.653 42.1672 172.593 41.9119C172.593 41.9119 172.648 41.6576 172.843 41.0873C171.868 41.5171 171.284 42.5308 171.769 43.5749C171.874 43.26 172.034 42.7861 172.329 42.361C172.343 43.8449 174.417 44.9882 178.702 46.5171C179.646 46.8321 179.636 48.2655 179.292 48.7898C178.858 48.5198 177.044 47.8311 176.22 47.6062C176.49 47.7558 177.524 48.3858 178.018 49.5988C177.244 49.5538 175.651 48.3399 174.632 47.7558C173.612 47.1718 172.699 46.3619 171.245 45.5382C171.665 45.5382 172.399 45.6135 173.328 46.1828C173.043 45.6135 172.173 45.1186 171.26 44.7439C170.346 44.3692 168.383 44.2049 168.082 42.5263C167.363 42.8256 167.783 43.9799 168.307 44.4592C167.558 44.5189 166.524 44.0543 166.254 42.8256C166.203 42.5915 166.169 42.3729 166.154 42.1681C166.837 40.7586 168.618 40.3931 168.618 40.3931V40.3949ZM183.991 30.641C184.013 30.6585 184.034 30.6768 184.056 30.6943C185.442 31.7769 185.655 32.1727 186.014 33.5317C185.694 33.012 184.805 32.1286 184.296 32.1534C183.501 31.0395 182.632 30.7117 182.632 30.7117C183.07 30.5979 183.54 30.5721 183.991 30.641ZM185.295 30.3554C185.569 29.0414 184.655 26.8788 183.177 26.1001C183.757 26.8798 184.455 28.1378 184.356 29.7163C183.592 29.102 182.778 27.0386 181.359 26.36C182.063 27.1259 182.279 28.4877 183.104 29.6777C182.952 29.5804 182.803 29.4794 182.661 29.3701C182.062 28.9147 181.56 28.3352 181.195 27.6777C180.675 26.7411 180.347 25.4078 179.392 24.9202C180.464 24.7962 181.596 25.3398 182.069 26.3104C182.101 25.1479 181.61 23.9128 180.695 23.1956C182.076 23.5574 183.315 24.4592 183.965 25.7301C183.724 23.866 182.712 22.1304 181.203 21.0101C182.547 21.2939 183.908 22.0285 184.703 23.1497C184.678 21.9734 183.888 20.978 183.313 19.9514C181.903 17.4353 181.601 14.2406 179.508 12.2571C179.508 12.2571 178.222 11.4876 177.184 11.8549C177.56 10.8329 179.254 10.9413 179.254 10.9413C179.903 9.07716 180.833 7.12949 182.989 6.6272C180.603 8.62628 183.634 16.6851 184.467 18.4941C185.3 20.3031 188.016 22.5042 188.016 22.5042C188.016 22.5042 188.088 20.2048 187.226 18.7172C188.447 18.8816 190.099 20.2057 192.255 25.5933C194.41 30.9817 200.271 28.3986 200.271 28.3986C200.271 28.3986 199.51 27.6052 198.505 26.7007C199.869 26.5143 206.264 27.8926 209.425 30.8862C209.425 29.9284 208.543 28.9477 208.543 28.9477C208.543 28.9477 210.575 28.8972 214.239 31.1993C217.903 33.5014 221.351 38.0212 222.958 38.1828C224.565 38.3444 221.422 34.2131 218.98 31.2021C223.506 32.8605 228.032 40.248 229.971 42.4537C231.911 44.6594 237.587 45.8523 238.88 47.2894C240.173 48.7265 243.549 54.9046 245.133 56.2701C246.018 57.0323 246.869 57.1452 247.447 57.0956C247.826 57.7421 248.105 58.3041 248.192 58.6686C247.733 59.2481 247.252 58.529 246.334 58.5685C245.415 58.6089 245.854 60.7816 245.196 60.8266C244.016 60.9065 244.218 59.9744 243.777 58.7283C242.738 55.7917 239.881 51.5153 236.884 49.1176C237.883 49.1672 239.162 49.8367 240.081 50.7356C239.282 48.7972 237.351 47.7274 235.406 47.0791C233.727 46.5198 230.51 45.3013 228.673 45.9C229.373 46.08 230.691 46.439 231.51 47.0791C227.794 47.9184 223.959 46.6998 221.32 44.6218C222.039 44.7815 224.437 45.4409 225.636 45.4014C219.982 43.1433 217.624 40.6263 214.467 38.7485C214.667 39.4078 215.706 41.0258 217.065 42.2453C216.206 41.9055 213.244 40.1865 211.271 38.7292C208.134 36.4115 207.434 34.3738 204.757 32.6952C203.998 31.8164 202.12 30.0781 199.563 29.698C200.601 30.237 201.641 31.0166 202.499 32.1553C201.72 31.5556 199.492 30.7962 198.184 30.9964C199.543 31.5556 201.521 32.8146 202.779 34.5731C200.321 33.2746 198.934 34.2021 195.94 34.8127C193.663 35.2774 192.998 34.0487 191.22 33.5694C191.679 32.2902 192.074 29.7485 191.625 28.5942C191.525 29.8127 190.751 31.6961 189.572 32.8752C189.712 32.6952 189.971 31.596 190.031 30.8972C189.951 31.0974 189.552 31.8366 189.032 32.2159C189.071 31.8761 189.192 30.877 189.152 30.0579C189.392 29.5988 190.071 27.9597 190.031 26.3022C190.311 27.5813 190.451 28.3398 190.271 30.0781C191.829 26.9817 190.23 24.9431 188.952 21.4068C189.331 22.686 189.232 25.2232 188.733 26.9211C188.413 26.0019 187.594 23.4243 185.156 21.2269C185.676 22.2654 187.254 25.3031 187.654 28.2599C187.374 27.7007 185.676 25.0827 184.417 24.3435C185.216 25.4023 186.315 27.5602 186.755 28.7191C187.195 29.8779 187.754 31.1369 186.994 32.4151C186.695 31.7558 185.995 31.0368 185.296 30.3573L185.295 30.3554Z" fill="#868686"/>
<path d="M157.519 17.7429C157.597 17.3573 157.577 16.7494 157.426 16.0753C157.627 16.3205 157.857 16.5593 158.163 16.6052C157.816 15.1185 158.168 13.4628 159.093 12.248C158.668 13.809 159.198 15.4289 159.781 16.9376C160.604 15.045 159.797 12.6933 160.814 10.8981C160.791 11.6667 161.067 12.3416 161.39 13.0395C161.372 12.0864 161.641 11.1167 162.107 10.2847L162.224 10.9385C162.224 10.9385 162.193 13.9688 162.449 14.6979C162.705 15.5124 163.219 15.5978 163.433 15.2122C163.647 14.8265 163.303 11.528 164.397 10.4344C163.078 14.63 164.356 18.6658 166.155 22.8017C166.095 21.9229 165.715 18.7062 166.295 17.0074C166.514 17.9468 167.156 19.3701 167.793 20.7136C168.755 22.7411 167.513 24.2296 167.554 26.2581C167.554 26.2581 166.954 25.4188 166.614 24.2397C166.634 24.899 166.524 25.2783 166.734 26.697C165.326 24.0946 164.517 24.0643 163.633 22.012C162.511 19.4087 161.73 17.2471 161.175 14.5942C161.1 15.6281 161.16 17.0671 162.809 22.6557C161.969 21.3371 160.966 19.0891 160.471 17.0662C160.231 18.2498 160.831 20.3628 161.565 22.551C160.276 22.0717 158.163 20.3334 156.935 20.3334C157.699 20.708 158.329 21.113 159.167 22.236C158.672 21.7264 157.114 20.9477 155.645 20.6024C156.739 19.9881 157.308 18.7742 157.519 17.7402V17.7429ZM147.584 17.3233C147.464 17.1213 147.09 16.9165 146.744 16.8283C146.76 16.8035 146.777 16.7787 146.792 16.7549C147.417 16.7062 148.056 16.8338 148.61 17.1268C148.381 16.7246 148.027 16.3196 147.592 16.1635C148.265 15.9018 149.024 15.8641 149.72 16.0579C149.49 15.7393 149.232 15.4831 148.893 15.2847C149.902 15.1359 150.965 15.4133 151.774 16.0322C151.689 16.1268 151.607 16.2269 151.526 16.3306C151.238 16.0239 150.648 15.641 150.064 15.6217C150.482 15.8788 150.91 16.4601 151.117 16.9376C151.051 17.0515 150.987 17.1681 150.925 17.293C150.581 16.664 149.222 16.0496 148.253 16.259C148.953 16.3986 149.932 17.2682 150.331 17.9569C150.211 18.0772 149.792 18.4463 149.612 19.0561C149.522 18.8862 149.003 18.0671 148.263 17.7769C148.503 18.0662 149.007 18.7833 149.105 19.4803C149.015 19.2406 148.553 18.6162 148.154 18.3664C148.264 18.5363 148.504 19.0157 148.474 19.4757C148.363 19.3361 148.074 18.956 147.585 18.7861C147.904 19.1158 148.213 19.9211 148.148 20.4436C147.847 19.7576 146.596 18.2966 145.011 18.5483C145.553 17.5712 146.551 17.045 147.585 17.3224L147.584 17.3233ZM164.76 14.6336C165.324 13.6456 165.835 12.6401 166.427 11.6603C166.663 11.2691 166.901 10.8742 167.114 10.4693C166.463 12.2636 165.413 13.9082 165.196 16.7686C165.107 16.4224 164.928 15.6291 164.761 14.6336H164.76ZM167.474 15.4105C167.341 12.765 168.074 10.8439 168.033 9.01105C168.531 9.6015 168.812 10.3251 169.056 11.0762C169.338 11.9459 169.766 12.8678 170.6 13.2415C171.454 13.6235 172.448 13.3058 173.307 12.9376C174.168 12.5694 175.081 12.1405 175.999 12.3187C174.794 14.5023 174.992 17.1782 175.705 19.5666C176.195 21.2067 176.952 22.877 176.635 24.5593C176.512 23.4234 175.937 22.4151 175.141 21.596C175.074 22.8311 175.127 24.1865 175.9 25.1525C176.4 25.7788 177.146 26.1451 177.816 26.585C178.487 27.0249 179.139 27.6272 179.253 28.4206C179.253 28.4206 178.551 28.2792 177.443 28.1975C177.104 28.0579 174.886 27.5786 174.427 26.1791C174.427 26.4987 173.807 28.1975 172.729 28.2774C173.288 25.9395 172.589 24.1415 172.929 21.1047C173.349 21.7439 173.968 22.9027 174.268 25.0607C174.907 23.2829 173.648 21.1047 173.648 18.6869C173.648 17.6878 173.608 14.731 175.247 12.4729C173.369 13.4123 171.051 18.4665 171.51 24.5804C170.811 23.3417 170.126 21.0111 169.952 19.7255C169.657 17.5473 170.227 14.8954 169.133 13.3315C169.373 14.4904 169.026 15.528 168.953 16.6033C168.878 17.7126 168.728 19.3453 169.432 21.3233C169.072 20.5437 167.655 19.0056 167.475 15.4096L167.474 15.4105ZM173.978 29.4261C173.655 29.9744 173.438 30.675 174.236 30.8853C175.307 29.36 176.122 29.1461 176.122 29.1461C176.167 31.1755 179.723 30.8853 180.521 32.6741C179.362 31.6153 175.686 31.9744 175.285 30.0965C174.726 30.6961 174.286 31.7549 175.066 32.8339C174.507 32.8339 173.947 32.9542 173.307 33.2535C172.385 31.4528 172.867 30.2333 173.977 29.4271L173.978 29.4261Z" fill="#868686"/>
<path d="M132.808 25.8191C137.503 25.1396 141.659 22.3031 142.778 21.2636C143.896 20.225 145.305 20.4243 145.724 20.4941C145.235 19.9348 144.465 19.8044 143.916 19.8549C144.056 19.6648 144.465 19.2957 145.255 19.3554C146.044 19.4151 146.364 19.8871 146.314 20.3646C146.204 21.4031 144.596 22.4224 143.642 23.0469C141.35 24.5473 137.782 26.0285 136.014 26.2535C140.36 26.6584 144.87 24.6805 147.014 22.2076C147.073 22.5372 146.999 22.9872 146.999 22.9872C144.497 25.6695 140.9 26.3738 139.896 26.5684C138.892 26.7631 135.16 27.1231 132.808 25.8191Z" fill="#FFF2E3"/>
<path d="M152.423 35.1847C152.393 34.3757 152.558 32.922 152.767 32.4574C153.621 31.3637 154.686 30.6741 154.805 28.3812C155.374 29.7595 155.27 30.9138 154.25 32.2774C154.46 31.6181 154.468 31.2737 154.483 30.9891C154.026 32.5529 152.752 33.5667 152.422 35.1847H152.423Z" fill="black"/>
<path d="M155.545 29.8357C155.486 28.7971 155.086 27.698 154.786 27.0386C155.835 27.8779 155.935 29.057 155.545 29.8357Z" fill="black"/>
<path d="M149.871 32.8917C149.314 32.5318 149.209 32.0304 149.382 31.1938C150.181 31.7136 150.201 32.3123 149.871 32.8917Z" fill="#FFF2E3"/>
<path d="M153.367 39.7182C153.569 39.6585 154.034 39.5979 154.034 39.5979C153.958 39.3206 153.18 38.8265 152.955 38.5786C153.082 39.1333 153.367 39.7173 153.367 39.7173V39.7182Z" fill="black"/>
<path d="M155.368 16.9183C155.173 17.7347 154.886 18.6869 153.937 19.2856C155.294 18.956 155.857 17.9973 155.368 16.9183Z" fill="#868686"/>
<path d="M160.455 20.9192C159.421 18.1323 158.912 16.6189 158.582 15.0156C158.357 17.4279 158.822 19.1818 160.455 20.9192Z" fill="black"/>
<path d="M162.224 10.9394C161.489 15.5243 163.378 18.9862 164.357 21.0643C162.979 17.0487 163.079 15.5996 162.779 14.1763C162.605 13.3508 162.359 12.528 162.224 10.9394Z" fill="black"/>
<path d="M170.091 28.3968C169.266 26.0138 169.552 22.9275 169.102 21.7136C169.431 22.4326 170.031 22.8825 170.3 24.2306C170.569 25.5786 170.57 27.0781 170.091 28.3968Z" fill="#868686"/>
<path d="M200.27 27.4977C202.518 28.9964 204.915 31.1543 205.335 31.7833C206.594 32.8026 209.231 35.5896 210.43 36.6383C208.781 34.63 207.493 32.1424 206.174 30.7347C204.856 29.326 201.109 27.6474 200.271 27.4977H200.27Z" fill="black"/>
<path d="M208.542 27.1378C206.436 24.1699 205.95 21.1966 205.904 19.9449C203.986 22.8522 205.335 25.0698 208.542 27.1378Z" fill="black"/>
<path d="M228.252 32.1332C226.413 26.3793 224.175 23.8219 222.957 22.9229C224.355 25.1011 224.376 26.439 225.174 28.0781C225.973 29.7172 227.412 30.3756 228.252 32.1341V32.1332Z" fill="black"/>
<path d="M161.319 30.8843C161.399 30.3049 161.409 29.4757 161.409 28.9459C161.958 29.8449 161.789 30.5639 161.319 30.8843Z" fill="#868686"/>
<path d="M162.448 31.1736C162.958 29.9945 163.347 30.2241 163.537 28.416C164.006 30.1047 163.397 30.9532 162.448 31.1736Z" fill="#868686"/>
<path d="M163.817 31.4537C164.636 31.2636 165.375 30.6144 165.586 30.3444C165.475 31.0239 165.156 31.3435 164.886 31.5336C165.506 31.9633 166.565 31.8137 167.194 31.2838C167.073 32.023 166.554 32.2728 166.264 32.3628C168.222 33.3518 169.291 35.9689 170.02 36.6585C168.542 36.3086 167.712 34.9202 167.333 34.3408C166.954 33.7613 166.424 32.9422 165.845 32.4528C165.165 32.4124 164.681 31.8807 164.554 31.7163C164.276 31.8063 163.881 31.7916 163.817 31.4537Z" fill="#868686"/>
<path d="M159.341 40.395C158.692 39.0359 159.07 37.9423 159.189 37.4932C159.354 36.8642 159.182 36.5694 158.992 36.1498C159.621 36.5391 159.941 37.3683 159.941 38.0782C159.941 38.788 159.661 40.136 159.341 40.3959V40.395Z" fill="#868686"/>
<path d="M176.669 42.2875C177.029 42.2122 177.554 42.0028 177.554 42.0028C185.705 44.5207 192.119 44.0111 199.97 42.2425C204.226 41.2838 205.814 41.8228 206.803 42.0331C203.746 42.2131 200.39 43.1718 197.932 43.7411C195.475 44.3104 185.914 46.6484 176.668 42.2875H176.669Z" fill="#868686"/>
<path d="M180.228 48.0341C180.235 48.226 180.22 48.5162 180.18 48.6658C180.24 49.0258 180.469 49.3949 180.63 49.5547C180.929 48.9551 181.789 48.7751 182.348 49.844C182.453 49.1571 182.262 48.3215 181.848 48.136C181.404 47.9358 181.074 48.3261 180.228 48.0331V48.0341Z" fill="#868686"/>
<path d="M182.987 48.6163C183.105 48.8137 183.222 49.3803 183.222 49.3803C184.286 48.9156 185.365 48.9257 185.945 48.9661C185.555 48.507 185.136 48.0671 185.136 48.0671C184.677 48.0671 183.473 48.3968 182.988 48.6163H182.987Z" fill="#999999"/>
<path d="M226.343 43.9955C228.217 45.1195 229.46 44.3702 230.883 44.8945C228.995 43.2609 226.598 41.3132 225.099 40.0093C226.342 41.9726 227.751 43.1112 227.616 43.5309C227.481 43.9505 226.762 43.9955 226.342 43.9955H226.343Z" fill="black"/>
<path d="M246.713 61.9726C246.393 62.1223 245.983 62.1223 245.703 62.0828C245.724 62.8422 245.374 63.7715 245.224 64.1204C245.074 64.4703 245.154 64.9294 245.154 64.9294H245.783C245.734 64.1599 246.483 63.6108 246.713 61.9726Z" fill="#868686"/>
<path d="M226.314 21.6235C230.48 26.2691 236.533 26.9578 242.707 25.8788C247.263 24.9798 250.23 25.0698 253.616 26.9881C249.78 23.8109 245.704 24.5005 243.186 24.9504C238.211 25.9394 232.488 25.9091 226.313 21.6235H226.314Z" fill="white"/>
<path d="M257.362 34.6401C257.042 35.2894 256.333 35.5795 256.059 36.0561C255.781 36.5391 255.678 37.1167 255.854 38.1066C255.944 37.3178 256.163 36.8275 256.403 36.4785C256.253 37.3674 256.633 38.586 256.623 39.0359C256.813 38.7366 256.832 38.0864 256.852 37.7072C257.252 38.4161 257.141 40.8036 256.643 41.7228C258.271 40.5942 258.651 37.4069 258.601 36.3986C258.23 37.5272 257.851 37.5676 257.581 38.9064C257.242 37.0488 258.281 36.3895 258.031 34.9202C257.622 35.8991 257.152 36.0892 257.062 36.7981C256.813 35.7494 257.442 35.2701 257.362 34.6401Z" fill="#868686"/>
<path d="M182.718 16.7484C180.341 14.4904 180.04 12.3132 177.183 11.8531C177.903 11.3334 179.241 11.4133 179.581 11.5537C180.361 9.81545 181 8.79617 181.539 8.23694C180.98 10.1947 181.139 11.753 181.179 12.2131C181.398 14.0313 182.377 15.27 182.717 16.7484H182.718Z" fill="black"/>
<path d="M176.971 19.2829C176.468 18.3701 176.168 17.3453 176.102 16.3049C176.067 15.7668 176.099 15.2057 176.348 14.7273C176.597 14.2489 177.105 13.8751 177.642 13.9211C178.055 13.956 178.411 14.2232 178.705 14.5152C179.959 15.7613 180.486 17.5712 181.612 18.9339C182.081 19.5005 182.685 20.0652 182.694 20.8008C182.247 20.3747 181.473 20.3481 180.856 20.3517C180.238 20.3554 179.602 20.4252 179.016 20.2305C178.237 19.9716 177.7 19.663 176.972 19.2819L176.971 19.2829Z" fill="#979797"/>
<path d="M178.565 21.9109C178.195 21.2672 177.497 20.7282 176.783 20.528C177.201 19.9155 178.049 19.7117 178.771 19.8779C179.493 20.0441 180.107 20.5133 180.644 21.0239C181.39 21.731 182.037 22.5427 182.56 23.4261C181.784 22.9027 180.91 22.4472 180.037 22.1084C179.517 21.9054 179.118 21.8292 178.565 21.9119V21.9109Z" fill="#979797"/>
<path d="M177.429 29.1589C178.633 28.7292 179.962 29.0423 181.202 29.3573C181.718 29.4886 182.282 29.6529 182.572 30.1001C181.725 29.9569 180.894 29.9973 180.048 30.1424C180.901 30.3811 181.686 30.7319 182.431 31.2094C183.177 31.6869 183.824 32.3518 184.164 33.1699C183.795 32.5749 183.112 32.1433 182.442 31.9404C181.771 31.7374 181.058 31.7209 180.359 31.7723C180.455 31.5418 180.183 31.2884 179.967 31.1635C179.272 30.7613 178.577 30.3591 177.881 29.9569C177.835 29.9303 177.751 29.9266 177.756 29.9789C178.259 29.6842 178.835 29.4877 179.418 29.4959C178.768 29.1332 178.166 29.0496 177.431 29.1589H177.429Z" fill="#979797"/>
<path d="M177.486 21.9798C177.838 22.3646 178.333 22.5841 178.824 22.7631C179.316 22.9422 179.824 23.0937 180.26 23.3802C180.696 23.6667 181.06 24.1213 181.086 24.6428C180.57 24.1295 179.869 23.7861 179.143 23.7402C179.393 23.8981 179.59 24.1405 179.701 24.4142C179.468 24.1057 179.099 24.169 178.717 24.1084C178.061 24.0056 177.375 23.6566 177.166 23.0267C177.439 23.1635 177.745 23.1855 178.048 23.1497C177.312 22.731 176.811 21.9293 176.718 21.0873C176.877 21.4941 177.191 21.6575 177.487 21.9789L177.486 21.9798Z" fill="#979797"/>
<path d="M185.428 14.5372C185.451 15.3618 185.349 16.2397 185.372 17.0643C184.587 15.619 183.796 14.1589 183.348 12.5758C183.299 12.405 183.255 12.225 183.293 12.0515C183.33 11.8779 183.476 11.7145 183.653 11.7163C183.809 11.7181 183.935 11.8384 184.043 11.9514C184.97 12.9174 185.899 13.8834 186.826 14.8495C186.918 14.5887 186.811 14.3022 186.683 14.057C186.247 13.2241 185.561 12.5556 184.94 11.8494C184.319 11.1433 184.139 10.3582 183.776 9.49131C183.509 8.85495 183.536 8.10196 183.849 7.48764C184.098 6.99911 184.517 6.5914 184.649 6.05972C184.669 5.97983 184.681 5.89259 184.649 5.81729C184.612 5.73006 184.527 5.67588 184.442 5.63272C183.465 5.12951 182.261 5.44264 181.294 5.96606C179.755 6.79985 178.366 8.29939 177.397 9.7567C175.629 9.63273 173.848 10.1304 172.306 11.0019C170.607 10.3563 169.297 8.7769 168.977 6.98718C168.786 5.92014 168.951 4.80168 169.406 3.81913C170.862 2.6924 172.694 1.86963 174.856 1.66302C179.86 1.18368 182.723 2.5767 187.937 6.44356C193.152 10.3095 198.052 15.8394 202.862 18.8513C204.135 20.8017 205.02 25.765 205.02 25.765C201.344 22.8651 198.824 24.6116 196.197 23.5418C193.09 22.2755 191.736 19.2866 190.527 14.8807C190.134 13.4482 187.959 12.5317 189.356 15.5124C189.627 16.09 189.901 16.7255 189.746 17.3444C189.716 17.4665 189.666 17.5896 189.569 17.6695C189.368 17.8348 189.067 17.7484 188.83 17.6419C187.416 17.0083 186.163 15.9009 185.428 14.5372Z" fill="#979797"/>
<path d="M162.617 10.2856C162.662 10.4187 162.71 10.5565 162.763 10.6997C162.913 9.21578 164.796 5.95958 166.874 4.74103C166.593 5.1717 166.242 5.85949 165.992 6.64737C164.656 8.22864 163.313 11.1304 163.074 12.494C162.708 11.6483 162.618 10.2865 162.618 10.2865L162.617 10.2856Z" fill="#979797"/>
<path d="M148.375 14.719C152.776 9.90726 160.934 6.01469 165.236 4.8999C164.908 5.19742 164.078 6.05693 163.304 7.09642C163.433 6.69329 163.61 6.22222 163.812 5.88888C162.213 6.61249 161.666 6.97153 161.32 8.23691C161.14 7.02571 159.332 9.40588 159.493 10.9394C158.912 9.74931 158.971 8.59412 158.971 8.59412C158.5 9.74197 157.795 10.8017 156.627 11.2204C155.885 11.4867 155.006 11.3756 154.358 11.8246C153.963 12.0973 153.718 12.539 153.357 12.8549C152.806 13.337 152.047 13.4839 151.327 13.6125C151.726 13.6244 152.025 13.9422 152.259 14.2645C151.456 14.0009 150.677 14.0882 149.834 14.1479C150.369 14.3343 150.882 14.5813 151.362 14.8806C150.386 14.5813 149.367 14.5418 148.376 14.7199L148.375 14.719Z" fill="#979797"/>
<path d="M179.698 25.8944C180.195 26.4427 180.517 27.1488 180.603 27.8844C179.871 27.843 179.275 27.27 178.886 26.6493C178.532 26.0836 178.17 25.4491 177.883 24.854C178.501 24.8035 179.308 25.4665 179.698 25.8954V25.8944Z" fill="#979797"/>
<path d="M217.173 17.3683C218.237 17.6667 219.215 18.0561 220.115 18.5207C220.762 19.0854 221.345 19.7227 221.847 20.4197C220.837 19.7493 219.69 19.2875 218.499 19.0689C220.337 20.2838 221.275 22.4179 221.941 24.5189C222.607 26.6199 222.902 28.8219 223.533 30.933C222.149 31.2416 220.786 30.439 219.594 29.6713C218.209 28.7788 216.825 27.8862 215.44 26.9945C215.05 28.2241 215.903 29.1764 216.801 30.1011C217.7 31.0258 218.733 32.0625 218.678 33.3508C217.294 31.619 215.253 30.6024 213.789 28.9376C212.944 27.978 212.303 26.8596 211.668 25.7494C211.107 24.7677 210.545 23.7852 209.984 22.8035C210.148 24.4234 210.36 25.7696 211.045 27.2462C209.487 26.3903 208.754 24.9266 208.126 23.2636C207.498 21.6006 207.073 19.8375 206.135 18.3279C205.539 18.8439 204.937 19.2526 204.548 19.9376C204.566 18.8448 204.971 17.8439 205.622 17.0055C208.24 16.6318 213.059 16.2177 217.172 17.3692L217.173 17.3683Z" fill="#979797"/>
<path d="M155.096 33.0543C154.67 33.4592 154.383 34.0084 154.293 34.5896C154.255 34.8339 154.248 35.0938 154.12 35.305C153.992 35.5171 153.684 35.6466 153.494 35.4886C153.364 35.3821 153.248 35.1553 153.104 35.2407C153.056 35.2691 153.033 35.3242 153.014 35.3757C152.701 36.2636 152.883 37.3096 153.478 38.0396C153.414 37.6943 153.449 37.3389 153.579 37.013C153.651 36.8321 153.815 36.6355 154.001 36.6934C154.087 36.72 154.147 36.7962 154.199 36.8697C154.638 37.4804 155.013 38.2141 155.709 38.4996C155.877 37.8045 155.345 37.1002 155.102 36.428C154.892 35.8513 154.879 35.2049 155.063 34.619C155.149 34.3454 155.277 34.0837 155.325 33.8008C155.373 33.518 155.314 33.2388 155.097 33.0515L155.096 33.0543Z" fill="white"/>
<path d="M154.273 23.3196C155.2 23.5143 156.013 24.1874 156.377 25.0616C156.742 25.9358 156.648 26.9872 156.135 27.7834C155.92 27.0552 155.435 26.45 154.788 26.0533C154.571 24.5409 153.462 23.3233 152.045 22.7503C152.795 22.7843 153.537 22.9285 154.198 23.2829C154.284 23.3297 154.367 23.3004 154.272 23.3196H154.273Z" fill="white"/>
<path d="M149.924 24.8862C149.934 25.4555 150.142 26.0194 150.505 26.4574C150.952 26.9982 151.636 27.3738 151.868 28.0368C151.339 27.5685 150.509 27.551 149.871 27.8559C150.208 27.8614 150.495 28.0965 150.696 28.3665C150.479 28.237 150.261 28.3288 150.048 28.4656C149.836 28.6025 149.682 28.8109 149.534 29.0157C149.516 28.3499 149.16 27.7632 148.577 27.4418C148.203 27.2352 147.737 27.1342 147.5 26.7788C147.595 26.0396 148.172 25.4409 148.73 24.9477C149.32 24.4262 149.912 23.9046 150.502 23.383C150.123 23.8045 149.916 24.3196 149.925 24.8862H149.924Z" fill="#979797"/>
<path d="M175.775 35.1314C176.588 34.0359 177.891 33.3178 179.251 33.214C179.565 33.1901 179.993 33.3104 179.968 33.6235C179.907 34.3517 179.238 34.6998 178.64 35.1213C177.776 35.7301 176.912 36.3389 176.047 36.9477C176.529 36.866 177.012 36.9771 177.498 37.0193C176.721 37.6832 175.671 37.6915 174.71 38.0386C174.166 38.2351 173.666 38.5326 173.168 38.8274C172.046 39.495 170.869 40.2177 170.257 41.371C170.046 41.1222 170.118 40.7292 170.265 40.4372C170.412 40.1451 170.666 39.9238 170.912 39.7099C171.979 38.7852 173.046 37.8596 174.112 36.9348C174.78 36.3554 175.247 35.8412 175.775 35.1304V35.1314Z" fill="#979797"/>
<path d="M136.015 26.2535C140.361 26.6585 144.871 24.6805 147.014 22.2076C147.074 22.5372 147 22.9872 147 22.9872C144.497 25.6695 140.901 26.3738 139.897 26.5685C138.904 26.7613 135.245 27.1148 132.889 25.8623C133.12 25.9707 133.916 26.248 136.015 26.2535Z" fill="#999999"/>
<path d="M181.419 19.4509C181.16 19.057 180.674 18.8743 180.207 18.8045C179.741 18.7347 179.262 18.7512 178.804 18.6373C178.996 18.9073 179.194 19.0965 179.485 19.2553C178.581 19.2103 177.668 19.1369 177.09 18.4417C177.03 17.7347 177.094 16.933 177.035 16.2259C177.004 15.8742 176.996 15.4665 177.26 15.2315C177.58 14.9459 178.101 15.1075 178.427 15.3866C178.676 15.5997 178.872 15.8724 178.997 16.1745C179.121 16.4748 179.174 16.8026 179.318 17.0937C179.79 18.046 180.982 18.4821 181.419 19.4509H181.419Z" fill="#A6A6A6"/>
<path d="M170.199 3.26265C171.509 2.42702 173.07 1.83473 174.856 1.66393C179.86 1.18459 182.723 2.57762 187.937 6.44447C192.725 9.99453 197.248 14.9459 201.679 18.0634C202.06 18.9505 202.376 19.8623 202.54 20.8118C202.682 21.6364 202.584 22.6906 201.811 23.012C201.564 23.1148 201.288 23.1185 201.021 23.1066C198.046 22.9688 195.402 20.9477 193.816 18.4271C193.002 17.1323 192.418 15.7044 191.628 14.3949C190.838 13.0845 189.786 11.8559 188.371 11.2755C188.236 11.2204 188.079 11.1718 187.948 11.2379C187.699 11.3646 187.786 11.7356 187.89 11.9964C188.271 12.9523 188.172 14.0056 187.981 15.0166C187.7 13.7475 187.114 12.5473 186.285 11.5455C185.861 11.0322 185.371 10.5657 185.031 9.99269C184.691 9.41969 184.518 8.69425 184.787 8.08451C185.116 7.33704 186.07 6.74108 185.821 5.9633C185.724 5.6621 185.46 5.44815 185.191 5.28194C184.234 4.68965 183.047 4.48028 181.945 4.70893C180.848 4.93667 179.882 5.56568 178.958 6.19838C178.057 6.81546 177.166 7.53263 176.588 8.45917C175.975 8.61987 175.361 8.78149 174.747 8.94218C173.89 9.16716 172.953 9.38663 172.144 9.02391C171.779 8.86046 171.473 8.58957 171.205 8.29205C170.416 7.41601 169.925 6.26725 169.885 5.0891C169.864 4.46743 169.972 3.84116 170.197 3.26173L170.199 3.26265Z" fill="#A6A6A6"/>
<path d="M209.061 17.6474C210.806 17.6291 212.569 17.6125 214.276 17.9817C215.982 18.3517 217.652 19.147 218.757 20.4987C219.524 21.4381 219.982 22.5923 220.331 23.7549C220.785 25.2608 221.079 26.8137 221.207 28.3811C218.571 26.877 216.159 25.1103 214.099 22.8816C213.815 24.7549 214.036 26.697 214.893 28.3867C214.515 28.2388 214.159 28.0212 213.937 27.6814C213.1 26.4041 212.566 24.9551 211.848 23.607C211.13 22.259 210.164 20.9606 208.781 20.3123C209.199 21.3894 209.173 22.4959 209.283 23.6465C208.947 22.888 208.659 22.2673 208.323 21.5088C208.09 20.9826 207.856 20.4537 207.721 19.8944C207.561 19.2342 207.581 18.4454 208.083 17.989C208.379 17.72 208.659 17.6511 209.059 17.6465L209.061 17.6474Z" fill="#A6A6A6"/>
<path d="M177.892 20.3187C179.041 20.4454 180.136 21.0074 180.909 21.866C180.298 21.5684 179.652 21.4325 178.973 21.416C178.758 20.9587 178.342 20.5492 177.892 20.3187Z" fill="#A6A6A6"/>
</g>
<defs>
<clipPath id="clip0_0_425">
<rect width="129.67" height="69.9046" fill="white"/>
</clipPath>
<clipPath id="clip1_0_425">
<rect width="129.67" height="69.9046" fill="white" transform="matrix(-1 0 0 1 260 0)"/>
</clipPath>
</defs>
</svg>
