<svg width="89" height="107" viewBox="0 0 89 107" fill="none" xmlns="http://www.w3.org/2000/svg">
<path d="M43.8568 1.30322L45.5421 6.27929L50.3274 4.11069L46.1156 7.25123L49.6568 11.1322L45.3685 8.09705L42.7718 12.6642L44.3332 7.64786L39.1872 6.58958L44.4405 6.52442L43.8568 1.30322Z" fill="url(#paint0_linear_371_14017)"/>
<path d="M18.8754 69.9049C18.8233 69.9066 18.771 69.9077 18.7189 69.9091C18.6965 69.9671 18.6725 70.0245 18.6447 70.0808L18.8754 69.9049Z" fill="#2F2E41"/>
<path d="M20.6495 63.621C20.6597 63.6847 20.6752 63.7474 20.6959 63.8084C20.6873 63.7444 20.6718 63.6816 20.6495 63.621Z" fill="#2F2E41"/>
<path d="M44.0103 44.7599C40.4308 44.7614 36.932 45.8244 33.9566 47.8144C30.9812 49.8043 28.6626 52.632 27.2942 55.9396C25.9258 59.2473 25.569 62.8865 26.2688 66.3969C26.9687 69.9074 28.6938 73.1315 31.226 75.6616C33.7582 78.1916 36.9838 79.9139 40.4949 80.6108C44.006 81.3076 47.6448 80.9476 50.9513 79.5763C54.2578 78.2051 57.0834 75.8841 59.0708 72.907C61.0582 69.9298 62.1182 66.4302 62.1167 62.8507C62.1091 58.0523 60.1986 53.4528 56.8042 50.0613C53.4098 46.6698 48.8087 44.7633 44.0103 44.7599ZM56.1383 54.0855L43.7457 73.1415C43.6209 73.3361 43.454 73.5001 43.2573 73.6214C43.0605 73.7427 42.839 73.8181 42.6091 73.8421H42.4379C42.0322 73.8417 41.6421 73.6857 41.348 73.4061L32.8009 64.9524C32.6555 64.8094 32.5398 64.6391 32.4603 64.4513C32.3808 64.2636 32.3392 64.0619 32.3377 63.858C32.3363 63.6541 32.3751 63.452 32.4519 63.2631C32.5287 63.0742 32.642 62.9023 32.7853 62.7572C33.0772 62.4635 33.4733 62.297 33.8875 62.294C34.3016 62.2911 34.7001 62.452 34.9961 62.7417L42.1732 69.841L53.5228 52.3885C53.7484 52.0431 54.1018 51.8012 54.5055 51.7159C54.9092 51.6306 55.3302 51.7088 55.6763 51.9334C56.0225 52.158 56.2654 52.5106 56.352 52.914C56.4386 53.3174 56.3617 53.7387 56.1383 54.0855ZM80.0206 5.09088V10.5399H8V5.09088C7.99965 3.74327 8.53377 2.45052 9.48523 1.49617C10.4367 0.541813 11.7278 0.00375503 13.0754 0H44.0103H74.9452C76.2928 0.00375503 77.5839 0.541813 78.5354 1.49617C79.4868 2.45052 80.0209 3.74327 80.0206 5.09088ZM8 46.6592C7.99965 48.0068 8.53376 49.2996 9.48522 50.254C10.4367 51.2083 11.7278 51.7464 13.0754 51.7502H25.9662C27.8583 48.6631 30.5109 46.1132 33.6701 44.3441C36.8293 42.5751 40.3895 41.6461 44.0103 41.6461C47.6311 41.6461 51.1913 42.5751 54.3505 44.3441C57.5097 46.1132 60.1623 48.6631 62.0544 51.7502H74.9452C76.2928 51.7464 77.5839 51.2083 78.5354 50.254C79.4869 49.2996 80.021 48.0068 80.0206 46.6592V13.6536H8V46.6592ZM60.1083 39.1863H70.8507C71.2636 39.1863 71.6595 39.3503 71.9515 39.6423C72.2435 39.9342 72.4075 40.3302 72.4075 40.7431C72.4075 41.1561 72.2435 41.552 71.9515 41.844C71.6595 42.136 71.2636 42.3 70.8507 42.3H60.1083C59.6954 42.3 59.2994 42.136 59.0075 41.844C58.7155 41.552 58.5515 41.1561 58.5515 40.7431C58.5515 40.3302 58.7155 39.9342 59.0075 39.6423C59.2994 39.3503 59.6954 39.1863 60.1083 39.1863ZM17.17 21.1111H38.6391C38.844 21.1105 39.0469 21.1503 39.2363 21.2282C39.4258 21.3062 39.598 21.4208 39.743 21.5654C39.8881 21.71 40.0032 21.8819 40.0818 22.0711C40.1603 22.2603 40.2007 22.4631 40.2007 22.668C40.2007 22.8728 40.1603 23.0756 40.0818 23.2648C40.0032 23.454 39.8881 23.6259 39.743 23.7705C39.598 23.9151 39.4258 24.0297 39.2363 24.1077C39.0469 24.1856 38.844 24.2254 38.6391 24.2248H17.17C16.9651 24.2254 16.7622 24.1856 16.5727 24.1077C16.3833 24.0297 16.2111 23.9151 16.066 23.7705C15.921 23.6259 15.8059 23.454 15.7273 23.2648C15.6488 23.0756 15.6084 22.8728 15.6084 22.668C15.6084 22.4631 15.6488 22.2603 15.7273 22.0711C15.8059 21.8819 15.921 21.71 16.066 21.5654C16.2111 21.4208 16.3833 21.3062 16.5727 21.2282C16.7622 21.1503 16.9651 21.1105 17.17 21.1111ZM17.17 30.1097L34.7159 30.0941C35.1288 30.0941 35.5248 30.2582 35.8167 30.5501C36.1087 30.8421 36.2727 31.2381 36.2727 31.651C36.2727 32.0639 36.1087 32.4599 35.8167 32.7519C35.5248 33.0438 35.1288 33.2079 34.7159 33.2079L17.17 33.2235C16.7571 33.2235 16.3611 33.0594 16.0691 32.7675C15.7771 32.4755 15.6131 32.0795 15.6131 31.6666C15.6131 31.2537 15.7771 30.8577 16.0691 30.5657C16.3611 30.2738 16.7571 30.1097 17.17 30.1097Z" fill="#6FE67B" fill-opacity="0.17"/>
<circle cx="43.7535" cy="62.8623" r="16.1725" fill="#6C6D6C"/>
<path d="M41.8771 68.9284C41.6114 68.9299 41.348 68.8805 41.102 68.783C40.856 68.6855 40.6322 68.5419 40.4436 68.3604L36.4054 64.4436C36.0252 64.0748 35.8116 63.5747 35.8116 63.0531C35.8116 62.5316 36.0252 62.0315 36.4054 61.6627C36.7856 61.2939 37.3013 61.0867 37.839 61.0867C38.3767 61.0867 38.8923 61.2939 39.2725 61.6627L41.8771 64.2086L48.5199 57.7459C48.7076 57.5623 48.9309 57.4166 49.1769 57.3172C49.4229 57.2178 49.6869 57.1666 49.9534 57.1666C50.2199 57.1666 50.4838 57.2178 50.7299 57.3172C50.9759 57.4166 51.1992 57.5623 51.3869 57.7459C51.5762 57.9279 51.7264 58.1445 51.8289 58.3832C51.9314 58.6218 51.9842 58.8778 51.9842 59.1363C51.9842 59.3949 51.9314 59.6508 51.8289 59.8895C51.7264 60.1281 51.5762 60.3447 51.3869 60.5268L43.3107 68.3604C43.122 68.5419 42.8982 68.6855 42.6522 68.783C42.4063 68.8805 42.1428 68.9299 41.8771 68.9284Z" fill="white"/>
<g filter="url(#filter0_d_371_14017)">
<circle cx="44.1725" cy="63.1725" r="16.1725" fill="url(#paint1_linear_371_14017)"/>
<path d="M42.2962 69.2386C42.0305 69.2401 41.767 69.1907 41.521 69.0932C41.2751 68.9958 41.0513 68.8522 40.8626 68.6706L36.8245 64.7538C36.4443 64.3851 36.2307 63.8849 36.2307 63.3634C36.2307 62.8418 36.4443 62.3417 36.8245 61.9729C37.2047 61.6041 37.7204 61.3969 38.258 61.3969C38.7957 61.3969 39.3114 61.6041 39.6916 61.9729L42.2962 64.5188L48.9389 58.0561C49.1266 57.8725 49.3499 57.7268 49.596 57.6274C49.842 57.528 50.1059 57.4768 50.3725 57.4768C50.639 57.4768 50.9029 57.528 51.1489 57.6274C51.395 57.7268 51.6183 57.8725 51.806 58.0561C51.9952 58.2381 52.1455 58.4547 52.248 58.6934C52.3505 58.932 52.4032 59.188 52.4032 59.4465C52.4032 59.7051 52.3505 59.961 52.248 60.1997C52.1455 60.4383 51.9952 60.655 51.806 60.837L43.7297 68.6706C43.5411 68.8522 43.3173 68.9958 43.0713 69.0932C42.8253 69.1907 42.5619 69.2401 42.2962 69.2386Z" fill="white"/>
</g>
<defs>
<filter id="filter0_d_371_14017" x="0" y="18" width="88.3451" height="88.3451" filterUnits="userSpaceOnUse" color-interpolation-filters="sRGB">
<feFlood flood-opacity="0" result="BackgroundImageFix"/>
<feColorMatrix in="SourceAlpha" type="matrix" values="0 0 0 0 0 0 0 0 0 0 0 0 0 0 0 0 0 0 127 0" result="hardAlpha"/>
<feOffset dy="-1"/>
<feGaussianBlur stdDeviation="14"/>
<feComposite in2="hardAlpha" operator="out"/>
<feColorMatrix type="matrix" values="0 0 0 0 0.423529 0 0 0 0 0.890196 0 0 0 0 0.462745 0 0 0 0.75 0"/>
<feBlend mode="normal" in2="BackgroundImageFix" result="effect1_dropShadow_371_14017"/>
<feBlend mode="normal" in="SourceGraphic" in2="effect1_dropShadow_371_14017" result="shape"/>
</filter>
<linearGradient id="paint0_linear_371_14017" x1="43.3822" y1="-1.41535" x2="46.4632" y2="13.0167" gradientUnits="userSpaceOnUse">
<stop stop-color="#77F087"/>
<stop offset="1" stop-color="#5BCE5C"/>
</linearGradient>
<linearGradient id="paint1_linear_371_14017" x1="44.5156" y1="39.5694" x2="44.1725" y2="79.3451" gradientUnits="userSpaceOnUse">
<stop stop-color="#77F087"/>
<stop offset="1" stop-color="#5BCE5C"/>
</linearGradient>
</defs>
</svg>
