<svg width="14" height="14" viewBox="0 0 14 14" fill="none" xmlns="http://www.w3.org/2000/svg">
<g clip-path="url(#clip0_0_5271)">
<path d="M0.000189762 6.99179C-0.00576386 8.48768 1.20208 9.70517 2.698 9.71112C3.38693 9.71385 4.05103 9.45397 4.55509 8.98434L8.59146 10.8068C8.56341 10.9577 8.54804 11.1107 8.54544 11.2641C8.54069 12.7704 9.75782 13.9952 11.264 14C12.7702 14.0048 13.9951 12.7876 13.9999 11.2814C14.0047 9.77519 12.7875 8.55033 11.2813 8.54555C10.3814 8.54271 9.53803 8.98396 9.02728 9.72486L5.23501 8.01253C5.50437 7.36212 5.50541 6.63154 5.23793 5.98036L9.02495 4.25929C9.87772 5.49265 11.5688 5.80115 12.8022 4.94839C14.0356 4.09562 14.344 2.40452 13.4913 1.17117C12.6385 -0.0621892 10.9474 -0.370685 9.71402 0.482076C8.97951 0.989936 8.5417 1.82647 8.54309 2.71946C8.54555 2.87317 8.56115 3.02635 8.58971 3.1774L4.56383 5.0068C3.47309 3.98259 1.75858 4.03653 0.73437 5.12727C0.260347 5.63212 -0.0023774 6.29928 0.000189762 6.99179Z" fill="white" fill-opacity="0.5"/>
</g>
<defs>
<clipPath id="clip0_0_5271">
<rect width="14" height="14" fill="white"/>
</clipPath>
</defs>
</svg>
