<svg width="12" height="12" viewBox="0 0 12 12" fill="none" xmlns="http://www.w3.org/2000/svg">
<path d="M5.47268 2.05469H1.99393C1.73032 2.05469 1.47751 2.1594 1.29112 2.3458C1.10472 2.5322 1 2.78501 1 3.04862V10.0061C1 10.2697 1.10472 10.5225 1.29112 10.7089C1.47751 10.8953 1.73032 11.0001 1.99393 11.0001H8.95144C9.21505 11.0001 9.46786 10.8953 9.65425 10.7089C9.84065 10.5225 9.94537 10.2697 9.94537 10.0061V6.52737" stroke="#9B9A9A" stroke-linecap="round" stroke-linejoin="round"/>
<path d="M9.19988 1.30877C9.39759 1.11107 9.66573 1 9.94533 1C10.2249 1 10.4931 1.11107 10.6908 1.30877C10.8885 1.50648 10.9996 1.77462 10.9996 2.05422C10.9996 2.33382 10.8885 2.60196 10.6908 2.79967L5.96961 7.52084L3.98175 8.0178L4.47872 6.02994L9.19988 1.30877Z" stroke="#9B9A9A" stroke-linecap="round" stroke-linejoin="round"/>
</svg>
