<svg width="40" height="40" viewBox="0 0 40 40" fill="none" xmlns="http://www.w3.org/2000/svg">
<rect width="40" height="40" rx="8" fill="#0ECB81"/>
<path d="M16.3899 26.4897V16.3297C16.3899 15.9297 16.5099 15.5397 16.7299 15.2097L19.4599 11.1497C19.8899 10.4997 20.9599 10.0397 21.8699 10.3797C22.8499 10.7097 23.4999 11.8097 23.2899 12.7897L22.7699 16.0597C22.7299 16.3597 22.8099 16.6297 22.9799 16.8397C23.1499 17.0297 23.3999 17.1497 23.6699 17.1497H27.7799C28.5699 17.1497 29.2499 17.4697 29.6499 18.0297C30.0299 18.5697 30.0999 19.2697 29.8499 19.9797L27.3899 27.4697C27.0799 28.7097 25.7299 29.7197 24.3899 29.7197H20.4899C19.8199 29.7197 18.8799 29.4897 18.4499 29.0597L17.1699 28.0697C16.6799 27.6997 16.3899 27.1097 16.3899 26.4897Z" fill="white"/>
<path d="M13.21 14.3799H12.18C10.63 14.3799 10 14.9799 10 16.4599V26.5199C10 27.9999 10.63 28.5999 12.18 28.5999H13.21C14.76 28.5999 15.39 27.9999 15.39 26.5199V16.4599C15.39 14.9799 14.76 14.3799 13.21 14.3799Z" fill="white"/>
</svg>
