<svg width="20" height="20" viewBox="0 0 20 20" fill="none" xmlns="http://www.w3.org/2000/svg">
<path d="M16.182 9.79199H13.332C12.9904 9.79199 12.707 9.50866 12.707 9.16699V3.34199C12.707 2.72532 12.9487 2.15033 13.382 1.71699C13.8154 1.28366 14.3904 1.04199 15.007 1.04199H15.0154C16.057 1.05033 17.0404 1.45866 17.7904 2.20033C18.5404 2.95866 18.9487 3.95866 18.9487 5.00033V7.01699C18.957 8.67532 17.8404 9.79199 16.182 9.79199ZM13.957 8.54199H16.182C17.1487 8.54199 17.707 7.98366 17.707 7.01699V5.00033C17.707 4.28366 17.4237 3.60033 16.9154 3.08366C16.407 2.58366 15.7237 2.30033 15.0154 2.29199C15.0154 2.29199 15.0154 2.29199 15.007 2.29199C14.732 2.29199 14.4654 2.40032 14.2654 2.60032C14.0654 2.80032 13.957 3.05866 13.957 3.34199V8.54199Z" fill="#71839B"/>
<path d="M7.50079 19.442C7.10912 19.4587 6.74245 19.292 6.46745 19.0087L5.08412 17.617C5.00912 17.542 4.89246 17.5337 4.80912 17.6003L3.38412 18.667C2.94245 19.0003 2.35912 19.0587 1.85912 18.8087C1.35912 18.5587 1.05078 18.0587 1.05078 17.5003V5.00033C1.05078 2.48366 2.49245 1.04199 5.00911 1.04199H15.0091C15.3508 1.04199 15.6341 1.32533 15.6341 1.66699C15.6341 2.00866 15.3508 2.29199 15.0091 2.29199C14.4341 2.29199 13.9674 2.75866 13.9674 3.33366V17.5003C13.9674 18.0587 13.6591 18.5587 13.1591 18.8087C12.6591 19.0587 12.0758 19.0087 11.6341 18.6753L10.2091 17.6087C10.1258 17.542 10.0091 17.5587 9.94245 17.6253L8.54245 19.0253C8.25912 19.292 7.89245 19.442 7.50079 19.442ZM4.92579 16.3087C5.30912 16.3087 5.68412 16.4503 5.96746 16.742L7.35079 18.1337C7.40079 18.1837 7.46745 18.192 7.50079 18.192C7.50079 18.1753 7.60078 18.1837 7.65078 18.1337L9.05079 16.7337C9.56745 16.217 10.3841 16.167 10.9591 16.6087L12.3758 17.667C12.4675 17.7337 12.5508 17.7087 12.5925 17.6837C12.6341 17.6587 12.7091 17.6087 12.7091 17.5003V3.33366C12.7091 2.95866 12.8008 2.60033 12.9591 2.29199H5.00079C3.15079 2.29199 2.29245 3.15033 2.29245 5.00033V17.5003C2.29245 17.617 2.36745 17.667 2.40912 17.692C2.45912 17.717 2.54245 17.7337 2.62578 17.667L4.05079 16.6003C4.30912 16.4087 4.61746 16.3087 4.92579 16.3087Z" fill="#71839B"/>
<path d="M9.79036 8.95801H5.20703C4.86536 8.95801 4.58203 8.67467 4.58203 8.33301C4.58203 7.99134 4.86536 7.70801 5.20703 7.70801H9.79036C10.132 7.70801 10.4154 7.99134 10.4154 8.33301C10.4154 8.67467 10.132 8.95801 9.79036 8.95801Z" fill="#71839B"/>
<path d="M7.5 11.2503C7.15833 11.2503 6.875 10.967 6.875 10.6253V6.04199C6.875 5.70033 7.15833 5.41699 7.5 5.41699C7.84167 5.41699 8.125 5.70033 8.125 6.04199V10.6253C8.125 10.967 7.84167 11.2503 7.5 11.2503Z" fill="#71839B"/>
</svg>
