<svg width="20" height="20" viewBox="0 0 20 20" fill="none" xmlns="http://www.w3.org/2000/svg">
<path d="M15.0109 1.66602V2.91602C15.5609 2.91602 16.0859 3.14102 16.4693 3.51602C16.8693 3.92435 17.0859 4.44935 17.0859 4.99935V7.01602C17.0859 7.63268 16.8109 7.91602 16.1859 7.91602H14.5859V3.34102C14.5859 3.10768 14.7776 2.91602 15.0109 2.91602V1.66602ZM15.0109 1.66602C14.0859 1.66602 13.3359 2.41602 13.3359 3.34102V9.16602H16.1859C17.5026 9.16602 18.3359 8.33268 18.3359 7.01602V4.99935C18.3359 4.08268 17.9609 3.24935 17.3609 2.64102C16.7526 2.04102 15.9276 1.67435 15.0109 1.66602C15.0193 1.66602 15.0109 1.66602 15.0109 1.66602Z" fill="#71839B"/>
<path d="M5.83073 1.66602H4.9974C2.4974 1.66602 1.66406 3.15768 1.66406 4.99935V5.83268V17.4993C1.66406 18.191 2.4474 18.5827 2.9974 18.166L4.4224 17.0993C4.75573 16.8493 5.2224 16.8827 5.5224 17.1827L6.90573 18.5744C7.23073 18.8994 7.76406 18.8994 8.08906 18.5744L9.48906 17.1743C9.78073 16.8827 10.2474 16.8493 10.5724 17.0993L11.9974 18.166C12.5474 18.5743 13.3307 18.1827 13.3307 17.4993V3.33268C13.3307 2.41602 14.0807 1.66602 14.9974 1.66602H5.83073ZM9.78906 8.95768H8.1224V10.6243C8.1224 10.966 7.83906 11.2493 7.4974 11.2493C7.15573 11.2493 6.8724 10.966 6.8724 10.6243V8.95768H5.20573C4.86406 8.95768 4.58073 8.67435 4.58073 8.33268C4.58073 7.99102 4.86406 7.70768 5.20573 7.70768H6.8724V6.04102C6.8724 5.69935 7.15573 5.41602 7.4974 5.41602C7.83906 5.41602 8.1224 5.69935 8.1224 6.04102V7.70768H9.78906C10.1307 7.70768 10.4141 7.99102 10.4141 8.33268C10.4141 8.67435 10.1307 8.95768 9.78906 8.95768Z" fill="#71839B"/>
</svg>
