<svg width="30" height="30" viewBox="0 0 30 30" fill="none" xmlns="http://www.w3.org/2000/svg">
<path d="M22.625 22.1875H7.37499C4.47499 22.1875 2.8125 20.525 2.8125 17.625V2.5C2.8125 1.9875 3.2375 1.5625 3.75 1.5625H26.25C26.7625 1.5625 27.1875 1.9875 27.1875 2.5V17.625C27.1875 20.525 25.525 22.1875 22.625 22.1875ZM4.6875 3.4375V17.625C4.6875 19.4875 5.51249 20.3125 7.37499 20.3125H22.6125C24.475 20.3125 25.3 19.4875 25.3 17.625V3.4375H4.6875Z" fill="#081131"/>
<path d="M27.5 3.4375H2.5C1.9875 3.4375 1.5625 3.0125 1.5625 2.5C1.5625 1.9875 1.9875 1.5625 2.5 1.5625H27.5C28.0125 1.5625 28.4375 1.9875 28.4375 2.5C28.4375 3.0125 28.0125 3.4375 27.5 3.4375Z" fill="#081131"/>
<path d="M10.0028 28.4375C9.65277 28.4375 9.32776 28.25 9.16526 27.925C8.92776 27.4625 9.11529 26.9 9.59029 26.6625L14.0653 24.425V21.25C14.0653 20.7375 14.4903 20.3125 15.0028 20.3125C15.5153 20.3125 15.9403 20.7375 15.9403 21.25V25C15.9403 25.35 15.7403 25.675 15.4153 25.8375L10.4153 28.3375C10.2903 28.4 10.1403 28.4375 10.0028 28.4375Z" fill="#081131"/>
<path d="M20.0029 28.4377C19.8654 28.4377 19.7154 28.4002 19.5904 28.3377L14.5904 25.8377C14.1279 25.6002 13.9404 25.0377 14.1654 24.5752C14.4029 24.1127 14.9654 23.9252 15.4279 24.1502L20.4279 26.6502C20.8904 26.8877 21.0779 27.4502 20.8529 27.9127C20.6779 28.2502 20.3404 28.4377 20.0029 28.4377Z" fill="#081131"/>
<path d="M9.3732 14.6873C9.1107 14.6873 8.83572 14.5749 8.64822 14.3499C8.31072 13.9499 8.37318 13.3624 8.77318 13.0249L12.7107 9.73736C13.0732 9.43736 13.5357 9.31236 13.9732 9.38736C14.4232 9.46236 14.8107 9.73733 15.0482 10.1373L16.3607 12.3248L20.0232 9.27487C20.4232 8.94987 21.0107 8.99984 21.3482 9.39984C21.6857 9.79984 21.6232 10.3873 21.2232 10.7248L17.2857 14.0123C16.9232 14.3123 16.4607 14.4373 16.0232 14.3623C15.5732 14.2873 15.1857 14.0124 14.9482 13.6124L13.6357 11.4249L9.97321 14.4748C9.79821 14.6123 9.5857 14.6873 9.3732 14.6873Z" fill="#081131"/>
</svg>
