<svg width="88" height="88" fill="none" xmlns="http://www.w3.org/2000/svg"><mask id="a" style="mask-type:luminance" maskUnits="userSpaceOnUse" x="0" y="0" width="88" height="88"><path d="M88 0H0v88h88V0z" fill="#fff"/></mask><g mask="url(#a)"><mask id="b" style="mask-type:luminance" maskUnits="userSpaceOnUse" x="-1" y="7" width="89" height="75"><path d="M87.305 7.367h-88v73.665h88V7.367z" fill="#fff"/></mask><g mask="url(#b)"><path d="M40.918 74.426 4.112 68.213 50.37 49.672l39.63 8.047-13.395.048-7.808 3.87-1.894 5.476-23.527.96-2.457 6.353z" fill="#000"/><path fill-rule="evenodd" clip-rule="evenodd" d="m40.301 36.434 9.263-22.414-3.44-.716-9.261 22.414-8.882 8.653 3.439.716 8.882-8.653zm-14.337 1.933L15.433 59.631l-3.44-.717 10.532-21.263 3.439.716zM4.52 68.052l6.724-13.578-3.438-.716-6.725 13.577 3.439.717z" fill="#fff"/><path fill-rule="evenodd" clip-rule="evenodd" d="m40.301 36.434 9.263-22.414-3.44-.716-9.261 22.414-8.882 8.653 3.439.716 8.882-8.653zm-14.337 1.933L15.433 59.631l-3.44-.717 10.532-21.263 3.439.716zM4.52 68.052l6.724-13.578-3.438-.716-6.725 13.577 3.439.717z" fill="orange"/><path d="m49.565 14.02.177.103a.272.272 0 0 0 0-.21.206.206 0 0 0-.143-.123l-.034.23zm-9.263 22.414-.178-.103a.272.272 0 0 0 .002.209c.028.065.08.111.142.124l.034-.23zm5.824-23.13.034-.23c-.087-.019-.173.033-.212.127l.178.103zm-9.262 22.414-.179-.103a.272.272 0 0 0 .002.209c.028.065.08.111.142.124l.035-.23zm0 0 .126.18a.26.26 0 0 0 .065-.24c-.02-.088-.08-.155-.157-.17l-.034.23zm-8.882 8.653-.126-.181a.259.259 0 0 0-.066.24c.02.089.082.155.158.17l.034-.23zm3.439.716-.035.23a.177.177 0 0 0 .16-.05l-.125-.18zm8.881-8.653.126.18a.26.26 0 0 0 .066-.24c-.02-.088-.081-.155-.157-.17l-.035.23zM15.434 59.63l-.035.23c.082.018.164-.027.205-.112l-.17-.118zm10.53-21.264.171.118a.27.27 0 0 0 .01-.216.206.206 0 0 0-.146-.132l-.034.23zm-13.97 20.547-.17-.117a.271.271 0 0 0-.009.216c.027.07.082.119.145.132l.035-.23zm10.532-21.263.034-.23c-.081-.017-.163.027-.205.112l.17.118zm-11.28 16.823.171.118a.273.273 0 0 0 .009-.216.206.206 0 0 0-.145-.132l-.035.23zM4.521 68.052l-.034.23c.082.017.164-.028.205-.112l-.17-.118zm3.287-14.294.034-.23c-.082-.018-.164.027-.205.111l.17.119zM1.083 67.335l-.171-.117a.272.272 0 0 0-.009.216c.027.07.082.119.145.132l.035-.23zm48.304-53.418-9.263 22.414.356.205 9.262-22.413-.355-.206zm-3.295-.383 3.438.716.069-.46-3.439-.717-.068.461zm-9.05 22.286 9.262-22.414-.356-.205-9.263 22.414.356.205zm-.144-.333-.07.461h.001l.07-.46zm-8.79 9.064 8.881-8.653-.251-.36-8.882 8.652.252.36zm3.347.305-3.438-.716-.07.46 3.44.717.068-.46zm8.721-8.603-8.881 8.653.252.361 8.881-8.653-.252-.36zm.092.411.069-.46-.07.46zM15.604 59.749l10.531-21.264-.341-.236-10.532 21.264.342.236zm-3.644-.604 3.439.716.069-.46-3.439-.717-.069.461zm10.395-21.612L11.824 58.797l.342.236 10.531-21.264-.342-.236zm3.644.604-3.439-.716-.069.46 3.44.717.068-.461zM11.075 54.356 4.351 67.934l.341.236 6.725-13.578-.342-.236zm-3.302-.368 3.439.717.069-.461-3.439-.717-.069.461zm-6.52 13.466L7.98 53.876l-.342-.236L.912 67.218l.342.236zm3.303.368-3.439-.717-.069.461 3.44.717.068-.461z" fill="#000"/><path d="M11.246 54.474 4.521 68.052l45.043-17.736V14.02l-9.262 22.414-8.881 8.653-5.456-6.72-10.532 21.264-4.187-5.157z" fill="#fff" stroke="#000" stroke-linejoin="round"/><path fill-rule="evenodd" clip-rule="evenodd" d="m63.147 40.351 9.262-22.414-3.438-.716-9.263 22.414-8.88 8.653 3.438.716 8.881-8.653z" fill="#fff"/><path d="m72.409 17.937.178.103a.274.274 0 0 0-.002-.21.204.204 0 0 0-.142-.123l-.034.23zm-9.263 22.414-.178-.103a.271.271 0 0 0 .002.209c.028.065.08.112.142.124l.034-.23zm5.824-23.13.034-.23c-.087-.019-.173.034-.212.127l.178.103zm-9.262 22.414-.179-.103a.273.273 0 0 0 .002.21c.028.065.081.11.142.123l.035-.23zm0 0 .126.18a.26.26 0 0 0 .065-.24c-.02-.088-.08-.155-.157-.17l-.034.23zm-8.882 8.653-.126-.18a.26.26 0 0 0-.066.24c.02.088.082.154.158.17l.034-.23zm3.439.716-.035.23a.178.178 0 0 0 .16-.05l-.125-.18zm8.881-8.653.126.18a.26.26 0 0 0 .066-.24c-.02-.088-.08-.154-.157-.17l-.035.23zm9.085-22.517-9.263 22.414.356.206 9.263-22.414-.356-.206zm-3.295-.383 3.438.716.069-.46-3.439-.717-.068.461zm-9.05 22.286 9.262-22.414-.356-.205-9.263 22.414.356.205zm-8.934 8.731 8.882-8.653-.252-.36-8.882 8.652.252.361zm3.347.305-3.439-.716-.068.46 3.438.717.07-.46zm8.721-8.603-8.881 8.654.252.36 8.881-8.652-.252-.361zm.092.411.07-.46h-.001l-.07.46z" fill="#000"/><path d="M48.81 42.284 38.279 63.548l-3.44-.716 10.532-21.264 3.439.716zM34.09 58.39 27.366 71.97l-3.44-.716 6.726-13.578 3.438.716z" fill="#fff" stroke="#000" stroke-linejoin="round"/><path d="M34.091 58.39 27.366 71.97 72.41 54.233V17.937l-9.262 22.414-8.882 8.653-5.456-6.72-10.53 21.264-4.188-5.157z" fill="#fff" stroke="#000" stroke-linejoin="round"/><path d="m47.425 69.443 2.497-.79 1.154 1.362-2.497.79-1.154-1.362zM62.308 54.022l.669-2.95 1.154 1.363-.67 2.95-1.153-1.363zM64.145 56.138l.66-2.907 1.154 1.363-.66 2.907-1.154-1.363zM49.253 71.602l2.46-.779 1.154 1.363-2.46.779-1.154-1.363zM51.043 73.772l7.308-2.313 1.154 1.364-7.308 2.313-1.154-1.364zM64.684 63.98l1.958-8.633 1.154 1.364-1.959 8.632-1.153-1.363z" fill="#fff" stroke="#000" stroke-linejoin="bevel"/><path d="m62.187 64.77 2.497-.79 1.154 1.363-2.497.79-1.154-1.363zM58.352 71.46l.67-2.95 1.154 1.363-.67 2.95-1.154-1.363z" fill="#fff" stroke="#000" stroke-linejoin="bevel"/><path d="m61.52 67.72.67-2.95 1.154 1.363-.67 2.95-1.154-1.363zM59.022 68.51l2.497-.79 1.154 1.363-2.498.79-1.153-1.363z" fill="#fff" stroke="#000" stroke-linejoin="bevel"/><path fill-rule="evenodd" clip-rule="evenodd" d="m49.383 60.81 2.497-.79.66-2.907 2.46-.778.669-2.95 7.307-2.313-.669 2.95 2.497-.79-.659 2.906 2.497-.79-1.958 8.631-2.497.79-.669 2.95-2.497.791-.67 2.95-7.307 2.312.67-2.949-2.461.779.669-2.95-2.497.79 1.958-8.632z" fill="#fff" stroke="#000" stroke-linejoin="bevel"/><path fill-rule="evenodd" clip-rule="evenodd" d="m56.69 57.86.97-.306c.768-.243 1.038-.306 1.335-.313a2.51 2.51 0 0 1 .643.069.968.968 0 0 1 .464.339.94.94 0 0 1 .211.54c.01.154.01.39-.005.523-.01.13-.102.472-.196.756a11.61 11.61 0 0 1-.585 1.343l.141.245c.073.133.172.391.215.568.038.18.074.457.072.614.005.155-.044.5-.102.755a5.454 5.454 0 0 1-.269.838c-.09.202-.25.519-.357.709a6.527 6.527 0 0 1-.414.611 7.206 7.206 0 0 1-.631.657c-.225.21-.568.486-.769.614-.323.212-.48.273-2.9 1.04l.41-1.808-1.643.52.453-1.996 1.642-.52.424-1.87-1.642.52.453-1.995 1.642-.52.438-1.932zm-.876 3.866c1.778-.557 1.84-.588 2.038-.773.12-.113.285-.298.364-.41a2 2 0 0 0 .245-.54c.08-.286.08-.35-.01-.495a.519.519 0 0 0-.255-.197c-.11-.017-.427.06-1.058.26l-.9.285-.424 1.87zm-.877 3.865c2.22-.702 2.413-.775 2.6-.927.119-.09.28-.263.358-.385.09-.139.164-.336.22-.562.054-.237.06-.395.02-.515-.035-.087-.12-.188-.2-.209-.11-.035-.38.034-1.356.342l-1.218.386-.424 1.87z" fill="orange"/></g></g></svg>