<svg width="88" height="88" fill="none" xmlns="http://www.w3.org/2000/svg"><mask id="a" style="mask-type:alpha" maskUnits="userSpaceOnUse" x="0" y="0" width="88" height="88"><path fill="#D9D9D9" d="M0 0h88v88H0z"/></mask><g mask="url(#a)"><path d="M85.183 49.189c3-1.727 3-4.554 0-6.282L60.796 28.872c-3-1.728-7.915-1.728-10.915 0L3.25 54.155c-3.001 1.727-3.001 4.554 0 6.281l24.386 14.036c3 1.727 7.915 1.727 10.916 0l46.63-25.283z" fill="#fff" stroke="#121212" stroke-width=".7" stroke-linecap="round" stroke-linejoin="round"/><path d="M77.716 27.644v18.468c0 1.181-1.659 2.14-3.708 2.14-2.05 0-3.71-.959-3.71-2.14V27.644h7.418z" fill="#C2C8CF"/><path d="M77.716 27.644v18.468c0 1.181-1.659 2.14-3.708 2.14-2.05 0-3.71-.959-3.71-2.14V27.644h7.418z" fill="#C2C8CF" stroke="#121212" stroke-width=".7" stroke-linecap="round" stroke-linejoin="round"/><path d="M74.008 29.784c2.047 0 3.708-.959 3.708-2.14 0-1.183-1.66-2.141-3.708-2.141s-3.71.958-3.71 2.14c0 1.182 1.662 2.14 3.71 2.14z" fill="#C2C8CF" stroke="#121212" stroke-width=".7" stroke-linecap="round" stroke-linejoin="round"/><path d="M71.044 15.14v18.468c0 1.181-1.659 2.14-3.708 2.14-2.05 0-3.708-.959-3.708-2.14V15.14h7.416z" fill="#C2C8CF"/><path d="M71.044 15.14v18.468c0 1.181-1.659 2.14-3.708 2.14-2.05 0-3.708-.959-3.708-2.14V15.14h7.416z" fill="#C2C8CF" stroke="#121212" stroke-width=".7" stroke-linecap="round" stroke-linejoin="round"/><path d="M67.339 17.28c2.048 0 3.71-.958 3.71-2.14 0-1.182-1.662-2.14-3.71-2.14s-3.708.958-3.708 2.14c0 1.182 1.66 2.14 3.708 2.14z" fill="#C2C8CF" stroke="#121212" stroke-width=".7" stroke-linecap="round" stroke-linejoin="round"/><path d="M64.294 38.753v14.282c0 1.508-1.674 2.732-3.743 2.732s-3.743-1.224-3.743-2.732V38.753h7.486z" fill="orange"/><path d="M64.376 38.542v15.27c0 1.182-1.659 2.14-3.708 2.14-2.05 0-3.709-.958-3.709-2.14v-15.27h7.417z" fill="orange" stroke="#121212" stroke-width=".7" stroke-linecap="round" stroke-linejoin="round"/><path d="M60.668 40.682c2.047 0 3.708-.958 3.708-2.14 0-1.182-1.66-2.14-3.708-2.14s-3.709.958-3.709 2.14c0 1.182 1.66 2.14 3.709 2.14z" fill="orange" stroke="#121212" stroke-width=".7" stroke-linecap="round" stroke-linejoin="round"/><path d="M57.705 52.85v4.816c0 1.181-1.659 2.14-3.708 2.14-2.05 0-3.709-.959-3.709-2.14V52.85h7.417z" fill="#C2C8CF"/><path d="M57.705 52.85v4.816c0 1.181-1.659 2.14-3.708 2.14-2.05 0-3.709-.959-3.709-2.14V52.85h7.417z" fill="#C2C8CF" stroke="#121212" stroke-width=".7" stroke-linecap="round" stroke-linejoin="round"/><path d="M53.996 54.99c2.049 0 3.709-.958 3.709-2.14 0-1.182-1.66-2.14-3.709-2.14-2.047 0-3.708.958-3.708 2.14 0 1.182 1.66 2.14 3.709 2.14z" fill="#C2C8CF" stroke="#121212" stroke-width=".7" stroke-linecap="round" stroke-linejoin="round"/><path d="M21.891 64.473c6.97 0 12.62-3.261 12.62-7.285 0-4.023-5.65-7.285-12.62-7.285-6.97 0-12.62 3.262-12.62 7.285 0 4.024 5.65 7.285 12.62 7.285z" fill="#121212"/><path d="M21.209 56.575c1.411-.544 2.774-.91 4.062-.165 1.214.704.95 1.642-.28 2.424l.77.449-.548.317-.777-.453c-1.577.803-3.141.869-4.4.177l1.238-.716c.716.321 1.38.317 2.157-.05l-1.72-1-.054.02c-1.366.495-2.696.915-3.988.166-1.17-.68-.881-1.568.333-2.342l-.535-.313.548-.317.543.317c1.33-.642 2.774-.7 3.996-.087l-1.21.7c-.572-.26-1.206-.234-1.761-.02l1.568.91.062-.026-.005.009zm2.77 1.67c.473-.337.666-.72.168-1.008-.46-.267-1-.168-1.753.09l1.585.923m-3.499-1.4-1.474-.855c-.522.362-.605.716-.205.946.399.23.889.177 1.679-.09z" fill="#fff"/></g></svg>