<svg width="95" height="71" viewBox="0 0 95 71" fill="none" xmlns="http://www.w3.org/2000/svg">
<path d="M63.2477 21.4428C63.0113 20.7047 62.3738 20.1667 61.6063 20.0578L52.873 18.8188L48.9761 11.1095C48.6322 10.4291 47.9345 10 47.172 10C46.4095 10 45.7119 10.4291 45.3679 11.1095L41.471 18.8188L32.7377 20.0578C31.9703 20.1667 31.3327 20.7047 31.0963 21.4428C30.86 22.1809 31.0666 22.9893 31.628 23.5236L37.9183 29.5102L36.4356 37.9509C36.3029 38.7067 36.6095 39.4726 37.2272 39.9278C37.8449 40.3832 38.6671 40.4495 39.3498 40.0991L47.172 36.084L54.9942 40.0992C55.6783 40.4503 56.5003 40.3825 57.1168 39.9279C57.7344 39.4727 58.041 38.7068 57.9084 37.9511L56.4257 29.5103L62.716 23.5237C63.2774 22.9893 63.484 22.1811 63.2477 21.4428ZM52.8536 27.3286C52.3633 27.7951 52.1391 28.4761 52.2562 29.1426L53.2228 34.6455L48.0951 32.0134C47.5155 31.716 46.8283 31.716 46.2489 32.0134L41.1212 34.6455L42.0878 29.1426C42.2049 28.4761 41.9807 27.7951 41.4904 27.3286L37.4404 23.4741L43.0832 22.6736C43.7375 22.5808 44.3053 22.1739 44.6034 21.5842L47.172 16.5024L49.7406 21.584C50.0387 22.1739 50.6064 22.5808 51.2608 22.6735L56.9036 23.474L52.8536 27.3286Z" fill="#0ECB81"/>
<circle cx="47.5" cy="25.5" r="24" stroke="black" stroke-width="3"/>
<path d="M23.4067 31L3.99977 50.407L21.2285 49.4417L20.6168 67.024L40.0237 47.617" stroke="black" stroke-width="3"/>
<path d="M71.6411 31L91.0481 50.407L73.8193 49.4417L74.4311 67.024L55.0241 47.617" stroke="black" stroke-width="3"/>
</svg>
