<svg width="88" height="88" fill="none" xmlns="http://www.w3.org/2000/svg"><mask id="a" style="mask-type:alpha" maskUnits="userSpaceOnUse" x="0" y="0" width="88" height="88"><path fill="#D9D9D9" d="M0 0h88v88H0z"/></mask><g mask="url(#a)"><path d="M54.439 17.472 50.964 16.2l-4.362 11.927 3.475 1.271 4.362-11.927z" fill="#fff" stroke="#000" stroke-width=".7"/><path d="M53.552 20.3a5.65 5.65 0 1 0 0-11.3 5.65 5.65 0 0 0 0 11.3z" fill="orange" stroke="#000" stroke-width=".7"/><path d="M41.052 79.3c15.823 0 28.65-12.827 28.65-28.65 0-15.823-12.827-28.65-28.65-28.65-15.823 0-28.65 12.827-28.65 28.65 0 15.823 12.827 28.65 28.65 28.65z" fill="#EBE9E9" stroke="#000" stroke-width=".7"/><mask id="b" style="mask-type:alpha" maskUnits="userSpaceOnUse" x="12" y="21" width="59" height="59"><path d="M41.052 79.3c15.823 0 28.65-12.827 28.65-28.65 0-15.823-12.827-28.65-28.65-28.65-15.823 0-28.65 12.827-28.65 28.65 0 15.823 12.827 28.65 28.65 28.65z" fill="#fff" stroke="#000" stroke-width=".7"/></mask><g mask="url(#b)"><path d="M37.053 73.65c16.016 0 29-12.984 29-29s-12.984-29-29-29-29 12.984-29 29 12.983 29 29 29z" fill="#fff"/><path d="M41.052 79.3c15.823 0 28.65-12.827 28.65-28.65 0-15.823-12.827-28.65-28.65-28.65-15.823 0-28.65 12.827-28.65 28.65 0 15.823 12.827 28.65 28.65 28.65z" stroke="#000" stroke-width=".7"/></g><path d="m46.831 35.674-18.436-4.596c-6.779-1.69-13.644 2.435-15.334 9.214-1.69 6.779 2.435 13.644 9.214 15.334l18.435 4.597c6.78 1.69 13.645-2.435 15.335-9.214 1.69-6.779-2.435-13.644-9.214-15.335z" fill="#fff" stroke="#000" stroke-width=".7"/><path d="M46.105 38.585 27.669 33.99c-5.171-1.29-10.409 1.857-11.698 7.029-1.29 5.17 1.858 10.408 7.029 11.698l18.435 4.596c5.172 1.29 10.41-1.857 11.698-7.029a9.65 9.65 0 0 0-7.028-11.698z" fill="#000" stroke="#000" stroke-width=".7"/><path d="M44.764 46.65a2.15 2.15 0 0 0-4.173-1.04l-.726 2.911a2.15 2.15 0 0 0 4.173 1.04l.726-2.91zM29.24 42.78a2.15 2.15 0 0 0-4.173-1.04l-.726 2.91a2.15 2.15 0 0 0 4.172 1.04l.726-2.91z" fill="#fff" stroke="#000" stroke-width=".7"/><path d="M75.236 54.624c-.46 2.945-1.634 5.477-3.142 7.191-1.512 1.718-3.32 2.579-5.071 2.305-1.75-.273-3.211-1.644-4.127-3.74-.914-2.093-1.26-4.862-.801-7.808.46-2.946 1.634-5.477 3.143-7.192 1.51-1.717 3.32-2.578 5.07-2.305 1.75.274 3.21 1.644 4.127 3.741.914 2.093 1.26 4.862.8 7.808z" fill="orange" stroke="#000" stroke-width=".7"/><mask id="c" style="mask-type:alpha" maskUnits="userSpaceOnUse" x="61" y="42" width="15" height="23"><path d="M66.97 64.466c3.819.597 7.675-3.786 8.612-9.788.937-6.003-1.4-11.352-5.22-11.948-3.82-.597-7.675 3.786-8.612 9.788-.937 6.003 1.4 11.352 5.22 11.948z" fill="#fff"/></mask><g mask="url(#c)" stroke="#000" stroke-width=".7"><path d="M75.256 54.365c-.38 2.424-1.243 4.52-2.317 5.95-1.085 1.442-2.32 2.133-3.445 1.957-1.125-.176-2.091-1.21-2.683-2.914-.588-1.69-.772-3.948-.394-6.373.379-2.424 1.243-4.52 2.317-5.949 1.084-1.443 2.319-2.133 3.444-1.958 1.126.176 2.09 1.21 2.684 2.915.588 1.688.772 3.948.394 6.372z" fill="#fff"/><path d="M75.235 54.624c-.459 2.945-1.634 5.477-3.142 7.191-1.51 1.718-3.32 2.579-5.07 2.306-1.75-.274-3.21-1.645-4.127-3.741-.915-2.093-1.26-4.862-.8-7.808.458-2.945 1.633-5.477 3.141-7.191 1.512-1.718 3.32-2.579 5.071-2.306 1.75.274 3.211 1.644 4.127 3.741.914 2.093 1.26 4.862.8 7.808z"/></g><path d="M71.246 53.224c.042-.326.24-.593.437-.6.198-.007.33.247.282.566-.042.325-.24.599-.438.606-.198.006-.323-.253-.28-.572z" fill="#000"/><path d="M72.576 53.736c.093-.004.174.047.232.158.11.22.063.595-.112.828l-1.272 1.765c-.085.116-.183.176-.276.18-.093.003-.175-.047-.232-.158l-1.182-2.393-.196 1.472c-.043.325-.24.599-.438.606-.198.006-.323-.253-.281-.572l.61-4.602c.044-.325.24-.593.439-.6.198-.006.323.248.28.567l-.196 1.478 1.844-2.551c.085-.117.183-.182.276-.186.093-.004.175.047.232.158l.818 1.658c.109.221.062.596-.113.828-.085.116-.183.176-.276.18-.093.004-.174-.047-.226-.158l-.631-1.262-1.533 2.12.984 1.996.974-1.339c.084-.116.183-.182.276-.186l-.001.013z" fill="#000"/></g></svg>