<svg width="88" height="88" fill="none" xmlns="http://www.w3.org/2000/svg"><path d="m79 70.218-20.555 9.546a8.315 8.315 0 0 1-7.8-.422l-27.71-16.73 22.678-10.777L79 70.218z" fill="#CDCDCD"/><path d="M21.902 10.762c2.172-1.258 5.716-3.372 6.992-2.143l31.258 70.4c-.411 1.6-5.758 3.2-6.58 2.8l-31.67-71.057z" fill="#000"/><path d="M60.514 78.156v-49.03c0-1.273-.893-2.824-1.994-3.463L29.048 8.54c-1.1-.64-1.993-.126-1.993 1.147v49.03c0 1.273.892 2.824 1.993 3.464L58.52 79.303c1.101.64 1.994.126 1.994-1.147z" fill="#000" stroke="#000"/><path d="M55.299 80.286V31.427c0-1.273-.893-2.824-1.994-3.464L23.834 10.841c-1.101-.64-1.994-.126-1.994 1.147v48.86c0 1.273.893 2.823 1.994 3.463l29.471 17.122c1.101.64 1.994.126 1.994-1.147z" fill="#fff" stroke="#000"/><path d="M35.269 46.196c.752.437 1.36.086 1.36-.783 0-.87-.608-1.928-1.36-2.365l-7.03-4.084c-.752-.437-1.361-.086-1.361.783 0 .87.61 1.928 1.36 2.365l7.031 4.084zM42.968 57.955c.675.392 1.222.077 1.222-.704 0-.78-.547-1.732-1.222-2.124L28.102 46.49c-.675-.392-1.223-.077-1.223.704 0 .78.547 1.732 1.223 2.124l14.866 8.637zM42.685 10.096l.036-.018.026-.031c1.052-1.292 2.497-2.032 4.211-2.146 1.718-.114 3.715.402 5.858 1.647 3.342 1.941 6.378 5.274 8.58 9.098 2.2 3.825 3.556 8.124 3.556 11.989v1.439c0 2.657-.64 4.749-1.733 6.193-1.09 1.44-2.638 2.25-4.49 2.337l-.04.002-.037.018-.366.185-.06-.107-.051-.093-.105-.004c-1.529-.066-3.244-.598-5.065-1.655-3.341-1.942-6.378-5.274-8.579-9.099-2.201-3.824-3.557-8.123-3.557-11.989v-1.438c0-1.947.344-3.591.958-4.899l.041-.088-.047-.084-.359-.641 1.223-.616z" fill="#000" stroke="#000"/><path d="M61.717 33.62v-1.439c0-7.707-5.403-17.094-12.067-20.966-6.665-3.872-12.067-.763-12.067 6.945v1.439c0 7.707 5.402 17.094 12.067 20.966 6.664 3.872 12.067.763 12.067-6.945z" fill="orange" stroke="#000"/><path d="M49.617 24.965c1.989 1.138 3.6.207 3.6-2.078 0-2.286-1.611-5.06-3.6-6.198-1.988-1.137-3.6-.207-3.6 2.079 0 2.285 1.612 5.06 3.6 6.197zM49.342 25.774c-3.496-2.001-6.33-.364-6.33 3.657l12.66 7.245c0-4.02-2.835-8.902-6.33-10.902z" fill="#fff"/></svg>