<svg width="16" height="16" viewBox="0 0 16 16" fill="none" xmlns="http://www.w3.org/2000/svg">
<path d="M6.10671 7.24732C6.04004 7.24065 5.96004 7.24065 5.88671 7.24732C4.30004 7.19398 3.04004 5.89398 3.04004 4.29398C3.04004 2.66065 4.36004 1.33398 6.00004 1.33398C7.63337 1.33398 8.96004 2.66065 8.96004 4.29398C8.95337 5.89398 7.69337 7.19398 6.10671 7.24732Z" stroke="#718096" stroke-width="1.2" stroke-linecap="round" stroke-linejoin="round"/>
<path d="M10.9401 2.66602C12.2334 2.66602 13.2734 3.71268 13.2734 4.99935C13.2734 6.25935 12.2734 7.28602 11.0267 7.33268C10.9734 7.32602 10.9134 7.32602 10.8534 7.33268" stroke="#718096" stroke-width="1.2" stroke-linecap="round" stroke-linejoin="round"/>
<path d="M2.77335 9.70602C1.16002 10.786 1.16002 12.546 2.77335 13.6193C4.60669 14.846 7.61335 14.846 9.44669 13.6193C11.06 12.5393 11.06 10.7793 9.44669 9.70602C7.62002 8.48602 4.61335 8.48602 2.77335 9.70602Z" stroke="#718096" stroke-width="1.2" stroke-linecap="round" stroke-linejoin="round"/>
<path d="M12.2267 13.334C12.7067 13.234 13.16 13.0407 13.5334 12.754C14.5734 11.974 14.5734 10.6873 13.5334 9.90732C13.1667 9.62732 12.72 9.44065 12.2467 9.33398" stroke="#718096" stroke-width="1.2" stroke-linecap="round" stroke-linejoin="round"/>
</svg>
