<svg width="42" height="42" viewBox="0 0 42 42" fill="none" xmlns="http://www.w3.org/2000/svg">
<rect x="1" y="1" width="40" height="40" rx="6" fill="#FFA500" fill-opacity="0.09"/>
<rect x="0.5" y="0.5" width="41" height="41" rx="6.5" stroke="#FFA500" stroke-opacity="0.21"/>
<path d="M31.9171 20.4272V22.5731C31.9171 23.146 31.4587 23.6147 30.8754 23.6356H28.8337C27.7087 23.6356 26.6775 22.8126 26.5837 21.6876C26.5212 21.0314 26.7712 20.4168 27.2087 19.9897C27.5941 19.5939 28.1254 19.3647 28.7087 19.3647H30.8754C31.4587 19.3856 31.9171 19.8543 31.9171 20.4272Z" fill="#FFA500"/>
<path opacity="0.4" d="M27.208 19.9897C26.7705 20.4168 26.5205 21.0314 26.583 21.6877C26.6768 22.8127 27.708 23.6356 28.833 23.6356H30.8747V25.146C30.8747 28.271 28.7913 30.3543 25.6663 30.3543H16.2913C13.1663 30.3543 11.083 28.271 11.083 25.146V17.8543C11.083 15.021 12.7913 13.0418 15.4476 12.7085C15.7184 12.6668 15.9997 12.646 16.2913 12.646H25.6663C25.9372 12.646 26.1976 12.6564 26.4476 12.6981C29.1351 13.0106 30.8747 15.0002 30.8747 17.8543V19.3648H28.708C28.1247 19.3648 27.5934 19.5939 27.208 19.9897Z" fill="#FFA500"/>
<path d="M22.542 19.1562H16.292C15.8649 19.1562 15.5107 18.8021 15.5107 18.375C15.5107 17.9479 15.8649 17.5938 16.292 17.5938H22.542C22.9691 17.5938 23.3232 17.9479 23.3232 18.375C23.3232 18.8021 22.9691 19.1562 22.542 19.1562Z" fill="#FFA500"/>
</svg>
