<svg width="75" height="75" viewBox="0 0 75 75" fill="none" xmlns="http://www.w3.org/2000/svg">
<circle cx="37.5" cy="37.5" r="37.5" fill="#FFA500" fill-opacity="0.19"/>
<circle cx="37.5" cy="37.5" r="29.5" fill="#FFA500"/>
<path d="M38 42C36.9067 42 36 41.0585 36 39.9231V26.0769C36 24.9415 36.9067 24 38 24C39.0933 24 40 24.9415 40 26.0769V39.9231C40 41.0585 39.0933 42 38 42Z" fill="white"/>
<path d="M38 51C37.82 51 37.61 50.97 37.4 50.9401C37.22 50.9101 37.04 50.8502 36.86 50.7603C36.68 50.7004 36.5 50.6105 36.32 50.4906C36.17 50.3708 36.02 50.2509 35.87 50.1311C35.33 49.5618 35 48.7828 35 48.0037C35 47.2247 35.33 46.4457 35.87 45.8764C36.02 45.7566 36.17 45.6367 36.32 45.5169C36.5 45.397 36.68 45.3071 36.86 45.2472C37.04 45.1573 37.22 45.0974 37.4 45.0674C37.79 44.9775 38.21 44.9775 38.57 45.0674C38.78 45.0974 38.96 45.1573 39.14 45.2472C39.32 45.3071 39.5 45.397 39.68 45.5169C39.83 45.6367 39.98 45.7566 40.13 45.8764C40.67 46.4457 41 47.2247 41 48.0037C41 48.7828 40.67 49.5618 40.13 50.1311C39.98 50.2509 39.83 50.3708 39.68 50.4906C39.5 50.6105 39.32 50.7004 39.14 50.7603C38.96 50.8502 38.78 50.9101 38.57 50.9401C38.39 50.97 38.18 51 38 51Z" fill="white"/>
</svg>
