<svg width="119" height="117" viewBox="0 0 119 117" fill="none" xmlns="http://www.w3.org/2000/svg">
<rect width="119" height="117" fill="white"/>
<path d="M7 6H10.1849V9.18491H7V6ZM10.1849 6H13.3698V9.18491H10.1849V6ZM13.3698 6H16.5547V9.18491H13.3698V6ZM16.5547 6H19.7397V9.18491H16.5547V6ZM19.7397 6H22.9246V9.18491H19.7397V6ZM22.9246 6H26.1095V9.18491H22.9246V6ZM26.1095 6H29.2944V9.18491H26.1095V6ZM35.6642 6H38.8491V9.18491H35.6642V6ZM57.9586 6H61.1436V9.18491H57.9586V6ZM61.1436 6H64.3285V9.18491H61.1436V6ZM64.3285 6H67.5134V9.18491H64.3285V6ZM67.5134 6H70.6983V9.18491H67.5134V6ZM70.6983 6H73.8832V9.18491H70.6983V6ZM73.8832 6H77.0681V9.18491H73.8832V6ZM77.0681 6H80.253V9.18491H77.0681V6ZM80.253 6H83.438V9.18491H80.253V6ZM89.8078 6H92.9927V9.18491H89.8078V6ZM92.9927 6H96.1776V9.18491H92.9927V6ZM96.1776 6H99.3625V9.18491H96.1776V6ZM99.3625 6H102.547V9.18491H99.3625V6ZM102.547 6H105.732V9.18491H102.547V6ZM105.732 6H108.917V9.18491H105.732V6ZM108.917 6H112.102V9.18491H108.917V6ZM7 9.18491H10.1849V12.3698H7V9.18491ZM26.1095 9.18491H29.2944V12.3698H26.1095V9.18491ZM32.4793 9.18491H35.6642V12.3698H32.4793V9.18491ZM35.6642 9.18491H38.8491V12.3698H35.6642V9.18491ZM42.0341 9.18491H45.219V12.3698H42.0341V9.18491ZM45.219 9.18491H48.4039V12.3698H45.219V9.18491ZM54.7737 9.18491H57.9586V12.3698H54.7737V9.18491ZM57.9586 9.18491H61.1436V12.3698H57.9586V9.18491ZM64.3285 9.18491H67.5134V12.3698H64.3285V9.18491ZM70.6983 9.18491H73.8832V12.3698H70.6983V9.18491ZM89.8078 9.18491H92.9927V12.3698H89.8078V9.18491ZM108.917 9.18491H112.102V12.3698H108.917V9.18491ZM7 12.3698H10.1849V15.5547H7V12.3698ZM13.3698 12.3698H16.5547V15.5547H13.3698V12.3698ZM16.5547 12.3698H19.7397V15.5547H16.5547V12.3698ZM19.7397 12.3698H22.9246V15.5547H19.7397V12.3698ZM26.1095 12.3698H29.2944V15.5547H26.1095V12.3698ZM35.6642 12.3698H38.8491V15.5547H35.6642V12.3698ZM38.8491 12.3698H42.0341V15.5547H38.8491V12.3698ZM42.0341 12.3698H45.219V15.5547H42.0341V12.3698ZM51.5888 12.3698H54.7737V15.5547H51.5888V12.3698ZM57.9586 12.3698H61.1436V15.5547H57.9586V12.3698ZM67.5134 12.3698H70.6983V15.5547H67.5134V12.3698ZM70.6983 12.3698H73.8832V15.5547H70.6983V12.3698ZM73.8832 12.3698H77.0681V15.5547H73.8832V12.3698ZM80.253 12.3698H83.438V15.5547H80.253V12.3698ZM89.8078 12.3698H92.9927V15.5547H89.8078V12.3698ZM96.1776 12.3698H99.3625V15.5547H96.1776V12.3698ZM99.3625 12.3698H102.547V15.5547H99.3625V12.3698ZM102.547 12.3698H105.732V15.5547H102.547V12.3698ZM108.917 12.3698H112.102V15.5547H108.917V12.3698ZM7 15.5547H10.1849V18.7397H7V15.5547ZM13.3698 15.5547H16.5547V18.7397H13.3698V15.5547ZM16.5547 15.5547H19.7397V18.7397H16.5547V15.5547ZM19.7397 15.5547H22.9246V18.7397H19.7397V15.5547ZM26.1095 15.5547H29.2944V18.7397H26.1095V15.5547ZM32.4793 15.5547H35.6642V18.7397H32.4793V15.5547ZM35.6642 15.5547H38.8491V18.7397H35.6642V15.5547ZM42.0341 15.5547H45.219V18.7397H42.0341V15.5547ZM48.4039 15.5547H51.5888V18.7397H48.4039V15.5547ZM51.5888 15.5547H54.7737V18.7397H51.5888V15.5547ZM54.7737 15.5547H57.9586V18.7397H54.7737V15.5547ZM57.9586 15.5547H61.1436V18.7397H57.9586V15.5547ZM61.1436 15.5547H64.3285V18.7397H61.1436V15.5547ZM67.5134 15.5547H70.6983V18.7397H67.5134V15.5547ZM70.6983 15.5547H73.8832V18.7397H70.6983V15.5547ZM77.0681 15.5547H80.253V18.7397H77.0681V15.5547ZM80.253 15.5547H83.438V18.7397H80.253V15.5547ZM83.438 15.5547H86.6229V18.7397H83.438V15.5547ZM89.8078 15.5547H92.9927V18.7397H89.8078V15.5547ZM96.1776 15.5547H99.3625V18.7397H96.1776V15.5547ZM99.3625 15.5547H102.547V18.7397H99.3625V15.5547ZM102.547 15.5547H105.732V18.7397H102.547V15.5547ZM108.917 15.5547H112.102V18.7397H108.917V15.5547ZM7 18.7397H10.1849V21.9246H7V18.7397ZM13.3698 18.7397H16.5547V21.9246H13.3698V18.7397ZM16.5547 18.7397H19.7397V21.9246H16.5547V18.7397ZM19.7397 18.7397H22.9246V21.9246H19.7397V18.7397ZM26.1095 18.7397H29.2944V21.9246H26.1095V18.7397ZM38.8491 18.7397H42.0341V21.9246H38.8491V18.7397ZM45.219 18.7397H48.4039V21.9246H45.219V18.7397ZM48.4039 18.7397H51.5888V21.9246H48.4039V18.7397ZM57.9586 18.7397H61.1436V21.9246H57.9586V18.7397ZM64.3285 18.7397H67.5134V21.9246H64.3285V18.7397ZM67.5134 18.7397H70.6983V21.9246H67.5134V18.7397ZM73.8832 18.7397H77.0681V21.9246H73.8832V18.7397ZM80.253 18.7397H83.438V21.9246H80.253V18.7397ZM89.8078 18.7397H92.9927V21.9246H89.8078V18.7397ZM96.1776 18.7397H99.3625V21.9246H96.1776V18.7397ZM99.3625 18.7397H102.547V21.9246H99.3625V18.7397ZM102.547 18.7397H105.732V21.9246H102.547V18.7397ZM108.917 18.7397H112.102V21.9246H108.917V18.7397ZM7 21.9246H10.1849V25.1095H7V21.9246ZM26.1095 21.9246H29.2944V25.1095H26.1095V21.9246ZM32.4793 21.9246H35.6642V25.1095H32.4793V21.9246ZM38.8491 21.9246H42.0341V25.1095H38.8491V21.9246ZM51.5888 21.9246H54.7737V25.1095H51.5888V21.9246ZM54.7737 21.9246H57.9586V25.1095H54.7737V21.9246ZM70.6983 21.9246H73.8832V25.1095H70.6983V21.9246ZM73.8832 21.9246H77.0681V25.1095H73.8832V21.9246ZM77.0681 21.9246H80.253V25.1095H77.0681V21.9246ZM83.438 21.9246H86.6229V25.1095H83.438V21.9246ZM89.8078 21.9246H92.9927V25.1095H89.8078V21.9246ZM108.917 21.9246H112.102V25.1095H108.917V21.9246ZM7 25.1095H10.1849V28.2944H7V25.1095ZM10.1849 25.1095H13.3698V28.2944H10.1849V25.1095ZM13.3698 25.1095H16.5547V28.2944H13.3698V25.1095ZM16.5547 25.1095H19.7397V28.2944H16.5547V25.1095ZM19.7397 25.1095H22.9246V28.2944H19.7397V25.1095ZM22.9246 25.1095H26.1095V28.2944H22.9246V25.1095ZM26.1095 25.1095H29.2944V28.2944H26.1095V25.1095ZM32.4793 25.1095H35.6642V28.2944H32.4793V25.1095ZM38.8491 25.1095H42.0341V28.2944H38.8491V25.1095ZM45.219 25.1095H48.4039V28.2944H45.219V25.1095ZM51.5888 25.1095H54.7737V28.2944H51.5888V25.1095ZM57.9586 25.1095H61.1436V28.2944H57.9586V25.1095ZM64.3285 25.1095H67.5134V28.2944H64.3285V25.1095ZM70.6983 25.1095H73.8832V28.2944H70.6983V25.1095ZM77.0681 25.1095H80.253V28.2944H77.0681V25.1095ZM83.438 25.1095H86.6229V28.2944H83.438V25.1095ZM89.8078 25.1095H92.9927V28.2944H89.8078V25.1095ZM92.9927 25.1095H96.1776V28.2944H92.9927V25.1095ZM96.1776 25.1095H99.3625V28.2944H96.1776V25.1095ZM99.3625 25.1095H102.547V28.2944H99.3625V25.1095ZM102.547 25.1095H105.732V28.2944H102.547V25.1095ZM105.732 25.1095H108.917V28.2944H105.732V25.1095ZM108.917 25.1095H112.102V28.2944H108.917V25.1095ZM45.219 28.2944H48.4039V31.4793H45.219V28.2944ZM57.9586 28.2944H61.1436V31.4793H57.9586V28.2944ZM64.3285 28.2944H67.5134V31.4793H64.3285V28.2944ZM67.5134 28.2944H70.6983V31.4793H67.5134V28.2944ZM73.8832 28.2944H77.0681V31.4793H73.8832V28.2944ZM77.0681 28.2944H80.253V31.4793H77.0681V28.2944ZM7 31.4793H10.1849V34.6642H7V31.4793ZM10.1849 31.4793H13.3698V34.6642H10.1849V31.4793ZM13.3698 31.4793H16.5547V34.6642H13.3698V31.4793ZM16.5547 31.4793H19.7397V34.6642H16.5547V31.4793ZM19.7397 31.4793H22.9246V34.6642H19.7397V31.4793ZM26.1095 31.4793H29.2944V34.6642H26.1095V31.4793ZM29.2944 31.4793H32.4793V34.6642H29.2944V31.4793ZM32.4793 31.4793H35.6642V34.6642H32.4793V31.4793ZM35.6642 31.4793H38.8491V34.6642H35.6642V31.4793ZM38.8491 31.4793H42.0341V34.6642H38.8491V31.4793ZM45.219 31.4793H48.4039V34.6642H45.219V31.4793ZM48.4039 31.4793H51.5888V34.6642H48.4039V31.4793ZM51.5888 31.4793H54.7737V34.6642H51.5888V31.4793ZM61.1436 31.4793H64.3285V34.6642H61.1436V31.4793ZM64.3285 31.4793H67.5134V34.6642H64.3285V31.4793ZM70.6983 31.4793H73.8832V34.6642H70.6983V31.4793ZM86.6229 31.4793H89.8078V34.6642H86.6229V31.4793ZM92.9927 31.4793H96.1776V34.6642H92.9927V31.4793ZM99.3625 31.4793H102.547V34.6642H99.3625V31.4793ZM105.732 31.4793H108.917V34.6642H105.732V31.4793ZM7 34.6642H10.1849V37.8491H7V34.6642ZM19.7397 34.6642H22.9246V37.8491H19.7397V34.6642ZM22.9246 34.6642H26.1095V37.8491H22.9246V34.6642ZM32.4793 34.6642H35.6642V37.8491H32.4793V34.6642ZM35.6642 34.6642H38.8491V37.8491H35.6642V34.6642ZM48.4039 34.6642H51.5888V37.8491H48.4039V34.6642ZM61.1436 34.6642H64.3285V37.8491H61.1436V34.6642ZM67.5134 34.6642H70.6983V37.8491H67.5134V34.6642ZM70.6983 34.6642H73.8832V37.8491H70.6983V34.6642ZM80.253 34.6642H83.438V37.8491H80.253V34.6642ZM89.8078 34.6642H92.9927V37.8491H89.8078V34.6642ZM102.547 34.6642H105.732V37.8491H102.547V34.6642ZM105.732 34.6642H108.917V37.8491H105.732V34.6642ZM108.917 34.6642H112.102V37.8491H108.917V34.6642ZM7 37.8491H10.1849V41.0341H7V37.8491ZM16.5547 37.8491H19.7397V41.0341H16.5547V37.8491ZM22.9246 37.8491H26.1095V41.0341H22.9246V37.8491ZM26.1095 37.8491H29.2944V41.0341H26.1095V37.8491ZM35.6642 37.8491H38.8491V41.0341H35.6642V37.8491ZM42.0341 37.8491H45.219V41.0341H42.0341V37.8491ZM45.219 37.8491H48.4039V41.0341H45.219V37.8491ZM51.5888 37.8491H54.7737V41.0341H51.5888V37.8491ZM54.7737 37.8491H57.9586V41.0341H54.7737V37.8491ZM77.0681 37.8491H80.253V41.0341H77.0681V37.8491ZM86.6229 37.8491H89.8078V41.0341H86.6229V37.8491ZM89.8078 37.8491H92.9927V41.0341H89.8078V37.8491ZM96.1776 37.8491H99.3625V41.0341H96.1776V37.8491ZM99.3625 37.8491H102.547V41.0341H99.3625V37.8491ZM105.732 37.8491H108.917V41.0341H105.732V37.8491ZM13.3698 41.0341H16.5547V44.219H13.3698V41.0341ZM16.5547 41.0341H19.7397V44.219H16.5547V41.0341ZM22.9246 41.0341H26.1095V44.219H22.9246V41.0341ZM29.2944 41.0341H32.4793V44.219H29.2944V41.0341ZM32.4793 41.0341H35.6642V44.219H32.4793V41.0341ZM35.6642 41.0341H38.8491V44.219H35.6642V41.0341ZM38.8491 41.0341H42.0341V44.219H38.8491V41.0341ZM42.0341 41.0341H45.219V44.219H42.0341V41.0341ZM57.9586 41.0341H61.1436V44.219H57.9586V41.0341ZM70.6983 41.0341H73.8832V44.219H70.6983V41.0341ZM73.8832 41.0341H77.0681V44.219H73.8832V41.0341ZM77.0681 41.0341H80.253V44.219H77.0681V41.0341ZM80.253 41.0341H83.438V44.219H80.253V41.0341ZM83.438 41.0341H86.6229V44.219H83.438V41.0341ZM86.6229 41.0341H89.8078V44.219H86.6229V41.0341ZM89.8078 41.0341H92.9927V44.219H89.8078V41.0341ZM96.1776 41.0341H99.3625V44.219H96.1776V41.0341ZM102.547 41.0341H105.732V44.219H102.547V41.0341ZM10.1849 44.219H13.3698V47.4039H10.1849V44.219ZM19.7397 44.219H22.9246V47.4039H19.7397V44.219ZM22.9246 44.219H26.1095V47.4039H22.9246V44.219ZM26.1095 44.219H29.2944V47.4039H26.1095V44.219ZM35.6642 44.219H38.8491V47.4039H35.6642V44.219ZM42.0341 44.219H45.219V47.4039H42.0341V44.219ZM48.4039 44.219H51.5888V47.4039H48.4039V44.219ZM51.5888 44.219H54.7737V47.4039H51.5888V44.219ZM61.1436 44.219H64.3285V47.4039H61.1436V44.219ZM67.5134 44.219H70.6983V47.4039H67.5134V44.219ZM77.0681 44.219H80.253V47.4039H77.0681V44.219ZM86.6229 44.219H89.8078V47.4039H86.6229V44.219ZM92.9927 44.219H96.1776V47.4039H92.9927V44.219ZM96.1776 44.219H99.3625V47.4039H96.1776V44.219ZM99.3625 44.219H102.547V47.4039H99.3625V44.219ZM10.1849 47.4039H13.3698V50.5888H10.1849V47.4039ZM16.5547 47.4039H19.7397V50.5888H16.5547V47.4039ZM19.7397 47.4039H22.9246V50.5888H19.7397V47.4039ZM29.2944 47.4039H32.4793V50.5888H29.2944V47.4039ZM32.4793 47.4039H35.6642V50.5888H32.4793V47.4039ZM38.8491 47.4039H42.0341V50.5888H38.8491V47.4039ZM45.219 47.4039H48.4039V50.5888H45.219V47.4039ZM57.9586 47.4039H61.1436V50.5888H57.9586V47.4039ZM64.3285 47.4039H67.5134V50.5888H64.3285V47.4039ZM67.5134 47.4039H70.6983V50.5888H67.5134V47.4039ZM70.6983 47.4039H73.8832V50.5888H70.6983V47.4039ZM73.8832 47.4039H77.0681V50.5888H73.8832V47.4039ZM80.253 47.4039H83.438V50.5888H80.253V47.4039ZM89.8078 47.4039H92.9927V50.5888H89.8078V47.4039ZM105.732 47.4039H108.917V50.5888H105.732V47.4039ZM108.917 47.4039H112.102V50.5888H108.917V47.4039ZM7 50.5888H10.1849V53.7737H7V50.5888ZM16.5547 50.5888H19.7397V53.7737H16.5547V50.5888ZM19.7397 50.5888H22.9246V53.7737H19.7397V50.5888ZM22.9246 50.5888H26.1095V53.7737H22.9246V50.5888ZM26.1095 50.5888H29.2944V53.7737H26.1095V50.5888ZM32.4793 50.5888H35.6642V53.7737H32.4793V50.5888ZM35.6642 50.5888H38.8491V53.7737H35.6642V50.5888ZM51.5888 50.5888H54.7737V53.7737H51.5888V50.5888ZM54.7737 50.5888H57.9586V53.7737H54.7737V50.5888ZM57.9586 50.5888H61.1436V53.7737H57.9586V50.5888ZM61.1436 50.5888H64.3285V53.7737H61.1436V50.5888ZM64.3285 50.5888H67.5134V53.7737H64.3285V50.5888ZM70.6983 50.5888H73.8832V53.7737H70.6983V50.5888ZM73.8832 50.5888H77.0681V53.7737H73.8832V50.5888ZM86.6229 50.5888H89.8078V53.7737H86.6229V50.5888ZM96.1776 50.5888H99.3625V53.7737H96.1776V50.5888ZM105.732 50.5888H108.917V53.7737H105.732V50.5888ZM7 53.7737H10.1849V56.9586H7V53.7737ZM13.3698 53.7737H16.5547V56.9586H13.3698V53.7737ZM16.5547 53.7737H19.7397V56.9586H16.5547V53.7737ZM22.9246 53.7737H26.1095V56.9586H22.9246V53.7737ZM29.2944 53.7737H32.4793V56.9586H29.2944V53.7737ZM45.219 53.7737H48.4039V56.9586H45.219V53.7737ZM51.5888 53.7737H54.7737V56.9586H51.5888V53.7737ZM54.7737 53.7737H57.9586V56.9586H54.7737V53.7737ZM73.8832 53.7737H77.0681V56.9586H73.8832V53.7737ZM77.0681 53.7737H80.253V56.9586H77.0681V53.7737ZM80.253 53.7737H83.438V56.9586H80.253V53.7737ZM86.6229 53.7737H89.8078V56.9586H86.6229V53.7737ZM89.8078 53.7737H92.9927V56.9586H89.8078V53.7737ZM102.547 53.7737H105.732V56.9586H102.547V53.7737ZM13.3698 56.9586H16.5547V60.1436H13.3698V56.9586ZM22.9246 56.9586H26.1095V60.1436H22.9246V56.9586ZM26.1095 56.9586H29.2944V60.1436H26.1095V56.9586ZM35.6642 56.9586H38.8491V60.1436H35.6642V56.9586ZM45.219 56.9586H48.4039V60.1436H45.219V56.9586ZM48.4039 56.9586H51.5888V60.1436H48.4039V56.9586ZM51.5888 56.9586H54.7737V60.1436H51.5888V56.9586ZM61.1436 56.9586H64.3285V60.1436H61.1436V56.9586ZM67.5134 56.9586H70.6983V60.1436H67.5134V56.9586ZM77.0681 56.9586H80.253V60.1436H77.0681V56.9586ZM80.253 56.9586H83.438V60.1436H80.253V56.9586ZM83.438 56.9586H86.6229V60.1436H83.438V56.9586ZM86.6229 56.9586H89.8078V60.1436H86.6229V56.9586ZM92.9927 56.9586H96.1776V60.1436H92.9927V56.9586ZM96.1776 56.9586H99.3625V60.1436H96.1776V56.9586ZM105.732 56.9586H108.917V60.1436H105.732V56.9586ZM10.1849 60.1436H13.3698V63.3285H10.1849V60.1436ZM19.7397 60.1436H22.9246V63.3285H19.7397V60.1436ZM32.4793 60.1436H35.6642V63.3285H32.4793V60.1436ZM51.5888 60.1436H54.7737V63.3285H51.5888V60.1436ZM57.9586 60.1436H61.1436V63.3285H57.9586V60.1436ZM61.1436 60.1436H64.3285V63.3285H61.1436V60.1436ZM64.3285 60.1436H67.5134V63.3285H64.3285V60.1436ZM67.5134 60.1436H70.6983V63.3285H67.5134V60.1436ZM70.6983 60.1436H73.8832V63.3285H70.6983V60.1436ZM73.8832 60.1436H77.0681V63.3285H73.8832V60.1436ZM77.0681 60.1436H80.253V63.3285H77.0681V60.1436ZM80.253 60.1436H83.438V63.3285H80.253V60.1436ZM83.438 60.1436H86.6229V63.3285H83.438V60.1436ZM89.8078 60.1436H92.9927V63.3285H89.8078V60.1436ZM99.3625 60.1436H102.547V63.3285H99.3625V60.1436ZM105.732 60.1436H108.917V63.3285H105.732V60.1436ZM108.917 60.1436H112.102V63.3285H108.917V60.1436ZM13.3698 63.3285H16.5547V66.5134H13.3698V63.3285ZM26.1095 63.3285H29.2944V66.5134H26.1095V63.3285ZM38.8491 63.3285H42.0341V66.5134H38.8491V63.3285ZM42.0341 63.3285H45.219V66.5134H42.0341V63.3285ZM45.219 63.3285H48.4039V66.5134H45.219V63.3285ZM51.5888 63.3285H54.7737V66.5134H51.5888V63.3285ZM54.7737 63.3285H57.9586V66.5134H54.7737V63.3285ZM57.9586 63.3285H61.1436V66.5134H57.9586V63.3285ZM61.1436 63.3285H64.3285V66.5134H61.1436V63.3285ZM70.6983 63.3285H73.8832V66.5134H70.6983V63.3285ZM73.8832 63.3285H77.0681V66.5134H73.8832V63.3285ZM86.6229 63.3285H89.8078V66.5134H86.6229V63.3285ZM89.8078 63.3285H92.9927V66.5134H89.8078V63.3285ZM92.9927 63.3285H96.1776V66.5134H92.9927V63.3285ZM96.1776 63.3285H99.3625V66.5134H96.1776V63.3285ZM99.3625 63.3285H102.547V66.5134H99.3625V63.3285ZM105.732 63.3285H108.917V66.5134H105.732V63.3285ZM7 66.5134H10.1849V69.6983H7V66.5134ZM10.1849 66.5134H13.3698V69.6983H10.1849V66.5134ZM16.5547 66.5134H19.7397V69.6983H16.5547V66.5134ZM29.2944 66.5134H32.4793V69.6983H29.2944V66.5134ZM32.4793 66.5134H35.6642V69.6983H32.4793V66.5134ZM38.8491 66.5134H42.0341V69.6983H38.8491V66.5134ZM42.0341 66.5134H45.219V69.6983H42.0341V66.5134ZM57.9586 66.5134H61.1436V69.6983H57.9586V66.5134ZM73.8832 66.5134H77.0681V69.6983H73.8832V66.5134ZM96.1776 66.5134H99.3625V69.6983H96.1776V66.5134ZM102.547 66.5134H105.732V69.6983H102.547V66.5134ZM7 69.6983H10.1849V72.8832H7V69.6983ZM10.1849 69.6983H13.3698V72.8832H10.1849V69.6983ZM13.3698 69.6983H16.5547V72.8832H13.3698V69.6983ZM16.5547 69.6983H19.7397V72.8832H16.5547V69.6983ZM26.1095 69.6983H29.2944V72.8832H26.1095V69.6983ZM29.2944 69.6983H32.4793V72.8832H29.2944V69.6983ZM35.6642 69.6983H38.8491V72.8832H35.6642V69.6983ZM42.0341 69.6983H45.219V72.8832H42.0341V69.6983ZM61.1436 69.6983H64.3285V72.8832H61.1436V69.6983ZM77.0681 69.6983H80.253V72.8832H77.0681V69.6983ZM80.253 69.6983H83.438V72.8832H80.253V69.6983ZM83.438 69.6983H86.6229V72.8832H83.438V69.6983ZM86.6229 69.6983H89.8078V72.8832H86.6229V69.6983ZM92.9927 69.6983H96.1776V72.8832H92.9927V69.6983ZM96.1776 69.6983H99.3625V72.8832H96.1776V69.6983ZM105.732 69.6983H108.917V72.8832H105.732V69.6983ZM7 72.8832H10.1849V76.0681H7V72.8832ZM10.1849 72.8832H13.3698V76.0681H10.1849V72.8832ZM19.7397 72.8832H22.9246V76.0681H19.7397V72.8832ZM29.2944 72.8832H32.4793V76.0681H29.2944V72.8832ZM32.4793 72.8832H35.6642V76.0681H32.4793V72.8832ZM45.219 72.8832H48.4039V76.0681H45.219V72.8832ZM48.4039 72.8832H51.5888V76.0681H48.4039V72.8832ZM57.9586 72.8832H61.1436V76.0681H57.9586V72.8832ZM61.1436 72.8832H64.3285V76.0681H61.1436V72.8832ZM64.3285 72.8832H67.5134V76.0681H64.3285V72.8832ZM67.5134 72.8832H70.6983V76.0681H67.5134V72.8832ZM70.6983 72.8832H73.8832V76.0681H70.6983V72.8832ZM73.8832 72.8832H77.0681V76.0681H73.8832V72.8832ZM77.0681 72.8832H80.253V76.0681H77.0681V72.8832ZM80.253 72.8832H83.438V76.0681H80.253V72.8832ZM89.8078 72.8832H92.9927V76.0681H89.8078V72.8832ZM92.9927 72.8832H96.1776V76.0681H92.9927V72.8832ZM99.3625 72.8832H102.547V76.0681H99.3625V72.8832ZM105.732 72.8832H108.917V76.0681H105.732V72.8832ZM108.917 72.8832H112.102V76.0681H108.917V72.8832ZM7 76.0681H10.1849V79.253H7V76.0681ZM13.3698 76.0681H16.5547V79.253H13.3698V76.0681ZM16.5547 76.0681H19.7397V79.253H16.5547V76.0681ZM22.9246 76.0681H26.1095V79.253H22.9246V76.0681ZM26.1095 76.0681H29.2944V79.253H26.1095V76.0681ZM29.2944 76.0681H32.4793V79.253H29.2944V76.0681ZM32.4793 76.0681H35.6642V79.253H32.4793V76.0681ZM35.6642 76.0681H38.8491V79.253H35.6642V76.0681ZM48.4039 76.0681H51.5888V79.253H48.4039V76.0681ZM51.5888 76.0681H54.7737V79.253H51.5888V76.0681ZM54.7737 76.0681H57.9586V79.253H54.7737V76.0681ZM57.9586 76.0681H61.1436V79.253H57.9586V76.0681ZM73.8832 76.0681H77.0681V79.253H73.8832V76.0681ZM86.6229 76.0681H89.8078V79.253H86.6229V76.0681ZM99.3625 76.0681H102.547V79.253H99.3625V76.0681ZM105.732 76.0681H108.917V79.253H105.732V76.0681ZM7 79.253H10.1849V82.438H7V79.253ZM16.5547 79.253H19.7397V82.438H16.5547V79.253ZM19.7397 79.253H22.9246V82.438H19.7397V79.253ZM22.9246 79.253H26.1095V82.438H22.9246V79.253ZM29.2944 79.253H32.4793V82.438H29.2944V79.253ZM32.4793 79.253H35.6642V82.438H32.4793V79.253ZM45.219 79.253H48.4039V82.438H45.219V79.253ZM48.4039 79.253H51.5888V82.438H48.4039V79.253ZM70.6983 79.253H73.8832V82.438H70.6983V79.253ZM73.8832 79.253H77.0681V82.438H73.8832V79.253ZM80.253 79.253H83.438V82.438H80.253V79.253ZM86.6229 79.253H89.8078V82.438H86.6229V79.253ZM92.9927 79.253H96.1776V82.438H92.9927V79.253ZM96.1776 79.253H99.3625V82.438H96.1776V79.253ZM99.3625 79.253H102.547V82.438H99.3625V79.253ZM102.547 79.253H105.732V82.438H102.547V79.253ZM7 82.438H10.1849V85.6229H7V82.438ZM13.3698 82.438H16.5547V85.6229H13.3698V82.438ZM19.7397 82.438H22.9246V85.6229H19.7397V82.438ZM22.9246 82.438H26.1095V85.6229H22.9246V82.438ZM26.1095 82.438H29.2944V85.6229H26.1095V82.438ZM29.2944 82.438H32.4793V85.6229H29.2944V82.438ZM32.4793 82.438H35.6642V85.6229H32.4793V82.438ZM38.8491 82.438H42.0341V85.6229H38.8491V82.438ZM45.219 82.438H48.4039V85.6229H45.219V82.438ZM51.5888 82.438H54.7737V85.6229H51.5888V82.438ZM54.7737 82.438H57.9586V85.6229H54.7737V82.438ZM61.1436 82.438H64.3285V85.6229H61.1436V82.438ZM64.3285 82.438H67.5134V85.6229H64.3285V82.438ZM70.6983 82.438H73.8832V85.6229H70.6983V82.438ZM77.0681 82.438H80.253V85.6229H77.0681V82.438ZM80.253 82.438H83.438V85.6229H80.253V82.438ZM83.438 82.438H86.6229V85.6229H83.438V82.438ZM86.6229 82.438H89.8078V85.6229H86.6229V82.438ZM89.8078 82.438H92.9927V85.6229H89.8078V82.438ZM92.9927 82.438H96.1776V85.6229H92.9927V82.438ZM96.1776 82.438H99.3625V85.6229H96.1776V82.438ZM99.3625 82.438H102.547V85.6229H99.3625V82.438ZM108.917 82.438H112.102V85.6229H108.917V82.438ZM32.4793 85.6229H35.6642V88.8078H32.4793V85.6229ZM35.6642 85.6229H38.8491V88.8078H35.6642V85.6229ZM57.9586 85.6229H61.1436V88.8078H57.9586V85.6229ZM61.1436 85.6229H64.3285V88.8078H61.1436V85.6229ZM64.3285 85.6229H67.5134V88.8078H64.3285V85.6229ZM67.5134 85.6229H70.6983V88.8078H67.5134V85.6229ZM70.6983 85.6229H73.8832V88.8078H70.6983V85.6229ZM73.8832 85.6229H77.0681V88.8078H73.8832V85.6229ZM77.0681 85.6229H80.253V88.8078H77.0681V85.6229ZM83.438 85.6229H86.6229V88.8078H83.438V85.6229ZM96.1776 85.6229H99.3625V88.8078H96.1776V85.6229ZM102.547 85.6229H105.732V88.8078H102.547V85.6229ZM108.917 85.6229H112.102V88.8078H108.917V85.6229ZM7 88.8078H10.1849V91.9927H7V88.8078ZM10.1849 88.8078H13.3698V91.9927H10.1849V88.8078ZM13.3698 88.8078H16.5547V91.9927H13.3698V88.8078ZM16.5547 88.8078H19.7397V91.9927H16.5547V88.8078ZM19.7397 88.8078H22.9246V91.9927H19.7397V88.8078ZM22.9246 88.8078H26.1095V91.9927H22.9246V88.8078ZM26.1095 88.8078H29.2944V91.9927H26.1095V88.8078ZM32.4793 88.8078H35.6642V91.9927H32.4793V88.8078ZM35.6642 88.8078H38.8491V91.9927H35.6642V88.8078ZM42.0341 88.8078H45.219V91.9927H42.0341V88.8078ZM45.219 88.8078H48.4039V91.9927H45.219V88.8078ZM54.7737 88.8078H57.9586V91.9927H54.7737V88.8078ZM61.1436 88.8078H64.3285V91.9927H61.1436V88.8078ZM70.6983 88.8078H73.8832V91.9927H70.6983V88.8078ZM80.253 88.8078H83.438V91.9927H80.253V88.8078ZM83.438 88.8078H86.6229V91.9927H83.438V88.8078ZM89.8078 88.8078H92.9927V91.9927H89.8078V88.8078ZM96.1776 88.8078H99.3625V91.9927H96.1776V88.8078ZM102.547 88.8078H105.732V91.9927H102.547V88.8078ZM105.732 88.8078H108.917V91.9927H105.732V88.8078ZM7 91.9927H10.1849V95.1776H7V91.9927ZM26.1095 91.9927H29.2944V95.1776H26.1095V91.9927ZM35.6642 91.9927H38.8491V95.1776H35.6642V91.9927ZM42.0341 91.9927H45.219V95.1776H42.0341V91.9927ZM51.5888 91.9927H54.7737V95.1776H51.5888V91.9927ZM54.7737 91.9927H57.9586V95.1776H54.7737V91.9927ZM57.9586 91.9927H61.1436V95.1776H57.9586V91.9927ZM64.3285 91.9927H67.5134V95.1776H64.3285V91.9927ZM70.6983 91.9927H73.8832V95.1776H70.6983V91.9927ZM73.8832 91.9927H77.0681V95.1776H73.8832V91.9927ZM77.0681 91.9927H80.253V95.1776H77.0681V91.9927ZM80.253 91.9927H83.438V95.1776H80.253V91.9927ZM83.438 91.9927H86.6229V95.1776H83.438V91.9927ZM96.1776 91.9927H99.3625V95.1776H96.1776V91.9927ZM99.3625 91.9927H102.547V95.1776H99.3625V91.9927ZM102.547 91.9927H105.732V95.1776H102.547V91.9927ZM7 95.1776H10.1849V98.3625H7V95.1776ZM13.3698 95.1776H16.5547V98.3625H13.3698V95.1776ZM16.5547 95.1776H19.7397V98.3625H16.5547V95.1776ZM19.7397 95.1776H22.9246V98.3625H19.7397V95.1776ZM26.1095 95.1776H29.2944V98.3625H26.1095V95.1776ZM32.4793 95.1776H35.6642V98.3625H32.4793V95.1776ZM35.6642 95.1776H38.8491V98.3625H35.6642V95.1776ZM38.8491 95.1776H42.0341V98.3625H38.8491V95.1776ZM42.0341 95.1776H45.219V98.3625H42.0341V95.1776ZM54.7737 95.1776H57.9586V98.3625H54.7737V95.1776ZM57.9586 95.1776H61.1436V98.3625H57.9586V95.1776ZM61.1436 95.1776H64.3285V98.3625H61.1436V95.1776ZM83.438 95.1776H86.6229V98.3625H83.438V95.1776ZM86.6229 95.1776H89.8078V98.3625H86.6229V95.1776ZM89.8078 95.1776H92.9927V98.3625H89.8078V95.1776ZM92.9927 95.1776H96.1776V98.3625H92.9927V95.1776ZM96.1776 95.1776H99.3625V98.3625H96.1776V95.1776ZM7 98.3625H10.1849V101.547H7V98.3625ZM13.3698 98.3625H16.5547V101.547H13.3698V98.3625ZM16.5547 98.3625H19.7397V101.547H16.5547V98.3625ZM19.7397 98.3625H22.9246V101.547H19.7397V98.3625ZM26.1095 98.3625H29.2944V101.547H26.1095V98.3625ZM32.4793 98.3625H35.6642V101.547H32.4793V98.3625ZM45.219 98.3625H48.4039V101.547H45.219V98.3625ZM48.4039 98.3625H51.5888V101.547H48.4039V98.3625ZM51.5888 98.3625H54.7737V101.547H51.5888V98.3625ZM57.9586 98.3625H61.1436V101.547H57.9586V98.3625ZM67.5134 98.3625H70.6983V101.547H67.5134V98.3625ZM70.6983 98.3625H73.8832V101.547H70.6983V98.3625ZM80.253 98.3625H83.438V101.547H80.253V98.3625ZM96.1776 98.3625H99.3625V101.547H96.1776V98.3625ZM99.3625 98.3625H102.547V101.547H99.3625V98.3625ZM7 101.547H10.1849V104.732H7V101.547ZM13.3698 101.547H16.5547V104.732H13.3698V101.547ZM16.5547 101.547H19.7397V104.732H16.5547V101.547ZM19.7397 101.547H22.9246V104.732H19.7397V101.547ZM26.1095 101.547H29.2944V104.732H26.1095V101.547ZM32.4793 101.547H35.6642V104.732H32.4793V101.547ZM38.8491 101.547H42.0341V104.732H38.8491V101.547ZM48.4039 101.547H51.5888V104.732H48.4039V101.547ZM51.5888 101.547H54.7737V104.732H51.5888V101.547ZM54.7737 101.547H57.9586V104.732H54.7737V101.547ZM57.9586 101.547H61.1436V104.732H57.9586V101.547ZM64.3285 101.547H67.5134V104.732H64.3285V101.547ZM77.0681 101.547H80.253V104.732H77.0681V101.547ZM83.438 101.547H86.6229V104.732H83.438V101.547ZM89.8078 101.547H92.9927V104.732H89.8078V101.547ZM102.547 101.547H105.732V104.732H102.547V101.547ZM105.732 101.547H108.917V104.732H105.732V101.547ZM7 104.732H10.1849V107.917H7V104.732ZM26.1095 104.732H29.2944V107.917H26.1095V104.732ZM32.4793 104.732H35.6642V107.917H32.4793V104.732ZM45.219 104.732H48.4039V107.917H45.219V104.732ZM48.4039 104.732H51.5888V107.917H48.4039V104.732ZM54.7737 104.732H57.9586V107.917H54.7737V104.732ZM70.6983 104.732H73.8832V107.917H70.6983V104.732ZM73.8832 104.732H77.0681V107.917H73.8832V104.732ZM77.0681 104.732H80.253V107.917H77.0681V104.732ZM86.6229 104.732H89.8078V107.917H86.6229V104.732ZM89.8078 104.732H92.9927V107.917H89.8078V104.732ZM99.3625 104.732H102.547V107.917H99.3625V104.732ZM102.547 104.732H105.732V107.917H102.547V104.732ZM7 107.917H10.1849V111.102H7V107.917ZM10.1849 107.917H13.3698V111.102H10.1849V107.917ZM13.3698 107.917H16.5547V111.102H13.3698V107.917ZM16.5547 107.917H19.7397V111.102H16.5547V107.917ZM19.7397 107.917H22.9246V111.102H19.7397V107.917ZM22.9246 107.917H26.1095V111.102H22.9246V107.917ZM26.1095 107.917H29.2944V111.102H26.1095V107.917ZM32.4793 107.917H35.6642V111.102H32.4793V107.917ZM45.219 107.917H48.4039V111.102H45.219V107.917ZM51.5888 107.917H54.7737V111.102H51.5888V107.917ZM61.1436 107.917H64.3285V111.102H61.1436V107.917ZM77.0681 107.917H80.253V111.102H77.0681V107.917ZM80.253 107.917H83.438V111.102H80.253V107.917ZM83.438 107.917H86.6229V111.102H83.438V107.917ZM89.8078 107.917H92.9927V111.102H89.8078V107.917ZM92.9927 107.917H96.1776V111.102H92.9927V107.917ZM105.732 107.917H108.917V111.102H105.732V107.917Z" fill="black"/>
<rect x="43" y="42" width="34" height="34" rx="4" fill="white"/>
<path d="M63.7431 58.5973L67.0589 54.5037L61.9448 48.4766H51.0957V69.5242H63.3651L68.0957 63.1809L63.7431 58.5973ZM60.1087 51.7852L62.231 54.5511L60.7406 55.7576L57.7812 51.7852H60.1087ZM54.3143 53.7714H55.1729L57.7758 57.512H54.3143V53.7714ZM54.3143 66.4421C54.163 66.4421 54.3143 61.927 54.3143 61.927H55.1513L58.2348 66.4421C58.2348 66.4421 54.4655 66.4421 54.3143 66.4421ZM61.8044 65.2567L58.413 60.5677H61.1456L63.4461 63.6762L61.8044 65.2567Z" fill="url(#paint0_linear_1734_30149)"/>
<defs>
<linearGradient id="paint0_linear_1734_30149" x1="59.594" y1="48.4789" x2="59.594" y2="69.5271" gradientUnits="userSpaceOnUse">
<stop offset="5.20186e-07" stop-color="#FFA700"/>
<stop offset="1" stop-color="#FF7F00"/>
</linearGradient>
</defs>
</svg>
