<svg width="13" height="15" viewBox="0 0 13 15" fill="none" xmlns="http://www.w3.org/2000/svg">
<rect x="2.92969" width="9.54545" height="15" fill="#D9D9D9"/>
<rect x="0.203125" y="1.36364" width="2.72727" height="2.72727" fill="#D9D9D9"/>
<rect x="0.203125" y="5.45454" width="2.72727" height="2.72727" fill="#D9D9D9"/>
<rect x="0.203125" y="9.54545" width="2.72727" height="2.72727" fill="#D9D9D9"/>
<path d="M7.62999 2.94C8.28999 2.94 8.82332 3.12667 9.22999 3.5C9.63666 3.87333 9.83999 4.37333 9.83999 5C9.83999 5.7 9.62332 6.22 9.18999 6.56C8.75666 6.89333 8.16999 7.06 7.42999 7.06L7.39999 8.01H6.60999L6.56999 6.43H6.85999C7.51999 6.43 8.03666 6.33 8.40999 6.13C8.78332 5.93 8.96999 5.55333 8.96999 5C8.96999 4.6 8.84999 4.28333 8.60999 4.05C8.36999 3.81667 8.04666 3.7 7.63999 3.7C7.22666 3.7 6.89999 3.81333 6.65999 4.04C6.42666 4.26 6.30999 4.56333 6.30999 4.95H5.44999C5.44999 4.55 5.53999 4.2 5.71999 3.9C5.89999 3.59333 6.15332 3.35667 6.47999 3.19C6.81332 3.02333 7.19666 2.94 7.62999 2.94ZM6.99999 10.06C6.82666 10.06 6.67999 10 6.55999 9.88C6.43999 9.76 6.37999 9.61333 6.37999 9.44C6.37999 9.26667 6.43999 9.12 6.55999 9C6.67999 8.88 6.82666 8.82 6.99999 8.82C7.16666 8.82 7.30666 8.88 7.41999 9C7.53999 9.12 7.59999 9.26667 7.59999 9.44C7.59999 9.61333 7.53999 9.76 7.41999 9.88C7.30666 10 7.16666 10.06 6.99999 10.06Z" fill="black"/>
</svg>
