<svg width="30" height="30" viewBox="0 0 30 30" fill="none" xmlns="http://www.w3.org/2000/svg">
<path d="M10.8375 28.4375H2.5C1.9875 28.4375 1.5625 28.0125 1.5625 27.5V20C1.5625 18.1 3.1 16.5625 5 16.5625H10.8375C11.35 16.5625 11.775 16.9875 11.775 17.5V27.5C11.775 28.0125 11.35 28.4375 10.8375 28.4375ZM3.4375 26.5625H9.9V18.4375H5C4.1375 18.4375 3.4375 19.1375 3.4375 20V26.5625Z" fill="#081131"/>
<path d="M19.1656 28.4375H10.8281C10.3156 28.4375 9.89062 28.0125 9.89062 27.5V15C9.89062 13.1 11.4281 11.5625 13.3281 11.5625H16.6656C18.5656 11.5625 20.1031 13.1 20.1031 15V27.5C20.1031 28.0125 19.6906 28.4375 19.1656 28.4375ZM11.7781 26.5625H18.2406V15C18.2406 14.1375 17.5406 13.4375 16.6781 13.4375H13.3406C12.4781 13.4375 11.7781 14.1375 11.7781 15V26.5625Z" fill="#081131"/>
<path d="M27.5016 28.4375H19.1641C18.6516 28.4375 18.2266 28.0125 18.2266 27.5V21.25C18.2266 20.7375 18.6516 20.3125 19.1641 20.3125H25.0016C26.9016 20.3125 28.4391 21.85 28.4391 23.75V27.5C28.4391 28.0125 28.0141 28.4375 27.5016 28.4375ZM20.1016 26.5625H26.5641V23.75C26.5641 22.8875 25.8641 22.1875 25.0016 22.1875H20.1016V26.5625Z" fill="#081131"/>
<path d="M17.1256 10.4373C16.8256 10.4373 16.4506 10.3498 16.0256 10.0998L15.0006 9.48729L13.9881 10.0873C12.9631 10.6998 12.2881 10.3373 12.0381 10.1623C11.7881 9.9873 11.2506 9.4373 11.5131 8.2873L11.7506 7.24978L10.9006 6.39979C10.3756 5.87478 10.1881 5.24978 10.3756 4.67478C10.5631 4.09978 11.0756 3.69977 11.8006 3.57477L12.8881 3.38728L13.5006 2.1623C14.1756 0.824805 15.8131 0.824805 16.4756 2.1623L17.0881 3.38728L18.1756 3.57477C18.9006 3.69977 19.4256 4.09978 19.6006 4.67478C19.7881 5.24978 19.5881 5.87478 19.0756 6.39979L18.2256 7.24978L18.4631 8.2873C18.7256 9.4498 18.1881 9.98731 17.9381 10.1748C17.8256 10.2748 17.5381 10.4373 17.1256 10.4373ZM15.0006 7.59977C15.3006 7.59977 15.6006 7.6748 15.8506 7.8248L16.5506 8.23729L16.4006 7.56228C16.2756 7.03728 16.4631 6.39979 16.8506 6.01229L17.4881 5.37478L16.7006 5.23729C16.2006 5.14979 15.7131 4.78729 15.4881 4.33729L15.0006 3.39979L14.5256 4.33729C14.3006 4.78729 13.8131 5.14979 13.3131 5.23729L12.5256 5.3623L13.1631 5.99978C13.5506 6.38728 13.7256 7.0248 13.6131 7.5498L13.4631 8.22477L14.1631 7.81229C14.4006 7.66229 14.7006 7.59977 15.0006 7.59977Z" fill="#081131"/>
</svg>
