<svg width="30" height="35" viewBox="0 0 30 35" fill="none" xmlns="http://www.w3.org/2000/svg">
<rect x="11" y="15" width="10" height="13" fill="#CCCCCC"/>
<path d="M24.7612 13.8247L17.8312 9.82301C16.6996 9.16967 15.2996 9.16967 14.1562 9.82301L7.23792 13.8247C6.10625 14.478 5.40625 15.6913 5.40625 17.0097V24.9897C5.40625 26.2963 6.10625 27.5097 7.23792 28.1747L14.1679 32.1763C15.2996 32.8297 16.6996 32.8297 17.8429 32.1763L24.7729 28.1747C25.9046 27.5213 26.6046 26.308 26.6046 24.9897V17.0097C26.5929 15.6913 25.8929 14.4897 24.7612 13.8247ZM15.9996 15.563C17.5046 15.563 18.7179 16.7763 18.7179 18.2813C18.7179 19.7863 17.5046 20.9997 15.9996 20.9997C14.4946 20.9997 13.2812 19.7863 13.2812 18.2813C13.2812 16.788 14.4946 15.563 15.9996 15.563ZM19.1263 26.4363H12.8729C11.9279 26.4363 11.3796 25.3863 11.9046 24.6047C12.6979 23.4263 14.2379 22.633 15.9996 22.633C17.7612 22.633 19.3012 23.4263 20.0946 24.6047C20.6196 25.3747 20.0596 26.4363 19.1263 26.4363Z" fill="#CCCCCC"/>
<path d="M15.584 20.764H14.576V19.854L17.446 17.096H12.896V15.878H19.182V16.984L16.41 19.63C18.132 19.84 19.434 21.002 19.434 22.822C19.434 24.866 17.894 26.168 15.836 26.168C13.848 26.168 12.42 24.95 12.42 22.85H13.778C13.778 24.166 14.59 24.936 15.864 24.936C17.18 24.936 18.034 24.096 18.034 22.794C18.034 21.576 17.194 20.764 15.584 20.764Z" fill="white"/>
<path d="M13.778 12.0779L9.14013 14.7556C8.94997 14.8654 8.70124 14.7987 8.59145 14.6086C8.48167 14.4184 8.54831 14.1697 8.73847 14.0599L13.3764 11.3822C13.5665 11.2724 13.8153 11.3391 13.9251 11.5292C14.0348 11.7194 13.9682 11.9681 13.778 12.0779Z" fill="#CCCCCC"/>
<path d="M10.9153 3.53794L9.82596 5.93547C9.68191 6.25363 9.26784 6.35046 8.99782 6.12914L6.77169 4.29771C6.39032 3.9799 5.81985 4.30926 5.9044 4.79844L6.37008 7.64008C6.42943 7.98922 6.14317 8.29672 5.79293 8.25776L3.17194 8.00239C2.65095 7.95689 2.37087 8.60712 2.77295 8.95008L7.82185 13.2393C7.99389 13.3874 8.23975 13.4062 8.43454 13.2937L12.8545 10.7419C13.0493 10.6294 13.1532 10.4024 13.1137 10.1841L11.9236 3.66697C11.8322 3.1446 11.1291 3.06204 10.9153 3.53794ZM10.6736 9.3852L8.35468 10.7241C8.16453 10.8338 7.9158 10.7672 7.80601 10.577C7.69623 10.3869 7.76287 10.1382 7.95303 10.0284L10.272 8.68951C10.4621 8.57973 10.7109 8.64638 10.8207 8.83653C10.9304 9.02668 10.8638 9.27542 10.6736 9.3852Z" fill="#CCCCCC"/>
</svg>
