<svg width="157" height="82" viewBox="0 0 157 82" fill="none" xmlns="http://www.w3.org/2000/svg">
<path d="M138.47 11.9078H0.524276C0.228476 11.9015 -0.0062017 11.6566 0.000124973 11.3609C0.00625894 11.0741 0.237379 10.843 0.524276 10.8369H138.47C138.766 10.8432 139 11.0881 138.994 11.3838C138.988 11.6706 138.757 11.9017 138.47 11.9078Z" fill="#CACACA"/>
<path d="M43.3197 22.2412H5.18621C2.32194 22.2412 0 24.5625 0 27.4259V27.4259C0 30.2893 2.32194 32.6106 5.18621 32.6106H43.3197C46.184 32.6106 48.506 30.2893 48.506 27.4259C48.506 24.5625 46.184 22.2412 43.3197 22.2412Z" fill="#F5F5F5"/>
<path d="M5.18621 42.9805H92.5888C95.453 42.9805 97.775 45.3017 97.775 48.1652C97.775 51.0286 95.453 53.3498 92.5888 53.3498H5.18621C2.32194 53.3498 0 51.0286 0 48.1652C0 45.3017 2.32194 42.9805 5.18621 42.9805Z" fill="#F5F5F5"/>
<path d="M5.18621 63.7188H92.5888C95.453 63.7188 97.775 66.04 97.775 68.9034C97.775 71.7669 95.453 74.0881 92.5888 74.0881H5.18621C2.32194 74.0881 0 71.7669 0 68.9034C0 66.04 2.32194 63.7188 5.18621 63.7188Z" fill="#F5F5F5"/>
<path d="M40.4616 59.3291C40.4019 59.3311 40.3421 59.3324 40.2823 59.334C40.2567 59.4004 40.2291 59.4662 40.1973 59.5307L40.4616 59.3291Z" fill="#2F2E41"/>
<path d="M42.4922 52.1299C42.5038 52.2028 42.5216 52.2747 42.5453 52.3446C42.5355 52.2713 42.5177 52.1993 42.4922 52.1299Z" fill="#2F2E41"/>
<path d="M7.52374 5.1245C8.90839 5.1245 10.0309 3.97734 10.0309 2.56225C10.0309 1.14716 8.90839 0 7.52374 0C6.13908 0 5.0166 1.14716 5.0166 2.56225C5.0166 3.97734 6.13908 5.1245 7.52374 5.1245Z" fill="#3F3D56"/>
<path d="M16.1845 5.1245C17.5692 5.1245 18.6916 3.97734 18.6916 2.56225C18.6916 1.14716 17.5692 0 16.1845 0C14.7999 0 13.6774 1.14716 13.6774 2.56225C13.6774 3.97734 14.7999 5.1245 16.1845 5.1245Z" fill="#3F3D56"/>
<path d="M24.8462 5.1245C26.2309 5.1245 27.3533 3.97734 27.3533 2.56225C27.3533 1.14716 26.2309 0 24.8462 0C23.4616 0 22.3391 1.14716 22.3391 2.56225C22.3391 3.97734 23.4616 5.1245 24.8462 5.1245Z" fill="#3F3D56"/>
<path d="M34.7209 4.58719C34.6439 4.58719 34.5671 4.55738 34.509 4.49805L32.8173 2.76924C32.7046 2.65405 32.7046 2.46996 32.8173 2.35477L34.509 0.626111C34.6238 0.509179 34.8117 0.507295 34.9282 0.62148C35.0454 0.735952 35.0474 0.923652 34.9329 1.04058L33.444 2.56201L34.9329 4.08357C35.0474 4.20051 35.0454 4.38821 34.9282 4.50268C34.8706 4.55912 34.7958 4.58719 34.7209 4.58719Z" fill="#3F3D56"/>
<path d="M37.5643 4.58741C37.4895 4.58741 37.4146 4.55933 37.357 4.50289C37.2399 4.38842 37.2379 4.20087 37.3524 4.08379L38.8411 2.56222L37.3524 1.0408C37.2379 0.923869 37.2399 0.736169 37.357 0.621697C37.4738 0.50708 37.6617 0.509254 37.7762 0.626328L39.4678 2.35499C39.5805 2.47018 39.5805 2.65426 39.4678 2.76946L37.7762 4.49826C37.7182 4.5576 37.6413 4.58741 37.5643 4.58741Z" fill="#3F3D56"/>
<path d="M126.064 0.296875H122.919C122.56 0.296875 122.269 0.587323 122.269 0.945952V4.09354C122.269 4.45217 122.56 4.74262 122.919 4.74262H126.064C126.423 4.74262 126.716 4.45217 126.716 4.09354V0.945952C126.716 0.587323 126.423 0.296875 126.064 0.296875Z" fill="#3F3D56"/>
<path d="M118.355 0.296875H115.21C114.851 0.296875 114.561 0.587323 114.561 0.945952V4.09354C114.561 4.45217 114.851 4.74262 115.21 4.74262H118.355C118.714 4.74262 119.008 4.45217 119.008 4.09354V0.945952C119.008 0.587323 118.714 0.296875 118.355 0.296875Z" fill="#3F3D56"/>
<path d="M133.328 0.445312H130.182C129.823 0.445312 129.533 0.73576 129.533 1.09439V4.24198C129.533 4.60061 129.823 4.89106 130.182 4.89106H133.328C133.686 4.89106 133.98 4.60061 133.98 4.24198V1.09439C133.98 0.73576 133.686 0.445312 133.328 0.445312Z" fill="#3F3D56"/>
<path d="M85.9143 1.64258H60.7707C60.3319 1.64258 59.9791 1.99824 59.9791 2.43393C59.9791 2.86963 60.3319 3.22527 60.7707 3.22527H85.9143C86.3501 3.22527 86.7059 2.86961 86.7059 2.43393C86.7059 1.99826 86.3501 1.64258 85.9143 1.64258Z" fill="#3F3D56"/>
<path d="M104.688 39.0537C104.688 33.4618 109.221 28.9287 114.812 28.9287H145.188C150.779 28.9287 155.312 33.4618 155.312 39.0537V69.4287C155.312 75.0206 150.779 79.5537 145.188 79.5537H114.812C109.221 79.5537 104.688 75.0206 104.688 69.4287V39.0537Z" fill="#FBE7E3"/>
<path d="M130.307 65.9407C129.177 64.5484 128.5 62.7736 128.5 60.8408C128.5 58.6357 129.381 56.6365 130.81 55.176C126.304 54.6542 121.676 55.4882 117.556 57.6779C116.906 58.0231 116.5 58.6988 116.5 59.4344V63.8408C116.5 65.0005 117.44 65.9407 118.6 65.9407H130.307Z" fill="#FC573B"/>
<path fill-rule="evenodd" clip-rule="evenodd" d="M128.2 40.7412C124.72 40.7412 121.9 43.5618 121.9 47.0412C121.9 50.5206 124.72 53.3413 128.2 53.3413C131.679 53.3413 134.5 50.5206 134.5 47.0412C134.5 43.5618 131.679 40.7412 128.2 40.7412Z" fill="#FC573B"/>
<path fill-rule="evenodd" clip-rule="evenodd" d="M136.6 55.7413C133.783 55.7413 131.5 58.0246 131.5 60.8414C131.5 63.658 133.783 65.9414 136.6 65.9414C139.417 65.9414 141.7 63.658 141.7 60.8414C141.7 58.0246 139.417 55.7413 136.6 55.7413ZM129.7 60.8414C129.7 57.0305 132.789 53.9414 136.6 53.9414C140.411 53.9414 143.5 57.0305 143.5 60.8414C143.5 64.6521 140.411 67.7413 136.6 67.7413C132.789 67.7413 129.7 64.6521 129.7 60.8414Z" fill="#F9AA9D"/>
<path fill-rule="evenodd" clip-rule="evenodd" d="M141.436 56.0048C141.085 55.6533 140.515 55.6533 140.164 56.0048L131.764 64.4049C131.412 64.7564 131.412 65.3263 131.764 65.6778C132.115 66.0291 132.685 66.0291 133.036 65.6778L141.436 57.2777C141.788 56.9262 141.788 56.3563 141.436 56.0048Z" fill="#F9AA9D"/>
</svg>
