<svg width="24" height="24" viewBox="0 0 24 24" fill="none" xmlns="http://www.w3.org/2000/svg">
<path d="M20.97 16.08C20.73 18.75 18.8 20.5 16 20.5H7C4.24 20.5 2 18.26 2 15.5V8.5C2 5.78 3.64 3.88 6.19 3.56C6.45 3.52 6.72 3.5 7 3.5H16C16.26 3.5 16.51 3.51 16.75 3.55C19.14 3.83 20.76 5.5 20.97 7.92C21 8.21 20.76 8.45 20.47 8.45H18.92C17.96 8.45 17.07 8.82 16.43 9.48C15.67 10.22 15.29 11.26 15.38 12.3C15.54 14.12 17.14 15.55 19.04 15.55H20.47C20.76 15.55 21 15.79 20.97 16.08Z" fill="#FFA500"/>
<path d="M22.0002 10.97V13.03C22.0002 13.58 21.5602 14.03 21.0002 14.05H19.0402C17.9602 14.05 16.9702 13.26 16.8802 12.18C16.8202 11.55 17.0602 10.96 17.4802 10.55C17.8502 10.17 18.3602 9.95001 18.9202 9.95001H21.0002C21.5602 9.97001 22.0002 10.42 22.0002 10.97Z" fill="#FFA500"/>
<rect x="2" y="10" width="10" height="14" rx="5" fill="white"/>
<path d="M7.1698 23.5C4.7898 23.5 2.83984 21.77 2.83984 19.64V17.6C2.83984 17.19 3.17984 16.85 3.58984 16.85C3.99984 16.85 4.33984 17.19 4.33984 17.6C4.33984 18.85 5.5498 19.79 7.1698 19.79C8.7898 19.79 9.99982 18.85 9.99982 17.6C9.99982 17.19 10.3398 16.85 10.7498 16.85C11.1598 16.85 11.4998 17.19 11.4998 17.6V19.64C11.4998 21.77 9.5598 23.5 7.1698 23.5ZM4.59979 20.62C5.03979 21.44 6.0298 22 7.1698 22C8.3098 22 9.29981 21.43 9.73981 20.62C9.02981 21.05 8.1498 21.3 7.1698 21.3C6.1898 21.3 5.30979 21.05 4.59979 20.62Z" fill="#FFA500"/>
<path d="M7.1698 18.5499C5.5298 18.5499 4.05983 17.7999 3.32983 16.6099C3.00983 16.0899 2.83984 15.4799 2.83984 14.8599C2.83984 13.8099 3.29983 12.8299 4.13983 12.0999C5.75983 10.6799 8.54981 10.68 10.1798 12.09C11.0198 12.83 11.4898 13.8099 11.4898 14.8599C11.4898 15.4799 11.3198 16.0899 10.9998 16.6099C10.2798 17.7999 8.8098 18.5499 7.1698 18.5499ZM7.1698 12.4999C6.3898 12.4999 5.66982 12.7599 5.12982 13.2299C4.61982 13.6699 4.33984 14.2499 4.33984 14.8599C4.33984 15.2099 4.4298 15.53 4.6098 15.83C5.0698 16.59 6.0498 17.0599 7.1698 17.0599C8.2898 17.0599 9.26979 16.59 9.71979 15.84C9.89979 15.55 9.98981 15.2199 9.98981 14.8699C9.98981 14.2599 9.70983 13.6799 9.19983 13.2299C8.66983 12.7599 7.9498 12.4999 7.1698 12.4999Z" fill="#FFA500"/>
<path d="M7.1698 21.3C4.6998 21.3 2.83984 19.71 2.83984 17.61V14.86C2.83984 12.73 4.7798 11 7.1698 11C8.2998 11 9.37982 11.39 10.1898 12.09C11.0298 12.83 11.4998 13.81 11.4998 14.86V17.61C11.4998 19.71 9.6398 21.3 7.1698 21.3ZM7.1698 12.5C5.6098 12.5 4.33984 13.56 4.33984 14.86V17.61C4.33984 18.86 5.5498 19.8 7.1698 19.8C8.7898 19.8 9.99982 18.86 9.99982 17.61V14.86C9.99982 14.25 9.71984 13.67 9.20984 13.22C8.66984 12.76 7.9498 12.5 7.1698 12.5Z" fill="#FFA500"/>
</svg>
