<svg width="236" height="194" viewBox="0 0 236 194" fill="none" xmlns="http://www.w3.org/2000/svg">
<g filter="url(#filter0_d_849_36535)">
<rect x="19" y="36.6953" width="168.71" height="124.018" rx="3" fill="white"/>
</g>
<path d="M19 39.6953C19 38.0385 20.3431 36.6953 22 36.6953H184.71C186.366 36.6953 187.71 38.0385 187.71 39.6953V43.399H19V39.6953Z" fill="#FFFAF0"/>
<rect x="37.9922" y="65.7451" width="49.1604" height="79.327" rx="7" fill="#FFA500" fill-opacity="0.06"/>
<rect x="102.796" y="130.547" width="63.6851" height="15.6419" rx="7" fill="#FFFAF0"/>
<rect x="100.316" y="104.85" width="31.2839" height="7.82097" rx="3.91049" fill="#FFFAF0"/>
<rect x="135.195" y="104.85" width="31.2839" height="7.82097" rx="3.91049" fill="#FFFAF0"/>
<rect x="100.316" y="90.3252" width="64.8024" height="7.82097" rx="3.91049" fill="#FFFAF0"/>
<rect x="100.316" y="79.1514" width="64.8024" height="7.82097" rx="3.91049" fill="#FFFAF0"/>
<rect x="114.271" y="67.4395" width="46.8864" height="8.57678" rx="4.28839" fill="#FFFAF0"/>
<g filter="url(#filter1_d_849_36535)">
<circle cx="186.454" cy="45.1666" r="30.1666" fill="white"/>
</g>
<g filter="url(#filter2_d_849_36535)">
<circle cx="181.005" cy="155.126" r="15.6419" fill="white"/>
</g>
<circle cx="186.362" cy="45.1855" r="22.3456" fill="#FFFAF0"/>
<circle cx="181.29" cy="155.29" r="12.2901" fill="#FFFAF0"/>
<circle cx="23.224" cy="39.8178" r="1.05606" fill="#FFB3B3"/>
<circle cx="26.9203" cy="39.8178" r="1.05606" fill="#C8CDD6"/>
<circle cx="30.6166" cy="39.8178" r="1.05606" fill="#C8CDD6"/>
<path fill-rule="evenodd" clip-rule="evenodd" d="M61.6074 112.439C61.5707 112.455 61.5312 112.464 61.4912 112.464H55.5251C55.4967 112.464 55.4688 112.455 55.445 112.439C55.4212 112.424 55.4025 112.401 55.3911 112.375C55.3797 112.348 55.3762 112.319 55.381 112.291C55.3857 112.262 55.3985 112.236 55.4179 112.215L56.675 110.847C56.7022 110.818 56.7352 110.794 56.7719 110.778C56.8085 110.761 56.8481 110.753 56.8881 110.753H62.8541C62.8828 110.752 62.9111 110.76 62.9353 110.776C62.9595 110.792 62.9787 110.814 62.9903 110.841C63.0019 110.867 63.0055 110.897 63.0006 110.926C62.9957 110.954 62.9825 110.981 62.9628 111.002L61.7042 112.369C61.677 112.399 61.644 112.423 61.6074 112.439ZM61.7042 113.446C61.6769 113.416 61.6439 113.393 61.6073 113.377C61.5707 113.36 61.5311 113.352 61.4912 113.352H55.5251C55.4967 113.352 55.4688 113.36 55.445 113.376C55.4212 113.392 55.4025 113.414 55.3911 113.441C55.3797 113.467 55.3762 113.496 55.381 113.525C55.3857 113.553 55.3985 113.58 55.4179 113.601L56.675 114.969C56.7023 114.998 56.7353 115.022 56.772 115.038C56.8086 115.055 56.8481 115.063 56.8881 115.063H62.8541C62.8825 115.063 62.9102 115.055 62.9339 115.039C62.9577 115.023 62.9763 115 62.9876 114.974C62.9989 114.948 63.0023 114.918 62.9975 114.89C62.9928 114.862 62.98 114.835 62.9607 114.814L61.7042 113.446ZM62.9628 116.2L61.7042 117.568C61.677 117.597 61.644 117.621 61.6074 117.637C61.5707 117.654 61.5312 117.662 61.4912 117.662H55.5251C55.4967 117.662 55.4688 117.654 55.445 117.638C55.4212 117.622 55.4025 117.599 55.3911 117.573C55.3797 117.547 55.3762 117.517 55.381 117.489C55.3857 117.461 55.3985 117.434 55.4179 117.413L56.675 116.046C56.7022 116.016 56.7352 115.992 56.7719 115.976C56.8085 115.96 56.8481 115.951 56.8881 115.951H62.8541C62.8828 115.951 62.9111 115.959 62.9353 115.974C62.9595 115.99 62.9787 116.013 62.9903 116.039C63.0019 116.066 63.0055 116.095 63.0006 116.124C62.9957 116.153 62.9825 116.179 62.9628 116.2Z" fill="url(#paint0_linear_849_36535)"/>
<path d="M70.5293 99.531L72.911 100.914V98.4675V95.6484L70.5293 99.531Z" fill="#898989"/>
<path d="M72.9111 95.6484V98.4675V100.914L75.2929 99.531L72.9111 95.6484Z" fill="#323232"/>
<path d="M72.9121 98.4678L75.2931 99.531L72.9121 100.914V98.4678Z" fill="#141414"/>
<path d="M72.911 98.4678L72.9117 98.468V100.914L72.911 100.915L70.5293 99.5314L72.911 98.4678Z" fill="#373737"/>
<path d="M70.5293 99.9746L72.911 103.272V101.357L70.5293 99.9746Z" fill="#898989"/>
<path d="M72.9111 101.357V103.272L75.2943 99.9746L72.9111 101.357Z" fill="#323232"/>
<path fill-rule="evenodd" clip-rule="evenodd" d="M64.0828 79.2729C64.2018 78.4718 63.5962 78.0412 62.7683 77.7539L63.0369 76.6688L62.3811 76.5041L62.1196 77.5607C61.9472 77.5174 61.7702 77.4766 61.5942 77.4362L61.8576 76.3726L61.2022 76.208L60.9334 77.2928C60.7907 77.2601 60.6507 77.2277 60.5147 77.1936L60.5154 77.1903L59.6111 76.9628L59.4366 77.6683C59.4366 77.6683 59.9232 77.7806 59.9129 77.7876C60.1785 77.8544 60.2265 78.0314 60.2185 78.1718L59.9125 79.408C59.9308 79.4127 59.9546 79.4195 59.9807 79.43L59.9585 79.4244L59.9584 79.4244C59.9432 79.4206 59.9275 79.4166 59.9114 79.4127L59.4826 81.1445C59.4501 81.2258 59.3677 81.3477 59.1821 81.3014C59.1886 81.311 58.7054 81.1815 58.7054 81.1815L58.3799 81.9377L59.2332 82.1519C59.3285 82.176 59.4226 82.2007 59.5158 82.2252L59.5159 82.2252C59.5779 82.2415 59.6395 82.2577 59.7007 82.2735L59.4294 83.3711L60.0844 83.5357L60.3531 82.4498C60.5321 82.4987 60.7058 82.5438 60.8757 82.5864L60.6079 83.6672L61.2636 83.8318L61.535 82.7363C62.6532 82.9495 63.4941 82.8635 63.848 81.8447C64.1332 81.0245 63.8338 80.5513 63.2455 80.2428C63.6739 80.1432 63.9967 79.8593 64.0828 79.2729ZM62.5845 81.3892C62.3986 82.1418 61.2292 81.8307 60.6941 81.6883L60.6941 81.6883C60.6459 81.6755 60.6029 81.6641 60.5662 81.6549L60.9263 80.2008C60.971 80.212 61.0256 80.2244 61.0874 80.2383C61.6409 80.3634 62.775 80.6198 62.5845 81.3892ZM61.1986 79.5635C61.6448 79.6835 62.6178 79.9451 62.7873 79.2611C62.9604 78.5614 62.0147 78.3506 61.5528 78.2476C61.5008 78.236 61.455 78.2257 61.4175 78.2164L61.0911 79.5352C61.1219 79.5429 61.1581 79.5526 61.1986 79.5635Z" fill="#F7931A"/>
<path fill-rule="evenodd" clip-rule="evenodd" d="M50.4694 133.782V134.542L50.4702 134.543C51.8572 134.608 52.8998 134.889 52.8998 135.224C52.8998 135.559 51.8572 135.839 50.4702 135.904V138.341H49.2344V135.904C47.8458 135.838 46.8008 135.558 46.8008 135.223C46.8008 134.887 47.845 134.607 49.2344 134.542V133.782H47.525V132.623H52.1789V133.782H50.4694ZM50.4701 135.695V135.696V135.697C51.6946 135.641 52.6087 135.424 52.6087 135.164C52.6087 134.904 51.6954 134.686 50.4701 134.631V135.48C50.4345 135.483 50.2438 135.499 49.8623 135.499C49.5446 135.499 49.3143 135.485 49.2343 135.48V134.63C48.0074 134.685 47.0908 134.903 47.0908 135.163C47.0908 135.424 48.0065 135.641 49.2343 135.696V135.695C49.3135 135.699 49.5374 135.708 49.8566 135.708C50.2559 135.708 50.4353 135.698 50.4701 135.695Z" fill="#22A079"/>
<path opacity="0.4" d="M193.465 42.9961V48.328C193.465 49.9647 192.135 51.287 190.498 51.287H182.136C180.499 51.287 179.17 49.9647 179.17 48.328V42.9961H193.465Z" fill="#FFA500"/>
<path d="M193.465 41.9522V42.9957H179.17V41.9522C179.17 40.3154 180.499 38.9932 182.136 38.9932H190.498C192.135 38.9932 193.465 40.3154 193.465 41.9522Z" fill="#FFA500" fill-opacity="0.71"/>
<path d="M183.458 48.8924H182.028C181.735 48.8924 181.492 48.6494 181.492 48.3564C181.492 48.0633 181.735 47.8203 182.028 47.8203H183.458C183.751 47.8203 183.994 48.0633 183.994 48.3564C183.994 48.6494 183.751 48.8924 183.458 48.8924Z" fill="#FFA500"/>
<path d="M188.104 48.8924H185.245C184.952 48.8924 184.709 48.6494 184.709 48.3564C184.709 48.0633 184.952 47.8203 185.245 47.8203H188.104C188.397 47.8203 188.64 48.0633 188.64 48.3564C188.64 48.6494 188.397 48.8924 188.104 48.8924Z" fill="#FFA500"/>
<path d="M185.334 155.434V157.9C185.334 159.98 183.394 161.667 181 161.667C178.607 161.667 176.667 159.98 176.667 157.9V155.434C176.667 157.514 178.607 159 181 159C183.394 159 185.334 157.514 185.334 155.434Z" fill="#FFA500" fill-opacity="0.72"/>
<path opacity="0.4" d="M185.334 152.1V155.433C185.334 157.513 183.394 159 181 159C178.607 159 176.667 157.513 176.667 155.433V152.1C176.667 152.706 176.834 153.266 177.127 153.746C177.84 154.92 179.307 155.666 181 155.666C182.694 155.666 184.16 154.92 184.874 153.746C185.167 153.266 185.334 152.706 185.334 152.1Z" fill="#FFA500"/>
<path d="M185.334 152.1C185.334 152.706 185.167 153.266 184.874 153.746C184.16 154.92 182.694 155.666 181 155.666C179.307 155.666 177.84 154.92 177.127 153.746C176.834 153.266 176.667 152.706 176.667 152.1C176.667 150.02 178.607 148.333 181 148.333C182.2 148.333 183.28 148.753 184.067 149.433C184.847 150.12 185.334 151.06 185.334 152.1Z" fill="#FFA500" fill-opacity="0.72"/>
<defs>
<filter id="filter0_d_849_36535" x="0" y="21.6953" width="206.71" height="162.019" filterUnits="userSpaceOnUse" color-interpolation-filters="sRGB">
<feFlood flood-opacity="0" result="BackgroundImageFix"/>
<feColorMatrix in="SourceAlpha" type="matrix" values="0 0 0 0 0 0 0 0 0 0 0 0 0 0 0 0 0 0 127 0" result="hardAlpha"/>
<feOffset dy="4"/>
<feGaussianBlur stdDeviation="9.5"/>
<feComposite in2="hardAlpha" operator="out"/>
<feColorMatrix type="matrix" values="0 0 0 0 0.933333 0 0 0 0 0.933333 0 0 0 0 0.933333 0 0 0 0.25 0"/>
<feBlend mode="normal" in2="BackgroundImageFix" result="effect1_dropShadow_849_36535"/>
<feBlend mode="normal" in="SourceGraphic" in2="effect1_dropShadow_849_36535" result="shape"/>
</filter>
<filter id="filter1_d_849_36535" x="137.287" y="0" width="98.333" height="98.333" filterUnits="userSpaceOnUse" color-interpolation-filters="sRGB">
<feFlood flood-opacity="0" result="BackgroundImageFix"/>
<feColorMatrix in="SourceAlpha" type="matrix" values="0 0 0 0 0 0 0 0 0 0 0 0 0 0 0 0 0 0 127 0" result="hardAlpha"/>
<feOffset dy="4"/>
<feGaussianBlur stdDeviation="9.5"/>
<feComposite in2="hardAlpha" operator="out"/>
<feColorMatrix type="matrix" values="0 0 0 0 0.933333 0 0 0 0 0.933333 0 0 0 0 0.933333 0 0 0 0.25 0"/>
<feBlend mode="normal" in2="BackgroundImageFix" result="effect1_dropShadow_849_36535"/>
<feBlend mode="normal" in="SourceGraphic" in2="effect1_dropShadow_849_36535" result="shape"/>
</filter>
<filter id="filter2_d_849_36535" x="146.363" y="124.484" width="69.2842" height="69.2842" filterUnits="userSpaceOnUse" color-interpolation-filters="sRGB">
<feFlood flood-opacity="0" result="BackgroundImageFix"/>
<feColorMatrix in="SourceAlpha" type="matrix" values="0 0 0 0 0 0 0 0 0 0 0 0 0 0 0 0 0 0 127 0" result="hardAlpha"/>
<feOffset dy="4"/>
<feGaussianBlur stdDeviation="9.5"/>
<feComposite in2="hardAlpha" operator="out"/>
<feColorMatrix type="matrix" values="0 0 0 0 0.933333 0 0 0 0 0.933333 0 0 0 0 0.933333 0 0 0 0.25 0"/>
<feBlend mode="normal" in2="BackgroundImageFix" result="effect1_dropShadow_849_36535"/>
<feBlend mode="normal" in="SourceGraphic" in2="effect1_dropShadow_849_36535" result="shape"/>
</filter>
<linearGradient id="paint0_linear_849_36535" x1="59.9652" y1="120.661" x2="65.484" y2="112.985" gradientUnits="userSpaceOnUse">
<stop offset="0.08" stop-color="#9945FF"/>
<stop offset="0.3" stop-color="#8752F3"/>
<stop offset="0.5" stop-color="#5497D5"/>
<stop offset="0.6" stop-color="#43B4CA"/>
<stop offset="0.72" stop-color="#28E0B9"/>
<stop offset="0.97" stop-color="#19FB9B"/>
</linearGradient>
</defs>
</svg>
