<svg width="20" height="16" viewBox="0 0 20 16" fill="none" xmlns="http://www.w3.org/2000/svg">
<path d="M19.2 1.89411C18.4945 2.21538 17.7349 2.43265 16.9382 2.52972C17.7519 2.03049 18.3762 1.23886 18.6703 0.295851C17.9085 0.758112 17.0667 1.0944 16.1674 1.27469C15.4506 0.489995 14.4262 0 13.2925 0C11.1186 0 9.35488 1.8086 9.35488 4.03901C9.35488 4.35565 9.38869 4.66305 9.45632 4.9589C6.1825 4.79018 3.28058 3.18382 1.33658 0.737301C0.997355 1.33594 0.80352 2.03049 0.80352 2.7701C0.80352 4.17075 1.49886 5.40725 2.55595 6.13184C1.91132 6.11221 1.30276 5.92853 0.770837 5.62805V5.67776C0.770837 7.63541 2.12882 9.26837 3.93196 9.63819C3.60176 9.73291 3.25353 9.78027 2.89403 9.78027C2.64047 9.78027 2.39253 9.75605 2.15249 9.70859C2.65398 11.3126 4.10777 12.4811 5.83201 12.5122C4.48417 13.5963 2.78471 14.2422 0.939883 14.2422C0.62208 14.2422 0.307659 14.2238 0 14.1868C1.7434 15.3309 3.81475 16 6.03825 16C13.2846 16 17.2459 9.84619 17.2459 4.5082C17.2459 4.33254 17.2425 4.15687 17.2357 3.98468C18.0054 3.41495 18.6737 2.70422 19.2 1.89411Z" fill="#00ACEE"/>
</svg>
