<svg width="10" height="13" viewBox="0 0 10 13" fill="none" xmlns="http://www.w3.org/2000/svg">
<path d="M0.241985 8.7667L3.82532 12.3417C4.13759 12.6521 4.56001 12.8264 5.00032 12.8264C5.44063 12.8264 5.86305 12.6521 6.17532 12.3417L9.75865 8.7667C9.91386 8.61056 10.001 8.39935 10.001 8.1792C10.001 7.95905 9.91386 7.74784 9.75865 7.5917C9.68118 7.51359 9.58901 7.4516 9.48746 7.40929C9.38591 7.36698 9.27699 7.3452 9.16698 7.3452C9.05697 7.3452 8.94805 7.36698 8.8465 7.40929C8.74495 7.4516 8.65279 7.51359 8.57532 7.5917L5.83365 10.3334L5.83365 1.1667C5.83365 0.945685 5.74585 0.733723 5.58957 0.577443C5.43329 0.421162 5.22133 0.333366 5.00032 0.333366C4.7793 0.333366 4.56734 0.421162 4.41106 0.577443C4.25478 0.733723 4.16698 0.945685 4.16698 1.1667L4.16698 10.3334L1.42532 7.5917C1.2695 7.43478 1.05773 7.34618 0.836598 7.3454C0.615461 7.34462 0.403071 7.43172 0.24615 7.58753C0.089231 7.74335 0.000634619 7.95512 -0.000146459 8.17625C-0.000928492 8.39739 0.0861706 8.60978 0.241985 8.7667Z" fill="#f6465d"/>
</svg>
