<svg width="58" height="58" viewBox="0 0 58 58" fill="none" xmlns="http://www.w3.org/2000/svg">
<g filter="url(#filter0_d_3779_11085)">
<rect x="7" y="6" width="44" height="44" rx="22" fill="#FF4500"/>
<rect x="7.5" y="6.5" width="43" height="43" rx="21.5" stroke="#FF4500"/>
<path d="M37.2368 25.8272C36.6056 25.8272 36.0285 26.0887 35.6227 26.5034C34.0629 25.3853 31.935 24.664 29.5455 24.5738C29.545 24.5738 29.5445 24.5738 29.544 24.5738L30.5084 19.7235L33.9201 20.6159C34.0581 21.3971 34.7365 21.9917 35.5573 21.9917C36.4777 21.9917 37.2238 21.2456 37.2238 20.3252C37.2238 19.4049 36.4777 18.6587 35.5573 18.6587C34.8553 18.6587 34.2575 19.094 34.0119 19.7082L30.2741 18.7302C30.1517 18.6985 30.0258 18.7187 29.9202 18.7839C29.8154 18.8499 29.7414 18.9565 29.7176 19.078L28.625 24.5735C28.6223 24.5738 28.6196 24.5735 28.6168 24.5738C26.1733 24.6279 23.9732 25.3673 22.3773 26.5034C21.9715 26.0887 21.3944 25.8272 20.7632 25.8272C19.5099 25.8272 18.5 26.8371 18.5 28.0904C18.5 29.0191 19.059 29.8126 19.8525 30.1642C19.8074 30.4257 19.7714 30.6782 19.7714 30.9487C19.7714 34.4742 23.901 37.3415 28.9955 37.3415C34.099 37.3415 38.2286 34.4742 38.2286 30.9487C38.2286 30.6782 38.1926 30.4257 38.1475 30.1642C38.941 29.8126 39.5 29.0191 39.5 28.0904C39.5 26.8371 38.4901 25.8272 37.2368 25.8272ZM23.892 29.7585C23.892 28.9199 24.5773 28.2346 25.4159 28.2346C26.2544 28.2346 26.9397 28.9199 26.9397 29.7585C26.9397 30.5971 26.2544 31.2823 25.4159 31.2823C24.5773 31.2823 23.892 30.5971 23.892 29.7585ZM33.5399 33.4644C33.0711 34.5915 31.2046 35.3759 28.9955 35.3759C26.7954 35.3759 24.9289 34.5915 24.4601 33.4644C24.3609 33.239 24.469 32.9774 24.7035 32.8782C24.9289 32.7791 25.1904 32.8873 25.2896 33.1217C25.5691 33.789 27.0298 34.4742 28.9955 34.4742C30.9611 34.4742 32.4308 33.789 32.7103 33.1217C32.8095 32.8873 33.0711 32.7791 33.2965 32.8782C33.5309 32.9774 33.6391 33.239 33.5399 33.4644ZM32.5841 31.2823C31.7456 31.2823 31.0603 30.5971 31.0603 29.7585C31.0603 28.9199 31.7456 28.2346 32.5841 28.2346C33.4227 28.2346 34.108 28.9199 34.108 29.7585C34.108 30.5971 33.4227 31.2823 32.5841 31.2823Z" fill="white"/>
</g>
<defs>
<filter id="filter0_d_3779_11085" x="0" y="0" width="58" height="58" filterUnits="userSpaceOnUse" color-interpolation-filters="sRGB">
<feFlood flood-opacity="0" result="BackgroundImageFix"/>
<feColorMatrix in="SourceAlpha" type="matrix" values="0 0 0 0 0 0 0 0 0 0 0 0 0 0 0 0 0 0 127 0" result="hardAlpha"/>
<feOffset dy="1"/>
<feGaussianBlur stdDeviation="3.5"/>
<feColorMatrix type="matrix" values="0 0 0 0 1 0 0 0 0 0.270588 0 0 0 0 0 0 0 0 0.61 0"/>
<feBlend mode="normal" in2="BackgroundImageFix" result="effect1_dropShadow_3779_11085"/>
<feBlend mode="normal" in="SourceGraphic" in2="effect1_dropShadow_3779_11085" result="shape"/>
</filter>
</defs>
</svg>
