<svg width="100" height="100" viewBox="0 0 100 100" fill="none" xmlns="http://www.w3.org/2000/svg">
<mask id="mask0_4927_13872" style="mask-type:alpha" maskUnits="userSpaceOnUse" x="0" y="0" width="100" height="100">
<rect width="100" height="100" fill="#D9D9D9"/>
</mask>
<g mask="url(#mask0_4927_13872)">
<path d="M53.8932 91.7432C31.9564 91.7432 14.1731 90.5443 14.1731 89.0655C14.1731 87.5866 31.9564 86.3877 53.8932 86.3877C75.83 86.3877 93.6133 87.5866 93.6133 89.0655C93.6133 90.5443 75.83 91.7432 53.8932 91.7432Z" fill="black"/>
<path fill-rule="evenodd" clip-rule="evenodd" d="M63.6724 45.425C63.6724 40.8384 59.9541 37.1201 55.3675 37.1201H69.901C74.4876 37.1201 78.2055 40.8384 78.2055 45.425H63.6724ZM55.3672 90.2712C59.9539 90.2712 63.6721 86.5536 63.6721 81.9666L63.6724 45.425L78.2064 45.4254V81.9666C78.2064 86.5536 74.4873 90.2712 69.9008 90.2712H55.3672Z" fill="black"/>
<path d="M55.3687 36.7266C55.1522 36.7266 54.9767 36.902 54.9767 37.1184C54.9767 37.3349 55.1522 37.5103 55.3687 37.5103V36.7266ZM63.6736 45.4233H63.2816C63.2816 45.6398 63.4571 45.8152 63.6736 45.8152V45.4233ZM78.2068 45.4233V45.8152C78.4237 45.8152 78.5986 45.6398 78.5986 45.4233H78.2068ZM63.6733 81.9649V81.5731C63.4568 81.5731 63.2815 81.748 63.2815 81.9649H63.6733ZM55.3684 89.8777C55.152 89.8777 54.9766 90.0535 54.9766 90.2695C54.9766 90.4864 55.152 90.6614 55.3684 90.6614V89.8777ZM63.6733 81.9649L63.6737 82.3568C63.8901 82.3568 64.0656 82.1809 64.0656 81.9649H63.6733ZM63.6736 45.4233L63.6737 45.0317C63.4572 45.0317 63.2816 45.2069 63.2816 45.4233H63.6736ZM78.2076 45.4237H78.5995C78.5995 45.2072 78.4237 45.0317 78.2076 45.0317V45.4237ZM78.2076 81.9649V82.3568C78.4237 82.3568 78.5995 82.1818 78.5995 81.9649H78.2076ZM78.2076 81.9649L78.2068 81.5731C77.9907 81.5731 77.8149 81.7489 77.8149 81.9649H78.2076ZM55.3687 37.5103C59.7389 37.5103 63.2816 41.0531 63.2816 45.4233H64.0654C64.0654 40.6202 60.1718 36.7266 55.3687 36.7266V37.5103ZM69.9022 36.7266H55.3687V37.5103H69.9022V36.7266ZM78.5986 45.4233C78.5986 40.6202 74.7053 36.7266 69.9022 36.7266V37.5103C74.2724 37.5103 77.8149 41.0531 77.8149 45.4233H78.5986ZM63.6736 45.8152H78.2068V45.0315L63.6737 45.0317L63.6736 45.8152ZM63.2815 81.9649C63.2815 86.335 59.7387 89.8777 55.3684 89.8777V90.6614C60.1716 90.6614 64.0656 86.7679 64.0656 81.9649H63.2815ZM64.0656 81.9649L64.0654 45.4233H63.2816L63.2815 81.9649H64.0656ZM63.6736 45.8152L78.2076 45.8156V45.0317H63.6737L63.6736 45.8152ZM77.8149 45.4233V81.9649H78.5995V45.4237L77.8149 45.4233ZM69.902 90.6614C74.705 90.6614 78.5995 86.7679 78.5995 81.9649H77.8149C77.8149 86.335 74.2721 89.8777 69.902 89.8777V90.6614ZM55.3684 90.6614H69.902V89.8777H55.3684V90.6614Z" fill="#040815"/>
<mask id="mask1_4927_13872" style="mask-type:alpha" maskUnits="userSpaceOnUse" x="30" y="7" width="52" height="51">
<path d="M80.1338 24.1031C76.2127 11.3935 62.1726 4.45299 48.7835 8.58326C35.3944 12.7136 27.7043 26.3575 31.625 39.0671L32.228 41.0221C36.1487 53.7317 50.1889 60.6722 63.578 56.5419C76.9669 52.4116 84.6575 38.7677 80.7363 26.0581L80.1338 24.1031Z" fill="#C6D2E4" stroke="black" stroke-width="0.284713" stroke-linejoin="round"/>
</mask>
<g mask="url(#mask1_4927_13872)">
<path d="M79.2899 23.9824C75.4282 11.4641 61.5995 4.6281 48.4121 8.69615C35.2247 12.7643 27.6502 26.2028 31.5119 38.7212L32.1059 40.6466C35.9676 53.1649 49.7964 60.0009 62.9838 55.9327C76.1711 51.8647 83.7457 38.4262 79.8835 25.9078L79.2899 23.9824Z" fill="#FFA500" stroke="black" stroke-width="0.284713" stroke-linejoin="round"/>
</g>
<path d="M48.0852 8.30528C34.9865 12.346 27.471 25.7442 31.3275 38.2458C35.184 50.7474 48.9415 57.5833 62.0402 53.5425C75.1389 49.5018 82.6542 36.1035 78.7982 23.602C74.9414 11.1004 61.1839 4.26454 48.0852 8.30528Z" fill="white" stroke="black" stroke-width="0.5" stroke-linejoin="round"/>
<path d="M48.9806 11.1271C37.8033 14.5751 31.3875 26.0092 34.6795 36.6806C37.9715 47.3521 49.7137 53.1848 60.891 49.7367C72.0683 46.2887 78.4835 34.8546 75.192 24.1832C71.9001 13.5118 60.1578 7.67908 48.9806 11.1271Z" fill="black" stroke="black" stroke-width="0.5" stroke-linejoin="round"/>
<path d="M48.4765 12.3301C37.3679 15.7569 31.0262 27.2176 34.3336 37.9396C37.6412 48.6616 49.3374 54.5579 60.446 51.1311C71.5546 47.7043 77.8961 36.2436 74.5888 25.5216C71.2812 14.7995 59.5851 8.90329 48.4765 12.3301Z" fill="white" stroke="black" stroke-width="0.5" stroke-linejoin="round"/>
<path d="M9.48438 44.2608C9.48438 40.3172 12.6814 37.1201 16.6251 37.1201H53.0035C56.9472 37.1201 60.1442 40.3172 60.1442 44.2608V83.1306C60.1442 87.0749 56.9472 90.2712 53.0035 90.2712H16.6251C12.6814 90.2712 9.48438 87.0749 9.48438 83.1306V44.2608Z" fill="#FFA500" stroke="#040815" stroke-width="0.6" stroke-linejoin="round"/>
<path fill-rule="evenodd" clip-rule="evenodd" d="M9.27914 56.8438H62.3266C62.3266 56.8438 62.3267 56.8438 62.3266 56.8438C62.9573 56.8438 63.469 60.4226 63.469 64.8372C63.469 69.2519 62.9577 72.8307 62.327 72.8307C62.3269 72.8307 62.3271 72.8307 62.327 72.8307H9.39607L9.38259 72.8309L9.36911 72.8307H9.27914V72.8201C8.23785 72.6019 7.41016 69.1114 7.41016 64.8374C7.41016 60.5634 8.23785 57.0729 9.27914 56.8547V56.8438Z" fill="white"/>
<path d="M9.27739 56.8439V56.5762C9.12949 56.5762 9.00961 56.696 9.00961 56.8439H9.27739ZM9.39432 72.8309V72.563L9.39066 72.5631L9.39432 72.8309ZM9.38084 72.8311L9.37718 73.0989L9.3845 73.0988L9.38084 72.8311ZM9.36736 72.8309L9.37102 72.5631H9.36736V72.8309ZM9.27739 72.8309H9.00961C9.00961 72.9788 9.12949 73.0987 9.27739 73.0987V72.8309ZM9.27739 72.8203H9.54517C9.54517 72.6935 9.45626 72.5841 9.33228 72.5581L9.27739 72.8203ZM9.27739 56.8549L9.33228 57.117C9.45626 57.091 9.54517 56.9817 9.54517 56.8549H9.27739ZM62.3249 56.5762H9.27739V57.1117H62.3249V56.5762ZM62.3249 56.5762C62.3254 56.5762 62.3258 56.5762 62.3249 56.5762V56.5762ZM62.3249 57.1117C62.2684 57.1117 62.2759 57.0737 62.3359 57.1597C62.389 57.2358 62.451 57.3653 62.5161 57.5578C62.6449 57.9392 62.7652 58.5058 62.8677 59.223C63.072 60.6535 63.1994 62.6386 63.1994 64.8374H63.735C63.735 62.6215 63.6067 60.6099 63.3979 59.1473C63.2936 58.418 63.1678 57.8139 63.0234 57.3865C62.9518 57.1745 62.8705 56.9899 62.775 56.853C62.6863 56.7259 62.5391 56.5762 62.3249 56.5762V57.1117ZM63.1994 64.8374C63.1994 67.0361 63.072 69.0212 62.8677 70.4518C62.7652 71.1691 62.6449 71.7355 62.5161 72.117C62.451 72.3095 62.389 72.439 62.3359 72.5152C62.2759 72.601 62.2687 72.5631 62.3252 72.5631V73.0987C62.5395 73.0987 62.6863 72.9488 62.775 72.8218C62.8705 72.685 62.9518 72.5004 63.0234 72.2884C63.1678 71.8609 63.2936 71.2567 63.3979 70.5275C63.6067 69.065 63.735 67.0533 63.735 64.8374H63.1994ZM9.39432 73.0987H62.3252V72.5631L9.39432 72.563V73.0987ZM9.3845 73.0988L9.39789 73.0986L9.39066 72.5631L9.37718 72.5633L9.3845 73.0988ZM9.36379 73.0986L9.37718 73.0989L9.3845 72.5633L9.37102 72.5631L9.36379 73.0986ZM9.27739 73.0987H9.36736V72.5631H9.27739V73.0987ZM9.00961 72.8203V72.8309H9.54517V72.8203H9.00961ZM7.14062 64.8376C7.14062 66.9894 7.34878 68.952 7.69171 70.4111C7.86291 71.1393 8.07034 71.754 8.3092 72.2069C8.53877 72.642 8.83583 73.0013 9.22241 73.0823L9.33228 72.5581C9.19822 72.5301 9.0014 72.3713 8.7829 71.957C8.57376 71.5605 8.379 70.9946 8.21307 70.2886C7.88192 68.8794 7.67618 66.9597 7.67618 64.8376H7.14062ZM9.22241 56.5929C8.83583 56.6738 8.53877 57.0332 8.3092 57.4683C8.07034 57.9211 7.86291 58.5358 7.69171 59.264C7.34878 60.7232 7.14062 62.6857 7.14062 64.8376H7.67618C7.67618 62.7155 7.88192 60.7957 8.21307 59.3866C8.379 58.6806 8.57376 58.1146 8.7829 57.7181C9.0014 57.3039 9.19822 57.1451 9.33228 57.117L9.22241 56.5929ZM9.00961 56.8439V56.8549H9.54517V56.8439H9.00961Z" fill="#040815"/>
<path d="M77.3269 56.4863C76.7003 56.4863 76.1914 56.9947 76.1914 57.622V72.0517C76.1914 72.6788 76.7003 73.1873 77.3269 73.1873C78.8139 73.1873 80.0198 71.9817 80.0198 70.4945V59.1791C80.0198 57.6919 78.8139 56.4863 77.3269 56.4863Z" fill="#040815" stroke="black" stroke-width="0.8"/>
<path d="M58.377 58.4453C54.8465 58.4453 51.9844 61.3074 51.9844 64.838C51.9844 68.3686 54.8465 71.2306 58.377 71.2306H78.404C79.9321 71.2306 81.1719 69.9914 81.1719 68.4626V61.2134C81.1719 59.6847 79.9321 58.4453 78.404 58.4453H58.377Z" fill="#FFA500" stroke="black" stroke-width="0.6"/>
<path d="M58.8995 69.2424C61.2754 69.2424 63.2014 67.3164 63.2014 64.9405C63.2014 62.5647 61.2754 60.6387 58.8995 60.6387C56.5237 60.6387 54.5977 62.5647 54.5977 64.9405C54.5977 67.3164 56.5237 69.2424 58.8995 69.2424Z" fill="black" stroke="black" stroke-width="0.8"/>
<path d="M58.481 68.7383C60.5782 68.7383 62.2783 67.0381 62.2783 64.9409C62.2783 62.8437 60.5782 61.1436 58.481 61.1436C56.3837 61.1436 54.6836 62.8437 54.6836 64.9409C54.6836 67.0381 56.3837 68.7383 58.481 68.7383Z" fill="white" stroke="black" stroke-width="0.6"/>
</g>
</svg>
