<svg width="50" height="50" viewBox="0 0 50 50" fill="none" xmlns="http://www.w3.org/2000/svg">
<circle cx="25" cy="25" r="25" fill="#FFA500" fill-opacity="0.08"/>
<path opacity="0.4" d="M28.1875 38.025C27.775 38.025 27.3875 37.75 27.275 37.325C27.15 36.825 27.4375 36.3125 27.9375 36.175C33.0125 34.8375 36.55 30.2375 36.55 24.9875C36.55 18.6125 31.3625 13.425 24.9875 13.425C19.575 13.425 16.025 16.5875 14.3625 18.5H18.0375C18.55 18.5 18.975 18.925 18.975 19.4375C18.975 19.95 18.575 20.3875 18.05 20.3875H12.5125C12.425 20.3875 12.3375 20.375 12.25 20.35C12.1375 20.3125 12.0375 20.2625 11.95 20.2C11.8375 20.125 11.75 20.025 11.6875 19.9125C11.625 19.7875 11.575 19.6625 11.5625 19.525C11.5625 19.4875 11.5625 19.4625 11.5625 19.425V13.75C11.5625 13.2375 11.9875 12.8125 12.5 12.8125C13.0125 12.8125 13.4375 13.2375 13.4375 13.75V16.7375C15.475 14.55 19.3125 11.5625 25 11.5625C32.4125 11.5625 38.4375 17.5875 38.4375 25C38.4375 31.1 34.325 36.45 28.425 38C28.35 38.0125 28.2625 38.025 28.1875 38.025Z" fill="#FFA500"/>
<path d="M24.1125 38.4125C24.0875 38.4125 24.05 38.4125 24.025 38.4C22.6875 38.3125 21.375 38.0125 20.125 37.525C19.7625 37.3875 19.525 37.025 19.525 36.6375C19.525 36.525 19.55 36.4125 19.5875 36.3125C19.775 35.8375 20.325 35.5875 20.8 35.775C21.875 36.2 23.0125 36.45 24.1625 36.5375H24.175C24.675 36.5625 25.05 36.9875 25.05 37.4875C25.05 37.5 25.05 37.525 25.05 37.5375C25.0125 38.025 24.6 38.4125 24.1125 38.4125ZM17.225 35.725C17.0125 35.725 16.8125 35.6625 16.6375 35.525C15.5875 34.6875 14.675 33.7 13.9125 32.5875C13.8 32.425 13.7375 32.25 13.7375 32.0625C13.7375 31.75 13.8875 31.4625 14.15 31.2875C14.5625 31 15.175 31.1125 15.45 31.525C16.1125 32.4875 16.9 33.3375 17.8125 34.05C18.025 34.225 18.1625 34.4875 18.1625 34.775C18.1625 34.9875 18.1 35.2 17.9625 35.375C17.7875 35.6 17.5125 35.725 17.225 35.725ZM13.05 29.625C12.6375 29.625 12.275 29.3625 12.1625 28.975C11.7625 27.6875 11.5625 26.35 11.5625 25C11.5625 24.4875 11.9875 24.0625 12.5 24.0625C13.0125 24.0625 13.4375 24.4875 13.4375 25C13.4375 26.1625 13.6125 27.3125 13.95 28.4125C13.975 28.5 13.9875 28.6 13.9875 28.7C13.9875 29.1125 13.725 29.4625 13.3375 29.5875C13.2375 29.6125 13.15 29.625 13.05 29.625Z" fill="#FFA500"/>
<path d="M25 30C27.7614 30 30 27.7614 30 25C30 22.2386 27.7614 20 25 20C22.2386 20 20 22.2386 20 25C20 27.7614 22.2386 30 25 30Z" fill="#FFA500"/>
</svg>
