<svg width="30" height="30" viewBox="0 0 30 30" fill="none" xmlns="http://www.w3.org/2000/svg">
<path d="M12.4251 1.49626C14.8414 1.03751 17.3819 1.23051 19.6946 2.07126C21.5816 2.75526 23.3179 3.85626 24.7321 5.28126C24.5811 5.41501 24.4444 5.56376 24.3001 5.70451C24.1951 5.81326 24.0816 5.91376 23.9831 6.02851C23.9814 6.03076 23.9776 6.03501 23.9756 6.03701C23.9534 6.06101 23.9311 6.08501 23.9094 6.10901C23.9084 6.11001 23.9064 6.11176 23.9051 6.11276C23.7779 6.21351 23.6681 6.33451 23.5581 6.45326C23.5561 6.45551 23.5521 6.45951 23.5501 6.46151C23.4724 6.52826 23.3996 6.60076 23.3326 6.67826C23.3306 6.68026 23.3266 6.68426 23.3246 6.68626C23.2736 6.72976 23.2256 6.77651 23.1836 6.82876C23.1809 6.83176 23.1754 6.83751 23.1726 6.84051C23.1639 6.84951 23.1461 6.86726 23.1374 6.87601C23.1344 6.87876 23.1284 6.88426 23.1256 6.88701C23.0294 6.96851 22.9414 7.05976 22.8576 7.15376C22.8556 7.15576 22.8516 7.15976 22.8496 7.16176C22.8176 7.19101 22.7866 7.22126 22.7576 7.25326C22.7556 7.25551 22.7519 7.25951 22.7499 7.26151C22.7271 7.28351 22.7049 7.30576 22.6836 7.32851C22.6816 7.33051 22.6776 7.33476 22.6759 7.33676C22.6529 7.36101 22.6306 7.38526 22.6086 7.40951C22.6079 7.41026 22.6066 7.41151 22.6059 7.41226C22.5814 7.43451 22.5574 7.45676 22.5336 7.47926C22.5316 7.48126 22.5274 7.48501 22.5254 7.48701C22.5021 7.50876 22.4796 7.53101 22.4576 7.55351C22.4556 7.55551 22.4514 7.55951 22.4494 7.56151C22.4171 7.59051 22.3871 7.62176 22.3579 7.65376C22.3559 7.65551 22.3519 7.65951 22.3499 7.66151C21.9624 8.03276 21.5871 8.41726 21.2084 8.79751C20.9629 8.58451 20.7364 8.34776 20.4694 8.16076C20.4671 8.15876 20.4624 8.15501 20.4601 8.15326C20.1891 7.92076 19.8889 7.72401 19.5869 7.53376C18.3759 6.78951 16.9796 6.34776 15.5609 6.26326C15.2991 6.23151 15.0349 6.25626 14.7719 6.24776C14.6126 6.23801 14.4561 6.27451 14.2971 6.27426C13.2034 6.36226 12.1269 6.65876 11.1419 7.14301C10.8659 7.28326 10.5884 7.42576 10.3341 7.60351C10.3316 7.60501 10.3269 7.60801 10.3246 7.60976C10.1351 7.72026 9.95061 7.84276 9.78336 7.98476C9.78286 7.98501 9.78186 7.98601 9.78136 7.98626C9.74911 8.00901 9.71711 8.03176 9.68511 8.05451C9.68261 8.05626 9.67786 8.05951 9.67536 8.06126C9.36111 8.28876 9.07261 8.55101 8.79986 8.82701C7.30986 10.3093 6.38136 12.3473 6.26311 14.4475C6.22736 14.7135 6.25211 14.9828 6.24386 15.2503C6.27536 16.108 6.41936 16.964 6.69111 17.7795C6.95461 18.5725 7.33336 19.3273 7.81111 20.0128C7.87161 20.098 7.92911 20.1855 7.99961 20.2628C8.00161 20.2653 8.00511 20.27 8.00686 20.2723C8.05486 20.3503 8.10961 20.424 8.17461 20.4888C8.17636 20.4913 8.18011 20.4958 8.18211 20.498C8.34111 20.7155 8.52561 20.9138 8.71211 21.1078C9.80786 22.2445 11.2176 23.0753 12.7436 23.481C13.4054 23.6593 14.0886 23.751 14.7721 23.7775C15.0121 23.77 15.2536 23.7913 15.4929 23.7633C16.0576 23.7288 16.6244 23.6553 17.1701 23.5023C17.2071 23.497 17.2449 23.4933 17.2824 23.4895C17.5644 23.7903 17.8621 24.0755 18.1511 24.3695C18.8844 25.103 19.6171 25.8368 20.3506 26.5703C20.6044 26.8288 20.8689 27.077 21.1124 27.3455C18.9764 28.4128 16.5559 28.8918 14.1741 28.7448C11.9174 28.6158 9.69786 27.9103 7.77736 26.7185C6.46086 25.9045 5.28286 24.8665 4.31036 23.662C3.19536 22.2913 2.35536 20.7008 1.83786 19.0118C1.85261 18.9848 1.86486 18.9565 1.87711 18.9288L1.85786 18.9655C1.84711 18.9605 1.82561 18.9508 1.81486 18.9458C1.76961 18.7198 1.69386 18.501 1.64061 18.2768C1.01736 15.7215 1.14036 12.9855 2.00661 10.5008C2.84636 8.06826 4.39086 5.88726 6.39886 4.27876C8.14036 2.87801 10.2284 1.91051 12.4251 1.49626ZM2.09586 19.6468C2.11686 19.7075 2.11436 19.788 2.16911 19.8303C2.14786 19.7683 2.14686 19.6923 2.09586 19.6468ZM2.44661 20.5108C2.42686 20.538 2.45061 20.6015 2.48811 20.5933C2.50186 20.5655 2.48186 20.5053 2.44661 20.5108ZM2.59736 20.8353C2.57711 20.8625 2.60086 20.925 2.63786 20.919C2.65211 20.8913 2.63286 20.8305 2.59736 20.8353ZM14.2274 25.7305C14.2399 25.7435 14.2399 25.7435 14.2274 25.7305V25.7305ZM15.7784 25.731C15.7914 25.7435 15.7914 25.7435 15.7784 25.731V25.731ZM9.02861 27.2578C9.02061 27.2945 9.08236 27.32 9.11036 27.3005C9.11561 27.2648 9.05611 27.2438 9.02861 27.2578ZM9.35311 27.4075C9.34361 27.4445 9.40861 27.4708 9.43561 27.4488C9.43811 27.4133 9.38086 27.3948 9.35311 27.4075ZM20.6279 27.4063C20.6366 27.4888 20.6999 27.3628 20.6279 27.4063V27.4063ZM9.47661 27.4573C9.49011 27.4703 9.49011 27.4703 9.47661 27.4573V27.4573ZM20.4539 27.4798C20.4581 27.5625 20.5279 27.4398 20.4539 27.4798V27.4798ZM9.57786 27.5065C9.56461 27.544 9.65386 27.578 9.66236 27.537C9.64611 27.5108 9.60661 27.4918 9.57786 27.5065ZM20.3324 27.5295C20.3109 27.5288 20.2534 27.5648 20.2949 27.5808C20.3344 27.6005 20.4061 27.5185 20.3324 27.5295ZM9.75361 27.5793C9.75536 27.6623 9.82911 27.5425 9.75361 27.5793V27.5793ZM20.1556 27.6035C20.1524 27.6863 20.2329 27.5705 20.1556 27.6035V27.6035ZM9.87886 27.63C9.87786 27.7128 9.95561 27.5955 9.87886 27.63V27.63ZM9.95236 27.6585C9.93986 27.6968 10.0306 27.7295 10.0379 27.6873C10.0201 27.6625 9.98111 27.6443 9.95236 27.6585ZM20.0291 27.6545C20.0271 27.7375 20.1059 27.6205 20.0291 27.6545V27.6545ZM19.9571 27.6805C19.9354 27.6793 19.8761 27.7175 19.9206 27.7315C19.9599 27.75 20.0316 27.6675 19.9571 27.6805ZM10.0789 27.7088C10.0654 27.747 10.1569 27.7803 10.1646 27.738C10.1464 27.713 10.1081 27.6958 10.0789 27.7088ZM19.6921 27.802C19.7526 27.7818 19.8371 27.7848 19.8751 27.7268C19.8141 27.75 19.7394 27.7543 19.6921 27.802ZM10.2029 27.7555C10.2081 27.8383 10.2769 27.7158 10.2029 27.7555V27.7555ZM10.2766 27.781C10.2816 27.8633 10.3509 27.7415 10.2766 27.781V27.781ZM10.3529 27.8095C10.3661 27.8225 10.3661 27.8225 10.3529 27.8095V27.8095ZM19.6284 27.8063C19.6359 27.8888 19.7009 27.764 19.6284 27.8063V27.8063ZM10.4041 27.829C10.4021 27.9118 10.4811 27.7953 10.4041 27.829V27.829ZM19.5544 27.8293C19.5561 27.9118 19.6299 27.7923 19.5544 27.8293V27.8293ZM10.4789 27.8553C10.4814 27.9375 10.5549 27.8178 10.4789 27.8553V27.8553ZM10.5534 27.8803C10.5586 27.963 10.6274 27.8403 10.5534 27.8803V27.8803ZM19.4106 27.8815C19.3811 27.8848 19.3549 27.8948 19.3319 27.9113C19.3376 27.979 19.5046 27.8808 19.4106 27.8815ZM10.6281 27.9053C10.6324 27.9878 10.7029 27.8665 10.6281 27.9053V27.9053ZM10.7041 27.9293C10.7056 28.0115 10.7801 27.893 10.7041 27.9293V27.9293ZM19.2554 27.931C19.2586 28.0138 19.3299 27.8923 19.2554 27.931V27.931ZM10.7781 27.9565C10.7864 28.0385 10.8509 27.9143 10.7781 27.9565V27.9565ZM19.1796 27.9555C19.1831 28.0378 19.2546 27.9168 19.1796 27.9555V27.9555ZM10.8566 27.9813C10.8621 28.014 10.8806 28.0203 10.9121 28C10.9061 27.9665 10.8876 27.9605 10.8566 27.9813ZM19.1041 27.9798C19.1044 28.0623 19.1804 27.9438 19.1041 27.9798V27.9798ZM10.9521 28.007C10.9606 28.0893 11.0246 27.9648 10.9521 28.007V28.007ZM19.0276 28.0055C19.0319 28.0878 19.1024 27.9665 19.0276 28.0055V28.0055ZM11.0276 28.0295C11.0299 28.1123 11.1034 27.9928 11.0276 28.0295V28.0295ZM18.9316 28.0335C18.9381 28.0658 18.9566 28.0708 18.9871 28.0485C18.9801 28.0155 18.9616 28.0105 18.9316 28.0335ZM11.1026 28.0553C11.1069 28.1375 11.1776 28.0163 11.1026 28.0553V28.0553ZM18.8536 28.0558C18.8581 28.138 18.9284 28.0168 18.8536 28.0558V28.0558ZM11.1826 28.0815C11.1869 28.114 11.2049 28.12 11.2369 28.0993C11.2324 28.066 11.2141 28.06 11.1826 28.0815ZM18.7566 28.083C18.7631 28.1155 18.7819 28.1208 18.8124 28.099C18.8054 28.0658 18.7869 28.0605 18.7566 28.083ZM11.2809 28.1073C11.2861 28.1398 11.3046 28.1458 11.3359 28.1248C11.3299 28.0913 11.3116 28.0855 11.2809 28.1073ZM18.6784 28.1055C18.6844 28.1878 18.7524 28.0648 18.6784 28.1055V28.1055ZM11.3781 28.1305C11.3809 28.2128 11.4534 28.0928 11.3781 28.1305V28.1305ZM18.5811 28.1323C18.5874 28.1648 18.6061 28.17 18.6369 28.148C18.6299 28.115 18.6111 28.1098 18.5811 28.1323ZM11.4559 28.1573C11.4611 28.19 11.4794 28.1958 11.5109 28.1748C11.5051 28.1415 11.4869 28.1358 11.4559 28.1573ZM18.4821 28.1575C18.4894 28.1898 18.5079 28.1948 18.5381 28.1725C18.5306 28.1395 18.5119 28.1345 18.4821 28.1575ZM11.5559 28.1838C11.5634 28.2153 11.5824 28.22 11.6131 28.1978C11.6054 28.1655 11.5861 28.1608 11.5559 28.1838ZM18.3831 28.1795C18.3866 28.2123 18.4046 28.2193 18.4371 28.2C18.4331 28.1665 18.4151 28.1595 18.3831 28.1795ZM11.6549 28.208C11.6619 28.2403 11.6806 28.245 11.7111 28.2228C11.7039 28.19 11.6851 28.185 11.6549 28.208ZM18.2816 28.206C18.2861 28.2388 18.3041 28.2448 18.3361 28.2243C18.3311 28.191 18.3129 28.1848 18.2816 28.206ZM11.7561 28.232C11.7624 28.2645 11.7811 28.2698 11.8121 28.2485C11.8054 28.2155 11.7866 28.21 11.7561 28.232ZM18.1824 28.232C18.1874 28.2645 18.2059 28.2703 18.2376 28.2493C18.2321 28.216 18.2136 28.2103 18.1824 28.232ZM11.8559 28.2575C11.8624 28.2895 11.8811 28.295 11.9124 28.2735C11.9056 28.2408 11.8869 28.2355 11.8559 28.2575ZM18.0816 28.2573C18.0874 28.2898 18.1059 28.2953 18.1369 28.2738C18.1306 28.2405 18.1121 28.235 18.0816 28.2573ZM11.9796 28.2825C11.9851 28.3145 12.0039 28.32 12.0359 28.2988C12.0301 28.266 12.0114 28.2608 11.9796 28.2825ZM17.9569 28.2835C17.9509 28.3208 18.0401 28.321 18.0361 28.2838C18.0096 28.2645 17.9834 28.2643 17.9569 28.2835ZM12.0806 28.3085C12.0796 28.3438 12.1421 28.3413 12.1611 28.3215C12.1609 28.2863 12.0996 28.2888 12.0806 28.3085ZM17.8554 28.3078C17.8619 28.3398 17.8809 28.345 17.9124 28.3238C17.9054 28.291 17.8864 28.2858 17.8554 28.3078ZM12.2049 28.3343C12.2136 28.3658 12.2329 28.37 12.2626 28.3468C12.2536 28.3145 12.2341 28.3105 12.2049 28.3343ZM17.7326 28.3318C17.7384 28.364 17.7569 28.3698 17.7886 28.349C17.7824 28.316 17.7639 28.3103 17.7326 28.3318ZM12.3296 28.3595C12.3289 28.3958 12.3931 28.3895 12.4119 28.37C12.4099 28.3353 12.3486 28.3405 12.3296 28.3595ZM17.6059 28.3593C17.6041 28.3948 17.6674 28.3915 17.6866 28.3723C17.6866 28.3368 17.6249 28.3398 17.6059 28.3593ZM12.4561 28.3838C12.4496 28.4213 12.5391 28.4198 12.5364 28.3835C12.5096 28.3645 12.4829 28.3645 12.4561 28.3838ZM17.4561 28.3843C17.4629 28.4185 17.5564 28.4223 17.5621 28.3853C17.5314 28.3653 17.4871 28.3665 17.4561 28.3843ZM12.5811 28.4085C12.5854 28.446 12.6791 28.4448 12.6876 28.4108C12.6564 28.3928 12.6124 28.3898 12.5811 28.4085ZM17.3306 28.4088C17.3304 28.444 17.3926 28.4408 17.4119 28.4208C17.4101 28.3858 17.3494 28.389 17.3306 28.4088ZM12.7309 28.4338C12.7349 28.4715 12.8309 28.4708 12.8359 28.4358C12.8049 28.4188 12.7614 28.4145 12.7309 28.4338ZM17.1809 28.4328C17.1791 28.468 17.2424 28.4655 17.2624 28.4473C17.2629 28.4115 17.2006 28.4143 17.1809 28.4328ZM12.8816 28.4598C12.8871 28.4955 12.9829 28.497 12.9861 28.4598C12.9556 28.4413 12.9119 28.4413 12.8816 28.4598ZM17.0069 28.461C17.0136 28.496 17.1081 28.4958 17.1129 28.4588C17.0814 28.4405 17.0374 28.4428 17.0069 28.461ZM13.0561 28.4855C13.0669 28.5063 13.0889 28.5143 13.1216 28.5098C13.1349 28.5133 13.2171 28.5 13.1734 28.48C13.1354 28.4723 13.0911 28.4655 13.0561 28.4855ZM16.8314 28.4858C16.8374 28.521 16.9331 28.5228 16.9391 28.4853C16.9069 28.467 16.8634 28.4698 16.8314 28.4858ZM13.2549 28.5118C13.2614 28.5475 13.3551 28.5438 13.3619 28.509C13.3299 28.4913 13.2854 28.492 13.2549 28.5118ZM16.6324 28.51C16.6476 28.545 16.7489 28.5475 16.7626 28.5103C16.7231 28.4913 16.6721 28.4945 16.6324 28.51ZM13.4559 28.5358C13.4649 28.5693 13.5234 28.555 13.5509 28.5593C13.5634 28.5623 13.6406 28.547 13.5974 28.5308C13.5511 28.5253 13.4994 28.5155 13.4559 28.5358ZM16.4091 28.5363C16.4176 28.5668 16.4721 28.5553 16.4981 28.5598C16.5126 28.5635 16.5881 28.5475 16.5461 28.5275C16.5011 28.5198 16.4519 28.52 16.4091 28.5363ZM13.6659 28.5665C13.7414 28.588 13.8239 28.589 13.8984 28.5615C13.8209 28.5525 13.7419 28.5473 13.6659 28.5665ZM16.1186 28.5663C16.1939 28.5845 16.2756 28.5923 16.3486 28.5605C16.2721 28.5525 16.1941 28.5483 16.1186 28.5663ZM13.9684 28.5855C14.0574 28.618 14.1566 28.613 14.2466 28.5865C14.1541 28.577 14.0606 28.5755 13.9684 28.5855ZM15.7684 28.591C15.8526 28.6018 15.9484 28.6275 16.0274 28.5843C15.9409 28.5763 15.8536 28.575 15.7684 28.591ZM14.3671 28.612C14.4011 28.621 14.4354 28.6293 14.4711 28.6305C14.7296 28.6378 14.9881 28.617 15.2469 28.63C15.3726 28.6253 15.5026 28.6475 15.6256 28.612C15.4411 28.5955 15.2561 28.6085 15.0716 28.6078C14.8366 28.6125 14.6016 28.5933 14.3671 28.612Z" fill="#FFDB99"/>
<path d="M14.7943 13.7726C14.8053 13.7718 14.8275 13.7701 14.8385 13.7693C15.199 13.7571 15.5598 13.7661 15.9203 13.7633C19.3778 13.7648 22.8355 13.7623 26.293 13.7673C26.628 13.7606 26.954 13.9203 27.1793 14.1636C27.3833 14.3736 27.4993 14.6606 27.5175 14.9511C27.5158 15.0506 27.4958 15.1486 27.49 15.2478C27.479 15.3168 27.4603 15.3841 27.4418 15.4516C27.4088 15.4728 27.3963 15.5098 27.3945 15.5476C27.3665 15.6141 27.3283 15.6761 27.2858 15.7343C27.2843 15.7366 27.281 15.7408 27.2795 15.7431C27.259 15.7693 27.24 15.7966 27.2208 15.8236C27.188 15.8288 27.1703 15.8478 27.1675 15.8808C27.1525 15.8948 27.138 15.9093 27.1238 15.9238C27.0905 15.9266 27.0715 15.9443 27.0663 15.9768C27.0393 15.9961 27.0115 16.0151 26.9855 16.0348C26.9835 16.0363 26.979 16.0393 26.9768 16.0408C26.854 16.1286 26.7138 16.1883 26.569 16.2283C26.5363 16.2193 26.4823 16.2113 26.4733 16.2556C26.0718 16.2676 25.6698 16.2613 25.2683 16.2628C22.368 16.2636 19.4675 16.2623 16.5673 16.2606C15.976 16.2571 15.3845 16.2683 14.7938 16.2536C14.78 16.2213 14.755 16.2123 14.719 16.2261C14.7078 16.2253 14.6855 16.2236 14.6743 16.2228C14.66 16.2173 14.6318 16.2063 14.6175 16.2008C14.495 16.1588 14.3803 16.0981 14.2725 16.0268C14.265 15.9941 14.2445 15.9786 14.211 15.9798C14.1398 15.9131 14.0688 15.8453 14.0103 15.7668C14.0085 15.7646 14.0053 15.7601 14.0038 15.7581C13.951 15.6861 13.908 15.6078 13.8678 15.5288C13.8613 15.5148 13.8488 15.4871 13.8423 15.4733C13.8348 15.4493 13.8275 15.4253 13.8205 15.4018C13.8135 15.3883 13.7995 15.3613 13.7928 15.3478C13.793 15.3361 13.794 15.3126 13.7945 15.3011C13.8065 15.2643 13.7963 15.2401 13.7645 15.2281C13.757 15.0398 13.744 14.8468 13.8023 14.6643C13.9125 14.2718 14.228 13.9481 14.615 13.8218C14.629 13.8158 14.657 13.8038 14.671 13.7978C14.6825 13.7981 14.7055 13.7988 14.717 13.7993C14.7485 13.8071 14.774 13.7983 14.7943 13.7726Z" fill="white"/>
<path d="M24.307 5.7045C24.4513 5.56375 24.588 5.415 24.739 5.28125C26.4058 6.94575 27.639 9.0425 28.2675 11.3138C28.9313 13.6998 28.9455 16.2668 28.2868 18.6555C27.7678 20.552 26.8333 22.3333 25.5695 23.8398C24.3503 25.2993 22.8293 26.5105 21.1193 27.3455C20.8758 27.077 20.6113 26.8288 20.3575 26.5703C19.624 25.8368 18.8913 25.103 18.158 24.3695C17.869 24.0755 17.5713 23.7903 17.2893 23.4895C17.412 23.4238 17.5525 23.406 17.6818 23.3573C19.4295 22.8 20.992 21.6788 22.0763 20.199C22.8893 19.0968 23.4385 17.8003 23.6628 16.449C24.3678 16.4285 25.074 16.4473 25.7795 16.4435C26.026 16.4398 26.2745 16.4585 26.519 16.4168C26.975 16.323 27.3713 15.966 27.4955 15.5148C27.5163 15.427 27.4983 15.3365 27.499 15.2475C27.5048 15.1483 27.5248 15.0503 27.5265 14.9508C27.5083 14.6603 27.3923 14.3733 27.1883 14.1633C26.963 13.92 26.637 13.7603 26.302 13.767C22.8445 13.762 19.3868 13.7645 15.9293 13.763C15.5688 13.7658 15.208 13.7568 14.8475 13.769C14.9153 13.7595 14.983 13.7483 15.052 13.7488C16.4388 13.7513 17.8258 13.7475 19.2128 13.751C19.0963 13.3057 18.8785 12.8908 18.6183 12.513C17.9555 11.543 16.8803 10.8683 15.7208 10.6845C15.4103 10.6285 15.0938 10.6463 14.78 10.6458C14.525 10.6358 14.2735 10.6908 14.0253 10.7423C13.0415 10.969 12.142 11.5488 11.5338 12.355C11.0708 12.9535 10.7685 13.6753 10.673 14.4263C10.647 14.5825 10.6488 14.7415 10.632 14.8988C10.6145 15.0748 10.6518 15.2493 10.6518 15.4253C10.7298 16.3143 11.0978 17.1723 11.6758 17.851C11.9333 18.152 12.2195 18.4265 12.4985 18.7073C14.0835 20.295 15.6705 21.881 17.2545 23.47C17.2285 23.4808 17.2028 23.4915 17.177 23.5023C16.6313 23.6553 16.0645 23.7288 15.4998 23.7633C15.2605 23.7913 15.019 23.77 14.779 23.7775C14.0955 23.751 13.4123 23.6593 12.7505 23.481C11.2245 23.0753 9.81478 22.2445 8.71903 21.1078C8.53253 20.9138 8.34803 20.7155 8.18903 20.498C8.18703 20.4958 8.18328 20.4913 8.18153 20.4888C8.11653 20.424 8.06178 20.3503 8.01378 20.2723C8.01203 20.27 8.00853 20.2653 8.00653 20.2628C7.93603 20.1855 7.87853 20.098 7.81803 20.0128C7.34028 19.3273 6.96153 18.5725 6.69803 17.7795C6.42628 16.964 6.28228 16.108 6.25078 15.2503C6.25903 14.9828 6.23428 14.7135 6.27003 14.4475C6.38828 12.3473 7.31678 10.3093 8.80678 8.827C9.07953 8.551 9.36803 8.28875 9.68228 8.06125C9.68478 8.0595 9.68953 8.05625 9.69203 8.0545C9.72403 8.03175 9.75603 8.009 9.78828 7.98625C9.78878 7.986 9.78978 7.985 9.79028 7.98475C9.95753 7.84275 10.142 7.72025 10.3315 7.60975C10.3338 7.608 10.3385 7.605 10.341 7.6035C10.5953 7.42575 10.8728 7.28325 11.1488 7.143C12.1338 6.65875 13.2103 6.36225 14.304 6.27425C14.463 6.2745 14.6195 6.238 14.7788 6.24775C15.0418 6.25625 15.306 6.2315 15.5678 6.26325C16.9865 6.34775 18.3828 6.7895 19.5938 7.53375C19.8958 7.724 20.196 7.92075 20.467 8.15325C20.4693 8.155 20.474 8.15875 20.4763 8.16075C20.7433 8.34775 20.9698 8.5845 21.2153 8.7975C21.594 8.41725 21.9693 8.03275 22.3568 7.6615C22.3588 7.6595 22.3628 7.6555 22.3648 7.65375C22.394 7.62175 22.424 7.5905 22.4563 7.5615C22.4583 7.5595 22.4625 7.5555 22.4645 7.5535C22.4865 7.531 22.509 7.50875 22.5323 7.487C22.5343 7.485 22.5385 7.48125 22.5405 7.47925C22.5643 7.45675 22.5883 7.4345 22.6128 7.41225L22.6143 7.411L22.6155 7.4095C22.6375 7.38525 22.6598 7.361 22.6828 7.33675C22.6845 7.33475 22.6885 7.3305 22.6905 7.3285C22.7118 7.30575 22.734 7.2835 22.7568 7.2615C22.7588 7.2595 22.7625 7.2555 22.7645 7.25325C22.7935 7.22125 22.8245 7.191 22.8565 7.16175C22.8585 7.15975 22.8625 7.15575 22.8645 7.15375C22.9483 7.05975 23.0363 6.9685 23.1325 6.887C23.1353 6.88425 23.1413 6.87875 23.1443 6.876C23.153 6.86725 23.1708 6.8495 23.1795 6.8405C23.1823 6.8375 23.1878 6.83175 23.1905 6.82875C23.2325 6.7765 23.2805 6.72975 23.3315 6.68625C23.3335 6.68425 23.3375 6.68025 23.3395 6.67825C23.4065 6.60075 23.4793 6.52825 23.557 6.4615C23.559 6.4595 23.563 6.4555 23.565 6.45325C23.675 6.3345 23.7848 6.2135 23.912 6.11275L23.9145 6.111L23.9163 6.109C23.938 6.085 23.9603 6.061 23.9825 6.037C23.9845 6.035 23.9883 6.03075 23.99 6.0285C24.0885 5.91375 24.202 5.81325 24.307 5.7045ZM22.7093 22.0783C22.7175 22.1608 22.7813 22.0355 22.7093 22.0783V22.0783ZM23.234 22.077C23.243 22.1595 23.3058 22.0338 23.234 22.077V22.077ZM23.5113 22.205C23.5223 22.2183 23.5223 22.2183 23.5113 22.205V22.205ZM23.7615 22.4553C23.7735 22.4675 23.7735 22.4675 23.7615 22.4553V22.4553ZM22.0788 22.7073C22.045 22.784 22.1618 22.7055 22.0788 22.7073V22.7073ZM22.079 23.2328C22.043 23.3083 22.162 23.2333 22.079 23.2328V23.2328ZM22.2863 23.6088C22.2973 23.622 22.2973 23.622 22.2863 23.6088V23.6088ZM22.4593 23.7583C22.4723 23.77 22.4723 23.77 22.4593 23.7583V23.7583ZM23.5118 23.7543C23.5213 23.7685 23.5213 23.7685 23.5118 23.7543V23.7543ZM23.2355 23.879C23.2433 23.9615 23.3078 23.8365 23.2355 23.879V23.879Z" fill="#FFA500"/>
<path d="M14.7266 13.7995C14.7418 13.765 14.7676 13.7562 14.8038 13.7727C14.7836 13.7985 14.7581 13.8072 14.7266 13.7995Z" fill="#686868"/>
<path d="M13.7694 15.2275C13.8011 15.2395 13.8114 15.2638 13.7994 15.3005C13.7694 15.2848 13.7594 15.2603 13.7694 15.2275Z" fill="#686868"/>
<path d="M27.3984 15.5472C27.4002 15.5094 27.4127 15.4724 27.4457 15.4512C27.4627 15.4909 27.4512 15.5484 27.3984 15.5472Z" fill="#686868"/>
<path d="M27.1719 15.8805C27.1746 15.8475 27.1924 15.8285 27.2251 15.8232C27.2269 15.8607 27.2091 15.8797 27.1719 15.8805Z" fill="#686868"/>
<path d="M27.0703 15.9768C27.0756 15.9443 27.0946 15.9266 27.1278 15.9238C27.1266 15.9613 27.1073 15.9788 27.0703 15.9768Z" fill="#686868"/>
<path d="M14.2188 15.9796C14.2523 15.9783 14.2728 15.9938 14.2803 16.0266C14.2438 16.0313 14.2233 16.0158 14.2188 15.9796Z" fill="#686868"/>
<path d="M14.7266 16.2259C14.7626 16.2122 14.7876 16.2212 14.8013 16.2534C14.7686 16.2637 14.7436 16.2547 14.7266 16.2259Z" fill="#686868"/>
<path d="M26.4844 16.255C26.4934 16.2107 26.5474 16.2187 26.5801 16.2277C26.5574 16.2582 26.5186 16.265 26.4844 16.255Z" fill="#686868"/>
<path d="M2.10156 19.6465C2.15256 19.692 2.15356 19.768 2.17481 19.83C2.12006 19.7877 2.12256 19.7072 2.10156 19.6465Z" fill="#686868"/>
<path d="M2.45243 20.5111C2.48768 20.5056 2.50768 20.5658 2.49393 20.5936C2.45643 20.6018 2.43268 20.5383 2.45243 20.5111Z" fill="#686868"/>
<path d="M2.60117 20.8352C2.63667 20.8305 2.65592 20.8912 2.64167 20.919C2.60467 20.925 2.58092 20.8625 2.60117 20.8352Z" fill="#686868"/>
<path d="M14.2344 25.7305C14.2469 25.7435 14.2469 25.7435 14.2344 25.7305V25.7305Z" fill="#686868"/>
<path d="M15.7812 25.7314C15.7942 25.7439 15.7942 25.7439 15.7812 25.7314V25.7314Z" fill="#686868"/>
<path d="M9.03196 27.2573C9.05946 27.2433 9.11896 27.2643 9.11371 27.3001C9.08571 27.3196 9.02396 27.2941 9.03196 27.2573Z" fill="#686868"/>
<path d="M9.36032 27.4074C9.38807 27.3946 9.44532 27.4131 9.44282 27.4486C9.41582 27.4706 9.35082 27.4444 9.36032 27.4074Z" fill="#686868"/>
<path d="M20.6328 27.4059C20.6416 27.4884 20.7048 27.3624 20.6328 27.4059V27.4059Z" fill="#686868"/>
<path d="M9.48438 27.457C9.49788 27.47 9.49788 27.47 9.48438 27.457V27.457Z" fill="#686868"/>
<path d="M20.4609 27.4799C20.4652 27.5627 20.5349 27.4399 20.4609 27.4799V27.4799Z" fill="#686868"/>
<path d="M9.58728 27.5061C9.61603 27.4914 9.65553 27.5104 9.67178 27.5366C9.66328 27.5776 9.57403 27.5436 9.58728 27.5061Z" fill="#686868"/>
<path d="M20.3412 27.5293C20.415 27.5183 20.3432 27.6003 20.3037 27.5806C20.2622 27.5646 20.3197 27.5286 20.3412 27.5293Z" fill="#686868"/>
<path d="M9.75781 27.5795C9.75956 27.6625 9.83331 27.5427 9.75781 27.5795V27.5795Z" fill="#686868"/>
<path d="M20.1642 27.6037C20.1609 27.6865 20.2414 27.5707 20.1642 27.6037V27.6037Z" fill="#686868"/>
<path d="M9.88282 27.6296C9.88182 27.7123 9.95957 27.5951 9.88282 27.6296V27.6296Z" fill="#686868"/>
<path d="M9.95431 27.6583C9.98306 27.6441 10.0221 27.6623 10.0398 27.6871C10.0326 27.7293 9.94181 27.6966 9.95431 27.6583Z" fill="#686868"/>
<path d="M20.0313 27.6548C20.0293 27.7378 20.108 27.6208 20.0313 27.6548V27.6548Z" fill="#686868"/>
<path d="M19.9667 27.6801C20.0412 27.6671 19.9695 27.7496 19.9302 27.7311C19.8857 27.7171 19.945 27.6789 19.9667 27.6801Z" fill="#686868"/>
<path d="M10.0873 27.7085C10.1165 27.6955 10.1548 27.7128 10.173 27.7378C10.1653 27.78 10.0738 27.7468 10.0873 27.7085Z" fill="#686868"/>
<path d="M19.6953 27.8018C19.7426 27.7541 19.8173 27.7498 19.8783 27.7266C19.8403 27.7846 19.7558 27.7816 19.6953 27.8018Z" fill="#686868"/>
<path d="M10.2109 27.7552C10.2162 27.838 10.2849 27.7155 10.2109 27.7552V27.7552Z" fill="#686868"/>
<path d="M10.2812 27.7806C10.2863 27.8628 10.3555 27.7411 10.2812 27.7806V27.7806Z" fill="#686868"/>
<path d="M10.3594 27.8096C10.3726 27.8226 10.3726 27.8226 10.3594 27.8096V27.8096Z" fill="#686868"/>
<path d="M19.6328 27.8059C19.6403 27.8884 19.7053 27.7636 19.6328 27.8059V27.8059Z" fill="#686868"/>
<path d="M10.4063 27.8286C10.4043 27.9113 10.4833 27.7948 10.4063 27.8286V27.8286Z" fill="#686868"/>
<path d="M19.5625 27.8296C19.5643 27.9121 19.638 27.7926 19.5625 27.8296V27.8296Z" fill="#686868"/>
<path d="M10.4844 27.8551C10.4869 27.9374 10.5604 27.8176 10.4844 27.8551V27.8551Z" fill="#686868"/>
<path d="M10.5625 27.8803C10.5677 27.9631 10.6365 27.8403 10.5625 27.8803V27.8803Z" fill="#686868"/>
<path d="M19.4147 27.8818C19.5087 27.8811 19.3417 27.9793 19.3359 27.9116C19.3589 27.8951 19.3852 27.8851 19.4147 27.8818Z" fill="#686868"/>
<path d="M10.6328 27.9053C10.6371 27.9878 10.7076 27.8666 10.6328 27.9053V27.9053Z" fill="#686868"/>
<path d="M10.7109 27.929C10.7124 28.0112 10.7869 27.8927 10.7109 27.929V27.929Z" fill="#686868"/>
<path d="M19.2578 27.9307C19.2611 28.0135 19.3323 27.892 19.2578 27.9307V27.9307Z" fill="#686868"/>
<path d="M10.7812 27.9563C10.7895 28.0383 10.854 27.9141 10.7812 27.9563V27.9563Z" fill="#686868"/>
<path d="M19.1875 27.9552C19.191 28.0374 19.2625 27.9164 19.1875 27.9552V27.9552Z" fill="#686868"/>
<path d="M10.8594 27.9808C10.8904 27.96 10.9089 27.966 10.9149 27.9995C10.8834 28.0198 10.8649 28.0135 10.8594 27.9808Z" fill="#686868"/>
<path d="M19.1094 27.9797C19.1096 28.0622 19.1856 27.9437 19.1094 27.9797V27.9797Z" fill="#686868"/>
<path d="M10.9609 28.0071C10.9694 28.0893 11.0334 27.9648 10.9609 28.0071V28.0071Z" fill="#686868"/>
<path d="M19.0312 28.005C19.0355 28.0873 19.106 27.966 19.0312 28.005V28.005Z" fill="#686868"/>
<path d="M11.0312 28.0297C11.0335 28.1124 11.107 27.9929 11.0312 28.0297V28.0297Z" fill="#686868"/>
<path d="M18.9375 28.0337C18.9675 28.0107 18.986 28.0157 18.993 28.0487C18.9625 28.071 18.944 28.066 18.9375 28.0337Z" fill="#686868"/>
<path d="M11.1094 28.0548C11.1136 28.1371 11.1844 28.0158 11.1094 28.0548V28.0548Z" fill="#686868"/>
<path d="M18.8594 28.0558C18.8639 28.1381 18.9341 28.0168 18.8594 28.0558V28.0558Z" fill="#686868"/>
<path d="M11.1875 28.082C11.219 28.0605 11.2372 28.0665 11.2417 28.0997C11.2097 28.1205 11.1918 28.1145 11.1875 28.082Z" fill="#686868"/>
<path d="M18.7656 28.083C18.7959 28.0605 18.8144 28.0658 18.8214 28.099C18.7909 28.1208 18.7721 28.1155 18.7656 28.083Z" fill="#686868"/>
<path d="M11.2891 28.1076C11.3198 28.0859 11.3381 28.0916 11.3441 28.1251C11.3128 28.1461 11.2943 28.1401 11.2891 28.1076Z" fill="#686868"/>
<path d="M18.6875 28.1052C18.6935 28.1875 18.7615 28.0645 18.6875 28.1052V28.1052Z" fill="#686868"/>
<path d="M11.3828 28.1306C11.3856 28.2129 11.4581 28.0929 11.3828 28.1306V28.1306Z" fill="#686868"/>
<path d="M18.5859 28.1318C18.6159 28.1093 18.6347 28.1146 18.6417 28.1476C18.6109 28.1696 18.5922 28.1643 18.5859 28.1318Z" fill="#686868"/>
<path d="M11.4609 28.1572C11.4919 28.1357 11.5102 28.1415 11.5159 28.1747C11.4844 28.1957 11.4662 28.19 11.4609 28.1572Z" fill="#686868"/>
<path d="M18.4844 28.1577C18.5141 28.1347 18.5329 28.1397 18.5404 28.1727C18.5101 28.195 18.4916 28.19 18.4844 28.1577Z" fill="#686868"/>
<path d="M11.5625 28.1842C11.5928 28.1612 11.612 28.166 11.6198 28.1982C11.589 28.2205 11.57 28.2157 11.5625 28.1842Z" fill="#686868"/>
<path d="M18.3906 28.1791C18.4226 28.1591 18.4406 28.1661 18.4446 28.1996C18.4121 28.2189 18.3941 28.2119 18.3906 28.1791Z" fill="#686868"/>
<path d="M11.6641 28.2075C11.6943 28.1845 11.7131 28.1895 11.7203 28.2223C11.6898 28.2445 11.6711 28.2398 11.6641 28.2075Z" fill="#686868"/>
<path d="M18.2891 28.2057C18.3203 28.1845 18.3386 28.1907 18.3436 28.224C18.3116 28.2445 18.2936 28.2385 18.2891 28.2057Z" fill="#686868"/>
<path d="M11.7656 28.232C11.7961 28.21 11.8149 28.2154 11.8216 28.2484C11.7906 28.2697 11.7719 28.2645 11.7656 28.232Z" fill="#686868"/>
<path d="M18.1875 28.2317C18.2188 28.2099 18.2373 28.2157 18.2428 28.2489C18.211 28.2699 18.1925 28.2642 18.1875 28.2317Z" fill="#686868"/>
<path d="M11.8594 28.2574C11.8904 28.2354 11.9091 28.2407 11.9159 28.2734C11.8846 28.2949 11.8659 28.2894 11.8594 28.2574Z" fill="#686868"/>
<path d="M18.0859 28.2575C18.1164 28.2353 18.1349 28.2408 18.1412 28.274C18.1102 28.2955 18.0917 28.29 18.0859 28.2575Z" fill="#686868"/>
<path d="M11.9844 28.2826C12.0161 28.2609 12.0349 28.2661 12.0406 28.2989C12.0086 28.3201 11.9899 28.3146 11.9844 28.2826Z" fill="#686868"/>
<path d="M17.9612 28.2838C17.9877 28.2646 18.014 28.2648 18.0405 28.2841C18.0445 28.3213 17.9552 28.3211 17.9612 28.2838Z" fill="#686868"/>
<path d="M12.0859 28.3083C12.1049 28.2885 12.1662 28.286 12.1664 28.3213C12.1474 28.341 12.0849 28.3435 12.0859 28.3083Z" fill="#686868"/>
<path d="M17.8594 28.3082C17.8904 28.2862 17.9094 28.2915 17.9164 28.3242C17.8849 28.3455 17.8659 28.3402 17.8594 28.3082Z" fill="#686868"/>
<path d="M12.2109 28.3345C12.2402 28.3108 12.2597 28.3148 12.2687 28.347C12.2389 28.3703 12.2197 28.366 12.2109 28.3345Z" fill="#686868"/>
<path d="M17.7422 28.3321C17.7734 28.3106 17.7919 28.3163 17.7982 28.3493C17.7664 28.3701 17.7479 28.3643 17.7422 28.3321Z" fill="#686868"/>
<path d="M12.3359 28.3597C12.3549 28.3407 12.4162 28.3354 12.4182 28.3702C12.3994 28.3897 12.3352 28.3959 12.3359 28.3597Z" fill="#686868"/>
<path d="M17.6094 28.359C17.6284 28.3395 17.6902 28.3365 17.6902 28.372C17.6709 28.3913 17.6077 28.3945 17.6094 28.359Z" fill="#686868"/>
<path d="M12.4613 28.3836C12.488 28.3644 12.5148 28.3644 12.5415 28.3834C12.5443 28.4196 12.4548 28.4211 12.4613 28.3836Z" fill="#686868"/>
<path d="M17.4609 28.3838C17.4919 28.366 17.5362 28.3648 17.5669 28.3848C17.5612 28.4218 17.4677 28.418 17.4609 28.3838Z" fill="#686868"/>
<path d="M12.5859 28.4082C12.6172 28.3895 12.6612 28.3925 12.6924 28.4105C12.6839 28.4445 12.5902 28.4457 12.5859 28.4082Z" fill="#686868"/>
<path d="M17.3359 28.4092C17.3547 28.3894 17.4154 28.3862 17.4172 28.4212C17.3979 28.4412 17.3357 28.4444 17.3359 28.4092Z" fill="#686868"/>
<path d="M12.7344 28.4336C12.7649 28.4143 12.8084 28.4186 12.8394 28.4356C12.8344 28.4706 12.7384 28.4713 12.7344 28.4336Z" fill="#686868"/>
<path d="M17.1875 28.4323C17.2073 28.4138 17.2695 28.411 17.269 28.4468C17.249 28.465 17.1858 28.4675 17.1875 28.4323Z" fill="#686868"/>
<path d="M12.8906 28.4602C12.9209 28.4417 12.9646 28.4417 12.9951 28.4602C12.9919 28.4974 12.8961 28.4959 12.8906 28.4602Z" fill="#686868"/>
<path d="M17.0156 28.4612C17.0461 28.4429 17.0901 28.4407 17.1216 28.4589C17.1169 28.4959 17.0224 28.4962 17.0156 28.4612Z" fill="#686868"/>
<path d="M13.0625 28.4858C13.0975 28.4658 13.1418 28.4726 13.1798 28.4803C13.2235 28.5003 13.1412 28.5136 13.128 28.5101C13.0952 28.5146 13.0733 28.5066 13.0625 28.4858Z" fill="#686868"/>
<path d="M16.8359 28.4858C16.8679 28.4698 16.9114 28.467 16.9437 28.4853C16.9377 28.5228 16.8419 28.521 16.8359 28.4858Z" fill="#686868"/>
<path d="M13.2578 28.5116C13.2883 28.4918 13.3328 28.4911 13.3648 28.5088C13.3581 28.5436 13.2643 28.5473 13.2578 28.5116Z" fill="#686868"/>
<path d="M16.6406 28.5099C16.6804 28.4944 16.7314 28.4912 16.7709 28.5102C16.7571 28.5474 16.6559 28.5449 16.6406 28.5099Z" fill="#686868"/>
<path d="M13.4609 28.5357C13.5044 28.5154 13.5562 28.5252 13.6024 28.5307C13.6457 28.5469 13.5684 28.5622 13.5559 28.5592C13.5284 28.5549 13.4699 28.5692 13.4609 28.5357Z" fill="#686868"/>
<path d="M16.4141 28.5362C16.4568 28.5199 16.5061 28.5197 16.5511 28.5274C16.5931 28.5474 16.5176 28.5634 16.5031 28.5597C16.4771 28.5552 16.4226 28.5667 16.4141 28.5362Z" fill="#686868"/>
<path d="M13.6719 28.5668C13.7479 28.5476 13.8269 28.5528 13.9044 28.5618C13.8299 28.5893 13.7474 28.5883 13.6719 28.5668Z" fill="#686868"/>
<path d="M16.125 28.5663C16.2005 28.5483 16.2785 28.5526 16.355 28.5606C16.282 28.5923 16.2002 28.5846 16.125 28.5663Z" fill="#686868"/>
<path d="M13.9766 28.5859C14.0688 28.5759 14.1623 28.5774 14.2548 28.5869C14.1648 28.6134 14.0656 28.6184 13.9766 28.5859Z" fill="#686868"/>
<path d="M15.7734 28.5906C15.8587 28.5746 15.9459 28.5759 16.0324 28.5839C15.9534 28.6271 15.8577 28.6014 15.7734 28.5906Z" fill="#686868"/>
<path d="M14.375 28.6119C14.6095 28.5932 14.8445 28.6124 15.0795 28.6077C15.264 28.6084 15.449 28.5954 15.6335 28.6119C15.5105 28.6474 15.3805 28.6252 15.2548 28.6299C14.996 28.6169 14.7375 28.6377 14.479 28.6304C14.4432 28.6292 14.409 28.6209 14.375 28.6119Z" fill="#686868"/>
<path d="M14.0151 10.7423C14.2634 10.6908 14.5149 10.6358 14.7699 10.6458C15.0836 10.6463 15.4001 10.6286 15.7106 10.6846C16.8701 10.8683 17.9454 11.5431 18.6081 12.5131C18.8684 12.8908 19.0861 13.3058 19.2026 13.7511C17.8156 13.7476 16.4286 13.7513 15.0419 13.7488C14.9729 13.7483 14.9051 13.7596 14.8374 13.7691C14.8264 13.7698 14.8041 13.7716 14.7931 13.7723C14.7569 13.7558 14.7311 13.7646 14.7159 13.7991C14.7044 13.7986 14.6814 13.7978 14.6699 13.7976C14.6559 13.8036 14.6279 13.8156 14.6139 13.8216C14.2269 13.9478 13.9114 14.2716 13.8011 14.6641C13.7429 14.8466 13.7559 15.0396 13.7634 15.2278C13.7534 15.2606 13.7634 15.2851 13.7934 15.3008C13.7929 15.3123 13.7919 15.3358 13.7916 15.3476C13.7984 15.3611 13.8124 15.3881 13.8194 15.4016C13.8264 15.4251 13.8336 15.4491 13.8411 15.4731C13.8476 15.4868 13.8601 15.5146 13.8666 15.5286C13.9069 15.6076 13.9499 15.6858 14.0026 15.7578C14.0041 15.7598 14.0074 15.7643 14.0091 15.7666C14.0676 15.8451 14.1386 15.9128 14.2099 15.9796C14.2144 16.0158 14.2349 16.0313 14.2714 16.0266C14.3791 16.0978 14.4939 16.1586 14.6164 16.2006C14.6306 16.2061 14.6589 16.2171 14.6731 16.2226C14.6844 16.2233 14.7066 16.2251 14.7179 16.2258C14.7349 16.2546 14.7599 16.2636 14.7926 16.2533C15.3834 16.2681 15.9749 16.2568 16.5661 16.2603C19.4664 16.2621 22.3669 16.2633 25.2671 16.2626C25.6686 16.2611 26.0706 16.2673 26.4721 16.2553C26.5064 16.2653 26.5451 16.2586 26.5679 16.2281C26.7126 16.1881 26.8529 16.1283 26.9756 16.0406C26.9779 16.0391 26.9824 16.0361 26.9844 16.0346C27.0104 16.0148 27.0381 15.9958 27.0651 15.9766C27.1021 15.9786 27.1214 15.9611 27.1226 15.9236C27.1369 15.9091 27.1514 15.8946 27.1664 15.8806C27.2036 15.8798 27.2214 15.8608 27.2196 15.8233C27.2389 15.7963 27.2579 15.7691 27.2784 15.7428C27.2799 15.7406 27.2831 15.7363 27.2846 15.7341C27.3271 15.6758 27.3654 15.6138 27.3934 15.5473C27.4461 15.5486 27.4576 15.4911 27.4406 15.4513C27.4591 15.3838 27.4779 15.3166 27.4889 15.2476C27.4881 15.3366 27.5061 15.4271 27.4854 15.5148C27.3611 15.9661 26.9649 16.3231 26.5089 16.4168C26.2644 16.4586 26.0159 16.4398 25.7694 16.4436C25.0639 16.4473 24.3576 16.4286 23.6526 16.4491C23.4284 17.8003 22.8791 19.0968 22.0661 20.1991C20.9819 21.6788 19.4194 22.8001 17.6716 23.3573C17.5424 23.4061 17.4019 23.4238 17.2791 23.4896C17.2416 23.4933 17.2039 23.4971 17.1669 23.5023C17.1926 23.4916 17.2184 23.4808 17.2444 23.4701C15.6604 21.8811 14.0734 20.2951 12.4884 18.7073C12.2094 18.4266 11.9231 18.1521 11.6656 17.8511C11.0876 17.1723 10.7196 16.3143 10.6416 15.4253C10.6416 15.2493 10.6044 15.0748 10.6219 14.8988C10.6386 14.7416 10.6369 14.5826 10.6629 14.4263C10.7584 13.6753 11.0606 12.9536 11.5236 12.3551C12.1319 11.5488 13.0314 10.9691 14.0151 10.7423Z" fill="#FFDB99"/>
<path d="M22.7031 22.0785C22.7114 22.161 22.7751 22.0358 22.7031 22.0785V22.0785Z" fill="#474747"/>
<path d="M23.2266 22.0767C23.2356 22.1592 23.2983 22.0335 23.2266 22.0767V22.0767Z" fill="#474747"/>
<path d="M23.5078 22.2051C23.5188 22.2183 23.5188 22.2183 23.5078 22.2051V22.2051Z" fill="#474747"/>
<path d="M23.7578 22.4551C23.7698 22.4673 23.7698 22.4673 23.7578 22.4551V22.4551Z" fill="#474747"/>
<path d="M22.0688 22.7071C22.0351 22.7838 22.1518 22.7053 22.0688 22.7071V22.7071Z" fill="#474747"/>
<path d="M22.0695 23.2324C22.0335 23.3079 22.1525 23.2329 22.0695 23.2324V23.2324Z" fill="#474747"/>
<path d="M22.2812 23.6084C22.2922 23.6216 22.2922 23.6216 22.2812 23.6084V23.6084Z" fill="#474747"/>
<path d="M22.4531 23.7578C22.4661 23.7696 22.4661 23.7696 22.4531 23.7578V23.7578Z" fill="#474747"/>
<path d="M23.5078 23.7539C23.5173 23.7682 23.5173 23.7682 23.5078 23.7539V23.7539Z" fill="#474747"/>
<path d="M23.2266 23.8792C23.2343 23.9617 23.2988 23.8367 23.2266 23.8792V23.8792Z" fill="#474747"/>
</svg>
