<svg width="30" height="30" viewBox="0 0 30 30" fill="none" xmlns="http://www.w3.org/2000/svg">
<path opacity="0.4" d="M12.2375 14.7375L8.15 10.65C8.55 10.2 8.9625 9.7625 9.3875 9.3375C10.6875 8.05 12.05 6.8875 13.475 5.85C14.9 4.825 16.325 4 17.7375 3.4C19.1625 2.8 20.525 2.5 21.825 2.5C22.675 2.5 23.4875 2.65 24.2375 2.95C25 3.25 25.7 3.725 26.325 4.3875C27.1125 5.1875 27.5 6.0625 27.5 6.9875C27.5 7.3375 27.425 7.6875 27.275 8C27.125 8.325 26.9 8.6125 26.575 8.8375L22.4875 11.7375C22.175 11.9625 21.8875 12.125 21.6125 12.2375C21.35 12.35 21.0875 12.4125 20.85 12.4125C20.55 12.4125 20.25 12.325 19.9625 12.15C19.675 11.9875 19.375 11.75 19.075 11.45L18.0875 10.5C17.95 10.3625 17.7875 10.3 17.5875 10.3C17.4875 10.3 17.4 10.3125 17.3 10.3375C17.2 10.375 17.125 10.4125 17.05 10.4375C16.6375 10.6625 16.1 11.05 15.45 11.6C14.8 12.1625 14.1375 12.7625 13.475 13.4125C13.0375 13.8625 12.6125 14.3 12.2375 14.7375Z" fill="#FFA500"/>
<path d="M7.09062 27.4625C6.74062 27.4625 6.37812 27.4 6.02812 27.275C5.92812 27.2375 5.82812 27.2 5.72812 27.15C5.27812 26.9375 4.85312 26.6625 4.45312 26.3C3.77812 25.6875 3.29062 25.0125 2.97812 24.25C2.97812 24.2375 2.96563 24.225 2.96563 24.2125C2.66563 23.475 2.50312 22.675 2.50312 21.8125C2.50312 20.5375 2.80312 19.175 3.41562 17.7375C4.02812 16.3 4.85312 14.8625 5.89062 13.4375C6.25312 12.95 6.61563 12.4625 7.00313 12L11.0906 16.0875C10.8281 16.4375 10.6281 16.75 10.4906 17.0125C10.4656 17.075 10.4281 17.15 10.3906 17.2375C10.3531 17.3375 10.3406 17.4375 10.3406 17.55C10.3406 17.7625 10.4156 17.925 10.5531 18.0625L11.4906 19.0125C11.8031 19.325 12.0406 19.625 12.1906 19.9125C12.3656 20.2 12.4531 20.4875 12.4531 20.8C12.4531 21.0375 12.4031 21.2875 12.2906 21.5625C12.1781 21.8375 12.0156 22.125 11.8031 22.4375L8.86562 26.575C8.64062 26.9 8.37813 27.125 8.06563 27.2625C7.75313 27.3875 7.44062 27.4625 7.09062 27.4625Z" fill="#FFA500"/>
</svg>
