<svg width="13" height="12" viewBox="0 0 13 12" fill="none" xmlns="http://www.w3.org/2000/svg">
<path fill-rule="evenodd" clip-rule="evenodd" d="M6.00547 0C2.69045 0 0 2.69141 0 6.00547C0 8.0358 1.00892 9.83168 2.55305 10.9184C2.87782 11.1481 3.32751 11.0693 3.55716 10.7445C3.78585 10.4188 3.70802 9.96908 3.38228 9.74039C2.20905 8.91404 1.44131 7.54864 1.44131 6.00547C1.44131 3.48606 3.48606 1.44131 6.00547 1.44131C6.40327 1.44131 6.72613 1.11846 6.72613 0.720656C6.72613 0.322854 6.40327 0 6.00547 0Z" fill="#6978A0"/>
<path fill-rule="evenodd" clip-rule="evenodd" d="M6.39178 11.9983C9.52615 11.7984 12.011 9.18963 12.011 6.00529C12.011 4.17579 11.1904 2.53557 9.89801 1.43345C9.59534 1.17593 9.13988 1.21149 8.88237 1.51416C8.62389 1.81684 8.6604 2.27229 8.96308 2.53077C9.94606 3.36769 10.5697 4.61394 10.5697 6.00529C10.5697 8.42574 8.68154 10.408 6.29953 10.5598C5.90269 10.5858 5.60098 10.9279 5.62692 11.3247C5.6519 11.7225 5.99494 12.0242 6.39178 11.9983Z" fill="#6978A0"/>
<path fill-rule="evenodd" clip-rule="evenodd" d="M11.6052 0.960999H8.88789C8.49009 0.960999 8.16724 1.28385 8.16724 1.68166V4.39901C8.16724 4.79681 8.49009 5.11967 8.88789 5.11967C9.2857 5.11967 9.60855 4.79681 9.60855 4.39901V2.40231H11.6052C12.003 2.40231 12.3259 2.07946 12.3259 1.68166C12.3259 1.28385 12.003 0.960999 11.6052 0.960999Z" fill="#6978A0"/>
<path fill-rule="evenodd" clip-rule="evenodd" d="M0.720657 11.5304H3.43801C3.83581 11.5304 4.15867 11.2075 4.15867 10.8097V8.09236C4.15867 7.69456 3.83581 7.3717 3.43801 7.3717C3.04021 7.3717 2.71736 7.69456 2.71736 8.09236V10.0891H0.720657C0.322854 10.0891 0 10.4119 0 10.8097C0 11.2075 0.322854 11.5304 0.720657 11.5304Z" fill="#6978A0"/>
</svg>
