<svg width="11" height="11" viewBox="0 0 11 11" fill="none" xmlns="http://www.w3.org/2000/svg">
<g clip-path="url(#clip0_5496_11373)">
<path d="M5.5 11C8.53789 11 11 8.53789 11 5.5C11 2.46211 8.53789 -2.15244e-07 5.5 -4.80825e-07C2.46211 -7.46406e-07 7.46406e-07 2.46211 4.80825e-07 5.5C2.15244e-07 8.53789 2.46211 11 5.5 11ZM4.77598 2.06894C4.77598 1.90996 4.90488 1.77891 5.06387 1.77891L5.93399 1.77891C6.09297 1.77891 6.22402 1.90781 6.22402 2.0668L6.22402 6.51406C6.22402 6.67305 6.09512 6.8041 5.93613 6.8041L5.06602 6.8041C4.90703 6.8041 4.77598 6.67519 4.77598 6.51621L4.77598 2.06894ZM5.5 7.54531C5.96191 7.54531 6.33789 7.92129 6.33789 8.3832C6.33789 8.84512 5.96191 9.22109 5.5 9.22109C5.03809 9.22109 4.66211 8.84512 4.66211 8.3832C4.66211 7.92129 5.03809 7.54531 5.5 7.54531Z" fill="#71839B"/>
</g>
<defs>
<clipPath id="clip0_5496_11373">
<rect width="11" height="11" fill="white" transform="translate(11 11) rotate(-180)"/>
</clipPath>
</defs>
</svg>
