<svg width="67" height="62" viewBox="0 0 67 62" fill="none" xmlns="http://www.w3.org/2000/svg">
<path d="M10.0999 33.0449H31.6179C33.872 33.0449 36.235 34.7962 36.8959 36.9565L42.963 56.7886C43.6239 58.9489 42.3324 60.7002 40.0784 60.7002H18.5603C16.3063 60.7002 13.9433 58.9489 13.2824 56.7886L7.21532 36.9565C6.55442 34.7962 7.84591 33.0449 10.0999 33.0449Z" fill="white" stroke="black" stroke-width="0.5"/>
<path d="M11.7015 31.5327H33.2195C35.4735 31.5327 37.8365 33.284 38.4974 35.4443L44.5645 55.2764C45.2254 57.4367 43.9339 59.188 41.6799 59.188H20.1619C17.9079 59.188 15.5449 57.4367 14.884 55.2764L8.81688 35.4443C8.15598 33.284 9.44747 31.5327 11.7015 31.5327Z" fill="white" stroke="black" stroke-width="0.5"/>
<path d="M13.2093 30.022H34.7273C36.9813 30.022 39.3444 31.7733 40.0052 33.9336L46.0724 53.7656C46.7332 55.9259 45.4418 57.6772 43.1877 57.6772H21.6697C19.4157 57.6772 17.0527 55.9259 16.3918 53.7656L10.3247 33.9336C9.6638 31.7733 10.9553 30.022 13.2093 30.022Z" fill="white" stroke="black" stroke-width="0.5"/>
<path d="M14.6273 28.6167H36.1453C38.3993 28.6167 40.7623 30.368 41.4232 32.5283L47.4903 52.3604C48.1512 54.5207 46.8597 56.272 44.6057 56.272H23.0877C20.8337 56.272 18.4707 54.5207 17.8098 52.3604L11.7427 32.5283C11.0818 30.368 12.3733 28.6167 14.6273 28.6167Z" fill="#FFA500" stroke="black" stroke-width="0.5"/>
<path fill-rule="evenodd" clip-rule="evenodd" d="M39.0333 29.7096C39.1143 29.8866 39.1836 30.0677 39.2399 30.2517L45.307 50.0838C45.9381 52.1467 44.7049 53.819 42.5525 53.819H21.0345C20.0559 53.819 19.0557 53.4733 18.1967 52.9024C18.1157 52.7254 18.0464 52.5444 17.9901 52.3602L11.923 32.5282C11.2918 30.4653 12.5251 28.793 14.6775 28.793H36.1954C37.1741 28.793 38.1742 29.1386 39.0333 29.7096Z" fill="white"/>
<path d="M36.6947 28.2988L15.1786 28.5812C12.9248 28.6108 12.3897 29.93 13.9836 31.5278L28.6152 46.1959C30.2091 47.7937 33.3282 49.065 35.582 49.0354L57.0982 48.7531C59.352 48.7235 59.8871 47.4042 58.2932 45.8064L43.6616 31.1384C42.0677 29.5406 38.9486 28.2693 36.6947 28.2988Z" fill="white" stroke="black" stroke-width="0.5"/>
<path d="M44.4079 1.2998H22.8899C20.6358 1.2998 18.2728 3.05109 17.6119 5.21141L11.5448 25.0435C10.8839 27.2038 12.1754 28.9551 14.4295 28.9551H35.9475C38.2015 28.9551 40.5645 27.2038 41.2254 25.0435L47.2925 5.21141C47.9534 3.05109 46.6619 1.2998 44.4079 1.2998Z" fill="white"/>
<path d="M44.4079 1.2998H22.8899C20.6358 1.2998 18.2728 3.05109 17.6119 5.21141L11.5448 25.0435C10.8839 27.2038 12.1754 28.9551 14.4295 28.9551H35.9475C38.2015 28.9551 40.5645 27.2038 41.2254 25.0435L47.2925 5.21141C47.9534 3.05109 46.6619 1.2998 44.4079 1.2998Z" fill="url(#paint0_linear_5465_23080)"/>
<path d="M44.4079 1.2998H22.8899C20.6358 1.2998 18.2728 3.05109 17.6119 5.21141L11.5448 25.0435C10.8839 27.2038 12.1754 28.9551 14.4295 28.9551H35.9475C38.2015 28.9551 40.5645 27.2038 41.2254 25.0435L47.2925 5.21141C47.9534 3.05109 46.6619 1.2998 44.4079 1.2998Z" stroke="black" stroke-width="0.5"/>
<path d="M28.9242 17.4873C27.6485 17.4873 25.9366 18.0706 24.6866 18.9312L14.155 26.1824C12.2012 27.5276 12.2423 28.9051 14.2362 28.9051H37.7593C39.0351 28.9051 40.747 28.3218 41.9969 27.4612L52.5286 20.21C54.4824 18.8648 54.4413 17.4873 52.4474 17.4873H28.9242Z" fill="white" stroke="black" stroke-width="0.5"/>
<path d="M36.7733 37.4702C36.9998 37.1044 36.4151 36.3299 35.4675 35.7404C34.5199 35.151 33.5681 34.9696 33.3417 35.3355C33.1153 35.7013 33.6999 36.4757 34.6475 37.0652C35.5951 37.6547 36.5469 37.836 36.7733 37.4702Z" fill="black"/>
<path d="M36.5863 37.9458C34.9603 37.9458 34.9491 39.2672 36.5608 40.8974H42.4482C40.8365 39.2672 38.2124 37.9458 36.5863 37.9458Z" fill="black"/>
<path d="M45.0829 43.8501C46.1267 42.1639 43.4306 38.5936 39.0611 35.8754C34.6916 33.1574 30.3033 32.3209 29.2596 34.0072C28.2159 35.6934 30.912 39.2637 35.2815 41.9819C39.651 44.6999 44.0393 45.5364 45.0829 43.8501Z" stroke="black" stroke-width="0.5" stroke-miterlimit="10"/>
<defs>
<linearGradient id="paint0_linear_5465_23080" x1="19.4028" y1="2.2243" x2="26.2267" y2="18.263" gradientUnits="userSpaceOnUse">
<stop stop-color="#FF8F34" stop-opacity="0.5"/>
<stop offset="1" stop-color="#FF8F34" stop-opacity="0"/>
</linearGradient>
</defs>
</svg>
