<svg width="177" height="48" viewBox="0 0 177 48" fill="none" xmlns="http://www.w3.org/2000/svg">
<g clip-path="url(#clip0_0_1341)">
<path fill-rule="evenodd" clip-rule="evenodd" d="M20.6875 6.21886L9.12622 23.9899L20.6875 41.761H156.312L167.874 23.9899L156.312 6.21886H20.6875ZM24.1456 12.4377L16.6359 23.9899L24.1456 35.5421H152.834L160.344 23.9899L152.834 12.4377H24.1456Z" fill="url(#paint0_linear_0_1341)"/>
<path fill-rule="evenodd" clip-rule="evenodd" d="M152.854 12.4377L167.69 35.2805V38.3195L151.934 14.0881L152.854 12.4377Z" fill="url(#paint1_linear_0_1341)"/>
<path fill-rule="evenodd" clip-rule="evenodd" d="M167.69 35.2805L152.854 12.4377L153.755 10.7874L167.69 32.2214V35.2805Z" fill="url(#paint2_linear_0_1341)"/>
<path fill-rule="evenodd" clip-rule="evenodd" d="M1.98486 23.9899L9.3104 12.7195V9.66038L0 23.9899H1.98486Z" fill="url(#paint3_linear_0_1341)"/>
<path fill-rule="evenodd" clip-rule="evenodd" d="M9.31041 12.7195L1.98486 23.9899H3.96972L9.31041 15.7786V12.7195Z" fill="url(#paint4_linear_0_1341)"/>
<path fill-rule="evenodd" clip-rule="evenodd" d="M24.1457 35.5623L9.31042 12.7195V9.66038L25.0665 33.9119L24.1457 35.5623Z" fill="url(#paint5_linear_0_1341)"/>
<path fill-rule="evenodd" clip-rule="evenodd" d="M9.31042 12.7195L24.1457 35.5623L23.2453 37.1925L9.31042 15.7786V12.7195Z" fill="url(#paint6_linear_0_1341)"/>
<path fill-rule="evenodd" clip-rule="evenodd" d="M9.12626 23.9899L20.6875 41.7811L19.7667 43.4113L7.16187 23.9899H9.12626Z" fill="url(#paint7_linear_0_1341)"/>
<path fill-rule="evenodd" clip-rule="evenodd" d="M20.6875 41.7811L9.12622 23.9899H11.1111L21.6083 40.1308L20.6875 41.7811Z" fill="url(#paint8_linear_0_1341)"/>
<path fill-rule="evenodd" clip-rule="evenodd" d="M20.6875 41.7811H156.312L157.213 43.4113H19.7667L20.6875 41.7811Z" fill="url(#paint9_linear_0_1341)"/>
<path fill-rule="evenodd" clip-rule="evenodd" d="M156.312 41.7811H20.6875L21.6083 40.1308H155.392L156.312 41.7811Z" fill="url(#paint10_linear_0_1341)"/>
<path fill-rule="evenodd" clip-rule="evenodd" d="M155.392 40.1308L165.889 23.9899H167.853L156.312 41.7811L155.392 40.1308Z" fill="url(#paint11_linear_0_1341)"/>
<path fill-rule="evenodd" clip-rule="evenodd" d="M156.312 41.7811L167.853 23.9899H169.838L157.213 43.4113L156.312 41.7811Z" fill="url(#paint12_linear_0_1341)"/>
<path fill-rule="evenodd" clip-rule="evenodd" d="M24.1457 12.4377L9.31042 35.2805V38.3195L25.0665 14.0881L24.1457 12.4377Z" fill="url(#paint13_linear_0_1341)"/>
<path fill-rule="evenodd" clip-rule="evenodd" d="M9.31042 35.2805L24.1457 12.4377L23.2453 10.7874L9.31042 32.2214V35.2805Z" fill="url(#paint14_linear_0_1341)"/>
<path fill-rule="evenodd" clip-rule="evenodd" d="M24.1456 12.4377H152.854L153.755 10.7874H23.2453L24.1456 12.4377Z" fill="url(#paint15_linear_0_1341)"/>
<path fill-rule="evenodd" clip-rule="evenodd" d="M152.854 12.4377H24.1457L25.0665 14.0881H151.934L152.854 12.4377Z" fill="url(#paint16_linear_0_1341)"/>
<path fill-rule="evenodd" clip-rule="evenodd" d="M24.1456 35.5623H152.854L153.755 37.1925H23.2453L24.1456 35.5623Z" fill="url(#paint17_linear_0_1341)"/>
<path fill-rule="evenodd" clip-rule="evenodd" d="M152.854 35.5623H24.1457L25.0665 33.9119H151.934L152.854 35.5623Z" fill="url(#paint18_linear_0_1341)"/>
<path fill-rule="evenodd" clip-rule="evenodd" d="M1.98486 23.9899L9.3104 35.2805V38.3195L0 23.9899H1.98486Z" fill="url(#paint19_linear_0_1341)"/>
<path fill-rule="evenodd" clip-rule="evenodd" d="M9.31041 35.2805L1.98486 23.9899H3.96972L9.31041 32.2214V35.2805Z" fill="url(#paint20_linear_0_1341)"/>
<path fill-rule="evenodd" clip-rule="evenodd" d="M175.015 23.9899L167.69 12.7195V9.66038L177 23.9899H175.015Z" fill="url(#paint21_linear_0_1341)"/>
<path fill-rule="evenodd" clip-rule="evenodd" d="M167.69 12.7195L175.015 23.9899H173.03L167.69 15.7786V12.7195Z" fill="url(#paint22_linear_0_1341)"/>
<path fill-rule="evenodd" clip-rule="evenodd" d="M175.015 23.9899L167.69 35.2805V38.3195L177 23.9899H175.015Z" fill="url(#paint23_linear_0_1341)"/>
<path fill-rule="evenodd" clip-rule="evenodd" d="M167.69 35.2805L175.015 23.9899H173.03L167.69 32.2214V35.2805Z" fill="url(#paint24_linear_0_1341)"/>
<path fill-rule="evenodd" clip-rule="evenodd" d="M9.12626 23.9899L20.6875 6.21886L19.7667 4.56855L7.16187 23.9899H9.12626Z" fill="url(#paint25_linear_0_1341)"/>
<path fill-rule="evenodd" clip-rule="evenodd" d="M20.6875 6.21886L9.12622 23.9899H11.1111L21.6083 7.86918L20.6875 6.21886Z" fill="url(#paint26_linear_0_1341)"/>
<path fill-rule="evenodd" clip-rule="evenodd" d="M20.6875 6.21886H156.312L157.213 4.56855H19.7667L20.6875 6.21886Z" fill="url(#paint27_linear_0_1341)"/>
<path fill-rule="evenodd" clip-rule="evenodd" d="M156.312 6.21886H20.6875L21.6083 7.86918H155.392L156.312 6.21886Z" fill="url(#paint28_linear_0_1341)"/>
<path fill-rule="evenodd" clip-rule="evenodd" d="M155.392 7.86918L165.889 23.9899H167.853L156.312 6.21886L155.392 7.86918Z" fill="url(#paint29_linear_0_1341)"/>
<path fill-rule="evenodd" clip-rule="evenodd" d="M156.312 6.21886L167.853 23.9899H169.838L157.213 4.56855L156.312 6.21886Z" fill="url(#paint30_linear_0_1341)"/>
<path fill-rule="evenodd" clip-rule="evenodd" d="M152.854 35.5623L167.69 12.7195V9.66038L151.934 33.9119L152.854 35.5623Z" fill="url(#paint31_linear_0_1341)"/>
<path fill-rule="evenodd" clip-rule="evenodd" d="M167.69 12.7195L152.854 35.5623L153.755 37.1925L167.69 15.7786V12.7195Z" fill="url(#paint32_linear_0_1341)"/>
<path fill-rule="evenodd" clip-rule="evenodd" d="M20.6875 6.21887L18.3344 6.78239L18.9073 3.01887L20.6875 6.21887Z" fill="url(#paint33_linear_0_1341)"/>
<path fill-rule="evenodd" clip-rule="evenodd" d="M20.6875 6.21887L22.4473 4.56855L18.9073 3.01887L20.6875 6.21887Z" fill="url(#paint34_linear_0_1341)"/>
<path fill-rule="evenodd" clip-rule="evenodd" d="M156.312 6.21887L158.666 6.78239L158.093 3.01887L156.312 6.21887Z" fill="url(#paint35_linear_0_1341)"/>
<path fill-rule="evenodd" clip-rule="evenodd" d="M156.313 6.21887L154.553 4.56855L158.093 3.01887L156.313 6.21887Z" fill="url(#paint36_linear_0_1341)"/>
<path fill-rule="evenodd" clip-rule="evenodd" d="M20.6875 41.7811L18.3344 41.2176L18.9073 44.9811L20.6875 41.7811Z" fill="url(#paint37_linear_0_1341)"/>
<path fill-rule="evenodd" clip-rule="evenodd" d="M20.6875 41.7811L22.4473 43.4113L18.9073 44.9811L20.6875 41.7811Z" fill="url(#paint38_linear_0_1341)"/>
<path fill-rule="evenodd" clip-rule="evenodd" d="M156.312 41.7811L158.666 41.2176L158.093 44.9811L156.312 41.7811Z" fill="url(#paint39_linear_0_1341)"/>
<path fill-rule="evenodd" clip-rule="evenodd" d="M156.313 41.7811L154.553 43.4113L158.093 44.9811L156.313 41.7811Z" fill="url(#paint40_linear_0_1341)"/>
<g style="mix-blend-mode:screen" opacity="0.35">
<path fill-rule="evenodd" clip-rule="evenodd" d="M88.5 10.7874H23.2453C23.5113 9.64025 29.7114 9.41887 88.5 9.41887C147.289 9.41887 153.509 9.64025 153.755 10.7874H88.5Z" fill="#66C1FF"/>
</g>
<g style="mix-blend-mode:screen" opacity="0.35">
<path fill-rule="evenodd" clip-rule="evenodd" d="M88.5 40.1308H21.6083C21.8743 38.9837 28.2177 38.7623 88.5 38.7623C148.782 38.7623 155.126 38.9837 155.392 40.1308H88.5Z" fill="#66C1FF"/>
</g>
<g style="mix-blend-mode:multiply">
<path fill-rule="evenodd" clip-rule="evenodd" d="M12.8914 21.273L14.6511 23.9899L16.636 20.9308L14.8762 18.2138L12.8914 21.273ZM16.636 27.0491L18.3957 29.766L20.3806 26.7069L18.6208 23.9899L16.636 27.0491Z" fill="url(#paint41_radial_0_1341)"/>
</g>
<g style="mix-blend-mode:multiply">
<path fill-rule="evenodd" clip-rule="evenodd" d="M9.12622 27.0491L10.886 29.766L12.8708 26.7069L11.1111 23.9899L9.12622 27.0491ZM12.8708 32.8252L14.6306 35.5421L16.6155 32.483L14.8557 29.766L12.8708 32.8252Z" fill="url(#paint42_radial_0_1341)"/>
</g>
<g style="mix-blend-mode:multiply">
<path fill-rule="evenodd" clip-rule="evenodd" d="M160.364 27.0491L162.124 29.766L164.109 26.7069L162.349 23.9899L160.364 27.0491ZM164.109 32.8252L165.868 35.5421L167.853 32.483L166.093 29.766L164.109 32.8252Z" fill="url(#paint43_radial_0_1341)"/>
</g>
<g style="mix-blend-mode:multiply">
<path fill-rule="evenodd" clip-rule="evenodd" d="M160.364 15.4969L162.124 18.2138L164.109 15.1547L162.349 12.4377L160.364 15.4969ZM164.109 21.273L165.868 23.9899L167.853 20.9308L166.093 18.2138L164.109 21.273Z" fill="url(#paint44_radial_0_1341)"/>
</g>
<path fill-rule="evenodd" clip-rule="evenodd" d="M88.5 0L94.8229 6.21887L88.5 12.4377L82.1771 6.21887L88.5 0ZM88.5 2.31447L84.5508 6.19874L88.5 10.083L92.4493 6.19874L88.5 2.31447Z" fill="#75B1F5"/>
<path fill-rule="evenodd" clip-rule="evenodd" d="M83.3639 6.21887L88.5 1.1673V0L82.1771 6.21887H83.3639Z" fill="url(#paint45_linear_0_1341)"/>
<path fill-rule="evenodd" clip-rule="evenodd" d="M88.5 1.1673L83.364 6.21887H84.5508L88.5 2.31447V1.1673Z" fill="url(#paint46_linear_0_1341)"/>
<path fill-rule="evenodd" clip-rule="evenodd" d="M93.6361 6.21887L88.5 1.1673V0L94.8229 6.21887H93.6361Z" fill="url(#paint47_linear_0_1341)"/>
<path fill-rule="evenodd" clip-rule="evenodd" d="M88.5 1.1673L93.6361 6.21887H92.4492L88.5 2.31447V1.1673Z" fill="url(#paint48_linear_0_1341)"/>
<path fill-rule="evenodd" clip-rule="evenodd" d="M83.3639 6.21886L88.5 11.2704V12.4377L82.1771 6.21886H83.3639Z" fill="url(#paint49_linear_0_1341)"/>
<path fill-rule="evenodd" clip-rule="evenodd" d="M88.5 11.2704L83.364 6.21886H84.5508L88.5 10.1031V11.2704Z" fill="url(#paint50_linear_0_1341)"/>
<path fill-rule="evenodd" clip-rule="evenodd" d="M93.6361 6.21886L88.5 11.2704V12.4377L94.8229 6.21886H93.6361Z" fill="url(#paint51_linear_0_1341)"/>
<path fill-rule="evenodd" clip-rule="evenodd" d="M88.5 11.2704L93.6361 6.21886H92.4492L88.5 10.1031V11.2704Z" fill="url(#paint52_linear_0_1341)"/>
<path fill-rule="evenodd" clip-rule="evenodd" d="M84.5508 6.21887L88.5 2.31447L92.4493 6.21887L88.5 10.1031L84.5508 6.21887Z" fill="#6367E9"/>
<path fill-rule="evenodd" clip-rule="evenodd" d="M85.9422 6.21887L88.5 3.70315L91.0578 6.21887L88.5 8.73459L85.9422 6.21887Z" fill="url(#paint53_linear_0_1341)"/>
<path fill-rule="evenodd" clip-rule="evenodd" d="M85.9422 6.21887L88.5 3.70315V2.31447L84.5508 6.21887H85.9422Z" fill="url(#paint54_linear_0_1341)"/>
<path fill-rule="evenodd" clip-rule="evenodd" d="M91.0578 6.21887L88.5 3.70315V2.31447L92.4492 6.21887H91.0578Z" fill="url(#paint55_linear_0_1341)"/>
<path fill-rule="evenodd" clip-rule="evenodd" d="M85.9422 6.21887L88.5 8.71447V10.1031L84.5508 6.21887H85.9422Z" fill="url(#paint56_linear_0_1341)"/>
<path fill-rule="evenodd" clip-rule="evenodd" d="M91.0578 6.21887L88.5 8.71447V10.1031L92.4492 6.21887H91.0578Z" fill="url(#paint57_linear_0_1341)"/>
<path fill-rule="evenodd" clip-rule="evenodd" d="M88.5 35.5623L94.8229 41.7811L88.5 48L82.1771 41.7811L88.5 35.5623ZM88.5 37.8767L84.5508 41.761L88.5 45.6453L92.4493 41.761L88.5 37.8767Z" fill="#75B1F5"/>
<path fill-rule="evenodd" clip-rule="evenodd" d="M83.3639 41.7811L88.5 36.7094V35.5623L82.1771 41.7811H83.3639Z" fill="url(#paint58_linear_0_1341)"/>
<path fill-rule="evenodd" clip-rule="evenodd" d="M88.5 36.7094L83.364 41.7811H84.5508L88.5 37.8767V36.7094Z" fill="url(#paint59_linear_0_1341)"/>
<path fill-rule="evenodd" clip-rule="evenodd" d="M93.6361 41.7811L88.5 36.7094V35.5623L94.8229 41.7811H93.6361Z" fill="url(#paint60_linear_0_1341)"/>
<path fill-rule="evenodd" clip-rule="evenodd" d="M88.5 36.7094L93.6361 41.7811H92.4492L88.5 37.8767V36.7094Z" fill="url(#paint61_linear_0_1341)"/>
<path fill-rule="evenodd" clip-rule="evenodd" d="M83.3639 41.7811L88.5 46.8327V48L82.1771 41.7811H83.3639Z" fill="url(#paint62_linear_0_1341)"/>
<path fill-rule="evenodd" clip-rule="evenodd" d="M88.5 46.8327L83.364 41.7811H84.5508L88.5 45.6654V46.8327Z" fill="url(#paint63_linear_0_1341)"/>
<path fill-rule="evenodd" clip-rule="evenodd" d="M93.6361 41.7811L88.5 46.8327V48L94.8229 41.7811H93.6361Z" fill="url(#paint64_linear_0_1341)"/>
<path fill-rule="evenodd" clip-rule="evenodd" d="M88.5 46.8327L93.6361 41.7811H92.4492L88.5 45.6654V46.8327Z" fill="url(#paint65_linear_0_1341)"/>
<path fill-rule="evenodd" clip-rule="evenodd" d="M84.5508 41.7811L88.5 37.8767L92.4493 41.7811L88.5 45.6654L84.5508 41.7811Z" fill="#6367E9"/>
<path fill-rule="evenodd" clip-rule="evenodd" d="M85.9422 41.7811L88.5 39.2654L91.0578 41.7811L88.5 44.2767L85.9422 41.7811Z" fill="url(#paint66_linear_0_1341)"/>
<path fill-rule="evenodd" clip-rule="evenodd" d="M85.9422 41.7811L88.5 39.2654V37.8767L84.5508 41.7811H85.9422Z" fill="url(#paint67_linear_0_1341)"/>
<path fill-rule="evenodd" clip-rule="evenodd" d="M91.0578 41.7811L88.5 39.2654V37.8767L92.4492 41.7811H91.0578Z" fill="url(#paint68_linear_0_1341)"/>
<path fill-rule="evenodd" clip-rule="evenodd" d="M85.9422 41.761L88.5 44.2767V45.6654L84.5508 41.761H85.9422Z" fill="url(#paint69_linear_0_1341)"/>
<path fill-rule="evenodd" clip-rule="evenodd" d="M91.0578 41.761L88.5 44.2767V45.6654L92.4492 41.761H91.0578Z" fill="url(#paint70_linear_0_1341)"/>
</g>
<defs>
<linearGradient id="paint0_linear_0_1341" x1="88.5" y1="41.7811" x2="88.5" y2="6.21886" gradientUnits="userSpaceOnUse">
<stop stop-color="#004E73"/>
<stop offset="1" stop-color="#004157"/>
</linearGradient>
<linearGradient id="paint1_linear_0_1341" x1="159.812" y1="38.3195" x2="159.812" y2="12.4377" gradientUnits="userSpaceOnUse">
<stop stop-color="#435C83"/>
<stop offset="1" stop-color="#92B4FA"/>
</linearGradient>
<linearGradient id="paint2_linear_0_1341" x1="160.262" y1="35.2805" x2="160.262" y2="10.7874" gradientUnits="userSpaceOnUse">
<stop stop-color="#6479AF"/>
<stop offset="1" stop-color="#465F84"/>
</linearGradient>
<linearGradient id="paint3_linear_0_1341" x1="4.66543" y1="23.9899" x2="4.66543" y2="9.66038" gradientUnits="userSpaceOnUse">
<stop stop-color="#91A8CD"/>
<stop offset="1" stop-color="#BBE6FF"/>
</linearGradient>
<linearGradient id="paint4_linear_0_1341" x1="5.64764" y1="23.9899" x2="5.64764" y2="12.7195" gradientUnits="userSpaceOnUse">
<stop stop-color="#6479AF"/>
<stop offset="1" stop-color="#465F84"/>
</linearGradient>
<linearGradient id="paint5_linear_0_1341" x1="17.1885" y1="35.5623" x2="17.1885" y2="9.66038" gradientUnits="userSpaceOnUse">
<stop stop-color="#6479AF"/>
<stop offset="1" stop-color="#465F84"/>
</linearGradient>
<linearGradient id="paint6_linear_0_1341" x1="16.7383" y1="37.1925" x2="16.7383" y2="12.7195" gradientUnits="userSpaceOnUse">
<stop stop-color="#8DA6C6"/>
<stop offset="1" stop-color="#697C98"/>
</linearGradient>
<linearGradient id="paint7_linear_0_1341" x1="13.9145" y1="43.4113" x2="13.9145" y2="23.9899" gradientUnits="userSpaceOnUse">
<stop stop-color="#8DA6C6"/>
<stop offset="1" stop-color="#697C98"/>
</linearGradient>
<linearGradient id="paint8_linear_0_1341" x1="15.3673" y1="41.7811" x2="15.3673" y2="23.9899" gradientUnits="userSpaceOnUse">
<stop stop-color="#6479AF"/>
<stop offset="1" stop-color="#465F84"/>
</linearGradient>
<linearGradient id="paint9_linear_0_1341" x1="88.5" y1="43.4113" x2="88.5" y2="41.7811" gradientUnits="userSpaceOnUse">
<stop stop-color="#3E5482"/>
<stop offset="1" stop-color="#4D6698"/>
</linearGradient>
<linearGradient id="paint10_linear_0_1341" x1="88.5" y1="41.7811" x2="88.5" y2="40.1308" gradientUnits="userSpaceOnUse">
<stop stop-color="#AFC9F8"/>
<stop offset="1" stop-color="#BBECFF"/>
</linearGradient>
<linearGradient id="paint11_linear_0_1341" x1="161.633" y1="41.7811" x2="161.633" y2="23.9899" gradientUnits="userSpaceOnUse">
<stop stop-color="#91A8CD"/>
<stop offset="1" stop-color="#BBE6FF"/>
</linearGradient>
<linearGradient id="paint12_linear_0_1341" x1="163.086" y1="43.4113" x2="163.086" y2="23.9899" gradientUnits="userSpaceOnUse">
<stop stop-color="#465F84"/>
<stop offset="1" stop-color="#6479AF"/>
</linearGradient>
<linearGradient id="paint13_linear_0_1341" x1="17.1885" y1="38.3195" x2="17.1885" y2="12.4377" gradientUnits="userSpaceOnUse">
<stop stop-color="#90ABE1"/>
<stop offset="1" stop-color="#465F84"/>
</linearGradient>
<linearGradient id="paint14_linear_0_1341" x1="16.7383" y1="35.2805" x2="16.7383" y2="10.7874" gradientUnits="userSpaceOnUse">
<stop stop-color="#91A8CD"/>
<stop offset="1" stop-color="#BBE6FF"/>
</linearGradient>
<linearGradient id="paint15_linear_0_1341" x1="88.5" y1="12.4377" x2="88.5" y2="10.7874" gradientUnits="userSpaceOnUse">
<stop stop-color="#AFC9F8"/>
<stop offset="1" stop-color="#BBECFF"/>
</linearGradient>
<linearGradient id="paint16_linear_0_1341" x1="88.5" y1="14.0881" x2="88.5" y2="-2.04186e-06" gradientUnits="userSpaceOnUse">
<stop stop-color="#435C83"/>
<stop offset="1" stop-color="#92B4FA"/>
</linearGradient>
<linearGradient id="paint17_linear_0_1341" x1="88.5" y1="37.1925" x2="88.5" y2="35.5623" gradientUnits="userSpaceOnUse">
<stop stop-color="#465F84"/>
<stop offset="1" stop-color="#6479AF"/>
</linearGradient>
<linearGradient id="paint18_linear_0_1341" x1="88.5" y1="35.5623" x2="88.5" y2="33.9119" gradientUnits="userSpaceOnUse">
<stop stop-color="#AFC9F8"/>
<stop offset="1" stop-color="#BBECFF"/>
</linearGradient>
<linearGradient id="paint19_linear_0_1341" x1="4.66543" y1="-2.98951e-06" x2="4.66543" y2="23.9899" gradientUnits="userSpaceOnUse">
<stop stop-color="#435C83"/>
<stop offset="1" stop-color="#92B4FA"/>
</linearGradient>
<linearGradient id="paint20_linear_0_1341" x1="5.64764" y1="-2.87305e-06" x2="5.64764" y2="23.9899" gradientUnits="userSpaceOnUse">
<stop stop-color="#6479AF"/>
<stop offset="1" stop-color="#465F84"/>
</linearGradient>
<linearGradient id="paint21_linear_0_1341" x1="172.335" y1="23.9899" x2="172.335" y2="9.66038" gradientUnits="userSpaceOnUse">
<stop stop-color="#6479AF"/>
<stop offset="1" stop-color="#465F84"/>
</linearGradient>
<linearGradient id="paint22_linear_0_1341" x1="171.352" y1="23.9899" x2="171.352" y2="12.7195" gradientUnits="userSpaceOnUse">
<stop stop-color="#435C83"/>
<stop offset="1" stop-color="#92B4FA"/>
</linearGradient>
<linearGradient id="paint23_linear_0_1341" x1="172.335" y1="38.3195" x2="172.335" y2="23.9899" gradientUnits="userSpaceOnUse">
<stop stop-color="#6479AF"/>
<stop offset="1" stop-color="#465F84"/>
</linearGradient>
<linearGradient id="paint24_linear_0_1341" x1="171.352" y1="35.2805" x2="171.352" y2="23.9899" gradientUnits="userSpaceOnUse">
<stop stop-color="#91A8CD"/>
<stop offset="1" stop-color="#BBE6FF"/>
</linearGradient>
<linearGradient id="paint25_linear_0_1341" x1="13.9145" y1="-2.98919e-06" x2="13.9145" y2="4.56855" gradientUnits="userSpaceOnUse">
<stop stop-color="#91A8CD"/>
<stop offset="1" stop-color="#BBE6FF"/>
</linearGradient>
<linearGradient id="paint26_linear_0_1341" x1="15.3673" y1="23.9899" x2="15.3673" y2="6.21886" gradientUnits="userSpaceOnUse">
<stop stop-color="#6479AF"/>
<stop offset="1" stop-color="#465F84"/>
</linearGradient>
<linearGradient id="paint27_linear_0_1341" x1="88.5" y1="6.21886" x2="88.5" y2="4.56855" gradientUnits="userSpaceOnUse">
<stop stop-color="#BBECFF"/>
<stop offset="1" stop-color="#BBEFFF"/>
</linearGradient>
<linearGradient id="paint28_linear_0_1341" x1="88.5" y1="7.86918" x2="88.5" y2="6.21886" gradientUnits="userSpaceOnUse">
<stop stop-color="#435C83"/>
<stop offset="1" stop-color="#92B4FA"/>
</linearGradient>
<linearGradient id="paint29_linear_0_1341" x1="161.633" y1="23.9899" x2="161.633" y2="6.21886" gradientUnits="userSpaceOnUse">
<stop stop-color="#435C83"/>
<stop offset="1" stop-color="#92B4FA"/>
</linearGradient>
<linearGradient id="paint30_linear_0_1341" x1="163.086" y1="23.9899" x2="163.086" y2="4.56855" gradientUnits="userSpaceOnUse">
<stop stop-color="#6479AF"/>
<stop offset="1" stop-color="#465F84"/>
</linearGradient>
<linearGradient id="paint31_linear_0_1341" x1="159.812" y1="35.5623" x2="159.812" y2="5.33541e-07" gradientUnits="userSpaceOnUse">
<stop stop-color="#91A8CD"/>
<stop offset="1" stop-color="#BBE6FF"/>
</linearGradient>
<linearGradient id="paint32_linear_0_1341" x1="160.262" y1="37.1925" x2="160.262" y2="12.7195" gradientUnits="userSpaceOnUse">
<stop stop-color="#90ABE1"/>
<stop offset="1" stop-color="#465F84"/>
</linearGradient>
<linearGradient id="paint33_linear_0_1341" x1="18.3344" y1="4.89057" x2="20.6875" y2="4.89057" gradientUnits="userSpaceOnUse">
<stop stop-color="#BBECFF"/>
<stop offset="1" stop-color="#BBEFFF"/>
</linearGradient>
<linearGradient id="paint34_linear_0_1341" x1="18.9073" y1="4.6088" x2="22.4473" y2="4.6088" gradientUnits="userSpaceOnUse">
<stop stop-color="#91A8CD"/>
<stop offset="1" stop-color="#BBE6FF"/>
</linearGradient>
<linearGradient id="paint35_linear_0_1341" x1="156.312" y1="4.89057" x2="158.666" y2="4.89057" gradientUnits="userSpaceOnUse">
<stop stop-color="#6479AF"/>
<stop offset="1" stop-color="#465F84"/>
</linearGradient>
<linearGradient id="paint36_linear_0_1341" x1="154.553" y1="4.6088" x2="158.093" y2="4.6088" gradientUnits="userSpaceOnUse">
<stop stop-color="#BBECFF"/>
<stop offset="1" stop-color="#BBEFFF"/>
</linearGradient>
<linearGradient id="paint37_linear_0_1341" x1="18.3344" y1="43.0893" x2="20.6875" y2="43.0893" gradientUnits="userSpaceOnUse">
<stop stop-color="#8DA6C6"/>
<stop offset="1" stop-color="#697C98"/>
</linearGradient>
<linearGradient id="paint38_linear_0_1341" x1="18.9073" y1="43.3711" x2="22.4473" y2="43.3711" gradientUnits="userSpaceOnUse">
<stop stop-color="#3E5482"/>
<stop offset="1" stop-color="#4D6698"/>
</linearGradient>
<linearGradient id="paint39_linear_0_1341" x1="156.312" y1="43.0893" x2="158.666" y2="43.0893" gradientUnits="userSpaceOnUse">
<stop stop-color="#4D6698"/>
<stop offset="1" stop-color="#3E5482"/>
</linearGradient>
<linearGradient id="paint40_linear_0_1341" x1="154.553" y1="43.3711" x2="158.093" y2="43.3711" gradientUnits="userSpaceOnUse">
<stop stop-color="#465F84"/>
<stop offset="1" stop-color="#6479AF"/>
</linearGradient>
<radialGradient id="paint41_radial_0_1341" cx="0" cy="0" r="1" gradientUnits="userSpaceOnUse" gradientTransform="translate(16.636 23.9899) scale(4.93144 4.85031)">
<stop stop-color="#455B80"/>
<stop offset="0.94" stop-color="white"/>
</radialGradient>
<radialGradient id="paint42_radial_0_1341" cx="0" cy="0" r="1" gradientUnits="userSpaceOnUse" gradientTransform="translate(12.8913 29.766) scale(4.93144 4.85031)">
<stop stop-color="#455B80"/>
<stop offset="0.94" stop-color="white"/>
</radialGradient>
<radialGradient id="paint43_radial_0_1341" cx="0" cy="0" r="1" gradientUnits="userSpaceOnUse" gradientTransform="translate(164.109 29.766) scale(4.93144 4.85031)">
<stop stop-color="#455B80"/>
<stop offset="0.94" stop-color="white"/>
</radialGradient>
<radialGradient id="paint44_radial_0_1341" cx="0" cy="0" r="1" gradientUnits="userSpaceOnUse" gradientTransform="translate(164.109 18.234) scale(4.93144 4.85031)">
<stop stop-color="#455B80"/>
<stop offset="0.94" stop-color="white"/>
</radialGradient>
<linearGradient id="paint45_linear_0_1341" x1="82.1771" y1="3.09937" x2="2.04626" y2="3.09937" gradientUnits="userSpaceOnUse">
<stop stop-color="#BBECFF"/>
<stop offset="1" stop-color="#BBEFFF"/>
</linearGradient>
<linearGradient id="paint46_linear_0_1341" x1="83.364" y1="3.68302" x2="88.5" y2="3.68302" gradientUnits="userSpaceOnUse">
<stop stop-color="#5D6E9B"/>
<stop offset="1" stop-color="#465B84"/>
</linearGradient>
<linearGradient id="paint47_linear_0_1341" x1="88.5" y1="3.09937" x2="94.8229" y2="3.09937" gradientUnits="userSpaceOnUse">
<stop stop-color="#AEC7FF"/>
<stop offset="1" stop-color="#566B8D"/>
</linearGradient>
<linearGradient id="paint48_linear_0_1341" x1="88.5" y1="3.68302" x2="93.6361" y2="3.68302" gradientUnits="userSpaceOnUse">
<stop stop-color="#56678D"/>
<stop offset="1" stop-color="#96AFF1"/>
</linearGradient>
<linearGradient id="paint49_linear_0_1341" x1="82.1771" y1="9.31824" x2="88.5" y2="9.31824" gradientUnits="userSpaceOnUse">
<stop stop-color="#AEC7FF"/>
<stop offset="1" stop-color="#566B8D"/>
</linearGradient>
<linearGradient id="paint50_linear_0_1341" x1="83.364" y1="8.75471" x2="88.5" y2="8.75471" gradientUnits="userSpaceOnUse">
<stop stop-color="#435C83"/>
<stop offset="1" stop-color="#92B4FA"/>
</linearGradient>
<linearGradient id="paint51_linear_0_1341" x1="88.5" y1="9.31824" x2="94.8229" y2="9.31824" gradientUnits="userSpaceOnUse">
<stop stop-color="#5D6E9B"/>
<stop offset="1" stop-color="#465B84"/>
</linearGradient>
<linearGradient id="paint52_linear_0_1341" x1="88.5" y1="8.75471" x2="93.6361" y2="8.75471" gradientUnits="userSpaceOnUse">
<stop stop-color="#AFC9F8"/>
<stop offset="1" stop-color="#BBECFF"/>
</linearGradient>
<linearGradient id="paint53_linear_0_1341" x1="88.5" y1="8.73459" x2="88.5" y2="3.70315" gradientUnits="userSpaceOnUse">
<stop stop-color="#0C71E9"/>
<stop offset="1" stop-color="#14CCFF"/>
</linearGradient>
<linearGradient id="paint54_linear_0_1341" x1="87.2314" y1="4.97107" x2="86.5271" y2="4.25499" gradientUnits="userSpaceOnUse">
<stop stop-color="#14CEFF"/>
<stop offset="1" stop-color="#1494FF"/>
</linearGradient>
<linearGradient id="paint55_linear_0_1341" x1="88.5" y1="4.26667" x2="92.4492" y2="4.26667" gradientUnits="userSpaceOnUse">
<stop stop-color="#14A0FF"/>
<stop offset="1" stop-color="#0042BA"/>
</linearGradient>
<linearGradient id="paint56_linear_0_1341" x1="84.5508" y1="8.15095" x2="88.5" y2="8.15095" gradientUnits="userSpaceOnUse">
<stop stop-color="#14A0FF"/>
<stop offset="1" stop-color="#0042BA"/>
</linearGradient>
<linearGradient id="paint57_linear_0_1341" x1="90.4849" y1="8.15095" x2="89.7802" y2="7.45499" gradientUnits="userSpaceOnUse">
<stop stop-color="#14A8FF"/>
<stop offset="1" stop-color="#0042BA"/>
</linearGradient>
<linearGradient id="paint58_linear_0_1341" x1="82.1771" y1="38.6616" x2="2.04626" y2="38.6616" gradientUnits="userSpaceOnUse">
<stop stop-color="#BBECFF"/>
<stop offset="1" stop-color="#BBEFFF"/>
</linearGradient>
<linearGradient id="paint59_linear_0_1341" x1="7.35039e-05" y1="39.2453" x2="2.04631" y2="39.2453" gradientUnits="userSpaceOnUse">
<stop stop-color="#5D6E9B"/>
<stop offset="1" stop-color="#465B84"/>
</linearGradient>
<linearGradient id="paint60_linear_0_1341" x1="-3.97364e-06" y1="38.6616" x2="2.04624" y2="38.6616" gradientUnits="userSpaceOnUse">
<stop stop-color="#AEC7FF"/>
<stop offset="1" stop-color="#566B8D"/>
</linearGradient>
<linearGradient id="paint61_linear_0_1341" x1="5.83223e-05" y1="39.2453" x2="2.0463" y2="39.2453" gradientUnits="userSpaceOnUse">
<stop stop-color="#56678D"/>
<stop offset="1" stop-color="#96AFF1"/>
</linearGradient>
<linearGradient id="paint62_linear_0_1341" x1="82.1771" y1="44.8805" x2="88.5" y2="44.8805" gradientUnits="userSpaceOnUse">
<stop stop-color="#AEC7FF"/>
<stop offset="1" stop-color="#566B8D"/>
</linearGradient>
<linearGradient id="paint63_linear_0_1341" x1="83.364" y1="44.2969" x2="88.5" y2="44.2969" gradientUnits="userSpaceOnUse">
<stop stop-color="#435C83"/>
<stop offset="1" stop-color="#92B4FA"/>
</linearGradient>
<linearGradient id="paint64_linear_0_1341" x1="88.5" y1="44.8805" x2="94.8229" y2="44.8805" gradientUnits="userSpaceOnUse">
<stop stop-color="#5D6E9B"/>
<stop offset="1" stop-color="#465B84"/>
</linearGradient>
<linearGradient id="paint65_linear_0_1341" x1="88.5" y1="44.2969" x2="93.6361" y2="44.2969" gradientUnits="userSpaceOnUse">
<stop stop-color="#AFC9F8"/>
<stop offset="1" stop-color="#BBECFF"/>
</linearGradient>
<linearGradient id="paint66_linear_0_1341" x1="8.17599e-06" y1="44.2767" x2="1.98849" y2="39.2426" gradientUnits="userSpaceOnUse">
<stop stop-color="#0C71E9"/>
<stop offset="1" stop-color="#14CCFF"/>
</linearGradient>
<linearGradient id="paint67_linear_0_1341" x1="2.24743e-05" y1="40.5132" x2="2.03914" y2="39.8083" gradientUnits="userSpaceOnUse">
<stop stop-color="#14CEFF"/>
<stop offset="1" stop-color="#1494FF"/>
</linearGradient>
<linearGradient id="paint68_linear_0_1341" x1="-1.30327e-05" y1="39.8289" x2="2.04623" y2="39.8289" gradientUnits="userSpaceOnUse">
<stop stop-color="#14A0FF"/>
<stop offset="1" stop-color="#0042BA"/>
</linearGradient>
<linearGradient id="paint69_linear_0_1341" x1="84.5508" y1="43.7132" x2="88.5" y2="43.7132" gradientUnits="userSpaceOnUse">
<stop stop-color="#14A0FF"/>
<stop offset="1" stop-color="#0042BA"/>
</linearGradient>
<linearGradient id="paint70_linear_0_1341" x1="90.4849" y1="43.7132" x2="89.7802" y2="43.0172" gradientUnits="userSpaceOnUse">
<stop stop-color="#14A8FF"/>
<stop offset="1" stop-color="#0042BA"/>
</linearGradient>
<clipPath id="clip0_0_1341">
<rect width="177" height="48" fill="white"/>
</clipPath>
</defs>
</svg>
