<svg width="60" height="60" viewBox="0 0 60 60" fill="none" xmlns="http://www.w3.org/2000/svg">
<path d="M30 60C46.5685 60 60 46.5685 60 30C60 13.4315 46.5685 0 30 0C13.4315 0 0 13.4315 0 30C0 46.5685 13.4315 60 30 60Z" fill="#FAFAFA" fill-opacity="0.980392"/>
<path d="M36.25 41.3H23.75C19.7875 41.3 16.5625 38.075 16.5625 34.1125V22.1375C16.5625 20.5125 17.3125 19.95 17.7625 19.7625C18.2125 19.575 19.1375 19.4375 20.2875 20.5875L23.525 23.825C23.65 23.95 23.85 23.95 23.9625 23.825L28.45 19.3375C29.275 18.5125 30.725 18.5125 31.5375 19.3375L36.025 23.825C36.15 23.95 36.35 23.95 36.4625 23.825L39.7 20.5875C40.85 19.4375 41.775 19.5875 42.225 19.7625C42.675 19.95 43.425 20.5 43.425 22.1375V34.125C43.4375 38.4125 40.55 41.3 36.25 41.3ZM18.5125 21.55C18.475 21.65 18.4375 21.8375 18.4375 22.1375V34.125C18.4375 37.05 20.825 39.4375 23.75 39.4375H36.25C39.475 39.4375 41.5625 37.35 41.5625 34.125V22.1375C41.5625 21.8375 41.525 21.6625 41.4875 21.5625C41.3875 21.6125 41.2375 21.7125 41.025 21.925L37.7875 25.1625C36.9625 25.9875 35.5125 25.9875 34.7 25.1625L30.2125 20.675C30.0875 20.55 29.8875 20.55 29.775 20.675L25.3 25.15C24.475 25.975 23.025 25.975 22.2125 25.15L18.975 21.9125C18.7625 21.7 18.6 21.6 18.5125 21.55Z" fill="#71839B"/>
</svg>
