<svg width="374" height="112" viewBox="0 0 374 112" fill="none" xmlns="http://www.w3.org/2000/svg">
<path fill-rule="evenodd" clip-rule="evenodd" d="M254.476 106.387V91.3617H325.559C331.263 91.3617 336.535 90.1096 341.289 86.785C345.912 83.5467 349.499 78.8405 352.48 74.0479C355.937 68.5213 358.876 62.5629 361.814 56.6909H374V56.8204C371.58 68.3486 365.833 84.0217 360.691 94.4704C359.135 97.7518 357.623 100.645 356.24 102.803C351.054 104.271 344.789 105.178 340.64 105.48C338.307 100.299 332.992 99.1767 325.214 99.1767H289.175C287.273 99.1767 285.718 100.17 284.854 101.854L254.476 106.344V106.387Z" fill="url(#paint0_linear_371_14033)"/>
<path fill-rule="evenodd" clip-rule="evenodd" d="M119.524 106.258V91.2322H48.4407C42.7367 91.2322 37.4648 89.98 32.7115 86.6554C28.0878 83.4172 24.5012 78.711 21.5196 73.9184C18.0626 68.3918 15.1242 62.5198 12.1858 56.6909H0C2.41987 68.2191 8.12386 83.8922 13.2661 94.3409C14.8217 97.6223 16.3341 100.515 17.7169 102.674C22.9024 104.142 29.1681 105.049 33.3165 105.351C35.6499 100.17 40.965 99.0471 48.7431 99.0471H84.782C86.6833 99.0471 88.2389 100.04 89.1032 101.724L119.481 106.214L119.524 106.258Z" fill="url(#paint1_linear_371_14033)"/>
<path fill-rule="evenodd" clip-rule="evenodd" d="M364.58 58.0725C361.598 64.0309 358.616 70.0324 355.073 75.6886C351.875 80.8266 348.029 85.8351 343.017 89.3324C337.745 93.0024 331.868 94.4704 325.516 94.4704H48.4406C42.0884 94.4704 36.2116 93.0024 30.9397 89.3324C25.9271 85.8351 22.0813 80.8266 18.8836 75.6886C15.3402 70.0324 12.4018 64.0309 9.42015 58.0725L8.72876 56.6909L9.42015 55.3092C12.4018 49.3509 15.3834 43.3493 18.8836 37.6932C22.0813 32.5552 25.9271 27.5467 30.9397 24.0494C36.2116 20.3794 42.0884 18.9114 48.4406 18.9114H325.559C331.911 18.9114 337.788 20.3794 343.06 24.0494C348.073 27.5467 351.919 32.5552 355.116 37.6932C358.66 43.3493 361.598 49.3509 364.623 55.3092L365.314 56.6909L364.623 58.0725H364.58ZM12.1857 56.6477C15.1241 62.5197 18.0626 68.4781 21.5195 74.0047C24.5011 78.7973 28.0877 83.5467 32.7114 86.7418C37.4648 90.0663 42.7366 91.3185 48.4406 91.3185H325.559C331.263 91.3185 336.535 90.0663 341.288 86.7418C345.912 83.5035 349.499 78.7973 352.48 74.0047C355.937 68.4781 358.876 62.5197 361.814 56.6477C358.876 50.7757 355.937 44.8173 352.48 39.2907C349.499 34.4981 345.912 29.7487 341.288 26.5536C336.535 23.229 331.263 21.9769 325.559 21.9769H48.4406C42.7366 21.9769 37.4648 23.229 32.7114 26.5536C28.0877 29.7919 24.5011 34.4981 21.5195 39.2907C18.0626 44.8173 15.1241 50.7757 12.1857 56.6477Z" fill="#C0C0C0"/>
<path fill-rule="evenodd" clip-rule="evenodd" d="M18.8836 37.6499C22.0813 32.5119 25.9272 27.5034 30.9398 24.0061C36.2117 20.3361 42.0885 18.8681 48.4407 18.8681H119.524V8.33301L89.1464 12.0462L88.4118 13.1688C87.3747 14.8527 85.6462 15.7594 83.7017 15.7594H47.9653C40.1872 15.7594 34.8721 14.68 32.5386 9.4556C28.3903 9.75783 22.1246 10.6645 16.9391 12.1325C11.2351 21.2428 3.02484 42.1403 0 56.5612V56.6908H8.68561L9.37701 55.3091C12.3586 49.3507 15.3403 43.3492 18.8404 37.6931L18.8836 37.6499Z" fill="url(#paint2_linear_371_14033)"/>
<path fill-rule="evenodd" clip-rule="evenodd" d="M119.524 8.33308V18.8682H186.978V0L153.446 6.08789L150.594 10.5783C148.476 13.9029 145.106 15.7594 141.13 15.7594H135.426C133.439 15.7594 131.753 14.8096 130.716 13.1689L130.025 12.0463L119.524 8.33308Z" fill="url(#paint3_linear_371_14033)"/>
<path fill-rule="evenodd" clip-rule="evenodd" d="M186.978 0V18.9113H254.432V8.33308L243.932 12.0463L243.197 13.1689C242.16 14.8527 240.432 15.7594 238.487 15.7594H232.783C228.851 15.7594 225.437 13.9029 223.32 10.5783L220.468 6.08789L186.935 0L186.978 0Z" fill="url(#paint4_linear_371_14033)"/>
<path fill-rule="evenodd" clip-rule="evenodd" d="M254.476 8.33301V18.8681H325.559C331.911 18.8681 337.788 20.3361 343.06 24.0061C348.073 27.5034 351.919 32.5119 355.116 37.6499C358.66 43.306 361.598 49.3076 364.623 55.2659L365.314 56.6476H374.043V56.518C371.018 42.0971 362.808 21.1996 357.104 12.1325C351.919 10.6645 345.653 9.75783 341.505 9.4556C339.171 14.6368 333.856 15.7594 326.078 15.7594H290.342C288.354 15.7594 286.669 14.8095 285.631 13.1688L284.897 12.0462L254.519 8.33301H254.476Z" fill="url(#paint5_linear_371_14033)"/>
<path style="mix-blend-mode:screen" fill-rule="evenodd" clip-rule="evenodd" d="M95.7578 18.9114C99.2148 18.566 114.08 17.357 115.895 16.8821C118.487 16.1913 118.531 13.1257 119.524 9.06714V18.9114H95.7578Z" fill="url(#paint6_linear_371_14033)"/>
<path style="mix-blend-mode:screen" fill-rule="evenodd" clip-rule="evenodd" d="M230.709 18.9114C234.166 18.566 249.031 17.357 250.846 16.8821C253.439 16.1913 253.482 13.1257 254.476 9.06714V18.9114H230.709Z" fill="url(#paint7_linear_371_14033)"/>
<path fill-rule="evenodd" clip-rule="evenodd" d="M119.524 94.4272V106.344L130.025 101.854C130.889 100.17 132.445 99.1767 134.346 99.1767H150.767C153.619 99.1767 156.082 100.688 157.421 103.235L158.631 105.61L187.022 112V94.4272H119.568H119.524Z" fill="url(#paint8_linear_371_14033)"/>
<path fill-rule="evenodd" clip-rule="evenodd" d="M186.979 94.4272V112L215.369 105.61L216.579 103.235C217.875 100.688 220.338 99.1767 223.233 99.1767H239.654C241.555 99.1767 243.111 100.17 243.975 101.854L254.476 106.344V94.4272H187.022H186.979Z" fill="url(#paint9_linear_371_14033)"/>
<path style="mix-blend-mode:multiply" fill-rule="evenodd" clip-rule="evenodd" d="M361.814 56.6477C358.876 62.5197 355.937 68.4781 352.48 74.0047C349.499 78.7973 345.912 83.5467 341.288 86.7418C336.535 90.0664 331.263 91.3185 325.559 91.3185L48.4407 91.189C42.7367 91.189 37.4648 89.9368 32.7115 86.6122C28.0878 83.374 24.5012 78.6678 21.5196 73.8752C18.0626 68.3486 15.1242 62.4765 12.1858 56.6477H0C2.41987 68.1758 8.12386 83.8489 13.2661 94.2977C14.8217 97.5791 16.3341 100.472 17.7169 102.631C22.9024 104.099 29.1681 105.005 33.3165 105.308C35.6499 100.126 40.965 99.0039 48.7431 99.0039H84.782C86.6833 99.0039 88.2389 99.997 89.1032 101.681L119.481 106.171V106.301L130.025 101.81C130.889 100.127 132.445 99.1334 134.346 99.1334H150.767C153.619 99.1334 156.082 100.645 157.421 103.192L158.631 105.567L187.022 111.957L215.412 105.567L216.622 103.192C217.918 100.645 220.381 99.1334 223.276 99.1334H239.697C241.598 99.1334 243.154 100.127 244.018 101.81L254.519 106.301L284.897 101.81C285.761 100.127 287.317 99.1334 289.218 99.1334H325.257C333.035 99.1334 338.35 100.213 340.684 105.437C344.832 105.135 351.098 104.228 356.283 102.76C357.666 100.558 359.178 97.7086 360.734 94.4272C365.876 83.9785 371.58 68.3054 374 56.7772V56.6477H361.857H361.814Z" fill="url(#paint10_linear_371_14033)"/>
<path style="mix-blend-mode:screen" opacity="0.5" fill-rule="evenodd" clip-rule="evenodd" d="M87.7205 94.4272C92.3441 94.9022 113.302 96.327 115.722 96.9747C117.926 97.5791 118.747 98.8744 119.524 103.883V94.4272H87.6772H87.7205Z" fill="url(#paint11_linear_371_14033)"/>
<path style="mix-blend-mode:screen" opacity="0.5" fill-rule="evenodd" clip-rule="evenodd" d="M141.39 94.4272C148.001 95.1181 178.077 97.1474 181.534 98.0972C184.688 98.9176 185.855 100.817 187.022 107.985V94.4272H141.433H141.39Z" fill="url(#paint12_linear_371_14033)"/>
<path style="mix-blend-mode:screen" opacity="0.5" fill-rule="evenodd" clip-rule="evenodd" d="M222.628 94.4272C227.252 94.9022 248.21 96.327 250.63 96.9747C252.833 97.5791 253.654 98.8744 254.432 103.883V94.4272H222.585H222.628Z" fill="url(#paint13_linear_371_14033)"/>
<path style="mix-blend-mode:screen" fill-rule="evenodd" clip-rule="evenodd" d="M0 56.6476H12.1858C15.1242 50.7756 18.0626 44.8173 21.5196 39.2907C24.5012 34.4981 28.0878 29.7487 32.7115 26.5536C37.4648 23.229 42.7367 21.9769 48.4407 21.9769H325.559C331.263 21.9769 336.535 23.229 341.288 26.5536C345.912 29.7918 349.499 34.4981 352.48 39.2907C355.937 44.8173 358.876 50.7756 361.814 56.6476H374V56.5181C370.975 42.0971 362.765 21.1997 357.061 12.1326C351.875 10.6646 345.61 9.7579 341.461 9.45567C339.128 14.6369 333.813 15.7594 326.035 15.7594H290.298C288.311 15.7594 286.625 14.8096 285.588 13.1689L284.854 12.0463L254.476 8.33308L243.975 12.0463L243.24 13.1689C242.203 14.8527 240.475 15.7594 238.53 15.7594H232.826C228.894 15.7594 225.48 13.9029 223.363 10.5783L220.511 6.08789L186.978 0L153.446 6.08789L150.594 10.5783C148.476 13.9029 145.106 15.7594 141.13 15.7594H135.426C133.439 15.7594 131.753 14.8096 130.716 13.1689L130.025 12.0463L119.524 8.33308L89.1464 12.0463L88.4118 13.1689C87.3747 14.8527 85.6462 15.7594 83.7017 15.7594H47.9653C40.1872 15.7594 34.8721 14.68 32.5386 9.45567C28.3903 9.7579 22.1246 10.6646 16.9391 12.1326C11.2351 21.2429 3.02484 42.1403 0 56.5613V56.6908V56.6476Z" fill="url(#paint14_linear_371_14033)"/>
<path fill-rule="evenodd" clip-rule="evenodd" d="M352.48 39.2907C355.937 44.8173 358.876 50.7756 361.814 56.6477H365.271L364.58 55.266C361.598 49.3076 358.616 43.3061 355.073 37.65C351.875 32.512 348.029 27.5035 343.017 24.0062C337.745 20.3362 331.868 18.8682 325.516 18.8682H48.4406C42.0884 18.8682 36.2116 20.3362 30.9397 24.0062C25.9271 27.5035 22.0813 32.512 18.8836 37.65C15.3402 43.3061 12.4018 49.3076 9.42015 55.266L8.72876 56.6477H12.1857C15.1241 50.7756 18.0626 44.8173 21.5195 39.2907C24.5011 34.4981 28.0877 29.7487 32.7114 26.5536C37.4648 23.229 42.7366 21.9769 48.4406 21.9769H325.559C331.263 21.9769 336.535 23.229 341.288 26.5536C345.912 29.7918 349.499 34.4981 352.48 39.2907Z" fill="url(#paint15_linear_371_14033)"/>
<path fill-rule="evenodd" clip-rule="evenodd" d="M361.814 56.6477C358.876 62.5197 355.937 68.4781 352.48 74.0047C349.499 78.7973 345.912 83.5467 341.288 86.7418C336.535 90.0664 331.263 91.3185 325.559 91.3185H48.4406C42.7366 91.3185 37.4648 90.0664 32.7114 86.7418C28.0877 83.5035 24.5011 78.7973 21.5195 74.0047C18.0626 68.4781 15.1241 62.5197 12.1857 56.6477H8.72876L9.42015 58.0294C12.4018 63.9877 15.3834 69.9893 18.8836 75.6454C22.0813 80.7834 25.9271 85.7919 30.9397 89.2892C36.2116 92.9592 42.0884 94.4272 48.4406 94.4272H325.559C331.911 94.4272 337.788 92.9592 343.06 89.2892C348.073 85.7919 351.919 80.7834 355.116 75.6454C358.66 69.9893 361.598 63.9877 364.623 58.0294L365.314 56.6477H361.857H361.814Z" fill="url(#paint16_linear_371_14033)"/>
<path style="mix-blend-mode:screen" fill-rule="evenodd" clip-rule="evenodd" d="M141.39 18.9114C148.001 18.2205 176.521 15.9754 179.978 15.0687C184.904 13.7734 185.077 7.85817 186.978 0.0432129V18.9114H141.39Z" fill="url(#paint17_linear_371_14033)"/>
<defs>
<linearGradient id="paint0_linear_371_14033" x1="254.476" y1="81.5174" x2="374" y2="81.5174" gradientUnits="userSpaceOnUse">
<stop stop-color="#945200"/>
<stop offset="1" stop-color="#E39919"/>
</linearGradient>
<linearGradient id="paint1_linear_371_14033" x1="0" y1="81.4743" x2="119.524" y2="81.4743" gradientUnits="userSpaceOnUse">
<stop stop-color="#945200"/>
<stop offset="0.7" stop-color="#E39919"/>
<stop offset="1" stop-color="#EBAB21"/>
</linearGradient>
<linearGradient id="paint2_linear_371_14033" x1="0" y1="32.5119" x2="119.524" y2="32.5119" gradientUnits="userSpaceOnUse">
<stop stop-color="#BA7621"/>
<stop offset="1" stop-color="#FFD24F"/>
</linearGradient>
<linearGradient id="paint3_linear_371_14033" x1="119.524" y1="9.45567" x2="186.978" y2="9.45567" gradientUnits="userSpaceOnUse">
<stop stop-color="#BA7014"/>
<stop offset="0.72" stop-color="#FFD24F"/>
<stop offset="1" stop-color="#FFE48A"/>
</linearGradient>
<linearGradient id="paint4_linear_371_14033" x1="186.978" y1="0" x2="254.475" y2="0" gradientUnits="userSpaceOnUse">
<stop stop-color="#BA7014"/>
<stop offset="0.72" stop-color="#FFD24F"/>
<stop offset="1" stop-color="#FFE48A"/>
</linearGradient>
<linearGradient id="paint5_linear_371_14033" x1="254.476" y1="32.5119" x2="374" y2="32.5119" gradientUnits="userSpaceOnUse">
<stop stop-color="#BA7014"/>
<stop offset="1" stop-color="#FFD24F"/>
</linearGradient>
<linearGradient id="paint6_linear_371_14033" x1="95.7578" y1="13.9461" x2="119.524" y2="13.9461" gradientUnits="userSpaceOnUse">
<stop stop-color="#473626"/>
<stop offset="1" stop-color="#E8E7B3"/>
</linearGradient>
<linearGradient id="paint7_linear_371_14033" x1="230.709" y1="6.03891e-05" x2="254.476" y2="6.03891e-05" gradientUnits="userSpaceOnUse">
<stop stop-color="#473626"/>
<stop offset="1" stop-color="#E8E7B3"/>
</linearGradient>
<linearGradient id="paint8_linear_371_14033" x1="119.524" y1="103.235" x2="186.978" y2="103.235" gradientUnits="userSpaceOnUse">
<stop stop-color="#945200"/>
<stop offset="0.7" stop-color="#E39919"/>
<stop offset="1" stop-color="#EBAB21"/>
</linearGradient>
<linearGradient id="paint9_linear_371_14033" x1="186.979" y1="103.235" x2="254.476" y2="103.235" gradientUnits="userSpaceOnUse">
<stop stop-color="#945200"/>
<stop offset="0.7" stop-color="#E39919"/>
<stop offset="1" stop-color="#EBAB21"/>
</linearGradient>
<linearGradient id="paint10_linear_371_14033" x1="186.978" y1="112" x2="186.978" y2="56.6477" gradientUnits="userSpaceOnUse">
<stop stop-color="#B58D70"/>
<stop offset="0.09" stop-color="#BF9D85"/>
<stop offset="0.3" stop-color="#D6C0B0"/>
<stop offset="0.49" stop-color="#E8DBD2"/>
<stop offset="0.68" stop-color="#F4EFEB"/>
<stop offset="0.86" stop-color="#FCFAF9"/>
<stop offset="1" stop-color="white"/>
</linearGradient>
<linearGradient id="paint11_linear_371_14033" x1="87.7205" y1="99.1767" x2="4.32128" y2="99.1767" gradientUnits="userSpaceOnUse">
<stop stop-color="#473626"/>
<stop offset="1" stop-color="#E8E7B3"/>
</linearGradient>
<linearGradient id="paint12_linear_371_14033" x1="141.39" y1="101.206" x2="186.978" y2="101.206" gradientUnits="userSpaceOnUse">
<stop stop-color="#473626"/>
<stop offset="1" stop-color="#E8E7B3"/>
</linearGradient>
<linearGradient id="paint13_linear_371_14033" x1="222.628" y1="99.1767" x2="254.475" y2="99.1767" gradientUnits="userSpaceOnUse">
<stop stop-color="#473626"/>
<stop offset="1" stop-color="#E8E7B3"/>
</linearGradient>
<linearGradient id="paint14_linear_371_14033" x1="186.978" y1="56.6476" x2="186.978" y2="0" gradientUnits="userSpaceOnUse">
<stop/>
<stop offset="0.11" stop-color="#040302"/>
<stop offset="0.23" stop-color="#120E09"/>
<stop offset="0.36" stop-color="#281F14"/>
<stop offset="0.5" stop-color="#483825"/>
<stop offset="0.64" stop-color="#715839"/>
<stop offset="0.78" stop-color="#A37F53"/>
<stop offset="0.92" stop-color="#DDAC70"/>
<stop offset="1" stop-color="#FFC782"/>
</linearGradient>
<linearGradient id="paint15_linear_371_14033" x1="186.978" y1="56.6477" x2="186.978" y2="18.9113" gradientUnits="userSpaceOnUse">
<stop stop-color="#EDA82B"/>
<stop offset="1" stop-color="#8A510A"/>
</linearGradient>
<linearGradient id="paint16_linear_371_14033" x1="186.978" y1="94.4272" x2="186.978" y2="56.6477" gradientUnits="userSpaceOnUse">
<stop stop-color="#FFD99E"/>
<stop offset="1" stop-color="#FFD147"/>
</linearGradient>
<linearGradient id="paint17_linear_371_14033" x1="141.39" y1="9.4557" x2="186.978" y2="9.4557" gradientUnits="userSpaceOnUse">
<stop stop-color="#473626"/>
<stop offset="1" stop-color="#E8E7B3"/>
</linearGradient>
</defs>
</svg>
