<svg width="60" height="60" viewBox="0 0 60 60" fill="none" xmlns="http://www.w3.org/2000/svg">
<path d="M30 60C46.5685 60 60 46.5685 60 30C60 13.4315 46.5685 0 30 0C13.4315 0 0 13.4315 0 30C0 46.5685 13.4315 60 30 60Z" fill="#FAFAFA" fill-opacity="0.980392"/>
<path d="M35 43.4375H25C20.4375 43.4375 17.8125 40.8125 17.8125 36.25V23.75C17.8125 19.1875 20.4375 16.5625 25 16.5625H35C39.5625 16.5625 42.1875 19.1875 42.1875 23.75V36.25C42.1875 40.8125 39.5625 43.4375 35 43.4375ZM25 18.4375C21.425 18.4375 19.6875 20.175 19.6875 23.75V36.25C19.6875 39.825 21.425 41.5625 25 41.5625H35C38.575 41.5625 40.3125 39.825 40.3125 36.25V23.75C40.3125 20.175 38.575 18.4375 35 18.4375H25Z" fill="#71839B"/>
<path d="M38.125 26.5625H35.625C33.725 26.5625 32.1875 25.025 32.1875 23.125V20.625C32.1875 20.1125 32.6125 19.6875 33.125 19.6875C33.6375 19.6875 34.0625 20.1125 34.0625 20.625V23.125C34.0625 23.9875 34.7625 24.6875 35.625 24.6875H38.125C38.6375 24.6875 39.0625 25.1125 39.0625 25.625C39.0625 26.1375 38.6375 26.5625 38.125 26.5625Z" fill="#71839B"/>
<path d="M30 32.1875H25C24.4875 32.1875 24.0625 31.7625 24.0625 31.25C24.0625 30.7375 24.4875 30.3125 25 30.3125H30C30.5125 30.3125 30.9375 30.7375 30.9375 31.25C30.9375 31.7625 30.5125 32.1875 30 32.1875Z" fill="#71839B"/>
<path d="M35 37.1875H25C24.4875 37.1875 24.0625 36.7625 24.0625 36.25C24.0625 35.7375 24.4875 35.3125 25 35.3125H35C35.5125 35.3125 35.9375 35.7375 35.9375 36.25C35.9375 36.7625 35.5125 37.1875 35 37.1875Z" fill="#71839B"/>
</svg>
