<svg width="60" height="60" viewBox="0 0 60 60" fill="none" xmlns="http://www.w3.org/2000/svg">
<path d="M30 60C46.5685 60 60 46.5685 60 30C60 13.4315 46.5685 0 30 0C13.4315 0 0 13.4315 0 30C0 46.5685 13.4315 60 30 60Z" fill="#FAFAFA" fill-opacity="0.980392"/>
<path d="M29.9965 32.3125C29.834 32.3125 29.6715 32.275 29.534 32.1875C29.084 31.925 28.934 31.35 29.184 30.9125L30.2465 29.0625H29.1965C28.5715 29.0625 28.059 28.7875 27.784 28.325C27.509 27.85 27.534 27.275 27.8465 26.725L29.184 24.4C29.4465 23.95 30.0215 23.8 30.459 24.05C30.909 24.3125 31.059 24.8875 30.809 25.325L29.7465 27.1875H30.7965C31.4215 27.1875 31.934 27.4625 32.209 27.925C32.484 28.4 32.459 28.975 32.1465 29.525L30.809 31.85C30.634 32.15 30.3215 32.3125 29.9965 32.3125Z" fill="#71839B"/>
<path d="M33.4609 39.6875H26.5734C26.0234 39.6875 25.3234 39.625 24.8609 39.15C24.4109 38.6875 24.4234 38.1125 24.4359 37.725V36.6125C21.2859 34.5125 19.2109 30.8625 19.2109 27.3875C19.2109 24.1 20.6859 21.025 23.2484 18.9625C25.8109 16.9 29.1734 16.125 32.4609 16.85C35.5859 17.5375 38.2859 19.625 39.6859 22.4375C42.3984 27.9 39.7859 33.8125 35.6109 36.625V37.5625C35.6234 37.925 35.6359 38.5875 35.1234 39.1125C34.7359 39.4875 34.1859 39.6875 33.4609 39.6875ZM26.2984 37.8C26.3609 37.8 26.4484 37.8125 26.5609 37.8125H33.4609C33.5859 37.8125 33.6734 37.8 33.7234 37.7875C33.7234 37.75 33.7234 37.7 33.7234 37.6625V36.0875C33.7234 35.7625 33.8984 35.45 34.1734 35.2875C37.8734 33.05 40.3234 27.9375 37.9859 23.25C36.8359 20.9375 34.6109 19.225 32.0359 18.6625C29.3109 18.0625 26.5234 18.7 24.3984 20.4125C22.2734 22.125 21.0609 24.6625 21.0609 27.3875C21.0609 30.8625 23.4609 33.8625 25.8359 35.3C26.1234 35.475 26.2859 35.775 26.2859 36.1V37.7875C26.2984 37.7875 26.2984 37.7875 26.2984 37.8Z" fill="#71839B"/>
<path d="M34.3731 43.4375C34.2856 43.4375 34.1981 43.425 34.1106 43.4C31.4106 42.625 28.5731 42.625 25.8731 43.4C25.3731 43.5375 24.8606 43.25 24.7106 42.75C24.5606 42.25 24.8606 41.7375 25.3606 41.5875C28.3856 40.725 31.5981 40.725 34.6231 41.5875C35.1231 41.725 35.4106 42.25 35.2731 42.75C35.1606 43.175 34.7856 43.4375 34.3731 43.4375Z" fill="#71839B"/>
</svg>
