<svg width="60" height="60" viewBox="0 0 60 60" fill="none" xmlns="http://www.w3.org/2000/svg">
<path d="M30 60C46.5685 60 60 46.5685 60 30C60 13.4315 46.5685 0 30 0C13.4315 0 0 13.4315 0 30C0 46.5685 13.4315 60 30 60Z" fill="#FAFAFA" fill-opacity="0.980392"/>
<path d="M25.025 40.3125H23.725C21.2125 40.3125 20 39.15 20 36.75V23.25C20 20.85 21.225 19.6875 23.725 19.6875H25.025C27.525 19.6875 28.75 20.85 28.75 23.25V36.75C28.75 39.15 27.525 40.3125 25.025 40.3125ZM23.725 21.5625C22.1375 21.5625 21.875 21.9875 21.875 23.25V36.75C21.875 38.0125 22.1375 38.4375 23.725 38.4375H25.025C26.6125 38.4375 26.875 38.0125 26.875 36.75V23.25C26.875 21.9875 26.6125 21.5625 25.025 21.5625H23.725Z" fill="#71839B"/>
<path d="M35.65 37.8125H34.35C31.8375 37.8125 30.625 36.65 30.625 34.25V25.75C30.625 23.35 31.85 22.1875 34.35 22.1875H35.65C38.1625 22.1875 39.375 23.35 39.375 25.75V34.25C39.375 36.65 38.15 37.8125 35.65 37.8125ZM34.35 24.0625C32.7625 24.0625 32.5 24.4875 32.5 25.75V34.25C32.5 35.5125 32.7625 35.9375 34.35 35.9375H35.65C37.2375 35.9375 37.5 35.5125 37.5 34.25V25.75C37.5 24.4875 37.2375 24.0625 35.65 24.0625H34.35Z" fill="#71839B"/>
<path d="M20.5 30.9375H17.5C16.9875 30.9375 16.5625 30.5125 16.5625 30C16.5625 29.4875 16.975 29.0625 17.5 29.0625H20.5C21.0125 29.0625 21.4375 29.4875 21.4375 30C21.4375 30.5125 21.025 30.9375 20.5 30.9375Z" fill="#71839B"/>
<path d="M31.25 30.9375H28.75C28.2375 30.9375 27.8125 30.5125 27.8125 30C27.8125 29.4875 28.2375 29.0625 28.75 29.0625H31.25C31.7625 29.0625 32.1875 29.4875 32.1875 30C32.1875 30.5125 31.7625 30.9375 31.25 30.9375Z" fill="#71839B"/>
<path d="M42.5 30.9375H39.125C38.6125 30.9375 38.1875 30.5125 38.1875 30C38.1875 29.4875 38.6125 29.0625 39.125 29.0625H42.5C43.0125 29.0625 43.4375 29.4875 43.4375 30C43.4375 30.5125 43.025 30.9375 42.5 30.9375Z" fill="#71839B"/>
</svg>
