<svg width="60" height="60" viewBox="0 0 60 60" fill="none" xmlns="http://www.w3.org/2000/svg">
<path d="M30 60C46.5685 60 60 46.5685 60 30C60 13.4315 46.5685 0 30 0C13.4315 0 0 13.4315 0 30C0 46.5685 13.4315 60 30 60Z" fill="#FAFAFA" fill-opacity="0.980392"/>
<path d="M30 40.3124C28.5625 40.3124 27.175 40.0249 25.875 39.4499C25.4 39.2374 25.1875 38.6874 25.3875 38.2124C25.6 37.7374 26.15 37.5249 26.625 37.7249C27.6875 38.1874 28.825 38.4249 30 38.4249C34.65 38.4249 38.4375 34.6374 38.4375 29.9874C38.4375 28.8124 38.2 27.6749 37.7375 26.6124C37.525 26.1374 37.75 25.5874 38.225 25.3749C38.7 25.1749 39.25 25.3874 39.4625 25.8624C40.0375 27.1624 40.325 28.5499 40.325 29.9874C40.3125 35.6874 35.6875 40.3124 30 40.3124Z" fill="#71839B"/>
<path d="M23.225 37.425C22.975 37.425 22.7375 37.325 22.55 37.1375C20.7 35.2 19.6875 32.675 19.6875 30C19.6875 24.3125 24.3125 19.6875 30 19.6875C32.6875 19.6875 35.225 20.7125 37.1625 22.575C37.5375 22.9375 37.55 23.525 37.1875 23.9C36.825 24.275 36.2375 24.2875 35.8625 23.925C34.275 22.4 32.2 21.5625 30 21.5625C25.35 21.5625 21.5625 25.35 21.5625 30C21.5625 32.1875 22.4 34.2625 23.9125 35.8375C24.275 36.2125 24.2625 36.8 23.8875 37.1625C23.7 37.3375 23.4625 37.425 23.225 37.425Z" fill="#71839B"/>
<path d="M30 20.9375C29.4875 20.9375 29.0625 20.5125 29.0625 20V17.5C29.0625 16.9875 29.4875 16.5625 30 16.5625C30.5125 16.5625 30.9375 16.9875 30.9375 17.5V20C30.9375 20.5125 30.5125 20.9375 30 20.9375Z" fill="#71839B"/>
<path d="M20 30.9375H17.5C16.9875 30.9375 16.5625 30.5125 16.5625 30C16.5625 29.4875 16.9875 29.0625 17.5 29.0625H20C20.5125 29.0625 20.9375 29.4875 20.9375 30C20.9375 30.5125 20.5125 30.9375 20 30.9375Z" fill="#71839B"/>
<path d="M30 43.4375C29.4875 43.4375 29.0625 43.0125 29.0625 42.5V40C29.0625 39.4875 29.4875 39.0625 30 39.0625C30.5125 39.0625 30.9375 39.4875 30.9375 40V42.5C30.9375 43.0125 30.5125 43.4375 30 43.4375Z" fill="#71839B"/>
<path d="M42.5 30.9375H40C39.4875 30.9375 39.0625 30.5125 39.0625 30C39.0625 29.4875 39.4875 29.0625 40 29.0625H42.5C43.0125 29.0625 43.4375 29.4875 43.4375 30C43.4375 30.5125 43.0125 30.9375 42.5 30.9375Z" fill="#71839B"/>
<path d="M27.35 33.5875C27.1125 33.5875 26.875 33.5 26.6875 33.3125C25.8 32.425 25.3125 31.25 25.3125 30C25.3125 27.4125 27.4125 25.3125 30 25.3125C31.25 25.3125 32.425 25.8 33.3125 26.6875C33.675 27.05 33.675 27.65 33.3125 28.0125L28.0125 33.3125C27.825 33.5 27.5875 33.5875 27.35 33.5875ZM30 27.1875C28.45 27.1875 27.1875 28.45 27.1875 30C27.1875 30.425 27.2875 30.8375 27.4625 31.2125L31.2125 27.4625C30.8375 27.2875 30.425 27.1875 30 27.1875Z" fill="#71839B"/>
<path d="M17.4969 43.4375C17.2594 43.4375 17.0219 43.35 16.8344 43.1625C16.4719 42.8 16.4719 42.2 16.8344 41.8375L41.8344 16.8375C42.1969 16.475 42.7969 16.475 43.1594 16.8375C43.5219 17.2 43.5219 17.8 43.1594 18.1625L18.1594 43.1625C17.9719 43.35 17.7344 43.4375 17.4969 43.4375Z" fill="#71839B"/>
</svg>
