<svg width="60" height="60" viewBox="0 0 60 60" fill="none" xmlns="http://www.w3.org/2000/svg">
<path d="M30 60C46.5685 60 60 46.5685 60 30C60 13.4315 46.5685 0 30 0C13.4315 0 0 13.4315 0 30C0 46.5685 13.4315 60 30 60Z" fill="#FAFAFA" fill-opacity="0.980392"/>
<path d="M30 40.3125C24.3125 40.3125 19.6875 35.6875 19.6875 30C19.6875 24.3125 24.3125 19.6875 30 19.6875C35.6875 19.6875 40.3125 24.3125 40.3125 30C40.3125 35.6875 35.6875 40.3125 30 40.3125ZM30 21.5625C25.35 21.5625 21.5625 25.35 21.5625 30C21.5625 34.65 25.35 38.4375 30 38.4375C34.65 38.4375 38.4375 34.65 38.4375 30C38.4375 25.35 34.65 21.5625 30 21.5625Z" fill="#71839B"/>
<path d="M30 34.6875C27.4125 34.6875 25.3125 32.5875 25.3125 30C25.3125 27.4125 27.4125 25.3125 30 25.3125C32.5875 25.3125 34.6875 27.4125 34.6875 30C34.6875 32.5875 32.5875 34.6875 30 34.6875ZM30 27.1875C28.45 27.1875 27.1875 28.45 27.1875 30C27.1875 31.55 28.45 32.8125 30 32.8125C31.55 32.8125 32.8125 31.55 32.8125 30C32.8125 28.45 31.55 27.1875 30 27.1875Z" fill="#71839B"/>
<path d="M30 20.9375C29.4875 20.9375 29.0625 20.5125 29.0625 20V17.5C29.0625 16.9875 29.4875 16.5625 30 16.5625C30.5125 16.5625 30.9375 16.9875 30.9375 17.5V20C30.9375 20.5125 30.5125 20.9375 30 20.9375Z" fill="#71839B"/>
<path d="M20 30.9375H17.5C16.9875 30.9375 16.5625 30.5125 16.5625 30C16.5625 29.4875 16.9875 29.0625 17.5 29.0625H20C20.5125 29.0625 20.9375 29.4875 20.9375 30C20.9375 30.5125 20.5125 30.9375 20 30.9375Z" fill="#71839B"/>
<path d="M30 43.4375C29.4875 43.4375 29.0625 43.0125 29.0625 42.5V40C29.0625 39.4875 29.4875 39.0625 30 39.0625C30.5125 39.0625 30.9375 39.4875 30.9375 40V42.5C30.9375 43.0125 30.5125 43.4375 30 43.4375Z" fill="#71839B"/>
<path d="M42.5 30.9375H40C39.4875 30.9375 39.0625 30.5125 39.0625 30C39.0625 29.4875 39.4875 29.0625 40 29.0625H42.5C43.0125 29.0625 43.4375 29.4875 43.4375 30C43.4375 30.5125 43.0125 30.9375 42.5 30.9375Z" fill="#71839B"/>
</svg>
