<svg width="60" height="60" viewBox="0 0 60 60" fill="none" xmlns="http://www.w3.org/2000/svg">
<path d="M30 60C46.5685 60 60 46.5685 60 30C60 13.4315 46.5685 0 30 0C13.4315 0 0 13.4315 0 30C0 46.5685 13.4315 60 30 60Z" fill="#FAFAFA" fill-opacity="0.980392"/>
<path d="M37.9 40.75H22.1C20.18 40.75 19.25 39.77 19.25 37.77V33.73C19.25 31.72 20.18 30.75 22.1 30.75H37.9C39.82 30.75 40.75 31.73 40.75 33.73V37.77C40.75 39.77 39.82 40.75 37.9 40.75ZM22.1 32.25C21.09 32.25 20.75 32.46 20.75 33.73V37.77C20.75 39.04 21.09 39.25 22.1 39.25H37.9C38.91 39.25 39.25 39.04 39.25 37.77V33.73C39.25 32.46 38.91 32.25 37.9 32.25H22.1Z" fill="#71839B"/>
<path d="M37.9 29.25H22.1C20.18 29.25 19.25 28.27 19.25 26.27V22.23C19.25 20.22 20.18 19.25 22.1 19.25H37.9C39.82 19.25 40.75 20.23 40.75 22.23V26.27C40.75 28.27 39.82 29.25 37.9 29.25ZM22.1 20.75C21.09 20.75 20.75 20.96 20.75 22.23V26.27C20.75 27.54 21.09 27.75 22.1 27.75H37.9C38.91 27.75 39.25 27.54 39.25 26.27V22.23C39.25 20.96 38.91 20.75 37.9 20.75H22.1Z" fill="#71839B"/>
</svg>
