<svg width="55" height="55" viewBox="0 0 55 55" fill="none" xmlns="http://www.w3.org/2000/svg">
<circle cx="27.5" cy="27.5" r="27.5" fill="white"/>
<path d="M34 26.75C33.59 26.75 33.25 26.41 33.25 26V24C33.25 20.85 32.36 18.75 28 18.75C23.64 18.75 22.75 20.85 22.75 24V26C22.75 26.41 22.41 26.75 22 26.75C21.59 26.75 21.25 26.41 21.25 26V24C21.25 21.1 21.95 17.25 28 17.25C34.05 17.25 34.75 21.1 34.75 24V26C34.75 26.41 34.41 26.75 34 26.75Z" fill="#71839B"/>
<path d="M33 38.75H23C18.59 38.75 17.25 37.41 17.25 33V31C17.25 26.59 18.59 25.25 23 25.25H33C37.41 25.25 38.75 26.59 38.75 31V33C38.75 37.41 37.41 38.75 33 38.75ZM23 26.75C19.42 26.75 18.75 27.43 18.75 31V33C18.75 36.57 19.42 37.25 23 37.25H33C36.58 37.25 37.25 36.57 37.25 33V31C37.25 27.43 36.58 26.75 33 26.75H23Z" fill="#71839B"/>
<path d="M24 33C23.87 33 23.74 32.97 23.62 32.92C23.49 32.87 23.39 32.8 23.29 32.71C23.11 32.52 23 32.27 23 32C23 31.87 23.03 31.74 23.08 31.62C23.13 31.49 23.2 31.39 23.29 31.29C23.39 31.2 23.49 31.13 23.62 31.08C23.98 30.92 24.43 31.01 24.71 31.29C24.8 31.39 24.87 31.5 24.92 31.62C24.97 31.74 25 31.87 25 32C25 32.26 24.89 32.52 24.71 32.71C24.52 32.89 24.26 33 24 33Z" fill="#71839B"/>
<path d="M28 33C27.74 33 27.48 32.89 27.29 32.71C27.11 32.52 27 32.27 27 32C27 31.87 27.02 31.74 27.08 31.62C27.13 31.5 27.2 31.39 27.29 31.29C27.52 31.06 27.87 30.95 28.19 31.02C28.26 31.03 28.32 31.05 28.38 31.08C28.44 31.1 28.5 31.13 28.56 31.17C28.61 31.2 28.66 31.25 28.71 31.29C28.8 31.39 28.87 31.5 28.92 31.62C28.97 31.74 29 31.87 29 32C29 32.27 28.89 32.52 28.71 32.71C28.66 32.75 28.61 32.79 28.56 32.83C28.5 32.87 28.44 32.9 28.38 32.92C28.32 32.95 28.26 32.97 28.19 32.98C28.13 32.99 28.06 33 28 33Z" fill="#71839B"/>
<path d="M32 33C31.73 33 31.48 32.89 31.29 32.71C31.2 32.61 31.13 32.5 31.08 32.38C31.03 32.26 31 32.13 31 32C31 31.74 31.11 31.48 31.29 31.29C31.34 31.25 31.39 31.21 31.44 31.17C31.5 31.13 31.56 31.1 31.62 31.08C31.68 31.05 31.74 31.03 31.8 31.02C32.13 30.95 32.47 31.06 32.71 31.29C32.89 31.48 33 31.73 33 32C33 32.13 32.97 32.26 32.92 32.38C32.87 32.51 32.8 32.61 32.71 32.71C32.52 32.89 32.26 33 32 33Z" fill="#71839B"/>
</svg>
