<svg width="55" height="55" viewBox="0 0 55 55" fill="none" xmlns="http://www.w3.org/2000/svg">
<circle cx="27.5" cy="27.5" r="27.5" fill="white"/>
<path d="M27.9984 38.76C26.9084 38.76 25.8284 38.44 24.9784 37.81L20.6784 34.6C19.5384 33.75 18.6484 31.98 18.6484 30.56V23.12C18.6484 21.58 19.7784 19.94 21.2284 19.4L26.2184 17.53C27.2084 17.16 28.7684 17.16 29.7584 17.53L34.7584 19.4C36.2084 19.94 37.3384 21.58 37.3384 23.12V30.55C37.3384 31.97 36.4484 33.74 35.3084 34.59L31.0084 37.8C30.1684 38.44 29.0884 38.76 27.9984 38.76ZM26.7484 18.94L21.7584 20.81C20.8984 21.13 20.1484 22.21 20.1484 23.13V30.56C20.1484 31.51 20.8184 32.84 21.5684 33.4L25.8684 36.61C27.0184 37.47 28.9684 37.47 30.1184 36.61L34.4184 33.4C35.1784 32.83 35.8384 31.5 35.8384 30.56V23.12C35.8384 22.21 35.0884 21.13 34.2284 20.8L29.2384 18.93C28.5784 18.69 27.4184 18.69 26.7484 18.94Z" fill="#71839B"/>
<path d="M28 29.25C26.48 29.25 25.25 28.02 25.25 26.5C25.25 24.98 26.48 23.75 28 23.75C29.52 23.75 30.75 24.98 30.75 26.5C30.75 28.02 29.52 29.25 28 29.25ZM28 25.25C27.31 25.25 26.75 25.81 26.75 26.5C26.75 27.19 27.31 27.75 28 27.75C28.69 27.75 29.25 27.19 29.25 26.5C29.25 25.81 28.69 25.25 28 25.25Z" fill="#71839B"/>
<path d="M28 32.25C27.59 32.25 27.25 31.91 27.25 31.5V28.5C27.25 28.09 27.59 27.75 28 27.75C28.41 27.75 28.75 28.09 28.75 28.5V31.5C28.75 31.91 28.41 32.25 28 32.25Z" fill="#71839B"/>
</svg>
