<svg width="14" height="14" viewBox="0 0 14 14" fill="none" xmlns="http://www.w3.org/2000/svg">
<g clip-path="url(#clip0_801_28601)">
<path d="M10.9354 11.8611C10.9865 11.9183 11.0258 11.985 11.051 12.0574C11.0763 12.1298 11.087 12.2065 11.0827 12.2831C11.0783 12.3596 11.0588 12.4346 11.0255 12.5036C10.9921 12.5726 10.9454 12.6344 10.8881 12.6854L9.96297 13.5102C9.80446 13.6671 9.61648 13.7912 9.40985 13.8752C9.20321 13.9592 8.98201 14.0015 8.75897 13.9996C8.52764 14.0001 8.2985 13.9549 8.08468 13.8666C7.87086 13.7783 7.67658 13.6487 7.51297 13.4851L6.6123 12.6836C6.55508 12.6327 6.50845 12.571 6.47508 12.502C6.4417 12.4331 6.42224 12.3582 6.4178 12.2817C6.40883 12.1272 6.46159 11.9755 6.56447 11.86C6.66735 11.7444 6.81193 11.6744 6.9664 11.6655C7.04288 11.661 7.11949 11.6717 7.19185 11.6969C7.26421 11.722 7.33091 11.7612 7.38814 11.8121L8.16689 12.5086V8.1663C8.16689 8.01159 8.22834 7.86322 8.33774 7.75382C8.44714 7.64443 8.59551 7.58297 8.75022 7.58297C8.90493 7.58297 9.0533 7.64443 9.1627 7.75382C9.27209 7.86322 9.33355 8.01159 9.33355 8.1663V12.5092L10.1123 11.8139C10.2278 11.7111 10.3793 11.6583 10.5336 11.6672C10.688 11.6761 10.8325 11.7458 10.9354 11.8611ZM10.7079 4.29355C10.6077 4.26245 10.5168 4.20701 10.4433 4.13219C10.3698 4.05737 10.316 3.9655 10.2867 3.8648C9.97785 2.87319 9.34702 2.01294 8.4941 1.42029C7.64119 0.827637 6.61495 0.536444 5.57787 0.592821C4.5408 0.649197 3.55217 1.04992 2.76853 1.73154C1.98489 2.41316 1.45102 3.33671 1.25147 4.35597C1.04671 5.38672 1.21195 6.45667 1.71814 7.37763C1.12806 7.68228 0.648247 8.16412 0.346086 8.75547C0.0439254 9.34681 -0.0653994 10.018 0.0334684 10.6746C0.185515 11.4375 0.593943 12.1255 1.19093 12.6242C1.78791 13.1229 2.53753 13.4024 3.3153 13.4163H4.66689C4.82159 13.4163 4.96997 13.3548 5.07936 13.2454C5.18876 13.1361 5.25022 12.9877 5.25022 12.833C5.25022 12.6783 5.18876 12.5299 5.07936 12.4205C4.96997 12.3111 4.82159 12.2496 4.66689 12.2496H3.3153C2.81711 12.2401 2.33658 12.0634 1.95088 11.7479C1.56517 11.4325 1.29666 10.9965 1.18847 10.5101C1.12512 10.0922 1.19424 9.66495 1.38612 9.28831C1.57799 8.91168 1.88299 8.60458 2.2583 8.41013C2.52581 8.26229 2.72434 8.01504 2.81092 7.72191C2.89749 7.42878 2.86515 7.11335 2.72089 6.84388C2.49438 6.4119 2.36067 5.93734 2.32833 5.45064C2.296 4.96395 2.36574 4.47587 2.5331 4.01771C2.70046 3.55955 2.96173 3.14144 3.30016 2.79018C3.63859 2.43892 4.0467 2.16228 4.49832 1.978C4.94993 1.79372 5.43508 1.70587 5.92264 1.72008C6.4102 1.7343 6.88941 1.85027 7.32952 2.06055C7.76963 2.27083 8.16093 2.57078 8.47832 2.94116C8.79571 3.31154 9.03217 3.74417 9.17255 4.2113C9.25888 4.49288 9.41268 4.74911 9.62058 4.95772C9.82848 5.16633 10.0842 5.32101 10.3655 5.4083C11.1275 5.64017 11.787 6.1262 12.2341 6.78539C12.6812 7.44457 12.8888 8.23707 12.8225 9.0308C12.7785 9.64798 12.5531 10.2384 12.1744 10.7277C12.0801 10.8504 12.0384 11.0055 12.0585 11.1589C12.0785 11.3124 12.1587 11.4515 12.2814 11.5458C12.4041 11.6401 12.5592 11.6818 12.7127 11.6618C12.8661 11.6417 13.0053 11.5615 13.0996 11.4388C13.6135 10.7688 13.9215 9.96376 13.9862 9.1218C14.0743 8.06345 13.797 7.00688 13.2004 6.12827C12.6038 5.24965 11.7241 4.60209 10.7079 4.29355Z" fill="white"/>
</g>
<defs>
<clipPath id="clip0_801_28601">
<rect width="14" height="14" fill="white"/>
</clipPath>
</defs>
</svg>
