<svg width="16" height="16" viewBox="0 0 16 16" fill="none" xmlns="http://www.w3.org/2000/svg">
<path d="M12.6667 2.00003H8.31467C8.212 2.00003 8.108 1.97603 8.01667 1.93003L5.91267 0.878025C5.636 0.740025 5.32733 0.667359 5.01867 0.667359H3.33333C1.49533 0.666692 0 2.16203 0 4.00003V12C0 13.838 1.49533 15.3334 3.33333 15.3334H4C4.368 15.3334 4.66667 15.0354 4.66667 14.6667C4.66667 14.298 4.368 14 4 14H3.33333C2.23067 14 1.33333 13.1027 1.33333 12V6.00003H14.6667V12C14.6667 13.1027 13.7693 14 12.6667 14H12C11.6313 14 11.3333 14.298 11.3333 14.6667C11.3333 15.0354 11.6313 15.3334 12 15.3334H12.6667C14.5047 15.3334 16 13.838 16 12V5.33336C16 3.49536 14.5047 2.00003 12.6667 2.00003ZM1.33333 4.00003C1.33333 2.89736 2.23067 2.00003 3.33333 2.00003H5.01867C5.12133 2.00003 5.22533 2.02403 5.31667 2.07003L7.42067 3.12203C7.69733 3.26003 8.006 3.33269 8.31467 3.33269H12.6667C13.5347 3.33269 14.268 3.89203 14.544 4.66603H1.33333V4.00003ZM10.4713 12.7367C10.732 12.9974 10.732 13.4187 10.4713 13.6794L9.396 14.7547C9.01133 15.1394 8.506 15.3314 8 15.3314C7.494 15.3314 6.98933 15.1394 6.60467 14.7547L5.52867 13.6794C5.268 13.4187 5.268 12.9974 5.52867 12.7367C5.78933 12.476 6.21067 12.476 6.47133 12.7367L7.33333 13.5987V8.66669C7.33333 8.29803 7.632 8.00003 8 8.00003C8.368 8.00003 8.66667 8.29803 8.66667 8.66669V13.5987L9.52867 12.7367C9.78933 12.476 10.2107 12.476 10.4713 12.7367Z" fill="#FFA500"/>
</svg>
