<svg width="12" height="12" viewBox="0 0 12 12" fill="none" xmlns="http://www.w3.org/2000/svg">
<path fill-rule="evenodd" clip-rule="evenodd" d="M8.72727 4.90909C8.72727 7.01782 7.01782 8.72727 4.90909 8.72727C2.80036 8.72727 1.09091 7.01782 1.09091 4.90909C1.09091 2.80036 2.80036 1.09091 4.90909 1.09091C7.01782 1.09091 8.72727 2.80036 8.72727 4.90909ZM7.97328 8.74462C7.13347 9.41651 6.06819 9.81818 4.90909 9.81818C2.19788 9.81818 0 7.62031 0 4.90909C0 2.19788 2.19788 0 4.90909 0C7.62031 0 9.81818 2.19788 9.81818 4.90909C9.81818 6.06819 9.41651 7.13347 8.74462 7.97328L11.8403 11.0688C12.0532 11.2819 12.0532 11.6272 11.8403 11.8403C11.6272 12.0532 11.2819 12.0532 11.0688 11.8403L7.97328 8.74462Z" fill="#9B9A9A"/>
</svg>
