<svg width="111" height="94" viewBox="0 0 111 94" fill="none" xmlns="http://www.w3.org/2000/svg">
<g clip-path="url(#clip0_152_5912)">
<path fill-rule="evenodd" clip-rule="evenodd" d="M64.2624 93.4737C64.0799 93.4737 63.8973 93.4737 63.7147 93.2911C59.8808 90.7352 56.5947 88.3618 53.6736 86.1711C39.7986 76.4951 32.8611 71.5658 29.3924 65.3586C25.9236 59.3339 26.1062 52.2138 26.6539 38.1562C26.8364 32.1316 27.019 24.6464 27.019 15.153C27.019 14.7878 27.3841 14.4227 27.7493 14.2401L63.8973 0H64.6275L100.776 14.2401C101.141 14.4227 101.506 14.7878 101.506 15.153C101.506 24.6464 101.688 32.1316 101.871 38.1562C102.419 52.2138 102.601 59.3339 99.1325 65.3586C95.6637 71.5658 88.7262 76.4951 74.8512 86.1711C71.9302 88.3618 68.644 90.7352 64.8101 93.2911C64.6275 93.4737 64.445 93.4737 64.2624 93.4737Z" fill="#FFDA88"/>
<path fill-rule="evenodd" clip-rule="evenodd" d="M64.2626 86.051C64.0801 86.051 63.8975 85.8684 63.7149 85.8684C62.2544 84.9556 60.9764 84.0428 59.6985 83.1299C54.2215 79.2961 48.562 75.2796 43.2676 71.2632C39.7988 68.5247 36.1475 65.2385 34.3218 61.5872C32.4962 57.5707 32.4962 51.7286 32.6787 47.5296V47.347C32.6787 42.9655 32.8613 38.4013 33.0439 34.0197C33.0439 29.4556 33.2264 24.5263 33.2264 19.7796C33.2264 19.2319 33.5916 18.8668 33.9567 18.6842L63.8975 7H64.6278L94.5686 18.6842C94.9337 18.8668 95.2988 19.2319 95.2988 19.7796C95.2988 24.5263 95.4814 29.4556 95.4814 34.0197C95.6639 38.4013 95.8465 42.9655 95.8465 47.347V47.5296C96.0291 51.7286 96.0291 57.5707 94.2034 61.5872C92.3778 65.2385 88.7264 68.5247 85.2577 71.2632C79.9633 75.2796 74.3037 79.2961 68.8268 83.1299C67.5488 84.0428 66.2709 84.9556 64.9929 85.6859C64.8103 85.8684 64.4452 86.051 64.2626 86.051Z" fill="url(#paint0_linear_152_5912)"/>
<path fill-rule="evenodd" clip-rule="evenodd" d="M73.8544 38.3953H54.6607C54.1963 38.3953 53.8867 37.9309 53.8867 37.6213V34.3708C53.8867 28.6436 58.5304 24 64.2575 24C69.9847 24 74.6283 28.6436 74.6283 34.3708V37.6213C74.6283 37.9309 74.3187 38.3953 73.8544 38.3953ZM55.4346 36.8474H73.0804V34.3708C73.0804 29.5724 69.0559 25.5479 64.2575 25.5479C59.4591 25.5479 55.4346 29.5724 55.4346 34.3708V36.8474Z" fill="white"/>
<path fill-rule="evenodd" clip-rule="evenodd" d="M75.4047 57.4342H53.1153C52.1865 57.4342 51.2578 56.6603 51.2578 55.5768V38.7049C51.2578 37.6214 52.1865 36.8474 53.1153 36.8474H75.4047C76.3335 36.8474 77.2622 37.6214 77.2622 38.7049V55.5768C77.2622 56.6603 76.3335 57.4342 75.4047 57.4342Z" fill="white"/>
<path fill-rule="evenodd" clip-rule="evenodd" d="M64.2637 47.9922C62.5611 47.9922 61.168 46.5991 61.168 44.8964C61.168 43.1938 62.5611 41.8007 64.2637 41.8007C65.9664 41.8007 67.3595 43.1938 67.3595 44.8964C67.3595 46.5991 65.9664 47.9922 64.2637 47.9922Z" fill="url(#paint1_linear_152_5912)"/>
<path fill-rule="evenodd" clip-rule="evenodd" d="M64.2661 52.4809C63.8018 52.4809 63.4922 52.1714 63.4922 51.707V47.2182C63.4922 46.7538 63.8018 46.4442 64.2661 46.4442C64.7305 46.4442 65.0401 46.7538 65.0401 47.2182V51.707C65.0401 52.1714 64.7305 52.4809 64.2661 52.4809Z" fill="url(#paint2_linear_152_5912)"/>
</g>
<circle cx="20.9045" cy="68.4731" r="19.0842" fill="white"/>
<path d="M20.4649 88.4661C17.442 88.4641 14.4572 87.7919 11.7253 86.4978C8.99337 85.2038 6.58238 83.3201 4.66587 80.9824L3.95703 80.11L4.66587 79.2512C6.58399 76.9165 8.9957 75.036 11.7275 73.7449C14.4593 72.4537 17.4433 71.7841 20.4649 71.7841C23.4864 71.7841 26.4704 72.4537 29.2022 73.7449C31.934 75.036 34.3458 76.9165 36.2639 79.2512L36.9727 80.11L36.2639 80.9824C34.3474 83.3201 31.9364 85.2038 29.2045 86.4978C26.4726 87.7919 23.4878 88.4641 20.4649 88.4661ZM7.52851 80.1236C9.18643 81.8985 11.1915 83.3136 13.4192 84.2811C15.6469 85.2486 18.0498 85.7478 20.4785 85.7478C22.9073 85.7478 25.3101 85.2486 27.5378 84.2811C29.7655 83.3136 31.7706 81.8985 33.4285 80.1236C31.7706 78.3488 29.7655 76.9337 27.5378 75.9661C25.3101 74.9986 22.9073 74.4994 20.4785 74.4994C18.0498 74.4994 15.6469 74.9986 13.4192 75.9661C11.1915 76.9337 9.18643 78.3488 7.52851 80.1236Z" fill="url(#paint3_linear_152_5912)"/>
<path d="M20.461 88.4662C15.8164 88.4693 11.3091 86.891 7.68099 83.9911C4.05288 81.0912 1.52015 77.0425 0.499663 72.5114C-0.520823 67.9802 0.0317434 63.2367 2.06642 59.0614C4.10109 54.8862 7.49662 51.528 11.6941 49.5397C15.8917 47.5514 20.6411 47.0514 25.1606 48.1221C29.6802 49.1927 33.7006 51.7701 36.5601 55.4301C39.4196 59.0901 40.9479 63.6146 40.8933 68.2589C40.8388 72.9032 39.2047 77.3906 36.26 80.9824C34.3435 83.3201 31.9325 85.2038 29.2006 86.4979C26.4687 87.7919 23.4839 88.4641 20.461 88.4662ZM20.461 50.2977C16.9561 50.2977 13.5299 51.3371 10.6157 53.2843C7.70152 55.2315 5.43017 57.9991 4.0889 61.2372C2.74764 64.4753 2.3967 68.0385 3.08047 71.476C3.76424 74.9135 5.45201 78.0711 7.93034 80.5495C10.4087 83.0278 13.5663 84.7156 17.0038 85.3993C20.4414 86.0831 24.0045 85.7322 27.2426 84.3909C30.4807 83.0496 33.2483 80.7783 35.1955 77.8641C37.1427 74.9499 38.1821 71.5237 38.1821 68.0188C38.1821 63.3189 36.315 58.8115 32.9917 55.4881C29.6684 52.1648 25.1609 50.2977 20.461 50.2977Z" fill="#FFF0D4"/>
<path d="M20.4642 68.0188C24.2285 68.0188 27.28 64.9673 27.28 61.203C27.28 57.4387 24.2285 54.3872 20.4642 54.3872C16.7 54.3872 13.6484 57.4387 13.6484 61.203C13.6484 64.9673 16.7 68.0188 20.4642 68.0188Z" fill="url(#paint4_linear_152_5912)"/>
<defs>
<linearGradient id="paint0_linear_152_5912" x1="64.2564" y1="7.0089" x2="64.2564" y2="86.0619" gradientUnits="userSpaceOnUse">
<stop offset="5.20186e-07" stop-color="#FFA700"/>
<stop offset="1" stop-color="#FF7F00"/>
</linearGradient>
<linearGradient id="paint1_linear_152_5912" x1="64.2631" y1="41.8014" x2="64.2631" y2="47.993" gradientUnits="userSpaceOnUse">
<stop offset="5.20186e-07" stop-color="#FFA700"/>
<stop offset="1" stop-color="#FF7F00"/>
</linearGradient>
<linearGradient id="paint2_linear_152_5912" x1="64.266" y1="46.4449" x2="64.266" y2="52.4818" gradientUnits="userSpaceOnUse">
<stop offset="5.20186e-07" stop-color="#FFA700"/>
<stop offset="1" stop-color="#FF7F00"/>
</linearGradient>
<linearGradient id="paint3_linear_152_5912" x1="20.4616" y1="71.7859" x2="20.4616" y2="88.4684" gradientUnits="userSpaceOnUse">
<stop offset="5.20186e-07" stop-color="#FFA700"/>
<stop offset="1" stop-color="#FF7F00"/>
</linearGradient>
<linearGradient id="paint4_linear_152_5912" x1="20.4629" y1="54.3887" x2="20.4629" y2="68.0207" gradientUnits="userSpaceOnUse">
<stop offset="5.20186e-07" stop-color="#FFA700"/>
<stop offset="1" stop-color="#FF7F00"/>
</linearGradient>
<clipPath id="clip0_152_5912">
<rect width="93.4737" height="93.4737" fill="white" transform="translate(17.5273)"/>
</clipPath>
</defs>
</svg>
