<svg width="20" height="20" viewBox="0 0 20 20" fill="none" xmlns="http://www.w3.org/2000/svg">
<path d="M15 8.95832C14.6583 8.95832 14.375 8.67499 14.375 8.33332V6.66666C14.375 4.04166 13.6333 2.29166 10 2.29166C6.36667 2.29166 5.625 4.04166 5.625 6.66666V8.33332C5.625 8.67499 5.34167 8.95832 5 8.95832C4.65833 8.95832 4.375 8.67499 4.375 8.33332V6.66666C4.375 4.24999 4.95833 1.04166 10 1.04166C15.0417 1.04166 15.625 4.24999 15.625 6.66666V8.33332C15.625 8.67499 15.3417 8.95832 15 8.95832Z" fill="#71839B"/>
<path d="M14.168 18.9583H5.83464C2.15964 18.9583 1.04297 17.8417 1.04297 14.1667V12.5C1.04297 8.82501 2.15964 7.70834 5.83464 7.70834H14.168C17.843 7.70834 18.9596 8.82501 18.9596 12.5V14.1667C18.9596 17.8417 17.843 18.9583 14.168 18.9583ZM5.83464 8.95834C2.8513 8.95834 2.29297 9.52501 2.29297 12.5V14.1667C2.29297 17.1417 2.8513 17.7083 5.83464 17.7083H14.168C17.1513 17.7083 17.7096 17.1417 17.7096 14.1667V12.5C17.7096 9.52501 17.1513 8.95834 14.168 8.95834H5.83464Z" fill="#71839B"/>
<path d="M6.66536 14.1667C6.55703 14.1667 6.44869 14.1417 6.34869 14.1C6.24036 14.0583 6.15704 14 6.07371 13.925C5.92371 13.7667 5.83203 13.5583 5.83203 13.3333C5.83203 13.225 5.85702 13.1167 5.89869 13.0167C5.94035 12.9083 5.99871 12.825 6.07371 12.7417C6.15704 12.6667 6.24036 12.6083 6.34869 12.5667C6.64869 12.4333 7.02369 12.5083 7.25702 12.7417C7.33202 12.825 7.39038 12.9167 7.43204 13.0167C7.47371 13.1167 7.4987 13.225 7.4987 13.3333C7.4987 13.55 7.40702 13.7667 7.25702 13.925C7.09869 14.075 6.88203 14.1667 6.66536 14.1667Z" fill="#71839B"/>
<path d="M10.0013 14.1667C9.78464 14.1667 9.56798 14.075 9.40964 13.925C9.25964 13.7667 9.16797 13.5584 9.16797 13.3334C9.16797 13.225 9.18462 13.1167 9.23462 13.0167C9.27629 12.9167 9.33464 12.825 9.40964 12.7417C9.60131 12.55 9.89297 12.4584 10.1596 12.5167C10.218 12.525 10.268 12.5417 10.318 12.5667C10.368 12.5834 10.418 12.6084 10.468 12.6417C10.5096 12.6667 10.5513 12.7084 10.593 12.7417C10.668 12.825 10.7263 12.9167 10.768 13.0167C10.8096 13.1167 10.8346 13.225 10.8346 13.3334C10.8346 13.5584 10.743 13.7667 10.593 13.925C10.5513 13.9584 10.5096 13.9917 10.468 14.025C10.418 14.0584 10.368 14.0834 10.318 14.1001C10.268 14.1251 10.218 14.1417 10.1596 14.15C10.1096 14.1584 10.0513 14.1667 10.0013 14.1667Z" fill="#71839B"/>
<path d="M13.3333 14.1667C13.1083 14.1667 12.9 14.075 12.7417 13.925C12.6667 13.8417 12.6083 13.75 12.5667 13.65C12.525 13.55 12.5 13.4417 12.5 13.3334C12.5 13.1167 12.5917 12.9 12.7417 12.7417C12.7833 12.7084 12.825 12.6751 12.8667 12.6417C12.9167 12.6084 12.9667 12.5834 13.0167 12.5667C13.0667 12.5417 13.1167 12.525 13.1667 12.5167C13.4417 12.4584 13.725 12.55 13.925 12.7417C14.075 12.9 14.1667 13.1084 14.1667 13.3334C14.1667 13.4417 14.1417 13.55 14.1 13.65C14.0583 13.7584 14 13.8417 13.925 13.925C13.7667 14.075 13.55 14.1667 13.3333 14.1667Z" fill="#71839B"/>
</svg>
