<svg width="50" height="50" viewBox="0 0 50 50" fill="none" xmlns="http://www.w3.org/2000/svg">
<path opacity="0.4" d="M43.5625 23.166C43.5625 33.3535 36.1667 42.8951 26.0625 45.6868C25.375 45.8743 24.625 45.8743 23.9375 45.6868C13.8333 42.8951 6.4375 33.3535 6.4375 23.166V14.0202C6.4375 12.3118 7.7292 10.3743 9.33336 9.72851L20.9375 4.97852C23.5417 3.91602 26.4792 3.91602 29.0833 4.97852L40.6875 9.72851C42.2708 10.3743 43.5834 12.3118 43.5834 14.0202L43.5625 23.166Z" fill="#FFBB3F"/>
<path d="M30.2077 21.8743C30.2077 18.9993 27.8743 16.666 24.9993 16.666C22.1243 16.666 19.791 18.9993 19.791 21.8743C19.791 24.2077 21.3327 26.1452 23.4368 26.8118V32.291C23.4368 33.1452 24.1452 33.8535 24.9993 33.8535C25.8535 33.8535 26.5618 33.1452 26.5618 32.291V26.8118C28.666 26.1452 30.2077 24.2077 30.2077 21.8743Z" fill="#FFBB3F"/>
</svg>
