<svg width="158" height="134" viewBox="0 0 158 134" fill="none" xmlns="http://www.w3.org/2000/svg">
<rect y="3.48059" width="157.493" height="130.519" rx="6" fill="white"/>
<path d="M149.795 21.3608H5.78335C5.63356 21.3576 5.49098 21.2959 5.38617 21.189C5.28136 21.0821 5.22266 20.9384 5.22266 20.7887C5.22266 20.6391 5.28136 20.4954 5.38617 20.3884C5.49098 20.2815 5.63356 20.2198 5.78335 20.2167H149.795C149.945 20.2198 150.087 20.2815 150.192 20.3884C150.297 20.4954 150.356 20.6391 150.356 20.7887C150.356 20.9384 150.297 21.0821 150.192 21.189C150.087 21.2959 149.945 21.3576 149.795 21.3608Z" fill="#FFA500" fill-opacity="0.35"/>
<path d="M15.5867 17.2959C17.4403 17.2959 18.943 15.7615 18.943 13.8687C18.943 11.9759 17.4403 10.4415 15.5867 10.4415C13.7331 10.4415 12.2305 11.9759 12.2305 13.8687C12.2305 15.7615 13.7331 17.2959 15.5867 17.2959Z" fill="#FFA500" fill-opacity="0.35"/>
<path d="M27.1805 17.2959C29.0341 17.2959 30.5367 15.7615 30.5367 13.8687C30.5367 11.9759 29.0341 10.4415 27.1805 10.4415C25.3269 10.4415 23.8242 11.9759 23.8242 13.8687C23.8242 15.7615 25.3269 17.2959 27.1805 17.2959Z" fill="#FFA500" fill-opacity="0.35"/>
<path d="M38.7742 17.2959C40.6278 17.2959 42.1305 15.7615 42.1305 13.8687C42.1305 11.9759 40.6278 10.4415 38.7742 10.4415C36.9206 10.4415 35.418 11.9759 35.418 13.8687C35.418 15.7615 36.9206 17.2959 38.7742 17.2959Z" fill="#FFA500" fill-opacity="0.35"/>
<path d="M142.812 11.291H134.576C134.413 11.2943 134.257 11.3613 134.143 11.4778C134.029 11.5942 133.965 11.7508 133.965 11.9139C133.965 12.077 134.029 12.2336 134.143 12.3501C134.257 12.4665 134.413 12.5336 134.576 12.5368H142.812C142.975 12.5336 143.131 12.4665 143.245 12.3501C143.359 12.2336 143.424 12.077 143.424 11.9139C143.424 11.7508 143.359 11.5942 143.245 11.4778C143.131 11.3613 142.975 11.2943 142.812 11.291Z" fill="#FFA500" fill-opacity="0.35"/>
<path d="M142.812 13.6293H134.576C134.413 13.6325 134.258 13.6995 134.143 13.816C134.029 13.9325 133.965 14.0891 133.965 14.2522C133.965 14.4153 134.029 14.5719 134.143 14.6884C134.258 14.8048 134.413 14.8719 134.576 14.8751H142.812C142.976 14.8719 143.131 14.8048 143.245 14.6884C143.36 14.5719 143.424 14.4153 143.424 14.2522C143.424 14.0891 143.36 13.9325 143.245 13.816C143.131 13.6995 142.976 13.6325 142.812 13.6293Z" fill="#FFE0A6"/>
<path d="M142.812 15.9645H134.576C134.413 15.9677 134.258 16.0347 134.143 16.1512C134.029 16.2677 133.965 16.4243 133.965 16.5874C133.965 16.7505 134.029 16.9071 134.143 17.0236C134.258 17.14 134.413 17.2071 134.576 17.2103H142.812C142.976 17.2071 143.131 17.14 143.245 17.0236C143.36 16.9071 143.424 16.7505 143.424 16.5874C143.424 16.4243 143.36 16.2677 143.245 16.1512C143.131 16.0347 142.976 15.9677 142.812 15.9645Z" fill="#FFA500" fill-opacity="0.35"/>
<path d="M16.3798 44.6026C18.6714 44.6026 20.5292 42.747 20.5292 40.4579C20.5292 38.1689 18.6714 36.3132 16.3798 36.3132C14.0882 36.3132 12.2305 38.1689 12.2305 40.4579C12.2305 42.747 14.0882 44.6026 16.3798 44.6026Z" fill="#EFEFEF"/>
<path d="M122.044 49.6358H13.4661C13.1384 49.6358 12.8241 49.5057 12.5924 49.2743C12.3606 49.0428 12.2305 48.7289 12.2305 48.4016C12.2305 48.0742 12.3606 47.7603 12.5924 47.5289C12.8241 47.2974 13.1384 47.1674 13.4661 47.1674H122.044C122.371 47.1674 122.686 47.2974 122.917 47.5289C123.149 47.7603 123.279 48.0742 123.279 48.4016C123.279 48.7289 123.149 49.0428 122.917 49.2743C122.686 49.5057 122.371 49.6358 122.044 49.6358Z" fill="#EFEFEF"/>
<path d="M93.5673 54.5127H13.4661C13.1384 54.5127 12.8241 54.3827 12.5924 54.1512C12.3607 53.9197 12.2305 53.6058 12.2305 53.2784C12.2305 52.9511 12.3607 52.6372 12.5924 52.4057C12.8241 52.1742 13.1384 52.0442 13.4661 52.0442H93.5673C93.895 52.0442 94.2093 52.1742 94.441 52.4057C94.6728 52.6372 94.8029 52.9511 94.8029 53.2784C94.8029 53.6058 94.6728 53.9197 94.441 54.1512C94.2093 54.3827 93.895 54.5127 93.5673 54.5127Z" fill="#EFEFEF"/>
<path d="M16.3798 109.295C18.6714 109.295 20.5292 107.439 20.5292 105.15C20.5292 102.861 18.6714 101.005 16.3798 101.005C14.0882 101.005 12.2305 102.861 12.2305 105.15C12.2305 107.439 14.0882 109.295 16.3798 109.295Z" fill="#EFEFEF"/>
<path d="M68.3198 113.92C68.1798 114.017 67.9926 113.984 67.8222 113.984H12.8135C12.7308 113.984 12.6489 113.951 12.5725 113.885C12.4961 113.82 12.4267 113.724 12.3682 113.603C12.3096 113.482 12.2632 113.338 12.2316 113.18C12.1999 113.021 12.1836 112.852 12.1836 112.68C12.1836 112.509 12.1999 112.339 12.2316 112.181C12.2632 112.023 12.3096 111.879 12.3682 111.758C12.4267 111.637 12.4961 111.541 12.5725 111.475C12.6489 111.41 12.7308 111.376 12.8135 111.377H68.0782C68.2534 111.397 68.4187 111.552 68.5415 111.812C68.6643 112.072 68.7358 112.417 68.742 112.781C68.7369 112.95 68.7156 113.116 68.6793 113.268C68.6431 113.421 68.5927 113.557 68.531 113.669C68.4693 113.781 68.3975 113.866 68.3198 113.92Z" fill="#EFEFEF"/>
<path d="M67.8957 119.208H13.03C12.8055 119.208 12.5902 119.07 12.4315 118.826C12.2728 118.581 12.1836 118.249 12.1836 117.903C12.1836 117.556 12.2728 117.224 12.4315 116.98C12.5902 116.735 12.8055 116.597 13.03 116.597H67.8957C68.1201 116.597 68.3354 116.735 68.4941 116.98C68.6529 117.224 68.742 117.556 68.742 117.903C68.742 118.249 68.6529 118.581 68.4941 118.826C68.3354 119.07 68.1201 119.208 67.8957 119.208Z" fill="#EFEFEF"/>
<path d="M16.3798 74.5102C18.6714 74.5102 20.5292 72.6546 20.5292 70.3655C20.5292 68.0765 18.6714 66.2208 16.3798 66.2208C14.0882 66.2208 12.2305 68.0765 12.2305 70.3655C12.2305 72.6546 14.0882 74.5102 16.3798 74.5102Z" fill="#EFEFEF"/>
<path d="M87.0426 79.1818H13.0259C12.8025 79.1818 12.5883 79.0901 12.4303 78.9269C12.2723 78.7638 12.1836 78.5424 12.1836 78.3117C12.1836 78.0809 12.2723 77.8596 12.4303 77.6964C12.5883 77.5332 12.8025 77.4415 13.0259 77.4415H87.0426C87.266 77.4415 87.4802 77.5332 87.6382 77.6964C87.7961 77.8596 87.8849 78.0809 87.8849 78.3117C87.8849 78.5424 87.7961 78.7638 87.6382 78.9269C87.4802 79.0901 87.266 79.1818 87.0426 79.1818Z" fill="#EFEFEF"/>
<path d="M76.6027 84.4026H13.0242C12.8013 84.4026 12.5874 84.2651 12.4298 84.0203C12.2722 83.7756 12.1836 83.4436 12.1836 83.0974C12.1836 82.7513 12.2722 82.4193 12.4298 82.1745C12.5874 81.9297 12.8013 81.7922 13.0242 81.7922H76.6027C76.8257 81.7922 77.0395 81.9297 77.1971 82.1745C77.3548 82.4193 77.4433 82.7513 77.4433 83.0974C77.4433 83.4436 77.3548 83.7756 77.1971 84.0203C77.0395 84.2651 76.8257 84.4026 76.6027 84.4026Z" fill="#EFEFEF"/>
<path d="M72.2526 89.6233H13.0237C12.8009 89.6233 12.5872 89.4858 12.4297 89.2411C12.2721 88.9963 12.1836 88.6643 12.1836 88.3181C12.1836 87.972 12.2721 87.64 12.4297 87.3952C12.5872 87.1505 12.8009 87.0129 13.0237 87.0129H72.2526C72.4754 87.0129 72.6891 87.1505 72.8466 87.3952C73.0042 87.64 73.0927 87.972 73.0927 88.3181C73.0927 88.6643 73.0042 88.9963 72.8466 89.2411C72.6891 89.4858 72.4754 89.6233 72.2526 89.6233Z" fill="#EFEFEF"/>
<circle cx="117.466" cy="92.2338" r="30.4545" fill="url(#paint0_linear_4671_38511)"/>
<path d="M134.421 70.4548L134.721 72.2966L136.481 72.9153L134.822 73.7693L134.778 75.6348L133.453 74.3207L131.665 74.855L132.505 73.1889L131.445 71.6535L133.289 71.9379L134.421 70.4548Z" fill="white"/>
<path d="M104.328 71.755L104.481 72.6924L105.377 73.0073L104.532 73.442L104.51 74.3915L103.835 73.7226L102.925 73.9946L103.353 73.1466L102.813 72.3651L103.752 72.5099L104.328 71.755Z" fill="white"/>
<path d="M55.5649 1.13397L57.0314 5.4638L61.1952 3.57683L57.5304 6.30951L60.6117 9.68643L56.8803 7.04549L54.6208 11.0195L55.9795 6.65463L51.5017 5.73379L56.0728 5.67709L55.5649 1.13397Z" fill="white"/>
<path d="M108.33 88.3181C106.167 88.3181 104.414 90.0711 104.414 92.2337V102.675C104.414 104.838 106.167 106.591 108.33 106.591H126.602C128.765 106.591 130.518 104.838 130.518 102.675V92.2337C130.518 90.0711 128.765 88.3181 126.602 88.3181H108.33Z" fill="url(#paint1_linear_4671_38511)"/>
<path fill-rule="evenodd" clip-rule="evenodd" d="M123.993 84.4026V88.3181H121.383V84.4026C121.383 82.24 119.63 80.487 117.467 80.487C115.305 80.487 113.552 82.24 113.552 84.4026V88.3181H110.941V84.4026C110.941 80.7984 113.863 77.8766 117.467 77.8766C121.072 77.8766 123.993 80.7984 123.993 84.4026ZM120.078 96.1493C120.078 97.1155 119.553 97.9591 118.773 98.4104V100.065C118.773 100.786 118.188 101.37 117.467 101.37C116.747 101.37 116.162 100.786 116.162 100.065V98.4104C115.382 97.9591 114.857 97.1155 114.857 96.1493C114.857 94.7076 116.026 93.5389 117.467 93.5389C118.909 93.5389 120.078 94.7076 120.078 96.1493Z" fill="#FDFDFD"/>
<defs>
<linearGradient id="paint0_linear_4671_38511" x1="117.466" y1="18.9254" x2="117.466" y2="134.532" gradientUnits="userSpaceOnUse">
<stop stop-color="#FFA500"/>
<stop offset="1" stop-color="white" stop-opacity="0"/>
</linearGradient>
<linearGradient id="paint1_linear_4671_38511" x1="78.7452" y1="50.0324" x2="156.187" y2="160.539" gradientUnits="userSpaceOnUse">
<stop offset="0.338927" stop-color="#FFA500" stop-opacity="0.57"/>
<stop offset="0.720582" stop-color="white" stop-opacity="0.96"/>
<stop offset="0.977451" stop-color="#FF0000"/>
</linearGradient>
</defs>
</svg>
