<svg width="20" height="20" viewBox="0 0 20 20" fill="none" xmlns="http://www.w3.org/2000/svg">
<path d="M15.625 6.66602V8.41602C15.2583 8.36602 14.8417 8.34102 14.375 8.33268V6.66602C14.375 4.04102 13.6333 2.29102 10 2.29102C6.36667 2.29102 5.625 4.04102 5.625 6.66602V8.33268C5.15833 8.34102 4.74167 8.36602 4.375 8.41602V6.66602C4.375 4.24935 4.95833 1.04102 10 1.04102C15.0417 1.04102 15.625 4.24935 15.625 6.66602Z" fill="#71839B"/>
<path d="M15.6224 8.41732C15.2557 8.36732 14.8391 8.34232 14.3724 8.33398H5.6224C5.15573 8.34232 4.73906 8.36732 4.3724 8.41732C2.2474 8.67565 1.66406 9.71732 1.66406 12.5007V14.1673C1.66406 17.5007 2.4974 18.334 5.83073 18.334H14.1641C17.4974 18.334 18.3307 17.5007 18.3307 14.1673V12.5007C18.3307 9.71732 17.7474 8.67565 15.6224 8.41732ZM7.25573 13.9257C7.0974 14.0757 6.88073 14.1673 6.66406 14.1673C6.55573 14.1673 6.4474 14.1423 6.3474 14.1007C6.23906 14.059 6.15573 14.0007 6.0724 13.9257C5.9224 13.7673 5.83073 13.5507 5.83073 13.334C5.83073 13.2257 5.85573 13.1173 5.8974 13.0173C5.93906 12.9173 5.9974 12.8257 6.0724 12.7423C6.15573 12.6673 6.23906 12.609 6.3474 12.5673C6.65573 12.434 7.0224 12.509 7.25573 12.7423C7.33073 12.8257 7.38906 12.9173 7.43073 13.0173C7.4724 13.1173 7.4974 13.2257 7.4974 13.334C7.4974 13.5507 7.40573 13.7673 7.25573 13.9257ZM10.7641 13.6507C10.7224 13.7507 10.6641 13.8423 10.5891 13.9257C10.4307 14.0757 10.2141 14.1673 9.9974 14.1673C9.7724 14.1673 9.56406 14.0757 9.40573 13.9257C9.33073 13.8423 9.2724 13.7507 9.23073 13.6507C9.18906 13.5507 9.16406 13.4423 9.16406 13.334C9.16406 13.109 9.25573 12.9007 9.40573 12.7423C9.71406 12.434 10.2724 12.434 10.5891 12.7423C10.7391 12.9007 10.8307 13.109 10.8307 13.334C10.8307 13.4423 10.8057 13.5507 10.7641 13.6507ZM13.9224 13.9257C13.7641 14.0757 13.5474 14.1673 13.3307 14.1673C13.1141 14.1673 12.8974 14.0757 12.7391 13.9257C12.5891 13.7673 12.4974 13.559 12.4974 13.334C12.4974 13.109 12.5891 12.9007 12.7391 12.7423C13.0557 12.434 13.6141 12.434 13.9224 12.7423C13.9557 12.784 13.9891 12.8257 14.0224 12.8757C14.0557 12.9173 14.0807 12.9673 14.0974 13.0173C14.1224 13.0673 14.1391 13.1173 14.1474 13.1673C14.1557 13.2257 14.1641 13.284 14.1641 13.334C14.1641 13.5507 14.0724 13.7673 13.9224 13.9257Z" fill="#71839B"/>
</svg>
