<svg id="menu_item" data-name="menu item" xmlns="http://www.w3.org/2000/svg" width="15" height="18.332" viewBox="0 0 15 18.332">
  <g id="icons_Lock_Line" data-name="icons/Lock/Line">
    <path id="Shape" d="M7.5,11.667c-1.33,0-2.667-.042-3.974-.125a3.643,3.643,0,0,1-3.434-3.4C.031,7.293,0,6.516,0,5.833s.031-1.46.093-2.309A3.643,3.643,0,0,1,3.526.125C4.833.042,6.17,0,7.5,0s2.668.042,3.974.125a3.644,3.644,0,0,1,3.434,3.4c.062.849.093,1.626.093,2.309s-.031,1.461-.093,2.309a3.644,3.644,0,0,1-3.434,3.4C10.167,11.625,8.83,11.667,7.5,11.667Zm0-10c-1.29,0-2.591.041-3.867.122A1.989,1.989,0,0,0,1.755,3.644c-.059.807-.088,1.544-.088,2.189s.03,1.382.088,2.19A1.989,1.989,0,0,0,3.632,9.878C4.908,9.959,6.21,10,7.5,10s2.592-.041,3.868-.122a1.991,1.991,0,0,0,1.877-1.855c.059-.807.088-1.544.088-2.19s-.03-1.381-.088-2.189a1.991,1.991,0,0,0-1.877-1.855C10.092,1.708,8.79,1.667,7.5,1.667Z" transform="translate(0 6.667)" fill="#777e90"/>
    <path id="Shape-2" data-name="Shape" d="M3.333,1.667,1.667,0,0,1.667,1.667,5Z" transform="translate(5.833 10)" fill="#777e90"/>
    <path id="Shape-3" data-name="Shape" d="M0,4.167a4.167,4.167,0,1,1,8.333,0V5.832c0,2.128-.373,2.5-.833,2.5A.833.833,0,0,1,6.667,7.5V4.167a2.5,2.5,0,1,0-5,0V7.5A.833.833,0,0,1,0,7.5Z" transform="translate(3.333)" fill="#777e90"/>
  </g>
</svg>
