<svg width="29" height="28" viewBox="0 0 29 28" fill="none" xmlns="http://www.w3.org/2000/svg">
<rect x="0.5" y="0.5" width="28" height="27" rx="3.5" fill="#FF7A00" fill-opacity="0.12"/>
<rect x="0.5" y="0.5" width="28" height="27" rx="3.5" stroke="url(#paint0_linear_353_8938)"/>
<path d="M28.2273 18L12 0.75L18.9545 0L26.6818 1L27.5 1.5L28.5 4.5L28.2273 18Z" fill="url(#paint1_linear_353_8938)"/>
<g clip-path="url(#clip0_353_8938)">
<path d="M21.9373 7.16563C21.767 7.1657 21.6036 7.09801 21.4833 6.97748L20.1108 5.60544C19.9631 5.4577 19.9631 5.21822 20.1108 5.07049C20.2585 4.9228 20.498 4.9228 20.6457 5.07049L21.9373 6.36208L25.3543 2.94509C25.502 2.7974 25.7415 2.7974 25.8892 2.94509C26.0369 3.09282 26.0369 3.3323 25.8892 3.48003L22.3913 6.97748C22.271 7.09801 22.1076 7.1657 21.9373 7.16563Z" fill="white"/>
</g>
<defs>
<linearGradient id="paint0_linear_353_8938" x1="14.5" y1="0" x2="14.5" y2="28" gradientUnits="userSpaceOnUse">
<stop stop-color="#FFD200"/>
<stop offset="1" stop-color="#F7971E"/>
</linearGradient>
<linearGradient id="paint1_linear_353_8938" x1="20.25" y1="0" x2="20.25" y2="18" gradientUnits="userSpaceOnUse">
<stop stop-color="#FFD200"/>
<stop offset="1" stop-color="#F7971E"/>
</linearGradient>
<clipPath id="clip0_353_8938">
<rect width="6" height="6" fill="white" transform="translate(20 2)"/>
</clipPath>
</defs>
</svg>
