<svg width="54" height="56" viewBox="0 0 54 56" fill="none" xmlns="http://www.w3.org/2000/svg">
<g filter="url(#filter0_d_487_1537)">
<path d="M22.5 11.5981C25.2846 9.99038 28.7154 9.99038 31.5 11.5981L38.9545 15.9019C41.7391 17.5096 43.4545 20.4808 43.4545 23.6962V32.3038C43.4545 35.5192 41.7391 38.4904 38.9545 40.0981L31.5 44.4019C28.7154 46.0096 25.2846 46.0096 22.5 44.4019L15.0455 40.0981C12.2609 38.4904 10.5455 35.5192 10.5455 32.3038V23.6962C10.5455 20.4808 12.2609 17.5096 15.0455 15.9019L22.5 11.5981Z" fill="#38C558" fill-opacity="0.17" shape-rendering="crispEdges"/>
<path d="M22.625 11.8146C25.3323 10.2515 28.6677 10.2515 31.375 11.8146L38.8295 16.1184C41.5367 17.6815 43.2045 20.5701 43.2045 23.6962V32.3038C43.2045 35.4299 41.5367 38.3185 38.8295 39.8816L31.375 44.1854C28.6677 45.7485 25.3323 45.7485 22.625 44.1854L15.1705 39.8816C12.4633 38.3185 10.7955 35.4299 10.7955 32.3038V23.6962C10.7955 20.5701 12.4633 17.6815 15.1705 16.1184L22.625 11.8146Z" stroke="url(#paint0_linear_487_1537)" stroke-width="0.5" shape-rendering="crispEdges"/>
</g>
<path opacity="0.4" d="M34.3 23.92V29.07C34.3 32.15 32.54 33.47 29.9 33.47H21.11C20.66 33.47 20.23 33.43 19.83 33.34C19.58 33.3 19.34 33.23 19.12 33.15C17.62 32.59 16.71 31.29 16.71 29.07V23.92C16.71 20.84 18.47 19.52 21.11 19.52H29.9C32.14 19.52 33.75 20.47 34.18 22.64C34.25 23.04 34.3 23.45 34.3 23.92Z" fill="#38C558"/>
<path d="M37.3001 26.92V32.07C37.3001 35.15 35.5401 36.47 32.9001 36.47H24.1101C23.3701 36.47 22.7001 36.37 22.1201 36.15C20.9301 35.71 20.1201 34.8 19.8301 33.34C20.2301 33.43 20.6601 33.47 21.1101 33.47H29.9001C32.5401 33.47 34.3001 32.15 34.3001 29.07V23.92C34.3001 23.45 34.2601 23.03 34.1801 22.64C36.0801 23.04 37.3001 24.38 37.3001 26.92Z" fill="#38C558"/>
<path d="M25.4999 29.14C26.9579 29.14 28.1399 27.958 28.1399 26.5C28.1399 25.042 26.9579 23.86 25.4999 23.86C24.0418 23.86 22.8599 25.042 22.8599 26.5C22.8599 27.958 24.0418 29.14 25.4999 29.14Z" fill="#38C558"/>
<path d="M19.7798 24.25C19.3698 24.25 19.0298 24.59 19.0298 25V28C19.0298 28.41 19.3698 28.75 19.7798 28.75C20.1898 28.75 20.5298 28.41 20.5298 28V25C20.5298 24.59 20.1998 24.25 19.7798 24.25Z" fill="#38C558"/>
<path d="M31.21 24.25C30.8 24.25 30.46 24.59 30.46 25V28C30.46 28.41 30.8 28.75 31.21 28.75C31.62 28.75 31.96 28.41 31.96 28V25C31.96 24.59 31.63 24.25 31.21 24.25Z" fill="#38C558"/>
<defs>
<filter id="filter0_d_487_1537" x="0.54541" y="0.392334" width="52.9092" height="55.2153" filterUnits="userSpaceOnUse" color-interpolation-filters="sRGB">
<feFlood flood-opacity="0" result="BackgroundImageFix"/>
<feColorMatrix in="SourceAlpha" type="matrix" values="0 0 0 0 0 0 0 0 0 0 0 0 0 0 0 0 0 0 127 0" result="hardAlpha"/>
<feOffset/>
<feGaussianBlur stdDeviation="5"/>
<feComposite in2="hardAlpha" operator="out"/>
<feColorMatrix type="matrix" values="0 0 0 0 0.219608 0 0 0 0 0.772549 0 0 0 0 0.345098 0 0 0 0.44 0"/>
<feBlend mode="normal" in2="BackgroundImageFix" result="effect1_dropShadow_487_1537"/>
<feBlend mode="normal" in="SourceGraphic" in2="effect1_dropShadow_487_1537" result="shape"/>
</filter>
<linearGradient id="paint0_linear_487_1537" x1="27" y1="9" x2="27" y2="47" gradientUnits="userSpaceOnUse">
<stop stop-color="white" stop-opacity="0.2"/>
<stop offset="1" stop-color="#929292" stop-opacity="0"/>
</linearGradient>
</defs>
</svg>
