<svg width="73" height="83" viewBox="0 0 73 83" fill="none" xmlns="http://www.w3.org/2000/svg">
<path d="M11.1213 69.9053C11.0692 69.907 11.017 69.9081 10.9648 69.9096C10.9425 69.9675 10.9184 70.0249 10.8906 70.0812L11.1213 69.9053Z" fill="#2F2E41"/>
<path d="M12.8965 63.6211C12.9066 63.6848 12.9221 63.7475 12.9428 63.8085C12.9343 63.7445 12.9188 63.6817 12.8965 63.6211Z" fill="#2F2E41"/>
<path d="M36.2564 44.7599C32.6768 44.7614 29.1781 45.8244 26.2027 47.8144C23.2273 49.8043 20.9087 52.632 19.5403 55.9396C18.1719 59.2473 17.8151 62.8865 18.5149 66.3969C19.2148 69.9074 20.9399 73.1315 23.4721 75.6616C26.0043 78.1916 29.2299 79.9139 32.741 80.6108C36.2521 81.3076 39.8909 80.9476 43.1974 79.5763C46.5039 78.2051 49.3295 75.8841 51.3169 72.907C53.3043 69.9298 54.3643 66.4302 54.3628 62.8507C54.3552 58.0523 52.4447 53.4528 49.0503 50.0613C45.6559 46.6698 41.0548 44.7633 36.2564 44.7599ZM48.3844 54.0855L35.9918 73.1415C35.867 73.3361 35.7001 73.5001 35.5033 73.6214C35.3066 73.7427 35.0851 73.8181 34.8552 73.8421H34.684C34.2783 73.8417 33.8882 73.6857 33.5941 73.4061L25.047 64.9524C24.9016 64.8094 24.7859 64.6391 24.7064 64.4513C24.6269 64.2636 24.5853 64.062 24.5838 63.858C24.5824 63.6541 24.6212 63.452 24.698 63.2631C24.7747 63.0742 24.8881 62.9023 25.0314 62.7572C25.3233 62.4635 25.7194 62.297 26.1336 62.294C26.5477 62.2911 26.9462 62.452 27.2422 62.7417L34.4193 69.841L45.7689 52.3885C45.9945 52.0431 46.3479 51.8012 46.7516 51.7159C47.1553 51.6306 47.5763 51.7088 47.9224 51.9334C48.2685 52.158 48.5115 52.5106 48.5981 52.914C48.6847 53.3174 48.6078 53.7387 48.3844 54.0855ZM72.2667 5.09088V10.5399H0.246094V5.09088C0.245744 3.74327 0.779867 2.45052 1.73132 1.49617C2.68277 0.541813 3.97388 0.00375503 5.32149 0H67.1913C68.5389 0.00375503 69.83 0.541813 70.7815 1.49617C71.7329 2.45052 72.267 3.74327 72.2667 5.09088ZM0.246094 46.6592C0.24574 48.0068 0.779858 49.2996 1.73131 50.254C2.68276 51.2083 3.97387 51.7464 5.32149 51.7502H18.2123C20.1044 48.6631 22.757 46.1132 25.9162 44.3441C29.0754 42.5751 32.6356 41.6461 36.2564 41.6461C39.8772 41.6461 43.4374 42.5751 46.5966 44.3441C49.7558 46.1132 52.4084 48.6631 54.3005 51.7502H67.1913C68.5389 51.7464 69.83 51.2083 70.7815 50.254C71.7329 49.2996 72.2671 48.0068 72.2667 46.6592V13.6536H0.246094V46.6592ZM52.3544 39.1863H63.0967C63.5096 39.1863 63.9056 39.3503 64.1976 39.6423C64.4896 39.9342 64.6536 40.3302 64.6536 40.7431C64.6536 41.156 64.4896 41.552 64.1976 41.844C63.9056 42.136 63.5096 42.3 63.0967 42.3H52.3544C51.9415 42.3 51.5455 42.136 51.2536 41.844C50.9616 41.552 50.7976 41.156 50.7976 40.7431C50.7976 40.3302 50.9616 39.9342 51.2536 39.6423C51.5455 39.3503 51.9415 39.1863 52.3544 39.1863ZM9.41606 21.1111H30.8852C31.09 21.1105 31.293 21.1503 31.4824 21.2282C31.6719 21.3062 31.8441 21.4208 31.9891 21.5654C32.1342 21.71 32.2493 21.8819 32.3279 22.0711C32.4064 22.2603 32.4468 22.4631 32.4468 22.668C32.4468 22.8728 32.4064 23.0756 32.3279 23.2648C32.2493 23.454 32.1342 23.6259 31.9891 23.7705C31.8441 23.9151 31.6719 24.0297 31.4824 24.1077C31.293 24.1856 31.09 24.2254 30.8852 24.2248H9.41606C9.21121 24.2254 9.00826 24.1856 8.81882 24.1077C8.62938 24.0297 8.45719 23.9151 8.31212 23.7705C8.16705 23.6259 8.05195 23.454 7.97341 23.2648C7.89487 23.0756 7.85444 22.8728 7.85444 22.668C7.85444 22.4631 7.89487 22.2603 7.97341 22.0711C8.05195 21.8819 8.16705 21.71 8.31212 21.5654C8.45719 21.4208 8.62938 21.3062 8.81882 21.2282C9.00826 21.1503 9.21121 21.1105 9.41606 21.1111ZM9.41606 30.1097L26.962 30.0941C27.3749 30.0941 27.7709 30.2582 28.0628 30.5501C28.3548 30.8421 28.5188 31.2381 28.5188 31.651C28.5188 32.0639 28.3548 32.4599 28.0628 32.7519C27.7709 33.0438 27.3749 33.2079 26.962 33.2079L9.41606 33.2235C9.00316 33.2235 8.60716 33.0594 8.3152 32.7675C8.02323 32.4755 7.8592 32.0795 7.8592 31.6666C7.8592 31.2537 8.02323 30.8577 8.3152 30.5657C8.60716 30.2738 9.00316 30.1097 9.41606 30.1097Z" fill="#F5F5F5"/>
<circle cx="36.1705" cy="63.0377" r="19.3405" fill="white"/>
<circle cx="35.9987" cy="62.863" r="16.1725" fill="url(#paint0_linear_2802_37762)"/>
<path d="M34.1241 68.9288C33.8583 68.9303 33.5949 68.8809 33.3489 68.7834C33.1029 68.686 32.8792 68.5424 32.6905 68.3609L28.6524 64.444C28.2722 64.0753 28.0586 63.5751 28.0586 63.0536C28.0586 62.532 28.2722 62.0319 28.6524 61.6631C29.0326 61.2943 29.5482 61.0872 30.0859 61.0872C30.6236 61.0872 31.1393 61.2943 31.5195 61.6631L34.1241 64.209L40.7668 57.7463C40.9545 57.5627 41.1778 57.417 41.4239 57.3176C41.6699 57.2182 41.9338 57.167 42.2003 57.167C42.4669 57.167 42.7308 57.2182 42.9768 57.3176C43.2229 57.417 43.4462 57.5627 43.6339 57.7463C43.8231 57.9283 43.9733 58.1449 44.0758 58.3836C44.1783 58.6222 44.2311 58.8782 44.2311 59.1368C44.2311 59.3953 44.1783 59.6513 44.0758 59.8899C43.9733 60.1286 43.8231 60.3452 43.6339 60.5272L35.5576 68.3609C35.3689 68.5424 35.1452 68.686 34.8992 68.7834C34.6532 68.8809 34.3898 68.9303 34.1241 68.9288Z" fill="white"/>
<defs>
<linearGradient id="paint0_linear_2802_37762" x1="36.3418" y1="39.2599" x2="35.9987" y2="79.0355" gradientUnits="userSpaceOnUse">
<stop stop-color="#77F087"/>
<stop offset="1" stop-color="#5BCE5C"/>
</linearGradient>
</defs>
</svg>
