<svg width="24" height="24" viewBox="0 0 24 24" fill="none" xmlns="http://www.w3.org/2000/svg">
<g clip-path="url(#clip0_552_1980)">
<path d="M23.9999 11.5C23.9975 10.8258 23.8428 10.1609 23.5474 9.55482C23.252 8.94877 22.8235 8.41728 22.2939 8.00004C23.0266 7.42246 23.5607 6.63058 23.8218 5.73488C24.0829 4.83918 24.0578 3.88433 23.7502 3.00353C23.4426 2.12273 22.8677 1.35991 22.1058 0.821492C21.3439 0.283073 20.4329 -0.00409694 19.4999 4.4165e-05H4.49991C3.56695 -0.00409694 2.65596 0.283073 1.89403 0.821492C1.1321 1.35991 0.557225 2.12273 0.249606 3.00353C-0.0580129 3.88433 -0.0830352 4.83918 0.17803 5.73488C0.439095 6.63058 0.973227 7.42246 1.70591 8.00004C1.17446 8.41562 0.744619 8.94676 0.449 9.55319C0.153381 10.1596 -0.000254973 10.8254 -0.000254973 11.5C-0.000254973 12.1747 0.153381 12.8405 0.449 13.4469C0.744619 14.0533 1.17446 14.5845 1.70591 15C0.973227 15.5776 0.439095 16.3695 0.17803 17.2652C-0.0830352 18.1609 -0.0580129 19.1158 0.249606 19.9966C0.557225 20.8774 1.1321 21.6402 1.89403 22.1786C2.65596 22.717 3.56695 23.0042 4.49991 23H19.4999C20.4329 23.0042 21.3439 22.717 22.1058 22.1786C22.8677 21.6402 23.4426 20.8774 23.7502 19.9966C24.0578 19.1158 24.0829 18.1609 23.8218 17.2652C23.5607 16.3695 23.0266 15.5776 22.2939 15C22.8235 14.5828 23.252 14.0513 23.5474 13.4453C23.8428 12.8392 23.9975 12.1743 23.9999 11.5ZM1.99991 4.50004C1.99991 3.837 2.26331 3.20112 2.73215 2.73228C3.20099 2.26344 3.83687 2.00004 4.49991 2.00004H4.99991V3.00004C4.99991 3.26526 5.10527 3.51961 5.29281 3.70715C5.48034 3.89469 5.7347 4.00004 5.99991 4.00004C6.26513 4.00004 6.51948 3.89469 6.70702 3.70715C6.89456 3.51961 6.99991 3.26526 6.99991 3.00004V2.00004H8.99991V3.00004C8.99991 3.26526 9.10527 3.51961 9.29281 3.70715C9.48034 3.89469 9.7347 4.00004 9.99991 4.00004C10.2651 4.00004 10.5195 3.89469 10.707 3.70715C10.8946 3.51961 10.9999 3.26526 10.9999 3.00004V2.00004H19.4999C20.163 2.00004 20.7988 2.26344 21.2677 2.73228C21.7365 3.20112 21.9999 3.837 21.9999 4.50004C21.9999 5.16309 21.7365 5.79897 21.2677 6.26781C20.7988 6.73665 20.163 7.00004 19.4999 7.00004H4.49991C3.83687 7.00004 3.20099 6.73665 2.73215 6.26781C2.26331 5.79897 1.99991 5.16309 1.99991 4.50004ZM21.9999 18.5C21.9999 19.1631 21.7365 19.799 21.2677 20.2678C20.7988 20.7367 20.163 21 19.4999 21H4.49991C3.83687 21 3.20099 20.7367 2.73215 20.2678C2.26331 19.799 1.99991 19.1631 1.99991 18.5C1.99991 17.837 2.26331 17.2011 2.73215 16.7323C3.20099 16.2634 3.83687 16 4.49991 16H4.99991V17C4.99991 17.2653 5.10527 17.5196 5.29281 17.7072C5.48034 17.8947 5.7347 18 5.99991 18C6.26513 18 6.51948 17.8947 6.70702 17.7072C6.89456 17.5196 6.99991 17.2653 6.99991 17V16H8.99991V17C8.99991 17.2653 9.10527 17.5196 9.29281 17.7072C9.48034 17.8947 9.7347 18 9.99991 18C10.2651 18 10.5195 17.8947 10.707 17.7072C10.8946 17.5196 10.9999 17.2653 10.9999 17V16H19.4999C20.163 16 20.7988 16.2634 21.2677 16.7323C21.7365 17.2011 21.9999 17.837 21.9999 18.5ZM4.49991 14C3.83687 14 3.20099 13.7367 2.73215 13.2678C2.26331 12.799 1.99991 12.1631 1.99991 11.5C1.99991 10.837 2.26331 10.2011 2.73215 9.73228C3.20099 9.26344 3.83687 9.00004 4.49991 9.00004H4.99991V10C4.99991 10.2653 5.10527 10.5196 5.29281 10.7072C5.48034 10.8947 5.7347 11 5.99991 11C6.26513 11 6.51948 10.8947 6.70702 10.7072C6.89456 10.5196 6.99991 10.2653 6.99991 10V9.00004H8.99991V10C8.99991 10.2653 9.10527 10.5196 9.29281 10.7072C9.48034 10.8947 9.7347 11 9.99991 11C10.2651 11 10.5195 10.8947 10.707 10.7072C10.8946 10.5196 10.9999 10.2653 10.9999 10V9.00004H19.4999C20.163 9.00004 20.7988 9.26344 21.2677 9.73228C21.7365 10.2011 21.9999 10.837 21.9999 11.5C21.9999 12.1631 21.7365 12.799 21.2677 13.2678C20.7988 13.7367 20.163 14 19.4999 14H4.49991Z" fill="white"/>
</g>
<defs>
<clipPath id="clip0_552_1980">
<rect width="24" height="24" fill="white"/>
</clipPath>
</defs>
</svg>
