<svg width="55" height="55" viewBox="0 0 55 55" fill="none" xmlns="http://www.w3.org/2000/svg">
<circle cx="27.5" cy="27.5" r="27.5" fill="#FAFAFA"/>
<path d="M22.1792 37.75C22.0792 37.75 21.9692 37.74 21.8792 37.73L19.7092 37.43C18.6692 37.29 17.7292 36.36 17.5692 35.3L17.2692 33.11C17.1692 32.41 17.4692 31.5 17.9692 30.99L22.3592 26.6C21.6492 23.76 22.4692 20.76 24.5592 18.69C27.7992 15.46 33.0692 15.45 36.3192 18.69C37.8892 20.26 38.7492 22.35 38.7492 24.57C38.7492 26.79 37.8892 28.88 36.3192 30.45C34.2192 32.53 31.2292 33.35 28.4092 32.63L24.0092 37.02C23.5892 37.46 22.8392 37.75 22.1792 37.75ZM30.4292 17.76C28.6792 17.76 26.9392 18.42 25.6092 19.75C23.8092 21.54 23.1592 24.16 23.9092 26.6C23.9892 26.87 23.9192 27.15 23.7192 27.35L19.0192 32.05C18.8492 32.22 18.7092 32.66 18.7392 32.89L19.0392 35.08C19.0992 35.46 19.5092 35.89 19.8892 35.94L22.0692 36.24C22.3092 36.28 22.7492 36.14 22.9192 35.97L27.6392 31.26C27.8392 31.06 28.1292 31 28.3892 31.08C30.7992 31.84 33.4292 31.19 35.2292 29.39C36.5092 28.11 37.2192 26.39 37.2192 24.57C37.2192 22.74 36.5092 21.03 35.2292 19.75C33.9292 18.43 32.1792 17.76 30.4292 17.76Z" fill="#71839B"/>
<path d="M25.1881 35.5401C24.9981 35.5401 24.8081 35.4701 24.6581 35.3201L22.3581 33.0201C22.0681 32.7301 22.0681 32.2501 22.3581 31.9601C22.6481 31.6701 23.1281 31.6701 23.4181 31.9601L25.7181 34.2601C26.0081 34.5501 26.0081 35.0301 25.7181 35.3201C25.5681 35.4701 25.3781 35.5401 25.1881 35.5401Z" fill="#71839B"/>
<path d="M30.5 26.75C29.26 26.75 28.25 25.74 28.25 24.5C28.25 23.26 29.26 22.25 30.5 22.25C31.74 22.25 32.75 23.26 32.75 24.5C32.75 25.74 31.74 26.75 30.5 26.75ZM30.5 23.75C30.09 23.75 29.75 24.09 29.75 24.5C29.75 24.91 30.09 25.25 30.5 25.25C30.91 25.25 31.25 24.91 31.25 24.5C31.25 24.09 30.91 23.75 30.5 23.75Z" fill="#71839B"/>
</svg>
