<svg width="55" height="55" viewBox="0 0 55 55" fill="none" xmlns="http://www.w3.org/2000/svg">
<circle cx="27.5" cy="27.5" r="27.5" fill="#FAFAFA"/>
<path d="M28.2014 37.75C24.1614 37.75 20.5214 35.52 18.6614 31.93C18.6314 31.9 18.6114 31.86 18.5914 31.82C17.8314 30.3 17.4414 28.68 17.4414 27C17.4414 25.32 17.8314 23.7 18.5914 22.18C20.4314 18.52 24.1114 16.25 28.1914 16.25C30.9314 16.25 33.4214 17.22 35.3914 19.05C35.5414 19.19 35.6314 19.38 35.6314 19.59C35.6314 19.8 35.5514 19.99 35.4014 20.14L32.5814 22.9C32.2914 23.18 31.8414 23.19 31.5414 22.91C30.9114 22.32 29.8214 21.62 28.1914 21.62C26.1314 21.62 24.2414 22.86 23.3914 24.79C23.3214 24.95 23.2614 25.1 23.2014 25.27C23.0114 25.85 22.9214 26.44 22.9214 27.01C22.9214 27.58 23.0214 28.15 23.2014 28.72C23.2014 28.73 23.2114 28.74 23.2114 28.76C23.9314 30.94 25.9314 32.4 28.1914 32.4C29.3814 32.4 30.4014 32.11 31.2314 31.53C31.9914 31 32.4714 30.29 32.7314 29.65H28.2014C27.7914 29.65 27.4514 29.31 27.4514 28.9V25.19C27.4514 24.78 27.7914 24.44 28.2014 24.44H37.5914C37.9414 24.44 38.2414 24.68 38.3214 25.02C38.4814 25.72 38.5514 26.38 38.5514 27.23C38.5514 30.41 37.4114 33.22 35.3314 35.14C33.4814 36.84 31.0114 37.75 28.2014 37.75ZM19.8814 31.05C19.9114 31.09 19.9414 31.14 19.9614 31.19C21.5314 34.3 24.6914 36.25 28.2014 36.25C30.6314 36.25 32.7414 35.48 34.3114 34.03C36.0814 32.4 37.0514 29.98 37.0514 27.22C37.0514 26.72 37.0314 26.32 36.9714 25.93H28.9514V28.14H33.7114C33.9214 28.14 34.1314 28.23 34.2714 28.39C34.4114 28.55 34.4814 28.77 34.4514 28.98C34.3214 30.1 33.6214 31.68 32.0914 32.75C31.0114 33.5 29.7014 33.89 28.1914 33.89C25.3014 33.89 22.7414 32.03 21.8014 29.25C21.8014 29.24 21.7914 29.23 21.7914 29.22C21.5414 28.49 21.4214 27.75 21.4214 27.01C21.4214 26.28 21.5414 25.54 21.7814 24.8C21.8514 24.58 21.9314 24.38 22.0214 24.18C23.1214 21.71 25.5414 20.12 28.1914 20.12C29.9014 20.12 31.1614 20.72 32.0214 21.35L33.7714 19.64C32.1914 18.4 30.2714 17.75 28.1914 17.75C24.6814 17.75 21.5114 19.7 19.9314 22.85C19.2814 24.16 18.9414 25.56 18.9414 27C18.9514 28.41 19.2614 29.77 19.8814 31.05Z" fill="#71839B"/>
</svg>
