<svg width="58" height="58" viewBox="0 0 58 58" fill="none" xmlns="http://www.w3.org/2000/svg">
<mask id="mask0_1358_85019" style="mask-type:alpha" maskUnits="userSpaceOnUse" x="2" y="0" width="58" height="58">
<rect x="2" width="58" height="58" fill="#D9D9D9"/>
</mask>
<g mask="url(#mask0_1358_85019)">
</g>
<g filter="url(#filter0_d_1358_85019)">
<rect x="7" y="7" width="48.4177" height="44" rx="8" fill="#FF4500"/>
<path d="M39.4438 26.8269C38.8126 26.8269 38.2355 27.0884 37.8298 27.5032C36.2699 26.3851 34.142 25.6638 31.7525 25.5736C31.752 25.5735 31.7515 25.5736 31.751 25.5735L32.7154 20.7232L36.1271 21.6157C36.2651 22.3968 36.9435 22.9915 37.7643 22.9915C38.6847 22.9915 39.4308 22.2453 39.4308 21.325C39.4308 20.4046 38.6847 19.6584 37.7643 19.6584C37.0623 19.6584 36.4645 20.0937 36.2189 20.708L32.4812 19.7299C32.3588 19.6982 32.2329 19.7185 32.1272 19.7836C32.0224 19.8497 31.9484 19.9562 31.9247 20.0777L30.832 25.5732C30.8293 25.5736 30.8266 25.5732 30.8238 25.5736C28.3803 25.6277 26.1802 26.3671 24.5843 27.5032C24.1785 27.0884 23.6014 26.8269 22.9703 26.8269C21.7169 26.8269 20.707 27.8368 20.707 29.0901C20.707 30.0189 21.2661 30.8123 22.0595 31.164C22.0144 31.4255 21.9784 31.6779 21.9784 31.9484C21.9784 35.474 26.108 38.3413 31.2025 38.3413C36.306 38.3413 40.4356 35.474 40.4356 31.9484C40.4356 31.6779 40.3996 31.4255 40.3545 31.164C41.148 30.8123 41.707 30.0189 41.707 29.0901C41.707 27.8368 40.6972 26.8269 39.4438 26.8269ZM26.0991 30.7582C26.0991 29.9197 26.7843 29.2344 27.6229 29.2344C28.4615 29.2344 29.1467 29.9197 29.1467 30.7582C29.1467 31.5968 28.4615 32.2821 27.6229 32.2821C26.7843 32.2821 26.0991 31.5968 26.0991 30.7582ZM35.7469 34.4641C35.2781 35.5912 33.4116 36.3757 31.2025 36.3757C29.0024 36.3757 27.1359 35.5912 26.6671 34.4641C26.5679 34.2387 26.6761 33.9772 26.9105 33.878C27.1359 33.7789 27.3975 33.887 27.4967 34.1215C27.7762 34.7887 29.2368 35.474 31.2025 35.474C33.1681 35.474 34.6379 34.7887 34.9174 34.1215C35.0166 33.887 35.2781 33.7789 35.5035 33.878C35.738 33.9772 35.8461 34.2387 35.7469 34.4641ZM34.7911 32.2821C33.9526 32.2821 33.2673 31.5968 33.2673 30.7582C33.2673 29.9197 33.9526 29.2344 34.7911 29.2344C35.6298 29.2344 36.315 29.9197 36.315 30.7582C36.315 31.5968 35.6298 32.2821 34.7911 32.2821Z" fill="white"/>
<rect x="7.5" y="7.5" width="47.4177" height="43" rx="7.5" stroke="#FF4500"/>
</g>
<defs>
<filter id="filter0_d_1358_85019" x="0" y="1" width="62.418" height="58" filterUnits="userSpaceOnUse" color-interpolation-filters="sRGB">
<feFlood flood-opacity="0" result="BackgroundImageFix"/>
<feColorMatrix in="SourceAlpha" type="matrix" values="0 0 0 0 0 0 0 0 0 0 0 0 0 0 0 0 0 0 127 0" result="hardAlpha"/>
<feOffset dy="1"/>
<feGaussianBlur stdDeviation="3.5"/>
<feColorMatrix type="matrix" values="0 0 0 0 1 0 0 0 0 0.270588 0 0 0 0 0 0 0 0 0.61 0"/>
<feBlend mode="normal" in2="BackgroundImageFix" result="effect1_dropShadow_1358_85019"/>
<feBlend mode="normal" in="SourceGraphic" in2="effect1_dropShadow_1358_85019" result="shape"/>
</filter>
</defs>
</svg>
