<svg width="58" height="58" viewBox="0 0 58 58" fill="none" xmlns="http://www.w3.org/2000/svg">
<mask id="mask0_1358_85021" style="mask-type:alpha" maskUnits="userSpaceOnUse" x="0" y="0" width="58" height="58">
<rect width="58" height="58" fill="#D9D9D9"/>
</mask>
<g mask="url(#mask0_1358_85021)">
</g>
<rect x="5.5" y="7.5" width="47.4177" height="43" rx="7.5" fill="white"/>
<path d="M37.4438 26.8269C36.8126 26.8269 36.2355 27.0884 35.8298 27.5032C34.2699 26.3851 32.142 25.6638 29.7525 25.5736C29.752 25.5735 29.7515 25.5736 29.751 25.5735L30.7154 20.7232L34.1271 21.6157C34.2651 22.3968 34.9435 22.9915 35.7643 22.9915C36.6847 22.9915 37.4308 22.2453 37.4308 21.325C37.4308 20.4046 36.6847 19.6584 35.7643 19.6584C35.0623 19.6584 34.4645 20.0937 34.2189 20.708L30.4812 19.7299C30.3588 19.6982 30.2329 19.7185 30.1272 19.7836C30.0224 19.8497 29.9484 19.9562 29.9247 20.0777L28.832 25.5732C28.8293 25.5736 28.8266 25.5732 28.8238 25.5736C26.3803 25.6277 24.1802 26.3671 22.5843 27.5032C22.1785 27.0884 21.6014 26.8269 20.9703 26.8269C19.7169 26.8269 18.707 27.8368 18.707 29.0901C18.707 30.0189 19.2661 30.8123 20.0595 31.164C20.0144 31.4255 19.9784 31.6779 19.9784 31.9484C19.9784 35.474 24.108 38.3413 29.2025 38.3413C34.306 38.3413 38.4356 35.474 38.4356 31.9484C38.4356 31.6779 38.3996 31.4255 38.3545 31.164C39.148 30.8123 39.707 30.0189 39.707 29.0901C39.707 27.8368 38.6972 26.8269 37.4438 26.8269ZM24.0991 30.7582C24.0991 29.9197 24.7843 29.2344 25.6229 29.2344C26.4615 29.2344 27.1467 29.9197 27.1467 30.7582C27.1467 31.5968 26.4615 32.2821 25.6229 32.2821C24.7843 32.2821 24.0991 31.5968 24.0991 30.7582ZM33.7469 34.4641C33.2781 35.5912 31.4116 36.3757 29.2025 36.3757C27.0024 36.3757 25.1359 35.5912 24.6671 34.4641C24.5679 34.2387 24.6761 33.9772 24.9105 33.878C25.1359 33.7789 25.3975 33.887 25.4967 34.1215C25.7762 34.7887 27.2368 35.474 29.2025 35.474C31.1681 35.474 32.6379 34.7887 32.9174 34.1215C33.0166 33.887 33.2781 33.7789 33.5035 33.878C33.738 33.9772 33.8461 34.2387 33.7469 34.4641ZM32.7911 32.2821C31.9526 32.2821 31.2673 31.5968 31.2673 30.7582C31.2673 29.9197 31.9526 29.2344 32.7911 29.2344C33.6298 29.2344 34.315 29.9197 34.315 30.7582C34.315 31.5968 33.6298 32.2821 32.7911 32.2821Z" fill="#FF4500"/>
<rect x="5.5" y="7.5" width="47.4177" height="43" rx="7.5" stroke="#ECECEC"/>
</svg>
