<svg width="13" height="13" viewBox="0 0 13 13" fill="none" xmlns="http://www.w3.org/2000/svg">
<g clip-path="url(#clip0_4706_38747)">
<path d="M2.03499e-05 6.49238C-0.00550801 7.88142 1.11607 9.01194 2.50513 9.01747C3.14485 9.02 3.76151 8.77868 4.22957 8.3426L7.97763 10.0349C7.95158 10.175 7.93731 10.317 7.9349 10.4596C7.93049 11.8582 9.06068 12.9956 10.4593 13C11.8579 13.0044 12.9953 11.8742 12.9997 10.4756C13.0042 9.07696 11.874 7.93959 10.4753 7.93515C9.63971 7.93251 8.85659 8.34225 8.38231 9.03022L4.86092 7.44021C5.11104 6.83625 5.11201 6.15786 4.86364 5.55319L8.38016 3.95506C9.17201 5.10032 10.7423 5.38678 11.8876 4.59493C13.0329 3.80308 13.3193 2.23277 12.5274 1.08751C11.7356 -0.0577471 10.1653 -0.344208 9.02 0.447642C8.33796 0.919227 7.93142 1.69601 7.93272 2.52522C7.935 2.66794 7.94948 2.81018 7.97601 2.95044L4.23769 4.64917C3.22486 3.69812 1.63282 3.7482 0.681759 4.76103C0.241595 5.22983 -0.00236344 5.84934 2.03499e-05 6.49238Z" fill="#71839B"/>
</g>
<defs>
<clipPath id="clip0_4706_38747">
<rect width="13" height="13" fill="white"/>
</clipPath>
</defs>
</svg>
