<svg width="137" height="28" viewBox="0 0 137 28" fill="none" xmlns="http://www.w3.org/2000/svg">
<path d="M25.078 19V8.64H29.39C31.476 8.64 32.736 9.732 32.736 11.51C32.736 12.616 32.232 13.428 31.294 13.834C32.316 14.17 32.862 14.968 32.862 16.144C32.862 17.978 31.63 19 29.39 19H25.078ZM29.152 10.628H27.346V12.882H29.152C29.964 12.882 30.412 12.476 30.412 11.734C30.412 11.006 29.978 10.628 29.152 10.628ZM29.264 14.786H27.346V17.012H29.264C30.104 17.012 30.538 16.634 30.538 15.864C30.538 15.164 30.09 14.786 29.264 14.786ZM36.6565 8.64V19H34.3885V8.64H36.6565ZM38.0202 10.74V8.64H46.1682V10.74H43.2282V19H40.9602V10.74H38.0202ZM49.7672 19H47.5272V8.64H49.7672L54.1352 15.234V8.64H56.3752V19H54.1352L49.7672 12.42V19ZM59.9471 19H57.5811L61.2771 8.64H63.4891L67.1711 19H64.7631L64.0351 16.816H60.6891L59.9471 19ZM62.0891 12.7L61.3471 14.912H63.3911L62.6491 12.7C62.5371 12.35 62.4111 11.944 62.3691 11.692C62.3271 11.93 62.2151 12.322 62.0891 12.7ZM67.8028 11.65C67.8028 9.774 69.3848 8.444 71.6108 8.444C73.8368 8.444 75.2368 9.676 75.2368 11.636H72.9828C72.9828 10.908 72.4368 10.46 71.5828 10.46C70.6588 10.46 70.0708 10.88 70.0708 11.566C70.0708 12.196 70.3928 12.504 71.1208 12.658L72.6748 12.98C74.5228 13.358 75.4048 14.24 75.4048 15.878C75.4048 17.88 73.8368 19.182 71.4568 19.182C69.1468 19.182 67.6488 17.936 67.6488 15.99H69.9028C69.9028 16.746 70.4628 17.166 71.4708 17.166C72.4928 17.166 73.1368 16.76 73.1368 16.102C73.1368 15.528 72.8708 15.234 72.1848 15.094L70.6028 14.772C68.7548 14.394 67.8028 13.344 67.8028 11.65ZM80.9681 19H76.9081V8.64H80.8281C83.8661 8.64 85.9801 10.768 85.9801 13.848C85.9801 16.872 83.9221 19 80.9681 19ZM80.6041 10.74H79.1761V16.9H80.7441C82.5361 16.9 83.5861 15.766 83.5861 13.848C83.5861 11.888 82.4801 10.74 80.6041 10.74ZM88.4119 19H86.0459L89.7419 8.64H91.9539L95.6359 19H93.2279L92.4999 16.816H89.1539L88.4119 19ZM90.5539 12.7L89.8119 14.912H91.8559L91.1139 12.7C91.0019 12.35 90.8759 11.944 90.8339 11.692C90.7919 11.93 90.6799 12.322 90.5539 12.7ZM104.401 19.896L103.239 18.58C102.525 18.958 101.685 19.168 100.761 19.168C97.7651 19.168 95.7071 16.984 95.7071 13.82C95.7071 10.656 97.7791 8.458 100.775 8.458C103.785 8.458 105.857 10.642 105.857 13.806C105.857 15.22 105.437 16.452 104.709 17.362L105.829 18.636L104.401 19.896ZM103.463 13.806C103.463 11.832 102.455 10.642 100.789 10.642C99.1091 10.642 98.1011 11.832 98.1011 13.806C98.1011 15.794 99.1091 16.984 100.789 16.984C101.125 16.984 101.419 16.942 101.699 16.844L100.341 15.304L101.769 14.044L103.113 15.556C103.337 15.08 103.463 14.492 103.463 13.806ZM115.342 15.556H113.41V19H111.142V8.64H115.342C117.456 8.64 118.87 10.026 118.87 12.098C118.87 14.17 117.456 15.556 115.342 15.556ZM114.838 10.656H113.41V13.54H114.838C115.93 13.54 116.476 13.064 116.476 12.098C116.476 11.132 115.93 10.656 114.838 10.656ZM127.275 18.972L119.883 19V17.32L123.299 14.478C124.405 13.568 124.867 12.924 124.867 12.07C124.867 11.02 124.349 10.46 123.425 10.46C122.459 10.46 121.899 11.118 121.899 12.28H119.645C119.645 9.956 121.129 8.444 123.411 8.444C125.777 8.444 127.191 9.718 127.191 11.93C127.191 13.344 126.337 14.492 125.049 15.57L123.495 16.872H127.275V18.972ZM132.979 15.556H131.047V19H128.779V8.64H132.979C135.093 8.64 136.507 10.026 136.507 12.098C136.507 14.17 135.093 15.556 132.979 15.556ZM132.475 10.656H131.047V13.54H132.475C133.567 13.54 134.113 13.064 134.113 12.098C134.113 11.132 133.567 10.656 132.475 10.656Z" fill="#324054"/>
<path d="M13.4859 13.5655L16.8087 9.292L11.6838 3H0.811523V24.9725H13.1071L17.8478 18.3505L13.4859 13.5655ZM9.84376 6.454L11.9706 9.3415L10.4769 10.601L7.51129 6.454H9.84376ZM4.03694 8.5275H4.89741L7.50588 12.4325H4.03694V8.5275ZM4.03694 21.755C3.88541 21.755 4.03694 17.0415 4.03694 17.0415H4.87576L7.96588 21.755C7.96588 21.755 4.18846 21.755 4.03694 21.755ZM11.5431 20.5175L8.14446 15.6225H10.8828L13.1882 18.8675L11.5431 20.5175Z" fill="url(#paint0_linear_1723_31332)"/>
<defs>
<linearGradient id="paint0_linear_1723_31332" x1="9.32796" y1="3.00247" x2="9.32796" y2="24.9755" gradientUnits="userSpaceOnUse">
<stop offset="5.20186e-07" stop-color="#FFA700"/>
<stop offset="1" stop-color="#FF7F00"/>
</linearGradient>
</defs>
</svg>
