<svg width="100" height="100" viewBox="0 0 100 100" fill="none" xmlns="http://www.w3.org/2000/svg">
<mask id="mask0_4927_13848" style="mask-type:alpha" maskUnits="userSpaceOnUse" x="0" y="0" width="100" height="100">
<rect width="100" height="100" fill="#D9D9D9"/>
</mask>
<g mask="url(#mask0_4927_13848)">
<path d="M50.9956 95.773C36.7352 95.773 25.1748 94.6542 25.1748 93.2742C25.1748 91.8941 36.7352 90.7754 50.9956 90.7754C65.256 90.7754 76.8164 91.8941 76.8164 93.2742C76.8164 94.6542 65.256 95.773 50.9956 95.773Z" fill="black"/>
<path d="M49.6758 19.2364C50.0643 18.179 51.0834 17.4868 52.2094 17.5155L78.1334 18.1769C78.486 18.1858 78.8333 18.2657 79.1544 18.4118L82.7459 20.0455C83.959 20.5973 84.5664 21.9698 84.16 23.2389L64.9142 83.3283C64.5581 84.4396 63.5114 85.1827 62.3447 85.1531L31.0733 84.3551C29.9531 84.3264 28.9743 83.5911 28.6355 82.5233L27.6133 79.2991L49.6758 19.2364Z" fill="black"/>
<path d="M46.2326 19.1726C46.5736 18.1081 47.5759 17.3962 48.6932 17.4247L78.563 18.1867C80.2407 18.2294 81.4077 19.8716 80.8951 21.4701L62.1321 80.0396C61.7911 81.1039 60.7888 81.8157 59.6715 81.787L29.8017 81.0256C28.1238 80.982 26.9573 79.3399 27.4693 77.7418L46.2326 19.1726Z" fill="#FFA500"/>
<path d="M46.2326 19.1726C46.5736 18.1081 47.5759 17.3962 48.6932 17.4247L78.563 18.1867C80.2407 18.2294 81.4077 19.8716 80.8951 21.4701L62.1321 80.0396C61.7911 81.1039 60.7888 81.8157 59.6715 81.787L29.8017 81.0256C28.1238 80.982 26.9573 79.3399 27.4693 77.7418L46.2326 19.1726Z" fill="#FFA500"/>
<path d="M46.2326 19.1726C46.5736 18.1081 47.5759 17.3962 48.6932 17.4247L78.563 18.1867C80.2407 18.2294 81.4077 19.8716 80.8951 21.4701L62.1321 80.0396C61.7911 81.1039 60.7888 81.8157 59.6715 81.787L29.8017 81.0256C28.1238 80.982 26.9573 79.3399 27.4693 77.7418L46.2326 19.1726Z" stroke="#040815" stroke-width="1.23894" stroke-linejoin="round"/>
<path d="M39.1915 9.01372C39.5798 7.95631 40.599 7.26414 41.725 7.29285L67.649 7.95422C68.0016 7.96319 68.3489 8.04316 68.6701 8.18919L72.2614 9.82286C73.4744 10.3747 74.0823 11.7472 73.6758 13.0162L54.4297 73.1052C54.0737 74.2168 53.0271 74.9602 51.8603 74.9305L20.5889 74.1327C19.4688 74.1042 18.4899 73.3684 18.1512 72.3003L17.1289 69.0769L39.1915 9.01372Z" fill="black"/>
<path d="M38.2873 7.38069L67.9253 8.13683C69.5606 8.17851 70.6975 9.77894 70.1985 11.3367L51.5059 69.6851C51.1736 70.7225 50.1968 71.4164 49.1078 71.3887L19.4697 70.6325C17.8345 70.5909 16.6976 68.9904 17.1967 67.4326L35.8892 9.08424C36.2216 8.04676 37.1983 7.35293 38.2873 7.38069Z" fill="#FCFFFF" stroke="black" stroke-width="0.402609"/>
<path d="M63.2123 9.55766L42.7228 9.03496C41.7756 9.0108 40.8003 9.73073 40.5444 10.643L40.5444 10.643C40.2885 11.5552 40.8488 12.3143 41.796 12.3385L62.2855 12.8612C63.2326 12.8853 64.2079 12.1654 64.4638 11.2532C64.7198 10.3409 64.1594 9.58182 63.2123 9.55766Z" fill="black"/>
<path d="M56.2996 32.7117C58.5796 42.4804 54.0124 51.8967 46.0986 53.7438L42.7082 54.5351C34.7944 56.3821 26.5307 49.9604 24.2507 40.1917C21.9708 30.4231 26.5379 21.0068 34.4518 19.1597L37.8422 18.3684C45.7561 16.5214 54.0197 22.9431 56.2996 32.7117Z" fill="black" stroke="#040815" stroke-width="0.639034" stroke-linejoin="round"/>
<path d="M27.639 39.4004C25.3591 29.6318 29.9263 20.2154 37.8401 18.3684C45.7539 16.5213 54.0176 22.9431 56.2976 32.7117C58.5775 42.4804 54.0103 51.8967 46.0965 53.7438C38.1827 55.5908 29.919 49.1691 27.639 39.4004Z" fill="white" stroke="black" stroke-width="0.74554"/>
<path d="M43.8067 35.7612L40.8804 34.977C38.1414 34.2432 35.3543 35.7285 34.6679 38.2901L34.5947 38.5632C34.2286 39.9297 36.4212 40.5171 39.1967 41.2608L42.123 42.0449C44.7888 42.7593 47.0907 43.376 47.4573 42.0098L47.5306 41.736C48.2167 39.1755 46.5456 36.4951 43.8067 35.7612ZM44.2473 27.6792C42.0722 27.0964 39.86 28.2766 39.315 30.3104C38.7701 32.3442 40.0949 34.4726 42.2707 35.0556C44.4466 35.6386 46.6582 34.4578 47.2031 32.4241C47.748 30.3902 46.4221 28.2619 44.2473 27.6792Z" fill="#0B0B0B"/>
<path d="M39.0075 21.7812C32.8488 23.2187 29.3389 30.7373 31.1681 38.5747" stroke="#040815" stroke-width="0.46057"/>
<path d="M49.4326 25.4775C51.3247 27.5039 52.79 30.197 53.5163 33.309C55.3476 41.1559 51.7873 48.6944 45.5639 50.147C42.6524 50.8265 39.6738 50.0536 37.1406 48.235" stroke="#040815" stroke-width="0.46057" stroke-linecap="round"/>
<path d="M57.3105 19.1238C57.5878 18.2581 58.4016 17.6778 59.3104 17.6978L64.0007 17.8004C65.3727 17.8305 66.3294 19.1723 65.9108 20.4791L51.3088 66.0588C51.0315 66.9246 50.2178 67.5047 49.3089 67.4848L44.6186 67.3821C43.2467 67.3521 42.29 66.0104 42.7086 64.7035L57.3105 19.1238Z" fill="#FCFFFF"/>
<path d="M57.7756 17.6641L41.8672 67.3218" stroke="black" stroke-width="0.411115"/>
<path d="M22.0024 8.78564C21.2786 8.26126 20.2668 8.42286 19.7424 9.1466C19.2181 9.87033 19.3797 10.8821 20.1034 11.4065L23.3795 13.7802C24.1032 14.3046 25.115 14.143 25.6394 13.4192C26.1638 12.6955 26.0022 11.6837 25.2784 11.1593L22.0024 8.78564Z" fill="#FFA500" stroke="#040815" stroke-width="0.578346" stroke-linejoin="round"/>
<path d="M28.3843 5.20806C28.1119 4.35685 27.201 3.88765 26.3498 4.16006C25.4986 4.43248 25.0294 5.34336 25.3018 6.19457L26.535 10.0477C26.8074 10.8989 27.7183 11.3681 28.5695 11.0957C29.4207 10.8233 29.8899 9.91238 29.6175 9.06117L28.3843 5.20806Z" fill="#FFA500" stroke="#040815" stroke-width="0.578346" stroke-linejoin="round"/>
</g>
</svg>
