<svg width="18" height="18" viewBox="0 0 18 18" fill="none" xmlns="http://www.w3.org/2000/svg">
<mask id="mask0_1680_29853" style="mask-type:alpha" maskUnits="userSpaceOnUse" x="0" y="0" width="18" height="18">
<rect width="18" height="18" fill="#D9D9D9"/>
</mask>
<g mask="url(#mask0_1680_29853)">
</g>
<path d="M13.3382 11.7623C12.5716 11.7623 11.881 12.0934 11.4016 12.62L7.08996 9.94957C7.20507 9.65489 7.26891 9.33482 7.26891 8.99998C7.26891 8.66502 7.20507 8.34495 7.08996 8.0504L11.4016 5.37987C11.881 5.90648 12.5716 6.23766 13.3382 6.23766C14.7823 6.23766 15.9571 5.06286 15.9571 3.61877C15.9571 2.17468 14.7823 1 13.3382 1C11.8941 1 10.7193 2.1748 10.7193 3.61889C10.7193 3.95373 10.7833 4.2738 10.8983 4.56847L6.58678 7.23888C6.10741 6.71227 5.41674 6.38109 4.65014 6.38109C3.20605 6.38109 2.03125 7.55602 2.03125 8.99998C2.03125 10.4441 3.20605 11.6189 4.65014 11.6189C5.41674 11.6189 6.10741 11.2878 6.58678 10.7611L10.8983 13.4315C10.7833 13.7262 10.7193 14.0462 10.7193 14.3812C10.7193 15.8252 11.8941 17 13.3382 17C14.7823 17 15.9571 15.8252 15.9571 14.3812C15.9571 12.9371 14.7823 11.7623 13.3382 11.7623ZM11.6743 3.61889C11.6743 2.70141 12.4208 1.95495 13.3382 1.95495C14.2557 1.95495 15.0022 2.70141 15.0022 3.61889C15.0022 4.53637 14.2557 5.28283 13.3382 5.28283C12.4208 5.28283 11.6743 4.53637 11.6743 3.61889ZM4.65014 10.6639C3.73254 10.6639 2.98608 9.91746 2.98608 8.99998C2.98608 8.0825 3.73254 7.33605 4.65014 7.33605C5.56762 7.33605 6.31396 8.0825 6.31396 8.99998C6.31396 9.91746 5.56762 10.6639 4.65014 10.6639ZM11.6743 14.3811C11.6743 13.4636 12.4208 12.7171 13.3382 12.7171C14.2557 12.7171 15.0022 13.4636 15.0022 14.3811C15.0022 15.2986 14.2557 16.045 13.3382 16.045C12.4208 16.045 11.6743 15.2986 11.6743 14.3811Z" fill="black"/>
</svg>
