<svg width="50" height="50" viewBox="0 0 50 50" fill="none" xmlns="http://www.w3.org/2000/svg">
<path opacity="0.4" d="M22.834 4.39588L11.3757 8.68755C9.18815 9.52088 7.39648 12.1042 7.39648 14.4584V31.3334C7.39648 33.0209 8.50065 35.25 9.85482 36.25L21.3132 44.8125C23.334 46.3334 26.6465 46.3334 28.6673 44.8125L40.1257 36.25C41.4798 35.2292 42.584 33.0209 42.584 31.3334V14.4584C42.584 12.125 40.7923 9.52088 38.6048 8.70838L27.1465 4.41671C25.9798 3.95838 24.0215 3.95838 22.834 4.39588Z" fill="#FFA500"/>
<path d="M30.2077 21.8753C30.2077 19.0003 27.8743 16.667 24.9993 16.667C22.1243 16.667 19.791 19.0003 19.791 21.8753C19.791 24.2087 21.3327 26.1462 23.4368 26.8128V32.292C23.4368 33.1462 24.1452 33.8545 24.9993 33.8545C25.8535 33.8545 26.5618 33.1462 26.5618 32.292V26.8128C28.666 26.1462 30.2077 24.2087 30.2077 21.8753Z" fill="#FFA500"/>
</svg>
