<svg width="8" height="6" viewBox="0 0 8 6" fill="none" xmlns="http://www.w3.org/2000/svg">
<path d="M3.86146 2.41771C3.56979 2.41771 3.27812 2.53021 3.05729 2.75104L0.340625 5.46771C0.219792 5.58854 0.219792 5.78854 0.340625 5.90938C0.461458 6.03021 0.661458 6.03021 0.782292 5.90938L3.49896 3.19271C3.69896 2.99271 4.02396 2.99271 4.22396 3.19271L6.94062 5.90938C7.06146 6.03021 7.26146 6.03021 7.38229 5.90938C7.50312 5.78854 7.50312 5.58854 7.38229 5.46771L4.66563 2.75104C4.44479 2.53021 4.15313 2.41771 3.86146 2.41771Z" fill="#FFA500"/>
<path d="M3.86146 0.166732C3.56979 0.166732 3.27813 0.279232 3.05729 0.500065L0.340625 3.21673C0.219792 3.33757 0.219792 3.53757 0.340625 3.6584C0.461458 3.77923 0.661458 3.77923 0.782292 3.6584L3.49896 0.941732C3.69896 0.741732 4.02396 0.741732 4.22396 0.941732L6.94063 3.6584C7.06146 3.77923 7.26146 3.77923 7.38229 3.6584C7.50313 3.53757 7.50313 3.33757 7.38229 3.21673L4.66563 0.500065C4.44479 0.279232 4.15313 0.166732 3.86146 0.166732Z" fill="#FFA500"/>
</svg>
