<svg width="10" height="10" viewBox="0 0 10 10" fill="none" xmlns="http://www.w3.org/2000/svg">
<path d="M4.86146 5.58229C4.56979 5.58229 4.27812 5.46979 4.05729 5.24896L1.34062 2.53229C1.21979 2.41146 1.21979 2.21146 1.34062 2.09062C1.46146 1.96979 1.66146 1.96979 1.78229 2.09062L4.49896 4.80729C4.69896 5.00729 5.02396 5.00729 5.22396 4.80729L7.94062 2.09062C8.06146 1.96979 8.26146 1.96979 8.38229 2.09062C8.50312 2.21146 8.50312 2.41146 8.38229 2.53229L5.66563 5.24896C5.44479 5.46979 5.15313 5.58229 4.86146 5.58229Z" fill="#FFA500"/>
<path d="M4.86146 7.83327C4.56979 7.83327 4.27812 7.72077 4.05729 7.49993L1.34062 4.78327C1.21979 4.66243 1.21979 4.46243 1.34062 4.3416C1.46146 4.22077 1.66146 4.22077 1.78229 4.3416L4.49896 7.05827C4.69896 7.25827 5.02396 7.25827 5.22396 7.05827L7.94062 4.3416C8.06146 4.22077 8.26146 4.22077 8.38229 4.3416C8.50312 4.46243 8.50312 4.66243 8.38229 4.78327L5.66563 7.49993C5.44479 7.72077 5.15313 7.83327 4.86146 7.83327Z" fill="#FFA500"/>
</svg>
