<svg width="22" height="22" viewBox="0 0 22 22" fill="none" xmlns="http://www.w3.org/2000/svg">
<g clip-path="url(#clip0_5041_21301)">
<path d="M11 0C4.93457 0 0 4.93457 0 11C0 17.0654 4.93457 22 11 22C17.0654 22 22 17.0654 22 11C22 4.93457 17.0654 0 11 0ZM11 20.625C5.69276 20.625 1.375 16.3072 1.375 11C1.375 5.69276 5.69276 1.375 11 1.375C16.3072 1.375 20.625 5.69276 20.625 11C20.625 16.3072 16.3072 20.625 11 20.625ZM16.7946 14.3516C15.5926 16.4332 13.4265 17.676 11.0002 17.676C8.57377 17.6761 6.4075 16.4333 5.20545 14.3516C5.01557 14.0228 5.12819 13.6023 5.45699 13.4124C5.78587 13.2226 6.20632 13.3352 6.39611 13.664C7.34963 15.3152 9.07079 16.3011 11.0001 16.301C12.9294 16.301 14.6504 15.3152 15.6038 13.664C15.7937 13.3351 16.2142 13.2225 16.543 13.4124C16.8718 13.6023 16.9844 14.0227 16.7946 14.3516ZM5.09945 8.29052C5.09945 7.53203 5.71652 6.91492 6.47505 6.91492C7.23357 6.91492 7.85065 7.53199 7.85065 8.29052C7.85065 9.04905 7.23357 9.66612 6.47505 9.66612C5.71652 9.66612 5.09945 9.04905 5.09945 8.29052ZM16.9006 8.29052C16.9006 9.049 16.2835 9.66612 15.525 9.66612C14.7665 9.66612 14.1494 9.04905 14.1494 8.29052C14.1494 7.53199 14.7665 6.91492 15.525 6.91492C16.2835 6.91496 16.9006 7.53203 16.9006 8.29052Z" fill="black"/>
</g>
<defs>
<clipPath id="clip0_5041_21301">
<rect width="22" height="22" fill="white"/>
</clipPath>
</defs>
</svg>
