<svg width="55" height="55" viewBox="0 0 55 55" fill="none" xmlns="http://www.w3.org/2000/svg">
<circle cx="27.5" cy="27.5" r="27.5" fill="#FAFAFA"/>
<path d="M33 36.25H23C19.35 36.25 17.25 34.15 17.25 30.5V23.5C17.25 19.85 19.35 17.75 23 17.75H33C36.65 17.75 38.75 19.85 38.75 23.5V30.5C38.75 34.15 36.65 36.25 33 36.25ZM23 19.25C20.14 19.25 18.75 20.64 18.75 23.5V30.5C18.75 33.36 20.14 34.75 23 34.75H33C35.86 34.75 37.25 33.36 37.25 30.5V23.5C37.25 20.64 35.86 19.25 33 19.25H23Z" fill="#71839B"/>
<path d="M28.0027 27.87C27.1627 27.87 26.3127 27.61 25.6627 27.08L22.5327 24.58C22.2127 24.32 22.1527 23.85 22.4127 23.53C22.6727 23.21 23.1427 23.15 23.4627 23.41L26.5927 25.91C27.3527 26.52 28.6427 26.52 29.4027 25.91L32.5327 23.41C32.8527 23.15 33.3327 23.2 33.5827 23.53C33.8427 23.85 33.7927 24.33 33.4627 24.58L30.3327 27.08C29.6927 27.61 28.8427 27.87 28.0027 27.87Z" fill="#71839B"/>
</svg>
