<svg width="20" height="20" viewBox="0 0 20 20" fill="none" xmlns="http://www.w3.org/2000/svg">
<path d="M16.2493 6.66667C17.3999 6.66667 18.3327 5.73393 18.3327 4.58333C18.3327 3.43274 17.3999 2.5 16.2493 2.5C15.0988 2.5 14.166 3.43274 14.166 4.58333C14.166 5.73393 15.0988 6.66667 16.2493 6.66667Z" fill="#FFA500"/>
<path d="M16.2493 6.66667C17.3999 6.66667 18.3327 5.73393 18.3327 4.58333C18.3327 3.43274 17.3999 2.5 16.2493 2.5C15.0988 2.5 14.166 3.43274 14.166 4.58333C14.166 5.73393 15.0988 6.66667 16.2493 6.66667Z" fill="#FFA500"/>
<path opacity="0.4" d="M17.266 7.75832C17.791 7.59166 18.3327 8 18.3327 8.55833V12.925C18.3327 15.8417 16.666 17.0917 14.166 17.0917H5.83268C3.33268 17.0917 1.66602 15.8417 1.66602 12.925V7.09165C1.66602 4.17499 3.33268 2.92499 5.83268 2.92499H12.1743C12.716 2.92499 13.0827 3.425 12.9827 3.95C12.8827 4.44166 12.8994 4.96666 13.0494 5.50833C13.3577 6.62499 14.266 7.51665 15.3827 7.80832C16.041 7.97499 16.6827 7.94166 17.266 7.75832Z" fill="#FFA500"/>
<path d="M10.001 10.725C9.30095 10.725 8.59262 10.5083 8.05096 10.0667L5.44262 7.98333C5.17595 7.76667 5.12596 7.375 5.34262 7.10833C5.55929 6.84166 5.95095 6.79167 6.21761 7.00833L8.82595 9.09167C9.45928 9.6 10.5343 9.6 11.1676 9.09167L12.1509 8.30833C12.4176 8.09167 12.8176 8.13333 13.026 8.40833C13.2426 8.675 13.201 9.075 12.926 9.28333L11.9426 10.0667C11.4093 10.5083 10.701 10.725 10.001 10.725Z" fill="#FFA500"/>
</svg>
