<svg width="20" height="20" viewBox="0 0 20 20" fill="none" xmlns="http://www.w3.org/2000/svg">
<path d="M10.0003 11.5417C9.89196 11.5417 9.78363 11.5167 9.69196 11.4584C9.39196 11.2834 9.29196 10.9001 9.45863 10.6084L10.167 9.37508H9.46696C9.05029 9.37508 8.70863 9.19175 8.52529 8.88341C8.34196 8.56675 8.35863 8.18341 8.56696 7.81675L9.45863 6.26675C9.63363 5.96675 10.017 5.86675 10.3086 6.03341C10.6086 6.20841 10.7086 6.59175 10.542 6.88341L9.83363 8.12508H10.5336C10.9503 8.12508 11.292 8.30841 11.4753 8.61675C11.6586 8.93341 11.642 9.31675 11.4336 9.68341L10.542 11.2334C10.4253 11.4334 10.217 11.5417 10.0003 11.5417Z" fill="#FFA500"/>
<path d="M12.3047 16.4584H7.71302C7.34635 16.4584 6.87969 16.4167 6.57135 16.1001C6.27135 15.7917 6.27969 15.4084 6.28802 15.1501V14.4084C4.18802 13.0084 2.80469 10.5751 2.80469 8.25841C2.80469 6.06675 3.78802 4.01675 5.49635 2.64175C7.20469 1.26675 9.44635 0.75008 11.638 1.23341C13.7214 1.69175 15.5214 3.08341 16.4547 4.95841C18.263 8.60008 16.5214 12.5417 13.738 14.4167V15.0417C13.7464 15.2834 13.7547 15.7251 13.413 16.0751C13.1547 16.3251 12.788 16.4584 12.3047 16.4584ZM7.52969 15.2001C7.57135 15.2001 7.62969 15.2084 7.70469 15.2084H12.3047C12.388 15.2084 12.4464 15.2001 12.4797 15.1917C12.4797 15.1667 12.4797 15.1334 12.4797 15.1084V14.0584C12.4797 13.8417 12.5964 13.6334 12.7797 13.5251C15.2464 12.0334 16.8797 8.62508 15.3214 5.50008C14.5547 3.95841 13.0714 2.81675 11.3547 2.44175C9.53802 2.04175 7.67969 2.46675 6.26302 3.60841C4.84635 4.75008 4.03802 6.44175 4.03802 8.25841C4.03802 10.5751 5.63802 12.5751 7.22135 13.5334C7.41302 13.6501 7.52135 13.8501 7.52135 14.0667V15.1917C7.52969 15.1917 7.52969 15.1917 7.52969 15.2001Z" fill="#081131"/>
<path d="M12.9128 18.9583C12.8545 18.9583 12.7961 18.95 12.7378 18.9333C10.9378 18.4166 9.04614 18.4166 7.24614 18.9333C6.91281 19.025 6.57114 18.8333 6.47114 18.5C6.37114 18.1666 6.57114 17.825 6.90448 17.725C8.92114 17.15 11.0628 17.15 13.0795 17.725C13.4128 17.8166 13.6045 18.1666 13.5128 18.5C13.4378 18.7833 13.1878 18.9583 12.9128 18.9583Z" fill="#081131"/>
</svg>
