<svg width="62" height="62" viewBox="0 0 62 62" fill="none" xmlns="http://www.w3.org/2000/svg">
<circle cx="31" cy="31" r="31" fill="#FFA500" fill-opacity="0.07"/>
<path d="M48.3178 24.5671C48.3178 30.5781 43.4453 35.4506 37.4343 35.4506C37.1496 35.4506 36.8483 35.4338 36.5636 35.4171C36.145 30.1093 31.892 25.8564 26.5843 25.4378C26.5675 25.1531 26.5508 24.8517 26.5508 24.5671C26.5508 18.556 31.4232 13.6836 37.4343 13.6836C43.4453 13.6836 48.3178 18.556 48.3178 24.5671Z" fill="#FFA500"/>
<path opacity="0.4" d="M36.5971 36.2878C36.5971 42.2988 31.7246 47.1713 25.7136 47.1713C19.7025 47.1713 14.8301 42.2988 14.8301 36.2878C14.8301 30.2768 19.7025 25.4043 25.7136 25.4043C25.9982 25.4043 26.2996 25.421 26.5842 25.4378C31.892 25.8564 36.145 30.1093 36.5636 35.4171C36.5803 35.7017 36.5971 36.0031 36.5971 36.2878Z" fill="#FFA500"/>
<path d="M24.2403 34.8141L25.7138 32.1016L27.1873 34.8141L29.8997 36.2875L27.1873 37.761L25.7138 40.4735L24.2403 37.761L21.5278 36.2875L24.2403 34.8141Z" fill="#FFA500"/>
</svg>
