<svg width="20" height="20" viewBox="0 0 20 20" fill="none" xmlns="http://www.w3.org/2000/svg">
<mask id="mask0_129_22006" style="mask-type:alpha" maskUnits="userSpaceOnUse" x="0" y="0" width="20" height="20">
<rect width="20" height="20" fill="#D9D9D9"/>
</mask>
<g mask="url(#mask0_129_22006)">
<path d="M7.41615 19.8243H3.27865C2.39459 19.8243 1.54674 19.4731 0.921623 18.848C0.296502 18.2229 -0.0546875 17.3751 -0.0546875 16.491V12.3243C-0.0546875 11.4403 0.296502 10.5924 0.921623 9.96731C1.54674 9.34219 2.39459 8.991 3.27865 8.991H10.6595C11.1105 8.99121 11.5538 9.10784 11.9465 9.3296C12.3392 9.55136 12.668 9.87074 12.9011 10.2568L15.582 7.311C15.8037 7.06715 16.0713 6.8694 16.3696 6.72905C16.6678 6.58869 16.9907 6.50848 17.3199 6.493C17.6492 6.47752 17.9782 6.52708 18.2883 6.63884C18.5983 6.7506 18.8833 6.92237 19.127 7.14433C19.6131 7.59094 19.9045 8.21057 19.9383 8.86985C19.9721 9.52912 19.7457 10.1753 19.3078 10.6693L13.6411 17.0335C12.8587 17.911 11.8997 18.6133 10.8269 19.0942C9.75413 19.5752 8.59181 19.824 7.41615 19.8243ZM3.27865 10.6577C2.83662 10.6577 2.4127 10.8333 2.10013 11.1458C1.78757 11.4584 1.61198 11.8823 1.61198 12.3243V16.491C1.61198 16.933 1.78757 17.3569 2.10013 17.6695C2.4127 17.9821 2.83662 18.1577 3.27865 18.1577H7.41615C8.35608 18.1573 9.28533 17.9583 10.143 17.5737C11.0006 17.1891 11.7673 16.6276 12.3928 15.926L18.0636 9.561C18.2109 9.39515 18.2871 9.17812 18.2759 8.95664C18.2646 8.73516 18.1669 8.52694 18.0036 8.37683C17.8377 8.2276 17.62 8.14898 17.397 8.15766C17.2864 8.16234 17.1779 8.18899 17.0777 8.23607C16.9776 8.28314 16.8878 8.34969 16.8136 8.43183L13.1253 12.491C12.9634 12.9391 12.6828 13.3349 12.3136 13.6361C11.9443 13.9372 11.5002 14.1325 11.0286 14.201L6.72781 14.816C6.50901 14.8474 6.2867 14.7906 6.10979 14.658C5.93288 14.5255 5.81586 14.3281 5.78448 14.1093C5.7531 13.8905 5.80992 13.6682 5.94244 13.4913C6.07497 13.3144 6.27234 13.1974 6.49115 13.166L10.7928 12.5518C11.0316 12.5184 11.2488 12.3957 11.4006 12.2083C11.5523 12.021 11.6273 11.783 11.6104 11.5425C11.5934 11.302 11.4859 11.0769 11.3094 10.9126C11.1328 10.7484 10.9006 10.6573 10.6595 10.6577H3.27865Z" fill="#71839B"/>
<mask id="mask1_129_22006" style="mask-type:alpha" maskUnits="userSpaceOnUse" x="-7" y="-5" width="30" height="18">
<rect x="22.9766" y="6.98242" width="28.1154" height="12.2241" transform="rotate(168.595 22.9766 6.98242)" fill="#D9D9D9"/>
</mask>
<g mask="url(#mask1_129_22006)">
<path d="M10.9852 12.4137C12.1702 12.1747 13.2577 11.5896 14.1101 10.7325C14.9626 9.87541 15.5418 8.78478 15.7744 7.59852C16.007 6.41227 15.8826 5.18368 15.417 4.0681C14.9514 2.95253 14.1654 2.00009 13.1585 1.33122C12.1515 0.662342 10.9689 0.30708 9.76002 0.310355C8.55118 0.313631 7.37045 0.675296 6.36716 1.34962C5.36386 2.02394 4.58305 2.98062 4.12348 4.0987C3.6639 5.21678 3.54619 6.44603 3.78524 7.63101C4.1074 9.21914 5.0464 10.6146 6.39621 11.5112C7.74602 12.4079 9.39639 12.7324 10.9852 12.4137ZM8.76938 1.42958C9.75686 1.23038 10.7812 1.32847 11.713 1.71145C12.6447 2.09443 13.4419 2.7451 14.0039 3.58118C14.5658 4.41727 14.8672 5.4012 14.8699 6.40857C14.8727 7.41594 14.5766 8.4015 14.0192 9.24061C13.4618 10.0797 12.6681 10.7347 11.7385 11.1227C10.8088 11.5108 9.785 11.6144 8.79645 11.4205C7.80791 11.2267 6.89905 10.7441 6.1848 10.0337C5.47055 9.32328 4.983 8.41705 4.78379 7.42957C4.51821 6.10555 4.78869 4.73025 5.53588 3.60542C6.28307 2.48058 7.44595 1.69807 8.76938 1.42958Z" fill="#71839B"/>
</g>
</g>
<path d="M15 6C15 12.5 12.2614 10 9.5 10C5 10 4 8.76142 4 6C4 3.23858 6.23858 1 9 1C11.7614 1 15 3.23858 15 6Z" fill="#71839B"/>
</svg>
