<svg width="20" height="20" viewBox="0 0 20 20" fill="none" xmlns="http://www.w3.org/2000/svg">
<path d="M18.337 7.08268C18.337 9.79935 16.337 12.041 13.737 12.4327V12.3827C13.4786 9.14935 10.8536 6.52435 7.59531 6.26602H7.57031C7.96198 3.66602 10.2036 1.66602 12.9203 1.66602C15.912 1.66602 18.337 4.09102 18.337 7.08268Z" fill="#71839B"/>
<path d="M12.4807 12.4833C12.2724 9.84167 10.1557 7.725 7.51406 7.51667C7.3724 7.50833 7.2224 7.5 7.08073 7.5C4.08906 7.5 1.66406 9.925 1.66406 12.9167C1.66406 15.9083 4.08906 18.3333 7.08073 18.3333C10.0724 18.3333 12.4974 15.9083 12.4974 12.9167C12.4974 12.775 12.4891 12.625 12.4807 12.4833ZM7.81406 13.65L7.08073 15L6.3474 13.65L4.9974 12.9167L6.3474 12.1833L7.08073 10.8333L7.81406 12.1833L9.16406 12.9167L7.81406 13.65Z" fill="#71839B"/>
</svg>
