<svg xmlns="http://www.w3.org/2000/svg" xmlns:xlink="http://www.w3.org/1999/xlink" width="17" height="17" viewBox="0 0 17 17">
  <defs>
    <clipPath id="clip-path">
      <rect id="Rectangle_19228" data-name="Rectangle 19228" width="17" height="17" transform="translate(1109 731)" fill="#6e3333" opacity="0.33"/>
    </clipPath>
  </defs>
  <g id="Mask_Group_216" data-name="Mask Group 216" transform="translate(-1109 -731)" clip-path="url(#clip-path)">
    <g id="Group_59493" data-name="Group 59493" transform="translate(972.195 -177.372)">
      <g id="Group_59492" data-name="Group 59492" transform="translate(139.952 909.372)">
        <path id="Path_43182" data-name="Path 43182" d="M149.865,917.818A4.953,4.953,0,1,0,141.5,915.3a5.21,5.21,0,0,0,.857,1.941c.133.2,1.824-.186,3.985,0C147.69,917.363,149.558,918.127,149.865,917.818Zm-4.328-7.539a4.127,4.127,0,0,1,4.255,6.33,1.729,1.729,0,0,1-1.155.906,12.465,12.465,0,0,1-3.1-.263,7,7,0,0,1-2.094,0,4.129,4.129,0,0,1,2.094-6.973Z" transform="translate(-141.401 -909.372)" fill="#777e90" stroke="#777e90" stroke-width="0.5"/>
      </g>
      <path id="Path_43520" data-name="Path 43520" d="M142.668,927.016h-3.174a2.557,2.557,0,0,1-2.557-2.557v-3.2a2.557,2.557,0,0,1,2.557-2.557h5.661a2.007,2.007,0,0,1,1.719.971l2.056-2.26a1.924,1.924,0,0,1,2.858,2.576l-4.347,4.881a6.4,6.4,0,0,1-4.774,2.141Zm-3.174-7.031a1.278,1.278,0,0,0-1.278,1.278v3.2a1.278,1.278,0,0,0,1.278,1.278h3.174a5.119,5.119,0,0,0,3.817-1.712l4.35-4.882a.65.65,0,0,0-.046-.908.649.649,0,0,0-.711-.108.633.633,0,0,0-.2.15l-2.83,3.113a2.019,2.019,0,0,1-1.608,1.312l-3.3.472a.639.639,0,1,1-.181-1.266l3.3-.471a.73.73,0,0,0-.1-1.453Z" transform="translate(0.867 -1.83)" fill="#777e90"/>
    </g>
  </g>
</svg>
