<svg width="20" height="20" viewBox="0 0 20 20" fill="none" xmlns="http://www.w3.org/2000/svg">
<path d="M12.9161 13.125C12.7661 13.125 12.5995 13.1167 12.4495 13.1084C12.1411 13.0917 11.8911 12.8417 11.8661 12.5334C11.6828 10.2084 9.79114 8.325 7.47447 8.14167C7.16614 8.11667 6.91614 7.86668 6.89947 7.55835C6.89114 7.40835 6.88281 7.24169 6.88281 7.09169C6.88281 3.75835 9.59115 1.05002 12.9245 1.05002C16.2578 1.05002 18.9661 3.75835 18.9661 7.09169C18.9661 10.425 16.2495 13.125 12.9161 13.125ZM8.12447 6.96666C10.6078 7.40833 12.5995 9.39168 13.0328 11.875C15.6245 11.8083 17.7078 9.69168 17.7078 7.08334C17.7078 4.44168 15.5578 2.29168 12.9161 2.29168C10.3161 2.29168 8.19114 4.375 8.12447 6.96666Z" fill="#71839B"/>
<path d="M7.08464 18.9583C3.7513 18.9583 1.04297 16.25 1.04297 12.9167C1.04297 9.58333 3.7513 6.875 7.08464 6.875C7.23464 6.875 7.4013 6.88332 7.5513 6.89166C10.493 7.12499 12.8763 9.50834 13.1013 12.4333C13.1096 12.6 13.118 12.7667 13.118 12.9167C13.1263 16.25 10.418 18.9583 7.08464 18.9583ZM7.08464 8.125C4.44297 8.125 2.29297 10.275 2.29297 12.9167C2.29297 15.5583 4.44297 17.7083 7.08464 17.7083C9.7263 17.7083 11.8763 15.5583 11.8763 12.9167C11.8763 12.7833 11.868 12.65 11.8596 12.5167C11.6763 10.2083 9.78463 8.31667 7.46796 8.13334C7.35129 8.13334 7.21797 8.125 7.08464 8.125Z" fill="#71839B"/>
<path d="M7.08333 15.625C6.85833 15.625 6.64166 15.5 6.53333 15.3L5.88333 14.1167L4.70001 13.4667C4.50001 13.3584 4.375 13.15 4.375 12.9167C4.375 12.6834 4.50001 12.475 4.70001 12.3667L5.88333 11.7167L6.53333 10.5334C6.75 10.1334 7.40834 10.1334 7.63334 10.5334L8.28334 11.7167L9.46665 12.3667C9.66665 12.475 9.79167 12.6834 9.79167 12.9167C9.79167 13.15 9.66665 13.3584 9.46665 13.4667L8.28334 14.1167L7.63334 15.3C7.525 15.5 7.30833 15.625 7.08333 15.625ZM6.3 12.9167L6.64167 13.1084C6.75 13.1667 6.83332 13.25 6.89166 13.3584L7.08333 13.7L7.27501 13.3584C7.33334 13.25 7.41667 13.1667 7.525 13.1084L7.86667 12.9167L7.525 12.725C7.41667 12.6667 7.33334 12.5834 7.27501 12.475L7.08333 12.1334L6.89166 12.475C6.83332 12.5834 6.75 12.6667 6.64167 12.725L6.3 12.9167Z" fill="#71839B"/>
</svg>
