<svg width="70" height="70" viewBox="0 0 70 70" fill="none" xmlns="http://www.w3.org/2000/svg">
<circle cx="35" cy="35" r="35" fill="white"/>
<g clip-path="url(#clip0_5305_12667)">
<path d="M44.5 27.6H46.9V33.65H44.5H44.4V33.75V38.65H24.6V33.75V33.65H24.5H22.1V27.6H24.5H24.6V27.5V26.25C24.6 24.2377 26.2377 22.6 28.25 22.6H33.25H33.35V22.5V20.1H35.65V22.5V22.6H35.75H40.75C42.7623 22.6 44.4 24.2377 44.4 26.25V27.5V27.6H44.5ZM26.9 36.25V36.35H27H42H42.1V36.25V26.25C42.1 25.5047 41.4939 24.9 40.75 24.9H28.25C27.5061 24.9 26.9 25.5047 26.9 26.25V36.25ZM45.65 46.25V49.9H43.35V46.25C43.35 44.816 42.184 43.65 40.75 43.65H28.25C26.816 43.65 25.65 44.816 25.65 46.25V49.9H23.35V46.25C23.35 43.5477 25.5477 41.35 28.25 41.35H40.75C43.4523 41.35 45.65 43.5477 45.65 46.25ZM29.6 30.625C29.6 29.6452 30.3952 28.85 31.375 28.85C32.3548 28.85 33.15 29.6452 33.15 30.625C33.15 31.6048 32.3548 32.4 31.375 32.4C30.3952 32.4 29.6 31.6048 29.6 30.625ZM35.85 30.625C35.85 29.6452 36.6452 28.85 37.625 28.85C38.6048 28.85 39.4 29.6452 39.4 30.625C39.4 31.6048 38.6048 32.4 37.625 32.4C36.6452 32.4 35.85 31.6048 35.85 30.625Z" fill="#292D32" stroke="white" stroke-width="0.2"/>
</g>
<defs>
<clipPath id="clip0_5305_12667">
<rect width="30" height="30" fill="white" transform="translate(23.0312 23.0264)"/>
</clipPath>
</defs>
</svg>
