<svg width="156" height="44" viewBox="0 0 156 44" fill="none" xmlns="http://www.w3.org/2000/svg">
<g clip-path="url(#clip0_0_5175)">
<path fill-rule="evenodd" clip-rule="evenodd" d="M18.2331 5.70062L8.04346 21.9908L18.2331 38.2809H137.767L147.957 21.9908L137.767 5.70062H18.2331ZM21.2809 11.4013L14.6622 21.9908L21.2809 32.5803H134.701L141.32 21.9908L134.701 11.4013H21.2809Z" fill="url(#paint0_linear_0_5175)"/>
<path fill-rule="evenodd" clip-rule="evenodd" d="M134.719 11.4012L147.794 32.3405V35.1262L133.908 12.914L134.719 11.4012Z" fill="url(#paint1_linear_0_5175)"/>
<path fill-rule="evenodd" clip-rule="evenodd" d="M147.794 32.3405L134.719 11.4013L135.513 9.88849L147.794 29.5363V32.3405Z" fill="url(#paint2_linear_0_5175)"/>
<path fill-rule="evenodd" clip-rule="evenodd" d="M1.74936 21.9908L8.20578 11.6595V8.85535L0 21.9908H1.74936Z" fill="url(#paint3_linear_0_5175)"/>
<path fill-rule="evenodd" clip-rule="evenodd" d="M8.20578 11.6595L1.74936 21.9908H3.49872L8.20578 14.4637V11.6595Z" fill="url(#paint4_linear_0_5175)"/>
<path fill-rule="evenodd" clip-rule="evenodd" d="M21.2809 32.5987L8.20578 11.6595V8.85535L22.0925 31.086L21.2809 32.5987Z" fill="url(#paint5_linear_0_5175)"/>
<path fill-rule="evenodd" clip-rule="evenodd" d="M8.20578 11.6595L21.2809 32.5987L20.4874 34.0931L8.20578 14.4637V11.6595Z" fill="url(#paint6_linear_0_5175)"/>
<path fill-rule="evenodd" clip-rule="evenodd" d="M8.04346 21.9908L18.2331 38.2994L17.4215 39.7937L6.31213 21.9908H8.04346Z" fill="url(#paint7_linear_0_5175)"/>
<path fill-rule="evenodd" clip-rule="evenodd" d="M18.2331 38.2994L8.04346 21.9908H9.79282L19.0446 36.7866L18.2331 38.2994Z" fill="url(#paint8_linear_0_5175)"/>
<path fill-rule="evenodd" clip-rule="evenodd" d="M18.2331 38.2994H137.767L138.56 39.7937H17.4215L18.2331 38.2994Z" fill="url(#paint9_linear_0_5175)"/>
<path fill-rule="evenodd" clip-rule="evenodd" d="M137.767 38.2993H18.2331L19.0446 36.7866H136.955L137.767 38.2993Z" fill="url(#paint10_linear_0_5175)"/>
<path fill-rule="evenodd" clip-rule="evenodd" d="M136.955 36.7866L146.207 21.9908H147.938L137.767 38.2994L136.955 36.7866Z" fill="url(#paint11_linear_0_5175)"/>
<path fill-rule="evenodd" clip-rule="evenodd" d="M137.767 38.2994L147.939 21.9908H149.688L138.56 39.7937L137.767 38.2994Z" fill="url(#paint12_linear_0_5175)"/>
<path fill-rule="evenodd" clip-rule="evenodd" d="M21.2809 11.4012L8.20578 32.3405V35.1262L22.0925 12.914L21.2809 11.4012Z" fill="url(#paint13_linear_0_5175)"/>
<path fill-rule="evenodd" clip-rule="evenodd" d="M8.20578 32.3405L21.2809 11.4013L20.4874 9.88849L8.20578 29.5363V32.3405Z" fill="url(#paint14_linear_0_5175)"/>
<path fill-rule="evenodd" clip-rule="evenodd" d="M21.2809 11.4013H134.719L135.513 9.88849H20.4874L21.2809 11.4013Z" fill="url(#paint15_linear_0_5175)"/>
<path fill-rule="evenodd" clip-rule="evenodd" d="M134.719 11.4012H21.2809L22.0925 12.914H133.907L134.719 11.4012Z" fill="url(#paint16_linear_0_5175)"/>
<path fill-rule="evenodd" clip-rule="evenodd" d="M21.2809 32.5988H134.719L135.513 34.0931H20.4874L21.2809 32.5988Z" fill="url(#paint17_linear_0_5175)"/>
<path fill-rule="evenodd" clip-rule="evenodd" d="M134.719 32.5987H21.2809L22.0925 31.0859H133.907L134.719 32.5987Z" fill="url(#paint18_linear_0_5175)"/>
<path fill-rule="evenodd" clip-rule="evenodd" d="M1.74936 21.9908L8.20578 32.3405V35.1262L0 21.9908H1.74936Z" fill="url(#paint19_linear_0_5175)"/>
<path fill-rule="evenodd" clip-rule="evenodd" d="M8.20578 32.3405L1.74936 21.9908H3.49872L8.20578 29.5363V32.3405Z" fill="url(#paint20_linear_0_5175)"/>
<path fill-rule="evenodd" clip-rule="evenodd" d="M154.251 21.9908L147.794 11.6595V8.85535L156 21.9908H154.251Z" fill="url(#paint21_linear_0_5175)"/>
<path fill-rule="evenodd" clip-rule="evenodd" d="M147.794 11.6595L154.251 21.9908H152.501L147.794 14.4637V11.6595Z" fill="url(#paint22_linear_0_5175)"/>
<path fill-rule="evenodd" clip-rule="evenodd" d="M154.251 21.9908L147.794 32.3405V35.1262L156 21.9908H154.251Z" fill="url(#paint23_linear_0_5175)"/>
<path fill-rule="evenodd" clip-rule="evenodd" d="M147.794 32.3405L154.251 21.9908H152.501L147.794 29.5363V32.3405Z" fill="url(#paint24_linear_0_5175)"/>
<path fill-rule="evenodd" clip-rule="evenodd" d="M8.04346 21.9908L18.2331 5.70065L17.4215 4.18787L6.31213 21.9908H8.04346Z" fill="url(#paint25_linear_0_5175)"/>
<path fill-rule="evenodd" clip-rule="evenodd" d="M18.2331 5.70062L8.04346 21.9908H9.79282L19.0446 7.21341L18.2331 5.70062Z" fill="url(#paint26_linear_0_5175)"/>
<path fill-rule="evenodd" clip-rule="evenodd" d="M18.2331 5.70065H137.767L138.56 4.18787H17.4215L18.2331 5.70065Z" fill="url(#paint27_linear_0_5175)"/>
<path fill-rule="evenodd" clip-rule="evenodd" d="M137.767 5.70062H18.2331L19.0446 7.21341H136.955L137.767 5.70062Z" fill="url(#paint28_linear_0_5175)"/>
<path fill-rule="evenodd" clip-rule="evenodd" d="M136.955 7.21341L146.207 21.9908H147.938L137.767 5.70062L136.955 7.21341Z" fill="url(#paint29_linear_0_5175)"/>
<path fill-rule="evenodd" clip-rule="evenodd" d="M137.767 5.70065L147.939 21.9908H149.688L138.56 4.18787L137.767 5.70065Z" fill="url(#paint30_linear_0_5175)"/>
<path fill-rule="evenodd" clip-rule="evenodd" d="M134.719 32.5987L147.794 11.6595V8.85535L133.908 31.086L134.719 32.5987Z" fill="url(#paint31_linear_0_5175)"/>
<path fill-rule="evenodd" clip-rule="evenodd" d="M147.794 11.6595L134.719 32.5987L135.513 34.0931L147.794 14.4637V11.6595Z" fill="url(#paint32_linear_0_5175)"/>
<path fill-rule="evenodd" clip-rule="evenodd" d="M18.2331 5.70061L16.1591 6.21717L16.6641 2.76727L18.2331 5.70061Z" fill="url(#paint33_linear_0_5175)"/>
<path fill-rule="evenodd" clip-rule="evenodd" d="M18.233 5.70061L19.784 4.18782L16.664 2.76727L18.233 5.70061Z" fill="url(#paint34_linear_0_5175)"/>
<path fill-rule="evenodd" clip-rule="evenodd" d="M137.767 5.70061L139.841 6.21717L139.336 2.76727L137.767 5.70061Z" fill="url(#paint35_linear_0_5175)"/>
<path fill-rule="evenodd" clip-rule="evenodd" d="M137.767 5.70061L136.216 4.18782L139.336 2.76727L137.767 5.70061Z" fill="url(#paint36_linear_0_5175)"/>
<path fill-rule="evenodd" clip-rule="evenodd" d="M18.2331 38.2994L16.1591 37.7828L16.6641 41.2327L18.2331 38.2994Z" fill="url(#paint37_linear_0_5175)"/>
<path fill-rule="evenodd" clip-rule="evenodd" d="M18.233 38.2994L19.784 39.7937L16.664 41.2327L18.233 38.2994Z" fill="url(#paint38_linear_0_5175)"/>
<path fill-rule="evenodd" clip-rule="evenodd" d="M137.767 38.2994L139.841 37.7828L139.336 41.2327L137.767 38.2994Z" fill="url(#paint39_linear_0_5175)"/>
<path fill-rule="evenodd" clip-rule="evenodd" d="M137.767 38.2994L136.216 39.7937L139.336 41.2327L137.767 38.2994Z" fill="url(#paint40_linear_0_5175)"/>
<g style="mix-blend-mode:screen" opacity="0.35">
<path fill-rule="evenodd" clip-rule="evenodd" d="M78 9.88848H20.4874C20.7218 8.83691 26.1864 8.63397 78 8.63397C129.814 8.63397 135.296 8.83691 135.513 9.88848H78Z" fill="#FF9566"/>
</g>
<g style="mix-blend-mode:screen" opacity="0.35">
<path fill-rule="evenodd" clip-rule="evenodd" d="M78 36.7866H19.0446C19.2791 35.735 24.8698 35.5321 78 35.5321C131.13 35.5321 136.721 35.735 136.955 36.7866H78Z" fill="#FF9566"/>
</g>
<path style="mix-blend-mode:multiply" fill-rule="evenodd" clip-rule="evenodd" d="M11.3618 19.5002L12.9128 21.9908L14.6622 19.1866L13.1112 16.696L11.3618 19.5002ZM14.6622 24.795L16.2132 27.2856L17.9625 24.4814L16.4116 21.9908L14.6622 24.795Z" fill="url(#paint41_radial_0_5175)"/>
<path style="mix-blend-mode:multiply" fill-rule="evenodd" clip-rule="evenodd" d="M8.04346 24.795L9.59444 27.2855L11.3438 24.4814L9.79282 21.9908L8.04346 24.795ZM11.3438 30.0897L12.8948 32.5803L14.6441 29.7761L13.0932 27.2855L11.3438 30.0897Z" fill="url(#paint42_radial_0_5175)"/>
<path style="mix-blend-mode:multiply" fill-rule="evenodd" clip-rule="evenodd" d="M141.338 24.795L142.889 27.2855L144.638 24.4814L143.087 21.9908L141.338 24.795ZM144.638 30.0897L146.189 32.5803L147.938 29.7761L146.387 27.2855L144.638 30.0897Z" fill="url(#paint43_radial_0_5175)"/>
<path style="mix-blend-mode:multiply" fill-rule="evenodd" clip-rule="evenodd" d="M141.338 14.2054L142.889 16.696L144.638 13.8918L143.087 11.4012L141.338 14.2054ZM144.638 19.5002L146.189 21.9908L147.938 19.1866L146.387 16.696L144.638 19.5002Z" fill="url(#paint44_radial_0_5175)"/>
<path fill-rule="evenodd" clip-rule="evenodd" d="M78 0L83.5727 5.70063L78 11.4013L72.4273 5.70063L78 0ZM78 2.12159L74.5193 5.68218L78 9.24277L81.4807 5.68218L78 2.12159Z" fill="#999999"/>
<path fill-rule="evenodd" clip-rule="evenodd" d="M73.4733 5.70063L78 1.07002V0L72.4273 5.70063H73.4733Z" fill="url(#paint45_linear_0_5175)"/>
<path fill-rule="evenodd" clip-rule="evenodd" d="M78 1.07001L73.4733 5.70062H74.5193L78 2.12158V1.07001Z" fill="url(#paint46_linear_0_5175)"/>
<path fill-rule="evenodd" clip-rule="evenodd" d="M82.5267 5.70063L78 1.07002V0L83.5727 5.70063H82.5267Z" fill="url(#paint47_linear_0_5175)"/>
<path fill-rule="evenodd" clip-rule="evenodd" d="M78 1.07001L82.5267 5.70062H81.4807L78 2.12158V1.07001Z" fill="url(#paint48_linear_0_5175)"/>
<path fill-rule="evenodd" clip-rule="evenodd" d="M73.4733 5.70062L78 10.3312V11.4013L72.4273 5.70062H73.4733Z" fill="url(#paint49_linear_0_5175)"/>
<path fill-rule="evenodd" clip-rule="evenodd" d="M78 10.3312L73.4733 5.70062H74.5193L78 9.26121V10.3312Z" fill="url(#paint50_linear_0_5175)"/>
<path fill-rule="evenodd" clip-rule="evenodd" d="M82.5267 5.70062L78 10.3312V11.4013L83.5727 5.70062H82.5267Z" fill="url(#paint51_linear_0_5175)"/>
<path fill-rule="evenodd" clip-rule="evenodd" d="M78 10.3312L82.5267 5.70062H81.4807L78 9.26121V10.3312Z" fill="url(#paint52_linear_0_5175)"/>
<path fill-rule="evenodd" clip-rule="evenodd" d="M74.5193 5.70062L78 2.12158L81.4807 5.70062L78 9.2612L74.5193 5.70062Z" fill="#990099"/>
<path fill-rule="evenodd" clip-rule="evenodd" d="M75.7457 5.70061L78 3.39453L80.2543 5.70061L78 8.00669L75.7457 5.70061Z" fill="url(#paint53_linear_0_5175)"/>
<path fill-rule="evenodd" clip-rule="evenodd" d="M75.7456 5.70062L78 3.39454V2.12158L74.5193 5.70062H75.7456Z" fill="url(#paint54_linear_0_5175)"/>
<path fill-rule="evenodd" clip-rule="evenodd" d="M80.2543 5.70062L78 3.39454V2.12158L81.4807 5.70062H80.2543Z" fill="url(#paint55_linear_0_5175)"/>
<path fill-rule="evenodd" clip-rule="evenodd" d="M75.7456 5.70062L78 7.98825V9.26121L74.5193 5.70062H75.7456Z" fill="url(#paint56_linear_0_5175)"/>
<path fill-rule="evenodd" clip-rule="evenodd" d="M80.2543 5.70062L78 7.98825V9.26121L81.4807 5.70062H80.2543Z" fill="url(#paint57_linear_0_5175)"/>
<path fill-rule="evenodd" clip-rule="evenodd" d="M78 32.5988L83.5727 38.2994L78 44L72.4273 38.2994L78 32.5988ZM78 34.7203L74.5193 38.2809L78 41.8415L81.4807 38.2809L78 34.7203Z" fill="#999999"/>
<path fill-rule="evenodd" clip-rule="evenodd" d="M73.4733 38.2994L78 33.6503V32.5988L72.4273 38.2994H73.4733Z" fill="url(#paint58_linear_0_5175)"/>
<path fill-rule="evenodd" clip-rule="evenodd" d="M78 33.6503L73.4733 38.2994H74.5193L78 34.7204V33.6503Z" fill="url(#paint59_linear_0_5175)"/>
<path fill-rule="evenodd" clip-rule="evenodd" d="M82.5267 38.2994L78 33.6503V32.5988L83.5727 38.2994H82.5267Z" fill="url(#paint60_linear_0_5175)"/>
<path fill-rule="evenodd" clip-rule="evenodd" d="M78 33.6503L82.5267 38.2994H81.4807L78 34.7204V33.6503Z" fill="url(#paint61_linear_0_5175)"/>
<path fill-rule="evenodd" clip-rule="evenodd" d="M73.4733 38.2994L78 42.93V44L72.4273 38.2994H73.4733Z" fill="url(#paint62_linear_0_5175)"/>
<path fill-rule="evenodd" clip-rule="evenodd" d="M78 42.93L73.4733 38.2994H74.5193L78 41.86V42.93Z" fill="url(#paint63_linear_0_5175)"/>
<path fill-rule="evenodd" clip-rule="evenodd" d="M82.5267 38.2994L78 42.93V44L83.5727 38.2994H82.5267Z" fill="url(#paint64_linear_0_5175)"/>
<path fill-rule="evenodd" clip-rule="evenodd" d="M78 42.93L82.5267 38.2994H81.4807L78 41.86V42.93Z" fill="url(#paint65_linear_0_5175)"/>
<path fill-rule="evenodd" clip-rule="evenodd" d="M74.5193 38.2994L78 34.7203L81.4807 38.2994L78 41.86L74.5193 38.2994Z" fill="#990099"/>
<path fill-rule="evenodd" clip-rule="evenodd" d="M75.7457 38.2994L78 35.9933L80.2543 38.2994L78 40.587L75.7457 38.2994Z" fill="url(#paint66_linear_0_5175)"/>
<path fill-rule="evenodd" clip-rule="evenodd" d="M75.7456 38.2994L78 35.9933V34.7203L74.5193 38.2994H75.7456Z" fill="url(#paint67_linear_0_5175)"/>
<path fill-rule="evenodd" clip-rule="evenodd" d="M80.2543 38.2994L78 35.9933V34.7203L81.4807 38.2994H80.2543Z" fill="url(#paint68_linear_0_5175)"/>
<path fill-rule="evenodd" clip-rule="evenodd" d="M75.7456 38.2809L78 40.587V41.86L74.5193 38.2809H75.7456Z" fill="url(#paint69_linear_0_5175)"/>
<path fill-rule="evenodd" clip-rule="evenodd" d="M80.2543 38.2809L78 40.587V41.86L81.4807 38.2809H80.2543Z" fill="url(#paint70_linear_0_5175)"/>
</g>
<defs>
<linearGradient id="paint0_linear_0_5175" x1="78" y1="38.2994" x2="78" y2="5.70062" gradientUnits="userSpaceOnUse">
<stop stop-color="#750016"/>
<stop offset="1" stop-color="#45000D"/>
</linearGradient>
<linearGradient id="paint1_linear_0_5175" x1="140.851" y1="35.1262" x2="140.851" y2="11.4012" gradientUnits="userSpaceOnUse">
<stop stop-color="#6E4500"/>
<stop offset="1" stop-color="#CF9353"/>
</linearGradient>
<linearGradient id="paint2_linear_0_5175" x1="141.248" y1="32.3405" x2="141.248" y2="9.88849" gradientUnits="userSpaceOnUse">
<stop stop-color="#AB671C"/>
<stop offset="1" stop-color="#784C00"/>
</linearGradient>
<linearGradient id="paint3_linear_0_5175" x1="4.11191" y1="21.9908" x2="4.11191" y2="8.85535" gradientUnits="userSpaceOnUse">
<stop stop-color="#F5AD24"/>
<stop offset="1" stop-color="#FFE56B"/>
</linearGradient>
<linearGradient id="paint4_linear_0_5175" x1="4.97757" y1="21.9908" x2="4.97757" y2="11.6595" gradientUnits="userSpaceOnUse">
<stop stop-color="#AB671C"/>
<stop offset="1" stop-color="#784C00"/>
</linearGradient>
<linearGradient id="paint5_linear_0_5175" x1="15.1491" y1="32.5987" x2="15.1491" y2="8.85535" gradientUnits="userSpaceOnUse">
<stop stop-color="#AB671C"/>
<stop offset="1" stop-color="#784C00"/>
</linearGradient>
<linearGradient id="paint6_linear_0_5175" x1="14.7524" y1="34.0931" x2="14.7524" y2="11.6595" gradientUnits="userSpaceOnUse">
<stop stop-color="#F5B41E"/>
<stop offset="1" stop-color="#D18900"/>
</linearGradient>
<linearGradient id="paint7_linear_0_5175" x1="12.2636" y1="39.7937" x2="12.2636" y2="21.9908" gradientUnits="userSpaceOnUse">
<stop stop-color="#F5B41E"/>
<stop offset="1" stop-color="#D18900"/>
</linearGradient>
<linearGradient id="paint8_linear_0_5175" x1="13.544" y1="38.2994" x2="13.544" y2="21.9908" gradientUnits="userSpaceOnUse">
<stop stop-color="#AB671C"/>
<stop offset="1" stop-color="#784C00"/>
</linearGradient>
<linearGradient id="paint9_linear_0_5175" x1="78" y1="39.7937" x2="78" y2="38.2994" gradientUnits="userSpaceOnUse">
<stop stop-color="#472D00"/>
<stop offset="1" stop-color="#784814"/>
</linearGradient>
<linearGradient id="paint10_linear_0_5175" x1="78" y1="38.2993" x2="78" y2="36.7866" gradientUnits="userSpaceOnUse">
<stop stop-color="#FFBE45"/>
<stop offset="1" stop-color="#FFF0AB"/>
</linearGradient>
<linearGradient id="paint11_linear_0_5175" x1="142.456" y1="38.2994" x2="142.456" y2="21.9908" gradientUnits="userSpaceOnUse">
<stop stop-color="#F5AD24"/>
<stop offset="1" stop-color="#FFE56B"/>
</linearGradient>
<linearGradient id="paint12_linear_0_5175" x1="143.736" y1="39.7937" x2="143.736" y2="21.9908" gradientUnits="userSpaceOnUse">
<stop stop-color="#784C00"/>
<stop offset="1" stop-color="#AB671C"/>
</linearGradient>
<linearGradient id="paint13_linear_0_5175" x1="15.1491" y1="35.1262" x2="15.1491" y2="11.4012" gradientUnits="userSpaceOnUse">
<stop stop-color="#E3A436"/>
<stop offset="1" stop-color="#784C00"/>
</linearGradient>
<linearGradient id="paint14_linear_0_5175" x1="14.7524" y1="32.3405" x2="14.7524" y2="9.88849" gradientUnits="userSpaceOnUse">
<stop stop-color="#F5AD24"/>
<stop offset="1" stop-color="#FFE56B"/>
</linearGradient>
<linearGradient id="paint15_linear_0_5175" x1="78" y1="11.4013" x2="78" y2="9.88849" gradientUnits="userSpaceOnUse">
<stop stop-color="#FFBE45"/>
<stop offset="1" stop-color="#FFF0AB"/>
</linearGradient>
<linearGradient id="paint16_linear_0_5175" x1="78" y1="12.914" x2="78" y2="-1.49237e-05" gradientUnits="userSpaceOnUse">
<stop stop-color="#6E4500"/>
<stop offset="1" stop-color="#CF9353"/>
</linearGradient>
<linearGradient id="paint17_linear_0_5175" x1="78" y1="34.0931" x2="78" y2="32.5988" gradientUnits="userSpaceOnUse">
<stop stop-color="#784C00"/>
<stop offset="1" stop-color="#AB671C"/>
</linearGradient>
<linearGradient id="paint18_linear_0_5175" x1="78" y1="32.5987" x2="78" y2="31.0859" gradientUnits="userSpaceOnUse">
<stop stop-color="#FFBE45"/>
<stop offset="1" stop-color="#FFF0AB"/>
</linearGradient>
<linearGradient id="paint19_linear_0_5175" x1="4.11191" y1="5.25869e-06" x2="4.11191" y2="21.9908" gradientUnits="userSpaceOnUse">
<stop stop-color="#6E4500"/>
<stop offset="1" stop-color="#CF9353"/>
</linearGradient>
<linearGradient id="paint20_linear_0_5175" x1="4.97757" y1="5.96928e-06" x2="4.97757" y2="21.9908" gradientUnits="userSpaceOnUse">
<stop stop-color="#AB671C"/>
<stop offset="1" stop-color="#784C00"/>
</linearGradient>
<linearGradient id="paint21_linear_0_5175" x1="151.888" y1="21.9908" x2="151.888" y2="8.85535" gradientUnits="userSpaceOnUse">
<stop stop-color="#AB671C"/>
<stop offset="1" stop-color="#784C00"/>
</linearGradient>
<linearGradient id="paint22_linear_0_5175" x1="151.022" y1="21.9908" x2="151.022" y2="11.6595" gradientUnits="userSpaceOnUse">
<stop stop-color="#6E4500"/>
<stop offset="1" stop-color="#CF9353"/>
</linearGradient>
<linearGradient id="paint23_linear_0_5175" x1="151.888" y1="35.1262" x2="151.888" y2="21.9908" gradientUnits="userSpaceOnUse">
<stop stop-color="#AB671C"/>
<stop offset="1" stop-color="#784C00"/>
</linearGradient>
<linearGradient id="paint24_linear_0_5175" x1="151.022" y1="32.3405" x2="151.022" y2="21.9908" gradientUnits="userSpaceOnUse">
<stop stop-color="#F5AD24"/>
<stop offset="1" stop-color="#FFE56B"/>
</linearGradient>
<linearGradient id="paint25_linear_0_5175" x1="12.2636" y1="2.57954e-05" x2="12.2636" y2="4.18787" gradientUnits="userSpaceOnUse">
<stop stop-color="#F5AD24"/>
<stop offset="1" stop-color="#FFE56B"/>
</linearGradient>
<linearGradient id="paint26_linear_0_5175" x1="13.544" y1="21.9908" x2="13.544" y2="5.70062" gradientUnits="userSpaceOnUse">
<stop stop-color="#AB671C"/>
<stop offset="1" stop-color="#784C00"/>
</linearGradient>
<linearGradient id="paint27_linear_0_5175" x1="78" y1="5.70065" x2="78" y2="4.18787" gradientUnits="userSpaceOnUse">
<stop stop-color="#FFF18F"/>
<stop offset="1" stop-color="#FFFAE3"/>
</linearGradient>
<linearGradient id="paint28_linear_0_5175" x1="78" y1="7.21341" x2="78" y2="5.70062" gradientUnits="userSpaceOnUse">
<stop stop-color="#6E4500"/>
<stop offset="1" stop-color="#CF9353"/>
</linearGradient>
<linearGradient id="paint29_linear_0_5175" x1="142.456" y1="21.9908" x2="142.456" y2="5.70062" gradientUnits="userSpaceOnUse">
<stop stop-color="#6E4500"/>
<stop offset="1" stop-color="#CF9353"/>
</linearGradient>
<linearGradient id="paint30_linear_0_5175" x1="143.736" y1="21.9908" x2="143.736" y2="4.18787" gradientUnits="userSpaceOnUse">
<stop stop-color="#AB671C"/>
<stop offset="1" stop-color="#784C00"/>
</linearGradient>
<linearGradient id="paint31_linear_0_5175" x1="140.851" y1="32.5987" x2="140.851" y2="1.36198e-06" gradientUnits="userSpaceOnUse">
<stop stop-color="#F5AD24"/>
<stop offset="1" stop-color="#FFE56B"/>
</linearGradient>
<linearGradient id="paint32_linear_0_5175" x1="141.248" y1="34.0931" x2="141.248" y2="11.6595" gradientUnits="userSpaceOnUse">
<stop stop-color="#E3A436"/>
<stop offset="1" stop-color="#784C00"/>
</linearGradient>
<linearGradient id="paint33_linear_0_5175" x1="16.1591" y1="4.483" x2="18.2331" y2="4.483" gradientUnits="userSpaceOnUse">
<stop stop-color="#FFF18F"/>
<stop offset="1" stop-color="#FFFAE3"/>
</linearGradient>
<linearGradient id="paint34_linear_0_5175" x1="16.664" y1="4.22472" x2="19.784" y2="4.22472" gradientUnits="userSpaceOnUse">
<stop stop-color="#F5AD24"/>
<stop offset="1" stop-color="#FFE56B"/>
</linearGradient>
<linearGradient id="paint35_linear_0_5175" x1="137.767" y1="4.483" x2="139.841" y2="4.483" gradientUnits="userSpaceOnUse">
<stop stop-color="#AB671C"/>
<stop offset="1" stop-color="#784C00"/>
</linearGradient>
<linearGradient id="paint36_linear_0_5175" x1="136.216" y1="4.22472" x2="139.336" y2="4.22472" gradientUnits="userSpaceOnUse">
<stop stop-color="#FFF18F"/>
<stop offset="1" stop-color="#FFFAE3"/>
</linearGradient>
<linearGradient id="paint37_linear_0_5175" x1="16.1591" y1="39.4986" x2="18.2331" y2="39.4986" gradientUnits="userSpaceOnUse">
<stop stop-color="#F5B41E"/>
<stop offset="1" stop-color="#D18900"/>
</linearGradient>
<linearGradient id="paint38_linear_0_5175" x1="16.664" y1="39.7568" x2="19.784" y2="39.7568" gradientUnits="userSpaceOnUse">
<stop stop-color="#472D00"/>
<stop offset="1" stop-color="#784814"/>
</linearGradient>
<linearGradient id="paint39_linear_0_5175" x1="137.767" y1="39.4986" x2="139.841" y2="39.4986" gradientUnits="userSpaceOnUse">
<stop stop-color="#784814"/>
<stop offset="1" stop-color="#472D00"/>
</linearGradient>
<linearGradient id="paint40_linear_0_5175" x1="136.216" y1="39.7568" x2="139.336" y2="39.7568" gradientUnits="userSpaceOnUse">
<stop stop-color="#784C00"/>
<stop offset="1" stop-color="#AB671C"/>
</linearGradient>
<radialGradient id="paint41_radial_0_5175" cx="0" cy="0" r="1" gradientUnits="userSpaceOnUse" gradientTransform="translate(14.6622 21.9908) scale(4.34636 4.44612)">
<stop stop-color="#80521A"/>
<stop offset="0.94" stop-color="white"/>
</radialGradient>
<radialGradient id="paint42_radial_0_5175" cx="0" cy="0" r="1" gradientUnits="userSpaceOnUse" gradientTransform="translate(11.3618 27.2855) scale(4.34636 4.44612)">
<stop stop-color="#80521A"/>
<stop offset="0.94" stop-color="white"/>
</radialGradient>
<radialGradient id="paint43_radial_0_5175" cx="0" cy="0" r="1" gradientUnits="userSpaceOnUse" gradientTransform="translate(144.638 27.2855) scale(4.34635 4.44612)">
<stop stop-color="#80521A"/>
<stop offset="0.94" stop-color="white"/>
</radialGradient>
<radialGradient id="paint44_radial_0_5175" cx="0" cy="0" r="1" gradientUnits="userSpaceOnUse" gradientTransform="translate(144.638 16.7145) scale(4.34635 4.44612)">
<stop stop-color="#80521A"/>
<stop offset="0.94" stop-color="white"/>
</radialGradient>
<linearGradient id="paint45_linear_0_5175" x1="72.4273" y1="2.84109" x2="1.80349" y2="2.84109" gradientUnits="userSpaceOnUse">
<stop stop-color="#FFF18F"/>
<stop offset="1" stop-color="#FFFAE3"/>
</linearGradient>
<linearGradient id="paint46_linear_0_5175" x1="73.4733" y1="3.37609" x2="78" y2="3.37609" gradientUnits="userSpaceOnUse">
<stop stop-color="#AB5F0B"/>
<stop offset="1" stop-color="#753C00"/>
</linearGradient>
<linearGradient id="paint47_linear_0_5175" x1="78" y1="2.84109" x2="83.5727" y2="2.84109" gradientUnits="userSpaceOnUse">
<stop stop-color="#EDA85F"/>
<stop offset="1" stop-color="#A36700"/>
</linearGradient>
<linearGradient id="paint48_linear_0_5175" x1="78" y1="3.37609" x2="82.5267" y2="3.37609" gradientUnits="userSpaceOnUse">
<stop stop-color="#A15900"/>
<stop offset="1" stop-color="#E39644"/>
</linearGradient>
<linearGradient id="paint49_linear_0_5175" x1="72.4273" y1="8.54171" x2="78" y2="8.54171" gradientUnits="userSpaceOnUse">
<stop stop-color="#EDA85F"/>
<stop offset="1" stop-color="#A36700"/>
</linearGradient>
<linearGradient id="paint50_linear_0_5175" x1="73.4733" y1="8.02515" x2="78" y2="8.02515" gradientUnits="userSpaceOnUse">
<stop stop-color="#6E4500"/>
<stop offset="1" stop-color="#CF9353"/>
</linearGradient>
<linearGradient id="paint51_linear_0_5175" x1="78" y1="8.54171" x2="83.5727" y2="8.54171" gradientUnits="userSpaceOnUse">
<stop stop-color="#AB5F0B"/>
<stop offset="1" stop-color="#753C00"/>
</linearGradient>
<linearGradient id="paint52_linear_0_5175" x1="78" y1="8.02515" x2="82.5267" y2="8.02515" gradientUnits="userSpaceOnUse">
<stop stop-color="#FFBE45"/>
<stop offset="1" stop-color="#FFF0AB"/>
</linearGradient>
<linearGradient id="paint53_linear_0_5175" x1="78" y1="8.00669" x2="78" y2="3.39453" gradientUnits="userSpaceOnUse">
<stop stop-color="#F72F2F"/>
<stop offset="1" stop-color="#FF8A8A"/>
</linearGradient>
<linearGradient id="paint54_linear_0_5175" x1="76.8818" y1="4.5568" x2="76.2363" y2="3.92575" gradientUnits="userSpaceOnUse">
<stop stop-color="#FF8C8C"/>
<stop offset="1" stop-color="#FF5252"/>
</linearGradient>
<linearGradient id="paint55_linear_0_5175" x1="78" y1="3.9111" x2="81.4807" y2="3.9111" gradientUnits="userSpaceOnUse">
<stop stop-color="#FF5E5E"/>
<stop offset="1" stop-color="#B80000"/>
</linearGradient>
<linearGradient id="paint56_linear_0_5175" x1="74.5193" y1="7.47169" x2="78" y2="7.47169" gradientUnits="userSpaceOnUse">
<stop stop-color="#FF5E5E"/>
<stop offset="1" stop-color="#B80000"/>
</linearGradient>
<linearGradient id="paint57_linear_0_5175" x1="79.7494" y1="7.47169" x2="79.1043" y2="6.85907" gradientUnits="userSpaceOnUse">
<stop stop-color="#FF6666"/>
<stop offset="1" stop-color="#DE0000"/>
</linearGradient>
<linearGradient id="paint58_linear_0_5175" x1="72.4273" y1="35.4398" x2="1.80349" y2="35.4398" gradientUnits="userSpaceOnUse">
<stop stop-color="#FFF18F"/>
<stop offset="1" stop-color="#FFFAE3"/>
</linearGradient>
<linearGradient id="paint59_linear_0_5175" x1="2.16565e-05" y1="35.9749" x2="1.80349" y2="35.9749" gradientUnits="userSpaceOnUse">
<stop stop-color="#AB5F0B"/>
<stop offset="1" stop-color="#753C00"/>
</linearGradient>
<linearGradient id="paint60_linear_0_5175" x1="-1.466e-06" y1="35.4398" x2="1.80347" y2="35.4398" gradientUnits="userSpaceOnUse">
<stop stop-color="#EDA85F"/>
<stop offset="1" stop-color="#A36700"/>
</linearGradient>
<linearGradient id="paint61_linear_0_5175" x1="5.61376e-05" y1="35.9749" x2="1.80352" y2="35.9749" gradientUnits="userSpaceOnUse">
<stop stop-color="#A15900"/>
<stop offset="1" stop-color="#E39644"/>
</linearGradient>
<linearGradient id="paint62_linear_0_5175" x1="72.4273" y1="41.1405" x2="78" y2="41.1405" gradientUnits="userSpaceOnUse">
<stop stop-color="#EDA85F"/>
<stop offset="1" stop-color="#A36700"/>
</linearGradient>
<linearGradient id="paint63_linear_0_5175" x1="73.4733" y1="40.6055" x2="78" y2="40.6055" gradientUnits="userSpaceOnUse">
<stop stop-color="#6E4500"/>
<stop offset="1" stop-color="#CF9353"/>
</linearGradient>
<linearGradient id="paint64_linear_0_5175" x1="78" y1="41.1405" x2="83.5727" y2="41.1405" gradientUnits="userSpaceOnUse">
<stop stop-color="#AB5F0B"/>
<stop offset="1" stop-color="#753C00"/>
</linearGradient>
<linearGradient id="paint65_linear_0_5175" x1="78" y1="40.6055" x2="82.5267" y2="40.6055" gradientUnits="userSpaceOnUse">
<stop stop-color="#FFBE45"/>
<stop offset="1" stop-color="#FFF0AB"/>
</linearGradient>
<linearGradient id="paint66_linear_0_5175" x1="7.12191e-06" y1="40.587" x2="1.87512" y2="36.0227" gradientUnits="userSpaceOnUse">
<stop stop-color="#F72F2F"/>
<stop offset="1" stop-color="#FF8A8A"/>
</linearGradient>
<linearGradient id="paint67_linear_0_5175" x1="76.8818" y1="37.1371" x2="76.2367" y2="36.5245" gradientUnits="userSpaceOnUse">
<stop stop-color="#FF8C8C"/>
<stop offset="1" stop-color="#FF5252"/>
</linearGradient>
<linearGradient id="paint68_linear_0_5175" x1="-1.67387e-05" y1="36.5099" x2="1.80345" y2="36.5099" gradientUnits="userSpaceOnUse">
<stop stop-color="#FF5E5E"/>
<stop offset="1" stop-color="#B80000"/>
</linearGradient>
<linearGradient id="paint69_linear_0_5175" x1="74.5193" y1="40.0705" x2="78" y2="40.0705" gradientUnits="userSpaceOnUse">
<stop stop-color="#FF5E5E"/>
<stop offset="1" stop-color="#B80000"/>
</linearGradient>
<linearGradient id="paint70_linear_0_5175" x1="79.7494" y1="40.0705" x2="79.1043" y2="39.4578" gradientUnits="userSpaceOnUse">
<stop stop-color="#FF6666"/>
<stop offset="1" stop-color="#DE0000"/>
</linearGradient>
<clipPath id="clip0_0_5175">
<rect width="156" height="44" fill="white"/>
</clipPath>
</defs>
</svg>
