<svg width="17" height="16" viewBox="0 0 17 16" fill="none" xmlns="http://www.w3.org/2000/svg">
<path d="M9.45304 1.15653L10.8726 3.99563C11.0639 4.38827 11.5773 4.76078 12.0102 4.84132L14.5775 5.26416C16.2186 5.53599 16.6011 6.72398 15.4232 7.91198L13.4197 9.91545C13.0875 10.2477 12.8962 10.9021 13.0069 11.3753L13.5808 13.8519C14.0339 15.8051 12.9868 16.5702 11.2652 15.5433L8.85905 14.1137C8.42614 13.8519 7.70126 13.8519 7.26835 14.1137L4.86216 15.5433C3.14058 16.5602 2.09354 15.8051 2.54658 13.8519L3.12045 11.3753C3.21105 10.892 3.01977 10.2376 2.68753 9.90539L0.684055 7.90191C-0.493869 6.72398 -0.111295 5.53599 1.52974 5.2541L4.09701 4.83125C4.52993 4.76078 5.04338 4.37821 5.23467 3.98556L6.65422 1.14647C7.42943 -0.383829 8.67783 -0.383829 9.45304 1.15653Z" fill="#FFA500"/>
</svg>
