<svg width="20" height="20" viewBox="0 0 20 20" fill="none" xmlns="http://www.w3.org/2000/svg">
<path d="M14.7181 18.8913C14.2764 18.8913 13.7097 18.7496 13.0014 18.3329L10.5097 16.8579C10.2514 16.7079 9.7514 16.7079 9.5014 16.8579L7.0014 18.3329C5.5264 19.2079 4.65973 18.8579 4.26807 18.5746C3.88473 18.2913 3.28473 17.5663 3.6764 15.8996L4.26807 13.3413C4.33473 13.0746 4.2014 12.6163 4.0014 12.4163L1.93473 10.3496C0.9014 9.31628 0.984734 8.43294 1.1264 7.99961C1.26807 7.56628 1.71807 6.79961 3.1514 6.55794L5.80973 6.11628C6.05973 6.07461 6.41807 5.80794 6.5264 5.58294L8.0014 2.64128C8.66807 1.29961 9.54307 1.09961 10.0014 1.09961C10.4597 1.09961 11.3347 1.29961 12.0014 2.64128L13.4681 5.57461C13.5847 5.79961 13.9431 6.06628 14.1931 6.10794L16.8514 6.54961C18.2931 6.79128 18.7431 7.55794 18.8764 7.99128C19.0097 8.42461 19.0931 9.30794 18.0681 10.3413L16.0014 12.4163C15.8014 12.6163 15.6764 13.0663 15.7347 13.3413L16.3264 15.8996C16.7097 17.5663 16.1181 18.2913 15.7347 18.5746C15.5264 18.7246 15.1931 18.8913 14.7181 18.8913ZM10.0014 15.4913C10.4097 15.4913 10.8181 15.5913 11.1431 15.7829L13.6347 17.2579C14.3597 17.6913 14.8181 17.6913 14.9931 17.5663C15.1681 17.4413 15.2931 16.9996 15.1097 16.1829L14.5181 13.6246C14.3597 12.9329 14.6181 12.0413 15.1181 11.5329L17.1847 9.46628C17.5931 9.05794 17.7764 8.65794 17.6931 8.38294C17.6014 8.10794 17.2181 7.88294 16.6514 7.79128L13.9931 7.34961C13.3514 7.24128 12.6514 6.72461 12.3597 6.14128L10.8931 3.20794C10.6264 2.67461 10.2931 2.35794 10.0014 2.35794C9.70973 2.35794 9.3764 2.67461 9.11807 3.20794L7.64307 6.14128C7.3514 6.72461 6.6514 7.24128 6.00973 7.34961L3.35973 7.79128C2.79307 7.88294 2.40973 8.10794 2.31807 8.38294C2.2264 8.65794 2.41807 9.06628 2.8264 9.46628L4.89307 11.5329C5.39307 12.0329 5.6514 12.9329 5.49307 13.6246L4.9014 16.1829C4.70973 17.0079 4.84307 17.4413 5.01807 17.5663C5.19307 17.6913 5.64307 17.6829 6.3764 17.2579L8.86807 15.7829C9.18473 15.5913 9.59307 15.4913 10.0014 15.4913Z" fill="#292D32"/>
</svg>
