<svg width="12" height="13" viewBox="0 0 12 13" fill="none" xmlns="http://www.w3.org/2000/svg">
<path d="M3.31067 5.38202H7.86172V6.62322H3.31067V5.38202Z" fill="#F9D423"/>
<path d="M7.86172 6.00262V6.62322H3.31067V5.38202H3.93127C3.93127 5.54661 3.99665 5.70446 4.11304 5.82085C4.22942 5.93723 4.38727 6.00262 4.55187 6.00262H7.86172Z" fill="#F9B53D"/>
<path d="M3.93176 4.55106H7.24162L10.1377 0H6.82789L3.93176 4.55106Z" fill="#1EC0FF"/>
<path d="M10.1377 0L7.24162 4.55106H3.93176L5.82252 1.58046L6.26521 2.2776C6.3586 2.42455 6.48757 2.54555 6.64017 2.62938C6.79278 2.71322 6.96407 2.75717 7.13819 2.75717C7.3123 2.75717 7.4836 2.71322 7.6362 2.62938C7.78881 2.54555 7.91778 2.42455 8.01116 2.2776L9.46129 0H10.1377Z" fill="#299CFC"/>
<path d="M4.96301 4.55106H6.20421L9.10034 0H7.85914L4.96301 4.55106Z" fill="#FF6464"/>
<path d="M7.36266 2.73529L6.20421 4.55364H4.96301L6.34074 2.38776C6.46242 2.53434 6.62229 2.6444 6.80266 2.70574C6.98302 2.76708 7.17684 2.7773 7.36266 2.73529Z" fill="#DB3056"/>
<path d="M10.0828 8.27809C10.0828 8.04533 9.9904 7.82211 9.82584 7.65751C9.66128 7.49291 9.43808 7.40041 9.20532 7.40035C9.43806 7.40035 9.66126 7.3079 9.82583 7.14333C9.99039 6.97876 10.0828 6.75556 10.0828 6.52283C10.0829 6.75558 10.1754 6.97878 10.34 7.14334C10.5046 7.30791 10.7278 7.40035 10.9606 7.40035C10.7278 7.40035 10.5045 7.49283 10.3399 7.65744C10.1753 7.82204 10.0828 8.0453 10.0828 8.27809Z" fill="#F9D423"/>
<path d="M10.7099 11.9989C10.7099 11.7662 10.6174 11.5429 10.4529 11.3783C10.2883 11.2137 10.0651 11.1212 9.83234 11.1212C10.0651 11.1212 10.2883 11.0287 10.4528 10.8642C10.6174 10.6996 10.7099 10.4764 10.7099 10.2437C10.7099 10.4764 10.8024 10.6996 10.967 10.8642C11.1316 11.0287 11.3548 11.1212 11.5876 11.1212C11.3548 11.1212 11.1316 11.2137 10.9669 11.3783C10.8023 11.5429 10.7099 11.7661 10.7099 11.9989Z" fill="#F9D423"/>
<path d="M0.877733 11.9989C0.877733 11.7661 0.785258 11.5429 0.620651 11.3783C0.456044 11.2137 0.232789 11.1212 0 11.1212C0.232753 11.1212 0.455977 11.0287 0.620578 10.8642C0.785179 10.6996 0.877678 10.4764 0.877733 10.2437C0.877733 10.4764 0.970186 10.6996 1.13475 10.8642C1.29932 11.0287 1.52252 11.1212 1.75526 11.1212C1.52251 11.1212 1.2993 11.2137 1.13474 11.3783C0.97018 11.5429 0.877733 11.7662 0.877733 11.9989Z" fill="#F9D423"/>
<path d="M1.70976 7.96461C1.70971 7.73186 1.61721 7.50865 1.45261 7.34409C1.28801 7.17953 1.06478 7.08708 0.832031 7.08708C1.06482 7.08708 1.28808 6.99461 1.45268 6.83C1.61729 6.66539 1.70976 6.44214 1.70976 6.20935C1.70976 6.4421 1.80221 6.66533 1.96677 6.82993C2.13134 6.99453 2.35454 7.08703 2.58729 7.08708C2.35456 7.08708 2.13135 7.17954 1.96679 7.34411C1.80222 7.50867 1.70976 7.73188 1.70976 7.96461Z" fill="#F9D423"/>
<path d="M5.58564 12.0016C7.18513 12.0016 8.48177 10.705 8.48177 9.10548C8.48177 7.50599 7.18513 6.20935 5.58564 6.20935C3.98615 6.20935 2.68951 7.50599 2.68951 9.10548C2.68951 10.705 3.98615 12.0016 5.58564 12.0016Z" fill="#F9D423"/>
<path d="M8.20346 10.3431C8.01661 10.738 7.74285 11.0854 7.40267 11.3595C7.0625 11.6336 6.66473 11.8272 6.23915 11.9257C5.81356 12.0243 5.3712 12.0253 4.94516 11.9287C4.51913 11.8321 4.12047 11.6404 3.77904 11.3679C3.4376 11.0954 3.16224 10.7492 2.97356 10.3552C2.78489 9.96115 2.68779 9.52957 2.68954 9.09272C2.69129 8.65587 2.79184 8.22508 2.98366 7.8326C3.17548 7.44012 3.45361 7.09612 3.79721 6.82635C3.51811 7.41617 3.44637 8.08295 3.59361 8.71863C3.74084 9.35432 4.09844 9.92165 4.60843 10.3287C5.11843 10.7357 5.75094 10.9586 6.40345 10.9612C7.05595 10.9638 7.69023 10.746 8.20346 10.3431Z" fill="#F9B53D"/>
<path d="M5.59027 11.1717C6.73276 11.1717 7.65893 10.2455 7.65893 9.10302C7.65893 7.96053 6.73276 7.03436 5.59027 7.03436C4.44778 7.03436 3.52161 7.96053 3.52161 9.10302C3.52161 10.2455 4.44778 11.1717 5.59027 11.1717Z" fill="#F9B53D"/>
<path d="M6.41775 10.9661C6.44465 10.9661 6.46947 10.9661 6.49636 10.964C6.21437 11.1023 5.90434 11.1738 5.59029 11.173C5.04165 11.173 4.51547 10.955 4.12752 10.5671C3.73958 10.1791 3.52163 9.65296 3.52163 9.10431C3.52087 8.94187 3.54033 8.77996 3.57955 8.62231C3.70668 9.28187 4.05951 9.87658 4.57744 10.3043C5.09536 10.732 5.74606 10.966 6.41775 10.9661Z" fill="#FC913A"/>
<path d="M7.65742 9.10165C7.65773 9.42358 7.58268 9.74112 7.43828 10.0288C7.29388 10.3166 7.08413 10.5665 6.82582 10.7586C7.09783 10.4013 7.24468 9.96444 7.24369 9.51538C7.24414 9.13082 7.13725 8.75377 6.93506 8.42665C6.73287 8.09953 6.4434 7.83534 6.09922 7.66379C5.75505 7.49224 5.36983 7.42014 4.98691 7.45562C4.60399 7.49109 4.23856 7.63273 3.93176 7.86459C4.19179 7.51667 4.55474 7.25943 4.96915 7.12934C5.38357 6.99924 5.82842 7.00288 6.24064 7.13976C6.65286 7.27663 7.01155 7.53979 7.26584 7.89192C7.52013 8.24405 7.65713 8.6673 7.65742 9.10165Z" fill="#FC913A"/>
<path d="M5.58336 7.68481L5.99957 8.52821L6.93026 8.66329L6.25691 9.31988L6.41578 10.2469L5.58336 9.80912L4.75093 10.2469L4.9098 9.31988L4.23645 8.66329L5.16714 8.52821L5.58336 7.68481Z" fill="#F9D423"/>
<path d="M5.58336 7.68481L5.79022 8.68729L6.93026 8.66329L5.99709 9.30789L6.41578 10.2469L5.58336 9.51475L4.75093 10.2469L5.16962 9.30789L4.23645 8.66329L5.37649 8.68729L5.58336 7.68481Z" fill="#EDE574"/>
<path d="M10.3845 7.61235C10.37 7.62476 10.3555 7.63717 10.341 7.65165C10.1771 7.81664 10.0849 8.03967 10.0845 8.27225C10.0844 8.15692 10.0616 8.04275 10.0173 7.93624C9.97307 7.82974 9.90828 7.733 9.82663 7.65155C9.74499 7.5701 9.64809 7.50553 9.54149 7.46153C9.43488 7.41754 9.32065 7.39497 9.20532 7.39514C9.43591 7.39486 9.65721 7.30426 9.82178 7.14276C9.87852 7.25532 9.95772 7.35506 10.0545 7.43582C10.1513 7.51658 10.2636 7.57666 10.3845 7.61235Z" fill="#F9B53D"/>
<path d="M11.0115 11.339C10.997 11.3514 10.9825 11.3639 10.968 11.3783C10.8041 11.5433 10.7119 11.7664 10.7115 11.9989C10.7114 11.8836 10.6886 11.7694 10.6443 11.6629C10.6001 11.5564 10.5353 11.4597 10.4536 11.3782C10.372 11.2968 10.2751 11.2322 10.1685 11.1882C10.0619 11.1442 9.94766 11.1217 9.83234 11.1218C10.0629 11.1215 10.2842 11.0309 10.4488 10.8694C10.5055 10.982 10.5847 11.0817 10.6815 11.1625C10.7783 11.2433 10.8906 11.3033 11.0115 11.339Z" fill="#F9B53D"/>
<path d="M1.96152 7.34801C1.80002 7.51259 1.70942 7.73389 1.70914 7.96448C1.70931 7.84915 1.68675 7.73492 1.64275 7.62831C1.59875 7.52171 1.53419 7.42481 1.45273 7.34317C1.37128 7.26152 1.27454 7.19673 1.16804 7.15248C1.06153 7.10823 0.947359 7.0854 0.832031 7.0853C1.06461 7.08489 1.28764 6.99271 1.45263 6.82878C1.46711 6.8143 1.47952 6.79982 1.49193 6.78534C1.52762 6.90623 1.5877 7.01853 1.66846 7.1153C1.74923 7.21208 1.84896 7.29128 1.96152 7.34801Z" fill="#F9B53D"/>
<path d="M1.2081 11.3087C1.18187 11.3292 1.157 11.3513 1.13363 11.3749C0.9697 11.5399 0.877517 11.7629 0.877112 11.9955C0.877003 11.7629 0.784558 11.5399 0.620091 11.3754C0.455624 11.211 0.232591 11.1185 0 11.1184C0.232582 11.118 0.455605 11.0258 0.620598 10.8619C0.644246 10.8385 0.666358 10.8136 0.686796 10.7874C0.733206 10.9055 0.80345 11.0127 0.893142 11.1024C0.982834 11.1921 1.09005 11.2623 1.2081 11.3087Z" fill="#F9B53D"/>
<path d="M7.8636 5.58197H7.44987V4.54764H6.97284V4.13391H7.65674C7.7116 4.13391 7.76422 4.15571 7.80302 4.1945C7.84181 4.2333 7.8636 4.28591 7.8636 4.34078V5.58197Z" fill="#F9D423"/>
<path d="M3.7244 5.58197H3.31067V4.34078C3.31067 4.28591 3.33246 4.2333 3.37126 4.1945C3.41005 4.15571 3.46267 4.13391 3.51754 4.13391H3.96188V4.54764H3.7244V5.58197Z" fill="#F9B53D"/>
<path d="M7.23723 4.55106H3.92738L1.03125 0H4.34111L7.23723 4.55106Z" fill="#A3DAFF"/>
<path d="M7.23723 4.55106H3.92738L1.03125 0H1.63323L2.35726 1.13776C2.84523 1.90467 3.50019 2.5514 4.27322 3.02961C5.04624 3.50783 5.91734 3.80517 6.82143 3.89943L7.23723 4.55106Z" fill="#1EC0FF"/>
<path d="M6.20574 4.55106H4.96455L2.06842 0H3.30962L6.20574 4.55106Z" fill="#FF8B7B"/>
<path d="M6.20803 4.55252H4.96683L3.77942 2.68658C4.33681 3.11446 4.96483 3.44142 5.63501 3.65265L6.20803 4.55252Z" fill="#FF6464"/>
</svg>
