<svg width="76" height="76" viewBox="0 0 76 76" fill="none" xmlns="http://www.w3.org/2000/svg">
<circle cx="38" cy="38" r="38" fill="#FFF7F0"/>
<path d="M42.8646 27.0833H34.1355C30.3438 27.0833 28.0834 29.3437 28.0834 33.1353V41.8541C28.0834 45.6562 30.3438 47.9166 34.1355 47.9166H42.8542C46.6459 47.9166 48.9063 45.6562 48.9063 41.8645V33.1353C48.9167 29.3437 46.6563 27.0833 42.8646 27.0833ZM43.5834 37.0103C43.5834 37.4166 43.2605 37.7395 42.8542 37.7395C42.448 37.7395 42.125 37.4166 42.125 37.0103V36.8228L39.2917 39.6562C39.1355 39.8124 38.9271 39.8853 38.7084 39.8645C38.4896 39.8437 38.2917 39.7291 38.1771 39.5416L37.1146 37.9583L34.6355 40.4374C34.4896 40.5833 34.3125 40.6458 34.125 40.6458C33.9375 40.6458 33.75 40.5728 33.6146 40.4374C33.3334 40.1562 33.3334 39.6978 33.6146 39.4062L36.7188 36.302C36.875 36.1458 37.0834 36.0728 37.3021 36.0937C37.5209 36.1145 37.7188 36.2291 37.8334 36.4166L38.8959 37.9999L41.0938 35.802H40.9063C40.5 35.802 40.1771 35.4791 40.1771 35.0728C40.1771 34.6666 40.5 34.3437 40.9063 34.3437H42.8438C42.9375 34.3437 43.0313 34.3645 43.125 34.3958C43.3021 34.4687 43.448 34.6145 43.5209 34.7916C43.5625 34.8853 43.573 34.9791 43.573 35.0728V37.0103H43.5834Z" fill="#FF9A3B"/>
</svg>
