<svg width="69" height="69" viewBox="0 0 69 69" fill="none" xmlns="http://www.w3.org/2000/svg">
<path fill-rule="evenodd" clip-rule="evenodd" d="M45.7442 5.03125H23.2551C19.6228 5.03125 16.582 7.4748 15.646 10.7812H11.874C8.08951 10.7812 5.11331 14.0158 5.42757 17.7872L6.0365 25.0941C6.37796 29.1919 9.80347 32.3438 13.9154 32.3438H16.1902C16.5795 38.1616 19.714 43.4594 24.6477 46.5989C27.021 48.1091 29.6548 49.0231 32.3435 49.3408V59.6562H24.4372C23.2463 59.6562 22.2809 60.6217 22.2809 61.8125C22.2809 63.0033 23.2463 63.9688 24.4372 63.9688H44.5623C45.7531 63.9688 46.7185 63.0033 46.7185 61.8125C46.7185 60.6217 45.7531 59.6562 44.5623 59.6562H36.656V49.3408C39.3444 49.0231 41.9782 48.1091 44.3515 46.5989C49.2853 43.4594 52.4199 38.1616 52.8092 32.3438H55.0839C59.1957 32.3438 62.6213 29.1919 62.9629 25.0941L63.5718 17.7872C63.886 14.0158 60.9098 10.7812 57.1255 10.7812H53.3535C52.4174 7.4748 49.3765 5.03125 45.7442 5.03125ZM23.2551 9.34375C21.2091 9.34375 19.5759 11.0495 19.6647 13.0936L20.4749 31.7271C20.674 36.3064 23.0961 40.4998 26.963 42.9605C31.5612 45.8867 37.438 45.8867 42.0363 42.9605C45.9032 40.4998 48.3254 36.3064 48.5243 31.7271L49.3345 13.0936C49.4233 11.0495 47.7903 9.34375 45.7442 9.34375H23.2551ZM55.0839 28.0312C56.953 28.0312 58.5101 26.5986 58.6653 24.736L59.2742 17.4291C59.3789 16.1719 58.3867 15.0938 57.1255 15.0938H53.5642L53.0018 28.0312H55.0839ZM13.9154 28.0312C12.0464 28.0312 10.4893 26.5986 10.3341 24.736L9.72518 17.4291C9.62042 16.1719 10.6125 15.0938 11.874 15.0938H15.4351L15.9976 28.0312H13.9154Z" fill="black"/>
<path d="M33 9H41V30L37 27L33 30V9Z" fill="#FFA500"/>
</svg>
