<svg width="40" height="40" viewBox="0 0 40 40" fill="none" xmlns="http://www.w3.org/2000/svg">
<circle cx="20" cy="20" r="20" fill="white"/>
<mask id="mask0_121_13234" style="mask-type:alpha" maskUnits="userSpaceOnUse" x="10" y="10" width="20" height="20">
<rect x="10" y="10" width="19.9861" height="20" rx="9.99306" fill="#D9D9D9"/>
</mask>
<g mask="url(#mask0_121_13234)">
<path d="M17.4105 29.8249H13.2758C12.3924 29.8249 11.5451 29.4737 10.9205 28.8486C10.2958 28.2235 9.94482 27.3757 9.94482 26.4916V22.3249C9.94482 21.4409 10.2958 20.593 10.9205 19.9679C11.5451 19.3428 12.3924 18.9916 13.2758 18.9916H20.6516C21.1022 18.9918 21.5452 19.1085 21.9377 19.3302V19.3302C22.5217 19.6602 23.3453 19.7586 23.7966 19.2623L25.5706 17.3116C25.7922 17.0678 26.0597 16.87 26.3577 16.7297C26.6557 16.5893 26.9784 16.5091 27.3074 16.4936C27.6364 16.4781 27.9652 16.5277 28.275 16.6394C28.5849 16.7512 28.8697 16.923 29.1132 17.1449C29.599 17.5915 29.8901 18.2112 29.9239 18.8705C29.9577 19.5297 29.7315 20.1759 29.2939 20.6699L23.6311 27.0341C22.8493 27.9116 21.8909 28.6139 20.8189 29.0948C19.7468 29.5758 18.5853 29.8246 17.4105 29.8249ZM13.2758 20.6583C12.8341 20.6583 12.4105 20.8339 12.0981 21.1464C11.7858 21.459 11.6103 21.8829 11.6103 22.3249V26.4916C11.6103 26.9336 11.7858 27.3576 12.0981 27.6701C12.4105 27.9827 12.8341 28.1583 13.2758 28.1583H17.4105C18.3498 28.1579 19.2784 27.9589 20.1354 27.5743C20.9925 27.1897 21.7586 26.6282 22.3837 25.9266L28.0506 19.5616C28.1977 19.3958 28.2739 19.1787 28.2626 18.9573C28.2514 18.7358 28.1537 18.5275 27.9906 18.3774C27.8247 18.2282 27.6073 18.1496 27.3844 18.1583C27.2739 18.163 27.1654 18.1896 27.0653 18.2367C26.9653 18.2837 26.8755 18.3503 26.8014 18.4324L24.0706 21.44C23.4401 22.1343 23.0311 23.0437 22.3045 23.6367V23.6367C21.9355 23.9378 21.4917 24.1331 21.0205 24.2016L16.7226 24.8166C16.504 24.848 16.2818 24.7912 16.105 24.6586C15.9282 24.5261 15.8113 24.3287 15.7799 24.1099C15.7486 23.8911 15.8054 23.6688 15.9378 23.4919C16.0702 23.315 16.2675 23.198 16.4861 23.1666L20.7848 22.5524C21.0234 22.5191 21.2405 22.3963 21.3921 22.2089C21.5438 22.0216 21.6187 21.7836 21.6018 21.5431C21.5849 21.3026 21.4774 21.0775 21.301 20.9132C21.1246 20.749 20.8925 20.6579 20.6516 20.6583H13.2758Z" fill="#081131"/>
<mask id="mask1_121_13234" style="mask-type:alpha" maskUnits="userSpaceOnUse" x="3" y="3" width="29" height="16">
<rect width="28.0966" height="12.2237" rx="6.11187" transform="matrix(-0.980226 0.197879 -0.197615 -0.98028 32.4585 14.4823)" fill="#D9D9D9"/>
</mask>
<g mask="url(#mask1_121_13234)">
<path d="M20.9752 22.413C22.1594 22.1739 23.2461 21.5889 24.098 20.7318C24.9498 19.8747 25.5286 18.784 25.7611 17.5978C25.9935 16.4115 25.8692 15.1829 25.4039 14.0674C24.9386 12.9518 24.1532 11.9994 23.147 11.3305C22.1407 10.6616 20.9589 10.3063 19.7509 10.3096C18.5429 10.3129 17.363 10.6746 16.3604 11.3489C15.3578 12.0232 14.5775 12.9799 14.1182 14.098C13.659 15.216 13.5414 16.4453 13.7802 17.6303C14.1022 19.2184 15.0405 20.6139 16.3894 21.5105C17.7383 22.4071 19.3875 22.7317 20.9752 22.413ZM18.7609 11.4289C19.7477 11.2296 20.7714 11.3277 21.7025 11.7107C22.6335 12.0937 23.4302 12.7444 23.9918 13.5805C24.5533 14.4165 24.8545 15.4005 24.8572 16.4078C24.86 17.4152 24.5641 18.4008 24.0071 19.2399C23.4501 20.079 22.6569 20.734 21.7279 21.122C20.7989 21.51 19.7758 21.6137 18.788 21.4198C17.8001 21.226 16.8919 20.7433 16.1781 20.0329C15.4644 19.3225 14.9772 18.4163 14.7781 17.4288C14.5127 16.1048 14.783 14.7295 15.5297 13.6047C16.2763 12.4798 17.4384 11.6973 18.7609 11.4289Z" fill="#081131"/>
</g>
</g>
<path d="M25.9907 16.5C25.9907 22.5 22.5307 20 19.4952 20C16.4597 20 13.999 20.5 13.999 18C13.999 15.5 15.498 11 19.4952 11C22.5307 11 25.9907 13.7386 25.9907 16.5Z" fill="#081131"/>
</svg>
