<svg width="40" height="40" viewBox="0 0 40 40" fill="none" xmlns="http://www.w3.org/2000/svg">
<circle cx="20" cy="20" r="20" fill="white"/>
<path d="M23.4915 11.6667H16.5082C13.4748 11.6667 11.6665 13.475 11.6665 16.5084V23.4834C11.6665 26.525 13.4748 28.3334 16.5082 28.3334H23.4832C26.5165 28.3334 28.3248 26.525 28.3248 23.4917V16.5084C28.3332 13.475 26.5248 11.6667 23.4915 11.6667ZM24.0665 19.6084C24.0665 19.9334 23.8082 20.1917 23.4832 20.1917C23.1582 20.1917 22.8998 19.9334 22.8998 19.6084V19.4584L20.6332 21.725C20.5082 21.85 20.3415 21.9084 20.1665 21.8917C19.9915 21.875 19.8332 21.7834 19.7415 21.6334L18.8915 20.3667L16.9082 22.35C16.7915 22.4667 16.6498 22.5167 16.4998 22.5167C16.3498 22.5167 16.1998 22.4584 16.0915 22.35C15.8665 22.125 15.8665 21.7584 16.0915 21.525L18.5748 19.0417C18.6998 18.9167 18.8665 18.8584 19.0415 18.875C19.2165 18.8917 19.3748 18.9834 19.4665 19.1334L20.3165 20.4L22.0748 18.6417H21.9248C21.5998 18.6417 21.3415 18.3834 21.3415 18.0584C21.3415 17.7334 21.5998 17.475 21.9248 17.475H23.4748C23.5498 17.475 23.6248 17.4917 23.6998 17.5167C23.8415 17.575 23.9582 17.6917 24.0165 17.8334C24.0498 17.9084 24.0582 17.9834 24.0582 18.0584V19.6084H24.0665Z" fill="#081131"/>
</svg>
