<svg width="429" height="221" viewBox="0 0 429 221" fill="none" xmlns="http://www.w3.org/2000/svg">
<path d="M71 40H424" stroke="white" stroke-opacity="0.37"/>
<path d="M71 10H424" stroke="white" stroke-opacity="0.37" stroke-dasharray="6 6"/>
<path d="M71 71H424" stroke="white" stroke-opacity="0.37"/>
<path d="M71 101H424" stroke="white" stroke-opacity="0.37"/>
<path d="M71 131H424" stroke="white" stroke-opacity="0.37"/>
<path d="M71 162H424" stroke="white" stroke-opacity="0.37"/>
<path d="M71 192H424" stroke="white" stroke-opacity="0.37" stroke-dasharray="6 6"/>
<rect x="170" y="159" width="8" height="33" fill="#FFE8BD"/>
<rect x="189" y="129" width="8" height="63" fill="#FFE8BD"/>
<rect x="234" y="129" width="8" height="63" fill="#FFE8BD"/>
<rect x="257" y="129" width="9" height="63" fill="#FFE8BD"/>
<rect x="282" y="129" width="7" height="63" fill="#FFE8BD"/>
<rect x="333" y="98" width="8" height="94" fill="#FFE8BD"/>
<rect x="354" y="68" width="8" height="124" fill="#FFE8BD"/>
<rect x="375" y="40" width="8" height="152" fill="#FFE8BD"/>
<path d="M71 89.8495H95.4737C95.739 89.8495 95.9933 89.9549 96.1809 90.1424L164.083 158.044C164.572 158.534 165.4 158.39 165.695 157.763L213.559 56.1262C213.878 55.4488 214.801 55.3494 215.257 55.9433L311.776 181.657C312.184 182.189 312.99 182.176 313.381 181.632L401.027 59.767C401.153 59.5925 401.331 59.4631 401.536 59.398L427.93 51" stroke="#FFC73D" stroke-width="2" stroke-linecap="round"/>
<path d="M95.4737 89.8495H72C71.4477 89.8495 71 90.2972 71 90.8495V181.724C71 182.276 71.4477 182.724 72 182.724H426.93C427.482 182.724 427.93 182.276 427.93 181.724V52.3676C427.93 51.6908 427.272 51.2094 426.627 51.4147L401.536 59.398C401.331 59.4631 401.153 59.5925 401.027 59.767L313.381 181.632C312.99 182.176 312.184 182.189 311.776 181.657L215.257 55.9433C214.801 55.3494 213.878 55.4488 213.559 56.1262L165.695 157.763C165.4 158.39 164.573 158.534 164.083 158.044L96.1809 90.1424C95.9933 89.9549 95.739 89.8495 95.4737 89.8495Z" fill="url(#paint0_linear_121_13178)"/>
<circle cx="115" cy="109" r="13" fill="#0ECB81"/>
<circle cx="144" cy="135" r="13" fill="#0ECB81"/>
<circle cx="183" cy="125" r="13" fill="#FF5B5B"/>
<circle cx="200" cy="95" r="13" fill="#FF5B5B"/>
<circle cx="238" cy="87" r="13" fill="#0ECB81"/>
<circle cx="266" cy="122" r="13" fill="#0ECB81"/>
<circle cx="300" cy="165" r="13" fill="#0ECB81"/>
<circle cx="341" cy="144" r="13" fill="#FF5B5B"/>
<circle cx="367" cy="106" r="13" fill="#FF5B5B"/>
<circle cx="396" cy="68" r="13" fill="#FF5B5B"/>
<path d="M189.204 216V206.228H193.404C194.309 206.228 195.009 206.494 195.504 207.026C195.999 207.558 196.246 208.272 196.246 209.168C196.246 210.064 195.999 210.778 195.504 211.31C195.009 211.842 194.309 212.108 193.404 212.108H190.786V216H189.204ZM190.786 210.722H193.306C193.707 210.722 194.02 210.619 194.244 210.414C194.468 210.199 194.58 209.896 194.58 209.504V208.832C194.58 208.44 194.468 208.141 194.244 207.936C194.02 207.721 193.707 207.614 193.306 207.614H190.786V210.722ZM197.733 216V208.72H199.259V210.12H199.329C199.431 209.747 199.646 209.42 199.973 209.14C200.299 208.86 200.752 208.72 201.331 208.72H201.737V210.19H201.135C200.528 210.19 200.061 210.288 199.735 210.484C199.417 210.68 199.259 210.969 199.259 211.352V216H197.733ZM205.88 216.168C205.376 216.168 204.914 216.079 204.494 215.902C204.083 215.725 203.733 215.473 203.444 215.146C203.154 214.81 202.93 214.409 202.772 213.942C202.613 213.466 202.534 212.939 202.534 212.36C202.534 211.781 202.613 211.259 202.772 210.792C202.93 210.316 203.154 209.915 203.444 209.588C203.733 209.252 204.083 208.995 204.494 208.818C204.914 208.641 205.376 208.552 205.88 208.552C206.384 208.552 206.841 208.641 207.252 208.818C207.672 208.995 208.026 209.252 208.316 209.588C208.605 209.915 208.829 210.316 208.988 210.792C209.146 211.259 209.226 211.781 209.226 212.36C209.226 212.939 209.146 213.466 208.988 213.942C208.829 214.409 208.605 214.81 208.316 215.146C208.026 215.473 207.672 215.725 207.252 215.902C206.841 216.079 206.384 216.168 205.88 216.168ZM205.88 214.908C206.402 214.908 206.822 214.749 207.14 214.432C207.457 214.105 207.616 213.62 207.616 212.976V211.744C207.616 211.1 207.457 210.619 207.14 210.302C206.822 209.975 206.402 209.812 205.88 209.812C205.357 209.812 204.937 209.975 204.62 210.302C204.302 210.619 204.144 211.1 204.144 211.744V212.976C204.144 213.62 204.302 214.105 204.62 214.432C204.937 214.749 205.357 214.908 205.88 214.908ZM211.222 209.966H210.116V208.72H211.222V207.516C211.222 206.928 211.376 206.471 211.684 206.144C211.992 205.808 212.454 205.64 213.07 205.64H214.274V206.886H212.748V208.72H217.074V216H215.548V209.966H212.748V216H211.222V209.966ZM216.318 207.418C216.001 207.418 215.767 207.343 215.618 207.194C215.478 207.045 215.408 206.853 215.408 206.62V206.382C215.408 206.149 215.478 205.957 215.618 205.808C215.767 205.659 216.001 205.584 216.318 205.584C216.635 205.584 216.864 205.659 217.004 205.808C217.144 205.957 217.214 206.149 217.214 206.382V206.62C217.214 206.853 217.144 207.045 217.004 207.194C216.864 207.343 216.635 207.418 216.318 207.418ZM221.268 216C220.736 216 220.335 215.865 220.064 215.594C219.793 215.314 219.658 214.922 219.658 214.418V209.966H218.524V208.72H219.14C219.392 208.72 219.565 208.664 219.658 208.552C219.761 208.44 219.812 208.258 219.812 208.006V206.732H221.184V208.72H222.71V209.966H221.184V214.754H222.598V216H221.268ZM230.712 216.168C229.891 216.168 229.191 216.019 228.612 215.72C228.043 215.421 227.553 215.02 227.142 214.516L228.234 213.494C228.579 213.914 228.957 214.231 229.368 214.446C229.788 214.661 230.264 214.768 230.796 214.768C231.421 214.768 231.893 214.628 232.21 214.348C232.527 214.068 232.686 213.69 232.686 213.214C232.686 212.831 232.574 212.528 232.35 212.304C232.126 212.08 231.729 211.912 231.16 211.8L230.292 211.646C229.34 211.469 228.626 211.156 228.15 210.708C227.674 210.26 227.436 209.644 227.436 208.86C227.436 208.431 227.515 208.043 227.674 207.698C227.842 207.343 228.071 207.049 228.36 206.816C228.659 206.573 229.018 206.387 229.438 206.256C229.858 206.125 230.329 206.06 230.852 206.06C231.589 206.06 232.229 206.191 232.77 206.452C233.311 206.704 233.773 207.073 234.156 207.558L233.05 208.538C232.798 208.211 232.49 207.95 232.126 207.754C231.762 207.558 231.309 207.46 230.768 207.46C230.208 207.46 229.774 207.572 229.466 207.796C229.158 208.02 229.004 208.347 229.004 208.776C229.004 209.187 229.13 209.495 229.382 209.7C229.634 209.896 230.026 210.045 230.558 210.148L231.426 210.33C232.406 210.517 233.12 210.834 233.568 211.282C234.025 211.73 234.254 212.346 234.254 213.13C234.254 213.587 234.175 214.003 234.016 214.376C233.857 214.749 233.624 215.071 233.316 215.342C233.017 215.603 232.649 215.809 232.21 215.958C231.771 216.098 231.272 216.168 230.712 216.168ZM238.03 216C237.498 216 237.097 215.865 236.826 215.594C236.555 215.314 236.42 214.922 236.42 214.418V209.966H235.286V208.72H235.902C236.154 208.72 236.327 208.664 236.42 208.552C236.523 208.44 236.574 208.258 236.574 208.006V206.732H237.946V208.72H239.472V209.966H237.946V214.754H239.36V216H238.03ZM246.461 216C246.06 216 245.752 215.888 245.537 215.664C245.322 215.431 245.192 215.137 245.145 214.782H245.075C244.935 215.239 244.678 215.585 244.305 215.818C243.932 216.051 243.479 216.168 242.947 216.168C242.191 216.168 241.608 215.972 241.197 215.58C240.796 215.188 240.595 214.661 240.595 213.998C240.595 213.27 240.856 212.724 241.379 212.36C241.911 211.996 242.686 211.814 243.703 211.814H245.019V211.198C245.019 210.75 244.898 210.405 244.655 210.162C244.412 209.919 244.034 209.798 243.521 209.798C243.092 209.798 242.742 209.891 242.471 210.078C242.2 210.265 241.972 210.503 241.785 210.792L240.875 209.966C241.118 209.555 241.458 209.219 241.897 208.958C242.336 208.687 242.91 208.552 243.619 208.552C244.562 208.552 245.285 208.771 245.789 209.21C246.293 209.649 246.545 210.279 246.545 211.1V214.754H247.315V216H246.461ZM243.381 215.006C243.857 215.006 244.249 214.903 244.557 214.698C244.865 214.483 245.019 214.199 245.019 213.844V212.794H243.731C242.676 212.794 242.149 213.121 242.149 213.774V214.026C242.149 214.353 242.256 214.6 242.471 214.768C242.695 214.927 242.998 215.006 243.381 215.006ZM248.811 205.64H250.337V211.996H250.407L251.415 210.694L253.165 208.72H254.943L252.395 211.534L255.251 216H253.431L251.345 212.528L250.337 213.62V216H248.811V205.64ZM257.237 207.418C256.92 207.418 256.686 207.343 256.537 207.194C256.397 207.045 256.327 206.853 256.327 206.62V206.382C256.327 206.149 256.397 205.957 256.537 205.808C256.686 205.659 256.92 205.584 257.237 205.584C257.554 205.584 257.783 205.659 257.923 205.808C258.063 205.957 258.133 206.149 258.133 206.382V206.62C258.133 206.853 258.063 207.045 257.923 207.194C257.783 207.343 257.554 207.418 257.237 207.418ZM256.467 208.72H257.993V216H256.467V208.72ZM260.172 216V208.72H261.698V209.924H261.768C261.927 209.532 262.165 209.205 262.482 208.944C262.809 208.683 263.252 208.552 263.812 208.552C264.559 208.552 265.137 208.799 265.548 209.294C265.968 209.779 266.178 210.475 266.178 211.38V216H264.652V211.576C264.652 210.437 264.195 209.868 263.28 209.868C263.084 209.868 262.888 209.896 262.692 209.952C262.505 209.999 262.337 210.073 262.188 210.176C262.039 210.279 261.917 210.409 261.824 210.568C261.74 210.727 261.698 210.913 261.698 211.128V216H260.172ZM274.677 216.686C274.677 217.442 274.388 218.011 273.809 218.394C273.231 218.777 272.288 218.968 270.981 218.968C270.384 218.968 269.875 218.926 269.455 218.842C269.045 218.767 268.704 218.655 268.433 218.506C268.172 218.357 267.981 218.175 267.859 217.96C267.738 217.745 267.677 217.498 267.677 217.218C267.677 216.817 267.785 216.504 267.999 216.28C268.223 216.056 268.531 215.902 268.923 215.818V215.664C268.373 215.487 268.097 215.113 268.097 214.544C268.097 214.171 268.223 213.886 268.475 213.69C268.727 213.485 269.031 213.34 269.385 213.256V213.2C268.956 212.995 268.625 212.71 268.391 212.346C268.167 211.973 268.055 211.539 268.055 211.044C268.055 210.297 268.303 209.695 268.797 209.238C269.301 208.781 270.02 208.552 270.953 208.552C271.467 208.552 271.905 208.627 272.269 208.776V208.58C272.269 208.253 272.344 208.001 272.493 207.824C272.652 207.637 272.895 207.544 273.221 207.544H274.341V208.776H272.857V209.07C273.184 209.285 273.436 209.565 273.613 209.91C273.791 210.246 273.879 210.624 273.879 211.044C273.879 211.781 273.627 212.379 273.123 212.836C272.619 213.284 271.901 213.508 270.967 213.508C270.613 213.508 270.295 213.471 270.015 213.396C269.829 213.461 269.665 213.555 269.525 213.676C269.385 213.788 269.315 213.937 269.315 214.124C269.315 214.32 269.404 214.46 269.581 214.544C269.759 214.628 270.011 214.67 270.337 214.67H272.129C273.025 214.67 273.674 214.852 274.075 215.216C274.477 215.571 274.677 216.061 274.677 216.686ZM273.249 216.854C273.249 216.602 273.151 216.401 272.955 216.252C272.769 216.103 272.423 216.028 271.919 216.028H269.455C269.119 216.224 268.951 216.504 268.951 216.868C268.951 217.167 269.068 217.405 269.301 217.582C269.544 217.769 269.95 217.862 270.519 217.862H271.471C272.657 217.862 273.249 217.526 273.249 216.854ZM270.967 212.402C271.415 212.402 271.761 212.304 272.003 212.108C272.255 211.903 272.381 211.59 272.381 211.17V210.89C272.381 210.47 272.255 210.162 272.003 209.966C271.761 209.761 271.415 209.658 270.967 209.658C270.519 209.658 270.169 209.761 269.917 209.966C269.675 210.162 269.553 210.47 269.553 210.89V211.17C269.553 211.59 269.675 211.903 269.917 212.108C270.169 212.304 270.519 212.402 270.967 212.402ZM282.901 216.168C281.623 216.168 280.619 215.739 279.891 214.88C279.163 214.012 278.799 212.757 278.799 211.114C278.799 210.293 278.893 209.569 279.079 208.944C279.266 208.319 279.537 207.791 279.891 207.362C280.246 206.933 280.675 206.611 281.179 206.396C281.693 206.172 282.267 206.06 282.901 206.06C283.751 206.06 284.46 206.247 285.029 206.62C285.608 206.993 286.061 207.544 286.387 208.272L285.057 209C284.889 208.533 284.628 208.165 284.273 207.894C283.928 207.614 283.471 207.474 282.901 207.474C282.145 207.474 281.553 207.731 281.123 208.244C280.694 208.757 280.479 209.467 280.479 210.372V211.856C280.479 212.761 280.694 213.471 281.123 213.984C281.553 214.497 282.145 214.754 282.901 214.754C283.489 214.754 283.965 214.605 284.329 214.306C284.703 213.998 284.978 213.606 285.155 213.13L286.429 213.9C286.103 214.609 285.645 215.165 285.057 215.566C284.469 215.967 283.751 216.168 282.901 216.168ZM287.994 205.64H289.52V209.924H289.59C289.749 209.532 289.987 209.205 290.304 208.944C290.631 208.683 291.074 208.552 291.634 208.552C292.381 208.552 292.96 208.799 293.37 209.294C293.79 209.779 294 210.475 294 211.38V216H292.474V211.562C292.474 210.433 292.017 209.868 291.102 209.868C290.906 209.868 290.71 209.896 290.514 209.952C290.328 209.999 290.16 210.073 290.01 210.176C289.861 210.279 289.74 210.409 289.646 210.568C289.562 210.727 289.52 210.909 289.52 211.114V216H287.994V205.64ZM301.449 216C301.048 216 300.74 215.888 300.525 215.664C300.311 215.431 300.18 215.137 300.133 214.782H300.063C299.923 215.239 299.667 215.585 299.293 215.818C298.92 216.051 298.467 216.168 297.935 216.168C297.179 216.168 296.596 215.972 296.185 215.58C295.784 215.188 295.583 214.661 295.583 213.998C295.583 213.27 295.845 212.724 296.367 212.36C296.899 211.996 297.674 211.814 298.691 211.814H300.007V211.198C300.007 210.75 299.886 210.405 299.643 210.162C299.401 209.919 299.023 209.798 298.509 209.798C298.08 209.798 297.73 209.891 297.459 210.078C297.189 210.265 296.96 210.503 296.773 210.792L295.863 209.966C296.106 209.555 296.447 209.219 296.885 208.958C297.324 208.687 297.898 208.552 298.607 208.552C299.55 208.552 300.273 208.771 300.777 209.21C301.281 209.649 301.533 210.279 301.533 211.1V214.754H302.303V216H301.449ZM298.369 215.006C298.845 215.006 299.237 214.903 299.545 214.698C299.853 214.483 300.007 214.199 300.007 213.844V212.794H298.719C297.665 212.794 297.137 213.121 297.137 213.774V214.026C297.137 214.353 297.245 214.6 297.459 214.768C297.683 214.927 297.987 215.006 298.369 215.006ZM303.799 216V208.72H305.325V210.12H305.395C305.498 209.747 305.712 209.42 306.039 209.14C306.366 208.86 306.818 208.72 307.397 208.72H307.803V210.19H307.201C306.594 210.19 306.128 210.288 305.801 210.484C305.484 210.68 305.325 210.969 305.325 211.352V216H303.799ZM311.229 216C310.697 216 310.296 215.865 310.025 215.594C309.754 215.314 309.619 214.922 309.619 214.418V209.966H308.485V208.72H309.101C309.353 208.72 309.526 208.664 309.619 208.552C309.722 208.44 309.773 208.258 309.773 208.006V206.732H311.145V208.72H312.671V209.966H311.145V214.754H312.559V216H311.229Z" fill="#ADB1B8"/>
<path d="M1.204 197V187.228H2.786V195.6H6.762V197H1.204ZM10.989 197.168C10.485 197.168 10.023 197.079 9.60302 196.902C9.19235 196.725 8.84235 196.473 8.55302 196.146C8.26368 195.81 8.03968 195.409 7.88102 194.942C7.72235 194.466 7.64302 193.939 7.64302 193.36C7.64302 192.781 7.72235 192.259 7.88102 191.792C8.03968 191.316 8.26368 190.915 8.55302 190.588C8.84235 190.252 9.19235 189.995 9.60302 189.818C10.023 189.641 10.485 189.552 10.989 189.552C11.493 189.552 11.9503 189.641 12.361 189.818C12.781 189.995 13.1357 190.252 13.425 190.588C13.7143 190.915 13.9383 191.316 14.097 191.792C14.2557 192.259 14.335 192.781 14.335 193.36C14.335 193.939 14.2557 194.466 14.097 194.942C13.9383 195.409 13.7143 195.81 13.425 196.146C13.1357 196.473 12.781 196.725 12.361 196.902C11.9503 197.079 11.493 197.168 10.989 197.168ZM10.989 195.908C11.5117 195.908 11.9317 195.749 12.249 195.432C12.5663 195.105 12.725 194.62 12.725 193.976V192.744C12.725 192.1 12.5663 191.619 12.249 191.302C11.9317 190.975 11.5117 190.812 10.989 190.812C10.4663 190.812 10.0463 190.975 9.72902 191.302C9.41168 191.619 9.25302 192.1 9.25302 192.744V193.976C9.25302 194.62 9.41168 195.105 9.72902 195.432C10.0463 195.749 10.4663 195.908 10.989 195.908ZM15.2117 189.72H16.6957L17.4377 192.772L18.0957 195.53H18.1377L18.8937 192.772L19.7757 189.72H21.1477L22.0437 192.772L22.8137 195.53H22.8557L23.4997 192.772L24.2557 189.72H25.6697L23.7097 197H21.9877L21.0357 193.682L20.4477 191.638H20.4197L19.8457 193.682L18.8797 197H17.1997L15.2117 189.72ZM30.5438 197V187.228H34.7438C35.6492 187.228 36.3492 187.494 36.8438 188.026C37.3385 188.558 37.5858 189.272 37.5858 190.168C37.5858 191.064 37.3385 191.778 36.8438 192.31C36.3492 192.842 35.6492 193.108 34.7438 193.108H32.1258V197H30.5438ZM32.1258 191.722H34.6458C35.0472 191.722 35.3598 191.619 35.5838 191.414C35.8078 191.199 35.9198 190.896 35.9198 190.504V189.832C35.9198 189.44 35.8078 189.141 35.5838 188.936C35.3598 188.721 35.0472 188.614 34.6458 188.614H32.1258V191.722ZM39.0725 197V189.72H40.5985V191.12H40.6685C40.7711 190.747 40.9858 190.42 41.3125 190.14C41.6391 189.86 42.0918 189.72 42.6705 189.72H43.0765V191.19H42.4745C41.8678 191.19 41.4011 191.288 41.0745 191.484C40.7571 191.68 40.5985 191.969 40.5985 192.352V197H39.0725ZM45.2018 188.418C44.8845 188.418 44.6512 188.343 44.5018 188.194C44.3618 188.045 44.2918 187.853 44.2918 187.62V187.382C44.2918 187.149 44.3618 186.957 44.5018 186.808C44.6512 186.659 44.8845 186.584 45.2018 186.584C45.5192 186.584 45.7478 186.659 45.8878 186.808C46.0278 186.957 46.0978 187.149 46.0978 187.382V187.62C46.0978 187.853 46.0278 188.045 45.8878 188.194C45.7478 188.343 45.5192 188.418 45.2018 188.418ZM44.4318 189.72H45.9578V197H44.4318V189.72ZM50.9509 197.168C50.4283 197.168 49.9616 197.079 49.5509 196.902C49.1403 196.725 48.7949 196.473 48.5149 196.146C48.2349 195.81 48.0203 195.409 47.8709 194.942C47.7216 194.466 47.6469 193.939 47.6469 193.36C47.6469 192.781 47.7216 192.259 47.8709 191.792C48.0203 191.316 48.2349 190.915 48.5149 190.588C48.7949 190.252 49.1403 189.995 49.5509 189.818C49.9616 189.641 50.4283 189.552 50.9509 189.552C51.6789 189.552 52.2763 189.715 52.7429 190.042C53.2096 190.369 53.5503 190.803 53.7649 191.344L52.5049 191.932C52.4023 191.596 52.2203 191.33 51.9589 191.134C51.7069 190.929 51.3709 190.826 50.9509 190.826C50.3909 190.826 49.9663 191.003 49.6769 191.358C49.3969 191.703 49.2569 192.156 49.2569 192.716V194.018C49.2569 194.578 49.3969 195.035 49.6769 195.39C49.9663 195.735 50.3909 195.908 50.9509 195.908C51.3989 195.908 51.7536 195.801 52.0149 195.586C52.2856 195.362 52.5003 195.068 52.6589 194.704L53.8209 195.32C53.5783 195.917 53.2143 196.375 52.7289 196.692C52.2436 197.009 51.6509 197.168 50.9509 197.168ZM58.0476 197.168C57.5249 197.168 57.0583 197.079 56.6476 196.902C56.2369 196.725 55.8869 196.473 55.5976 196.146C55.3083 195.81 55.0843 195.409 54.9256 194.942C54.7763 194.466 54.7016 193.939 54.7016 193.36C54.7016 192.781 54.7763 192.259 54.9256 191.792C55.0843 191.316 55.3083 190.915 55.5976 190.588C55.8869 190.252 56.2369 189.995 56.6476 189.818C57.0583 189.641 57.5249 189.552 58.0476 189.552C58.5796 189.552 59.0463 189.645 59.4476 189.832C59.8583 190.019 60.1989 190.28 60.4696 190.616C60.7403 190.943 60.9409 191.325 61.0716 191.764C61.2116 192.203 61.2816 192.674 61.2816 193.178V193.752H56.2836V193.99C56.2836 194.55 56.4469 195.012 56.7736 195.376C57.1096 195.731 57.5856 195.908 58.2016 195.908C58.6496 195.908 59.0276 195.81 59.3356 195.614C59.6436 195.418 59.9049 195.152 60.1196 194.816L61.0156 195.698C60.7449 196.146 60.3529 196.505 59.8396 196.776C59.3263 197.037 58.7289 197.168 58.0476 197.168ZM58.0476 190.742C57.7863 190.742 57.5436 190.789 57.3196 190.882C57.1049 190.975 56.9183 191.106 56.7596 191.274C56.6103 191.442 56.4936 191.643 56.4096 191.876C56.3256 192.109 56.2836 192.366 56.2836 192.646V192.744H59.6716V192.604C59.6716 192.044 59.5269 191.596 59.2376 191.26C58.9483 190.915 58.5516 190.742 58.0476 190.742Z" fill="#ADB1B8"/>
<path d="M3.836 97.596L2.758 95.524H2.716V103H1.204V93.228H2.968L6.16 98.632L7.238 100.704H7.28V93.228H8.792V103H7.028L3.836 97.596ZM13.9421 103.168C13.4381 103.168 12.9761 103.079 12.5561 102.902C12.1455 102.725 11.7955 102.473 11.5061 102.146C11.2168 101.81 10.9928 101.409 10.8341 100.942C10.6755 100.466 10.5961 99.9387 10.5961 99.36C10.5961 98.7813 10.6755 98.2587 10.8341 97.792C10.9928 97.316 11.2168 96.9147 11.5061 96.588C11.7955 96.252 12.1455 95.9953 12.5561 95.818C12.9761 95.6407 13.4381 95.552 13.9421 95.552C14.4461 95.552 14.9035 95.6407 15.3141 95.818C15.7341 95.9953 16.0888 96.252 16.3781 96.588C16.6675 96.9147 16.8915 97.316 17.0501 97.792C17.2088 98.2587 17.2881 98.7813 17.2881 99.36C17.2881 99.9387 17.2088 100.466 17.0501 100.942C16.8915 101.409 16.6675 101.81 16.3781 102.146C16.0888 102.473 15.7341 102.725 15.3141 102.902C14.9035 103.079 14.4461 103.168 13.9421 103.168ZM13.9421 101.908C14.4648 101.908 14.8848 101.749 15.2021 101.432C15.5195 101.105 15.6781 100.62 15.6781 99.976V98.744C15.6781 98.1 15.5195 97.6193 15.2021 97.302C14.8848 96.9753 14.4648 96.812 13.9421 96.812C13.4195 96.812 12.9995 96.9753 12.6821 97.302C12.3648 97.6193 12.2061 98.1 12.2061 98.744V99.976C12.2061 100.62 12.3648 101.105 12.6821 101.432C12.9995 101.749 13.4195 101.908 13.9421 101.908ZM18.1648 95.72H19.6488L20.3908 98.772L21.0488 101.53H21.0908L21.8468 98.772L22.7288 95.72H24.1008L24.9968 98.772L25.7668 101.53H25.8088L26.4528 98.772L27.2088 95.72H28.6228L26.6628 103H24.9408L23.9888 99.682L23.4008 97.638H23.3728L22.7988 99.682L21.8328 103H20.1528L18.1648 95.72ZM33.497 103V93.228H37.697C38.6023 93.228 39.3023 93.494 39.797 94.026C40.2916 94.558 40.539 95.272 40.539 96.168C40.539 97.064 40.2916 97.778 39.797 98.31C39.3023 98.842 38.6023 99.108 37.697 99.108H35.079V103H33.497ZM35.079 97.722H37.599C38.0003 97.722 38.313 97.6193 38.537 97.414C38.761 97.1993 38.873 96.896 38.873 96.504V95.832C38.873 95.44 38.761 95.1413 38.537 94.936C38.313 94.7213 38.0003 94.614 37.599 94.614H35.079V97.722ZM42.0256 103V95.72H43.5516V97.12H43.6216C43.7243 96.7467 43.9389 96.42 44.2656 96.14C44.5923 95.86 45.0449 95.72 45.6236 95.72H46.0296V97.19H45.4276C44.8209 97.19 44.3543 97.288 44.0276 97.484C43.7103 97.68 43.5516 97.9693 43.5516 98.352V103H42.0256ZM48.155 94.418C47.8376 94.418 47.6043 94.3433 47.455 94.194C47.315 94.0447 47.245 93.8533 47.245 93.62V93.382C47.245 93.1487 47.315 92.9573 47.455 92.808C47.6043 92.6587 47.8376 92.584 48.155 92.584C48.4723 92.584 48.701 92.6587 48.841 92.808C48.981 92.9573 49.051 93.1487 49.051 93.382V93.62C49.051 93.8533 48.981 94.0447 48.841 94.194C48.701 94.3433 48.4723 94.418 48.155 94.418ZM47.385 95.72H48.911V103H47.385V95.72ZM53.904 103.168C53.3814 103.168 52.9147 103.079 52.504 102.902C52.0934 102.725 51.748 102.473 51.468 102.146C51.188 101.81 50.9734 101.409 50.824 100.942C50.6747 100.466 50.6 99.9387 50.6 99.36C50.6 98.7813 50.6747 98.2587 50.824 97.792C50.9734 97.316 51.188 96.9147 51.468 96.588C51.748 96.252 52.0934 95.9953 52.504 95.818C52.9147 95.6407 53.3814 95.552 53.904 95.552C54.632 95.552 55.2294 95.7153 55.696 96.042C56.1627 96.3687 56.5034 96.8027 56.718 97.344L55.458 97.932C55.3554 97.596 55.1734 97.33 54.912 97.134C54.66 96.9287 54.324 96.826 53.904 96.826C53.344 96.826 52.9194 97.0033 52.63 97.358C52.35 97.7033 52.21 98.156 52.21 98.716V100.018C52.21 100.578 52.35 101.035 52.63 101.39C52.9194 101.735 53.344 101.908 53.904 101.908C54.352 101.908 54.7067 101.801 54.968 101.586C55.2387 101.362 55.4534 101.068 55.612 100.704L56.774 101.32C56.5314 101.917 56.1674 102.375 55.682 102.692C55.1967 103.009 54.604 103.168 53.904 103.168ZM61.0007 103.168C60.4781 103.168 60.0114 103.079 59.6007 102.902C59.1901 102.725 58.8401 102.473 58.5507 102.146C58.2614 101.81 58.0374 101.409 57.8787 100.942C57.7294 100.466 57.6547 99.9387 57.6547 99.36C57.6547 98.7813 57.7294 98.2587 57.8787 97.792C58.0374 97.316 58.2614 96.9147 58.5507 96.588C58.8401 96.252 59.1901 95.9953 59.6007 95.818C60.0114 95.6407 60.4781 95.552 61.0007 95.552C61.5327 95.552 61.9994 95.6453 62.4007 95.832C62.8114 96.0187 63.1521 96.28 63.4227 96.616C63.6934 96.9427 63.8941 97.3253 64.0247 97.764C64.1647 98.2027 64.2347 98.674 64.2347 99.178V99.752H59.2367V99.99C59.2367 100.55 59.4001 101.012 59.7267 101.376C60.0627 101.731 60.5387 101.908 61.1547 101.908C61.6027 101.908 61.9807 101.81 62.2887 101.614C62.5967 101.418 62.8581 101.152 63.0727 100.816L63.9687 101.698C63.6981 102.146 63.3061 102.505 62.7927 102.776C62.2794 103.037 61.6821 103.168 61.0007 103.168ZM61.0007 96.742C60.7394 96.742 60.4967 96.7887 60.2727 96.882C60.0581 96.9753 59.8714 97.106 59.7127 97.274C59.5634 97.442 59.4467 97.6427 59.3627 97.876C59.2787 98.1093 59.2367 98.366 59.2367 98.646V98.744H62.6247V98.604C62.6247 98.044 62.4801 97.596 62.1907 97.26C61.9014 96.9147 61.5047 96.742 61.0007 96.742Z" fill="#ADB1B8"/>
<path d="M7.21 10.744H2.786V15H1.204V5.228H2.786V9.344H7.21V5.228H8.792V15H7.21V10.744ZM11.8561 6.418C11.5388 6.418 11.3055 6.34333 11.1561 6.194C11.0161 6.04467 10.9461 5.85333 10.9461 5.62V5.382C10.9461 5.14867 11.0161 4.95733 11.1561 4.808C11.3055 4.65867 11.5388 4.584 11.8561 4.584C12.1735 4.584 12.4021 4.65867 12.5421 4.808C12.6821 4.95733 12.7521 5.14867 12.7521 5.382V5.62C12.7521 5.85333 12.6821 6.04467 12.5421 6.194C12.4021 6.34333 12.1735 6.418 11.8561 6.418ZM11.0861 7.72H12.6121V15H11.0861V7.72ZM21.1752 15.686C21.1752 16.442 20.8859 17.0113 20.3072 17.394C19.7286 17.7767 18.7859 17.968 17.4792 17.968C16.8819 17.968 16.3732 17.926 15.9532 17.842C15.5426 17.7673 15.2019 17.6553 14.9312 17.506C14.6699 17.3567 14.4786 17.1747 14.3572 16.96C14.2359 16.7453 14.1752 16.498 14.1752 16.218C14.1752 15.8167 14.2826 15.504 14.4972 15.28C14.7212 15.056 15.0292 14.902 15.4212 14.818V14.664C14.8706 14.4867 14.5952 14.1133 14.5952 13.544C14.5952 13.1707 14.7212 12.886 14.9732 12.69C15.2252 12.4847 15.5286 12.34 15.8832 12.256V12.2C15.4539 11.9947 15.1226 11.71 14.8892 11.346C14.6652 10.9727 14.5532 10.5387 14.5532 10.044C14.5532 9.29733 14.8006 8.69533 15.2952 8.238C15.7992 7.78067 16.5179 7.552 17.4512 7.552C17.9646 7.552 18.4032 7.62667 18.7672 7.776V7.58C18.7672 7.25333 18.8419 7.00133 18.9912 6.824C19.1499 6.63733 19.3926 6.544 19.7192 6.544H20.8392V7.776H19.3552V8.07C19.6819 8.28467 19.9339 8.56467 20.1112 8.91C20.2886 9.246 20.3772 9.624 20.3772 10.044C20.3772 10.7813 20.1252 11.3787 19.6212 11.836C19.1172 12.284 18.3986 12.508 17.4652 12.508C17.1106 12.508 16.7932 12.4707 16.5132 12.396C16.3266 12.4613 16.1632 12.5547 16.0232 12.676C15.8832 12.788 15.8132 12.9373 15.8132 13.124C15.8132 13.32 15.9019 13.46 16.0792 13.544C16.2566 13.628 16.5086 13.67 16.8352 13.67H18.6272C19.5232 13.67 20.1719 13.852 20.5732 14.216C20.9746 14.5707 21.1752 15.0607 21.1752 15.686ZM19.7472 15.854C19.7472 15.602 19.6492 15.4013 19.4532 15.252C19.2666 15.1027 18.9212 15.028 18.4172 15.028H15.9532C15.6172 15.224 15.4492 15.504 15.4492 15.868C15.4492 16.1667 15.5659 16.4047 15.7992 16.582C16.0419 16.7687 16.4479 16.862 17.0172 16.862H17.9692C19.1546 16.862 19.7472 16.526 19.7472 15.854ZM17.4652 11.402C17.9132 11.402 18.2586 11.304 18.5012 11.108C18.7532 10.9027 18.8792 10.59 18.8792 10.17V9.89C18.8792 9.47 18.7532 9.162 18.5012 8.966C18.2586 8.76067 17.9132 8.658 17.4652 8.658C17.0172 8.658 16.6672 8.76067 16.4152 8.966C16.1726 9.162 16.0512 9.47 16.0512 9.89V10.17C16.0512 10.59 16.1726 10.9027 16.4152 11.108C16.6672 11.304 17.0172 11.402 17.4652 11.402ZM22.3108 4.64H23.8368V8.924H23.9068C24.0654 8.532 24.3034 8.20533 24.6208 7.944C24.9474 7.68267 25.3908 7.552 25.9508 7.552C26.6974 7.552 27.2761 7.79933 27.6868 8.294C28.1068 8.77933 28.3168 9.47467 28.3168 10.38V15H26.7908V10.562C26.7908 9.43267 26.3334 8.868 25.4188 8.868C25.2228 8.868 25.0268 8.896 24.8308 8.952C24.6441 8.99867 24.4761 9.07333 24.3268 9.176C24.1774 9.27867 24.0561 9.40933 23.9628 9.568C23.8788 9.72667 23.8368 9.90867 23.8368 10.114V15H22.3108V4.64ZM33.8524 15V5.228H38.0524C38.9578 5.228 39.6578 5.494 40.1524 6.026C40.6471 6.558 40.8944 7.272 40.8944 8.168C40.8944 9.064 40.6471 9.778 40.1524 10.31C39.6578 10.842 38.9578 11.108 38.0524 11.108H35.4344V15H33.8524ZM35.4344 9.722H37.9544C38.3558 9.722 38.6684 9.61933 38.8924 9.414C39.1164 9.19933 39.2284 8.896 39.2284 8.504V7.832C39.2284 7.44 39.1164 7.14133 38.8924 6.936C38.6684 6.72133 38.3558 6.614 37.9544 6.614H35.4344V9.722ZM42.3811 15V7.72H43.9071V9.12H43.9771C44.0797 8.74667 44.2944 8.42 44.6211 8.14C44.9477 7.86 45.4004 7.72 45.9791 7.72H46.3851V9.19H45.7831C45.1764 9.19 44.7097 9.288 44.3831 9.484C44.0657 9.68 43.9071 9.96933 43.9071 10.352V15H42.3811ZM48.5104 6.418C48.1931 6.418 47.9598 6.34333 47.8104 6.194C47.6704 6.04467 47.6004 5.85333 47.6004 5.62V5.382C47.6004 5.14867 47.6704 4.95733 47.8104 4.808C47.9598 4.65867 48.1931 4.584 48.5104 4.584C48.8278 4.584 49.0564 4.65867 49.1964 4.808C49.3364 4.95733 49.4064 5.14867 49.4064 5.382V5.62C49.4064 5.85333 49.3364 6.04467 49.1964 6.194C49.0564 6.34333 48.8278 6.418 48.5104 6.418ZM47.7404 7.72H49.2664V15H47.7404V7.72ZM54.2595 15.168C53.7368 15.168 53.2702 15.0793 52.8595 14.902C52.4488 14.7247 52.1035 14.4727 51.8235 14.146C51.5435 13.81 51.3288 13.4087 51.1795 12.942C51.0302 12.466 50.9555 11.9387 50.9555 11.36C50.9555 10.7813 51.0302 10.2587 51.1795 9.792C51.3288 9.316 51.5435 8.91467 51.8235 8.588C52.1035 8.252 52.4488 7.99533 52.8595 7.818C53.2702 7.64067 53.7368 7.552 54.2595 7.552C54.9875 7.552 55.5848 7.71533 56.0515 8.042C56.5182 8.36867 56.8588 8.80267 57.0735 9.344L55.8135 9.932C55.7108 9.596 55.5288 9.33 55.2675 9.134C55.0155 8.92867 54.6795 8.826 54.2595 8.826C53.6995 8.826 53.2748 9.00333 52.9855 9.358C52.7055 9.70333 52.5655 10.156 52.5655 10.716V12.018C52.5655 12.578 52.7055 13.0353 52.9855 13.39C53.2748 13.7353 53.6995 13.908 54.2595 13.908C54.7075 13.908 55.0622 13.8007 55.3235 13.586C55.5942 13.362 55.8088 13.068 55.9675 12.704L57.1295 13.32C56.8868 13.9173 56.5228 14.3747 56.0375 14.692C55.5522 15.0093 54.9595 15.168 54.2595 15.168ZM61.3562 15.168C60.8335 15.168 60.3669 15.0793 59.9562 14.902C59.5455 14.7247 59.1955 14.4727 58.9062 14.146C58.6169 13.81 58.3929 13.4087 58.2342 12.942C58.0849 12.466 58.0102 11.9387 58.0102 11.36C58.0102 10.7813 58.0849 10.2587 58.2342 9.792C58.3929 9.316 58.6169 8.91467 58.9062 8.588C59.1955 8.252 59.5455 7.99533 59.9562 7.818C60.3669 7.64067 60.8335 7.552 61.3562 7.552C61.8882 7.552 62.3549 7.64533 62.7562 7.832C63.1669 8.01867 63.5075 8.28 63.7782 8.616C64.0489 8.94267 64.2495 9.32533 64.3802 9.764C64.5202 10.2027 64.5902 10.674 64.5902 11.178V11.752H59.5922V11.99C59.5922 12.55 59.7555 13.012 60.0822 13.376C60.4182 13.7307 60.8942 13.908 61.5102 13.908C61.9582 13.908 62.3362 13.81 62.6442 13.614C62.9522 13.418 63.2135 13.152 63.4282 12.816L64.3242 13.698C64.0535 14.146 63.6615 14.5053 63.1482 14.776C62.6349 15.0373 62.0375 15.168 61.3562 15.168ZM61.3562 8.742C61.0949 8.742 60.8522 8.78867 60.6282 8.882C60.4135 8.97533 60.2269 9.106 60.0682 9.274C59.9189 9.442 59.8022 9.64267 59.7182 9.876C59.6342 10.1093 59.5922 10.366 59.5922 10.646V10.744H62.9802V10.604C62.9802 10.044 62.8355 9.596 62.5462 9.26C62.2569 8.91467 61.8602 8.742 61.3562 8.742Z" fill="#ADB1B8"/>
<g filter="url(#filter0_d_121_13178)">
<path d="M106.86 105.02H109.95C110.53 105.02 110.983 105.183 111.31 105.51C111.643 105.837 111.81 106.273 111.81 106.82C111.81 107.08 111.773 107.303 111.7 107.49C111.627 107.67 111.533 107.82 111.42 107.94C111.307 108.053 111.177 108.14 111.03 108.2C110.883 108.253 110.74 108.287 110.6 108.3V108.36C110.74 108.367 110.893 108.4 111.06 108.46C111.233 108.52 111.393 108.617 111.54 108.75C111.687 108.877 111.81 109.043 111.91 109.25C112.01 109.45 112.06 109.697 112.06 109.99C112.06 110.27 112.013 110.533 111.92 110.78C111.833 111.027 111.71 111.24 111.55 111.42C111.39 111.6 111.2 111.743 110.98 111.85C110.76 111.95 110.52 112 110.26 112H106.86V105.02ZM107.99 111.03H109.93C110.223 111.03 110.453 110.953 110.62 110.8C110.787 110.647 110.87 110.427 110.87 110.14V109.8C110.87 109.513 110.787 109.293 110.62 109.14C110.453 108.987 110.223 108.91 109.93 108.91H107.99V111.03ZM107.99 107.97H109.74C110.02 107.97 110.237 107.9 110.39 107.76C110.543 107.613 110.62 107.407 110.62 107.14V106.82C110.62 106.553 110.543 106.35 110.39 106.21C110.237 106.063 110.02 105.99 109.74 105.99H107.99V107.97ZM116.522 111.14H116.482C116.435 111.267 116.372 111.39 116.292 111.51C116.218 111.63 116.122 111.737 116.002 111.83C115.888 111.917 115.748 111.987 115.582 112.04C115.422 112.093 115.235 112.12 115.022 112.12C114.482 112.12 114.062 111.947 113.762 111.6C113.468 111.253 113.322 110.757 113.322 110.11V106.8H114.412V109.97C114.412 110.777 114.745 111.18 115.412 111.18C115.552 111.18 115.688 111.163 115.822 111.13C115.955 111.09 116.072 111.033 116.172 110.96C116.278 110.887 116.362 110.793 116.422 110.68C116.488 110.567 116.522 110.433 116.522 110.28V106.8H117.612V112H116.522V111.14ZM122.363 106.8H123.413L121.223 113.03C121.163 113.203 121.093 113.35 121.013 113.47C120.939 113.597 120.849 113.697 120.743 113.77C120.643 113.85 120.519 113.907 120.373 113.94C120.226 113.98 120.053 114 119.853 114H119.223V113.11H120.103L120.403 112.23L118.513 106.8H119.603L120.643 109.86L120.943 110.99H120.993L121.323 109.86L122.363 106.8Z" fill="white"/>
</g>
<g filter="url(#filter1_d_121_13178)">
<path d="M135.86 131.02H138.95C139.53 131.02 139.983 131.183 140.31 131.51C140.643 131.837 140.81 132.273 140.81 132.82C140.81 133.08 140.773 133.303 140.7 133.49C140.627 133.67 140.533 133.82 140.42 133.94C140.307 134.053 140.177 134.14 140.03 134.2C139.883 134.253 139.74 134.287 139.6 134.3V134.36C139.74 134.367 139.893 134.4 140.06 134.46C140.233 134.52 140.393 134.617 140.54 134.75C140.687 134.877 140.81 135.043 140.91 135.25C141.01 135.45 141.06 135.697 141.06 135.99C141.06 136.27 141.013 136.533 140.92 136.78C140.833 137.027 140.71 137.24 140.55 137.42C140.39 137.6 140.2 137.743 139.98 137.85C139.76 137.95 139.52 138 139.26 138H135.86V131.02ZM136.99 137.03H138.93C139.223 137.03 139.453 136.953 139.62 136.8C139.787 136.647 139.87 136.427 139.87 136.14V135.8C139.87 135.513 139.787 135.293 139.62 135.14C139.453 134.987 139.223 134.91 138.93 134.91H136.99V137.03ZM136.99 133.97H138.74C139.02 133.97 139.237 133.9 139.39 133.76C139.543 133.613 139.62 133.407 139.62 133.14V132.82C139.62 132.553 139.543 132.35 139.39 132.21C139.237 132.063 139.02 131.99 138.74 131.99H136.99V133.97ZM145.522 137.14H145.482C145.435 137.267 145.372 137.39 145.292 137.51C145.218 137.63 145.122 137.737 145.002 137.83C144.888 137.917 144.748 137.987 144.582 138.04C144.422 138.093 144.235 138.12 144.022 138.12C143.482 138.12 143.062 137.947 142.762 137.6C142.468 137.253 142.322 136.757 142.322 136.11V132.8H143.412V135.97C143.412 136.777 143.745 137.18 144.412 137.18C144.552 137.18 144.688 137.163 144.822 137.13C144.955 137.09 145.072 137.033 145.172 136.96C145.278 136.887 145.362 136.793 145.422 136.68C145.488 136.567 145.522 136.433 145.522 136.28V132.8H146.612V138H145.522V137.14ZM151.363 132.8H152.413L150.223 139.03C150.163 139.203 150.093 139.35 150.013 139.47C149.939 139.597 149.849 139.697 149.743 139.77C149.643 139.85 149.519 139.907 149.373 139.94C149.226 139.98 149.053 140 148.853 140H148.223V139.11H149.103L149.403 138.23L147.513 132.8H148.603L149.643 135.86L149.943 136.99H149.993L150.323 135.86L151.363 132.8Z" fill="white"/>
</g>
<g filter="url(#filter2_d_121_13178)">
<path d="M229.86 82.02H232.95C233.53 82.02 233.983 82.1833 234.31 82.51C234.643 82.8367 234.81 83.2733 234.81 83.82C234.81 84.08 234.773 84.3033 234.7 84.49C234.627 84.67 234.533 84.82 234.42 84.94C234.307 85.0533 234.177 85.14 234.03 85.2C233.883 85.2533 233.74 85.2867 233.6 85.3V85.36C233.74 85.3667 233.893 85.4 234.06 85.46C234.233 85.52 234.393 85.6167 234.54 85.75C234.687 85.8767 234.81 86.0433 234.91 86.25C235.01 86.45 235.06 86.6967 235.06 86.99C235.06 87.27 235.013 87.5333 234.92 87.78C234.833 88.0267 234.71 88.24 234.55 88.42C234.39 88.6 234.2 88.7433 233.98 88.85C233.76 88.95 233.52 89 233.26 89H229.86V82.02ZM230.99 88.03H232.93C233.223 88.03 233.453 87.9533 233.62 87.8C233.787 87.6467 233.87 87.4267 233.87 87.14V86.8C233.87 86.5133 233.787 86.2933 233.62 86.14C233.453 85.9867 233.223 85.91 232.93 85.91H230.99V88.03ZM230.99 84.97H232.74C233.02 84.97 233.237 84.9 233.39 84.76C233.543 84.6133 233.62 84.4067 233.62 84.14V83.82C233.62 83.5533 233.543 83.35 233.39 83.21C233.237 83.0633 233.02 82.99 232.74 82.99H230.99V84.97ZM239.522 88.14H239.482C239.435 88.2667 239.372 88.39 239.292 88.51C239.218 88.63 239.122 88.7367 239.002 88.83C238.888 88.9167 238.748 88.9867 238.582 89.04C238.422 89.0933 238.235 89.12 238.022 89.12C237.482 89.12 237.062 88.9467 236.762 88.6C236.468 88.2533 236.322 87.7567 236.322 87.11V83.8H237.412V86.97C237.412 87.7767 237.745 88.18 238.412 88.18C238.552 88.18 238.688 88.1633 238.822 88.13C238.955 88.09 239.072 88.0333 239.172 87.96C239.278 87.8867 239.362 87.7933 239.422 87.68C239.488 87.5667 239.522 87.4333 239.522 87.28V83.8H240.612V89H239.522V88.14ZM245.363 83.8H246.413L244.223 90.03C244.163 90.2033 244.093 90.35 244.013 90.47C243.939 90.5967 243.849 90.6967 243.743 90.77C243.643 90.85 243.519 90.9067 243.373 90.94C243.226 90.98 243.053 91 242.853 91H242.223V90.11H243.103L243.403 89.23L241.513 83.8H242.603L243.643 86.86L243.943 87.99H243.993L244.323 86.86L245.363 83.8Z" fill="white"/>
</g>
<g filter="url(#filter3_d_121_13178)">
<path d="M257.86 119.02H260.95C261.53 119.02 261.983 119.183 262.31 119.51C262.643 119.837 262.81 120.273 262.81 120.82C262.81 121.08 262.773 121.303 262.7 121.49C262.627 121.67 262.533 121.82 262.42 121.94C262.307 122.053 262.177 122.14 262.03 122.2C261.883 122.253 261.74 122.287 261.6 122.3V122.36C261.74 122.367 261.893 122.4 262.06 122.46C262.233 122.52 262.393 122.617 262.54 122.75C262.687 122.877 262.81 123.043 262.91 123.25C263.01 123.45 263.06 123.697 263.06 123.99C263.06 124.27 263.013 124.533 262.92 124.78C262.833 125.027 262.71 125.24 262.55 125.42C262.39 125.6 262.2 125.743 261.98 125.85C261.76 125.95 261.52 126 261.26 126H257.86V119.02ZM258.99 125.03H260.93C261.223 125.03 261.453 124.953 261.62 124.8C261.787 124.647 261.87 124.427 261.87 124.14V123.8C261.87 123.513 261.787 123.293 261.62 123.14C261.453 122.987 261.223 122.91 260.93 122.91H258.99V125.03ZM258.99 121.97H260.74C261.02 121.97 261.237 121.9 261.39 121.76C261.543 121.613 261.62 121.407 261.62 121.14V120.82C261.62 120.553 261.543 120.35 261.39 120.21C261.237 120.063 261.02 119.99 260.74 119.99H258.99V121.97ZM267.522 125.14H267.482C267.435 125.267 267.372 125.39 267.292 125.51C267.218 125.63 267.122 125.737 267.002 125.83C266.888 125.917 266.748 125.987 266.582 126.04C266.422 126.093 266.235 126.12 266.022 126.12C265.482 126.12 265.062 125.947 264.762 125.6C264.468 125.253 264.322 124.757 264.322 124.11V120.8H265.412V123.97C265.412 124.777 265.745 125.18 266.412 125.18C266.552 125.18 266.688 125.163 266.822 125.13C266.955 125.09 267.072 125.033 267.172 124.96C267.278 124.887 267.362 124.793 267.422 124.68C267.488 124.567 267.522 124.433 267.522 124.28V120.8H268.612V126H267.522V125.14ZM273.363 120.8H274.413L272.223 127.03C272.163 127.203 272.093 127.35 272.013 127.47C271.939 127.597 271.849 127.697 271.743 127.77C271.643 127.85 271.519 127.907 271.373 127.94C271.226 127.98 271.053 128 270.853 128H270.223V127.11H271.103L271.403 126.23L269.513 120.8H270.603L271.643 123.86L271.943 124.99H271.993L272.323 123.86L273.363 120.8Z" fill="white"/>
</g>
<g filter="url(#filter4_d_121_13178)">
<path d="M291.86 162.02H294.95C295.53 162.02 295.983 162.183 296.31 162.51C296.643 162.837 296.81 163.273 296.81 163.82C296.81 164.08 296.773 164.303 296.7 164.49C296.627 164.67 296.533 164.82 296.42 164.94C296.307 165.053 296.177 165.14 296.03 165.2C295.883 165.253 295.74 165.287 295.6 165.3V165.36C295.74 165.367 295.893 165.4 296.06 165.46C296.233 165.52 296.393 165.617 296.54 165.75C296.687 165.877 296.81 166.043 296.91 166.25C297.01 166.45 297.06 166.697 297.06 166.99C297.06 167.27 297.013 167.533 296.92 167.78C296.833 168.027 296.71 168.24 296.55 168.42C296.39 168.6 296.2 168.743 295.98 168.85C295.76 168.95 295.52 169 295.26 169H291.86V162.02ZM292.99 168.03H294.93C295.223 168.03 295.453 167.953 295.62 167.8C295.787 167.647 295.87 167.427 295.87 167.14V166.8C295.87 166.513 295.787 166.293 295.62 166.14C295.453 165.987 295.223 165.91 294.93 165.91H292.99V168.03ZM292.99 164.97H294.74C295.02 164.97 295.237 164.9 295.39 164.76C295.543 164.613 295.62 164.407 295.62 164.14V163.82C295.62 163.553 295.543 163.35 295.39 163.21C295.237 163.063 295.02 162.99 294.74 162.99H292.99V164.97ZM301.522 168.14H301.482C301.435 168.267 301.372 168.39 301.292 168.51C301.218 168.63 301.122 168.737 301.002 168.83C300.888 168.917 300.748 168.987 300.582 169.04C300.422 169.093 300.235 169.12 300.022 169.12C299.482 169.12 299.062 168.947 298.762 168.6C298.468 168.253 298.322 167.757 298.322 167.11V163.8H299.412V166.97C299.412 167.777 299.745 168.18 300.412 168.18C300.552 168.18 300.688 168.163 300.822 168.13C300.955 168.09 301.072 168.033 301.172 167.96C301.278 167.887 301.362 167.793 301.422 167.68C301.488 167.567 301.522 167.433 301.522 167.28V163.8H302.612V169H301.522V168.14ZM307.363 163.8H308.413L306.223 170.03C306.163 170.203 306.093 170.35 306.013 170.47C305.939 170.597 305.849 170.697 305.743 170.77C305.643 170.85 305.519 170.907 305.373 170.94C305.226 170.98 305.053 171 304.853 171H304.223V170.11H305.103L305.403 169.23L303.513 163.8H304.603L305.643 166.86L305.943 167.99H305.993L306.323 166.86L307.363 163.8Z" fill="white"/>
</g>
<g filter="url(#filter5_d_121_13178)">
<path d="M176.95 128.12C176.363 128.12 175.863 128.013 175.45 127.8C175.043 127.587 174.693 127.3 174.4 126.94L175.18 126.21C175.427 126.51 175.697 126.737 175.99 126.89C176.29 127.043 176.63 127.12 177.01 127.12C177.457 127.12 177.793 127.02 178.02 126.82C178.247 126.62 178.36 126.35 178.36 126.01C178.36 125.737 178.28 125.52 178.12 125.36C177.96 125.2 177.677 125.08 177.27 125L176.65 124.89C175.97 124.763 175.46 124.54 175.12 124.22C174.78 123.9 174.61 123.46 174.61 122.9C174.61 122.593 174.667 122.317 174.78 122.07C174.9 121.817 175.063 121.607 175.27 121.44C175.483 121.267 175.74 121.133 176.04 121.04C176.34 120.947 176.677 120.9 177.05 120.9C177.577 120.9 178.033 120.993 178.42 121.18C178.807 121.36 179.137 121.623 179.41 121.97L178.62 122.67C178.44 122.437 178.22 122.25 177.96 122.11C177.7 121.97 177.377 121.9 176.99 121.9C176.59 121.9 176.28 121.98 176.06 122.14C175.84 122.3 175.73 122.533 175.73 122.84C175.73 123.133 175.82 123.353 176 123.5C176.18 123.64 176.46 123.747 176.84 123.82L177.46 123.95C178.16 124.083 178.67 124.31 178.99 124.63C179.317 124.95 179.48 125.39 179.48 125.95C179.48 126.277 179.423 126.573 179.31 126.84C179.197 127.107 179.03 127.337 178.81 127.53C178.597 127.717 178.333 127.863 178.02 127.97C177.707 128.07 177.35 128.12 176.95 128.12ZM182.797 128.12C182.423 128.12 182.09 128.057 181.797 127.93C181.503 127.803 181.253 127.623 181.047 127.39C180.84 127.15 180.68 126.863 180.567 126.53C180.46 126.19 180.407 125.813 180.407 125.4C180.407 124.987 180.46 124.613 180.567 124.28C180.68 123.94 180.84 123.653 181.047 123.42C181.253 123.18 181.503 122.997 181.797 122.87C182.09 122.743 182.423 122.68 182.797 122.68C183.177 122.68 183.51 122.747 183.797 122.88C184.09 123.013 184.333 123.2 184.527 123.44C184.72 123.673 184.863 123.947 184.957 124.26C185.057 124.573 185.107 124.91 185.107 125.27V125.68H181.537V125.85C181.537 126.25 181.653 126.58 181.887 126.84C182.127 127.093 182.467 127.22 182.907 127.22C183.227 127.22 183.497 127.15 183.717 127.01C183.937 126.87 184.123 126.68 184.277 126.44L184.917 127.07C184.723 127.39 184.443 127.647 184.077 127.84C183.71 128.027 183.283 128.12 182.797 128.12ZM182.797 123.53C182.61 123.53 182.437 123.563 182.277 123.63C182.123 123.697 181.99 123.79 181.877 123.91C181.77 124.03 181.687 124.173 181.627 124.34C181.567 124.507 181.537 124.69 181.537 124.89V124.96H183.957V124.86C183.957 124.46 183.853 124.14 183.647 123.9C183.44 123.653 183.157 123.53 182.797 123.53ZM187.423 128C187.05 128 186.77 127.907 186.583 127.72C186.403 127.527 186.313 127.26 186.313 126.92V120.6H187.403V127.11H188.123V128H187.423ZM190.216 128C189.843 128 189.563 127.907 189.376 127.72C189.196 127.527 189.106 127.26 189.106 126.92V120.6H190.196V127.11H190.916V128H190.216Z" fill="white"/>
</g>
<g filter="url(#filter6_d_121_13178)">
<path d="M193.95 98.12C193.363 98.12 192.863 98.0133 192.45 97.8C192.043 97.5867 191.693 97.3 191.4 96.94L192.18 96.21C192.427 96.51 192.697 96.7367 192.99 96.89C193.29 97.0433 193.63 97.12 194.01 97.12C194.457 97.12 194.793 97.02 195.02 96.82C195.247 96.62 195.36 96.35 195.36 96.01C195.36 95.7367 195.28 95.52 195.12 95.36C194.96 95.2 194.677 95.08 194.27 95L193.65 94.89C192.97 94.7633 192.46 94.54 192.12 94.22C191.78 93.9 191.61 93.46 191.61 92.9C191.61 92.5933 191.667 92.3167 191.78 92.07C191.9 91.8167 192.063 91.6067 192.27 91.44C192.483 91.2667 192.74 91.1333 193.04 91.04C193.34 90.9467 193.677 90.9 194.05 90.9C194.577 90.9 195.033 90.9933 195.42 91.18C195.807 91.36 196.137 91.6233 196.41 91.97L195.62 92.67C195.44 92.4367 195.22 92.25 194.96 92.11C194.7 91.97 194.377 91.9 193.99 91.9C193.59 91.9 193.28 91.98 193.06 92.14C192.84 92.3 192.73 92.5333 192.73 92.84C192.73 93.1333 192.82 93.3533 193 93.5C193.18 93.64 193.46 93.7467 193.84 93.82L194.46 93.95C195.16 94.0833 195.67 94.31 195.99 94.63C196.317 94.95 196.48 95.39 196.48 95.95C196.48 96.2767 196.423 96.5733 196.31 96.84C196.197 97.1067 196.03 97.3367 195.81 97.53C195.597 97.7167 195.333 97.8633 195.02 97.97C194.707 98.07 194.35 98.12 193.95 98.12ZM199.797 98.12C199.423 98.12 199.09 98.0567 198.797 97.93C198.503 97.8033 198.253 97.6233 198.047 97.39C197.84 97.15 197.68 96.8633 197.567 96.53C197.46 96.19 197.407 95.8133 197.407 95.4C197.407 94.9867 197.46 94.6133 197.567 94.28C197.68 93.94 197.84 93.6533 198.047 93.42C198.253 93.18 198.503 92.9967 198.797 92.87C199.09 92.7433 199.423 92.68 199.797 92.68C200.177 92.68 200.51 92.7467 200.797 92.88C201.09 93.0133 201.333 93.2 201.527 93.44C201.72 93.6733 201.863 93.9467 201.957 94.26C202.057 94.5733 202.107 94.91 202.107 95.27V95.68H198.537V95.85C198.537 96.25 198.653 96.58 198.887 96.84C199.127 97.0933 199.467 97.22 199.907 97.22C200.227 97.22 200.497 97.15 200.717 97.01C200.937 96.87 201.123 96.68 201.277 96.44L201.917 97.07C201.723 97.39 201.443 97.6467 201.077 97.84C200.71 98.0267 200.283 98.12 199.797 98.12ZM199.797 93.53C199.61 93.53 199.437 93.5633 199.277 93.63C199.123 93.6967 198.99 93.79 198.877 93.91C198.77 94.03 198.687 94.1733 198.627 94.34C198.567 94.5067 198.537 94.69 198.537 94.89V94.96H200.957V94.86C200.957 94.46 200.853 94.14 200.647 93.9C200.44 93.6533 200.157 93.53 199.797 93.53ZM204.423 98C204.05 98 203.77 97.9067 203.583 97.72C203.403 97.5267 203.313 97.26 203.313 96.92V90.6H204.403V97.11H205.123V98H204.423ZM207.216 98C206.843 98 206.563 97.9067 206.376 97.72C206.196 97.5267 206.106 97.26 206.106 96.92V90.6H207.196V97.11H207.916V98H207.216Z" fill="white"/>
</g>
<g filter="url(#filter7_d_121_13178)">
<path d="M334.95 148.12C334.363 148.12 333.863 148.013 333.45 147.8C333.043 147.587 332.693 147.3 332.4 146.94L333.18 146.21C333.427 146.51 333.697 146.737 333.99 146.89C334.29 147.043 334.63 147.12 335.01 147.12C335.457 147.12 335.793 147.02 336.02 146.82C336.247 146.62 336.36 146.35 336.36 146.01C336.36 145.737 336.28 145.52 336.12 145.36C335.96 145.2 335.677 145.08 335.27 145L334.65 144.89C333.97 144.763 333.46 144.54 333.12 144.22C332.78 143.9 332.61 143.46 332.61 142.9C332.61 142.593 332.667 142.317 332.78 142.07C332.9 141.817 333.063 141.607 333.27 141.44C333.483 141.267 333.74 141.133 334.04 141.04C334.34 140.947 334.677 140.9 335.05 140.9C335.577 140.9 336.033 140.993 336.42 141.18C336.807 141.36 337.137 141.623 337.41 141.97L336.62 142.67C336.44 142.437 336.22 142.25 335.96 142.11C335.7 141.97 335.377 141.9 334.99 141.9C334.59 141.9 334.28 141.98 334.06 142.14C333.84 142.3 333.73 142.533 333.73 142.84C333.73 143.133 333.82 143.353 334 143.5C334.18 143.64 334.46 143.747 334.84 143.82L335.46 143.95C336.16 144.083 336.67 144.31 336.99 144.63C337.317 144.95 337.48 145.39 337.48 145.95C337.48 146.277 337.423 146.573 337.31 146.84C337.197 147.107 337.03 147.337 336.81 147.53C336.597 147.717 336.333 147.863 336.02 147.97C335.707 148.07 335.35 148.12 334.95 148.12ZM340.797 148.12C340.423 148.12 340.09 148.057 339.797 147.93C339.503 147.803 339.253 147.623 339.047 147.39C338.84 147.15 338.68 146.863 338.567 146.53C338.46 146.19 338.407 145.813 338.407 145.4C338.407 144.987 338.46 144.613 338.567 144.28C338.68 143.94 338.84 143.653 339.047 143.42C339.253 143.18 339.503 142.997 339.797 142.87C340.09 142.743 340.423 142.68 340.797 142.68C341.177 142.68 341.51 142.747 341.797 142.88C342.09 143.013 342.333 143.2 342.527 143.44C342.72 143.673 342.863 143.947 342.957 144.26C343.057 144.573 343.107 144.91 343.107 145.27V145.68H339.537V145.85C339.537 146.25 339.653 146.58 339.887 146.84C340.127 147.093 340.467 147.22 340.907 147.22C341.227 147.22 341.497 147.15 341.717 147.01C341.937 146.87 342.123 146.68 342.277 146.44L342.917 147.07C342.723 147.39 342.443 147.647 342.077 147.84C341.71 148.027 341.283 148.12 340.797 148.12ZM340.797 143.53C340.61 143.53 340.437 143.563 340.277 143.63C340.123 143.697 339.99 143.79 339.877 143.91C339.77 144.03 339.687 144.173 339.627 144.34C339.567 144.507 339.537 144.69 339.537 144.89V144.96H341.957V144.86C341.957 144.46 341.853 144.14 341.647 143.9C341.44 143.653 341.157 143.53 340.797 143.53ZM345.423 148C345.05 148 344.77 147.907 344.583 147.72C344.403 147.527 344.313 147.26 344.313 146.92V140.6H345.403V147.11H346.123V148H345.423ZM348.216 148C347.843 148 347.563 147.907 347.376 147.72C347.196 147.527 347.106 147.26 347.106 146.92V140.6H348.196V147.11H348.916V148H348.216Z" fill="white"/>
</g>
<g filter="url(#filter8_d_121_13178)">
<path d="M360.95 110.12C360.363 110.12 359.863 110.013 359.45 109.8C359.043 109.587 358.693 109.3 358.4 108.94L359.18 108.21C359.427 108.51 359.697 108.737 359.99 108.89C360.29 109.043 360.63 109.12 361.01 109.12C361.457 109.12 361.793 109.02 362.02 108.82C362.247 108.62 362.36 108.35 362.36 108.01C362.36 107.737 362.28 107.52 362.12 107.36C361.96 107.2 361.677 107.08 361.27 107L360.65 106.89C359.97 106.763 359.46 106.54 359.12 106.22C358.78 105.9 358.61 105.46 358.61 104.9C358.61 104.593 358.667 104.317 358.78 104.07C358.9 103.817 359.063 103.607 359.27 103.44C359.483 103.267 359.74 103.133 360.04 103.04C360.34 102.947 360.677 102.9 361.05 102.9C361.577 102.9 362.033 102.993 362.42 103.18C362.807 103.36 363.137 103.623 363.41 103.97L362.62 104.67C362.44 104.437 362.22 104.25 361.96 104.11C361.7 103.97 361.377 103.9 360.99 103.9C360.59 103.9 360.28 103.98 360.06 104.14C359.84 104.3 359.73 104.533 359.73 104.84C359.73 105.133 359.82 105.353 360 105.5C360.18 105.64 360.46 105.747 360.84 105.82L361.46 105.95C362.16 106.083 362.67 106.31 362.99 106.63C363.317 106.95 363.48 107.39 363.48 107.95C363.48 108.277 363.423 108.573 363.31 108.84C363.197 109.107 363.03 109.337 362.81 109.53C362.597 109.717 362.333 109.863 362.02 109.97C361.707 110.07 361.35 110.12 360.95 110.12ZM366.797 110.12C366.423 110.12 366.09 110.057 365.797 109.93C365.503 109.803 365.253 109.623 365.047 109.39C364.84 109.15 364.68 108.863 364.567 108.53C364.46 108.19 364.407 107.813 364.407 107.4C364.407 106.987 364.46 106.613 364.567 106.28C364.68 105.94 364.84 105.653 365.047 105.42C365.253 105.18 365.503 104.997 365.797 104.87C366.09 104.743 366.423 104.68 366.797 104.68C367.177 104.68 367.51 104.747 367.797 104.88C368.09 105.013 368.333 105.2 368.527 105.44C368.72 105.673 368.863 105.947 368.957 106.26C369.057 106.573 369.107 106.91 369.107 107.27V107.68H365.537V107.85C365.537 108.25 365.653 108.58 365.887 108.84C366.127 109.093 366.467 109.22 366.907 109.22C367.227 109.22 367.497 109.15 367.717 109.01C367.937 108.87 368.123 108.68 368.277 108.44L368.917 109.07C368.723 109.39 368.443 109.647 368.077 109.84C367.71 110.027 367.283 110.12 366.797 110.12ZM366.797 105.53C366.61 105.53 366.437 105.563 366.277 105.63C366.123 105.697 365.99 105.79 365.877 105.91C365.77 106.03 365.687 106.173 365.627 106.34C365.567 106.507 365.537 106.69 365.537 106.89V106.96H367.957V106.86C367.957 106.46 367.853 106.14 367.647 105.9C367.44 105.653 367.157 105.53 366.797 105.53ZM371.423 110C371.05 110 370.77 109.907 370.583 109.72C370.403 109.527 370.313 109.26 370.313 108.92V102.6H371.403V109.11H372.123V110H371.423ZM374.216 110C373.843 110 373.563 109.907 373.376 109.72C373.196 109.527 373.106 109.26 373.106 108.92V102.6H374.196V109.11H374.916V110H374.216Z" fill="white"/>
</g>
<g filter="url(#filter9_d_121_13178)">
<path d="M389.95 72.12C389.363 72.12 388.863 72.0133 388.45 71.8C388.043 71.5867 387.693 71.3 387.4 70.94L388.18 70.21C388.427 70.51 388.697 70.7367 388.99 70.89C389.29 71.0433 389.63 71.12 390.01 71.12C390.457 71.12 390.793 71.02 391.02 70.82C391.247 70.62 391.36 70.35 391.36 70.01C391.36 69.7367 391.28 69.52 391.12 69.36C390.96 69.2 390.677 69.08 390.27 69L389.65 68.89C388.97 68.7633 388.46 68.54 388.12 68.22C387.78 67.9 387.61 67.46 387.61 66.9C387.61 66.5933 387.667 66.3167 387.78 66.07C387.9 65.8167 388.063 65.6067 388.27 65.44C388.483 65.2667 388.74 65.1333 389.04 65.04C389.34 64.9467 389.677 64.9 390.05 64.9C390.577 64.9 391.033 64.9933 391.42 65.18C391.807 65.36 392.137 65.6233 392.41 65.97L391.62 66.67C391.44 66.4367 391.22 66.25 390.96 66.11C390.7 65.97 390.377 65.9 389.99 65.9C389.59 65.9 389.28 65.98 389.06 66.14C388.84 66.3 388.73 66.5333 388.73 66.84C388.73 67.1333 388.82 67.3533 389 67.5C389.18 67.64 389.46 67.7467 389.84 67.82L390.46 67.95C391.16 68.0833 391.67 68.31 391.99 68.63C392.317 68.95 392.48 69.39 392.48 69.95C392.48 70.2767 392.423 70.5733 392.31 70.84C392.197 71.1067 392.03 71.3367 391.81 71.53C391.597 71.7167 391.333 71.8633 391.02 71.97C390.707 72.07 390.35 72.12 389.95 72.12ZM395.797 72.12C395.423 72.12 395.09 72.0567 394.797 71.93C394.503 71.8033 394.253 71.6233 394.047 71.39C393.84 71.15 393.68 70.8633 393.567 70.53C393.46 70.19 393.407 69.8133 393.407 69.4C393.407 68.9867 393.46 68.6133 393.567 68.28C393.68 67.94 393.84 67.6533 394.047 67.42C394.253 67.18 394.503 66.9967 394.797 66.87C395.09 66.7433 395.423 66.68 395.797 66.68C396.177 66.68 396.51 66.7467 396.797 66.88C397.09 67.0133 397.333 67.2 397.527 67.44C397.72 67.6733 397.863 67.9467 397.957 68.26C398.057 68.5733 398.107 68.91 398.107 69.27V69.68H394.537V69.85C394.537 70.25 394.653 70.58 394.887 70.84C395.127 71.0933 395.467 71.22 395.907 71.22C396.227 71.22 396.497 71.15 396.717 71.01C396.937 70.87 397.123 70.68 397.277 70.44L397.917 71.07C397.723 71.39 397.443 71.6467 397.077 71.84C396.71 72.0267 396.283 72.12 395.797 72.12ZM395.797 67.53C395.61 67.53 395.437 67.5633 395.277 67.63C395.123 67.6967 394.99 67.79 394.877 67.91C394.77 68.03 394.687 68.1733 394.627 68.34C394.567 68.5067 394.537 68.69 394.537 68.89V68.96H396.957V68.86C396.957 68.46 396.853 68.14 396.647 67.9C396.44 67.6533 396.157 67.53 395.797 67.53ZM400.423 72C400.05 72 399.77 71.9067 399.583 71.72C399.403 71.5267 399.313 71.26 399.313 70.92V64.6H400.403V71.11H401.123V72H400.423ZM403.216 72C402.843 72 402.563 71.9067 402.376 71.72C402.196 71.5267 402.106 71.26 402.106 70.92V64.6H403.196V71.11H403.916V72H403.216Z" fill="white"/>
</g>
<defs>
<filter id="filter0_d_121_13178" x="106.86" y="105.02" width="16.5527" height="9.97998" filterUnits="userSpaceOnUse" color-interpolation-filters="sRGB">
<feFlood flood-opacity="0" result="BackgroundImageFix"/>
<feColorMatrix in="SourceAlpha" type="matrix" values="0 0 0 0 0 0 0 0 0 0 0 0 0 0 0 0 0 0 127 0" result="hardAlpha"/>
<feOffset dy="1"/>
<feComposite in2="hardAlpha" operator="out"/>
<feColorMatrix type="matrix" values="0 0 0 0 0 0 0 0 0 0 0 0 0 0 0 0 0 0 0.12 0"/>
<feBlend mode="normal" in2="BackgroundImageFix" result="effect1_dropShadow_121_13178"/>
<feBlend mode="normal" in="SourceGraphic" in2="effect1_dropShadow_121_13178" result="shape"/>
</filter>
<filter id="filter1_d_121_13178" x="135.86" y="131.02" width="16.5527" height="9.97998" filterUnits="userSpaceOnUse" color-interpolation-filters="sRGB">
<feFlood flood-opacity="0" result="BackgroundImageFix"/>
<feColorMatrix in="SourceAlpha" type="matrix" values="0 0 0 0 0 0 0 0 0 0 0 0 0 0 0 0 0 0 127 0" result="hardAlpha"/>
<feOffset dy="1"/>
<feComposite in2="hardAlpha" operator="out"/>
<feColorMatrix type="matrix" values="0 0 0 0 0 0 0 0 0 0 0 0 0 0 0 0 0 0 0.12 0"/>
<feBlend mode="normal" in2="BackgroundImageFix" result="effect1_dropShadow_121_13178"/>
<feBlend mode="normal" in="SourceGraphic" in2="effect1_dropShadow_121_13178" result="shape"/>
</filter>
<filter id="filter2_d_121_13178" x="229.86" y="82.02" width="16.5527" height="9.97998" filterUnits="userSpaceOnUse" color-interpolation-filters="sRGB">
<feFlood flood-opacity="0" result="BackgroundImageFix"/>
<feColorMatrix in="SourceAlpha" type="matrix" values="0 0 0 0 0 0 0 0 0 0 0 0 0 0 0 0 0 0 127 0" result="hardAlpha"/>
<feOffset dy="1"/>
<feComposite in2="hardAlpha" operator="out"/>
<feColorMatrix type="matrix" values="0 0 0 0 0 0 0 0 0 0 0 0 0 0 0 0 0 0 0.12 0"/>
<feBlend mode="normal" in2="BackgroundImageFix" result="effect1_dropShadow_121_13178"/>
<feBlend mode="normal" in="SourceGraphic" in2="effect1_dropShadow_121_13178" result="shape"/>
</filter>
<filter id="filter3_d_121_13178" x="257.86" y="119.02" width="16.5527" height="9.97998" filterUnits="userSpaceOnUse" color-interpolation-filters="sRGB">
<feFlood flood-opacity="0" result="BackgroundImageFix"/>
<feColorMatrix in="SourceAlpha" type="matrix" values="0 0 0 0 0 0 0 0 0 0 0 0 0 0 0 0 0 0 127 0" result="hardAlpha"/>
<feOffset dy="1"/>
<feComposite in2="hardAlpha" operator="out"/>
<feColorMatrix type="matrix" values="0 0 0 0 0 0 0 0 0 0 0 0 0 0 0 0 0 0 0.12 0"/>
<feBlend mode="normal" in2="BackgroundImageFix" result="effect1_dropShadow_121_13178"/>
<feBlend mode="normal" in="SourceGraphic" in2="effect1_dropShadow_121_13178" result="shape"/>
</filter>
<filter id="filter4_d_121_13178" x="291.86" y="162.02" width="16.5527" height="9.97998" filterUnits="userSpaceOnUse" color-interpolation-filters="sRGB">
<feFlood flood-opacity="0" result="BackgroundImageFix"/>
<feColorMatrix in="SourceAlpha" type="matrix" values="0 0 0 0 0 0 0 0 0 0 0 0 0 0 0 0 0 0 127 0" result="hardAlpha"/>
<feOffset dy="1"/>
<feComposite in2="hardAlpha" operator="out"/>
<feColorMatrix type="matrix" values="0 0 0 0 0 0 0 0 0 0 0 0 0 0 0 0 0 0 0.12 0"/>
<feBlend mode="normal" in2="BackgroundImageFix" result="effect1_dropShadow_121_13178"/>
<feBlend mode="normal" in="SourceGraphic" in2="effect1_dropShadow_121_13178" result="shape"/>
</filter>
<filter id="filter5_d_121_13178" x="174.4" y="120.6" width="16.5161" height="8.52002" filterUnits="userSpaceOnUse" color-interpolation-filters="sRGB">
<feFlood flood-opacity="0" result="BackgroundImageFix"/>
<feColorMatrix in="SourceAlpha" type="matrix" values="0 0 0 0 0 0 0 0 0 0 0 0 0 0 0 0 0 0 127 0" result="hardAlpha"/>
<feOffset dy="1"/>
<feComposite in2="hardAlpha" operator="out"/>
<feColorMatrix type="matrix" values="0 0 0 0 0 0 0 0 0 0 0 0 0 0 0 0 0 0 0.12 0"/>
<feBlend mode="normal" in2="BackgroundImageFix" result="effect1_dropShadow_121_13178"/>
<feBlend mode="normal" in="SourceGraphic" in2="effect1_dropShadow_121_13178" result="shape"/>
</filter>
<filter id="filter6_d_121_13178" x="191.4" y="90.6" width="16.5161" height="8.52002" filterUnits="userSpaceOnUse" color-interpolation-filters="sRGB">
<feFlood flood-opacity="0" result="BackgroundImageFix"/>
<feColorMatrix in="SourceAlpha" type="matrix" values="0 0 0 0 0 0 0 0 0 0 0 0 0 0 0 0 0 0 127 0" result="hardAlpha"/>
<feOffset dy="1"/>
<feComposite in2="hardAlpha" operator="out"/>
<feColorMatrix type="matrix" values="0 0 0 0 0 0 0 0 0 0 0 0 0 0 0 0 0 0 0.12 0"/>
<feBlend mode="normal" in2="BackgroundImageFix" result="effect1_dropShadow_121_13178"/>
<feBlend mode="normal" in="SourceGraphic" in2="effect1_dropShadow_121_13178" result="shape"/>
</filter>
<filter id="filter7_d_121_13178" x="332.4" y="140.6" width="16.5161" height="8.52002" filterUnits="userSpaceOnUse" color-interpolation-filters="sRGB">
<feFlood flood-opacity="0" result="BackgroundImageFix"/>
<feColorMatrix in="SourceAlpha" type="matrix" values="0 0 0 0 0 0 0 0 0 0 0 0 0 0 0 0 0 0 127 0" result="hardAlpha"/>
<feOffset dy="1"/>
<feComposite in2="hardAlpha" operator="out"/>
<feColorMatrix type="matrix" values="0 0 0 0 0 0 0 0 0 0 0 0 0 0 0 0 0 0 0.12 0"/>
<feBlend mode="normal" in2="BackgroundImageFix" result="effect1_dropShadow_121_13178"/>
<feBlend mode="normal" in="SourceGraphic" in2="effect1_dropShadow_121_13178" result="shape"/>
</filter>
<filter id="filter8_d_121_13178" x="358.4" y="102.6" width="16.5161" height="8.52002" filterUnits="userSpaceOnUse" color-interpolation-filters="sRGB">
<feFlood flood-opacity="0" result="BackgroundImageFix"/>
<feColorMatrix in="SourceAlpha" type="matrix" values="0 0 0 0 0 0 0 0 0 0 0 0 0 0 0 0 0 0 127 0" result="hardAlpha"/>
<feOffset dy="1"/>
<feComposite in2="hardAlpha" operator="out"/>
<feColorMatrix type="matrix" values="0 0 0 0 0 0 0 0 0 0 0 0 0 0 0 0 0 0 0.12 0"/>
<feBlend mode="normal" in2="BackgroundImageFix" result="effect1_dropShadow_121_13178"/>
<feBlend mode="normal" in="SourceGraphic" in2="effect1_dropShadow_121_13178" result="shape"/>
</filter>
<filter id="filter9_d_121_13178" x="387.4" y="64.6" width="16.5161" height="8.52002" filterUnits="userSpaceOnUse" color-interpolation-filters="sRGB">
<feFlood flood-opacity="0" result="BackgroundImageFix"/>
<feColorMatrix in="SourceAlpha" type="matrix" values="0 0 0 0 0 0 0 0 0 0 0 0 0 0 0 0 0 0 127 0" result="hardAlpha"/>
<feOffset dy="1"/>
<feComposite in2="hardAlpha" operator="out"/>
<feColorMatrix type="matrix" values="0 0 0 0 0 0 0 0 0 0 0 0 0 0 0 0 0 0 0.12 0"/>
<feBlend mode="normal" in2="BackgroundImageFix" result="effect1_dropShadow_121_13178"/>
<feBlend mode="normal" in="SourceGraphic" in2="effect1_dropShadow_121_13178" result="shape"/>
</filter>
<linearGradient id="paint0_linear_121_13178" x1="249.465" y1="51" x2="249.465" y2="182.724" gradientUnits="userSpaceOnUse">
<stop stop-color="#FF7F00" stop-opacity="0.38"/>
<stop offset="1" stop-color="#FFA500" stop-opacity="0"/>
</linearGradient>
</defs>
</svg>
