<svg width="17" height="17" viewBox="0 0 17 17" fill="none" xmlns="http://www.w3.org/2000/svg">
<path d="M4.87305 13.3876C4.58263 13.3876 4.3418 13.1468 4.3418 12.8564V11.3901C4.3418 11.0997 4.58263 10.8589 4.87305 10.8589C5.16346 10.8589 5.4043 11.0997 5.4043 11.3901V12.8564C5.4043 13.1539 5.16346 13.3876 4.87305 13.3876Z" fill="#777E90"/>
<path d="M8.5 13.3873C8.20958 13.3873 7.96875 13.1465 7.96875 12.8561V9.9165C7.96875 9.62609 8.20958 9.38525 8.5 9.38525C8.79042 9.38525 9.03125 9.62609 9.03125 9.9165V12.8561C9.03125 13.1536 8.79042 13.3873 8.5 13.3873Z" fill="#777E90"/>
<path d="M12.127 13.3873C11.8365 13.3873 11.5957 13.1464 11.5957 12.856V8.4502C11.5957 8.15978 11.8365 7.91895 12.127 7.91895C12.4174 7.91895 12.6582 8.15978 12.6582 8.4502V12.856C12.6582 13.1535 12.4245 13.3873 12.127 13.3873Z" fill="#777E90"/>
<path d="M4.87296 9.336C4.63212 9.336 4.41962 9.17308 4.35587 8.93225C4.28504 8.64892 4.45504 8.3585 4.74546 8.28767C7.35212 7.636 9.64712 6.21225 11.3967 4.17933L11.7225 3.79683C11.9138 3.57725 12.2467 3.54892 12.4734 3.74017C12.693 3.93142 12.7213 4.26433 12.53 4.491L12.2042 4.8735C10.313 7.0835 7.81962 8.62058 5.00046 9.32183C4.95796 9.336 4.91546 9.336 4.87296 9.336Z" fill="#777E90"/>
<path d="M12.1262 6.74314C11.8358 6.74314 11.5949 6.50231 11.5949 6.21189V4.6748H10.0508C9.76036 4.6748 9.51953 4.43397 9.51953 4.14355C9.51953 3.85314 9.76036 3.6123 10.0508 3.6123H12.1262C12.4166 3.6123 12.6574 3.85314 12.6574 4.14355V6.21897C12.6574 6.50939 12.4237 6.74314 12.1262 6.74314Z" fill="#777E90"/>
<path d="M10.6243 16.1144H6.37435C2.5281 16.1144 0.884766 14.4711 0.884766 10.6248V6.37484C0.884766 2.52859 2.5281 0.885254 6.37435 0.885254H10.6243C14.4706 0.885254 16.1139 2.52859 16.1139 6.37484V10.6248C16.1139 14.4711 14.4706 16.1144 10.6243 16.1144ZM6.37435 1.94775C3.10893 1.94775 1.94727 3.10942 1.94727 6.37484V10.6248C1.94727 13.8903 3.10893 15.0519 6.37435 15.0519H10.6243C13.8898 15.0519 15.0514 13.8903 15.0514 10.6248V6.37484C15.0514 3.10942 13.8898 1.94775 10.6243 1.94775H6.37435Z" fill="#777E90"/>
</svg>
