<svg width="40" height="40" viewBox="0 0 40 40" fill="none" xmlns="http://www.w3.org/2000/svg">
<circle cx="20" cy="20" r="20" fill="white"/>
<mask id="mask0_121_13257" style="mask-type:alpha" maskUnits="userSpaceOnUse" x="10" y="9" width="20" height="22">
<rect x="10" y="9" width="20" height="21.229" fill="black"/>
</mask>
<g mask="url(#mask0_121_13257)">
<path d="M13.1413 21.6047C12.6469 21.6047 12.1635 21.4491 11.7524 21.1575C11.3413 20.8659 11.0208 20.4515 10.8316 19.9666C10.6424 19.4817 10.5929 18.9482 10.6894 18.4334C10.7858 17.9187 11.0239 17.4458 11.3735 17.0747C11.7232 16.7036 12.1686 16.4509 12.6536 16.3485C13.1385 16.2461 13.6412 16.2986 14.098 16.4995C14.5548 16.7003 14.9453 17.0404 15.22 17.4768C15.4947 17.9132 15.6413 18.4263 15.6413 18.9511C15.6413 19.6549 15.3779 20.3299 14.9091 20.8275C14.4402 21.3252 13.8044 21.6047 13.1413 21.6047ZM13.1413 16.7398C12.7293 16.7398 12.3265 16.8695 11.9839 17.1124C11.6413 17.3554 11.3742 17.7008 11.2166 18.1049C11.0589 18.5089 11.0176 18.9536 11.098 19.3825C11.1784 19.8115 11.3768 20.2055 11.6682 20.5148C11.9595 20.824 12.3308 21.0347 12.7349 21.12C13.139 21.2053 13.5579 21.1615 13.9386 20.9941C14.3193 20.8268 14.6446 20.5433 14.8735 20.1797C15.1025 19.816 15.2246 19.3885 15.2246 18.9511C15.2246 18.3646 15.0052 17.8022 14.6145 17.3874C14.2238 16.9727 13.6939 16.7398 13.1413 16.7398Z" fill="#081131"/>
<path d="M23.9747 9.88464C23.1094 9.88464 22.2635 10.157 21.5441 10.6673C20.8246 11.1775 20.2639 11.9028 19.9327 12.7514C19.6016 13.5999 19.515 14.5336 19.6838 15.4345C19.8526 16.3353 20.2693 17.1627 20.8811 17.8122C21.493 18.4617 22.2725 18.9039 23.1212 19.0831C23.9698 19.2623 24.8495 19.1703 25.6489 18.8189C26.4484 18.4674 27.1317 17.8722 27.6124 17.1085C28.0931 16.3448 28.3497 15.447 28.3497 14.5285C28.3497 13.2969 27.8888 12.1157 27.0683 11.2448C26.2478 10.3739 25.135 9.88464 23.9747 9.88464ZM23.9747 17.8455C23.3566 17.8455 22.7524 17.651 22.2385 17.2865C21.7246 16.922 21.3241 16.404 21.0876 15.7979C20.8511 15.1918 20.7892 14.5248 20.9097 13.8814C21.0303 13.2379 21.328 12.6469 21.765 12.183C22.202 11.7191 22.7589 11.4032 23.365 11.2752C23.9712 11.1472 24.5996 11.2129 25.1706 11.464C25.7416 11.715 26.2297 12.1402 26.573 12.6857C26.9164 13.2311 27.0997 13.8725 27.0997 14.5285C27.0997 15.4082 26.7705 16.2519 26.1844 16.874C25.5984 17.4961 24.8035 17.8455 23.9747 17.8455Z" fill="#081131"/>
<path d="M28.686 19.8282L10.6773 23.4743C10.2253 23.5659 9.92868 24.0291 10.0149 24.509C10.1011 24.9888 10.5375 25.3036 10.9896 25.2121L28.9983 21.566C29.4504 21.4745 29.747 21.0113 29.6607 20.5314C29.5745 20.0515 29.1381 19.7367 28.686 19.8282Z" fill="#081131"/>
<path d="M17.0031 29.4759H22.5256C22.6238 29.4765 22.72 29.4461 22.8018 29.3885C22.8836 29.3308 22.9475 29.2487 22.9851 29.1524C23.0228 29.0561 23.0326 28.9501 23.0133 28.8479C22.9939 28.7457 22.9464 28.6519 22.8767 28.5785L20.1129 25.6502C20.0203 25.5524 19.895 25.4976 19.7644 25.4976C19.6337 25.4976 19.5084 25.5524 19.4158 25.6502L16.652 28.5785C16.5823 28.6519 16.5348 28.7457 16.5154 28.8479C16.4961 28.9501 16.5059 29.0561 16.5436 29.1524C16.5812 29.2487 16.6451 29.3308 16.7269 29.3885C16.8087 29.4461 16.9049 29.4765 17.0031 29.4759Z" fill="#081131"/>
</g>
<ellipse cx="24" cy="14.3073" rx="4" ry="4.24581" fill="#081131"/>
</svg>
