<svg width="58" height="59" viewBox="0 0 58 59" fill="none" xmlns="http://www.w3.org/2000/svg">
<circle cx="28.8424" cy="29.5621" r="28.8424" fill="white"/>
<circle cx="28.5868" cy="29.3006" r="24.118" fill="url(#paint0_linear_1555_29883)"/>
<path d="M25.7886 38.347C25.3923 38.3492 24.9995 38.2755 24.6326 38.1302C24.2658 37.9848 23.9321 37.7707 23.6507 37.5L17.6287 31.6589C17.0617 31.1089 16.7432 30.363 16.7432 29.5853C16.7432 28.8075 17.0617 28.0616 17.6287 27.5117C18.1957 26.9617 18.9647 26.6528 19.7665 26.6528C20.5684 26.6528 21.3374 26.9617 21.9043 27.5117L25.7886 31.3084L35.6949 21.6705C35.9748 21.3968 36.3078 21.1795 36.6747 21.0313C37.0416 20.883 37.4352 20.8066 37.8327 20.8066C38.2302 20.8066 38.6238 20.883 38.9907 21.0313C39.3576 21.1795 39.6906 21.3968 39.9705 21.6705C40.2527 21.942 40.4768 22.2651 40.6296 22.621C40.7825 22.9769 40.8612 23.3586 40.8612 23.7441C40.8612 24.1297 40.7825 24.5114 40.6296 24.8673C40.4768 25.2232 40.2527 25.5462 39.9705 25.8177L27.9264 37.5C27.6451 37.7707 27.3114 37.9848 26.9445 38.1302C26.5777 38.2755 26.1848 38.3492 25.7886 38.347Z" fill="white"/>
<defs>
<linearGradient id="paint0_linear_1555_29883" x1="29.0984" y1="-5.89854" x2="28.5868" y2="53.4187" gradientUnits="userSpaceOnUse">
<stop stop-color="#77F087"/>
<stop offset="1" stop-color="#5BCE5C"/>
</linearGradient>
</defs>
</svg>
