<svg width="64" height="64" viewBox="0 0 64 64" fill="none" xmlns="http://www.w3.org/2000/svg">
<circle cx="32" cy="32" r="32" fill="#6FE67A" fill-opacity="0.2"/>
<circle cx="31.5868" cy="31.5809" r="24.118" fill="url(#paint0_linear_6281_11514)"/>
<path d="M28.7876 40.6282C28.3913 40.6304 27.9985 40.5568 27.6316 40.4114C27.2648 40.2661 26.9311 40.0519 26.6498 39.7813L20.6277 33.9401C20.0607 33.3902 19.7422 32.6443 19.7422 31.8665C19.7422 31.0888 20.0607 30.3429 20.6277 29.7929C21.1947 29.243 21.9637 28.934 22.7655 28.934C23.5674 28.934 24.3364 29.243 24.9034 29.7929L28.7876 33.5897L38.6939 23.9518C38.9738 23.678 39.3068 23.4608 39.6737 23.3125C40.0407 23.1642 40.4342 23.0879 40.8317 23.0879C41.2292 23.0879 41.6228 23.1642 41.9897 23.3125C42.3566 23.4608 42.6896 23.678 42.9696 23.9518C43.2518 24.2233 43.4758 24.5463 43.6286 24.9022C43.7815 25.2581 43.8602 25.6398 43.8602 26.0254C43.8602 26.4109 43.7815 26.7927 43.6286 27.1486C43.4758 27.5045 43.2518 27.8275 42.9696 28.099L30.9254 39.7813C30.6441 40.0519 30.3104 40.2661 29.9436 40.4114C29.5767 40.5568 29.1839 40.6304 28.7876 40.6282Z" fill="white"/>
<defs>
<linearGradient id="paint0_linear_6281_11514" x1="32.0984" y1="-3.61826" x2="31.5868" y2="55.6989" gradientUnits="userSpaceOnUse">
<stop stop-color="#77F087"/>
<stop offset="1" stop-color="#5BCE5C"/>
</linearGradient>
</defs>
</svg>
