<svg width="73" height="73" viewBox="0 0 73 73" fill="none" xmlns="http://www.w3.org/2000/svg">
<g clip-path="url(#clip0_34_328)">
<path d="M5.11072 27.8853L28.473 0.932703C28.9008 0.435763 29.4956 0.112649 30.1453 0.0243745C30.795 -0.0639002 31.4546 0.0887744 31.9994 0.453574L62.6061 20.8581C62.6061 20.8581 66.4392 58.5495 65.8003 58.5495C65.1615 58.5495 9.58258 65.5767 9.58258 65.5767L5.11072 27.8853Z" fill="#081131"/>
<path d="M9.90198 38.1067V12.0421L53.343 5.52594L54.6206 42.4508L11.8185 48.9669L9.90198 38.1067Z" fill="white" stroke="#081131" stroke-width="1.06" stroke-miterlimit="10"/>
<path d="M5.11072 27.8853L9.58258 65.5767L67.078 58.5495L62.6061 20.8581L41.8439 42.2591L28.4283 43.5368L5.11072 27.8853Z" fill="#FFA500"/>
<path d="M5.74951 28.5241L28.1088 43.8562L42.1633 41.9397L61.9672 20.8581" stroke="#081131" stroke-width="2" stroke-linecap="round" stroke-linejoin="round"/>
<path d="M28.1089 43.8562L24.2759 48.9669" stroke="#081131" stroke-width="2" stroke-linecap="round" stroke-linejoin="round"/>
<path d="M42.1633 41.9397L45.9964 47.0504" stroke="#081131" stroke-width="2" stroke-linecap="round" stroke-linejoin="round"/>
<path d="M10.2214 4.88712V8.72014" stroke="#081131" stroke-width="2" stroke-linecap="round" stroke-linejoin="round"/>
<path d="M0.638794 6.80362L7.66601 10.6366" stroke="#081131" stroke-width="2" stroke-linecap="round" stroke-linejoin="round"/>
<path d="M0.638794 13.8308L7.66601 15.1085" stroke="#081131" stroke-width="2" stroke-linecap="round" stroke-linejoin="round"/>
<path d="M57.4954 62.3825C57.4954 62.3825 67.4612 65.1487 68.017 69.5822C68.5728 74.0157 61.3731 71.7926 61.3731 66.8096C61.3731 61.8267 72.4442 65.7045 72.4442 65.7045" stroke="#081131" stroke-width="1.73" stroke-linecap="round" stroke-linejoin="round"/>
<path d="M14.0864 28.5305L26.7993 27.2337" stroke="#081131" stroke-width="2" stroke-miterlimit="10"/>
<path d="M14.0864 31.7247L30.6259 30.0381" stroke="#081131" stroke-width="2.28" stroke-miterlimit="10"/>
<path d="M67.1035 60.9323L72.1631 61.9098" stroke="#081131" stroke-width="1.48" stroke-linecap="round" stroke-linejoin="round"/>
</g>
<defs>
<clipPath id="clip0_34_328">
<rect width="73" height="72.5145" fill="white"/>
</clipPath>
</defs>
</svg>
