<svg width="44" height="44" viewBox="0 0 44 44" fill="none" xmlns="http://www.w3.org/2000/svg">
<rect x="0.5" y="0.5" width="43" height="43" rx="21.5" fill="white"/>
<rect x="0.5" y="0.5" width="43" height="43" rx="21.5" stroke="#ECECEC"/>
<path d="M19.8478 24.5451L19.517 29.0122C19.9903 29.0122 20.1953 28.817 20.4412 28.5827L22.6604 26.5467L27.2588 29.7794C28.1022 30.2306 28.6964 29.993 28.9239 29.0346L31.9423 15.4571L31.9431 15.4563C32.2106 14.2595 31.4923 13.7915 30.6706 14.0851L12.9285 20.6059C11.7176 21.0571 11.736 21.7051 12.7227 21.9987L17.2586 23.3531L27.7947 17.0243C28.2905 16.7091 28.7414 16.8835 28.3705 17.1987L19.8478 24.5451Z" fill="#0088CC"/>
</svg>
