<svg width="25" height="25" viewBox="0 0 25 25" fill="none" xmlns="http://www.w3.org/2000/svg">
<path fill-rule="evenodd" clip-rule="evenodd" d="M22.9193 12.4997C22.9193 18.2526 18.2556 22.9163 12.5026 22.9163C6.74964 22.9163 2.08594 18.2526 2.08594 12.4997C2.08594 6.74671 6.74964 2.08301 12.5026 2.08301C18.2556 2.08301 22.9193 6.74671 22.9193 12.4997ZM12.8759 9.77305C11.8627 10.1945 9.83778 11.0667 6.80111 12.3897C6.308 12.5858 6.04969 12.7776 6.02618 12.9652C5.98644 13.2822 6.38342 13.4071 6.92401 13.577C6.99755 13.6002 7.07374 13.6241 7.15184 13.6495C7.6837 13.8224 8.39914 14.0247 8.77107 14.0327C9.10845 14.04 9.485 13.9009 9.90072 13.6154C12.738 11.7002 14.2026 10.7322 14.2945 10.7113C14.3594 10.6966 14.4493 10.678 14.5102 10.7322C14.5711 10.7863 14.5651 10.8888 14.5587 10.9163C14.5193 11.084 12.961 12.5328 12.1546 13.2825C11.9032 13.5162 11.7249 13.682 11.6884 13.7199C11.6068 13.8047 11.5235 13.8849 11.4435 13.962C10.9494 14.4383 10.5789 14.7955 11.4641 15.3788C11.8894 15.6592 12.2298 15.891 12.5694 16.1222C12.9402 16.3748 13.3101 16.6266 13.7887 16.9404C13.9106 17.0203 14.0271 17.1033 14.1405 17.1842C14.5721 17.4919 14.9598 17.7683 15.4389 17.7242C15.7172 17.6986 16.0047 17.4368 16.1507 16.6562C16.4958 14.8114 17.1741 10.8143 17.3309 9.16719C17.3446 9.02288 17.3274 8.83819 17.3135 8.75712C17.2996 8.67605 17.2706 8.56053 17.1652 8.47502C17.0404 8.37375 16.8478 8.3524 16.7616 8.35384C16.3698 8.36082 15.7687 8.56983 12.8759 9.77305Z" fill="#1C8ADB"/>
</svg>
