<svg width="42" height="42" viewBox="0 0 42 42" fill="none" xmlns="http://www.w3.org/2000/svg">
<circle cx="21" cy="21" r="20.5" stroke="#D9D9D9"/>
<path d="M31.5398 11.325C31.3575 11.1656 31.1356 11.0597 30.898 11.0189C30.6605 10.978 30.4165 11.0038 30.1924 11.0934L9.83944 19.1859C9.57338 19.2917 9.34831 19.4818 9.19793 19.7278C9.04754 19.9739 8.97992 20.2626 9.00518 20.5508C9.03044 20.839 9.14722 21.1111 9.33806 21.3265C9.52889 21.5419 9.78351 21.689 10.0638 21.7457L15.5882 22.864V29.7654C15.5855 30.0309 15.662 30.2911 15.8077 30.5119C15.9535 30.7327 16.1617 30.9038 16.4051 31.0028C16.5682 31.0719 16.7432 31.1077 16.92 31.1082C17.0927 31.1076 17.2637 31.0724 17.4229 31.0044C17.5821 30.9365 17.7264 30.8372 17.8473 30.7124L21.0009 27.5207L25.654 31.6649C25.8938 31.8805 26.2032 31.9997 26.5239 32C26.6633 31.9998 26.8019 31.9776 26.9345 31.9341C27.1532 31.8639 27.3499 31.7369 27.5049 31.5657C27.66 31.3945 27.768 31.1852 27.8182 30.9586L31.9662 12.6392C32.0204 12.4016 32.0093 12.1535 31.9341 11.9219C31.8589 11.6902 31.7226 11.4838 31.5398 11.325ZM9.88397 20.4718C9.873 20.3754 9.89448 20.278 9.94495 20.1955C9.99542 20.1129 10.0719 20.05 10.1621 20.0169L28.8188 12.5988L15.927 22.022L10.2368 20.8702C10.1423 20.8537 10.0561 20.8054 9.99203 20.7331C9.928 20.6608 9.88993 20.5687 9.88397 20.4718ZM17.2235 30.0811C17.1618 30.1435 17.0832 30.186 16.9976 30.2033C16.9121 30.2205 16.8234 30.2117 16.7428 30.1779C16.6622 30.1441 16.5933 30.0869 16.5448 30.0135C16.4963 29.94 16.4705 29.8537 16.4705 29.7654V23.4856L20.3373 26.9296L17.2235 30.0811ZM31.1063 12.4397L26.9582 30.7592C26.9411 30.8345 26.905 30.9041 26.8534 30.9611C26.8017 31.0181 26.7363 31.0606 26.6636 31.0843C26.5909 31.1081 26.5133 31.1123 26.4385 31.0965C26.3637 31.0808 26.2942 31.0457 26.2368 30.9946L16.7357 22.5324L31.035 12.0804C31.0726 12.1311 31.0985 12.1897 31.1109 12.2519C31.1232 12.314 31.1216 12.3782 31.1063 12.4397Z" fill="#081131" stroke="black" stroke-width="0.5"/>
</svg>
