<svg width="65" height="61" viewBox="0 0 65 61" fill="none" xmlns="http://www.w3.org/2000/svg">
<g clip-path="url(#clip0_682_7378)">
<path d="M53.0676 5.60929L53.4202 5.25485L53.0676 5.60929C53.3889 5.92901 53.5689 6.36211 53.5689 6.81318V54.2598C53.5689 54.4832 53.5247 54.7044 53.4387 54.911C53.3528 55.1175 53.2267 55.3053 53.0676 55.4637C52.9084 55.622 52.7194 55.7477 52.5111 55.8336C52.3029 55.9194 52.0796 55.9636 51.8541 55.9636H19.1521C18.9266 55.9636 18.7033 55.9194 18.4951 55.8336C18.2868 55.7477 18.0978 55.622 17.9386 55.4637C17.7795 55.3053 17.6534 55.1175 17.5675 54.911C17.4815 54.7045 17.4373 54.4832 17.4373 54.2598V6.81318C17.4373 6.58978 17.4815 6.36851 17.5675 6.16198C17.6534 5.95545 17.7795 5.76762 17.9386 5.60929C18.0978 5.45096 18.2868 5.32523 18.4951 5.23941C18.7033 5.15358 18.9266 5.10938 19.1521 5.10938H51.8541C52.3097 5.10938 52.7461 5.28949 53.0676 5.60929Z" fill="#EBEBEB" fill-opacity="0.5" stroke="black"/>
<path d="M9.77148 2.66498C9.77148 1.97735 10.046 1.31788 10.5347 0.831653C11.0234 0.345425 11.6861 0.0722656 12.3772 0.0722656H35.6138L47.3396 11.9858V49.4893C47.3396 50.177 47.0651 50.8364 46.5764 51.3227C46.0878 51.8089 45.425 52.082 44.7339 52.082H12.3968C11.7057 52.082 11.0429 51.8089 10.5542 51.3227C10.0656 50.8364 9.79103 50.177 9.79103 49.4893L9.77148 2.66498Z" fill="#EBEBEB"/>
<path d="M9.77148 2.66498C9.77148 1.97735 10.046 1.31788 10.5347 0.831653C11.0234 0.345425 11.6861 0.0722656 12.3772 0.0722656H35.6138L47.3396 11.9858V49.4893C47.3396 50.177 47.0651 50.8364 46.5764 51.3227C46.0878 51.8089 45.425 52.082 44.7339 52.082H12.3968C11.7057 52.082 11.0429 51.8089 10.5542 51.3227C10.0656 50.8364 9.79103 50.177 9.79103 49.4893L9.77148 2.66498Z" stroke="#939393" stroke-width="0.21"/>
<path d="M31.2688 30.5352H2.60573C1.16663 30.5352 0 31.696 0 33.1279V40.7958C0 42.2277 1.16663 43.3885 2.60573 43.3885H31.2688C32.7079 43.3885 33.8745 42.2277 33.8745 40.7958V33.1279C33.8745 31.696 32.7079 30.5352 31.2688 30.5352Z" fill="#FFA500"/>
<path d="M10.462 34.8973C10.2547 34.8925 10.0492 34.9369 9.86269 35.027C9.69078 35.1182 9.54163 35.2467 9.42623 35.4029C9.30061 35.5818 9.20797 35.7815 9.15263 35.9927C9.09554 36.2503 9.06714 36.5133 9.06794 36.777C9.05954 37.1175 9.10797 37.457 9.21126 37.7817C9.29166 38.0398 9.45109 38.2664 9.66726 38.4299C9.90364 38.5811 10.1813 38.6558 10.462 38.6438C10.6814 38.6416 10.8998 38.6155 11.1134 38.566C11.3624 38.5075 11.6081 38.4361 11.8496 38.3521V39.3309C11.6154 39.4249 11.3734 39.4987 11.1265 39.5512C10.862 39.5975 10.5937 39.6192 10.3252 39.6161C9.83113 39.6339 9.34176 39.515 8.9116 39.2725C8.54331 39.034 8.25873 38.6874 8.09731 38.2808C7.91178 37.8059 7.82106 37.2995 7.83022 36.79C7.82639 36.4011 7.88353 36.0141 7.99959 35.6427C8.10376 35.3098 8.27436 35.0011 8.5012 34.7353C8.72467 34.4819 9.00312 34.2824 9.31549 34.1519C9.66983 34.0034 10.0515 33.9306 10.436 33.938C10.7132 33.9398 10.989 33.9769 11.2568 34.0482C11.5327 34.1137 11.8012 34.2071 12.058 34.3269L11.6802 35.2797C11.4717 35.1825 11.2633 35.0983 11.0288 35.0205C10.8475 34.9502 10.6562 34.9087 10.462 34.8973ZM16.82 37.3993C16.8243 37.7188 16.7736 38.0367 16.6702 38.3391C16.5875 38.5981 16.4472 38.8351 16.2598 39.0327C16.0789 39.2236 15.8559 39.3701 15.6083 39.4605C15.3296 39.5554 15.0365 39.6014 14.7419 39.5966C14.4625 39.5989 14.1847 39.5529 13.9211 39.4605C13.6753 39.3667 13.453 39.2207 13.2697 39.0327C13.0806 38.8329 12.9343 38.597 12.8397 38.3391C12.7363 38.0367 12.6856 37.7188 12.6899 37.3993C12.6766 36.9913 12.7638 36.5863 12.944 36.2196C13.0984 35.9047 13.3462 35.6445 13.654 35.4742C13.9961 35.2991 14.3769 35.2122 14.7615 35.2214C15.1292 35.2142 15.4926 35.3012 15.8168 35.4742C16.1255 35.6475 16.3768 35.9065 16.5399 36.2196C16.7321 36.5829 16.8285 36.9888 16.82 37.3993ZM13.8885 37.3993C13.8821 37.6376 13.9106 37.8757 13.9732 38.1058C14.0221 38.2744 14.1222 38.4239 14.2599 38.5336C14.411 38.6303 14.5885 38.6779 14.768 38.6697C14.9433 38.6778 15.1167 38.6301 15.2631 38.5336C15.3987 38.4233 15.4965 38.2738 15.5432 38.1058C15.6114 37.8767 15.6422 37.6381 15.6344 37.3993C15.6423 37.1647 15.6115 36.9304 15.5432 36.7057C15.5001 36.5397 15.4012 36.3934 15.2631 36.2909C15.1141 36.189 14.9355 36.1389 14.755 36.1483C14.628 36.1408 14.5013 36.1661 14.3872 36.2217C14.273 36.2774 14.1753 36.3615 14.1035 36.4659C13.9447 36.7506 13.8702 37.0742 13.8885 37.3993ZM20.1358 35.2214C20.36 35.2142 20.5825 35.2611 20.7845 35.3582C20.9864 35.4553 21.1617 35.5996 21.2953 35.7788C21.6252 36.2525 21.7816 36.8246 21.7383 37.3993C21.752 37.8153 21.6811 38.2298 21.5299 38.6179C21.415 38.9126 21.2157 39.1673 20.9566 39.3503C20.7068 39.5178 20.4109 39.6039 20.1097 39.5966C19.9304 39.598 19.752 39.5695 19.5821 39.5123C19.4452 39.468 19.3173 39.4 19.2042 39.3114C19.1039 39.2351 19.0121 39.1482 18.9306 39.0521H18.872C18.8945 39.1547 18.9097 39.2586 18.9176 39.3633C18.9242 39.4647 18.9242 39.5665 18.9176 39.6679V41.3726H17.7581V35.2992H18.6961L18.859 35.8437H18.9111C18.9922 35.7316 19.0862 35.6293 19.1912 35.539C19.3067 35.439 19.439 35.36 19.5821 35.3057C19.7597 35.2433 19.9475 35.2148 20.1358 35.2214ZM19.7645 36.1418C19.5948 36.1318 19.4262 36.1749 19.2824 36.265C19.1561 36.3581 19.0645 36.4904 19.0218 36.6409C18.9612 36.8517 18.9305 37.0699 18.9306 37.2891V37.4122C18.9264 37.648 18.9527 37.8832 19.0088 38.1123C19.0508 38.2773 19.1443 38.4248 19.2759 38.5336C19.4234 38.6392 19.6026 38.6917 19.784 38.6827C19.9407 38.6861 20.0933 38.6331 20.214 38.5336C20.3422 38.4178 20.4329 38.2666 20.4745 38.0993C20.5368 37.8735 20.5654 37.6398 20.5592 37.4058C20.5803 37.0849 20.5127 36.7643 20.3638 36.4789C20.3055 36.3726 20.2185 36.2847 20.1125 36.2251C20.0066 36.1656 19.886 36.1367 19.7645 36.1418ZM21.9338 35.2992H23.2366L24.0379 37.6715C24.0635 37.7477 24.0831 37.8257 24.0965 37.9049C24.1207 37.9832 24.1382 38.0634 24.1486 38.1447C24.1557 38.2331 24.1557 38.322 24.1486 38.4104C24.1624 38.2818 24.1841 38.154 24.2138 38.028C24.2138 37.9049 24.2789 37.7882 24.3115 37.6715L25.0997 35.2992H26.344L24.546 40.0633C24.4561 40.3346 24.317 40.5872 24.1356 40.8087C23.9721 40.9991 23.7671 41.1498 23.5363 41.2495C23.3015 41.3491 23.0488 41.3998 22.7936 41.3985C22.6788 41.4094 22.5632 41.4094 22.4484 41.3985C22.3648 41.3935 22.2819 41.3805 22.2008 41.3597V40.4003L22.4028 40.4328H22.6568C22.8025 40.4347 22.9462 40.399 23.0738 40.329C23.1924 40.2607 23.2929 40.1652 23.3669 40.0503C23.4477 39.937 23.5114 39.8126 23.5558 39.6809L23.621 39.5123L21.9338 35.2992Z" fill="white"/>
<path d="M35.5747 0.0722656L47.3005 11.9598H35.5747V0.0722656Z" fill="#FFA500"/>
<path d="M37.7961 51.6144L40.3367 58.7443L65.0065 35.0664L37.7961 51.6144Z" fill="#718096"/>
<path d="M40.3367 58.7502L40.9881 53.4222L65.0195 35.0723L40.3367 58.7502Z" fill="#FFB020"/>
<path d="M37.748 51.3681L27.4253 45.3421L63.3952 35.7602L37.748 51.3681Z" fill="#EBEBEB" stroke="black" stroke-width="0.5"/>
<path d="M53.9358 60.6415L41.4186 53.4253L64.4094 35.8437L53.9358 60.6415Z" fill="#EBEBEB" stroke="black" stroke-width="0.5"/>
</g>
<defs>
<clipPath id="clip0_682_7378">
<rect width="65" height="61" fill="white"/>
</clipPath>
</defs>
</svg>
