<svg width="64" height="57" viewBox="0 0 64 57" fill="none" xmlns="http://www.w3.org/2000/svg">
<g clip-path="url(#clip0_698_2108)">
<path d="M5.63025 7.12856C5.63025 6.58119 5.84778 6.0562 6.23504 5.66909C6.62231 5.28197 7.14761 5.06445 7.69538 5.06445H56.4329C56.9806 5.06445 57.5059 5.28197 57.8932 5.66909C58.2805 6.0562 58.498 6.58119 58.498 7.12856V44.308C58.498 44.8554 58.2805 45.3804 57.8932 45.7675C57.5059 46.1546 56.9806 46.3721 56.4329 46.3721H7.69538C7.14761 46.3721 6.62231 46.1546 6.23504 45.7675C5.84778 45.3804 5.63025 44.8554 5.63025 44.308V7.12856Z" fill="#F4F4F4" stroke="black"/>
<path d="M11.5431 2.64027C11.5431 1.96023 11.8133 1.30804 12.2944 0.82718C12.7755 0.346318 13.4279 0.0761719 14.1082 0.0761719H50.02C50.7004 0.0761719 51.3528 0.346318 51.8339 0.82718C52.3149 1.30804 52.5852 1.96023 52.5852 2.64027V48.7941C52.5852 49.4742 52.3149 50.1264 51.8339 50.6072C51.3528 51.0881 50.7004 51.3582 50.02 51.3582H14.1082C13.4279 51.3582 12.7755 51.0881 12.2944 50.6072C11.8133 50.1264 11.5431 49.4742 11.5431 48.7941V2.64027Z" fill="#EBEBEB"/>
<path d="M11.5431 2.64027C11.5431 1.96023 11.8133 1.30804 12.2944 0.82718C12.7755 0.346318 13.4279 0.0761719 14.1082 0.0761719H50.02C50.7004 0.0761719 51.3528 0.346318 51.8339 0.82718C52.3149 1.30804 52.5852 1.96023 52.5852 2.64027V48.7941C52.5852 49.4742 52.3149 50.1264 51.8339 50.6072C51.3528 51.0881 50.7004 51.3582 50.02 51.3582H14.1082C13.4279 51.3582 12.7755 51.0881 12.2944 50.6072C11.8133 50.1264 11.5431 49.4742 11.5431 48.7941V2.64027Z" stroke="#939393" stroke-width="0.24"/>
<path d="M17.7441 32.1612C17.7441 29.946 18.6245 27.8215 20.1915 26.2551C21.7586 24.6886 23.884 23.8086 26.1003 23.8086H38.3616C40.5778 23.8086 42.7033 24.6886 44.2703 26.2551C45.8374 27.8215 46.7177 29.946 46.7177 32.1612V41.3406C46.7177 41.599 46.615 41.8468 46.4322 42.0295C46.2494 42.2123 46.0014 42.315 45.7427 42.315H18.7191C18.4605 42.315 18.2124 42.2123 18.0296 42.0295C17.8468 41.8468 17.7441 41.599 17.7441 41.3406V32.1612Z" fill="#718096" stroke="black"/>
<path d="M38.631 15.307C38.631 18.7196 35.8411 21.4929 32.3911 21.4929C28.9411 21.4929 26.1512 18.7196 26.1512 15.307C26.1512 11.8944 28.9411 9.12109 32.3911 9.12109C35.8411 9.12109 38.631 11.8944 38.631 15.307Z" fill="#718096" stroke="black"/>
<path d="M47.6088 57.0007L37.8357 30.584L64 40.616L53.5471 45.9109L47.6088 57.0007Z" fill="#FFA500"/>
</g>
<defs>
<clipPath id="clip0_698_2108">
<rect width="64" height="57" fill="white"/>
</clipPath>
</defs>
</svg>
