<svg width="50" height="47" viewBox="0 0 50 47" fill="none" xmlns="http://www.w3.org/2000/svg">
<g clip-path="url(#clip0_682_7368)">
<path d="M0.63463 4.41953H49.3654C49.4587 4.41953 49.532 4.49458 49.532 4.58416V10.2305C49.532 10.3201 49.4587 10.3951 49.3654 10.3951H0.63463C0.541261 10.3951 0.467993 10.3201 0.467993 10.2305V4.58416C0.467993 4.49457 0.541261 4.41953 0.63463 4.41953Z" fill="#C2C8CF" stroke="black" stroke-width="0.8"/>
<path d="M49.3654 19.8301H0.63463C0.321685 19.8301 0.0679932 20.0829 0.0679932 20.3947V26.041C0.0679932 26.3529 0.321685 26.6057 0.63463 26.6057H49.3654C49.6783 26.6057 49.932 26.3529 49.932 26.041V20.3947C49.932 20.0829 49.6783 19.8301 49.3654 19.8301Z" fill="#EBEBEB"/>
<path d="M0.63463 36.0387H49.3654C49.4587 36.0387 49.532 36.1137 49.532 36.2033V41.8496C49.532 41.9392 49.4587 42.0143 49.3654 42.0143H0.63463C0.541262 42.0143 0.467993 41.9392 0.467993 41.8496V36.2033C0.467993 36.1137 0.541263 36.0387 0.63463 36.0387Z" fill="#C2C8CF" stroke="black" stroke-width="0.8"/>
<path d="M21.1002 7.40858C21.1002 8.76105 20.6978 10.0833 19.9435 11.2081C19.1892 12.333 18.117 13.2099 16.8621 13.7279C15.6073 14.2458 14.2264 14.3814 12.8941 14.1173C11.5618 13.8532 10.3383 13.2015 9.37814 12.2447C8.418 11.288 7.76435 10.0692 7.49955 8.74271C7.23475 7.41619 7.37064 6.04119 7.8901 4.79152C8.40958 3.54184 9.2894 2.47342 10.4186 1.7216C11.5478 0.96976 12.8755 0.568359 14.234 0.568359C15.1359 0.568359 16.029 0.745383 16.8621 1.08928C17.6953 1.43317 18.4523 1.93718 19.0898 2.57244C19.7273 3.20769 20.2329 3.96175 20.5778 4.79152C20.9227 5.62128 21.1002 6.51056 21.1002 7.40858Z" fill="#FFA500" stroke="black"/>
<path d="M40.3659 23.2172C40.3659 24.5696 39.9634 25.8919 39.2091 27.0167C38.4549 28.1416 37.3826 29.0185 36.1278 29.5365C34.8729 30.0544 33.492 30.19 32.1597 29.9259C30.8274 29.6618 29.6039 29.0101 28.6438 28.0533C27.6836 27.0966 27.03 25.8778 26.7652 24.5513C26.5004 23.2248 26.6363 21.8498 27.1557 20.6001C27.6752 19.3504 28.555 18.282 29.6842 17.5302C30.8134 16.7784 32.1412 16.377 33.4996 16.377C34.4015 16.377 35.2946 16.554 36.1278 16.8979C36.9609 17.2418 37.7179 17.7458 38.3554 18.381C38.9929 19.0163 39.4985 19.7703 39.8434 20.6001C40.1883 21.4299 40.3659 22.3191 40.3659 23.2172Z" fill="#FF7F00" stroke="black"/>
<path d="M25.6333 39.5922C25.6333 40.9446 25.2308 42.2669 24.4766 43.3917C23.7223 44.5166 22.6501 45.3935 21.3952 45.9115C20.1404 46.4294 18.7594 46.565 17.4272 46.3009C16.0949 46.0368 14.8714 45.3851 13.9112 44.4283C12.9511 43.4716 12.2974 42.2528 12.0326 40.9263C11.7678 39.5998 11.9037 38.2248 12.4232 36.9751C12.9427 35.7254 13.8225 34.657 14.9517 33.9052C16.0809 33.1534 17.4086 32.752 18.767 32.752C20.5887 32.752 22.3353 33.473 23.6229 34.756C24.9103 36.039 25.6333 37.7786 25.6333 39.5922Z" fill="#FFA500" stroke="black"/>
</g>
<defs>
<clipPath id="clip0_682_7368">
<rect width="50" height="47" fill="white"/>
</clipPath>
</defs>
</svg>
