<svg width="20" height="18" viewBox="0 0 20 18" fill="none" xmlns="http://www.w3.org/2000/svg">
<path d="M19.9592 8.25L19.3717 4.08334C19.2273 3.09161 18.7319 2.18459 17.9756 1.52706C17.2193 0.869523 16.2522 0.505102 15.25 0.500001L4.16667 0.5C3.062 0.501323 2.00297 0.940735 1.22185 1.72185C0.440735 2.50297 0.00132295 3.562 -3.64262e-07 4.66667L-7.28523e-07 8.83333C0.00132239 9.938 0.440734 10.997 1.22185 11.7782C2.00296 12.5593 3.062 12.9987 4.16667 13L6.42667 13L8.02167 16.2317C8.2898 16.7763 8.74479 17.2065 9.30365 17.4436C9.8625 17.6808 10.488 17.7091 11.066 17.5235C11.644 17.3379 12.1361 16.9507 12.4524 16.4326C12.7687 15.9144 12.8882 15.2998 12.7892 14.7008L12.5092 13L15.8333 13C16.4298 13 17.0193 12.872 17.5621 12.6245C18.1048 12.3771 18.5881 12.016 18.9792 11.5657C19.3704 11.1154 19.6603 10.5863 19.8293 10.0143C19.9984 9.44226 20.0427 8.84061 19.9592 8.25ZM4.16667 2.16667L5.83333 2.16667L5.83333 11.3333L4.16667 11.3333C3.50362 11.3333 2.86774 11.0699 2.3989 10.6011C1.93006 10.1323 1.66667 9.49638 1.66667 8.83333L1.66667 4.66667C1.66667 4.00363 1.93006 3.36774 2.3989 2.8989C2.86774 2.43006 3.50363 2.16667 4.16667 2.16667ZM17.72 10.4733C17.4854 10.7433 17.1955 10.9598 16.87 11.1081C16.5446 11.2565 16.191 11.3333 15.8333 11.3333L11.5275 11.3333C11.4066 11.3333 11.2872 11.3596 11.1775 11.4103C11.0678 11.4611 10.9704 11.5351 10.8922 11.6272C10.8139 11.7193 10.7567 11.8273 10.7243 11.9438C10.692 12.0603 10.6854 12.1824 10.705 12.3017L11.145 14.9683C11.1661 15.0921 11.1597 15.219 11.1261 15.34C11.0926 15.461 11.0327 15.5731 10.9508 15.6683C10.8548 15.7718 10.7356 15.851 10.603 15.8995C10.4705 15.9479 10.3283 15.9642 10.1882 15.9469C10.0481 15.9297 9.91405 15.8794 9.79717 15.8003C9.68029 15.7211 9.58386 15.6154 9.51583 15.4917L7.69167 11.7983C7.64355 11.706 7.57853 11.6234 7.5 11.555L7.5 2.16667L15.25 2.16667C15.8519 2.16887 16.4329 2.38728 16.8873 2.78208C17.3416 3.17689 17.6389 3.72181 17.725 4.3175L18.3133 8.48417C18.3627 8.83888 18.3352 9.20006 18.2329 9.54324C18.1305 9.88643 17.9556 10.2036 17.72 10.4733Z" fill="#AFAFAF"/>
</svg>
