<svg width="20" height="18" viewBox="0 0 20 18" fill="none" xmlns="http://www.w3.org/2000/svg">
<path d="M19.9592 9.75L19.3717 13.9167C19.2273 14.9084 18.7319 15.8154 17.9756 16.4729C17.2193 17.1305 16.2522 17.4949 15.25 17.5L4.16667 17.5C3.062 17.4987 2.00297 17.0593 1.22185 16.2781C0.440735 15.497 0.00132295 14.438 -3.64262e-07 13.3333L-7.28523e-07 9.16667C0.00132239 8.062 0.440734 7.00296 1.22185 6.22185C2.00296 5.44073 3.062 5.00132 4.16667 5L6.42667 5L8.02167 1.76833C8.2898 1.22367 8.74479 0.79354 9.30365 0.556394C9.8625 0.319249 10.488 0.290891 11.066 0.476493C11.644 0.662093 12.1361 1.04928 12.4524 1.56745C12.7687 2.08561 12.8882 2.70022 12.7892 3.29916L12.5092 5L15.8333 5C16.4298 4.99997 17.0193 5.12801 17.5621 5.37546C18.1048 5.62291 18.5881 5.984 18.9792 6.43432C19.3704 6.88465 19.6603 7.4137 19.8293 7.98572C19.9984 8.55774 20.0427 9.15939 19.9592 9.75ZM4.16667 15.8333L5.83333 15.8333L5.83333 6.66667L4.16667 6.66667C3.50362 6.66667 2.86774 6.93006 2.3989 7.3989C1.93006 7.86774 1.66667 8.50362 1.66667 9.16667L1.66667 13.3333C1.66667 13.9964 1.93006 14.6323 2.3989 15.1011C2.86774 15.5699 3.50363 15.8333 4.16667 15.8333ZM17.72 7.52666C17.4854 7.25669 17.1955 7.04021 16.87 6.89185C16.5446 6.74349 16.191 6.6667 15.8333 6.66666L11.5275 6.66667C11.4066 6.66669 11.2872 6.64042 11.1775 6.58968C11.0678 6.53894 10.9704 6.46494 10.8922 6.37282C10.8139 6.28069 10.7567 6.17265 10.7243 6.05618C10.692 5.93971 10.6854 5.81761 10.705 5.69833L11.145 3.03167C11.1661 2.90789 11.1597 2.78097 11.1261 2.65997C11.0926 2.53897 11.0327 2.42687 10.9508 2.33167C10.8548 2.22818 10.7356 2.14896 10.603 2.10052C10.4705 2.05209 10.3283 2.03583 10.1882 2.05308C10.0481 2.07033 9.91405 2.12059 9.79717 2.19974C9.68029 2.27888 9.58386 2.38465 9.51583 2.50833L7.69167 6.20167C7.64355 6.29404 7.57853 6.37658 7.5 6.445L7.5 15.8333L15.25 15.8333C15.8519 15.8311 16.4329 15.6127 16.8873 15.2179C17.3416 14.8231 17.6389 14.2782 17.725 13.6825L18.3133 9.51583C18.3627 9.16112 18.3352 8.79994 18.2329 8.45676C18.1305 8.11357 17.9556 7.79638 17.72 7.52666Z" fill="#0ECB81"/>
</svg>
