<svg width="52" height="52" viewBox="0 0 52 52" fill="none" xmlns="http://www.w3.org/2000/svg">
<g filter="url(#filter0_d_5383_10957)">
<rect x="2" y="1" width="48" height="48" rx="10" fill="white"/>
<rect x="2.5" y="1.5" width="47" height="47" rx="9.5" stroke="#E4E7EC"/>
</g>
<path d="M31 33.75H21C16.59 33.75 15.25 32.41 15.25 28V27.5C15.25 27.09 15.59 26.75 16 26.75C16.96 26.75 17.75 25.96 17.75 25C17.75 24.04 16.96 23.25 16 23.25C15.59 23.25 15.25 22.91 15.25 22.5V22C15.25 17.59 16.59 16.25 21 16.25H31C35.41 16.25 36.75 17.59 36.75 22V23C36.75 23.41 36.41 23.75 36 23.75C35.04 23.75 34.25 24.54 34.25 25.5C34.25 26.46 35.04 27.25 36 27.25C36.41 27.25 36.75 27.59 36.75 28C36.75 32.41 35.41 33.75 31 33.75ZM16.75 28.16C16.77 31.6 17.48 32.25 21 32.25H31C34.34 32.25 35.15 31.66 35.24 28.66C33.81 28.32 32.75 27.03 32.75 25.5C32.75 23.97 33.82 22.68 35.25 22.34V22C35.25 18.43 34.58 17.75 31 17.75H21C17.48 17.75 16.77 18.4 16.75 21.84C18.18 22.18 19.25 23.47 19.25 25C19.25 26.53 18.18 27.82 16.75 28.16Z" fill="#292D32"/>
<path d="M24 20.25C23.59 20.25 23.25 19.91 23.25 19.5V17C23.25 16.59 23.59 16.25 24 16.25C24.41 16.25 24.75 16.59 24.75 17V19.5C24.75 19.91 24.41 20.25 24 20.25Z" fill="#292D32"/>
<path d="M24 27.5802C23.59 27.5802 23.25 27.2402 23.25 26.8302V23.1602C23.25 22.7502 23.59 22.4102 24 22.4102C24.41 22.4102 24.75 22.7502 24.75 23.1602V26.8302C24.75 27.2502 24.41 27.5802 24 27.5802Z" fill="#292D32"/>
<path d="M24 33.75C23.59 33.75 23.25 33.41 23.25 33V30.5C23.25 30.09 23.59 29.75 24 29.75C24.41 29.75 24.75 30.09 24.75 30.5V33C24.75 33.41 24.41 33.75 24 33.75Z" fill="#292D32"/>
<defs>
<filter id="filter0_d_5383_10957" x="0" y="0" width="52" height="52" filterUnits="userSpaceOnUse" color-interpolation-filters="sRGB">
<feFlood flood-opacity="0" result="BackgroundImageFix"/>
<feColorMatrix in="SourceAlpha" type="matrix" values="0 0 0 0 0 0 0 0 0 0 0 0 0 0 0 0 0 0 127 0" result="hardAlpha"/>
<feOffset dy="1"/>
<feGaussianBlur stdDeviation="1"/>
<feColorMatrix type="matrix" values="0 0 0 0 0.0627451 0 0 0 0 0.0941176 0 0 0 0 0.156863 0 0 0 0.05 0"/>
<feBlend mode="normal" in2="BackgroundImageFix" result="effect1_dropShadow_5383_10957"/>
<feBlend mode="normal" in="SourceGraphic" in2="effect1_dropShadow_5383_10957" result="shape"/>
</filter>
</defs>
</svg>
