<svg width="50" height="50" viewBox="0 0 50 50" fill="none" xmlns="http://www.w3.org/2000/svg">
<path opacity="0.4" d="M37.4992 21.5127V28.4877C37.4992 33.6127 35.9367 35.1752 30.8117 35.1752H22.3867V31.4002C22.3867 30.9252 21.9867 30.5252 21.5117 30.5252V19.4752C21.9867 19.4752 22.3867 19.0752 22.3867 18.6002V14.8252H30.8117C35.9367 14.8252 37.4992 16.3877 37.4992 21.5127Z" fill="#FFA500"/>
<path d="M33.089 24.8751C33.3015 24.6751 33.3765 24.3626 33.289 24.0876C33.2015 23.8001 32.964 23.6001 32.664 23.5626L31.064 23.3251C31.0015 23.3126 30.9515 23.2751 30.9265 23.2251L30.214 21.7751C30.089 21.5126 29.814 21.3501 29.5265 21.3501C29.2265 21.3501 28.964 21.5126 28.8265 21.7751L28.114 23.2251C28.089 23.2876 28.0265 23.3251 27.964 23.3251L26.364 23.5626C26.0765 23.6001 25.8265 23.8126 25.739 24.0876C25.6515 24.3751 25.7265 24.6751 25.939 24.8751L27.1015 26.0001C27.1515 26.0376 27.164 26.1126 27.1515 26.1751L26.8765 27.7626C26.8265 28.0501 26.939 28.3501 27.189 28.5126C27.3265 28.6126 27.4765 28.6626 27.639 28.6626C27.764 28.6626 27.889 28.6376 28.0015 28.5751L29.439 27.8251C29.489 27.8001 29.564 27.8001 29.614 27.8251L31.0515 28.5751C31.314 28.7126 31.6265 28.6876 31.864 28.5126C32.1015 28.3376 32.2265 28.0501 32.1765 27.7501L31.9015 26.1626C31.889 26.1001 31.914 26.0376 31.9515 25.9876L33.089 24.8751Z" fill="#FFA500"/>
<path d="M21.5128 19.4752V30.5252C21.0378 30.5252 20.6378 30.9252 20.6378 31.4002V35.1752H19.1878C14.2503 35.1752 12.6253 33.7002 12.5128 29.1002C12.5003 28.8627 12.6003 28.6377 12.7628 28.4752C12.9253 28.3002 13.1628 28.2127 13.3878 28.2127C15.1378 28.2127 16.5753 26.7752 16.5753 25.0127C16.5753 23.2502 15.1378 21.8002 13.3878 21.8002C13.1378 21.8002 12.9253 21.7127 12.7628 21.5377C12.6003 21.3752 12.5003 21.1377 12.5128 20.9127C12.6253 16.3002 14.2503 14.8252 19.1878 14.8252H20.6378V18.6002C20.6378 19.0877 21.0378 19.4752 21.5128 19.4752Z" fill="#FFA500"/>
<circle cx="25" cy="25" r="25" fill="#FFA500" fill-opacity="0.08"/>
</svg>
