<svg width="15" height="15" viewBox="0 0 15 15" fill="none" xmlns="http://www.w3.org/2000/svg">
<path d="M10.8688 9.79375L8.3438 7.5H6.65005L4.12505 9.79375C3.4188 10.4313 3.18755 11.4125 3.5313 12.3C3.87505 13.1813 4.71255 13.75 5.6563 13.75H9.33755C10.2875 13.75 11.1188 13.1813 11.4625 12.3C11.8063 11.4125 11.575 10.4313 10.8688 9.79375ZM8.63755 11.3375H6.36255C6.12505 11.3375 5.93755 11.1437 5.93755 10.9125C5.93755 10.6812 6.1313 10.4875 6.36255 10.4875H8.63755C8.87505 10.4875 9.06255 10.6812 9.06255 10.9125C9.06255 11.1437 8.8688 11.3375 8.63755 11.3375Z" fill="#71839B"/>
<path d="M11.4688 2.7C11.125 1.81875 10.2875 1.25 9.34379 1.25H5.65629C4.71254 1.25 3.87504 1.81875 3.53129 2.7C3.19379 3.5875 3.42504 4.56875 4.13129 5.20625L6.65629 7.5H8.35004L10.875 5.20625C11.575 4.56875 11.8063 3.5875 11.4688 2.7ZM8.63754 4.51875H6.36254C6.12504 4.51875 5.93754 4.325 5.93754 4.09375C5.93754 3.8625 6.13129 3.66875 6.36254 3.66875H8.63754C8.87504 3.66875 9.06254 3.8625 9.06254 4.09375C9.06254 4.325 8.86879 4.51875 8.63754 4.51875Z" fill="#71839B"/>
</svg>
