<svg width="15" height="15" viewBox="0 0 15 15" fill="none" xmlns="http://www.w3.org/2000/svg">
<path d="M13.8688 1.38125C13.825 1.26875 13.7313 1.175 13.6188 1.13125C13.5563 1.10625 13.5 1.09375 13.4375 1.09375H9.375C9.11875 1.09375 8.90625 1.30625 8.90625 1.5625C8.90625 1.81875 9.11875 2.03125 9.375 2.03125H12.3063L9.4875 4.85625H9.48125C8.64375 4.1625 7.575 3.75 6.40625 3.75C3.73125 3.75 1.5625 5.91875 1.5625 8.59375C1.5625 11.2688 3.73125 13.4375 6.40625 13.4375C9.08125 13.4375 11.25 11.2688 11.25 8.59375C11.25 7.425 10.8375 6.35625 10.1437 5.51875L12.9688 2.69375V5.625C12.9688 5.88125 13.1812 6.09375 13.4375 6.09375C13.6938 6.09375 13.9062 5.88125 13.9062 5.625V1.5625C13.9062 1.5 13.8938 1.44375 13.8688 1.38125Z" fill="#EAECEF"/>
</svg>
