<svg width="355" height="390" viewBox="0 0 355 390" fill="none" xmlns="http://www.w3.org/2000/svg">
<path d="M269.401 174.924C270.218 174.924 270.881 174.263 270.881 173.448C270.881 172.633 270.218 171.973 269.401 171.973C268.584 171.973 267.922 172.633 267.922 173.448C267.922 174.263 268.584 174.924 269.401 174.924Z" fill="#95BAFF"/>
<path d="M28.683 265.036C15.5142 265.036 4.83871 262.482 4.83871 259.331C4.83871 256.181 15.5142 253.627 28.683 253.627C41.8519 253.627 52.5273 256.181 52.5273 259.331C52.5273 262.482 41.8519 265.036 28.683 265.036Z" fill="black"/>
<path fill-rule="evenodd" clip-rule="evenodd" d="M4.64453 248.287H52.7133V256.246C52.7136 256.256 52.7136 256.267 52.7136 256.278C52.7136 256.289 52.7136 256.301 52.7133 256.312V256.602H52.6809C52.0226 259.856 41.5284 262.443 28.6793 262.443C15.8301 262.443 5.33587 259.856 4.67758 256.602H4.64453V248.287Z" fill="white"/>
<mask id="mask0_6060_11982" style="mask-type:luminance" maskUnits="userSpaceOnUse" x="4" y="248" width="49" height="15">
<path fill-rule="evenodd" clip-rule="evenodd" d="M4.64453 248.283H52.7133V256.242C52.7136 256.252 52.7136 256.263 52.7136 256.274C52.7136 256.285 52.7136 256.297 52.7133 256.308V256.598H52.6809C52.0226 259.852 41.5284 262.439 28.6793 262.439C15.8301 262.439 5.33587 259.852 4.67758 256.598H4.64453V248.283Z" fill="white"/>
</mask>
<g mask="url(#mask0_6060_11982)">
<path d="M52.7114 248.285V247.775H53.2213V248.285H52.7114ZM4.64261 248.285H4.13281V247.775H4.64261V248.285ZM52.7114 256.244L52.2016 256.253V256.244H52.7114ZM52.7114 256.309H52.2016L52.2017 256.298L52.7114 256.309ZM52.7114 256.6H53.2213V257.111H52.7114V256.6ZM52.679 256.6L52.1792 256.499L52.2619 256.091H52.679V256.6ZM4.67566 256.6V256.091H5.0927L5.1754 256.499L4.67566 256.6ZM4.64261 256.6V257.111H4.13281V256.6H4.64261ZM52.7114 248.796H4.64261V247.775H52.7114V248.796ZM52.2016 256.244V248.285H53.2213V256.244H52.2016ZM52.2019 256.276C52.2019 256.268 52.2017 256.261 52.2016 256.253L53.2212 256.233C53.2215 256.247 53.2217 256.261 53.2217 256.276H52.2019ZM52.2017 256.298C52.2019 256.29 52.2019 256.284 52.2019 256.276H53.2217C53.2217 256.29 53.2215 256.304 53.2212 256.319L52.2017 256.298ZM52.2016 256.6V256.309H53.2213V256.6H52.2016ZM52.679 256.091H52.7114V257.111H52.679V256.091ZM28.6774 261.931C35.0725 261.931 40.8659 261.286 45.1287 260.245C47.2628 259.724 48.9902 259.108 50.2128 258.439C51.4652 257.753 52.0622 257.077 52.1792 256.499L53.1787 256.702C52.9665 257.749 52.0049 258.62 50.703 259.333C49.3713 260.063 47.5487 260.703 45.3708 261.236C41.0095 262.301 35.1314 262.95 28.6774 262.95V261.931ZM5.1754 256.499C5.29243 257.077 5.8894 257.753 7.14179 258.439C8.36447 259.108 10.0919 259.724 12.2259 260.245C16.4887 261.286 22.2823 261.931 28.6774 261.931V262.95C22.2232 262.95 16.3451 262.301 11.984 261.236C9.80606 260.703 7.98336 260.063 6.65179 259.333C5.34975 258.62 4.38811 257.749 4.17592 256.702L5.1754 256.499ZM4.64261 256.091H4.67566V257.111H4.64261V256.091ZM5.15241 248.285V256.6H4.13281V248.285H5.15241Z" fill="black"/>
</g>
<path d="M4.79297 248.499C4.79297 249.265 5.40208 250.038 6.60928 250.769C7.80754 251.496 9.55136 252.155 11.7194 252.712C16.0534 253.824 22.0489 254.513 28.677 254.513C35.3051 254.513 41.3005 253.824 45.6345 252.712C47.8027 252.155 49.5465 251.496 50.7446 250.769C51.9518 250.038 52.5609 249.265 52.5609 248.499C52.5609 247.731 51.9518 246.96 50.7446 246.228C49.5465 245.5 47.8027 244.841 45.6345 244.285C41.3005 243.174 35.3051 242.484 28.677 242.484C22.0489 242.484 16.0534 243.174 11.7194 244.285C9.55136 244.841 7.80754 245.5 6.60928 246.228C5.40208 246.96 4.79297 247.731 4.79297 248.499Z" fill="white" stroke="black" stroke-width="0.188441"/>
<path fill-rule="evenodd" clip-rule="evenodd" d="M4.64453 240.076H52.7133V248.035C52.7136 248.045 52.7136 248.056 52.7136 248.067C52.7136 248.078 52.7136 248.09 52.7133 248.101V248.391H52.6812C52.025 251.645 41.53 254.232 28.6793 254.232C15.8287 254.232 5.33347 251.645 4.67742 248.391H4.64453V240.076Z" fill="white"/>
<mask id="mask1_6060_11982" style="mask-type:luminance" maskUnits="userSpaceOnUse" x="4" y="240" width="49" height="15">
<path fill-rule="evenodd" clip-rule="evenodd" d="M4.64453 240.076H52.7133V248.035C52.7136 248.045 52.7136 248.056 52.7136 248.067C52.7136 248.078 52.7136 248.09 52.7133 248.101V248.391H52.6812C52.025 251.645 41.53 254.232 28.6793 254.232C15.8287 254.232 5.33347 251.645 4.67742 248.391H4.64453V240.076Z" fill="white"/>
</mask>
<g mask="url(#mask1_6060_11982)">
<path d="M52.7114 240.075V239.564H53.2213V240.075H52.7114ZM4.64261 240.075H4.13281V239.564H4.64261V240.075ZM52.7114 248.034L52.2016 248.044V248.034H52.7114ZM52.7114 248.1H52.2016L52.2017 248.089L52.7114 248.1ZM52.7114 248.391H53.2213V248.9H52.7114V248.391ZM52.6793 248.391L52.1794 248.29L52.2619 247.88H52.6793V248.391ZM4.6755 248.391V247.88H5.0927L5.17524 248.29L4.6755 248.391ZM4.64261 248.391V248.9H4.13281V248.391H4.64261ZM52.7114 240.585H4.64261V239.564H52.7114V240.585ZM52.2016 248.034V240.075H53.2213V248.034H52.2016ZM52.2019 248.066C52.2019 248.058 52.2017 248.052 52.2016 248.044L53.2212 248.023C53.2215 248.038 53.2217 248.052 53.2217 248.066H52.2019ZM52.2017 248.089C52.2019 248.081 52.2019 248.074 52.2019 248.066H53.2217C53.2217 248.081 53.2215 248.095 53.2212 248.11L52.2017 248.089ZM52.2016 248.391V248.1H53.2213V248.391H52.2016ZM52.6793 247.88H52.7114V248.9H52.6793V247.88ZM28.6774 253.722C35.0731 253.722 40.8674 253.077 45.1302 252.036C47.2642 251.515 48.9918 250.899 50.2141 250.228C51.4663 249.542 52.0628 248.868 52.1794 248.29L53.179 248.491C52.9675 249.54 52.0062 250.409 50.7043 251.122C49.3729 251.854 47.5503 252.494 45.3722 253.027C41.0109 254.092 35.1322 254.74 28.6774 254.74V253.722ZM5.17524 248.29C5.29179 248.868 5.88844 249.542 7.14051 250.228C8.36304 250.899 10.0904 251.515 12.2244 252.036C16.4874 253.077 22.2815 253.722 28.6774 253.722V254.74C22.2224 254.74 16.3439 254.092 11.9824 253.027C9.80446 252.494 7.98177 251.854 6.65035 251.122C5.34847 250.409 4.38715 249.54 4.17576 248.491L5.17524 248.29ZM4.64261 247.88H4.6755V248.9H4.64261V247.88ZM5.15241 240.075V248.391H4.13281V240.075H5.15241Z" fill="black"/>
</g>
<path d="M4.79297 240.292C4.79297 241.06 5.40208 241.831 6.60928 242.564C7.80754 243.29 9.55136 243.95 11.7194 244.505C16.0534 245.616 22.0489 246.306 28.677 246.306C35.3051 246.306 41.3005 245.616 45.6345 244.505C47.8027 243.95 49.5465 243.29 50.7446 242.564C51.9518 241.831 52.5609 241.06 52.5609 240.292C52.5609 239.525 51.9518 238.753 50.7446 238.021C49.5465 237.295 47.8027 236.636 45.6345 236.078C41.3005 234.967 35.3051 234.277 28.677 234.277C22.0489 234.277 16.0534 234.967 11.7194 236.078C9.55136 236.636 7.80754 237.295 6.60928 238.021C5.40208 238.753 4.79297 239.525 4.79297 240.292Z" fill="white" stroke="black" stroke-width="0.188441"/>
<path fill-rule="evenodd" clip-rule="evenodd" d="M4.64453 231.797H52.7133V239.754C52.7136 239.766 52.7136 239.777 52.7136 239.788C52.7136 239.799 52.7136 239.809 52.7133 239.82V240.112H52.6809C52.0223 243.366 41.5282 245.952 28.6793 245.952C15.8303 245.952 5.33635 243.366 4.67758 240.112H4.64453V231.797Z" fill="white"/>
<mask id="mask2_6060_11982" style="mask-type:luminance" maskUnits="userSpaceOnUse" x="4" y="231" width="49" height="15">
<path fill-rule="evenodd" clip-rule="evenodd" d="M4.64453 231.795H52.7133V239.752C52.7136 239.764 52.7136 239.775 52.7136 239.786C52.7136 239.797 52.7136 239.807 52.7133 239.818V240.11H52.6809C52.0223 243.364 41.5282 245.951 28.6793 245.951C15.8303 245.951 5.33635 243.364 4.67758 240.11H4.64453V231.795Z" fill="white"/>
</mask>
<g mask="url(#mask2_6060_11982)">
<path d="M52.7114 231.796V231.287H53.2213V231.796H52.7114ZM4.64261 231.796H4.13281V231.287H4.64261V231.796ZM52.7114 239.754L52.2016 239.765V239.754H52.7114ZM52.7114 239.819H52.2016L52.2017 239.81L52.7114 239.819ZM52.7114 240.112H53.2213V240.623H52.7114V240.112ZM52.679 240.112L52.1792 240.011L52.2619 239.602H52.679V240.112ZM4.67566 240.112V239.602H5.0927L5.1754 240.011L4.67566 240.112ZM4.64261 240.112V240.623H4.13281V240.112H4.64261ZM52.7114 232.307H4.64261V231.287H52.7114V232.307ZM52.2016 239.754V231.796H53.2213V239.754H52.2016ZM52.2019 239.787C52.2019 239.78 52.2017 239.772 52.2016 239.765L53.2212 239.744C53.2215 239.759 53.2217 239.773 53.2217 239.787H52.2019ZM52.2017 239.81C52.2019 239.802 52.2019 239.794 52.2019 239.787H53.2217C53.2217 239.802 53.2215 239.816 53.2212 239.831L52.2017 239.81ZM52.2016 240.112V239.819H53.2213V240.112H52.2016ZM52.679 239.602H52.7114V240.623H52.679V239.602ZM28.6774 245.443C35.0723 245.443 40.8658 244.798 45.1286 243.757C47.2625 243.236 48.99 242.62 50.2127 241.949C51.4651 241.264 52.0622 240.589 52.1792 240.011L53.1787 240.214C52.9664 241.261 52.0047 242.131 50.7027 242.843C49.3711 243.575 47.5484 244.215 45.3705 244.747C41.0093 245.813 35.1314 246.461 28.6774 246.461V245.443ZM5.1754 240.011C5.29243 240.589 5.88956 241.264 7.14195 241.949C8.36463 242.62 10.0922 243.236 12.2262 243.757C16.4888 244.798 22.2823 245.443 28.6774 245.443V246.461C22.2234 246.461 16.3453 245.813 11.9842 244.747C9.80622 244.215 7.98368 243.575 6.65194 242.843C5.34991 242.131 4.38827 241.261 4.17608 240.214L5.1754 240.011ZM4.64261 239.602H4.67566V240.623H4.64261V239.602ZM5.15241 231.796V240.112H4.13281V231.796H5.15241Z" fill="black"/>
</g>
<path d="M4.90234 231.839C4.90234 232.548 5.46754 233.292 6.66836 234.021C7.85416 234.74 9.58681 235.396 11.7504 235.952C16.0737 237.06 22.06 237.75 28.682 237.75C35.304 237.75 41.2903 237.06 45.6134 235.952C47.777 235.396 49.5098 234.74 50.6955 234.021C51.8964 233.292 52.4615 232.548 52.4615 231.839C52.4615 231.13 51.8964 230.386 50.6955 229.658C49.5098 228.939 47.777 228.282 45.6134 227.727C41.2903 226.618 35.304 225.93 28.682 225.93C22.06 225.93 16.0737 226.618 11.7504 227.727C9.58681 228.282 7.85416 228.939 6.66836 229.658C5.46754 230.386 4.90234 231.13 4.90234 231.839Z" fill="white" stroke="black" stroke-width="0.5"/>
<path d="M27.684 235.873C36.9889 235.873 45.6761 233.92 45.6761 231.573C45.6761 230.395 42.6293 229.379 39.5565 228.609M27.684 227.375C18.3791 227.375 9.98828 229.224 9.98828 231.57C9.98828 232.711 12.6192 233.8 15.521 234.563" stroke="black" stroke-width="0.319318" stroke-linejoin="round"/>
<path d="M250.227 210.396L255.595 110.537C256.244 98.4517 246.229 88.4743 234.098 89.1216L110.24 95.7317C93.9733 96.5997 81.2305 109.993 81.2305 126.222V232.797C81.2305 248.802 95.6518 260.979 111.5 258.355L223.872 239.748C238.477 237.329 249.435 225.126 250.227 210.396Z" fill="black" stroke="black"/>
<path d="M248.47 209.489L251.811 109.003C252.14 99.1199 243.865 91.094 233.953 91.6893L112.051 99.0119C97.2685 99.9002 85.7383 112.102 85.7383 126.853V231.848C85.7383 247.369 99.7296 259.177 115.1 256.622L222.77 238.723C237.233 236.319 247.985 224.087 248.47 209.489Z" fill="black" stroke="black"/>
<path d="M81.6104 40.8267L147.168 67.2107L109.088 172.692L44.9327 147.474C42.6311 146.569 41.4457 144.026 42.2373 141.69L75.4713 43.6363C76.3256 41.1149 79.1338 39.8298 81.6104 40.8267Z" fill="white" stroke="black"/>
<path d="M52.7756 107.144L106.009 21.0176C107.423 18.7294 110.49 18.119 112.679 19.6903L180.142 68.1342L120.701 164.363L53.901 113.238C52.014 111.794 51.5282 109.163 52.7756 107.144Z" fill="white" stroke="black"/>
<path d="M144.78 4.73994L208.004 96.3563L108.626 130.591L69.6679 78.2604C68.3033 76.4275 68.4842 73.8769 70.0938 72.2533L137.649 4.10997C139.698 2.04365 143.129 2.34675 144.78 4.73994Z" fill="white"/>
<path d="M144.78 4.73994L208.004 96.3563L108.626 130.591L69.6679 78.2604C68.3033 76.4275 68.4842 73.8769 70.0938 72.2533L137.649 4.10997C139.698 2.04365 143.129 2.34675 144.78 4.73994Z" fill="url(#paint0_linear_6060_11982)"/>
<path d="M144.78 4.73994L208.004 96.3563L108.626 130.591L69.6679 78.2604C68.3033 76.4275 68.4842 73.8769 70.0938 72.2533L137.649 4.10997C139.698 2.04365 143.129 2.34675 144.78 4.73994Z" stroke="black"/>
<path d="M261.872 212.645V112.837C261.872 101.13 251.984 91.8356 240.253 92.5155L123.1 99.3049C106.891 100.244 94.2305 113.613 94.2305 129.787V236.496C94.2305 252.5 108.652 264.677 124.5 262.053L235.471 243.678C250.704 241.156 261.872 228.028 261.872 212.645Z" fill="black" stroke="black"/>
<path d="M260.617 212.323V112.678C260.617 103.022 252.461 95.3548 242.782 95.9178L125.108 102.764C110.303 103.626 98.7422 115.837 98.7422 130.609V235.553C98.7422 251.074 112.733 262.882 128.104 260.326L234.9 242.573C249.742 240.105 260.617 227.311 260.617 212.323Z" fill="white" stroke="black"/>
<path d="M154.591 169.187C150.992 196.057 165.635 219.863 186.908 222.691C208.18 225.519 228.576 206.37 232.175 179.5C235.773 152.629 221.131 128.823 199.858 125.996C178.586 123.168 158.19 142.316 154.591 169.187Z" fill="white" stroke="black" stroke-width="0.5"/>
<path d="M93.612 166.529C91.6663 166.141 88.259 164.831 84.8821 163.485C84.2347 163.227 83.5866 162.967 82.9475 162.711C80.7038 161.811 78.5652 160.953 76.9141 160.367V194.452C76.9699 196.451 78.0695 198.268 79.8257 199.198C82.4927 200.61 85.9855 201.811 89.2485 202.698C92.5121 203.586 95.4831 204.143 97.0895 204.288L97.1054 204.29C102.872 204.929 108.655 204.158 114.549 203.372C116.604 203.098 118.672 202.822 120.758 202.604C131.306 201.5 139.876 192.016 139.876 181.452C139.876 170.955 131.411 163.358 120.93 164.452C118.813 164.708 116.61 165.071 114.345 165.45C114.237 165.468 114.128 165.486 114.018 165.504C111.861 165.865 109.651 166.235 107.437 166.526C102.791 167.138 98.059 167.414 93.612 166.529Z" fill="white"/>
<path d="M93.612 166.529C91.6663 166.141 88.259 164.831 84.8821 163.485C84.2347 163.227 83.5866 162.967 82.9475 162.711C80.7038 161.811 78.5652 160.953 76.9141 160.367V194.452C76.9699 196.451 78.0695 198.268 79.8257 199.198C82.4927 200.61 85.9855 201.811 89.2485 202.698C92.5121 203.586 95.4831 204.143 97.0895 204.288L97.1054 204.29C102.872 204.929 108.655 204.158 114.549 203.372C116.604 203.098 118.672 202.822 120.758 202.604C131.306 201.5 139.876 192.016 139.876 181.452C139.876 170.955 131.411 163.358 120.93 164.452C118.813 164.708 116.61 165.071 114.345 165.45C114.237 165.468 114.128 165.486 114.018 165.504C111.861 165.865 109.651 166.235 107.437 166.526C102.791 167.138 98.059 167.414 93.612 166.529Z" fill="url(#paint1_linear_6060_11982)"/>
<path d="M93.612 166.529C91.6663 166.141 88.259 164.831 84.8821 163.485C84.2347 163.227 83.5866 162.967 82.9475 162.711C80.7038 161.811 78.5652 160.953 76.9141 160.367V194.452C76.9699 196.451 78.0695 198.268 79.8257 199.198C82.4927 200.61 85.9855 201.811 89.2485 202.698C92.5121 203.586 95.4831 204.143 97.0895 204.288L97.1054 204.29C102.872 204.929 108.655 204.158 114.549 203.372C116.604 203.098 118.672 202.822 120.758 202.604C131.306 201.5 139.876 192.016 139.876 181.452C139.876 170.955 131.411 163.358 120.93 164.452C118.813 164.708 116.61 165.071 114.345 165.45C114.237 165.468 114.128 165.486 114.018 165.504C111.861 165.865 109.651 166.235 107.437 166.526C102.791 167.138 98.059 167.414 93.612 166.529Z" stroke="black"/>
<path d="M116.684 183.244C116.684 188.195 120.01 191.953 123.824 191.953C127.638 191.953 130.964 188.195 130.964 183.244C130.964 178.293 127.638 174.535 123.824 174.535C120.01 174.535 116.684 178.293 116.684 183.244Z" fill="white" stroke="white" stroke-width="0.5"/>
<path d="M168.169 388.974C260.493 388.974 335.337 372.659 335.337 352.534C335.337 332.409 260.493 316.094 168.169 316.094C75.844 316.094 1 332.409 1 352.534C1 372.659 75.844 388.974 168.169 388.974Z" fill="#F8F8F8" stroke="#221F1F" stroke-miterlimit="10"/>
<path d="M15.5742 304.25L21.9495 335.335C23.7099 343.907 29.657 350.998 37.7451 354.054C67.4569 365.287 109.86 377.141 161.576 378.764C224.734 380.746 275.987 366.672 309.172 354.185C317.438 351.081 323.48 343.811 325.062 335.025C326.906 324.771 317.985 320.819 319.829 310.565L15.5742 304.25Z" fill="black" stroke="black" stroke-width="2" stroke-miterlimit="10"/>
<path d="M12.8557 296.963L19.3069 328.048C21.0836 336.62 27.1174 343.71 35.3096 346.766C65.4072 358 108.371 369.854 160.768 371.477C224.755 373.459 276.686 359.384 310.314 346.898C318.685 343.794 324.814 336.524 326.424 327.738C328.296 317.484 329.822 308.005 331.694 297.751L12.8438 296.963H12.8557Z" fill="white" stroke="black" stroke-miterlimit="10"/>
<path d="M66.5938 296.975C67.4508 297.643 68.4389 298.404 68.9746 298.686C69.8317 299.143 70.7126 299.576 71.5935 299.986C73.5338 300.619 75.4504 301.311 77.4026 301.897C87.6044 304.955 98.0205 307.452 108.341 310.077C119.388 312.889 130.495 315.526 141.696 317.694C147.065 318.737 152.47 319.663 157.886 320.437C158.231 320.484 158.66 320.53 159.207 320.601C160.695 320.777 162.195 320.929 163.683 321.081C166.29 321.339 168.897 321.55 171.504 321.714C183.182 322.464 194.967 322.617 206.657 322.347C211.93 322.23 217.216 321.984 222.477 321.574C225.334 321.351 228.191 321.07 231.048 320.73C231.358 320.683 231.715 320.636 232.167 320.566C233.655 320.343 235.143 320.097 236.631 319.827C245.738 318.21 255.059 316.147 263.999 313.78C264.594 313.616 265.403 313.487 266.201 313.3C266.249 313.253 266.451 313.136 266.749 312.972C266.808 312.913 266.844 312.866 266.891 312.807C267.034 312.561 267.153 312.374 267.237 312.233C267.32 311.94 267.403 311.636 267.475 311.343C267.927 305.694 270.022 300.737 273.391 296.963H66.5938V296.975Z" fill="#F9A31A"/>
<path d="M316.872 296.987C318.367 299.438 319.429 302.185 319.947 305.099C320.044 305.229 320.164 305.371 320.249 305.501C320.96 306.662 321.395 308.663 320.852 309.978C320.623 310.523 320.381 311.056 320.128 311.577C319.839 313.519 319.248 315.378 318.404 317.119C318.066 318.268 317.596 319.381 317.041 320.435C316.751 322.105 316.245 323.715 315.533 325.243C315.159 326.404 314.677 327.529 314.098 328.606C313.869 331.046 313.133 333.367 312.024 335.534C311.988 335.735 311.927 335.937 311.879 336.138C311.783 336.612 311.662 337.074 311.541 337.524C311.385 338.376 311.143 339.205 310.866 340.011C310.263 342 309.346 343.871 308.189 345.6C308.128 345.79 308.08 345.979 308.008 346.157C308.587 345.956 309.166 345.754 309.72 345.553C318.187 342.533 324.385 335.463 326.014 326.913C327.907 316.929 329.8 306.946 331.694 296.963H316.884L316.872 296.987Z" fill="#F9A31A"/>
<path d="M270.647 357.838C269.661 358.062 268.723 358.994 267.725 359.206C246.825 363.723 226.305 367.073 204.834 367.356C182.794 367.639 160.979 366.189 139.247 362.45C118.751 358.923 98.6458 353.532 78.5647 348.201C58.1037 342.775 39.7208 335.934 27.2043 317.946C22.7155 311.495 23.238 303.533 26.6224 296.963H14.6641L21.0886 327.677C22.858 336.146 28.8669 343.153 37.0251 346.172C66.9982 357.271 109.785 368.984 161.965 370.588C204.157 371.886 240.781 365.375 270.635 357.826C270.564 357.779 270.706 357.873 270.635 357.826L270.647 357.838Z" fill="#F9A31A"/>
<path d="M332.603 300.607C332.603 315.598 270.134 327.958 189.807 329.57C183.901 329.7 177.901 329.759 171.817 329.759C83.013 329.759 11.0195 316.7 11.0195 300.607C11.0195 284.514 83.013 271.455 171.817 271.455C177.901 271.455 183.901 271.514 189.807 271.645C270.134 273.256 332.603 285.604 332.603 300.607Z" fill="white" stroke="#221F1F" stroke-miterlimit="10"/>
<path opacity="0.2" d="M331.693 300.151C331.693 314.529 269.52 326.385 189.577 327.936C109.623 326.385 47.4609 314.529 47.4609 300.151C47.4609 285.772 109.623 273.917 189.577 272.365C269.52 273.917 331.693 285.761 331.693 300.151Z" fill="#F9A31A"/>
<path d="M256.079 300.606C256.079 308.57 223.164 315.139 180.841 315.998C177.729 316.069 174.569 316.093 171.362 316.093C124.573 316.093 86.6328 309.154 86.6328 300.606C86.6328 292.058 124.561 285.119 171.362 285.119C174.569 285.119 177.729 285.155 180.841 285.215C223.164 286.073 256.079 292.63 256.079 300.606Z" fill="white" stroke="#221F1F" stroke-miterlimit="10"/>
<path d="M252.709 295.4C232.688 298.733 203.846 300.828 171.791 300.828C139.735 300.828 111.31 298.769 91.3008 295.472" stroke="black" stroke-width="0.5" stroke-miterlimit="10"/>
<path d="M91.3053 295.472C73.2957 292.508 62.2852 288.544 62.2852 284.188C62.2852 274.998 111.315 267.535 171.783 267.535C232.252 267.535 281.281 274.987 281.281 284.188C281.281 288.509 270.449 292.449 252.701 295.401" stroke="#F9A31A" stroke-width="0.5" stroke-miterlimit="10"/>
<path d="M256.687 301.949C236.606 305.413 206.039 307.627 171.793 307.627C137.548 307.627 107.432 305.449 87.3516 302.033" stroke="#221F1F" stroke-width="0.5" stroke-miterlimit="10"/>
<path d="M87.3571 302.02C71.7043 299.353 62.3008 295.937 62.3008 292.211C62.3008 283.712 111.33 276.809 171.799 276.809C232.267 276.809 281.297 283.701 281.297 292.211C281.297 295.901 272.072 299.282 256.693 301.936" stroke="#F9A31A" stroke-width="0.5" stroke-miterlimit="10"/>
<path d="M281.59 362.554L296.166 320.648" stroke="black" stroke-width="0.5" stroke-miterlimit="10"/>
<path d="M288.875 358.911L303.451 316.094" stroke="black" stroke-width="0.5" stroke-miterlimit="10"/>
<path d="M296.164 358.911L310.74 316.094" stroke="black" stroke-width="0.5" stroke-miterlimit="10"/>
<path d="M305.273 354.356L319.849 311.539" stroke="black" stroke-width="0.5" stroke-miterlimit="10"/>
<path d="M282.312 90.3542C285.458 92.864 290.122 95.7837 296.183 96.8964C314.555 100.264 332.341 84.565 340.28 70.0543C341.217 68.3435 354.197 43.8732 342.74 28.1452C339.941 24.3053 334.625 19.5241 327.325 17.2444C327.325 17.2444 320.854 15.1655 314.199 16.1527C300.316 18.2107 287.265 48.5706 282.312 90.3542Z" fill="#D9D9D9" stroke="#231F20" stroke-miterlimit="10"/>
<path d="M331.516 70.3015C344.29 49.6994 342.732 25.6114 328.036 16.4994C313.34 7.38745 291.071 16.702 278.297 37.3041C265.523 57.9061 267.082 81.9941 281.778 91.1061C296.474 100.218 318.743 90.9036 331.516 70.3015Z" fill="white" stroke="#231F20" stroke-miterlimit="10"/>
<path d="M320.658 65.856C329.993 50.8006 328.854 33.1976 318.114 26.5386C307.374 19.8796 291.1 26.6862 281.765 41.7417C272.431 56.7971 273.57 74.4001 284.31 81.0591C295.049 87.7181 311.323 80.9115 320.658 65.856Z" fill="#231F20"/>
<path d="M326.056 65.856C335.391 50.8006 334.252 33.1976 323.512 26.5386C312.772 19.8796 296.499 26.6862 287.164 41.7417C277.829 56.7971 278.968 74.4001 289.708 81.0591C300.448 87.7181 316.722 80.9115 326.056 65.856Z" fill="#FFA500"/>
<path d="M323.271 65.856C332.606 50.8006 331.467 33.1976 320.727 26.5386C309.987 19.8796 293.713 26.6862 284.379 41.7417C275.044 56.7971 276.183 74.4001 286.923 81.0591C297.663 87.7181 313.936 80.9115 323.271 65.856Z" fill="white" stroke="#231F20" stroke-miterlimit="10"/>
<mask id="mask3_6060_11982" style="mask-type:luminance" maskUnits="userSpaceOnUse" x="291" y="35" width="28" height="33">
<path d="M291.383 62.5247L300.782 35.9336L318.555 41.3965L309.156 67.9876L291.383 62.5247Z" fill="white"/>
</mask>
<g mask="url(#mask3_6060_11982)">
<path d="M296.118 59.668C295.96 59.6178 298.135 53.9624 298.135 53.9624L299.009 54.2302L300.214 60.9229L296.114 59.6638M304.476 60.5715L303.025 53.5567L305.877 54.4351L306.898 59.0991L304.476 60.5715ZM300.101 48.3782L301.77 43.6514L302.669 43.9275L303.719 49.4909L300.101 48.3782ZM307.605 48.2276L306.283 42.2585L308.718 43.0073L309.701 47.1819L307.605 48.2276ZM312.114 39.4183L300.774 35.9297L291.375 62.5208L304.2 66.4653L311.976 59.9734L309.475 52.7828L314.766 48.6752L312.114 39.4183Z" fill="black"/>
</g>
<path d="M31.9398 85.88C29.7079 86.7801 27.5074 87.7605 25.2371 88.5455C24.0096 88.9712 23.3749 89.6724 22.9599 90.8726C22.1927 93.0915 21.2546 95.2511 20.3862 97.4317C20.2293 97.4456 20.0689 97.4631 19.912 97.4771C19.1936 95.7012 18.3182 93.9672 17.7986 92.1356C17.1674 89.9166 15.9155 88.6223 13.6871 87.9943C11.8353 87.4744 10.0811 86.6127 8.28516 85.9044C8.29213 85.7439 8.29911 85.5869 8.30608 85.4264C10.5345 84.5298 12.742 83.5843 14.9983 82.7644C16.1142 82.3597 16.8012 81.7736 17.2058 80.5978C17.9904 78.3126 18.9808 76.1007 19.8841 73.8573C20.0445 73.8364 20.2049 73.8119 20.3618 73.791C21.0244 75.4692 21.83 77.1055 22.3112 78.8359C22.9948 81.2817 24.3827 82.7784 26.8762 83.4482C28.6233 83.9158 30.2763 84.7426 31.9712 85.409L31.9398 85.8835V85.88Z" fill="black"/>
<path d="M313.23 245.188C311.473 245.299 309.719 245.473 307.962 245.496C307.011 245.509 306.409 245.85 305.844 246.588C304.8 247.952 303.652 249.236 302.547 250.55C302.434 250.524 302.319 250.499 302.207 250.473C302.117 249.074 301.908 247.668 301.969 246.276C302.042 244.59 301.47 243.403 300.067 242.454C298.901 241.666 297.881 240.664 296.797 239.758C296.839 239.648 296.88 239.541 296.921 239.431C298.675 239.322 300.426 239.173 302.182 239.123C303.05 239.099 303.662 238.85 304.214 238.127C305.285 236.721 306.482 235.412 307.626 234.062C307.742 234.085 307.859 234.105 307.973 234.126C308.047 235.444 308.229 236.766 308.165 238.079C308.077 239.935 308.696 241.294 310.274 242.333C311.379 243.06 312.337 244.015 313.36 244.868L313.229 245.19L313.23 245.188Z" fill="black"/>
<path d="M178.766 197.757L180.258 198.852L206.666 150.318L200.447 154.074L178.766 197.757Z" fill="#060607"/>
<path d="M200.496 154.049L202.327 155.143L208.509 151.413L206.678 150.318L200.496 154.049Z" fill="#060607"/>
<path d="M180.258 198.847L186.904 195.129L208.51 151.408L202.302 155.151L180.258 198.847Z" fill="#FFA500"/>
<path d="M179.93 199.195L202.187 155.063L208.846 151.047L208.633 151.47L187.002 195.228L186.964 195.253L179.93 199.195ZM202.401 155.25L180.582 198.498L186.789 195.029L208.169 151.781L202.401 155.25Z" fill="#060607"/>
<path d="M185.172 163.263C184.771 164.295 183.68 164.979 182.664 165.203C181.435 165.476 180.419 164.829 179.73 163.835C179.642 163.71 179.554 163.574 179.479 163.437C179.379 163.263 180.52 165.725 180.532 165.762C181.109 166.956 182.049 168.212 183.479 168.174C184.67 168.15 186.062 167.329 186.526 166.16C186.89 165.227 186.739 164.046 186.075 162.616L184.721 159.719C185.398 161.149 185.548 162.33 185.172 163.263Z" fill="#060607"/>
<path d="M181.522 153.278C178.6 153.887 175.628 155.926 174.537 158.886C173.81 160.851 173.973 162.94 175.001 165.128L176.355 168.026C175.327 165.837 175.177 163.748 175.891 161.783C176.982 158.824 179.954 156.784 182.876 156.175C185.722 155.591 188.23 156.884 189.685 159.371C189.823 159.62 188.469 156.722 188.331 156.474C186.876 153.987 184.368 152.693 181.522 153.278Z" fill="#060607"/>
<path d="M180.302 157.121C178.095 158.265 176.628 159.819 175.901 161.784C175.173 163.749 175.336 165.838 176.364 168.026C177.305 170.041 178.672 171.309 180.477 171.856C182.283 172.403 184.202 172.155 186.233 171.098C188.428 169.966 189.895 168.412 190.609 166.447C191.324 164.482 191.174 162.418 190.158 160.242C189.167 158.141 187.813 156.81 186.083 156.263C184.365 155.741 182.434 156.027 180.302 157.121ZM184.954 167.753C183.073 168.723 181.581 168.026 180.477 165.676C179.311 163.189 179.7 161.448 181.631 160.453C182.459 160.031 183.274 159.993 184.064 160.366C184.866 160.727 185.531 161.486 186.07 162.617C187.224 165.067 186.848 166.783 184.954 167.753Z" fill="#FFA500"/>
<path d="M182.359 172.277C181.695 172.277 181.055 172.177 180.428 171.991C178.598 171.431 177.181 170.113 176.228 168.086C175.187 165.873 175.036 163.734 175.764 161.732C176.491 159.743 177.996 158.138 180.228 156.994C182.385 155.888 184.366 155.602 186.121 156.149C187.877 156.696 189.281 158.064 190.272 160.203C191.3 162.391 191.451 164.517 190.723 166.507C189.996 168.497 188.504 170.088 186.284 171.232C184.943 171.929 183.626 172.277 182.359 172.277ZM184.316 156.161C183.087 156.161 181.77 156.522 180.366 157.243C178.196 158.362 176.742 159.904 176.027 161.832C175.325 163.759 175.475 165.823 176.478 167.974C177.394 169.939 178.748 171.207 180.504 171.73C182.259 172.264 184.165 172.016 186.159 170.984C188.316 169.877 189.758 168.335 190.46 166.42C191.162 164.493 191.012 162.441 190.009 160.327C189.043 158.263 187.701 156.957 186.021 156.422C185.494 156.248 184.918 156.161 184.316 156.161ZM183.413 168.31C183.137 168.31 182.874 168.273 182.623 168.186C181.745 167.887 180.98 167.067 180.353 165.736C179.149 163.187 179.563 161.359 181.569 160.327C182.435 159.879 183.3 159.854 184.128 160.228C184.955 160.6 185.645 161.384 186.196 162.553C187.375 165.077 186.986 166.868 185.018 167.875C184.454 168.161 183.914 168.31 183.413 168.31ZM182.961 160.24C182.548 160.24 182.121 160.352 181.695 160.563C179.826 161.521 179.475 163.175 180.604 165.599C181.193 166.855 181.908 167.639 182.711 167.912C183.35 168.124 184.09 168.024 184.892 167.614C186.723 166.669 187.062 165.052 185.946 162.652C185.432 161.546 184.78 160.812 184.015 160.464C183.664 160.327 183.312 160.24 182.961 160.24Z" fill="#060607"/>
<path d="M207.449 182.858C207.048 183.89 205.957 184.574 204.941 184.798C203.712 185.072 202.697 184.425 202.007 183.43C201.919 183.306 201.832 183.169 201.756 183.033C201.656 182.858 202.797 185.321 202.81 185.358C203.386 186.552 204.327 187.807 205.756 187.77C206.948 187.745 208.34 186.925 208.803 185.756C209.167 184.823 209.017 183.642 208.352 182.212L206.998 179.314C207.662 180.745 207.813 181.926 207.449 182.858Z" fill="#060607"/>
<path d="M203.807 172.874C200.885 173.483 197.913 175.522 196.822 178.482C196.095 180.446 196.258 182.535 197.286 184.724L198.641 187.621C197.612 185.433 197.462 183.344 198.177 181.379C199.267 178.419 202.239 176.38 205.161 175.771C208.008 175.174 210.516 176.48 211.97 178.967C212.108 179.215 210.754 176.318 210.616 176.069C209.161 173.582 206.653 172.289 203.807 172.874Z" fill="#060607"/>
<path d="M202.595 176.719C200.388 177.863 198.908 179.417 198.193 181.382C197.466 183.347 197.629 185.436 198.657 187.624C199.598 189.639 200.965 190.907 202.77 191.454C204.576 192.001 206.495 191.753 208.526 190.696C210.72 189.564 212.175 188.01 212.902 186.045C213.617 184.08 213.467 182.016 212.451 179.84C211.46 177.738 210.106 176.408 208.376 175.861C206.645 175.351 204.714 175.625 202.595 176.719ZM207.247 187.351C205.366 188.321 203.874 187.624 202.77 185.274C201.604 182.787 201.993 181.046 203.924 180.051C204.752 179.629 205.567 179.591 206.357 179.964C207.159 180.325 207.824 181.083 208.363 182.215C209.504 184.665 209.14 186.381 207.247 187.351Z" fill="#FFA500"/>
<path d="M204.656 191.878C203.992 191.878 203.352 191.779 202.725 191.592C200.894 191.033 199.477 189.727 198.524 187.688C197.484 185.474 197.333 183.336 198.06 181.334C198.788 179.344 200.292 177.74 202.537 176.596C204.694 175.489 206.675 175.203 208.431 175.75C210.186 176.298 211.591 177.665 212.581 179.804C213.61 181.993 213.76 184.119 213.033 186.109C212.305 188.098 210.813 189.69 208.594 190.834C207.239 191.53 205.923 191.878 204.656 191.878ZM206.612 175.763C205.384 175.763 204.067 176.123 202.662 176.845C200.493 177.964 199.039 179.506 198.324 181.433C197.622 183.36 197.772 185.425 198.775 187.576C199.691 189.541 201.057 190.809 202.8 191.331C204.556 191.866 206.462 191.617 208.456 190.585C210.613 189.478 212.055 187.937 212.757 186.022C213.459 184.107 213.309 182.055 212.305 179.928C211.34 177.864 209.998 176.559 208.318 176.024C207.779 175.85 207.202 175.763 206.612 175.763ZM205.71 187.912C205.434 187.912 205.17 187.874 204.92 187.787C204.042 187.489 203.277 186.668 202.65 185.338C201.446 182.776 201.86 180.961 203.866 179.928C204.732 179.481 205.597 179.456 206.424 179.829C207.252 180.202 207.942 180.985 208.493 182.154C209.672 184.679 209.283 186.469 207.315 187.476C206.75 187.762 206.211 187.912 205.71 187.912ZM205.258 179.841C204.844 179.841 204.418 179.953 203.992 180.165C202.123 181.122 201.772 182.776 202.901 185.201C203.49 186.457 204.192 187.24 205.007 187.514C205.647 187.738 206.387 187.626 207.189 187.215C209.02 186.27 209.359 184.654 208.243 182.254C207.728 181.147 207.076 180.413 206.312 180.065C205.96 179.928 205.609 179.841 205.258 179.841Z" fill="#060607"/>
<path d="M304.955 196.97C303.128 199.588 301.069 201.854 298.139 203.178C297.403 203.51 296.604 203.845 295.815 203.899C292.025 204.152 288.222 203.998 284.598 202.845C281.253 201.783 279.201 199.105 277.688 196.069C274.437 189.553 273.981 182.624 274.957 175.549C275.719 170.023 277.484 164.841 280.93 160.36C282.913 157.785 285.278 155.49 288.628 155.155C292.56 154.76 296.575 155.154 300.304 156.431C304.12 157.739 306.222 161.047 307.654 164.641C311.107 173.312 310.684 182.057 307.732 190.75C307.005 192.89 305.891 194.896 304.955 196.964L304.955 196.97ZM280.261 162.63C280.317 162.69 280.376 162.752 280.432 162.812C279.92 163.757 279.349 164.676 278.909 165.651C275.739 172.663 274.858 180 276.051 187.569C276.741 191.955 278.156 196.089 281.278 199.427C284.542 202.914 288.897 203.341 292.792 200.578C295.387 198.74 297.188 196.232 298.56 193.425C301.862 186.676 302.882 179.529 301.982 172.11C301.405 167.346 300.061 162.837 296.787 159.151C293.407 155.344 288.83 154.834 284.833 157.979C283.139 159.311 281.778 161.067 280.266 162.632L280.261 162.63ZM301.072 191.216C302.458 191.301 303.962 191.346 305.453 191.506C306.202 191.586 306.47 191.344 306.724 190.645C308.87 184.707 309.452 178.6 308.671 172.371C308.125 168.004 306.802 163.888 303.963 160.415C301.876 157.868 299.215 156.504 295.65 156.677C298.94 159.332 300.726 162.717 301.857 166.486C303.325 171.371 303.734 176.374 303.01 181.409C302.543 184.662 301.744 187.869 301.07 191.214L301.072 191.216ZM299.283 194.629C300.049 194.677 300.738 194.658 301.4 194.787C301.785 194.861 302.123 195.172 302.482 195.377C302.087 195.52 301.701 195.736 301.294 195.783C300.833 195.837 300.348 195.782 299.887 195.702C298.939 195.537 298.344 195.8 297.818 196.705C296.46 199.04 294.571 200.897 292.213 202.252C291.987 202.38 291.788 202.557 291.49 202.774C298.308 204.242 303.06 199.186 305.795 192.573C304.617 192.488 303.475 192.399 302.331 192.33C300.92 192.243 299.937 192.871 299.382 194.214C299.351 194.292 299.342 194.378 299.286 194.628L299.283 194.629Z" fill="black"/>
<path d="M280.261 162.626C281.775 161.062 283.135 159.308 284.829 157.973C288.827 154.825 293.404 155.336 296.783 159.144C300.058 162.832 301.399 167.342 301.978 172.103C302.878 179.522 301.856 186.672 298.555 193.418C297.182 196.224 295.38 198.732 292.788 200.572C288.892 203.334 284.537 202.907 281.274 199.421C278.15 196.085 276.738 191.952 276.046 187.563C274.855 179.995 275.736 172.657 278.904 165.645C279.345 164.667 279.918 163.752 280.428 162.806C280.371 162.745 280.313 162.683 280.256 162.623L280.261 162.626ZM284.812 191.732L286.591 188.949C287.268 189.814 287.804 190.647 288.487 191.338C289.654 192.519 290.733 192.461 291.79 191.224C293.139 189.647 293.787 187.833 293.484 185.736C293.42 185.291 293.366 184.842 293.292 184.296C294.6 184.648 295.26 183.969 295.814 183.07C297.12 180.944 297.051 178.679 296.207 176.49C295.67 175.096 295.824 174.03 296.761 172.986C297.721 171.92 297.548 170.954 296.473 169.903L294.809 172.507C293.357 171.312 294.291 170.34 294.976 169.47C295.848 168.363 295.762 167.435 294.69 166.321L292.864 169.177C292.147 167.821 291.543 166.675 290.915 165.486C289.935 166.468 289.451 167.339 290.241 168.539C290.783 169.364 290.627 170.223 290.069 171.071C288.461 173.515 286.909 175.996 285.328 178.455C285.154 178.726 284.923 178.964 284.597 179.363C284.176 178.714 283.837 178.194 283.496 177.672C281.795 179.006 281.661 179.148 282.741 180.886C283.754 182.514 283.904 183.9 282.541 185.355C281.547 186.417 282.23 187.237 283.047 188.189L284.765 185.502C285.96 186.557 285.428 187.479 284.714 188.353C283.834 189.427 283.478 190.478 284.81 191.736L284.812 191.732Z" fill="white"/>
<path d="M301.079 191.219C301.753 187.874 302.552 184.668 303.019 181.414C303.741 176.378 303.332 171.375 301.866 166.491C300.734 162.724 298.948 159.339 295.659 156.682C299.224 156.509 301.886 157.873 303.972 160.42C306.813 163.891 308.134 168.009 308.68 172.376C309.459 178.604 308.877 184.711 306.733 190.65C306.479 191.349 306.212 191.589 305.462 191.511C303.969 191.353 302.467 191.306 301.081 191.221L301.079 191.219Z" fill="#FFA500"/>
<path d="M284.797 191.731C283.465 190.472 283.821 189.421 284.701 188.347C285.415 187.474 285.949 186.552 284.752 185.496L283.034 188.183C282.219 187.229 281.534 186.412 282.529 185.35C283.891 183.894 283.741 182.508 282.728 180.88C281.648 179.142 281.782 179 283.483 177.667C283.822 178.187 284.159 178.709 284.584 179.358C284.908 178.957 285.139 178.719 285.315 178.449C286.898 175.988 288.449 173.508 290.056 171.065C290.614 170.217 290.771 169.358 290.228 168.534C289.439 167.333 289.924 166.464 290.902 165.48C291.53 166.669 292.135 167.813 292.851 169.171L294.677 166.315C295.749 167.429 295.836 168.358 294.963 169.464C294.279 170.332 293.344 171.307 294.796 172.501L296.461 169.897C297.533 170.947 297.706 171.913 296.748 172.98C295.809 174.023 295.656 175.092 296.194 176.484C297.036 178.671 297.107 180.939 295.801 183.064C295.247 183.964 294.587 184.642 293.279 184.29C293.352 184.839 293.407 185.285 293.471 185.731C293.774 187.827 293.126 189.641 291.777 191.219C290.72 192.455 289.643 192.515 288.475 191.332C287.792 190.641 287.255 189.808 286.578 188.943L284.8 191.726L284.797 191.731ZM289.198 179.11C289.058 179.125 288.916 179.135 288.775 179.149L287.74 180.768C286.106 183.325 286.107 183.779 288.073 186.193C288.44 186.646 289.193 187.241 289.556 187.123C290.071 186.956 290.547 186.24 290.748 185.657C290.959 185.044 290.984 184.266 290.804 183.642C290.357 182.107 289.745 180.618 289.198 179.11ZM292.807 173.522L292.378 173.552C291.756 174.524 291.088 175.473 290.537 176.484C290.35 176.825 290.319 177.381 290.462 177.742C290.725 178.41 291.097 179.065 291.561 179.609C291.886 179.992 292.483 180.459 292.87 180.391C293.282 180.317 293.71 179.708 293.912 179.24C294.118 178.755 294.213 178.117 294.086 177.616C293.735 176.233 293.243 174.883 292.807 173.522Z" fill="black"/>
<path d="M289.205 179.109C289.749 180.615 290.363 182.105 290.81 183.64C290.992 184.262 290.965 185.042 290.754 185.655C290.553 186.238 290.077 186.954 289.562 187.121C289.199 187.239 288.446 186.644 288.079 186.192C286.113 183.777 286.113 183.323 287.747 180.766L288.781 179.147C288.922 179.133 289.064 179.123 289.205 179.109Z" fill="white"/>
<path d="M292.829 173.527C293.266 174.891 293.756 176.238 294.107 177.621C294.235 178.122 294.139 178.76 293.934 179.244C293.734 179.714 293.305 180.319 292.892 180.395C292.505 180.464 291.907 179.999 291.583 179.614C291.12 179.067 290.747 178.415 290.484 177.747C290.341 177.386 290.372 176.829 290.559 176.489C291.11 175.478 291.778 174.529 292.4 173.556L292.829 173.527Z" fill="white"/>
<defs>
<linearGradient id="paint0_linear_6060_11982" x1="138.379" y1="2.73437" x2="138.379" y2="73.9878" gradientUnits="userSpaceOnUse">
<stop stop-color="#FFA500" stop-opacity="0.51"/>
<stop offset="1" stop-color="#FFA500" stop-opacity="0"/>
</linearGradient>
<linearGradient id="paint1_linear_6060_11982" x1="74.6368" y1="183.243" x2="141.28" y2="183.243" gradientUnits="userSpaceOnUse">
<stop offset="0.286458" stop-color="#FF8F34" stop-opacity="0"/>
<stop offset="1" stop-color="#FFA500"/>
</linearGradient>
</defs>
</svg>
