<svg width="52" height="52" viewBox="0 0 52 52" fill="none" xmlns="http://www.w3.org/2000/svg">
<circle cx="26" cy="26" r="26" fill="#181B20"/>
<path d="M36 23.25H16C15.59 23.25 15.25 22.91 15.25 22.5C15.25 22.09 15.59 21.75 16 21.75H36C36.41 21.75 36.75 22.09 36.75 22.5C36.75 22.91 36.41 23.25 36 23.25Z" fill="white"/>
<path d="M22 31.25H20C19.59 31.25 19.25 30.91 19.25 30.5C19.25 30.09 19.59 29.75 20 29.75H22C22.41 29.75 22.75 30.09 22.75 30.5C22.75 30.91 22.41 31.25 22 31.25Z" fill="white"/>
<path d="M28.5 31.25H24.5C24.09 31.25 23.75 30.91 23.75 30.5C23.75 30.09 24.09 29.75 24.5 29.75H28.5C28.91 29.75 29.25 30.09 29.25 30.5C29.25 30.91 28.91 31.25 28.5 31.25Z" fill="white"/>
<path d="M31.56 35.25H20.44C16.46 35.25 15.25 34.05 15.25 30.11V21.89C15.25 17.95 16.46 16.75 20.44 16.75H31.55C35.53 16.75 36.74 17.95 36.74 21.89V30.1C36.75 34.05 35.54 35.25 31.56 35.25ZM20.44 18.25C17.3 18.25 16.75 18.79 16.75 21.89V30.1C16.75 33.2 17.3 33.74 20.44 33.74H31.55C34.69 33.74 35.24 33.2 35.24 30.1V21.89C35.24 18.79 34.69 18.25 31.55 18.25H20.44Z" fill="white"/>
</svg>
