<svg width="24" height="25" viewBox="0 0 24 25" fill="none" xmlns="http://www.w3.org/2000/svg">
<rect x="3.75" y="5.75" width="16.1" height="12.3667" rx="4.25" stroke="#718096" stroke-width="1.5"/>
<rect x="7.60059" y="9.2666" width="3.3" height="5.33333" rx="1.65" fill="#718096"/>
<rect x="13.0996" y="9.2666" width="3.3" height="5.33333" rx="1.65" fill="#718096"/>
<path d="M9.25 3C9.25 1.48122 10.4812 0.25 12 0.25C13.5188 0.25 14.75 1.48122 14.75 3H13.25C13.25 2.30964 12.6904 1.75 12 1.75C11.3096 1.75 10.75 2.30964 10.75 3H9.25ZM14 6H10H14ZM12 6C10.4812 6 9.25 4.76878 9.25 3.25V3C9.25 1.48122 10.4812 0.25 12 0.25V1.75C11.3096 1.75 10.75 2.30964 10.75 3V4C10.75 5.10457 11.3096 6 12 6ZM12 0.25C13.5188 0.25 14.75 1.48122 14.75 3V3.25C14.75 4.76878 13.5188 6 12 6C12.6904 6 13.25 5.10457 13.25 4V3C13.25 2.30964 12.6904 1.75 12 1.75V0.25Z" fill="#718096"/>
<path d="M0.25 10.2666C0.25 9.3001 1.0335 8.5166 2 8.5166H2.55C3.5165 8.5166 4.3 9.3001 4.3 10.2666C4.3 10.1285 3.85228 10.0166 3.3 10.0166H2C1.86193 10.0166 1.75 10.1285 1.75 10.2666H0.25ZM4.3 13.5999C4.3 14.5664 3.5165 15.3499 2.55 15.3499H2C1.0335 15.3499 0.25 14.5664 0.25 13.5999H1.75C1.75 13.738 1.86193 13.8499 2 13.8499H3.3C3.85228 13.8499 4.3 13.738 4.3 13.5999ZM2 15.3499C1.0335 15.3499 0.25 14.5664 0.25 13.5999V10.2666C0.25 9.3001 1.0335 8.5166 2 8.5166V10.0166C1.86193 10.0166 1.75 10.1285 1.75 10.2666V13.5999C1.75 13.738 1.86193 13.8499 2 13.8499V15.3499ZM4.3 9.2666V14.5999V9.2666Z" fill="#718096"/>
<path d="M19 10C19 9.0335 19.7835 8.25 20.75 8.25H21.3C22.2665 8.25 23.05 9.0335 23.05 10H21.55C21.55 9.86193 21.4381 9.75 21.3 9.75H20C19.4477 9.75 19 9.86193 19 10ZM23.05 13.3333C23.05 14.2998 22.2665 15.0833 21.3 15.0833H20.75C19.7835 15.0833 19 14.2998 19 13.3333C19 13.4714 19.4477 13.5833 20 13.5833H21.3C21.4381 13.5833 21.55 13.4714 21.55 13.3333H23.05ZM19 14.3333V9V14.3333ZM21.3 8.25C22.2665 8.25 23.05 9.0335 23.05 10V13.3333C23.05 14.2998 22.2665 15.0833 21.3 15.0833V13.5833C21.4381 13.5833 21.55 13.4714 21.55 13.3333V10C21.55 9.86193 21.4381 9.75 21.3 9.75V8.25Z" fill="#718096"/>
<mask id="path-7-inside-1_1640_2802" fill="white">
<path d="M7.60059 18.8C7.60059 18.2478 8.0483 17.8 8.60059 17.8H15.4006C15.9529 17.8 16.4006 18.2478 16.4006 18.8V20C16.4006 20.5523 15.9529 21 15.4006 21H8.60059C8.0483 21 7.60059 20.5523 7.60059 20V18.8Z"/>
</mask>
<path d="M7.60059 17.8H16.4006H7.60059ZM17.9006 20.15C17.9006 21.4479 16.8485 22.5 15.5506 22.5H8.45059C7.15272 22.5 6.10059 21.4479 6.10059 20.15L9.10059 19.5H14.9006L17.9006 20.15ZM8.45059 22.5C7.15272 22.5 6.10059 21.4479 6.10059 20.15V20.15C6.10059 18.8522 7.15272 17.8 8.45059 17.8H9.10059C9.10059 17.8 9.10059 18.2478 9.10059 18.8V19.5L8.45059 22.5ZM15.5506 17.8C16.8485 17.8 17.9006 18.8522 17.9006 20.15V20.15C17.9006 21.4479 16.8485 22.5 15.5506 22.5L14.9006 19.5V18.8C14.9006 18.2478 14.9006 17.8 14.9006 17.8H15.5506Z" fill="#718096" mask="url(#path-7-inside-1_1640_2802)"/>
</svg>
