<svg width="50" height="50" viewBox="0 0 50 50" fill="none" xmlns="http://www.w3.org/2000/svg">
<path opacity="0.4" d="M43.75 47.3955H6.25C5.39583 47.3955 4.6875 46.6872 4.6875 45.833C4.6875 44.9788 5.39583 44.2705 6.25 44.2705H43.75C44.6042 44.2705 45.3125 44.9788 45.3125 45.833C45.3125 46.6872 44.6042 47.3955 43.75 47.3955Z" fill="#FFA500"/>
<path d="M11.6666 17.459H8.33333C7.1875 17.459 6.25 18.3965 6.25 19.5423V37.5006C6.25 38.6465 7.1875 39.584 8.33333 39.584H11.6666C12.8124 39.584 13.7499 38.6465 13.7499 37.5006V19.5423C13.7499 18.3757 12.8124 17.459 11.6666 17.459Z" fill="#FFA500"/>
<path d="M26.6666 10.8125H23.3333C22.1875 10.8125 21.25 11.75 21.25 12.8958V37.5C21.25 38.6458 22.1875 39.5833 23.3333 39.5833H26.6666C27.8124 39.5833 28.7499 38.6458 28.7499 37.5V12.8958C28.7499 11.75 27.8124 10.8125 26.6666 10.8125Z" fill="#FFDB99"/>
<path d="M41.6666 4.16699H38.3333C37.1875 4.16699 36.25 5.10449 36.25 6.25033V37.5003C36.25 38.6462 37.1875 39.5837 38.3333 39.5837H41.6666C42.8124 39.5837 43.7499 38.6462 43.7499 37.5003V6.25033C43.7499 5.10449 42.8124 4.16699 41.6666 4.16699Z" fill="#FFA500"/>
</svg>
