<svg width="257" height="281" viewBox="0 0 257 281" fill="none" xmlns="http://www.w3.org/2000/svg">
<path d="M16.5001 248.772V236.945C16.5001 241.471 20.125 246.07 27.775 250.396C54.5002 265.597 120.375 271.947 174.9 264.621C213.826 259.397 236.449 248.572 236.475 237.297V249.121C236.424 260.396 213.826 271.196 174.875 276.447C120.35 283.771 54.4751 277.396 27.75 262.22C20.1 257.871 16.4751 253.272 16.5001 248.772Z" fill="#D5DFE2" stroke="black" stroke-width="0.35" stroke-linecap="round" stroke-linejoin="round"/>
<path d="M216.799 218.796C192.349 204.896 132.125 199.071 82.2499 205.796C32.4 212.496 11.8001 229.195 36.25 243.096C60.6999 256.997 120.925 262.82 170.8 256.096C220.649 249.395 241.249 232.696 216.799 218.796Z" fill="white"/>
<path d="M96.175 257.521L99.4748 254.047C99.9499 253.547 99.6249 252.722 98.9499 252.646C79.15 250.67 61.9499 246.646 51.975 240.971C51.6249 240.771 51.2998 240.572 50.975 240.372C49.7 239.597 48.1999 239.347 46.725 239.597L34.125 241.821" stroke="#D5DFE2" stroke-width="0.35" stroke-linecap="round" stroke-linejoin="round"/>
<path d="M26.9796 223.947L35.5047 218.922C23.0046 226.297 22.2548 235.146 36.2297 243.097C60.6796 256.996 120.905 262.822 170.78 256.098C220.08 249.472 240.756 233.072 217.606 219.272C220.429 220.972 223.28 222.647 226.106 224.347C251.429 239.422 228.805 257.347 174.905 264.598C120.38 271.921 54.5047 265.546 27.7798 250.373C12.5046 241.696 13.3048 232.022 26.9796 223.947Z" fill="white" stroke="#91A5AA" stroke-width="0.35" stroke-linecap="round" stroke-linejoin="round"/>
<path d="M236.477 244.573V243.273C236.427 247.697 232.903 252.023 226.303 255.972C225.751 256.298 225.278 256.771 224.952 257.323C224.277 258.497 223.652 259.547 222.976 260.698C222.602 261.348 222.027 261.871 221.352 262.198C210.502 267.323 194.102 271.623 173.102 274.323C172.527 274.399 171.952 274.222 171.527 273.847L169.602 272.147C168.952 271.573 168.102 271.297 167.252 271.398C140.202 274.348 111.027 274.123 85.5524 271.247C84.8524 271.173 84.1524 271.398 83.6024 271.872L81.7274 273.549C81.1774 274.047 80.4274 274.272 79.7023 274.173C60.0774 271.573 43.0524 267.373 31.5023 261.823C30.9275 261.548 30.4774 261.123 30.1774 260.573C29.5025 259.423 28.7274 258.046 28.1774 257.148C28.0274 256.873 27.7774 256.473 27.4273 256.147C26.9773 255.747 26.4273 255.448 26.3023 255.372C22.4024 252.972 19.7275 250.498 18.1525 248.023C17.4773 246.923 17.0024 245.848 16.7525 244.747C16.6025 244.097 16.5273 243.447 16.5273 242.822V250.323C16.5273 250.821 16.6025 251.423 16.7274 251.922C16.7274 251.947 16.7274 251.998 16.7525 252.023C16.8775 252.547 17.0275 253.073 17.2524 253.597C17.2524 253.597 17.2774 253.647 17.2774 253.672C17.5023 254.198 17.7773 254.748 18.1024 255.274C18.1024 255.297 18.1525 255.347 18.1775 255.372C18.5023 255.898 18.8775 256.422 19.3273 256.948C19.4024 257.022 19.4773 257.098 19.5524 257.173C19.9774 257.647 20.4024 258.122 20.9023 258.598C21.0523 258.747 21.2274 258.873 21.4024 259.023C21.8525 259.423 22.3023 259.848 22.8274 260.247C23.1523 260.498 23.5274 260.748 23.8773 260.998C24.2773 261.297 24.6524 261.598 25.1025 261.871C25.9274 262.423 26.8025 262.947 27.7524 263.498C39.4025 270.123 58.5024 275.046 80.8273 277.923C84.3024 278.373 87.8525 278.773 91.4774 279.097C91.5773 279.097 91.6775 279.097 91.7774 279.122C95.2773 279.448 98.8273 279.721 102.427 279.972C102.652 279.972 102.877 279.997 103.077 280.022C106.602 280.248 110.177 280.422 113.777 280.548C114.002 280.548 114.202 280.548 114.427 280.548C118.127 280.673 121.852 280.748 125.577 280.748C125.652 280.748 125.727 280.748 125.802 280.748C142.277 280.797 159.052 279.848 174.852 277.723C195.652 274.922 211.802 270.548 222.328 265.347C224.577 264.222 226.578 263.073 228.301 261.897C228.352 261.871 228.377 261.848 228.428 261.823C229.227 261.272 229.978 260.698 230.677 260.123C230.753 260.073 230.828 259.997 230.877 259.949C231.527 259.397 232.126 258.823 232.678 258.272C232.751 258.198 232.827 258.122 232.878 258.046C233.401 257.497 233.852 256.923 234.277 256.372C234.327 256.298 234.378 256.222 234.451 256.124C234.853 255.547 235.177 254.973 235.453 254.424C235.478 254.348 235.526 254.272 235.552 254.198C235.827 253.622 236.027 253.022 236.177 252.423C236.177 252.372 236.177 252.322 236.202 252.273C236.328 251.648 236.427 251.047 236.427 250.422V248.373V244.573H236.477Z" fill="#121212" stroke="black" stroke-width="0.35" stroke-linecap="round" stroke-linejoin="round"/>
<path d="M226.121 224.347C223.297 222.647 220.446 220.973 217.621 219.273C217.871 219.423 218.071 219.573 218.296 219.698C217.823 219.398 217.322 219.098 216.796 218.798C192.346 204.898 132.122 199.073 82.2469 205.798C60.6718 208.698 44.597 213.473 35.247 219.073C35.3218 219.023 35.397 218.973 35.4969 218.923L26.9719 223.947C13.297 232.022 12.4968 241.698 27.7718 250.373C54.4969 265.572 120.372 271.922 174.897 264.598C228.797 257.348 251.421 239.422 226.098 224.347H226.121Z" stroke="black" stroke-width="0.35" stroke-linecap="round" stroke-linejoin="round"/>
<path d="M211.775 219.471C210.624 218.822 209.349 218.172 208.023 217.547C207.773 217.422 207.474 217.371 207.173 217.422L200.224 218.221C199.85 218.272 199.574 218.771 199.974 218.972C201.125 219.496 202.2 220.071 203.199 220.621C212.248 225.771 214.024 231.346 209.675 236.497C209.225 237.046 209.523 237.87 210.224 237.972L216.425 238.822C216.9 238.897 217.373 238.72 217.725 238.397C224.024 232.345 222.549 225.621 211.75 219.496L211.775 219.471Z" fill="#D5DFE2"/>
<path d="M87.5548 209.148C86.6797 208.748 84.0799 207.598 84.0799 207.598C83.7548 207.448 83.4047 207.423 83.0799 207.448C50.5798 212.048 31.7298 221.198 31.6797 230.749C31.6797 231.472 32.2547 232.072 32.9797 232.024L39.7547 231.622C40.3547 231.599 40.8797 231.123 40.9047 230.524C41.2548 221.973 58.1797 213.823 87.2548 209.723C87.6798 209.673 88.1548 209.398 87.5548 209.123V209.148Z" fill="#D5DFE2"/>
<path d="M189.677 222.747C181.803 218.273 168.577 214.998 153.227 213.223L127.152 226.699L156.552 247.547C157.627 248.323 158.977 248.647 160.302 248.447C193.153 243.522 206.328 232.224 189.702 222.773L189.677 222.747Z" stroke="#D5DFE2" stroke-width="0.35" stroke-linecap="round" stroke-linejoin="round"/>
<path d="M76.5492 219.996C79.5993 218.972 80.7741 218.622 82.8991 218.021C79.5742 219.247 75.8492 220.247 73.5491 223.071C71.9741 224.996 71.7742 227.321 73.2491 229.372C74.3991 230.946 76.0741 232.097 77.7493 233.046C90.9493 240.546 123.474 243.696 150.424 240.071C177.349 236.446 188.475 227.422 175.274 219.922C175.274 219.922 180.949 222.071 182.799 222.972C187.474 225.17 189.525 228.145 189.398 230.797C189.125 237.172 176.224 243.271 154.174 246.221C122.974 250.422 85.2991 246.772 69.9991 238.072C67.5242 236.671 64.5991 234.672 63.7741 231.771C63.0741 229.347 64.2993 227.047 66.0992 225.497C68.1992 223.673 72.8992 221.222 76.5241 219.996H76.5492Z" fill="#121212" stroke="black" stroke-width="0.35" stroke-linecap="round" stroke-linejoin="round"/>
<path d="M180.472 222.297C195.096 230.597 182.772 240.572 152.972 244.597C123.172 248.596 87.1722 245.121 72.5474 236.82C57.9223 228.523 70.2473 218.547 100.047 214.521C129.847 210.521 165.847 213.997 180.472 222.297Z" fill="white" stroke="black" stroke-width="0.35" stroke-linecap="round" stroke-linejoin="round"/>
<path d="M180.472 222.297C195.096 230.597 182.772 240.572 152.972 244.597C123.172 248.596 87.1722 245.121 72.5474 236.82C57.9223 228.523 70.2473 218.547 100.047 214.521C129.847 210.521 165.847 213.997 180.472 222.297Z" fill="#D5DFE2" stroke="black" stroke-width="0.35" stroke-linecap="round" stroke-linejoin="round"/>
<path d="M183.926 225.223C183.926 225.223 183.751 225.046 183.651 224.947L129.727 234.272L177.451 221.147C177.276 221.072 177.126 220.997 176.952 220.922L129.251 234.047L167.626 217.797C167.402 217.747 167.177 217.672 166.926 217.622L128.602 233.847L155.377 215.297C155.102 215.247 154.802 215.222 154.527 215.172L127.777 233.698L141.527 213.747C141.227 213.747 140.927 213.697 140.626 213.672L126.876 233.622V213.172C126.551 213.172 126.251 213.172 125.927 213.172V233.596L112.152 213.597C111.851 213.597 111.526 213.647 111.227 213.647L125.001 233.647L98.1766 215.047C97.9016 215.097 97.6016 215.122 97.3266 215.172L124.176 233.771L85.7016 217.497C85.4764 217.547 85.2265 217.622 85.0016 217.672L123.502 233.971L75.7515 220.847C75.5765 220.922 75.4016 220.997 75.2516 221.072L123.051 234.221L69.2015 224.922C69.2015 224.922 69.0266 225.096 68.9515 225.198L122.827 234.497L66.8516 229.422C66.8516 229.422 66.8516 229.597 66.8516 229.698L122.827 234.773L69.1015 233.996C69.1015 233.996 69.2766 234.171 69.3765 234.272L123.051 235.046L75.7265 238.173C75.9015 238.246 76.1016 238.322 76.2765 238.398L123.527 235.271L85.8766 241.573C86.1266 241.621 86.3515 241.697 86.6014 241.773L124.227 235.471L98.2765 244.047C98.5515 244.097 98.8515 244.123 99.1516 244.171L125.052 235.597L111.877 245.522C112.177 245.522 112.477 245.572 112.777 245.598L125.976 235.648V246.048C126.301 246.048 126.602 246.048 126.927 246.048V235.648L140.176 245.646C140.476 245.646 140.802 245.623 141.102 245.598L127.826 235.597L154.026 244.272C154.326 244.221 154.601 244.196 154.901 244.148L128.652 235.446L166.776 241.846C167.027 241.798 167.277 241.722 167.526 241.671L129.302 235.271L177.177 238.446C177.352 238.373 177.526 238.297 177.701 238.198L129.777 235.021L183.977 234.247C183.977 234.247 184.152 234.072 184.226 233.971L130.027 234.747L186.302 229.647C186.302 229.647 186.302 229.473 186.302 229.372L130.052 234.472L184.002 225.147L183.926 225.223Z" fill="white"/>
<path d="M161.029 230.225C170.379 235.525 162.504 241.9 143.454 244.475C124.404 247.025 101.379 244.799 92.0542 239.499C82.7042 234.199 90.5791 227.824 109.629 225.249C128.679 222.673 151.704 224.925 161.029 230.225Z" fill="white"/>
<path d="M148.776 232.2C154.801 235.623 149.726 239.749 137.426 241.398C125.126 243.05 110.276 241.623 104.251 238.198C98.2262 234.773 103.301 230.649 115.601 229C127.901 227.348 142.751 228.775 148.776 232.2Z" fill="#FFA500"/>
<path d="M230.46 127.6C233.731 127.6 236.385 124.947 236.385 121.675C236.385 118.403 233.731 115.75 230.46 115.75C227.186 115.75 224.535 118.403 224.535 121.675C224.535 124.947 227.186 127.6 230.46 127.6Z" fill="#FFA500"/>
<path d="M1.40981 210.225C-4.19032 198.075 48.2597 161.9 118.61 129.425C188.935 96.9499 250.509 80.4749 256.11 92.6248" stroke="black" stroke-width="0.35" stroke-linecap="round" stroke-linejoin="round"/>
<path d="M39.2336 176.526C41.3321 176.526 43.0335 174.825 43.0335 172.726C43.0335 170.627 41.3321 168.926 39.2336 168.926C37.1347 168.926 35.4336 170.627 35.4336 172.726C35.4336 174.825 37.1347 176.526 39.2336 176.526Z" fill="#FFA500"/>
<path d="M62.4229 27.174C65.6467 27.174 68.2599 24.5606 68.2599 21.337C68.2599 18.1132 65.6467 15.5 62.4229 15.5C59.1993 15.5 56.5859 18.1132 56.5859 21.337C56.5859 24.5606 59.1993 27.174 62.4229 27.174Z" fill="white" stroke="#121212" stroke-width="0.35" stroke-miterlimit="10" stroke-linecap="round" stroke-linejoin="round"/>
<path d="M8.91849 48.5755C10.5303 48.5755 11.837 47.2688 11.837 45.657C11.837 44.045 10.5303 42.7383 8.91849 42.7383C7.30648 42.7383 6 44.045 6 45.657C6 47.2688 7.30648 48.5755 8.91849 48.5755Z" fill="white" stroke="#121212" stroke-width="0.35" stroke-miterlimit="10" stroke-linecap="round" stroke-linejoin="round"/>
<path d="M226.305 7L216.5 16.8051L226.305 26.6104L236.111 16.8051L226.305 7Z" fill="white" stroke="#121212" stroke-width="0.35" stroke-miterlimit="9.9998" stroke-linecap="round" stroke-linejoin="round"/>
<path d="M109.673 51.3555L109.645 51.361L109.618 51.3707C80.4918 61.6906 62.75 96.0347 62.75 133.57C62.75 171.269 80.2908 205.706 109.621 215.879L109.653 215.891L109.686 215.896C115.854 216.924 122.864 216.861 129.204 216.804C130.617 216.791 131.997 216.779 133.327 216.779C172.366 216.779 203.904 179.46 203.904 133.57C203.904 87.6802 172.366 50.3613 133.327 50.3613C132.334 50.3613 131.273 50.356 130.166 50.3505C123.473 50.3165 115.08 50.2742 109.673 51.3555Z" fill="#D8E2E5" stroke="black" stroke-width="0.35"/>
<mask id="mask0_6834_13931" style="mask-type:alpha" maskUnits="userSpaceOnUse" x="63" y="50" width="141" height="167">
<path d="M133.327 216.377C172.084 216.377 203.503 179.303 203.503 133.57C203.503 87.8374 172.084 50.7637 133.327 50.7637C94.5708 50.7637 63.1523 87.8374 63.1523 133.57C63.1523 179.303 94.5708 216.377 133.327 216.377Z" fill="#D8E2E5"/>
</mask>
<g mask="url(#mask0_6834_13931)">
<path d="M202.507 69.8247L166.902 78.1777L169.513 89.3041L205.117 80.9511L202.507 69.8247Z" fill="white"/>
<path d="M204.964 84.522L169.359 92.875L170.441 97.4859L206.046 89.1329L204.964 84.522Z" fill="white"/>
</g>
<path d="M118.675 216.375C157.432 216.375 188.85 179.301 188.85 133.568C188.85 87.8355 157.432 50.7617 118.675 50.7617C79.9185 50.7617 48.5 87.8355 48.5 133.568C48.5 179.301 79.9185 216.375 118.675 216.375Z" fill="white" stroke="black" stroke-width="0.35"/>
<path d="M118.675 194.055C146.481 194.055 168.9 166.902 168.9 133.571C168.9 100.241 146.481 73.0879 118.675 73.0879C90.8688 73.0879 68.4492 100.241 68.4492 133.571C68.4492 166.902 90.8688 194.055 118.675 194.055Z" fill="#FFA500" stroke="black" stroke-width="0.35"/>
<path d="M119 187C143.636 187 163.5 162.982 163.5 133.5C163.5 104.018 143.636 80 119 80C94.3638 80 74.5 104.018 74.5 133.5C74.5 162.982 94.3638 187 119 187Z" fill="white"/>
<g opacity="0.8">
<mask id="mask1_6834_13931" style="mask-type:alpha" maskUnits="userSpaceOnUse" x="68" y="73" width="101" height="121">
<g opacity="0.8">
<path d="M118.593 193.569C146.11 193.569 168.417 166.669 168.417 133.487C168.417 100.306 146.11 73.4062 118.593 73.4062C91.0763 73.4062 68.7695 100.306 68.7695 133.487C68.7695 166.669 91.0763 193.569 118.593 193.569Z" fill="url(#paint0_linear_6834_13931)"/>
</g>
</mask>
<g mask="url(#mask1_6834_13931)">
<path d="M54.2266 67.6055L180.49 75.8812" stroke="white" stroke-width="0.35"/>
<path d="M54.2266 102.775L180.49 111.051" stroke="white" stroke-width="0.35"/>
<path d="M54.2266 137.943L180.49 146.219" stroke="white" stroke-width="0.35"/>
<path d="M54.2266 173.113L180.49 181.389" stroke="white" stroke-width="0.35"/>
<path d="M156.418 35.7207L157.136 238" stroke="white" stroke-width="0.35"/>
<path d="M121.637 40.9395L122.354 243.219" stroke="white" stroke-width="0.35"/>
<path d="M86.8555 46.1582L87.5732 248.438" stroke="white" stroke-width="0.35"/>
</g>
</g>
<path d="M256.11 92.5996C261.711 104.75 209.261 140.925 138.91 173.4C68.5852 205.875 7.03509 222.375 1.41016 210.225" stroke="black" stroke-width="0.35" stroke-linecap="round" stroke-linejoin="round"/>
<path fill-rule="evenodd" clip-rule="evenodd" d="M141.106 125.678C142.255 117.937 136.404 113.776 128.404 111L130.999 100.515L124.663 98.9239L122.136 109.133C120.47 108.715 118.759 108.321 117.059 107.93L119.604 97.6532L113.271 96.0625L110.674 106.544C109.295 106.228 107.942 105.916 106.628 105.586L106.635 105.554L97.8968 103.356L96.2112 110.173C96.2112 110.173 100.912 111.258 100.813 111.326C103.38 111.971 103.843 113.682 103.766 115.038L100.81 126.983C100.986 127.029 101.216 127.094 101.468 127.196C101.398 127.178 101.327 127.16 101.254 127.142C101.107 127.105 100.954 127.066 100.799 127.029L96.6551 143.762C96.3411 144.548 95.5452 145.726 93.7513 145.278C93.8145 145.371 89.1456 144.12 89.1456 144.12L86 151.427L94.2458 153.497C95.1667 153.73 96.0765 153.969 96.9768 154.205L96.977 154.205C97.5764 154.363 98.1716 154.519 98.763 154.672L96.1408 165.277L102.47 166.868L105.067 156.375C106.796 156.848 108.474 157.284 110.117 157.695L107.529 168.139L113.865 169.729L116.487 159.144C127.292 161.203 135.417 160.372 138.837 150.529C141.593 142.603 138.7 138.03 133.015 135.049C137.155 134.087 140.274 131.344 141.106 125.678ZM126.627 146.128C124.831 153.4 113.531 150.394 108.361 149.018C107.896 148.894 107.48 148.784 107.125 148.695L110.605 134.645C111.037 134.753 111.564 134.872 112.162 135.007L112.162 135.007C117.509 136.216 128.468 138.693 126.627 146.128ZM113.237 128.485C117.547 129.644 126.95 132.172 128.588 125.562C130.26 118.802 121.122 116.764 116.659 115.769C116.156 115.657 115.714 115.558 115.352 115.468L112.197 128.211C112.495 128.286 112.845 128.38 113.237 128.485Z" fill="black"/>
<path d="M136.125 71.5965L142.25 46.0326L143.708 41.0201L133.208 33V47.5363L128.833 69.0902L124.75 84.1278L119.5 101.17L125.917 112.699L119.5 133.752L124.75 139.266L130 153.802L126.792 172.85L139.042 181.872L133.208 201.421L142.25 210.945L139.5 216.5C139.5 216.5 145 215.901 147 215.5C149 215.099 155.5 213 155.5 213L157.708 205.932L152.75 192.9L154.208 172.85L149.25 174.353L150.417 153.802L145.75 145.782L149.25 135.757V122.724V104.679L144.875 98.1629V79.1153L136.125 71.5965Z" fill="#FAFAFA" stroke="url(#paint1_linear_6834_13931)" stroke-width="0.5"/>
<rect x="113.754" y="38.0176" width="10" height="102.957" rx="5" transform="rotate(49.6812 113.754 38.0176)" fill="#FFA500"/>
<mask id="mask2_6834_13931" style="mask-type:alpha" maskUnits="userSpaceOnUse" x="37" y="40" width="82" height="71">
<rect x="113.754" y="38.0176" width="10" height="102.957" rx="5" transform="rotate(49.6812 113.754 38.0176)" fill="#FFA500"/>
</mask>
<g mask="url(#mask2_6834_13931)">
<path d="M119.901 42.2824L113.391 34.6271L108.658 38.6377L111.076 41.4807C113.34 44.1438 112.588 48.494 109.395 51.1997L46.1607 104.782C43.1832 107.305 39.2972 107.835 36.5091 106.375C36.7508 107.105 37.1228 107.792 37.6223 108.4C40.2451 111.578 45.6228 111.441 49.3805 108.257L118.234 49.8981L122.967 45.8875L119.901 42.2824Z" fill="#FF790B"/>
</g>
<path d="M112.495 34.4384C110.34 31.1182 98.7487 15.0635 77.0657 16.6127C77.0657 16.6127 100.816 25.0599 109.043 37.279L112.495 34.4384Z" fill="#B7B6B6"/>
<path d="M117.852 30.0365C115.107 26.6914 99.3694 9.16999 75.4533 14.6447L77.0734 16.6134C77.0734 16.6134 94.6533 14.3245 112.406 34.5109L117.853 30.0284L117.852 30.0365Z" fill="#E2E1E0"/>
<path d="M122.636 46.7601C125.479 49.5136 139.004 63.9773 133.311 84.957C133.311 84.957 129.592 60.0255 119.184 49.6008L122.636 46.7601Z" fill="#B7B6B6"/>
<path d="M127.985 42.35C130.739 45.6877 144.905 64.5024 134.93 86.918L133.31 84.9494C133.31 84.9494 138.939 68.1385 122.546 46.8333L127.993 42.3508L127.985 42.35Z" fill="#E2E1E0"/>
<path d="M129.104 40.9138L119.215 28.8973C118.08 27.5183 116.042 27.3204 114.663 28.4553L105.581 35.9298C104.202 37.0647 104.004 39.1026 105.139 40.4816L115.028 52.4981C116.162 53.8771 118.2 54.075 119.579 52.9402L128.662 45.4656C130.041 44.3308 130.239 42.2928 129.104 40.9138Z" fill="#E2E1E0"/>
<path style="mix-blend-mode:overlay" opacity="0.32" d="M125.527 40.8531L118.587 32.4197C117.792 31.4544 116.366 31.3159 115.401 32.1103L109.027 37.3553C108.062 38.1497 107.923 39.5763 108.718 40.5416L115.658 48.975C116.452 49.9403 117.879 50.0788 118.844 49.2844L125.218 44.0394C126.183 43.245 126.322 41.8184 125.527 40.8531Z" fill="url(#paint2_linear_6834_13931)"/>
<g clip-path="url(#clip0_6834_13931)">
<path d="M137.791 102.99L131.641 106.3L138.731 107.72" fill="#DFDFDF"/>
</g>
<g clip-path="url(#clip1_6834_13931)">
<path d="M140.03 135.83L128.5 118.87L135.12 116.67L140.03 135.83Z" fill="#DFDFDF"/>
<path d="M143.16 122.199L144.58 128.659L146.95 122.039L143.16 122.199Z" fill="#DFDFDF"/>
<path d="M138.57 108L140.09 114.31L142.24 108.24L138.57 108Z" fill="#DFDFDF"/>
</g>
<defs>
<linearGradient id="paint0_linear_6834_13931" x1="118.593" y1="73.4062" x2="118.593" y2="193.569" gradientUnits="userSpaceOnUse">
<stop stop-color="white"/>
<stop offset="1" stop-color="white" stop-opacity="0"/>
</linearGradient>
<linearGradient id="paint1_linear_6834_13931" x1="137" y1="41.5" x2="149" y2="216" gradientUnits="userSpaceOnUse">
<stop offset="0.0340876" stop-color="#FAFAFA"/>
<stop offset="0.661429"/>
<stop offset="1" stop-color="#FAFAFA"/>
</linearGradient>
<linearGradient id="paint2_linear_6834_13931" x1="112.883" y1="44.1912" x2="119.987" y2="38.3451" gradientUnits="userSpaceOnUse">
<stop stop-color="white" stop-opacity="0"/>
<stop offset="0.98" stop-color="white"/>
</linearGradient>
<clipPath id="clip0_6834_13931">
<rect width="33.59" height="25.31" fill="white" transform="translate(116.5 94)"/>
</clipPath>
<clipPath id="clip1_6834_13931">
<rect width="18.45" height="27.83" fill="white" transform="translate(128.5 108)"/>
</clipPath>
</defs>
</svg>
