<svg width="70" height="70" viewBox="0 0 70 70" fill="none" xmlns="http://www.w3.org/2000/svg">
<circle cx="35" cy="35" r="35" fill="#FAFAFA"/>
<path d="M29.3719 39.0623C29.1344 39.0623 28.8969 38.9748 28.7094 38.7873C28.3469 38.4248 28.3469 37.8248 28.7094 37.4623L32.7094 33.4623C32.9094 33.2623 33.1719 33.1623 33.4594 33.1873C33.7344 33.2123 33.9844 33.3623 34.1469 33.5998L35.5094 35.6498L39.9469 31.2123C40.3094 30.8498 40.9094 30.8498 41.2719 31.2123C41.6344 31.5748 41.6344 32.1748 41.2719 32.5373L36.0219 37.7873C35.8219 37.9873 35.5594 38.0873 35.2719 38.0623C34.9969 38.0373 34.7469 37.8873 34.5844 37.6498L33.2219 35.5998L30.0344 38.7873C29.8469 38.9748 29.6094 39.0623 29.3719 39.0623Z" fill="#292D32"/>
<path d="M40.625 35.3125C40.1125 35.3125 39.6875 34.8875 39.6875 34.375V32.8125H38.125C37.6125 32.8125 37.1875 32.3875 37.1875 31.875C37.1875 31.3625 37.6125 30.9375 38.125 30.9375H40.625C41.1375 30.9375 41.5625 31.3625 41.5625 31.875V34.375C41.5625 34.8875 41.1375 35.3125 40.625 35.3125Z" fill="#292D32"/>
<path d="M38.75 48.4375H31.25C24.4625 48.4375 21.5625 45.5375 21.5625 38.75V31.25C21.5625 24.4625 24.4625 21.5625 31.25 21.5625H38.75C45.5375 21.5625 48.4375 24.4625 48.4375 31.25V38.75C48.4375 45.5375 45.5375 48.4375 38.75 48.4375ZM31.25 23.4375C25.4875 23.4375 23.4375 25.4875 23.4375 31.25V38.75C23.4375 44.5125 25.4875 46.5625 31.25 46.5625H38.75C44.5125 46.5625 46.5625 44.5125 46.5625 38.75V31.25C46.5625 25.4875 44.5125 23.4375 38.75 23.4375H31.25Z" fill="#292D32"/>
</svg>
