<svg width="157" height="122" viewBox="0 0 157 122" fill="none" xmlns="http://www.w3.org/2000/svg">
<path d="M156.47 46.6666H18.5243C18.2285 46.6603 17.9938 46.4154 18.0001 46.1197C18.0063 45.8329 18.2374 45.6018 18.5243 45.5957H156.47C156.766 45.602 157 45.8469 156.994 46.1426C156.988 46.4294 156.757 46.6605 156.47 46.6666Z" fill="#CACACA"/>
<path d="M109.46 64.7109H71.3268C68.4626 64.7109 66.1406 67.0321 66.1406 69.8955C66.1406 72.759 68.4626 75.0802 71.3268 75.0802H109.46C112.325 75.0802 114.647 72.759 114.647 69.8955C114.647 67.0321 112.325 64.7109 109.46 64.7109Z" fill="#F5F5F5"/>
<path d="M46.6901 85.4492H134.093C136.957 85.4492 139.279 87.7705 139.279 90.6339C139.279 93.4973 136.957 95.8186 134.093 95.8186H46.6901C43.8259 95.8186 41.5039 93.4973 41.5039 90.6339C41.5039 87.7705 43.8259 85.4492 46.6901 85.4492Z" fill="#F5F5F5"/>
<path d="M69.8721 106H135.128C137.266 106 139 108.462 139 111.5C139 114.538 137.266 117 135.128 117H69.8721C67.7336 117 66 114.538 66 111.5C66 108.462 67.7336 106 69.8721 106Z" fill="#F5F5F5"/>
<path d="M58.4635 94.0879C58.4038 94.0899 58.344 94.0912 58.2842 94.0928C58.2586 94.1592 58.231 94.2249 58.1992 94.2895L58.4635 94.0879Z" fill="#2F2E41"/>
<path d="M60.4922 86.8887C60.5038 86.9616 60.5216 87.0334 60.5453 87.1034C60.5355 87.0301 60.5177 86.9581 60.4922 86.8887Z" fill="#2F2E41"/>
<path d="M25.5228 39.8843C26.9074 39.8843 28.0299 38.7371 28.0299 37.322C28.0299 35.9069 26.9074 34.7598 25.5228 34.7598C24.1381 34.7598 23.0156 35.9069 23.0156 37.322C23.0156 38.7371 24.1381 39.8843 25.5228 39.8843Z" fill="#3F3D56"/>
<path d="M34.1829 39.8843C35.5676 39.8843 36.6901 38.7371 36.6901 37.322C36.6901 35.9069 35.5676 34.7598 34.1829 34.7598C32.7983 34.7598 31.6758 35.9069 31.6758 37.322C31.6758 38.7371 32.7983 39.8843 34.1829 39.8843Z" fill="#3F3D56"/>
<path d="M42.8469 39.8843C44.2316 39.8843 45.3541 38.7371 45.3541 37.322C45.3541 35.9069 44.2316 34.7598 42.8469 34.7598C41.4623 34.7598 40.3398 35.9069 40.3398 37.322C40.3398 38.7371 41.4623 39.8843 42.8469 39.8843Z" fill="#3F3D56"/>
<path d="M52.7187 39.347C52.6417 39.347 52.5648 39.3172 52.5068 39.2578L50.8151 37.529C50.7023 37.4138 50.7023 37.2298 50.8151 37.1146L52.5068 35.3859C52.6216 35.269 52.8095 35.2671 52.926 35.3813C53.0431 35.4957 53.0451 35.6834 52.9306 35.8004L51.4418 37.3218L52.9306 38.8434C53.0451 38.9603 53.0431 39.148 52.926 39.2625C52.8684 39.3189 52.7935 39.347 52.7187 39.347Z" fill="#3F3D56"/>
<path d="M55.566 39.3452C55.4911 39.3452 55.4163 39.3171 55.3587 39.2607C55.2416 39.1462 55.2396 38.9587 55.3541 38.8416L56.8429 37.32L55.3541 35.7986C55.2396 35.6817 55.2416 35.494 55.3587 35.3795C55.4755 35.2649 55.6635 35.267 55.778 35.3841L57.4694 37.1128C57.5822 37.228 57.5822 37.4121 57.4694 37.5272L55.778 39.2561C55.7199 39.3154 55.643 39.3452 55.566 39.3452Z" fill="#3F3D56"/>
<path d="M144.064 35.0566H140.919C140.56 35.0566 140.27 35.347 140.27 35.7056V38.8532C140.27 39.2119 140.56 39.5023 140.919 39.5023H144.064C144.423 39.5023 144.717 39.2119 144.717 38.8532V35.7056C144.717 35.347 144.423 35.0566 144.064 35.0566Z" fill="#3F3D56"/>
<path d="M136.353 35.0566H133.208C132.849 35.0566 132.559 35.347 132.559 35.7056V38.8532C132.559 39.2119 132.849 39.5023 133.208 39.5023H136.353C136.712 39.5023 137.006 39.2119 137.006 38.8532V35.7056C137.006 35.347 136.712 35.0566 136.353 35.0566Z" fill="#3F3D56"/>
<path d="M151.326 35.2031H148.181C147.822 35.2031 147.531 35.4935 147.531 35.8522V38.9998C147.531 39.3584 147.822 39.6488 148.181 39.6488H151.326C151.685 39.6488 151.978 39.3584 151.978 38.9998V35.8522C151.978 35.4935 151.685 35.2031 151.326 35.2031Z" fill="#3F3D56"/>
<path d="M103.912 36.4023H78.7682C78.3294 36.4023 77.9766 36.7579 77.9766 37.1936C77.9766 37.6293 78.3294 37.985 78.7682 37.985H103.912C104.348 37.985 104.703 37.6293 104.703 37.1936C104.703 36.7579 104.348 36.4023 103.912 36.4023Z" fill="#3F3D56"/>
<path opacity="0.4" d="M43.4942 98.2386C41.827 96.3544 39.7535 94.8737 37.4303 93.9082C35.1071 92.9427 32.5949 92.5177 30.0833 92.6653H17.4167C4.56 92.6653 0 102.07 0 110.145C0 117.365 3.83167 121.165 11.0833 121.165H34.01C34.1751 121.163 34.3367 121.118 34.4791 121.034C34.6214 120.951 34.7394 120.831 34.8216 120.688C34.9037 120.545 34.9471 120.383 34.9475 120.218C34.9479 120.053 34.9053 119.89 34.8238 119.747C33.8851 117.919 33.3526 115.91 33.2629 113.858C33.1731 111.805 33.5283 109.758 34.304 107.855C35.0797 105.953 36.2576 104.24 37.757 102.836C39.2564 101.431 41.0417 100.367 42.9907 99.7175C43.1384 99.6754 43.2737 99.5982 43.385 99.4924C43.4963 99.3866 43.5803 99.2553 43.6298 99.11C43.6793 98.9646 43.6929 98.8094 43.6692 98.6576C43.6456 98.5058 43.5855 98.3621 43.4942 98.2386Z" fill="#324054"/>
<path d="M23.7761 86.3333C30.7717 86.3333 36.4428 80.6623 36.4428 73.6667C36.4428 66.6711 30.7717 61 23.7761 61C16.7805 61 11.1094 66.6711 11.1094 73.6667C11.1094 80.6623 16.7805 86.3333 23.7761 86.3333Z" fill="#718096"/>
<path d="M46.9703 120.904C46.6584 120.904 46.3496 120.842 46.0616 120.723C45.7736 120.603 45.5121 120.428 45.2919 120.207L41.0708 115.986C40.8495 115.766 40.6739 115.504 40.5538 115.215C40.4338 114.927 40.3717 114.618 40.3711 114.306C40.3699 113.675 40.6193 113.07 41.0644 112.623C41.5096 112.176 42.1139 111.925 42.7446 111.923C43.3753 111.922 43.9806 112.172 44.4274 112.617L46.9608 115.15L53.7374 108.405C54.1877 107.985 54.7831 107.757 55.3984 107.768C56.0137 107.779 56.6008 108.028 57.0359 108.463C57.471 108.898 57.7203 109.485 57.7312 110.101C57.742 110.716 57.5136 111.311 57.0941 111.762L48.6486 120.217C48.4277 120.436 48.1658 120.609 47.8778 120.727C47.5898 120.845 47.2814 120.905 46.9703 120.904Z" fill="#0ECB81"/>
<path d="M76.8571 1.30273L78.5424 6.2788L83.3277 4.1102L79.1159 7.25074L82.6571 11.1317L78.3688 8.09656L75.7721 12.6637L77.3335 7.64737L72.1875 6.58909L77.4408 6.52393L76.8571 1.30273Z" fill="#F5F5F5"/>
</svg>
