<svg width="14" height="40" viewBox="0 0 14 40" fill="none" xmlns="http://www.w3.org/2000/svg">
<g clip-path="url(#clip0_346_656)">
<path d="M0.300781 3.31566C0.748109 3.08995 1.16998 2.87552 1.59299 2.66355C3.33519 1.79037 5.07821 0.918873 6.82204 0.0490692C6.9069 0.00687111 7.04203 -0.0196253 7.11808 0.0181567C9.27654 1.09164 11.4322 2.17113 13.585 3.25661C13.6157 3.27199 13.6444 3.29096 13.7051 3.32662L12.3114 4.02534C10.6022 4.88271 8.89216 5.73866 7.1814 6.5932C7.09197 6.63753 6.94689 6.65437 6.863 6.61267C4.70541 5.53918 2.55026 4.46013 0.397558 3.37552C0.373731 3.36358 0.352026 3.34755 0.300781 3.31566Z" fill="url(#paint0_linear_346_656)"/>
<path d="M13.9974 3.74451V4.1588C13.9974 6.20099 13.9981 8.24318 13.9997 10.2854C13.9997 10.4146 13.977 10.4951 13.8466 10.56C11.6765 11.641 9.50815 12.7256 7.34163 13.8137C7.32866 13.8172 7.31538 13.8195 7.30198 13.8205C7.2936 13.7656 7.28815 13.7103 7.28566 13.6548C7.28566 11.5613 7.28843 9.46774 7.28125 7.37419C7.28125 7.17792 7.34016 7.07979 7.51772 6.99196C9.3103 6.10689 11.1 5.21571 12.887 4.31843C13.245 4.13885 13.5997 3.9501 13.9974 3.74451Z" fill="url(#paint1_linear_346_656)"/>
<path d="M6.7104 13.8409L5.06618 13.0019C4.76752 12.8495 4.47034 12.6939 4.16989 12.5449C2.84602 11.8884 1.52134 11.2336 0.195838 10.5804C0.0551612 10.5112 0 10.4306 0 10.2646C0.00685434 8.10561 0.00456905 5.94779 0.00456905 3.7561C0.348429 3.92473 0.673684 4.08142 0.997307 4.24334C2.8421 5.16745 4.68696 6.09139 6.53187 7.01517C6.6634 7.08059 6.7277 7.14978 6.7264 7.31154C6.72003 9.44826 6.72248 11.585 6.72232 13.7217C6.72232 13.7497 6.71693 13.7778 6.7104 13.8409Z" fill="url(#paint2_linear_346_656)"/>
<path d="M12.6722 31.8345V36.1822C12.6722 36.4244 12.6505 36.6691 12.6779 36.9082C12.7105 37.1907 12.6051 37.3266 12.3492 37.4521C10.7318 38.2448 9.1249 39.0594 7.51446 39.8664C7.43057 39.9084 7.34538 39.9481 7.23702 40C7.23212 39.9195 7.22527 39.8582 7.2251 39.7969C7.22413 38.123 7.22331 36.4492 7.22266 34.7756C7.22266 34.6464 7.23114 34.5466 7.37606 34.475C9.10075 33.6179 10.823 32.7565 12.5429 31.8908C12.5748 31.8739 12.6081 31.8612 12.6722 31.8345Z" fill="url(#paint3_linear_346_656)"/>
<path d="M1.32818 31.8242C2.17926 32.2511 2.99069 32.6584 3.80227 33.0651C4.73903 33.5348 5.67601 34.004 6.61321 34.4729C6.70672 34.5197 6.78212 34.5555 6.78163 34.6911C6.77543 36.4325 6.77673 38.1739 6.77526 39.9153C6.77526 39.9351 6.76613 39.9547 6.75568 39.9971C6.4425 39.8392 6.13846 39.685 5.83361 39.5321C5.24 39.2344 4.64623 38.9372 4.05229 38.6403C3.17526 38.2015 2.29742 37.764 1.42267 37.3203C1.37763 37.2974 1.3321 37.2221 1.33194 37.1709C1.32737 35.4012 1.32818 33.6317 1.32818 31.8242Z" fill="url(#paint4_linear_346_656)"/>
<path d="M1.58594 31.4647C2.42543 31.0429 3.25546 30.6252 4.08598 30.2087C5.00267 29.7493 5.91886 29.2887 6.83898 28.836C6.91748 28.7974 7.04298 28.7771 7.11478 28.8128C8.87863 29.6891 10.6381 30.574 12.4406 31.4788C12.2273 31.5852 12.0434 31.6767 11.8598 31.7688C10.2822 32.5603 8.70336 33.3504 7.12327 34.1392C7.05799 34.1719 6.94767 34.1752 6.88288 34.1428C5.12556 33.2686 3.37019 32.3904 1.61678 31.508C1.61156 31.5054 1.60895 31.4973 1.58594 31.4647Z" fill="url(#paint5_linear_346_656)"/>
<path d="M6.48993 25.6245C5.26904 25.4433 4.24937 24.8802 3.50339 23.8637C2.89955 23.0419 2.6231 22.1119 2.66895 21.0951C2.75741 19.1285 4.1929 17.2863 6.49645 16.9692V15.0204H7.50404V16.9733C8.6918 17.1354 9.69711 17.6808 10.4485 18.6604C11.0435 19.4363 11.3428 20.3216 11.3412 21.2997C11.3379 23.4178 9.8009 25.3233 7.51269 25.6301C7.51269 26.3635 7.51269 27.0969 7.51269 27.843H6.49042L6.48993 25.6245ZM7.00906 17.5171C4.92436 17.5148 3.20653 19.2299 3.22775 21.3208C3.24945 23.3642 4.87605 25.0748 7.00253 25.0845C9.0559 25.0936 10.7747 23.3707 10.7793 21.3125C10.784 19.2345 9.08071 17.5191 7.00906 17.5171Z" fill="url(#paint6_linear_346_656)"/>
<path d="M8.09402 22.01C8.09402 22.1767 8.05236 22.3333 7.96902 22.48C7.88902 22.6267 7.76902 22.75 7.60902 22.85C7.45236 22.95 7.26569 23.01 7.04902 23.03V23.435H6.72402V23.03C6.41069 23 6.15736 22.9017 5.96402 22.735C5.77069 22.5683 5.67402 22.3483 5.67402 22.075H6.28402C6.29402 22.205 6.33569 22.3133 6.40902 22.4C6.48236 22.4833 6.58736 22.5367 6.72402 22.56V21.46C6.50069 21.4033 6.31902 21.3467 6.17902 21.29C6.03902 21.23 5.91902 21.1367 5.81902 21.01C5.72236 20.8833 5.67402 20.71 5.67402 20.49C5.67402 20.2133 5.77069 19.985 5.96402 19.805C6.15736 19.6217 6.41069 19.515 6.72402 19.485V19.08H7.04902V19.485C7.34236 19.5117 7.57736 19.605 7.75402 19.765C7.93402 19.9217 8.03569 20.1383 8.05902 20.415H7.44902C7.43902 20.3117 7.39902 20.22 7.32902 20.14C7.25902 20.0567 7.16569 20 7.04902 19.97V21.05C7.27236 21.1033 7.45402 21.16 7.59402 21.22C7.73402 21.2767 7.85236 21.3683 7.94902 21.495C8.04569 21.6183 8.09402 21.79 8.09402 22.01ZM6.25402 20.46C6.25402 20.5967 6.29402 20.7033 6.37402 20.78C6.45736 20.8567 6.57402 20.9183 6.72402 20.965V19.955C6.58069 19.9717 6.46569 20.0233 6.37902 20.11C6.29569 20.1967 6.25402 20.3133 6.25402 20.46ZM7.04902 22.56C7.19569 22.5367 7.31069 22.4783 7.39402 22.385C7.47736 22.2883 7.51902 22.1733 7.51902 22.04C7.51902 21.9067 7.47736 21.8033 7.39402 21.73C7.31402 21.6533 7.19902 21.5917 7.04902 21.545V22.56Z" fill="#FF9B04"/>
</g>
<defs>
<linearGradient id="paint0_linear_346_656" x1="7.00294" y1="0" x2="7.00294" y2="6.6366" gradientUnits="userSpaceOnUse">
<stop stop-color="#FF8D00" stop-opacity="0.97"/>
<stop offset="1" stop-color="#FFA500"/>
</linearGradient>
<linearGradient id="paint1_linear_346_656" x1="10.6405" y1="3.74451" x2="10.6405" y2="13.8205" gradientUnits="userSpaceOnUse">
<stop stop-color="#FF8D00" stop-opacity="0.97"/>
<stop offset="1" stop-color="#FFA500"/>
</linearGradient>
<linearGradient id="paint2_linear_346_656" x1="3.36321" y1="3.7561" x2="3.36321" y2="13.8409" gradientUnits="userSpaceOnUse">
<stop stop-color="#FF8D00" stop-opacity="0.97"/>
<stop offset="1" stop-color="#FFA500"/>
</linearGradient>
<linearGradient id="paint3_linear_346_656" x1="9.95316" y1="31.8345" x2="9.95316" y2="40" gradientUnits="userSpaceOnUse">
<stop stop-color="#FF8D00" stop-opacity="0.97"/>
<stop offset="1" stop-color="#FFA500"/>
</linearGradient>
<linearGradient id="paint4_linear_346_656" x1="4.05488" y1="31.8242" x2="4.05488" y2="39.9971" gradientUnits="userSpaceOnUse">
<stop stop-color="#FF8D00" stop-opacity="0.97"/>
<stop offset="1" stop-color="#FFA500"/>
</linearGradient>
<linearGradient id="paint5_linear_346_656" x1="7.01327" y1="28.7943" x2="7.01327" y2="34.1655" gradientUnits="userSpaceOnUse">
<stop stop-color="#FF8D00" stop-opacity="0.97"/>
<stop offset="1" stop-color="#FFA500"/>
</linearGradient>
<linearGradient id="paint6_linear_346_656" x1="7.00262" y1="15.0204" x2="7.00262" y2="27.843" gradientUnits="userSpaceOnUse">
<stop stop-color="#FF8D00" stop-opacity="0.97"/>
<stop offset="1" stop-color="#FFA500"/>
</linearGradient>
<clipPath id="clip0_346_656">
<rect width="14" height="40" fill="white"/>
</clipPath>
</defs>
</svg>
