<svg width="25" height="25" viewBox="0 0 25 25" fill="none" xmlns="http://www.w3.org/2000/svg">
<path d="M12.5 24.4617C19.1266 24.4617 24.5 19.0984 24.5 12.4808C24.5 5.86322 19.1266 0.5 12.5 0.5C5.87337 0.5 0.5 5.86322 0.5 12.4808C0.5 19.0984 5.87337 24.4617 12.5 24.4617Z" fill="#686868" stroke="url(#paint0_linear_487_852)"/>
<g clip-path="url(#clip0_487_852)">
<path d="M8.34778 14.5473L8.34778 13.1696L16.8436 13.1696L13.629 16.3843L13.629 14.5473L8.34778 14.5473ZM16.614 10.4142L16.614 11.7919L8.11816 11.7919L11.3328 8.57731L11.3328 10.4142L16.614 10.4142Z" fill="url(#paint1_linear_487_852)"/>
<path d="M8.34778 14.5473L8.34778 13.1696L16.8436 13.1696L13.629 16.3843L13.629 14.5473L8.34778 14.5473ZM16.614 10.4142L16.614 11.7919L8.11816 11.7919L11.3328 8.57731L11.3328 10.4142L16.614 10.4142Z" fill="url(#paint2_linear_487_852)"/>
</g>
<defs>
<linearGradient id="paint0_linear_487_852" x1="12.5" y1="1" x2="12.5" y2="23.9617" gradientUnits="userSpaceOnUse">
<stop stop-color="#7D7D7D"/>
<stop offset="1" stop-color="#E3E3E3" stop-opacity="0"/>
</linearGradient>
<linearGradient id="paint1_linear_487_852" x1="8.11816" y1="12.4808" x2="16.8436" y2="12.4808" gradientUnits="userSpaceOnUse">
<stop stop-color="#FFD200"/>
<stop offset="1" stop-color="#F7971E"/>
</linearGradient>
<linearGradient id="paint2_linear_487_852" x1="8.11816" y1="12.4808" x2="16.8436" y2="12.4808" gradientUnits="userSpaceOnUse">
<stop stop-color="#FFD200"/>
<stop offset="1" stop-color="#F7971E"/>
</linearGradient>
<clipPath id="clip0_487_852">
<rect width="11.0216" height="11.0216" fill="white" transform="translate(6.97021 17.9916) rotate(-90)"/>
</clipPath>
</defs>
</svg>
