<svg width="54" height="56" viewBox="0 0 54 56" fill="none" xmlns="http://www.w3.org/2000/svg">
<g filter="url(#filter0_d_486_1404)">
<path d="M22.5 11.5981C25.2846 9.99038 28.7154 9.99038 31.5 11.5981L38.9545 15.9019C41.7391 17.5096 43.4545 20.4808 43.4545 23.6962V32.3038C43.4545 35.5192 41.7391 38.4904 38.9545 40.0981L31.5 44.4019C28.7154 46.0096 25.2846 46.0096 22.5 44.4019L15.0455 40.0981C12.2609 38.4904 10.5455 35.5192 10.5455 32.3038V23.6962C10.5455 20.4808 12.2609 17.5096 15.0455 15.9019L22.5 11.5981Z" fill="#FFD200" fill-opacity="0.18" shape-rendering="crispEdges"/>
<path d="M22.625 11.8146C25.3323 10.2515 28.6677 10.2515 31.375 11.8146L38.8295 16.1184C41.5367 17.6815 43.2045 20.5701 43.2045 23.6962V32.3038C43.2045 35.4299 41.5367 38.3185 38.8295 39.8816L31.375 44.1854C28.6677 45.7485 25.3323 45.7485 22.625 44.1854L15.1705 39.8816C12.4633 38.3185 10.7955 35.4299 10.7955 32.3038V23.6962C10.7955 20.5701 12.4633 17.6815 15.1705 16.1184L22.625 11.8146Z" stroke="url(#paint0_linear_486_1404)" stroke-width="0.5" shape-rendering="crispEdges"/>
</g>
<path d="M34.4752 18.8334H32.0252C30.9668 18.8334 30.3335 19.4667 30.3335 20.525V22.975C30.3335 24.0334 30.9668 24.6667 32.0252 24.6667H34.4752C35.5335 24.6667 36.1668 24.0334 36.1668 22.975V20.525C36.1668 19.4667 35.5335 18.8334 34.4752 18.8334ZM34.6585 21.5917C34.5585 21.6917 34.4252 21.7417 34.2918 21.7417C34.1585 21.7417 34.0252 21.6917 33.9252 21.5917L33.7752 21.4417V23.3084C33.7752 23.6 33.5418 23.8334 33.2502 23.8334C32.9585 23.8334 32.7252 23.6 32.7252 23.3084V21.4417L32.5752 21.5917C32.3752 21.7917 32.0418 21.7917 31.8418 21.5917C31.6418 21.3917 31.6418 21.0584 31.8418 20.8584L32.8835 19.8167C32.9252 19.775 32.9835 19.7417 33.0418 19.7167C33.0585 19.7084 33.0752 19.7084 33.0918 19.7C33.1335 19.6834 33.1752 19.675 33.2252 19.675C33.2418 19.675 33.2585 19.675 33.2752 19.675C33.3335 19.675 33.3835 19.6834 33.4418 19.7084C33.4502 19.7084 33.4502 19.7084 33.4585 19.7084C33.5168 19.7334 33.5668 19.7667 33.6085 19.8084C33.6168 19.8167 33.6168 19.8167 33.6252 19.8167L34.6668 20.8584C34.8668 21.0584 34.8668 21.3917 34.6585 21.5917Z" fill="#FFD200"/>
<path opacity="0.4" d="M35.3332 24.475V25.5H18.6665V24.2834C18.6665 22.375 20.2165 20.8334 22.1248 20.8334H30.3332V22.975C30.3332 24.0334 30.9665 24.6667 32.0248 24.6667H34.4748C34.8082 24.6667 35.0915 24.6084 35.3332 24.475Z" fill="#FFD200"/>
<path d="M18.6665 25.5V31.7167C18.6665 33.625 20.2165 35.1667 22.1248 35.1667H31.8748C33.7832 35.1667 35.3332 33.625 35.3332 31.7167V25.5H18.6665ZM23.6665 32.375H21.9998C21.6582 32.375 21.3748 32.0917 21.3748 31.75C21.3748 31.4083 21.6582 31.125 21.9998 31.125H23.6665C24.0082 31.125 24.2915 31.4083 24.2915 31.75C24.2915 32.0917 24.0082 32.375 23.6665 32.375ZM29.0832 32.375H25.7498C25.4082 32.375 25.1248 32.0917 25.1248 31.75C25.1248 31.4083 25.4082 31.125 25.7498 31.125H29.0832C29.4248 31.125 29.7082 31.4083 29.7082 31.75C29.7082 32.0917 29.4248 32.375 29.0832 32.375Z" fill="#FFD200"/>
<defs>
<filter id="filter0_d_486_1404" x="0.54541" y="0.392334" width="52.9092" height="55.2153" filterUnits="userSpaceOnUse" color-interpolation-filters="sRGB">
<feFlood flood-opacity="0" result="BackgroundImageFix"/>
<feColorMatrix in="SourceAlpha" type="matrix" values="0 0 0 0 0 0 0 0 0 0 0 0 0 0 0 0 0 0 127 0" result="hardAlpha"/>
<feOffset/>
<feGaussianBlur stdDeviation="5"/>
<feComposite in2="hardAlpha" operator="out"/>
<feColorMatrix type="matrix" values="0 0 0 0 1 0 0 0 0 0.823529 0 0 0 0 0 0 0 0 0.32 0"/>
<feBlend mode="normal" in2="BackgroundImageFix" result="effect1_dropShadow_486_1404"/>
<feBlend mode="normal" in="SourceGraphic" in2="effect1_dropShadow_486_1404" result="shape"/>
</filter>
<linearGradient id="paint0_linear_486_1404" x1="27" y1="9" x2="27" y2="47" gradientUnits="userSpaceOnUse">
<stop stop-color="white" stop-opacity="0.2"/>
<stop offset="1" stop-color="#929292" stop-opacity="0"/>
</linearGradient>
</defs>
</svg>
