<svg width="179" height="237" viewBox="0 0 179 237" fill="none" xmlns="http://www.w3.org/2000/svg">
<path d="M17.9762 50.1869C16.28 50.871 14.6078 51.616 12.8825 52.2125C11.9496 52.536 11.4673 53.0689 11.1519 53.981C10.5689 55.6673 9.85601 57.3084 9.19611 58.9655C9.07686 58.9761 8.95495 58.9894 8.83569 59C8.28975 57.6505 7.62456 56.3327 7.22968 54.9408C6.75 53.2545 5.79859 52.2709 4.10512 51.7936C2.69788 51.3986 1.36484 50.7437 0 50.2055C0.00530035 50.0835 0.0106021 49.9642 0.0159024 49.8422C1.70937 49.1608 3.38693 48.4423 5.10159 47.8193C5.94965 47.5117 6.47173 47.0663 6.77915 46.1728C7.37544 44.4361 8.12809 42.7552 8.81449 41.0504C8.9364 41.0345 9.0583 41.0159 9.17756 41C9.6811 42.2753 10.2933 43.5188 10.659 44.8338C11.1784 46.6924 12.2332 47.8299 14.1281 48.3389C15.4558 48.6942 16.712 49.3226 18 49.829L17.9762 50.1896V50.1869Z" fill="black"/>
<path d="M113.976 9.18692C112.28 9.87097 110.608 10.616 108.883 11.2125C107.95 11.536 107.467 12.0689 107.152 12.981C106.569 14.6673 105.856 16.3084 105.196 17.9655C105.077 17.9761 104.955 17.9894 104.836 18C104.29 16.6505 103.625 15.3327 103.23 13.9408C102.75 12.2545 101.799 11.2709 100.105 10.7936C98.6979 10.3986 97.3648 9.7437 96 9.20548C96.0053 9.08352 96.0106 8.96421 96.0159 8.84225C97.7094 8.16085 99.3869 7.44233 101.102 6.81927C101.95 6.51171 102.472 6.06628 102.779 5.17278C103.375 3.43615 104.128 1.75519 104.814 0.0503752C104.936 0.0344672 105.058 0.0159081 105.178 0C105.681 1.2753 106.293 2.51878 106.659 3.83385C107.178 5.69244 108.233 6.82987 110.128 7.33893C111.456 7.69421 112.712 8.32258 114 8.82899L113.976 9.18957V9.18692Z" fill="black"/>
<mask id="mask0_5305_12687" style="mask-type:alpha" maskUnits="userSpaceOnUse" x="9" y="41" width="141" height="196">
<rect x="9" y="41" width="141" height="196" fill="#D9D9D9"/>
</mask>
<g mask="url(#mask0_5305_12687)">
<g clip-path="url(#clip0_5305_12687)">
<path d="M56.1224 145.969C56.1224 145.969 37.6084 142.905 30.1108 123.554C22.6132 104.203 28.5544 78.0964 36.6611 69.1799C44.7677 60.2634 53.3074 63.3541 55.3916 70.2876C57.4758 77.2212 60.3584 97.9261 60.3584 97.9261C60.3584 97.9261 60.9269 106.131 53.8217 107.472C46.7165 108.812 43.1978 101.523 42.1016 88.2164" stroke="black" stroke-miterlimit="10" stroke-linecap="round"/>
<path d="M54.4904 68.1679C54.4904 68.1679 53.0423 60.6737 61.6362 58.8548C71.6376 56.7351 72.9368 67.0465 73.2751 77.6451" stroke="black" stroke-miterlimit="10"/>
<path d="M74.9073 76.4008C74.9073 76.4008 74.5149 86.384 88.5898 80.7223C88.7387 74.3905 85.3147 71.2861 85.3147 71.2861C85.3147 71.2861 80.3343 71.2725 74.9209 76.4008H74.9073Z" fill="#D9D9D9"/>
<path d="M48.0604 97.4065C48.0604 97.4065 51.7822 95.1637 58.1836 96.2578C59.158 104.408 54.5295 104.354 54.5295 104.354C54.5295 104.354 48.6288 105.461 48.0469 97.3929L48.0604 97.4065Z" fill="#D9D9D9"/>
<path d="M63.4588 97.9124C63.4588 97.9124 67.1806 95.6696 73.582 96.7636C74.5564 104.914 69.9279 104.86 69.9279 104.86C69.9279 104.86 64.0273 105.967 63.4453 97.8987L63.4588 97.9124Z" fill="#D9D9D9"/>
<path d="M94.0448 93.6868C94.0448 93.6868 97.7665 91.444 104.168 92.5381C105.142 100.689 100.514 100.634 100.514 100.634C100.514 100.634 94.6132 101.742 94.0312 93.6731L94.0448 93.6868Z" fill="#D9D9D9"/>
<path d="M79.4588 95.8338C79.4588 95.8338 83.1806 93.591 89.582 94.685C90.5564 102.836 85.9279 102.781 85.9279 102.781C85.9279 102.781 80.0273 103.889 79.4453 95.8201L79.4588 95.8338Z" fill="#D9D9D9"/>
<path d="M59.9453 101.577C59.9453 101.577 64.0189 110.863 71.7331 107.089C79.4608 103.328 76.3075 90.2814 76.3345 88.1069" stroke="black" stroke-miterlimit="10"/>
<path d="M79.9439 121.148C79.9439 121.148 82.0146 109.14 102.396 101.974C110.719 96.299 104.927 87.8475 98.1873 87.5739C91.4475 87.3004 79.0778 91.6903 74.8688 86.9175C70.6598 82.1447 71.729 77.1121 77.9545 73.3786C84.1799 69.6452 104.981 66.8417 115.253 78.6848C125.539 90.5416 128.665 105.257 121.235 119.042C113.805 132.827 97.7542 140.198 97.7542 140.198" stroke="black" stroke-miterlimit="10" stroke-linecap="round"/>
<path d="M76.6328 99.7449C76.6328 99.7449 79.1095 106.747 86.4447 105.379C93.7935 104.025 92.8055 95.1499 91.5875 88.1069" stroke="black" stroke-miterlimit="10"/>
<path d="M91.8438 100.511C91.8438 100.511 92.8317 103.492 99.0301 103.273" stroke="black" stroke-miterlimit="10"/>
<path d="M70.7969 63.0532C70.7969 63.0532 71.0134 57.9385 77.6855 56.7761C85.332 55.4496 88.4718 62.3421 89.1891 70.7389" stroke="black" stroke-miterlimit="10"/>
<path d="M86.5938 60.7286C87.2704 58.5405 89.0298 55.3541 93.4553 54.7797C101.778 53.6993 104.458 62.3423 103.863 71.2315" stroke="black" stroke-miterlimit="10"/>
<path d="M76.6328 113.147C76.6328 113.147 79.0553 111.657 84.5365 113.052" stroke="black" stroke-miterlimit="10" stroke-linecap="round"/>
<path d="M38.1641 93.8232H42.779" stroke="black" stroke-miterlimit="10" stroke-linecap="round"/>
<path d="M49.8852 144.136L42.4688 368.471" stroke="black" stroke-miterlimit="10" stroke-linecap="round"/>
<path d="M100.328 138.871L112.4 379.316" stroke="black" stroke-miterlimit="10" stroke-linecap="round"/>
</g>
</g>
<path d="M161.368 109.471C159.504 112.143 157.403 114.456 154.413 115.806C153.662 116.145 152.846 116.487 152.042 116.542C148.174 116.8 144.293 116.643 140.594 115.467C137.181 114.383 135.087 111.65 133.543 108.552C130.225 101.902 129.76 94.831 130.756 87.6116C131.533 81.9724 133.334 76.6841 136.851 72.1113C138.875 69.4832 141.289 67.1414 144.707 66.7993C148.72 66.3967 152.817 66.7981 156.622 68.1013C160.516 69.4363 162.661 72.8124 164.123 76.4801C167.647 85.3281 167.215 94.253 164.203 103.124C163.46 105.308 162.324 107.355 161.369 109.466L161.368 109.471ZM136.169 74.4271C136.226 74.4888 136.286 74.552 136.343 74.6138C135.821 75.5778 135.237 76.5152 134.789 77.5106C131.554 84.6657 130.655 92.1537 131.872 99.878C132.577 104.353 134.021 108.573 137.207 111.979C140.537 115.537 144.981 115.973 148.957 113.153C151.604 111.277 153.443 108.718 154.842 105.854C158.213 98.9665 159.253 91.6724 158.335 84.1018C157.746 79.2403 156.374 74.6389 153.034 70.8772C149.584 66.9927 144.913 66.4715 140.835 69.6816C139.106 71.0409 137.716 72.833 136.173 74.4299L136.169 74.4271ZM157.406 103.599C158.82 103.687 160.355 103.732 161.877 103.895C162.641 103.977 162.915 103.73 163.174 103.016C165.364 96.9575 165.957 90.7254 165.161 84.368C164.604 79.9116 163.254 75.7118 160.356 72.1675C158.227 69.5681 155.511 68.176 151.873 68.3528C155.23 71.0615 157.053 74.5161 158.207 78.3623C159.705 83.348 160.123 88.4533 159.384 93.5917C158.907 96.9115 158.091 100.184 157.404 103.598L157.406 103.599ZM155.58 107.082C156.362 107.131 157.065 107.112 157.741 107.244C158.134 107.32 158.478 107.637 158.845 107.846C158.442 107.992 158.048 108.212 157.633 108.26C157.162 108.316 156.667 108.259 156.197 108.177C155.229 108.009 154.622 108.278 154.085 109.201C152.7 111.584 150.772 113.479 148.365 114.861C148.135 114.992 147.932 115.172 147.628 115.394C154.586 116.892 159.435 111.732 162.225 104.984C161.023 104.898 159.859 104.807 158.691 104.736C157.25 104.647 156.247 105.288 155.682 106.659C155.65 106.739 155.64 106.827 155.584 107.081L155.58 107.082Z" fill="black"/>
<path d="M136.165 74.4239C137.71 72.8284 139.098 71.0385 140.826 69.6756C144.906 66.4633 149.577 66.9844 153.025 70.8712C156.368 74.6343 157.736 79.2366 158.326 84.0958C159.245 91.6665 158.203 98.9628 154.834 105.848C153.432 108.711 151.593 111.27 148.948 113.147C144.973 115.967 140.528 115.531 137.198 111.973C134.011 108.569 132.569 104.351 131.864 99.872C130.648 92.1491 131.547 84.6611 134.78 77.5047C135.23 76.507 135.815 75.5732 136.335 74.6078C136.277 74.546 136.218 74.4829 136.16 74.4211L136.165 74.4239ZM140.81 104.127L142.625 101.287C143.315 102.169 143.863 103.02 144.56 103.725C145.75 104.93 146.852 104.871 147.93 103.609C149.307 101.999 149.968 100.148 149.659 98.0082C149.593 97.5533 149.538 97.096 149.463 96.5383C150.797 96.8971 151.471 96.205 152.036 95.287C153.369 93.118 153.299 90.8058 152.438 88.5724C151.89 87.1495 152.047 86.0617 153.003 84.9965C153.983 83.9089 153.806 82.9233 152.709 81.8501L151.011 84.5078C149.529 83.2886 150.482 82.2965 151.181 81.4081C152.072 80.2791 151.983 79.3313 150.89 78.1944L149.026 81.1097C148.294 79.7254 147.678 78.556 147.037 77.3425C146.037 78.3449 145.544 79.2338 146.349 80.4587C146.903 81.3004 146.743 82.177 146.174 83.0425C144.533 85.5368 142.949 88.068 141.336 90.5771C141.159 90.8547 140.922 91.0975 140.59 91.5045C140.16 90.8417 139.814 90.3111 139.466 89.7791C137.73 91.14 137.594 91.2844 138.696 93.0585C139.729 94.7199 139.882 96.1343 138.492 97.6194C137.477 98.7033 138.175 99.54 139.008 100.511L140.761 97.7687C141.981 98.8453 141.438 99.7871 140.709 100.678C139.811 101.775 139.448 102.847 140.807 104.131L140.81 104.127Z" fill="white"/>
<path d="M157.415 103.602C158.103 100.188 158.918 96.916 159.395 93.5962C160.132 88.4563 159.714 83.3511 158.218 78.3668C157.063 74.5229 155.24 71.0682 151.885 68.3573C155.522 68.1805 158.238 69.5726 160.367 72.172C163.267 75.7141 164.615 79.9161 165.172 84.3725C165.966 90.7285 165.373 96.9606 163.185 103.021C162.926 103.734 162.654 103.979 161.888 103.9C160.365 103.739 158.832 103.691 157.418 103.603L157.415 103.602Z" fill="#FFA500"/>
<path d="M140.796 104.125C139.438 102.841 139.801 101.769 140.698 100.672C141.428 99.7811 141.972 98.8408 140.751 97.7627L138.998 100.505C138.165 99.5318 137.467 98.6973 138.482 97.6135C139.872 96.1284 139.719 94.7139 138.685 93.0526C137.583 91.2785 137.719 91.134 139.456 89.7731C139.801 90.3038 140.146 90.8366 140.579 91.4986C140.909 91.0902 141.146 90.8473 141.325 90.5712C142.94 88.0598 144.524 85.5286 146.164 83.0366C146.732 82.1711 146.892 81.2945 146.339 80.4528C145.533 79.2278 146.029 78.3404 147.027 77.3365C147.668 78.55 148.285 79.7172 149.016 81.1037L150.879 78.1885C151.973 79.3253 152.061 80.2732 151.171 81.4021C150.473 82.2884 149.518 83.2826 151 84.5019L152.699 81.8442C153.793 82.916 153.97 83.9016 152.993 84.9906C152.034 86.0543 151.878 87.1458 152.427 88.5665C153.287 90.7984 153.359 93.1121 152.026 95.281C151.461 96.1991 150.787 96.8911 149.453 96.5323C149.526 97.0923 149.583 97.5473 149.648 98.0022C149.957 100.142 149.296 101.993 147.92 103.603C146.841 104.865 145.742 104.925 144.549 103.719C143.852 103.014 143.305 102.163 142.614 101.281L140.799 104.121L140.796 104.125ZM145.288 91.2463C145.144 91.2608 145 91.2716 144.856 91.2861L143.8 92.938C142.133 95.5468 142.133 96.0103 144.139 98.4745C144.514 98.9359 145.283 99.5431 145.653 99.4234C146.178 99.2525 146.664 98.5217 146.869 97.9271C147.084 97.3016 147.11 96.508 146.926 95.8712C146.47 94.3039 145.846 92.7853 145.288 91.2463ZM148.971 85.5439L148.533 85.5735C147.898 86.566 147.217 87.5345 146.654 88.5665C146.463 88.9138 146.432 89.4816 146.578 89.8502C146.846 90.5314 147.226 91.1995 147.699 91.7555C148.031 92.146 148.64 92.6226 149.035 92.5528C149.455 92.4775 149.893 91.8565 150.098 91.3781C150.308 90.8836 150.405 90.2326 150.275 89.7212C149.917 88.31 149.415 86.9322 148.971 85.5439Z" fill="black"/>
<path d="M145.296 91.2441C145.852 92.7816 146.479 94.3017 146.934 95.8689C147.12 96.5035 147.093 97.2993 146.878 97.9248C146.673 98.5194 146.187 99.2502 145.662 99.4212C145.291 99.5409 144.522 98.9336 144.148 98.4723C142.142 96.008 142.141 95.5446 143.809 92.9357L144.864 91.2838C145.008 91.2694 145.153 91.2585 145.296 91.2441Z" fill="white"/>
<path d="M148.991 85.5468C149.437 86.9388 149.938 88.3129 150.296 89.7242C150.426 90.2355 150.329 90.8865 150.119 91.3811C149.916 91.8609 149.477 92.4782 149.055 92.5558C148.661 92.6255 148.05 92.1512 147.72 91.7584C147.248 91.2002 146.867 90.5343 146.598 89.8531C146.452 89.4846 146.484 88.9167 146.675 88.5695C147.237 87.5375 147.919 86.5689 148.553 85.5765L148.991 85.5468Z" fill="white"/>
<path d="M56.3795 30.6122C55.2357 32.2516 53.9463 33.6712 52.1112 34.5001C51.65 34.7082 51.1493 34.9179 50.6556 34.9517C48.2818 35.11 45.8999 35.0136 43.6299 34.292C41.535 33.6266 40.2501 31.9493 39.3023 30.0478C37.2659 25.9668 36.9804 21.6269 37.5918 17.1961C38.0689 13.7352 39.1742 10.4896 41.3328 7.68311C42.575 6.07014 44.0561 4.63292 46.1538 4.42294C48.617 4.17587 51.1314 4.4222 53.4666 5.222C55.8566 6.04139 57.1733 8.11338 58.0704 10.3644C60.2328 15.7947 59.9677 21.2722 58.1192 26.7165C57.6636 28.0568 56.966 29.3134 56.3799 30.6086L56.3795 30.6122ZM40.9138 9.10436C40.9491 9.14226 40.9857 9.18104 41.021 9.21894C40.7004 9.81058 40.3423 10.3859 40.0669 10.9968C38.0815 15.3881 37.5298 19.9838 38.277 24.7244C38.7094 27.4711 39.5955 30.0606 41.551 32.1512C43.5948 34.3348 46.3222 34.6022 48.7622 32.8719C50.387 31.7204 51.5155 30.15 52.3745 28.3919C54.4429 24.165 55.0817 19.6884 54.518 15.042C54.1564 12.0584 53.3147 9.23434 51.2644 6.92569C49.1471 4.54161 46.2805 4.22176 43.7774 6.19189C42.7163 7.02614 41.8636 8.126 40.9165 9.1061L40.9138 9.10436ZM53.9481 27.0081C54.8159 27.0618 55.7576 27.0899 56.6918 27.1899C57.1607 27.2401 57.3287 27.0883 57.4876 26.6506C58.8319 22.932 59.1961 19.1071 58.7073 15.2054C58.3653 12.4704 57.5368 9.89282 55.7583 7.71757C54.4517 6.12228 52.7847 5.26788 50.5522 5.37638C52.6124 7.0388 53.7313 9.15902 54.4394 11.5195C55.3588 14.5794 55.6152 17.7127 55.1618 20.8663C54.869 22.9038 54.3684 24.9121 53.9467 27.0072L53.9481 27.0081ZM52.8273 29.1459C53.307 29.1761 53.7388 29.1642 54.1536 29.245C54.3945 29.2915 54.6059 29.4862 54.8309 29.6147C54.5837 29.7042 54.3418 29.8394 54.087 29.8686C53.7983 29.9028 53.4944 29.8679 53.2059 29.8178C52.6117 29.7144 52.2394 29.8795 51.9098 30.4462C51.0595 31.9085 49.8764 33.0717 48.3993 33.9202C48.2577 34.0005 48.1333 34.1111 47.9466 34.247C52.2169 35.1666 55.1931 31.9998 56.9057 27.8583C56.168 27.8052 55.4531 27.7494 54.7363 27.7058C53.8523 27.6513 53.2368 28.0448 52.8896 28.8862C52.8699 28.9351 52.8642 28.989 52.8295 29.1454L52.8273 29.1459Z" fill="black"/>
<path d="M40.9141 9.10189C41.8625 8.12266 42.7144 7.02416 43.775 6.18768C46.2789 4.21618 49.1456 4.53604 51.2619 6.92148C53.3136 9.231 54.1531 12.0556 54.5156 15.0378C55.0792 19.6842 54.4396 24.1622 52.372 28.3877C51.5117 30.1449 50.3832 31.7153 48.7598 32.8677C46.3198 34.598 43.5924 34.3306 41.5485 32.147C39.5922 30.0577 38.7074 27.4691 38.2745 24.7202C37.5287 19.9804 38.0804 15.3848 40.0645 10.9926C40.3407 10.3803 40.6993 9.80723 41.0186 9.21473C40.9833 9.17682 40.9466 9.13805 40.9114 9.10015L40.9141 9.10189ZM43.7649 27.3314L44.8789 25.5885C45.3025 26.1299 45.6387 26.6519 46.0665 27.0847C46.7973 27.8243 47.4731 27.788 48.1352 27.0135C48.9797 26.0255 49.3854 24.8894 49.1959 23.5763C49.1556 23.2971 49.1219 23.0165 49.0758 22.6742C49.8948 22.8944 50.3083 22.4696 50.655 21.9062C51.4733 20.5751 51.4302 19.156 50.9014 17.7853C50.5651 16.912 50.6617 16.2444 51.2485 15.5906C51.8498 14.9231 51.7413 14.3182 51.0682 13.6596L50.0256 15.2907C49.1162 14.5424 49.7011 13.9336 50.1303 13.3883C50.6768 12.6954 50.6226 12.1137 49.9514 11.416L48.8078 13.2051C48.3585 12.3556 47.9804 11.6379 47.587 10.8931C46.973 11.5083 46.6703 12.0538 47.1648 12.8056C47.5045 13.3222 47.4063 13.8602 47.0572 14.3914C46.0499 15.9222 45.078 17.4757 44.0879 19.0156C43.9791 19.186 43.8339 19.335 43.6301 19.5848C43.3661 19.178 43.1539 18.8524 42.9403 18.5258C41.8748 19.3611 41.7912 19.4497 42.4676 20.5385C43.1019 21.5582 43.1958 22.4262 42.3425 23.3377C41.7196 24.0029 42.1477 24.5164 42.6594 25.1122L43.7351 23.4293C44.4835 24.0901 44.1506 24.6681 43.7031 25.215C43.1521 25.8878 42.9292 26.5458 43.7631 27.3341L43.7649 27.3314Z" fill="white"/>
<path d="M53.9562 27.0103C54.378 24.9152 54.8785 22.9069 55.1713 20.8694C55.6233 17.7149 55.3669 14.5817 54.4489 11.5227C53.74 9.16351 52.6211 7.04329 50.5617 5.3795C52.7942 5.27101 54.4612 6.1254 55.7678 7.7207C57.5472 9.89459 58.3748 12.4735 58.7168 15.2085C59.2042 19.1094 58.84 22.9343 57.4971 26.6537C57.3382 27.0915 57.1711 27.2418 56.7013 27.193C55.7663 27.0944 54.8254 27.0649 53.9576 27.0112L53.9562 27.0103Z" fill="#FFA500"/>
<path d="M43.7573 27.3309C42.9234 26.5426 43.1463 25.8846 43.6972 25.2118C44.1448 24.6649 44.4791 24.0878 43.7293 23.4261L42.6535 25.109C42.1427 24.5119 41.7138 23.9997 42.3367 23.3345C43.19 22.4231 43.0961 21.555 42.4618 20.5353C41.7854 19.4465 41.869 19.3579 42.9345 18.5226C43.1467 18.8483 43.358 19.1753 43.6243 19.5816C43.8267 19.3309 43.9719 19.1819 44.0821 19.0124C45.0731 17.4711 46.045 15.9177 47.0514 14.3882C47.4005 13.857 47.4987 13.319 47.159 12.8025C46.6645 12.0507 46.9685 11.506 47.5812 10.8899C47.9746 11.6347 48.3536 12.351 48.802 13.202L49.9456 11.4128C50.6168 12.1105 50.671 12.6922 50.1245 13.3851C49.6962 13.929 49.1104 14.5392 50.0198 15.2875L51.0624 13.6564C51.7341 14.3142 51.8427 14.9191 51.2427 15.5874C50.6546 16.2403 50.5584 16.9102 50.8956 17.7821C51.4231 19.1519 51.4674 20.5719 50.6492 21.903C50.3025 22.4664 49.889 22.8912 49.07 22.671C49.1152 23.0147 49.1497 23.2939 49.1901 23.5731C49.3796 24.8862 48.9739 26.0223 48.1293 27.0103C47.4673 27.7848 46.7928 27.822 46.0607 27.0815C45.6329 26.6488 45.2967 26.1268 44.8731 25.5853L43.7591 27.3282L43.7573 27.3309ZM46.514 19.4268C46.4258 19.4357 46.3371 19.4423 46.2489 19.4512L45.6009 20.465C44.5774 22.0661 44.578 22.3506 45.809 23.863C46.0388 24.1461 46.5107 24.5188 46.7381 24.4453C47.0604 24.3404 47.3587 23.8919 47.4844 23.527C47.6166 23.1431 47.6323 22.656 47.5194 22.2652C47.2397 21.3033 46.8566 20.3713 46.514 19.4268ZM48.7742 15.927L48.5053 15.9452C48.116 16.5543 47.6976 17.1487 47.3523 17.7821C47.2352 17.9952 47.2159 18.3437 47.3055 18.5699C47.4702 18.988 47.7033 19.3981 47.9938 19.7393C48.1976 19.9789 48.5711 20.2714 48.8135 20.2286C49.0714 20.1824 49.34 19.8013 49.4663 19.5077C49.595 19.2042 49.6546 18.8046 49.575 18.4908C49.3551 17.6247 49.0472 16.7791 48.7742 15.927Z" fill="black"/>
<path d="M46.5131 19.4252C46.8543 20.3689 47.2388 21.3018 47.5184 22.2637C47.6322 22.6531 47.6156 23.1416 47.4835 23.5254C47.3577 23.8903 47.0595 24.3389 46.7371 24.4438C46.5097 24.5173 46.0378 24.1446 45.808 23.8614C44.577 22.349 44.5765 22.0646 45.5999 20.4635L46.248 19.4496C46.3362 19.4408 46.4249 19.4341 46.5131 19.4252Z" fill="white"/>
<path d="M48.785 15.9289C49.0585 16.7832 49.3659 17.6265 49.5858 18.4926C49.6654 18.8065 49.6058 19.206 49.4771 19.5095C49.3522 19.804 49.0832 20.1829 48.8243 20.2305C48.582 20.2733 48.2076 19.9822 48.0047 19.7411C47.715 19.3986 47.481 18.9899 47.3164 18.5718C47.2268 18.3456 47.2461 17.9971 47.3631 17.784C47.7085 17.1506 48.1268 16.5562 48.5162 15.9471L48.785 15.9289Z" fill="white"/>
<defs>
<clipPath id="clip0_5305_12687">
<rect width="100" height="326" fill="white" transform="translate(26 54)"/>
</clipPath>
</defs>
</svg>
