<svg width="15" height="15" viewBox="0 0 15 15" fill="none" xmlns="http://www.w3.org/2000/svg">
<path d="M13.171 3.26875C12.1647 3.16875 11.1585 3.09375 10.146 3.0375V3.03125L10.0085 2.21875C9.91473 1.64375 9.77724 0.78125 8.31473 0.78125H6.67723C5.22098 0.78125 5.08348 1.60625 4.98348 2.2125L4.85223 3.0125C4.27098 3.05 3.68973 3.0875 3.10848 3.14375L1.83348 3.26875C1.57098 3.29375 1.38348 3.525 1.40848 3.78125C1.43348 4.0375 1.65848 4.225 1.92098 4.2L3.19598 4.075C6.47098 3.75 9.77099 3.875 13.0835 4.20625C13.1022 4.20625 13.1147 4.20625 13.1335 4.20625C13.371 4.20625 13.5772 4.025 13.6022 3.78125C13.621 3.525 13.4335 3.29375 13.171 3.26875Z" fill="#555A5F"/>
<path d="M12.0169 5.0875C11.8669 4.93125 11.6606 4.84375 11.4481 4.84375H3.54813C3.33563 4.84375 3.12313 4.93125 2.97938 5.0875C2.83563 5.24375 2.75438 5.45625 2.76688 5.675L3.15438 12.0875C3.22313 13.0375 3.31063 14.225 5.49188 14.225H9.50438C11.6856 14.225 11.7731 13.0437 11.8419 12.0875L12.2294 5.68125C12.2419 5.45625 12.1606 5.24375 12.0169 5.0875ZM8.53563 11.0938H6.45438C6.19813 11.0938 5.98563 10.8812 5.98563 10.625C5.98563 10.3688 6.19813 10.1562 6.45438 10.1562H8.53563C8.79188 10.1562 9.00438 10.3688 9.00438 10.625C9.00438 10.8812 8.79188 11.0938 8.53563 11.0938ZM9.06063 8.59375H5.93563C5.67938 8.59375 5.46688 8.38125 5.46688 8.125C5.46688 7.86875 5.67938 7.65625 5.93563 7.65625H9.06063C9.31688 7.65625 9.52938 7.86875 9.52938 8.125C9.52938 8.38125 9.31688 8.59375 9.06063 8.59375Z" fill="#555A5F"/>
</svg>
