<svg width="25" height="25" viewBox="0 0 25 25" fill="none" xmlns="http://www.w3.org/2000/svg">
<path d="M22.9193 6.17179C22.1531 6.51127 21.3301 6.74065 20.4649 6.84433C21.3475 6.31584 22.0247 5.47722 22.344 4.47895C21.5182 4.96891 20.6034 5.32491 19.6299 5.51575C18.85 4.68631 17.7398 4.16699 16.5104 4.16699C14.1505 4.16699 12.2365 6.08095 12.2365 8.44266C12.2365 8.77664 12.2751 9.10144 12.3466 9.41524C8.79305 9.23632 5.64502 7.53431 3.53655 4.94872C3.16953 5.58182 2.9585 6.31584 2.9585 7.09757C2.9585 8.58029 3.71363 9.8896 4.85962 10.6557C4.15863 10.6328 3.49984 10.441 2.92364 10.1208V10.1759C2.92364 12.2467 4.39627 13.9744 6.35243 14.3671C5.99276 14.4644 5.61566 14.5158 5.22663 14.5158C4.95137 14.5158 4.68253 14.4901 4.42196 14.4405C4.96605 16.1379 6.54419 17.3748 8.41503 17.4078C6.95157 18.5547 5.10827 19.2383 3.10623 19.2383C2.76124 19.2383 2.42083 19.2181 2.08594 19.1786C3.97787 20.3925 6.22398 21.099 8.63707 21.099C16.5003 21.099 20.7989 14.5864 20.7989 8.93812C20.7989 8.75462 20.7943 8.56928 20.786 8.38577C21.621 7.78204 22.3458 7.03059 22.9174 6.17454L22.9193 6.17179Z" fill="#00ACEE"/>
</svg>
