<svg width="74" height="74" viewBox="0 0 74 74" fill="none" xmlns="http://www.w3.org/2000/svg">
<mask id="mask0_116_13589" style="mask-type:alpha" maskUnits="userSpaceOnUse" x="0" y="0" width="74" height="74">
<rect width="74" height="74" fill="#D9D9D9"/>
</mask>
<g mask="url(#mask0_116_13589)">
</g>
<rect x="6.87939" y="9.43103" width="60.7743" height="55.1379" rx="7.5" fill="white"/>
<g clip-path="url(#clip0_116_13589)">
<path d="M49.2666 29.5585C48.3741 29.95 47.4231 30.2095 46.4316 30.3355C47.4516 29.7265 48.2301 28.7695 48.5961 27.616C47.6451 28.183 46.5951 28.5835 45.4761 28.807C44.5731 27.8455 43.2861 27.25 41.8821 27.25C39.1581 27.25 36.9651 29.461 36.9651 32.1715C36.9651 32.5615 36.9981 32.9365 37.0791 33.2935C32.9886 33.094 29.3691 31.1335 26.9376 28.147C26.5131 28.8835 26.2641 29.7265 26.2641 30.634C26.2641 32.338 27.1416 33.8485 28.4496 34.723C27.6591 34.708 26.8836 34.4785 26.2266 34.117C26.2266 34.132 26.2266 34.1515 26.2266 34.171C26.2266 36.562 27.9321 38.548 30.1686 39.0055C29.7681 39.115 29.3316 39.1675 28.8786 39.1675C28.5636 39.1675 28.2456 39.1495 27.9471 39.0835C28.5846 41.032 30.3936 42.4645 32.5446 42.511C30.8706 43.8205 28.7451 44.6095 26.4441 44.6095C26.0406 44.6095 25.6536 44.5915 25.2666 44.542C27.4461 45.9475 30.0291 46.75 32.8146 46.75C41.8686 46.75 46.8186 39.25 46.8186 32.749C46.8186 32.5315 46.8111 32.3215 46.8006 32.113C47.7771 31.42 48.5976 30.5545 49.2666 29.5585Z" fill="#03A9F4"/>
</g>
<rect x="6.87939" y="9.43103" width="60.7743" height="55.1379" rx="7.5" stroke="#ECECEC"/>
<defs>
<clipPath id="clip0_116_13589">
<rect width="24" height="24" fill="white" transform="translate(25.2666 25)"/>
</clipPath>
</defs>
</svg>
