<svg width="60" height="60" viewBox="0 0 60 60" fill="none" xmlns="http://www.w3.org/2000/svg">
<path d="M30 60C46.5685 60 60 46.5685 60 30C60 13.4315 46.5685 0 30 0C13.4315 0 0 13.4315 0 30C0 46.5685 13.4315 60 30 60Z" fill="#F6F6F6"/>
<path d="M30.0001 31.6251C29.8376 31.6251 29.6751 31.5876 29.5251 31.5001L18.4876 25.1126C18.0501 24.8501 17.8876 24.2751 18.1501 23.8251C18.4126 23.3751 18.9876 23.2251 19.4376 23.4876L30.0001 29.6001L40.5001 23.5251C40.9501 23.2626 41.5251 23.4251 41.7876 23.8626C42.0501 24.3126 41.8876 24.8876 41.4501 25.1501L30.4876 31.5001C30.3251 31.5751 30.1626 31.6251 30.0001 31.6251Z" fill="#1E2329"/>
<path d="M30 42.9498C29.4875 42.9498 29.0625 42.5248 29.0625 42.0123V30.6748C29.0625 30.1623 29.4875 29.7373 30 29.7373C30.5125 29.7373 30.9375 30.1623 30.9375 30.6748V42.0123C30.9375 42.5248 30.5125 42.9498 30 42.9498Z" fill="#1E2329"/>
<path d="M30 43.4375C28.9 43.4375 27.8125 43.2 26.95 42.725L20.275 39.0125C18.4625 38.0125 17.05 35.6 17.05 33.525V26.4625C17.05 24.3875 18.4625 21.9875 20.275 20.975L26.95 17.275C28.6625 16.325 31.3375 16.325 33.05 17.275L39.725 20.9875C41.5375 21.9875 42.9501 24.4 42.9501 26.475V33.5375C42.9501 35.6125 41.5375 38.0125 39.725 39.025L33.05 42.725C32.1875 43.2 31.1 43.4375 30 43.4375ZM30 18.4375C29.2125 18.4375 28.4375 18.6 27.8625 18.9125L21.1875 22.625C19.9875 23.2875 18.925 25.0875 18.925 26.4625V33.525C18.925 34.9 19.9875 36.7 21.1875 37.375L27.8625 41.0875C29 41.725 31 41.725 32.1375 41.0875L38.8125 37.375C40.0125 36.7 41.0751 34.9125 41.0751 33.525V26.4625C41.0751 25.0875 40.0125 23.2875 38.8125 22.6125L32.1375 18.9C31.5625 18.6 30.7875 18.4375 30 18.4375Z" fill="#1E2329"/>
</svg>
