<svg width="60" height="60" viewBox="0 0 60 60" fill="none" xmlns="http://www.w3.org/2000/svg">
<path d="M30 60C46.5685 60 60 46.5685 60 30C60 13.4315 46.5685 0 30 0C13.4315 0 0 13.4315 0 30C0 46.5685 13.4315 60 30 60Z" fill="#F6F6F6"/>
<path d="M19.9861 33.3255L18.0861 31.4255C17.3111 30.6505 17.3111 29.3755 18.0861 28.6005L19.9861 26.7005C20.3111 26.3755 20.5736 25.738 20.5736 25.288V22.6004C20.5736 21.5004 21.4736 20.6005 22.5736 20.6005H25.2611C25.7111 20.6005 26.3486 20.338 26.6736 20.013L28.5736 18.113C29.3486 17.338 30.6236 17.338 31.3986 18.113L33.2986 20.013C33.6236 20.338 34.2611 20.6005 34.7111 20.6005H37.3986C38.4986 20.6005 39.3986 21.5004 39.3986 22.6004V25.288C39.3986 25.738 39.6611 26.3755 39.9861 26.7005L41.8861 28.6005C42.6611 29.3755 42.6611 30.6505 41.8861 31.4255L39.9861 33.3255C39.6611 33.6505 39.3986 34.288 39.3986 34.738V37.4254C39.3986 38.5254 38.4986 39.4255 37.3986 39.4255H34.7111C34.2611 39.4255 33.6236 39.688 33.2986 40.013L31.3986 41.913C30.6236 42.688 29.3486 42.688 28.5736 41.913L26.6736 40.013C26.3486 39.688 25.7111 39.4255 25.2611 39.4255H22.5736C21.4736 39.4255 20.5736 38.5254 20.5736 37.4254V34.738C20.5736 34.2755 20.3111 33.638 19.9861 33.3255Z" stroke="#081131" stroke-width="2" stroke-linecap="round" stroke-linejoin="round"/>
<path d="M26.25 33.75L33.75 26.25" stroke="#081131" stroke-width="1.5" stroke-linecap="round" stroke-linejoin="round"/>
<path d="M33.1181 33.125H33.1294" stroke="#081131" stroke-width="2" stroke-linecap="round" stroke-linejoin="round"/>
<path d="M26.8681 26.875H26.8794" stroke="#081131" stroke-width="2" stroke-linecap="round" stroke-linejoin="round"/>
</svg>
