<svg width="60" height="60" viewBox="0 0 60 60" fill="none" xmlns="http://www.w3.org/2000/svg">
<path d="M30 60C46.5685 60 60 46.5685 60 30C60 13.4315 46.5685 0 30 0C13.4315 0 0 13.4315 0 30C0 46.5685 13.4315 60 30 60Z" fill="#F6F6F6"/>
<path d="M19.9124 35.7874C19.6749 35.7874 19.4374 35.6999 19.2499 35.5124C18.8874 35.1499 18.8874 34.5499 19.2499 34.1874L34.1874 19.2499C34.5499 18.8874 35.1499 18.8874 35.5124 19.2499C35.8749 19.6124 35.8749 20.2124 35.5124 20.5749L20.5749 35.5249C20.3999 35.6999 20.1499 35.7874 19.9124 35.7874Z" fill="#081131"/>
<path d="M28.875 38.7874C28.6375 38.7874 28.4 38.6999 28.2125 38.5124C27.85 38.1499 27.85 37.5499 28.2125 37.1874L29.7125 35.6874C30.075 35.3249 30.675 35.3249 31.0375 35.6874C31.4 36.0499 31.4 36.6499 31.0375 37.0124L29.5375 38.5124C29.3625 38.6874 29.125 38.7874 28.875 38.7874Z" fill="#081131"/>
<path d="M32.2376 35.4248C32.0001 35.4248 31.7626 35.3373 31.5751 35.1498C31.2126 34.7873 31.2126 34.1873 31.5751 33.8248L34.5626 30.8373C34.9251 30.4748 35.5251 30.4748 35.8876 30.8373C36.2501 31.1998 36.2501 31.7998 35.8876 32.1623L32.9001 35.1498C32.7251 35.3248 32.4751 35.4248 32.2376 35.4248Z" fill="#081131"/>
<path d="M28.8749 43.4376C27.6499 43.4376 26.4249 42.6876 24.9374 41.2001L18.7999 35.0626C15.8124 32.0751 15.8249 30.1501 18.8374 27.1376L27.1374 18.8376C30.1499 15.8251 32.0749 15.8126 35.0624 18.8001L41.1999 24.9376C44.1874 27.9251 44.1749 29.8501 41.1624 32.8626L32.8624 41.1626C31.3499 42.6751 30.1124 43.4376 28.8749 43.4376ZM31.1249 18.4376C30.4749 18.4376 29.6499 18.9751 28.4624 20.1626L20.1624 28.4626C18.9749 29.6501 18.4374 30.4751 18.4374 31.1126C18.4374 31.7626 18.9374 32.5501 20.1249 33.7376L26.2624 39.8751C27.4499 41.0626 28.2249 41.5626 28.8749 41.5626C28.8749 41.5626 28.8749 41.5626 28.8874 41.5626C29.5374 41.5626 30.3499 41.0251 31.5374 39.8376L39.8374 31.5376C41.0249 30.3501 41.5624 29.5251 41.5624 28.8876C41.5624 28.2376 41.0624 27.4501 39.8749 26.2626L33.7374 20.1251C32.5624 18.9376 31.7749 18.4376 31.1249 18.4376Z" fill="#081131"/>
<path d="M42.5 43.4375H17.5C16.9875 43.4375 16.5625 43.0125 16.5625 42.5C16.5625 41.9875 16.9875 41.5625 17.5 41.5625H42.5C43.0125 41.5625 43.4375 41.9875 43.4375 42.5C43.4375 43.0125 43.0125 43.4375 42.5 43.4375Z" fill="#081131"/>
</svg>
