<svg width="60" height="60" viewBox="0 0 60 60" fill="none" xmlns="http://www.w3.org/2000/svg">
<path d="M30 60C46.5685 60 60 46.5685 60 30C60 13.4315 46.5685 0 30 0C13.4315 0 0 13.4315 0 30C0 46.5685 13.4315 60 30 60Z" fill="#F6F6F6"/>
<path d="M41.25 43.4375H18.75C18.2375 43.4375 17.8125 43.0125 17.8125 42.5C17.8125 41.9875 18.2375 41.5625 18.75 41.5625H41.25C41.7625 41.5625 42.1875 41.9875 42.1875 42.5C42.1875 43.0125 41.7625 43.4375 41.25 43.4375Z" fill="#081131"/>
<path d="M22 39.6876H20C18.8 39.6876 17.8125 38.7001 17.8125 37.5001V26.7251C17.8125 25.5251 18.8 24.5376 20 24.5376H22C23.2 24.5376 24.1875 25.5251 24.1875 26.7251V37.5001C24.1875 38.7001 23.2 39.6876 22 39.6876ZM20 26.4001C19.825 26.4001 19.6875 26.5376 19.6875 26.7126V37.5001C19.6875 37.6751 19.825 37.8126 20 37.8126H22C22.175 37.8126 22.3125 37.6751 22.3125 37.5001V26.7251C22.3125 26.5501 22.175 26.4126 22 26.4126H20V26.4001Z" fill="#081131"/>
<path d="M31.0002 39.6873H29.0002C27.8002 39.6873 26.8127 38.6998 26.8127 37.4998V22.7373C26.8127 21.5373 27.8002 20.5498 29.0002 20.5498H31.0002C32.2002 20.5498 33.1877 21.5373 33.1877 22.7373V37.4998C33.1877 38.6998 32.2002 39.6873 31.0002 39.6873ZM29.0002 22.4248C28.8252 22.4248 28.6877 22.5623 28.6877 22.7373V37.4998C28.6877 37.6748 28.8252 37.8123 29.0002 37.8123H31.0002C31.1752 37.8123 31.3127 37.6748 31.3127 37.4998V22.7373C31.3127 22.5623 31.1752 22.4248 31.0002 22.4248H29.0002Z" fill="#081131"/>
<path d="M40 39.6875H38C36.8 39.6875 35.8125 38.7 35.8125 37.5V18.75C35.8125 17.55 36.8 16.5625 38 16.5625H40C41.2 16.5625 42.1875 17.55 42.1875 18.75V37.5C42.1875 38.7 41.2 39.6875 40 39.6875ZM38 18.4375C37.825 18.4375 37.6875 18.575 37.6875 18.75V37.5C37.6875 37.675 37.825 37.8125 38 37.8125H40C40.175 37.8125 40.3125 37.675 40.3125 37.5V18.75C40.3125 18.575 40.175 18.4375 40 18.4375H38Z" fill="#081131"/>
</svg>
