<svg width="60" height="60" viewBox="0 0 60 60" fill="none" xmlns="http://www.w3.org/2000/svg">
<path d="M30 60C46.5685 60 60 46.5685 60 30C60 13.4315 46.5685 0 30 0C13.4315 0 0 13.4315 0 30C0 46.5685 13.4315 60 30 60Z" fill="#F6F6F6"/>
<path d="M35 35.9375H25C24.4875 35.9375 24.0625 35.5125 24.0625 35V25C24.0625 24.4875 24.4875 24.0625 25 24.0625H35C35.5125 24.0625 35.9375 24.4875 35.9375 25V35C35.9375 35.5125 35.5125 35.9375 35 35.9375ZM25.9375 34.0625H34.0625V25.9375H25.9375V34.0625Z" fill="#081131"/>
<path d="M21.25 43.4375C18.6625 43.4375 16.5625 41.3375 16.5625 38.75C16.5625 36.1625 18.6625 34.0625 21.25 34.0625H25C25.5125 34.0625 25.9375 34.4875 25.9375 35V38.75C25.9375 41.3375 23.8375 43.4375 21.25 43.4375ZM21.25 35.9375C19.7 35.9375 18.4375 37.2 18.4375 38.75C18.4375 40.3 19.7 41.5625 21.25 41.5625C22.8 41.5625 24.0625 40.3 24.0625 38.75V35.9375H21.25Z" fill="#081131"/>
<path d="M25 25.9375H21.25C18.6625 25.9375 16.5625 23.8375 16.5625 21.25C16.5625 18.6625 18.6625 16.5625 21.25 16.5625C23.8375 16.5625 25.9375 18.6625 25.9375 21.25V25C25.9375 25.5125 25.5125 25.9375 25 25.9375ZM21.25 18.4375C19.7 18.4375 18.4375 19.7 18.4375 21.25C18.4375 22.8 19.7 24.0625 21.25 24.0625H24.0625V21.25C24.0625 19.7 22.8 18.4375 21.25 18.4375Z" fill="#081131"/>
<path d="M38.75 25.9375H35C34.4875 25.9375 34.0625 25.5125 34.0625 25V21.25C34.0625 18.6625 36.1625 16.5625 38.75 16.5625C41.3375 16.5625 43.4375 18.6625 43.4375 21.25C43.4375 23.8375 41.3375 25.9375 38.75 25.9375ZM35.9375 24.0625H38.75C40.3 24.0625 41.5625 22.8 41.5625 21.25C41.5625 19.7 40.3 18.4375 38.75 18.4375C37.2 18.4375 35.9375 19.7 35.9375 21.25V24.0625Z" fill="#081131"/>
<path d="M38.75 43.4375C36.1625 43.4375 34.0625 41.3375 34.0625 38.75V35C34.0625 34.4875 34.4875 34.0625 35 34.0625H38.75C41.3375 34.0625 43.4375 36.1625 43.4375 38.75C43.4375 41.3375 41.3375 43.4375 38.75 43.4375ZM35.9375 35.9375V38.75C35.9375 40.3 37.2 41.5625 38.75 41.5625C40.3 41.5625 41.5625 40.3 41.5625 38.75C41.5625 37.2 40.3 35.9375 38.75 35.9375H35.9375Z" fill="#081131"/>
</svg>
