<svg width="13" height="12" viewBox="0 0 13 12" fill="none" xmlns="http://www.w3.org/2000/svg">
<path fill-rule="evenodd" clip-rule="evenodd" d="M6.00547 0C2.69045 0 0 2.69141 0 6.00547C0 8.0358 1.00892 9.83168 2.55305 10.9184C2.87782 11.1481 3.32751 11.0693 3.55716 10.7445C3.78585 10.4188 3.70802 9.96908 3.38228 9.74039C2.20905 8.91404 1.44131 7.54864 1.44131 6.00547C1.44131 3.48606 3.48606 1.44131 6.00547 1.44131C6.40327 1.44131 6.72613 1.11846 6.72613 0.720656C6.72613 0.322854 6.40327 0 6.00547 0Z" fill="#6978A0"/>
<path fill-rule="evenodd" clip-rule="evenodd" d="M6.39141 11.9985C9.52579 11.7987 12.0106 9.18988 12.0106 6.00554C12.0106 4.17603 11.19 2.53582 9.89765 1.43369C9.59497 1.17618 9.13952 1.21173 8.882 1.51441C8.62353 1.81708 8.66004 2.27254 8.96271 2.53101C9.94569 3.36793 10.5693 4.61419 10.5693 6.00554C10.5693 8.42598 8.68118 10.4083 6.29917 10.5601C5.90233 10.586 5.60061 10.9281 5.62656 11.3249C5.65154 11.7227 5.99457 12.0245 6.39141 11.9985Z" fill="#6978A0"/>
<path fill-rule="evenodd" clip-rule="evenodd" d="M11.606 0.960938H8.88863C8.49082 0.960938 8.16797 1.28379 8.16797 1.68159V4.39895C8.16797 4.79675 8.49082 5.11961 8.88863 5.11961C9.28643 5.11961 9.60928 4.79675 9.60928 4.39895V2.40225H11.606C12.0038 2.40225 12.3266 2.0794 12.3266 1.68159C12.3266 1.28379 12.0038 0.960938 11.606 0.960938Z" fill="#6978A0"/>
<path fill-rule="evenodd" clip-rule="evenodd" d="M0.720657 11.5303H3.43801C3.83581 11.5303 4.15867 11.2074 4.15867 10.8096V8.09224C4.15867 7.69444 3.83581 7.37158 3.43801 7.37158C3.04021 7.37158 2.71736 7.69444 2.71736 8.09224V10.0889H0.720657C0.322854 10.0889 0 10.4118 0 10.8096C0 11.2074 0.322854 11.5303 0.720657 11.5303Z" fill="#6978A0"/>
</svg>
