<svg width="20" height="20" viewBox="0 0 20 20" fill="none" xmlns="http://www.w3.org/2000/svg">
<path opacity="0.4" d="M9.82435 11.8417L7.09935 14.5667C6.79935 14.3 6.50768 14.025 6.22435 13.7417C5.36602 12.875 4.59102 11.9667 3.89935 11.0167C3.21602 10.0667 2.66602 9.11667 2.26602 8.17501C1.86602 7.22501 1.66602 6.31667 1.66602 5.45001C1.66602 4.88334 1.76602 4.34167 1.96602 3.84167C2.16602 3.33334 2.48268 2.86667 2.92435 2.45001C3.45768 1.92501 4.04102 1.66667 4.65768 1.66667C4.89102 1.66667 5.12435 1.71667 5.33268 1.81667C5.54935 1.91667 5.74102 2.06667 5.89102 2.28334L7.82435 5.00834C7.97435 5.21667 8.08268 5.40834 8.15768 5.59167C8.23268 5.76667 8.27435 5.94167 8.27435 6.10001C8.27435 6.3 8.21602 6.5 8.09935 6.69167C7.99102 6.88334 7.83268 7.08334 7.63268 7.28334L6.99935 7.94167C6.90768 8.03334 6.86602 8.14167 6.86602 8.27501C6.86602 8.34167 6.87435 8.4 6.89102 8.46667C6.91602 8.53334 6.94102 8.58334 6.95768 8.63334C7.10768 8.90834 7.36602 9.26667 7.73268 9.70001C8.10768 10.1333 8.50768 10.575 8.94102 11.0167C9.24101 11.3083 9.53268 11.5917 9.82435 11.8417Z" fill="#FFA500"/>
<path d="M18.3083 15.275C18.3083 15.5083 18.2667 15.75 18.1833 15.9833C18.1583 16.05 18.1333 16.1167 18.1 16.1833C17.9583 16.4833 17.775 16.7667 17.5333 17.0333C17.125 17.4833 16.675 17.8083 16.1667 18.0167C16.1583 18.0167 16.15 18.025 16.1417 18.025C15.65 18.225 15.1167 18.3333 14.5417 18.3333C13.6917 18.3333 12.7833 18.1333 11.825 17.725C10.8667 17.3167 9.90833 16.7667 8.95833 16.075C8.63333 15.8333 8.30833 15.5917 8 15.3333L10.725 12.6083C10.9583 12.7833 11.1667 12.9167 11.3417 13.0083C11.3833 13.025 11.4333 13.05 11.4917 13.075C11.5583 13.1 11.625 13.1083 11.7 13.1083C11.8417 13.1083 11.95 13.0583 12.0417 12.9667L12.675 12.3417C12.8833 12.1333 13.0833 11.975 13.275 11.875C13.4667 11.7583 13.6583 11.7 13.8667 11.7C14.025 11.7 14.1917 11.7333 14.375 11.8083C14.5583 11.8833 14.75 11.9917 14.9583 12.1333L17.7167 14.0917C17.9333 14.2417 18.0833 14.4167 18.175 14.625C18.2583 14.8333 18.3083 15.0417 18.3083 15.275Z" fill="#FFA500"/>
</svg>
