<svg width="50" height="50" viewBox="0 0 50 50" fill="none" xmlns="http://www.w3.org/2000/svg">
<path d="M40.625 50H9.375C4.19688 50 0 45.8031 0 40.625V9.375C0 4.19688 4.19688 0 9.375 0H40.625C45.8031 0 50 4.19688 50 9.375V40.625C50 45.8031 45.8031 50 40.625 50Z" fill="#FFA500" fill-opacity="0.15"/>
<path d="M25.7536 30.325V29.75C25.7536 28.475 26.7036 27.725 27.9286 26.85C29.3786 25.825 31.1036 24.55 31.1036 21.875C31.1036 18.55 28.8536 16.4 25.1286 16.4C21.5036 16.4 18.8786 18.925 18.8786 22.5H22.0536C22.0536 20.575 23.2786 19.25 25.0536 19.25C26.8036 19.25 27.8536 20.375 27.8536 22.075C27.8536 23.525 26.8286 24.375 25.7036 25.275C24.3786 26.3 22.9786 27.475 22.9786 29.75V30.325H25.7536ZM24.4786 35.325C25.5786 35.325 26.5036 34.4 26.5036 33.35C26.5036 32.25 25.5786 31.35 24.4786 31.35C23.3536 31.35 22.4536 32.25 22.4536 33.35C22.4536 34.425 23.3536 35.325 24.4786 35.325Z" fill="#FFA500"/>
</svg>
