<svg width="50" height="50" viewBox="0 0 50 50" fill="none" xmlns="http://www.w3.org/2000/svg">
<circle cx="25" cy="25" r="25" fill="#FFA500" fill-opacity="0.08"/>
<path opacity="0.4" d="M32.9364 34.6C32.2489 36.3625 30.5739 37.5 28.6864 37.5H21.3114C19.4114 37.5 17.7489 36.3625 17.0614 34.6C16.3739 32.825 16.8489 30.8625 18.2489 29.5875L23.3114 25H26.6989L31.7489 29.5875C33.1489 30.8625 33.6114 32.825 32.9364 34.6Z" fill="#FFA500"/>
<path d="M27.275 32.6751H22.725C22.25 32.6751 21.875 32.2876 21.875 31.8251C21.875 31.3501 22.2625 30.9751 22.725 30.9751H27.275C27.75 30.9751 28.125 31.3626 28.125 31.8251C28.125 32.2876 27.7375 32.6751 27.275 32.6751Z" fill="#FFA500"/>
<path d="M32.9383 15.4C32.2508 13.6375 30.5758 12.5 28.6883 12.5H21.3133C19.4258 12.5 17.7508 13.6375 17.0633 15.4C16.3883 17.175 16.8508 19.1375 18.2633 20.4125L23.3133 25H26.7008L31.7508 20.4125C33.1508 19.1375 33.6133 17.175 32.9383 15.4ZM27.2758 19.0375H22.7258C22.2508 19.0375 21.8758 18.65 21.8758 18.1875C21.8758 17.725 22.2633 17.3375 22.7258 17.3375H27.2758C27.7508 17.3375 28.1258 17.725 28.1258 18.1875C28.1258 18.65 27.7383 19.0375 27.2758 19.0375Z" fill="#FFA500"/>
</svg>
