<svg width="30" height="30" viewBox="0 0 30 30" fill="none" xmlns="http://www.w3.org/2000/svg">
<path opacity="0.4" d="M24.7407 5.27539C21.0407 1.58789 15.0407 1.58789 11.3657 5.27539C8.77823 7.83789 8.00323 11.5254 9.00323 14.7754L3.12823 20.6504C2.71573 21.0754 2.42823 21.9129 2.51573 22.5129L2.89073 25.2379C3.02823 26.1379 3.86573 26.9879 4.76573 27.1129L7.49073 27.4879C8.09073 27.5754 8.92823 27.3004 9.35323 26.8629L10.3782 25.8379C10.6282 25.6004 10.6282 25.2004 10.3782 24.9504L7.95323 22.5254C7.59073 22.1629 7.59073 21.5629 7.95323 21.2004C8.31573 20.8379 8.91573 20.8379 9.27823 21.2004L11.7157 23.6379C11.9532 23.8754 12.3532 23.8754 12.5907 23.6379L15.2407 21.0004C18.4782 22.0129 22.1657 21.2254 24.7407 18.6629C28.4282 14.9754 28.4282 8.96289 24.7407 5.27539ZM18.1282 15.0004C16.4032 15.0004 15.0032 13.6004 15.0032 11.8754C15.0032 10.1504 16.4032 8.75039 18.1282 8.75039C19.8532 8.75039 21.2532 10.1504 21.2532 11.8754C21.2532 13.6004 19.8532 15.0004 18.1282 15.0004Z" fill="#FFA500"/>
<path d="M18.125 15C19.8509 15 21.25 13.6009 21.25 11.875C21.25 10.1491 19.8509 8.75 18.125 8.75C16.3991 8.75 15 10.1491 15 11.875C15 13.6009 16.3991 15 18.125 15Z" fill="#FFA500"/>
</svg>
