<svg width="16" height="18" viewBox="0 0 16 18" fill="none" xmlns="http://www.w3.org/2000/svg">
<path d="M12.9358 1.60518L8.237 0.0384306C8.08316 -0.0128102 7.91685 -0.0128102 7.763 0.0384306L3.0635 1.60518C2.31657 1.85347 1.66687 2.33081 1.20668 2.96939C0.746494 3.60796 0.499227 4.37531 0.500002 5.16243V9.00018C0.500002 14.6724 7.4 17.8052 7.6955 17.9357C7.79137 17.9783 7.8951 18.0003 8 18.0003C8.1049 18.0003 8.20864 17.9783 8.3045 17.9357C8.6 17.8052 15.5 14.6724 15.5 9.00018V5.16243C15.5007 4.37522 15.2533 3.6078 14.793 2.96921C14.3327 2.33062 13.6828 1.85334 12.9358 1.60518ZM8 14.2502C7.85167 14.2502 7.70666 14.2062 7.58332 14.1238C7.45999 14.0414 7.36386 13.9242 7.30709 13.7872C7.25033 13.6501 7.23547 13.4993 7.26441 13.3539C7.29335 13.2084 7.36478 13.0747 7.46967 12.9698C7.57456 12.865 7.7082 12.7935 7.85368 12.7646C7.99917 12.7357 8.14997 12.7505 8.28701 12.8073C8.42406 12.864 8.54119 12.9602 8.6236 13.0835C8.70601 13.2068 8.75 13.3518 8.75 13.5002C8.75 13.6991 8.67098 13.8899 8.53033 14.0305C8.38968 14.1712 8.19891 14.2502 8 14.2502ZM8.75 10.5002C8.75 10.6991 8.67098 10.8899 8.53033 11.0305C8.38968 11.1712 8.19891 11.2502 8 11.2502C7.80109 11.2502 7.61032 11.1712 7.46967 11.0305C7.32902 10.8899 7.25 10.6991 7.25 10.5002V4.50018C7.25 4.30127 7.32902 4.1105 7.46967 3.96985C7.61032 3.8292 7.80109 3.75018 8 3.75018C8.19891 3.75018 8.38968 3.8292 8.53033 3.96985C8.67098 4.1105 8.75 4.30127 8.75 4.50018V10.5002Z" fill="#AFAFAF"/>
</svg>
