<svg width="7" height="10" viewBox="0 0 7 10" fill="none" xmlns="http://www.w3.org/2000/svg">
<path fill-rule="evenodd" clip-rule="evenodd" d="M0.148096 2.67618C-0.0493653 2.87365 -0.0493653 3.19378 0.148096 3.39124C0.345557 3.58869 0.665692 3.58869 0.863153 3.39124L3.03372 1.22067L5.20428 3.39124C5.40175 3.58869 5.72188 3.58869 5.91935 3.39124C6.11677 3.19378 6.11677 2.87365 5.91935 2.67618L3.39125 0.14809C3.29642 0.0532699 3.16781 0 3.03372 0C2.89962 0 2.77101 0.0532699 2.67619 0.14809L0.148096 2.67618ZM5.91935 7.32383C6.11677 7.12637 6.11677 6.80624 5.91935 6.60878C5.72188 6.41133 5.40175 6.41133 5.20428 6.60878L3.03372 8.77935L0.863153 6.60878C0.665692 6.41133 0.345557 6.41133 0.148096 6.60878C-0.0493653 6.80624 -0.0493653 7.12637 0.148096 7.32383L2.67619 9.85194C2.87365 10.0494 3.19379 10.0494 3.39125 9.85194L5.91935 7.32383Z" fill="black"/>
</svg>
