<svg width="94" height="85" viewBox="0 0 94 85" fill="none" xmlns="http://www.w3.org/2000/svg">
<rect width="94" height="68" rx="11" fill="#F5F7FA"/>
<g filter="url(#filter0_d_2876_39550)">
<path d="M74.2924 58.245H23.7076C20.5902 58.245 18 55.7266 18 52.5373V19.4628C18 16.3453 20.5184 13.7551 23.7076 13.7551H74.2924C77.4098 13.7551 80 16.2735 80 19.4628V52.5375C80 55.6548 77.4816 58.245 74.2924 58.245Z" fill="white"/>
<path d="M74.2924 13.7551H49V58.245H74.2924C77.4816 58.245 80 55.6548 80 52.5373V19.4628C80 16.2734 77.4098 13.7551 74.2924 13.7551Z" fill="white"/>
<path d="M37.3267 39.0476C34.6448 39.0476 32.4629 36.8657 32.4629 34.1837C32.4629 31.5017 34.6448 29.3197 37.3267 29.3197C40.0087 29.3197 42.1907 31.5017 42.1907 34.1837C42.1907 36.8657 40.0087 39.0476 37.3267 39.0476Z" fill="#F2BD96"/>
<path d="M45.1095 50.4628H29.5449C28.5418 50.4628 27.7285 49.6495 27.7285 48.6463C27.7285 43.3536 32.0345 39.0476 37.3273 39.0476C42.62 39.0476 46.926 43.3536 46.926 48.6463C46.9259 49.6495 46.1126 50.4628 45.1095 50.4628Z" fill="#9CBED6"/>
<path d="M68.455 34.8981H54.8359C53.8328 34.8981 53.0195 34.0848 53.0195 33.0817C53.0195 32.0785 53.8328 31.2653 54.8359 31.2653H68.455C69.4581 31.2653 70.2714 32.0785 70.2714 33.0817C70.2714 34.0848 69.4581 34.8981 68.455 34.8981Z" fill="#E9EDF2"/>
<path d="M68.4565 25.1702H29.5449C28.5418 25.1702 27.7285 24.3569 27.7285 23.3538C27.7285 22.3506 28.5418 21.5374 29.5449 21.5374H68.4565C69.4596 21.5374 70.2729 22.3506 70.2729 23.3538C70.2729 24.3569 69.4596 25.1702 68.4565 25.1702Z" fill="#E9EDF2"/>
<path d="M68.455 42.6804H54.8359C53.8328 42.6804 53.0195 41.8672 53.0195 40.864C53.0195 39.8609 53.8328 39.0476 54.8359 39.0476H68.455C69.4581 39.0476 70.2714 39.8609 70.2714 40.864C70.2714 41.8672 69.4581 42.6804 68.455 42.6804Z" fill="#E9EDF2"/>
<path d="M64.5638 50.4628H54.8359C53.8328 50.4628 53.0195 49.6495 53.0195 48.6464C53.0195 47.6432 53.8328 46.83 54.8359 46.83H64.5638C65.5669 46.83 66.3802 47.6432 66.3802 48.6464C66.3802 49.6495 65.5669 50.4628 64.5638 50.4628Z" fill="#E9EDF2"/>
<path d="M70.2722 23.3538C70.2722 22.3506 69.4589 21.5374 68.4558 21.5374H49V25.1702H68.4558C69.4589 25.1702 70.2722 24.357 70.2722 23.3538Z" fill="#E9EDF2"/>
</g>
<path d="M46.9993 66.6666C42.4077 66.6666 38.666 70.4083 38.666 75C38.666 79.5916 42.4077 83.3333 46.9993 83.3333C51.591 83.3333 55.3327 79.5916 55.3327 75C55.3327 70.4083 51.591 66.6666 46.9993 66.6666ZM50.9827 73.0833L46.2577 77.8083C46.141 77.925 45.9827 77.9916 45.816 77.9916C45.6493 77.9916 45.491 77.925 45.3743 77.8083L43.016 75.45C42.7743 75.2083 42.7743 74.8083 43.016 74.5666C43.2577 74.325 43.6577 74.325 43.8993 74.5666L45.816 76.4833L50.0993 72.2C50.341 71.9583 50.741 71.9583 50.9827 72.2C51.2243 72.4416 51.2243 72.8333 50.9827 73.0833Z" fill="#20B26C"/>
<defs>
<filter id="filter0_d_2876_39550" x="12" y="7.75513" width="74" height="56.4899" filterUnits="userSpaceOnUse" color-interpolation-filters="sRGB">
<feFlood flood-opacity="0" result="BackgroundImageFix"/>
<feColorMatrix in="SourceAlpha" type="matrix" values="0 0 0 0 0 0 0 0 0 0 0 0 0 0 0 0 0 0 127 0" result="hardAlpha"/>
<feOffset/>
<feGaussianBlur stdDeviation="3"/>
<feComposite in2="hardAlpha" operator="out"/>
<feColorMatrix type="matrix" values="0 0 0 0 0 0 0 0 0 0 0 0 0 0 0 0 0 0 0.03 0"/>
<feBlend mode="normal" in2="BackgroundImageFix" result="effect1_dropShadow_2876_39550"/>
<feBlend mode="normal" in="SourceGraphic" in2="effect1_dropShadow_2876_39550" result="shape"/>
</filter>
</defs>
</svg>
