<svg width="74" height="74" viewBox="0 0 74 74" fill="none" xmlns="http://www.w3.org/2000/svg">
<path d="M46.7058 26.3515C46.6858 26.2874 46.6502 26.2173 46.6132 26.1613C46.1298 25.4316 45.3565 24.9281 44.4898 24.7807C43.661 24.6421 42.8047 24.8337 42.1204 25.3129L41.7816 23.9492C43.5053 22.6644 45.9096 22.6835 47.6118 24.0089L55.3726 35.5236H49.6454L46.7058 26.3515ZM25.3882 24.0089C27.0934 22.6828 29.5014 22.6651 31.2258 23.9543L30.9085 25.332C30.2101 24.8315 29.3613 24.6355 28.5139 24.7799C27.6464 24.9274 26.8687 25.4345 26.3824 26.1702C26.3453 26.2262 26.3157 26.2874 26.2949 26.3515L23.3546 35.5236H17.6267L25.3882 24.0089ZM58 46.1354C58 46.9344 57.5908 47.5706 55.5512 48.0888L46.8637 50.8376C45.3024 51.3012 43.5772 50.7292 42.6749 49.4562L38.3653 43.1404C37.8908 42.5153 37.2125 42.1578 36.5089 42.1578C36.5044 42.1578 36.5 42.1578 36.4956 42.1578C35.7868 42.1578 35.1092 42.5153 34.6124 43.1707L30.3325 49.4459C29.4228 50.7292 27.6961 51.3034 26.1481 50.842L17.4073 48.0777C15.4092 47.5713 15 46.9344 15 46.1354V39.0818C15 37.9333 15.9979 36.9979 17.2241 36.9979H55.7759C57.0021 36.9979 58 37.9333 58 39.0818V46.1354Z" fill="#CFCFCF" fill-opacity="0.5"/>
<mask id="path-2-inside-1_2664_37674" fill="white">
<path d="M58.7981 66.8972C54.8719 69.7598 50.4204 71.821 45.6976 72.9632C40.9749 74.1054 36.0734 74.3062 31.273 73.5541C26.4727 72.802 21.8675 71.1118 17.7203 68.58C13.5732 66.0481 9.96534 62.7242 7.10278 58.7981C4.24021 54.8719 2.17899 50.4204 1.03681 45.6976C-0.105382 40.9749 -0.306171 36.0734 0.445904 31.273C1.19798 26.4727 2.88819 21.8675 5.42003 17.7203C7.95188 13.5732 11.2758 9.96534 15.2019 7.10278L37 37L58.7981 66.8972Z"/>
</mask>
<path d="M58.7981 66.8972C54.8719 69.7598 50.4204 71.821 45.6976 72.9632C40.9749 74.1054 36.0734 74.3062 31.273 73.5541C26.4727 72.802 21.8675 71.1118 17.7203 68.58C13.5732 66.0481 9.96534 62.7242 7.10278 58.7981C4.24021 54.8719 2.17899 50.4204 1.03681 45.6976C-0.105382 40.9749 -0.306171 36.0734 0.445904 31.273C1.19798 26.4727 2.88819 21.8675 5.42003 17.7203C7.95188 13.5732 11.2758 9.96534 15.2019 7.10278L37 37L58.7981 66.8972Z" stroke="#FF6838" stroke-width="4" mask="url(#path-2-inside-1_2664_37674)"/>
<circle cx="37" cy="37" r="36" stroke="#FF6838" stroke-width="2" stroke-dasharray="4 4"/>
</svg>
