<svg width="18" height="18" viewBox="0 0 18 18" fill="none" xmlns="http://www.w3.org/2000/svg">
<path d="M11.4454 17.9997H6.55535C2.87285 17.9997 1.29785 16.4247 1.29785 12.7422V12.6447C1.29785 9.31471 2.61035 7.70971 5.55035 7.43221C5.85035 7.40971 6.13535 7.63471 6.16535 7.94221C6.19535 8.24971 5.97035 8.52721 5.65535 8.55721C3.30035 8.77471 2.42285 9.88471 2.42285 12.6522V12.7497C2.42285 15.8022 3.50285 16.8822 6.55535 16.8822H11.4454C14.4979 16.8822 15.5779 15.8022 15.5779 12.7497V12.6522C15.5779 9.86971 14.6854 8.75971 12.2854 8.55721C11.9779 8.52721 11.7454 8.25721 11.7754 7.94971C11.8054 7.64221 12.0679 7.40971 12.3829 7.43971C15.3679 7.69471 16.7029 9.30721 16.7029 12.6597V12.7572C16.7029 16.4247 15.1279 17.9997 11.4454 17.9997Z" fill="#292D32"/>
<path d="M8.8125 4C8.505 4 8.25 4.16551 8.25 4.36509V10.6349C8.25 10.8345 8.505 11 8.8125 11C9.12 11 9.375 10.8345 9.375 10.6349V4.36509C9.375 4.16064 9.12 4 8.8125 4Z" fill="#292D32"/>
<path d="M8.99988 2.61437C8.85738 2.61437 8.71488 2.66687 8.60238 2.77937L6.08988 5.29187C5.87238 5.50937 5.87238 5.86937 6.08988 6.08687C6.30738 6.30437 6.66738 6.30437 6.88488 6.08687L8.99988 3.97188L11.1149 6.08687C11.3324 6.30437 11.6924 6.30437 11.9099 6.08687C12.1274 5.86937 12.1274 5.50937 11.9099 5.29187L9.39738 2.77937C9.28488 2.66687 9.14238 2.61437 8.99988 2.61437Z" fill="#292D32"/>
</svg>
