<svg width="94" height="85" viewBox="0 0 94 85" fill="none" xmlns="http://www.w3.org/2000/svg">
<rect width="94" height="68" rx="11" fill="#F5F7FA"/>
<g filter="url(#filter0_df_2876_39549)">
<path d="M72.2924 56.4898H21.7076C18.5902 56.4898 16 53.9715 16 50.7822V17.7076C16 14.5902 18.5184 12 21.7076 12H72.2924C75.4098 12 78 14.5184 78 17.7076V50.7823C78 53.8996 75.4816 56.4898 72.2924 56.4898Z" fill="white"/>
<path d="M72.2924 12H47V56.4898H72.2924C75.4816 56.4898 78 53.8997 78 50.7822V17.7076C78 14.5183 75.4098 12 72.2924 12Z" fill="white"/>
<path d="M35.3267 37.2925C32.6448 37.2925 30.4629 35.1105 30.4629 32.4285C30.4629 29.7466 32.6448 27.5646 35.3267 27.5646C38.0087 27.5646 40.1907 29.7466 40.1907 32.4285C40.1907 35.1105 38.0087 37.2925 35.3267 37.2925Z" fill="#F2BD96"/>
<path d="M43.1095 48.7076H27.5449C26.5418 48.7076 25.7285 47.8944 25.7285 46.8912C25.7285 41.5985 30.0345 37.2925 35.3273 37.2925C40.62 37.2925 44.926 41.5985 44.926 46.8912C44.9259 47.8944 44.1126 48.7076 43.1095 48.7076Z" fill="#9CBED6"/>
<path d="M66.455 33.1429H52.8359C51.8328 33.1429 51.0195 32.3297 51.0195 31.3265C51.0195 30.3234 51.8328 29.5101 52.8359 29.5101H66.455C67.4581 29.5101 68.2714 30.3234 68.2714 31.3265C68.2714 32.3297 67.4581 33.1429 66.455 33.1429Z" fill="#E9EDF2"/>
<path d="M66.4565 23.415H27.5449C26.5418 23.415 25.7285 22.6018 25.7285 21.5986C25.7285 20.5955 26.5418 19.7822 27.5449 19.7822H66.4565C67.4596 19.7822 68.2729 20.5955 68.2729 21.5986C68.2729 22.6018 67.4596 23.415 66.4565 23.415Z" fill="#E9EDF2"/>
<path d="M66.455 40.9253H52.8359C51.8328 40.9253 51.0195 40.112 51.0195 39.1089C51.0195 38.1057 51.8328 37.2925 52.8359 37.2925H66.455C67.4581 37.2925 68.2714 38.1057 68.2714 39.1089C68.2714 40.112 67.4581 40.9253 66.455 40.9253Z" fill="#E9EDF2"/>
<path d="M62.5638 48.7076H52.8359C51.8328 48.7076 51.0195 47.8944 51.0195 46.8912C51.0195 45.8881 51.8328 45.0748 52.8359 45.0748H62.5638C63.5669 45.0748 64.3802 45.8881 64.3802 46.8912C64.3802 47.8944 63.5669 48.7076 62.5638 48.7076Z" fill="#E9EDF2"/>
<path d="M68.2722 21.5986C68.2722 20.5955 67.4589 19.7822 66.4558 19.7822H47V23.415H66.4558C67.4589 23.415 68.2722 22.6019 68.2722 21.5986Z" fill="#E9EDF2"/>
</g>
<path d="M46.9993 66.6666C42.4077 66.6666 38.666 70.4083 38.666 75C38.666 79.5916 42.4077 83.3333 46.9993 83.3333C51.591 83.3333 55.3327 79.5916 55.3327 75C55.3327 70.4083 51.591 66.6666 46.9993 66.6666ZM49.7993 76.9166C50.041 77.1583 50.041 77.5583 49.7993 77.8C49.6743 77.925 49.516 77.9833 49.3577 77.9833C49.1993 77.9833 49.041 77.925 48.916 77.8L46.9993 75.8833L45.0827 77.8C44.9577 77.925 44.7993 77.9833 44.641 77.9833C44.4827 77.9833 44.3243 77.925 44.1993 77.8C43.9577 77.5583 43.9577 77.1583 44.1993 76.9166L46.116 75L44.1993 73.0833C43.9577 72.8416 43.9577 72.4416 44.1993 72.2C44.441 71.9583 44.841 71.9583 45.0827 72.2L46.9993 74.1166L48.916 72.2C49.1577 71.9583 49.5577 71.9583 49.7993 72.2C50.041 72.4416 50.041 72.8416 49.7993 73.0833L47.8827 75L49.7993 76.9166Z" fill="#EF454A"/>
<defs>
<filter id="filter0_df_2876_39549" x="10" y="6" width="74" height="56.4899" filterUnits="userSpaceOnUse" color-interpolation-filters="sRGB">
<feFlood flood-opacity="0" result="BackgroundImageFix"/>
<feColorMatrix in="SourceAlpha" type="matrix" values="0 0 0 0 0 0 0 0 0 0 0 0 0 0 0 0 0 0 127 0" result="hardAlpha"/>
<feOffset/>
<feGaussianBlur stdDeviation="3"/>
<feComposite in2="hardAlpha" operator="out"/>
<feColorMatrix type="matrix" values="0 0 0 0 0 0 0 0 0 0 0 0 0 0 0 0 0 0 0.03 0"/>
<feBlend mode="normal" in2="BackgroundImageFix" result="effect1_dropShadow_2876_39549"/>
<feBlend mode="normal" in="SourceGraphic" in2="effect1_dropShadow_2876_39549" result="shape"/>
<feGaussianBlur stdDeviation="1.5" result="effect2_foregroundBlur_2876_39549"/>
</filter>
</defs>
</svg>
