<svg width="94" height="85" viewBox="0 0 94 85" fill="none" xmlns="http://www.w3.org/2000/svg">
<rect width="94" height="68" rx="11" fill="#F5F7FA"/>
<mask id="mask0_2876_39551" style="mask-type:alpha" maskUnits="userSpaceOnUse" x="0" y="0" width="94" height="68">
<rect width="94" height="68" rx="11" fill="#F5F7FA"/>
</mask>
<g mask="url(#mask0_2876_39551)">
<g filter="url(#filter0_d_2876_39551)">
<path d="M78.2244 31.875L30.4842 48.5989C27.542 49.6295 24.2649 48.1091 23.2105 45.0992L12.2757 13.8845C11.245 10.9423 12.7654 7.6652 15.7753 6.6108L63.5156 -10.1131C66.4577 -11.1437 69.7348 -9.6233 70.7892 -6.61339L81.7241 24.6014C82.7547 27.5434 81.2343 30.8206 78.2244 31.875Z" fill="white"/>
<path d="M63.5146 -10.113L39.6445 -1.7511L54.3534 40.237L78.2235 31.875C81.2334 30.8206 82.7538 27.5435 81.7231 24.6013L70.7883 -6.61336C69.7339 -9.62338 66.4568 -11.1437 63.5146 -10.113Z" fill="white"/>
<path d="M36.9901 25.9784C34.4589 26.8651 31.6784 25.5271 30.7917 22.996C29.905 20.4648 31.2428 17.6842 33.7739 16.7975C36.3051 15.9108 39.0858 17.2487 39.9725 19.7799C40.8592 22.311 39.5213 25.0917 36.9901 25.9784Z" fill="#F2BD96"/>
<path d="M48.1092 34.1788L33.4199 39.3246C32.4731 39.6562 31.4367 39.1576 31.1051 38.2108C29.3552 33.2157 31.9955 27.7283 36.9906 25.9784C41.9858 24.2286 47.4732 26.8688 49.223 31.8639C49.5546 32.8107 49.0559 33.8471 48.1092 34.1788Z" fill="#9CBED6"/>
<path d="M64.997 11.7706L52.1438 16.2732C51.1971 16.6048 50.1607 16.1062 49.829 15.1595C49.4974 14.2127 49.996 13.1763 50.9428 12.8447L63.796 8.34206C64.7427 8.01041 65.7791 8.50907 66.1108 9.4558C66.4424 10.4025 65.9438 11.4389 64.997 11.7706Z" fill="#E9EDF2"/>
<path d="M61.7813 2.58965L25.0579 15.4542C24.1112 15.7859 23.0748 15.2872 22.7431 14.3405C22.4115 13.3938 22.9101 12.3573 23.8568 12.0257L60.5803 -0.838877C61.527 -1.17053 62.5634 -0.671867 62.8951 0.274865C63.2267 1.2216 62.7281 2.258 61.7813 2.58965Z" fill="#E9EDF2"/>
<path d="M67.5713 19.1153L54.718 23.6179C53.7713 23.9496 52.7349 23.4509 52.4033 22.5042C52.0716 21.5575 52.5703 20.521 53.517 20.1894L66.3702 15.6868C67.3169 15.3551 68.3533 15.8538 68.685 16.8005C69.0166 17.7473 68.518 18.7837 67.5713 19.1153Z" fill="#E9EDF2"/>
<path d="M66.4711 27.7465L57.2903 30.9626C56.3436 31.2943 55.3072 30.7956 54.9755 29.8489C54.6439 28.9022 55.1425 27.8658 56.0893 27.5341L65.2701 24.318C66.2168 23.9863 67.2532 24.485 67.5849 25.4317C67.9165 26.3785 67.4178 27.4149 66.4711 27.7465Z" fill="#E9EDF2"/>
<path d="M62.8953 0.27496C62.5636 -0.671771 61.5272 -1.17043 60.5805 -0.838781L42.2188 5.59351L43.4198 9.02204L61.7815 2.58975C62.7282 2.2581 63.2269 1.22181 62.8953 0.27496Z" fill="#E9EDF2"/>
</g>
</g>
<path d="M46.9993 66.6666C42.4077 66.6666 38.666 70.4083 38.666 75C38.666 79.5916 42.4077 83.3333 46.9993 83.3333C51.591 83.3333 55.3327 79.5916 55.3327 75C55.3327 70.4083 51.591 66.6666 46.9993 66.6666ZM49.7993 76.9166C50.041 77.1583 50.041 77.5583 49.7993 77.8C49.6743 77.925 49.516 77.9833 49.3577 77.9833C49.1993 77.9833 49.041 77.925 48.916 77.8L46.9993 75.8833L45.0827 77.8C44.9577 77.925 44.7993 77.9833 44.641 77.9833C44.4827 77.9833 44.3243 77.925 44.1993 77.8C43.9577 77.5583 43.9577 77.1583 44.1993 76.9166L46.116 75L44.1993 73.0833C43.9577 72.8416 43.9577 72.4416 44.1993 72.2C44.441 71.9583 44.841 71.9583 45.0827 72.2L46.9993 74.1166L48.916 72.2C49.1577 71.9583 49.5577 71.9583 49.7993 72.2C50.041 72.4416 50.041 72.8416 49.7993 73.0833L47.8827 75L49.7993 76.9166Z" fill="#EF454A"/>
<defs>
<filter id="filter0_d_2876_39551" x="5.95312" y="-16.4347" width="82.0918" height="71.3552" filterUnits="userSpaceOnUse" color-interpolation-filters="sRGB">
<feFlood flood-opacity="0" result="BackgroundImageFix"/>
<feColorMatrix in="SourceAlpha" type="matrix" values="0 0 0 0 0 0 0 0 0 0 0 0 0 0 0 0 0 0 127 0" result="hardAlpha"/>
<feOffset/>
<feGaussianBlur stdDeviation="3"/>
<feComposite in2="hardAlpha" operator="out"/>
<feColorMatrix type="matrix" values="0 0 0 0 0 0 0 0 0 0 0 0 0 0 0 0 0 0 0.03 0"/>
<feBlend mode="normal" in2="BackgroundImageFix" result="effect1_dropShadow_2876_39551"/>
<feBlend mode="normal" in="SourceGraphic" in2="effect1_dropShadow_2876_39551" result="shape"/>
</filter>
</defs>
</svg>
