<svg width="74" height="74" viewBox="0 0 74 74" fill="none" xmlns="http://www.w3.org/2000/svg">
<g clip-path="url(#clip0_2680_37702)">
<path d="M37 23.1094C37.6472 23.1094 38.1719 22.5847 38.1719 21.9375V18.1719C38.1719 17.5247 37.6472 17 37 17C36.3528 17 35.8281 17.5247 35.8281 18.1719V21.9375C35.8281 22.5847 36.3528 23.1094 37 23.1094Z" fill="#CFCFCF" fill-opacity="0.5"/>
<path d="M25.5215 27.178C25.9792 27.6356 26.7211 27.6356 27.1788 27.178C27.6364 26.7203 27.6364 25.9783 27.1788 25.5207L24.5161 22.858C24.0585 22.4003 23.3165 22.4003 22.8589 22.858C22.4012 23.3156 22.4012 24.0576 22.8589 24.5152L25.5215 27.178Z" fill="#CFCFCF" fill-opacity="0.5"/>
<path d="M25.5196 46.8225L22.8569 49.4852C22.3993 49.9428 22.3993 50.6848 22.8569 51.1425C23.3146 51.6001 24.0565 51.6001 24.5142 51.1425L27.1769 48.4797C27.6346 48.0221 27.6346 47.2801 27.1769 46.8225C26.7193 46.3648 25.9772 46.3649 25.5196 46.8225Z" fill="#CFCFCF" fill-opacity="0.5"/>
<path d="M37 50.8906C36.3528 50.8906 35.8281 51.4153 35.8281 52.0625V55.8281C35.8281 56.4753 36.3528 57 37 57C37.6472 57 38.1719 56.4753 38.1719 55.8281V52.0625C38.1719 51.4153 37.6472 50.8906 37 50.8906Z" fill="#CFCFCF" fill-opacity="0.5"/>
<path d="M23.1094 37C23.1094 36.3528 22.5847 35.8281 21.9375 35.8281H18.1719C17.5247 35.8281 17 36.3528 17 37C17 37.6472 17.5247 38.1719 18.1719 38.1719H21.9375C22.5847 38.1719 23.1094 37.6472 23.1094 37Z" fill="#CFCFCF" fill-opacity="0.5"/>
<path d="M36.9994 27.0416C31.5084 27.0416 27.041 31.509 27.041 37C27.041 42.491 31.5084 46.9583 36.9994 46.9583C42.4904 46.9583 46.9577 42.491 46.9577 37C46.9577 31.509 42.4904 27.0416 36.9994 27.0416Z" fill="#CFCFCF" fill-opacity="0.5"/>
<path d="M48.479 27.1775L51.1418 24.5148C51.5994 24.0571 51.5994 23.3152 51.1418 22.8575C50.6841 22.3999 49.9421 22.3999 49.4845 22.8575L46.8218 25.5203C46.3641 25.9779 46.3641 26.7199 46.8218 27.1775C47.2794 27.6352 48.0214 27.6352 48.479 27.1775Z" fill="#CFCFCF" fill-opacity="0.5"/>
<path d="M48.479 46.822C48.0214 46.3643 47.2794 46.3643 46.8218 46.822C46.3641 47.2797 46.3641 48.0216 46.8218 48.4793L49.4845 51.142C49.9421 51.5997 50.6841 51.5997 51.1418 51.142C51.5994 50.6843 51.5994 49.9424 51.1418 49.4847L48.479 46.822Z" fill="#CFCFCF" fill-opacity="0.5"/>
<path d="M55.8281 35.8281H52.0625C51.4153 35.8281 50.8906 36.3528 50.8906 37C50.8906 37.6472 51.4153 38.1719 52.0625 38.1719H55.8281C56.4753 38.1719 57 37.6472 57 37C57 36.3528 56.4753 35.8281 55.8281 35.8281Z" fill="#CFCFCF" fill-opacity="0.5"/>
</g>
<mask id="path-10-inside-1_2680_37702" fill="white">
<path d="M58.7981 66.8972C54.8719 69.7598 50.4204 71.821 45.6976 72.9632C40.9749 74.1054 36.0734 74.3062 31.273 73.5541C26.4727 72.802 21.8675 71.1118 17.7203 68.58C13.5732 66.0481 9.96534 62.7242 7.10278 58.7981C4.24021 54.8719 2.17899 50.4204 1.03681 45.6976C-0.105382 40.9749 -0.306171 36.0734 0.445904 31.273C1.19798 26.4727 2.88819 21.8675 5.42003 17.7203C7.95188 13.5732 11.2758 9.96534 15.2019 7.10278L37 37L58.7981 66.8972Z"/>
</mask>
<path d="M58.7981 66.8972C54.8719 69.7598 50.4204 71.821 45.6976 72.9632C40.9749 74.1054 36.0734 74.3062 31.273 73.5541C26.4727 72.802 21.8675 71.1118 17.7203 68.58C13.5732 66.0481 9.96534 62.7242 7.10278 58.7981C4.24021 54.8719 2.17899 50.4204 1.03681 45.6976C-0.105382 40.9749 -0.306171 36.0734 0.445904 31.273C1.19798 26.4727 2.88819 21.8675 5.42003 17.7203C7.95188 13.5732 11.2758 9.96534 15.2019 7.10278L37 37L58.7981 66.8972Z" stroke="#FF6838" stroke-width="4" mask="url(#path-10-inside-1_2680_37702)"/>
<circle cx="37" cy="37" r="36" stroke="#FF6838" stroke-width="2" stroke-dasharray="4 4"/>
<defs>
<clipPath id="clip0_2680_37702">
<rect width="40" height="40" fill="white" transform="translate(17 17)"/>
</clipPath>
</defs>
</svg>
