<svg width="74" height="74" viewBox="0 0 74 74" fill="none" xmlns="http://www.w3.org/2000/svg">
<path d="M57.4015 38.921L52.884 31.3972L55.939 20.6885C56.0205 20.411 56.0257 20.1168 55.9542 19.8366C55.8827 19.5564 55.737 19.3007 55.5326 19.0962C55.3281 18.8917 55.0723 18.7461 54.7922 18.6746C54.512 18.603 54.2177 18.6083 53.9403 18.6897L43.2315 21.7447L35.7078 17.2272C35.4611 17.0809 35.18 17.0026 34.8932 17.0001C34.6064 16.9976 34.3241 17.071 34.0748 17.213C33.8256 17.3549 33.6184 17.5603 33.4742 17.8082C33.33 18.0562 33.2541 18.3379 33.254 18.6247V27.4485L25.9253 31.8522C25.6705 32.0028 25.4616 32.2201 25.3213 32.4807C25.181 32.7414 25.1145 33.0353 25.129 33.331C25.1474 33.6226 25.2428 33.9041 25.4055 34.1467C25.5683 34.3894 25.7925 34.5845 26.0553 34.7122L33.8553 38.466L17.4753 54.846C17.1708 55.1528 17 55.5675 17 55.9997C17 56.4319 17.1708 56.8467 17.4753 57.1535C17.7833 57.4556 18.1976 57.6248 18.629 57.6248C19.0605 57.6248 19.4747 57.4556 19.7828 57.1535L36.1628 40.7735L39.9165 48.5735C40.0442 48.8363 40.2394 49.0605 40.482 49.2232C40.7247 49.3859 41.0062 49.4814 41.2978 49.4997H41.379C41.6614 49.5013 41.9391 49.4285 42.1844 49.2888C42.4297 49.149 42.6339 48.9471 42.7765 48.7035L47.1803 41.3747H56.004C56.2909 41.3747 56.5726 41.2987 56.8205 41.1545C57.0685 41.0104 57.2738 40.8032 57.4158 40.5539C57.5577 40.3047 57.6312 40.0223 57.6287 39.7355C57.6262 39.4487 57.5478 39.1677 57.4015 38.921Z" fill="#CFCFCF" fill-opacity="0.5"/>
<mask id="path-2-inside-1_2680_37701" fill="white">
<path d="M58.7981 66.8972C54.8719 69.7598 50.4204 71.821 45.6976 72.9632C40.9749 74.1054 36.0734 74.3062 31.273 73.5541C26.4727 72.802 21.8675 71.1118 17.7203 68.58C13.5732 66.0481 9.96534 62.7242 7.10278 58.7981C4.24021 54.8719 2.17899 50.4204 1.03681 45.6976C-0.105382 40.9749 -0.306171 36.0734 0.445904 31.273C1.19798 26.4727 2.88819 21.8675 5.42003 17.7203C7.95188 13.5732 11.2758 9.96534 15.2019 7.10278L37 37L58.7981 66.8972Z"/>
</mask>
<path d="M58.7981 66.8972C54.8719 69.7598 50.4204 71.821 45.6976 72.9632C40.9749 74.1054 36.0734 74.3062 31.273 73.5541C26.4727 72.802 21.8675 71.1118 17.7203 68.58C13.5732 66.0481 9.96534 62.7242 7.10278 58.7981C4.24021 54.8719 2.17899 50.4204 1.03681 45.6976C-0.105382 40.9749 -0.306171 36.0734 0.445904 31.273C1.19798 26.4727 2.88819 21.8675 5.42003 17.7203C7.95188 13.5732 11.2758 9.96534 15.2019 7.10278L37 37L58.7981 66.8972Z" stroke="#FF6838" stroke-width="4" mask="url(#path-2-inside-1_2680_37701)"/>
<circle cx="37" cy="37" r="36" stroke="#FF6838" stroke-width="2" stroke-dasharray="4 4"/>
</svg>
