<svg width="74" height="74" viewBox="0 0 74 74" fill="none" xmlns="http://www.w3.org/2000/svg">
<path d="M27.6427 43.3676C30.8426 44.0595 34.1104 44.3877 37.384 44.3461C40.6576 44.3877 43.9254 44.0595 47.1254 43.3676C49.9415 42.6857 51.6816 41.5964 51.6816 40.3035C51.6816 27.1704 47.5504 24 43.4148 24C40.6606 24.0044 37.9995 25.4568 36.5516 26.2449C36.1885 26.4442 35.9139 26.5947 35.7855 26.639C34.9354 26.9578 33.7266 26.7719 32.4602 26.577C31.5584 26.4134 30.6447 26.3231 29.7282 26.3069C26.1549 26.3379 22.9845 28.419 23.0864 40.3035C23.0864 41.6318 24.8265 42.6901 27.6427 43.3676Z" fill="#CFCFCF" fill-opacity="0.5"/>
<path d="M57.1712 40.2857C55.7825 39.6313 54.3257 39.1323 52.8274 38.7979V40.3034C52.8274 42.8804 49.3869 44.0317 47.3678 44.5187C44.0849 45.2382 40.7302 45.5783 37.3697 45.5327C34.0033 45.5798 30.6425 45.2395 27.3538 44.5187C25.3347 44.0317 21.8721 42.8804 21.8721 40.3034C21.8721 40.2768 21.8721 40.2503 21.8721 40.2281C21.8721 39.7853 21.8721 39.2894 21.8721 38.8023C20.3768 39.1372 18.923 39.6361 17.5372 40.2901C15.9121 41.1093 15 42.1011 15 43.2347C15 45.0811 17.6567 46.6441 21.9119 47.6625C25.897 48.619 31.33 49.2123 37.3387 49.2123C43.3473 49.2123 48.8335 48.6234 52.7964 47.6802C57.0693 46.6486 59.7083 45.0855 59.7083 43.2524C59.7083 42.1011 58.8006 41.1048 57.1712 40.2857Z" fill="#CFCFCF" fill-opacity="0.5"/>
<mask id="path-3-inside-1_2664_37677" fill="white">
<path d="M58.7981 66.8972C54.8719 69.7598 50.4204 71.821 45.6976 72.9632C40.9749 74.1054 36.0734 74.3062 31.273 73.5541C26.4727 72.802 21.8675 71.1118 17.7203 68.58C13.5732 66.0481 9.96534 62.7242 7.10278 58.7981C4.24021 54.8719 2.17899 50.4204 1.03681 45.6976C-0.105382 40.9749 -0.306171 36.0734 0.445904 31.273C1.19798 26.4727 2.88819 21.8675 5.42003 17.7203C7.95188 13.5732 11.2758 9.96534 15.2019 7.10278L37 37L58.7981 66.8972Z"/>
</mask>
<path d="M58.7981 66.8972C54.8719 69.7598 50.4204 71.821 45.6976 72.9632C40.9749 74.1054 36.0734 74.3062 31.273 73.5541C26.4727 72.802 21.8675 71.1118 17.7203 68.58C13.5732 66.0481 9.96534 62.7242 7.10278 58.7981C4.24021 54.8719 2.17899 50.4204 1.03681 45.6976C-0.105382 40.9749 -0.306171 36.0734 0.445904 31.273C1.19798 26.4727 2.88819 21.8675 5.42003 17.7203C7.95188 13.5732 11.2758 9.96534 15.2019 7.10278L37 37L58.7981 66.8972Z" stroke="#FF6838" stroke-width="4" mask="url(#path-3-inside-1_2664_37677)"/>
<circle cx="37" cy="37" r="36" stroke="#FF6838" stroke-width="2" stroke-dasharray="4 4"/>
</svg>
