<svg width="20" height="20" viewBox="0 0 20 20" fill="none" xmlns="http://www.w3.org/2000/svg">
<path d="M11.2513 13.9584H8.7513C6.45964 13.9584 4.79297 12.2917 4.79297 10V5.76669C4.79297 4.54169 5.79297 3.54169 7.01797 3.54169H12.993C14.218 3.54169 15.218 4.54169 15.218 5.76669V10C15.2096 12.2917 13.543 13.9584 11.2513 13.9584V13.9584ZM7.01797 4.79169C6.48464 4.79169 6.04297 5.22502 6.04297 5.76669V10C6.04297 11.35 6.8763 12.7084 8.7513 12.7084H11.2513C13.1263 12.7084 13.9596 11.35 13.9596 10V5.76669C13.9596 5.23335 13.5263 4.79169 12.9846 4.79169H7.01797Z" fill="#71839B"/>
<path d="M7.91797 4.79169C7.5763 4.79169 7.29297 4.50835 7.29297 4.16669V1.66669C7.29297 1.32502 7.5763 1.04169 7.91797 1.04169C8.25964 1.04169 8.54297 1.32502 8.54297 1.66669V4.16669C8.54297 4.50835 8.25964 4.79169 7.91797 4.79169ZM12.0846 4.79169C11.743 4.79169 11.4596 4.50835 11.4596 4.16669V1.66669C11.4596 1.32502 11.743 1.04169 12.0846 1.04169C12.4263 1.04169 12.7096 1.32502 12.7096 1.66669V4.16669C12.7096 4.50835 12.4263 4.79169 12.0846 4.79169ZM10.0013 18.9584C9.65964 18.9584 9.3763 18.675 9.3763 18.3334V13.3334C9.3763 12.9917 9.65964 12.7084 10.0013 12.7084C10.343 12.7084 10.6263 12.9917 10.6263 13.3334V18.3334C10.6263 18.675 10.343 18.9584 10.0013 18.9584Z" fill="#71839B"/>
</svg>
