<svg width="15" height="15" viewBox="0 0 15 15" fill="none" xmlns="http://www.w3.org/2000/svg">
<path fill-rule="evenodd" clip-rule="evenodd" d="M1.83656 3.16252L11.8366 13.1625L13.1616 11.8375L11.6328 10.3081L14.3741 7.50002L10.9022 3.94377C10.1108 3.12428 9.05016 2.61805 7.91532 2.51815C6.78047 2.41824 5.6477 2.7314 4.72531 3.40002L3.16156 1.83752L1.83594 3.16252H1.83656ZM6.05344 4.72877C6.64319 4.42064 7.31591 4.30879 7.97364 4.40951C8.63137 4.51024 9.23978 4.81828 9.71029 5.28879C10.1808 5.7593 10.4888 6.36771 10.5896 7.02545C10.6903 7.68318 10.5785 8.3559 10.2703 8.94565L6.05344 4.72877Z" fill="#71839B"/>
<path d="M0.625 7.49994L2.05625 6.03369L8.43 12.4074C7.65236 12.5632 6.84805 12.5211 6.09092 12.285C5.3338 12.0489 4.64812 11.6264 4.09687 11.0562L0.625 7.49994Z" fill="#71839B"/>
</svg>
