<svg width="20" height="20" viewBox="0 0 20 20" fill="none" xmlns="http://www.w3.org/2000/svg">
<path d="M5.73437 15.75C5.39271 15.75 5.10938 15.4667 5.10938 15.125V13.4C5.10938 13.0583 5.39271 12.775 5.73437 12.775C6.07604 12.775 6.35937 13.0583 6.35937 13.4V15.125C6.35937 15.475 6.07604 15.75 5.73437 15.75Z" fill="#71839B"/>
<path d="M10 15.75C9.65833 15.75 9.375 15.4667 9.375 15.125V11.6667C9.375 11.325 9.65833 11.0417 10 11.0417C10.3417 11.0417 10.625 11.325 10.625 11.6667V15.125C10.625 15.475 10.3417 15.75 10 15.75Z" fill="#71839B"/>
<path d="M14.2656 15.75C13.924 15.75 13.6406 15.4667 13.6406 15.125V9.94167C13.6406 9.6 13.924 9.31667 14.2656 9.31667C14.6073 9.31667 14.8906 9.6 14.8906 9.94167V15.125C14.8906 15.475 14.6156 15.75 14.2656 15.75Z" fill="#71839B"/>
<path d="M5.73266 10.9833C5.44933 10.9833 5.19933 10.7917 5.12433 10.5083C5.041 10.175 5.24099 9.83334 5.58266 9.75C8.64933 8.98334 11.3493 7.30834 13.4077 4.91667L13.791 4.46667C14.016 4.20834 14.4077 4.175 14.6743 4.4C14.9327 4.625 14.966 5.01667 14.741 5.28334L14.3577 5.73334C12.1327 8.33334 9.19933 10.1417 5.88266 10.9667C5.83266 10.9833 5.78266 10.9833 5.73266 10.9833Z" fill="#71839B"/>
<path d="M14.2659 7.93333C13.9242 7.93333 13.6409 7.65 13.6409 7.30833V5.5H11.8242C11.4826 5.5 11.1992 5.21667 11.1992 4.875C11.1992 4.53333 11.4826 4.25 11.8242 4.25H14.2659C14.6076 4.25 14.8909 4.53333 14.8909 4.875V7.31667C14.8909 7.65833 14.6159 7.93333 14.2659 7.93333Z" fill="#71839B"/>
<path d="M12.5013 18.9583H7.5013C2.9763 18.9583 1.04297 17.025 1.04297 12.5V7.50001C1.04297 2.97501 2.9763 1.04167 7.5013 1.04167H12.5013C17.0263 1.04167 18.9596 2.97501 18.9596 7.50001V12.5C18.9596 17.025 17.0263 18.9583 12.5013 18.9583ZM7.5013 2.29167C3.65964 2.29167 2.29297 3.65834 2.29297 7.50001V12.5C2.29297 16.3417 3.65964 17.7083 7.5013 17.7083H12.5013C16.343 17.7083 17.7096 16.3417 17.7096 12.5V7.50001C17.7096 3.65834 16.343 2.29167 12.5013 2.29167H7.5013Z" fill="#71839B"/>
</svg>
