<svg width="20" height="20" viewBox="0 0 20 20" fill="none" xmlns="http://www.w3.org/2000/svg">
<path d="M17.5013 9.79168H2.5013C1.7013 9.79168 1.04297 9.13334 1.04297 8.33334V5.56667C1.04297 5 1.43462 4.42501 1.95962 4.21667L9.45962 1.21669C9.77628 1.09169 10.2263 1.09169 10.543 1.21669L18.043 4.21667C18.568 4.42501 18.9596 5.00834 18.9596 5.56667V8.33334C18.9596 9.13334 18.3013 9.79168 17.5013 9.79168ZM10.0013 2.3667C9.96797 2.3667 9.93466 2.36666 9.91799 2.37499L2.42628 5.37502C2.37628 5.40002 2.29297 5.50834 2.29297 5.56667V8.33334C2.29297 8.45001 2.38464 8.54168 2.5013 8.54168H17.5013C17.618 8.54168 17.7096 8.45001 17.7096 8.33334V5.56667C17.7096 5.50834 17.6347 5.40002 17.5763 5.37502L10.0763 2.37499C10.0597 2.36666 10.0346 2.3667 10.0013 2.3667Z" fill="#71839B"/>
<path d="M18.3346 18.9583H1.66797C1.3263 18.9583 1.04297 18.675 1.04297 18.3333V15.8333C1.04297 15.0333 1.7013 14.375 2.5013 14.375H17.5013C18.3013 14.375 18.9596 15.0333 18.9596 15.8333V18.3333C18.9596 18.675 18.6763 18.9583 18.3346 18.9583ZM2.29297 17.7083H17.7096V15.8333C17.7096 15.7167 17.618 15.625 17.5013 15.625H2.5013C2.38464 15.625 2.29297 15.7167 2.29297 15.8333V17.7083Z" fill="#71839B"/>
<path d="M3.33203 15.625C2.99036 15.625 2.70703 15.3417 2.70703 15V9.16667C2.70703 8.825 2.99036 8.54167 3.33203 8.54167C3.6737 8.54167 3.95703 8.825 3.95703 9.16667V15C3.95703 15.3417 3.6737 15.625 3.33203 15.625Z" fill="#71839B"/>
<path d="M6.66797 15.625C6.3263 15.625 6.04297 15.3417 6.04297 15V9.16667C6.04297 8.825 6.3263 8.54167 6.66797 8.54167C7.00964 8.54167 7.29297 8.825 7.29297 9.16667V15C7.29297 15.3417 7.00964 15.625 6.66797 15.625Z" fill="#71839B"/>
<path d="M10 15.625C9.65833 15.625 9.375 15.3417 9.375 15V9.16667C9.375 8.825 9.65833 8.54167 10 8.54167C10.3417 8.54167 10.625 8.825 10.625 9.16667V15C10.625 15.3417 10.3417 15.625 10 15.625Z" fill="#71839B"/>
<path d="M13.332 15.625C12.9904 15.625 12.707 15.3417 12.707 15V9.16667C12.707 8.825 12.9904 8.54167 13.332 8.54167C13.6737 8.54167 13.957 8.825 13.957 9.16667V15C13.957 15.3417 13.6737 15.625 13.332 15.625Z" fill="#71839B"/>
<path d="M16.668 15.625C16.3263 15.625 16.043 15.3417 16.043 15V9.16667C16.043 8.825 16.3263 8.54167 16.668 8.54167C17.0096 8.54167 17.293 8.825 17.293 9.16667V15C17.293 15.3417 17.0096 15.625 16.668 15.625Z" fill="#71839B"/>
<path d="M19.1654 18.9583H0.832031C0.490365 18.9583 0.207031 18.675 0.207031 18.3333C0.207031 17.9917 0.490365 17.7083 0.832031 17.7083H19.1654C19.507 17.7083 19.7904 17.9917 19.7904 18.3333C19.7904 18.675 19.507 18.9583 19.1654 18.9583Z" fill="#71839B"/>
<path d="M10 7.70833C8.96667 7.70833 8.125 6.86667 8.125 5.83333C8.125 4.8 8.96667 3.95833 10 3.95833C11.0333 3.95833 11.875 4.8 11.875 5.83333C11.875 6.86667 11.0333 7.70833 10 7.70833ZM10 5.20833C9.65833 5.20833 9.375 5.49167 9.375 5.83333C9.375 6.175 9.65833 6.45833 10 6.45833C10.3417 6.45833 10.625 6.175 10.625 5.83333C10.625 5.49167 10.3417 5.20833 10 5.20833Z" fill="#71839B"/>
</svg>
