<svg width="20" height="20" viewBox="0 0 20 20" fill="none" xmlns="http://www.w3.org/2000/svg">
<mask id="mask0_50_7791" style="mask-type:alpha" maskUnits="userSpaceOnUse" x="0" y="0" width="20" height="20">
<rect width="20" height="20" fill="black"/>
</mask>
<g mask="url(#mask0_50_7791)">
<path d="M3.14132 11.8749C2.64686 11.8749 2.16351 11.7283 1.75239 11.4536C1.34127 11.1789 1.02084 10.7884 0.831617 10.3316C0.642398 9.8748 0.59289 9.37213 0.689353 8.88718C0.785816 8.40223 1.02392 7.95677 1.37355 7.60714C1.72318 7.25751 2.16864 7.01941 2.65359 6.92294C3.13854 6.82648 3.64121 6.87599 4.09802 7.06521C4.55484 7.25443 4.94529 7.57486 5.21999 7.98598C5.49469 8.3971 5.64132 8.88045 5.64132 9.37491C5.64132 10.0379 5.37792 10.6738 4.90908 11.1427C4.44024 11.6115 3.80436 11.8749 3.14132 11.8749ZM3.14132 7.29157C2.72927 7.29157 2.32648 7.41376 1.98388 7.64268C1.64128 7.8716 1.37425 8.19697 1.21657 8.57765C1.05888 8.95833 1.01763 9.37722 1.09801 9.78134C1.1784 10.1855 1.37682 10.5567 1.66818 10.848C1.95954 11.1394 2.33075 11.3378 2.73488 11.4182C3.139 11.4986 3.55789 11.4573 3.93857 11.2997C4.31925 11.142 4.64462 10.8749 4.87354 10.5323C5.10246 10.1897 5.22465 9.78695 5.22465 9.37491C5.22465 8.82237 5.00516 8.29247 4.61446 7.90177C4.22375 7.51107 3.69385 7.29157 3.14132 7.29157Z" fill="#71839B"/>
<path d="M13.9747 0.833336C13.1094 0.833336 12.2635 1.08993 11.5441 1.57066C10.8246 2.05139 10.2639 2.73467 9.93273 3.5341C9.6016 4.33352 9.51496 5.21319 9.68377 6.06186C9.85258 6.91052 10.2693 7.69007 10.8811 8.30193C11.493 8.91378 12.2725 9.33046 13.1212 9.49927C13.9698 9.66808 14.8495 9.58144 15.6489 9.25031C16.4484 8.91918 17.1317 8.35842 17.6124 7.63896C18.0931 6.91949 18.3497 6.07363 18.3497 5.20834C18.3497 4.04801 17.8888 2.93522 17.0683 2.11474C16.2478 1.29427 15.135 0.833336 13.9747 0.833336ZM13.9747 8.33334C13.3566 8.33334 12.7524 8.15006 12.2385 7.80668C11.7246 7.4633 11.3241 6.97524 11.0876 6.40422C10.8511 5.8332 10.7892 5.20487 10.9097 4.59868C11.0303 3.99249 11.328 3.43567 11.765 2.99863C12.202 2.56159 12.7589 2.26396 13.365 2.14338C13.9712 2.0228 14.5996 2.08469 15.1706 2.32121C15.7416 2.55774 16.2297 2.95828 16.573 3.47218C16.9164 3.98608 17.0997 4.59027 17.0997 5.20834C17.0997 6.03714 16.7705 6.83199 16.1844 7.41804C15.5984 8.0041 14.8035 8.33334 13.9747 8.33334Z" fill="#71839B"/>
<path d="M18.686 10.2012L0.677348 13.6363C0.225261 13.7225 -0.0713219 14.1589 0.0149107 14.611C0.101143 15.0631 0.537537 15.3597 0.989624 15.2734L18.9983 11.8384C19.4504 11.7522 19.747 11.3158 19.6607 10.8637C19.5745 10.4116 19.1381 10.115 18.686 10.2012Z" fill="#71839B"/>
<path d="M7.00307 19.2904H12.5256C12.6238 19.291 12.72 19.2623 12.8018 19.208C12.8837 19.1537 12.9475 19.0763 12.9851 18.9856C13.0228 18.8949 13.0326 18.795 13.0133 18.6987C12.9939 18.6025 12.9464 18.5141 12.8767 18.445L10.1129 15.6861C10.0203 15.5941 9.89497 15.5424 9.76435 15.5424C9.63374 15.5424 9.50843 15.5941 9.41579 15.6861L6.65204 18.445C6.58232 18.5141 6.53476 18.6025 6.51545 18.6987C6.49613 18.795 6.50593 18.8949 6.54358 18.9856C6.58124 19.0763 6.64506 19.1537 6.72689 19.208C6.80872 19.2623 6.90487 19.291 7.00307 19.2904Z" fill="#71839B"/>
</g>
</svg>
