<svg width="20" height="20" viewBox="0 0 20 20" fill="none" xmlns="http://www.w3.org/2000/svg">
<path d="M1.66797 10H3.66797M9.16797 10H10.8346M18.3346 10H16.093M3.95964 14.5V5.5C3.95964 4.25 4.49297 3.75 5.81797 3.75H6.68464C8.00964 3.75 8.54297 4.25 8.54297 5.5V14.5C8.54297 15.75 8.00964 16.25 6.68464 16.25H5.81797C4.49297 16.25 3.95964 15.75 3.95964 14.5ZM11.043 12.8333V7.16667C11.043 5.91667 11.5763 5.41667 12.9013 5.41667H13.768C15.093 5.41667 15.6263 5.91667 15.6263 7.16667V12.8333C15.6263 14.0833 15.093 14.5833 13.768 14.5833H12.9013C11.5763 14.5833 11.043 14.0833 11.043 12.8333Z" stroke="#71839B" stroke-width="1.4" stroke-linecap="round" stroke-linejoin="round"/>
</svg>
