<svg width="20" height="20" viewBox="0 0 20 20" fill="none" xmlns="http://www.w3.org/2000/svg">
<path d="M18.2633 13.9572C17.9883 16.1739 16.1716 17.9905 13.955 18.2655C12.6133 18.4322 11.3633 18.0655 10.3883 17.3489C9.82996 16.9405 9.9633 16.0739 10.63 15.8739C11.868 15.4956 12.9943 14.819 13.9097 13.9036C14.8251 12.9882 15.5017 11.8619 15.88 10.6239C16.08 9.96553 16.9466 9.83219 17.355 10.3822C18.1007 11.4153 18.4255 12.6934 18.2633 13.9572V13.9572Z" fill="#71839B"/>
<path d="M8.3224 1.66602C4.6474 1.66602 1.66406 4.64935 1.66406 8.32435C1.66406 11.9993 4.6474 14.9827 8.3224 14.9827C11.9974 14.9827 14.9807 11.9993 14.9807 8.32435C14.9724 4.64935 11.9974 1.66602 8.3224 1.66602ZM7.53906 7.39102L9.5474 8.09102C10.2724 8.34935 10.6224 8.85768 10.6224 9.64102C10.6224 10.541 9.90573 11.2827 9.03073 11.2827H8.95573V11.3243C8.95573 11.666 8.6724 11.9493 8.33073 11.9493C7.98906 11.9493 7.70573 11.666 7.70573 11.3243V11.2743C6.78073 11.2327 6.03906 10.4577 6.03906 9.49102C6.03906 9.14935 6.3224 8.86602 6.66406 8.86602C7.00573 8.86602 7.28906 9.14935 7.28906 9.49102C7.28906 9.79102 7.50573 10.0327 7.7724 10.0327H9.0224C9.21406 10.0327 9.36406 9.85768 9.36406 9.64102C9.36406 9.34935 9.31406 9.33268 9.1224 9.26602L7.11406 8.56602C6.3974 8.31602 6.03906 7.80768 6.03906 7.01602C6.03906 6.11602 6.75573 5.37435 7.63073 5.37435H7.70573V5.34102C7.70573 4.99935 7.98906 4.71602 8.33073 4.71602C8.6724 4.71602 8.95573 4.99935 8.95573 5.34102V5.39102C9.88073 5.43268 10.6224 6.20768 10.6224 7.17435C10.6224 7.51602 10.3391 7.79935 9.9974 7.79935C9.65573 7.79935 9.3724 7.51602 9.3724 7.17435C9.3724 6.87435 9.15573 6.63268 8.88906 6.63268H7.63906C7.4474 6.63268 7.2974 6.80768 7.2974 7.02435C7.28906 7.30768 7.33906 7.32435 7.53906 7.39102V7.39102Z" fill="#71839B"/>
</svg>
