<svg width="20" height="20" viewBox="0 0 20 20" fill="none" xmlns="http://www.w3.org/2000/svg">
<path d="M9.03268 11.2833H7.78268C6.82435 11.2833 6.04935 10.4833 6.04935 9.49167C6.04935 9.15 6.33268 8.86667 6.67435 8.86667C7.01602 8.86667 7.29935 9.15 7.29935 9.49167C7.29935 9.79167 7.51602 10.0333 7.78268 10.0333H9.03268C9.22435 10.0333 9.37435 9.85833 9.37435 9.64167C9.37435 9.35 9.32435 9.33333 9.13268 9.26667L7.12435 8.56667C6.39935 8.31667 6.04102 7.80833 6.04102 7.01667C6.04102 6.11667 6.75768 5.375 7.63268 5.375H8.88268C9.84102 5.375 10.616 6.175 10.616 7.16667C10.616 7.50833 10.3327 7.79167 9.99102 7.79167C9.64935 7.79167 9.36602 7.50833 9.36602 7.16667C9.36602 6.86667 9.14935 6.625 8.88268 6.625H7.63268C7.44102 6.625 7.29102 6.8 7.29102 7.01667C7.29102 7.30833 7.34102 7.325 7.53268 7.39167L9.54102 8.09167C10.266 8.35 10.616 8.85833 10.616 9.64167C10.6243 10.55 9.90768 11.2833 9.03268 11.2833V11.2833Z" fill="#71839B"/>
<path d="M8.33398 11.9517C7.99232 11.9517 7.70898 11.6683 7.70898 11.3267V10.71C7.70898 10.3683 7.99232 10.085 8.33398 10.085C8.67565 10.085 8.95898 10.3683 8.95898 10.71V11.3267C8.95898 11.6767 8.67565 11.9517 8.33398 11.9517ZM8.33398 6.61667C7.99232 6.61667 7.70898 6.33334 7.70898 5.99167V5.34167C7.70898 5.00001 7.99232 4.71667 8.33398 4.71667C8.67565 4.71667 8.95898 5.00001 8.95898 5.34167V5.99167C8.95898 6.33334 8.67565 6.61667 8.33398 6.61667Z" fill="#71839B"/>
<path d="M8.32435 15.5983C4.30768 15.5983 1.04102 12.3317 1.04102 8.31501C1.04102 4.29834 4.30768 1.03168 8.32435 1.03168C12.341 1.03168 15.6077 4.29834 15.6077 8.31501C15.6077 12.3317 12.3327 15.5983 8.32435 15.5983ZM8.32435 2.29001C4.99935 2.29001 2.29102 4.99834 2.29102 8.32334C2.29102 11.6483 4.99935 14.3483 8.32435 14.3483C11.6493 14.3483 14.3577 11.64 14.3577 8.31501C14.3577 4.99001 11.6493 2.29001 8.32435 2.29001Z" fill="#71839B"/>
<path d="M14.1841 18.9317C13.4226 18.9314 12.6723 18.7481 11.9964 18.3971C11.3206 18.0462 10.739 17.5378 10.3008 16.915C10.2047 16.7791 10.1664 16.6105 10.1946 16.4464C10.2227 16.2824 10.3149 16.1362 10.4508 16.04C10.5867 15.9439 10.7553 15.9057 10.9194 15.9338C11.0835 15.9619 11.2297 16.0541 11.3258 16.19C11.7536 16.7982 12.364 17.2543 13.0686 17.492C13.7732 17.7297 14.5352 17.7367 15.244 17.5118C15.9528 17.287 16.5715 16.8422 17.0103 16.2418C17.4491 15.6415 17.6851 14.9169 17.6841 14.1733C17.6841 13.0483 17.1341 11.9817 16.2175 11.3233C16.0826 11.2261 15.992 11.0793 15.9654 10.9152C15.9388 10.7511 15.9785 10.5832 16.0758 10.4483C16.173 10.3135 16.3199 10.2229 16.484 10.1963C16.648 10.1697 16.816 10.2094 16.9508 10.3067C17.5642 10.7479 18.0639 11.3286 18.4087 12.0008C18.7536 12.6731 18.9337 13.4178 18.9341 14.1733C18.9352 14.7978 18.8132 15.4164 18.5749 15.9937C18.3367 16.5709 17.987 17.0955 17.5458 17.5375C17.1046 17.9795 16.5806 18.3301 16.0038 18.5693C15.427 18.8085 14.8086 18.9317 14.1841 18.9317V18.9317Z" fill="#71839B"/>
</svg>
