<svg width="20" height="20" viewBox="0 0 20 20" fill="none" xmlns="http://www.w3.org/2000/svg">
<mask id="mask0_50_7631" style="mask-type:alpha" maskUnits="userSpaceOnUse" x="0" y="0" width="20" height="20">
<rect width="20" height="20" fill="#D9D9D9"/>
</mask>
<g mask="url(#mask0_50_7631)">
<path d="M7.42005 19.825H3.28255C2.3985 19.825 1.55065 19.4738 0.925529 18.8487C0.300408 18.2235 -0.0507812 17.3757 -0.0507812 16.4916V12.325C-0.0507812 11.4409 0.300408 10.5931 0.925529 9.96795C1.55065 9.34283 2.3985 8.99164 3.28255 8.99164H10.6634C11.1144 8.99185 11.5577 9.10848 11.9504 9.33024C12.3431 9.552 12.6719 9.87138 12.9051 10.2575L15.5859 7.31164C15.8076 7.06779 16.0753 6.87004 16.3735 6.72969C16.6717 6.58933 16.9946 6.50912 17.3238 6.49364C17.6531 6.47816 17.9821 6.52772 18.2922 6.63948C18.6022 6.75124 18.8872 6.92301 19.1309 7.14497C19.617 7.59158 19.9084 8.21121 19.9422 8.87049C19.976 9.52976 19.7496 10.176 19.3117 10.67L13.6451 17.0341C12.8626 17.9117 11.9036 18.6139 10.8308 19.0949C9.75804 19.5758 8.59572 19.8246 7.42005 19.825ZM3.28255 10.6583C2.84052 10.6583 2.4166 10.8339 2.10404 11.1465C1.79148 11.459 1.61589 11.8829 1.61589 12.325V16.4916C1.61589 16.9337 1.79148 17.3576 2.10404 17.6701C2.4166 17.9827 2.84052 18.1583 3.28255 18.1583H7.42005C8.35999 18.1579 9.28923 17.9589 10.1469 17.5743C11.0045 17.1897 11.7712 16.6282 12.3967 15.9266L18.0676 9.56164C18.2148 9.3958 18.291 9.17876 18.2798 8.95728C18.2686 8.7358 18.1708 8.52758 18.0076 8.37747C17.8416 8.22824 17.6239 8.14962 17.4009 8.1583C17.2903 8.16298 17.1818 8.18963 17.0816 8.23671C16.9815 8.28378 16.8917 8.35033 16.8176 8.43247L13.1292 12.4916C12.9673 12.9398 12.6867 13.3355 12.3175 13.6367C11.9482 13.9379 11.5041 14.1331 11.0326 14.2016L6.73172 14.8166C6.51291 14.848 6.29061 14.7912 6.1137 14.6587C5.93679 14.5262 5.81977 14.3288 5.78839 14.11C5.757 13.8912 5.81382 13.6689 5.94635 13.4919C6.07887 13.315 6.27625 13.198 6.49505 13.1666L10.7967 12.5525C11.0355 12.5191 11.2527 12.3963 11.4045 12.209C11.5562 12.0216 11.6312 11.7837 11.6143 11.5431C11.5973 11.3026 11.4898 11.0775 11.3133 10.9133C11.1368 10.749 10.9045 10.6579 10.6634 10.6583H3.28255Z" fill="#71839B"/>
<mask id="mask1_50_7631" style="mask-type:alpha" maskUnits="userSpaceOnUse" x="-8" y="-8" width="31" height="19">
<rect x="22.4805" y="4.48241" width="28.1154" height="12.2241" transform="rotate(168.595 22.4805 4.48241)" fill="#D9D9D9"/>
</mask>
<g mask="url(#mask1_50_7631)">
<path d="M10.9891 12.4131C12.1741 12.1741 13.2616 11.589 14.114 10.7319C14.9665 9.87479 15.5457 8.78416 15.7783 7.59791C16.0109 6.41165 15.8865 5.18306 15.4209 4.06749C14.9553 2.95192 14.1693 1.99947 13.1624 1.3306C12.1554 0.661724 10.9728 0.306462 9.76392 0.309738C8.55508 0.313013 7.37436 0.674678 6.37106 1.349C5.36777 2.02332 4.58696 2.98001 4.12738 4.09809C3.6678 5.21616 3.5501 6.44541 3.78914 7.63039C4.1113 9.21852 5.0503 10.614 6.40011 11.5106C7.74993 12.4073 9.4003 12.7318 10.9891 12.4131ZM8.77329 1.42897C9.76077 1.22976 10.7851 1.32785 11.7169 1.71083C12.6486 2.09382 13.4458 2.74449 14.0078 3.58057C14.5697 4.41665 14.8711 5.40058 14.8738 6.40795C14.8766 7.41532 14.5805 8.40088 14.0231 9.23999C13.4657 10.0791 12.672 10.7341 11.7424 11.1221C10.8127 11.5101 9.7889 11.6138 8.80036 11.4199C7.81181 11.2261 6.90295 10.7434 6.1887 10.0331C5.47446 9.32266 4.9869 8.41643 4.7877 7.42895C4.52212 6.10493 4.79259 4.72963 5.53979 3.6048C6.28698 2.47996 7.44986 1.69746 8.77329 1.42897Z" fill="#71839B"/>
</g>
</g>
</svg>
