<svg width="50" height="50" viewBox="0 0 50 50" fill="none" xmlns="http://www.w3.org/2000/svg">
<rect width="50" height="50" rx="25" fill="#F6F6F6"/>
<path d="M23.7516 29.8594V31.8894C23.7516 33.6094 22.1516 34.9994 20.1816 34.9994C18.2116 34.9994 16.6016 33.6094 16.6016 31.8894V29.8594C16.6016 31.5794 18.2016 32.7994 20.1816 32.7994C22.1516 32.7994 23.7516 31.5694 23.7516 29.8594Z" stroke="#292D32" stroke-width="1.5" stroke-linecap="round" stroke-linejoin="round"/>
<path d="M23.7498 27.1117C23.7498 27.6117 23.6098 28.0717 23.3698 28.4717C22.7798 29.4417 21.5698 30.0517 20.1698 30.0517C18.7698 30.0517 17.5598 29.4317 16.9698 28.4717C16.7298 28.0717 16.5898 27.6117 16.5898 27.1117C16.5898 26.2517 16.9898 25.4817 17.6298 24.9217C18.2798 24.3517 19.1698 24.0117 20.1598 24.0117C21.1498 24.0117 22.0398 24.3617 22.6898 24.9217C23.3498 25.4717 23.7498 26.2517 23.7498 27.1117Z" stroke="#292D32" stroke-width="1.5" stroke-linecap="round" stroke-linejoin="round"/>
<path d="M23.7516 27.11V29.86C23.7516 31.58 22.1516 32.8 20.1816 32.8C18.2116 32.8 16.6016 31.57 16.6016 29.86V27.11C16.6016 25.39 18.2016 24 20.1816 24C21.1716 24 22.0616 24.35 22.7116 24.91C23.3516 25.47 23.7516 26.25 23.7516 27.11Z" stroke="#292D32" stroke-width="1.5" stroke-linecap="round" stroke-linejoin="round"/>
<path d="M35.0002 23.9692V26.0292C35.0002 26.5792 34.5602 27.0292 34.0002 27.0492H32.0402C30.9602 27.0492 29.9702 26.2592 29.8802 25.1792C29.8202 24.5492 30.0602 23.9592 30.4802 23.5492C30.8502 23.1692 31.3602 22.9492 31.9202 22.9492H34.0002C34.5602 22.9692 35.0002 23.4192 35.0002 23.9692Z" stroke="#292D32" stroke-width="1.5" stroke-linecap="round" stroke-linejoin="round"/>
<path d="M15 23.5V21.5C15 18.78 16.64 16.88 19.19 16.56C19.45 16.52 19.72 16.5 20 16.5H29C29.26 16.5 29.51 16.51 29.75 16.55C32.33 16.85 34 18.76 34 21.5V22.95H31.92C31.36 22.95 30.85 23.17 30.48 23.55C30.06 23.96 29.82 24.55 29.88 25.18C29.97 26.26 30.96 27.05 32.04 27.05H34V28.5C34 31.5 32 33.5 29 33.5H26.5" stroke="#292D32" stroke-width="1.5" stroke-linecap="round" stroke-linejoin="round"/>
</svg>
