<svg width="50" height="50" viewBox="0 0 50 50" fill="none" xmlns="http://www.w3.org/2000/svg">
<rect width="49.3182" height="50" rx="24.6591" fill="#F6F6F6"/>
<path d="M16.7587 27.6585L15.2594 26.1385C14.6479 25.5185 14.6479 24.4985 15.2594 23.8785L16.7587 22.3584C17.0152 22.0984 17.2223 21.5884 17.2223 21.2284V19.0784C17.2223 18.1984 17.9325 17.4784 18.8005 17.4784H20.9212C21.2762 17.4784 21.7793 17.2685 22.0358 17.0085L23.535 15.4884C24.1466 14.8684 25.1527 14.8684 25.7642 15.4884L27.2635 17.0085C27.52 17.2685 28.023 17.4784 28.3781 17.4784H30.4988C31.3668 17.4784 32.0769 18.1984 32.0769 19.0784V21.2284C32.0769 21.5884 32.2841 22.0984 32.5405 22.3584L34.0398 23.8785C34.6514 24.4985 34.6514 25.5185 34.0398 26.1385L32.5405 27.6585C32.2841 27.9185 32.0769 28.4285 32.0769 28.7885V30.9384C32.0769 31.8184 31.3668 32.5385 30.4988 32.5385H28.3781C28.023 32.5385 27.52 32.7485 27.2635 33.0085L25.7642 34.5285C25.1527 35.1485 24.1466 35.1485 23.535 34.5285L22.0358 33.0085C21.7793 32.7485 21.2762 32.5385 20.9212 32.5385H18.8005C17.9325 32.5385 17.2223 31.8184 17.2223 30.9384V28.7885C17.2223 28.4185 17.0152 27.9085 16.7587 27.6585Z" stroke="#292D32" stroke-width="1.5" stroke-linecap="round" stroke-linejoin="round"/>
<path d="M21.7031 28L27.6213 22" stroke="#292D32" stroke-width="1.5" stroke-linecap="round" stroke-linejoin="round"/>
<path d="M27.1206 27.5H27.1294" stroke="#292D32" stroke-width="2" stroke-linecap="round" stroke-linejoin="round"/>
<path d="M22.1909 22.5H22.1997" stroke="#292D32" stroke-width="2" stroke-linecap="round" stroke-linejoin="round"/>
</svg>
