<svg width="20" height="20" viewBox="0 0 20 20" fill="none" xmlns="http://www.w3.org/2000/svg">
<path opacity="0.4" d="M17.5674 7.15003V12.85C17.5674 13.7833 17.0674 14.65 16.2591 15.125L11.3091 17.9834C10.5008 18.45 9.50078 18.45 8.68411 17.9834L3.73411 15.125C2.92578 14.6584 2.42578 13.7917 2.42578 12.85V7.15003C2.42578 6.2167 2.92578 5.35 3.73411 4.875L8.68411 2.01667C9.49245 1.55001 10.4924 1.55001 11.3091 2.01667L16.2591 4.875C17.0674 5.35 17.5674 6.20837 17.5674 7.15003Z" fill="#FFA500"/>
<path d="M10.0003 9.99999C11.0726 9.99999 11.9419 9.13067 11.9419 8.05831C11.9419 6.98596 11.0726 6.11668 10.0003 6.11668C8.92791 6.11668 8.05859 6.98596 8.05859 8.05831C8.05859 9.13067 8.92791 9.99999 10.0003 9.99999Z" fill="#FFA500"/>
<path d="M12.2336 13.8833C12.9086 13.8833 13.3003 13.1334 12.9253 12.575C12.3586 11.7334 11.2586 11.1667 10.0003 11.1667C8.74196 11.1667 7.64196 11.7334 7.0753 12.575C6.7003 13.1334 7.09196 13.8833 7.76696 13.8833H12.2336Z" fill="#FFA500"/>
</svg>
