<svg width="20" height="20" viewBox="0 0 20 20" fill="none" xmlns="http://www.w3.org/2000/svg">
<path d="M10.0007 10C12.3018 10 14.1673 8.13452 14.1673 5.83334C14.1673 3.53215 12.3018 1.66667 10.0007 1.66667C7.69946 1.66667 5.83398 3.53215 5.83398 5.83334C5.83398 8.13452 7.69946 10 10.0007 10Z" fill="#FFA500"/>
<path opacity="0.4" d="M10.0008 12.0833C5.8258 12.0833 2.42578 14.8833 2.42578 18.3333C2.42578 18.5667 2.60911 18.75 2.84245 18.75H17.1592C17.3925 18.75 17.5758 18.5667 17.5758 18.3333C17.5758 14.8833 14.1758 12.0833 10.0008 12.0833Z" fill="#FFA500"/>
<path d="M17.8585 12.2834C17.1085 11.5334 16.5169 11.775 16.0085 12.2834L13.0585 15.2334C12.9418 15.3501 12.8335 15.5667 12.8085 15.725L12.6502 16.85C12.5919 17.2583 12.8752 17.5417 13.2835 17.4833L14.4085 17.325C14.5668 17.3 14.7919 17.1917 14.9002 17.075L17.8502 14.125C18.3668 13.625 18.6085 13.0334 17.8585 12.2834Z" fill="#FFA500"/>
</svg>
