<svg width="24" height="24" viewBox="0 0 24 24" fill="none" xmlns="http://www.w3.org/2000/svg">
<rect x="5" y="4" width="13" height="9" fill="#71839B"/>
<path d="M20.318 21V24H18.3898V21C18.3898 19.897 17.525 19 16.4616 19H6.82053C5.75712 19 4.89232 19.897 4.89232 21V24H2.96411V21C2.96411 18.794 4.69371 17 6.82053 17H16.4616C18.5884 17 20.318 18.794 20.318 21ZM21.2821 6V11H19.3539V15H3.92821V11H2V6H3.92821V5C3.92821 3.346 5.2259 2 6.82053 2H10.6769V0H12.6052V2H16.4616C18.0562 2 19.3539 3.346 19.3539 5V6H21.2821ZM17.4257 5C17.4257 4.448 16.9928 4 16.4616 4H6.82053C6.2893 4 5.85642 4.448 5.85642 5V13H17.4257V5Z" fill="#71839B"/>
<path d="M12.6055 8.5C12.6055 7.672 13.2533 7 14.0516 7C14.8499 7 15.4978 7.672 15.4978 8.5C15.4978 9.328 14.8499 10 14.0516 10C13.2533 10 12.6055 9.328 12.6055 8.5Z" fill="white"/>
<path d="M7.78516 8.5C7.78516 7.672 8.43303 7 9.23131 7C10.0296 7 10.6775 7.672 10.6775 8.5C10.6775 9.328 10.0296 10 9.23131 10C8.43303 10 7.78516 9.328 7.78516 8.5Z" fill="white"/>
</svg>
