<svg width="50" height="50" viewBox="0 0 50 50" fill="none" xmlns="http://www.w3.org/2000/svg">
<path d="M40.625 50H9.375C4.19688 50 0 45.8031 0 40.625V9.375C0 4.19688 4.19688 0 9.375 0H40.625C45.8031 0 50 4.19688 50 9.375V40.625C50 45.8031 45.8031 50 40.625 50Z" fill="#FFA500" fill-opacity="0.15"/>
<path d="M32.0868 16.4633L26.1285 14.2317C25.511 14.0042 24.5035 14.0042 23.886 14.2317L17.9277 16.4633C16.7793 16.8967 15.8477 18.24 15.8477 19.4642V28.2392C15.8477 29.1167 16.4218 30.2758 17.126 30.7958L23.0843 35.2483C24.1352 36.0392 25.8577 36.0392 26.9085 35.2483L32.8668 30.7958C33.571 30.265 34.1452 29.1167 34.1452 28.2392V19.4642C34.156 18.24 33.2243 16.8967 32.0868 16.4633ZM28.7718 22.53L24.1135 27.1883C23.951 27.3508 23.7452 27.4267 23.5393 27.4267C23.3335 27.4267 23.1277 27.3508 22.9652 27.1883L21.2318 25.4333C20.9177 25.1192 20.9177 24.5992 21.2318 24.285C21.546 23.9708 22.066 23.9708 22.3802 24.285L23.5502 25.455L27.6343 21.3708C27.9485 21.0567 28.4685 21.0567 28.7827 21.3708C29.0968 21.685 29.0968 22.2158 28.7718 22.53Z" fill="#FFA500"/>
</svg>
