<svg width="16" height="18" viewBox="0 0 16 18" fill="none" xmlns="http://www.w3.org/2000/svg">
<path d="M13.4507 2.43385L8.86732 0.717187C8.39232 0.542188 7.61732 0.542188 7.14232 0.717187L2.55898 2.43385C1.67565 2.76719 0.958984 3.80052 0.958984 4.74219V11.4922C0.958984 12.1672 1.40065 13.0589 1.94232 13.4589L6.52565 16.8839C7.33398 17.4922 8.65898 17.4922 9.46732 16.8839L14.0507 13.4589C14.5923 13.0505 15.034 12.1672 15.034 11.4922V4.74219C15.0423 3.80052 14.3257 2.76719 13.4507 2.43385ZM10.9007 7.10052L7.31732 10.6839C7.19232 10.8089 7.03398 10.8672 6.87565 10.8672C6.71732 10.8672 6.55898 10.8089 6.43398 10.6839L5.10065 9.33385C4.85898 9.09219 4.85898 8.69219 5.10065 8.45052C5.34232 8.20885 5.74232 8.20885 5.98398 8.45052L6.88398 9.35052L10.0257 6.20885C10.2673 5.96719 10.6673 5.96719 10.909 6.20885C11.1507 6.45052 11.1507 6.85885 10.9007 7.10052Z" fill="#0ECB81"/>
</svg>
