<svg width="27" height="27" viewBox="0 0 27 27" fill="none" xmlns="http://www.w3.org/2000/svg">
<path d="M13.5 2.25C7.30125 2.25 2.25 7.30125 2.25 13.5C2.25 19.6987 7.30125 24.75 13.5 24.75C19.6987 24.75 24.75 19.6987 24.75 13.5C24.75 7.30125 19.6987 2.25 13.5 2.25ZM18.8775 10.9125L12.4987 17.2913C12.3412 17.4487 12.1275 17.5387 11.9025 17.5387C11.6775 17.5387 11.4637 17.4487 11.3063 17.2913L8.1225 14.1075C7.79625 13.7812 7.79625 13.2412 8.1225 12.915C8.44875 12.5887 8.98875 12.5887 9.315 12.915L11.9025 15.5025L17.685 9.72C18.0113 9.39375 18.5513 9.39375 18.8775 9.72C19.2038 10.0463 19.2038 10.575 18.8775 10.9125Z" fill="#0ECB81" fill-opacity="0.15"/>
<path d="M13.4988 7.02275C9.92978 7.02275 7.02148 9.93105 7.02148 13.5C7.02148 17.069 9.92978 19.9773 13.4988 19.9773C17.0677 19.9773 19.976 17.069 19.976 13.5C19.976 9.93105 17.0677 7.02275 13.4988 7.02275ZM16.5949 12.0103L12.9223 15.6829C12.8316 15.7735 12.7085 15.8254 12.579 15.8254C12.4494 15.8254 12.3264 15.7735 12.2357 15.6829L10.4026 13.8498C10.2148 13.662 10.2148 13.351 10.4026 13.1632C10.5905 12.9754 10.9014 12.9754 11.0892 13.1632L12.579 14.653L15.9083 11.3237C16.0961 11.1358 16.4071 11.1358 16.5949 11.3237C16.7827 11.5115 16.7827 11.8159 16.5949 12.0103Z" fill="#0ECB81"/>
<path d="M13.4993 4.70454C8.80327 4.70454 4.97656 8.53125 4.97656 13.2273C4.97656 17.9233 8.80327 21.75 13.4993 21.75C18.1953 21.75 22.022 17.9233 22.022 13.2273C22.022 8.53125 18.1953 4.70454 13.4993 4.70454ZM17.5732 11.267L12.7408 16.0994C12.6214 16.2187 12.4595 16.2869 12.2891 16.2869C12.1186 16.2869 11.9567 16.2187 11.8374 16.0994L9.42543 13.6875C9.17827 13.4403 9.17827 13.0312 9.42543 12.7841C9.67259 12.5369 10.0817 12.5369 10.3288 12.7841L12.2891 14.7443L16.6697 10.3636C16.9169 10.1165 17.326 10.1165 17.5732 10.3636C17.8203 10.6108 17.8203 11.0114 17.5732 11.267Z" fill="#0ECB81" fill-opacity="0.2"/>
</svg>
