<svg width="15" height="15" viewBox="0 0 15 15" fill="none" xmlns="http://www.w3.org/2000/svg">
<path d="M13.3276 5.45455C13.2117 5.36808 13.1212 5.25194 13.0657 5.11836C13.0103 4.98478 12.9918 4.83871 13.0124 4.69554C13.2826 2.99743 12.9738 2.47642 12.7423 2.24485C12.5107 2.01329 11.9961 1.71098 10.298 1.98113C10.1549 2.00035 10.0093 1.98131 9.876 1.92594C9.74268 1.87058 9.6264 1.78087 9.53902 1.66595C8.41981 0.173671 7.83448 0 7.49357 0C7.15266 0 6.56732 0.173671 5.44811 1.66595C5.36073 1.78087 5.24446 1.87058 5.11113 1.92594C4.97781 1.98131 4.83219 2.00035 4.68911 1.98113C2.99099 1.71098 2.47641 2.01973 2.24485 2.24485C2.01329 2.46998 1.70455 2.99743 1.9747 4.69554C1.99529 4.83871 1.97688 4.98478 1.92141 5.11836C1.86594 5.25194 1.77547 5.36808 1.65952 5.45455C0.167239 6.57376 0 7.15909 0 7.5C0 7.84091 0.167239 8.42624 1.65952 9.54545C1.77547 9.63192 1.86594 9.74806 1.92141 9.88164C1.97688 10.0152 1.99529 10.1613 1.9747 10.3045C1.73027 12.0154 2.01329 12.5236 2.24485 12.7551C2.47641 12.9867 2.97813 13.2633 4.68911 13.0189C4.83227 12.9983 4.97834 13.0167 5.11192 13.0722C5.2455 13.1276 5.36165 13.2181 5.44811 13.334C6.56732 14.8263 7.15266 15 7.49357 15C7.83448 15 8.41981 14.8263 9.53902 13.334C9.62549 13.2181 9.74163 13.1276 9.87521 13.0722C10.0088 13.0167 10.1549 12.9983 10.298 13.0189C12.0154 13.2633 12.5107 12.9803 12.7423 12.7551C12.9738 12.53 13.2569 12.0154 13.0124 10.3045C12.9918 10.1613 13.0103 10.0152 13.0657 9.88164C13.1212 9.74806 13.2117 9.63192 13.3276 9.54545C14.8199 8.42624 14.9871 7.84091 14.9871 7.5C14.9871 7.15909 14.8199 6.57376 13.3276 5.45455Z" fill="#19DA53"/>
<path d="M7.17449 9.75126C7.08984 9.75175 7.00592 9.73553 6.92756 9.70352C6.84919 9.67151 6.77791 9.62434 6.7178 9.56473L5.43135 8.27828C5.31023 8.15716 5.24219 7.99288 5.24219 7.82159C5.24219 7.6503 5.31023 7.48602 5.43135 7.3649C5.55248 7.24378 5.71675 7.17573 5.88804 7.17573C6.05934 7.17573 6.22361 7.24378 6.34473 7.3649L7.17449 8.20109L9.2907 6.07845C9.3505 6.01816 9.42164 5.97031 9.50002 5.93765C9.57841 5.905 9.66248 5.88818 9.74739 5.88818C9.83231 5.88818 9.91638 5.905 9.99476 5.93765C10.0731 5.97031 10.1443 6.01816 10.2041 6.07845C10.2644 6.13824 10.3122 6.20939 10.3449 6.28777C10.3775 6.36615 10.3943 6.45022 10.3943 6.53514C10.3943 6.62005 10.3775 6.70412 10.3449 6.78251C10.3122 6.86089 10.2644 6.93203 10.2041 6.99183L7.63118 9.56473C7.57108 9.62434 7.4998 9.67151 7.42143 9.70352C7.34306 9.73553 7.25915 9.75175 7.17449 9.75126Z" fill="white"/>
</svg>
