<svg width="20" height="20" viewBox="0 0 20 20" fill="none" xmlns="http://www.w3.org/2000/svg">
<path d="M8.96589 13.6417C8.61589 13.6417 8.29089 13.5584 7.99922 13.3917C7.33255 13.0084 6.94922 12.225 6.94922 11.2334V8.76669C6.94922 7.78335 7.33255 6.99169 7.99922 6.60835C8.66589 6.22502 9.53255 6.28335 10.3909 6.78335L12.5326 8.01669C13.3826 8.50835 13.8742 9.23335 13.8742 10C13.8742 10.7667 13.3826 11.4917 12.5326 11.9834L10.3909 13.2167C9.90755 13.5 9.41589 13.6417 8.96589 13.6417ZM8.97422 7.60835C8.84089 7.60835 8.72422 7.63335 8.63255 7.69169C8.36589 7.85002 8.20755 8.24169 8.20755 8.76669V11.2334C8.20755 11.7584 8.35755 12.15 8.63255 12.3084C8.89922 12.4667 9.31589 12.4 9.77422 12.1334L11.9159 10.9C12.3742 10.6334 12.6326 10.3084 12.6326 10C12.6326 9.69169 12.3742 9.35835 11.9159 9.10002L9.77422 7.86669C9.47422 7.69169 9.19922 7.60835 8.97422 7.60835Z" fill="#71839B"/>
<path d="M10.0013 18.9584C5.05964 18.9584 1.04297 14.9417 1.04297 10C1.04297 5.05835 5.05964 1.04169 10.0013 1.04169C14.943 1.04169 18.9596 5.05835 18.9596 10C18.9596 14.9417 14.943 18.9584 10.0013 18.9584ZM10.0013 2.29169C5.7513 2.29169 2.29297 5.75002 2.29297 10C2.29297 14.25 5.7513 17.7084 10.0013 17.7084C14.2513 17.7084 17.7096 14.25 17.7096 10C17.7096 5.75002 14.2513 2.29169 10.0013 2.29169Z" fill="#71839B"/>
</svg>
