<svg width="80" height="80" viewBox="0 0 80 80" fill="none" xmlns="http://www.w3.org/2000/svg">
<path d="M40 80C62.0914 80 80 62.0914 80 40C80 17.9086 62.0914 0 40 0C17.9086 0 0 17.9086 0 40C0 62.0914 17.9086 80 40 80Z" fill="#FAFAFA" fill-opacity="0.980392"/>
<path d="M39.0625 47.8125H36.25C34.875 47.8125 33.75 48.9375 33.75 50.3125V50.625H32.5C31.9875 50.625 31.5625 51.05 31.5625 51.5625C31.5625 52.075 31.9875 52.5 32.5 52.5H47.5C48.0125 52.5 48.4375 52.075 48.4375 51.5625C48.4375 51.05 48.0125 50.625 47.5 50.625H46.25V50.3125C46.25 48.9375 45.125 47.8125 43.75 47.8125H40.9375V44.95C40.625 44.9875 40.3125 45 40 45C39.6875 45 39.375 44.9875 39.0625 44.95V47.8125Z" fill="#71839B"/>
<path d="M48.1016 39.55C48.9266 39.2375 49.6516 38.725 50.2266 38.15C51.3891 36.8625 52.1516 35.325 52.1516 33.525C52.1516 31.725 50.7391 30.3125 48.9391 30.3125H48.2391C47.4266 28.65 45.7266 27.5 43.7516 27.5H36.2516C34.2766 27.5 32.5766 28.65 31.7641 30.3125H31.0641C29.2641 30.3125 27.8516 31.725 27.8516 33.525C27.8516 35.325 28.6141 36.8625 29.7766 38.15C30.3516 38.725 31.0766 39.2375 31.9016 39.55C33.2016 42.75 36.3266 45 40.0016 45C43.6766 45 46.8016 42.75 48.1016 39.55ZM43.5516 35.5625L42.7766 36.5125C42.6516 36.65 42.5641 36.925 42.5766 37.1125L42.6516 38.3375C42.7016 39.0875 42.1641 39.475 41.4641 39.2L40.3266 38.75C40.1516 38.6875 39.8516 38.6875 39.6766 38.75L38.5391 39.2C37.8391 39.475 37.3016 39.0875 37.3516 38.3375L37.4266 37.1125C37.4391 36.925 37.3516 36.65 37.2266 36.5125L36.4516 35.5625C35.9641 34.9875 36.1766 34.35 36.9016 34.1625L38.0891 33.8625C38.2766 33.8125 38.5016 33.6375 38.6016 33.475L39.2641 32.45C39.6766 31.8125 40.3266 31.8125 40.7391 32.45L41.4016 33.475C41.5016 33.6375 41.7266 33.8125 41.9141 33.8625L43.1016 34.1625C43.8266 34.35 44.0391 34.9875 43.5516 35.5625Z" fill="#71839B"/>
</svg>
