<svg width="76" height="76" viewBox="0 0 76 76" fill="none" xmlns="http://www.w3.org/2000/svg">
<circle cx="38" cy="38" r="38" fill="#FAFAFA"/>
<path d="M29.0298 53C25.7649 53 23.0023 50.2243 23.0023 46.9439V38.3084C22.9326 34.215 24.4394 30.3598 27.2578 27.472C30.0762 24.5981 33.8573 23 37.9314 23C46.247 23 53 29.7991 53 38.1402V46.7757C53 50.1122 50.2932 52.8318 46.9726 52.8318C43.7077 52.8318 40.9451 50.0561 40.9451 46.7757V42.8364C40.9451 40.8037 42.5357 39.2056 44.5588 39.2056C46.5819 39.2056 48.1725 40.8037 48.1725 42.8364V47.0841C48.1725 47.6589 47.6981 48.1355 47.126 48.1355C46.554 48.1355 46.0796 47.6589 46.0796 47.0841V42.8364C46.0796 41.8832 45.3122 41.3084 44.5588 41.3084C43.61 41.3084 43.038 42.0794 43.038 42.8364V46.7757C43.038 48.9206 44.8378 50.729 46.9726 50.729C49.1073 50.729 50.9071 48.9206 50.9071 46.7757V38.1402C50.9071 30.9486 45.089 25.1028 37.9314 25.1028C34.4293 25.1028 31.1784 26.4626 28.7507 28.9439C26.323 31.4252 25.0254 34.7477 25.0952 38.2804V46.9439C25.0952 49.0888 26.895 50.8972 29.0298 50.8972C31.1645 50.8972 32.9643 49.0888 32.9643 46.9439V43.0047C32.9643 42.0514 32.197 41.4766 31.4435 41.4766C30.4948 41.4766 29.9227 42.2477 29.9227 43.0047V47.0981C29.9227 47.6729 29.4483 48.1495 28.8763 48.1495C28.3042 48.1495 27.8299 47.6729 27.8299 47.0981V43.0047C27.8299 40.972 29.4204 39.3738 31.4435 39.3738C33.4666 39.3738 35.0572 40.972 35.0572 43.0047V46.9439C35.0572 50.2243 32.2946 53 29.0298 53Z" fill="#292D32"/>
</svg>
