<svg width="76" height="76" viewBox="0 0 76 76" fill="none" xmlns="http://www.w3.org/2000/svg">
<circle cx="38" cy="38" r="38" fill="#FAFAFA"/>
<path d="M33.8375 40.5H28C26.625 40.5 25.5 41.625 25.5 43V50.5H33.8375V40.5Z" stroke="#292D32" stroke-width="1.8" stroke-miterlimit="10" stroke-linecap="round" stroke-linejoin="round"/>
<path d="M39.6656 35.5H36.3281C34.9531 35.5 33.8281 36.625 33.8281 38V50.5H42.1656V38C42.1656 36.625 41.0531 35.5 39.6656 35.5Z" stroke="#292D32" stroke-width="1.8" stroke-miterlimit="10" stroke-linecap="round" stroke-linejoin="round"/>
<path d="M48.0016 44.25H42.1641V50.5H50.5016V46.75C50.5016 45.375 49.3766 44.25 48.0016 44.25Z" stroke="#292D32" stroke-width="1.8" stroke-miterlimit="10" stroke-linecap="round" stroke-linejoin="round"/>
<path d="M38.6498 25.5875L39.3123 26.9125C39.3998 27.1 39.6373 27.275 39.8373 27.3L41.0373 27.5C41.7998 27.625 41.9873 28.1875 41.4373 28.725L40.4998 29.6625C40.3373 29.825 40.2498 30.125 40.2998 30.3375L40.5623 31.4875C40.7748 32.4 40.2873 32.75 39.4873 32.275L38.3623 31.6125C38.1623 31.4875 37.8248 31.4875 37.6248 31.6125L36.4998 32.275C35.6998 32.75 35.2123 32.4 35.4248 31.4875L35.6873 30.3375C35.7373 30.125 35.6498 29.8125 35.4873 29.6625L34.5623 28.7375C34.0123 28.1875 34.1873 27.6375 34.9623 27.5125L36.1623 27.3125C36.3623 27.275 36.5998 27.1 36.6873 26.925L37.3498 25.6C37.7123 24.875 38.2873 24.875 38.6498 25.5875Z" stroke="#292D32" stroke-width="1.8" stroke-linecap="round" stroke-linejoin="round"/>
</svg>
