<svg width="76" height="76" viewBox="0 0 76 76" fill="none" xmlns="http://www.w3.org/2000/svg">
<circle cx="38" cy="38" r="38" fill="#FAFAFA"/>
<path d="M42.9609 51.4375H32.9609C28.6859 51.4375 27.0234 49.775 27.0234 45.5V35.5C27.0234 34.9875 27.4484 34.5625 27.9609 34.5625H47.9609C48.4734 34.5625 48.8984 34.9875 48.8984 35.5V45.5C48.8984 49.775 47.2359 51.4375 42.9609 51.4375ZM28.8984 36.4375V45.5C28.8984 48.725 29.7359 49.5625 32.9609 49.5625H42.9609C46.1859 49.5625 47.0234 48.725 47.0234 45.5V36.4375H28.8984Z" fill="#292D32"/>
<path d="M47.375 36.4375H28.625C26.4375 36.4375 25.1875 35.1875 25.1875 33V31.75C25.1875 29.5625 26.4375 28.3125 28.625 28.3125H47.375C49.5 28.3125 50.8125 29.625 50.8125 31.75V33C50.8125 35.125 49.5 36.4375 47.375 36.4375ZM28.625 30.1875C27.4875 30.1875 27.0625 30.6125 27.0625 31.75V33C27.0625 34.1375 27.4875 34.5625 28.625 34.5625H47.375C48.475 34.5625 48.9375 34.1 48.9375 33V31.75C48.9375 30.65 48.475 30.1875 47.375 30.1875H28.625Z" fill="#292D32"/>
<path d="M37.5489 30.1875H30.6489C30.3864 30.1875 30.1364 30.075 29.9614 29.8875C29.1989 29.05 29.2239 27.7625 30.0239 26.9625L31.7989 25.1875C32.6239 24.3625 33.9864 24.3625 34.8114 25.1875L38.2114 28.5875C38.4739 28.85 38.5614 29.2625 38.4114 29.6125C38.2739 29.9625 37.9364 30.1875 37.5489 30.1875ZM31.3364 28.3125H35.2989L33.4864 26.5125C33.3864 26.4125 33.2239 26.4125 33.1239 26.5125L31.3489 28.2875C31.3489 28.3 31.3364 28.3 31.3364 28.3125Z" fill="#292D32"/>
<path d="M45.3357 30.1875H38.4357C38.0607 30.1875 37.7107 29.9625 37.5732 29.6125C37.4232 29.2625 37.5107 28.8625 37.7732 28.5875L41.1732 25.1875C41.9982 24.3625 43.3607 24.3625 44.1857 25.1875L45.9607 26.9625C46.7607 27.7625 46.7982 29.05 46.0232 29.8875C45.8482 30.075 45.5982 30.1875 45.3357 30.1875ZM40.7107 28.3125H44.6732C44.6607 28.3 44.6607 28.3 44.6482 28.2875L42.8732 26.5125C42.7732 26.4125 42.6107 26.4125 42.5107 26.5125L40.7107 28.3125Z" fill="#292D32"/>
<path d="M35.4219 44.125C35.0719 44.125 34.7094 44.0375 34.3844 43.8625C33.6719 43.475 33.2344 42.7375 33.2344 41.9375V35.5C33.2344 34.9875 33.6594 34.5625 34.1719 34.5625H41.7219C42.2344 34.5625 42.6594 34.9875 42.6594 35.5V41.9125C42.6594 42.725 42.2219 43.4625 41.5094 43.8375C40.7969 44.225 39.9344 44.175 39.2594 43.725L38.1469 42.975C38.0469 42.9 37.9094 42.9 37.7969 42.975L36.6219 43.75C36.2594 44 35.8344 44.125 35.4219 44.125ZM35.1094 36.4375V41.925C35.1094 42.0875 35.2094 42.1625 35.2719 42.2C35.3344 42.2375 35.4594 42.275 35.5969 42.1875L36.7719 41.4125C37.5094 40.925 38.4594 40.925 39.1844 41.4125L40.2969 42.1625C40.4344 42.25 40.5594 42.2125 40.6219 42.175C40.6844 42.1375 40.7844 42.0625 40.7844 41.9V36.425H35.1094V36.4375Z" fill="#292D32"/>
</svg>
