<svg width="76" height="76" viewBox="0 0 76 76" fill="none" xmlns="http://www.w3.org/2000/svg">
<circle cx="38" cy="38" r="38" fill="#FAFAFA"/>
<path d="M26.75 50.5H49.25" stroke="#292D32" stroke-width="1.8" stroke-linecap="round" stroke-linejoin="round"/>
<path d="M30 33.475H28C27.3125 33.475 26.75 34.0375 26.75 34.725V45.5C26.75 46.1875 27.3125 46.75 28 46.75H30C30.6875 46.75 31.25 46.1875 31.25 45.5V34.725C31.25 34.0375 30.6875 33.475 30 33.475Z" stroke="#292D32" stroke-width="1.8" stroke-linecap="round" stroke-linejoin="round"/>
<path d="M39 29.4875H37C36.3125 29.4875 35.75 30.05 35.75 30.7375V45.5C35.75 46.1875 36.3125 46.75 37 46.75H39C39.6875 46.75 40.25 46.1875 40.25 45.5V30.7375C40.25 30.05 39.6875 29.4875 39 29.4875Z" stroke="#292D32" stroke-width="1.8" stroke-linecap="round" stroke-linejoin="round"/>
<path d="M48 25.5H46C45.3125 25.5 44.75 26.0625 44.75 26.75V45.5C44.75 46.1875 45.3125 46.75 46 46.75H48C48.6875 46.75 49.25 46.1875 49.25 45.5V26.75C49.25 26.0625 48.6875 25.5 48 25.5Z" stroke="#292D32" stroke-width="1.8" stroke-linecap="round" stroke-linejoin="round"/>
</svg>
