<svg width="24" height="24" viewBox="0 0 24 24" fill="none" xmlns="http://www.w3.org/2000/svg">
<path d="M17 21.04H7C3.83 21.04 1.25 18.46 1.25 15.29V5.71C1.25 4.41 1.85 3.96 2.21 3.81C2.57 3.66 3.31 3.55 4.23 4.47L6.82 7.06C6.92 7.16 7.08 7.16 7.17 7.06L10.76 3.47C11.42 2.81 12.58 2.81 13.23 3.47L16.82 7.06C16.92 7.16 17.08 7.16 17.17 7.06L19.76 4.47C20.68 3.55 21.42 3.67 21.78 3.81C22.14 3.96 22.74 4.4 22.74 5.71V15.3C22.75 18.73 20.44 21.04 17 21.04ZM2.81 5.24C2.78 5.32 2.75 5.47 2.75 5.71V15.3C2.75 17.64 4.66 19.55 7 19.55H17C19.58 19.55 21.25 17.88 21.25 15.3V5.71C21.25 5.47 21.22 5.33 21.19 5.25C21.11 5.29 20.99 5.37 20.82 5.54L18.23 8.13C17.57 8.79 16.41 8.79 15.76 8.13L12.17 4.54C12.07 4.44 11.91 4.44 11.82 4.54L8.24 8.12C7.58 8.78 6.42 8.78 5.77 8.12L3.18 5.53C3.01 5.36 2.88 5.28 2.81 5.24Z" fill="#FFA500"/>
<path d="M21.9994 5.71V15.29C21.9994 18.05 19.7594 20.29 16.9994 20.29H6.99939C6.53939 20.29 6.09939 20.23 5.66939 20.11C5.04939 19.94 2.53951 17.96 2.99951 17.5L13.9993 6.5C14.2193 6.28 16.4894 7.79 16.7994 7.85C17.1194 7.91 17.4694 7.82 17.7194 7.58L20.2894 5C21.2294 4.06 21.9994 4.37 21.9994 5.71Z" fill="#FFA500"/>
<path d="M14.64 7.36L4.17 17.83C3.69 18.31 2.89 18.19 2.57 17.59C2.2 16.91 2 16.12 2 15.29V5.71C2 4.37 2.77 4.06 3.71 5L6.29 7.59C6.68 7.97 7.32 7.97 7.71 7.59L11.29 4C11.68 3.61 12.32 3.61 12.71 4L14.65 5.94C15.03 6.33 15.03 6.97 14.64 7.36Z" fill="#FFA500"/>
</svg>
