<svg width="20" height="20" viewBox="0 0 20 20" fill="none" xmlns="http://www.w3.org/2000/svg">
<path d="M14.9981 11.0993L11.4397 7.49125C11.3558 7.40616 11.2412 7.35824 11.1217 7.35824H9.36485H5.76184H4.00501C3.88548 7.35824 3.77093 7.40616 3.687 7.49125L0.128654 11.0993C-0.0355828 11.2658 -0.0435597 11.5308 0.110396 11.7069L7.22708 19.8473C7.31191 19.9444 7.43448 20 7.56336 20C7.69223 20 7.81478 19.9443 7.89963 19.8473L15.0163 11.7069C15.1702 11.5308 15.1623 11.2658 14.9981 11.0993ZM10.9348 8.25154L13.6122 10.9662H11.4426L10.0871 8.25154H10.9348ZM6.03807 8.25154H9.08864L10.4441 10.9662H4.68261L6.03807 8.25154ZM4.19182 8.25154H5.03957L3.6841 10.9662H1.51449L4.19182 8.25154ZM1.43043 11.8596H3.6696L5.96569 17.0473L1.43043 11.8596ZM7.56336 18.4498L4.64651 11.8595H10.4802L7.56336 18.4498ZM9.16099 17.0473L11.4571 11.8595H13.6963L9.16099 17.0473Z" fill="url(#paint0_linear_167_1978)"/>
<path d="M13.8082 6.01655L12.7846 2.30174L9.61266 4.48956L6.49609 1.0927L6.66076 6.88054C6.66595 7.06311 6.78208 7.22409 6.95394 7.28668L14.047 9.86842C14.2189 9.93084 14.4113 9.88214 14.5327 9.74559L18.3792 5.41781L13.8082 6.01655Z" fill="#FFCD34"/>
<path d="M16.5783 5.65388L13.5075 9.37154C13.3927 9.51043 13.2163 9.56499 13.0625 9.50893L14.0496 9.86821C14.2215 9.9308 14.414 9.8821 14.5353 9.74555L18.3818 5.41759L16.5783 5.65388Z" fill="#E69012"/>
<path d="M13.1436 1.25651C12.8313 1.14272 12.4861 1.30387 12.3724 1.61613C12.2586 1.92839 12.4198 2.27361 12.7321 2.38724C13.0443 2.50103 13.3895 2.33988 13.5032 2.02762C13.617 1.71536 13.4558 1.37014 13.1436 1.25651Z" fill="#FF8736"/>
<path d="M18.7687 4.37127C18.4564 4.25764 18.111 4.41863 17.9974 4.73089C17.8837 5.04314 18.0447 5.38837 18.357 5.50216C18.6693 5.61579 19.0146 5.4548 19.1283 5.14238C19.2419 4.83012 19.0809 4.48489 18.7687 4.37127Z" fill="#FF8736"/>
<path d="M6.85068 0.0364373C6.53842 -0.0771876 6.1932 0.0837949 6.0794 0.396054C5.96578 0.708314 6.12676 1.05371 6.43919 1.16733C6.75145 1.28096 7.09667 1.11997 7.2103 0.807714C7.32392 0.495288 7.16294 0.150062 6.85068 0.0364373Z" fill="#FF8736"/>
<path d="M11.525 5.73603C11.1666 5.6055 10.7348 5.88731 10.5608 6.36523C10.3869 6.84333 10.5365 7.33665 10.895 7.46718C11.2536 7.5977 11.6853 7.3159 11.8592 6.83781C12.0332 6.35971 11.8836 5.86639 11.525 5.73603Z" fill="#FA7EC1"/>
<defs>
<linearGradient id="paint0_linear_167_1978" x1="7.56334" y1="7.35824" x2="7.56334" y2="20" gradientUnits="userSpaceOnUse">
<stop stop-color="#FF8000"/>
<stop offset="1" stop-color="#FFA500"/>
</linearGradient>
</defs>
</svg>
