<svg width="50" height="79" viewBox="0 0 50 79" fill="none" xmlns="http://www.w3.org/2000/svg">
<rect x="12" width="26" height="31" fill="url(#paint0_angular_6788_14407)"/>
<path d="M24.6851 20L29.6695 28.6332H19.7008L24.6851 20Z" fill="url(#paint1_angular_6788_14407)"/>
<path d="M24.6851 78.9932L29.6695 70.3601H19.7008L24.6851 78.9932Z" fill="url(#paint2_angular_6788_14407)"/>
<path d="M45.3041 28.88L42.724 38.509L35.6751 31.4601L45.3041 28.88Z" fill="url(#paint3_angular_6788_14407)"/>
<path d="M45.3041 70.3389L42.724 60.7099L35.6751 67.7588L45.3041 70.3389Z" fill="url(#paint4_angular_6788_14407)"/>
<path d="M4.07092 28.88L6.65101 38.509L13.6999 31.4601L4.07092 28.88Z" fill="url(#paint5_angular_6788_14407)"/>
<path d="M4.07092 70.3389L6.65101 60.7099L13.6999 67.7588L4.07092 70.3389Z" fill="url(#paint6_angular_6788_14407)"/>
<circle cx="24.6838" cy="49.4966" r="20.8635" fill="url(#paint7_linear_6788_14407)" stroke="#8029A9" stroke-width="1.68513"/>
<circle cx="24.5" cy="49.5" r="16.5" fill="url(#paint8_linear_6788_14407)"/>
<path d="M25.728 45.776C24.448 45.776 24.416 45.872 24.304 46.144L20.64 55.728C20.528 56 20.48 56.128 20.032 56.128C19.6 56.128 19.536 56 19.44 55.728L15.648 45.776H14.352V45.024C14.928 45.072 16.08 45.072 16.704 45.072C17.344 45.072 18.72 45.072 19.296 45.024V45.776H17.984L20.752 53.056L23.456 45.936C23.056 45.776 22.512 45.776 22.224 45.776V45.024L24.096 45.072L25.728 45.024V45.776ZM33.6298 56C33.0058 55.952 32.0138 55.952 31.3578 55.952C30.7338 55.952 29.4218 55.952 28.8618 56V55.248H30.4138V53.504H26.5418V52.752L31.4538 45.744C31.6138 45.504 31.6938 45.504 31.9498 45.504C32.3978 45.504 32.4138 45.616 32.4138 46.016V52.752H33.6298V53.504H32.4138V55.248H33.6298V56ZM30.5898 52.752V48.112L27.3258 52.752H30.5898Z" fill="white"/>
<defs>
<radialGradient id="paint0_angular_6788_14407" cx="0" cy="0" r="1" gradientUnits="userSpaceOnUse" gradientTransform="translate(25 0.815789) rotate(90) scale(20.3947 17.1053)">
<stop stop-color="#8039A1"/>
<stop offset="1" stop-color="#E4AFFD"/>
</radialGradient>
<radialGradient id="paint1_angular_6788_14407" cx="0" cy="0" r="1" gradientUnits="userSpaceOnUse" gradientTransform="translate(24.6851 20.5755) rotate(90) scale(9.78424 10.8818)">
<stop stop-color="#843EA5"/>
<stop offset="1" stop-color="#EABCFF"/>
</radialGradient>
<radialGradient id="paint2_angular_6788_14407" cx="0" cy="0" r="1" gradientUnits="userSpaceOnUse" gradientTransform="translate(24.6851 78.4177) rotate(-90) scale(9.78424 10.8818)">
<stop stop-color="#843EA5"/>
<stop offset="1" stop-color="#EABCFF"/>
</radialGradient>
<radialGradient id="paint3_angular_6788_14407" cx="0" cy="0" r="1" gradientUnits="userSpaceOnUse" gradientTransform="translate(44.8971 29.287) rotate(135) scale(9.78424 10.8818)">
<stop stop-color="#843EA5"/>
<stop offset="1" stop-color="#EABCFF"/>
</radialGradient>
<radialGradient id="paint4_angular_6788_14407" cx="0" cy="0" r="1" gradientUnits="userSpaceOnUse" gradientTransform="translate(44.8971 69.932) rotate(-135) scale(9.78424 10.8818)">
<stop stop-color="#843EA5"/>
<stop offset="1" stop-color="#EABCFF"/>
</radialGradient>
<radialGradient id="paint5_angular_6788_14407" cx="0" cy="0" r="1" gradientUnits="userSpaceOnUse" gradientTransform="translate(4.47789 29.287) rotate(45) scale(9.78424 10.8818)">
<stop stop-color="#843EA5"/>
<stop offset="1" stop-color="#EABCFF"/>
</radialGradient>
<radialGradient id="paint6_angular_6788_14407" cx="0" cy="0" r="1" gradientUnits="userSpaceOnUse" gradientTransform="translate(4.47789 69.932) rotate(-45) scale(9.78424 10.8818)">
<stop stop-color="#843EA5"/>
<stop offset="1" stop-color="#EABCFF"/>
</radialGradient>
<linearGradient id="paint7_linear_6788_14407" x1="24.6837" y1="26.5" x2="24.6837" y2="70.3601" gradientUnits="userSpaceOnUse">
<stop stop-color="#EFCBFF"/>
<stop offset="1" stop-color="#8742A3"/>
</linearGradient>
<linearGradient id="paint8_linear_6788_14407" x1="37.9917" y1="63.4328" x2="15.0569" y2="40.4979" gradientUnits="userSpaceOnUse">
<stop stop-color="#8039A1"/>
<stop offset="1" stop-color="#E6B1FF"/>
</linearGradient>
</defs>
</svg>
