<svg width="50" height="79" viewBox="0 0 50 79" fill="none" xmlns="http://www.w3.org/2000/svg">
<rect x="12" width="26" height="31" fill="url(#paint0_angular_6788_14435)"/>
<path d="M24.6851 20L29.6695 28.6332H19.7008L24.6851 20Z" fill="url(#paint1_angular_6788_14435)"/>
<path d="M24.6851 78.9932L29.6695 70.3601H19.7008L24.6851 78.9932Z" fill="url(#paint2_angular_6788_14435)"/>
<path d="M45.3041 28.88L42.724 38.509L35.6751 31.4601L45.3041 28.88Z" fill="url(#paint3_angular_6788_14435)"/>
<path d="M45.3041 70.3389L42.724 60.7099L35.6751 67.7588L45.3041 70.3389Z" fill="url(#paint4_angular_6788_14435)"/>
<path d="M4.07092 28.88L6.65101 38.509L13.6999 31.4601L4.07092 28.88Z" fill="url(#paint5_angular_6788_14435)"/>
<path d="M4.07092 70.3389L6.65101 60.7099L13.6999 67.7588L4.07092 70.3389Z" fill="url(#paint6_angular_6788_14435)"/>
<circle cx="24.6838" cy="49.4966" r="20.8635" fill="url(#paint7_linear_6788_14435)" stroke="white" stroke-width="1.68513"/>
<circle cx="24.5" cy="49.5" r="16.5" fill="url(#paint8_linear_6788_14435)"/>
<path d="M25.728 45.776C24.448 45.776 24.416 45.872 24.304 46.144L20.64 55.728C20.528 56 20.48 56.128 20.032 56.128C19.6 56.128 19.536 56 19.44 55.728L15.648 45.776H14.352V45.024C14.928 45.072 16.08 45.072 16.704 45.072C17.344 45.072 18.72 45.072 19.296 45.024V45.776H17.984L20.752 53.056L23.456 45.936C23.056 45.776 22.512 45.776 22.224 45.776V45.024L24.096 45.072L25.728 45.024V45.776ZM33.4058 52.72C33.4058 55.04 31.8858 56.176 30.1418 56.176C26.7658 56.176 26.7658 52 26.7658 50.944C26.7658 46.432 29.5178 45.52 30.9418 45.52C32.4938 45.52 33.0058 46.64 33.0058 47.504C33.0058 48.176 32.5738 48.544 31.9978 48.544C31.3738 48.544 31.0058 48.096 31.0058 47.552C31.0058 46.896 31.5018 46.592 31.9338 46.544C31.6938 46.256 31.3098 46.144 30.9738 46.144C30.5898 46.144 29.3418 46.32 29.0538 48.272C28.9418 49.04 28.9418 50.016 28.9418 50.096C29.3738 49.312 30.0938 49.312 30.3018 49.312C31.9018 49.312 33.4058 50.368 33.4058 52.72ZM31.2298 52.656C31.2298 52.288 31.2298 51.232 31.1818 50.816C31.1178 50.32 30.7818 49.888 30.1898 49.888C28.9578 49.888 28.9578 51.792 28.9578 52.736C28.9578 53.28 28.9578 54.256 29.0858 54.592C29.2458 55.04 29.5818 55.488 30.1098 55.488C30.7018 55.488 31.1018 55.12 31.1818 54.528C31.2298 54.048 31.2298 53.264 31.2298 52.656Z" fill="white"/>
<defs>
<radialGradient id="paint0_angular_6788_14435" cx="0" cy="0" r="1" gradientUnits="userSpaceOnUse" gradientTransform="translate(25 0.815789) rotate(90) scale(20.3947 17.1053)">
<stop stop-color="#308949"/>
<stop offset="1" stop-color="#76D591"/>
</radialGradient>
<radialGradient id="paint1_angular_6788_14435" cx="0" cy="0" r="1" gradientUnits="userSpaceOnUse" gradientTransform="translate(24.6851 20.5755) rotate(90) scale(9.78424 10.8818)">
<stop stop-color="#399352"/>
<stop offset="1" stop-color="#70CE8A"/>
</radialGradient>
<radialGradient id="paint2_angular_6788_14435" cx="0" cy="0" r="1" gradientUnits="userSpaceOnUse" gradientTransform="translate(24.6851 78.4177) rotate(-90) scale(9.78424 10.8818)">
<stop stop-color="#399352"/>
<stop offset="1" stop-color="#70CE8A"/>
</radialGradient>
<radialGradient id="paint3_angular_6788_14435" cx="0" cy="0" r="1" gradientUnits="userSpaceOnUse" gradientTransform="translate(44.8971 29.287) rotate(135) scale(9.78424 10.8818)">
<stop stop-color="#399352"/>
<stop offset="1" stop-color="#70CE8A"/>
</radialGradient>
<radialGradient id="paint4_angular_6788_14435" cx="0" cy="0" r="1" gradientUnits="userSpaceOnUse" gradientTransform="translate(44.8971 69.9319) rotate(-135) scale(9.78424 10.8818)">
<stop stop-color="#399352"/>
<stop offset="1" stop-color="#70CE8A"/>
</radialGradient>
<radialGradient id="paint5_angular_6788_14435" cx="0" cy="0" r="1" gradientUnits="userSpaceOnUse" gradientTransform="translate(4.47789 29.287) rotate(45) scale(9.78424 10.8818)">
<stop stop-color="#399352"/>
<stop offset="1" stop-color="#70CE8A"/>
</radialGradient>
<radialGradient id="paint6_angular_6788_14435" cx="0" cy="0" r="1" gradientUnits="userSpaceOnUse" gradientTransform="translate(4.47789 69.9319) rotate(-45) scale(9.78424 10.8818)">
<stop stop-color="#399352"/>
<stop offset="1" stop-color="#70CE8A"/>
</radialGradient>
<linearGradient id="paint7_linear_6788_14435" x1="24.6837" y1="26.5" x2="24.6837" y2="70.3601" gradientUnits="userSpaceOnUse">
<stop stop-color="#71CF8B"/>
<stop offset="1" stop-color="#246838"/>
</linearGradient>
<linearGradient id="paint8_linear_6788_14435" x1="37.9917" y1="63.4328" x2="9.5" y2="34" gradientUnits="userSpaceOnUse">
<stop stop-color="#45AB62"/>
<stop offset="1" stop-color="#287D40"/>
</linearGradient>
</defs>
</svg>
