<svg width="50" height="79" viewBox="0 0 50 79" fill="none" xmlns="http://www.w3.org/2000/svg">
<rect x="12" width="26" height="38" fill="url(#paint0_angular_6397_13142)"/>
<path d="M24.6851 20L29.6695 28.6332H19.7008L24.6851 20Z" fill="url(#paint1_angular_6397_13142)"/>
<path d="M24.6851 78.9932L29.6695 70.36H19.7008L24.6851 78.9932Z" fill="url(#paint2_angular_6397_13142)"/>
<path d="M45.3041 28.88L42.724 38.509L35.6751 31.4601L45.3041 28.88Z" fill="url(#paint3_angular_6397_13142)"/>
<path d="M45.3041 70.3389L42.724 60.7098L35.6751 67.7588L45.3041 70.3389Z" fill="url(#paint4_angular_6397_13142)"/>
<path d="M4.07092 28.88L6.65101 38.509L13.6999 31.4601L4.07092 28.88Z" fill="url(#paint5_angular_6397_13142)"/>
<path d="M4.07092 70.3389L6.65101 60.7098L13.6999 67.7588L4.07092 70.3389Z" fill="url(#paint6_angular_6397_13142)"/>
<circle cx="24.6838" cy="49.4966" r="20.8635" fill="url(#paint7_linear_6397_13142)" stroke="white" stroke-width="1.68513"/>
<circle cx="24.5" cy="49.5" r="16.5" fill="url(#paint8_linear_6397_13142)"/>
<path d="M25.728 45.776C24.448 45.776 24.416 45.872 24.304 46.144L20.64 55.728C20.528 56 20.48 56.128 20.032 56.128C19.6 56.128 19.536 56 19.44 55.728L15.648 45.776H14.352V45.024C14.928 45.072 16.08 45.072 16.704 45.072C17.344 45.072 18.72 45.072 19.296 45.024V45.776H17.984L20.752 53.056L23.456 45.936C23.056 45.776 22.512 45.776 22.224 45.776V45.024L24.096 45.072L25.728 45.024V45.776ZM33.4538 50.896C33.4538 52.448 33.4538 56.176 30.0778 56.176C26.7178 56.176 26.7178 52.432 26.7178 50.896C26.7178 49.344 26.7178 45.52 30.0938 45.52C33.4538 45.52 33.4538 49.376 33.4538 50.896ZM31.4058 50.704C31.4058 50.144 31.4058 48.384 31.3418 47.664C31.2458 46.368 30.4938 46.096 30.0778 46.096C29.9178 46.096 28.9418 46.144 28.8138 47.68C28.7658 48.368 28.7658 50.016 28.7658 50.72C28.7658 51.248 28.7658 53.088 28.8298 53.904C28.9258 55.424 29.7898 55.6 30.0938 55.6C30.4138 55.6 31.2298 55.376 31.3418 53.984C31.4058 53.216 31.4058 51.76 31.4058 50.704Z" fill="white"/>
<defs>
<radialGradient id="paint0_angular_6397_13142" cx="0" cy="0" r="1" gradientUnits="userSpaceOnUse" gradientTransform="translate(25 0.999999) rotate(90) scale(25 17.1053)">
<stop stop-color="#979EA6"/>
<stop offset="1" stop-color="#E5E9EC"/>
</radialGradient>
<radialGradient id="paint1_angular_6397_13142" cx="0" cy="0" r="1" gradientUnits="userSpaceOnUse" gradientTransform="translate(24.6851 20.5755) rotate(90) scale(9.78424 10.8818)">
<stop stop-color="#949DA6"/>
<stop offset="1" stop-color="#E5E8EB"/>
</radialGradient>
<radialGradient id="paint2_angular_6397_13142" cx="0" cy="0" r="1" gradientUnits="userSpaceOnUse" gradientTransform="translate(24.6851 78.4176) rotate(-90) scale(9.78424 10.8818)">
<stop stop-color="#949DA6"/>
<stop offset="1" stop-color="#E5E8EB"/>
</radialGradient>
<radialGradient id="paint3_angular_6397_13142" cx="0" cy="0" r="1" gradientUnits="userSpaceOnUse" gradientTransform="translate(44.8971 29.287) rotate(135) scale(9.78424 10.8818)">
<stop stop-color="#949DA6"/>
<stop offset="1" stop-color="#E5E8EB"/>
</radialGradient>
<radialGradient id="paint4_angular_6397_13142" cx="0" cy="0" r="1" gradientUnits="userSpaceOnUse" gradientTransform="translate(44.8971 69.9319) rotate(-135) scale(9.78424 10.8818)">
<stop stop-color="#949DA6"/>
<stop offset="1" stop-color="#E5E8EB"/>
</radialGradient>
<radialGradient id="paint5_angular_6397_13142" cx="0" cy="0" r="1" gradientUnits="userSpaceOnUse" gradientTransform="translate(4.47789 29.287) rotate(45) scale(9.78424 10.8818)">
<stop stop-color="#949DA6"/>
<stop offset="1" stop-color="#E5E8EB"/>
</radialGradient>
<radialGradient id="paint6_angular_6397_13142" cx="0" cy="0" r="1" gradientUnits="userSpaceOnUse" gradientTransform="translate(4.47789 69.9319) rotate(-45) scale(9.78424 10.8818)">
<stop stop-color="#949DA6"/>
<stop offset="1" stop-color="#E5E8EB"/>
</radialGradient>
<linearGradient id="paint7_linear_6397_13142" x1="24.6837" y1="26.5" x2="24.6837" y2="70.3601" gradientUnits="userSpaceOnUse">
<stop stop-color="white"/>
<stop offset="1" stop-color="#939AA4"/>
</linearGradient>
<linearGradient id="paint8_linear_6397_13142" x1="39" y1="59.5" x2="15.0569" y2="40.4979" gradientUnits="userSpaceOnUse">
<stop stop-color="#C9CED4"/>
<stop offset="1" stop-color="#959CA4"/>
</linearGradient>
</defs>
</svg>
