<svg width="52" height="15" viewBox="0 0 52 15" fill="none" xmlns="http://www.w3.org/2000/svg">
<path d="M22.455 14.1413H18.2303L20.8701 0.29009H25.0986L22.455 14.1413ZM14.6726 0.29009L10.643 9.81666L10.1668 7.76554L8.74445 1.53806C8.74445 1.53806 8.57373 0.29009 6.73967 0.29009H0.0782826L0 0.524875C0 0.524875 2.03692 0.886738 4.42141 2.10823L8.09372 14.1413H12.4971L19.2227 0.29009H14.6726ZM47.9193 14.1413H51.8004L48.4175 0.29009H45.0205C43.4516 0.29009 43.0678 1.32272 43.0678 1.32272L36.7641 14.1413H41.1695L42.0514 12.0849H47.4251L47.9193 14.1413ZM43.2688 9.24299L45.4885 4.05872L46.7381 9.24299H43.2688ZM37.0956 3.62271L37.6983 0.646672C37.6983 0.646672 35.8359 0.0429688 33.8974 0.0429688C31.8002 0.0429688 26.8182 0.824947 26.8182 4.62886C26.8182 8.20684 32.666 8.25097 32.666 10.1291C32.666 12.0072 27.4209 11.6736 25.6913 10.4874L25.0624 13.5959C25.0624 13.5959 26.9489 14.3796 29.8335 14.3796C32.7163 14.3796 37.0694 13.1052 37.0694 9.63663C37.0694 6.03747 31.1694 5.70032 31.1694 4.13462C31.1694 2.56893 35.2855 2.7719 37.0956 3.62271Z" fill="#6BB6ED"/>
</svg>
