<svg width="24" height="24" viewBox="0 0 24 24" fill="none" xmlns="http://www.w3.org/2000/svg">
<path d="M15.5 7.66638C15.5 5.95405 13.4884 5.03352 12.1926 6.15289L9.76318 8.25152C9.39989 8.56535 8.93584 8.73803 8.45577 8.73804L7.49998 8.73804C6.11928 8.73805 5 9.85734 5 11.238V13.4944C5 14.8751 6.11929 15.9944 7.5 15.9944H8.45579C8.93587 15.9944 9.39993 16.1671 9.76322 16.4809L12.1926 18.5795C13.4884 19.6989 15.5 18.7784 15.5 17.066V12.3662V7.66638Z" stroke="#081131"/>
<path d="M18.125 14.9917C18.6744 14.2605 19 13.3516 19 12.3667C19 11.3818 18.6744 10.4729 18.125 9.7417" stroke="#081131" stroke-linecap="round"/>
</svg>
