<svg width="55" height="55" viewBox="0 0 55 55" fill="none" xmlns="http://www.w3.org/2000/svg">
<circle cx="27.5" cy="27.5" r="27.5" fill="#FAFAFA"/>
<path d="M30.5 31.75H25.5C25.09 31.75 24.75 31.41 24.75 31C24.75 30.59 25.09 30.25 25.5 30.25H30.5C30.91 30.25 31.25 30.59 31.25 31C31.25 31.41 30.91 31.75 30.5 31.75Z" fill="#71839B"/>
<path d="M21.2016 25.46C21.0116 25.46 20.8216 25.38 20.6716 25.24C20.4616 25.03 20.3916 24.7 20.5116 24.42L22.3716 19.98C22.4116 19.89 22.4316 19.83 22.4616 19.78C23.9416 16.37 25.8316 15.54 29.1716 16.82C29.3616 16.89 29.5116 17.04 29.5916 17.23C29.6716 17.42 29.6716 17.63 29.5916 17.82L26.6616 24.62C26.5416 24.89 26.2716 25.07 25.9716 25.07H23.1216C22.5516 25.07 22.0116 25.18 21.4916 25.4C21.4016 25.44 21.3016 25.46 21.2016 25.46ZM26.6116 17.75C25.3716 17.75 24.6116 18.56 23.8216 20.4C23.8116 20.43 23.7916 20.46 23.7816 20.49L22.4716 23.6C22.6916 23.58 22.9016 23.57 23.1216 23.57H25.4716L27.8816 17.97C27.4116 17.82 26.9916 17.75 26.6116 17.75Z" fill="#71839B"/>
<path d="M34.2883 25.27C34.2183 25.27 34.1383 25.26 34.0683 25.24C33.6983 25.13 33.2883 25.07 32.8683 25.07H25.9683C25.7183 25.07 25.4783 24.94 25.3383 24.73C25.2083 24.52 25.1783 24.25 25.2783 24.02L28.1783 17.29C28.3283 16.93 28.7583 16.69 29.1383 16.81C29.2583 16.85 29.3683 16.9 29.4883 16.95L31.8483 17.94C33.2283 18.51 34.1483 19.11 34.7483 19.83C34.8683 19.97 34.9683 20.12 35.0583 20.27C35.1683 20.44 35.2683 20.65 35.3383 20.86C35.3683 20.93 35.4183 21.06 35.4483 21.2C35.7283 22.14 35.5883 23.31 34.9883 24.81C34.8683 25.09 34.5883 25.27 34.2883 25.27ZM27.1083 23.57H32.8783C33.1983 23.57 33.5083 23.6 33.8183 23.65C34.0983 22.78 34.1583 22.11 33.9983 21.57C33.9783 21.48 33.9583 21.44 33.9483 21.4C33.8883 21.24 33.8483 21.15 33.7983 21.07C33.7283 20.96 33.6783 20.87 33.5983 20.78C33.1683 20.26 32.4083 19.78 31.2783 19.32L29.2983 18.49L27.1083 23.57Z" fill="#71839B"/>
<path d="M31.9 37.7499H24.1C23.82 37.7499 23.56 37.7299 23.3 37.6999C19.79 37.4599 17.79 35.4599 17.55 31.9099C17.52 31.6899 17.5 31.4199 17.5 31.1499V29.1999C17.5 26.9499 18.84 24.9199 20.91 24.0199C21.61 23.7199 22.36 23.5699 23.13 23.5699H32.89C33.46 23.5699 34.01 23.6499 34.52 23.8099C36.87 24.5199 38.52 26.7399 38.52 29.1999V31.1499C38.52 31.3699 38.51 31.5799 38.5 31.7799C38.28 35.6899 36 37.7499 31.9 37.7499ZM23.12 25.0699C22.55 25.0699 22.01 25.1799 21.49 25.3999C19.97 26.0599 18.99 27.5499 18.99 29.1999V31.1499C18.99 31.3599 19.01 31.5699 19.03 31.7699C19.22 34.6199 20.62 36.0199 23.43 36.2099C23.68 36.2399 23.88 36.2599 24.09 36.2599H31.89C35.19 36.2599 36.81 34.8099 36.97 31.7099C36.98 31.5299 36.99 31.3499 36.99 31.1499V29.1999C36.99 27.3899 35.78 25.7699 34.06 25.2399C33.69 25.1299 33.28 25.0699 32.86 25.0699H23.12Z" fill="#71839B"/>
<path d="M18.2383 29.95C17.8283 29.95 17.4883 29.61 17.4883 29.2V26.27C17.4883 23.12 19.7183 20.4 22.7983 19.8C23.0683 19.75 23.3483 19.85 23.5283 20.06C23.6983 20.27 23.7483 20.57 23.6383 20.82L21.8883 25C21.8083 25.18 21.6683 25.32 21.4983 25.4C19.9783 26.06 18.9983 27.55 18.9983 29.2C18.9883 29.61 18.6583 29.95 18.2383 29.95ZM21.5983 21.82C20.3183 22.54 19.3883 23.8 19.0983 25.27C19.5383 24.82 20.0483 24.44 20.6283 24.16L21.5983 21.82Z" fill="#71839B"/>
<path d="M37.7611 29.95C37.3511 29.95 37.0111 29.61 37.0111 29.2C37.0111 27.39 35.8011 25.77 34.0811 25.24C33.8811 25.18 33.7111 25.04 33.6211 24.85C33.5311 24.66 33.5211 24.44 33.6011 24.25C34.0711 23.08 34.1911 22.23 34.0011 21.57C33.9811 21.48 33.9611 21.44 33.9511 21.4C33.8211 21.11 33.8911 20.77 34.1211 20.55C34.3511 20.33 34.7011 20.28 34.9811 20.43C37.1611 21.57 38.5111 23.81 38.5111 26.27V29.2C38.5111 29.61 38.1711 29.95 37.7611 29.95ZM35.2511 24.09C35.8811 24.38 36.4411 24.79 36.9111 25.28C36.7211 24.3 36.2511 23.41 35.5611 22.71C35.5111 23.13 35.4111 23.59 35.2511 24.09Z" fill="#71839B"/>
</svg>
