<svg width="44" height="44" viewBox="0 0 44 44" fill="none" xmlns="http://www.w3.org/2000/svg">
<rect x="0.5" y="0.5" width="43" height="43" rx="21.5" fill="#20B038"/>
<rect x="0.5" y="0.5" width="43" height="43" rx="21.5" stroke="#20B038"/>
<mask id="mask0_4004_11512" style="mask-type:alpha" maskUnits="userSpaceOnUse" x="-7" y="-7" width="58" height="58">
<rect x="-7" y="-7" width="58" height="58" fill="#D9D9D9"/>
</mask>
<g mask="url(#mask0_4004_11512)">
<path d="M12.043 32L13.4492 26.8633C12.582 25.3633 12.1289 23.6562 12.1289 21.9102C12.1289 16.4453 16.5781 12 22.043 12C24.6953 12 27.1836 13.0352 29.0547 14.9062C30.9258 16.7812 31.957 19.2695 31.957 21.918C31.9531 27.3828 27.5078 31.8281 22.043 31.8281H22.0391C20.3789 31.8281 18.75 31.4102 17.3008 30.6211L12.043 32ZM17.543 28.8281L17.8438 29.0078C19.1094 29.7578 20.5586 30.1562 22.0391 30.1562H22.043C26.5859 30.1562 30.2813 26.4609 30.2813 21.918C30.2813 19.7188 29.4258 17.6484 27.8711 16.0898C26.3164 14.5312 24.2461 13.6758 22.0469 13.6758C17.5 13.6758 13.8047 17.3711 13.8047 21.9141C13.8047 23.4688 14.2383 24.9844 15.0625 26.2969L15.2578 26.6094L14.4258 29.6484L17.543 28.8281Z" fill="white"/>
<path fill-rule="evenodd" clip-rule="evenodd" d="M19.5664 17.7666C19.3789 17.3525 19.1836 17.3447 19.0078 17.3369C18.8633 17.3291 18.6992 17.333 18.5313 17.333C18.3672 17.333 18.0977 17.3955 17.8711 17.6416C17.6445 17.8877 17.0039 18.4893 17.0039 19.708C17.0039 20.9268 17.8906 22.1064 18.0156 22.2705C18.1406 22.4346 19.7305 25.0166 22.2461 26.0088C24.3398 26.833 24.7656 26.6689 25.2188 26.6299C25.6719 26.5908 26.6836 26.0322 26.8906 25.4541C27.0977 24.876 27.0977 24.3799 27.0352 24.2783C26.9727 24.1768 26.8086 24.1143 26.5586 23.9893C26.3125 23.8643 25.0938 23.2666 24.8672 23.1846C24.6406 23.1025 24.4766 23.0596 24.3086 23.3096C24.1445 23.5557 23.668 24.1143 23.5234 24.2783C23.3789 24.4424 23.2344 24.4658 22.9883 24.3408C22.7422 24.2158 21.9414 23.9541 20.9961 23.1104C20.2578 22.4541 19.7617 21.6416 19.6172 21.3955C19.4727 21.1494 19.6016 21.0127 19.7266 20.8916C19.8359 20.7822 19.9727 20.6025 20.0977 20.458C20.2227 20.3135 20.2617 20.2119 20.3438 20.0439C20.4258 19.8799 20.3867 19.7354 20.3242 19.6104C20.2695 19.4814 19.7891 18.2588 19.5664 17.7666Z" fill="white"/>
</g>
</svg>
