<svg width="21" height="21" viewBox="0 0 21 21" fill="none" xmlns="http://www.w3.org/2000/svg">
<path d="M0.351562 19.8395L1.72384 14.8354C0.876026 13.3725 0.430429 11.7084 0.430429 10.0088C0.434373 4.68135 4.7681 0.351562 10.0916 0.351562C12.6745 0.351562 15.1036 1.35711 16.9254 3.18288C18.7512 5.00864 19.7567 7.43379 19.7528 10.0167C19.7488 15.3402 15.4151 19.6739 10.0916 19.6739H10.0877C8.47089 19.6739 6.88173 19.2677 5.47001 18.4988L0.351562 19.8395Z" fill="url(#paint0_linear_1935_31584)"/>
<path d="M0 20.1899L1.4196 15.0044C0.54418 13.4902 0.0867534 11.7669 0.0867534 10.0042C0.0867534 4.48752 4.57821 0 10.0949 0C12.7725 0 15.2844 1.04498 17.1732 2.93384C19.0621 4.82664 20.1031 7.33855 20.1031 10.0121C20.0992 15.5289 15.6117 20.0164 10.0949 20.0164H10.091C8.41508 20.0164 6.77071 19.5944 5.30773 18.7979L0 20.1899ZM5.55222 16.9879L5.85585 17.1693C7.13349 17.9264 8.59647 18.3286 10.091 18.3286H10.0949C14.681 18.3286 18.4114 14.5982 18.4114 10.0121C18.4114 7.79203 17.5478 5.70206 15.9784 4.12867C14.4089 2.55528 12.319 1.69169 10.0989 1.69169C5.50884 1.69169 1.77844 5.42209 1.77844 10.0082C1.77844 11.5776 2.21616 13.1076 3.0482 14.4326L3.24537 14.7481L2.40544 17.816L5.55222 16.9879Z" fill="#EDEDED"/>
<path fill-rule="evenodd" clip-rule="evenodd" d="M7.59464 5.82053C7.40536 5.40254 7.20819 5.39465 7.03074 5.38677C6.88484 5.37888 6.71922 5.38282 6.54966 5.38282C6.38404 5.38282 6.11195 5.44591 5.88323 5.69434C5.65452 5.94278 5.00781 6.55005 5.00781 7.78037C5.00781 9.01069 5.90295 10.2016 6.02914 10.3672C6.15532 10.5328 7.76026 13.1394 10.2998 14.141C12.4134 14.973 12.8432 14.8074 13.3006 14.768C13.7581 14.7285 14.7794 14.1646 14.9884 13.581C15.1974 12.9974 15.1974 12.4966 15.1343 12.3941C15.0712 12.2915 14.9056 12.2285 14.6532 12.1023C14.4048 11.9761 13.1745 11.3727 12.9457 11.2899C12.717 11.2071 12.5514 11.1638 12.3819 11.4161C12.2162 11.6646 11.7351 12.2285 11.5892 12.3941C11.4433 12.5597 11.2974 12.5834 11.049 12.4572C10.8006 12.331 9.99219 12.0668 9.0379 11.215C8.29261 10.5525 7.79181 9.73232 7.6459 9.48389C7.5 9.23546 7.63013 9.09744 7.75632 8.9752C7.86673 8.86479 8.00475 8.68339 8.13093 8.53749C8.25712 8.39159 8.29656 8.28906 8.37937 8.1195C8.46218 7.95388 8.42274 7.80797 8.35965 7.68179C8.30444 7.55166 7.81941 6.31739 7.59464 5.82053Z" fill="white"/>
<defs>
<linearGradient id="paint0_linear_1935_31584" x1="10.0521" y1="19.8411" x2="10.0521" y2="0.350222" gradientUnits="userSpaceOnUse">
<stop stop-color="#20B038"/>
<stop offset="1" stop-color="#60D66A"/>
</linearGradient>
</defs>
</svg>
