<svg width="16" height="16" viewBox="0 0 16 16" fill="none" xmlns="http://www.w3.org/2000/svg">
<path d="M8.1001 11V12.4" stroke="white" stroke-linecap="round" stroke-linejoin="round"/>
<path d="M4.7666 14.666H11.4333V13.9993C11.4333 13.266 10.8333 12.666 10.0999 12.666H6.09993C5.3666 12.666 4.7666 13.266 4.7666 13.9993V14.666V14.666Z" stroke="white" stroke-miterlimit="10"/>
<path d="M4.1001 14.666H12.1001" stroke="white" stroke-linecap="round" stroke-linejoin="round"/>
<path d="M7.99992 10.6673C5.41992 10.6673 3.33325 8.58065 3.33325 6.00065V4.00065C3.33325 2.52732 4.52659 1.33398 5.99992 1.33398H9.99992C11.4733 1.33398 12.6666 2.52732 12.6666 4.00065V6.00065C12.6666 8.58065 10.5799 10.6673 7.99992 10.6673Z" stroke="white" stroke-linecap="round" stroke-linejoin="round"/>
<path d="M3.64677 7.76706C3.14677 7.60706 2.70677 7.31372 2.36011 6.96706C1.76011 6.30039 1.36011 5.50039 1.36011 4.56706C1.36011 3.63372 2.09344 2.90039 3.02677 2.90039H3.46011C3.32677 3.20706 3.26011 3.54706 3.26011 3.90039V5.90039C3.26011 6.56706 3.40011 7.19372 3.64677 7.76706Z" stroke="white" stroke-linecap="round" stroke-linejoin="round"/>
<path d="M12.3533 7.76706C12.8533 7.60706 13.2933 7.31372 13.6399 6.96706C14.2399 6.30039 14.6399 5.50039 14.6399 4.56706C14.6399 3.63372 13.9066 2.90039 12.9733 2.90039H12.5399C12.6733 3.20706 12.7399 3.54706 12.7399 3.90039V5.90039C12.7399 6.56706 12.5999 7.19372 12.3533 7.76706Z" stroke="white" stroke-linecap="round" stroke-linejoin="round"/>
</svg>
