<svg width="20" height="20" viewBox="0 0 20 20" fill="none" xmlns="http://www.w3.org/2000/svg">
<path d="M6.03073 1.66699H4.4474C2.6224 1.66699 1.66406 2.62533 1.66406 4.44199V6.02533C1.66406 7.84199 2.6224 8.80033 4.43906 8.80033H6.0224C7.83906 8.80033 8.7974 7.84199 8.7974 6.02533V4.44199C8.80573 2.62533 7.8474 1.66699 6.03073 1.66699Z" fill="white"/>
<path d="M15.5615 1.66699H13.9781C12.1615 1.66699 11.2031 2.62533 11.2031 4.44199V6.02533C11.2031 7.84199 12.1615 8.80033 13.9781 8.80033H15.5615C17.3781 8.80033 18.3365 7.84199 18.3365 6.02533V4.44199C18.3365 2.62533 17.3781 1.66699 15.5615 1.66699Z" fill="white"/>
<path d="M15.5615 11.1914H13.9781C12.1615 11.1914 11.2031 12.1497 11.2031 13.9664V15.5497C11.2031 17.3664 12.1615 18.3247 13.9781 18.3247H15.5615C17.3781 18.3247 18.3365 17.3664 18.3365 15.5497V13.9664C18.3365 12.1497 17.3781 11.1914 15.5615 11.1914Z" fill="white"/>
<path d="M6.03073 11.1914H4.4474C2.6224 11.1914 1.66406 12.1497 1.66406 13.9664V15.5497C1.66406 17.3747 2.6224 18.3331 4.43906 18.3331H6.0224C7.83906 18.3331 8.7974 17.3747 8.7974 15.5581V13.9747C8.80573 12.1497 7.8474 11.1914 6.03073 11.1914Z" fill="white"/>
</svg>
