<svg width="12" height="12" viewBox="0 0 12 12" fill="none" xmlns="http://www.w3.org/2000/svg">
<path d="M7.21359 9.41006C7.11859 9.41006 7.02359 9.37506 6.94859 9.30006C6.80359 9.15506 6.80359 8.91506 6.94859 8.77006L9.71859 6.00006L6.94859 3.23006C6.80359 3.08506 6.80359 2.84506 6.94859 2.70006C7.09359 2.55506 7.33359 2.55506 7.47859 2.70006L10.5136 5.73506C10.6586 5.88006 10.6586 6.12006 10.5136 6.26506L7.47859 9.30006C7.40359 9.37506 7.30859 9.41006 7.21359 9.41006Z" fill="#ffffff"/>
<path d="M10.165 6.375H1.75C1.545 6.375 1.375 6.205 1.375 6C1.375 5.795 1.545 5.625 1.75 5.625H10.165C10.37 5.625 10.54 5.795 10.54 6C10.54 6.205 10.37 6.375 10.165 6.375Z" fill="white"/>
</svg>
