<svg width="160" height="38" viewBox="0 0 160 38" fill="none" xmlns="http://www.w3.org/2000/svg">
<path d="M33.6562 10.6016H39.5668C40.8468 10.6016 41.9104 10.6966 42.748 10.8961C43.5857 11.0861 44.2633 11.3901 44.7527 11.7891C45.2515 12.1881 45.5998 12.6916 45.7974 13.2806C46.0045 13.8791 46.0986 14.5726 46.0986 15.3706C46.0986 16.2921 45.9104 17.0521 45.5433 17.6696C45.1763 18.2776 44.508 18.7241 43.548 18.9901V19.0946C45.5998 19.6171 46.6257 20.9851 46.6257 23.1986C46.6257 23.9966 46.5221 24.7186 46.3245 25.3551C46.1174 25.9916 45.7692 26.5331 45.2798 26.9606C44.781 27.3881 44.1127 27.7301 43.2751 27.9581C42.4374 28.1861 41.3739 28.3001 40.0939 28.3001H33.6562V10.6016ZM38.7857 17.8976C39.4068 17.8976 39.9433 17.8691 40.3857 17.8121C40.8374 17.7456 41.1951 17.6411 41.4868 17.4891C41.7786 17.3371 41.9857 17.1281 42.1174 16.8526C42.2492 16.5771 42.3245 16.2256 42.3245 15.7791C42.3245 15.3231 42.2586 14.9526 42.1174 14.6866C41.9857 14.4111 41.7786 14.2021 41.4963 14.0501C41.2233 13.8981 40.8563 13.8031 40.3951 13.7556C39.9433 13.7081 39.3974 13.6891 38.7763 13.6891H37.4868V17.8976H38.7857ZM39.2657 25.1841C39.9339 25.1841 40.4986 25.1461 40.941 25.0796C41.3927 25.0131 41.7504 24.8991 42.0139 24.7376C42.2868 24.5761 42.4751 24.3481 42.5786 24.0631C42.6915 23.7781 42.7386 23.3981 42.7386 22.9421C42.7386 22.5336 42.6821 22.1916 42.5786 21.8971C42.4657 21.6121 42.2868 21.3746 42.0233 21.1941C41.7598 21.0136 41.4021 20.8901 40.9504 20.8141C40.4986 20.7381 39.9339 20.7001 39.2563 20.7001H37.4868V25.1936H39.2657V25.1841Z" fill="white"/>
<path d="M53.3799 14.5352H49.7188V28.3007H53.3799V14.5352Z" fill="white"/>
<path d="M61.0838 17.4321V23.5786C61.0838 23.9871 61.1026 24.3196 61.1497 24.5666C61.1874 24.8231 61.2721 25.0226 61.385 25.1651C61.4979 25.3171 61.6579 25.4121 61.865 25.4691C62.0721 25.5261 62.3262 25.5546 62.6462 25.5546C63.0791 25.5546 63.4462 25.5166 63.7285 25.4501V28.3096C63.4556 28.3381 63.1732 28.3761 62.8721 28.3951C62.5709 28.4236 62.2697 28.4331 61.9591 28.4331C61.1215 28.4331 60.4062 28.3666 59.8226 28.2336C59.2391 28.1006 58.7779 27.8631 58.4203 27.5211C58.0626 27.1791 57.8085 26.7136 57.6485 26.1246C57.4885 25.5356 57.4132 24.7851 57.4132 23.8826V17.4321H55.625V14.5346H57.4226V11.2666H61.0838V14.5346H63.9074V17.4416H61.0838V17.4321Z" fill="white"/>
<path d="M91.0598 14.2979C92.2081 14.2979 93.168 14.3929 93.9492 14.5924C94.7304 14.7824 95.361 15.0769 95.841 15.4474C96.321 15.8179 96.6692 16.2834 96.8763 16.8344C97.0928 17.3854 97.1963 18.0314 97.1963 18.7534V28.2914H93.9116L93.5633 26.6859C93.2716 27.1989 92.7633 27.6359 92.0198 27.9969C91.2763 28.3579 90.3445 28.5479 89.2151 28.5479C87.681 28.5479 86.5233 28.2059 85.7328 27.5124C84.9422 26.8284 84.5469 25.7644 84.5469 24.3394C84.5469 22.7434 85.0175 21.6224 85.9775 20.9764C86.928 20.3304 88.321 20.0074 90.1563 20.0074H93.5445V19.6559C93.5445 19.2474 93.5069 18.8959 93.4316 18.6109C93.3563 18.3259 93.2057 18.0884 92.9892 17.9079C92.7728 17.7274 92.481 17.5944 92.1045 17.5089C91.7281 17.4234 91.2481 17.3854 90.6363 17.3854C90.1469 17.3854 89.6575 17.4044 89.168 17.4519C88.6786 17.4994 88.1986 17.5564 87.728 17.6419V14.5069C88.2551 14.4404 88.8104 14.3929 89.4222 14.3549C90.0245 14.3169 90.5704 14.2979 91.0598 14.2979ZM90.1469 25.7169C90.9939 25.7169 91.6998 25.5649 92.2928 25.2704C92.8857 24.9664 93.2904 24.5864 93.5257 24.1114V22.5059H90.6928C89.7798 22.5059 89.1304 22.6199 88.7351 22.8384C88.3398 23.0569 88.1422 23.5129 88.1422 24.2159C88.1422 24.7669 88.2928 25.1469 88.6128 25.3749C88.9328 25.6028 89.441 25.7169 90.1469 25.7169Z" fill="white"/>
<path d="M104.695 28.4431C103.904 28.4431 103.142 28.4051 102.399 28.3291C101.655 28.2531 100.987 28.1486 100.375 28.0061V24.9186C101.034 25.1276 101.721 25.2796 102.455 25.3936C103.189 25.5076 103.867 25.5646 104.488 25.5646C105.279 25.5646 105.853 25.4696 106.21 25.2891C106.568 25.0991 106.756 24.7381 106.756 24.1966C106.756 23.9211 106.719 23.6931 106.653 23.5126C106.587 23.3226 106.455 23.1706 106.257 23.0281C106.069 22.8951 105.796 22.7716 105.467 22.6576C105.128 22.5436 104.686 22.4201 104.13 22.2871C103.406 22.1161 102.813 21.9261 102.342 21.7171C101.871 21.5081 101.495 21.2516 101.231 20.9571C100.959 20.6531 100.78 20.3016 100.676 19.8836C100.573 19.4656 100.526 18.9716 100.526 18.3921C100.526 17.7461 100.62 17.1666 100.817 16.6631C101.006 16.1501 101.326 15.7226 101.768 15.3711C102.201 15.0196 102.766 14.7536 103.462 14.5636C104.149 14.3736 104.996 14.2881 105.984 14.2881C106.747 14.2881 107.462 14.3356 108.14 14.4211C108.817 14.5066 109.354 14.6111 109.721 14.7536L109.57 17.5846C109.382 17.5371 109.156 17.4801 108.893 17.4231C108.62 17.3661 108.328 17.3091 108.017 17.2521C107.707 17.2046 107.387 17.1571 107.057 17.1191C106.728 17.0906 106.417 17.0716 106.107 17.0716C105.26 17.0716 104.695 17.1666 104.403 17.3471C104.102 17.5371 103.961 17.8696 103.961 18.3446C103.961 18.5631 103.989 18.7436 104.046 18.8861C104.102 19.0191 104.224 19.1426 104.413 19.2376C104.601 19.3421 104.855 19.4466 105.184 19.5416C105.514 19.6461 105.947 19.7601 106.483 19.9026C107.227 20.0926 107.839 20.2921 108.328 20.5296C108.817 20.7576 109.203 21.0331 109.495 21.3466C109.787 21.6601 109.975 22.0401 110.088 22.4961C110.191 22.9426 110.248 23.4841 110.248 24.1111C110.248 24.9281 110.126 25.6121 109.871 26.1631C109.617 26.7141 109.26 27.1606 108.789 27.5026C108.319 27.8446 107.735 28.0916 107.048 28.2436C106.351 28.3766 105.57 28.4431 104.695 28.4431Z" fill="white"/>
<path d="M125.827 8.9209V28.2914H122.523L122.25 26.3819C121.977 27.0089 121.525 27.5219 120.904 27.9304C120.274 28.3389 119.332 28.5479 118.09 28.5479C116.979 28.5479 116.067 28.3769 115.361 28.0539C114.655 27.7214 114.099 27.2464 113.695 26.6289C113.29 26.0019 113.017 25.2514 112.867 24.3679C112.716 23.4844 112.641 22.4964 112.641 21.4134C112.641 20.4254 112.716 19.5039 112.867 18.6394C113.017 17.7749 113.29 17.0149 113.695 16.3689C114.099 15.7229 114.655 15.2099 115.361 14.8394C116.067 14.4689 116.979 14.2789 118.09 14.2789C119.332 14.2789 120.264 14.4594 120.876 14.8299C121.488 15.1909 121.93 15.6849 122.203 16.2929V8.9209H125.827ZM119.238 25.7454C119.859 25.7454 120.377 25.6504 120.782 25.4699C121.187 25.2799 121.507 25.0044 121.742 24.6339C121.977 24.2634 122.147 23.7979 122.231 23.2659C122.325 22.7244 122.372 22.1164 122.372 21.4134C122.372 20.7484 122.325 20.1499 122.231 19.6179C122.137 19.0764 121.977 18.6204 121.742 18.2404C121.507 17.8604 121.187 17.5564 120.782 17.3474C120.377 17.1289 119.869 17.0244 119.238 17.0244C118.598 17.0244 118.09 17.1384 117.714 17.3854C117.337 17.6229 117.045 17.9459 116.857 18.3354C116.669 18.7344 116.537 19.1999 116.481 19.7224C116.424 20.2544 116.396 20.8149 116.396 21.4039C116.396 22.0309 116.424 22.6104 116.481 23.1519C116.537 23.6839 116.669 24.1399 116.876 24.5294C117.074 24.9094 117.365 25.2039 117.751 25.4224C118.118 25.6409 118.617 25.7454 119.238 25.7454Z" fill="white"/>
<path d="M135.216 14.2979C136.364 14.2979 137.324 14.3929 138.105 14.5924C138.887 14.7824 139.517 15.0769 139.997 15.4474C140.477 15.8179 140.825 16.2834 141.033 16.8344C141.249 17.3854 141.353 18.0314 141.353 18.7534V28.2914H138.068L137.72 26.6859C137.428 27.1989 136.92 27.6359 136.176 27.9969C135.433 28.3579 134.501 28.5479 133.371 28.5479C131.837 28.5479 130.68 28.2059 129.889 27.5124C129.098 26.8284 128.703 25.7644 128.703 24.3394C128.703 22.7434 129.174 21.6224 130.134 20.9764C131.084 20.3304 132.477 20.0074 134.313 20.0074H137.701V19.6559C137.701 19.2474 137.663 18.8959 137.588 18.6109C137.513 18.3259 137.362 18.0884 137.145 17.9079C136.929 17.7274 136.637 17.5944 136.261 17.5089C135.894 17.4234 135.404 17.3854 134.793 17.3854C134.303 17.3854 133.814 17.4044 133.324 17.4519C132.835 17.4994 132.355 17.5564 131.884 17.6419V14.5069C132.411 14.4404 132.967 14.3929 133.578 14.3549C134.181 14.3169 134.727 14.2979 135.216 14.2979ZM134.313 25.7169C135.16 25.7169 135.865 25.5649 136.458 25.2704C137.051 24.9664 137.456 24.5864 137.691 24.1114V22.5059H134.858C133.945 22.5059 133.296 22.6199 132.901 22.8384C132.505 23.0569 132.308 23.5129 132.308 24.2159C132.308 24.7669 132.458 25.1469 132.778 25.3749C133.098 25.6028 133.607 25.7169 134.313 25.7169Z" fill="white"/>
<path d="M157.645 14.5348V33.3923H153.984V26.3813C153.711 27.0273 153.269 27.5498 152.657 27.9488C152.045 28.3478 151.114 28.5473 149.871 28.5473C148.761 28.5473 147.848 28.3763 147.142 28.0533C146.436 27.7208 145.881 27.2458 145.476 26.6283C145.071 26.0013 144.798 25.2508 144.648 24.3673C144.497 23.4838 144.422 22.4958 144.422 21.4128C144.422 20.4248 144.497 19.5033 144.648 18.6388C144.798 17.7743 145.071 17.0143 145.476 16.3683C145.881 15.7223 146.436 15.2093 147.142 14.8388C147.848 14.4683 148.761 14.2783 149.871 14.2783C151.114 14.2783 152.045 14.4588 152.657 14.8293C153.269 15.1998 153.711 15.6843 153.984 16.2923V14.5348H157.645ZM151.029 25.7448C151.65 25.7448 152.168 25.6498 152.572 25.4693C152.977 25.2793 153.297 25.0038 153.532 24.6333C153.768 24.2628 153.937 23.7973 154.022 23.2653C154.116 22.7238 154.163 22.1158 154.163 21.4128C154.163 20.7478 154.116 20.1493 154.022 19.6173C153.928 19.0758 153.768 18.6198 153.532 18.2398C153.297 17.8598 152.977 17.5558 152.572 17.3468C152.168 17.1283 151.66 17.0238 151.029 17.0238C150.389 17.0238 149.881 17.1378 149.504 17.3848C149.128 17.6223 148.836 17.9453 148.648 18.3348C148.46 18.7338 148.328 19.1993 148.271 19.7218C148.215 20.2538 148.187 20.8143 148.187 21.4033C148.187 22.0303 148.215 22.6098 148.271 23.1513C148.328 23.6833 148.46 24.1393 148.667 24.5288C148.864 24.9088 149.156 25.2033 149.542 25.4218C149.909 25.6403 150.408 25.7448 151.029 25.7448Z" fill="white"/>
<path d="M70.0717 15.2664H73.4882L77.9117 23.8354H78.0341L84.0482 8.4834H87.0694L80.0482 28.1199H76.9329L71.9447 18.8574H71.8223L69.1494 28.1199H66.1094L70.0717 15.2664Z" fill="white"/>
<path d="M86.9919 4.60742L81.0625 8.83492L88.9401 11.6659L86.9919 4.60742Z" fill="white"/>
<path d="M51.5603 6.29883L47.7109 12.3978H55.4098L51.5603 6.29883Z" fill="white"/>
<path d="M80.0468 28.1299L80.0938 27.9779L77.948 23.8454H77.9009L74.1362 16.5399L73.4774 15.2764H70.0703L72.3103 19.5514L76.9315 28.1299H80.0468Z" fill="white"/>
<path d="M23.4564 18.2681L29.2352 10.8866L20.3223 0.0185547H1.41406V37.9711H22.7976L31.0423 26.5331L23.4564 18.2681ZM17.1223 5.98455L20.8211 10.9721L18.2235 13.1476L13.0658 5.98455H17.1223ZM7.02347 9.56605H8.51995L13.0564 16.3111H7.02347V9.56605ZM7.02347 32.4136C6.75994 32.4136 7.02347 24.2721 7.02347 24.2721H8.4823L13.8564 32.4136C13.8564 32.4136 7.287 32.4136 7.02347 32.4136ZM20.0776 30.2761L14.167 21.8211H18.9294L22.9388 27.4261L20.0776 30.2761Z" fill="url(#paint0_linear_1004_31947)"/>
<defs>
<linearGradient id="paint0_linear_1004_31947" x1="16.2253" y1="0.0228297" x2="16.2253" y2="37.9763" gradientUnits="userSpaceOnUse">
<stop offset="5.20186e-07" stop-color="#FFA700"/>
<stop offset="1" stop-color="#FF7F00"/>
</linearGradient>
</defs>
</svg>
