<svg width="42" height="42" viewBox="0 0 42 42" fill="none" xmlns="http://www.w3.org/2000/svg">
<circle cx="21" cy="21" r="20.5" stroke="#D9D9D9"/>
<path d="M31 25.7417V13.6717C31 12.4717 30.02 11.5817 28.83 11.6817H28.77C26.67 11.8617 23.48 12.9317 21.7 14.0517L21.53 14.1617C21.24 14.3417 20.76 14.3417 20.47 14.1617L20.22 14.0117C18.44 12.9017 15.26 11.8417 13.16 11.6717C11.97 11.5717 11 12.4717 11 13.6617V25.7417C11 26.7017 11.78 27.6017 12.74 27.7217L13.03 27.7617C15.2 28.0517 18.55 29.1517 20.47 30.2017L20.51 30.2217C20.78 30.3717 21.21 30.3717 21.47 30.2217C23.39 29.1617 26.75 28.0517 28.93 27.7617L29.26 27.7217C30.22 27.6017 31 26.7017 31 25.7417Z" stroke="black" stroke-width="1.5" stroke-linecap="round" stroke-linejoin="round"/>
<path d="M21 14.4883V29.4883" stroke="black" stroke-width="1.5" stroke-linecap="round" stroke-linejoin="round"/>
<path d="M16.75 17.4883H14.5" stroke="black" stroke-width="1.5" stroke-linecap="round" stroke-linejoin="round"/>
<path d="M17.5 20.4883H14.5" stroke="black" stroke-width="1.5" stroke-linecap="round" stroke-linejoin="round"/>
</svg>
