<svg width="24" height="24" viewBox="0 0 24 24" fill="none" xmlns="http://www.w3.org/2000/svg">
<path d="M20.8418 17.1449C20.5091 17.9135 20.1153 18.6211 19.659 19.2715C19.0371 20.1583 18.5278 20.7721 18.1354 21.113C17.527 21.6724 16.8752 21.959 16.1772 21.9753C15.6761 21.9753 15.0718 21.8327 14.3683 21.5434C13.6626 21.2555 13.014 21.113 12.421 21.113C11.7991 21.113 11.132 21.2555 10.4185 21.5434C9.70396 21.8327 9.12831 21.9834 8.68819 21.9984C8.01884 22.0269 7.35166 21.7322 6.68571 21.113C6.26066 20.7422 5.72901 20.1067 5.09212 19.2063C4.40878 18.2449 3.84698 17.13 3.40686 15.8589C2.93551 14.486 2.69922 13.1565 2.69922 11.8694C2.69922 10.3951 3.0178 9.12345 3.65592 8.05784C4.15742 7.20191 4.82459 6.52672 5.65962 6.03105C6.49464 5.53539 7.39688 5.2828 8.36852 5.26664C8.90017 5.26664 9.59736 5.43109 10.4637 5.75429C11.3277 6.07858 11.8824 6.24303 12.1256 6.24303C12.3075 6.24303 12.9237 6.05074 13.9684 5.66738C14.9564 5.31186 15.7902 5.16466 16.4732 5.22264C18.3241 5.37202 19.7147 6.10167 20.6395 7.41619C18.9841 8.4192 18.1653 9.82403 18.1816 11.6262C18.1965 13.03 18.7057 14.1981 19.7066 15.1256C20.1601 15.5561 20.6667 15.8888 21.2302 16.1251C21.108 16.4795 20.979 16.819 20.8418 17.1449ZM16.5968 0.440369C16.5968 1.54062 16.1948 2.56792 15.3936 3.51878C14.4267 4.64917 13.2572 5.30236 11.989 5.19929C11.9729 5.06729 11.9635 4.92837 11.9635 4.78239C11.9635 3.72615 12.4233 2.59576 13.2399 1.67152C13.6475 1.20356 14.166 0.814453 14.7948 0.504058C15.4221 0.198295 16.0156 0.0292007 16.5737 0.000244141C16.59 0.147331 16.5968 0.294426 16.5968 0.440355V0.440369Z" fill="white"/>
</svg>
