<svg width="24" height="24" viewBox="0 0 24 24" fill="none" xmlns="http://www.w3.org/2000/svg">
<mask id="mask0_330_11910" style="mask-type:alpha" maskUnits="userSpaceOnUse" x="0" y="0" width="24" height="24">
<rect width="24" height="24" fill="#D9D9D9"/>
</mask>
<g mask="url(#mask0_330_11910)">
<path d="M18.1296 18.1276L19.071 19.0729C17.1751 20.9603 14.6641 22 12 22C9.63932 22 7.39648 21.1719 5.5957 19.6654L5.59505 20.681H4.26172L4.26237 17.4616H7.48112V18.7949H6.63086C8.16081 20.0065 10.0345 20.6667 12 20.6667C14.3086 20.6667 16.4857 19.765 18.1296 18.1276ZM12 3.33333C13.9655 3.33333 15.8392 3.99349 17.3691 5.20508H16.5189V6.53841H19.7376V3.31901H18.4043V4.33464C16.6035 2.82812 14.3607 2 12 2C9.33594 2 6.82487 3.03971 4.92904 4.92708L5.87044 5.8724C7.51432 4.23503 9.69141 3.33333 12 3.33333ZM21.985 11.1087L20.6517 11.1335L20.6667 12C20.6667 12.1419 20.6628 12.2826 20.6562 12.4225L20.6243 13.0885L21.9564 13.1523L21.9883 12.4863C21.9961 12.3255 22 12.1628 22 11.9941L21.985 11.1087ZM20.1888 14.8464C20.1217 15.0417 20.0475 15.2337 19.9661 15.4219L19.7018 16.0345L20.9264 16.5625L21.1901 15.9505C21.2845 15.7311 21.3704 15.5091 21.4492 15.2826L21.6667 14.6523L20.4069 14.2168L20.1888 14.8464ZM20.2598 9.37109L20.4642 10.0059L21.7337 9.59701L21.5293 8.96224C21.4557 8.73438 21.3737 8.50977 21.2845 8.28971L21.0332 7.67188L19.7982 8.17383L20.0488 8.79102C20.1263 8.98112 20.1966 9.17448 20.2598 9.37109ZM3.33333 12C3.33333 11.8581 3.33724 11.7174 3.34375 11.5775L3.37565 10.9115L2.04362 10.8477L2.01172 11.5137C2.00391 11.6745 2 11.8372 2 12.0059L2.01497 12.8913L3.34831 12.8665L3.33333 12ZM3.74023 14.6289L3.53581 13.9941L2.26628 14.403L2.4707 15.0378C2.54427 15.2656 2.6263 15.4902 2.71549 15.7103L2.9668 16.3281L4.20182 15.8262L3.95117 15.209C3.8737 15.0189 3.80339 14.8255 3.74023 14.6289ZM3.8112 9.15365C3.87826 8.95833 3.95247 8.76628 4.03385 8.57812L4.29818 7.9655L3.07357 7.4375L2.8099 8.04948C2.71549 8.26888 2.62956 8.49089 2.55078 8.71745L2.33333 9.34766L3.5931 9.7832L3.8112 9.15365ZM12.6667 10H11.3333V11.3333H12.6667C13.0345 11.3333 13.3333 11.0345 13.3333 10.6667C13.3333 10.2988 13.0345 10 12.6667 10ZM12.6667 12.6667H11.3333V14H12.6667C13.0345 14 13.3333 13.7012 13.3333 13.3333C13.3333 12.9655 13.0345 12.6667 12.6667 12.6667ZM18.6667 12C18.6667 15.6758 15.6758 18.6667 12 18.6667C8.32422 18.6667 5.33333 15.6758 5.33333 12C5.33333 8.32422 8.32422 5.33333 12 5.33333C15.6758 5.33333 18.6667 8.32422 18.6667 12ZM14.1465 12C14.4661 11.6452 14.6667 11.181 14.6667 10.6667C14.6667 9.5638 13.7695 8.66667 12.6667 8.66667V8H11.3333V8.66667H9.33333V10H10V14H9.33333V15.3333H11.3333V16H12.6667V15.3333C13.7695 15.3333 14.6667 14.4362 14.6667 13.3333C14.6667 12.819 14.4661 12.3548 14.1465 12Z" fill="white"/>
</g>
</svg>
