<svg width="44" height="44" viewBox="0 0 44 44" fill="none" xmlns="http://www.w3.org/2000/svg">
<circle cx="22" cy="22" r="22" fill="#EBEBEB"/>
<path d="M27.3501 20.3522C27.3501 23.8252 27.3501 27.2812 27.3501 30.687C26.7533 30.9163 26.1601 31.0756 25.6342 31.3596C24.3114 32.0741 23.5088 33.205 23.208 34.6784C23.1626 34.9006 23.1051 35.0045 22.8556 35.0002C22.0044 34.9859 21.1525 35.0036 20.3014 34.9842C20.1882 34.9817 20.0004 34.8532 19.978 34.7536C19.4928 32.5914 18.171 31.2828 16.0109 30.8116C15.947 30.7976 15.8858 30.7719 15.8086 30.747C15.8086 27.2808 15.8086 23.8249 15.8086 20.3442C16.0958 20.2718 16.3878 20.2219 16.6629 20.1248C18.4344 19.4995 19.5433 18.2708 19.9451 16.433C20.0049 16.1593 20.099 16.0854 20.3624 16.09C21.1866 16.1048 22.0115 16.0868 22.8357 16.1051C22.9547 16.1078 23.1554 16.2225 23.1758 16.3164C23.6651 18.5588 25.0631 19.8569 27.2817 20.3194C27.2939 20.3217 27.305 20.3302 27.3501 20.3522ZM21.5953 28.2843C23.1044 28.2752 24.3242 27.0552 24.3269 25.5522C24.3296 24.032 23.0945 22.8081 21.5634 22.8137C20.0584 22.8192 18.834 24.0426 18.8311 25.5434C18.8282 27.0581 20.0742 28.2935 21.5953 28.2843Z" fill="black"/>
<path d="M28.6173 17.9058C28.6173 17.3025 28.6173 16.7275 28.6173 16.0932C29.2001 16.0932 29.7746 16.0998 30.349 16.091C30.7776 16.0844 31.0497 15.8239 31.0227 15.4538C30.9991 15.1283 30.8104 14.9357 30.4913 14.8831C30.3727 14.8635 30.2486 14.8745 30.1269 14.8745C24.4239 14.8741 18.7208 14.8743 13.0177 14.8743C12.9366 14.8743 12.8553 14.8712 12.7745 14.8759C12.3911 14.8976 12.1411 15.1301 12.1332 15.4689C12.125 15.8238 12.3829 16.0822 12.7858 16.0899C13.3638 16.1009 13.9421 16.0928 14.5435 16.0928C14.5435 16.7065 14.5435 17.2824 14.5435 17.8902C14.4365 17.9036 14.3348 17.9273 14.233 17.9275C13.1924 17.9302 12.1517 17.9325 11.1113 17.928C10.5042 17.9253 10.3034 17.7247 10.3021 17.1299C10.2998 15.9 10.3009 14.6702 10.3023 13.4404C10.3025 13.3225 10.3145 13.2046 10.3219 13.0703C17.8395 13.0703 25.3333 13.0703 32.8546 13.0703C32.8546 14.5132 32.8601 15.9304 32.8502 17.3478C32.8481 17.6541 32.6566 17.8918 32.3558 17.897C31.1182 17.9185 29.88 17.9058 28.6173 17.9058Z" fill="url(#paint0_linear_1470_11394)"/>
<path d="M21.5784 10.0029C25.457 10.0029 29.3356 10.0042 33.2141 10.0008C33.5357 10.0004 33.9268 9.98729 33.9918 10.3452C34.0645 10.7456 33.9887 11.1812 33.9218 11.5926C33.9069 11.6848 33.6673 11.7618 33.5192 11.8046C33.3938 11.8408 33.2511 11.8198 33.1161 11.8198C25.4265 11.8202 17.7369 11.8204 10.0473 11.82C9.17017 11.82 8.77728 11.2106 9.12728 10.3805C9.24538 10.1004 9.47763 9.99788 9.78041 10C10.8345 10.0074 11.8886 10.0027 12.9427 10.0027C15.8213 10.0029 18.6998 10.0029 21.5784 10.0029Z" fill="black"/>
<path d="M15.7892 19.0608C15.7892 18.1506 15.7885 17.2767 15.7904 16.403C15.7906 16.3124 15.8077 16.2217 15.8206 16.0938C16.6713 16.0938 17.5036 16.0938 18.3359 16.0938C18.4671 16.0938 18.5985 16.0938 18.7304 16.0938C18.6699 17.4576 17.311 18.8354 15.7892 19.0608Z" fill="black"/>
<path d="M24.4336 16.1172C25.3983 16.1172 26.3627 16.1172 27.3477 16.1172C27.3477 17.1047 27.3477 18.0685 27.3477 19.0336C25.9824 18.9625 24.4512 17.4236 24.4336 16.1172Z" fill="black"/>
<path d="M18.742 34.9925C17.9365 34.9925 17.1549 35.0025 16.3736 34.9878C16.0273 34.9814 15.8121 34.7667 15.8044 34.4235C15.787 33.6433 15.7989 32.8624 15.7989 32.0833C17.0685 32.0332 18.5974 33.5311 18.742 34.9925Z" fill="black"/>
<path d="M24.4199 34.9911C24.5475 33.576 25.9326 32.1895 27.3432 32.0488C27.3432 32.8811 27.3722 33.7123 27.3182 34.5381C27.3076 34.7 26.982 34.9582 26.7889 34.9706C26.0103 35.0203 25.2269 34.9911 24.4199 34.9911Z" fill="black"/>
<path d="M21.5983 24.0313C22.4327 24.0378 23.1142 24.7246 23.1097 25.5546C23.1052 26.389 22.425 27.0613 21.584 27.0628C20.7266 27.0642 20.0336 26.3658 20.0531 25.5199C20.0723 24.6848 20.7574 24.0248 21.5983 24.0313Z" fill="url(#paint1_linear_1470_11394)"/>
<defs>
<linearGradient id="paint0_linear_1470_11394" x1="21.5784" y1="13.0703" x2="21.5784" y2="17.9305" gradientUnits="userSpaceOnUse">
<stop stop-color="#FFA500"/>
<stop offset="1" stop-color="#FF8000"/>
</linearGradient>
<linearGradient id="paint1_linear_1470_11394" x1="21.5812" y1="24.0312" x2="21.5812" y2="27.0628" gradientUnits="userSpaceOnUse">
<stop stop-color="#FFA500"/>
<stop offset="1" stop-color="#FF8000"/>
</linearGradient>
</defs>
</svg>
