<svg width="20" height="20" viewBox="0 0 20 20" fill="none" xmlns="http://www.w3.org/2000/svg">
<path d="M4.33275 8.71668C4.17442 8.71668 4.00775 8.65001 3.89109 8.53334C3.71609 8.35001 3.65775 8.08334 3.75775 7.85001L5.30775 4.15001C5.34109 4.07501 5.35775 4.02501 5.38275 3.98334C6.61609 1.14168 8.19109 0.450009 10.9744 1.51668C11.1328 1.57501 11.2578 1.70001 11.3244 1.85834C11.3911 2.01668 11.3911 2.19168 11.3244 2.35001L8.88275 8.01668C8.78275 8.25001 8.55775 8.39168 8.30775 8.39168H5.93275C5.45775 8.39168 5.00775 8.48334 4.57442 8.66668C4.49942 8.70001 4.41609 8.71668 4.33275 8.71668ZM8.84109 2.29168C7.80775 2.29168 7.17442 2.96668 6.51609 4.50001C6.50775 4.52501 6.49109 4.55001 6.48275 4.57501L5.39109 7.16668C5.57442 7.15001 5.74942 7.14168 5.93275 7.14168H7.89109L9.89942 2.47501C9.50775 2.35001 9.15775 2.29168 8.84109 2.29168Z" fill="#71839B"/>
<path d="M15.2415 8.55835C15.1832 8.55835 15.1165 8.55001 15.0582 8.53335C14.7415 8.44168 14.4082 8.39168 14.0582 8.39168H8.3082C8.09986 8.39168 7.89986 8.28335 7.7832 8.10835C7.67486 7.93335 7.64986 7.70835 7.7332 7.51668L10.1499 1.90835C10.2749 1.60835 10.6415 1.40002 10.9499 1.50835C11.0499 1.54168 11.1415 1.58335 11.2415 1.62502L13.2082 2.45002C14.3582 2.92502 15.1249 3.42502 15.6249 4.02502C15.7249 4.14168 15.8082 4.26668 15.8915 4.40002C15.9832 4.54168 16.0665 4.70835 16.1249 4.88335C16.1499 4.94168 16.1915 5.05002 16.2165 5.16668C16.4499 5.95835 16.3332 6.92502 15.8332 8.17502C15.7249 8.40835 15.4915 8.55835 15.2415 8.55835ZM9.2582 7.14168H14.0665C14.3332 7.14168 14.5915 7.16668 14.8499 7.20835C15.0832 6.48335 15.1332 5.92502 14.9999 5.47502C14.9832 5.40002 14.9665 5.36668 14.9582 5.33335C14.9082 5.20002 14.8749 5.12502 14.8332 5.05835C14.7749 4.96668 14.7332 4.89168 14.6665 4.81668C14.3082 4.38335 13.6749 3.98335 12.7249 3.59168L11.0832 2.90835L9.2582 7.14168Z" fill="#71839B"/>
<path d="M13.25 18.9583H6.75C6.51667 18.9583 6.3 18.9417 6.08333 18.9167C3.15833 18.725 1.49167 17.05 1.29167 14.0917C1.26667 13.9083 1.25 13.6833 1.25 13.4583V11.8333C1.25 9.95833 2.36667 8.26666 4.09167 7.51666C4.68333 7.26666 5.3 7.14166 5.94167 7.14166H14.075C14.55 7.14166 15.0083 7.20833 15.4333 7.34166C17.3917 7.93333 18.7667 9.78333 18.7667 11.8333V13.4583C18.7667 13.6417 18.7583 13.8167 18.75 13.9833C18.5667 17.2417 16.6667 18.9583 13.25 18.9583ZM5.93333 8.39166C5.45833 8.39166 5.00833 8.48333 4.575 8.66666C3.30833 9.21666 2.49167 10.4583 2.49167 11.8333V13.4583C2.49167 13.6333 2.50833 13.8083 2.525 13.975C2.68333 16.35 3.85 17.5167 6.19167 17.675C6.4 17.7 6.56667 17.7167 6.74167 17.7167H13.2417C15.9917 17.7167 17.3417 16.5083 17.475 13.925C17.4833 13.775 17.4917 13.625 17.4917 13.4583V11.8333C17.4917 10.325 16.4833 8.975 15.05 8.53333C14.7333 8.44166 14.4 8.39166 14.05 8.39166H5.93333V8.39166Z" fill="#71839B"/>
<path d="M1.86719 12.4583C1.52552 12.4583 1.24219 12.175 1.24219 11.8333V9.39165C1.24219 6.76665 3.10052 4.49999 5.66719 3.99999C5.89219 3.95832 6.12552 4.04165 6.27552 4.21665C6.41719 4.39165 6.45885 4.64165 6.36719 4.84999L4.90885 8.33332C4.84219 8.48332 4.72552 8.59999 4.58385 8.66665C3.31719 9.21665 2.50052 10.4583 2.50052 11.8333C2.49219 12.175 2.21719 12.4583 1.86719 12.4583ZM4.66719 5.68332C3.60052 6.28332 2.82552 7.33332 2.58385 8.55832C2.95052 8.18332 3.37552 7.86665 3.85885 7.63332L4.66719 5.68332Z" fill="#71839B"/>
<path d="M18.133 12.4583C17.7913 12.4583 17.508 12.175 17.508 11.8333C17.508 10.325 16.4996 8.975 15.0663 8.53333C14.8996 8.48333 14.758 8.36666 14.683 8.20833C14.608 8.05 14.5996 7.86666 14.6663 7.70833C15.058 6.73333 15.158 6.025 14.9996 5.475C14.983 5.4 14.9663 5.36666 14.958 5.33333C14.8496 5.09166 14.908 4.80833 15.0996 4.625C15.2913 4.44166 15.583 4.4 15.8163 4.525C17.633 5.475 18.758 7.34166 18.758 9.39166V11.8333C18.758 12.175 18.4746 12.4583 18.133 12.4583ZM16.0413 7.575C16.5663 7.81666 17.033 8.15833 17.4246 8.56666C17.2663 7.75 16.8746 7.00833 16.2996 6.425C16.258 6.775 16.1746 7.15833 16.0413 7.575Z" fill="#71839B"/>
</svg>
