<svg width="58" height="58" viewBox="0 0 58 58" fill="none" xmlns="http://www.w3.org/2000/svg">
<mask id="mask0_1358_85017" style="mask-type:alpha" maskUnits="userSpaceOnUse" x="0" y="0" width="58" height="58">
<rect width="58" height="58" fill="#D9D9D9"/>
</mask>
<g mask="url(#mask0_1358_85017)">
</g>
<rect x="5.5" y="7.5" width="47.4177" height="43" rx="7.5" fill="white"/>
<path fill-rule="evenodd" clip-rule="evenodd" d="M37.802 21.46C38.7491 21.7135 39.4935 22.4579 39.747 23.405C40.2052 25.12 40.207 28.7004 40.207 28.7004C40.207 28.7004 40.207 32.2807 39.747 33.9957C39.4935 34.9429 38.7491 35.6872 37.802 35.9407C36.087 36.4007 29.207 36.4007 29.207 36.4007C29.207 36.4007 22.327 36.4007 20.612 35.9407C19.6649 35.6872 18.9206 34.9429 18.667 33.9957C18.207 32.2807 18.207 28.7004 18.207 28.7004C18.207 28.7004 18.207 25.12 18.667 23.405C18.9206 22.4579 19.6649 21.7135 20.612 21.46C22.327 21 29.207 21 29.207 21C29.207 21 36.087 21 37.802 21.46ZM32.7204 28.7007L27.0049 32.0003V25.401L32.7204 28.7007Z" fill="#f6465d"/>
<rect x="5.5" y="7.5" width="47.4177" height="43" rx="7.5" stroke="#ECECEC"/>
</svg>
