<svg width="14" height="14" viewBox="0 0 14 14" fill="none" xmlns="http://www.w3.org/2000/svg">
<g clip-path="url(#clip0_1489_4369)">
<path d="M0.000266056 6.99179C-0.00568757 8.48768 1.20216 9.70517 2.69808 9.71112C3.387 9.71385 4.05111 9.45397 4.55517 8.98434L8.59154 10.8068C8.56349 10.9577 8.54811 11.1107 8.54552 11.2641C8.54077 12.7704 9.7579 13.9952 11.2641 14C12.7703 14.0048 13.9952 12.7876 14 11.2814C14.0047 9.77519 12.7876 8.55033 11.2814 8.54555C10.3815 8.54271 9.53811 8.98396 9.02735 9.72486L5.23509 8.01254C5.50445 7.36211 5.50548 6.63154 5.23801 5.98036L9.02503 4.25929C9.87779 5.49265 11.5689 5.80115 12.8023 4.94839C14.0356 4.09562 14.3441 2.40452 13.4913 1.17117C12.6386 -0.0621892 10.9475 -0.370685 9.7141 0.482076C8.97959 0.989936 8.54178 1.82647 8.54317 2.71946C8.54563 2.87317 8.56122 3.02635 8.58979 3.1774L4.56391 5.0068C3.47317 3.98259 1.75866 4.03653 0.734446 5.12727C0.260423 5.63212 -0.0023011 6.29928 0.000266056 6.99179Z" fill="#FFA500"/>
</g>
<defs>
<clipPath id="clip0_1489_4369">
<rect width="14" height="14" fill="white"/>
</clipPath>
</defs>
</svg>
