<svg width="80" height="80" viewBox="0 0 80 80" fill="none" xmlns="http://www.w3.org/2000/svg">
<path d="M40 80C62.0914 80 80 62.0914 80 40C80 17.9086 62.0914 0 40 0C17.9086 0 0 17.9086 0 40C0 62.0914 17.9086 80 40 80Z" fill="#FFFAF2"/>
<path d="M40.8921 57.3463C36.5544 57.5765 32.2947 56.1272 28.9975 53.2992C25.7003 50.4713 23.619 46.482 23.1858 42.1598C22.7527 37.8376 24.0009 33.5147 26.6713 30.0886C29.3417 26.6626 33.2292 24.3968 37.5263 23.7617" stroke="#828B92" stroke-width="5"/>
<path d="M43.8125 57.314C47.7818 56.5324 51.3589 54.4028 53.9379 51.2858C56.5168 48.1688 57.9389 44.2562 57.9634 40.2107C57.9879 36.1653 56.6132 32.2357 54.0722 29.0878C51.5311 25.9398 47.98 23.767 44.0205 22.9375" stroke="url(#paint0_linear_15_608)" stroke-width="5"/>
<path d="M40.2969 20.6086L48.6191 18.4883L44.1001 28.8318L40.2969 20.6086Z" fill="#FFD486"/>
<path fill-rule="evenodd" clip-rule="evenodd" d="M51.1477 40.109C51.1477 45.979 46.3891 50.7376 40.5191 50.7376C34.6491 50.7376 29.8906 45.979 29.8906 40.109C29.8906 34.239 34.6491 29.4805 40.5191 29.4805C46.3891 29.4805 51.1477 34.239 51.1477 40.109ZM40.3257 35.9897L36.0068 40.3086L40.3257 44.6275L44.6446 40.3086L40.3257 35.9897Z" fill="#FFD486"/>
<defs>
<linearGradient id="paint0_linear_15_608" x1="51" y1="40" x2="61" y2="42.5" gradientUnits="userSpaceOnUse">
<stop stop-color="#FF8000"/>
<stop offset="1" stop-color="#FFA500"/>
</linearGradient>
</defs>
</svg>
