<svg width="80" height="80" viewBox="0 0 80 80" fill="none" xmlns="http://www.w3.org/2000/svg">
<g clip-path="url(#clip0_15_619)">
<path d="M40 80C62.0914 80 80 62.0914 80 40C80 17.9086 62.0914 0 40 0C17.9086 0 0 17.9086 0 40C0 62.0914 17.9086 80 40 80Z" fill="#FFFBF2"/>
<path d="M41.9913 43.6942L48.2351 61.0381C48.5503 61.9137 49.7856 61.9218 50.1124 61.0505L52.9291 53.5392C53.0351 53.2566 53.2629 53.037 53.5492 52.9416L60.8377 50.5121C61.741 50.211 61.7522 48.9373 60.8543 48.6204L43.265 42.4125C42.4699 42.1318 41.7057 42.9008 41.9913 43.6942Z" fill="#FFD486"/>
<mask id="mask0_15_619" style="mask-type:alpha" maskUnits="userSpaceOnUse" x="28" y="39" width="31" height="32">
<path d="M28.1602 52.3477L39.1452 39.999L58.8292 58.2452L48.2449 70.2145L28.1602 52.3477Z" fill="#D9D9D9"/>
</mask>
<g mask="url(#mask0_15_619)">
<path d="M41.9913 43.6942L48.2351 61.0381C48.5503 61.9137 49.7856 61.9218 50.1124 61.0505L52.9291 53.5392C53.0351 53.2566 53.2629 53.037 53.5492 52.9416L60.8377 50.5121C61.741 50.211 61.7522 48.9373 60.8543 48.6204L43.265 42.4125C42.4699 42.1318 41.7057 42.9008 41.9913 43.6942Z" fill="url(#paint0_linear_15_619)"/>
</g>
<path d="M24.6445 24.0938H36.6445C37.1968 24.0938 37.6445 24.5415 37.6445 25.0938V37.0938C37.6445 37.6461 37.1968 38.0938 36.6445 38.0938H24.6445C24.0922 38.0938 23.6445 37.6461 23.6445 37.0938V25.0938C23.6445 24.5415 24.0922 24.0938 24.6445 24.0938Z" fill="url(#paint1_linear_15_619)"/>
<path d="M42.5801 24.0508H54.5801C55.1324 24.0508 55.5801 24.4985 55.5801 25.0508V37.0508C55.5801 37.6031 55.1324 38.0508 54.5801 38.0508H42.5801C42.0278 38.0508 41.5801 37.6031 41.5801 37.0508V25.0508C41.5801 24.4985 42.0278 24.0508 42.5801 24.0508Z" fill="#FFD486"/>
<path d="M24.6445 43.3359H36.6445C37.1968 43.3359 37.6445 43.7836 37.6445 44.3359V56.3359C37.6445 56.8882 37.1968 57.3359 36.6445 57.3359H24.6445C24.0922 57.3359 23.6445 56.8882 23.6445 56.3359V44.3359C23.6445 43.7836 24.0922 43.3359 24.6445 43.3359Z" fill="#828B92"/>
</g>
<defs>
<linearGradient id="paint0_linear_15_619" x1="43.9927" y1="52.0019" x2="47.9927" y2="49.5019" gradientUnits="userSpaceOnUse">
<stop stop-color="#FF8000"/>
<stop offset="1" stop-color="#FFA500"/>
</linearGradient>
<linearGradient id="paint1_linear_15_619" x1="24.0039" y1="30.5" x2="37.0039" y2="31" gradientUnits="userSpaceOnUse">
<stop stop-color="#FF8000"/>
<stop offset="1" stop-color="#FFA500"/>
</linearGradient>
<clipPath id="clip0_15_619">
<rect width="80" height="80" fill="white"/>
</clipPath>
</defs>
</svg>
