<svg xmlns="http://www.w3.org/2000/svg" fill="none" style="display: none;">
<!-- only homepage -->
<!-- status-up-active -->
  <symbol id="status-up-active-icon"  viewBox="0 0 76 76" fill="none">
<circle cx="38" cy="38" r="38" fill="#FFF7F0"/>
<path d="M42.8646 27.0833H34.1355C30.3438 27.0833 28.0834 29.3437 28.0834 33.1353V41.8541C28.0834 45.6562 30.3438 47.9166 34.1355 47.9166H42.8542C46.6459 47.9166 48.9063 45.6562 48.9063 41.8645V33.1353C48.9167 29.3437 46.6563 27.0833 42.8646 27.0833ZM43.5834 37.0103C43.5834 37.4166 43.2605 37.7395 42.8542 37.7395C42.448 37.7395 42.125 37.4166 42.125 37.0103V36.8228L39.2917 39.6562C39.1355 39.8124 38.9271 39.8853 38.7084 39.8645C38.4896 39.8437 38.2917 39.7291 38.1771 39.5416L37.1146 37.9583L34.6355 40.4374C34.4896 40.5833 34.3125 40.6458 34.125 40.6458C33.9375 40.6458 33.75 40.5728 33.6146 40.4374C33.3334 40.1562 33.3334 39.6978 33.6146 39.4062L36.7188 36.302C36.875 36.1458 37.0834 36.0728 37.3021 36.0937C37.5209 36.1145 37.7188 36.2291 37.8334 36.4166L38.8959 37.9999L41.0938 35.802H40.9063C40.5 35.802 40.1771 35.4791 40.1771 35.0728C40.1771 34.6666 40.5 34.3437 40.9063 34.3437H42.8438C42.9375 34.3437 43.0313 34.3645 43.125 34.3958C43.3021 34.4687 43.448 34.6145 43.5209 34.7916C43.5625 34.8853 43.573 34.9791 43.573 35.0728V37.0103H43.5834Z" fill="#FF9A3B"/>
</symbol>
<!--status-up -->
  <symbol id="status-up-icon" viewBox="0 0 76 76" fill="none">
<circle cx="38" cy="38" r="38" fill="#FAFAFA"/>
<path d="M42.8646 27.0833H34.1355C30.3438 27.0833 28.0834 29.3437 28.0834 33.1353V41.8541C28.0834 45.6562 30.3438 47.9166 34.1355 47.9166H42.8542C46.6459 47.9166 48.9063 45.6562 48.9063 41.8645V33.1353C48.9167 29.3437 46.6563 27.0833 42.8646 27.0833ZM43.5834 37.0103C43.5834 37.4166 43.2605 37.7395 42.8542 37.7395C42.448 37.7395 42.125 37.4166 42.125 37.0103V36.8228L39.2917 39.6562C39.1355 39.8124 38.9271 39.8853 38.7084 39.8645C38.4896 39.8437 38.2917 39.7291 38.1771 39.5416L37.1146 37.9583L34.6355 40.4374C34.4896 40.5833 34.3125 40.6458 34.125 40.6458C33.9375 40.6458 33.75 40.5728 33.6146 40.4374C33.3334 40.1562 33.3334 39.6978 33.6146 39.4062L36.7188 36.302C36.875 36.1458 37.0834 36.0728 37.3021 36.0937C37.5209 36.1145 37.7188 36.2291 37.8334 36.4166L38.8959 37.9999L41.0938 35.802H40.9063C40.5 35.802 40.1771 35.4791 40.1771 35.0728C40.1771 34.6666 40.5 34.3437 40.9063 34.3437H42.8438C42.9375 34.3437 43.0313 34.3645 43.125 34.3958C43.3021 34.4687 43.448 34.6145 43.5209 34.7916C43.5625 34.8853 43.573 34.9791 43.573 35.0728V37.0103H43.5834Z" fill="#71839B"/>
</symbol>
<!-- chart1-active -->
  <symbol id="chart1-active-icon"  viewBox="0 0 76 76" fill="none">
<circle cx="38" cy="38" r="38" fill="#FFF7F0"/>
<path d="M48.9166 47.9167H28.0833C27.6562 47.9167 27.302 47.5626 27.302 47.1355C27.302 46.7084 27.6562 46.3542 28.0833 46.3542H48.9166C49.3437 46.3542 49.6978 46.7084 49.6978 47.1355C49.6978 47.5626 49.3437 47.9167 48.9166 47.9167Z" fill="#FF9A3B"/>
<path d="M36.1562 29.1666V47.9166H40.8438V29.1666C40.8438 28.0208 40.375 27.0833 38.9687 27.0833H38.0313C36.625 27.0833 36.1562 28.0208 36.1562 29.1666Z" fill="#FF9A3B"/>
<path d="M29.125 35.4166V47.9166H33.2917V35.4166C33.2917 34.2708 32.875 33.3333 31.625 33.3333H30.7917C29.5417 33.3333 29.125 34.2708 29.125 35.4166Z" fill="#FF9A3B"/>
<path d="M43.7083 40.6251V47.9167H47.8749V40.6251C47.8749 39.4792 47.4583 38.5417 46.2083 38.5417H45.3749C44.1249 38.5417 43.7083 39.4792 43.7083 40.6251Z" fill="#FF9A3B"/>
</symbol>
<!--chart1-icon  -->
  <symbol id="chart1-icon"  viewBox="0 0 76 76" fill="none">
<circle cx="38" cy="38" r="38" fill="#FAFAFA"/>
<path d="M48.9166 47.9167H28.0833C27.6562 47.9167 27.302 47.5626 27.302 47.1355C27.302 46.7084 27.6562 46.3542 28.0833 46.3542H48.9166C49.3437 46.3542 49.6978 46.7084 49.6978 47.1355C49.6978 47.5626 49.3437 47.9167 48.9166 47.9167Z" fill="#71839B"/>
<path d="M36.1562 29.1666V47.9166H40.8438V29.1666C40.8438 28.0208 40.375 27.0833 38.9687 27.0833H38.0313C36.625 27.0833 36.1562 28.0208 36.1562 29.1666Z" fill="#71839B"/>
<path d="M29.125 35.4166V47.9166H33.2917V35.4166C33.2917 34.2708 32.875 33.3333 31.625 33.3333H30.7917C29.5417 33.3333 29.125 34.2708 29.125 35.4166Z" fill="#71839B"/>
<path d="M43.7083 40.6251V47.9167H47.8749V40.6251C47.8749 39.4792 47.4583 38.5417 46.2083 38.5417H45.3749C44.1249 38.5417 43.7083 39.4792 43.7083 40.6251Z" fill="#71839B"/>
</symbol>
<!-- bitcoin-convert-active -->
    <symbol id="bitcoin-convert-active-icon"  viewBox="0 0 76 76" fill="none">
<circle cx="38" cy="38" r="38" fill="#FFF7F0"/>
<path d="M49.9584 40.8542C49.5313 40.8542 49.1771 41.2084 49.1771 41.6355C49.1771 44.7188 47.0313 47.3022 44.1459 47.9792L44.4271 47.5105C44.6459 47.1355 44.5313 46.6563 44.1563 46.4376C43.7917 46.2188 43.3021 46.3334 43.0834 46.7084L41.9896 48.5313C41.8438 48.7709 41.8438 49.073 41.9792 49.3126C42.1146 49.5626 42.375 49.7084 42.6563 49.7084C47.1042 49.7084 50.7292 46.0834 50.7292 41.6355C50.7396 41.2084 50.3855 40.8542 49.9584 40.8542Z" fill="#FF9A3B"/>
<path d="M34.3334 25.2292C29.8855 25.2292 26.2605 28.8542 26.2605 33.3022C26.2605 33.7292 26.6147 34.0834 27.0417 34.0834C27.4688 34.0834 27.823 33.7292 27.823 33.3022C27.823 30.2188 29.9688 27.6355 32.8542 26.9584L32.573 27.4272C32.3542 27.8022 32.4688 28.2813 32.8438 28.5001C33.2084 28.7188 33.698 28.6042 33.9167 28.2292L35.0105 26.4063C35.1459 26.1667 35.1563 25.8751 35.0105 25.6251C34.8751 25.3855 34.6147 25.2292 34.3334 25.2292Z" fill="#FF9A3B"/>
<path d="M48.3958 34.0313C48.3958 37.2397 46.0625 39.8855 43.0104 40.3751C43.0104 40.3647 43.0104 40.3647 43.0104 40.3542C42.7083 36.4688 39.5625 33.3022 35.625 32.9897C36.1146 29.9376 38.7604 27.6042 41.9688 27.6042C45.5208 27.6042 48.3958 30.4792 48.3958 34.0313Z" fill="#FF9A3B"/>
<path d="M36.2187 39.7916C36.2187 39.6353 36.0416 39.3958 35.8228 39.3958H33.677V40.177H35.8228C36.0416 40.1874 36.2187 40.0103 36.2187 39.7916Z" fill="#FF9A3B"/>
<path d="M36.2395 41.75H35.8228H33.677V42.5312H36.2499C36.5833 42.5312 36.8124 42.3229 36.8124 42.1354C36.8124 41.9479 36.5728 41.75 36.2395 41.75Z" fill="#FF9A3B"/>
<path d="M41.448 40.4688C41.2084 37.3125 38.6876 34.7917 35.5313 34.5521C35.3647 34.5417 35.2084 34.5312 35.0313 34.5312C31.4792 34.5312 28.6042 37.4063 28.6042 40.9688C28.6042 44.5208 31.4792 47.3958 35.0313 47.3958C38.5834 47.3958 41.4688 44.5208 41.4688 40.9688C41.4688 40.7917 41.4584 40.6354 41.448 40.4688ZM36.2397 44.0938H35.5522V44.4896C35.5522 44.9167 35.198 45.2708 34.7709 45.2708C34.3438 45.2708 33.9897 44.9167 33.9897 44.4896V44.0938H32.8959C32.4688 44.0938 32.1147 43.7396 32.1147 43.3125V40.9688V38.625C32.1147 38.1979 32.4688 37.8438 32.8959 37.8438H33.9897V37.4479C33.9897 37.0208 34.3438 36.6667 34.7709 36.6667C35.198 36.6667 35.5522 37.0208 35.5522 37.4479V37.8438H35.823C36.8647 37.8438 37.7813 38.7604 37.7813 39.8021C37.7813 40.1042 37.7084 40.3854 37.5834 40.6458C38.0626 41 38.3647 41.5417 38.3647 42.1458C38.3647 43.2187 37.4167 44.0938 36.2397 44.0938Z" fill="#FF9A3B"/>
</symbol>
<!-- bitcoin-convert   -->
  <symbol id="bitcoin-convert-icon"  viewBox="0 0 76 76" fill="none">
<circle cx="38" cy="38" r="38" fill="#FAFAFA"/>
<path d="M49.9584 40.8542C49.5313 40.8542 49.1771 41.2084 49.1771 41.6355C49.1771 44.7188 47.0313 47.3022 44.1459 47.9792L44.4271 47.5105C44.6459 47.1355 44.5313 46.6563 44.1563 46.4376C43.7917 46.2188 43.3021 46.3334 43.0834 46.7084L41.9896 48.5313C41.8438 48.7709 41.8438 49.073 41.9792 49.3126C42.1146 49.5626 42.375 49.7084 42.6563 49.7084C47.1042 49.7084 50.7292 46.0834 50.7292 41.6355C50.7396 41.2084 50.3855 40.8542 49.9584 40.8542Z" fill="#71839B"/>
<path d="M34.3334 25.2292C29.8855 25.2292 26.2605 28.8542 26.2605 33.3022C26.2605 33.7292 26.6147 34.0834 27.0417 34.0834C27.4688 34.0834 27.823 33.7292 27.823 33.3022C27.823 30.2188 29.9688 27.6355 32.8542 26.9584L32.573 27.4272C32.3542 27.8022 32.4688 28.2813 32.8438 28.5001C33.2084 28.7188 33.698 28.6042 33.9167 28.2292L35.0105 26.4063C35.1459 26.1667 35.1563 25.8751 35.0105 25.6251C34.8751 25.3855 34.6147 25.2292 34.3334 25.2292Z" fill="#71839B"/>
<path d="M48.3958 34.0313C48.3958 37.2397 46.0625 39.8855 43.0104 40.3751C43.0104 40.3647 43.0104 40.3647 43.0104 40.3542C42.7083 36.4688 39.5625 33.3022 35.625 32.9897C36.1146 29.9376 38.7604 27.6042 41.9688 27.6042C45.5208 27.6042 48.3958 30.4792 48.3958 34.0313Z" fill="#71839B"/>
<path d="M36.2187 39.7916C36.2187 39.6353 36.0416 39.3958 35.8228 39.3958H33.677V40.177H35.8228C36.0416 40.1874 36.2187 40.0103 36.2187 39.7916Z" fill="#71839B"/>
<path d="M36.2395 41.75H35.8228H33.677V42.5312H36.2499C36.5833 42.5312 36.8124 42.3229 36.8124 42.1354C36.8124 41.9479 36.5728 41.75 36.2395 41.75Z" fill="#71839B"/>
<path d="M41.448 40.4688C41.2084 37.3125 38.6876 34.7917 35.5313 34.5521C35.3647 34.5417 35.2084 34.5312 35.0313 34.5312C31.4792 34.5312 28.6042 37.4063 28.6042 40.9688C28.6042 44.5208 31.4792 47.3958 35.0313 47.3958C38.5834 47.3958 41.4688 44.5208 41.4688 40.9688C41.4688 40.7917 41.4584 40.6354 41.448 40.4688ZM36.2397 44.0938H35.5522V44.4896C35.5522 44.9167 35.198 45.2708 34.7709 45.2708C34.3438 45.2708 33.9897 44.9167 33.9897 44.4896V44.0938H32.8959C32.4688 44.0938 32.1147 43.7396 32.1147 43.3125V40.9688V38.625C32.1147 38.1979 32.4688 37.8438 32.8959 37.8438H33.9897V37.4479C33.9897 37.0208 34.3438 36.6667 34.7709 36.6667C35.198 36.6667 35.5522 37.0208 35.5522 37.4479V37.8438H35.823C36.8647 37.8438 37.7813 38.7604 37.7813 39.8021C37.7813 40.1042 37.7084 40.3854 37.5834 40.6458C38.0626 41 38.3647 41.5417 38.3647 42.1458C38.3647 43.2187 37.4167 44.0938 36.2397 44.0938Z" fill="#71839B"/>
</symbol>
<!-- product1-active -->
  <symbol id="product1-active-icon" width="76" height="76" viewBox="0 0 76 76"  fill="none">
<circle cx="38" cy="38" r="38" fill="#FFF7F0"/>
<path d="M50.5 34.5625H25.5C24.9875 34.5625 24.5625 34.1375 24.5625 33.625C24.5625 33.1125 24.9875 32.6875 25.5 32.6875H50.5C51.0125 32.6875 51.4375 33.1125 51.4375 33.625C51.4375 34.1375 51.0125 34.5625 50.5 34.5625Z" fill="#FF9A3B"/>
<path d="M33 44.5625H30.5C29.9875 44.5625 29.5625 44.1375 29.5625 43.625C29.5625 43.1125 29.9875 42.6875 30.5 42.6875H33C33.5125 42.6875 33.9375 43.1125 33.9375 43.625C33.9375 44.1375 33.5125 44.5625 33 44.5625Z" fill="#FF9A3B"/>
<path d="M41.125 44.5625H36.125C35.6125 44.5625 35.1875 44.1375 35.1875 43.625C35.1875 43.1125 35.6125 42.6875 36.125 42.6875H41.125C41.6375 42.6875 42.0625 43.1125 42.0625 43.625C42.0625 44.1375 41.6375 44.5625 41.125 44.5625Z" fill="#FF9A3B"/>
<path d="M44.95 49.5625H31.05C26.075 49.5625 24.5625 48.0625 24.5625 43.1375V32.8625C24.5625 27.9375 26.075 26.4375 31.05 26.4375H44.9375C49.9125 26.4375 51.425 27.9375 51.425 32.8625V43.125C51.4375 48.0625 49.925 49.5625 44.95 49.5625ZM31.05 28.3125C27.125 28.3125 26.4375 28.9875 26.4375 32.8625V43.125C26.4375 47 27.125 47.675 31.05 47.675H44.9375C48.8625 47.675 49.55 47 49.55 43.125V32.8625C49.55 28.9875 48.8625 28.3125 44.9375 28.3125H31.05Z" fill="#FF9A3B"/>
</symbol>
<!-- product1 -->
  <symbol id="product1-icon" width="76" height="76" viewBox="0 0 76 76"  fill="none">
<circle cx="38" cy="38" r="38" fill="#FAFAFA"/>
<path d="M50.5 34.5625H25.5C24.9875 34.5625 24.5625 34.1375 24.5625 33.625C24.5625 33.1125 24.9875 32.6875 25.5 32.6875H50.5C51.0125 32.6875 51.4375 33.1125 51.4375 33.625C51.4375 34.1375 51.0125 34.5625 50.5 34.5625Z" fill="#71839B"/>
<path d="M33 44.5625H30.5C29.9875 44.5625 29.5625 44.1375 29.5625 43.625C29.5625 43.1125 29.9875 42.6875 30.5 42.6875H33C33.5125 42.6875 33.9375 43.1125 33.9375 43.625C33.9375 44.1375 33.5125 44.5625 33 44.5625Z" fill="#71839B"/>
<path d="M41.125 44.5625H36.125C35.6125 44.5625 35.1875 44.1375 35.1875 43.625C35.1875 43.1125 35.6125 42.6875 36.125 42.6875H41.125C41.6375 42.6875 42.0625 43.1125 42.0625 43.625C42.0625 44.1375 41.6375 44.5625 41.125 44.5625Z" fill="#71839B"/>
<path d="M44.95 49.5625H31.05C26.075 49.5625 24.5625 48.0625 24.5625 43.1375V32.8625C24.5625 27.9375 26.075 26.4375 31.05 26.4375H44.9375C49.9125 26.4375 51.425 27.9375 51.425 32.8625V43.125C51.4375 48.0625 49.925 49.5625 44.95 49.5625ZM31.05 28.3125C27.125 28.3125 26.4375 28.9875 26.4375 32.8625V43.125C26.4375 47 27.125 47.675 31.05 47.675H44.9375C48.8625 47.675 49.55 47 49.55 43.125V32.8625C49.55 28.9875 48.8625 28.3125 44.9375 28.3125H31.05Z" fill="#71839B"/>
</symbol>
<!-- product2 -->
  <symbol id="product2-icon" width="76" height="76" viewBox="0 0 76 76"  fill="none">
<circle cx="38" cy="38" r="38" fill="#FAFAFA"/>
<path d="M42.3747 42.6875C42.1497 42.6875 41.8997 42.675 41.6747 42.6625C41.2122 42.6375 40.8372 42.2625 40.7997 41.8C40.5247 38.3125 37.6872 35.4875 34.2122 35.2125C33.7497 35.175 33.3747 34.8 33.3497 34.3375C33.3372 34.1125 33.3247 33.8625 33.3247 33.6375C33.3247 28.6375 37.3872 24.575 42.3872 24.575C47.3872 24.575 51.4497 28.6375 51.4497 33.6375C51.4497 38.6375 47.3747 42.6875 42.3747 42.6875ZM35.1872 33.45C38.9122 34.1125 41.8997 37.0875 42.5497 40.8125C46.4372 40.7125 49.5622 37.5375 49.5622 33.625C49.5622 29.6625 46.3372 26.4375 42.3747 26.4375C38.4747 26.4375 35.2872 29.5625 35.1872 33.45Z" fill="#71839B"/>
<path d="M33.625 51.4375C28.625 51.4375 24.5625 47.375 24.5625 42.375C24.5625 37.375 28.625 33.3125 33.625 33.3125C33.85 33.3125 34.1 33.325 34.325 33.3375C38.7375 33.6875 42.3125 37.2625 42.65 41.65C42.6625 41.9 42.675 42.15 42.675 42.375C42.6875 47.375 38.625 51.4375 33.625 51.4375ZM33.625 35.1875C29.6625 35.1875 26.4375 38.4125 26.4375 42.375C26.4375 46.3375 29.6625 49.5625 33.625 49.5625C37.5875 49.5625 40.8125 46.3375 40.8125 42.375C40.8125 42.175 40.8 41.975 40.7875 41.775C40.5125 38.3125 37.675 35.475 34.2 35.2C34.025 35.2 33.825 35.1875 33.625 35.1875Z" fill="#71839B"/>
<path d="M33.625 46.4375C33.2875 46.4375 32.9625 46.25 32.8 45.95L31.825 44.175L30.05 43.2C29.75 43.0375 29.5625 42.725 29.5625 42.375C29.5625 42.025 29.75 41.7125 30.05 41.55L31.825 40.575L32.8 38.8C33.125 38.2 34.1125 38.2 34.45 38.8L35.425 40.575L37.2 41.55C37.5 41.7125 37.6875 42.025 37.6875 42.375C37.6875 42.725 37.5 43.0375 37.2 43.2L35.425 44.175L34.45 45.95C34.2875 46.25 33.9625 46.4375 33.625 46.4375ZM32.45 42.375L32.9625 42.6625C33.125 42.75 33.25 42.875 33.3375 43.0375L33.625 43.55L33.9125 43.0375C34 42.875 34.125 42.75 34.2875 42.6625L34.8 42.375L34.2875 42.0875C34.125 42 34 41.875 33.9125 41.7125L33.625 41.2L33.3375 41.7125C33.25 41.875 33.125 42 32.9625 42.0875L32.45 42.375Z" fill="#71839B"/>
</symbol>
<!-- product3 -->
  <symbol id="product3-icon" width="76" height="76" viewBox="0 0 76 76"  fill="none">
<circle cx="38" cy="38" r="38" fill="#FAFAFA"/>
<path d="M49.25 37.6875H26.75C25.55 37.6875 24.5625 36.7 24.5625 35.5V31.35C24.5625 30.5 25.15 29.6375 25.9375 29.325L37.1875 24.825C37.6625 24.6375 38.3375 24.6375 38.8125 24.825L50.0625 29.325C50.85 29.6375 51.4375 30.5125 51.4375 31.35V35.5C51.4375 36.7 50.45 37.6875 49.25 37.6875ZM38 26.55C37.95 26.55 37.9 26.55 37.875 26.5625L26.6375 31.0625C26.5625 31.1 26.4375 31.2625 26.4375 31.35V35.5C26.4375 35.675 26.575 35.8125 26.75 35.8125H49.25C49.425 35.8125 49.5625 35.675 49.5625 35.5V31.35C49.5625 31.2625 49.45 31.1 49.3625 31.0625L38.1125 26.5625C38.0875 26.55 38.05 26.55 38 26.55Z" fill="#71839B"/>
<path d="M50.5 51.4375H25.5C24.9875 51.4375 24.5625 51.0125 24.5625 50.5V46.75C24.5625 45.55 25.55 44.5625 26.75 44.5625H49.25C50.45 44.5625 51.4375 45.55 51.4375 46.75V50.5C51.4375 51.0125 51.0125 51.4375 50.5 51.4375ZM26.4375 49.5625H49.5625V46.75C49.5625 46.575 49.425 46.4375 49.25 46.4375H26.75C26.575 46.4375 26.4375 46.575 26.4375 46.75V49.5625Z" fill="#71839B"/>
<path d="M28 46.4375C27.4875 46.4375 27.0625 46.0125 27.0625 45.5V36.75C27.0625 36.2375 27.4875 35.8125 28 35.8125C28.5125 35.8125 28.9375 36.2375 28.9375 36.75V45.5C28.9375 46.0125 28.5125 46.4375 28 46.4375Z" fill="#71839B"/>
<path d="M33 46.4375C32.4875 46.4375 32.0625 46.0125 32.0625 45.5V36.75C32.0625 36.2375 32.4875 35.8125 33 35.8125C33.5125 35.8125 33.9375 36.2375 33.9375 36.75V45.5C33.9375 46.0125 33.5125 46.4375 33 46.4375Z" fill="#71839B"/>
<path d="M38 46.4375C37.4875 46.4375 37.0625 46.0125 37.0625 45.5V36.75C37.0625 36.2375 37.4875 35.8125 38 35.8125C38.5125 35.8125 38.9375 36.2375 38.9375 36.75V45.5C38.9375 46.0125 38.5125 46.4375 38 46.4375Z" fill="#71839B"/>
<path d="M43 46.4375C42.4875 46.4375 42.0625 46.0125 42.0625 45.5V36.75C42.0625 36.2375 42.4875 35.8125 43 35.8125C43.5125 35.8125 43.9375 36.2375 43.9375 36.75V45.5C43.9375 46.0125 43.5125 46.4375 43 46.4375Z" fill="#71839B"/>
<path d="M48 46.4375C47.4875 46.4375 47.0625 46.0125 47.0625 45.5V36.75C47.0625 36.2375 47.4875 35.8125 48 35.8125C48.5125 35.8125 48.9375 36.2375 48.9375 36.75V45.5C48.9375 46.0125 48.5125 46.4375 48 46.4375Z" fill="#71839B"/>
<path d="M51.75 51.4375H24.25C23.7375 51.4375 23.3125 51.0125 23.3125 50.5C23.3125 49.9875 23.7375 49.5625 24.25 49.5625H51.75C52.2625 49.5625 52.6875 49.9875 52.6875 50.5C52.6875 51.0125 52.2625 51.4375 51.75 51.4375Z" fill="#71839B"/>
<path d="M38 34.5625C36.45 34.5625 35.1875 33.3 35.1875 31.75C35.1875 30.2 36.45 28.9375 38 28.9375C39.55 28.9375 40.8125 30.2 40.8125 31.75C40.8125 33.3 39.55 34.5625 38 34.5625ZM38 30.8125C37.4875 30.8125 37.0625 31.2375 37.0625 31.75C37.0625 32.2625 37.4875 32.6875 38 32.6875C38.5125 32.6875 38.9375 32.2625 38.9375 31.75C38.9375 31.2375 38.5125 30.8125 38 30.8125Z" fill="#71839B"/>
</symbol>
<!-- product3-active -->
  <symbol id="product3-active-icon" width="76" height="76" viewBox="0 0 76 76"  fill="none">
<circle cx="38" cy="38" r="38" fill="#FFF7F0"/>
<path d="M49.25 37.6875H26.75C25.55 37.6875 24.5625 36.7 24.5625 35.5V31.35C24.5625 30.5 25.15 29.6375 25.9375 29.325L37.1875 24.825C37.6625 24.6375 38.3375 24.6375 38.8125 24.825L50.0625 29.325C50.85 29.6375 51.4375 30.5125 51.4375 31.35V35.5C51.4375 36.7 50.45 37.6875 49.25 37.6875ZM38 26.55C37.95 26.55 37.9 26.55 37.875 26.5625L26.6375 31.0625C26.5625 31.1 26.4375 31.2625 26.4375 31.35V35.5C26.4375 35.675 26.575 35.8125 26.75 35.8125H49.25C49.425 35.8125 49.5625 35.675 49.5625 35.5V31.35C49.5625 31.2625 49.45 31.1 49.3625 31.0625L38.1125 26.5625C38.0875 26.55 38.05 26.55 38 26.55Z" fill="#FFA500"/>
<path d="M50.5 51.4375H25.5C24.9875 51.4375 24.5625 51.0125 24.5625 50.5V46.75C24.5625 45.55 25.55 44.5625 26.75 44.5625H49.25C50.45 44.5625 51.4375 45.55 51.4375 46.75V50.5C51.4375 51.0125 51.0125 51.4375 50.5 51.4375ZM26.4375 49.5625H49.5625V46.75C49.5625 46.575 49.425 46.4375 49.25 46.4375H26.75C26.575 46.4375 26.4375 46.575 26.4375 46.75V49.5625Z" fill="#FFA500"/>
<path d="M28 46.4375C27.4875 46.4375 27.0625 46.0125 27.0625 45.5V36.75C27.0625 36.2375 27.4875 35.8125 28 35.8125C28.5125 35.8125 28.9375 36.2375 28.9375 36.75V45.5C28.9375 46.0125 28.5125 46.4375 28 46.4375Z" fill="#FFA500"/>
<path d="M33 46.4375C32.4875 46.4375 32.0625 46.0125 32.0625 45.5V36.75C32.0625 36.2375 32.4875 35.8125 33 35.8125C33.5125 35.8125 33.9375 36.2375 33.9375 36.75V45.5C33.9375 46.0125 33.5125 46.4375 33 46.4375Z" fill="#FFA500"/>
<path d="M38 46.4375C37.4875 46.4375 37.0625 46.0125 37.0625 45.5V36.75C37.0625 36.2375 37.4875 35.8125 38 35.8125C38.5125 35.8125 38.9375 36.2375 38.9375 36.75V45.5C38.9375 46.0125 38.5125 46.4375 38 46.4375Z" fill="#FFA500"/>
<path d="M43 46.4375C42.4875 46.4375 42.0625 46.0125 42.0625 45.5V36.75C42.0625 36.2375 42.4875 35.8125 43 35.8125C43.5125 35.8125 43.9375 36.2375 43.9375 36.75V45.5C43.9375 46.0125 43.5125 46.4375 43 46.4375Z" fill="#FFA500"/>
<path d="M48 46.4375C47.4875 46.4375 47.0625 46.0125 47.0625 45.5V36.75C47.0625 36.2375 47.4875 35.8125 48 35.8125C48.5125 35.8125 48.9375 36.2375 48.9375 36.75V45.5C48.9375 46.0125 48.5125 46.4375 48 46.4375Z" fill="#FFA500"/>
<path d="M51.75 51.4375H24.25C23.7375 51.4375 23.3125 51.0125 23.3125 50.5C23.3125 49.9875 23.7375 49.5625 24.25 49.5625H51.75C52.2625 49.5625 52.6875 49.9875 52.6875 50.5C52.6875 51.0125 52.2625 51.4375 51.75 51.4375Z" fill="#FFA500"/>
<path d="M38 34.5625C36.45 34.5625 35.1875 33.3 35.1875 31.75C35.1875 30.2 36.45 28.9375 38 28.9375C39.55 28.9375 40.8125 30.2 40.8125 31.75C40.8125 33.3 39.55 34.5625 38 34.5625ZM38 30.8125C37.4875 30.8125 37.0625 31.2375 37.0625 31.75C37.0625 32.2625 37.4875 32.6875 38 32.6875C38.5125 32.6875 38.9375 32.2625 38.9375 31.75C38.9375 31.2375 38.5125 30.8125 38 30.8125Z" fill="#FFA500"/>
</symbol>
<!-- product4 -->
  <symbol id="product4-icon" width="76" height="76" viewBox="0 0 76 76"  fill="none">
<circle cx="38" cy="38" r="38" fill="#FAFAFA"/>
<g clip-path="url(#clip0_1091_12273)">
<path d="M49.25 49.25V53H46.75V49.25C46.75 47.8713 45.6288 46.75 44.25 46.75H31.75C30.3713 46.75 29.25 47.8713 29.25 49.25V53H26.75V49.25C26.75 46.4925 28.9925 44.25 31.75 44.25H44.25C47.0075 44.25 49.25 46.4925 49.25 49.25ZM50.5 30.5V36.75H48V41.75H28V36.75H25.5V30.5H28V29.25C28 27.1825 29.6825 25.5 31.75 25.5H36.75V23H39.25V25.5H44.25C46.3175 25.5 48 27.1825 48 29.25V30.5H50.5ZM45.5 29.25C45.5 28.56 44.9388 28 44.25 28H31.75C31.0613 28 30.5 28.56 30.5 29.25V39.25H45.5V29.25ZM34.875 31.75C33.84 31.75 33 32.59 33 33.625C33 34.66 33.84 35.5 34.875 35.5C35.91 35.5 36.75 34.66 36.75 33.625C36.75 32.59 35.91 31.75 34.875 31.75ZM41.125 31.75C40.09 31.75 39.25 32.59 39.25 33.625C39.25 34.66 40.09 35.5 41.125 35.5C42.16 35.5 43 34.66 43 33.625C43 32.59 42.16 31.75 41.125 31.75Z" fill="#71839B"/>
</g>
<defs>
<clipPath id="clip0_1091_12273">
<rect width="30" height="30" fill="white" transform="translate(23 23)"/>
</clipPath>
</defs>
</symbol>
<!-- product4-active -->
  <symbol id="product4-active-icon" width="76" height="76" viewBox="0 0 76 76"  fill="none">
<circle cx="38" cy="38" r="38" fill="#FFF7F0"/>
<g clip-path="url(#clip0_1135_12062)">
<path d="M49.25 49.25V53H46.75V49.25C46.75 47.8713 45.6288 46.75 44.25 46.75H31.75C30.3713 46.75 29.25 47.8713 29.25 49.25V53H26.75V49.25C26.75 46.4925 28.9925 44.25 31.75 44.25H44.25C47.0075 44.25 49.25 46.4925 49.25 49.25ZM50.5 30.5V36.75H48V41.75H28V36.75H25.5V30.5H28V29.25C28 27.1825 29.6825 25.5 31.75 25.5H36.75V23H39.25V25.5H44.25C46.3175 25.5 48 27.1825 48 29.25V30.5H50.5ZM45.5 29.25C45.5 28.56 44.9388 28 44.25 28H31.75C31.0613 28 30.5 28.56 30.5 29.25V39.25H45.5V29.25ZM34.875 31.75C33.84 31.75 33 32.59 33 33.625C33 34.66 33.84 35.5 34.875 35.5C35.91 35.5 36.75 34.66 36.75 33.625C36.75 32.59 35.91 31.75 34.875 31.75ZM41.125 31.75C40.09 31.75 39.25 32.59 39.25 33.625C39.25 34.66 40.09 35.5 41.125 35.5C42.16 35.5 43 34.66 43 33.625C43 32.59 42.16 31.75 41.125 31.75Z" fill="#FF9A3B"/>
</g>
<defs>
<clipPath id="clip0_1135_12062">
<rect width="30" height="30" fill="white" transform="translate(23 23)"/>
</clipPath>
</defs>
</symbol>
<!-- google-play -->
<symbol id="google-play-icon"  viewBox="0 0 40 40"  fill="none">
<mask id="mask0_1047_12581" style="mask-type:alpha" maskUnits="userSpaceOnUse" x="0" y="0" >
<rect  fill="#D9D9D9"/>
</mask>
<g mask="url(#mask0_1047_12581)">
</g>
<g clip-path="url(#clip0_1047_12581)">
<path d="M30.009 26.4169L25.5906 22.0725L9.37073 38.0673L30.009 26.4169Z" fill="#081131"/>
<path d="M30.009 14.5908L9.37073 2.94043L25.5906 18.9352L30.009 14.5908Z" fill="#081131"/>
<path d="M36.4763 22.7C37.799 21.6671 37.799 19.3392 36.3884 18.3062L32.0594 15.8427L27.2294 20.5047L32.0594 25.1667L36.4763 22.7Z" fill="#081131"/>
<path d="M5.13571 39L23.9965 20.4969L5.13571 2.00154V2C4.18142 2.49179 3.54163 3.3875 3.54163 4.55146V36.4485C3.54163 37.6125 4.18142 38.5082 5.13571 39Z" fill="#081131"/>
</g>
<defs>
<clipPath id="clip0_1047_12581">
<rect width="37" height="37" fill="white" transform="translate(2 2)"/>
</clipPath>
</defs>
</symbol>
<!-- android1 -->
<symbol id="android1-icon"  viewBox="0 0 40 40"  fill="none">
<mask id="mask0_1047_12580" style="mask-type:alpha" maskUnits="userSpaceOnUse" x="0" y="0" >
<rect  fill="#D9D9D9"/>
</mask>
<g mask="url(#mask0_1047_12580)">
<mask id="mask1_1047_12580" style="mask-type:alpha" maskUnits="userSpaceOnUse" x="2" y="2" width="37" height="37">
<rect x="2" y="2" width="37" height="37" fill="#D9D9D9"/>
</mask>
<g mask="url(#mask1_1047_12580)">
<path fill-rule="evenodd" clip-rule="evenodd" d="M25.447 5.65217L25.8192 5.08872L26.1913 4.53349L27.0206 3.28522C27.1238 3.13184 27.0814 2.92434 26.9277 2.82346C26.7759 2.72013 26.5675 2.76276 26.4684 2.91696L25.2023 4.81561L24.822 5.38726C23.6186 4.91895 22.2775 4.65732 20.8617 4.65732C19.4479 4.65732 18.1047 4.91895 16.9014 5.38726L16.5231 4.81561L15.2589 2.91696C15.1558 2.76276 14.9495 2.72177 14.7957 2.82346C14.644 2.92434 14.6016 3.13184 14.7027 3.28522L15.532 4.53349L15.9041 5.08872L16.2783 5.65217C13.4527 6.9718 11.5413 9.46998 11.5413 12.3298H30.1821C30.1821 9.46998 28.2706 6.9718 25.447 5.65217ZM24.8564 9.66108C24.3043 9.66108 23.8573 9.21326 23.8573 8.65967C23.8573 8.10688 24.3043 7.66072 24.8564 7.66072C25.4086 7.66072 25.8556 8.10688 25.8556 8.65967C25.8556 9.21326 25.4086 9.66108 24.8564 9.66108ZM15.8677 8.65967C15.8677 9.21326 16.3148 9.66108 16.8669 9.66108C17.4192 9.66108 17.8661 9.21326 17.8661 8.65967C17.8661 8.10688 17.4192 7.66072 16.8669 7.66072C16.3148 7.66072 15.8677 8.10688 15.8677 8.65967ZM30.1821 13.6626H11.5413V28.3383C11.5413 29.5038 12.4859 30.4519 13.6509 30.4519H15.1719C15.1193 30.6282 15.091 30.8128 15.091 31.0072V35.2325C15.091 36.3373 15.9871 37.2329 17.0894 37.2329C18.1918 37.2329 19.0877 36.3373 19.0877 35.2325V31.0072C19.0877 30.8128 19.0575 30.6282 19.0069 30.4519H22.7164C22.6658 30.6282 22.6375 30.8128 22.6375 31.0072V35.2325C22.6375 36.3373 23.5316 37.2329 24.634 37.2329C25.7383 37.2329 26.6344 36.3373 26.6344 35.2325V31.0072C26.6344 30.8128 26.604 30.6282 26.5513 30.4519H28.0744C29.2395 30.4519 30.1821 29.5038 30.1821 28.3383V13.6626ZM8.21201 13.6626C7.10764 13.6626 6.21362 14.5582 6.21362 15.6629V24.2244C6.21362 25.3293 7.10764 26.2249 8.21201 26.2249C9.31436 26.2249 10.2084 25.3293 10.2084 24.2244V15.6629C10.2084 14.5582 9.31436 13.6626 8.21201 13.6626ZM33.5134 13.6626C32.409 13.6626 31.5149 14.5582 31.5149 15.6629V24.2244C31.5149 25.3293 32.409 26.2249 33.5134 26.2249C34.6157 26.2249 35.5097 25.3293 35.5097 24.2244V15.6629C35.5097 14.5582 34.6157 13.6626 33.5134 13.6626Z" fill="#081131"/>
</g>
</g>
</symbol>
<!-- api-home -->
 <symbol id="api-home-icon"  viewBox="0 0 40 40"  fill="none">
<mask id="mask0_1047_12579" style="mask-type:alpha" maskUnits="userSpaceOnUse" x="0" y="0" >
<rect  fill="#D9D9D9"/>
</mask>
<g mask="url(#mask0_1047_12579)">
<path fill-rule="evenodd" clip-rule="evenodd" d="M25.656 8.68394C24.1723 8.90874 22.9673 9.63396 22.5505 10.0507L20.9345 11.6668L28.3333 19.0658L29.9495 17.4496C30.3661 17.0328 31.0913 15.8278 31.3161 14.3441C31.531 12.926 31.2753 11.3766 29.9495 10.0507C28.6235 8.72483 27.0741 8.46908 25.656 8.68394ZM25.2815 6.21216C27.3008 5.90619 29.7098 6.27549 31.7171 8.28296C33.7246 10.2904 34.094 12.6993 33.788 14.7187C33.492 16.6725 32.5505 18.3841 31.7171 19.2173L29.2171 21.7175C28.729 22.2056 27.9376 22.2056 27.4495 21.7175L18.2828 12.5507C18.0483 12.3163 17.9166 11.9984 17.9166 11.6668C17.9166 11.3353 18.0483 11.0174 18.2828 10.783L20.7828 8.28298C21.616 7.44966 23.3276 6.50818 25.2815 6.21216Z" fill="#081131"/>
<path fill-rule="evenodd" clip-rule="evenodd" d="M35.8838 4.11611C36.372 4.60426 36.372 5.39573 35.8838 5.88388L31.7172 10.0505C31.229 10.5387 30.4377 10.5389 29.9495 10.0508C29.4613 9.56261 29.4613 8.77093 29.9495 8.28278L34.1162 4.11611C34.6043 3.62796 35.3957 3.62796 35.8838 4.11611Z" fill="#081131"/>
<path fill-rule="evenodd" clip-rule="evenodd" d="M11.6661 17.9166C11.9976 17.9166 12.3155 18.0483 12.55 18.2828L21.7165 27.4495C22.2047 27.9376 22.2047 28.729 21.7165 29.2171L19.2167 31.7171C18.3834 32.5505 16.6717 33.492 14.7179 33.788C12.6986 34.094 10.2896 33.7246 8.28219 31.7171M8.28219 31.7171C6.27474 29.7098 5.90547 27.3008 6.21142 25.2815C6.50746 23.3276 7.44892 21.6161 8.28216 20.7828L10.7822 18.2828C11.0166 18.0483 11.3346 17.9166 11.6661 17.9166M11.6661 20.9345L10.05 22.5505C9.63322 22.9673 8.90801 24.1723 8.68321 25.656C8.46834 27.0741 8.72407 28.6235 10.05 29.9495C11.3758 31.2753 12.9252 31.5311 14.3434 31.3163C15.8271 31.0915 17.032 30.3661 17.4489 29.9495L19.065 28.3333L11.6661 20.9345Z" fill="#081131"/>
<path fill-rule="evenodd" clip-rule="evenodd" d="M23.3839 22.4495C23.872 22.9377 23.872 23.729 23.3839 24.2172L20.0505 27.5505C19.5624 28.0387 18.771 28.0387 18.2829 27.5505C17.7947 27.0623 17.7947 26.271 18.2829 25.7828L21.6162 22.4495C22.1044 21.9613 22.8957 21.9613 23.3839 22.4495Z" fill="#081131"/>
<path fill-rule="evenodd" clip-rule="evenodd" d="M10.0499 29.9495C10.5381 30.4377 10.5387 31.229 10.0505 31.7172L5.88388 35.8838C5.39573 36.372 4.60426 36.372 4.11611 35.8838C3.62796 35.3957 3.62796 34.6043 4.11611 34.1162L8.28278 29.9495C8.77093 29.4613 9.56176 29.4613 10.0499 29.9495Z" fill="#081131"/>
<path fill-rule="evenodd" clip-rule="evenodd" d="M17.5505 16.6161C18.0387 17.1043 18.0387 17.8957 17.5505 18.3838L14.2173 21.7172C13.7291 22.2053 12.9376 22.2053 12.4495 21.7172C11.9613 21.229 11.9613 20.4377 12.4495 19.9495L15.7828 16.6161C16.271 16.128 17.0624 16.128 17.5505 16.6161Z" fill="#081131"/>
<path d="M17 32L20 29L11.5 19.5L10 20.5L8 23V27L8.5 30.5L12.5 32.5L17 32Z" fill="#081131" stroke="#081131"/>
<path d="M32.5225 17.0949L29.4997 20.0719L20.0647 11.4999L21.0761 10.0076L23.5912 8.02663L27.5911 8.05707L31.0872 8.58369L33.0567 12.5988L32.5225 17.0949Z" fill="#081131" stroke="#081131"/>
</g>
</symbol>
<!-- download-icon2 -->
 <symbol id="download-icon2-icon" width="24" height="24" viewBox="0 0 24 24" fill="none">
<path fill-rule="evenodd" clip-rule="evenodd" d="M7.5 9V6H16V9H19V3H4.5V9H7.5ZM4.5 21H19V15H16V18H7.5V15H4.5V21ZM10.509 8H13.509V12.002L16.017 12.008L12.009 16.016L7.999 12.008L10.509 11.983V8Z" fill="#081131"/>
</symbol>
<!-- buy-crypto-active -->
  <symbol id="buy-crypto-active-icon" width="76" height="76" viewBox="0 0 76 76">
  <circle cx="38" cy="38" r="38" fill="#FFF7F0"/>
<path d="M48.9167 33.8541C48.9167 37.2499 46.4167 40.052 43.1667 40.5416V40.4791C42.8438 36.4374 39.5625 33.1562 35.4896 32.8333H35.4584C35.948 29.5833 38.75 27.0833 42.1459 27.0833C45.8855 27.0833 48.9167 30.1145 48.9167 33.8541Z" fill="#FF9A3B"/>
<path d="M41.6042 40.6042C41.3438 37.3021 38.698 34.6563 35.3959 34.3958C35.2188 34.3854 35.0313 34.375 34.8542 34.375C31.1146 34.375 28.0834 37.4063 28.0834 41.1458C28.0834 44.8854 31.1146 47.9167 34.8542 47.9167C38.5938 47.9167 41.625 44.8854 41.625 41.1458C41.625 40.9688 41.6146 40.7812 41.6042 40.6042ZM35.7709 42.0625L34.8542 43.75L33.9375 42.0625L32.25 41.1458L33.9375 40.2292L34.8542 38.5417L35.7709 40.2292L37.4584 41.1458L35.7709 42.0625Z" fill="#FF9A3B"/>
  </symbol>
  <!-- big-user -->
  <symbol id="big-user-icon" width="35" height="35" viewBox="0 0 35 35"  fill="none">
<path d="M17.4987 17.5C21.5258 17.5 24.7904 14.2354 24.7904 10.2083C24.7904 6.18126 21.5258 2.91667 17.4987 2.91667C13.4716 2.91667 10.207 6.18126 10.207 10.2083C10.207 14.2354 13.4716 17.5 17.4987 17.5Z" stroke="#FFA500" stroke-width="1.5" stroke-linecap="round" stroke-linejoin="round"/>
<path opacity="0.4" d="M30.0268 32.0833C30.0268 26.4396 24.4122 21.875 17.4997 21.875C10.5872 21.875 4.97266 26.4396 4.97266 32.0833" stroke="#FFA500" stroke-width="1.5" stroke-linecap="round" stroke-linejoin="round"/>
</symbol>
<!-- user-scan -->
  <symbol id="user-scan-icon" width="35" height="35" viewBox="0 0 35 35"  fill="none">
<path d="M11 24.7336C11 22.9635 12.316 21.4557 14.1045 21.1767C16.3539 20.8258 18.6461 20.8258 20.8955 21.1767C22.684 21.4557 24 22.9635 24 24.7336V25.1255C24 26.1608 23.1413 27 22.0821 27H12.9179C11.8587 27 11 26.1608 11 25.1255V24.7336Z" stroke="#FFA500" stroke-width="1.5"/>
<path d="M21.2917 12.7059C21.2917 14.7526 19.5941 16.4118 17.5 16.4118C15.4059 16.4118 13.7083 14.7526 13.7083 12.7059C13.7083 10.6592 15.4059 9 17.5 9C19.5941 9 21.2917 10.6592 21.2917 12.7059Z" stroke="#FFA500" stroke-width="1.5"/>
<path d="M33 9.44444C33 5.88528 29.1447 3 24.3889 3M2 23.9444C2 28.3934 5.08426 32 8.88889 32M8.88889 3C5.08426 3 2 5.88528 2 9.44444M24.3889 32C29.1447 32 33 28.3934 33 23.9444" stroke="#FFA500" stroke-opacity="0.5" stroke-width="1.5" stroke-linecap="round"/>
</symbol>

<!-- align-horizontally -->
  <symbol id="align-horizontally-icon" width="35" height="35" viewBox="0 0 35 35"  fill="none">
<path d="M6.92578 25.375V9.625C6.92578 7.4375 7.85911 6.5625 10.1779 6.5625H11.6945C14.0133 6.5625 14.9466 7.4375 14.9466 9.625V25.375C14.9466 27.5625 14.0133 28.4375 11.6945 28.4375H10.1779C7.85911 28.4375 6.92578 27.5625 6.92578 25.375Z" stroke="#FFA500" stroke-width="1.5" stroke-linecap="round" stroke-linejoin="round"/>
<path d="M19.3242 22.4584V12.5417C19.3242 10.3542 20.2576 9.47919 22.5763 9.47919H24.093C26.4117 9.47919 27.3451 10.3542 27.3451 12.5417V22.4584C27.3451 24.6459 26.4117 25.5209 24.093 25.5209H22.5763C20.2576 25.5209 19.3242 24.6459 19.3242 22.4584Z" stroke="#FFA500" stroke-width="1.5" stroke-linecap="round" stroke-linejoin="round"/>
<path opacity="0.4" d="M2.91797 17.5H6.41797" stroke="#FFA500" stroke-width="1.5" stroke-linecap="round" stroke-linejoin="round"/>
<path opacity="0.4" d="M16.043 17.5H18.9596" stroke="#FFA500" stroke-width="1.5" stroke-linecap="round" stroke-linejoin="round"/>
<path opacity="0.4" d="M32.0831 17.5H28.1602" stroke="#FFA500" stroke-width="1.5" stroke-linecap="round" stroke-linejoin="round"/>
</symbol>
<!-- card-receive -->
  <symbol id="card-receive-icon" width="35" height="35" viewBox="0 0 35 35"  fill="none">
<path d="M2.91797 12.3958H21.1471" stroke="#FFA500" stroke-width="1.5" stroke-miterlimit="10" stroke-linecap="round" stroke-linejoin="round"/>
<path d="M8.75 24.0625H11.6667" stroke="#FFA500" stroke-width="1.5" stroke-miterlimit="10" stroke-linecap="round" stroke-linejoin="round"/>
<path d="M15.3125 24.0625H21.1458" stroke="#FFA500" stroke-width="1.5" stroke-miterlimit="10" stroke-linecap="round" stroke-linejoin="round"/>
<path d="M32.0846 20.4604V23.4938C32.0846 28.6125 30.7867 29.8959 25.6096 29.8959H9.39297C4.21589 29.8959 2.91797 28.6125 2.91797 23.4938V11.5063C2.91797 6.38752 4.21589 5.10419 9.39297 5.10419H21.1471" stroke="#FFA500" stroke-width="1.5" stroke-linecap="round" stroke-linejoin="round"/>
<g opacity="0.4">
<path d="M29.168 5.10419V13.8542L32.0846 10.9375" stroke="#FFA500" stroke-width="1.5" stroke-linecap="round" stroke-linejoin="round"/>
<path d="M29.1667 13.8542L26.25 10.9375" stroke="#FFA500" stroke-width="1.5" stroke-linecap="round" stroke-linejoin="round"/>
</g>
</symbol>

<!-- home-users -->
  <symbol id="home-users-icon" width="24" height="24" viewBox="0 0 24 24" fill="none"  fill="none">
<path d="M9.22 11.778C10.0448 11.778 10.8359 11.4503 11.4191 10.8671C12.0023 10.2838 12.33 9.49281 12.33 8.66798C12.33 7.84316 12.0023 7.05212 11.4191 6.46888C10.8359 5.88564 10.0448 5.55798 9.22 5.55798C8.39518 5.55798 7.60414 5.88564 7.0209 6.46888C6.43766 7.05212 6.11 7.84316 6.11 8.66798C6.11 9.49281 6.43766 10.2838 7.0209 10.8671C7.60414 11.4503 8.39518 11.778 9.22 11.778ZM6.11 13.778C5.28518 13.778 4.49414 14.1056 3.9109 14.6889C3.32766 15.2721 3 16.0632 3 16.888V18.442H15.44V16.887C15.44 16.0622 15.1123 15.2711 14.5291 14.6879C13.9459 14.1046 13.1548 13.777 12.33 13.777L6.11 13.778ZM21 18.442H17.44V16.887C17.44 15.717 17.046 14.639 16.385 13.777H17.89C18.7148 13.777 19.5059 14.1046 20.0891 14.6879C20.6723 15.2711 21 16.0622 21 16.887V18.442ZM14.33 8.66798C14.3313 9.67315 14.0349 10.6562 13.478 11.493C13.9518 11.7111 14.4729 11.8066 14.9933 11.7706C15.5137 11.7345 16.0167 11.5682 16.456 11.2868C16.8952 11.0055 17.2567 10.6182 17.507 10.1605C17.7574 9.70289 17.8886 9.18963 17.8886 8.66798C17.8886 8.14634 17.7574 7.63308 17.507 7.17544C17.2567 6.71779 16.8952 6.33047 16.456 6.04912C16.0167 5.76777 15.5137 5.60143 14.9933 5.56541C14.4729 5.52939 13.9518 5.62484 13.478 5.84298C14.016 6.65198 14.33 7.62298 14.33 8.66798Z" fill="#71839B"/>
</g>
</symbol>
<!-- only home -->
</svg>

