<svg width="39" height="39" viewBox="0 0 39 39" fill="none" xmlns="http://www.w3.org/2000/svg">
<path d="M23.875 2.81458L31.7625 7.36843C34.4698 8.93147 36.1375 11.8201 36.1375 14.9462V24.0538C36.1375 27.1799 34.4698 30.0685 31.7625 31.6316L23.875 36.1854C21.1677 37.7485 17.8323 37.7485 15.125 36.1854L7.2375 31.6316C4.53024 30.0685 2.8625 27.1799 2.8625 24.0538V14.9462C2.8625 11.8201 4.53025 8.93147 7.2375 7.36843L15.125 2.81458C17.8323 1.25155 21.1677 1.25155 23.875 2.81458Z" fill="#583F18" stroke="url(#paint0_linear_1290_2110)" stroke-width="0.5"/>
<path opacity="0.4" d="M25.53 14.77C25.46 14.76 25.39 14.76 25.32 14.77C23.77 14.72 22.54 13.45 22.54 11.89C22.54 10.3 23.83 9 25.43 9C27.02 9 28.32 10.29 28.32 11.89C28.31 13.45 27.08 14.72 25.53 14.77Z" fill="white" fill-opacity="0.6"/>
<path opacity="0.4" d="M28.79 21.7C27.67 22.45 26.1 22.73 24.65 22.54C25.03 21.72 25.23 20.81 25.24 19.85C25.24 18.85 25.02 17.9 24.6 17.07C26.08 16.87 27.65 17.15 28.78 17.9C30.36 18.94 30.36 20.65 28.79 21.7Z" fill="white" fill-opacity="0.6"/>
<path opacity="0.4" d="M14.44 14.77C14.51 14.76 14.58 14.76 14.65 14.77C16.2 14.72 17.43 13.45 17.43 11.89C17.43 10.3 16.14 9 14.54 9C12.95 9 11.65 10.29 11.65 11.89C11.66 13.45 12.89 14.72 14.44 14.77Z" fill="white" fill-opacity="0.6"/>
<path opacity="0.4" d="M14.55 19.85C14.55 20.82 14.76 21.74 15.14 22.57C13.73 22.72 12.26 22.42 11.18 21.71C9.6 20.66 9.6 18.95 11.18 17.9C12.25 17.18 13.76 16.89 15.18 17.05C14.77 17.89 14.55 18.84 14.55 19.85Z" fill="white" fill-opacity="0.6"/>
<path d="M20.12 22.87C20.04 22.86 19.95 22.86 19.86 22.87C18.02 22.81 16.55 21.3 16.55 19.44C16.55 17.54 18.08 16 19.99 16C21.89 16 23.43 17.54 23.43 19.44C23.43 21.3 21.97 22.81 20.12 22.87Z" fill="white" fill-opacity="0.6"/>
<path d="M16.87 24.94C15.36 25.95 15.36 27.61 16.87 28.61C18.59 29.76 21.41 29.76 23.13 28.61C24.64 27.6 24.64 25.94 23.13 24.94C21.42 23.79 18.6 23.79 16.87 24.94Z" fill="white" fill-opacity="0.6"/>
<defs>
<linearGradient id="paint0_linear_1290_2110" x1="19.5" y1="0" x2="19.5" y2="39" gradientUnits="userSpaceOnUse">
<stop stop-color="#FFD698"/>
<stop offset="1" stop-color="#FFD698"/>
</linearGradient>
</defs>
</svg>
