<svg width="39" height="39" viewBox="0 0 39 39" fill="none" xmlns="http://www.w3.org/2000/svg">
<path d="M15.125 2.81458C17.8323 1.25155 21.1677 1.25155 23.875 2.81458L31.7625 7.36843C34.4698 8.93147 36.1375 11.8201 36.1375 14.9462V24.0538C36.1375 27.1799 34.4698 30.0685 31.7625 31.6316L23.875 36.1854C21.1677 37.7485 17.8323 37.7485 15.125 36.1854L7.2375 31.6316C4.53024 30.0685 2.8625 27.1799 2.8625 24.0538V14.9462C2.8625 11.8201 4.53025 8.93147 7.2375 7.36843L15.125 2.81458Z" fill="#583F18" stroke="url(#paint0_linear_1267_1932)" stroke-width="0.5"/>
<path fill-rule="evenodd" clip-rule="evenodd" d="M24.0206 22.2887C24.5532 22.2097 25.2393 22.1943 26.1812 22.1915C25.5113 23.8159 24.094 25.0425 22.3487 25.4518L22.3447 25.4528C22.3534 24.7752 22.3777 24.2527 22.4441 23.8306C22.5308 23.2784 22.6792 22.9733 22.9008 22.7517C23.1275 22.525 23.4421 22.3746 24.0206 22.2887ZM22.6402 11.3055C20.9036 10.8982 19.0964 10.8982 17.3598 11.3055C14.8519 11.8938 12.8938 13.8519 12.3055 16.3598C11.8982 18.0964 11.8982 19.9036 12.3055 21.6402C12.8938 24.1481 14.8519 26.1062 17.3598 26.6945C18.8184 27.0366 20.3269 27.0914 21.8015 26.8588C22.0825 26.8145 22.3623 26.7597 22.6402 26.6945C25.1481 26.1062 27.1062 24.1481 27.6945 21.6402C28.1018 19.9036 28.1018 18.0964 27.6945 16.3598C27.1062 13.8519 25.1481 11.8938 22.6402 11.3055ZM16.9367 16.4472C16.9367 16.1652 17.1652 15.9367 17.4472 15.9367H20C20.2819 15.9367 20.5105 16.1652 20.5105 16.4472C20.5105 16.7292 20.2819 16.9578 20 16.9578H17.4472C17.1652 16.9578 16.9367 16.7292 16.9367 16.4472ZM16.9367 19C16.9367 18.718 17.1652 18.4894 17.4472 18.4894H21.7018C21.9838 18.4894 22.2124 18.718 22.2124 19C22.2124 19.2819 21.9838 19.5105 21.7018 19.5105H17.4472C17.1652 19.5105 16.9367 19.2819 16.9367 19Z" fill="white" fill-opacity="0.6"/>
<defs>
<linearGradient id="paint0_linear_1267_1932" x1="19.5" y1="0" x2="19.5" y2="39" gradientUnits="userSpaceOnUse">
<stop stop-color="#FFD698"/>
<stop offset="1" stop-color="#FFD698"/>
</linearGradient>
</defs>
</svg>
