<svg width="26" height="30" viewBox="0 0 26 30" fill="none" xmlns="http://www.w3.org/2000/svg">
<path d="M17.3654 2.81458L21.3558 5.11843C24.063 6.68147 25.7308 9.57008 25.7308 12.6962V17.3038C25.7308 20.4299 24.063 23.3185 21.3558 24.8816L17.3654 27.1854C14.6581 28.7485 11.3226 28.7485 8.61538 27.1854L4.625 24.8816C1.91774 23.3185 0.25 20.4299 0.25 17.3038V12.6962C0.25 9.57008 1.91774 6.68147 4.625 5.11843L8.61538 2.81458C11.3226 1.25155 14.6581 1.25155 17.3654 2.81458Z" fill="#FFA929" fill-opacity="0.1" stroke="url(#paint0_linear_1282_2093)" stroke-width="0.5"/>
<g clip-path="url(#clip0_1282_2093)">
<path d="M5.00019 14.9918C4.99424 16.4877 6.20209 17.7052 7.698 17.7111C8.38693 17.7139 9.05103 17.454 9.5551 16.9843L13.5915 18.8068C13.5634 18.9577 13.548 19.1107 13.5454 19.2641C13.5407 20.7704 14.7578 21.9952 16.264 22C17.7702 22.0048 18.9951 20.7876 18.9999 19.2814C19.0047 17.7752 17.7875 16.5503 16.2813 16.5455C15.3814 16.5427 14.538 16.984 14.0273 17.7249L10.235 16.0125C10.5044 15.3621 10.5054 14.6315 10.2379 13.9804L14.025 12.2593C14.8777 13.4927 16.5688 13.8011 17.8022 12.9484C19.0356 12.0956 19.344 10.4045 18.4913 9.17117C17.6385 7.93781 15.9474 7.62931 14.714 8.48208C13.9795 8.98994 13.5417 9.82647 13.5431 10.7195C13.5456 10.8732 13.5611 11.0263 13.5897 11.1774L9.56383 13.0068C8.47309 11.9826 6.75859 12.0365 5.73437 13.1273C5.26035 13.6321 4.99762 14.2993 5.00019 14.9918Z" fill="white" fill-opacity="0.37"/>
</g>
<defs>
<linearGradient id="paint0_linear_1282_2093" x1="12.9904" y1="0" x2="12.9904" y2="30" gradientUnits="userSpaceOnUse">
<stop stop-color="#FFD698"/>
<stop offset="1" stop-color="#FFD698"/>
</linearGradient>
<clipPath id="clip0_1282_2093">
<rect width="14" height="14" fill="white" transform="translate(4.99999 8)"/>
</clipPath>
</defs>
</svg>
