<svg width="18" height="22" viewBox="0 0 18 22" fill="none" xmlns="http://www.w3.org/2000/svg">
<path d="M12.6744 10.5655L15.9972 6.292L10.8722 0H0V21.9725H12.2955L17.0362 15.3505L12.6744 10.5655ZM9.03224 3.454L11.1591 6.3415L9.66541 7.601L6.69977 3.454H9.03224ZM3.22541 5.5275H4.08588L6.69435 9.4325H3.22541V5.5275ZM3.22541 18.755C3.07388 18.755 3.22541 14.0415 3.22541 14.0415H4.06424L7.15435 18.755C7.15435 18.755 3.37694 18.755 3.22541 18.755ZM10.7315 17.5175L7.33294 12.6225H10.0713L12.3767 15.8675L10.7315 17.5175Z" fill="url(#paint0_linear_87_4785)"/>
<defs>
<linearGradient id="paint0_linear_87_4785" x1="8.51644" y1="0.002475" x2="8.51644" y2="21.9755" gradientUnits="userSpaceOnUse">
<stop offset="5.20186e-07" stop-color="#FFA700"/>
<stop offset="1" stop-color="#FF7F00"/>
</linearGradient>
</defs>
</svg>
