<svg width="17" height="16" viewBox="0 0 17 16" fill="none" xmlns="http://www.w3.org/2000/svg">
<path d="M16.327 9.9353C15.2583 14.221 10.9171 16.8292 6.63042 15.7605C2.34546 14.692 -0.263067 10.351 0.806047 6.06559C1.87416 1.77938 6.21537 -0.829093 10.5008 0.239396C14.7873 1.30789 17.3956 5.64934 16.327 9.9353Z" fill="#F7931A"/>
<path fill-rule="evenodd" clip-rule="evenodd" d="M12.2125 6.95489C12.379 5.83407 11.5318 5.23155 10.3733 4.82961L10.7491 3.31133L9.83162 3.081L9.46577 4.55927C9.22458 4.49873 8.97685 4.44161 8.73069 4.38502L9.09914 2.89701L8.18218 2.66669L7.80614 4.18444C7.60649 4.13864 7.41051 4.09337 7.22027 4.04572L7.22131 4.04098L5.95601 3.72275L5.71194 4.70984C5.71194 4.70984 6.39267 4.86698 6.3783 4.87672C6.74989 4.97017 6.81705 5.21786 6.80582 5.41423L6.37778 7.14388C6.40339 7.15046 6.43657 7.15994 6.47316 7.17468L6.44207 7.16686C6.42079 7.16148 6.39873 7.15591 6.37621 7.15046L5.77622 9.57345C5.73075 9.68716 5.61551 9.85773 5.35576 9.79298C5.36491 9.8064 4.68888 9.6253 4.68888 9.6253L4.2334 10.6832L5.42736 10.983C5.56066 11.0167 5.69235 11.0513 5.82267 11.0855L5.82277 11.0855C5.90958 11.1083 5.99578 11.131 6.08144 11.1531L5.70175 12.6887L6.61819 12.919L6.99423 11.3997C7.24457 11.4681 7.48759 11.5313 7.72539 11.5908L7.35066 13.103L8.26815 13.3334L8.64785 11.8006C10.2124 12.0988 11.3888 11.9785 11.884 10.5532C12.283 9.40551 11.8642 8.7435 11.041 8.31181C11.6405 8.17256 12.092 7.77536 12.2125 6.95489ZM10.1162 9.9159C9.85607 10.9688 8.21989 10.5335 7.47126 10.3343C7.4039 10.3164 7.34373 10.3004 7.29239 10.2876L7.79621 8.25311C7.85872 8.26883 7.9351 8.28609 8.02162 8.30565C8.79593 8.48066 10.3827 8.83932 10.1162 9.9159ZM8.1772 7.36151C8.80137 7.5293 10.1628 7.89528 10.4 6.9383C10.6422 5.95945 9.31892 5.66438 8.67267 5.52027C8.59998 5.50406 8.53585 5.48976 8.48348 5.47661L8.02669 7.32182C8.06984 7.33265 8.12047 7.34627 8.1772 7.36151Z" fill="white"/>
</svg>
