<svg width="131" height="34" viewBox="0 0 131 34" fill="none" xmlns="http://www.w3.org/2000/svg">
<path d="M34.7998 10.0989H39.3604C40.348 10.0989 41.1686 10.1797 41.8149 10.3494C42.4613 10.5111 42.9841 10.7696 43.3618 11.109C43.7466 11.4484 44.0153 11.8767 44.1678 12.3777C44.3276 12.8868 44.4002 13.4767 44.4002 14.1554C44.4002 14.9393 44.255 15.5857 43.9718 16.111C43.6886 16.6281 43.1729 17.0079 42.4322 17.2342V17.3231C44.0153 17.7675 44.8069 18.9311 44.8069 20.8139C44.8069 21.4927 44.727 22.1069 44.5745 22.6483C44.4148 23.1897 44.1461 23.6503 43.7684 24.0139C43.3835 24.3775 42.8679 24.6684 42.2216 24.8624C41.5753 25.0563 40.7547 25.1533 39.767 25.1533H34.7998V10.0989ZM38.7576 16.3049C39.2369 16.3049 39.6509 16.2807 39.9922 16.2322C40.3407 16.1756 40.6167 16.0867 40.8418 15.9574C41.067 15.8282 41.2267 15.6504 41.3284 15.416C41.4301 15.1817 41.4882 14.8827 41.4882 14.5029C41.4882 14.115 41.4373 13.7999 41.3284 13.5736C41.2267 13.3393 41.067 13.1615 40.8491 13.0322C40.6385 12.9029 40.3553 12.8221 39.9994 12.7817C39.6509 12.7413 39.2297 12.7252 38.7504 12.7252H37.7555V16.3049H38.7576ZM39.128 22.5028C39.6436 22.5028 40.0793 22.4705 40.4206 22.4139C40.7692 22.3574 41.0452 22.2604 41.2485 22.123C41.4591 21.9856 41.6043 21.7917 41.6842 21.5493C41.7714 21.3069 41.8077 20.9836 41.8077 20.5958C41.8077 20.2483 41.7641 19.9574 41.6842 19.7069C41.5971 19.4645 41.4591 19.2625 41.2558 19.1089C41.0524 18.9554 40.7765 18.8503 40.4279 18.7857C40.0793 18.721 39.6436 18.6887 39.1207 18.6887H37.7555V22.5109H39.128V22.5028Z" fill="white"/>
<path d="M50.0211 13.4443H47.1961V25.1533H50.0211V13.4443Z" fill="white"/>
<path d="M55.9614 15.9089V21.1371C55.9614 21.4846 55.9759 21.7674 56.0122 21.9775C56.0413 22.1957 56.1067 22.3654 56.1938 22.4866C56.2809 22.6159 56.4044 22.6967 56.5642 22.7452C56.7239 22.7937 56.92 22.8179 57.1669 22.8179C57.501 22.8179 57.7842 22.7856 58.002 22.729V25.1613C57.7914 25.1856 57.5736 25.2179 57.3412 25.2341C57.1088 25.2583 56.8764 25.2664 56.6368 25.2664C55.9905 25.2664 55.4385 25.2098 54.9883 25.0967C54.538 24.9836 54.1822 24.7815 53.9062 24.4906C53.6303 24.1997 53.4342 23.8038 53.3108 23.3028C53.1873 22.8018 53.1292 22.1634 53.1292 21.3957V15.9089H51.7494V13.4443H53.1365V10.6646H55.9614V13.4443H58.14V15.917H55.9614V15.9089Z" fill="white"/>
<path d="M79.091 13.2423C79.977 13.2423 80.7177 13.3231 81.3205 13.4928C81.9232 13.6544 82.4098 13.9049 82.7801 14.2201C83.1505 14.5352 83.4192 14.9312 83.579 15.3999C83.746 15.8685 83.8259 16.418 83.8259 17.0322V25.1452H81.2914L81.0227 23.7795C80.7976 24.2159 80.4054 24.5876 79.8317 24.8947C79.258 25.2017 78.5391 25.3634 77.6676 25.3634C76.4839 25.3634 75.5907 25.0725 74.9807 24.4826C74.3707 23.9008 74.0657 22.9957 74.0657 21.7836C74.0657 20.4261 74.4288 19.4725 75.1695 18.923C75.903 18.3736 76.9778 18.0988 78.3939 18.0988H81.0082V17.7998C81.0082 17.4524 80.9791 17.1534 80.921 16.9109C80.8629 16.6685 80.7468 16.4665 80.5797 16.313C80.4127 16.1594 80.1876 16.0463 79.8971 15.9736C79.6066 15.9009 79.2363 15.8685 78.7642 15.8685C78.3866 15.8685 78.009 15.8847 77.6313 15.9251C77.2537 15.9655 76.8833 16.014 76.5202 16.0867V13.4201C76.9269 13.3635 77.3554 13.3231 77.8274 13.2908C78.2922 13.2585 78.7134 13.2423 79.091 13.2423ZM78.3866 22.9553C79.0402 22.9553 79.5848 22.826 80.0423 22.5755C80.4998 22.3169 80.8121 21.9937 80.9937 21.5897V20.224H78.8078C78.1034 20.224 77.6023 20.321 77.2973 20.5069C76.9923 20.6927 76.8398 21.0806 76.8398 21.6786C76.8398 22.1472 76.956 22.4705 77.2029 22.6644C77.4498 22.8583 77.8419 22.9553 78.3866 22.9553Z" fill="white"/>
<path d="M89.6137 25.2745C89.0037 25.2745 88.4155 25.2422 87.8418 25.1775C87.2681 25.1129 86.7525 25.024 86.2805 24.9028V22.2766C86.7888 22.4543 87.3189 22.5836 87.8854 22.6806C88.4518 22.7776 88.9747 22.826 89.454 22.826C90.064 22.826 90.507 22.7452 90.7829 22.5917C91.0589 22.4301 91.2041 22.123 91.2041 21.6624C91.2041 21.4281 91.1751 21.2341 91.1242 21.0806C91.0734 20.919 90.9717 20.7897 90.8192 20.6685C90.674 20.5554 90.4634 20.4503 90.2092 20.3534C89.9478 20.2564 89.6065 20.1513 89.178 20.0382C88.6188 19.8928 88.1613 19.7311 87.7982 19.5534C87.4351 19.3756 87.1446 19.1574 86.9413 18.9069C86.7307 18.6483 86.5927 18.3493 86.5128 17.9938C86.433 17.6382 86.3966 17.218 86.3966 16.7251C86.3966 16.1756 86.4693 15.6827 86.6218 15.2544C86.767 14.8181 87.0139 14.4544 87.3552 14.1555C87.6893 13.8565 88.125 13.6302 88.6624 13.4686C89.1925 13.307 89.8461 13.2343 90.6086 13.2343C91.1969 13.2343 91.7488 13.2747 92.2716 13.3474C92.7945 13.4201 93.2085 13.509 93.4917 13.6302L93.3755 16.0383C93.2302 15.9979 93.0559 15.9494 92.8526 15.9009C92.642 15.8524 92.4169 15.8039 92.1772 15.7554C91.9376 15.715 91.6907 15.6746 91.4365 15.6423C91.1823 15.6181 90.9427 15.6019 90.703 15.6019C90.0495 15.6019 89.6137 15.6827 89.3886 15.8362C89.1562 15.9979 89.0473 16.2807 89.0473 16.6847C89.0473 16.8706 89.0691 17.0241 89.1127 17.1453C89.1562 17.2584 89.2506 17.3635 89.3959 17.4443C89.5411 17.5332 89.7372 17.6221 89.9914 17.7029C90.2455 17.7918 90.5796 17.8887 90.9935 18.0099C91.5672 18.1716 92.0393 18.3413 92.4169 18.5433C92.7945 18.7372 93.0923 18.9716 93.3174 19.2382C93.5425 19.5049 93.6877 19.8281 93.7749 20.216C93.8548 20.5958 93.8983 21.0564 93.8983 21.5897C93.8983 22.2846 93.8039 22.8664 93.6079 23.3351C93.4118 23.8038 93.1358 24.1836 92.7727 24.4745C92.4096 24.7654 91.9594 24.9755 91.4292 25.1048C90.8919 25.2179 90.2891 25.2745 89.6137 25.2745Z" fill="white"/>
<path d="M105.917 8.66864V25.1452H103.368L103.157 23.521C102.947 24.0543 102.598 24.4907 102.119 24.8381C101.632 25.1856 100.906 25.3634 99.9476 25.3634C99.0907 25.3634 98.3863 25.2179 97.8417 24.9432C97.297 24.6603 96.8685 24.2563 96.5563 23.7311C96.244 23.1977 96.0334 22.5594 95.9172 21.8079C95.801 21.0564 95.7429 20.216 95.7429 19.2948C95.7429 18.4544 95.801 17.6705 95.9172 16.9352C96.0334 16.1999 96.244 15.5534 96.5563 15.0039C96.8685 14.4544 97.297 14.0181 97.8417 13.7029C98.3863 13.3878 99.0907 13.2262 99.9476 13.2262C100.906 13.2262 101.625 13.3797 102.097 13.6948C102.569 14.0019 102.911 14.4221 103.121 14.9393V8.66864H105.917ZM100.834 22.9796C101.313 22.9796 101.712 22.8988 102.025 22.7452C102.337 22.5836 102.584 22.3493 102.765 22.0341C102.947 21.719 103.078 21.323 103.143 20.8705C103.216 20.4099 103.252 19.8927 103.252 19.2948C103.252 18.7291 103.216 18.22 103.143 17.7675C103.07 17.3069 102.947 16.919 102.765 16.5958C102.584 16.2726 102.337 16.014 102.025 15.8362C101.712 15.6504 101.32 15.5615 100.834 15.5615C100.34 15.5615 99.9476 15.6584 99.6572 15.8685C99.3667 16.0706 99.1416 16.3453 98.9963 16.6766C98.8511 17.016 98.7494 17.412 98.7058 17.8564C98.6623 18.3089 98.6405 18.7857 98.6405 19.2867C98.6405 19.82 98.6623 20.3129 98.7058 20.7735C98.7494 21.226 98.8511 21.6139 99.0108 21.9452C99.1633 22.2685 99.3885 22.519 99.6862 22.7048C99.9694 22.8907 100.354 22.9796 100.834 22.9796Z" fill="white"/>
<path d="M113.165 13.2423C114.051 13.2423 114.791 13.3231 115.394 13.4928C115.997 13.6544 116.483 13.9049 116.854 14.2201C117.224 14.5352 117.493 14.9312 117.653 15.3999C117.82 15.8685 117.899 16.418 117.899 17.0322V25.1452H115.365L115.096 23.7795C114.871 24.2159 114.479 24.5876 113.905 24.8947C113.332 25.2017 112.613 25.3634 111.741 25.3634C110.557 25.3634 109.664 25.0725 109.054 24.4826C108.444 23.9008 108.139 22.9957 108.139 21.7836C108.139 20.4261 108.502 19.4725 109.243 18.923C109.977 18.3736 111.051 18.0988 112.467 18.0988H115.082V17.7998C115.082 17.4524 115.053 17.1534 114.995 16.9109C114.936 16.6685 114.82 16.4665 114.653 16.313C114.486 16.1594 114.261 16.0463 113.971 15.9736C113.687 15.9009 113.31 15.8685 112.838 15.8685C112.46 15.8685 112.083 15.8847 111.705 15.9251C111.327 15.9655 110.957 16.014 110.594 16.0867V13.4201C111 13.3635 111.429 13.3231 111.901 13.2908C112.366 13.2585 112.787 13.2423 113.165 13.2423ZM112.467 22.9553C113.121 22.9553 113.666 22.826 114.123 22.5755C114.581 22.3169 114.893 21.9937 115.074 21.5897V20.224H112.889C112.184 20.224 111.683 20.321 111.378 20.5069C111.073 20.6927 110.921 21.0806 110.921 21.6786C110.921 22.1472 111.037 22.4705 111.284 22.6644C111.531 22.8583 111.923 22.9553 112.467 22.9553Z" fill="white"/>
<path d="M130.47 13.4443V29.4845H127.645V23.5209C127.434 24.0704 127.093 24.5149 126.621 24.8543C126.149 25.1937 125.43 25.3633 124.472 25.3633C123.615 25.3633 122.91 25.2179 122.366 24.9432C121.821 24.6603 121.392 24.2563 121.08 23.731C120.768 23.1977 120.557 22.5593 120.441 21.8078C120.325 21.0563 120.267 20.2159 120.267 19.2947C120.267 18.4543 120.325 17.6705 120.441 16.9352C120.557 16.1998 120.768 15.5534 121.08 15.0039C121.392 14.4544 121.821 14.018 122.366 13.7029C122.91 13.3877 123.615 13.2261 124.472 13.2261C125.43 13.2261 126.149 13.3797 126.621 13.6948C127.093 14.01 127.434 14.4221 127.645 14.9392V13.4443H130.47ZM125.365 22.9795C125.844 22.9795 126.244 22.8987 126.556 22.7452C126.868 22.5836 127.115 22.3492 127.297 22.0341C127.478 21.719 127.609 21.323 127.674 20.8705C127.747 20.4099 127.783 19.8927 127.783 19.2947C127.783 18.7291 127.747 18.22 127.674 17.7675C127.602 17.3069 127.478 16.919 127.297 16.5958C127.115 16.2726 126.868 16.014 126.556 15.8362C126.244 15.6503 125.851 15.5615 125.365 15.5615C124.871 15.5615 124.479 15.6584 124.188 15.8685C123.898 16.0705 123.673 16.3453 123.528 16.6766C123.382 17.016 123.281 17.4119 123.237 17.8564C123.193 18.3089 123.172 18.7857 123.172 19.2867C123.172 19.82 123.193 20.3129 123.237 20.7735C123.281 21.226 123.382 21.6139 123.542 21.9452C123.695 22.2684 123.92 22.5189 124.217 22.7048C124.501 22.8907 124.886 22.9795 125.365 22.9795Z" fill="white"/>
<path d="M62.8967 14.0666H65.5328L68.946 21.3553H69.0404L73.6808 8.29694H76.0119L70.5945 24.9997H68.1907L64.3418 17.1211H64.2474L62.185 24.9997H59.8394L62.8967 14.0666Z" fill="white"/>
<path d="M75.9538 5L71.3787 8.59591L77.4571 11.004L75.9538 5Z" fill="white"/>
<path d="M48.6122 6.43835L45.642 11.6262H51.5824L48.6122 6.43835Z" fill="white"/>
<path d="M70.5945 25.0078L70.6308 24.8785L68.975 21.3634H68.9387L66.0339 15.1494L65.5256 14.0746H62.8967L64.6251 17.711L68.1907 25.0078H70.5945Z" fill="white"/>
<path d="M20.1168 16.3489L25.3908 9.73617L17.2565 0H0V34H19.5155L27.04 23.7532L20.1168 16.3489ZM14.336 5.34468L17.7117 9.81277L15.341 11.7617L10.6339 5.34468H14.336ZM5.11939 8.55319H6.48513L10.6253 14.5957H5.11939V8.55319ZM5.11939 29.0213C4.87888 29.0213 5.11939 21.7277 5.11939 21.7277H6.45078L11.3554 29.0213C11.3554 29.0213 5.3599 29.0213 5.11939 29.0213ZM17.0331 27.1064L11.6389 19.5319H15.9852L19.6444 24.5532L17.0331 27.1064Z" fill="url(#paint0_linear_1121_1727)"/>
<defs>
<linearGradient id="paint0_linear_1121_1727" x1="13.5173" y1="0.00382979" x2="13.5173" y2="34.0047" gradientUnits="userSpaceOnUse">
<stop offset="5.20186e-07" stop-color="#FFA700"/>
<stop offset="1" stop-color="#FF7F00"/>
</linearGradient>
</defs>
</svg>
