<svg width="18" height="19" viewBox="0 0 18 19" fill="none" xmlns="http://www.w3.org/2000/svg">
<path fill-rule="evenodd" clip-rule="evenodd" d="M0 9.00003C0 8.46953 0.21071 7.96083 0.58579 7.58583L7.5858 0.585788C8.3668 -0.195262 9.6332 -0.195262 10.4142 0.585788L17.4142 7.58583C17.7893 7.96083 18 8.46953 18 9.00003V17.1716C18 17.7238 17.5523 18.1716 17 18.1716H11C10.4477 18.1716 10 17.7238 10 17.1716V12.1716H8V17.1716C8 17.7238 7.5523 18.1716 7 18.1716H1C0.44772 18.1716 0 17.7238 0 17.1716V9.00003ZM9 2L2 9.00003V16.1716H6V11.1715C6 10.6193 6.44772 10.1715 7 10.1715H11C11.5523 10.1715 12 10.6193 12 11.1715V16.1716H16V9.00003L9 2Z" fill="#081131"/>
</svg>
