<svg width="90" height="34" viewBox="0 0 90 34" fill="none" xmlns="http://www.w3.org/2000/svg">
<path d="M34.1597 10.0989H39.3481C40.4717 10.0989 41.4053 10.1797 42.1406 10.3494C42.8759 10.511 43.4707 10.7696 43.9003 11.109C44.3382 11.4484 44.6439 11.8766 44.8174 12.3776C44.9991 12.8867 45.0818 13.4766 45.0818 14.1554C45.0818 14.9392 44.9165 15.5857 44.5943 16.1109C44.2721 16.6281 43.6855 17.0079 42.8428 17.2341V17.323C44.6439 17.7675 45.5444 18.9311 45.5444 20.8139C45.5444 21.4927 45.4535 22.1068 45.28 22.6482C45.0983 23.1896 44.7926 23.6502 44.363 24.0138C43.9251 24.3775 43.3385 24.6684 42.6032 24.8623C41.8679 25.0563 40.9343 25.1532 39.8107 25.1532H34.1597V10.0989ZM38.6623 16.3049C39.2076 16.3049 39.6785 16.2806 40.0668 16.2321C40.4634 16.1756 40.7774 16.0867 41.0335 15.9574C41.2896 15.8281 41.4714 15.6503 41.587 15.416C41.7027 15.1816 41.7688 14.8827 41.7688 14.5029C41.7688 14.115 41.7109 13.7998 41.587 13.5736C41.4714 13.3392 41.2896 13.1615 41.0417 13.0322C40.8021 12.9029 40.4799 12.8221 40.0751 12.7817C39.6785 12.7413 39.1994 12.7251 38.6541 12.7251H37.5222V16.3049H38.6623ZM39.0837 22.5028C39.6703 22.5028 40.166 22.4704 40.5543 22.4139C40.9509 22.3573 41.2648 22.2603 41.4961 22.123C41.7357 21.9856 41.901 21.7917 41.9918 21.5492C42.091 21.3068 42.1323 20.9836 42.1323 20.5957C42.1323 20.2482 42.0827 19.9573 41.9918 19.7068C41.8927 19.4644 41.7357 19.2624 41.5044 19.1089C41.2731 18.9553 40.9591 18.8503 40.5626 18.7856C40.166 18.721 39.6703 18.6887 39.0754 18.6887H37.5222V22.5108H39.0837V22.5028Z" fill="#081131"/>
<path d="M19.7466 16.3489L24.9235 9.73617L16.9389 0H0V34H19.1563L26.5423 23.7532L19.7466 16.3489ZM14.0722 5.34468L17.3857 9.81277L15.0586 11.7617L10.4382 5.34468H14.0722ZM5.02517 8.55319H6.36578L10.4298 14.5957H5.02517V8.55319ZM5.02517 29.0213C4.78909 29.0213 5.02517 21.7277 5.02517 21.7277H6.33205L11.1464 29.0213C11.1464 29.0213 5.26125 29.0213 5.02517 29.0213ZM16.7196 27.1064L11.4247 19.5319H15.691L19.2828 24.5532L16.7196 27.1064Z" fill="url(#paint0_linear_667_3989)"/>
<path d="M47.248 23V14.68H48.992V16.28H49.072C49.1893 15.8533 49.4347 15.48 49.808 15.16C50.1813 14.84 50.6987 14.68 51.36 14.68H51.824V16.36H51.136C50.4427 16.36 49.9093 16.472 49.536 16.696C49.1733 16.92 48.992 17.2507 48.992 17.688V23H47.248ZM56.5589 23.192C55.9829 23.192 55.4549 23.0907 54.9749 22.888C54.5055 22.6853 54.1055 22.3973 53.7749 22.024C53.4442 21.64 53.1882 21.1813 53.0069 20.648C52.8255 20.104 52.7349 19.5013 52.7349 18.84C52.7349 18.1787 52.8255 17.5813 53.0069 17.048C53.1882 16.504 53.4442 16.0453 53.7749 15.672C54.1055 15.288 54.5055 14.9947 54.9749 14.792C55.4549 14.5893 55.9829 14.488 56.5589 14.488C57.1349 14.488 57.6575 14.5893 58.1269 14.792C58.6069 14.9947 59.0122 15.288 59.3429 15.672C59.6735 16.0453 59.9295 16.504 60.1109 17.048C60.2922 17.5813 60.3829 18.1787 60.3829 18.84C60.3829 19.5013 60.2922 20.104 60.1109 20.648C59.9295 21.1813 59.6735 21.64 59.3429 22.024C59.0122 22.3973 58.6069 22.6853 58.1269 22.888C57.6575 23.0907 57.1349 23.192 56.5589 23.192ZM56.5589 21.752C57.1562 21.752 57.6362 21.5707 57.9989 21.208C58.3615 20.8347 58.5429 20.28 58.5429 19.544V18.136C58.5429 17.4 58.3615 16.8507 57.9989 16.488C57.6362 16.1147 57.1562 15.928 56.5589 15.928C55.9615 15.928 55.4815 16.1147 55.1189 16.488C54.7562 16.8507 54.5749 17.4 54.5749 18.136V19.544C54.5749 20.28 54.7562 20.8347 55.1189 21.208C55.4815 21.5707 55.9615 21.752 56.5589 21.752ZM67.3661 21.624H67.3021C67.2275 21.8267 67.1261 22.024 66.9981 22.216C66.8808 22.408 66.7261 22.5787 66.5341 22.728C66.3528 22.8667 66.1288 22.9787 65.8621 23.064C65.6061 23.1493 65.3075 23.192 64.9661 23.192C64.1021 23.192 63.4301 22.9147 62.9501 22.36C62.4808 21.8053 62.2461 21.0107 62.2461 19.976V14.68H63.9901V19.752C63.9901 21.0427 64.5235 21.688 65.5901 21.688C65.8141 21.688 66.0328 21.6613 66.2461 21.608C66.4595 21.544 66.6461 21.4533 66.8061 21.336C66.9768 21.2187 67.1101 21.0693 67.2061 20.888C67.3128 20.7067 67.3661 20.4933 67.3661 20.248V14.68H69.1101V23H67.3661V21.624ZM71.6074 23V14.68H73.3514V16.056H73.4314C73.6127 15.608 73.8847 15.2347 74.2474 14.936C74.6207 14.6373 75.1274 14.488 75.7674 14.488C76.6207 14.488 77.282 14.7707 77.7514 15.336C78.2314 15.8907 78.4714 16.6853 78.4714 17.72V23H76.7274V17.944C76.7274 16.6427 76.2047 15.992 75.1594 15.992C74.9354 15.992 74.7114 16.024 74.4874 16.088C74.274 16.1413 74.082 16.2267 73.9114 16.344C73.7407 16.4613 73.602 16.6107 73.4954 16.792C73.3994 16.9733 73.3514 17.1867 73.3514 17.432V23H71.6074ZM86.1206 21.624H86.0406C85.8593 22.1147 85.5606 22.4987 85.1446 22.776C84.7393 23.0533 84.2593 23.192 83.7046 23.192C82.6486 23.192 81.8326 22.8133 81.2566 22.056C80.6806 21.288 80.3926 20.216 80.3926 18.84C80.3926 17.464 80.6806 16.3973 81.2566 15.64C81.8326 14.872 82.6486 14.488 83.7046 14.488C84.2593 14.488 84.7393 14.6267 85.1446 14.904C85.5606 15.1707 85.8593 15.5547 86.0406 16.056H86.1206V11.16H87.8646V23H86.1206V21.624ZM84.2326 21.688C84.766 21.688 85.214 21.56 85.5766 21.304C85.9393 21.0373 86.1206 20.6907 86.1206 20.264V17.416C86.1206 16.9893 85.9393 16.648 85.5766 16.392C85.214 16.1253 84.766 15.992 84.2326 15.992C83.6246 15.992 83.1393 16.1893 82.7766 16.584C82.414 16.968 82.2326 17.48 82.2326 18.12V19.56C82.2326 20.2 82.414 20.7173 82.7766 21.112C83.1393 21.496 83.6246 21.688 84.2326 21.688Z" fill="#718096"/>
<defs>
<linearGradient id="paint0_linear_667_3989" x1="13.2686" y1="0.00382979" x2="13.2686" y2="34.0047" gradientUnits="userSpaceOnUse">
<stop offset="5.20186e-07" stop-color="#FFA700"/>
<stop offset="1" stop-color="#FF7F00"/>
</linearGradient>
</defs>
</svg>
