<svg width="48" height="44" viewBox="0 0 48 44" fill="none" xmlns="http://www.w3.org/2000/svg">
<g clip-path="url(#clip0_310_5023)">
<path d="M3.05699 16.2651L3.64126 16.5951C6.00877 7.45195 14.2385 0.684751 23.9996 0.684751C33.7607 0.684751 41.9904 7.44975 44.3579 16.5974L44.9422 16.2674H44.9699C42.4726 6.9069 34.0186 0 23.9996 0C13.9806 0 5.52603 6.9069 3.0293 16.2663L3.05699 16.2651Z" fill="#505050"/>
<path d="M45.0275 22.7865C44.6175 34.1764 35.343 43.3153 23.9997 43.3153C12.6563 43.3153 3.38176 34.1764 2.97179 22.7865C2.61829 23.0131 2.30118 23.1539 2.3305 23.4927C3.09396 34.93 12.5189 44 23.9997 44C35.4804 44 44.9053 34.93 45.6656 23.4927C45.6981 23.155 45.381 23.0131 45.0275 22.7865Z" fill="#505050"/>
<path d="M23.9998 36.9754C32.1653 36.9754 38.7847 30.2707 38.7847 22C38.7847 13.7293 32.1653 7.0246 23.9998 7.0246C15.8343 7.0246 9.21484 13.7293 9.21484 22C9.21484 30.2707 15.8343 36.9754 23.9998 36.9754Z" fill="#505050"/>
<path d="M36.1787 36.4826L36.0641 36.5843C35.9188 36.7058 35.7504 36.7956 35.5694 36.8482C35.3883 36.9009 35.1985 36.9151 35.0118 36.8901C34.7946 36.8566 34.5828 36.8181 34.371 36.7801C34.4025 36.5678 34.4345 36.3544 34.4601 36.1465C34.5046 35.7802 34.6659 35.4442 34.9395 35.2269L35.0433 35.1345C35.2518 34.9481 35.2605 34.6164 35.0563 34.3931L34.592 34.8067C34.4102 34.9547 34.2621 35.1406 34.1576 35.3518C34.0449 35.5688 33.9713 35.8044 33.9404 36.0475C33.91 36.311 33.8709 36.575 33.8242 36.8357L33.3637 37.1415C33.1786 37.2608 32.9836 37.3692 32.7974 37.4836L32.7768 37.499C31.9262 37.995 31.0362 38.4181 30.116 38.764C30.0795 38.7739 30.0455 38.7913 30.016 38.8153C29.9866 38.8393 29.9624 38.8692 29.945 38.9032C29.9276 38.9372 29.9174 38.9744 29.9151 39.0126C29.9127 39.0508 29.9183 39.0891 29.9314 39.125C29.9445 39.1609 29.9648 39.1936 29.9911 39.2211C30.0174 39.2486 30.0491 39.2702 30.0841 39.2846C30.1191 39.2989 30.1567 39.3057 30.1944 39.3046C30.2322 39.3034 30.2693 39.2942 30.3034 39.2777C31.4456 38.8489 32.5424 38.3048 33.5771 37.6535C33.5847 37.6486 33.5913 37.6425 33.5983 37.637L33.6526 37.6029L34.1299 37.2861C34.3938 37.3411 34.6577 37.3895 34.9249 37.4297C35.1853 37.4706 35.4513 37.4537 35.7046 37.3802C35.9616 37.3007 36.2011 37.1722 36.4105 37.0018L36.9535 36.5178C36.8542 36.4111 36.7178 36.3477 36.5732 36.3412C36.4285 36.3346 36.287 36.3853 36.1787 36.4826Z" fill="#505050"/>
<path d="M38.3173 34.3095L38.2185 34.4261C38.0963 34.5718 37.945 34.6896 37.7745 34.7715C37.604 34.8534 37.4183 34.8977 37.2296 34.9013C37.0162 34.9085 36.7996 34.9052 36.5846 34.9013C36.5846 34.6879 36.5813 34.4751 36.5683 34.2595C36.5488 33.8996 36.6653 33.5456 36.8941 33.2695L36.9837 33.1633C37.1677 32.9521 37.1167 32.6199 36.881 32.4313C36.7583 32.5996 36.616 32.7514 36.4841 32.912C36.4091 33.0018 36.3432 33.0991 36.2875 33.2024C36.2285 33.3033 36.1801 33.4102 36.1431 33.5214C36.0692 33.7553 36.0358 34.0003 36.0443 34.2457C36.0519 34.5059 36.0535 34.7721 36.0524 35.0405C35.9199 35.1692 35.7809 35.2924 35.6441 35.415C35.4812 35.5619 35.3183 35.712 35.1418 35.8479C35.0941 35.896 35.0658 35.9604 35.0624 36.0285C35.0589 36.0966 35.0806 36.1636 35.1231 36.2164C35.1657 36.2693 35.2261 36.3042 35.2927 36.3145C35.3592 36.3247 35.4272 36.3096 35.4833 36.2719C35.6636 36.1322 35.8309 35.9777 36.0014 35.8264C36.1442 35.6994 36.2864 35.5718 36.4238 35.4414C36.6899 35.4497 36.9581 35.4557 37.2324 35.4557C37.4957 35.4551 37.7555 35.3944 37.9926 35.2781C38.1134 35.2207 38.2285 35.1516 38.3363 35.0718C38.4427 34.9877 38.5404 34.8928 38.6279 34.7886C38.7826 34.601 38.9472 34.4223 39.0916 34.2265C38.9765 34.1376 38.8321 34.0966 38.6881 34.1121C38.5442 34.1275 38.4115 34.1982 38.3173 34.3095Z" fill="#505050"/>
<path d="M40.0919 31.8219L40.0104 31.9517C39.9122 32.1148 39.781 32.255 39.6255 32.3631C39.4699 32.4711 39.2936 32.5446 39.108 32.5787C38.8908 32.6166 38.6812 32.6507 38.4705 32.6826C38.4336 32.4687 38.3939 32.2564 38.3527 32.049C38.2853 31.6904 38.3315 31.3192 38.5204 31.0233L38.5948 30.905C38.7328 30.6608 38.6328 30.3429 38.3722 30.1955C38.2669 30.3748 38.1735 30.5613 38.06 30.7356C37.9352 30.936 37.8539 31.161 37.8216 31.3956C37.7794 31.6369 37.7837 31.8842 37.8341 32.1238C37.8884 32.3856 37.9286 32.6436 37.9671 32.907C37.8547 33.0539 37.7434 33.2018 37.6261 33.347L37.1971 33.8541C37.1524 33.9086 37.1301 33.9785 37.1349 34.0492C37.1398 34.1199 37.1714 34.186 37.2232 34.2336C37.2488 34.2586 37.2792 34.278 37.3124 34.2908C37.3457 34.3035 37.3811 34.3093 37.4166 34.3079C37.4521 34.3064 37.487 34.2976 37.5191 34.2821C37.5512 34.2666 37.5798 34.2447 37.6033 34.2177L38.0453 33.6952C38.1664 33.5467 38.2815 33.3938 38.3983 33.2414C38.6649 33.209 38.9364 33.1749 39.1997 33.1248C39.4589 33.0773 39.7058 32.9766 39.9252 32.8289C40.1438 32.6714 40.3297 32.4721 40.4725 32.2421C40.605 32.0375 40.7164 31.8202 40.8391 31.6096C40.7119 31.5386 40.5624 31.5211 40.4226 31.5608C40.2828 31.6005 40.164 31.6943 40.0919 31.8219Z" fill="#505050"/>
<path d="M41.2014 27.7541L41.1032 27.4092L40.817 27.6248C40.4059 27.9372 39.9862 28.353 39.5534 28.8513C39.4865 28.9268 39.4315 29.0123 39.3905 29.1049C39.277 29.3729 39.2686 29.6746 39.3672 29.9486C39.4264 30.1136 39.4845 30.2874 39.5398 30.459C39.4475 30.6339 39.3471 30.8038 39.2521 30.9765C39.1462 31.1718 39.0278 31.3615 38.9089 31.5469C38.8731 31.6081 38.8622 31.681 38.8784 31.7503C38.8946 31.8195 38.9367 31.8797 38.9958 31.9181C39.025 31.938 39.0578 31.9517 39.0924 31.9585C39.1269 31.9653 39.1624 31.965 39.1968 31.9578C39.2313 31.9505 39.2639 31.9363 39.2929 31.9161C39.3219 31.8959 39.3466 31.87 39.3655 31.84C39.4883 31.647 39.6099 31.455 39.719 31.2521C39.8179 31.0739 39.921 30.8979 40.0166 30.718C40.1893 30.6663 40.3609 30.6119 40.5341 30.553C40.7359 30.4866 40.9152 30.3641 41.0516 30.1994C41.1832 30.0321 41.2686 29.8324 41.2992 29.6208C41.3904 28.8953 41.3497 28.2634 41.2014 27.7541ZM40.8501 29.2072C40.8403 29.3216 40.8273 29.4395 40.811 29.5608C40.7956 29.6805 40.7471 29.7933 40.6711 29.8862C40.5951 29.9792 40.4947 30.0484 40.3815 30.0861L39.9656 30.2197L39.8244 29.81C39.7456 29.5823 39.7755 29.332 39.9286 29.1632C40.0057 29.0759 40.0829 28.9918 40.16 28.9107C40.2333 28.8282 40.3049 28.7457 40.3772 28.6726C40.5163 28.527 40.663 28.389 40.8164 28.259C40.8426 28.4611 40.8558 28.6646 40.8561 28.8684C40.8577 28.9778 40.8561 29.0906 40.8501 29.205V29.2072Z" fill="#505050"/>
<path d="M11.8216 36.4826L11.9356 36.5843C12.081 36.7058 12.2495 36.7956 12.4306 36.8482C12.6118 36.9008 12.8017 36.9151 12.9885 36.8901C13.2057 36.8566 13.4175 36.8181 13.6292 36.7801C13.5977 36.5678 13.5657 36.3544 13.5402 36.1465C13.4951 35.7802 13.3344 35.4442 13.0607 35.2269L12.957 35.1345C12.7485 34.9481 12.7398 34.6164 12.944 34.3931L13.4082 34.8067C13.59 34.9547 13.7382 35.1406 13.8426 35.3518C13.9554 35.5688 14.0289 35.8044 14.0598 36.0475C14.0903 36.311 14.1294 36.575 14.176 36.8357L14.6365 37.1415C14.8217 37.2608 15.0166 37.3692 15.2023 37.4836C15.2099 37.4885 15.2164 37.494 15.223 37.499C16.0745 37.995 16.9654 38.4181 17.8864 38.764C17.9229 38.7739 17.957 38.7913 17.9864 38.8153C18.0159 38.8393 18.0401 38.8692 18.0574 38.9032C18.0748 38.9372 18.085 38.9744 18.0874 39.0126C18.0897 39.0508 18.0841 39.0891 18.0711 39.125C18.058 39.1609 18.0376 39.1936 18.0113 39.2211C17.985 39.2486 17.9534 39.2702 17.9184 39.2846C17.8833 39.2989 17.8458 39.3057 17.808 39.3046C17.7702 39.3034 17.7331 39.2942 17.6991 39.2777C16.5568 38.8489 15.46 38.3048 14.4253 37.6535C14.4177 37.6486 14.4112 37.6425 14.4041 37.637L14.3498 37.6029L13.8725 37.2861C13.6086 37.3411 13.3447 37.3895 13.0775 37.4297C12.817 37.4706 12.5508 37.4537 12.2973 37.3802C12.0404 37.3006 11.8008 37.1721 11.5913 37.0018L11.0483 36.5178C11.1477 36.4118 11.2838 36.349 11.428 36.3424C11.5721 36.3358 11.7132 36.3861 11.8216 36.4826Z" fill="#505050"/>
<path d="M9.68253 34.3095L9.78136 34.4261C9.90347 34.5718 10.0548 34.6896 10.2253 34.7715C10.3958 34.8534 10.5815 34.8977 10.7702 34.9013C10.9836 34.9085 11.2002 34.9052 11.4153 34.9013C11.4153 34.6879 11.4185 34.4751 11.4315 34.2595C11.451 33.8996 11.3345 33.5456 11.1057 33.2695L11.0161 33.1633C10.8321 32.9521 10.8831 32.6199 11.1188 32.4313C11.241 32.5996 11.3838 32.7514 11.5157 32.912C11.5908 33.0017 11.6565 33.099 11.7117 33.2024C11.7712 33.3031 11.8196 33.41 11.8562 33.5214C11.9302 33.7552 11.9638 34.0003 11.9555 34.2457C11.9479 34.5059 11.9463 34.7721 11.9474 35.0405C12.0799 35.1692 12.2189 35.2924 12.3557 35.415C12.5186 35.5619 12.6815 35.712 12.858 35.8479C12.9062 35.896 12.9349 35.9606 12.9385 36.029C12.9422 36.0974 12.9204 36.1647 12.8777 36.2177C12.8349 36.2708 12.7741 36.3057 12.7071 36.3158C12.6402 36.3258 12.5721 36.3102 12.5159 36.2719C12.3362 36.1322 12.1689 35.9777 11.9984 35.8264C11.8556 35.6994 11.7128 35.5718 11.576 35.4414C11.3099 35.4497 11.0417 35.4557 10.7675 35.4557C10.5041 35.4551 10.2442 35.3944 10.0072 35.2781C9.8864 35.2207 9.7713 35.1516 9.66352 35.0718C9.55712 34.9877 9.45942 34.8928 9.37193 34.7886C9.21717 34.601 9.05264 34.4223 8.9082 34.2265C9.02333 34.1376 9.16769 34.0966 9.31167 34.1121C9.45565 34.1275 9.58834 34.1982 9.68253 34.3095Z" fill="#505050"/>
<path d="M7.90728 31.8219L7.98927 31.9517C8.08749 32.1148 8.21869 32.255 8.37423 32.3631C8.52978 32.4711 8.70615 32.5446 8.89174 32.5787C9.10895 32.6166 9.318 32.6507 9.52923 32.6826C9.56616 32.4687 9.60579 32.2564 9.64706 32.049C9.7144 31.6904 9.66824 31.3192 9.47928 31.0233L9.40488 30.905C9.26696 30.6608 9.36687 30.3429 9.62752 30.1955C9.73232 30.3748 9.82626 30.5613 9.93974 30.7356C10.0645 30.936 10.1458 31.161 10.1781 31.3956C10.22 31.6369 10.2158 31.8841 10.1656 32.1238C10.1113 32.3856 10.0712 32.6436 10.0326 32.907C10.145 33.0539 10.2563 33.2018 10.3731 33.347L10.8026 33.8541C10.8474 33.9086 10.8696 33.9785 10.8648 34.0492C10.8599 34.1199 10.8283 34.186 10.7765 34.2336C10.7509 34.2586 10.7205 34.278 10.6873 34.2908C10.6541 34.3035 10.6186 34.3093 10.5831 34.3079C10.5476 34.3064 10.5127 34.2976 10.4807 34.2821C10.4486 34.2666 10.4199 34.2447 10.3964 34.2177L9.95441 33.6952C9.83332 33.5467 9.7182 33.3938 9.60145 33.2414C9.33484 33.209 9.06333 33.1749 8.79998 33.1248C8.54077 33.0773 8.29389 32.9766 8.07452 32.8289C7.85595 32.6713 7.66985 32.4719 7.52663 32.2421C7.39468 32.0375 7.28336 31.8202 7.16064 31.6096C7.28767 31.5385 7.43722 31.5209 7.57694 31.5607C7.71666 31.6004 7.83533 31.6942 7.90728 31.8219Z" fill="#505050"/>
<path d="M6.70197 29.6225C6.73195 29.8343 6.81746 30.0341 6.94958 30.2011C7.08582 30.3657 7.26492 30.4882 7.46652 30.5547C7.64028 30.6097 7.81187 30.6647 7.98455 30.7197C8.07957 30.8996 8.18329 31.0756 8.28211 31.2538C8.39071 31.4551 8.51289 31.6487 8.63561 31.8417C8.65458 31.8717 8.67928 31.8976 8.70824 31.9178C8.73721 31.938 8.76987 31.9522 8.8043 31.9595C8.83874 31.9667 8.87426 31.967 8.90879 31.9602C8.94332 31.9534 8.97616 31.9397 9.0054 31.9198C9.06448 31.8814 9.10654 31.8212 9.12274 31.752C9.13894 31.6827 9.12802 31.6098 9.09228 31.5486C8.97336 31.3616 8.85498 31.1735 8.7491 30.9782C8.65407 30.8055 8.55362 30.6356 8.46131 30.4607C8.51561 30.2891 8.57425 30.118 8.63398 29.9503C8.73227 29.6763 8.72392 29.3746 8.61063 29.1066C8.56962 29.014 8.51467 28.9285 8.44773 28.853C8.01333 28.3547 7.59521 27.9389 7.18416 27.6265L6.89799 27.4109L6.79917 27.7558C6.65038 28.2634 6.60966 28.8954 6.70197 29.6225ZM7.14235 28.8684C7.14308 28.6646 7.1565 28.4611 7.18253 28.259C7.33589 28.3891 7.48252 28.5272 7.62182 28.6726C7.69458 28.7485 7.7668 28.8283 7.83902 28.9108C7.91124 28.9933 7.99324 29.0758 8.07034 29.1632C8.22347 29.3321 8.25333 29.5823 8.1746 29.81L8.03342 30.2198L7.61747 30.0861C7.50429 30.0485 7.40391 29.9792 7.32791 29.8863C7.25192 29.7933 7.2034 29.6805 7.18796 29.5609C7.17167 29.4391 7.15864 29.3213 7.14886 29.2072C7.14343 29.0906 7.1418 28.9779 7.14235 28.8684Z" fill="#505050"/>
<path d="M28.0723 33.0319C26.705 33.044 25.3417 33.1839 23.9998 33.4499C22.6579 33.1837 21.2946 33.0437 19.9272 33.0319C19.9272 30.1488 20.9009 27.4675 23.9998 23.9409C27.1031 27.4675 28.0723 30.1488 28.0723 33.0319Z" fill="#B71C26"/>
<path d="M35.7478 19.6158C35.6701 19.6262 34.4326 19.8143 32.7069 20.2389C31.1453 20.6239 29.1845 21.208 27.3247 22.0336C26.1301 22.5643 24.9751 23.1941 23.9982 23.941C23.0208 23.1941 21.8686 22.566 20.6718 22.0336C18.8158 21.2086 16.855 20.6261 15.2928 20.2389C13.5112 19.7989 12.252 19.6158 12.252 19.6158L16.3527 12.2364C16.3527 12.2364 21.1219 10.1376 23.9999 10.1376C26.8778 10.1376 31.647 12.2364 31.647 12.2364L35.7478 19.6158Z" fill="#B71C26"/>
<path d="M23.9995 23.941C27.0995 27.4676 28.072 30.1488 28.072 33.0319C28.8059 33.1605 29.5312 33.3344 30.2441 33.5528C30.1023 29.6868 32.2999 27.4197 34.0847 24.0026C34.7407 22.742 35.3423 21.3279 35.748 19.6158C35.748 19.6158 34.4871 19.8006 32.7071 20.2389C32.7071 20.2389 32.6192 24.194 27.3281 22.0336C26.1292 22.5643 24.9769 23.1941 23.9995 23.941Z" fill="#B71C26"/>
<path d="M34.0845 24.0026C40.1661 27.5121 45.2443 23.331 45.2443 23.331C43.2021 22.1017 41.7789 20.1157 40.0716 18.6604C38.8227 19.0454 37.3908 19.3661 35.7477 19.6158C35.3421 21.3279 34.7404 22.742 34.0845 24.0026Z" fill="#B71C26"/>
<path d="M23.9999 23.941C20.8999 27.4676 19.9274 30.1488 19.9274 33.0319C19.1935 33.1604 18.4682 33.3343 17.7554 33.5528C17.8971 29.6868 15.6995 27.4197 13.9147 24.0026C13.2587 22.742 12.6571 21.3279 12.2515 19.6158C12.2515 19.6158 13.5123 19.8006 15.2923 20.2389C15.2923 20.2389 15.3803 24.194 20.6713 22.0336C21.8703 22.5643 23.0225 23.1941 23.9999 23.941Z" fill="#B71C26"/>
<path d="M13.9152 24.0026C7.83355 27.5121 2.75537 23.331 2.75537 23.331C4.79761 22.1017 6.22083 20.1157 7.92804 18.6604C9.17695 19.0454 10.6089 19.3661 12.252 19.6158C12.6576 21.3279 13.2593 22.742 13.9152 24.0026Z" fill="#B71C26"/>
<path d="M23.9995 23.9409C21.8731 26.3609 20.7474 28.3811 20.2495 30.3424C20.2495 30.3424 21.4381 31.8642 23.9995 31.8642C26.5609 31.8642 27.7462 30.3424 27.7462 30.3424C27.2516 28.38 26.1259 26.3598 23.9995 23.9409Z" fill="#FF4B38"/>
<path d="M31.6469 12.2364C31.6469 12.2364 26.8777 10.1376 23.9998 10.1376C21.1218 10.1376 16.3526 12.2364 16.3526 12.2364L14.8062 15.0189C16.0925 15.1289 18.5751 15.5205 20.9372 16.8746C20.9372 16.8746 18.3183 17.0038 16.1148 17.3597C16.1148 17.3597 21.6334 18.4272 23.9998 20.0767C26.3662 18.4267 31.8847 17.3597 31.8847 17.3597C29.6812 17.0038 27.0623 16.8746 27.0623 16.8746C29.4244 15.5205 31.907 15.1311 33.1934 15.0189L31.6469 12.2364Z" fill="#FF4B38"/>
<path d="M38.9508 21.2943C38.9508 21.2943 39.0779 22.1469 40.6884 23.474C40.6884 23.474 36.4285 23.2892 35.7471 19.6158C37.3902 19.3661 38.8237 19.0443 40.071 18.6604C41.7782 20.1157 43.2014 22.1017 45.2437 23.331C45.2442 23.331 41.6273 23.337 38.9508 21.2943Z" fill="#FF4B38"/>
<path d="M18.4111 27.4093C18.4111 27.4093 17.399 25.7785 17.3148 24.337C17.3148 24.337 19.8344 26.1415 20.2498 30.3424C20.7477 28.3811 21.8733 26.3599 23.9998 23.941C23.0223 23.1941 21.8701 22.566 20.6733 22.0336C15.3823 24.194 15.2943 20.24 15.2943 20.24C14.8496 20.13 14.438 20.0371 14.0698 19.9584C14.0698 21.653 15.291 25.2357 18.4111 27.4093Z" fill="#FF4B38"/>
<path d="M29.5886 27.4093C29.5886 27.4093 30.6007 25.7785 30.6843 24.337C30.6843 24.337 28.1653 26.1415 27.7521 30.3424C27.2547 28.3811 26.1291 26.3599 24.0054 23.941C24.9828 23.1941 26.135 22.566 27.3318 22.0336C32.6229 24.194 32.7108 20.2389 32.7108 20.2389C33.1556 20.1289 33.5671 20.036 33.9353 19.9573C33.9299 21.653 32.7087 25.2357 29.5886 27.4093Z" fill="#FF4B38"/>
<path d="M9.04842 21.2943C9.04842 21.2943 8.92135 22.1469 7.3108 23.474C7.3108 23.474 11.5707 23.2892 12.2521 19.6158C10.6085 19.3661 9.17548 19.0443 7.92657 18.6604C6.21936 20.1157 4.79615 22.1017 2.75391 23.331C2.75499 23.331 6.07058 23.7143 9.04842 21.2943Z" fill="#FF4B38"/>
<path d="M31.647 12.2364L35.7477 19.6158C37.3909 19.3661 38.8244 19.0443 40.0717 18.6604C49.1757 15.8769 48.434 9.94951 46.2788 6.08301C44.9262 3.65201 42.8709 3.65201 42.8709 3.65201C47.0775 13.4932 31.647 12.2364 31.647 12.2364Z" fill="#666666"/>
<path d="M16.3528 12.2364L12.2521 19.6158C10.6089 19.3661 9.17593 19.0443 7.92702 18.6604C-1.177 15.8769 -0.435253 9.94951 1.71993 6.08301C3.07256 3.65201 5.12783 3.65201 5.12783 3.65201C0.92226 13.4932 16.3528 12.2364 16.3528 12.2364Z" fill="#666666"/>
<path d="M30.2441 33.5527C29.5313 33.3343 28.8059 33.1604 28.0721 33.0319C26.7047 33.044 25.3414 33.1839 23.9995 33.4499C22.6576 33.1837 21.2943 33.0437 19.927 33.0319C19.1932 33.1604 18.4678 33.3343 17.755 33.5527L16.8384 37.2713L18.9447 41.151C18.9447 41.151 22.8494 41.921 23.999 41.921C25.1485 41.921 29.0565 41.151 29.0565 41.151L31.159 37.2713L30.2441 33.5527ZM21.1297 38.8773C20.7288 38.7624 20.388 38.4934 20.18 38.1276L19.8249 37.477C19.6865 37.2314 19.6275 36.9481 19.656 36.6668C19.6846 36.3856 19.7992 36.1204 19.984 35.9084C20.1632 35.6994 20.3826 35.5388 20.6296 35.5388C21.3258 35.5388 21.5457 39.0038 21.5457 39.0038L21.1297 38.8773ZM28.1807 37.477L27.8255 38.1276C27.6176 38.4934 27.2768 38.7624 26.8758 38.8773L26.4599 39.0038C26.4599 39.0038 26.6771 35.5388 27.3759 35.5388C27.623 35.5388 27.8429 35.6994 28.0221 35.9084C28.2066 36.1205 28.3211 36.3857 28.3496 36.667C28.378 36.9482 28.3189 37.2314 28.1807 37.477Z" fill="#666666"/>
<path d="M9.65137 16.2652C6.19677 14.91 5.17593 13.2787 5.17593 13.2787C8.46979 14.8885 12.2518 14.943 14.8061 15.0189L16.3526 12.2364C16.3526 12.2364 0.922022 13.4932 5.12868 3.65201C-0.163988 6.93001 0.231865 16.247 9.65137 16.2652Z" fill="#B3B3B3"/>
<path d="M38.3477 16.2652C41.8028 14.91 42.8236 13.2787 42.8236 13.2787C39.5325 14.8885 35.7478 14.943 33.1935 15.0189L31.647 12.2364C31.647 12.2364 47.0775 13.4932 42.8709 3.65201C48.1663 6.93001 47.7677 16.247 38.3477 16.2652Z" fill="#B3B3B3"/>
<path d="M28.0725 33.0319C26.7052 33.044 25.3419 33.1839 24 33.4499C22.6581 33.1837 21.2948 33.0437 19.9274 33.0319C19.1936 33.1604 18.4682 33.3343 17.7554 33.5527L16.8394 37.2713L17.1109 37.7745C19.0724 39.3436 21.4989 40.197 23.9983 40.197C26.4978 40.197 28.9243 39.3436 30.8858 37.7745L31.1573 37.2718L30.2445 33.5527C29.5317 33.3343 28.8063 33.1604 28.0725 33.0319ZM21.1296 38.8773C20.7287 38.7624 20.3878 38.4934 20.1799 38.1276L19.8248 37.477C19.6864 37.2314 19.6274 36.9481 19.6559 36.6668C19.6844 36.3856 19.7991 36.1204 19.9839 35.9084C20.1631 35.6994 20.3825 35.5388 20.6295 35.5388C21.3257 35.5388 21.5456 39.0038 21.5456 39.0038L21.1296 38.8773ZM28.1811 37.477L27.826 38.1276C27.6182 38.4935 27.2773 38.7626 26.8763 38.8773L26.4603 39.0038C26.4603 39.0038 26.6775 35.5388 27.3764 35.5388C27.6234 35.5388 27.8433 35.6994 28.022 35.9084C28.2068 36.1204 28.3215 36.3856 28.35 36.6668C28.3785 36.9481 28.3195 37.2314 28.1811 37.477Z" fill="#B3B3B3"/>
<path d="M21.1292 38.8773C20.7282 38.7624 20.3874 38.4934 20.1794 38.1277L19.8243 37.477C19.686 37.2314 19.6269 36.9481 19.6554 36.6668C19.684 36.3856 19.7987 36.1204 19.9834 35.9084C20.1626 35.6994 20.382 35.5388 20.6291 35.5388C21.3252 35.5388 21.5451 39.0038 21.5451 39.0038L21.1292 38.8773Z" fill="#505050"/>
<path d="M28.1807 37.477L27.8256 38.1277C27.6177 38.4934 27.2769 38.7624 26.8759 38.8773L26.46 39.0038C26.46 39.0038 26.6772 35.5388 27.376 35.5388C27.6231 35.5388 27.843 35.6994 28.0222 35.9084C28.2067 36.1205 28.3212 36.3857 28.3496 36.667C28.3781 36.9482 28.319 37.2314 28.1807 37.477Z" fill="#505050"/>
<path d="M30.2445 33.5527C29.5317 33.3344 28.8063 33.1604 28.0725 33.0319C26.7052 33.0437 25.3418 33.1837 24 33.4499C22.6581 33.1837 21.2948 33.0437 19.9274 33.0319C19.1936 33.1604 18.4682 33.3343 17.7554 33.5527L16.8394 37.2713L17.1994 37.224L18.4982 34.381L20.0138 34.1973C20.0138 34.1973 22.8477 34.8485 23.9994 35.1681C25.1511 34.8485 27.9845 34.1973 27.9845 34.1973L29.5006 34.381L30.7995 37.224L31.1595 37.2713L30.2445 33.5527Z" fill="white"/>
<path d="M7.92657 18.6604C6.21936 20.1157 4.79615 22.1017 2.75391 23.331C2.95247 23.3493 3.15186 23.3566 3.35121 23.353H3.35447C3.35447 23.353 5.19634 23.1643 7.14519 21.0694C8.7199 19.3781 10.8767 19.7318 10.8767 19.7318C10.8767 19.7318 11.1613 19.6454 11.5283 19.5008C10.3115 19.2976 9.10852 19.0169 7.92657 18.6604Z" fill="white"/>
<path d="M40.0725 18.6604C41.7797 20.1157 43.2029 22.1017 45.2451 23.331C45.0466 23.3493 44.8472 23.3566 44.6478 23.353H44.6446C44.6446 23.353 42.8027 23.1643 40.8538 21.0694C39.2791 19.3781 37.1223 19.7318 37.1223 19.7318C37.1223 19.7318 36.8378 19.6454 36.4707 19.5008C37.6875 19.2977 38.8905 19.017 40.0725 18.6604Z" fill="white"/>
<path d="M23.9997 23.9409C21.8738 26.3609 20.7482 28.3811 20.2529 30.3424C20.3387 30.444 20.4316 30.5392 20.5309 30.6273C20.5396 30.6097 22.2941 27.1942 24.0024 26.0348C25.7107 27.1942 27.4651 30.6097 27.4744 30.6273C27.5736 30.5393 27.6664 30.4441 27.7518 30.3424C27.2512 28.38 26.1255 26.3598 23.9997 23.9409Z" fill="white"/>
<path d="M20.6734 22.0335C15.3824 24.1939 15.2944 20.24 15.2944 20.24L15.0539 20.1823L14.9534 20.5123C14.9534 20.5123 14.4777 24.8314 20.4177 23.2623C20.4177 23.2623 21.8838 24.1065 23.0453 25.0926C23.339 24.7197 23.6551 24.3392 23.9999 23.947C23.0225 23.1941 21.8702 22.5643 20.6734 22.0335Z" fill="white"/>
<path d="M27.326 22.0336C32.617 24.194 32.705 20.2389 32.705 20.2389L32.9455 20.1812L33.046 20.5112C33.046 20.5112 33.5216 24.8303 27.5817 23.2612C27.5817 23.2612 26.1156 24.1054 24.9536 25.0916C24.6598 24.7187 24.3443 24.3381 23.9995 23.9459C24.9769 23.1941 26.1292 22.5643 27.326 22.0336Z" fill="white"/>
<path d="M4.59395 4.07936C4.59395 4.07936 0.304213 10.2795 7.62012 13.2242L6.51945 11.9438C6.51945 11.9438 9.97513 14.2802 15.5675 13.6081L15.5974 13.596L16.3527 12.2364C16.3527 12.2364 0.922152 13.4932 5.12881 3.65201L4.59395 4.07936Z" fill="white"/>
<path d="M43.4057 4.07936C43.4057 4.07936 47.6955 10.2795 40.3796 13.2242L41.4797 11.9438C41.4797 11.9438 38.0246 14.2802 32.4316 13.6081L32.4023 13.596L31.647 12.2364C31.647 12.2364 47.0775 13.4932 42.8709 3.65201L43.4057 4.07936Z" fill="white"/>
<path d="M25.9246 11.6529C28.8025 12.1479 32.0774 13.464 32.4021 13.596L31.6468 12.2364C31.6468 12.2364 27.3185 10.3329 24.421 10.1525C24.2771 10.1437 24.1359 10.1376 24.0002 10.1376C23.8644 10.1376 23.7227 10.1437 23.5793 10.1525C20.6819 10.3329 16.3536 12.2364 16.3536 12.2364L15.5972 13.596C15.923 13.464 19.1973 12.1495 22.0747 11.6529C21.3351 11.9279 20.8573 12.3536 20.8573 12.8343C20.8573 13.6593 22.2642 14.3314 23.9996 14.3314C25.7351 14.3314 27.1414 13.6615 27.1414 12.8343C27.1414 12.3536 26.6641 11.9268 25.9246 11.6529Z" fill="white"/>
<path d="M20.6293 35.1962C20.3089 35.1962 20.0059 35.3612 19.7295 35.6829C19.4986 35.9476 19.355 36.2788 19.319 36.6301C19.283 36.9815 19.3563 37.3355 19.5286 37.6426L19.8843 38.2938C20.1338 38.7389 20.5464 39.0665 21.0327 39.2057L21.4481 39.3316C21.4796 39.3415 21.5124 39.3465 21.5453 39.3465C21.5915 39.3465 21.6372 39.3369 21.6796 39.3183C21.722 39.2997 21.7602 39.2725 21.7918 39.2384C21.8234 39.2043 21.8478 39.164 21.8634 39.1199C21.879 39.0759 21.8855 39.0291 21.8825 38.9824C21.7234 36.47 21.3015 35.1962 20.6293 35.1962ZM20.4756 37.9616L20.12 37.3109C20.0161 37.1265 19.9717 36.9138 19.993 36.7026C20.0143 36.4913 20.1003 36.2921 20.2389 36.1328C20.329 36.0278 20.461 35.9035 20.5929 35.8837C20.8041 36.0943 21.0512 37.2488 21.169 38.5308C20.8769 38.4335 20.6301 38.2309 20.4756 37.9616Z" fill="#505050"/>
<path d="M27.3736 35.1962C26.7014 35.1962 26.2795 36.47 26.1204 38.9824C26.1168 39.0375 26.1264 39.0927 26.1485 39.1431C26.1706 39.1936 26.2045 39.238 26.2472 39.2723C26.2899 39.3066 26.3402 39.33 26.3938 39.3403C26.4473 39.3506 26.5026 39.3477 26.5548 39.3316L26.9685 39.2057C27.4556 39.0668 27.8688 38.7389 28.1186 38.2932L28.4737 37.6426C28.646 37.3357 28.7193 36.9821 28.6836 36.631C28.6479 36.2799 28.5049 35.9488 28.2745 35.684C27.9975 35.3601 27.6924 35.1962 27.3736 35.1962ZM27.8829 37.3109L27.5284 37.9605C27.3739 38.2303 27.1269 38.4333 26.8344 38.5308C26.9522 37.2488 27.1988 36.0943 27.41 35.8837C27.5506 35.9057 27.6907 36.0487 27.7662 36.1339C27.9041 36.2934 27.9895 36.4925 28.0104 36.7035C28.0313 36.9145 27.9868 37.1268 27.8829 37.3109Z" fill="#505050"/>
<path d="M46.5731 5.91526C45.1402 3.33906 42.9632 3.30936 42.8709 3.30936C42.8148 3.3094 42.7597 3.32358 42.7103 3.3506C42.661 3.37762 42.619 3.41664 42.5883 3.46415C42.5575 3.51166 42.5389 3.56617 42.5342 3.62277C42.5294 3.67937 42.5386 3.73629 42.5609 3.78841C43.484 5.95376 43.4894 7.71321 42.5679 9.01781C40.1847 12.3926 32.4235 11.9471 31.7279 11.8993C31.1773 11.6606 26.7866 9.79496 23.9999 9.79496C21.2132 9.79496 16.8224 11.66 16.2718 11.8993C15.5762 11.9466 7.81508 12.3943 5.43183 9.01781C4.50872 7.71321 4.51252 5.95376 5.43889 3.78841C5.46122 3.73629 5.4704 3.67937 5.46562 3.62277C5.46083 3.56617 5.44223 3.51166 5.41147 3.46415C5.38072 3.41664 5.33879 3.37762 5.28945 3.3506C5.24012 3.32358 5.18492 3.3094 5.12883 3.30936C5.03707 3.30936 2.85962 3.33906 1.42663 5.91471C0.567593 7.45471 -0.698151 10.4852 0.474197 13.4409C1.41197 15.8059 3.69476 17.6077 7.25741 18.8029C6.77523 19.2484 6.30987 19.7274 5.85646 20.1949C4.8595 21.2234 3.82888 22.2849 2.58269 23.0368C2.53599 23.065 2.4967 23.1042 2.46816 23.1511C2.43961 23.198 2.42265 23.2512 2.41871 23.3061C2.41477 23.3611 2.42396 23.4161 2.44551 23.4667C2.46706 23.5173 2.50033 23.5619 2.5425 23.5967C2.57943 23.6275 5.20323 25.7373 8.91684 25.7373C10.3965 25.7373 12.0494 25.4018 13.7811 24.4673C14.184 25.2148 14.5999 25.9089 15.005 26.5799C16.3495 28.8074 17.5104 30.7329 17.4181 33.5099L16.5118 37.1899C16.4912 37.2737 16.5025 37.3622 16.5433 37.438L18.6497 41.3177C18.6735 41.3617 18.7066 41.3999 18.7467 41.4294C18.7868 41.459 18.8328 41.4792 18.8815 41.4887C19.0444 41.5201 22.8313 42.262 23.9999 42.262C25.1684 42.262 28.9608 41.5201 29.1215 41.4887C29.1702 41.4792 29.2163 41.4589 29.2565 41.4294C29.2967 41.3998 29.3299 41.3617 29.3539 41.3177L31.4564 37.438C31.4976 37.3623 31.5091 37.2737 31.4885 37.1899L30.5816 33.5099C30.4893 30.7346 31.6503 28.809 32.9948 26.5799C33.3998 25.9089 33.8158 25.2148 34.2187 24.4673C35.9509 25.4023 37.6032 25.7373 39.0829 25.7373C42.7971 25.7373 45.4203 23.6275 45.4573 23.5967C45.4994 23.5619 45.5327 23.5173 45.5543 23.4667C45.5758 23.4161 45.585 23.3611 45.5811 23.3061C45.5771 23.2512 45.5602 23.198 45.5316 23.1511C45.5031 23.1042 45.4638 23.065 45.4171 23.0368C44.1682 22.2866 43.1403 21.2218 42.1433 20.1949C41.6899 19.7274 41.2245 19.2484 40.7424 18.8029C44.305 17.6077 46.5878 15.8059 47.5261 13.4404C48.6979 10.4847 47.4322 7.45691 46.5731 5.91526ZM23.9999 10.4803C26.5433 10.4803 30.7016 12.2045 31.4086 12.5059L35.2157 19.3567C34.6895 19.4486 33.7718 19.6251 32.6282 19.9067C30.5979 20.4094 28.768 21.0199 27.1911 21.7217C25.9509 22.2717 24.8785 22.8767 23.9999 23.5175C23.1208 22.8751 22.0483 22.2717 20.8092 21.7223C19.2345 21.0221 17.4067 20.4122 15.3743 19.9073C14.2339 19.6268 13.3108 19.4502 12.7841 19.3573L16.5911 12.5065C17.2981 12.2045 21.4564 10.4803 23.9999 10.4803ZM32.2948 20.6987C32.196 21.0837 31.969 21.6227 31.445 21.972C30.7391 22.4411 29.6531 22.451 28.2636 22.0099C29.5789 21.4878 30.9253 21.0499 32.2948 20.6987ZM19.7368 22.0099C18.3537 22.4499 17.2645 22.4417 16.5602 21.9758C16.0362 21.6288 15.8076 21.087 15.7071 20.6987C17.0763 21.0494 18.4221 21.4873 19.7368 22.0099ZM1.10137 13.1852C0.0343622 10.4957 1.21649 7.68516 2.01579 6.25131C2.84984 4.75146 3.94888 4.24821 4.59397 4.07936C3.80119 6.22986 3.8973 8.02341 4.88231 9.41711C7.1966 12.6935 13.6985 12.6984 15.7554 12.6132L12.0728 19.2407C10.5817 19.0047 9.22038 18.7 8.02577 18.3326C4.33822 17.2051 2.00819 15.4732 1.10137 13.1852ZM3.35755 23.3508C4.48429 22.588 5.42532 21.6172 6.33919 20.6751C6.90392 20.0921 7.44149 19.5415 8.01165 19.0421C9.31419 19.4214 10.6398 19.7143 11.9799 19.9188C12.326 21.2854 12.8244 22.6076 13.4656 23.8601C8.65945 26.455 4.60483 24.2 3.35755 23.3508ZM15.5833 26.2224C15.1288 25.4694 14.6602 24.6901 14.216 23.8425C13.5367 22.5379 13.0529 21.3158 12.7097 20.0387C13.1984 20.1251 14.001 20.2802 14.9806 20.515C15.0484 20.9825 15.2939 21.9505 16.1844 22.544C16.6623 22.863 17.2465 23.0219 17.9334 23.0219C18.7132 23.0219 19.6265 22.8146 20.6642 22.4043C21.76 22.8993 22.7135 23.4328 23.5047 23.9993C20.851 27.0897 19.6667 29.7418 19.595 32.7481C19.0651 32.8504 18.5633 32.9681 18.0974 33.0963C18.0659 30.343 16.8583 28.3377 15.5833 26.2224ZM23.9999 24.4624C26.5444 27.4263 27.6472 29.859 27.7276 32.6931C26.4761 32.7244 25.2293 32.8603 23.9999 33.0996C22.7705 32.8601 21.5237 32.7242 20.2722 32.6931C20.3525 29.8595 21.4554 27.4269 23.9999 24.4629V24.4624ZM28.8375 40.8441C28.1028 40.9855 24.9767 41.5751 23.9999 41.5751C23.023 41.5751 19.8997 40.9855 19.1671 40.8441L17.2015 37.2235L18.0371 33.825C18.6681 33.64 19.3085 33.4898 19.9556 33.3751C21.2897 33.3897 22.6197 33.527 23.9293 33.7854C23.9758 33.7953 24.0239 33.7953 24.0705 33.7854C25.38 33.527 26.7101 33.3897 28.0442 33.3751C28.6912 33.4898 29.3317 33.64 29.9626 33.825L30.7999 37.2246L28.8375 40.8441ZM32.4165 26.2224C31.1393 28.3377 29.9317 30.343 29.9002 33.0974C29.4348 32.9676 28.9325 32.8515 28.4031 32.7492C28.3331 29.7429 27.1488 27.0908 24.4935 23.9998C25.2846 23.435 26.2376 22.8998 27.3339 22.4048C28.3716 22.8151 29.2844 23.0225 30.0642 23.0225C30.7511 23.0225 31.3359 22.8635 31.8137 22.5445C32.7037 21.9516 32.9497 20.9842 33.0176 20.5161C34.002 20.2796 34.8051 20.1245 35.2884 20.0393C34.9452 21.3164 34.4614 22.5385 33.7821 23.8425C33.3428 24.6901 32.8726 25.4694 32.4165 26.2224ZM41.6589 20.6751C42.5728 21.6172 43.5139 22.588 44.6406 23.3508C43.3917 24.2011 39.3392 26.4567 34.5342 23.8601C35.1749 22.6076 35.6728 21.2853 36.0182 19.9188C37.3584 19.7143 38.684 19.4215 39.9865 19.0421C40.5583 19.5415 41.0959 20.0921 41.6606 20.6751H41.6589ZM46.8968 13.1852C45.9894 15.4732 43.6599 17.2051 39.9718 18.3326C38.7772 18.7 37.4165 19.0047 35.9254 19.2407L32.2427 12.6137C34.2996 12.6984 40.8015 12.6935 43.1158 9.41711C44.1003 8.02341 44.197 6.22711 43.4042 4.08211C44.0498 4.25096 45.1483 4.75421 45.9823 6.25351C46.7833 7.68626 47.9654 10.4951 46.8984 13.1852H46.8968Z" fill="#505050"/>
<path d="M16.6079 21.56C16.6079 21.56 17.442 23.3684 20.0375 22.7975C20.0359 22.7969 18.1967 21.736 16.6079 21.56Z" fill="white"/>
<path d="M31.3915 21.56C31.3915 21.56 30.5575 23.3684 27.9619 22.7975C27.9635 22.7969 29.8027 21.736 31.3915 21.56Z" fill="white"/>
</g>
<defs>
<clipPath id="clip0_310_5023">
<rect width="48" height="44" fill="white"/>
</clipPath>
</defs>
</svg>
