<svg width="42" height="46" viewBox="0 0 42 46" fill="none" xmlns="http://www.w3.org/2000/svg">
<g clip-path="url(#clip0_304_4445)">
<path d="M21.0039 0C21.425 0.496857 21.7823 1.03851 22.2218 1.52315C22.9895 2.37065 23.8368 3.14385 24.7521 3.83231L27.4241 5.63648C27.3009 5.05409 27.1243 4.46764 26.8635 3.93209C26.4301 3.04223 25.7688 2.28269 25.0746 1.58424C25.3847 1.69624 25.6887 1.79194 25.9906 1.93041C27.6254 2.67977 29.0405 3.92191 30.2563 5.22107C30.4186 5.39416 31.2401 6.36954 31.3428 6.41638C31.4701 6.47543 31.7269 6.47543 31.8686 6.49376L33.2631 6.68517L35.8735 7.1637C37.915 7.60354 39.8826 8.1961 41.8501 8.88641C41.9713 10.5277 42.035 12.1649 41.9815 13.8122L41.7823 16.5531C41.5194 19.2003 41.0204 21.8393 40.2112 24.3786C39.9031 25.3417 39.5786 26.3273 39.1555 27.2477C39.326 27.3434 39.5293 27.4106 39.71 27.486L40.7308 27.9156L40.127 29.3329C39.5314 30.575 38.794 31.7622 37.9746 32.8679C37.6193 33.3485 37.2598 33.8209 36.8573 34.2648L36.2206 33.2243C35.6004 34.1487 34.9103 35.0345 34.2079 35.8959L32.3841 38.0197C29.9914 40.5549 27.1181 42.6951 24.0908 44.428L21.0491 46L20.8745 45.9287C20.4165 45.7556 19.9647 45.5133 19.5272 45.2914L17.4057 44.1347C14.1257 42.2247 11.0902 39.828 8.63589 36.9344C7.6398 35.7595 6.7546 34.5173 5.86941 33.2589C5.79753 33.3403 5.75234 33.4625 5.70511 33.5602C5.59151 33.7987 5.49006 34.0427 5.40114 34.2913C3.57325 32.4668 2.18077 30.3266 1.33255 27.8932L2.88112 27.2905C2.53813 26.4963 2.26087 25.694 1.98977 24.8754C1.08814 22.1631 0.525399 19.3672 0.225543 16.5307C-0.0414522 14.0138 -0.10512 11.4236 0.223489 8.90881C3.09061 7.88048 6.04809 7.07818 9.06309 6.62612L10.4494 6.39398C10.5439 6.37769 10.7287 6.37972 10.8047 6.339C10.854 6.31253 10.9608 6.15166 10.9978 6.10279L11.6098 5.35343C13.0886 3.67348 14.9288 2.09942 17.114 1.43559C16.617 1.88969 16.1302 2.37025 15.7339 2.91598C15.1917 3.66127 14.7788 4.63462 14.5714 5.52855C16.389 4.56742 18.2046 3.2927 19.595 1.77769C20.1146 1.21567 20.5603 0.616999 21.0039 0Z" fill="black"/>
<path d="M16.0232 20.5239C16.0951 20.53 16.1773 20.5463 16.2491 20.5279L16.2841 20.5178L16.2307 20.644L16.1999 20.6542C16.1156 20.6786 16.052 20.697 15.9739 20.6542L15.9678 20.5748L16.0232 20.5239Z" fill="#F3F3F1"/>
<path d="M24.7086 21.8251C24.7003 21.7558 24.6901 21.6988 24.7045 21.6296C24.7681 21.6927 24.8092 21.7721 24.8667 21.8393C24.9489 21.935 25.0577 22.0165 25.1604 22.0857C25.07 22.0735 24.9838 22.0491 24.8914 22.0552L24.7086 21.8251Z" fill="#30302B"/>
<path d="M25.7928 20.4485C25.8095 20.4404 25.8276 20.4356 25.8462 20.4343C25.9283 20.4241 25.955 20.4485 26.0146 20.4974C26.0187 20.6053 26.0002 20.6033 25.9324 20.6827L25.8565 20.7051C25.7743 20.6786 25.7702 20.6766 25.7168 20.6094C25.725 20.5116 25.7209 20.5157 25.7928 20.4485Z" fill="#F3F3F1"/>
<path d="M16.1957 20.8212C16.243 20.8069 16.2697 20.811 16.3169 20.8151C16.3888 20.866 16.4073 20.8884 16.4381 20.9698C16.4175 21.035 16.4093 21.0391 16.3559 21.0818C16.315 21.0934 16.273 21.1009 16.2306 21.1042C16.169 21.0757 16.1526 21.0513 16.1177 20.9943C16.1197 20.8863 16.1218 20.8924 16.1957 20.8212Z" fill="#F3F3F1"/>
<path d="M26.2717 20.361C26.3723 20.4872 26.4216 20.5524 26.4216 20.7194L26.2306 20.7092C26.2145 20.7045 26.1995 20.6967 26.1864 20.6862C26.1734 20.6757 26.1626 20.6628 26.1546 20.6481C26.1197 20.5788 26.0992 20.4954 26.1218 20.4221L26.2717 20.361Z" fill="#F3F3F1"/>
<path d="M15.6082 24.1485L16.1402 24.0752C16.2264 24.0507 16.2839 24.0548 16.3743 24.0609C16.1135 24.1892 15.8198 24.2564 15.5343 24.3053L15.4973 24.291L15.4521 24.2788L15.4747 24.2055L15.483 24.1729C15.5259 24.1731 15.5685 24.1648 15.6082 24.1485Z" fill="url(#paint0_linear_304_4445)"/>
<path d="M12.2729 7.40193C12.39 7.01504 12.7104 6.60778 12.9507 6.28604C12.9476 6.36593 12.9352 6.44519 12.9137 6.52225L12.8809 6.51207L12.5708 7.18405C12.5379 7.23699 12.4681 7.46506 12.4393 7.48339L12.4188 7.4732C12.4165 7.44462 12.4214 7.41593 12.4331 7.38972L12.4455 7.35917L12.4578 7.31641L12.4701 7.28586C12.4907 7.22274 12.4722 7.26143 12.4948 7.21663C12.5155 7.17068 12.532 7.12297 12.5441 7.07409L12.4927 7.04965C12.4393 7.15554 12.3715 7.34695 12.2729 7.40193Z" fill="#C5A76E"/>
<path d="M17.1382 23.5009L17.2819 23.4521C17.0807 23.6964 16.6884 23.9795 16.3741 24.0589C16.2858 24.0528 16.2263 24.0487 16.14 24.0731L15.6081 24.1464L15.5649 24.12L15.6779 24.1139L15.6594 24.0528L15.6163 24.0405L15.5773 24.012C15.7334 24.0243 15.8874 24.0446 16.0414 24.0141C16.2653 23.9713 16.4707 23.8858 16.6802 23.7942C16.8629 23.7147 17.0231 23.672 17.1382 23.5009Z" fill="#B0AEB1"/>
<path d="M13.4129 16.8585C13.4683 16.9746 13.3595 17.2475 13.3348 17.3778L13.228 18.0233C13.189 18.2208 13.1315 18.4163 13.1233 18.6179L13.0658 18.734C13.0391 18.5812 13.0719 18.4081 13.0884 18.2554C13.1356 17.7891 13.1869 17.28 13.4129 16.8585Z" fill="#B0AEB1"/>
<path d="M13.5952 6.02135L13.6897 5.4634L14.0183 5.46136L13.93 6.0356C13.8191 6.02746 13.7061 6.04375 13.5952 6.02135Z" fill="#E3CB84"/>
<path d="M18.1447 21.6561C18.4384 21.5726 18.6109 21.4259 18.8676 21.2814C18.7957 21.4158 18.6848 21.5257 18.5822 21.6377C18.3891 21.8475 18.194 22.0572 17.9722 22.2364C18.0338 22.047 18.1139 21.8536 18.1447 21.6561Z" fill="#30302B"/>
<path d="M32.5645 31.1594L32.6261 31.0739C32.928 31.135 33.2648 31.3183 33.5523 31.4404C33.5152 31.5094 33.4829 31.5808 33.4558 31.6543C33.1539 31.5097 32.8314 31.3631 32.5645 31.1594Z" fill="#983603"/>
<path d="M26.1152 22.2547C26.2734 22.2181 26.4171 22.1733 26.5589 22.0939C26.8587 21.9248 27.1237 21.6398 27.2058 21.3017C27.214 21.2712 27.2263 21.2651 27.2469 21.2447L27.2839 21.2814L27.2592 21.318C27.2551 21.3852 27.2469 21.4504 27.2654 21.5176L27.2756 21.5481C27.2407 21.5909 27.175 21.6479 27.1647 21.7009C26.9799 21.931 26.7478 22.1753 26.4972 22.3341H26.4952C26.335 22.326 26.2446 22.3565 26.1152 22.2547Z" fill="url(#paint1_linear_304_4445)"/>
<path d="M23.166 21.2854C23.4001 21.4096 23.6836 21.6153 23.9608 21.6072L23.9382 21.656C23.9691 21.8515 24.045 22.0368 24.1149 22.2221C23.9465 22.1468 23.7986 21.9859 23.6713 21.8556C23.4946 21.6703 23.3221 21.4891 23.166 21.2854Z" fill="#30302B"/>
<path d="M24.8911 22.0572C24.9835 22.0511 25.0698 22.0735 25.1602 22.0877C25.497 22.2425 25.7455 22.2873 26.1152 22.2567C26.2446 22.3586 26.3349 22.328 26.4972 22.3341C26.1973 22.4889 25.8543 22.5316 25.5319 22.4217C25.4354 22.3891 25.3306 22.328 25.23 22.3158L25.1992 22.3117C25.0677 22.2608 24.9815 22.1549 24.8911 22.0572Z" fill="url(#paint2_linear_304_4445)"/>
<path d="M28.3872 8.8742C28.2331 8.63799 28.1469 8.25516 28.0606 7.98637C28.0421 7.93139 27.9867 7.83365 27.9846 7.78274C27.9826 7.76034 27.9949 7.73794 27.999 7.71555L28.5576 7.94768L28.3872 8.8742Z" fill="#FDE421"/>
<path d="M22.2031 29.6343C22.3695 29.5467 22.6426 29.5345 22.8336 29.4917C23.1232 29.4245 23.4251 29.3431 23.7004 29.229C24.0212 29.0973 24.3252 28.9285 24.6061 28.7261C24.7006 28.6548 24.7622 28.5428 24.869 28.4858L24.9121 28.4654C24.6143 28.9989 23.9817 29.341 23.4067 29.5039C23.2157 29.5589 22.3798 29.73 22.2216 29.6485L22.2031 29.6343Z" fill="url(#paint3_linear_304_4445)"/>
<path d="M10.1309 12.9896L10.1555 12.9957C10.5519 13.1016 10.9914 13.1056 11.3693 13.2746L11.4699 13.5312C11.3714 13.5699 11.2091 13.519 11.1064 13.5007C10.8353 13.4518 10.5601 13.409 10.2911 13.3398L10.2828 13.3276L10.1986 13.3235C10.1945 13.2074 10.1617 13.0995 10.1309 12.9896Z" fill="#707173"/>
<path d="M24.3493 37.1604L24.491 37.1217L24.4622 37.1564C24.3719 37.2622 24.2856 37.3009 24.187 37.3865C23.9858 37.5616 23.7845 37.7876 23.5627 37.9342C23.5565 38.0136 23.6079 38.0544 23.6592 38.1114L23.6982 38.1541L23.8666 38.036C23.8811 38.0229 23.8988 38.0138 23.918 38.0096C23.9873 37.978 24.0533 37.9398 24.1152 37.8955L24.1398 37.8711L24.3657 37.7306L24.7662 37.474C24.8624 37.402 24.972 37.3494 25.0887 37.3193C24.8833 37.4964 24.606 37.641 24.3739 37.7856C23.6366 38.2458 22.8993 38.6958 22.1147 39.0745C22.5193 38.7813 22.8849 38.4413 23.2649 38.1195C23.6181 37.8181 24.0022 37.5249 24.3205 37.1869L24.3493 37.1604Z" fill="#707173"/>
<path d="M13.4126 16.8585L13.4475 16.8056L14.0575 17.3941C13.7289 17.6181 13.4784 17.8889 13.3079 18.2513C13.2483 18.3756 13.2114 18.512 13.123 18.6199C13.1313 18.4183 13.1888 18.2228 13.2278 18.0253L13.3346 17.3798C13.3592 17.2474 13.4681 16.9746 13.4126 16.8585Z" fill="#30302B"/>
<path d="M28.7689 23.1364C29.0113 22.326 29.153 21.5461 29.0934 20.6949C29.0708 20.3711 29.0072 20.0433 29.0072 19.7216C29.0051 19.3123 29.0996 18.8867 28.9928 18.4876C28.9148 18.1964 28.7915 17.8991 28.658 17.6303C28.6128 17.5407 28.5327 17.4491 28.4978 17.3574C28.4891 17.334 28.4863 17.3089 28.4896 17.2841C28.7874 17.6405 29.0975 18.0946 29.229 18.5446C29.2516 18.622 29.2064 18.7604 29.1961 18.8439C29.1633 19.0944 29.1242 19.351 29.1119 19.6014C29.0955 19.9272 29.1715 20.2734 29.1961 20.5992C29.2639 21.4891 29.1181 22.2893 28.8244 23.1263L28.7936 23.1507L28.7689 23.1364Z" fill="#F3F3F1"/>
<path d="M15.5752 24.0121C15.528 23.9754 15.3863 23.9611 15.3226 23.9408C14.9221 23.8227 14.538 23.6353 14.2402 23.338L14.2443 23.3034C14.2855 23.2889 14.3282 23.2793 14.3717 23.2749C14.4662 23.2668 14.6017 23.2769 14.69 23.3075L14.6736 23.336C15.2096 23.6231 15.8278 23.8227 16.4399 23.6985C16.6766 23.6501 16.9094 23.584 17.1361 23.5009C17.0211 23.672 16.8609 23.7148 16.6781 23.7942C16.4707 23.8838 16.2632 23.9693 16.0394 24.0141C15.8874 24.0446 15.7313 24.0243 15.5752 24.0121Z" fill="#30302B"/>
<path d="M14.8871 23.1222C14.9118 23.0631 14.9056 23.055 14.8789 22.9939C14.8317 22.8799 14.7475 22.774 14.69 22.6661C14.538 22.383 14.3839 22.0043 14.3531 21.6846L14.2854 20.9698C14.2771 20.6155 14.3059 20.2062 14.5708 19.9415C14.6304 19.8824 14.6858 19.8275 14.7742 19.8336C14.8419 19.8376 14.9118 19.856 14.959 19.9028C14.8563 19.9822 14.7598 20.0657 14.6879 20.1736C14.5914 20.3182 14.4805 20.5626 14.5277 20.7418L14.538 20.7743C14.4661 21.037 14.4969 21.2345 14.5318 21.4952C14.5985 22.0246 14.771 22.5354 15.0391 22.998C15.0572 23.0307 15.0778 23.062 15.1007 23.0916C15.1245 23.1222 15.1426 23.1566 15.1541 23.1935C15.1336 23.2545 15.1356 23.2403 15.0863 23.2688L14.8543 23.1935L14.8871 23.1222Z" fill="#30302B"/>
<path d="M15.6758 26.7916C15.8339 26.3517 16.2016 25.9587 16.5035 25.6085C16.8567 25.1951 17.2264 24.7879 17.5468 24.3501C17.7583 24.0609 17.896 23.6984 18.1219 23.4276C17.8939 24.1362 17.4729 24.7227 17.1011 25.356C16.9348 25.5698 16.7725 25.7775 16.5795 25.9669C16.2919 26.2499 15.9674 26.5065 15.7004 26.8099L15.6758 26.7916Z" fill="#F3F3F1"/>
<path d="M27.4608 26.7814L27.2205 27.1113C26.8344 26.1074 25.863 25.4252 25.2222 24.5822C25.3885 24.6759 25.5569 24.7757 25.7397 24.8327L25.9348 24.8978L25.9143 24.9487L26.6783 25.7551C26.8919 25.975 27.1363 26.2113 27.3027 26.4678C27.3684 26.5635 27.4095 26.6776 27.4608 26.7814Z" fill="#545557"/>
<path d="M24.8422 25.3417L24.834 25.3153L23.9775 23.3889C24.1254 23.5661 24.2404 23.7738 24.3678 23.9652L24.836 24.6188L25.9389 26.0789C26.1238 26.3375 26.325 26.6083 26.4565 26.8995C26.5692 27.1584 26.613 27.4417 26.5838 27.7222C26.5427 28.1253 26.3784 28.5978 26.1566 28.9378L26.3517 28.048C26.3682 28.0296 26.3743 27.9584 26.3805 27.9319C26.4205 27.7191 26.4308 27.5019 26.4113 27.2864C26.3969 27.1541 26.3542 27.0264 26.286 26.9117C26.1566 26.6918 25.941 26.4963 25.7705 26.3069C25.4666 25.973 25.1913 25.6329 24.8422 25.3417Z" fill="#F3F3F1"/>
<path d="M7.96177 26.1339C7.9556 25.9954 7.90631 25.7775 7.92685 25.6492C7.93917 25.5739 8.05213 25.413 8.09321 25.3356C8.50192 24.5598 8.93527 23.8084 9.42408 23.0794C9.5699 22.8636 9.7034 22.6396 9.86154 22.4339L9.71777 23.0855C9.67875 23.2749 9.6808 23.448 9.57195 23.617L9.55758 23.6374C9.02153 24.2951 8.72578 25.1137 8.24108 25.8019L7.96177 26.1339Z" fill="#FDE421"/>
<path d="M6.46891 26.7875C6.71331 26.6674 7.00495 26.5778 7.26989 26.5045L7.40955 26.8832L6.67018 27.1093C6.52847 27.1805 6.36827 27.2172 6.21834 27.2681L5.20581 27.5858L3.75377 28.0073C3.50731 28.0745 3.25675 28.16 3.00207 28.1905L2.91992 28.1539L6.46891 26.7875Z" fill="#FDE421"/>
<path d="M19.0811 31.5871C18.8634 31.7194 18.5923 31.809 18.3582 31.9149C18.0399 32.0595 17.7153 32.2489 17.3806 32.3466C17.2592 32.3233 17.143 32.2784 17.0376 32.2142C16.6576 31.974 16.442 31.5199 16.3455 31.0984L16.3352 31.0515C16.251 30.685 16.2777 30.2859 16.253 29.9112C16.2407 29.7239 16.1976 29.5467 16.1812 29.3614C16.29 29.5243 16.5796 29.9132 16.7665 29.9621L16.7706 29.9886C16.6515 30.123 16.6597 30.628 16.67 30.8092C16.6758 30.8842 16.6889 30.9586 16.709 31.0312L16.7192 31.0719C16.8096 31.4242 17.054 31.7968 17.3806 31.9801C17.473 32.033 17.5469 32.0982 17.6537 32.0656C17.931 31.9841 18.1939 31.864 18.4588 31.752C18.6005 31.6909 18.7607 31.642 18.8942 31.5667L19.0811 31.5871Z" fill="#30302B"/>
<path d="M17.9434 14.1706C18.0399 14.0525 18.1713 13.9792 18.3007 13.9039C18.8861 13.5618 19.5967 13.4029 20.2662 13.3337C21.3239 13.2237 22.5377 13.3255 23.5092 13.7735C23.7433 13.8815 23.9549 14.026 24.1685 14.1686L24.1664 14.2215C24.0658 14.2236 23.9816 14.1747 23.8912 14.134C23.8173 14.079 23.7043 14.0403 23.618 14.0016C23.2956 13.8611 22.9464 13.7878 22.6014 13.7267C22.3775 13.6595 22.1331 13.6371 21.9011 13.6127C21.4862 13.5679 21.0836 13.5495 20.6667 13.578C20.5414 13.5862 20.3936 13.5801 20.2765 13.6228C19.7589 13.6656 19.2208 13.745 18.7259 13.8998C18.5697 13.9481 18.4168 14.0059 18.2679 14.0729C18.1816 14.1116 18.0502 14.2032 17.9577 14.2032L17.9434 14.1706Z" fill="#F3F3F1"/>
<path d="M13.6528 8.74184L14.1786 8.50766C14.2361 8.48323 14.3183 8.43436 14.3799 8.44046L14.3902 8.4649C14.4744 8.67871 14.5873 8.88234 14.688 9.09004C14.8215 9.36495 14.9529 9.65206 15.1418 9.89438C14.8379 10.0247 14.5031 10.1672 14.1766 10.2304C13.9383 9.74981 13.7781 9.26109 13.6528 8.74184Z" fill="#F38802"/>
<path d="M32.3117 23.5233L32.2193 22.8228C32.2049 22.7332 32.1577 22.5887 32.168 22.5011C32.515 22.886 32.8005 23.3258 33.0696 23.7677C33.4146 24.3317 33.735 24.91 33.9999 25.5169C34.0616 25.6614 34.1745 25.863 34.1786 26.0219L34.1766 26.0341C34.1067 26.0096 34.0533 26.0035 33.9815 26.0361L33.9383 26.0606C33.8562 26.0096 33.8172 25.92 33.7699 25.8406L33.466 25.3112C33.2503 24.9406 33.0326 24.5374 32.7759 24.1953C32.6896 23.9591 32.476 23.7107 32.3117 23.5233Z" fill="#FDE421"/>
<path d="M26.2716 20.361C26.1997 20.2571 26.1565 20.253 26.0518 20.1858C26.1278 20.1003 26.2592 20.0738 26.3722 20.0677C26.4504 20.0623 26.5288 20.0733 26.6024 20.0999C26.676 20.1266 26.7432 20.1684 26.7994 20.2225C26.9678 20.3895 27.0171 20.6318 27.0068 20.8598C26.9986 21.0157 26.9592 21.1684 26.8908 21.3089C26.8223 21.4495 26.7263 21.5751 26.6084 21.6784C26.366 21.8922 26.0477 21.9717 25.7294 21.9533C25.5986 21.9465 25.4706 21.9132 25.3533 21.8554C25.236 21.7976 25.132 21.7166 25.0475 21.6173C24.9694 21.5257 24.9099 21.4382 24.8955 21.318C24.9222 21.2529 24.9407 21.1816 25.0044 21.1409C25.1543 21.3465 25.3042 21.4768 25.5671 21.5196C25.7581 21.5502 25.9573 21.4789 26.1052 21.3628C26.3188 21.1958 26.3804 20.9718 26.4194 20.7193C26.4235 20.5524 26.3743 20.4872 26.2716 20.361Z" fill="#FDE421"/>
<path d="M12.324 5.50411C12.3569 5.42673 12.4986 5.31066 12.5623 5.24347C13.2996 4.46764 14.1232 3.69791 14.9981 3.07684C14.4867 3.77529 14.1519 4.6061 14.0205 5.46135L13.6919 5.46339L14.0451 4.22735C13.965 4.25179 13.8397 4.40451 13.7761 4.46356L12.7882 5.46339C12.7615 5.49189 12.5705 5.722 12.5499 5.72607L12.1618 6.2718C12.131 6.32067 12.0611 6.46728 12.018 6.49579L11.9851 6.48764L11.9913 6.44488L12.0159 6.42045V6.38379L12.0652 6.34714V6.31049L12.1145 6.27383V6.23718L12.1515 6.20663L12.1638 6.17609L12.1885 6.15166C12.1392 6.07631 12.0447 6.0193 11.9728 5.96432C11.8968 6.05391 11.8434 6.14962 11.7305 6.19034C11.8927 5.94192 12.1207 5.70774 12.324 5.50411Z" fill="url(#paint4_linear_304_4445)"/>
<path d="M34.5034 26.9178L34.6492 26.4637C35.9842 26.8221 37.2761 27.3047 38.5494 27.8382C38.9335 27.9991 39.3668 28.1498 39.7242 28.3534L39.6996 28.4125C39.5928 28.4084 39.486 28.3575 39.3833 28.3229L38.7753 28.1233L36.2389 27.374L34.5034 26.9178Z" fill="#FDE421"/>
<path d="M21.6607 33.4523L21.7326 33.4605C22.0263 33.4971 22.5233 33.6763 22.7184 33.9105C22.7486 33.9462 22.7705 33.9881 22.7826 34.0331C22.7946 34.0782 22.7966 34.1253 22.7882 34.1711C22.7554 34.3748 22.511 34.5377 22.3487 34.6456C21.8887 34.9531 21.1616 35.1526 20.6133 35.0325L20.527 35.0101L20.4777 34.9958C19.9458 34.8513 19.4919 34.444 19.1099 34.0653C19.4775 33.7781 19.8472 33.5195 20.3298 33.4768C20.1347 33.6539 19.9519 33.7639 19.88 34.0347C19.9108 34.2587 20.1203 34.5356 20.299 34.6741C20.5229 34.8472 20.8063 34.8757 21.0795 34.8411C21.2664 34.8187 21.4245 34.7881 21.5991 34.7128C21.9195 34.5743 22.1084 34.3727 22.2358 34.053L22.1885 33.9614C22.1378 33.8655 22.0712 33.7788 21.9914 33.7048C21.8907 33.6051 21.7716 33.5358 21.6607 33.4523Z" fill="#30302B"/>
<path d="M23.8911 14.1339C23.9815 14.1747 24.0657 14.2235 24.1664 14.2215C24.1602 14.4455 24.1499 14.6736 24.1848 14.8955C24.2588 15.3618 24.5401 15.818 24.8646 16.154C25.3329 16.6406 25.9367 16.9909 26.559 17.2474C26.2161 17.2943 25.9183 17.3696 25.604 17.5142L25.2097 17.7097C25.1891 17.7199 25.1214 17.7626 25.1008 17.7647C25.0495 17.7687 24.9447 17.728 24.8913 17.7158L24.4416 17.6242C24.076 17.5631 23.7022 17.5651 23.3428 17.5061C23.4927 17.447 23.657 17.4327 23.8151 17.4042C24.4642 17.2861 25.0844 17.2515 25.7416 17.2088L25.2569 16.8809L25.22 16.8524L24.8421 16.5184C24.3779 16.0562 24.0493 15.5288 23.9343 14.8792C23.8891 14.6349 23.8891 14.3824 23.8911 14.1339Z" fill="#545557"/>
<path d="M28.268 6.49579C28.1119 5.62018 27.9004 4.73643 27.5184 3.93005C27.4469 3.77502 27.3666 3.6241 27.2781 3.478C27.2041 3.36193 27.1055 3.24993 27.0542 3.12164L28.9067 4.71607C29.3237 5.10704 29.7057 5.52244 30.0774 5.95617C30.254 6.16184 30.4491 6.3675 30.6052 6.58742L30.5642 6.60982C30.3547 6.59964 30.0815 6.11908 29.8535 6.01726C29.8063 6.0417 29.7796 6.07631 29.7447 6.11704C29.4613 5.75458 29.1635 5.39008 28.8287 5.07242C28.574 4.8301 28.2885 4.61832 28.0154 4.3984C28.3255 5.06631 28.4426 5.86047 28.537 6.58539C28.4549 6.58742 28.3727 6.59761 28.2926 6.57724L28.268 6.49579Z" fill="#F3F3F1"/>
<path d="M29.9869 17.1049L29.3153 17.724L29.0688 17.3676L29.3605 16.7078C29.7384 15.7976 30.1635 14.6247 30.9727 14.0016C31.2315 13.802 31.5067 13.6921 31.8107 13.5801C31.9586 13.5251 32.1044 13.4437 32.2646 13.4661L32.2276 13.4925C32.129 13.5597 32.014 13.6025 31.9093 13.6595C31.7178 13.7611 31.5368 13.8811 31.3691 14.0179C31.1309 14.2174 30.9419 14.4924 30.7838 14.755C30.4264 15.3476 30.1553 16.0053 30.0157 16.6834C29.991 16.7913 29.9294 17.0133 29.9869 17.1049Z" fill="#30302B"/>
<path d="M10.1738 23.896C10.182 23.4785 10.2704 23.0509 10.3751 22.6477C10.4634 22.3016 10.5497 21.9187 10.6996 21.595C10.7941 21.3913 10.9481 21.206 11.0816 21.0268C11.5047 20.4567 11.9647 19.9333 12.4474 19.412L12.5008 20.0026C12.507 20.0677 12.5378 20.1797 12.5275 20.2367C12.5234 20.2632 11.4164 21.6357 11.2665 21.8393L10.8824 22.3973C10.6257 22.7781 10.3977 23.1588 10.2765 23.6028C10.2478 23.6964 10.2354 23.8186 10.1738 23.896Z" fill="url(#paint5_linear_304_4445)"/>
<path d="M15.7292 20.0718C15.7908 20.0779 15.8709 20.084 15.9284 20.1125C15.9859 20.141 16.0475 20.1736 16.066 20.2367C15.9961 20.2884 15.9345 20.3502 15.8832 20.42C15.7785 20.5666 15.686 20.8089 15.723 20.9922C15.7497 21.1266 15.8339 21.2305 15.9469 21.3038C16.0221 21.3537 16.1069 21.3874 16.1961 21.4029C16.2852 21.4183 16.3766 21.4151 16.4644 21.3934C16.5518 21.3726 16.6337 21.3335 16.7046 21.2787C16.7754 21.2239 16.8336 21.1547 16.8752 21.0757L16.8957 21.0329C17.0272 21.1449 17.1401 21.2875 17.2551 21.4158C17.1483 21.5746 17.019 21.6947 16.8711 21.8149L16.6616 21.9411C16.3474 22.1061 16.0331 22.1122 15.7004 22.0022C15.4138 21.9037 15.1778 21.6975 15.0432 21.428C14.8563 21.0553 14.8686 20.7377 14.996 20.3508C15.2178 20.1818 15.4601 20.1227 15.7292 20.0718Z" fill="#FDAD02"/>
<path d="M30.5576 13.6004C30.6151 13.5332 30.6767 13.4538 30.7507 13.4049C30.9047 13.3011 31.1039 13.2339 31.2806 13.1789C31.7447 13.0343 32.2458 12.9631 32.7285 12.9203C34.0881 12.8042 35.4662 12.959 36.8094 12.7167C36.4541 13.6269 35.9591 14.4699 35.458 15.3068C34.961 16.1356 34.4208 17.0255 33.7492 17.73C33.433 18.0599 33.0735 18.345 32.6525 18.5323L32.4718 18.6077C32.4718 18.5547 32.5621 18.5161 32.6073 18.4916C32.8887 18.3328 33.1228 18.1658 33.3467 17.9337C34.4434 16.7954 35.2752 15.4026 35.9776 13.9975C36.1522 13.6493 36.335 13.3153 36.4787 12.9529C35.5628 13.1117 34.6385 13.069 33.7143 13.0791C32.8579 13.0893 31.9768 13.1545 31.1491 13.3825C30.9807 13.4294 30.7609 13.4762 30.6274 13.5923L30.611 13.6065L30.5576 13.6004Z" fill="#F3F3F1"/>
<path d="M25.3492 29.8949C25.5545 29.677 25.6922 29.4652 25.8647 29.227C25.799 29.4388 25.7127 29.6566 25.6839 29.8786C25.6244 30.3408 25.7189 30.9069 25.5607 31.3447C25.4929 31.5321 25.3718 31.697 25.2465 31.8497C25.1274 31.9964 25.0185 32.1246 24.846 32.2142L24.6632 32.2916C24.4332 32.2061 24.2072 32.0697 23.9978 31.9393L23.4247 31.6685C22.482 31.2633 21.4695 31.0006 20.4406 31.1737C19.9702 31.2531 19.5225 31.414 19.0809 31.5871L18.894 31.5626C18.9988 31.5138 19.0974 31.469 19.2103 31.4445C19.2596 31.4669 19.2494 31.4588 19.2986 31.4486C19.3293 31.4424 19.359 31.4321 19.387 31.418C19.5031 31.3634 19.625 31.3217 19.7505 31.2938L19.7875 31.2877C19.8347 31.2714 19.9086 31.2572 19.9497 31.2389C20.0173 31.2098 20.0897 31.1932 20.1633 31.19L20.1571 31.1167C20.1134 31.1099 20.0689 31.1113 20.0257 31.1207L19.9867 31.1309L19.9559 31.0983C20.3358 31.0088 20.7117 30.9986 21.0998 31.0006C22.1247 31.0067 23.0366 31.2246 23.9772 31.6135L24.2257 31.8559L24.3243 31.8233L24.4742 31.7703C24.7659 31.6237 24.961 31.2938 25.037 30.9904C25.0555 30.9151 25.1541 30.3531 25.1007 30.3001C25.0575 30.2574 25.0288 30.2838 24.9898 30.2187L25.1294 30.0456C25.228 30.0089 25.2958 29.9886 25.3492 29.8949Z" fill="#545557"/>
<path d="M20.2764 13.6208C20.2394 13.6554 20.2415 13.6636 20.1901 13.6677C20.0258 13.686 19.8492 13.7695 19.689 13.8163C19.3933 13.9039 19.0852 13.9731 18.7977 14.0831C18.6683 14.1014 18.504 14.2032 18.428 14.3071C18.3802 14.3763 18.3422 14.4516 18.315 14.531C18.2226 14.7795 18.1507 15.036 18.046 15.2784C17.8827 15.6542 17.6624 16.003 17.3929 16.3128C17.1998 16.5368 16.9266 16.7486 16.7808 17.0031C17.397 17.2536 18.0788 17.3798 18.734 17.4918L17.7091 17.6221C17.5428 17.6507 17.3128 17.7321 17.1526 17.724C17.0581 17.7199 16.9102 17.616 16.8219 17.5712C16.6588 17.4844 16.4892 17.4102 16.3146 17.3493C16.0825 17.2699 15.8566 17.2414 15.6143 17.2129C16.5261 16.7934 17.4997 16.0237 17.7831 15.0279C17.8344 14.8446 17.8632 14.6553 17.8899 14.4679C17.9043 14.3702 17.9043 14.2602 17.9433 14.1686L17.9577 14.1991C18.0501 14.2012 18.1815 14.1095 18.2678 14.0688C18.4167 14.0018 18.5697 13.944 18.7258 13.8957C19.2207 13.743 19.7588 13.6636 20.2764 13.6208Z" fill="#545557"/>
<path d="M20.3317 33.4747L20.3584 33.4666C20.761 33.3526 21.2539 33.3505 21.6605 33.4503C21.7714 33.5338 21.8906 33.603 21.9912 33.7008C22.071 33.7747 22.1377 33.8614 22.1884 33.9573L22.2356 34.049C22.1083 34.3687 21.9193 34.5703 21.5989 34.7087C21.4243 34.7841 21.2683 34.8126 21.0793 34.837C20.8062 34.8716 20.5227 34.8431 20.2989 34.67C20.1202 34.5316 19.9107 34.2567 19.8799 34.0306C19.9538 33.7618 20.1366 33.6539 20.3317 33.4747Z" fill="#707173"/>
<path d="M15.6761 26.7916L15.7008 26.8079C15.9678 26.5065 16.2923 26.2499 16.5798 25.9649C16.7729 25.7735 16.9351 25.5678 17.1015 25.354C17.085 25.4863 17.0255 25.5922 16.9762 25.7144C16.818 26.0993 16.7852 26.4495 16.8489 26.8588L16.779 26.7753C16.7852 26.7061 16.7934 26.645 16.7667 26.5778L16.7544 26.5513C16.7708 26.4841 16.7646 26.4332 16.7544 26.364C16.7215 26.4393 16.6948 26.4984 16.701 26.5819C16.7051 26.6694 16.6887 26.7285 16.6578 26.8099L16.6394 26.8568L16.6435 26.6368H16.625C16.3272 27.1174 16.2697 27.6204 16.3991 28.1702C16.5264 28.7118 16.7544 29.1374 17.2432 29.4347C17.3828 29.5202 17.5328 29.5732 17.6806 29.6404C17.5903 29.6607 17.4835 29.6404 17.3952 29.618L17.2699 29.5854C17.0522 29.5325 16.855 29.4754 16.7112 29.2922C16.6845 29.2576 16.6681 29.2657 16.625 29.2596C16.7421 29.5019 16.9454 29.6954 17.044 29.9397L17.1158 30.1108C16.9988 30.0802 16.8756 30.0456 16.7749 29.9784L16.7708 29.9519C16.5777 29.3981 16.2471 28.8992 16.1362 28.3127C16.1177 28.2476 16.128 28.1824 16.0828 28.1315C16.1156 28.5449 16.1998 28.891 16.3169 29.2881C16.0479 28.8544 15.7151 28.4084 15.5775 27.9116C15.479 27.5817 15.5077 27.0991 15.6761 26.7916Z" fill="url(#paint6_linear_304_4445)"/>
<path d="M10.9173 18.8235C10.465 18.7468 10.0259 18.6069 9.6131 18.4081C8.93945 18.0884 8.26991 17.614 7.77083 17.0581C7.13209 16.3474 6.6782 15.4657 6.25101 14.6186C5.95937 14.0382 5.65335 13.4416 5.43359 12.8287C6.9989 12.657 8.58103 12.7112 10.1307 12.9896C10.1615 13.0995 10.1943 13.2074 10.2025 13.3215C9.92938 13.2421 9.62542 13.2054 9.34405 13.1626C8.65808 13.0567 7.94746 12.9733 7.25327 12.9753C7.03557 12.9488 5.87516 12.9264 5.72523 12.9936L5.77658 13.0832C6.71722 15.2621 8.02961 17.7097 10.3751 18.6321C10.5332 18.6932 10.7858 18.7258 10.9173 18.8235Z" fill="#F3F3F1"/>
<path d="M14.5379 20.7743C14.617 20.6383 14.7137 20.513 14.8254 20.4017C14.6878 20.8415 14.6919 21.1979 14.9117 21.6133C15.0308 21.8413 15.2341 21.9941 15.421 22.1631C15.575 22.2506 15.7044 22.3036 15.8831 22.328C16.3185 22.326 16.6779 22.2547 17.06 22.0409C17.2099 21.933 17.3023 21.8006 17.4276 21.6723C17.3927 21.9798 17.3413 22.3606 17.1565 22.6192C17.0435 22.7801 16.871 22.9267 16.717 23.0468C16.3411 23.3421 15.7537 23.4887 15.2772 23.4378C15.173 23.4282 15.0702 23.4064 14.9712 23.3726L15.0965 23.3014L15.0821 23.2688C15.1335 23.2403 15.1294 23.2545 15.1499 23.1934C15.1384 23.1566 15.1203 23.1221 15.0965 23.0916C15.0729 23.0625 15.0523 23.0311 15.0349 22.998C14.7668 22.5354 14.5943 22.0245 14.5276 21.4952C14.4947 21.2325 14.466 21.035 14.5379 20.7743Z" fill="url(#paint7_linear_304_4445)"/>
<path d="M17.0912 22.0939V22.1509C16.816 22.4278 16.4956 22.5948 16.0951 22.6009C15.7624 22.607 15.4481 22.4482 15.214 22.2201C15.1302 22.1347 15.059 22.0381 15.0024 21.933C15.1113 22.0104 15.1955 22.1285 15.3126 22.1875L15.4194 22.159C15.5734 22.2466 15.7028 22.2995 15.8815 22.324C16.3169 22.3219 16.6763 22.2506 17.0583 22.0368L17.0912 22.0939Z" fill="#909091"/>
<path d="M15.8832 22.326C16.3186 22.324 16.678 22.2527 17.06 22.0389L17.0908 22.0939C16.7294 22.3932 16.3925 22.5235 15.9161 22.4869C15.837 22.4833 15.7591 22.4661 15.686 22.436C15.7969 22.3708 15.9387 22.4624 16.068 22.3606L15.8832 22.326Z" fill="#30302B"/>
<path d="M12.7964 23.7371L12.821 23.7758C12.973 24.0182 13.0737 24.3012 13.2154 24.5517C13.5933 25.2114 14.0862 25.8447 14.6222 26.3843L15.415 25.6065C15.5834 25.4456 15.8299 25.2583 15.9613 25.0689C15.5875 25.0587 15.1501 25.0668 14.7989 24.9365C14.5175 24.8327 14.2957 24.6474 14.0903 24.4336C13.8849 24.2197 13.6672 23.8349 13.6713 23.5356C13.887 23.7249 14.1273 23.9571 14.4025 24.063C14.5668 24.1261 14.7352 24.1505 14.9077 24.177C15.0992 24.2041 15.2937 24.2028 15.4848 24.1729L15.4766 24.2055L15.454 24.2788L15.4992 24.291L15.5362 24.3053C15.1726 24.3765 14.8009 24.2605 14.4538 24.1668C14.6222 24.3073 14.8523 24.4051 15.0617 24.4661C15.4396 24.5761 15.8155 24.5802 16.2037 24.5354C16.368 24.517 16.5241 24.4987 16.6699 24.4193C16.7082 24.3962 16.7488 24.3771 16.791 24.3623C16.8711 24.3379 16.9204 24.3216 16.9903 24.2727C17.0531 24.2281 17.1224 24.1931 17.1956 24.1688C16.9225 24.4234 16.6781 24.7085 16.4173 24.9752L15.682 25.6838C15.2906 26.0891 14.9518 26.5413 14.6736 27.0298C14.1129 26.3151 13.5994 25.5413 13.1866 24.7329C13.0634 24.4906 12.9812 24.2299 12.8621 23.9917C12.8149 23.9021 12.8067 23.8349 12.7964 23.7371Z" fill="#30302B"/>
<path d="M5.4868 11.949C5.45189 11.9409 5.41903 11.9307 5.38411 11.9409L5.31017 11.9612L5.29785 11.9287C5.344 11.9054 5.38799 11.8781 5.4293 11.8472C5.56895 11.7332 5.74764 11.6558 5.90783 11.5723C6.83616 11.0897 7.79118 10.8311 8.77701 10.5012L10.9746 9.77832L10.954 10.6539L6.97581 11.5804L5.90989 11.8492C5.80514 11.8737 5.58744 11.9572 5.4868 11.949Z" fill="#F38802"/>
<path d="M29.847 20.2571C29.6971 19.97 29.5205 19.7094 29.2822 19.4854L29.3664 19.1086C29.9045 19.4976 30.2824 19.9619 30.646 20.5055C31.2806 21.4524 31.677 22.3973 31.8556 23.5213C31.985 24.3338 31.985 25.1279 31.8967 25.9445L31.8782 25.861C31.8248 25.8773 31.8207 25.8793 31.794 25.9262C31.7468 26.0117 31.7653 26.1155 31.7119 26.2011C31.7037 25.582 31.7961 24.9691 31.6318 24.3562C31.6195 24.1811 31.5578 23.9795 31.5147 23.8084C31.3073 22.9898 30.9499 22.1549 30.4734 21.4524C30.4159 21.3241 30.3297 21.0655 30.2167 20.9861C30.1366 20.7479 30.0175 20.4465 29.847 20.2571Z" fill="url(#paint8_linear_304_4445)"/>
<path d="M1.99951 10.322L2.01389 10.2406C2.44724 10.0573 2.934 9.93919 3.38583 9.79461C5.07407 9.25703 6.78489 8.85588 8.52447 8.52803L11.2684 8.0719L11.1759 8.40992C10.6625 8.46083 10.1531 8.55857 9.64379 8.65224L7.39692 9.11652C5.69842 9.50749 3.98555 9.9229 2.35482 10.5419L1.99951 10.322Z" fill="#FDE421"/>
<path d="M18.9928 33.7476L18.5677 33.9696C18.1734 33.715 17.7339 33.3546 17.5552 32.9127L18.921 32.2428C19.6418 31.919 20.4695 31.6767 21.2685 31.7093C21.7716 31.7317 22.2728 31.864 22.7452 32.0351L24.6162 32.9066C24.5258 33.0654 24.382 33.2182 24.2691 33.3627L23.5749 34.2098L23.3613 34.0205C23.5318 33.8087 23.7782 33.5542 23.8398 33.2854C23.8583 33.2039 23.8665 33.1286 23.8152 33.0553C23.7269 32.929 23.5544 32.8353 23.4229 32.7559C22.9711 32.4892 22.4412 32.2448 21.9195 32.1511C20.5702 31.9129 19.3338 32.3161 18.2288 33.0797C18.4671 33.3139 18.7053 33.5704 18.9928 33.7476Z" fill="url(#paint9_linear_304_4445)"/>
<path d="M27.2779 21.5481C27.5449 21.2101 27.7955 20.642 27.7195 20.198C27.6887 20.0209 27.5942 19.8519 27.5408 19.6808C27.8222 19.7908 28.0173 19.9089 28.1487 20.1919C28.3664 20.6705 28.0543 21.4728 27.8674 21.933C27.6866 22.3769 27.4361 22.8188 27.1116 23.1771L27.1054 23.2057L27.0109 23.2586C27.0273 23.3054 27.013 23.2912 27.0561 23.3136C27.0858 23.3295 27.1189 23.3378 27.1526 23.338L26.6618 23.4256C26.1565 23.4744 25.6267 23.2667 25.2467 22.943C24.8873 22.6375 24.7456 22.2934 24.7065 21.8271L24.8893 22.0572C24.9797 22.157 25.066 22.2608 25.1954 22.3097L25.2262 22.3138C25.3268 22.328 25.4315 22.3871 25.5281 22.4196C25.8526 22.5296 26.1935 22.4868 26.4934 22.3321H26.4954C26.746 22.1732 26.976 21.9289 27.1629 21.6988C27.1773 21.6479 27.2409 21.5888 27.2779 21.5481Z" fill="url(#paint10_linear_304_4445)"/>
<path d="M27.1668 21.7008C27.1483 21.9248 27.0086 22.1651 26.8361 22.3117C26.5671 22.5398 26.1953 22.605 25.8523 22.5744L25.7579 22.5581L25.7209 22.55C25.5258 22.5092 25.3635 22.4156 25.1992 22.3097L25.23 22.3138C25.3307 22.328 25.4354 22.3871 25.5319 22.4196C25.8564 22.5296 26.1974 22.4868 26.4972 22.3321H26.4993C26.7498 22.1753 26.9799 21.9309 27.1668 21.7008Z" fill="url(#paint11_linear_304_4445)"/>
<path d="M10.2931 13.3378C10.5601 13.407 10.8353 13.4498 11.1085 13.4986C11.2112 13.517 11.3714 13.5679 11.472 13.5292C11.7903 14.3804 12.1744 15.1501 12.6837 15.9076L12.8953 16.2334C12.9138 16.2619 12.9651 16.325 12.9733 16.3576C12.9774 16.3739 12.959 16.3902 12.9528 16.4044C12.7762 16.8239 12.6776 17.2414 12.5934 17.6893C12.4763 17.0398 12.0738 16.4289 11.6445 15.932C11.4946 15.7589 11.3282 15.5675 11.1454 15.429L11.0222 15.3333L11.0017 15.256C10.9894 15.1297 10.9093 14.9994 10.8559 14.8854L10.5375 14.1951C10.4307 13.9263 10.3424 13.6514 10.2603 13.3744L10.2931 13.3378Z" fill="#30302B"/>
<path d="M5.77644 13.0812L5.7251 12.9916C5.87503 12.9244 7.03748 12.9488 7.25313 12.9733C7.94732 12.9712 8.65794 13.0547 9.34186 13.1606C9.62323 13.2034 9.92719 13.24 10.2003 13.3194L10.2846 13.3235L10.2928 13.3357L10.2599 13.3724C10.3421 13.6514 10.4304 13.9263 10.5372 14.195L10.8514 14.8854C10.9048 14.9994 10.9849 15.1317 10.9972 15.256C10.4365 14.7795 9.70743 14.4455 9.02762 14.1665C8.38683 13.9039 7.7748 13.6839 7.10115 13.5271L6.20569 13.4172C6.01263 13.3846 5.93048 13.2217 5.81547 13.0751L5.77644 13.0812Z" fill="url(#paint12_linear_304_4445)"/>
<path d="M23.9961 5.37582C24.7909 5.9297 25.5714 6.49172 26.4216 6.95803C26.9351 7.23904 27.4691 7.46099 27.9969 7.7135C27.9928 7.73589 27.9805 7.75829 27.9825 7.78069C27.9866 7.8316 28.0421 7.93138 28.0585 7.98432C28.1448 8.25312 28.2331 8.63594 28.3851 8.87215L28.3748 8.92306C28.1181 8.84364 27.8675 8.71128 27.6252 8.59725C26.8847 8.25005 26.1659 7.85906 25.4728 7.42638C25.1483 7.22275 24.834 6.99061 24.4972 6.81142L23.9961 5.37582Z" fill="#F38802"/>
<path d="M5.77637 13.0812L5.81539 13.073C5.9304 13.2196 6.01256 13.3825 6.20561 13.4151L6.15632 13.4497C6.21999 13.5943 6.35554 13.743 6.45207 13.8713L7.17707 14.8018L8.02529 15.9422C8.56818 16.6156 9.19871 17.2148 9.90042 17.7239C10.3317 18.0375 10.7774 18.3226 11.2744 18.5201L12.4759 18.8663C11.9891 18.9518 11.4161 18.9518 10.9294 18.8398L10.9171 18.8235C10.7856 18.7258 10.535 18.6932 10.3748 18.6301C8.0294 17.7097 6.71701 15.2621 5.77637 13.0812Z" fill="#30302B"/>
<path d="M8.71122 29.6119L9.04189 30.1881C8.76873 30.3449 8.47093 30.4732 8.18955 30.6117C7.6186 30.8947 7.0538 31.188 6.5157 31.526C5.93858 31.8885 5.42718 32.2591 5.14992 32.9005L4.21338 31.695C4.35304 31.6502 4.4927 31.5545 4.62209 31.4812L5.27931 31.133L7.38241 30.1474C7.81987 29.958 8.25528 29.7585 8.71122 29.6119Z" fill="#BB4D02"/>
<path d="M27.5653 33.2141C27.5715 33.5827 27.4483 33.9064 27.3579 34.2567C26.7993 34.9979 26.0989 35.7085 25.4068 36.3296C25.109 36.5984 24.7742 36.8387 24.4908 37.1217L24.3491 37.1604L24.8933 36.521C24.5606 36.6473 24.2505 36.8183 23.9301 36.9711C23.162 37.3417 22.4288 37.6797 21.6011 37.9037L27.5653 33.2141Z" fill="#30302B"/>
<path d="M31.0425 15.9076C31.2889 15.5858 31.5354 15.258 31.8496 14.9974C32.3898 14.5494 33.1784 14.3213 33.8624 14.2134L34.0164 14.191C33.4495 14.6736 33.0182 15.256 32.5952 15.8628C32.3076 16.2741 32.0365 16.7241 31.6442 17.0479C31.3259 17.3106 30.9172 17.4898 30.5208 17.6038C30.145 17.7117 29.7691 17.7219 29.3892 17.7891C29.9355 17.3493 30.5126 16.7506 30.87 16.1458C30.9377 16.0746 30.9891 15.989 31.0425 15.9076Z" fill="#F3F3F1"/>
<path d="M22.2788 19.9191C22.3897 19.9802 22.4328 20.0576 22.5212 20.1431C22.8559 20.4587 23.4002 20.9861 23.8972 20.8476C23.9773 20.8252 24.0369 20.7723 24.1005 20.7214L24.1313 20.6969C24.4148 20.4709 24.6427 20.1655 24.8933 19.9048C25.7189 19.0414 26.7068 18.3674 27.972 18.4896C28.1794 18.51 28.6887 18.5975 28.8243 18.7604C28.9003 18.8521 28.8756 19.0007 28.8736 19.1147C28.8654 19.4568 28.7812 19.803 28.7565 20.1471C28.7339 20.4648 28.7771 20.7804 28.7237 21.0961C28.6374 21.6153 28.4197 22.1549 28.204 22.6355C28.1527 22.7495 28.0829 22.9532 27.9761 23.0183L27.8754 23.0672L27.8467 23.0815C27.7569 23.1227 27.6614 23.1502 27.5633 23.1629L27.5201 23.169C27.4441 23.1792 27.323 23.169 27.2737 23.2301C27.2408 23.2729 27.249 23.2525 27.2388 23.2993L27.2285 23.3197L27.1546 23.336C27.1208 23.3361 27.0876 23.3277 27.058 23.3116C27.0128 23.2912 27.0272 23.3034 27.0128 23.2566L27.1073 23.2036C27.2141 23.1731 27.2901 23.112 27.3723 23.0407C27.6105 22.8412 27.8097 22.55 27.9679 22.2853C28.3026 21.7253 28.6271 21.0166 28.5737 20.3467C28.5583 20.1938 28.5294 20.0426 28.4875 19.8946C28.4669 19.8152 28.4053 19.6727 28.4218 19.5933L28.5614 19.1005C28.295 18.9998 28.0127 18.9467 27.7276 18.9437C26.5836 18.9335 25.4252 19.8417 24.7228 20.6664L24.2053 21.2956C24.1355 21.3873 24.0738 21.5033 23.9917 21.5827L23.967 21.6072C23.6898 21.6153 23.4064 21.4097 23.1722 21.2854C22.819 20.866 22.5355 20.3956 22.2788 19.9191Z" fill="#545557"/>
<path d="M13.2215 20.1919C13.166 19.9741 13.0962 19.5729 13.1516 19.3591L13.1599 19.3286C13.1989 19.184 13.3385 18.8582 13.4597 18.7665C13.7945 18.514 14.423 18.4794 14.8214 18.5364C15.0247 18.5649 15.2219 18.5914 15.4129 18.6708C15.76 18.8134 16.0516 19.0638 16.3309 19.3102L17.4523 20.363C17.6495 20.5463 17.8364 20.7479 18.0746 20.8822C18.202 20.8863 18.3416 20.9006 18.4669 20.87C18.9311 20.756 19.2782 20.306 19.6684 20.0596L19.7115 20.0331C19.4938 20.475 19.2042 20.9209 18.8695 21.2834C18.6127 21.428 18.4402 21.5746 18.1465 21.6581L18.0685 21.6418L18.052 21.6112C17.9042 21.3384 17.6721 21.1103 17.4605 20.8843C16.7561 20.1309 15.9469 19.3571 14.9282 19.0537C14.5955 18.9539 13.9855 18.8663 13.6754 19.0435C13.6035 19.0842 13.5419 19.1514 13.5275 19.2349C13.4844 19.4874 13.6302 19.8784 13.6815 20.1268C13.8212 20.7865 13.9198 21.4952 14.1724 22.1224C14.275 22.3793 14.417 22.619 14.5934 22.833C14.6797 22.9389 14.7885 23.0244 14.8871 23.1201L14.8522 23.1894C14.6715 23.1588 14.501 23.0733 14.3552 22.9674C14.2738 22.9135 14.2005 22.8483 14.1375 22.774C13.9033 22.4706 13.7719 22.049 13.6384 21.6927C13.5234 21.3893 13.3961 21.09 13.318 20.7743C13.2708 20.5849 13.2523 20.3854 13.2215 20.1919Z" fill="url(#paint13_linear_304_4445)"/>
<path d="M8.24103 25.8019C8.42382 26.4597 8.7093 27.0909 9.00299 27.7059C9.72746 29.2186 10.6173 30.6478 11.6565 31.9679L12.7368 33.2324C13.3858 33.9695 14.041 34.668 14.7804 35.3135L15.6943 36.0486C15.8237 36.1463 15.9634 36.2726 16.1071 36.35L16.1359 36.3622L17.21 37.415C17.3004 37.5005 17.5653 37.7061 17.5961 37.812C17.5995 37.8329 17.6009 37.854 17.6002 37.8752L17.516 37.8263C15.9079 36.8835 14.4661 35.6739 13.1804 34.3361C11.9687 33.0756 10.8391 31.6624 9.91489 30.182L9.09131 28.7118L8.43614 27.3658C8.25541 26.9667 8.07673 26.5554 7.96582 26.1318L8.24103 25.8019Z" fill="url(#paint14_linear_304_4445)"/>
<path d="M24.4971 6.81549C24.8339 6.99469 25.1502 7.22886 25.4726 7.43045C26.1655 7.86356 26.8843 8.25457 27.625 8.60133C27.8694 8.71536 28.1179 8.84568 28.3747 8.92713C28.3048 9.00044 28.2596 9.24683 28.2288 9.35068L27.9105 10.2772C27.5634 10.1672 27.2184 10.0715 26.8774 9.93714C26.1155 9.6378 25.3925 9.24072 24.7066 8.79885C24.7394 8.14723 24.6429 7.44674 24.4971 6.81549Z" fill="#BB4D02"/>
<path d="M18.9927 33.7476C18.7052 33.5684 18.467 33.3139 18.2246 33.0797C19.3296 32.3181 20.566 31.9129 21.9153 32.1511C22.437 32.2428 22.9648 32.4871 23.4187 32.7559C23.5501 32.8333 23.7227 32.929 23.811 33.0553C23.8623 33.1286 23.8541 33.2019 23.8356 33.2854C23.774 33.5542 23.5275 33.8087 23.3571 34.0205C23.1209 33.8779 22.8868 33.7272 22.6362 33.6132C22.437 33.5236 22.2234 33.4646 22.0159 33.4014C21.8722 33.3465 21.6976 33.3281 21.5436 33.3098C21.0322 33.2507 20.5577 33.2996 20.0546 33.3933C19.6951 33.5114 19.3398 33.5949 18.9927 33.7476Z" fill="#707173"/>
<path d="M20.0547 33.3933L20.0444 33.3587C20.1574 33.2792 20.2786 33.2385 20.4039 33.1835C20.4922 33.1449 20.5887 33.0817 20.6811 33.0553C20.9522 32.9758 21.3404 32.9657 21.6197 33.0125C21.708 33.0267 21.8107 33.0308 21.8703 33.1001C21.7635 33.1387 21.6259 33.1041 21.517 33.0797C21.2849 33.0247 20.9378 33.0451 20.7058 33.0919L20.6236 33.1021L20.6195 33.1286C21.1391 33.0858 21.5581 33.1062 22.0551 33.2772C22.0674 33.3342 22.0448 33.3526 22.0181 33.4035C21.8744 33.3485 21.6998 33.3302 21.5458 33.3118C21.0323 33.2507 20.5579 33.2996 20.0547 33.3933Z" fill="#F3F3F1"/>
<path d="M11.0961 17.4022C10.2499 16.8524 9.56803 16.1458 8.93751 15.3679C8.63971 15.0014 8.36861 14.5901 8.00098 14.2907C8.32753 14.305 8.66847 14.3926 8.9827 14.4781C9.44481 14.6064 9.88227 14.7509 10.3156 14.9566L11.018 15.3333L11.1413 15.429C11.324 15.5675 11.4904 15.7589 11.6403 15.932C12.0696 16.4289 12.4721 17.0377 12.5892 17.6893C12.5563 17.783 12.5461 17.893 12.5296 17.9907C12.2216 17.9092 11.8704 17.8359 11.5972 17.669C11.5726 17.671 11.5068 17.6303 11.4801 17.6181L11.0961 17.4022Z" fill="url(#paint15_linear_304_4445)"/>
<path d="M11.0303 16.6895L11.0405 16.6427V16.5694C11.1856 16.737 11.3135 16.9184 11.4226 17.111C11.5191 17.2861 11.591 17.4776 11.6978 17.6425L11.7101 17.671L11.6012 17.6669C11.5766 17.669 11.5109 17.6282 11.4842 17.616L11.5068 17.5834C11.4287 17.2861 11.2048 16.944 11.0303 16.6895Z" fill="#B0AEB1"/>
<path d="M11.0957 17.4022C11.1399 17.406 11.1838 17.4128 11.2271 17.4226L11.2395 17.392C11.1244 17.333 10.954 16.9807 10.9191 16.8585L10.9129 16.832L10.8903 16.8198C10.8307 16.7669 10.7691 16.6406 10.726 16.5714L10.4323 16.0745C10.3933 16.0073 10.3296 15.9239 10.3111 15.8505C10.3019 15.8007 10.3019 15.7497 10.3111 15.6999L10.3604 15.6876L10.3193 15.6245C10.3255 15.5858 10.3255 15.5716 10.3584 15.5451L10.4097 15.5879L10.3994 15.6632C10.4163 15.6975 10.4307 15.7329 10.4426 15.7691L10.4508 15.7976L10.4816 15.7793L10.5412 15.9483C10.6213 16.2171 10.8451 16.4818 11.03 16.6895C11.2066 16.942 11.4284 17.2861 11.5064 17.5834L11.4839 17.616L11.0957 17.4022Z" fill="#F3F3F1"/>
<path d="M2.35693 10.5399C3.98766 9.92084 5.70054 9.50543 7.39904 9.11446L9.64591 8.65019C10.1532 8.55652 10.6625 8.46081 11.178 8.40787L11.0363 9.15112L7.96794 9.81495L4.76811 10.6519C4.25671 10.8046 3.69602 10.9268 3.20721 11.1365L2.35693 10.5399Z" fill="#F3F3F1"/>
<path d="M12.2728 7.40196C12.3714 7.34698 12.4392 7.15353 12.4926 7.04968L12.5439 7.07412C12.5318 7.123 12.5153 7.17071 12.4946 7.21666C12.472 7.26146 12.4905 7.22277 12.47 7.28589L12.4576 7.31644L12.4453 7.3592L12.433 7.38974C12.4213 7.41596 12.4164 7.44465 12.4186 7.47323L12.4392 7.48341C11.8641 9.5136 12.281 11.6721 13.3141 13.4905C13.9549 14.6186 14.8524 15.6388 16.0847 16.1275C15.6264 16.4016 15.136 16.6191 14.6244 16.775C13.6057 15.8302 12.852 14.7102 12.3303 13.4294C12.1804 13.0629 12.0387 12.6902 11.9421 12.3054C11.6053 10.9512 11.5581 9.27536 12.0387 7.94973C12.1044 7.7685 12.1722 7.5669 12.2728 7.40196Z" fill="#997E4A"/>
<path d="M29.3481 6.55078C30.3524 8.06579 30.7016 9.96973 30.3278 11.7413C29.9786 13.3907 29.0914 14.8792 27.9125 16.0766C27.6969 16.2965 27.4668 16.5388 27.2204 16.7241C26.7193 16.5836 26.1935 16.4024 25.7827 16.0725C27.1526 15.541 28.2473 14.4781 28.9394 13.2013C29.7938 11.6252 29.991 9.84144 29.6911 8.09226C29.6377 7.78682 29.5966 7.4773 29.5063 7.18C29.4734 7.12298 29.4652 7.01709 29.4508 6.9499C29.4159 6.81346 29.3605 6.69536 29.3481 6.55078Z" fill="#997E4A"/>
<path d="M32.5643 31.1595C32.8313 31.3631 33.1538 31.5077 33.4557 31.6543C32.4041 33.5379 31.0692 35.287 29.4857 36.7613C29.2413 36.9873 28.9784 37.2663 28.7032 37.4557C28.8285 37.2337 29.0996 37.0464 29.2865 36.8733L28.8819 36.9894C28.7586 37.0199 28.6374 37.0688 28.5142 37.0912L27.8673 37.1808C27.627 37.2134 27.3867 37.25 27.1484 37.1971C28.2719 36.238 29.3768 35.1995 30.3524 34.0897C31.1677 33.1632 31.8866 32.1898 32.5643 31.1595Z" fill="#BB4D02"/>
<path d="M30.4758 21.4544C30.9522 22.1549 31.3096 22.9898 31.517 23.8104C31.5602 23.9835 31.6197 24.1831 31.6341 24.3582C31.6023 24.4148 31.5775 24.4749 31.5602 24.5374C31.4883 24.7594 31.3425 24.9671 31.2644 25.1951L30.8229 26.5737C30.6483 27.0583 30.4306 27.5165 30.1862 27.9686C29.9985 28.3192 29.7879 28.6573 29.5556 28.9806C28.9108 29.8766 28.1755 30.6483 27.7771 31.6991C27.7195 31.8518 27.6415 32.0208 27.6497 32.1857C27.0254 32.8027 26.4031 33.3016 25.5918 33.6621C25.9327 33.2344 26.3969 32.7702 26.6064 32.2611C26.7337 31.9475 26.6926 31.5687 26.8857 31.2877C27.0746 31.0149 27.2533 30.74 27.4628 30.4814L28.3665 29.4428C29.036 28.6385 29.7384 27.7018 30.1451 26.7346C30.4799 25.9404 30.6339 25.1177 30.6585 24.2605C30.6733 23.7287 30.65 23.1966 30.5887 22.6681L30.5025 21.8882C30.4901 21.764 30.4593 21.6275 30.4696 21.5053L30.4758 21.4544Z" fill="#30302B"/>
<path d="M29.8474 20.2571C30.0179 20.4465 30.137 20.7479 30.2212 20.9881C30.6771 23.053 30.0322 25.0383 28.9088 26.7835C28.7609 27.0115 28.5987 27.2579 28.4138 27.4575C27.9949 28.0867 27.3582 28.6507 26.7728 29.1293C27.1015 28.6019 27.5184 28.1213 27.8696 27.6061C28.7137 26.368 29.4181 24.7533 29.4613 23.2383C29.3216 23.5966 29.184 23.9591 29.0135 24.3032C28.5864 25.1707 28.0318 25.9995 27.4629 26.7794C27.4095 26.6755 27.3705 26.5615 27.3068 26.4637C27.1405 26.2072 26.8961 25.971 26.6825 25.751L25.9185 24.9447L25.939 24.8938L26.3703 24.9589L26.3949 24.965C26.9269 25.077 27.6046 24.7899 28.0359 24.4987L28.0442 24.5008C28.1099 24.5048 28.1489 24.4885 28.2043 24.458L28.3029 24.4071C28.3939 24.3647 28.4811 24.315 28.5638 24.2584C28.5884 24.1016 28.7424 23.3564 28.7034 23.2647C28.7168 23.2159 28.7398 23.1702 28.7712 23.1303L28.7938 23.1405L28.8246 23.1161L28.8554 23.1364C29.0177 22.9084 29.1368 22.6559 29.26 22.4054C29.5599 21.8006 29.8022 21.1918 29.9008 20.5218L29.8474 20.2571Z" fill="url(#paint16_linear_304_4445)"/>
<path d="M29.8471 20.2571C30.0176 20.4465 30.1367 20.7479 30.2209 20.9881C30.6769 23.0529 30.032 25.0383 28.9085 26.7834C28.7607 27.0115 28.5984 27.2579 28.4136 27.4575C28.4177 27.2885 28.7812 26.7549 28.8798 26.5717C29.2207 25.9506 29.535 25.3214 29.7547 24.6474C29.8903 24.234 29.9478 23.7982 30.0155 23.3706C30.1614 22.4278 30.3585 21.4219 29.8985 20.5279L29.8471 20.2571Z" fill="#F3F3F1"/>
<path d="M31.6339 24.3582C31.7982 24.9711 31.7058 25.5841 31.714 26.2031C31.6084 27.0592 31.4009 27.9 31.0958 28.7077C30.9131 29.1863 30.6912 29.6363 30.4674 30.0965L29.498 31.581L28.3355 33.1062C28.0398 33.489 27.7194 33.939 27.3579 34.2567C27.4503 33.9064 27.5715 33.5806 27.5653 33.2141C27.8056 32.9779 28.0172 32.703 28.2185 32.4342C28.7299 31.752 29.1262 31.0576 29.3624 30.237C28.8675 30.9558 28.2842 31.583 27.6537 32.1857C27.6475 32.0208 27.7235 31.8518 27.781 31.6991C28.1774 30.6483 28.9147 29.8766 29.5596 28.9806C29.7919 28.6573 30.0025 28.3192 30.1901 27.9686C30.4345 27.5165 30.6522 27.0563 30.8268 26.5737L31.2684 25.1951C31.3464 24.9671 31.4922 24.7594 31.5641 24.5374C31.5791 24.4748 31.6026 24.4145 31.6339 24.3582Z" fill="#707173"/>
<path d="M20.9766 9.68057C21.3648 10.0512 21.6913 10.4951 22.061 10.8861C22.9154 11.7943 23.8684 12.6434 24.887 13.3663L24.5153 13.5638C24.4336 13.5244 24.3474 13.495 24.2586 13.4762C24.1805 13.462 24.0553 13.4599 23.9895 13.4192C23.8663 13.3439 23.7595 13.2034 23.6404 13.1138L22.8538 12.568C22.5971 12.3787 22.3609 12.1649 22.1226 11.9531C22.3383 12.3298 22.5847 12.6902 22.8825 13.0079C22.5354 12.9122 22.1904 12.8267 21.833 12.7798C21.6441 12.7554 21.4058 12.7717 21.2272 12.7208L21.1039 12.3155L21.0095 11.9979C20.8965 12.2097 20.8349 12.4846 20.7507 12.7106C20.6767 12.7452 20.5679 12.7411 20.4857 12.7493L19.9723 12.8144L19.1117 12.9794C19.4054 12.6658 19.6519 12.3644 19.8573 11.9857C19.4445 12.3705 18.9782 12.6984 18.5285 13.0384C18.4401 13.1036 18.2882 13.2543 18.1916 13.293C18.1054 13.3276 17.9 13.297 17.8014 13.295L17.1812 13.3113L18.0314 12.6678C19.1097 11.7739 20.0668 10.7435 20.9766 9.68057Z" fill="#FDAD02"/>
<path d="M20.9644 10.3098C21.1184 10.5216 21.293 10.7354 21.4039 10.9736L20.9438 10.5378L20.4858 10.9879C20.6111 10.7394 20.7775 10.5175 20.9644 10.3098Z" fill="#F6E4FA"/>
<path d="M30.5576 13.6005L30.6131 13.6066L30.6295 13.5923C30.763 13.4783 30.9828 13.4294 31.1512 13.3826C31.9789 13.1545 32.8599 13.0893 33.7164 13.0792C34.6406 13.0669 35.5669 13.1117 36.4808 12.9529C36.337 13.3154 36.1542 13.6493 35.9797 13.9975C35.2773 15.4026 34.4455 16.7954 33.3487 17.9337C33.1249 18.1658 32.8907 18.3328 32.6094 18.4916C32.5642 18.5161 32.4738 18.5548 32.4738 18.6077C32.443 18.6464 32.3691 18.6647 32.3239 18.6851C32.1232 18.7697 31.9148 18.8352 31.7016 18.8806C31.1183 19.0089 30.5371 18.6851 30.0565 18.3837C30.726 18.2921 31.3874 18.1557 32.0014 17.8665C32.5745 17.5957 33.0099 17.2251 33.4555 16.7852C33.8293 16.4167 34.162 16.0481 34.466 15.6205L35.3615 14.2867L35.877 13.5923C35.9591 13.4844 36.0865 13.352 36.1317 13.2258C34.7001 13.7532 32.9133 13.7145 31.7735 14.8548C31.5496 15.0788 31.3524 15.3517 31.1799 15.6144C31.1224 15.7019 31.0444 15.8017 31.0444 15.9096C30.993 15.9932 30.9353 16.0728 30.8718 16.1479C30.7733 16.1784 30.6891 16.3148 30.6213 16.3922C30.4138 16.6305 30.2105 16.883 29.9887 17.109C29.9312 17.0174 29.9928 16.7954 30.0154 16.6875C30.1551 16.0094 30.4262 15.3517 30.7835 14.7591C30.9417 14.4964 31.1306 14.2215 31.3689 14.022C31.5366 13.8852 31.7175 13.7651 31.909 13.6636C32.0138 13.6066 32.1288 13.5638 32.2274 13.4966L32.2643 13.4701L32.671 13.3194C32.5108 13.297 32.3465 13.3154 32.1863 13.3276C31.8067 13.3561 31.4306 13.4195 31.0629 13.517C30.876 13.5679 30.7014 13.6432 30.5083 13.6758C30.5268 13.6167 30.5124 13.6412 30.5576 13.6005Z" fill="url(#paint17_linear_304_4445)"/>
<path d="M13.2216 20.192C13.2524 20.3854 13.2709 20.585 13.3182 20.7743C13.3983 21.09 13.5235 21.3893 13.6386 21.6927C13.7741 22.0491 13.9056 22.4706 14.1376 22.774C14.1951 22.8493 14.2773 22.9125 14.3553 22.9674C14.5012 23.0733 14.6716 23.1588 14.8524 23.1894L15.0844 23.2647L15.0988 23.2973L14.9735 23.3686C14.8873 23.334 14.7866 23.3238 14.6942 23.3075C14.6059 23.2749 14.4683 23.2668 14.3759 23.2749C14.3324 23.2793 14.2897 23.2889 14.2485 23.3034L14.2444 23.338C14.5402 23.6353 14.9263 23.8206 15.3268 23.9408C15.3905 23.9591 15.5322 23.9754 15.5794 24.0121L15.6184 24.0406L15.6616 24.0528L15.6801 24.1139L15.5671 24.12L15.6102 24.1465C15.5699 24.1631 15.5265 24.1707 15.4829 24.1688C15.2918 24.1987 15.0973 24.2001 14.9058 24.1729C14.7332 24.1464 14.5648 24.122 14.4005 24.0589C14.1274 23.953 13.8871 23.7209 13.6694 23.5315C13.6673 23.8308 13.8871 24.2198 14.0883 24.4295C14.2937 24.6433 14.5135 24.8286 14.7969 24.9325C15.1481 25.0628 15.5876 25.0546 15.9594 25.0648C15.8279 25.2562 15.5815 25.4415 15.4131 25.6024L14.6223 26.3843C14.0863 25.8447 13.5934 25.2114 13.2155 24.5517C13.0717 24.3012 12.9731 24.0182 12.8211 23.7758L12.7965 23.7372C12.6328 23.3502 12.5123 22.9466 12.4371 22.5337C12.4309 22.497 12.433 22.5093 12.4124 22.4706C12.3508 22.8778 12.4453 23.2892 12.5336 23.6862C12.8273 25.0058 13.3675 26.3986 14.0616 27.5613L14.4847 28.2252L14.762 28.6182C14.8113 28.6854 14.8852 28.7587 14.8975 28.8442C14.1274 28.0887 13.4578 27.2946 12.9444 26.3477C12.8602 26.1929 12.7452 26.0097 12.6959 25.8427C12.1598 24.7024 11.8579 23.4785 11.8579 22.2221C11.8867 22.0267 12.244 21.6886 12.3734 21.5196L12.6589 21.1144C12.6301 21.3486 12.5562 21.5604 12.4823 21.7823C12.6609 21.6642 12.8396 21.5176 12.9629 21.3425C13.0614 21.1999 13.2257 20.9393 13.236 20.7642C13.2463 20.5992 13.1826 20.3874 13.1539 20.2225L13.2216 20.192Z" fill="url(#paint18_linear_304_4445)"/>
<path d="M11.8579 22.2242L11.899 22.214C12.0243 22.5194 12.0653 22.8656 12.1393 23.1873L12.7164 25.8162L12.6938 25.8467C12.1598 24.7064 11.8579 23.4826 11.8579 22.2242Z" fill="#B0AEB1"/>
<path d="M13.9322 6.03559L13.8788 6.50191C16.6186 5.22718 19.1776 3.44746 21.0301 1.04666C22.4719 2.80602 24.2177 4.33528 26.1708 5.52245C26.826 5.91952 27.4873 6.28606 28.2144 6.5406C28.2637 6.52431 28.2472 6.5406 28.2698 6.4958L28.2965 6.57318C28.3766 6.59354 28.4588 6.58539 28.5409 6.58132C28.5923 6.8155 28.5799 7.08632 28.5758 7.32457C27.3805 6.94582 26.2509 6.27384 25.224 5.56928C23.6816 4.51244 22.2686 3.3151 21.0425 1.90598C20.8658 2.06277 20.7097 2.25419 20.5454 2.42524L19.5226 3.45357C17.7564 5.0989 15.7395 6.34511 13.5029 7.25534C13.5111 6.84808 13.5194 6.41638 13.5974 6.01727C13.7063 6.04374 13.8192 6.02745 13.9322 6.03559Z" fill="#C5A76E"/>
<path d="M24.8627 14.1197C24.9449 14.0321 25.1092 13.9751 25.216 13.9181L25.7192 13.6167C26.3456 13.1993 26.9083 12.6923 27.4054 12.1282C28.4815 10.9044 29.1449 9.23869 29.2004 7.61372C29.2168 7.12298 29.1573 6.62815 29.1223 6.14148L29.3503 6.55078C29.3626 6.69535 29.4181 6.81346 29.4509 6.95193C29.4674 7.01709 29.4735 7.12501 29.5064 7.18203C29.5968 7.47729 29.6399 7.78885 29.6912 8.09429C29.9911 9.84347 29.7939 11.6273 28.9395 13.2034C28.2474 14.4801 27.1507 15.5431 25.7828 16.0745C25.4029 15.8506 25.0106 15.427 24.8525 15.0136C24.7744 14.812 24.7765 14.3152 24.8627 14.1197Z" fill="#E3CB84"/>
<path d="M24.8628 14.1197C24.9449 14.0321 25.1093 13.9751 25.216 13.9181L25.7192 13.6167C26.3456 13.1993 26.9084 12.6923 27.4054 12.1282C28.4816 10.9044 29.145 9.23869 29.2004 7.61372C29.2169 7.12298 29.1573 6.62816 29.1224 6.14148L29.3504 6.55078C29.3627 6.69535 29.4181 6.81346 29.451 6.95193C29.4674 7.01709 29.4736 7.12501 29.5065 7.18203C29.488 7.37548 29.5106 7.56282 29.5023 7.75626L29.3956 9.02488C29.1553 11.0408 28.2516 13.0038 26.6619 14.3193C26.36 14.5677 26.0129 14.8019 25.6432 14.9383C25.2633 14.7387 25.0969 14.4618 24.8628 14.1197Z" fill="#F3F3F1"/>
<path d="M12.5683 7.18611L12.8785 6.51413L12.9113 6.52431C12.6608 8.43029 13.3344 10.4808 14.5071 11.9897C15.1705 12.8429 16.0475 13.6106 17.0559 14.0342L17.3044 14.1197C17.1976 14.9363 16.9655 15.48 16.2939 15.9911C16.2275 16.0446 16.1559 16.0917 16.0803 16.1316C14.8481 15.6429 13.9505 14.6227 13.3098 13.4946C12.2767 11.6761 11.8598 9.51767 12.4348 7.48748C12.4677 7.46712 12.5375 7.23905 12.5683 7.18611Z" fill="#F3F3F1"/>
<path d="M12.5683 7.18611C12.6217 7.14538 12.6402 7.14131 12.6669 7.07818C12.6887 7.02841 12.7193 6.9829 12.7573 6.94379C12.6443 7.32661 12.554 7.70536 12.517 8.10448C12.3897 9.47694 12.7799 11.0143 13.4453 12.2158C13.9978 13.2136 14.7105 14.0871 15.6388 14.7672C15.8462 14.9179 16.0927 15.0971 16.3432 15.1684C16.4049 15.1847 16.4582 15.1827 16.5116 15.148C16.8403 14.9424 16.9861 14.3865 17.0559 14.0342L17.3044 14.1197C17.1976 14.9363 16.9655 15.48 16.2939 15.9911C16.2275 16.0446 16.1559 16.0917 16.0803 16.1316C14.8481 15.6429 13.9505 14.6227 13.3098 13.4946C12.2767 11.6761 11.8598 9.51767 12.4348 7.48748C12.4677 7.46712 12.5375 7.23905 12.5683 7.18611Z" fill="#E3CB84"/>
<path d="M33.55 31.4425L34.7104 32.0534C32.9359 35.1017 30.5309 37.7856 27.7295 39.942C27.3044 40.2678 26.8669 40.6486 26.411 40.9255C26.3021 40.8869 26.107 40.9479 25.9899 40.9663L25.2033 41.064C24.733 41.1027 24.2052 41.1597 23.7349 41.1088C24.2442 40.8746 24.7022 40.5264 25.1602 40.2088C26.3894 39.3571 27.5708 38.4394 28.6989 37.4598C28.9741 37.2704 29.237 36.9935 29.4814 36.7654C31.0649 35.2911 32.3999 33.5419 33.4514 31.6584C33.4789 31.5841 33.5119 31.512 33.55 31.4425Z" fill="#7A2D02"/>
<path d="M7.40922 26.8832C7.77685 27.8301 8.17735 28.7444 8.71134 29.6139C8.25539 29.7605 7.81998 29.9601 7.38252 30.1535L5.27942 31.1391L4.6222 31.4873C4.49281 31.5586 4.35315 31.6543 4.21349 31.7011C3.79041 31.1249 3.39197 30.5384 3.05309 29.9092C2.78609 29.4103 2.56634 28.891 2.34863 28.3697L2.92165 28.1559L3.0038 28.1926C3.25847 28.162 3.50904 28.0765 3.75549 28.0093L5.20754 27.5878L6.22007 27.2701C6.36999 27.2192 6.53019 27.1826 6.6719 27.1113L7.40922 26.8832Z" fill="#FDAD02"/>
<path d="M27.1484 37.1991C27.3867 37.2521 27.627 37.2154 27.8673 37.1828L28.5142 37.0932C28.6395 37.0708 28.7586 37.0219 28.8819 36.9914L29.2865 36.8753C29.0996 37.0505 28.8305 37.2378 28.7032 37.4577C27.575 38.4373 26.3937 39.355 25.1645 40.2067C24.7065 40.5244 24.2464 40.8746 23.7391 41.1068C24.2094 41.1577 24.7373 41.1007 25.2076 41.062L25.9942 40.9642C26.1092 40.9459 26.3064 40.8868 26.4152 40.9235C24.8892 41.9966 23.2688 42.9455 21.6032 43.7906C21.4964 43.8456 21.1267 44.0757 21.0219 44.0553L21.0096 44.0513V42.5057L21.0076 41.4672C21.0076 41.2615 20.9891 41.0416 21.026 40.84L21.0609 40.8461C23.2539 39.922 25.3035 38.6941 27.1484 37.1991Z" fill="#F38802"/>
<path d="M21.0239 40.84L21.0588 40.8461C21.4038 41.1068 22.3712 41.1516 22.8004 41.1495L23.4145 41.1353C23.4946 41.1333 23.5726 41.1129 23.6425 41.1536L22.6772 41.681L21.6256 42.2166C21.4244 42.3163 21.219 42.4365 21.0054 42.5057L21.0033 41.4672C21.0054 41.2615 20.9869 41.0416 21.0239 40.84Z" fill="#FDE421"/>
<path d="M29.7466 6.11501C29.7815 6.07428 29.8082 6.03966 29.8554 6.01523C30.0834 6.11908 30.3566 6.59965 30.5661 6.60779L30.6071 6.58539L30.677 6.6587L30.907 6.93564C33.2976 7.2533 35.6472 7.69925 37.9782 8.31217L40.2046 8.98619C40.5558 9.10633 40.9173 9.22036 41.2582 9.36698L41.3568 11.8187C41.4094 15.694 40.8911 19.5562 39.8185 23.283L39.0976 25.5108L38.5328 27.0624L37.929 26.8568L38.3911 25.692L38.845 24.3684C40.0136 20.7112 40.6194 16.8931 40.7139 13.0629L40.7201 10.9512C40.7078 10.5643 40.6934 10.151 40.6297 9.76813L40.6092 9.76202C40.297 9.6826 39.991 9.55024 39.685 9.44843L38.0707 8.95972C36.1812 8.42417 34.2424 8.04745 32.3036 7.73386C31.71 7.63816 31.1021 7.49969 30.5044 7.44471C30.4399 7.28373 30.3672 7.12606 30.2867 6.97229C30.2477 6.89898 30.1615 6.78495 30.145 6.70757L29.7466 6.11501Z" fill="url(#paint19_linear_304_4445)"/>
<path d="M11.7348 6.18016C11.8478 6.13944 11.9012 6.04373 11.9772 5.95413C12.0491 6.00911 12.1415 6.06817 12.1928 6.14147L12.1682 6.16591L12.1559 6.19645L12.1189 6.227V6.26365L12.0696 6.3003V6.33696L12.0203 6.37361V6.41026L11.9957 6.4347L11.9895 6.47746L12.0224 6.48561L11.9751 6.57928C11.9217 6.67905 11.5397 7.3999 11.5027 7.4223C11.4268 7.4671 10.6299 7.53837 10.4902 7.56077L7.70731 8.05967C6.16207 8.3647 4.63455 8.75216 3.13142 9.22036L1.45551 9.78034C1.30558 10.7455 1.32201 11.7739 1.32612 12.7472C1.34666 17.557 2.2873 22.4319 4.13779 26.8853L3.58326 27.1011C2.17434 23.7371 1.30147 20.1634 0.903035 16.5449C0.749 15.1399 0.648363 13.7247 0.660686 12.3115L0.779807 9.705C0.785968 9.63169 0.783915 9.42602 0.814722 9.36697C0.814722 9.36697 0.872228 9.34457 0.874282 9.34253L1.66089 9.06763C3.5272 8.42445 5.43638 7.91074 7.37459 7.53023L10.1246 7.04966L10.864 6.9397C10.9318 6.92952 11.0714 6.92748 11.129 6.90305C11.1536 6.89083 11.2193 6.79716 11.2399 6.77272C11.4001 6.58335 11.552 6.35936 11.7348 6.18016Z" fill="#C5A76E"/>
<path d="M10.1738 23.896C10.2355 23.8186 10.2478 23.6985 10.2745 23.6048C10.3977 23.1609 10.6257 22.7801 10.8804 22.3993L10.8845 22.4217C10.9255 22.7455 10.8639 23.1079 10.8557 23.4358L10.8804 24.8367C10.9974 26.6653 11.4328 28.5082 12.1927 30.182C12.622 31.1289 13.1662 32.029 13.7557 32.8883L14.8689 34.4766L15.752 35.733C15.8855 35.9325 16.0457 36.1443 16.1361 36.3663L16.1073 36.3541C15.9656 36.2767 15.8259 36.1525 15.6945 36.0527L14.7805 35.3176C14.0391 34.6721 13.384 33.9716 12.737 33.2365L11.6567 31.9719C10.6183 30.6498 9.72855 29.2194 9.00318 27.7059C8.70948 27.0909 8.424 26.4597 8.24121 25.8019C8.72591 25.1137 9.02166 24.2951 9.5577 23.6374L9.55976 23.6638C9.5803 23.8776 9.56592 24.0955 9.57003 24.3114L9.62753 25.1768C9.74282 26.3161 9.97051 27.4415 10.3073 28.5367L10.8393 30.0191C10.8619 29.9132 10.7715 29.7076 10.7428 29.5996L10.5271 28.7627L10.2683 27.49C10.1163 26.5554 10.0896 25.6207 10.1184 24.6759L10.1513 24.0792C10.1554 24.0263 10.1492 23.9408 10.1738 23.896Z" fill="#545557"/>
<path d="M32.3118 23.5233C32.4761 23.7107 32.6897 23.9591 32.778 24.1933C33.0368 24.5354 33.2545 24.9365 33.4681 25.3091L33.772 25.8386C33.8172 25.918 33.8583 26.0096 33.9404 26.0585L33.9836 26.0341C34.0555 26.0015 34.1089 26.0076 34.1787 26.032L33.8275 26.983C33.006 28.9317 31.864 30.7664 30.4962 32.3812C30.1943 32.7376 29.8801 33.1387 29.533 33.4482C29.4097 33.5908 29.2824 33.7476 29.1407 33.8738C28.9066 34.1548 28.6252 34.4134 28.3643 34.668C27.523 35.4872 26.6209 36.2427 25.6656 36.9283C25.489 37.0545 25.2857 37.2296 25.0926 37.3233C24.9756 37.3526 24.8659 37.4053 24.7702 37.4781L24.3697 37.7346L24.1438 37.8752L24.1191 37.8996C24.057 37.9434 23.991 37.9816 23.922 38.0136C23.9028 38.0178 23.8851 38.027 23.8706 38.0401L23.7022 38.1582L23.6632 38.1154C23.6118 38.0584 23.5625 38.0177 23.5666 37.9383C23.7885 37.7917 23.9897 37.5656 24.191 37.3905C24.2896 37.305 24.3758 37.2663 24.4662 37.1604L24.495 37.1258C24.7784 36.8427 25.1132 36.6004 25.411 36.3337C26.101 35.7126 26.8035 35.0019 27.3621 34.2607C27.7236 33.9431 28.044 33.493 28.3397 33.1102L29.5022 31.585L30.4716 30.1006C30.6954 29.6404 30.9172 29.1903 31.1 28.7118C31.4048 27.904 31.6123 27.0633 31.7182 26.2072C31.7716 26.1216 31.7511 26.0157 31.8004 25.9323C31.8271 25.8854 31.8312 25.8813 31.8846 25.8671L31.9031 25.9506C31.7696 27.2497 31.3773 28.4247 30.8782 29.622L30.9049 29.6159C31.632 28.3066 31.9873 26.7936 32.1988 25.3254L32.3118 23.5233Z" fill="url(#paint20_linear_304_4445)"/>
<path d="M29.1386 33.8738L29.116 33.8494V33.8087C29.0928 33.7942 29.0708 33.7779 29.0503 33.7598C29.1283 33.6173 29.2926 33.4707 29.4179 33.3627L29.4138 33.3912C29.3933 33.4584 29.3378 33.5155 29.2926 33.5684L29.3276 33.5969L29.3584 33.5623C29.4159 33.4992 29.4426 33.4707 29.5288 33.4462C29.4077 33.5908 29.2803 33.7476 29.1386 33.8738Z" fill="#B0AEB1"/>
<path d="M32.3119 23.5233C32.4762 23.7107 32.6898 23.9591 32.7781 24.1933L32.7761 24.234C32.774 24.3663 32.8151 24.513 32.8356 24.6433L32.9054 25.2582C32.9671 26.0992 32.8089 26.9565 32.5255 27.7486C32.4515 27.9543 32.3797 28.1803 32.277 28.3717C32.431 27.5532 32.4926 26.5981 32.3406 25.7775C32.316 25.6472 32.2893 25.4659 32.2174 25.3539L32.1948 25.3234L32.3119 23.5233Z" fill="#545557"/>
<path d="M33.9405 26.0585L33.9837 26.0341C34.0556 26.0015 34.109 26.0076 34.1788 26.032L33.8276 26.983C33.0061 28.9317 31.8641 30.7664 30.4963 32.3812C30.1944 32.7376 29.8802 33.1387 29.5331 33.4482C29.4468 33.4727 29.4201 33.5012 29.3626 33.5643L29.3318 33.5989L29.2969 33.5704C29.3421 33.5175 29.3975 33.4605 29.4181 33.3933L29.4222 33.3648C29.5372 33.1856 29.72 33.0125 29.8617 32.8496L30.6216 31.9129C31.9442 30.125 33.2032 28.162 33.9405 26.0585Z" fill="#F3F3F1"/>
<path d="M1.99942 10.322L2.35678 10.5399L3.20501 11.1365C3.26046 11.3177 3.22965 11.5723 3.22965 11.7657V13.0975L3.31386 15.1175L3.70203 18.5568L3.70819 18.5751C3.71024 18.8683 3.80677 19.2003 3.87044 19.4894C4.13744 20.7173 4.40649 21.9798 4.80903 23.171L4.8727 23.3828L4.88502 23.4215C4.89117 23.4417 4.89872 23.4614 4.90761 23.4806L5.91603 26.2581L5.95711 26.2397L6.24875 26.144L6.47467 26.0687C6.49718 26.06 6.5206 26.0539 6.5445 26.0504C6.58763 26.0422 6.56709 26.0483 6.61022 26.0198C6.66773 26.0198 6.65746 26.0219 6.71086 25.9954C6.73345 25.9832 6.76837 25.9832 6.79301 25.9771C6.83614 25.9689 6.81971 25.973 6.86079 25.9445H6.91008L6.90392 25.8691L6.87311 25.8447L6.87927 25.808C6.85873 25.7592 6.8382 25.7103 6.82177 25.6574C6.81448 25.6334 6.80485 25.6102 6.79301 25.5881C6.76837 25.5352 6.77247 25.5596 6.77247 25.5087L6.74783 25.4721C6.72934 25.4374 6.72934 25.4069 6.72318 25.3723C6.70264 25.2725 6.6246 25.1625 6.62255 25.0628L6.5979 25.0261C6.58147 24.9874 6.5712 24.9202 6.55477 24.8775L6.51986 24.7655C6.49521 24.686 6.47262 24.5924 6.44592 24.517L6.42127 24.4804C6.37198 24.3684 6.36171 24.2279 6.31242 24.1118C6.29908 24.0803 6.28876 24.0475 6.28161 24.0141L6.31858 24.0019L6.3268 24.0039L6.98402 25.973L4.72277 26.6959C4.00819 24.9587 3.42467 23.1714 2.97703 21.3486C2.86202 20.8802 2.71209 20.3793 2.6628 19.8987C2.60119 19.6849 2.57038 19.4548 2.53136 19.2349L2.34241 18.0864C2.16783 16.9053 2.02612 15.7223 1.96451 14.529L1.95424 11.442C1.96451 11.0856 1.92754 10.6682 1.99942 10.322Z" fill="url(#paint21_linear_304_4445)"/>
<path d="M33.3943 29.6363L34.5054 26.9178L36.2429 27.374L38.7794 28.1233L39.3873 28.3229C39.488 28.3575 39.5947 28.4084 39.7036 28.4125C39.2107 29.5365 38.5966 30.5852 37.9127 31.6034C37.6313 32.0249 37.3356 32.4688 37.0069 32.8557C37.0008 32.8781 36.9741 32.8923 36.9577 32.9066C36.7461 32.6724 36.5448 32.422 36.3169 32.202C35.3947 31.3081 34.2631 30.7726 33.0903 30.292L33.3943 29.6363Z" fill="#FDAD02"/>
<path d="M37.0045 32.8557C36.9983 32.8781 36.9716 32.8923 36.9552 32.9066C36.7437 32.6724 36.5424 32.4219 36.3144 32.202C35.3923 31.3081 34.2606 30.7725 33.0879 30.292L33.3939 29.6363L33.4206 29.6485C33.7698 29.8094 34.1518 29.9112 34.505 30.068C35.4972 30.5107 36.4483 31.0388 37.3475 31.6461L37.0066 32.7376C36.9901 32.7987 36.9778 32.7987 37.0045 32.8557Z" fill="#BB4D02"/>
<path d="M10.8802 22.3993L11.2643 21.8413C11.3649 22.0857 11.3341 22.4848 11.3464 22.7495L11.4306 23.9571C11.6422 25.8366 12.1823 27.6265 13.4228 29.0946C13.8172 29.563 14.2711 29.9682 14.6859 30.4162C14.9652 30.7196 15.1624 31.1045 15.4458 31.3957C15.4582 31.7663 15.4725 32.1369 15.5444 32.5014C15.6122 32.8394 15.7293 33.1489 15.8607 33.4686C15.5116 33.2568 15.1829 32.9901 14.8687 32.7315C14.3369 32.2928 13.8322 31.8229 13.3571 31.3244C13.084 31.0352 12.8519 30.7074 12.552 30.4447C13.4742 32.1043 14.6469 33.6356 16.2817 34.6558C16.5546 34.8246 16.8379 34.9763 17.13 35.1099C17.3045 35.1893 17.5715 35.2585 17.7173 35.3705C17.7892 35.4255 17.8488 35.5131 17.9084 35.5823L18.2883 36.0242L19.2248 36.9955C19.4749 37.2363 19.7375 37.464 20.0115 37.6776C20.1511 37.7876 20.3339 37.8853 20.4551 38.0136L17.3579 36.8142C17.8221 37.3478 18.3499 37.8405 18.8798 38.3089C19.194 38.5858 19.498 38.8607 19.8513 39.0888L19.8266 39.1071L17.5982 37.8833V37.8752C17.5989 37.854 17.5975 37.8329 17.5941 37.812C17.5633 37.7061 17.2984 37.5005 17.208 37.415L16.1339 36.3663C16.0435 36.1443 15.8833 35.9325 15.7498 35.733L14.8667 34.4766L13.7535 32.8883C13.1641 32.031 12.6198 31.1289 12.1905 30.182C11.4306 28.5061 10.9952 26.6653 10.8782 24.8367L10.8535 23.4358C10.8638 23.1079 10.9233 22.7455 10.8823 22.4217L10.8802 22.3993Z" fill="#30302B"/>
<path d="M6.74785 32.4301C6.77044 32.424 6.79098 32.4097 6.81562 32.4097C6.85259 32.4118 7.03949 32.7294 7.06619 32.7701C7.91236 34.0836 8.88586 35.3379 9.93125 36.5006C11.1512 37.8629 12.4821 39.1641 13.9136 40.3065C15.265 41.3857 16.7273 42.3428 18.2286 43.2041C19.1303 43.7214 20.0668 44.2325 21.028 44.6316C22.0467 44.2141 23.012 43.6521 23.9629 43.1044C26.3638 41.7176 28.6517 40.0642 30.6254 38.1195C31.7797 36.9812 32.8107 35.7635 33.7842 34.4745L35.2609 32.3934L35.7189 32.7783C35.6737 32.9188 35.5382 33.0776 35.4539 33.2039L34.4825 34.5234L33.4823 35.8775C31.1697 38.7569 28.3498 41.1108 25.2219 43.0738C23.8869 43.9107 22.478 44.7151 21.028 45.3402C20.1469 44.9696 19.3131 44.5237 18.4772 44.0635C16.0249 42.7195 13.702 41.0782 11.6565 39.1784C10.4776 38.0849 9.37878 36.8794 8.37241 35.6291C7.64331 34.723 6.91215 33.772 6.35352 32.7498C6.43772 32.6215 6.61846 32.5156 6.74785 32.4301Z" fill="#C5A76E"/>
<path d="M11.0363 9.15112C11.0054 9.35475 10.9746 9.56856 10.9746 9.77627L8.77706 10.4992C7.79124 10.8311 6.83621 11.0876 5.90789 11.5702C5.74769 11.6537 5.56901 11.7311 5.42935 11.8451C5.38836 11.8765 5.34433 11.9038 5.29791 11.9266L5.31023 11.9592L5.38417 11.9388C5.42114 11.9307 5.45195 11.9409 5.48686 11.947L4.63864 12.1954L5.14182 18.8683L6.32482 23.9957L6.28785 24.008C6.29499 24.0414 6.30531 24.0742 6.31865 24.1057C6.36795 24.2218 6.37821 24.3623 6.42751 24.4743L6.45215 24.5109C6.47885 24.5863 6.5035 24.6799 6.52609 24.7594L6.561 24.8714C6.57743 24.9162 6.58565 24.9813 6.60413 25.02L6.62878 25.0567C6.62878 25.1564 6.70888 25.2684 6.72942 25.3662C6.73763 25.4008 6.73763 25.4313 6.75406 25.466L6.77871 25.5026C6.77871 25.5535 6.7746 25.5311 6.79924 25.582C6.82389 25.6329 6.81773 25.6126 6.828 25.6513C6.84443 25.7022 6.86497 25.751 6.88551 25.8019L6.87934 25.8386L6.91015 25.863L6.91631 25.9384H6.86702C6.82595 25.9669 6.84032 25.9608 6.79924 25.971C6.77109 25.9729 6.74339 25.9791 6.71709 25.9893C6.66575 26.0158 6.67396 26.0137 6.61646 26.0137C6.57333 26.0422 6.59181 26.0361 6.55073 26.0443C6.52678 26.0475 6.50333 26.0536 6.4809 26.0626L6.25499 26.1379L5.96335 26.2336L5.92227 26.252L4.90769 23.4785C4.89756 23.4599 4.88996 23.4401 4.88509 23.4195L4.87277 23.3808L4.8091 23.169C4.40861 21.9757 4.13751 20.7153 3.87051 19.4874C3.80684 19.1982 3.71237 18.8683 3.70826 18.5731L3.7021 18.5548L3.31393 15.1175L3.22972 13.0975V11.7657C3.22972 11.5723 3.26053 11.3198 3.20508 11.1365C3.69388 10.9268 4.25458 10.8046 4.76597 10.6519L7.96581 9.81496L11.0363 9.15112Z" fill="url(#paint22_linear_304_4445)"/>
<path d="M13.653 8.74183L13.5093 7.83364C13.9467 7.66869 14.3842 7.52208 14.8114 7.32863C17.1671 6.25347 19.3031 4.56945 21.0447 2.67569C21.3035 3.02186 21.6157 3.31305 21.934 3.60628L22.9814 4.55519L23.996 5.37582L24.4992 6.81549C24.645 7.44877 24.7395 8.14926 24.7066 8.79884C23.6912 8.14482 22.739 7.39908 21.8621 6.57113C21.5623 6.28808 21.2542 6.003 20.9872 5.68738C20.4142 6.26365 19.835 6.84399 19.2168 7.37547C17.9948 8.4262 16.6331 9.27737 15.1421 9.89437C14.9531 9.65001 14.8237 9.36493 14.6882 9.09003C14.5875 8.88233 14.4766 8.6787 14.3904 8.46489L14.3801 8.44045C14.3185 8.43231 14.2363 8.48322 14.1788 8.50765L13.653 8.74183Z" fill="url(#paint23_linear_304_4445)"/>
<path d="M20.9747 3.3212C21.3957 3.94227 21.825 4.58574 22.3159 5.15387C22.4617 5.32288 22.6178 5.49393 22.78 5.65072C22.893 5.76068 23.0141 5.85435 23.1127 5.97653L20.9932 4.49207L19.9786 5.44098C19.3892 5.94599 18.7525 6.3003 18.0624 6.64647C17.9597 6.69738 17.8385 6.79105 17.7256 6.80938C17.7564 6.75847 17.8365 6.71774 17.8858 6.68313L18.1897 6.44692C18.6026 6.11296 19.0092 5.75661 19.3768 5.37582C19.9807 4.75272 20.4859 4.02983 20.9747 3.3212Z" fill="#F3F3F1"/>
<path d="M8.66017 31.4343L9.5125 31.0088L11.4164 33.5093C12.2359 34.4949 13.1293 35.4173 14.0658 36.293C14.6162 36.8081 15.1687 37.3213 15.7602 37.7896C17.2061 38.9381 18.8738 39.9481 20.5784 40.671L21.0241 40.84C20.9871 41.0416 21.0056 41.2636 21.0056 41.4672L21.0077 42.5057V44.0513C20.8783 44.0146 20.7468 43.9352 20.6257 43.8761L20.026 43.5748C18.6191 42.8458 17.2595 42.0557 15.9574 41.1536H15.9532C14.037 39.8158 12.3077 38.2621 10.7304 36.5434C9.85754 35.5925 9.03602 34.615 8.29049 33.5663C7.95366 33.0939 7.60246 32.6317 7.3252 32.1206L8.66017 31.4343Z" fill="#7A2D02"/>
<path d="M20.5763 40.671L21.022 40.84C20.985 41.0416 21.0035 41.2636 21.0035 41.4672L21.0056 42.5057L18.0234 40.8339C18.1877 40.7015 20.1553 40.7545 20.5763 40.671Z" fill="#F38802"/>
<path d="M8.66016 31.4343L9.51249 31.0088L11.4164 33.5093C12.2358 34.4949 13.1292 35.4173 14.0658 36.293C14.6162 36.8081 15.1687 37.3213 15.7602 37.7896C17.2061 38.9381 18.8738 39.9481 20.5784 40.671C20.1574 40.7565 18.1898 40.7036 18.0255 40.8359L18.0029 40.8278C17.7647 40.6323 17.4731 40.4735 17.2184 40.2984L15.6801 39.1662C13.8337 37.7021 12.1003 36.0282 10.6277 34.1956C9.91093 33.3077 9.27835 32.3873 8.66016 31.4343Z" fill="#BB4D02"/>
<path d="M21.8988 26.1542C22.3507 25.7348 22.7902 25.2888 23.2769 24.9101C23.4412 24.7838 23.6302 24.6128 23.8499 24.6148C24.0081 24.6168 24.1703 24.6698 24.312 24.737C24.501 25.0282 24.5996 25.3051 24.7064 25.6329C24.8974 26.2194 24.998 26.7325 24.9118 27.3557L24.9323 27.3271C25.0802 27.1072 25.0247 26.7285 25.0576 26.4739C25.2876 26.8445 25.378 27.205 25.2814 27.6346C25.2486 27.7772 25.0144 28.4003 24.9076 28.4654L24.8645 28.4858C24.7577 28.5408 24.6961 28.6548 24.6016 28.7261C24.3429 28.9195 23.9958 29.1069 23.6959 29.229C23.4207 29.341 23.1188 29.4245 22.8292 29.4917C22.6382 29.5345 22.3671 29.5467 22.1987 29.6343L22.1063 29.6465C22.1535 29.7055 22.4862 29.732 22.5766 29.7422C22.9524 29.787 23.3509 29.8074 23.7267 29.7524C23.9581 29.7184 24.1848 29.6583 24.4024 29.5732C24.9693 29.3472 25.2897 28.944 25.5217 28.4023C25.6676 27.8342 25.721 27.2579 25.456 26.7122C25.3513 26.4963 25.2055 26.3008 25.0925 26.087C24.9713 25.8549 24.8974 25.5963 24.8378 25.3418C25.1849 25.6329 25.4622 25.971 25.7641 26.3049C25.9346 26.4923 26.1502 26.6898 26.2796 26.9097C26.3474 27.0245 26.3901 27.1522 26.4049 27.2844C26.4245 27.4999 26.4141 27.7171 26.3741 27.9299C26.37 27.9584 26.3617 28.0276 26.3453 28.046C26.2303 28.1804 26.1666 28.4064 26.0865 28.5673C26.066 28.61 26.0352 28.6915 26.0023 28.722C25.8832 29.0336 25.6326 29.3024 25.4683 29.5935C25.417 29.6852 25.3492 29.787 25.3431 29.8929C25.2876 29.9866 25.2219 30.0069 25.1254 30.0415L24.9857 30.2146C25.0247 30.2798 25.0535 30.2533 25.0966 30.2961C25.1479 30.349 25.0514 30.909 25.0329 30.9864C24.9569 31.2898 24.7618 31.6197 24.4702 31.7663L24.3203 31.8192L24.2217 31.8518L23.9793 31.6115C23.0387 31.2205 22.1268 31.0027 21.1019 30.9986C20.7138 30.9966 20.3379 31.0067 19.958 31.0963L19.9888 31.1289L20.0278 31.1187C20.0711 31.1103 20.1155 31.1089 20.1592 31.1147L20.1654 31.188C20.0918 31.1914 20.0195 31.208 19.9518 31.2368C19.9107 31.2572 19.8347 31.2715 19.7896 31.2857L19.7526 31.2918C19.6272 31.32 19.5053 31.3617 19.3891 31.416C19.361 31.4298 19.3314 31.4401 19.3007 31.4466C19.2515 31.4568 19.2638 31.4649 19.2124 31.4425C19.0974 31.4669 19.0009 31.5117 18.8961 31.5606C18.7606 31.636 18.6025 31.6869 18.4607 31.7459C18.1958 31.8579 17.9329 31.9781 17.6556 32.0595C17.5488 32.09 17.477 32.0269 17.3825 31.974C17.058 31.7907 16.8136 31.4181 16.7212 31.0658L16.7109 31.0251C16.6906 30.9525 16.6775 30.8782 16.6719 30.8031C16.6616 30.6239 16.6534 30.1169 16.7725 29.9825C16.8752 30.0497 16.9964 30.0843 17.1134 30.1148L17.0416 29.9438C16.943 29.6994 16.7396 29.506 16.6226 29.2637C16.6657 29.2698 16.6821 29.2616 16.7088 29.2962C16.8526 29.4795 17.0498 29.5345 17.2675 29.5895L17.3928 29.6221C17.4811 29.6445 17.5879 29.6648 17.6782 29.6445C17.5324 29.5752 17.3804 29.5223 17.2408 29.4388C16.7499 29.1415 16.524 28.7159 16.3967 28.1742C16.2673 27.6244 16.3248 27.1215 16.6226 26.6409H16.6411L16.637 26.8608L16.6554 26.814C16.6883 26.7305 16.7047 26.6735 16.6986 26.5859C16.6945 26.5024 16.7191 26.4434 16.752 26.368C16.7622 26.4352 16.7684 26.4862 16.752 26.5554L16.7643 26.5819C16.791 26.6491 16.7828 26.7081 16.7766 26.7794L16.8464 26.8629C16.9532 27.1846 17.0416 27.49 17.2305 27.7812C17.2757 27.8505 17.3435 27.9523 17.4174 27.9951L17.4359 28.0032L17.4564 27.9889L17.3003 27.6468C16.9943 26.8242 17.019 26.0667 17.3845 25.2746C17.4913 25.0404 17.5879 24.7777 17.8528 24.6901C18.0645 24.6194 18.2956 24.6325 18.4977 24.7268C18.8859 24.8775 19.2145 25.2359 19.5123 25.5148L20.301 26.2499C20.5084 26.4434 20.6953 26.5778 20.989 26.6022C21.3751 26.6267 21.6318 26.3904 21.8988 26.1542Z" fill="#707173"/>
<path d="M24.5936 28.0398C24.5627 28.1111 24.2136 28.2536 24.1294 28.2964C24.3142 28.107 24.4662 27.9441 24.5997 27.714C24.6031 27.8017 24.6004 27.8894 24.5915 27.9767C24.5853 28.0134 24.5853 27.9991 24.5936 28.0398Z" fill="#B0AEB1"/>
<path d="M18.6807 28.1946C18.9477 28.3575 19.0195 28.555 19.1284 28.836L19.0503 28.8177C18.923 28.6854 18.7217 28.3697 18.6807 28.1946Z" fill="#545557"/>
<path d="M17.3786 25.7225C17.4388 25.4948 17.5474 25.2823 17.6969 25.0994C17.6655 25.2881 17.6216 25.4745 17.5655 25.6574C17.5408 25.7388 17.4772 25.8712 17.4813 25.9526C17.454 26.0067 17.4202 26.0573 17.3806 26.1033L17.3683 26.0993C17.3522 26.0352 17.3558 25.9678 17.3786 25.9058C17.3971 25.8508 17.4053 25.8284 17.3909 25.7734L17.3786 25.7225Z" fill="#B0AEB1"/>
<path d="M17.3291 27.1968C17.3681 27.2274 17.401 27.2416 17.4215 27.2884L17.5016 27.4534L17.5078 27.4737C17.594 27.7242 17.8713 28.0561 17.746 28.3147C17.7234 28.3616 17.7378 28.3432 17.6967 28.3738C17.6495 28.3208 17.631 28.2618 17.6023 28.1966L17.6043 28.1865C17.6105 28.0541 17.4934 27.8464 17.4523 27.714C17.3987 27.5448 17.3575 27.3719 17.3291 27.1968Z" fill="#B0AEB1"/>
<path d="M26.0108 28.724C25.8916 29.0356 25.6411 29.3044 25.4768 29.5956C25.4254 29.6872 25.3577 29.789 25.3515 29.8949C25.296 29.9886 25.2303 30.0089 25.1338 30.0436C25.2467 29.7625 25.4008 29.4184 25.5836 29.1761C25.6883 29.0376 25.8341 28.9134 25.9245 28.7688C25.943 28.7383 25.9738 28.7362 26.0108 28.724Z" fill="url(#paint24_linear_304_4445)"/>
<path d="M17.3786 25.7225L17.391 25.7714C17.4033 25.8284 17.3971 25.8508 17.3786 25.9038C17.3558 25.9658 17.3522 26.0332 17.3684 26.0972L17.3807 26.1013C17.4203 26.0553 17.4541 26.0047 17.4813 25.9506L17.506 26.0768C17.4341 26.3171 17.4464 26.5676 17.4669 26.814L17.4752 26.9565C17.4772 26.9952 17.4772 26.9749 17.469 27.0074C17.4402 27.1174 17.4936 27.3312 17.4998 27.4534L17.4197 27.2884C17.3992 27.2416 17.3684 27.2274 17.3273 27.1968C17.2492 26.8771 17.1938 26.5126 17.2554 26.1868L17.2862 26.03C17.3114 25.926 17.3423 25.8233 17.3786 25.7225Z" fill="url(#paint25_linear_304_4445)"/>
<path d="M23.731 29.7503C23.9623 29.7163 24.1891 29.6562 24.4067 29.5711C24.9735 29.3451 25.2939 28.9419 25.526 28.4003C25.5116 28.5286 25.4952 28.6202 25.4295 28.7342C25.4539 28.7833 25.4814 28.8309 25.5116 28.8768C25.5281 28.8423 25.5425 28.807 25.5547 28.7709C25.5712 28.8299 25.5342 28.8869 25.5054 28.9399C25.3925 29.1415 25.1871 29.3309 24.9899 29.451C24.7229 29.6159 24.1232 29.846 23.8028 29.7707L23.731 29.7503Z" fill="#545557"/>
<path d="M17.0747 28.5347C17.2411 28.5856 17.3766 28.7179 17.5204 28.8177C17.7175 28.9541 17.9168 29.0722 18.1427 29.1598C18.5863 29.3349 19.0772 29.4286 19.5434 29.5284C19.7056 29.563 19.872 29.5854 20.0281 29.6343V29.6567L19.9295 29.6709L19.8761 29.6343C19.7508 29.6526 19.6132 29.6343 19.4879 29.6241C19.1918 29.6024 18.8982 29.554 18.611 29.4795C18.0852 29.341 17.3602 29.0132 17.0747 28.5347Z" fill="#545557"/>
<path d="M19.958 31.0943C19.6848 31.1371 19.4384 31.2165 19.1816 31.3183C19.3192 31.2022 19.4856 31.1269 19.6479 31.0515C20.2866 30.7603 20.9828 30.685 21.6791 30.7379C22.3897 30.7909 23.0654 31.0251 23.6733 31.3936C23.7637 31.4486 23.891 31.5097 23.9629 31.5891L23.9793 31.6115C23.0387 31.2206 22.1268 31.0027 21.102 30.9986C20.7117 30.9945 20.3379 31.0047 19.958 31.0943Z" fill="#F3F3F1"/>
<path d="M17.4588 27.9849L17.3027 27.6428C16.9967 26.8201 17.0213 26.0626 17.3869 25.2705C17.4937 25.0363 17.5902 24.7736 17.8552 24.6861C18.0669 24.6153 18.2979 24.6285 18.5001 24.7227C18.8883 24.8734 19.2169 25.2318 19.5147 25.5108L20.3033 26.2459L20.1555 26.8242C20.0959 26.8059 19.8864 26.5228 19.8227 26.4576C19.3339 25.9526 18.7917 25.4945 18.3645 24.9345C18.2187 24.8205 18.1591 24.7533 17.962 24.7757L17.8367 24.794L17.6991 25.0994C17.5499 25.2826 17.4414 25.4949 17.3808 25.7225C17.3432 25.8228 17.313 25.9255 17.2904 26.03L17.2596 26.1868C17.198 26.5126 17.2534 26.8792 17.3315 27.1968C17.3604 27.3723 17.4009 27.5458 17.4526 27.7161C17.4937 27.8484 17.6108 28.0561 17.6046 28.1885C17.5607 28.1174 17.512 28.0494 17.4588 27.9849Z" fill="#F3F3F1"/>
<path d="M21.899 26.1542C22.3508 25.7348 22.7904 25.2888 23.2771 24.9101C23.4414 24.7838 23.6304 24.6128 23.8501 24.6148C24.0083 24.6168 24.1705 24.6698 24.3122 24.737C24.5012 25.0282 24.5998 25.3051 24.7066 25.6329C24.8976 26.2194 24.9982 26.7325 24.9119 27.3557L24.9017 27.3801C24.8134 27.6204 24.762 27.8383 24.5916 28.0419C24.5854 28.0012 24.5833 28.0154 24.5874 27.9788C24.5974 27.8916 24.6001 27.8037 24.5957 27.7161C24.7168 27.3923 24.7559 26.9952 24.7456 26.6531C24.7292 26.1461 24.5258 25.692 24.3348 25.2298C24.2753 25.0831 24.2178 24.8775 24.0986 24.7675C23.9985 24.7775 23.9035 24.8164 23.8255 24.8795C23.653 25.0119 23.503 25.2135 23.3511 25.3703C22.8931 25.8406 22.394 26.2927 21.9914 26.8099C21.9339 26.5839 21.8538 26.3884 21.899 26.1542Z" fill="#F3F3F1"/>
<path d="M17.6802 29.6424C17.5344 29.5732 17.3824 29.5202 17.2427 29.4367C16.7519 29.1394 16.526 28.7138 16.3986 28.1722C16.2692 27.6224 16.3267 27.1194 16.6245 26.6389H16.643L16.6389 26.8588C16.5301 27.3434 16.7745 28.0622 17.0332 28.4715L17.0743 28.5346C17.3577 29.0132 18.0848 29.341 18.6085 29.4775C18.8958 29.5521 19.1893 29.6005 19.4855 29.622C19.6128 29.6322 19.7484 29.6505 19.8737 29.6322L19.9271 29.6689C19.1795 29.7625 18.4175 29.8644 17.6802 29.6424Z" fill="black"/>
<path d="M23.9324 24.9732C23.9838 24.9671 23.9838 24.9752 24.0269 24.9956C24.2569 25.358 24.4972 25.8549 24.563 26.2805L24.5691 26.3273L24.5876 26.4515C24.6307 26.9525 24.4541 27.4249 24.0639 27.7507C23.9181 27.8729 23.7435 27.9665 23.5812 28.0643C23.4272 28.1579 23.2465 28.2455 23.1315 28.386L23.115 28.4064L22.9281 28.7953C22.8891 28.7159 22.885 28.5693 22.8727 28.4776C22.7967 27.9156 22.7741 27.3638 22.9035 26.8079C23.0247 26.2866 23.2691 25.8529 23.5648 25.4089C23.6655 25.2562 23.7723 25.0709 23.9324 24.9732Z" fill="black"/>
<path d="M17.5079 26.0789C17.627 25.7368 17.7667 25.2257 18.0255 24.9671C18.0809 24.9528 18.0707 24.9426 18.1282 24.9752C18.2555 25.0485 18.3643 25.2094 18.4486 25.3295C18.7607 25.7734 19.0257 26.2927 19.1469 26.8242C19.2783 27.3964 19.2454 27.936 19.1715 28.5102C19.1592 28.6059 19.1633 28.7485 19.1284 28.836C19.0195 28.555 18.9476 28.3575 18.6806 28.1946C18.2863 27.9523 17.8345 27.6631 17.6127 27.2436C17.5408 27.1092 17.5059 26.9606 17.4689 26.814C17.4483 26.5676 17.4381 26.3171 17.5079 26.0789Z" fill="black"/>
<path d="M30.9133 8.60337L30.749 8.09225L33.2773 8.50766L36.7605 9.24276C37.5677 9.44028 38.3707 9.64391 39.1594 9.9066L39.7673 10.1123C39.87 10.1469 39.9932 10.1713 40.0836 10.2283L40.1308 13.3174C40.0733 15.6795 39.7694 18.0518 39.2764 20.363C39.2559 20.5585 39.1984 20.7479 39.1532 20.9393L38.9211 21.878L38.2228 24.3175L37.3685 26.6287L36.1321 26.2377L34.8423 25.918C35.253 25.0648 35.5632 24.1627 35.8404 23.2606C36.1834 22.1468 36.4812 21.0166 36.7112 19.8743L37.198 17.052C37.1857 16.8402 37.2534 16.5714 37.2801 16.3535L37.4198 15.0401C37.5122 14.0688 37.5266 13.0954 37.5266 12.1201L35.7829 11.5784L33.2115 10.9757C32.5625 10.8372 31.9217 10.6967 31.2625 10.6112L31.1043 9.36698L30.9133 8.60337Z" fill="#F38802"/>
<path d="M30.9131 8.60338C31.0199 8.58302 31.1493 8.6156 31.2581 8.62985L32.0879 8.77036L33.3017 8.95362L36.9369 9.73556L38.6313 10.1734C38.9455 10.2589 39.2598 10.3607 39.5802 10.4238C39.6052 10.4272 39.6296 10.4347 39.652 10.4462L38.886 11.0429C38.7607 11.0775 38.5676 10.9859 38.4424 10.9472L37.5839 10.6926C36.1585 10.2874 34.6859 9.96566 33.2257 9.71316L31.1082 9.36903L30.9131 8.60338Z" fill="#F3F3F1"/>
<path d="M38.1958 19.4487C38.2574 19.4609 38.3006 19.467 38.354 19.4996C38.4248 19.5455 38.5059 19.5735 38.5901 19.5811C38.6353 19.6259 38.6251 19.6198 38.6846 19.636C38.7791 19.6605 38.9516 19.7888 39.0112 19.8661L39.0297 19.8885C39.0756 19.9498 39.1155 20.0152 39.1488 20.084C39.1775 20.141 39.1508 20.0922 39.194 20.1553C39.2227 20.2001 39.2268 20.2367 39.2371 20.2877C39.2428 20.3169 39.2571 20.3438 39.2782 20.365C39.2576 20.5605 39.2001 20.7499 39.1549 20.9413L38.9229 21.88L38.2246 24.3195L37.3702 26.6307L36.1338 26.2398C36.1626 26.2084 36.1849 26.1717 36.1995 26.1318L36.3001 25.8834C36.3248 25.8182 36.3556 25.7551 36.3761 25.69L36.4398 25.523L36.4768 25.413C36.4973 25.3479 36.5302 25.2888 36.5507 25.2257L36.5877 25.1157L36.676 24.8775L37.974 20.3426C37.9925 20.2551 38.0212 20.1736 38.0336 20.084L38.0377 20.0453C38.1219 19.9598 38.163 19.579 38.1958 19.4487Z" fill="#BB4D02"/>
<path d="M31.106 9.36697L33.2234 9.71111C34.6837 9.96361 36.1563 10.2853 37.5816 10.6906L38.4401 10.9451C38.5654 10.9838 38.7585 11.0754 38.8837 11.0408C38.816 11.3381 38.8611 11.7169 38.857 12.0264L38.7626 14.867C38.7502 15.0666 38.7585 15.3211 38.7071 15.5125C38.6866 15.5919 38.7051 15.6714 38.6927 15.7508L38.6434 16.0481C38.627 16.1295 38.666 16.211 38.6188 16.2843C38.6188 16.3556 38.6332 16.4227 38.5921 16.4838C38.5921 16.5551 38.6065 16.6223 38.5674 16.6834L38.5592 16.83L38.5223 16.8565L38.5161 16.9054C38.5131 16.9344 38.5069 16.9631 38.4976 16.9909C38.4867 17.032 38.4839 17.0749 38.4894 17.1171L38.4648 17.1538L38.4606 17.278L38.4545 17.2495C38.4449 17.2178 38.4296 17.1882 38.4093 17.1619L38.3662 17.166C38.3374 17.1008 38.2984 17.052 38.2286 17.0235C38.1731 16.999 38.1957 17.0194 38.1403 17.0031L38.093 16.9848C38.0273 16.9583 37.9616 16.9705 37.8938 16.9787C37.8445 17.0133 37.8425 17.0255 37.7788 17.0214L37.748 17.0397L37.7048 17.0438C37.6535 17.0581 37.633 17.0886 37.6124 17.1334C37.5672 17.2251 37.4584 17.2821 37.3742 17.3391C37.29 17.3961 37.1955 17.4674 37.175 17.5753L37.1688 17.6119L37.1503 17.6262L37.1544 17.5957C37.1729 17.4735 37.1791 17.3554 37.2099 17.2332C37.2263 17.166 37.2099 17.111 37.1934 17.0459C37.1811 16.8341 37.2489 16.5653 37.2756 16.3474L37.4153 15.034C37.5077 14.0627 37.5221 13.0893 37.5221 12.1139L35.7784 11.5723L33.207 10.9695C32.558 10.8311 31.9172 10.6906 31.2579 10.605L31.106 9.36697Z" fill="#FDAD02"/>
<path d="M20.2765 13.6208C20.3957 13.5801 20.5415 13.5841 20.6668 13.576C21.0837 13.5475 21.4862 13.5658 21.9011 13.6106C22.1332 13.6351 22.3776 13.6575 22.6014 13.7247C22.9465 13.7878 23.2936 13.859 23.6181 13.9996C23.7043 14.0362 23.8173 14.0749 23.8912 14.1319C23.8912 14.3783 23.8892 14.6328 23.9323 14.8752C24.0473 15.5247 24.3759 16.0521 24.8401 16.5144L25.218 16.8483L25.255 16.8768L25.7397 17.2047C25.0825 17.2474 24.4622 17.2841 23.8132 17.4002C23.6551 17.4287 23.4907 17.445 23.3408 17.502C23.1313 17.5142 22.9095 17.5122 22.7021 17.5468C22.9999 17.5997 23.31 17.6506 23.6017 17.7362C23.9529 17.838 24.302 17.9968 24.6286 18.1597L24.6388 18.1801C24.3842 18.5385 24.0905 18.9539 23.7598 19.2451C23.6716 19.3223 23.5768 19.3918 23.4764 19.4528C23.4148 19.4894 23.3018 19.5261 23.2607 19.579L23.2689 19.5912C23.4497 19.5709 23.6263 19.4813 23.7865 19.3998C24.2034 19.1901 24.5936 18.8745 24.9469 18.571C25.3186 18.2513 25.6883 17.8624 26.1586 17.6873C26.6577 17.504 27.1527 17.7199 27.6066 17.9276L27.6086 17.9255L28.7588 18.3491L28.309 17.0784C28.3782 17.1355 28.4396 17.2012 28.4918 17.2739C28.4884 17.2987 28.4912 17.3238 28.5 17.3472C28.5349 17.4389 28.6171 17.5305 28.6602 17.6201C28.7937 17.8889 28.9169 18.1862 28.995 18.4774C29.1018 18.8785 29.0073 19.3021 29.0093 19.7114C29.0114 20.0351 29.073 20.363 29.0956 20.6847C29.1531 21.5359 29.0134 22.3158 28.7711 23.1262C28.7393 23.1659 28.7162 23.2116 28.7033 23.2606C28.7403 23.3523 28.5863 24.0976 28.5637 24.2544C28.4813 24.3114 28.394 24.3611 28.3028 24.403L28.2042 24.4539C28.1488 24.4845 28.1098 24.5007 28.044 24.4967L28.0358 24.4946C27.6045 24.7858 26.9268 25.0729 26.3948 24.961L26.3702 24.9548C26.3249 24.9303 26.2774 24.9099 26.2285 24.8938C26.0518 24.8388 25.8732 24.7838 25.7089 24.6983C25.4028 24.5394 25.14 24.3032 24.875 24.0853C25.2262 24.2258 25.5754 24.4478 25.9533 24.5048L25.9964 24.5109C26.2137 24.5415 26.4343 24.5415 26.6516 24.5109L26.7851 24.4926C26.972 24.4641 27.4217 24.3765 27.5347 24.2258C27.4525 24.2381 27.3683 24.2544 27.2862 24.2584C26.9987 24.3338 26.5407 24.2747 26.2552 24.1994C25.6945 24.0467 25.331 23.8247 24.8832 23.4663C25.1892 23.6129 25.4583 23.7249 25.7951 23.786L25.865 23.784C26.3188 23.7758 26.8713 23.5763 27.2554 23.338L27.2287 23.3115L27.239 23.2912C27.2492 23.2444 27.241 23.2647 27.2739 23.222C27.3211 23.1609 27.4443 23.171 27.5203 23.1609L27.5635 23.1548C27.6613 23.141 27.7568 23.1136 27.8469 23.0733L27.8756 23.059L27.9763 23.0102C28.0831 22.943 28.1529 22.7414 28.2042 22.6274C28.4199 22.1468 28.6396 21.6072 28.7239 21.0879C28.7752 20.7723 28.7341 20.4546 28.7567 20.139C28.7814 19.7969 28.8656 19.4487 28.8738 19.1066C28.8758 18.9926 28.9025 18.8439 28.8245 18.7523C28.6889 18.5894 28.1796 18.5018 27.9722 18.4814C26.707 18.3593 25.7212 19.0333 24.8935 19.8967C24.6429 20.1594 24.417 20.4628 24.1315 20.6888L24.1007 20.7132C24.0371 20.7641 23.9775 20.8171 23.8974 20.8395C23.4004 20.978 22.8561 20.4526 22.5213 20.1349C22.433 20.0514 22.392 19.972 22.279 19.9109C22.0936 19.5898 21.9369 19.2532 21.8107 18.905C21.8128 19.1779 21.8148 19.4507 21.8682 19.7195C21.936 20.0535 22.0716 20.3854 22.2051 20.699C22.5645 21.5522 23.0492 22.3443 23.4661 23.169L23.4682 22.7393C23.6653 23.0814 23.7947 23.4622 23.9385 23.8288L24.2301 24.4783C24.0391 24.3908 23.8502 24.2971 23.6366 24.3725C23.4805 24.4295 23.3572 24.5455 23.232 24.6494L22.7514 25.0546L21.858 25.7531C21.6978 25.8793 21.5109 26.0606 21.3199 26.1339C21.1515 26.199 20.9071 26.1888 20.7407 26.1176C20.5887 26.0524 20.4408 25.9099 20.3115 25.806L19.4612 25.1157C19.1716 24.8714 18.8635 24.5191 18.4897 24.4111C18.2679 24.348 18.0851 24.4213 17.8777 24.3949L18.6088 22.7862C18.6355 22.888 18.6253 23.0142 18.6273 23.1201C18.767 22.8941 18.8758 22.6498 19.0032 22.4156C19.3297 21.8169 19.6624 21.2305 19.9192 20.5972C20.0178 20.3548 20.1225 20.1064 20.18 19.8519C20.2375 19.5839 20.2437 19.3076 20.1985 19.0374C20.0876 19.353 19.9397 19.7867 19.7076 20.0351L19.6645 20.0616C19.2743 20.308 18.9272 20.758 18.463 20.8721C18.3377 20.9026 18.1981 20.8884 18.0707 20.8843C17.8325 20.7499 17.6477 20.5503 17.4484 20.365L16.3312 19.3123C16.0539 19.0659 15.7623 18.8154 15.4131 18.6729C15.2201 18.5934 15.0249 18.567 14.8216 18.5385C14.4232 18.4814 13.7947 18.5161 13.4599 18.7686C13.3408 18.8602 13.2012 19.186 13.1601 19.3306L13.1519 19.3611C13.0964 19.5749 13.1662 19.9761 13.2217 20.194L13.156 20.2266C13.1108 19.913 13.0266 19.4589 13.1046 19.1494C13.1888 18.8113 13.4949 18.3918 13.8009 18.2127C14.2609 17.8624 14.9284 17.5101 15.5281 17.5834C16.2326 17.669 16.7584 18.3002 17.28 18.7238C17.662 19.0353 18.1057 19.353 18.5698 19.524L18.5862 19.5037C18.0954 19.127 17.7688 18.7136 17.432 18.2004C17.7729 18.0294 18.1159 17.8502 18.4836 17.7402C18.7567 17.6567 19.0422 17.6201 19.3236 17.5631L18.7362 17.4938C18.081 17.3818 17.4012 17.2556 16.783 17.0051C16.9288 16.7506 17.202 16.5388 17.395 16.3148C17.6642 16.0047 17.8844 15.6559 18.0482 15.2804C18.1529 15.036 18.2248 14.7795 18.3172 14.5331C18.3444 14.4537 18.3824 14.3783 18.4302 14.3091C18.5082 14.2052 18.6725 14.1034 18.7998 14.0851C19.0874 13.9751 19.3955 13.9059 19.6912 13.8183C19.8514 13.7715 20.028 13.688 20.1923 13.6697C20.2416 13.6636 20.2396 13.6554 20.2765 13.6208Z" fill="#707173"/>
<path d="M26.2509 24.2075L26.3043 24.177L26.2119 24.1281C26.3269 24.1159 26.4419 24.1505 26.557 24.1627C26.6638 24.175 26.7726 24.1729 26.8794 24.1851C27.0191 24.2035 27.1628 24.1851 27.2819 24.2666C26.9944 24.3419 26.5385 24.2808 26.2509 24.2075Z" fill="#545557"/>
<path d="M27.2369 23.2973C27.3499 23.2892 27.4525 23.283 27.5614 23.2566L27.6497 23.2423L27.7503 23.222L27.7627 23.2382C27.4628 23.5844 27.0336 23.7575 26.5838 23.8206L26.5407 23.8267C26.2908 23.8621 26.0365 23.8504 25.791 23.7921L25.8608 23.7901C26.3147 23.7819 26.8672 23.5824 27.2513 23.3441L27.2246 23.3177L27.2369 23.2973Z" fill="#30302B"/>
<path d="M20.2766 13.6208C20.3957 13.5801 20.5415 13.5841 20.6668 13.576C21.0837 13.5475 21.4862 13.5658 21.9011 13.6106C22.1332 13.6351 22.3776 13.6575 22.6015 13.7247C22.4885 13.8041 22.2544 13.7878 22.1085 13.8102L22.1291 13.8387C21.4348 13.7723 20.7342 13.8136 20.0527 13.9609C19.7035 14.0342 19.3647 14.1177 19.036 14.2602C18.8882 14.3254 18.7691 14.4211 18.6294 14.4903C18.6499 14.3905 18.6828 14.3437 18.7526 14.2683L18.7855 14.2704L18.7875 14.305C18.8471 14.2826 18.9026 14.25 18.9621 14.2297C19.0299 14.2093 19.11 14.1543 19.1757 14.1421C19.2332 14.1319 19.2558 14.1299 19.3113 14.0973L19.338 14.081C19.3873 14.0871 19.377 14.0932 19.4119 14.079L19.6768 13.9934H19.7138L19.7775 13.9751C19.8247 13.967 19.8432 13.9772 19.8884 13.9507C19.9397 13.9201 19.9644 13.9527 20.028 13.914C20.0938 13.9222 20.0876 13.914 20.141 13.8835C20.1431 13.8265 20.1451 13.7837 20.1266 13.7287L19.149 14.0077C19.0545 14.0342 18.9354 14.0932 18.8368 14.0871L18.7978 14.083C19.0853 13.9731 19.3934 13.9038 19.6892 13.8163C19.8494 13.7695 20.026 13.686 20.1903 13.6676C20.2416 13.6636 20.2396 13.6554 20.2766 13.6208Z" fill="#B0AEB1"/>
<path d="M18.629 14.4944C18.7687 14.4251 18.8878 14.3274 19.0357 14.2643C19.3643 14.1217 19.7032 14.0382 20.0523 13.9649C20.765 13.8163 21.4058 13.7756 22.1287 13.8428C22.5128 13.8896 23.1289 13.9751 23.3898 14.2928C23.5644 14.5045 23.5705 15.093 23.5685 15.3659C23.4637 15.1623 23.3775 14.9179 23.2255 14.7448C23.0509 14.5453 22.7326 14.4292 22.4861 14.3498C22.0753 14.2174 21.6379 14.1808 21.2086 14.1624C20.5309 14.1339 19.7628 14.138 19.1466 14.4536C18.6578 14.7021 18.4565 15.036 18.2676 15.5288C18.3025 15.1419 18.3456 14.7896 18.629 14.4944Z" fill="#F3F3F1"/>
<path d="M23.2666 19.5973C23.4473 19.577 23.624 19.4874 23.7841 19.4059C24.2011 19.1962 24.5913 18.8806 24.9446 18.5772C25.3163 18.2575 25.686 17.8685 26.1563 17.6934C26.6554 17.5101 27.1503 17.726 27.6042 17.9337L27.5632 17.9357C27.481 17.9378 27.403 17.893 27.327 17.8665C27.0723 17.7789 26.7765 17.6914 26.5137 17.7932L26.4787 17.8054C26.296 17.8767 26.1481 18.0151 26.0002 18.1373C25.803 18.3002 25.536 18.4998 25.4108 18.7238C25.7373 18.4509 26.2159 18.1332 26.6718 18.1841L26.6923 18.1882C26.4952 18.2452 26.3001 18.2941 26.1132 18.3817C25.8729 18.4957 25.6223 18.6769 25.4128 18.8398C25.0904 19.0883 24.8049 19.3856 24.5153 19.6686C24.2853 19.8906 24.006 20.2001 23.6815 20.2754C23.5829 20.2978 23.4822 20.2734 23.3939 20.2266C23.1146 20.0779 22.8517 19.7684 22.6792 19.5098V19.4935L22.7038 19.5077C22.8825 19.6075 23.0509 19.6462 23.2543 19.6075L23.2666 19.5973Z" fill="#F3F3F1"/>
<path d="M13.7988 18.2126C14.2589 17.8624 14.9264 17.5101 15.5261 17.5834C16.2305 17.669 16.7563 18.3002 17.278 18.7238C17.66 19.0353 18.1036 19.353 18.5678 19.524C18.5882 19.5408 18.6111 19.5546 18.6356 19.5648C18.9149 19.6869 19.1778 19.5892 19.4365 19.4792C19.2024 19.7419 18.921 20.1247 18.5924 20.2673C18.4363 20.3365 18.2802 20.306 18.1344 20.2265C17.7771 20.0331 17.4936 19.6666 17.1999 19.3876C16.9157 19.1153 16.6146 18.861 16.2983 18.626C16.0046 18.4102 15.713 18.286 15.37 18.1638L15.3844 18.1556C15.8177 18.1821 16.134 18.402 16.5078 18.5975C16.2346 18.3593 15.9492 18.0172 15.6349 17.842C15.2139 17.6079 14.5854 17.8726 14.1829 18.0497C14.072 18.0986 13.9426 18.1801 13.8255 18.2045L13.7988 18.2126Z" fill="#F3F3F1"/>
<path d="M20.8578 19.7093C20.9071 19.4894 20.9399 19.1758 21.0323 18.9742L21.3651 20.3732L21.3876 20.2449C21.4616 20.361 21.5499 20.4567 21.6177 20.5809C21.9052 21.1042 22.09 21.6886 22.3447 22.2282C22.3611 22.2554 22.3729 22.2849 22.3796 22.3158C22.3817 22.3423 22.3714 22.3688 22.3714 22.3952C22.3755 22.4645 22.4371 22.5805 22.4597 22.6498C22.5768 23.0041 22.7452 23.3706 22.8089 23.7371L22.815 23.7677C22.8417 23.9163 22.8561 24.0874 22.8007 24.2299C22.6528 24.6046 22.2995 24.849 21.9832 25.075C21.7553 25.2379 21.5252 25.3947 21.2665 25.5067C21.1289 25.5678 21.0015 25.5759 20.8598 25.5189L20.827 25.5067C20.3135 25.301 19.7446 24.8815 19.4037 24.4478C19.1243 24.0915 19.186 23.6679 19.2948 23.2586C19.3215 23.1588 19.3729 23.0468 19.3811 22.943C19.3934 22.8004 19.4776 22.6722 19.5413 22.5439L19.9212 21.7803L20.6832 20.0494C20.7448 19.9313 20.7715 19.8132 20.8578 19.7093Z" fill="#909091"/>
<path d="M20.8578 19.7093C20.9071 19.4894 20.94 19.1758 21.0324 18.9742L21.3651 20.3732C21.3569 20.4098 21.3836 20.4933 21.3897 20.53L21.4411 20.9291C21.4698 21.2977 21.4308 21.6683 21.4698 22.0389L21.6485 23.2851C21.6814 23.5132 21.7327 23.7514 21.7204 23.9815C21.7142 24.0935 21.7081 24.175 21.6218 24.2523C21.2829 24.348 20.7531 24.3379 20.4019 24.2869L20.4306 23.7942C20.4347 23.4948 20.3977 23.1975 20.4244 22.8982C20.4594 22.5031 20.5579 22.1142 20.5929 21.7192C20.6196 21.428 20.5846 21.1307 20.6257 20.8415C20.6771 20.4567 20.8023 20.0881 20.8578 19.7093Z" fill="#F3F3F1"/>
</g>
<defs>
<linearGradient id="paint0_linear_304_4445" x1="15.4969" y1="24.0654" x2="15.9776" y2="24.1912" gradientUnits="userSpaceOnUse">
<stop stop-color="#49484B"/>
<stop offset="1" stop-color="#676567"/>
</linearGradient>
<linearGradient id="paint1_linear_304_4445" x1="26.7019" y1="21.8585" x2="26.7125" y2="22.267" gradientUnits="userSpaceOnUse">
<stop stop-color="#323135"/>
<stop offset="1" stop-color="#4F4F50"/>
</linearGradient>
<linearGradient id="paint2_linear_304_4445" x1="25.889" y1="22.5697" x2="25.5486" y2="21.9049" gradientUnits="userSpaceOnUse">
<stop stop-color="#363535"/>
<stop offset="1" stop-color="#4F4F52"/>
</linearGradient>
<linearGradient id="paint3_linear_304_4445" x1="22.9649" y1="28.7256" x2="24.2014" y2="29.418" gradientUnits="userSpaceOnUse">
<stop stop-color="#46464E"/>
<stop offset="1" stop-color="#5E6063"/>
</linearGradient>
<linearGradient id="paint4_linear_304_4445" x1="13.0228" y1="6.66205" x2="13.6415" y2="2.92332" gradientUnits="userSpaceOnUse">
<stop stop-color="#F7E7C3"/>
<stop offset="1" stop-color="white"/>
</linearGradient>
<linearGradient id="paint5_linear_304_4445" x1="11.6413" y1="21.8189" x2="10.8266" y2="21.4057" gradientUnits="userSpaceOnUse">
<stop stop-color="#FF8B00"/>
<stop offset="1" stop-color="#FCD507"/>
</linearGradient>
<linearGradient id="paint6_linear_304_4445" x1="17.8607" y1="27.8307" x2="15.4941" y2="27.5157" gradientUnits="userSpaceOnUse">
<stop stop-color="#3C4044"/>
<stop offset="1" stop-color="#838287"/>
</linearGradient>
<linearGradient id="paint7_linear_304_4445" x1="16.6801" y1="23.0076" x2="14.5113" y2="20.7809" gradientUnits="userSpaceOnUse">
<stop stop-color="#333333"/>
<stop offset="1" stop-color="#5C5A5E"/>
</linearGradient>
<linearGradient id="paint8_linear_304_4445" x1="31.5168" y1="22.1504" x2="30.4168" y2="22.7278" gradientUnits="userSpaceOnUse">
<stop stop-color="#F4B808"/>
<stop offset="1" stop-color="#FCEF10"/>
</linearGradient>
<linearGradient id="paint9_linear_304_4445" x1="20.9037" y1="31.7238" x2="21.3144" y2="34.4465" gradientUnits="userSpaceOnUse">
<stop stop-color="#333438"/>
<stop offset="1" stop-color="#57595D"/>
</linearGradient>
<linearGradient id="paint10_linear_304_4445" x1="25.0381" y1="21.0286" x2="27.8742" y2="21.8432" gradientUnits="userSpaceOnUse">
<stop stop-color="#2B2B2C"/>
<stop offset="1" stop-color="#505051"/>
</linearGradient>
<linearGradient id="paint11_linear_304_4445" x1="26.6975" y1="22.4077" x2="26.2313" y2="22.0367" gradientUnits="userSpaceOnUse">
<stop stop-color="#727275"/>
<stop offset="1" stop-color="#9C9B99"/>
</linearGradient>
<linearGradient id="paint12_linear_304_4445" x1="10.0524" y1="12.9702" x2="7.10579" y2="15.0148" gradientUnits="userSpaceOnUse">
<stop stop-color="#5C5B5A"/>
<stop offset="1" stop-color="#97979B"/>
</linearGradient>
<linearGradient id="paint13_linear_304_4445" x1="13.3733" y1="21.0358" x2="19.5018" y2="20.0613" gradientUnits="userSpaceOnUse">
<stop stop-color="#3D3C3D"/>
<stop offset="1" stop-color="#5B5B5C"/>
</linearGradient>
<linearGradient id="paint14_linear_304_4445" x1="14.7309" y1="31.1072" x2="10.6815" y2="32.7715" gradientUnits="userSpaceOnUse">
<stop stop-color="#6B6969"/>
<stop offset="1" stop-color="#8F8F91"/>
</linearGradient>
<linearGradient id="paint15_linear_304_4445" x1="11.6085" y1="15.4891" x2="9.1951" y2="16.6802" gradientUnits="userSpaceOnUse">
<stop stop-color="#777778"/>
<stop offset="1" stop-color="white"/>
</linearGradient>
<linearGradient id="paint16_linear_304_4445" x1="26.0097" y1="25.3497" x2="30.8711" y2="23.9383" gradientUnits="userSpaceOnUse">
<stop stop-color="#727274"/>
<stop offset="1" stop-color="#908F92"/>
</linearGradient>
<linearGradient id="paint17_linear_304_4445" x1="34.0147" y1="18.1382" x2="32.4941" y2="13.0171" gradientUnits="userSpaceOnUse">
<stop stop-color="#4F4E50"/>
<stop offset="1" stop-color="#7A7A7A"/>
</linearGradient>
<linearGradient id="paint18_linear_304_4445" x1="11.5323" y1="22.6448" x2="16.2216" y2="26.1806" gradientUnits="userSpaceOnUse">
<stop stop-color="#5E5D5F"/>
<stop offset="1" stop-color="#7E7E80"/>
</linearGradient>
<linearGradient id="paint19_linear_304_4445" x1="42.4748" y1="25.4899" x2="34.2873" y2="4.28786" gradientUnits="userSpaceOnUse">
<stop stop-color="#C1A46B"/>
<stop offset="1" stop-color="#E4C686"/>
</linearGradient>
<linearGradient id="paint20_linear_304_4445" x1="26.8346" y1="30.3404" x2="31.2684" y2="32.2653" gradientUnits="userSpaceOnUse">
<stop stop-color="#8D8B91"/>
<stop offset="1" stop-color="#A8A8A5"/>
</linearGradient>
<linearGradient id="paint21_linear_304_4445" x1="9.17707" y1="23.403" x2="-1.37156" y2="14.1674" gradientUnits="userSpaceOnUse">
<stop stop-color="#7C3800"/>
<stop offset="1" stop-color="#FF7402"/>
</linearGradient>
<linearGradient id="paint22_linear_304_4445" x1="10.3092" y1="25.0677" x2="6.36002" y2="10.182" gradientUnits="userSpaceOnUse">
<stop stop-color="#CC5301"/>
<stop offset="1" stop-color="#FFCC02"/>
</linearGradient>
<linearGradient id="paint23_linear_304_4445" x1="19.2687" y1="9.32309" x2="18.5332" y2="3.02936" gradientUnits="userSpaceOnUse">
<stop stop-color="#FFB604"/>
<stop offset="1" stop-color="#FFD102"/>
</linearGradient>
<linearGradient id="paint24_linear_304_4445" x1="25.6985" y1="29.5598" x2="25.4486" y2="29.2053" gradientUnits="userSpaceOnUse">
<stop stop-color="#484A50"/>
<stop offset="1" stop-color="#646565"/>
</linearGradient>
<linearGradient id="paint25_linear_304_4445" x1="17.108" y1="26.8718" x2="17.5779" y2="26.4621" gradientUnits="userSpaceOnUse">
<stop stop-color="#76727B"/>
<stop offset="1" stop-color="#9A9E9D"/>
</linearGradient>
<clipPath id="clip0_304_4445">
<rect width="42" height="46" fill="white"/>
</clipPath>
</defs>
</svg>
