<svg width="50" height="39" viewBox="0 0 50 39" fill="none" xmlns="http://www.w3.org/2000/svg">
<g clip-path="url(#clip0_310_5105)">
<path d="M49.9803 28.4714C49.9449 28.2586 49.8624 28.0562 49.7386 27.8787C49.6149 27.7012 49.453 27.553 49.2646 27.4447C45.8254 25.466 42.1499 22.2559 38.3331 17.8957C38.865 17.5116 39.3175 17.0302 39.6661 16.4775C40.4048 15.3192 40.5 14.0066 39.9206 12.9669C39.8571 12.8539 39.7858 12.7453 39.7071 12.642C41.4735 11.4317 43.4943 9.6626 44.3693 7.49061C45.0686 5.75724 45.2985 3.12551 42.4207 0.420674C42.2582 0.271787 42.066 0.158271 41.8564 0.0874548C41.6468 0.0166387 41.4246 -0.00990331 41.204 0.00953775C40.9834 0.0289788 40.7694 0.0939731 40.5757 0.200326C40.3821 0.306679 40.2132 0.452027 40.0798 0.62699C39.9335 0.818133 39.8347 1.04066 39.7913 1.27658C39.748 1.51251 39.7613 1.75521 39.8303 1.98509C39.8303 1.98509 39.8303 1.99809 39.8303 2.00459C39.9547 2.45965 40.01 2.9305 39.9944 3.40168C39.9944 3.43579 39.9944 3.47316 39.9944 3.5089C39.9944 3.54464 39.9862 3.57225 39.9829 3.60312C39.9591 3.90648 39.9007 4.2062 39.8089 4.49661C39.7944 4.54251 39.7823 4.58915 39.7728 4.63632C39.7477 4.68216 39.7253 4.72934 39.7055 4.77765C39.5524 5.15299 39.3432 5.50346 39.085 5.81735C39.0554 5.85309 39.0259 5.89208 38.9996 5.93107C38.9734 5.97006 38.9208 6.00254 38.8847 6.04153C38.5115 6.43297 38.0863 6.77236 37.6207 7.05036C37.5698 7.08123 37.5222 7.11535 37.4746 7.15108C37.427 7.18682 37.3711 7.1982 37.3219 7.22581C36.6978 7.56381 36.0419 7.84075 35.3635 8.0527C35.2814 8.07954 35.2018 8.11323 35.1254 8.15342C35.0414 8.16166 34.9584 8.17798 34.8776 8.20215C34.326 8.36461 33.7284 8.49457 33.1161 8.60666C32.9611 8.63709 32.812 8.69194 32.6745 8.76911C32.5937 8.75557 32.5119 8.7485 32.4299 8.74799C32.3579 8.7485 32.2861 8.75393 32.2149 8.76424C31.9249 8.80648 31.6315 8.84438 31.335 8.87796C31.2972 8.7843 31.2493 8.69497 31.1921 8.61153C28.1897 4.20907 26.31 0.81381 26.292 0.771572C26.1651 0.540268 25.9775 0.347137 25.7489 0.212559C25.5204 0.0779809 25.2594 0.00694489 24.9934 0.00694489C24.7275 0.00694489 24.4665 0.0779809 24.2379 0.212559C24.0094 0.347137 23.8218 0.540268 23.6949 0.771572C23.6769 0.805687 21.8153 4.18308 18.7947 8.60991C18.7376 8.69335 18.6897 8.78268 18.6519 8.87633C18.3564 8.84276 18.0631 8.80485 17.772 8.76261C17.7008 8.7523 17.629 8.74687 17.557 8.74637C17.475 8.74688 17.3932 8.75394 17.3124 8.76749C17.1744 8.69015 17.0247 8.6353 16.8691 8.60503C16.2519 8.49294 15.6609 8.35648 15.1093 8.20053C15.0285 8.17636 14.9455 8.16003 14.8615 8.15179C14.7854 8.11147 14.7057 8.07829 14.6234 8.0527C13.9452 7.83953 13.2893 7.56207 12.665 7.22419C12.6191 7.19872 12.572 7.17541 12.5238 7.15433C12.4777 7.11801 12.4294 7.08438 12.3794 7.05361C11.9131 6.7758 11.4873 6.4364 11.1137 6.04478C11.078 6.00595 11.0402 5.96907 11.0004 5.93432C10.9741 5.89533 10.9462 5.85796 10.9167 5.8206C10.657 5.50739 10.4472 5.15678 10.2945 4.7809C10.2747 4.73259 10.2523 4.68541 10.2272 4.63957C10.2177 4.59293 10.2056 4.54684 10.1911 4.50148C10.0995 4.20993 10.0411 3.90914 10.0171 3.60474C10.0171 3.57388 10.0171 3.54301 10.0056 3.51215C9.9941 3.48128 10.0056 3.44067 10.0056 3.40493C9.98767 2.92724 10.043 2.44962 10.1698 1.98834C10.2387 1.75846 10.2521 1.51576 10.2087 1.27983C10.1654 1.04391 10.0665 0.82138 9.92023 0.630237C9.78617 0.454063 9.61602 0.307895 9.42093 0.201303C9.22583 0.0947101 9.01019 0.0300977 8.78811 0.0116943C8.56603 -0.00670907 8.34253 0.0215114 8.13224 0.0945096C7.92195 0.167508 7.7296 0.283637 7.56781 0.435294C4.69992 3.12876 4.93139 5.75887 5.62907 7.49224C6.50569 9.66585 8.52486 11.4333 10.2929 12.6452C10.2143 12.7485 10.143 12.8571 10.0795 12.9701C9.49998 14.0098 9.58698 15.3225 10.3339 16.4791C10.682 17.0327 11.1346 17.5147 11.6669 17.899C7.85016 22.2592 4.17461 25.4692 0.735447 27.4479C0.547237 27.5561 0.385502 27.7041 0.261805 27.8813C0.138108 28.0585 0.0555046 28.2606 0.0199014 28.4731C-0.0157018 28.6855 -0.00342592 28.9032 0.0558516 29.1104C0.115129 29.3177 0.219944 29.5094 0.362802 29.6719C0.448166 29.7694 2.47555 32.0551 6.005 34.3489C9.27179 36.4722 14.5019 39.0048 20.8697 39.0048C22.2541 39.0024 23.6358 38.8839 25 38.6506C26.3645 38.8807 27.7462 38.9959 29.1303 38.995C35.4981 38.995 40.7282 36.464 43.9934 34.3392C47.5081 32.0551 49.5502 29.7596 49.6356 29.6621C49.7776 29.5007 49.8821 29.3104 49.9417 29.1047C50.0012 28.8989 50.0144 28.6827 49.9803 28.4714ZM49.1415 29.2479C49.0594 29.3405 47.0845 31.5645 43.6355 33.8079C40.4442 35.8825 35.3372 38.3566 29.1319 38.3566C27.7465 38.3539 26.364 38.2316 25 37.9911C23.6362 38.2275 22.2543 38.346 20.8697 38.3452C14.6645 38.3452 9.55743 35.8711 6.36615 33.7966C2.91878 31.5531 0.940648 29.3291 0.858568 29.2365C0.77906 29.1462 0.720706 29.0397 0.687683 28.9245C0.65466 28.8093 0.647786 28.6883 0.667552 28.5701C0.687318 28.452 0.733235 28.3396 0.802017 28.2411C0.870799 28.1426 0.960743 28.0603 1.06541 28.0003C4.72291 25.8965 8.625 22.4427 12.665 17.7365C11.934 17.3715 11.3176 16.816 10.8822 16.1298C10.2732 15.1762 10.1862 14.1106 10.6475 13.2804C10.8092 12.9799 11.0525 12.7301 11.3501 12.5591C9.21598 11.2092 7.0901 9.37344 6.23318 7.24693C5.60937 5.70038 5.41238 3.34807 8.01432 0.901532C8.10893 0.813167 8.2213 0.745525 8.34409 0.703013C8.46688 0.6605 8.59735 0.644073 8.72699 0.654802C8.85663 0.665531 8.98253 0.703175 9.09648 0.765281C9.21044 0.827387 9.30989 0.912562 9.38835 1.01525C9.47315 1.12587 9.53042 1.2547 9.55552 1.3913C9.58062 1.52791 9.57284 1.66845 9.53281 1.80152C9.53331 1.80801 9.53331 1.81453 9.53281 1.82101C9.38831 2.34296 9.32466 2.88358 9.34402 3.42442C9.34734 3.46388 9.34734 3.50355 9.34402 3.54301C9.35202 3.57943 9.3575 3.61633 9.36044 3.65348C9.38884 4.00528 9.45656 4.35289 9.56236 4.68993C9.57981 4.74267 9.59136 4.79715 9.59683 4.85238C9.63159 4.90305 9.66024 4.95757 9.68219 5.01483C9.86061 5.45066 10.1041 5.85752 10.4045 6.22186C10.4397 6.26536 10.4704 6.31215 10.4964 6.36156C10.5449 6.39507 10.5895 6.43375 10.6294 6.47691C11.0436 6.91245 11.5158 7.29011 12.033 7.59946C12.0872 7.63198 12.1373 7.67069 12.1824 7.7148C12.242 7.73316 12.2997 7.7571 12.3547 7.78627C13.0167 8.14644 13.7128 8.44136 14.433 8.66677C14.5196 8.69371 14.6007 8.73551 14.6727 8.79023H14.7121C14.7887 8.79054 14.865 8.80147 14.9386 8.82272C15.5115 8.98518 16.1255 9.12651 16.7624 9.24347C16.9297 9.27344 17.0834 9.35404 17.2024 9.47416C17.316 9.41779 17.4413 9.38832 17.5685 9.38806C17.6086 9.38814 17.6487 9.3914 17.6883 9.3978C18.1939 9.47091 18.711 9.53264 19.2265 9.57813C19.2054 9.47295 19.2056 9.36467 19.227 9.25956C19.2484 9.15444 19.2906 9.05456 19.3512 8.96568C22.3817 4.5226 24.2646 1.10785 24.2843 1.07373C24.3549 0.945587 24.4591 0.838631 24.5859 0.764113C24.7127 0.689596 24.8574 0.650268 25.0049 0.650268C25.1524 0.650268 25.2972 0.689596 25.424 0.764113C25.5508 0.838631 25.655 0.945587 25.7256 1.07373C25.7453 1.10785 27.6282 4.5226 30.6586 8.96568C30.7192 9.05456 30.7615 9.15444 30.7829 9.25956C30.8043 9.36467 30.8045 9.47295 30.7834 9.57813C31.2989 9.53264 31.816 9.47091 32.3216 9.3978C32.3612 9.3914 32.4013 9.38814 32.4414 9.38806C32.5685 9.38832 32.6938 9.41779 32.8075 9.47416C32.9265 9.35404 33.0802 9.27344 33.2474 9.24347C33.8844 9.12651 34.4983 8.98518 35.0713 8.82272C35.1449 8.80147 35.2211 8.79054 35.2978 8.79023H35.3372C35.4092 8.73551 35.4903 8.69371 35.5769 8.66677C36.2971 8.44136 36.9932 8.14644 37.6551 7.78627C37.7102 7.7571 37.7679 7.73316 37.8275 7.7148C37.8726 7.67069 37.9227 7.63198 37.9769 7.59946C38.4941 7.29011 38.9663 6.91245 39.3805 6.47691C39.4204 6.43375 39.465 6.39507 39.5134 6.36156C39.5394 6.31215 39.5702 6.26536 39.6054 6.22186C39.9058 5.85752 40.1493 5.45066 40.3277 5.01483C40.3496 4.95757 40.3783 4.90305 40.413 4.85238C40.4185 4.79715 40.4301 4.74267 40.4475 4.68993C40.5533 4.35289 40.621 4.00528 40.6494 3.65348C40.6524 3.61633 40.6579 3.57943 40.6658 3.54301C40.6626 3.50409 40.6626 3.46497 40.6658 3.42605C40.6858 2.88401 40.6216 2.34215 40.4754 1.81939V1.80152C40.4354 1.66845 40.4276 1.52791 40.4527 1.3913C40.4778 1.2547 40.5351 1.12587 40.6199 1.01525C40.6979 0.91313 40.7966 0.828308 40.9097 0.766253C41.0228 0.704197 41.1478 0.666284 41.2767 0.654958C41.4055 0.643632 41.5353 0.659144 41.6577 0.700494C41.7801 0.741844 41.8924 0.808115 41.9873 0.895035C44.5959 3.34482 44.3989 5.70201 43.775 7.24856C42.9165 9.37506 40.7988 11.2092 38.6598 12.5591C38.9565 12.7307 39.1991 12.9804 39.3608 13.2804C39.8221 14.1106 39.7351 15.1762 39.126 16.1298C38.6933 16.8175 38.0792 17.3752 37.3498 17.743C41.3898 22.4541 45.2919 25.903 48.9494 28.0067C49.0541 28.0668 49.144 28.1491 49.2128 28.2476C49.2816 28.3461 49.3275 28.4585 49.3472 28.5766C49.367 28.6948 49.3601 28.8158 49.3271 28.931C49.2941 29.0462 49.2357 29.1527 49.1562 29.243L49.1415 29.2479Z" fill="#FFA929"/>
<path d="M48.9345 28.0068C45.277 25.9031 41.3749 22.4493 37.3349 17.7431C38.0667 17.3763 38.6832 16.8185 39.1177 16.1299C39.7267 15.1763 39.8137 14.1106 39.3524 13.2805C39.1908 12.9805 38.9481 12.7308 38.6514 12.5592C40.7855 11.2092 42.9081 9.37515 43.7667 7.24865C44.3905 5.7021 44.5875 3.34979 41.979 0.895127C41.884 0.808207 41.7717 0.741936 41.6493 0.700586C41.5269 0.659236 41.3971 0.643724 41.2683 0.65505C41.1395 0.666376 41.0145 0.704289 40.9013 0.766345C40.7882 0.8284 40.6895 0.913222 40.6115 1.01534C40.5267 1.12596 40.4694 1.25479 40.4444 1.39139C40.4193 1.528 40.427 1.66854 40.4671 1.80161V1.81948C40.6132 2.34224 40.6774 2.8841 40.6575 3.42614C40.6542 3.46506 40.6542 3.50418 40.6575 3.54311C40.6495 3.57952 40.644 3.61642 40.6411 3.65357C40.6127 4.00538 40.5449 4.35298 40.4392 4.69002C40.4217 4.74276 40.4101 4.79724 40.4047 4.85247C40.3699 4.90314 40.3413 4.95766 40.3193 5.01493C40.1409 5.45075 39.8974 5.85762 39.597 6.22195C39.5619 6.26545 39.5311 6.31224 39.5051 6.36166C39.4566 6.39516 39.412 6.43384 39.3721 6.477C38.958 6.91254 38.4858 7.2902 37.9685 7.59955C37.9143 7.63207 37.8642 7.67078 37.8191 7.71489C37.7595 7.73325 37.7018 7.75719 37.6468 7.78637C36.9848 8.14653 36.2887 8.44145 35.5685 8.66686C35.4819 8.6938 35.4008 8.7356 35.3288 8.79033H35.2894C35.2128 8.79063 35.1365 8.80157 35.0629 8.82281C34.49 8.98527 33.876 9.1266 33.2391 9.24357C33.0718 9.27353 32.9181 9.35413 32.7991 9.47425C32.6855 9.41788 32.5602 9.38841 32.433 9.38815C32.3929 9.38823 32.3528 9.39149 32.3132 9.3979C31.8076 9.471 31.2905 9.53273 30.775 9.57822C30.7961 9.47304 30.7959 9.36477 30.7745 9.25965C30.7531 9.15453 30.7109 9.05465 30.6503 8.96577C27.6199 4.52269 25.7369 1.10794 25.7172 1.07383C25.6466 0.945679 25.5425 0.838723 25.4156 0.764205C25.2888 0.689688 25.1441 0.65036 24.9966 0.65036C24.8491 0.65036 24.7043 0.689688 24.5775 0.764205C24.4507 0.838723 24.3465 0.945679 24.2759 1.07383C24.2562 1.10794 22.3733 4.52269 19.3429 8.96577C19.2823 9.05465 19.24 9.15453 19.2186 9.25965C19.1972 9.36477 19.197 9.47304 19.2181 9.57822C18.7027 9.53273 18.1856 9.471 17.6799 9.3979C17.6403 9.39149 17.6002 9.38823 17.5601 9.38815C17.433 9.38841 17.3077 9.41788 17.194 9.47425C17.075 9.35413 16.9213 9.27353 16.7541 9.24357C16.1171 9.1266 15.5032 8.98527 14.9303 8.82281C14.8566 8.80157 14.7804 8.79063 14.7037 8.79033H14.6643C14.5923 8.7356 14.5112 8.6938 14.4246 8.66686C13.7044 8.44145 13.0083 8.14653 12.3464 7.78637C12.2913 7.75719 12.2336 7.73325 12.174 7.71489C12.1289 7.67078 12.0788 7.63207 12.0246 7.59955C11.5074 7.2902 11.0352 6.91254 10.621 6.477C10.5811 6.43384 10.5365 6.39516 10.4881 6.36166C10.4621 6.31224 10.4313 6.26545 10.3961 6.22195C10.0957 5.85762 9.85225 5.45075 9.67383 5.01493C9.65188 4.95766 9.62323 4.90314 9.58847 4.85247C9.583 4.79724 9.57145 4.74276 9.554 4.69002C9.4482 4.35298 9.38048 4.00538 9.35208 3.65357C9.34914 3.61642 9.34366 3.57952 9.33566 3.54311C9.33898 3.50364 9.33898 3.46398 9.33566 3.42451C9.3163 2.88367 9.37995 2.34305 9.52445 1.82111C9.52495 1.81462 9.52495 1.8081 9.52445 1.80161C9.56448 1.66854 9.57226 1.528 9.54716 1.39139C9.52206 1.25479 9.46479 1.12596 9.37999 1.01534C9.30153 0.912654 9.20208 0.827479 9.08813 0.765373C8.97417 0.703267 8.84827 0.665623 8.71863 0.654894C8.58899 0.644165 8.45852 0.660592 8.33573 0.703105C8.21293 0.745617 8.10057 0.813259 8.00596 0.901624C5.40402 3.33841 5.60101 5.70048 6.22482 7.24703C7.08174 9.37353 9.20105 11.2092 11.3417 12.5592C11.0442 12.7302 10.8008 12.98 10.6391 13.2805C10.1778 14.1106 10.2648 15.1763 10.8738 16.1299C11.3066 16.8176 11.9207 17.3753 12.6501 17.7431C8.61008 22.4542 4.70798 25.9031 1.05048 28.0068C0.945818 28.0669 0.855874 28.1492 0.787093 28.2477C0.718311 28.3462 0.672393 28.4586 0.652626 28.5767C0.63286 28.6949 0.639734 28.8159 0.672757 28.9311C0.70578 29.0463 0.764134 29.1528 0.843642 29.2431C0.925722 29.3357 2.90057 31.5597 6.35123 33.8032C9.54251 35.8777 14.6495 38.3518 20.8548 38.3518C22.2445 38.3513 23.6314 38.2306 24.9999 37.9912C26.3636 38.2278 27.7456 38.3463 29.1301 38.3453C35.3354 38.3453 40.4424 35.8712 43.6337 33.7967C47.0811 31.5532 49.051 29.3292 49.1397 29.2366C49.2192 29.1463 49.2775 29.0398 49.3105 28.9246C49.3436 28.8094 49.3504 28.6884 49.3307 28.5702C49.3109 28.4521 49.265 28.3397 49.1962 28.2412C49.1274 28.1427 49.0375 28.0604 48.9328 28.0003L48.9345 28.0068ZM32.4363 10.202C32.4842 10.3188 32.539 10.4328 32.6005 10.5432C33.1882 11.6105 34.4703 12.7119 33.9006 11.8428C33.6331 11.4068 33.4692 10.9163 33.4213 10.4084C33.4049 10.2816 33.3967 10.1614 33.3917 10.0477C34.0812 9.92262 34.7132 9.77479 35.2944 9.60909C35.3633 9.70006 35.4339 9.78941 35.5045 9.87388C36.0626 10.5416 36.6093 10.9347 36.1989 10.306C36.0832 10.1257 35.989 9.93272 35.9182 9.73092C35.8821 9.6367 35.8541 9.54086 35.8279 9.44663C36.5994 9.20517 37.345 8.88903 38.0539 8.50278C38.1064 8.56452 38.159 8.62137 38.2099 8.67661C38.6728 9.17534 39.0307 9.39465 38.6794 8.85206C38.6072 8.74189 38.544 8.62618 38.4906 8.50603C38.4577 8.4378 38.4298 8.36795 38.4036 8.29809C38.9847 7.95058 39.5149 7.52587 39.9795 7.03584C40.0452 7.08457 40.1092 7.13006 40.1716 7.1723C40.7281 7.55081 41.1106 7.67915 40.6427 7.22916C40.5501 7.14092 40.465 7.04529 40.3883 6.94324C40.3357 6.87826 40.2865 6.81003 40.2405 6.74017C40.5938 6.31138 40.8794 5.83213 41.0876 5.31871C41.1664 5.3577 41.2517 5.39344 41.3223 5.42593C41.8723 5.66149 42.3073 5.73946 41.8624 5.47954C41.6999 5.38602 41.5508 5.27128 41.4192 5.13839C41.3518 5.07324 41.2882 5.00436 41.2288 4.93208C41.3529 4.53753 41.4322 4.1305 41.4652 3.71855H41.6293C42.1218 3.71855 42.3976 3.64545 41.9363 3.5756C41.8316 3.55948 41.7284 3.53503 41.6277 3.50249C41.5768 3.48787 41.5275 3.47 41.4783 3.45213C41.5004 2.81943 41.424 2.18714 41.2517 1.57743C41.2255 1.48808 41.347 1.42797 41.4159 1.49295C48.3927 8.04629 34.2503 14.3267 33.0536 14.1838C32.4987 14.1139 31.9898 13.313 31.6024 12.465C31.3473 11.8957 31.128 11.3114 30.9458 10.7154C30.8834 10.5139 30.8505 10.3905 30.8505 10.3905C31.4021 10.3385 31.934 10.2751 32.4363 10.202ZM24.9999 1.46858C24.9999 1.46858 26.8828 4.89633 29.9739 9.42876C29.7008 9.49732 29.4224 9.5435 29.1416 9.56685C28.7887 9.60259 28.416 9.61883 28.0844 9.6237C26.88 7.67616 25.848 5.62922 24.9999 3.50574C24.1513 5.62643 23.1193 7.67064 21.9153 9.61558C21.587 9.61558 21.211 9.59446 20.8581 9.55873C20.5773 9.53538 20.2989 9.4892 20.0258 9.42064C23.1169 4.88984 24.9999 1.46858 24.9999 1.46858ZM25.9142 9.5571L24.9999 9.07624L24.0855 9.5506L24.2595 8.5434L23.5208 7.8286L24.5419 7.6824L24.9999 6.76454L25.4579 7.6824L26.4789 7.8286L25.7402 8.5434L25.9142 9.5571ZM8.58381 1.4897C8.6544 1.42472 8.77588 1.4897 8.74797 1.57418C8.57543 2.18493 8.49902 2.81835 8.52143 3.45213C8.47218 3.47 8.42293 3.48787 8.37204 3.50249C8.27132 3.53503 8.16811 3.55948 8.06342 3.5756C7.60213 3.64545 7.88284 3.71855 8.3704 3.71855H8.53456C8.56751 4.1305 8.6468 4.53753 8.77095 4.93208C8.71148 5.00436 8.6479 5.07324 8.58052 5.13839C8.44892 5.27128 8.29984 5.38602 8.13729 5.47954C7.68421 5.73946 8.12744 5.66149 8.67738 5.42593C8.75454 5.39344 8.83333 5.3577 8.91213 5.31871C9.12029 5.83032 9.40531 6.3079 9.75756 6.7353C9.71159 6.80515 9.66234 6.87338 9.60981 6.93836C9.53307 7.04042 9.44797 7.13605 9.35536 7.22428C8.88751 7.67427 9.27 7.54919 9.8265 7.16742C9.88889 7.12519 9.95291 7.0797 10.0186 7.03096C10.4831 7.521 11.0134 7.9457 11.5945 8.29322C11.5682 8.36307 11.5403 8.43293 11.5075 8.50116C11.454 8.62131 11.3909 8.73702 11.3187 8.84718C10.9658 9.38977 11.3187 9.17209 11.7882 8.67173C11.8391 8.6165 11.8916 8.55964 11.9524 8.49791C12.6612 8.88415 13.4069 9.2003 14.1784 9.44176C14.1521 9.53598 14.1242 9.63183 14.0881 9.72605C14.0173 9.92784 13.9231 10.1208 13.8074 10.3011C13.397 10.9298 13.9437 10.5367 14.5018 9.86901C14.5724 9.78453 14.643 9.69518 14.7119 9.60421C15.293 9.76666 15.9251 9.91774 16.6145 10.0428C16.6145 10.1566 16.6014 10.2768 16.585 10.4035C16.5371 10.9114 16.3732 11.4019 16.1056 11.8379C15.536 12.7119 16.8181 11.6105 17.4058 10.5383C17.4672 10.4279 17.5221 10.314 17.57 10.1972C18.0723 10.2703 18.5992 10.3336 19.1574 10.384C19.1574 10.384 19.1246 10.5058 19.0622 10.7089C18.8799 11.3049 18.6606 11.8892 18.4055 12.4585C18.0181 13.3065 17.5092 14.1074 16.9544 14.1773C15.7511 14.33 1.60863 8.04304 8.58381 1.4897ZM11.5814 15.6962C10.5784 14.1236 11.716 12.9556 12.1018 13.2464C12.4875 13.5372 12.6747 14.0895 13.8566 13.9726C14.7119 13.8881 15.5065 14.5379 16.3896 14.7231C16.7373 14.8044 17.1013 14.7858 17.4386 14.6695C18.7798 14.2049 19.228 11.76 19.7057 10.886C20.1834 10.012 24.9999 10.4782 24.9999 10.4782C24.9999 10.4782 29.8098 10.0152 30.2908 10.886C30.7717 11.7567 31.2166 14.2049 32.5578 14.6695C32.8952 14.7858 33.2591 14.8044 33.6068 14.7231C34.49 14.5379 35.2845 13.8881 36.1398 13.9726C37.3217 14.0895 37.5122 13.5372 37.8947 13.2464C38.2772 12.9556 39.4181 14.1236 38.4151 15.6962C37.939 16.4435 36.8834 17.6099 34.1846 17.5514C34.1846 17.5514 37.22 16.6124 37.2906 15.1731C37.2906 15.1731 34.6032 15.5565 33.0503 18.3588C32.983 18.466 32.9222 18.5765 32.8648 18.6837C32.8073 18.7909 32.7581 18.9062 32.7105 19.0086C32.6678 19.1093 32.63 19.2068 32.5956 19.2994C32.5946 19.3053 32.5946 19.3113 32.5956 19.3173L32.5709 19.3822C32.479 19.6422 32.4216 19.8517 32.3986 19.9394V19.9557C32.3991 19.9643 32.3991 19.973 32.3986 19.9817C32.3986 19.9817 32.3214 16.4077 30.3416 18.3815C30.2251 18.4985 30.1167 18.6138 30.0133 18.7308C30.159 18.7272 30.3038 18.7529 30.4391 18.8064C30.5744 18.8598 30.6973 18.94 30.8004 19.0419C30.9034 19.1438 30.9845 19.2654 31.0386 19.3992C31.0927 19.5331 31.1188 19.6764 31.1152 19.8206C31.1117 19.9647 31.0786 20.1066 31.0179 20.2377C30.9572 20.3687 30.8702 20.4863 30.7623 20.5831C30.6543 20.6799 30.5276 20.7539 30.3898 20.8008C30.252 20.8477 30.1061 20.8663 29.9608 20.8557C29.7911 20.8571 29.6229 20.8231 29.4674 20.7559C29.3118 20.6888 29.1723 20.5899 29.0579 20.4658C28.8204 21.4036 28.9372 22.3949 29.3862 23.2535C30.4779 25.4401 31.0278 24.9966 30.1364 29.3763C29.9296 26.033 27.152 24.5856 27.0584 24.493C28.7756 26.6487 29.0169 27.8346 28.9545 28.2538C28.1796 27.6803 26.937 27.2401 24.9999 27.3781C23.0628 27.2401 21.8201 27.6803 21.0452 28.2538C20.9829 27.8346 21.2324 26.6406 22.9643 24.5092C22.8707 24.6018 20.0931 26.0493 19.8863 29.3926C18.9916 25.0063 19.5448 25.4563 20.6365 23.2697C21.0855 22.4111 21.2023 21.4198 20.9648 20.482C20.8504 20.6061 20.7109 20.705 20.5553 20.7722C20.3998 20.8394 20.2316 20.8733 20.0619 20.8719C19.9166 20.8826 19.7707 20.8639 19.6329 20.8171C19.4951 20.7702 19.3684 20.6961 19.2604 20.5993C19.1525 20.5025 19.0655 20.385 19.0048 20.2539C18.9441 20.1228 18.911 19.9809 18.9075 19.8368C18.9039 19.6927 18.93 19.5493 18.9841 19.4155C19.0382 19.2816 19.1193 19.16 19.2223 19.0581C19.3254 18.9562 19.4483 18.8761 19.5836 18.8226C19.7189 18.7691 19.8637 18.7434 20.0094 18.747C19.9109 18.6301 19.8025 18.5147 19.6811 18.3978C17.7013 16.4191 17.6241 19.9979 17.6241 19.9979C17.6236 19.9893 17.6236 19.9806 17.6241 19.9719V19.9557C17.6011 19.868 17.5437 19.6584 17.46 19.3985L17.4353 19.3335C17.4363 19.3276 17.4363 19.3216 17.4353 19.3156C17.4009 19.223 17.3631 19.1256 17.3204 19.0248C17.2728 18.916 17.2219 18.8055 17.1661 18.6999C17.1103 18.5943 17.0479 18.479 16.9806 18.375C15.4277 15.5727 12.7404 15.1893 12.7404 15.1893C12.7781 16.6124 15.8069 17.5514 15.8069 17.5514C13.1146 17.6099 12.0591 16.4435 11.583 15.6962H11.5814ZM40.3357 30.8156L38.5989 29.9124L36.8621 30.8156L37.1904 28.902L35.7852 27.5455L37.7272 27.2677L38.5956 25.5246L39.464 27.2677L41.4159 27.5455L40.0107 28.902L40.3357 30.8156ZM35.1417 24.0008L35.4126 25.5652L33.9926 24.8276L32.5726 25.5652L32.8434 24.0008L31.6943 22.8928L33.2818 22.6654L33.9926 21.2407L34.7017 22.6654L36.2908 22.8928L35.1417 24.0008ZM34.3357 33.168L33.1192 32.536L31.9028 33.168L32.1343 31.8277L31.1493 30.879L32.5086 30.6841L33.1176 29.4624L33.725 30.6841L35.0859 30.879L34.1009 31.8277L34.3357 33.168ZM24.9999 31.6848C24.1413 31.4395 22.9364 32.0324 22.4078 32.4337C22.2321 32.5734 20.579 33.2086 20.0849 32.2452C19.0999 30.3283 21.1109 28.7493 21.1601 28.7119C21.1601 28.7119 22.1665 30.7637 23.2696 30.1967C24.3728 29.6297 22.1911 28.7704 22.4061 28.2245C22.6212 27.6787 24.9999 27.8688 24.9999 27.8688C24.9999 27.8688 27.3769 27.6722 27.592 28.218C27.807 28.7639 25.622 29.6216 26.7285 30.1902C27.8349 30.7588 28.8379 28.7054 28.8379 28.7054C28.8872 28.7428 30.8932 30.3218 29.9132 32.2387C29.4207 33.2021 27.766 32.5636 27.5903 32.4272C27.0634 32.0292 25.8584 31.4362 24.9999 31.6848ZM27.4327 32.6595L27.2686 32.7635C27.1478 32.8391 27.0216 32.9059 26.891 32.9633C26.2958 33.2242 25.6265 33.2685 25.0015 33.0884C24.3765 33.2685 23.7072 33.2242 23.112 32.9633C22.9814 32.9059 22.8552 32.8391 22.7344 32.7635L22.5703 32.6595C22.5703 32.6595 24.1446 31.7319 25.0031 31.9756C25.8584 31.7351 27.4327 32.6595 27.4327 32.6595ZM18.1051 33.168L16.8887 32.536L15.6723 33.168L15.9054 31.8277L14.9204 30.879L16.2813 30.6841L16.8887 29.4624L17.4977 30.6841L18.857 30.879L17.872 31.8277L18.1051 33.168ZM13.7171 22.8928L15.3062 22.6654L16.0154 21.2407L16.7262 22.6654L18.3136 22.8928L17.1645 24.0008L17.4353 25.5652L16.0154 24.8276L14.5954 25.5652L14.8662 24.0008L13.7171 22.8928ZM13.1442 30.8156L11.4074 29.9124L9.67055 30.8156L9.99887 28.902L8.58381 27.5455L10.5258 27.2677L11.3942 25.5246L12.2626 27.2677L14.2047 27.5455L12.7994 28.902L13.1442 30.8156ZM24.9999 37.1659C11.1283 39.6726 1.4773 28.7086 1.4773 28.7086C5.77831 26.2345 9.90038 22.2446 13.461 18.0729C13.7605 18.1954 14.0676 18.2991 14.3803 18.3832C14.7121 18.4762 15.0536 18.5307 15.3981 18.5456C12.2631 22.2575 8.88623 25.7625 5.28911 29.0384L5.15942 29.1538C14.8219 37.5087 24.9999 35.1807 24.9999 35.1807C24.9999 35.1807 35.1778 37.5087 44.8419 29.1521L44.7122 29.0368C41.1151 25.7609 37.7383 22.2558 34.6032 18.544C34.9477 18.5291 35.2893 18.4745 35.621 18.3815C35.9338 18.2974 36.2408 18.1938 36.5403 18.0712C40.0993 22.243 44.2214 26.2329 48.5241 28.707C48.5224 28.7086 38.8714 39.6726 24.9999 37.1659Z" fill="black"/>
<path d="M23.2583 15.9399H26.7418C26.7906 15.9436 26.8395 15.9341 26.8832 15.9124C26.927 15.8907 26.9639 15.8576 26.9901 15.8167C27.0163 15.7757 27.0307 15.7285 27.0318 15.6801C27.0328 15.6317 27.0206 15.5839 26.9962 15.5419L25.2512 12.7915C25.2236 12.7507 25.1863 12.7171 25.1424 12.694C25.0986 12.6708 25.0497 12.6587 25 12.6587C24.9504 12.6587 24.9015 12.6708 24.8576 12.694C24.8138 12.7171 24.7765 12.7507 24.7489 12.7915L23.0038 15.5419C22.9795 15.5839 22.9672 15.6317 22.9683 15.6801C22.9694 15.7285 22.9838 15.7757 23.01 15.8167C23.0361 15.8576 23.0731 15.8907 23.1168 15.9124C23.1606 15.9341 23.2095 15.9436 23.2583 15.9399Z" fill="black"/>
<path d="M24.9999 2.41568C24.9999 2.41568 27.2063 7.48258 29.1417 9.5636C29.4225 9.54025 29.7009 9.49407 29.974 9.42551C26.8829 4.89471 24.9999 1.46533 24.9999 1.46533C24.9999 1.46533 23.117 4.89308 20.0259 9.42551C20.299 9.49407 20.5774 9.54025 20.8582 9.5636C22.7936 7.47933 24.9999 2.41568 24.9999 2.41568Z" fill="#FFA929"/>
<path d="M14.3786 18.3831C14.0658 18.299 13.7588 18.1954 13.4593 18.0728C9.9003 22.2446 5.77823 26.2345 1.47559 28.7086L3.79353 29.0335C3.79353 29.0335 13.4101 20.3293 14.3786 18.3831Z" fill="#FFA929"/>
<path d="M25 36.1214C39.2935 38.0009 46.2046 29.0319 46.2046 29.0319L44.8421 29.1521C35.178 37.5087 25 35.1807 25 35.1807C25 35.1807 14.8221 37.5087 5.15794 29.1521L3.79541 29.0319C3.79541 29.0319 10.7066 38.0009 25 36.1214Z" fill="#FFA929"/>
<path d="M7.98965 3.08011L7.33301 3.81115L7.84683 4.00772L7.33301 5.18225L7.7549 5.05229L7.4118 5.56076H7.68924L7.48896 6.01726H8.46571L7.82713 7.12356H8.35573L8.09143 7.68077H8.58391V8.30621L10.0072 7.81886L9.10922 8.65224L9.67229 8.75621L9.58529 9.15584L10.4291 8.65224L10.2534 9.57497L10.7804 9.20945L10.6687 9.91612L11.7588 9.30692L11.5388 10.9314L12.2069 10.3596V11.2888L13.2805 10.0704L13.0425 11.4269L13.7287 11.18V11.6755L14.8105 10.6699L14.7186 12.2766L15.1011 11.924L15.0206 12.7071L15.5624 11.7145L15.4704 12.811L16.5523 12.2359L16.3881 13.0076L17.9312 11.7665L17.5487 13.2415L18.1512 12.3935V12.6941L18.4073 12.4666C18.6623 11.8973 18.8816 11.313 19.0639 10.717C18.5173 10.6861 17.9624 10.6293 17.4092 10.5546C16.8215 11.6219 15.5394 12.7233 16.109 11.8542C16.3766 11.4181 16.5405 10.9276 16.5884 10.4197C15.8789 10.2808 15.1793 10.0968 14.4937 9.86901C13.9355 10.5367 13.3889 10.9298 13.7993 10.3011C13.915 10.1208 14.0092 9.92784 14.08 9.72605C13.2819 9.44745 12.5124 9.09442 11.7818 8.67173C11.3188 9.17046 10.961 9.38977 11.3123 8.84718C11.3844 8.73702 11.4476 8.6213 11.501 8.50116C10.8909 8.12181 10.3269 7.67429 9.82004 7.16742C9.26353 7.54594 8.88104 7.67427 9.3489 7.22428C9.4415 7.13605 9.52661 7.04042 9.60335 6.93836C9.19868 6.49711 8.88227 5.98389 8.67091 5.42593C8.12098 5.66149 7.67774 5.73946 8.13083 5.47954C8.29337 5.38602 8.44246 5.27127 8.57406 5.13839C8.43593 4.67852 8.36462 4.20155 8.36229 3.7218C7.86981 3.7218 7.59402 3.6487 8.05531 3.57884C8.16001 3.56273 8.26322 3.53828 8.36394 3.50574C8.38114 2.84613 8.51102 2.19415 8.74807 1.57743C8.77434 1.48808 8.65286 1.42797 8.58391 1.49295C8.58391 1.49295 7.79101 2.67885 7.79101 2.95502L7.98965 3.08011Z" fill="#FFA929"/>
<path d="M17.6129 19.9541C17.5899 19.8663 17.5325 19.6568 17.4487 19.3969C17.5292 19.6633 17.5866 19.8663 17.6129 19.9541Z" fill="#696969"/>
<path d="M15.8069 17.5514C15.8069 17.5514 11.6373 17.064 12.1823 14.3982C12.1823 14.3982 16.3831 15.0951 17.3878 17.5839C17.3878 17.5839 20.4855 15.2348 21.1536 18.4985C21.8218 21.7621 21.5821 22.9887 22.4013 22.3356C22.4013 22.3356 22.9299 22.8327 21.4261 24.1372C19.9224 25.4417 19.8798 29.3925 19.8798 29.3925C20.0866 26.0493 22.8642 24.6018 22.9578 24.5092C21.2259 26.6406 20.9763 27.8346 21.0387 28.2537C21.8136 27.6803 23.0563 27.24 24.9934 27.3781C26.9305 27.24 28.1731 27.6803 28.948 28.2537C29.0104 27.8346 28.7608 26.6406 27.0289 24.5092C27.1225 24.6018 29.9001 26.0493 30.107 29.3925C30.107 29.3925 30.0643 25.4433 28.5606 24.1372C27.0569 22.8311 27.5854 22.3356 27.5854 22.3356C28.4063 22.9854 28.1649 21.7621 28.8331 18.4985C29.5012 15.2348 32.5989 17.5839 32.5989 17.5839C33.6036 15.0951 37.8044 14.3982 37.8044 14.3982C38.356 17.064 34.1929 17.5514 34.1929 17.5514C36.8917 17.6098 37.9473 16.4434 38.4233 15.6962C39.4263 14.1236 38.2887 12.9556 37.9029 13.2464C37.5172 13.5372 37.33 14.0895 36.1481 13.9725C35.2928 13.8881 34.4983 14.5379 33.6151 14.7231C33.5264 14.7604 30.5732 15.9853 30.0528 13.8767C29.5258 11.7356 29.3026 10.5529 25.0081 10.4782C20.7137 10.5529 20.4904 11.7356 19.9635 13.8767C19.4431 15.9886 16.4898 14.7604 16.4012 14.7231C15.518 14.5379 14.7235 13.8881 13.8682 13.9725C12.6862 14.0895 12.4958 13.5372 12.1133 13.2464C11.7308 12.9556 10.5899 14.1236 11.5929 15.6962C12.0592 16.4434 13.1147 17.6098 15.8069 17.5514ZM37.9883 14.0343C37.9883 14.0343 37.9276 13.2415 38.4545 13.9563C38.9815 14.6711 37.8832 16.2306 37.2758 16.5555C37.2824 16.5572 38.6991 15.0269 37.9949 14.0343H37.9883ZM36.5289 14.2812C33.1127 15.2559 32.3198 16.5555 32.3198 16.5555C32.374 16.1819 31.8503 15.8082 31.8503 15.8082C33.7809 14.7507 36.5355 14.2812 36.5355 14.2812H36.5289ZM20.7843 25.9778C20.7252 25.4336 22.3848 23.6271 22.8773 23.437C23.3698 23.247 23.3862 24.0251 23.3862 24.0251C22.1616 23.9504 20.7908 25.9745 20.7908 25.9745L20.7843 25.9778ZM26.2098 22.9659C26.4905 23.4354 25.5761 23.3136 24.9934 23C24.4106 23.3136 23.4962 23.4354 23.7769 22.9659C24.1315 22.3746 23.4223 21.4681 23.0727 20.7029C22.723 19.9378 22.3323 18.5098 22.5605 18.0923C22.7345 17.7674 24.2776 17.9413 24.9934 18.0403C25.7091 17.9413 27.2522 17.7723 27.4262 18.0923C27.6544 18.5098 27.2621 19.9378 26.914 20.7029C26.566 21.4681 25.8618 22.3713 26.2164 22.9627L26.2098 22.9659ZM24.9999 26.1987C24.2596 26.0655 23.2877 26.2702 23.2877 26.2702C23.3944 25.7162 24.4795 24.5547 24.9999 24.0219C25.5203 24.5547 26.6054 25.7162 26.7121 26.2702C26.7121 26.2702 25.7403 26.0655 24.9999 26.1987ZM29.209 25.9745C29.209 25.9745 27.8383 23.9504 26.6071 24.0251C26.6071 24.0251 26.6235 23.2453 27.116 23.437C27.6084 23.6287 29.2681 25.4303 29.209 25.9745ZM28.5146 12.2928C28.5934 13.4771 29.2829 14.892 30.9343 15.7221C30.9343 15.7221 29.6966 15.688 29.3042 16.5572C29.3042 16.5572 29.3846 15.4444 28.8922 14.7702C28.3997 14.096 28.4703 11.5731 25.3758 10.717C25.3758 10.7121 28.4358 11.1101 28.5146 12.2928ZM26.0079 11.8655C26.2722 11.474 26.7466 11.6836 26.9058 12.6502C27.0651 13.6168 28.5146 15.4119 28.5146 16.0178C28.5146 16.6238 27.9876 16.9048 27.2489 16.9308C26.6776 16.9503 25.5876 16.9812 24.9999 17.1469C24.4122 16.9844 23.3222 16.9503 22.7509 16.9308C22.0122 16.9048 21.4852 16.6189 21.4852 16.0178C21.4852 15.4167 22.9364 13.6151 23.094 12.6502C23.2516 11.6852 23.7277 11.474 23.992 11.8655C24.1561 12.1108 24.6486 12.0491 24.9999 11.9695C25.3479 12.0491 25.8437 12.1108 26.0079 11.8655ZM21.4852 12.2928C21.564 11.1101 24.624 10.7121 24.624 10.7121C21.5296 11.5682 21.6002 14.0863 21.1077 14.7653C20.6152 15.4444 20.6956 16.5523 20.6956 16.5523C20.3033 15.6832 19.0655 15.7173 19.0655 15.7173C20.717 14.8871 21.4064 13.4771 21.4852 12.2928ZM18.1429 15.8099C18.1429 15.8099 17.6193 16.1835 17.6734 16.5572C17.6734 16.5572 16.8805 15.2575 13.4644 14.2828C13.4644 14.2812 16.219 14.7507 18.1429 15.8099ZM11.5388 13.9563C12.0657 13.2415 12.005 14.0343 12.005 14.0343C11.3007 15.0269 12.7174 16.5572 12.7174 16.5572C12.11 16.2274 11.0118 14.6695 11.5388 13.9563Z" fill="#696969"/>
<path d="M22.0927 31.3875C23.6867 31.0057 24.5552 31.0707 25 31.2071C25.4531 31.0707 26.3133 31.0057 27.9073 31.3875C30.7637 32.0698 28.9071 28.8256 28.8397 28.7086C28.8397 28.7086 28.0666 31.1227 26.4167 30.299C24.7669 29.4754 26.9716 28.9994 26.9092 28.6014C26.8468 28.2034 25.5959 28.0588 25.0033 28.0978C24.414 28.0588 23.1598 28.2294 23.0974 28.6014C23.035 28.9734 25.2315 29.477 23.5899 30.299C21.9483 31.121 21.1669 28.7086 21.1669 28.7086C21.093 28.8256 19.2364 32.0698 22.0927 31.3875ZM28.8397 29.6476C29.5341 31.3826 27.1161 30.8611 27.1161 30.8611C28.2504 30.9781 28.8397 29.6476 28.8397 29.6476ZM24.1792 28.7086C24.0495 28.4909 24.6717 28.3983 25 28.3659C25.3284 28.3983 25.9538 28.4909 25.8208 28.7086C25.6452 29.0027 24.6422 30.0505 25.7322 30.4696C25.484 30.4649 25.2364 30.4949 24.9967 30.559C24.7571 30.4949 24.5095 30.4649 24.2613 30.4696C25.3546 30.0505 24.3516 29.0027 24.1792 28.7086ZM21.1636 29.6476C21.1636 29.6476 21.7529 30.9781 22.8873 30.8611C22.884 30.8611 20.4659 31.3826 21.1603 29.6476H21.1636Z" fill="#696969"/>
<path d="M16.956 14.1805C17.5109 14.1106 18.0198 13.3098 18.4072 12.4618L18.1511 12.6892V12.3886L17.5487 13.2367L17.9312 11.7616L16.388 13.0027L16.5522 12.2311L15.4786 12.8062L15.5705 11.7096L15.0288 12.7022L15.1092 11.9192L14.7267 12.2717L14.8187 10.665L13.7369 11.6706V11.1751L13.0507 11.4221L13.2887 10.0656L12.2151 11.284V10.3547L11.5387 10.9266L11.7587 9.30205L10.6687 9.91612L10.782 9.22082L10.255 9.58634L10.4307 8.66361L9.58688 9.16721L9.67388 8.76758L9.11081 8.66361L10.0088 7.83023L8.5855 8.31759V7.69214H8.09302L8.35731 7.13493H7.82872L8.4673 6.02863H7.49055L7.68918 5.57214H7.41175L7.75485 5.06366L7.33295 5.19362L7.84678 4.01909L7.33295 3.82252L7.9896 3.09149L7.7926 2.96152C7.7926 2.68698 8.5855 1.49945 8.5855 1.49945C1.60868 8.04304 15.7511 14.33 16.956 14.1805Z" fill="#221600"/>
<path d="M8.5231 3.45537C8.50015 2.82168 8.57601 2.18826 8.748 1.57742C8.51375 2.19463 8.38665 2.84659 8.37207 3.50573C8.41968 3.49111 8.47385 3.47324 8.5231 3.45537Z" fill="white"/>
<path d="M8.77458 4.93206C8.65042 4.53751 8.57113 4.13048 8.53818 3.71854H8.37402C8.37636 4.19828 8.44766 4.67526 8.58579 5.13512C8.65251 5.07098 8.71554 5.00319 8.77458 4.93206Z" fill="white"/>
<path d="M9.76119 6.73528C9.40779 6.30809 9.12166 5.83051 8.91248 5.3187C8.83369 5.35768 8.74832 5.39342 8.67773 5.42591C8.88909 5.98388 9.2055 6.49709 9.61016 6.93835C9.66598 6.87337 9.71523 6.80514 9.76119 6.73528Z" fill="white"/>
<path d="M11.5981 8.29158C11.017 7.94407 10.4867 7.51936 10.0221 7.02933C9.95648 7.07806 9.89246 7.12355 9.83008 7.16579C10.3369 7.67266 10.9009 8.12018 11.5111 8.49952C11.539 8.43292 11.5718 8.36306 11.5981 8.29158Z" fill="white"/>
<path d="M14.1734 9.44174C13.4018 9.20028 12.6562 8.88414 11.9474 8.49789C11.8948 8.55963 11.8423 8.61648 11.7832 8.67172C12.5138 9.09441 13.2833 9.44744 14.0814 9.72604C14.1192 9.63181 14.1471 9.53597 14.1734 9.44174Z" fill="white"/>
<path d="M16.6098 10.0428C15.9203 9.91772 15.2965 9.76989 14.7072 9.60419C14.6382 9.69516 14.5677 9.78451 14.4971 9.86899C15.1793 10.0909 15.8751 10.2694 16.5803 10.4035C16.5967 10.2767 16.6049 10.1565 16.6098 10.0428Z" fill="white"/>
<path d="M19.151 10.3888C18.5929 10.3385 18.0659 10.2751 17.5636 10.202C17.5157 10.3188 17.4609 10.4327 17.3994 10.5432C17.9526 10.6244 18.5075 10.6813 19.0542 10.7056C19.1182 10.5107 19.151 10.3888 19.151 10.3888Z" fill="white"/>
<path d="M23.5835 30.299C25.2251 29.477 23.0286 28.9994 23.091 28.6014C23.1534 28.2034 24.4043 28.0588 24.9969 28.0978C25.5862 28.0588 26.8404 28.2294 26.9028 28.6014C26.9652 28.9734 24.7687 29.477 26.4103 30.299C28.0519 31.121 28.8333 28.7086 28.8333 28.7086C28.8333 28.7086 27.827 30.7604 26.7239 30.1934C25.6207 29.6265 27.8024 28.7671 27.5874 28.2213C27.3723 27.6754 25.0002 27.8687 25.0002 27.8687C25.0002 27.8687 22.6231 27.6722 22.4081 28.218C22.193 28.7639 24.378 29.6216 23.2716 30.1902C22.1651 30.7588 21.1621 28.7054 21.1621 28.7054C21.1621 28.7054 21.9337 31.1227 23.5835 30.299Z" fill="#424446"/>
<path d="M21.4327 24.1372C22.9364 22.8376 22.4078 22.3356 22.4078 22.3356C21.587 22.9854 21.8283 21.7621 21.1602 18.4985C20.492 15.2348 17.3943 17.5839 17.3943 17.5839C16.3897 15.0951 12.1954 14.3982 12.1954 14.3982C11.6438 17.064 15.8069 17.5514 15.8069 17.5514C15.8069 17.5514 12.7716 16.6124 12.701 15.1731C12.701 15.1731 15.3883 15.5565 16.9412 18.3588C17.0085 18.466 17.0693 18.5764 17.1267 18.6837C17.1842 18.7909 17.2334 18.9062 17.2811 19.0086C17.3237 19.1093 17.3615 19.2068 17.396 19.2994C17.3969 19.3053 17.3969 19.3113 17.396 19.3172L17.4206 19.3822C17.5125 19.6421 17.57 19.8517 17.5847 19.9394V19.9557C17.5842 19.9643 17.5842 19.973 17.5847 19.9817C17.5847 19.9817 17.6619 16.4077 19.6417 18.3815C19.7582 18.4985 19.8666 18.6138 19.97 18.7308C19.8244 18.7272 19.6795 18.7529 19.5442 18.8063C19.4089 18.8598 19.286 18.9399 19.1829 19.0419C19.0799 19.1438 18.9988 19.2653 18.9447 19.3992C18.8906 19.5331 18.8645 19.6764 18.8681 19.8205C18.8716 19.9647 18.9048 20.1066 18.9654 20.2376C19.0261 20.3687 19.1131 20.4862 19.221 20.583C19.329 20.6798 19.4557 20.7539 19.5935 20.8008C19.7313 20.8477 19.8772 20.8663 20.0225 20.8557C20.1923 20.8571 20.3604 20.8231 20.5159 20.7559C20.6715 20.6887 20.811 20.5899 20.9254 20.4658C21.1629 21.4035 21.0461 22.3949 20.5971 23.2535C19.5054 25.4401 18.9555 24.9966 19.8469 29.3763C19.8863 29.3925 19.929 25.4433 21.4327 24.1372ZM19.6729 20.1003C19.251 19.6827 19.4627 19.0898 20.1046 18.9078C20.427 19.2506 20.6726 19.657 20.8253 20.1003C20.8253 20.1003 20.0948 20.5178 19.6729 20.1003Z" fill="#424446"/>
<path d="M23.9921 11.8655C23.7278 11.474 23.2534 11.6836 23.0941 12.6502C22.9349 13.6168 21.4854 15.4119 21.4854 16.0178C21.4854 16.6238 22.0123 16.9048 22.751 16.9308C23.3223 16.9503 24.4123 16.9812 25 17.1469C25.5877 16.9844 26.6778 16.9503 27.249 16.9308C27.9878 16.9048 28.5147 16.6189 28.5147 16.0178C28.5147 15.4168 27.0635 13.6152 26.9059 12.6502C26.7483 11.6852 26.2723 11.474 26.008 11.8655C25.8438 12.1108 25.3513 12.0491 25 11.9695C24.652 12.0491 24.1562 12.1108 23.9921 11.8655ZM25 12.6583C25.0499 12.6576 25.0991 12.6695 25.143 12.6928C25.187 12.7161 25.2242 12.7501 25.2512 12.7915L26.9962 15.5418C27.0205 15.5839 27.0328 15.6317 27.0317 15.6801C27.0307 15.7285 27.0163 15.7757 26.9901 15.8167C26.9639 15.8576 26.927 15.8907 26.8832 15.9124C26.8395 15.9341 26.7906 15.9436 26.7418 15.9398H23.2583C23.2095 15.9436 23.1606 15.9341 23.1168 15.9124C23.0731 15.8907 23.0361 15.8576 23.01 15.8167C22.9838 15.7757 22.9694 15.7285 22.9683 15.6801C22.9672 15.6317 22.9795 15.5839 23.0038 15.5418L24.7489 12.7915C24.7759 12.7501 24.8131 12.7161 24.857 12.6928C24.901 12.6695 24.9502 12.6576 25 12.6583Z" fill="#424446"/>
<path d="M19.9551 13.8767C20.4821 11.7356 20.7053 10.5529 24.9998 10.4782C24.9998 10.4782 20.1899 10.0152 19.7089 10.886C19.2279 11.7567 18.783 14.2049 17.4484 14.6695C17.111 14.7858 16.7471 14.8044 16.3994 14.7231C16.4815 14.7604 19.4347 15.9853 19.9551 13.8767Z" fill="#424446"/>
<path d="M22.8841 30.8611C21.7498 30.9781 21.1605 29.6476 21.1605 29.6476C20.4661 31.3826 22.8841 30.8611 22.8841 30.8611Z" fill="#A4A4A4"/>
<path d="M24.2644 30.4696C24.5126 30.4648 24.7602 30.4949 24.9999 30.559C25.2395 30.4949 25.4871 30.4648 25.7353 30.4696C24.6453 30.0505 25.6483 29.0075 25.8239 28.7086C25.9536 28.4909 25.3315 28.3983 25.0031 28.3658C24.6748 28.3983 24.0494 28.4909 24.1823 28.7086C24.3514 29.0027 25.3544 30.0505 24.2644 30.4696Z" fill="#A4A4A4"/>
<path d="M23.2876 26.2702C23.2876 26.2702 24.2594 26.0655 24.9998 26.1987C25.7402 26.0655 26.712 26.2702 26.712 26.2702C26.6053 25.7162 25.5202 24.5547 24.9998 24.0219C24.4794 24.5547 23.3943 25.7162 23.2876 26.2702Z" fill="#A4A4A4"/>
<path d="M20.6955 16.5572C20.6955 16.5572 20.6151 15.4444 21.1076 14.7702C21.6001 14.096 21.5295 11.5731 24.6239 10.717C24.6239 10.717 21.564 11.115 21.4852 12.2977C21.4064 13.4803 20.7169 14.8969 19.0654 15.7271C19.0654 15.7222 20.3032 15.6881 20.6955 16.5572Z" fill="#A4A4A4"/>
<path d="M17.6734 16.5572C17.6193 16.1835 18.1429 15.8099 18.1429 15.8099C16.219 14.7507 13.4644 14.2812 13.4644 14.2812C16.8805 15.2608 17.6734 16.5572 17.6734 16.5572Z" fill="#A4A4A4"/>
<path d="M12.0051 14.0343C12.0051 14.0343 12.0659 13.2415 11.5389 13.9563C11.0119 14.6711 12.1102 16.2306 12.7176 16.5556C12.7176 16.5572 11.3009 15.0269 12.0051 14.0343Z" fill="#A4A4A4"/>
<path d="M22.8841 23.4338C22.3917 23.6239 20.732 25.4303 20.7911 25.9746C20.7911 25.9746 22.1618 23.9504 23.393 24.0251C23.393 24.0219 23.3766 23.2372 22.8841 23.4338Z" fill="#A4A4A4"/>
<path d="M19.6731 20.1003C20.095 20.5178 20.8222 20.1003 20.8222 20.1003C20.6696 19.657 20.424 19.2507 20.1016 18.9079C19.463 19.0898 19.2545 19.6828 19.6731 20.1003Z" fill="#A4A4A4"/>
<path d="M3.79541 29.0319L5.15794 29.1521L5.28763 29.0368C8.88475 25.7609 12.2616 22.2558 15.3966 18.544C15.0521 18.529 14.7106 18.4745 14.3788 18.3815C13.4103 20.3293 3.79541 29.0319 3.79541 29.0319Z" fill="#221600"/>
<path d="M20.8584 9.55871C21.2113 9.59445 21.584 9.6107 21.9156 9.61557C23.1196 7.67063 24.1516 5.62642 25.0002 3.50573C25.8487 5.62642 26.8807 7.67063 28.0847 9.61557C28.4131 9.61557 28.789 9.59445 29.1419 9.55871C27.2065 7.48257 25.0002 2.4108 25.0002 2.4108C25.0002 2.4108 22.7939 7.47932 20.8584 9.55871Z" fill="#221600"/>
<path d="M11.3994 29.9124L13.1362 30.8156L11.3994 28.7086V29.9124Z" fill="#FFA929"/>
<path d="M12.2678 27.2677L11.3994 25.5246V28.7086L12.2678 27.2677Z" fill="#FFA929"/>
<path d="M10.5309 27.2677L8.58887 27.5455L11.3993 28.7086L10.5309 27.2677Z" fill="#FFA929"/>
<path d="M9.9942 28.9019L9.6626 30.8156L11.3994 28.7086L9.9942 28.9019Z" fill="#FFA929"/>
<path d="M11.3994 28.7086L12.8046 28.902L14.2098 27.5455L11.3994 28.7086Z" fill="#FFA929"/>
<path d="M11.3992 25.5246L10.5308 27.2677L11.3992 28.7086V25.5246Z" fill="#221600"/>
<path d="M8.58887 27.5455L9.99408 28.902L11.3993 28.7086L8.58887 27.5455Z" fill="#221600"/>
<path d="M9.6626 30.8156L11.3994 29.9124V28.7086L9.6626 30.8156Z" fill="#221600"/>
<path d="M14.2098 27.5455L12.2678 27.2677L11.3994 28.7086L14.2098 27.5455Z" fill="#221600"/>
<path d="M13.1362 30.8156L12.8046 28.9019L11.3994 28.7086L13.1362 30.8156Z" fill="#221600"/>
<path d="M16.7181 22.6638L16.0073 21.239V23.8432L16.7181 22.6638Z" fill="#FFA929"/>
<path d="M17.1564 24.0008L18.3056 22.8912L16.0073 23.8432L17.1564 24.0008Z" fill="#FFA929"/>
<path d="M16.0074 23.8432L14.8583 24.0007L14.5874 25.5652L16.0074 23.8432Z" fill="#FFA929"/>
<path d="M15.2979 22.6638L13.7104 22.8912L16.0071 23.8432L15.2979 22.6638Z" fill="#FFA929"/>
<path d="M16.0073 24.826L17.4273 25.5652L16.0073 23.8432V24.826Z" fill="#FFA929"/>
<path d="M16.0075 21.239L15.2983 22.6638L16.0075 23.8432V21.239Z" fill="#221600"/>
<path d="M13.7104 22.8912L14.8579 24.0008L16.0071 23.8432L13.7104 22.8912Z" fill="#221600"/>
<path d="M14.5874 25.5652L16.0074 24.826V23.8432L14.5874 25.5652Z" fill="#221600"/>
<path d="M18.3056 22.8912L16.7181 22.6638L16.0073 23.8432L18.3056 22.8912Z" fill="#221600"/>
<path d="M17.4273 25.5652L17.1564 24.0007L16.0073 23.8432L17.4273 25.5652Z" fill="#221600"/>
<path d="M25.458 7.68238L25 6.76453V8.44104L25.458 7.68238Z" fill="#FFA929"/>
<path d="M25 8.44103L25.7404 8.54337L26.4807 7.82858L25 8.44103Z" fill="#FFA929"/>
<path d="M24.2595 8.54339L24.0854 9.55059L24.9998 8.44104L24.2595 8.54339Z" fill="#FFA929"/>
<path d="M24.5437 7.68237L23.521 7.82858L25.0001 8.44103L24.5437 7.68237Z" fill="#FFA929"/>
<path d="M25 9.07461L25.9144 9.55059L25 8.44104V9.07461Z" fill="#FFA929"/>
<path d="M24.9998 6.76453L24.5435 7.68238L24.9998 8.44104V6.76453Z" fill="#221600"/>
<path d="M23.521 7.82858L24.2597 8.54337L25.0001 8.44103L23.521 7.82858Z" fill="#221600"/>
<path d="M24.0854 9.55059L24.9998 9.07461V8.44104L24.0854 9.55059Z" fill="#221600"/>
<path d="M26.4807 7.82858L25.458 7.68237L25 8.44103L26.4807 7.82858Z" fill="#221600"/>
<path d="M25.9144 9.55059L25.7404 8.54339L25 8.44104L25.9144 9.55059Z" fill="#221600"/>
<path d="M16.8809 31.6929L17.8658 31.8277L18.8491 30.8774L16.8809 31.6929Z" fill="#FFA929"/>
<path d="M16.273 30.6841L14.9121 30.8774L16.8804 31.6929L16.273 30.6841Z" fill="#FFA929"/>
<path d="M15.8972 31.8277L15.6641 33.1679L16.8805 31.6929L15.8972 31.8277Z" fill="#FFA929"/>
<path d="M17.4899 30.684L16.8809 29.4624V31.6929L17.4899 30.684Z" fill="#FFA929"/>
<path d="M16.8809 32.536L18.0973 33.1679L16.8809 31.6929V32.536Z" fill="#FFA929"/>
<path d="M16.8808 29.4624L16.2734 30.684L16.8808 31.6929V29.4624Z" fill="#221600"/>
<path d="M14.9121 30.8774L15.8971 31.8277L16.8804 31.6929L14.9121 30.8774Z" fill="#221600"/>
<path d="M15.6641 33.1679L16.8805 32.536V31.6929L15.6641 33.1679Z" fill="#221600"/>
<path d="M18.8491 30.8774L17.4899 30.6841L16.8809 31.6929L18.8491 30.8774Z" fill="#221600"/>
<path d="M18.0973 33.1679L17.8658 31.8277L16.8809 31.6929L18.0973 33.1679Z" fill="#221600"/>
<path d="M36.5404 18.0728C36.2409 18.1954 35.9339 18.299 35.6211 18.3831C36.5896 20.3326 46.2045 29.0319 46.2045 29.0319L48.5225 28.707C44.2215 26.2345 40.1027 22.2446 36.5404 18.0728Z" fill="#FFA929"/>
<path d="M31.601 12.4617L31.8571 12.6892V12.3886L32.4595 13.2366L32.077 11.7616L33.6202 13.0027L33.4478 12.231L34.5296 12.8061L34.4377 11.7096L34.9794 12.7022L34.899 11.9191L35.2815 12.2717L35.1895 10.665L36.2713 11.6706V11.1751L36.9575 11.422L36.7195 10.0656L37.7931 11.2839V10.3547L38.4612 10.9266L38.2413 9.30203L39.3313 9.9161L39.218 9.2208L39.745 9.58632L39.5693 8.66359L40.4131 9.16719L40.3261 8.76756L40.8892 8.66359L39.9912 7.83021L41.4145 8.31756V7.69212H41.907L41.6427 7.13491H42.1713L41.5343 6.01724H42.5111L42.3124 5.56074H42.5899L42.2468 5.05227L42.6687 5.18223L42.1549 4.0077L42.6687 3.81113L42.012 3.08009L42.209 2.95013C42.209 2.67559 41.4161 1.48806 41.4161 1.48806C41.3455 1.42308 41.2241 1.48806 41.252 1.57253C41.4862 2.18974 41.6133 2.8417 41.6279 3.50084C41.7286 3.53339 41.8318 3.55783 41.9365 3.57395C42.3978 3.6438 42.1171 3.71691 41.6295 3.71691C41.6272 4.19665 41.5559 4.67363 41.4178 5.13349C41.5494 5.26638 41.6985 5.38113 41.861 5.47464C42.3141 5.73457 41.8709 5.65659 41.3209 5.42104C41.1096 5.979 40.7932 6.49222 40.3885 6.93347C40.4652 7.03553 40.5503 7.13115 40.6429 7.21938C41.1108 7.66938 40.7283 7.54429 40.1718 7.16253C39.665 7.6694 39.1009 8.11691 38.4908 8.49626C38.5443 8.61641 38.6074 8.73212 38.6796 8.84229C39.0325 9.38488 38.6796 9.16719 38.2101 8.66684C37.4795 9.08953 36.7099 9.44256 35.9118 9.72116C35.9826 9.92295 36.0768 10.1159 36.1925 10.2962C36.6029 10.9249 36.0563 10.5318 35.4982 9.86411C34.8177 10.0874 34.1235 10.2676 33.4199 10.4035C33.4678 10.9114 33.6317 11.4019 33.8992 11.8379C34.4689 12.7119 33.1868 11.6105 32.5991 10.5383C32.0459 10.6195 31.491 10.6764 30.9443 10.7007C31.1262 11.3006 31.3455 11.8887 31.601 12.4617Z" fill="#FFA929"/>
<path d="M32.563 19.3969C32.4711 19.6568 32.4136 19.8663 32.3906 19.9541C32.4136 19.8663 32.4711 19.6633 32.563 19.3969Z" fill="#696969"/>
<path d="M24.9998 32.112C24.0822 32.0665 23.3336 32.7423 23.1104 32.9665C23.3962 33.092 23.7015 33.1683 24.0132 33.1923C24.2711 32.8999 24.6159 32.6958 24.9982 32.6091C25.3805 32.6958 25.7253 32.8999 25.9832 33.1923C26.2949 33.1683 26.6002 33.092 26.886 32.9665C26.6661 32.7423 25.9175 32.0665 24.9998 32.112Z" fill="#696969"/>
<path d="M42.0105 3.08009L42.6671 3.81113L42.1533 4.0077L42.6671 5.18223L42.2452 5.05227L42.5883 5.56075H42.3109L42.5095 6.01724H41.5328L42.1714 7.12354H41.6428L41.9071 7.68075H41.4146V8.30619L39.9913 7.81884L40.8893 8.65222L40.3262 8.75619L40.4132 9.15582L39.5694 8.65222L39.7451 9.57495L39.2181 9.20943L39.3314 9.90473L38.2414 9.29553L38.4613 10.9201L37.7932 10.3482V11.2775L36.7196 10.0591L36.9576 11.4155L36.2714 11.1686V11.6641L35.1896 10.6585L35.2816 12.2652L34.8991 11.9126L34.9795 12.6957L34.4378 11.7031L34.5297 12.7996L33.4479 12.2246L33.6203 12.9962L32.0771 11.7551L32.4596 13.2301L31.8572 12.3821V12.6827L31.6011 12.4552C31.9885 13.3032 32.4974 14.1041 33.0523 14.174C34.249 14.3234 48.3914 8.03652 41.4146 1.48318C41.4146 1.48318 42.2075 2.66909 42.2075 2.94526L42.0105 3.08009Z" fill="#221600"/>
<path d="M41.4769 3.45537C41.5261 3.47324 41.5753 3.49111 41.6262 3.50573C41.6122 2.84668 41.4856 2.19473 41.252 1.57742C41.4239 2.18826 41.4998 2.82168 41.4769 3.45537Z" fill="white"/>
<path d="M41.462 3.71854C41.429 4.13048 41.3497 4.53751 41.2256 4.93206C41.2851 5.00434 41.3486 5.07323 41.416 5.13837C41.5541 4.67851 41.6254 4.20153 41.6278 3.72178L41.462 3.71854Z" fill="white"/>
<path d="M41.0876 5.3187C40.8795 5.8303 40.5944 6.30788 40.2422 6.73528C40.2882 6.80514 40.3374 6.87337 40.3899 6.93835C40.7946 6.49709 41.111 5.98388 41.3224 5.42591C41.2419 5.39342 41.1631 5.35768 41.0876 5.3187Z" fill="white"/>
<path d="M39.9778 7.03094C39.5132 7.52098 38.983 7.94568 38.4019 8.2932C38.4281 8.36305 38.456 8.43291 38.4889 8.50114C39.099 8.12179 39.663 7.67427 40.1699 7.1674C40.1075 7.12517 40.0435 7.07968 39.9778 7.03094Z" fill="white"/>
<path d="M38.0523 8.49789C37.346 8.88365 36.6032 9.19979 35.8345 9.44174C35.8607 9.53597 35.8886 9.63181 35.9248 9.72604C36.7229 9.44744 37.4924 9.09441 38.223 8.67172C38.1573 8.61648 38.1048 8.55963 38.0523 8.49789Z" fill="white"/>
<path d="M35.2928 9.60419C34.7116 9.76664 34.0796 9.91772 33.3901 10.0428C33.3901 10.1565 33.4033 10.2767 33.4197 10.4035C34.126 10.2695 34.8229 10.091 35.5062 9.86899C35.4323 9.78451 35.3617 9.69516 35.2928 9.60419Z" fill="white"/>
<path d="M32.5988 10.5432C32.5373 10.4327 32.4825 10.3188 32.4346 10.202C31.9323 10.2751 31.4053 10.3385 30.8472 10.3888C30.8472 10.3888 30.88 10.5107 30.9424 10.7138C31.4907 10.6813 32.0455 10.6244 32.5988 10.5432Z" fill="white"/>
<path d="M29.9152 32.242C30.9002 30.325 28.8892 28.746 28.8399 28.7086C28.9072 28.8256 30.7639 32.0698 27.9075 31.3875C26.3135 31.0057 25.4533 31.0707 25.0002 31.2071C24.5471 31.0707 23.6869 31.0057 22.0929 31.3875C19.2365 32.0698 21.0932 28.8256 21.1605 28.7086C21.1113 28.746 19.1052 30.325 20.0853 32.242C20.5777 33.2053 22.2325 32.5669 22.4081 32.4304C22.9367 32.0292 24.1417 31.4362 25.0002 31.6815C25.8588 31.4362 27.0637 32.0292 27.5923 32.4304C27.768 32.5701 29.4211 33.2053 29.9152 32.242Z" fill="#424446"/>
<path d="M25.0002 31.9788C24.1417 31.7351 22.5674 32.6627 22.5674 32.6627L22.7315 32.7667C22.8523 32.8424 22.9785 32.9091 23.1091 32.9665C23.3324 32.7423 24.0809 32.0665 24.9986 32.112C25.9163 32.0665 26.6648 32.7423 26.8881 32.9665C27.0187 32.9091 27.1449 32.8424 27.2657 32.7667L27.4298 32.6627C27.4298 32.6627 25.8588 31.7351 25.0002 31.9788Z" fill="#424446"/>
<path d="M37.8047 14.3982C37.8047 14.3982 33.6038 15.0951 32.5992 17.5839C32.5992 17.5839 29.5014 15.2348 28.8333 18.4985C28.1652 21.7621 28.4049 22.9887 27.5857 22.3356C27.5857 22.3356 27.0571 22.8327 28.5608 24.1372C30.0645 25.4417 30.1072 29.3925 30.1072 29.3925C31.0019 25.0063 30.4486 25.4563 29.357 23.2697C28.908 22.4111 28.7912 21.4198 29.0287 20.482C29.143 20.6061 29.2826 20.705 29.4381 20.7722C29.5937 20.8393 29.7618 20.8733 29.9315 20.8719C30.0768 20.8826 30.2228 20.8639 30.3606 20.817C30.4984 20.7702 30.6251 20.6961 30.733 20.5993C30.841 20.5025 30.928 20.385 30.9886 20.2539C31.0493 20.1228 31.0824 19.9809 31.086 19.8368C31.0896 19.6926 31.0635 19.5493 31.0094 19.4154C30.9552 19.2816 30.8742 19.16 30.7711 19.0581C30.6681 18.9562 30.5452 18.8761 30.4099 18.8226C30.2746 18.7691 30.1297 18.7434 29.9841 18.747C30.0826 18.6301 30.1909 18.5147 30.3124 18.3977C32.302 16.4142 32.3874 19.9963 32.3874 19.9963C32.3879 19.9876 32.3879 19.9789 32.3874 19.9703V19.954C32.4104 19.8663 32.4678 19.6568 32.5598 19.3968L32.5844 19.3319C32.5835 19.3259 32.5835 19.3199 32.5844 19.314C32.6189 19.2214 32.6566 19.1239 32.6993 19.0232C32.7469 18.9143 32.7978 18.8039 32.8536 18.6983C32.9094 18.5927 32.9718 18.4773 33.0391 18.3734C34.5921 15.5711 37.2794 15.1877 37.2794 15.1877C37.2219 16.6124 34.1931 17.5514 34.1931 17.5514C34.1931 17.5514 38.3563 17.064 37.8047 14.3982ZM30.3206 20.1003C29.8987 20.5178 29.1715 20.1003 29.1715 20.1003C29.3241 19.657 29.5697 19.2506 29.8921 18.9078C30.5373 19.0898 30.7458 19.6827 30.3272 20.1003H30.3206Z" fill="#424446"/>
<path d="M30.0447 13.8767C30.565 15.9886 33.5183 14.7605 33.6069 14.7231C33.2592 14.8044 32.8953 14.7858 32.558 14.6695C31.2168 14.2049 30.7686 11.76 30.2909 10.886C29.8132 10.012 25 10.4782 25 10.4782C29.2944 10.5529 29.5177 11.7356 30.0447 13.8767Z" fill="#424446"/>
<path d="M27.4331 18.0891C27.2591 17.7642 25.7159 17.938 25.0002 18.0371C24.2845 17.938 22.7414 17.7691 22.5673 18.0891C22.3392 18.5066 22.7315 19.9346 23.0795 20.6997C23.4275 21.4649 24.1384 22.3713 23.7838 22.9627C23.5031 23.4322 24.4174 23.3103 25.0002 22.9968C25.583 23.3103 26.4973 23.4322 26.2166 22.9627C25.862 22.3713 26.5712 21.4649 26.9209 20.6997C27.2705 19.9346 27.6612 18.5066 27.4331 18.0891Z" fill="#A4A4A4"/>
<path d="M28.8399 29.6476C28.8399 29.6476 28.2506 30.9781 27.1162 30.8611C27.1162 30.8611 29.5343 31.3826 28.8399 29.6476Z" fill="#A4A4A4"/>
<path d="M25.0001 32.6091C24.6178 32.6958 24.273 32.8999 24.0151 33.1923C24.3469 33.2178 24.6806 33.1837 25.0001 33.0916C25.3196 33.1837 25.6533 33.2178 25.9851 33.1923C25.7272 32.8999 25.3824 32.6958 25.0001 32.6091Z" fill="#A4A4A4"/>
<path d="M28.8923 14.7653C29.3848 15.4444 29.3043 16.5523 29.3043 16.5523C29.6967 15.6832 30.9345 15.7173 30.9345 15.7173C29.283 14.8823 28.5935 13.4722 28.5147 12.2879C28.4359 11.1036 25.376 10.7072 25.376 10.7072C28.4704 11.5682 28.3998 14.0863 28.8923 14.7653Z" fill="#A4A4A4"/>
<path d="M32.3264 16.5572C32.3264 16.5572 33.1193 15.2576 36.5355 14.2828C36.5355 14.2828 33.7809 14.7523 31.8569 15.8115C31.8569 15.8099 32.3872 16.1835 32.3264 16.5572Z" fill="#A4A4A4"/>
<path d="M38.4614 13.9563C37.9344 13.2415 37.9952 14.0343 37.9952 14.0343C38.6994 15.0269 37.2827 16.5572 37.2827 16.5572C37.8901 16.2274 38.9883 14.6695 38.4614 13.9563Z" fill="#A4A4A4"/>
<path d="M26.6069 24.0219C27.8381 23.9504 29.2089 25.9713 29.2089 25.9713C29.268 25.4271 27.6083 23.6206 27.1158 23.4306C26.6234 23.2405 26.6069 24.0219 26.6069 24.0219Z" fill="#A4A4A4"/>
<path d="M29.1748 20.1003C29.1748 20.1003 29.9053 20.5178 30.3239 20.1003C30.7425 19.6828 30.5341 19.0898 29.8922 18.9079C29.5709 19.251 29.3265 19.6573 29.1748 20.1003Z" fill="#A4A4A4"/>
<path d="M25.0001 36.1213C10.7066 38.0009 3.79549 29.0319 3.79549 29.0319L1.47754 28.707C1.47754 28.707 11.1285 39.6725 25.0001 37.1659C38.8717 39.6725 48.5227 28.7086 48.5227 28.7086L46.2047 29.0335C46.2047 29.0335 39.2936 38.0009 25.0001 36.1213Z" fill="#221600"/>
<path d="M35.6213 18.3831C35.2896 18.4762 34.948 18.5307 34.6035 18.5456C37.7385 22.2575 41.1154 25.7625 44.7125 29.0384L44.8422 29.1538L46.2047 29.0335C46.2047 29.0335 36.5899 20.3293 35.6213 18.3831Z" fill="#221600"/>
<path d="M38.6008 25.5246L37.7324 27.2677L38.6008 28.7086V25.5246Z" fill="#FFA929"/>
<path d="M41.411 27.5455L39.469 27.2677L38.6006 28.7086L41.411 27.5455Z" fill="#FFA929"/>
<path d="M35.79 27.5455L37.1953 28.902L38.6005 28.7086L35.79 27.5455Z" fill="#FFA929"/>
<path d="M40.3374 30.8156L40.0058 28.9019L38.6006 28.7086L40.3374 30.8156Z" fill="#FFA929"/>
<path d="M36.8638 30.8156L38.6006 29.9124V28.7086L36.8638 30.8156Z" fill="#FFA929"/>
<path d="M39.469 27.2677L38.6006 25.5246V28.7086L39.469 27.2677Z" fill="#221600"/>
<path d="M38.6006 28.7086L40.0058 28.902L41.411 27.5455L38.6006 28.7086Z" fill="#221600"/>
<path d="M38.6006 29.9124L40.3374 30.8156L38.6006 28.7086V29.9124Z" fill="#221600"/>
<path d="M37.7321 27.2677L35.79 27.5455L38.6005 28.7086L37.7321 27.2677Z" fill="#221600"/>
<path d="M37.1954 28.9019L36.8638 30.8156L38.6006 28.7086L37.1954 28.9019Z" fill="#221600"/>
<path d="M33.9929 21.239L33.2837 22.6638L33.9929 23.8432V21.239Z" fill="#FFA929"/>
<path d="M31.6943 22.8912L32.8435 24.0008L33.9926 23.8432L31.6943 22.8912Z" fill="#FFA929"/>
<path d="M32.5728 25.5652L33.9927 24.826V23.8432L32.5728 25.5652Z" fill="#FFA929"/>
<path d="M35.4127 25.5652L35.1418 24.0007L33.9927 23.8432L35.4127 25.5652Z" fill="#FFA929"/>
<path d="M33.9927 23.8432L36.2909 22.8912L34.7035 22.6638L33.9927 23.8432Z" fill="#FFA929"/>
<path d="M34.7035 22.6638L33.9927 21.239V23.8432L34.7035 22.6638Z" fill="#221600"/>
<path d="M35.1418 24.0008L36.2909 22.8912L33.9927 23.8432L35.1418 24.0008Z" fill="#221600"/>
<path d="M33.9927 24.826L35.4127 25.5652L33.9927 23.8432V24.826Z" fill="#221600"/>
<path d="M33.2834 22.6638L31.6943 22.8912L33.9926 23.8432L33.2834 22.6638Z" fill="#221600"/>
<path d="M32.8436 24.0007L32.5728 25.5652L33.9927 23.8432L32.8436 24.0007Z" fill="#221600"/>
<path d="M33.1193 29.4624L32.5103 30.684L33.1193 31.6929V29.4624Z" fill="#FFA929"/>
<path d="M34.3356 33.1679L34.1025 31.8277L33.1191 31.6929L34.3356 33.1679Z" fill="#FFA929"/>
<path d="M31.9028 33.1679L33.1193 32.536V31.6929L31.9028 33.1679Z" fill="#FFA929"/>
<path d="M35.0874 30.8774L33.7265 30.6841L33.1191 31.6929L35.0874 30.8774Z" fill="#FFA929"/>
<path d="M31.1509 30.8774L32.1342 31.8277L33.1192 31.6929L31.1509 30.8774Z" fill="#FFA929"/>
<path d="M33.7265 30.684L33.1191 29.4624V31.6929L33.7265 30.684Z" fill="#221600"/>
<path d="M33.1191 31.6929L34.1025 31.8277L35.0874 30.8774L33.1191 31.6929Z" fill="#221600"/>
<path d="M33.1191 32.536L34.3356 33.1679L33.1191 31.6929V32.536Z" fill="#221600"/>
<path d="M32.5101 30.6841L31.1509 30.8774L33.1192 31.6929L32.5101 30.6841Z" fill="#221600"/>
<path d="M32.1343 31.8277L31.9028 33.1679L33.1193 31.6929L32.1343 31.8277Z" fill="#221600"/>
</g>
<defs>
<clipPath id="clip0_310_5105">
<rect width="50" height="39" fill="white"/>
</clipPath>
</defs>
</svg>
