<svg width="48" height="45" viewBox="0 0 48 45" fill="none" xmlns="http://www.w3.org/2000/svg">
<g clip-path="url(#clip0_310_4974)">
<path d="M13.6387 36.3153C10.3555 34.861 6.58447 32.4989 6.58447 27.0998V12.14C6.58657 10.1152 7.39564 8.17395 8.83412 6.74222C10.2726 5.3105 12.223 4.50523 14.2573 4.50314H33.7428C35.7772 4.50523 37.7276 5.3105 39.1661 6.74222C40.6045 8.17395 41.4136 10.1152 41.4157 12.14V25.5034C41.4143 27.7906 40.7474 30.0284 39.4955 31.9464C38.2437 33.8644 36.4605 35.3805 34.3614 36.3114L24.0001 40.9053L13.6387 36.3153Z" fill="#121212"/>
<path d="M33.7425 6.18247C35.3302 6.183 36.8528 6.8107 37.9758 7.92773C39.0989 9.04475 39.7305 10.5598 39.7321 12.14V25.5034C39.731 27.4663 39.1586 29.3869 38.084 31.0329C37.0094 32.6788 35.4787 33.9797 33.6771 34.7781L23.9998 39.0701L14.3224 34.786C10.6407 33.1541 8.26742 31.1117 8.26742 27.0999V12.14C8.26795 10.5591 8.89916 9.04305 10.0223 7.92518C11.1455 6.8073 12.6686 6.17905 14.257 6.17853H33.7425M33.7425 2.82385H14.257C11.7757 2.82647 9.39689 3.80895 7.64273 5.55561C5.88857 7.30227 4.90245 9.67035 4.90088 12.14V27.0959C4.90088 33.5329 9.49666 36.3114 12.9544 37.8427L22.6317 42.1347L23.9998 42.7405L25.3678 42.1347L35.0451 37.8486C37.4417 36.786 39.4777 35.0552 40.9069 32.8654C42.3361 30.6756 43.0974 28.1206 43.0986 25.5093V12.14C43.096 9.67104 42.1094 7.30397 40.3554 5.55816C38.6014 3.81235 36.2231 2.83041 33.7425 2.8278V2.82385Z" fill="#121212"/>
<path d="M33.6772 34.786L23.9999 39.0701L14.3226 34.786C10.6408 33.1541 8.26758 31.1117 8.26758 27.0999V12.14C8.2681 10.5591 8.89932 9.04305 10.0225 7.92518C11.1456 6.8073 12.6688 6.17905 14.2572 6.17853H33.7427C35.3311 6.17905 36.8542 6.8073 37.9774 7.92518C39.1005 9.04305 39.7317 10.5591 39.7323 12.14V25.5034C39.7327 27.4677 39.161 29.39 38.0863 31.0375C37.0116 32.685 35.4801 33.987 33.6772 34.786Z" fill="#929292" fill-opacity="0.4"/>
<path d="M34.1392 6.19629C31.9186 8.86622 12.5283 33.012 12.0703 33.6257C12.7934 34.0659 13.5459 34.4562 14.3226 34.7939L23.9999 39.0701L33.6773 34.786C35.4789 33.9876 37.0096 32.6867 38.0842 31.0408C39.1587 29.3948 39.7312 27.4742 39.7323 25.5113V12.14C39.7306 10.6282 39.1521 9.17342 38.1138 8.06999C37.0754 6.96657 35.6548 6.29684 34.1392 6.19629Z" fill="#383838"/>
<path d="M33.7428 6.18246C35.3305 6.18298 36.853 6.81069 37.9761 7.92771C39.0991 9.04474 39.7308 10.5597 39.7324 12.14V25.5034C39.7313 27.4663 39.1588 29.3869 38.0843 31.0329C37.0097 32.6788 35.479 33.9797 33.6774 34.7781L24 39.0701L14.3227 34.786C10.6409 33.1541 8.26769 31.1116 8.26769 27.0998V12.14C8.26821 10.5591 8.89943 9.04304 10.0226 7.92516C11.1457 6.80729 12.6689 6.17904 14.2573 6.17851H33.7428M33.7428 5.55099H14.2573C12.5022 5.55308 10.8196 6.24795 9.5785 7.48317C8.33745 8.71839 7.63931 10.3931 7.63721 12.14V27.0959C7.63721 31.8655 10.8868 33.9473 14.0669 35.3563L23.7443 39.6404L24 39.7667L24.2558 39.6523L33.9331 35.3681C35.8463 34.5191 37.4715 33.1369 38.6125 31.3884C39.7535 29.64 40.3614 27.6001 40.3629 25.5153V12.14C40.3608 10.3931 39.6626 8.71839 38.4216 7.48317C37.1805 6.24795 35.4979 5.55308 33.7428 5.55099Z" fill="white"/>
<path d="M14.4494 22.0284C14.4494 21.9376 14.4692 21.831 14.4791 21.7403L12.9267 21.9159C8.87416 22.6026 9.19337 23.39 8.64021 24.3628C8.28975 24.9072 7.84383 25.3844 7.32373 25.7718C7.32373 25.7718 8.46772 26.2434 9.35198 26.1053C9.67119 26.054 9.9329 25.9968 10.145 25.9435C9.93094 26.1994 9.75835 26.487 9.63352 26.796C9.30638 27.5399 9.60973 28.5562 9.60973 28.5562C9.70368 28.3714 9.84466 28.2144 10.0186 28.1009C10.1926 27.9873 10.3934 27.9211 10.6011 27.9089C10.8282 27.8721 11.0609 27.8876 11.2811 27.9543C11.2294 28.5064 11.3588 29.0602 11.6499 29.533C12.1022 30.1606 12.5859 30.7652 13.0992 31.3445C13.304 30.7718 13.5444 30.2122 13.8189 29.6691C13.8189 29.6691 14.1183 29.7836 14.4811 29.9691C14.3899 28.3352 14.3602 26.6933 14.3483 25.0574C14.3253 24.0467 14.3591 23.0354 14.4494 22.0284Z" fill="#121212"/>
<path d="M33.8696 22.0284C33.8696 21.9376 33.8498 21.831 33.8399 21.7403L35.3903 21.9159C39.4429 22.6026 39.1237 23.39 39.6788 24.3628C40.0293 24.9072 40.4752 25.3844 40.9953 25.7718C40.9953 25.7718 39.8493 26.2434 38.967 26.1053C38.6478 26.054 38.3861 25.9968 38.174 25.9435C38.3895 26.1984 38.5622 26.4862 38.6855 26.796C39.0146 27.5399 38.7093 28.5562 38.7093 28.5562C38.6154 28.3714 38.4744 28.2144 38.3004 28.1009C38.1265 27.9873 37.9256 27.9211 37.718 27.9089C37.4908 27.8721 37.2581 27.8876 37.0379 27.9543C37.0896 28.5064 36.9602 29.0602 36.6691 29.533C36.2169 30.1606 35.7331 30.7652 35.2198 31.3445C35.015 30.7718 34.7746 30.2122 34.5001 29.6691C34.5001 29.6691 34.1988 29.7836 33.8359 29.9691C33.9271 28.3352 33.9589 26.6933 33.9708 25.0574C33.9927 24.0467 33.9589 23.0355 33.8696 22.0284Z" fill="#121212"/>
<path d="M24.1982 11.2835C24.1982 11.2835 24.5947 10.4172 22.6557 9.89036C20.7166 9.36348 19.0195 8.49324 18.6567 8.04529C18.6567 8.04529 18.0619 8.65505 18.3097 9.11089C17.6053 9.01301 16.8907 9.01301 16.1863 9.11089C14.852 9.28454 13.1548 9.47991 12.562 9.26678C12.562 9.26678 11.987 12.2268 15.306 13.3496C17.9072 14.2376 24.3508 13.8686 24.3508 13.8686L24.1982 11.2835Z" fill="#121212"/>
<path d="M24.1112 11.2835C24.1112 11.2835 23.7146 10.4172 25.6537 9.89036C27.5927 9.36348 29.2899 8.49324 29.6527 8.04529C29.6527 8.04529 30.2475 8.65505 29.9996 9.11089C30.704 9.01301 31.4187 9.01301 32.1231 9.11089C33.4574 9.28454 34.8076 9.76999 35.5332 9.76999C35.5332 9.76999 36.3263 12.2189 33.0034 13.3496C30.4021 14.2376 23.9585 13.8686 23.9585 13.8686L24.1112 11.2835Z" fill="#121212"/>
<path d="M14.7094 12.8859C14.4576 12.4202 13.6982 10.8139 12.4373 11.4019C11.1763 11.99 8.22215 12.2426 7.17729 11.7571C6.13243 11.2717 7.11583 9.00434 7.94259 6.62647C8.57109 4.82876 8.91607 3.29942 11.0038 1.82139C12.9488 0.440055 11.6918 -0.108532 10.6529 0.00592126C9.19563 0.165762 6.91161 0.889977 4.60381 3.04486C2.296 5.19975 0.549283 7.97821 0.117065 11.9249C-0.315153 15.8716 0.424377 18.4527 2.84123 19.5301C5.25808 20.6076 11.4876 20.4438 14.5052 18.9283C17.5228 17.4127 16.583 14.8277 16.583 14.8277L14.7094 12.8859Z" fill="#121212"/>
<path d="M33.2909 12.8859C33.5427 12.4202 34.3021 10.8139 35.5631 11.402C36.824 11.99 39.7782 12.2426 40.823 11.7572C41.8679 11.2717 40.8845 9.23326 40.0577 6.86131C39.4312 5.06557 39.0842 3.3093 36.9965 1.8293C35.0515 0.447959 36.3085 -0.100628 37.3474 0.0138253C38.8047 0.173666 40.8092 0.621613 43.1189 2.7765C45.4287 4.93138 47.451 7.99795 47.8773 11.9249C48.3036 15.8518 47.57 18.4527 45.1531 19.5301C42.7363 20.6076 36.5068 20.4438 33.4892 18.9283C30.4716 17.4127 31.4114 14.8277 31.4114 14.8277L33.2909 12.8859Z" fill="#121212"/>
<path d="M35.3011 12.3373C35.3011 12.3373 39.6629 13.5509 41.1936 12.7951C41.1936 12.7951 40.7752 13.845 39.9028 14.1765C39.9028 14.1765 42.5893 14.7685 42.7975 11.7493C43.0057 8.73006 40.4957 2.36604 37.3928 1.05377C37.3928 1.05377 41.0548 1.28268 44.0882 5.38328C47.1217 9.48387 47.6372 14.733 45.8092 17.2924C43.9812 19.8518 37.8468 18.9322 34.8134 17.7522C34.8114 17.7482 33.0667 14.1725 35.3011 12.3373Z" fill="#A2A2A2"/>
<path d="M46.7056 11.5164C46.5231 13.4503 45.7301 15.3979 44.0329 16.4497C42.5876 17.3456 40.8072 17.5785 39.1417 17.3575C37.6805 17.1601 36.1519 16.6648 35.0436 15.6604C34.6813 15.3339 34.391 14.9361 34.1911 14.4922C34.0186 16.1182 34.8116 17.7502 34.8116 17.7502C37.8451 18.9342 43.9814 19.8498 45.8074 17.2904C46.7769 15.9307 47.0803 13.8153 46.7056 11.5164Z" fill="#5E5E5E"/>
<path d="M42.7955 11.7453C42.5874 14.7665 39.9009 14.1725 39.9009 14.1725C40.7732 13.843 41.1916 12.7912 41.1916 12.7912C39.663 13.5489 35.3011 12.3373 35.3011 12.3373C34.8325 12.7219 34.4929 13.2396 34.3276 13.8213C34.761 13.865 35.1918 13.9309 35.6183 14.0186C36.5383 14.1962 37.4444 14.4389 38.3564 14.6481C39.1399 14.8474 39.9392 14.9795 40.7455 15.0428C41.3918 15.0763 42.0818 15.0428 42.6587 14.7191C43.2753 14.3817 43.8107 13.5154 43.9217 12.8405C44.2605 10.9663 44.0428 9.03451 43.2952 7.28163C41.0964 1.66945 37.3928 1.05969 37.3928 1.05969C40.4937 2.3621 43.0057 8.72611 42.7955 11.7453Z" fill="white"/>
<path d="M12.5385 12.3373C12.5385 12.3373 8.17668 13.5509 6.64608 12.7951C6.64608 12.7951 7.06442 13.845 7.9348 14.1765C7.9348 14.1765 5.25029 14.7685 5.04013 11.7493C4.82997 8.73006 7.34199 2.36604 10.4468 1.05377C10.4468 1.05377 6.78486 1.28268 3.75141 5.38328C0.717948 9.48387 0.202458 14.733 2.02848 17.2924C3.8545 19.8518 9.99279 18.9322 13.0262 17.7522C13.0262 17.7482 14.769 14.1725 12.5385 12.3373Z" fill="#A2A2A2"/>
<path d="M1.13201 11.5164C1.31442 13.4503 2.10748 15.3979 3.80264 16.4497C5.24998 17.3456 7.0304 17.5785 8.69384 17.3575C10.157 17.1601 11.6857 16.6648 12.794 15.6604C13.1551 15.3328 13.4452 14.9353 13.6465 14.4922C13.819 16.1182 13.0259 17.7502 13.0259 17.7502C9.99248 18.9342 3.85617 19.8498 2.02817 17.2904C1.05865 15.9307 0.75729 13.8153 1.13201 11.5164Z" fill="#5E5E5E"/>
<path d="M5.04001 11.7453C5.25017 14.7665 7.93469 14.1725 7.93469 14.1725C7.0643 13.843 6.64596 12.7912 6.64596 12.7912C8.17855 13.547 12.5384 12.3334 12.5384 12.3334C13.007 12.7179 13.3466 13.2356 13.5119 13.8173C13.0779 13.8611 12.6464 13.9269 12.2192 14.0146C11.3012 14.1922 10.3952 14.435 9.48116 14.6441C8.6976 14.8435 7.8983 14.9755 7.09206 15.0388C6.4477 15.0723 5.75774 15.0388 5.18078 14.7152C4.56418 14.3777 4.02886 13.5114 3.91784 12.8366C3.57798 10.9624 3.79574 9.03027 4.54435 7.27766C6.74113 1.66549 10.4467 1.05573 10.4467 1.05573C7.34584 2.36207 4.83184 8.72609 5.04001 11.7453Z" fill="white"/>
<path d="M33.6437 22.7388C34.9959 22.7131 37.5238 23.8044 39.9605 23.8182C42.3971 23.832 44.3223 23.1413 45.3552 20.5997C43.3999 20.1011 41.4883 19.4458 39.6393 18.6401C36.7902 17.3811 35.7096 16.1735 33.8241 16.4991C32.2182 16.7773 32.2955 18.2869 31.1733 19.8814C32.2281 20.651 32.7119 21.2824 33.6437 22.7388Z" fill="#121212"/>
<path d="M43.7096 21.3555C43.6156 21.4802 43.5071 21.5934 43.3865 21.6929C42.9166 22.0876 41.8955 22.7368 40.0834 22.7723C37.4167 22.8276 35.7215 22.0836 35.7215 22.0836C36.2606 22.0507 36.8015 22.0679 37.3374 22.1349C38.5547 22.2356 40.7079 21.6968 40.7079 21.6968C40.7079 21.6968 40.2896 21.4758 39.4707 20.9884C39.0742 20.7575 38.6023 20.4655 38.0313 20.1024C37.0179 19.4581 35.9724 18.8653 34.8987 18.3264C34.863 18.0185 34.8492 17.8686 34.8135 17.5607C34.8135 17.5607 35.7731 17.7383 37.2482 18.5671C38.7233 19.3959 43.7096 21.3555 43.7096 21.3555Z" fill="#E2E2E2"/>
<path d="M14.483 22.7388C13.1309 22.7131 10.603 23.8044 8.16631 23.8182C5.72963 23.832 3.80448 23.1413 2.76953 20.5997C4.72608 20.2976 6.61513 19.6599 8.35268 18.7151C11.1443 17.172 13.1269 16.0334 14.7329 16.3925C16.3388 16.7517 15.8312 18.2869 16.9514 19.8814C15.9046 20.651 15.4228 21.2824 14.483 22.7388Z" fill="#121212"/>
<path d="M13.2401 18.3363C12.1658 18.8705 11.1202 19.46 10.1075 20.1024C8.33703 21.2154 7.42898 21.6949 7.42898 21.6949C7.42898 21.6949 9.57619 22.2356 10.7995 22.133C11.3348 22.067 11.875 22.0505 12.4134 22.0836C12.4134 22.0836 10.7202 22.8276 8.05153 22.7723C5.38288 22.7171 4.42725 21.3535 4.42725 21.3535C4.42725 21.3535 9.4156 19.4078 10.8907 18.577C12.3658 17.7462 13.3274 17.5706 13.3274 17.5706C13.2937 17.8765 13.2738 18.0284 13.2401 18.3363Z" fill="#E2E2E2"/>
<path d="M36.6891 25.9237C36.461 24.2444 34.9225 22.4783 34.9225 22.4783C34.9225 22.4783 36.1299 21.3298 35.7017 19.8123C35.2734 18.2948 33.719 17.4443 33.8063 16.2189C33.8935 14.9934 34.4764 12.8938 34.2028 12.0512C33.9292 11.2086 34.3059 10.8119 32.8546 11.0645C31.4033 11.3171 30.3366 11.2125 28.8893 10.6935C27.898 10.3364 25.61 10.8159 24.2836 11.1474C24.2479 11.1296 24.1865 11.104 24.1151 11.0764C24.0437 11.104 23.9842 11.1296 23.9465 11.1474C22.6221 10.8159 20.3342 10.3364 19.3408 10.6935C17.9014 11.2125 16.8348 11.323 15.3755 11.0645C13.9163 10.806 14.301 11.2046 14.0293 12.0512C13.7577 12.8977 14.3347 14.9974 14.4259 16.2189C14.5171 17.4404 12.9567 18.2929 12.5304 19.8123C12.1042 21.3318 13.3116 22.4783 13.3116 22.4783C13.3116 22.4783 11.7711 24.2543 11.5431 25.9237C11.1604 28.7377 12.9071 29.8981 12.9071 29.8981C13.3024 30.6163 13.7469 31.3067 14.2375 31.9641C14.9552 32.8482 15.2982 33.308 16.1726 34.3321C17.2749 35.6207 16.6266 38.19 18.3733 38.7524C19.5391 39.1254 20.8695 39.6621 22.8184 38.1742H25.3959C27.3468 39.6621 28.2271 39.5398 29.3513 39.0583C30.4754 38.5768 30.6955 35.5872 31.8573 34.3499C32.7773 33.3632 33.2591 32.8482 33.9788 31.9641C34.4545 31.3269 34.8832 30.6562 35.2615 29.9573C35.2615 29.9573 37.0856 28.7377 36.6891 25.9237Z" fill="#121212"/>
<path d="M35.7073 26.5888C35.7015 26.8404 35.6642 27.0903 35.5963 27.3327C35.3445 28.2681 34.6367 28.9114 33.4967 29.3988C32.5609 29.7935 32.202 30.2986 32.0711 30.5946C32.0316 30.6778 32.0042 30.7662 31.9899 30.8571C32.4807 30.6855 32.9846 30.5535 33.4967 30.4624C33.4967 30.4624 32.5668 32.0707 31.514 32.9015C30.4612 33.7323 29.4897 35.9029 29.3628 37.9335L26.6308 37.6217L24.3666 37.3612L24.1346 37.3849L23.9026 37.3612L18.9063 37.9335C18.7854 35.9029 17.8119 33.7303 16.7552 32.9015C15.6984 32.0727 14.7725 30.4624 14.7725 30.4624C15.284 30.5533 15.7873 30.6853 16.2773 30.8571C16.2773 30.8571 16.202 30.0066 14.7725 29.3988C13.343 28.791 12.6055 27.9405 12.5599 26.5888C12.5143 25.237 14.4533 22.5671 14.4533 22.5671C14.4533 22.5671 14.5505 23.4058 15.2008 23.7511C15.2008 23.7511 15.4684 22.9361 14.4533 21.8291C13.4382 20.722 13.4283 19.5775 14.4533 18.6264C15.4783 17.6752 15.9998 16.1084 15.5101 15.325C15.0203 14.5415 14.3681 12.882 15.06 12.4182C15.3659 12.2604 15.7069 12.1823 16.0513 12.1913C14.4097 11.4691 13.684 10.5732 13.684 10.5732C13.684 10.5732 15.3296 10.4824 16.7294 10.2416C18.1985 9.99103 19.3663 10.7448 19.7034 11.1316C19.5051 10.6383 19.5408 9.77396 19.5408 9.77396C19.9809 10.1923 22.2491 11.0704 23.179 11.7947C23.5517 12.0867 23.8947 12.9155 24.0275 13.2036C24.1524 12.9155 24.6977 11.9505 25.0724 11.6585C26.0023 10.9363 28.3398 10.1923 28.7799 9.77396C28.7799 9.77396 28.8256 10.6383 28.6174 11.1316C28.9524 10.7369 29.8407 9.75028 31.1849 10.1114C32.2134 10.387 33.2707 10.542 34.3353 10.5732C34.3353 10.5732 33.9071 11.473 32.2655 12.1913C32.5975 12.1852 32.9257 12.2633 33.2191 12.4182C33.9111 12.882 33.2647 14.5396 32.771 15.325C32.2773 16.1103 32.8008 17.6772 33.8258 18.6264C34.8508 19.5755 34.8409 20.724 33.8258 21.8291C32.8107 22.9341 33.0783 23.7511 33.0783 23.7511C33.7306 23.4077 33.8258 22.5671 33.8258 22.5671C33.8258 22.5671 35.7529 25.241 35.7073 26.5888Z" fill="url(#paint0_linear_310_4974)"/>
<path d="M28.7681 9.77197C28.3279 10.1903 25.9924 10.9343 25.0605 11.6565C24.8155 11.888 24.6058 12.154 24.438 12.4458C24.9162 12.0881 25.4345 11.7868 25.9825 11.548C26.4742 11.3506 26.9738 11.1671 27.4734 11.0053C27.912 10.877 28.3397 10.714 28.7522 10.5179C28.7748 10.2699 28.7801 10.0207 28.7681 9.77197Z" fill="white"/>
<path d="M32.7378 10.7586C33.1798 10.8503 33.6288 10.9051 34.08 10.9224C34.174 10.816 34.2558 10.6995 34.3239 10.5751C33.2593 10.5439 32.2019 10.3889 31.1735 10.1133C30.8662 10.0302 30.5442 10.0161 30.2308 10.072C29.9174 10.128 29.6204 10.2527 29.3613 10.437C30.1465 10.0324 31.227 10.4764 32.7378 10.7586Z" fill="white"/>
<path d="M22.2492 11.5164C22.7873 11.809 23.2846 12.1706 23.7283 12.5919C23.5937 12.2954 23.4033 12.0275 23.1672 11.8025C22.2373 11.0783 19.9692 10.2002 19.529 9.78183C19.5175 10.1361 19.5434 10.4906 19.6064 10.8395C20.5223 10.6975 21.4641 11.0783 22.2492 11.5164Z" fill="white"/>
<path d="M16.6127 10.5731C17.604 10.6264 17.9688 10.4764 19.436 10.9007C19.0526 10.6124 18.6141 10.4051 18.1474 10.2914C17.6806 10.1777 17.1955 10.1601 16.7217 10.2396C16.0516 10.3541 15.3338 10.437 14.7529 10.4883C15.3636 10.5494 15.9881 10.5396 16.6127 10.5731Z" fill="white"/>
<path d="M33.8141 22.5671C33.8141 22.5671 33.7189 23.4058 33.0666 23.7511C33.0666 23.7511 32.799 22.9361 33.8141 21.8291C34.8292 20.722 34.8391 19.5775 33.8141 18.6263C32.7891 17.6752 32.2676 16.1084 32.7593 15.3249C33.251 14.5415 33.8993 12.8819 33.2074 12.4182C33.1935 13.172 32.5412 13.8607 31.423 14.8257C30.3048 15.7906 31.191 17.5213 29.7972 18.3047C28.4034 19.0881 26.0302 19.5676 25.7606 21.1108C25.4909 22.6539 24.4362 23.534 23.9762 23.7156C23.2025 23.0422 22.6897 22.1208 22.5269 21.1108C22.2651 19.5676 19.8919 19.0901 18.4922 18.3047C17.0924 17.5193 17.9866 15.7966 16.8644 14.8257C15.7422 13.8548 15.08 13.172 15.08 12.4182C14.3881 12.8819 15.0344 14.5396 15.5301 15.3249C16.0257 16.1103 15.4984 17.6772 14.4733 18.6263C13.4483 19.5755 13.4582 20.724 14.4733 21.8291C15.4884 22.9341 15.2208 23.7511 15.2208 23.7511C14.5705 23.4077 14.4733 22.5671 14.4733 22.5671C14.4733 22.5671 12.5343 25.241 12.5799 26.5888C12.5867 26.8403 12.624 27.0901 12.6909 27.3327C13.0399 25.8803 13.5335 24.4062 14.1264 24.3609C15.316 24.276 14.5744 25.8941 17.1162 25.8547C19.658 25.8152 20.4689 24.6529 20.8991 24.9903C21.3293 25.3278 22.0649 25.9297 21.0974 26.9755C20.1298 28.0214 18.401 28.3727 17.9509 29.8566C17.7526 30.5394 17.0111 30.6716 16.2181 30.5946C16.2576 30.6778 16.285 30.7662 16.2993 30.8571C15.8093 30.6853 15.306 30.5533 14.7945 30.4624C14.7945 30.4624 15.7244 32.0707 16.7772 32.9015C17.83 33.7322 18.8034 35.9029 18.9283 37.9335L21.6624 37.6217L22.9293 35.1373L24.1566 34.1368L25.3839 35.1373L26.6528 37.6217L29.3531 37.9256C29.48 35.895 30.4495 33.7224 31.5043 32.8936C32.5591 32.0648 33.487 30.4545 33.487 30.4545C32.9749 30.5456 32.471 30.6776 31.9801 30.8492C31.9945 30.7583 32.0219 30.6699 32.0614 30.5867C31.2684 30.6637 30.5368 30.5315 30.3286 29.8487C29.8805 28.3648 28.1477 28.0194 27.1821 26.9676C26.2166 25.9158 26.9502 25.3199 27.3804 24.9825C27.8106 24.645 28.6295 25.8073 31.1653 25.8468C33.7011 25.8862 32.9734 24.2681 34.1551 24.353C34.7499 24.3983 35.2416 25.8724 35.5886 27.3248C35.6565 27.0824 35.6938 26.8325 35.6996 26.5809C35.7531 25.241 33.8141 22.5671 33.8141 22.5671ZM26.7578 31.6444C26.2979 32.9824 24.5591 33.1146 24.1308 33.1264C23.7026 33.1383 21.9638 32.9824 21.5038 31.6444C20.9784 30.121 21.5038 28.422 22.4634 27.3722C23.1514 26.6262 23.8096 26.4625 24.1308 26.4289C24.454 26.4625 25.1103 26.6262 25.7982 27.3722C26.7578 28.418 27.2832 30.1171 26.7578 31.6405V31.6444Z" fill="#929292"/>
<path d="M21.0357 24.0273C20.7486 24.0792 20.4531 24.0626 20.1736 23.9789C19.8942 23.8952 19.6386 23.7468 19.4278 23.5459C18.6486 22.8493 16.5272 20.3747 14.5049 20.9667C14.5049 20.9667 15.5656 21.164 16.0712 21.9297C16.0712 21.9297 15.5537 22.7684 15.9978 23.9603C16.7413 25.9553 18.5237 25.1995 18.5237 25.1995C18.5237 25.1995 19.6062 25.5942 20.3894 25.1739C20.8632 24.9154 21.0357 24.0273 21.0357 24.0273Z" fill="#121212"/>
<path d="M18.9658 24.5029C18.147 24.1497 16.9098 22.5513 16.664 22.4053C16.664 22.3895 16.3051 23.3742 16.6322 24.1813C17.1537 25.4916 18.9658 24.5029 18.9658 24.5029Z" fill="white"/>
<path d="M17.9947 36.5975C18.2472 35.3353 18.4272 34.0598 18.534 32.7772C18.6609 31.4451 18.534 30.8453 19.3172 29.5231C20.2034 28.0273 21.0361 27.6741 21.0361 27.6741C21.0361 27.6741 20.5742 28.4634 20.0646 29.6297C19.5551 30.7959 19.4044 33.4797 19.1942 35.3011C19.1306 35.6441 19.1545 35.9976 19.2636 36.3292L18.6688 36.5975C18.6688 36.5975 17.8123 37.4145 17.9947 36.5975Z" fill="#121212"/>
<path d="M30.0053 36.5975C29.7528 35.3353 29.5728 34.0598 29.466 32.7772C29.3391 31.4451 29.466 30.8453 28.6828 29.5231C27.7986 28.0273 26.9639 27.6741 26.9639 27.6741C26.9639 27.6741 27.4258 28.4634 27.9354 29.6297C28.4449 30.7959 28.5956 33.4797 28.8057 35.3011C28.8694 35.6441 28.8455 35.9976 28.7364 36.3292L29.3312 36.5975C29.3312 36.5975 30.1877 37.4145 30.0053 36.5975Z" fill="#121212"/>
<path d="M30.0292 25.756C28.6413 25.2548 28.907 24.7319 28.907 24.7319C28.907 24.7319 27.882 24.7023 27.3209 24.3096C26.623 23.8241 27.7531 22.6184 28.3419 22.0027C28.9777 21.3415 29.7502 20.8258 30.6061 20.4912C31.4619 20.1566 32.3806 20.0111 33.2986 20.0649C31.8314 19.4729 29.6505 19.8676 27.993 21.1029C27.077 21.7837 26.05 22.5888 25.4492 24.1833C25.2312 24.7615 25.0329 24.8937 24.6264 24.6786C24.4794 24.5932 24.351 24.4794 24.2488 24.3438C24.1467 24.2082 24.0728 24.0537 24.0317 23.8892C23.9999 24.1162 23.6708 24.5089 23.3575 24.6786C22.961 24.8937 22.8262 24.7615 22.6081 24.1833C22.0133 22.5888 20.9803 21.7837 20.0644 21.1029C18.4069 19.8735 16.226 19.4808 14.7588 20.0649C15.6767 20.0111 16.5954 20.1566 17.4513 20.4912C18.3071 20.8258 19.0797 21.3415 19.7154 22.0027C20.3102 22.6184 21.4344 23.8241 20.7365 24.3096C20.1694 24.7042 19.1504 24.7319 19.1504 24.7319C19.1504 24.7319 19.4141 25.2548 18.0282 25.756C16.6423 26.2572 14.8797 25.1305 14.8797 25.1305C14.8797 25.1305 15.2386 26.0126 16.6066 26.3145C17.9747 26.6164 18.9481 26.1467 19.8106 25.5251C20.673 24.9035 21.7219 25.5607 22.4673 25.7876C22.618 25.8449 22.7788 25.8708 22.9399 25.8636C23.101 25.8564 23.2589 25.8163 23.4038 25.7458C23.5486 25.6752 23.6773 25.5758 23.782 25.4537C23.8866 25.3315 23.9648 25.1893 24.0118 25.0358C24.0586 25.1892 24.1367 25.3314 24.2411 25.4536C24.3455 25.5757 24.474 25.6751 24.6188 25.7457C24.7635 25.8162 24.9212 25.8563 25.0822 25.8635C25.2431 25.8707 25.4038 25.8449 25.5543 25.7876C26.2998 25.5607 27.3387 24.9055 28.2111 25.5251C29.0834 26.1448 30.045 26.6223 31.415 26.3145C32.7851 26.0066 33.1419 25.1305 33.1419 25.1305C33.1419 25.1305 31.4131 26.2494 30.0292 25.756Z" fill="#121212"/>
<path d="M26.9741 24.0273C27.2613 24.0792 27.5567 24.0626 27.8362 23.9789C28.1157 23.8952 28.3713 23.7468 28.582 23.5459C29.3612 22.8493 31.4827 20.3747 33.505 20.9667C33.505 20.9667 32.4443 21.164 31.9387 21.9297C31.9387 21.9297 32.4562 22.7684 32.012 23.9603C31.2685 25.9553 29.4861 25.1995 29.4861 25.1995C29.4861 25.1995 28.4036 25.5942 27.6205 25.1739C27.1367 24.9154 26.9741 24.0273 26.9741 24.0273Z" fill="#121212"/>
<path d="M29.0381 24.5029C29.8589 24.1497 31.0941 22.5513 31.3399 22.4053C31.3399 22.3895 31.6988 23.3742 31.3717 24.1813C30.8502 25.4916 29.0381 24.5029 29.0381 24.5029Z" fill="white"/>
<path d="M22.947 33.9888C22.4474 34.046 21.6761 33.7382 20.544 34.121C20.0384 34.2927 19.3881 34.044 18.6942 34.3736C18.0003 34.7031 17.34 35.8871 17.5879 37.1619C17.8357 38.4367 18.2679 40.3844 19.7232 40.8343C21.7931 41.4736 23.8372 40.4238 23.8372 40.4238C23.8372 40.4238 25.457 41.2329 27.0094 41.004C28.3794 40.8066 28.7443 40.3587 29.0198 39.5082C29.2284 38.8062 29.5333 38.1362 29.9259 37.5171C30.3383 36.8442 30.3224 35.2793 29.343 34.7307C28.3636 34.1822 27.975 34.9281 27.2612 34.4564C26.5475 33.9848 24.2535 33.8467 22.947 33.9888Z" fill="#121212"/>
<path d="M24.1426 33.9375C24.9 33.9769 25.8021 34.4841 25.9587 34.8827C25.6151 35.155 25.3837 35.5432 25.3084 35.9739C25.241 36.6232 25.4373 36.935 25.4373 36.935C25.6416 36.3894 26.0279 35.9303 26.5317 35.6345C27.3585 35.1688 28.4311 35.1688 28.9228 35.8023C29.4145 36.4357 28.9882 37.6493 28.4529 38.3005C27.9176 38.9517 28.7701 39.155 27.8284 39.599C26.498 40.2245 24.5193 39.4529 23.8274 38.9537C23.8274 38.9537 22.7369 39.9542 20.7919 39.7845C19.3228 39.6542 18.9362 39.0326 18.6467 38.0085C18.3572 36.9843 18.2006 35.9424 18.8708 35.3602C19.5409 34.7781 20.4331 34.9103 21.0814 35.4924C21.4812 35.867 21.7676 36.3455 21.9082 36.8738C21.9082 36.8738 22.7151 35.4076 21.6207 34.6755C21.6207 34.6617 21.9974 33.8191 24.1426 33.9375Z" fill="#A2A2A2"/>
<path d="M25.7564 35.0465C25.7623 35.0473 25.7683 35.0473 25.7743 35.0465C25.8314 34.9854 25.893 34.9287 25.9586 34.8768C25.802 34.4821 24.8999 33.971 24.1425 33.9315C21.9973 33.8131 21.6206 34.6558 21.6206 34.6558L21.6325 34.6656C23.0148 34.386 24.4494 34.5185 25.7564 35.0465Z" fill="white"/>
<path d="M28.9231 35.8023C28.8336 35.6902 28.7232 35.5964 28.5979 35.526C28.5423 35.7488 28.4498 35.9609 28.3243 36.1535C27.4817 37.4382 25.6061 37.6809 24.1964 37.6631C22.9731 37.6473 21.6745 37.6316 20.5067 37.227C20.0289 37.0702 19.6128 36.7678 19.3171 36.3627C19.1189 36.0825 18.9484 35.7707 18.764 35.4786C18.2366 36.0706 18.3813 37.0356 18.6529 38.0006C18.9424 39.0326 19.329 39.6542 20.7982 39.7766C22.7432 39.9463 23.8336 38.9458 23.8336 38.9458C24.5256 39.445 26.5042 40.2166 27.8346 39.5911C28.7764 39.1471 27.9238 38.9418 28.4591 38.2926C28.9944 37.6434 29.4148 36.4337 28.9231 35.8023Z" fill="#818181"/>
<path d="M27.0771 36.1614C26.2226 36.7534 26.0005 37.4855 26.0858 38.6044C26.1711 39.7233 27.3706 39.1589 27.6164 38.5926C27.8623 38.0262 27.9059 37.0139 27.9059 37.0139C27.9059 37.0139 28.3916 37.1165 28.2766 37.8802C28.4905 37.5711 28.6371 37.2209 28.7069 36.8521C28.8219 36.0174 27.668 35.7529 27.0771 36.1614Z" fill="#121212"/>
<path d="M20.5084 36.1496C21.363 36.7416 21.5533 37.596 21.472 38.7149C21.3907 39.8338 20.2348 39.1589 19.987 38.5926C19.7392 38.0262 19.6975 37.0139 19.6975 37.0139C19.6975 37.0139 19.2138 37.1165 19.3288 37.8802C19.114 37.5716 18.9673 37.2212 18.8985 36.8521C18.7815 36.0174 19.9176 35.7411 20.5084 36.1496Z" fill="#121212"/>
<path d="M23.7066 45C21.0221 45 18.75 42.5906 18.75 40.1101C18.75 38.9359 19.2932 37.8901 20.1854 37.0435C20.3421 36.8935 20.7802 36.931 20.9785 36.9843C21.082 37.0096 21.1772 37.0608 21.2553 37.133C21.3333 37.2051 21.3916 37.2959 21.4246 37.3967C21.5834 37.9537 21.6139 38.5392 21.5138 39.1096C21.5033 39.1948 21.4749 39.2768 21.4305 39.3503C21.2541 39.6424 21.3096 39.8595 21.3096 40.1791C21.3096 41.3631 22.406 42.2669 23.897 42.2669C25.3879 42.2669 26.4526 41.4164 26.4526 40.2245C26.4526 39.8003 26.4189 39.4352 26.1156 39.0761C26.0206 38.9617 25.9687 38.8179 25.9688 38.6695C25.958 38.1949 26.025 37.7217 26.1671 37.2685C26.1997 37.1705 26.256 37.082 26.331 37.0108C26.406 36.9395 26.4975 36.8878 26.5973 36.86C26.7956 36.8047 27.1346 36.7002 27.2952 36.8383C27.7933 37.2898 28.1936 37.8377 28.4718 38.4484C28.7499 39.0591 28.9001 39.7199 28.9131 40.3903C28.921 42.8767 26.8115 45 23.7066 45Z" fill="#121212"/>
<path d="M26.7757 37.4658C26.6569 37.8565 26.6007 38.2634 26.6092 38.6715C26.9972 39.1166 27.2137 39.6846 27.2198 40.2739C27.2198 41.8111 25.7229 43.0622 23.8811 43.0622C22.0392 43.0622 20.5443 41.8111 20.5443 40.2739C20.5464 39.8337 20.6691 39.4025 20.8992 39.0267C20.9836 38.5505 20.9592 38.0615 20.8278 37.596C20.4563 37.9387 20.1592 38.3534 19.9546 38.8146C19.75 39.2758 19.6423 39.7737 19.6382 40.2778C19.6382 42.411 21.5376 44.1475 23.8731 44.1475C26.2087 44.1475 28.1101 42.411 28.1101 40.2778C28.1053 39.7409 27.9836 39.2114 27.7532 38.7259C27.5228 38.2404 27.1893 37.8105 26.7757 37.4658Z" fill="#C9AE5B"/>
<path d="M27.7352 38.6873C27.7352 38.6873 28.33 40.5067 27.1603 42.111C26.4842 43.0306 25.4829 43.5279 24.3429 43.6897C23.0879 43.8693 20.9466 43.5456 19.874 41.519C20.445 43.0405 22.0232 44.1396 23.879 44.1396C26.2145 44.1396 28.1159 42.4031 28.1159 40.2699C28.1138 39.7202 27.9835 39.1784 27.7352 38.6873Z" fill="#E2D8A7"/>
<path d="M27.19 13.7423C27.19 13.7423 26.3791 14.5316 25.3045 14.5908C24.3132 14.6481 23.9583 16.1182 23.9583 16.1182C23.9583 16.1182 23.5995 14.6481 22.6101 14.5908C21.5355 14.5297 20.7246 13.7423 20.7246 13.7423C20.7246 13.7423 21.5177 15.6426 22.4674 15.9327C22.4674 15.9327 21.9895 15.986 21.476 15.986C21.476 15.986 22.0847 17.17 22.6418 17.1463C22.6418 17.1463 22.3147 17.5962 21.9519 17.5962C21.9519 17.5962 22.3801 18.3856 22.971 18.4152C22.8033 18.6024 22.5933 18.7471 22.3583 18.8375C22.3583 18.8375 23.0205 19.6031 23.3814 19.5755C23.1939 19.6735 22.9864 19.7275 22.7747 19.7334C22.7747 19.7334 23.3695 20.3017 23.5677 20.3471C23.766 20.3925 23.9643 21.1068 23.9643 21.1068C23.9643 21.1068 24.1625 20.3944 24.3608 20.3471C24.5591 20.2997 25.1539 19.7334 25.1539 19.7334C24.9415 19.7278 24.7333 19.6738 24.5452 19.5755C24.908 19.6031 25.5682 18.8375 25.5682 18.8375C25.3332 18.7471 25.1232 18.6024 24.9556 18.4152C25.5504 18.3875 25.9747 17.5962 25.9747 17.5962C25.6138 17.5962 25.2847 17.1463 25.2847 17.1463C25.8438 17.1739 26.4505 15.986 26.4505 15.986C25.941 15.986 25.4592 15.9327 25.4592 15.9327C26.4009 15.6426 27.19 13.7423 27.19 13.7423Z" fill="#929292"/>
<path d="M43.7097 21.3555C43.6157 21.4802 43.5072 21.5934 43.3865 21.6929C42.0606 21.5763 40.7481 21.3405 39.4649 20.9884C39.0683 20.7575 38.5965 20.4655 38.0255 20.1024C37.0121 19.4581 35.9665 18.8653 34.8929 18.3264C34.8572 18.0185 34.8433 17.8686 34.8076 17.5607C34.8076 17.5607 35.7672 17.7383 37.2423 18.5671C38.7174 19.3959 43.7097 21.3555 43.7097 21.3555Z" fill="#929292"/>
<path d="M4.42529 21.3555C4.51945 21.4801 4.62791 21.5933 4.74846 21.6929C6.07372 21.5764 7.38565 21.3406 8.66817 20.9884C9.0647 20.7576 9.53855 20.4655 10.1076 20.1044C11.1213 19.4606 12.1668 18.8679 13.2402 18.3284C13.2758 18.0225 13.2917 17.8706 13.3254 17.5647C13.3254 17.5647 12.3658 17.7403 10.8907 18.5711C9.41563 19.4019 4.42529 21.3555 4.42529 21.3555Z" fill="#929292"/>
</g>
<defs>
<linearGradient id="paint0_linear_310_4974" x1="27.402" y1="14.9799" x2="37.9882" y2="16.3129" gradientUnits="userSpaceOnUse">
<stop offset="0.206376" stop-color="#191919"/>
<stop offset="0.993631" stop-color="#2F2F2F" stop-opacity="0.8"/>
</linearGradient>
<clipPath id="clip0_310_4974">
<rect width="48" height="45" fill="white"/>
</clipPath>
</defs>
</svg>
