<svg width="48" height="52" viewBox="0 0 48 52" fill="none" xmlns="http://www.w3.org/2000/svg">
<g clip-path="url(#clip0_310_5234)">
<path d="M47.3891 4.73729C39.9803 1.5938 32.1102 0 24.0021 0C15.8941 0 8.02397 1.5938 0.612512 4.73729L0.00146484 4.99669L0.0195158 5.65988C0.267545 14.8015 2.5212 23.53 6.71831 31.6033C10.7737 39.3706 16.4677 46.1645 23.4065 51.5152L24.0001 51.9718L24.5931 51.5152C31.5324 46.1646 37.2268 39.3707 41.2826 31.6033C45.4797 23.53 47.7354 14.8015 47.9814 5.65988L47.9995 4.99669L47.3891 4.73729Z" fill="#00AEEF"/>
<path d="M47.0084 5.63313C46.5097 24.0053 37.6041 40.2797 24.0019 50.7444C10.3971 40.2797 1.49141 24.0027 0.992676 5.63313C8.27384 2.55785 16.0976 0.973389 24.0016 0.973389C31.9055 0.973389 39.7293 2.55785 47.0104 5.63313H47.0084Z" fill="#342D34"/>
<path d="M24.0021 48.2627C17.931 43.3216 12.931 37.1947 9.30752 30.2562C5.53607 23.0259 3.3798 15.0628 2.98779 6.91741C16.4889 1.58803 31.5106 1.58803 45.0117 6.91741C44.6197 15.0628 42.4634 23.0259 38.692 30.2562C35.0697 37.1942 30.0713 43.321 24.0021 48.2627Z" fill="#342D34"/>
<path d="M24.0021 48.2627C17.931 43.3216 12.931 37.1947 9.30752 30.2562C5.53607 23.0259 3.3798 15.0628 2.98779 6.91741C16.4889 1.58803 31.5106 1.58803 45.0117 6.91741C44.6197 15.0628 42.4634 23.0259 38.692 30.2562C35.0697 37.1942 30.0713 43.321 24.0021 48.2627Z" fill="#F7941D"/>
<path d="M24.0022 45.7236C18.7034 41.1515 14.2415 35.523 11.0325 29.3577C7.60907 22.7961 5.56161 15.6045 5.01562 8.22373C17.2728 3.7463 30.7183 3.7463 42.9755 8.22373C42.4312 15.604 40.3861 22.7955 36.9653 29.3577C33.7629 35.523 29.2964 41.1515 24.0022 45.7236Z" fill="#342D34"/>
<path d="M47.0084 5.63313C46.5097 24.0053 37.6041 40.2797 24.0019 50.7444C10.3971 40.2797 1.49141 24.0027 0.992676 5.63313C8.27384 2.55785 16.0976 0.973389 24.0016 0.973389C31.9055 0.973389 39.7293 2.55785 47.0104 5.63313H47.0084Z" fill="#18243D"/>
<path d="M24.0021 48.2627C17.931 43.3216 12.931 37.1947 9.30752 30.2562C5.53607 23.0259 3.3798 15.0628 2.98779 6.91741C16.4889 1.58803 31.5106 1.58803 45.0117 6.91741C44.6197 15.0628 42.4634 23.0259 38.692 30.2562C35.0697 37.1942 30.0713 43.321 24.0021 48.2627Z" fill="#342D34"/>
<path d="M24.0021 48.2627C17.931 43.3216 12.931 37.1947 9.30752 30.2562C5.53607 23.0259 3.3798 15.0628 2.98779 6.91741C16.4889 1.58803 31.5106 1.58803 45.0117 6.91741C44.6197 15.0628 42.4634 23.0259 38.692 30.2562C35.0697 37.1942 30.0713 43.321 24.0021 48.2627Z" fill="white"/>
<path d="M42.9801 8.22441C42.4345 15.6053 40.387 22.7969 36.9633 29.3584C35.4012 32.3569 33.5661 35.2052 31.4812 37.8669C29.249 40.7222 26.7442 43.3535 24.0022 45.7236C21.2592 43.3535 18.7533 40.7222 16.5199 37.8669C14.4331 35.2052 12.5962 32.3567 11.0325 29.3577C7.60933 22.796 5.56189 15.6045 5.01562 8.22374C8.73335 6.85646 12.5891 5.89879 16.5146 5.36772C21.4788 4.69918 26.5103 4.69918 31.4745 5.36772C35.4022 5.89853 39.2603 6.85643 42.9801 8.22441Z" fill="#18243D"/>
<path d="M31.4795 5.3684V37.8669C29.2477 40.7222 26.7434 43.3535 24.0019 45.7236C21.2589 43.3535 18.753 40.7223 16.5195 37.8669V5.3684C21.4838 4.69985 26.5153 4.69985 31.4795 5.3684Z" fill="#DE1F31"/>
<path d="M15.0708 41.0385L23.9952 50.4061L32.8794 41.1929L27.7296 41.346L22.6173 41.1929L20.8624 41.0385H15.0708Z" fill="#18243D"/>
<path d="M24.8483 45.8119C25.4322 45.8988 26.0143 45.9913 26.5946 46.0893C26.1618 46.4748 25.7346 46.8633 25.313 47.2546C25.4021 47.817 25.4912 48.3795 25.5804 48.942C25.0794 48.6688 24.574 48.3993 24.0641 48.1337C23.5542 48.3984 23.0484 48.6672 22.5465 48.94C22.6357 48.3779 22.7248 47.8157 22.814 47.2532C22.3919 46.861 21.9651 46.4717 21.5337 46.0853C22.1131 45.9881 22.6954 45.8965 23.2806 45.8105C23.5382 45.2984 23.8001 44.7859 24.0661 44.2729C24.3304 44.7859 24.5912 45.2989 24.8483 45.8119Z" fill="white"/>
<path d="M17.3653 37.6389C17.3653 37.6389 18.0706 39.3858 18.3788 39.9207C18.687 40.4555 18.7899 41.2765 18.7485 41.5024C18.707 41.7284 18.677 42.6537 19.1851 42.6945C19.6931 42.7352 20.6391 42.6329 21.1733 42.8382C21.7075 43.0434 22.4268 43.7113 23.433 43.5983C24.4391 43.4853 25.2033 43.5415 25.4573 43.611C25.7114 43.6805 25.93 43.3436 26.0737 43.2286C26.2174 43.1136 27.255 42.4992 27.8788 42.643C28.5025 42.7867 29.1737 42.5607 29.1938 42.2733C29.2139 41.9858 29.2553 40.4107 29.369 40.3098C29.4826 40.2088 30.3718 38.246 30.6218 38.123C30.8718 37.9999 31.7316 36.9617 31.7623 36.9309C31.7931 36.9002 34.5461 32.3254 34.7654 31.0377C34.9847 29.7501 34.6036 28.4886 34.6036 28.4886C34.6036 28.4886 34.7815 25.1927 35.6065 25.4614C36.4314 25.7302 37.6335 26.7076 39.2226 26.8446C40.8117 26.9817 41.2777 26.8172 41.017 26.3767C40.7562 25.9361 39.9761 24.6385 39.9353 24.5823C39.8945 24.5261 38.6751 23.4866 38.6751 23.4866L37.9624 22.5867C37.9624 22.5867 39.7708 21.9248 40.428 21.0076C41.0852 20.0904 42.0031 17.9116 41.9656 15.6653C41.9282 13.419 41.4174 8.97384 37.0411 7.55586C37.0411 7.55586 38.5788 8.89295 39.014 10.9875C39.4492 13.082 38.8689 15.7134 37.4209 16.8433C35.9728 17.9731 35.1097 18.4872 34.4726 18.1991C33.8355 17.9109 32.2952 17.1294 32.2952 17.1294C32.2952 17.1294 29.3964 16.0691 28.5908 15.9869C27.7852 15.9046 25.591 16.2335 25.1591 17.1374C24.7273 18.0413 23.9056 18.3501 23.6389 17.836C23.3721 17.3219 22.4061 16.5825 22.3446 16.5625C22.2831 16.5424 19.9813 15.7402 18.2966 16.2128C16.6118 16.6855 14.9886 17.8975 14.9886 17.8975L13.6943 18.2057L11.6432 17.7919C11.6432 17.7919 8.90688 15.1913 8.74242 13.7385C8.57796 12.2858 9.32338 9.08014 10.5843 7.8674C10.5843 7.8674 8.25238 8.45773 7.08978 11.0523C5.92719 13.647 5.84496 14.8363 5.98937 16.386C6.13377 17.9357 6.66727 21.3666 9.15357 22.2504C9.15357 22.2504 9.91371 22.2932 9.97521 22.59C10.0367 22.8869 9.50255 23.183 9.50255 23.183C9.50255 23.183 7.90741 24.6538 7.49225 25.6821C7.49225 25.6821 6.98884 26.7156 7.59186 26.7912C8.19489 26.8667 10.4305 26.6682 10.619 26.5498C10.8075 26.4315 11.9681 25.8325 12.035 25.7636C12.1018 25.6948 12.4869 25.2642 12.507 25.2642C12.527 25.2642 13.2263 26.0243 13.3153 26.4556C13.4042 26.8868 13.3226 28.7019 13.1989 29.216C13.0752 29.7301 14.1028 33.5515 14.8034 34.5376C15.5041 35.5237 16.6753 35.7496 16.6753 35.7496L17.3653 37.6389Z" fill="#EB3245"/>
<path d="M11.0712 7.5592C11.0712 7.5592 7.58208 8.38352 6.27241 13.1903C4.96274 17.9972 7.02385 21.5672 9.80098 22.59C12.5781 23.6129 14.2762 22.326 14.5229 22.0245C14.7696 21.7229 15.7737 19.5863 14.6566 18.7914C13.5395 17.9965 12.3294 17.9564 12.2264 17.9664C12.1235 17.9764 11.4456 17.6789 10.7677 16.8773C10.0898 16.0758 9.08296 14.8116 8.96262 13.7385C8.84229 12.6655 8.71593 11.2683 9.44531 9.9118C9.90131 9.07155 10.4464 8.2828 11.0712 7.5592Z" fill="white"/>
<path d="M37.1649 7.68155C37.1649 7.68155 40.9495 8.59277 41.7779 13.5828C42.6062 18.5728 40.4314 21.7176 38.1998 22.59C35.9682 23.4625 33.8249 22.7639 33.3455 22.0652C32.8662 21.3666 32.3915 18.5942 34.4667 18.2024C36.5418 17.8106 38.1437 16.7851 38.8229 14.6277C39.5022 12.4703 39.5349 9.94055 37.1649 7.68155Z" fill="white"/>
<path d="M15.3584 25.6807C15.3584 25.6807 16.0985 25.5778 17.1869 26.1119C18.2752 26.6461 19.5502 27.7559 19.5502 28.7627C19.5502 29.7695 17.8447 29.5021 17.5572 29.2975C17.2698 29.093 16.16 28.3067 16.0985 28.2573C16.037 28.2078 15.3584 25.6807 15.3584 25.6807Z" fill="#FFF200"/>
<path d="M28.8153 27.5827C28.8153 27.5827 30.6257 25.9301 31.7569 25.5898C32.888 25.2495 32.6815 26.5037 32.4555 27.2023C32.2295 27.9009 31.1405 29.0515 30.3389 29.1952C29.5373 29.339 27.9074 29.3396 28.8153 27.5827Z" fill="#FFF200"/>
<path d="M18.222 36.4342C18.222 36.4342 19.7557 35.0102 20.963 35.0102C22.1704 35.0102 23.3738 35.7222 24.5792 35.5852C25.7846 35.4481 26.6343 34.9694 27.855 35.3051C29.0758 35.6407 30.1227 36.2357 30.2524 37.3388C30.3821 38.4419 29.8172 39.6827 29.6374 39.8391C29.4575 39.9955 29.2523 40.6835 29.2583 40.868C29.2643 41.0525 29.3994 42.0252 29.2008 42.2719C29.0023 42.5186 28.5911 42.7145 28.3618 42.6971C28.1325 42.6797 27.353 42.6523 26.8556 42.8529C26.3582 43.0535 25.9196 43.5636 25.7244 43.5529C25.5292 43.5422 23.9354 43.5529 23.9354 43.5529H22.6652C22.6652 43.5529 22.0581 43.4192 21.9298 43.234C21.8014 43.0488 20.9677 42.7299 20.5151 42.7165C20.0625 42.7031 19.1112 42.9692 19.0049 42.6256C18.8986 42.282 18.7729 41.4516 18.7475 41.2003C18.7221 40.9489 18.4754 40.0898 18.3838 39.9193C18.2922 39.7489 17.5816 38.5428 17.6785 38.0909C17.7754 37.6389 18.222 36.4342 18.222 36.4342Z" fill="#AE1D33"/>
<path d="M20.8236 39.4193C20.8236 39.4193 21.317 40.5438 21.9468 40.9683C22.5765 41.3928 23.1247 41.818 24.5768 41.7632C26.0289 41.7084 27.0504 39.8699 27.0939 39.4193C27.1373 38.9687 27.8507 39.1853 27.8507 39.1853V40.0069C27.8507 40.0069 27.0564 41.5098 26.5905 41.7652C26.1245 42.0206 24.9472 42.651 24.2619 42.6918C23.5767 42.7326 22.2075 42.4725 21.4266 41.8013C20.6458 41.1301 20.002 39.6533 20.0153 39.4193C20.0287 39.1853 20.6839 39.0369 20.6839 39.0369L20.8236 39.4193Z" fill="white"/>
<path d="M10.5843 7.8674C10.5843 7.8674 6.46212 10.6572 7.49234 16.7109L6.9067 15.2688C6.9067 15.2688 7.3339 19.3469 10.345 21.5137C13.0192 23.4371 15.2648 21.1279 15.1672 20.9287L14.1644 22.59L12.5479 23.0126L10.7682 22.8675L8.86686 22.1321L6.90403 20.2682L6.13721 17.9122V13.6804L7.08787 10.6278C7.08787 10.6278 8.78263 8.03922 10.5843 7.8674Z" fill="#BCBEC0"/>
<path d="M37.4038 7.8674C37.4038 7.8674 41.526 10.6572 40.4951 16.7109L41.0814 15.2688C41.0814 15.2688 40.6542 19.3469 37.6431 21.5137C34.969 23.4371 32.7233 21.1279 32.8209 20.9287L33.8238 22.59L35.4403 23.0126L37.2199 22.8675L39.1213 22.1321L41.0841 20.2682L41.8509 17.9122V13.6804L40.9009 10.6251C40.9009 10.6251 39.2055 8.03922 37.4038 7.8674Z" fill="#BCBEC0"/>
<path d="M24.069 20.2655C24.069 20.2655 22.8991 17.0338 19.7349 17.3239C19.7349 17.3239 20.6595 17.6729 21.0499 17.8173C21.0499 17.8173 17.742 17.3239 15.5231 19.0702C15.5231 19.0702 16.5085 21.1045 15.1734 22.2344C15.1734 22.2344 17.5802 27.33 20.7832 26.9195L19.8171 27.3922L18.5643 26.8326L16.9029 25.9842L15.5659 24.9627L14.1318 22.3467L14.9047 21.3686L15.1721 19.9286L14.66 18.7921V17.7097L17.6644 16.4221C17.6644 16.4221 18.9099 15.9401 19.0684 16.0042C19.2268 16.0684 20.8654 16.1874 20.8654 16.1874L22.4405 16.622L23.8063 18.0165L24.0022 19.129L24.069 20.2655Z" fill="white"/>
<path d="M24.069 20.2655C24.069 20.2655 26.4129 16.6434 30.9744 18.2459C30.9744 18.2459 29.0577 18.1122 28.0849 18.5895C28.0849 18.5895 30.9329 18.9559 31.796 20.2655C32.6591 21.5752 32.2921 24.5643 29.8459 24.8979C29.8459 24.8979 29.0697 22.6709 31.0566 21.985C31.0566 21.985 29.7195 22.1308 29.0222 22.5921C28.3249 23.0533 27.0293 24.2761 26.8829 24.8979C26.7365 25.5196 25.9583 26.8139 26.5947 27.0606C27.1835 27.2868 27.8351 27.2868 28.4239 27.0606C28.9373 26.8547 29.7382 26.6401 29.8432 26.6434C29.9482 26.6468 32.1256 25.6326 32.2165 25.535C32.3074 25.4374 32.8182 24.6358 33.0468 24.4305C33.2755 24.2253 34.0771 22.7391 34.0771 22.7391L33.5081 22.0706C33.5081 22.0706 32.7019 20.6031 32.9372 20.1532C33.1725 19.7033 33.5469 18.409 33.6164 18.3481C33.686 18.2873 33.0856 17.5352 33.0281 17.5065C32.9706 17.4777 30.5893 16.388 30.5893 16.388L29.2275 16.0002L26.8521 16.16C26.8521 16.16 23.5957 17.824 24.069 20.2655Z" fill="#AE1D33"/>
<path d="M18.6048 31.7812C18.564 31.3934 17.6187 29.4914 17.6187 29.4914L16.3445 28.6123L15.4613 27.0078L15.5636 24.9634C15.5636 24.9634 14.8737 23.7045 14.8282 23.6263C14.7828 23.5481 13.8662 22.6723 13.8662 22.6723L12.5505 23.0159L11.8652 23.0961V24.0414L12.5639 25.4795C12.5639 25.4795 13.2899 26.0618 13.3173 26.4589C13.3447 26.856 13.2999 28.5675 13.2625 28.8322C13.225 29.097 13.0806 31.9336 13.3447 32.3835C13.3447 32.3835 15.9748 36.9069 16.3445 36.9463C16.7142 36.9858 18.3193 37.1128 18.6048 36.0799C18.8903 35.047 18.6463 32.1689 18.6048 31.7812ZM17.3653 34.5376C17.3653 34.5376 14.9472 33.5695 14.516 30.9829C14.516 30.9829 14.8449 31.5993 15.3584 31.9483C15.3584 31.9483 15.3584 31.2911 14.9064 30.8185C14.4545 30.3458 13.5092 28.6123 13.7967 26.2363C13.7967 26.2363 13.7766 28.024 14.4131 28.9485C14.4131 28.9485 14.4338 28.764 14.516 27.8595C14.516 27.8595 15.1531 29.5389 16.3445 29.819C16.3445 29.819 17.7284 31.8868 17.3653 34.5376Z" fill="#AE1D33"/>
<path d="M29.3294 36.0799C29.6175 37.1128 31.222 36.9824 31.5897 36.943C31.9574 36.9035 34.5895 32.3802 34.5895 32.3802C34.8569 31.9302 34.7085 29.093 34.6717 28.8289C34.6349 28.5648 34.5895 26.8527 34.6169 26.4556C34.6443 26.0584 35.3703 25.4761 35.3703 25.4761L36.069 24.0381V23.0928L35.3837 23.0126L34.0687 22.6723C34.0687 22.6723 33.1488 23.5414 33.1046 23.6236L32.3692 24.9607L32.4715 27.0051L31.5884 28.6096L30.3155 29.4914C30.3155 29.4914 29.3708 31.3934 29.3294 31.7812C29.2879 32.1689 29.0419 35.051 29.3294 36.0799ZM31.5897 29.819C32.7811 29.5389 33.4182 27.8595 33.4182 27.8595C33.5004 28.764 33.5211 28.9485 33.5211 28.9485C34.1583 28.024 34.1375 26.2363 34.1375 26.2363C34.425 28.6123 33.4797 30.3458 33.0278 30.8185C32.5758 31.2911 32.5758 31.9483 32.5758 31.9483C33.0893 31.5993 33.4182 30.9829 33.4182 30.9829C32.987 33.5715 30.5689 34.5376 30.5689 34.5376C30.2058 31.8868 31.5897 29.819 31.5897 29.819Z" fill="#AE1D33"/>
<path d="M23.9485 35.9014C23.9485 35.9014 22.8167 36.1808 21.9542 35.8111C21.0918 35.4414 18.411 36.346 18.5019 38.7908C18.5019 38.7908 18.6463 39.4219 18.9745 39.7535C19.3028 40.0851 19.2553 41.215 19.1885 41.4617C19.1216 41.7084 19.2854 42.304 19.861 42.304C20.4367 42.304 21.5718 42.6329 22.0799 43.1878L21.1761 42.8382C21.1761 42.8382 20.5222 42.6477 20.4005 42.7192C20.2789 42.7907 19.4706 42.7192 19.4706 42.7192C19.4706 42.7192 18.7666 42.3849 18.7486 42.0727C18.7305 41.7605 18.7111 40.9308 18.6664 40.6815C18.6216 40.4321 18.3221 39.8959 18.1563 39.5062C17.9905 39.1164 17.6401 37.5734 18.0058 37.0326C18.3715 36.4917 18.6623 35.5471 19.0869 35.406C19.5114 35.2649 21.2215 34.6278 21.5939 34.8819C21.9663 35.1359 23.171 35.4481 23.2947 35.4749C23.4183 35.5016 23.9485 35.9014 23.9485 35.9014Z" fill="#EB3245"/>
<path d="M19.5503 38.1156C19.5503 38.1156 20.8653 37.5614 21.6896 38.3008C22.5139 39.0402 23.5615 40.8071 26.3948 38.732C26.3948 38.732 25.039 39.8625 23.6418 39.0402C22.2445 38.2179 22.183 37.9585 21.3814 37.7599C20.5798 37.5614 19.5503 38.1156 19.5503 38.1156Z" fill="#EB3245"/>
<path d="M29.2542 39.4193C29.2542 39.4193 28.3623 40.3659 28.6719 41.1394C28.9814 41.9129 28.123 42.6216 26.9878 42.3863C26.9878 42.3863 27.9538 42.304 28.2828 41.8728C28.6117 41.4416 27.9044 40.2549 29.2542 39.4193Z" fill="#EB3245"/>
<path d="M23.9351 27.3922C23.9351 27.3922 27.0719 27.2023 27.6201 27.7773C28.1683 28.3522 29.3737 30.2154 29.4005 30.6266C29.4272 31.0377 28.7139 33.9138 28.6737 34.1331C28.6336 34.3524 28.1677 35.2409 28.1209 35.3077C28.0741 35.3746 26.9843 34.7782 26.6661 35.0129C26.3479 35.2476 25.0857 35.7242 24.9333 35.6427C24.7808 35.5611 23.195 35.7556 22.5773 35.4134C21.9596 35.0711 21.4542 34.9307 20.9608 35.0122C20.4674 35.0938 19.2747 35.7623 19.0808 35.6514C18.887 35.5404 18.6336 33.149 18.7426 32.6015C18.8515 32.0539 18.3581 29.5262 19.6732 29.5442C20.9882 29.5623 21.8921 29.1478 22.2484 28.6143C22.6047 28.0808 23.9351 27.3922 23.9351 27.3922Z" fill="#AE1D33"/>
<path d="M27.1795 30.1332C27.1795 30.1332 28.7687 33.0079 26.9877 33.6952C26.9877 33.6952 27.8661 33.6404 28.0848 32.7358C28.0848 32.7358 27.7003 34.2976 26.9877 34.2427C26.275 34.1879 25.2896 34.4807 25.0977 34.8277C24.9058 35.1747 21.3238 34.7167 20.8959 31.973C20.8959 31.973 20.4948 33.6952 20.6044 33.9118C20.7141 34.1284 21.8372 35.3157 22.1113 35.4087C22.3854 35.5016 24.9332 35.642 24.9332 35.642C24.9332 35.642 28.0928 35.1018 28.8141 35.4127C29.5355 35.7236 29.2821 33.6464 29.254 33.4505C29.226 33.2546 29.7 30.8058 29.5355 30.656C29.371 30.5063 27.7552 28.3001 27.5907 28.1082C27.4262 27.9163 25.5637 27.3106 25.5637 27.3106L25.2348 28.3803L27.1795 30.1332Z" fill="#EB3245"/>
<path d="M7.34508 26.7638C7.34508 26.7638 8.52305 23.3943 11.345 23.8322C11.345 23.8322 10.8275 23.3288 10.1496 23.3602C10.1496 23.3602 10.8275 23.1135 11.7936 23.5554L11.8651 23.183L10.8984 22.9785L10.169 22.7846L9.32664 23.1857L8.23759 24.2253L7.34374 25.7355L6.84033 27.0098L7.34508 26.7638Z" fill="white"/>
<path d="M12.0404 25.0342C12.0404 25.0342 9.76735 26.3379 8.0024 26.005L8.67094 26.4215C8.67094 26.4215 7.82858 26.6067 7.23291 26.4215L8.41422 26.8527C8.41422 26.8527 9.87298 26.7912 10.0889 26.7504C10.3049 26.7096 11.3732 26.37 11.3732 26.37C11.3732 26.37 12.0852 25.9488 12.1808 25.908C12.2764 25.8672 12.5151 25.5898 12.5151 25.5898L12.0404 25.0342Z" fill="#AE1D33"/>
<path d="M40.6128 26.7638C40.6128 26.7638 39.4348 23.3943 36.6129 23.8322C36.6129 23.8322 37.1304 23.3288 37.8083 23.3602C37.8083 23.3602 37.1304 23.1135 36.1643 23.5554L36.0928 23.183L37.0581 22.9785L37.7875 22.7846L38.6299 23.1857L39.719 24.2253L40.6128 25.7355L41.1169 27.0071L40.6128 26.7638Z" fill="white"/>
<path d="M35.9182 25.0342C35.9182 25.0342 38.1912 26.3379 39.9555 26.005L39.287 26.4215C39.287 26.4215 40.1294 26.6067 40.725 26.4215L39.5437 26.8527C39.5437 26.8527 38.0849 26.7912 37.869 26.7504C37.6531 26.7096 36.5847 26.37 36.5847 26.37C36.5847 26.37 35.8727 25.9488 35.7771 25.908C35.6815 25.8672 35.4429 25.5898 35.4429 25.5898L35.9182 25.0342Z" fill="#AE1D33"/>
<path d="M15.4135 27.3922C15.4135 27.3922 14.6741 26.5538 14.6052 25.3645C14.5363 24.1752 13.4018 23.4217 12.9071 23.4351C12.4124 23.4485 12.0166 24.1885 12.8108 25.4902C12.8108 25.4902 12.167 25.1272 12.1804 25.0342C12.1938 24.9413 12.0166 24.0107 12.0166 23.9144V23.183C12.0166 23.183 12.1262 23.0146 12.5514 23.0126C12.9766 23.0106 13.4874 22.6114 13.825 22.7846C14.1781 22.9728 14.5147 23.1904 14.8312 23.4351C15.017 23.5862 15.3734 24.3256 15.4141 24.3804C15.4549 24.4352 15.3326 25.1064 15.3052 25.1613C15.2778 25.2161 15.0578 26.0518 15.0852 26.1641C15.1126 26.2764 15.3861 27.2264 15.4135 27.3922Z" fill="white"/>
<path d="M13.4685 30.8185C13.4685 30.8185 14.5088 33.4692 15.3044 34.1043C16.0999 34.7395 17.9184 36.1334 18.0708 36.2838C18.2232 36.4342 17.8428 37.2325 17.8428 37.5079C17.8428 37.7833 17.6817 38.387 17.7218 38.5107C17.7619 38.6344 17.2284 38.8497 17.2284 38.8497L16.2009 37.8034L14.9888 36.4864L14.2287 35.3077L13.5728 33.7975L13.1209 31.9483C13.1209 31.9483 12.9137 30.4688 13.4685 30.8185Z" fill="white"/>
<path d="M20.5859 39.571C20.5859 39.571 20.83 41.9397 23.7555 42.1516C27.0942 42.3943 27.6792 39.0369 27.6792 39.0369L27.0942 39.3384L26.78 40.156L26.1529 41.0097L25.1661 41.5446L24.3993 41.7498L23.1525 41.683L22.2486 41.2858L21.5333 40.5819L20.8961 39.2842L20.5859 39.571Z" fill="#BCBEC0"/>
<path d="M19.7554 36.8728C19.7554 36.8728 20.4099 35.6126 21.521 36.2711C22.6321 36.9296 24.1664 38.1885 26.9877 36.8728C26.9877 36.8728 26.386 38.27 23.8375 37.6396C21.289 37.0092 21.1526 37.1716 20.6044 37.558C20.0562 37.9445 18.9337 37.9959 19.7554 36.8728ZM41.6167 27.1896C41.6167 27.1896 36.5478 27.1622 35.3672 25.6807C35.3672 25.6807 34.4085 27.1328 34.8992 28.5849C35.3899 30.0369 35.7489 35.4882 29.9406 39.7348C29.9406 39.7348 29.2834 40.6113 29.4205 41.5399C29.5575 42.4685 29.4205 42.9645 28.1877 42.9097C26.9549 42.8549 26.3519 42.9913 26.0484 43.4573C25.7976 43.8457 24.6531 43.7962 23.9926 43.6892C23.3327 43.7962 22.1875 43.8457 21.9375 43.4573C21.636 42.9893 21.0329 42.8556 19.7982 42.9097C18.5634 42.9639 18.4283 42.4712 18.5654 41.5399C18.7024 40.6086 18.0452 39.7348 18.0452 39.7348C12.2369 35.4882 12.5933 30.0369 13.0867 28.5849C13.58 27.1328 12.6187 25.6807 12.6187 25.6807C11.4407 27.1602 6.37249 27.1876 6.37249 27.1876C6.99557 25.0075 8.93568 23.3301 9.64299 22.7752C9.07235 22.5219 8.53283 22.2036 8.03515 21.8266C6.19465 20.4427 5.29413 16.7029 5.97871 13.3127C6.35109 11.4729 7.52438 8.24915 11.1933 7.33257L12.7163 6.96153L11.438 7.85471C11.4079 7.87543 9.29402 9.39235 9.05668 11.8626C8.88487 13.6443 9.71052 15.4968 11.5089 17.3687C11.5878 17.4296 12.1587 17.8407 13.1889 17.7832C13.3987 17.7778 13.6072 17.8179 13.8 17.9009C14.286 17.338 15.7943 15.9762 19.0815 15.8786C20.4065 15.8391 21.3746 16.0123 22.0786 16.3198C22.0786 16.3198 23.6296 16.7002 23.9445 17.6729C23.9445 17.6729 24.3924 16.8279 25.8465 16.3532C26.5564 16.0263 27.5466 15.8378 28.9218 15.8786C32.2083 15.9762 33.7165 17.338 34.2032 17.9009C34.396 17.8179 34.6045 17.7778 34.8143 17.7832C35.8445 17.8407 36.4188 17.4296 36.4943 17.3687C38.2927 15.4968 39.1184 13.6443 38.9465 11.8626C38.7092 9.38901 36.5953 7.87543 36.5652 7.85471L35.2829 6.96153L36.7958 7.33993C40.4641 8.2565 41.6368 11.4802 42.0105 13.32C42.6977 16.7102 41.7945 20.45 39.954 21.8339C39.4564 22.2109 38.9168 22.5293 38.3462 22.7826C39.0528 23.3321 40.993 25.0122 41.616 27.1896H41.6167ZM33.6122 19.0535C33.3555 19.3817 32.9724 20.085 33.2887 21.1045C33.5019 21.7938 34.0588 22.3153 34.8564 22.5753C35.654 22.8354 36.5632 22.7919 37.5025 22.4898C37.9477 22.0532 38.8055 21.1333 38.986 20.3698L38.8523 21.5571C38.8523 21.5571 39.7635 21.5324 40.7061 20.0068C41.5873 18.3354 41.9222 15.7662 41.4496 13.433C41.1527 11.9703 40.313 9.5655 37.9665 8.37884C38.6256 9.13363 39.3704 10.2962 39.5181 11.7998C39.5288 11.9121 39.5362 12.0237 39.5402 12.134C39.5402 12.134 40.0376 14.6819 38.7226 16.4695C38.7841 16.0998 38.99 15.1358 38.99 15.1358L38.1744 16.2329C38.0407 16.4227 37.8994 16.6126 37.7505 16.8025L37.7472 16.8072C37.4905 17.1303 37.2065 17.4534 36.8955 17.7765L36.8741 17.7966C36.844 17.8227 36.1133 18.4277 34.7822 18.3535C34.49 18.3368 33.9833 18.5775 33.6122 19.0535ZM14.7761 18.6189C14.7981 18.6456 14.8209 18.6717 14.8429 18.6991C15.4045 19.4192 15.5536 20.3344 15.2621 21.275C15.1423 21.6586 14.9352 22.0092 14.6571 22.2992C14.9552 23.2131 16.049 25.791 19.0828 26.6414C19.0828 26.6414 19.8229 25.1519 18.7338 24.3075C18.7338 24.3075 19.7647 24.9507 19.9044 25.8739C19.8229 25.2288 19.3295 22.4008 16.9054 21.9736C16.9054 21.9736 19.6464 21.1794 21.398 24.3075C21.398 24.3075 22.5245 22.5326 23.8515 22.3955H24.1517C25.4788 22.5326 26.6052 24.3075 26.6052 24.3075C28.3588 21.1794 31.0979 21.9736 31.0979 21.9736C28.6737 22.4008 28.1803 25.2288 28.0988 25.8739C28.2385 24.9507 29.2694 24.3075 29.2694 24.3075C28.1803 25.1519 28.9204 26.6414 28.9204 26.6414C31.9543 25.791 33.048 23.2131 33.3462 22.2992C33.0693 22.0088 32.8633 21.6583 32.7445 21.275C32.453 20.3344 32.6021 19.4192 33.1636 18.6991C33.185 18.6717 33.2078 18.6456 33.2305 18.6189C30.3845 16.5357 27.1367 16.8807 27.1367 16.8807L28.8622 16.408C27.6428 16.3171 26.7383 16.4976 26.0671 16.8092C24.6544 17.6876 24.0688 20.2722 24.0688 20.2722C24.0895 19.615 23.294 17.9196 23.2271 17.8274C22.6254 17.0304 21.4421 16.2376 19.1443 16.4094L20.8705 16.882C20.8705 16.882 17.6207 16.5357 14.7761 18.6189ZM28.9184 28.5321C28.9184 28.5321 31.3633 29.3129 32.3494 26.005C32.3494 26.005 29.7608 26.025 28.9184 28.5321ZM19.3255 30.8285C19.038 31.7798 19.1416 33.022 20.1237 34.5984C20.1826 33.4004 20.93 31.9042 20.93 31.9042C21.0503 34.0281 22.8293 35.1593 22.9176 35.2141C23.3508 35.3739 23.8662 35.281 23.9872 35.2589V35.2536H23.9993H24.012V35.2589C24.1664 35.291 24.9787 35.4334 25.4239 35.0069C25.7448 34.6994 26.761 34.575 27.721 34.8364C30.8859 30.0817 26.1633 28.2606 26.1633 28.2606C26.0537 28.9733 27.2049 30.1239 27.2049 30.1239C25.6893 30.3298 24.9205 29.7374 24.5308 29.1458C24.5308 29.1458 24.157 28.752 24.01 28.3769L23.9431 28.4438C23.9116 28.4804 23.8779 28.515 23.8422 28.5474C23.2639 29.1491 22.0411 30.5704 22.1828 31.7812C22.1828 31.7812 21.9368 30.6239 22.1247 29.6131C21.4561 30.2308 20.6693 31.3098 20.1191 33.1757C20.1204 33.1757 19.5896 31.9249 19.3255 30.8285ZM19.9165 26.0076V25.9869C19.9168 25.9929 19.9168 25.9989 19.9165 26.005V26.0076ZM28.0847 25.9869V26.0076C28.0843 25.9998 28.0843 25.992 28.0847 25.9842V25.9869ZM15.6498 26.0076C16.6359 29.3156 19.0808 28.5347 19.0808 28.5347C18.2384 26.025 15.6498 26.005 15.6498 26.005V26.0076ZM9.01323 20.3678C9.19373 21.1313 10.0515 22.0512 10.4967 22.4878C11.436 22.7899 12.3539 22.828 13.1428 22.5733C13.9317 22.3186 14.4973 21.7938 14.7105 21.1025C15.0268 20.083 14.6437 19.3797 14.387 19.0515C14.0159 18.5754 13.5092 18.3348 13.2204 18.3522C11.8886 18.4264 11.1586 17.8213 11.1285 17.7953L11.1071 17.7752C10.7951 17.4521 10.5112 17.1289 10.2554 16.8058L10.252 16.8011C10.1036 16.6148 9.96256 16.4259 9.82885 16.2342L9.01323 15.1371C9.01323 15.1371 9.21847 16.1012 9.28064 16.4709C7.96562 14.6832 8.46302 12.1354 8.46302 12.1354C8.46703 12.0224 8.47438 11.9108 8.48508 11.8011C8.63149 10.2976 9.37758 9.13496 10.0368 8.38018C7.68751 9.56684 6.85049 11.9716 6.55366 13.4344C6.081 15.7676 6.41594 18.3348 7.29708 20.0081C8.23972 21.5337 9.15095 21.5585 9.15095 21.5585L9.01323 20.3678ZM12.1086 25.3271C11.4367 24.8377 11.4922 23.7961 11.5651 23.294C11.1194 23.2503 10.6803 23.1559 10.256 23.0126C9.9795 23.1137 9.72488 23.2669 9.50594 23.4638C10.0127 23.397 10.585 23.6283 10.585 23.6283C7.75971 23.7513 7.49229 26.4088 7.49229 26.4088C8.16084 26.731 9.31474 26.5458 9.31474 26.5458C9.04064 26.479 8.36942 26.1213 8.36942 26.1213C10.7648 26.7377 12.1086 25.3271 12.1086 25.3271ZM17.6648 36.5439C14.4505 34.8725 13.3995 31.3118 13.3995 31.3118C13.4744 35.5578 17.1253 38.131 17.1253 38.131C16.1974 36.5292 17.6648 36.5439 17.6648 36.5439ZM16.9823 29.4085C16.9823 29.4085 14.7359 28.7921 14.4618 26.005C14.4618 26.005 14.9004 27.0987 15.3523 27.3086C15.3523 27.3086 14.6611 26.1052 14.9278 24.9981C15.1284 24.1678 13.7866 23.4779 13.098 23.183C12.8034 23.2588 12.5015 23.3023 12.1975 23.3127C12.0571 24.3156 12.7016 25.0683 13.0579 25.5938C13.4316 26.1447 13.8996 27.7565 13.4811 28.9265C13.6489 30.4835 14.4231 34.2869 17.9964 35.9014C17.9991 35.9014 18.7385 32.3661 16.9823 29.4085ZM28.8743 36.3613C27.6829 35.2101 26.7169 35.3131 26.0183 35.6005C25.3892 35.8599 24.3603 35.9522 23.9966 35.8626C23.6336 35.9522 22.6047 35.8626 21.9756 35.6005C21.277 35.3131 20.3109 35.2101 19.1196 36.3613C17.9282 37.5126 18.1609 39.2581 18.4617 39.5871C18.7626 39.916 19.0099 40.6567 18.9137 41.4637C18.8174 42.2706 19.3817 42.5868 20.0375 42.518C20.6933 42.4491 21.6534 42.7921 22.0779 43.1618C22.5024 43.5315 23.3247 43.4085 23.3247 43.4085C22.9684 43.3129 22.7357 42.9973 22.7357 42.9973C23.0366 43.1658 23.3187 43.2647 23.6342 43.2701C23.7469 43.276 23.8598 43.276 23.9725 43.2701C24.0964 43.2736 24.2204 43.2685 24.3436 43.2547C24.6659 43.2446 24.9808 43.1558 25.2608 42.996C25.2608 42.996 25.0282 43.3115 24.6718 43.4071C24.6718 43.4071 25.4935 43.5308 25.9187 43.1604C26.3438 42.7901 27.3019 42.4484 27.959 42.5166C28.6162 42.5848 29.1785 42.2706 29.0829 41.4623C28.9873 40.6541 29.2333 39.914 29.5348 39.5857C29.8363 39.2575 30.069 37.5139 28.877 36.3607L28.8743 36.3613ZM35.799 23.3127C35.4953 23.3022 35.1936 23.2587 34.8992 23.183C34.2106 23.4779 32.8695 24.1678 33.0694 24.9981C33.3368 26.1072 32.6449 27.3086 32.6449 27.3086C33.0968 27.0987 33.5354 26.005 33.5354 26.005C33.2613 28.7921 31.015 29.4085 31.015 29.4085C29.2614 32.3675 30.0008 35.9014 30.0008 35.9014C33.5741 34.2869 34.3463 30.4862 34.5161 28.9265C34.0976 27.7565 34.5649 26.1447 34.9393 25.5938C35.295 25.0683 35.9394 24.3142 35.799 23.3127ZM37.4142 23.6283C37.4142 23.6283 37.9858 23.3956 38.4933 23.4638C38.2743 23.2669 38.0197 23.1137 37.7432 23.0126C37.3198 23.1557 36.8816 23.2501 36.4368 23.294C36.5097 23.7961 36.5652 24.8377 35.8933 25.3271C35.8933 25.3271 37.2357 26.7377 39.6325 26.1213C39.6325 26.1213 38.9639 26.4776 38.6871 26.5458C38.6871 26.5458 39.8384 26.731 40.5089 26.4088C40.5062 26.4088 40.2395 23.7513 37.4142 23.6283ZM36.3559 22.5834C36.3559 22.5834 32.2671 21.628 35.6165 18.5875C35.6165 18.5875 34.3463 18.7072 33.7881 19.7996C33.2298 20.8919 34.014 22.7164 36.3559 22.5834ZM41.2049 13.7385C41.616 16.7517 40.301 19.6832 40.301 19.6832C42.3334 16.6467 41.2049 13.7385 41.2049 13.7385ZM24.9332 36.3252C29.0428 35.9141 29.125 39.4193 29.125 39.4193C29.4806 38.4592 29.0702 37.2017 28.2753 36.4616C27.4804 35.7216 24.9332 36.3252 24.9332 36.3252ZM28.6717 39.3671C28.6717 39.7983 28.3481 39.916 28.0172 39.924C27.7443 40.7751 27.2081 41.5174 26.4861 42.0442C25.764 42.5709 24.8934 42.8547 23.9996 42.8547C23.1059 42.8547 22.2352 42.5709 21.5131 42.0442C20.7911 41.5174 20.2549 40.7751 19.982 39.924C19.6511 39.916 19.3275 39.7983 19.3275 39.3671C19.3275 38.4833 20.8685 38.1751 21.5464 38.9767C22.1969 39.7448 22.5826 40.154 23.917 40.1687H24.0822C25.4193 40.154 25.8023 39.7448 26.4528 38.9767C27.1307 38.1751 28.6717 38.4833 28.6717 39.3671ZM21.2201 39.7014C21.436 40.2635 21.8172 40.747 22.3135 41.0881C22.8098 41.4291 23.3978 41.6117 23.9999 41.6117C24.6021 41.6117 25.1901 41.4291 25.6864 41.0881C26.1827 40.747 26.5639 40.2635 26.7797 39.7014C26.402 39.7087 26.3398 40.0357 25.8364 40.4147C25.3196 40.8058 24.4706 40.8994 24.0942 40.9215V40.9288C24.0942 40.9288 24.0594 40.9288 23.9993 40.9288C23.9391 40.9288 23.905 40.9288 23.905 40.9288V40.9235C23.5286 40.9014 22.6796 40.8078 22.1628 40.4167C21.662 40.0336 21.5952 39.7087 21.2201 39.7014ZM27.6789 39.9019C27.556 39.8834 27.4345 39.8564 27.3152 39.8211C27.2404 39.7943 27.1728 39.7729 27.1107 39.7542C26.8806 40.3948 26.4583 40.9488 25.9015 41.3404C25.3448 41.7321 24.6806 41.9422 23.9999 41.9422C23.3192 41.9422 22.6551 41.7321 22.0984 41.3404C21.5416 40.9488 21.1193 40.3948 20.8892 39.7542C20.8264 39.7716 20.7588 39.793 20.684 39.8211C20.5649 39.8568 20.4433 39.8838 20.3203 39.9019C20.5835 40.6685 21.0796 41.3337 21.7393 41.8046C22.3989 42.2755 23.1891 42.5286 23.9996 42.5286C24.8101 42.5286 25.6003 42.2755 26.26 41.8046C26.9196 41.3337 27.4157 40.6685 27.6789 39.9019ZM6.79433 13.7385C6.79433 13.7385 5.66584 16.6467 7.6982 19.6832C7.6982 19.6832 6.38318 16.7517 6.79433 13.7385ZM11.6433 22.5834C13.9832 22.7171 14.7674 20.8919 14.2111 19.7996C13.6549 18.7072 12.3827 18.5875 12.3827 18.5875C15.7321 21.628 11.6433 22.5834 11.6433 22.5834Z" fill="#18243D"/>
</g>
<defs>
<clipPath id="clip0_310_5234">
<rect width="48" height="51.9718" fill="white"/>
</clipPath>
</defs>
</svg>
