<svg width="54" height="58" viewBox="0 0 54 58" fill="none" xmlns="http://www.w3.org/2000/svg">
<path d="M52.0604 38.7585C52.6561 39.7109 52.3095 41.0023 51.2864 41.6421L27.6337 56.4343C26.6106 57.0741 25.2978 56.8205 24.7022 55.8681L1.65865 19.0214C1.06302 18.069 1.40972 16.7779 2.43286 16.1381L26.0855 1.34592C27.1087 0.706052 28.4213 0.959425 29.0169 1.91184L52.0604 38.7585Z" fill="white"/>
<path d="M51.358 41.7569L27.7053 56.549C26.6203 57.2276 25.2221 56.9554 24.587 55.9398L1.54331 19.0929C0.908757 18.0782 1.27528 16.7008 2.36028 16.0223L26.013 1.23014C27.098 0.551587 28.4961 0.823791 29.1314 1.83959L52.1747 38.686C52.8095 39.7009 52.4432 41.0781 51.358 41.7569ZM2.50514 16.2539C1.54697 16.8532 1.21875 18.0627 1.77403 18.9506L24.8165 55.7955C25.3716 56.6832 26.603 56.9177 27.5611 56.3185L51.2138 41.5264C52.172 40.9271 52.5 39.7173 51.9449 38.8297L28.9016 1.98332C28.3463 1.09542 27.1151 0.861122 26.1569 1.46035L2.50514 16.2539Z" fill="#E6E6E6"/>
<path d="M47.5562 41.6408L29.2681 53.078C27.9757 53.8862 26.3343 53.6139 25.6206 52.4728L5.15107 19.7419C4.43742 18.6007 4.91099 17.0057 6.2034 16.1975L24.4915 4.76028C25.7842 3.95185 27.4256 4.22417 28.1392 5.3653L48.6088 38.0962C49.3225 39.2373 48.8489 40.8323 47.5562 41.6408Z" fill="#DB0000"/>
<path d="M29.4498 7.46079L29.2946 7.98326L26.6356 7.54235L26.7525 7.15297L26.4243 7.09843L27.1703 4.58657L27.3473 4.61706C26.8496 4.33758 26.2414 4.2372 25.6328 4.3327L26.7092 4.51123L25.9631 7.02309L25.5025 6.94665L25.3856 7.33603L22.8594 6.91684L23.2737 5.52182L22.6813 5.89232L22.3997 6.84062L21.4238 6.67876L20.8316 7.04908L22.2673 7.28717L21.5215 9.79765L21.0625 9.72135L20.946 10.1137L18.4181 9.69439L18.8324 8.29936L18.2417 8.6688L17.9601 9.6171L16.9839 9.45541L16.3917 9.82574L17.8274 10.0638L17.0823 12.5727L16.6247 12.4968L16.5078 12.8905L13.9785 12.4709L14.3928 11.0758L13.8007 11.4462L13.5188 12.3946L12.5429 12.2328L11.9507 12.6031L13.3864 12.8412L12.6416 15.3487L12.1853 15.2731L12.0681 15.6682L9.53723 15.2484L9.95154 13.8534L9.3608 14.2228L9.07919 15.1711L8.10329 15.0093L7.50943 15.3806L8.94508 15.6187L8.20088 18.1247L7.74604 18.0494L7.62852 18.4459L5.09622 18.0258L5.43749 16.8769C4.96294 17.4674 4.74572 18.1987 4.84141 18.8838L4.96353 18.4725L7.49565 18.8923L7.38584 19.2627L7.84069 19.338L7.0885 21.8703L6.41237 21.7586L6.73925 22.2813L6.95645 22.3175L6.89389 22.5286L7.22076 23.0513L7.41619 22.3937L9.95413 22.8146L9.84249 23.1909L10.2916 23.2659L9.54184 25.7907L8.86422 25.6791L9.19109 26.2018L9.4083 26.238L9.3452 26.4482L9.67208 26.9709L9.86751 26.3134L12.411 26.7368L12.2975 27.1189L12.7404 27.1922L11.9919 29.7127L11.3161 29.5997L11.6431 30.1226L11.8603 30.1588L11.7981 30.3705L12.125 30.8931L12.3202 30.2353L14.8699 30.6572L14.7547 31.0455L15.1915 31.1179L14.4449 33.6325L13.7681 33.5204L14.0951 34.0434L14.3123 34.0796L14.2498 34.2907L14.5767 34.8134L14.7719 34.1555L17.3269 34.5804L17.21 34.9741L17.6408 35.0456L16.8956 37.5545L16.2203 37.4415L16.5472 37.9642L16.7644 38.0004L16.7018 38.2115L17.0287 38.7342L17.2239 38.0763L19.7862 38.5014L19.6675 38.901L20.0919 38.9713L19.3486 41.4743L18.672 41.3618L18.999 41.8847L19.2162 41.9209L19.1535 42.1317L19.4805 42.6547L19.6758 41.9968L22.2329 42.4212L22.1156 42.8156L22.5457 42.8867L21.8009 45.3949L21.124 45.2825L21.451 45.8055L21.6682 45.8417L21.6057 46.0528L21.9326 46.5755L22.1275 45.9178L24.681 46.3401L24.565 46.729L25.0004 46.801L24.2542 49.3146L23.5773 49.2022L23.9041 49.7248L24.1213 49.761L24.0588 49.9721L24.3857 50.4948L24.5809 49.837L27.1277 50.2607L27.0127 50.6449L27.4534 50.7184L26.7053 53.2371L26.3309 53.1748C26.8697 53.5075 27.5516 53.6208 28.2289 53.4902L27.1654 53.3139L27.9134 50.7949L28.2619 50.8537L28.3767 50.4692L31.016 50.907L30.6222 52.2338L31.2141 51.8637L31.4755 50.9829L32.3819 51.1333L32.9738 50.7632L31.6084 50.5365L32.356 48.0189L32.7027 48.0765L32.8169 47.6911L35.4587 48.1286L35.0649 49.4554L35.6571 49.0851L35.9183 48.2045L36.8246 48.3549L37.4168 47.9846L36.0514 47.7579L36.7984 45.2419L37.1437 45.2991L37.2568 44.9121L39.899 45.3501L39.5054 46.6772L40.0975 46.3069L40.359 45.4261L41.2651 45.5767L41.8573 45.2063L40.4917 44.9794L41.2386 42.465L41.5824 42.522L41.6973 42.1338L44.34 42.5727L43.9464 43.8998L44.5385 43.5295L44.7998 42.6489L45.7061 42.7993L46.2983 42.429L44.9329 42.2023L45.679 39.6892L46.0212 39.746L46.1375 39.357L48.7807 39.7967L48.509 40.7028C48.7912 40.27 48.9411 39.764 48.9405 39.2468L48.9104 39.3491L46.2655 38.9104L46.3774 38.5333L46.0352 38.4764L46.7849 35.9516L47.3228 36.041L46.9957 35.5181L46.9173 35.505L46.9401 35.4291L46.613 34.9061L46.458 35.4289L43.8206 34.9903L43.931 34.6184L43.5827 34.5594L44.3343 32.0287L44.8722 32.1181L44.546 31.5966L44.4676 31.5836L44.4904 31.5076L44.1634 30.9847L44.0083 31.5074L41.3744 31.0706L41.4831 30.7041L41.1304 30.6451L41.8838 28.109L42.4216 28.1984L42.0937 27.674L42.0155 27.6613L42.0381 27.5851L41.711 27.0621L41.556 27.5849L38.9273 27.1488L39.0347 26.7878L38.6761 26.7282L39.4308 24.1867L39.9687 24.2762L39.6417 23.7532L39.5634 23.7405L39.586 23.6643L39.2599 23.1427L39.1047 23.6652L36.47 23.2285L36.5789 22.8611L36.2275 22.8041L36.9806 20.2688L37.5183 20.3579L37.1905 19.8338L37.1121 19.8208L37.1347 19.7446L36.8078 19.2219L36.6527 19.7444L34.0109 19.307L34.1218 18.934L33.7756 18.8765L34.5268 16.3471L35.0645 16.4363L34.7377 15.9136L34.6592 15.9006L34.6818 15.8243L34.355 15.3017L34.1998 15.8241L31.5525 15.3842L31.6649 15.0055L31.3246 14.9491L32.0743 12.4243L32.612 12.5134L32.2862 11.9924L32.2078 11.9794L32.2304 11.9032L31.9035 11.3805L31.7483 11.903L29.0954 11.463L29.21 11.0782L28.8758 11.0227L29.6236 8.50499L30.1613 8.59414L29.8345 8.07147L29.756 8.05843L29.7786 7.98222L29.4498 7.46079ZM22.7287 7.36354L25.2552 7.78255L25.1436 8.15833L25.6041 8.23449L24.8529 10.7602L22.1954 10.3204L22.3119 9.92849L21.9823 9.87363L22.7287 7.36354ZM28.0545 12.1615L27.3057 14.6822L24.6545 14.2423L24.7685 13.8567L24.4329 13.8009L25.1801 11.2847L27.7127 11.7046L27.5993 12.0863L28.0545 12.1615ZM30.5047 16.0882L29.7577 18.603L27.1123 18.1642L27.2254 17.7839L26.8836 17.7272L27.6327 15.2051L30.1711 15.6262L30.058 16.0132L30.5047 16.0882ZM32.9548 20.0141L32.2094 22.5232L29.5701 22.0854L29.6813 21.711L29.333 21.652L30.0837 19.1242L32.6282 19.5462L32.5114 19.9395L32.9548 20.0141ZM35.405 23.9408L34.6614 26.444L32.0282 26.0071L32.1376 25.6386L31.7848 25.5793L32.5371 23.0453L35.0879 23.4685L34.9691 23.8662L35.405 23.9408ZM37.8551 27.8675L37.1134 30.3648L34.4864 29.9288L34.5941 29.5665L34.2333 29.5059L34.9875 26.966L37.5444 27.3901L37.4241 27.7955L37.8551 27.8675ZM40.3086 31.783L39.5655 34.2856L36.9332 33.8489L37.0422 33.481L36.689 33.4212L37.4417 30.8866L39.993 31.3099L39.875 31.7106L40.3086 31.783ZM42.7621 35.6986L42.0175 38.2064L39.3796 37.7689L39.4903 37.3956L39.1412 37.3372L39.8922 34.808L42.4389 35.2317L42.3218 35.6263L42.7621 35.6986ZM40.6903 41.103L40.5777 41.4815L38.0359 41.0601L38.7811 38.5508L39.1306 38.609L39.2474 38.2157L41.8853 38.6532L41.1355 41.1781L40.6903 41.103ZM36.251 43.8793L36.138 44.2592L33.5947 43.8372L34.3405 41.3267L34.6919 41.3837L34.8083 40.9918L37.4446 41.4292L36.6948 43.9541L36.251 43.8793ZM31.8117 46.6556L31.6981 47.037L29.1533 46.6152L29.8995 44.1029L30.2509 44.1599L30.3675 43.7707L33.0028 44.2078L32.255 46.7283L31.8117 46.6556ZM25.8192 45.6658L26.5689 43.141L29.1185 43.5629L29.0017 43.9523L29.4388 44.0245L28.6926 46.5368L26.0608 46.1015L26.1729 45.7241L25.8192 45.6658ZM23.3657 41.7503L24.117 39.2197L26.6718 39.6443L26.5542 40.0401L26.9857 40.1115L26.2413 42.6184L23.613 42.1824L23.7237 41.8103L23.3657 41.7503ZM20.912 37.8345L21.665 35.2989L24.2264 35.7246L24.1073 36.1256L24.5334 36.196L23.7905 38.6976L21.1675 38.2626L21.2768 37.8958L20.912 37.8345ZM18.4617 33.9083L19.2129 31.3781L21.7676 31.8025L21.6498 32.196L22.0819 32.2678L21.3374 34.7751L18.7093 34.3402L18.82 33.9673L18.4617 33.9083ZM16.0114 29.9813L16.7611 27.4564L19.3099 27.8789L19.1939 28.2677L19.6321 28.3404L18.8857 30.8537L16.2523 30.4177L16.3648 30.039L16.0114 29.9813ZM13.5626 26.0537L14.3105 23.536L16.8533 23.9578L16.7382 24.3417L17.1825 24.4154L16.4343 26.9345L13.7925 26.4971L13.9071 26.1123L13.5626 26.0537ZM11.1124 22.127L11.8584 19.6152L14.395 20.0358L14.283 20.4134L14.7333 20.4877L13.9835 23.0125L11.3359 22.5728L11.4528 22.1834L11.1124 22.127ZM13.0751 16.6927L13.1855 16.3213L15.84 16.7614L15.0934 19.2748L14.6434 19.2004L14.5277 19.589L11.9907 19.1683L12.7424 16.6371L13.0751 16.6927ZM17.5145 13.9164L17.6251 13.5436L20.281 13.984L19.5341 16.4988L19.0833 16.4249L18.9684 16.8131L16.433 16.3925L17.1841 13.8628L17.5145 13.9164ZM21.9538 11.1401L22.0647 10.7659L24.7223 11.2065L23.9748 13.7228L23.5219 13.6475L23.4087 14.0346L20.8747 13.6143L21.6255 11.086L21.9538 11.1401ZM38.2436 37.1876L38.1327 37.5606L35.5848 37.1376L36.3287 34.6338L36.6817 34.6933L36.8 34.2948L39.4325 34.7313L38.6814 37.2609L38.2436 37.1876ZM33.8043 39.9639L33.6928 40.3385L31.1443 39.9158L31.8884 37.4103L32.2442 37.4693L32.3621 37.0721L34.993 37.5085L34.2425 40.0366L33.8043 39.9639ZM29.365 42.7402L29.2532 43.1162L26.7035 42.6942L27.4481 40.1876L27.8056 40.2467L27.9232 39.851L30.5527 40.287L29.8029 42.8119L29.365 42.7402ZM15.5314 20.6203L15.6436 20.243L18.292 20.6822L17.5421 23.2024L17.098 23.129L16.9854 23.5114L14.4423 23.0898L15.1921 20.5649L15.5314 20.6203ZM19.9707 17.844L20.0832 17.4653L22.7325 17.904L21.984 20.4245L21.5385 20.3508L21.4251 20.7325L18.8836 20.311L19.6334 17.7861L19.9707 17.844ZM26.065 18.8627L25.3178 21.3789L22.6749 20.9397L22.7883 20.5581L22.4451 20.501L23.1939 17.9803L25.7337 18.4017L25.6197 18.7873L26.065 18.8627ZM28.5152 22.7894L27.7698 25.2997L25.1319 24.8622L25.2434 24.4864L24.894 24.4282L25.6437 21.9033L28.1896 22.3256L28.0732 22.7175L28.5152 22.7894ZM30.9657 26.7159L30.2218 29.2205L27.59 28.7839L27.6997 28.414L27.3446 28.355L28.0967 25.8223L30.6503 26.245L30.532 26.6428L30.9657 26.7159ZM33.4159 30.6426L32.6738 33.1413L30.0481 32.7056L30.1562 32.3419L29.7948 32.2816L30.5487 29.7431L33.107 30.1676L32.987 30.5715L33.4159 30.6426ZM31.3549 36.0505L31.2453 36.4199L28.6912 35.9965L29.4336 33.4964L29.795 33.5562L29.9144 33.1538L32.5401 33.5894L31.788 36.1225L31.3549 36.0505ZM25.3524 35.0599L26.1058 32.5225L28.6651 32.9474L28.5458 33.3498L28.9733 33.4205L28.2309 35.9206L25.6066 35.4853L25.7152 35.12L25.3524 35.0599ZM22.902 31.1329L23.6537 28.6017L26.2079 29.0252L26.0882 29.4202L26.5217 29.4923L25.7778 31.9981L23.1474 31.5619L23.2577 31.1904L22.902 31.1329ZM20.4516 27.2064L21.2013 24.6815L23.7489 25.1047L23.6321 25.4941L24.0722 25.5668L23.3262 28.0786L20.69 27.6413L20.8021 27.2639L20.4516 27.2064ZM22.4251 21.7736L22.5397 21.3888L25.1826 21.828L24.4328 24.3528L23.9929 24.2804L23.8813 24.6562L21.3334 24.2332L22.0808 21.7153L22.4251 21.7736ZM28.906 32.1365L28.7978 32.5007L26.2383 32.0762L26.9825 29.5703L27.3377 29.6289L27.4554 29.2326L30.0872 29.6692L29.3334 32.2077L28.906 32.1365ZM26.4497 28.2089L26.3397 28.579L23.7857 28.1558L24.5318 25.6439L24.8812 25.7022L24.9981 25.3128L27.6357 25.7505L26.8837 28.2831L26.4497 28.2089ZM21.291 21.1813L21.1764 21.5661L21.6221 21.6401L20.8742 24.1578L18.2319 23.7196L18.347 23.3356L18.0022 23.2784L18.7503 20.7593L21.291 21.1813ZM17.9857 24.5492L18.1009 24.1652L20.7432 24.6035L19.9935 27.1284L19.5538 27.0566L19.4417 27.4339L16.8929 27.0114L17.6409 24.492L17.9857 24.5492ZM20.442 28.4768L20.5578 28.0881L23.1943 28.5253L22.4426 31.0565L22.0105 30.9847L21.9002 31.3562L19.3457 30.9322L20.0933 28.4177L20.442 28.4768ZM22.8983 32.4044L23.0157 32.0096L25.6461 32.4458L24.8926 34.9829L24.4666 34.9121L24.3581 35.2776L21.797 34.853L22.5418 32.3455L22.8983 32.4044ZM25.3548 36.3323L25.4738 35.9313L28.0981 36.3666L27.3461 38.8985L26.9147 38.8266L26.8048 39.1974L24.2501 38.7731L24.9932 36.273L25.3548 36.3323ZM28.0535 39.4042L28.1639 39.0335L27.8064 38.9743L28.5583 36.4422L31.1126 36.8659L30.9941 37.2647L31.4269 37.3364L30.6828 39.8419L28.0535 39.4042ZM32.4936 36.6273L32.6034 36.2582L32.2476 36.1992L32.9998 33.6657L35.5536 34.0886L35.4354 34.4871L35.8696 34.5591L35.1261 37.0631L32.4936 36.6273ZM35.7943 33.2742L35.685 33.6423L33.1314 33.2197L33.8734 30.721L34.2335 30.7804L34.3532 30.3767L36.9805 30.8124L36.2278 33.3471L35.7943 33.2742ZM33.3461 29.3597L33.2383 29.7225L30.6805 29.2981L31.4246 26.7946L31.7773 26.8536L31.8956 26.4558L34.5287 26.8927L33.7743 29.4327L33.3461 29.3597ZM30.8898 25.4321L30.7802 25.8007L28.2268 25.3784L28.9723 22.8677L29.3209 22.9264L29.4373 22.5345L32.0766 22.9723L31.324 25.5065L30.8898 25.4321ZM28.4336 21.5044L28.322 21.879L25.7753 21.4553L26.5226 18.9387L26.8644 18.9954L26.9784 18.6097L29.6238 19.0485L28.8731 21.5767L28.4336 21.5044ZM25.9773 17.5768L25.8642 17.9571L23.3241 17.5359L24.0748 15.0125L24.4104 15.0683L24.5232 14.6882L27.1747 15.1278L26.4241 17.6501L25.9773 17.5768ZM23.2744 14.4831L23.1613 14.8634L23.6145 14.9386L22.8654 17.4607L20.2158 17.0222L20.3307 16.634L19.9936 16.5779L20.7403 14.0633L23.2744 14.4831ZM18.8339 17.2601L18.7215 17.6388L19.1725 17.7126L18.4228 20.2374L15.7744 19.7982L15.8904 19.4094L15.5517 19.3531L16.298 16.8399L18.8339 17.2601ZM30.5007 43.3248L30.6125 42.9489L30.2611 42.8919L31.0108 40.367L33.5593 40.7896L33.4429 41.1815L33.8825 41.2534L33.1372 43.7639L30.5007 43.3248ZM34.9408 40.548L35.0521 40.1736L34.7007 40.1166L35.4516 37.5886L37.9992 38.0118L37.8825 38.4051L38.3226 38.4777L37.5777 40.9869L34.9408 40.548ZM18.2874 10.1411L20.8155 10.5602L20.7043 10.9346L21.1636 11.0108L20.4126 13.5387L17.7567 13.0983L17.8735 12.705L17.5426 12.6498L18.2874 10.1411ZM13.8464 12.9185L16.3757 13.3376L16.265 13.7109L16.7226 13.7869L15.9713 16.3163L13.3156 15.8761L13.433 15.4813L13.1004 15.4259L13.8464 12.9185ZM9.40536 15.6958L11.9358 16.1155L11.8257 16.4872L12.2819 16.5629L11.5303 19.0937L8.87745 18.6537L8.99515 18.2574L8.66116 18.2018L9.40536 15.6958ZM7.54842 21.9469L8.30043 19.4143L8.63442 19.4699L8.7444 19.0998L11.3973 19.5398L10.6514 22.052L10.2023 21.977L10.0858 22.3662L7.54842 21.9469ZM10.0004 25.8676L10.7502 23.3428L11.0901 23.3991L11.2019 23.0231L13.8495 23.4628L13.1015 25.9811L12.6603 25.9067L12.5457 26.2915L10.0004 25.8676ZM12.4534 29.7899L13.2019 27.2693L13.5479 27.3265L13.6616 26.9447L16.3034 27.3821L15.5536 29.907L15.1168 29.8346L15.0043 30.2133L12.4534 29.7899ZM14.9063 33.7121L15.6529 31.1974L16.0044 31.2544L16.1192 30.8663L18.7544 31.3032L18.003 33.833L17.5723 33.7615L17.4616 34.1344L14.9063 33.7121ZM17.3583 37.6329L18.1034 35.124L18.4614 35.1832L18.5784 34.7897L21.2074 35.2257L20.4542 37.7614L20.0296 37.6909L19.9208 38.0578L17.3583 37.6329ZM19.8112 41.5551L20.5545 39.0521L20.9187 39.1125L21.0374 38.7129L23.6604 39.1479L22.9089 41.6782L22.4786 41.6068L22.3684 41.979L19.8112 41.5551ZM22.2641 45.4773L23.0089 42.969L23.3677 43.0285L23.485 42.6341L26.1133 43.0701L25.3635 45.595L24.9281 45.5229L24.816 45.9002L22.2641 45.4773ZM24.717 49.3995L25.4635 46.8858L25.8162 46.9448L25.9319 46.5561L28.5655 46.9931L27.8172 49.5127L27.3767 49.4395L27.2631 49.8221L24.717 49.3995ZM31.1506 50.4665L28.5118 50.0288L28.6252 49.646L28.2766 49.5872L29.0248 47.0673L31.5697 47.4894L31.4553 47.8744L31.8965 47.9488L31.1506 50.4665ZM35.5916 47.6892L32.9514 47.2512L33.0645 46.8697L32.7181 46.8123L33.4665 44.2911L36.0101 44.7128L35.8969 45.0999L36.3408 45.1734L35.5916 47.6892ZM40.0329 44.9116L37.3908 44.4736L37.5033 44.0937L37.1585 44.0365L37.9068 41.5126L40.4487 41.9342L40.3336 42.3225L40.7788 42.3963L40.0329 44.9116ZM44.4739 42.1343L41.8313 41.6954L41.9434 41.3169L41.6 41.26L42.3498 38.7352L44.8903 39.1564L44.7743 39.5453L45.2209 39.6195L44.4739 42.1343ZM46.3303 35.8824L45.5806 38.4072L45.134 38.3331L45.022 38.71L42.4817 38.2885L43.2263 35.7807L43.5746 35.8396L43.692 35.4448L46.3303 35.8824ZM43.8783 31.9616L43.1269 34.4926L42.6862 34.4191L42.5759 34.7906L40.03 34.3683L40.7734 31.866L41.1259 31.9247L41.2447 31.5246L43.8783 31.9616ZM41.4265 28.0411L40.6734 30.5771L40.2374 30.5046L40.1287 30.8711L37.5785 30.4495L38.3199 27.9524L38.6783 28.0118L38.7986 27.6064L41.4265 28.0411ZM38.9736 24.1189L38.2191 26.6601L37.7884 26.5887L37.6811 26.9499L35.1261 26.525L35.8648 24.0178L36.2162 24.0748L36.3351 23.6754L38.9736 24.1189ZM36.5215 20.1981L35.7684 22.7333L35.3321 22.6611L35.223 23.0282L32.6734 22.6062L33.4183 20.097L33.7645 20.1545L33.8816 19.7611L36.5215 20.1981ZM34.0686 16.2759L33.3173 18.8052L32.8763 18.7311L32.7657 19.104L30.2212 18.682L30.968 16.1669L31.308 16.2235L31.4229 15.8353L34.0686 16.2759ZM31.6157 12.3536L30.866 14.8785L30.4169 14.8035L30.3044 15.1822L27.766 14.7612L28.5146 12.2402L28.8486 12.2959L28.962 11.9142L31.6157 12.3536ZM28.4161 10.9504L27.9612 10.8751L27.8468 11.2602L25.3145 10.8401L26.0643 8.31519L26.3924 8.36973L26.504 7.99395L29.163 8.43486L28.4161 10.9504Z" fill="white"/>
</svg>
