<svg width="21" height="15" viewBox="0 0 21 15" fill="none" xmlns="http://www.w3.org/2000/svg">
<rect width="21" height="15" rx="3" fill="#DE2910"/>
<g clip-path="url(#clip0_1526_1995)">
<path d="M4.64479 1.83002L6.28089 6.7163L2 3.69637H7.28958L3.00869 6.7163L4.64479 1.83002Z" fill="#FFDE00"/>
<path d="M9.63996 1L9.48552 2.70692L8.57818 1.23916L10.1998 1.90973L8.48166 2.29426L9.63996 1Z" fill="#FFDE00"/>
<path d="M11.7973 3.00235L10.972 4.51701L10.721 2.82416L11.9517 4.05276L10.2143 3.75733L11.7973 3.00235Z" fill="#FFDE00"/>
<path d="M12 6.02225L10.6149 7.07735L11.0975 5.4314L11.7008 7.03984L10.2384 6.08321L12 6.02225Z" fill="#FFDE00"/>
<path d="M9.60618 7.28839L9.52414 9L8.55406 7.56975L10.2046 8.17467L8.5058 8.62954L9.60618 7.28839Z" fill="#FFDE00"/>
</g>
<defs>
<clipPath id="clip0_1526_1995">
<rect width="10" height="8" fill="white" transform="translate(2 1)"/>
</clipPath>
</defs>
</svg>
