<svg width="16" height="16" viewBox="0 0 16 16" fill="none" xmlns="http://www.w3.org/2000/svg">
<g clip-path="url(#clip0_273_2583)">
<path d="M0.317693 6.74486C0.326369 6.71574 0.334744 6.68662 0.343821 6.65749C0.352896 6.62837 0.36237 6.60025 0.371645 6.57168C0.380919 6.54311 0.390096 6.51366 0.399869 6.48475C0.409642 6.45585 0.419815 6.42706 0.429788 6.39816C0.43976 6.36926 0.449734 6.34092 0.459706 6.31246C0.469679 6.284 0.480848 6.25566 0.49142 6.2272C0.50199 6.19874 0.512662 6.1694 0.523831 6.14061C0.535001 6.11182 0.546169 6.08436 0.557439 6.05613C0.568708 6.02789 0.580079 5.99833 0.591847 5.96954L0.592544 5.96787C0.604311 5.9393 0.616679 5.91096 0.628647 5.8825C0.640614 5.85404 0.651784 5.82692 0.663851 5.79935C0.675919 5.77179 0.689779 5.74144 0.702744 5.71254C0.715709 5.68364 0.727077 5.65696 0.739743 5.62995C0.753306 5.6006 0.76737 5.57148 0.781232 5.54236C0.793998 5.51534 0.806462 5.48833 0.819527 5.46143C0.833488 5.43275 0.848049 5.4043 0.86231 5.37573C0.876572 5.34716 0.889338 5.32104 0.9033 5.29381C0.917262 5.26657 0.933218 5.23734 0.947779 5.2091C0.962339 5.18087 0.976103 5.15452 0.990763 5.12729C1.00542 5.10006 1.02208 5.07049 1.03773 5.04214C1.05339 5.0138 1.06695 4.98857 1.08201 4.962C1.09707 4.93543 1.11433 4.90642 1.13038 4.8783C1.14644 4.85017 1.1613 4.8245 1.17706 4.79782C1.19281 4.77114 1.21056 4.74224 1.22692 4.715C1.24328 4.68777 1.25903 4.66154 1.27549 4.63497C1.29194 4.6084 1.31039 4.57939 1.32784 4.55249C1.3453 4.52559 1.36095 4.49969 1.37771 4.47346C1.39446 4.44722 1.41331 4.41966 1.43116 4.39276C1.44902 4.36586 1.46597 4.33973 1.48382 4.31328C1.50167 4.28682 1.52092 4.2597 1.53957 4.23291C1.55822 4.20612 1.57527 4.18078 1.59362 4.1551C1.61197 4.12942 1.63292 4.10052 1.65266 4.07329C1.67081 4.04828 1.68856 4.02304 1.70701 3.99815C1.72546 3.97325 1.74691 3.94568 1.76625 3.91945C1.7856 3.89321 1.80445 3.8682 1.824 3.84286C1.84354 3.81751 1.86459 3.79106 1.88493 3.76505C1.90528 3.73904 1.92432 3.71447 1.94477 3.68935C1.96521 3.66423 1.98715 3.63755 2.00829 3.61154C2.02944 3.58553 2.04819 3.56207 2.06883 3.53751C2.08947 3.51294 2.11291 3.48582 2.13485 3.45969C2.1554 3.43569 2.17554 3.41156 2.19628 3.38766C2.21932 3.3611 2.24306 3.33475 2.26609 3.30841C2.28604 3.28618 2.30599 3.26261 2.32673 3.23993C2.34957 3.2147 2.3729 3.18991 2.39594 3.1649C2.41898 3.13989 2.43912 3.11766 2.46116 3.09421C2.4832 3.07075 2.50574 3.04774 2.52798 3.02451C2.55022 3.00128 2.57496 2.97516 2.59879 2.9507C2.62263 2.92625 2.64447 2.90501 2.6674 2.88212C2.69034 2.85922 2.71537 2.83354 2.73981 2.80953C2.76424 2.78552 2.78967 2.76151 2.8146 2.73761C2.83774 2.71538 2.86068 2.69315 2.88441 2.67092C2.90974 2.64702 2.93567 2.62345 2.9613 2.59978C2.98484 2.57754 3.00818 2.55598 3.03211 2.5343C3.05864 2.51018 3.08577 2.48662 3.11259 2.46272C3.13603 2.44193 3.15917 2.42092 3.1824 2.40025C3.20993 2.37635 3.23795 2.35278 3.26588 2.3291C3.28941 2.30898 3.31275 2.28864 3.33648 2.26875C3.36471 2.24518 3.39343 2.22206 3.42185 2.19883C3.44579 2.17915 3.46952 2.15937 3.49376 2.13991C3.52368 2.11557 3.55469 2.09178 3.58531 2.06788C3.60825 2.04988 3.63098 2.03153 3.65412 2.01375C3.68284 1.99152 3.71196 1.97006 3.74098 1.94817C3.76651 1.92894 3.79185 1.90937 3.81768 1.89036C3.8455 1.8698 3.87382 1.84968 3.90195 1.82934C3.93007 1.809 3.9566 1.78943 3.98422 1.76987C4.01783 1.74608 4.05194 1.72285 4.08585 1.69951C4.10858 1.68372 4.13102 1.66783 4.15386 1.65226C4.20014 1.62092 4.24691 1.59013 4.29348 1.55945C4.30435 1.55233 4.31512 1.54488 4.32609 1.53777C4.37789 1.5042 4.43004 1.47111 4.48257 1.43851C4.48905 1.4345 4.49533 1.43039 4.50182 1.42639C4.56085 1.38934 4.62039 1.35321 4.68043 1.31801C5.89553 0.598594 7.16458 0.188531 8.38167 0.0673685C8.42821 0.0612917 8.47458 0.0556231 8.52079 0.0503616C8.53585 0.048583 8.55071 0.0471382 8.56597 0.0454712C8.59728 0.0421362 8.6286 0.0388012 8.65991 0.0358C8.67756 0.0340214 8.69522 0.0325756 8.71287 0.0309086C8.74169 0.0283518 8.77061 0.0259075 8.79933 0.0236845C8.81758 0.0222397 8.83573 0.0209055 8.85398 0.0195713C8.88261 0.0175705 8.91113 0.0156813 8.93975 0.0139027C8.9574 0.0129023 8.97516 0.0117903 8.99281 0.0109005C9.02342 0.00923347 9.05384 0.00789928 9.08436 0.00656509C9.09962 0.00601006 9.11497 0.0052309 9.13023 0.00467491C9.17185 0.0031929 9.21334 0.00208282 9.2547 0.00134182H9.26676C9.31211 0.000526428 9.35738 0.000156403 9.40259 0.000229836C9.41665 0.000229836 9.43072 0.000229836 9.44478 0.000229836C9.47603 0.000229836 9.50714 0.000599861 9.53812 0.00134182C9.55518 0.00134182 9.57213 0.00223064 9.58909 0.00267506C9.61728 0.00334263 9.64543 0.00419426 9.67356 0.00523186C9.69121 0.00589848 9.70896 0.00667572 9.72661 0.00745392C9.75434 0.00864029 9.78203 0.0100479 9.80969 0.0116787C9.82694 0.0126791 9.84419 0.0136795 9.86145 0.0147915C9.89067 0.0165701 9.91979 0.0187931 9.94891 0.0210171C9.96417 0.0221281 9.97942 0.0231276 9.99458 0.0244617C10.0321 0.0275745 10.0696 0.0309839 10.1071 0.0346889C10.1137 0.0353556 10.1201 0.0359106 10.127 0.0365772C10.1709 0.0410242 10.2146 0.0458784 10.258 0.0511398C10.2711 0.0526962 10.2842 0.0545855 10.2979 0.0562525C10.3282 0.0600319 10.3586 0.0640345 10.389 0.0682592C10.4053 0.0705929 10.4214 0.0730371 10.4376 0.0753717C10.4649 0.0793734 10.4921 0.0835609 10.5193 0.0879326C10.5362 0.090601 10.5531 0.093379 10.5699 0.0962696C10.5965 0.100716 10.6231 0.105348 10.6497 0.110165C10.6597 0.112054 10.6696 0.113611 10.6796 0.115501C10.6852 0.116502 10.6907 0.117723 10.6963 0.118724C10.7455 0.127913 10.7944 0.137658 10.8431 0.147959L10.8539 0.150293C10.8993 0.160075 10.9445 0.1703 10.9895 0.180972C11.0028 0.184085 11.0161 0.187308 11.0294 0.190642C11.0702 0.200499 11.1108 0.210763 11.1511 0.221434L11.1756 0.227771C11.223 0.240591 11.2702 0.253855 11.317 0.267565C11.329 0.271122 11.3409 0.27479 11.3528 0.278681C11.3902 0.28987 11.4274 0.301431 11.4646 0.313362L11.5 0.324478C11.5465 0.339299 11.5925 0.354935 11.6378 0.371387C11.6458 0.374166 11.6537 0.377167 11.6617 0.380056C11.7003 0.393914 11.7387 0.408142 11.7768 0.422741L11.8148 0.437415C11.8572 0.45394 11.8993 0.47091 11.9412 0.488325L11.9504 0.491994C11.9948 0.510669 12.039 0.529898 12.0829 0.549685C12.0949 0.55502 12.1068 0.5608 12.1187 0.566024C12.1542 0.582105 12.1895 0.598632 12.2245 0.615602L12.2529 0.629163C12.2957 0.650134 12.3382 0.671589 12.3805 0.693523C12.3905 0.698525 12.3997 0.703751 12.4094 0.708863C12.4435 0.726797 12.4773 0.745064 12.5109 0.763664C12.5221 0.77 12.5335 0.776114 12.5447 0.782451C12.5861 0.805904 12.6274 0.82958 12.6682 0.854035L12.6803 0.861372C12.7175 0.883604 12.7542 0.906503 12.7908 0.929735C12.8021 0.936849 12.8132 0.944074 12.8245 0.951299C12.8588 0.973531 12.8929 0.996021 12.9267 1.01877C12.9328 1.02288 12.9391 1.027 12.9451 1.03111C12.9842 1.05779 13.0228 1.08499 13.061 1.1127C13.071 1.11993 13.081 1.12726 13.091 1.13493C13.1216 1.15716 13.1518 1.18006 13.1819 1.20307C13.1912 1.2103 13.2006 1.2173 13.2098 1.22453C13.2471 1.25343 13.2839 1.28285 13.3204 1.31279C13.3273 1.31845 13.3341 1.3239 13.341 1.33001C13.3714 1.35521 13.4016 1.38078 13.4313 1.40671L13.4613 1.43284C13.4958 1.46329 13.5299 1.49416 13.5637 1.52543L13.5675 1.52888C13.6023 1.56133 13.6366 1.59439 13.6705 1.62803C13.6798 1.63715 13.689 1.64637 13.6982 1.6556C13.7257 1.68316 13.753 1.71103 13.78 1.73919C13.7869 1.74652 13.7939 1.75364 13.8007 1.76142C13.8333 1.79588 13.8654 1.83086 13.8971 1.86635C13.9047 1.8748 13.9119 1.88325 13.9194 1.8917C13.9449 1.9206 13.97 1.94976 13.9947 1.97918L14.0194 2.00841C14.0501 2.04532 14.0804 2.08267 14.11 2.12057C14.1136 2.12502 14.117 2.12969 14.1206 2.13424C14.147 2.16759 14.173 2.20261 14.1987 2.23729L14.2227 2.27064C14.2476 2.30498 14.2726 2.33967 14.2966 2.37468L14.3081 2.39113C14.3354 2.43122 14.3624 2.47198 14.3888 2.51341L14.4095 2.54586C14.4305 2.57899 14.4512 2.61234 14.4716 2.64591C14.4777 2.65613 14.484 2.66614 14.49 2.67636C14.5151 2.7186 14.5397 2.76129 14.5638 2.80442C14.5685 2.81298 14.5731 2.82165 14.5779 2.83032C14.5979 2.86626 14.6173 2.90253 14.6362 2.93914L14.6552 2.97605C14.6782 3.02051 14.7007 3.06586 14.7225 3.11166L15.4429 4.62341C15.421 4.57772 15.3985 4.53259 15.3757 4.48791L15.3566 4.451C15.3375 4.41443 15.3181 4.37808 15.2983 4.34218L15.2841 4.31617C15.26 4.27304 15.2355 4.23039 15.2104 4.18822C15.2043 4.178 15.1981 4.16788 15.192 4.15777C15.1716 4.12398 15.1509 4.09063 15.1298 4.05773C15.1229 4.04661 15.1162 4.03549 15.1092 4.02527C15.0826 3.98414 15.0557 3.94338 15.0284 3.90299L15.0169 3.88654C14.9927 3.85142 14.968 3.81673 14.943 3.7825L14.9191 3.74915C14.8934 3.71432 14.8673 3.67994 14.8409 3.646C14.8373 3.64155 14.8339 3.63688 14.8304 3.63232C14.8007 3.59453 14.7705 3.55718 14.7398 3.52028L14.7151 3.49104C14.6903 3.4614 14.6652 3.43224 14.6398 3.40356L14.6175 3.37822C14.5858 3.34272 14.5537 3.3077 14.5211 3.27317C14.5143 3.26595 14.5073 3.25894 14.5004 3.25172C14.4738 3.22348 14.4465 3.19558 14.4186 3.16802C14.4094 3.15879 14.4002 3.14956 14.3908 3.14034C14.3569 3.10684 14.3226 3.07383 14.2878 3.0413L14.284 3.03785C14.2503 3.00639 14.2161 2.97571 14.1816 2.94526L14.1517 2.91913C14.1218 2.89327 14.0916 2.86767 14.0611 2.84232C14.0543 2.83665 14.0477 2.83121 14.0412 2.82531C14.0047 2.79567 13.9677 2.76603 13.9304 2.73639C13.9212 2.72927 13.9119 2.72227 13.9027 2.71516C13.8725 2.69204 13.8422 2.66925 13.8115 2.6468C13.8015 2.63957 13.7916 2.63234 13.7816 2.62523C13.7433 2.59744 13.7046 2.57021 13.6656 2.54353C13.6595 2.5393 13.6533 2.5353 13.6473 2.53119C13.6133 2.50829 13.5792 2.48576 13.5449 2.46361C13.5338 2.45638 13.5225 2.44927 13.5112 2.44215C13.4746 2.41888 13.4377 2.39606 13.4006 2.37368C13.3966 2.37123 13.3927 2.36879 13.3888 2.36646C13.3479 2.342 13.3066 2.31814 13.2651 2.29487C13.2539 2.28853 13.2427 2.28242 13.2315 2.27619C13.1978 2.25752 13.1638 2.23899 13.1297 2.22062C13.1197 2.2155 13.1106 2.21039 13.1009 2.20539C13.0587 2.18315 13.0162 2.1617 12.9734 2.14103C12.964 2.13647 12.9544 2.13202 12.9451 2.12746C12.91 2.11057 12.8747 2.094 12.8391 2.07778C12.8273 2.07233 12.8153 2.06666 12.8033 2.06155C12.7595 2.04191 12.7153 2.02268 12.6708 2.00386L12.6619 2.00019C12.6199 1.98274 12.5777 1.96584 12.5352 1.94917C12.5226 1.94427 12.51 1.9395 12.4975 1.93472C12.4592 1.91989 12.4207 1.90563 12.3821 1.89192C12.3742 1.88903 12.3662 1.88603 12.3583 1.88325C12.3126 1.86702 12.2667 1.85138 12.2205 1.83634C12.2088 1.83245 12.1969 1.82878 12.185 1.82522C12.1479 1.81329 12.1107 1.80173 12.0732 1.79054C12.0614 1.78699 12.0495 1.78332 12.0375 1.77943C11.9905 1.76564 11.9434 1.75238 11.8961 1.73963L11.8717 1.7333C11.8312 1.72263 11.7906 1.71236 11.7499 1.70251C11.7364 1.69917 11.723 1.69595 11.71 1.69272C11.6649 1.68161 11.6203 1.67183 11.5744 1.66216C11.5708 1.66138 11.5672 1.66049 11.5635 1.65982C11.5149 1.64952 11.4659 1.63978 11.4167 1.63059C11.4012 1.6277 11.3856 1.62481 11.37 1.62203C11.3434 1.61728 11.3169 1.61265 11.2903 1.60813C11.2734 1.60524 11.2566 1.60246 11.2396 1.5998C11.2125 1.59535 11.1852 1.59124 11.1579 1.58723C11.1418 1.58479 11.1256 1.58234 11.1095 1.58012C11.079 1.5759 11.0486 1.57186 11.0182 1.568C11.005 1.56634 10.992 1.56456 10.9789 1.563C10.9353 1.55767 10.8916 1.55278 10.848 1.54833C10.8415 1.54766 10.8349 1.54722 10.828 1.54655C10.7906 1.54285 10.7531 1.53944 10.7155 1.53632C10.7003 1.53499 10.685 1.53399 10.6698 1.53277C10.6407 1.53055 10.6115 1.52847 10.5823 1.52654L10.5305 1.52354C10.5029 1.52199 10.4753 1.52054 10.4475 1.51932C10.4298 1.51854 10.4121 1.51776 10.3944 1.51709C10.3663 1.51613 10.3381 1.51524 10.31 1.51443C10.293 1.51443 10.276 1.51354 10.259 1.5132C10.2279 1.51261 10.1968 1.51224 10.1657 1.51209C10.1517 1.51209 10.1376 1.51209 10.1234 1.51209C10.0783 1.51209 10.0331 1.51209 9.9876 1.5132C9.98361 1.5132 9.97962 1.5132 9.97554 1.5132C9.93411 1.51402 9.89263 1.51513 9.85107 1.51654C9.83581 1.51654 9.82056 1.51787 9.8052 1.51843C9.77478 1.51976 9.74426 1.5211 9.71365 1.52265C9.69599 1.52365 9.67834 1.52477 9.66059 1.52577C9.63207 1.52754 9.60345 1.52932 9.57482 1.53143C9.55667 1.53277 9.53842 1.5341 9.52027 1.53555C9.49148 1.53777 9.46263 1.54018 9.43371 1.54277C9.41606 1.54433 9.3984 1.54588 9.38075 1.54766C9.34954 1.55066 9.31822 1.554 9.28681 1.55733C9.27175 1.559 9.25689 1.56045 9.24173 1.56222C9.19519 1.56741 9.14865 1.57308 9.10211 1.57923C7.88542 1.70028 6.61597 2.11035 5.40087 2.82987C5.34103 2.86544 5.2815 2.90153 5.22226 2.93814C5.21577 2.94214 5.20949 2.94637 5.20311 2.95037C5.15059 2.98305 5.09839 3.01614 5.04654 3.04963C5.03557 3.05675 5.02489 3.06408 5.01392 3.07186C4.96705 3.10254 4.92018 3.13333 4.8743 3.16468C4.85147 3.18024 4.82903 3.19614 4.80629 3.21181C4.77238 3.23527 4.73827 3.2585 4.70476 3.28218C4.67704 3.30185 4.64981 3.32197 4.62239 3.34176C4.59496 3.36154 4.56594 3.38222 4.53812 3.40267C4.51239 3.42179 4.48706 3.44135 4.46143 3.46058C4.43251 3.48282 4.40328 3.50405 4.37456 3.52617C4.35142 3.54395 4.32879 3.56229 4.30575 3.5803C4.27523 3.6042 4.24442 3.62799 4.2142 3.65233C4.18996 3.67167 4.16633 3.69157 4.14229 3.71113C4.11387 3.73448 4.08515 3.7576 4.05703 3.78116C4.03319 3.80106 4.00985 3.8214 3.98632 3.84141C3.95849 3.8652 3.93037 3.88877 3.90285 3.91267C3.87921 3.93334 3.85597 3.95435 3.83304 3.97514C3.80621 3.99903 3.77908 4.0226 3.75255 4.04672C3.72872 4.06829 3.70538 4.09041 3.68174 4.11219C3.65611 4.13587 3.63019 4.15932 3.60485 4.18322C3.58142 4.20545 3.55858 4.22769 3.53504 4.24992C3.51011 4.27393 3.48518 4.29772 3.46035 4.32195C3.43551 4.34618 3.41198 4.3703 3.38784 4.39454C3.36371 4.41877 3.34187 4.44011 3.31933 4.46312C3.29679 4.48613 3.27206 4.51236 3.24852 4.53693C3.22499 4.56149 3.20365 4.58328 3.18161 4.60662C3.15957 4.62997 3.13812 4.65376 3.11648 4.67732C3.09335 4.70233 3.07001 4.72712 3.04727 4.75235C3.02673 4.77458 3.00678 4.79793 2.98654 4.82083C2.9631 4.84717 2.93946 4.8734 2.91673 4.90008C2.89598 4.92387 2.87584 4.9481 2.85539 4.97211C2.83335 4.99801 2.81101 5.02369 2.78927 5.04992C2.76753 5.07616 2.74938 5.09928 2.72873 5.12396C2.70809 5.14863 2.68615 5.17553 2.66531 5.20177C2.64447 5.228 2.62542 5.25223 2.60547 5.27747C2.58553 5.3027 2.56458 5.32915 2.54454 5.35528C2.52449 5.3814 2.50614 5.4063 2.48689 5.43175C2.46764 5.45721 2.447 5.48422 2.42706 5.51056C2.40711 5.53691 2.39085 5.5607 2.3727 5.58571C2.35276 5.61294 2.33281 5.64006 2.31367 5.66752C2.29531 5.69331 2.27766 5.71954 2.25961 5.74533C2.24156 5.77112 2.22221 5.7988 2.20396 5.8257C2.18571 5.8526 2.16876 5.87872 2.15121 5.90518C2.13365 5.93163 2.1153 5.95875 2.09775 5.98577C2.0802 6.01278 2.06434 6.03845 2.04789 6.06491C2.03143 6.09137 2.01268 6.11971 1.99553 6.14728C1.97838 6.17485 1.96312 6.20075 1.94696 6.22742C1.93081 6.2541 1.91315 6.283 1.8971 6.31024C1.88104 6.33747 1.86598 6.36392 1.85042 6.39071C1.83487 6.4175 1.81781 6.44629 1.80206 6.47431C1.7863 6.50232 1.77214 6.52777 1.75778 6.55445C1.74202 6.58291 1.72606 6.61125 1.7107 6.63971C1.69535 6.66817 1.68208 6.69429 1.66772 6.72152C1.65336 6.74875 1.6378 6.77788 1.62324 6.80622C1.60868 6.83457 1.59592 6.8608 1.58225 6.88815C1.56859 6.91549 1.55343 6.94517 1.53957 6.97385C1.5265 7.00075 1.51404 7.02776 1.50127 7.05466C1.48741 7.0839 1.47325 7.11302 1.45979 7.14237C1.44712 7.16982 1.43505 7.19795 1.42269 7.22485C1.41032 7.25175 1.39646 7.28276 1.38379 7.31177C1.37113 7.34078 1.36036 7.36735 1.34869 7.39492C1.33702 7.42249 1.32376 7.45283 1.31179 7.48195C1.29982 7.51108 1.28885 7.53965 1.27738 7.56855C1.26591 7.59745 1.25464 7.62479 1.24377 7.65303C1.2329 7.68126 1.22223 7.71072 1.21146 7.73962C1.20069 7.76852 1.18992 7.79631 1.17965 7.82477C1.16938 7.85322 1.1597 7.88201 1.14973 7.91058C1.13976 7.93915 1.12919 7.96827 1.11981 7.99717C1.11044 8.02607 1.10096 8.05509 1.09159 8.0841C1.08221 8.11311 1.07274 8.14123 1.06386 8.16991C1.05499 8.19859 1.04631 8.22816 1.03763 8.25728C1.02896 8.28641 1.02018 8.31453 1.0119 8.34321C1.00363 8.37189 0.995948 8.40112 0.987969 8.43002C0.979992 8.45892 0.971713 8.48782 0.964133 8.51673C0.956553 8.54563 0.949574 8.57464 0.942293 8.60365C0.935013 8.63266 0.927434 8.66157 0.920553 8.69069C0.913671 8.71981 0.90729 8.74894 0.900607 8.77806C0.893926 8.80718 0.887144 8.83575 0.880661 8.86465C0.874179 8.89355 0.868494 8.92479 0.862411 8.95491C0.856826 8.98281 0.850842 9.01049 0.845457 9.03873C0.839772 9.06874 0.834785 9.09886 0.829399 9.12887C0.824512 9.15689 0.819427 9.18445 0.81454 9.21291C0.809653 9.24259 0.805466 9.27216 0.800879 9.30184C0.79629 9.33152 0.791802 9.35875 0.787813 9.38721C0.783525 9.41755 0.780035 9.4479 0.776146 9.47836C0.772555 9.50592 0.768665 9.53394 0.765474 9.56106C0.761984 9.59107 0.759292 9.62108 0.7562 9.6511C0.753308 9.679 0.750015 9.70668 0.747522 9.73491C0.745029 9.76314 0.742935 9.79316 0.740642 9.82228C0.738348 9.8514 0.735756 9.87975 0.733861 9.90843C0.731966 9.93711 0.73067 9.96779 0.729074 9.99735C0.727478 10.0269 0.725781 10.0529 0.724684 10.0814C0.723388 10.1125 0.722889 10.1436 0.722091 10.1748C0.721393 10.2011 0.720296 10.2276 0.719897 10.254C0.719897 10.2848 0.719897 10.3155 0.719897 10.3463C0.719897 10.3728 0.719897 10.3996 0.719897 10.4262C0.719897 10.4554 0.721393 10.4844 0.722091 10.5137C0.722789 10.5429 0.723088 10.5693 0.724185 10.5977C0.725282 10.6262 0.727079 10.6555 0.728575 10.6843C0.730071 10.7131 0.731167 10.7406 0.732963 10.7686C0.734757 10.7966 0.73745 10.8264 0.739743 10.8554C0.742037 10.8844 0.743734 10.911 0.746327 10.9386C0.748919 10.9663 0.75241 10.9966 0.755501 11.0255C0.758593 11.0544 0.760985 11.081 0.764277 11.1078C0.767568 11.1346 0.771956 11.1651 0.775846 11.1936C0.779736 11.2222 0.782826 11.2492 0.786915 11.2762C0.791004 11.3032 0.795892 11.3318 0.800379 11.359C0.804867 11.3863 0.809254 11.4155 0.81424 11.4435C0.819227 11.4715 0.825112 11.5003 0.830597 11.5288C0.836082 11.5572 0.840571 11.5828 0.846255 11.6097C0.852439 11.6399 0.859519 11.6698 0.866201 11.6999C0.871786 11.7249 0.876971 11.7499 0.882855 11.7748C0.889935 11.8048 0.897915 11.8346 0.905594 11.8644C0.911877 11.8892 0.91776 11.9139 0.924341 11.9386C0.93232 11.9683 0.941196 11.9976 0.949574 12.0275C0.956654 12.0522 0.963337 12.0769 0.970716 12.1015C0.98069 12.133 0.990663 12.1643 1.00064 12.1957C1.00772 12.218 1.0144 12.2402 1.02188 12.2624C1.03285 12.2958 1.04471 12.328 1.05628 12.3607C1.06356 12.3811 1.07035 12.4017 1.07783 12.422C1.08999 12.4554 1.10306 12.4877 1.11582 12.5205C1.1236 12.5404 1.13088 12.5604 1.13876 12.5802C1.15312 12.6157 1.16868 12.6508 1.18334 12.686C1.19062 12.7028 1.1973 12.7194 1.20468 12.7366C1.22742 12.7885 1.25102 12.8401 1.27549 12.8914L0.555145 11.3796C0.530745 11.3284 0.507144 11.2768 0.484339 11.2249C0.476959 11.2081 0.470176 11.1915 0.462996 11.1743C0.447937 11.1391 0.433077 11.1039 0.418417 11.0685C0.410439 11.0487 0.403158 11.0287 0.395479 11.0088C0.382713 10.9761 0.369651 10.9433 0.357484 10.9104C0.350004 10.89 0.343222 10.8694 0.335941 10.8489C0.324372 10.8163 0.312406 10.7836 0.301435 10.7507C0.294056 10.7284 0.287374 10.7062 0.280194 10.684C0.270222 10.6525 0.260248 10.6213 0.250276 10.5897C0.242896 10.5651 0.236313 10.5405 0.229232 10.5158C0.220755 10.4863 0.211978 10.4569 0.204 10.4269C0.197318 10.4022 0.191535 10.3774 0.185152 10.3527C0.177573 10.3228 0.169595 10.293 0.162514 10.263C0.15653 10.2382 0.151342 10.2131 0.145758 10.1882C0.139075 10.1581 0.131995 10.1282 0.125812 10.098C0.120227 10.0711 0.115841 10.044 0.110256 10.017C0.104671 9.99002 0.0988855 9.96034 0.0937996 9.93177C0.0887127 9.9032 0.0846252 9.87552 0.0800381 9.84729C0.0754499 9.81906 0.0706625 9.79171 0.0665731 9.76448C0.0624847 9.73724 0.0591946 9.7089 0.0554047 9.68189C0.0516157 9.65488 0.0473251 9.62486 0.0439348 9.59618C0.0405436 9.5675 0.0380516 9.5406 0.0351601 9.5137C0.0322676 9.4868 0.0285788 9.4559 0.0259857 9.42689C0.0233927 9.39788 0.021596 9.37131 0.0194016 9.34363C0.0172081 9.31595 0.0144157 9.28583 0.0126209 9.25682C0.0108261 9.22781 0.00972939 9.20124 0.00823307 9.17267C0.00673771 9.1441 0.00494003 9.11498 0.00374413 9.08597C0.00254726 9.05696 0.00244808 9.03039 0.00174999 9.00193C0.0010519 8.97348 -0.000144958 8.94368 -0.000444412 8.91445C-0.000444412 8.88788 -0.000444412 8.86121 -0.000444412 8.83453C-0.000444412 8.80374 -0.000444412 8.77306 -0.000444412 8.74227C-0.000444412 8.71592 0.000951767 8.68935 0.00174999 8.66301C0.00254726 8.63189 0.00304604 8.60076 0.0042429 8.56964C0.00543976 8.54163 0.00723457 8.51406 0.00872993 8.4856C0.0102262 8.45715 0.0115252 8.42624 0.0135193 8.39668C0.0155144 8.36711 0.0180063 8.33921 0.0202007 8.31053C0.0223942 8.28185 0.0244884 8.25239 0.0270815 8.22316C0.0296745 8.19392 0.0328665 8.16758 0.035759 8.13934C0.0388508 8.10933 0.0416422 8.07943 0.0451326 8.04942C0.0483236 8.02174 0.0522137 7.99384 0.0557041 7.9666C0.0595942 7.93626 0.0631838 7.9058 0.0674715 7.87545C0.0714607 7.847 0.076149 7.81854 0.0805368 7.79008C0.0849247 7.76163 0.0892124 7.73095 0.094099 7.70116C0.0989857 7.67137 0.104072 7.64558 0.109058 7.61701C0.114444 7.587 0.119032 7.55688 0.125115 7.52686C0.130401 7.49896 0.136384 7.47128 0.142069 7.44305C0.148152 7.41293 0.153837 7.38291 0.16032 7.35279C0.166802 7.32266 0.173385 7.2951 0.180265 7.2662C0.187147 7.2373 0.19313 7.20795 0.200212 7.17883C0.207293 7.1497 0.214771 7.1208 0.222052 7.09179C0.229332 7.06278 0.236213 7.03388 0.243892 7.00497C0.251571 6.97607 0.25975 6.94706 0.267728 6.91816C0.275706 6.88926 0.283384 6.86025 0.291662 6.83135C0.29994 6.80244 0.309115 6.77354 0.317693 6.74486Z" fill="url(#paint0_linear_273_2583)"/>
<path d="M15.4439 4.62095C14.3405 2.30608 11.8337 1.21884 9.10352 1.57855C7.88683 1.6996 6.61738 2.10977 5.40228 2.82919C1.55953 5.10471 -0.287748 9.60884 1.2761 12.8899C2.3795 15.2048 4.88628 16.2919 7.61666 15.9323C8.83335 15.811 10.1026 15.4012 11.3179 14.6815C15.1605 12.4065 17.008 7.90211 15.4439 4.62095Z" fill="url(#paint1_linear_273_2583)"/>
<mask id="mask0_273_2583" style="mask-type:luminance" maskUnits="userSpaceOnUse" x="3" y="6" width="11" height="8">
<path d="M3.78407 12.285C4.50012 13.7873 7.26581 13.7112 9.96138 12.115C10.8267 11.6026 11.5796 10.996 12.1794 10.3587C12.593 9.91923 12.9338 9.46526 13.1884 9.01751C13.2966 8.82881 13.3925 8.63162 13.4751 8.42749C13.5972 8.12336 13.6746 7.82723 13.7037 7.54445C13.7424 7.16651 13.6937 6.81425 13.5458 6.50489L13.3948 6.18809C13.5422 6.49745 13.5914 6.8496 13.5527 7.22764C13.5239 7.50988 13.4462 7.80656 13.3241 8.11068C13.2414 8.31475 13.1455 8.51187 13.0372 8.70049C12.7826 9.14812 12.4418 9.60221 12.0284 10.0416C11.4284 10.679 10.6756 11.2857 9.81029 11.7979C7.11502 13.3944 4.34894 13.4705 3.63288 11.9685L3.78407 12.285Z" fill="white"/>
</mask>
<g mask="url(#mask0_273_2583)">
<path d="M3.78396 12.285L3.63277 11.9686C4.34882 13.4707 7.1145 13.3946 9.81018 11.7985C10.6755 11.2862 11.4283 10.6795 12.0282 10.0422C12.4417 9.60277 12.7825 9.14869 13.0371 8.70106C13.1453 8.51232 13.2412 8.31509 13.3238 8.11092C13.4459 7.80679 13.5233 7.51067 13.5524 7.22788C13.5911 6.84994 13.5424 6.49768 13.3945 6.18833L13.5455 6.50513C13.6929 6.81448 13.7421 7.16663 13.7034 7.54468C13.6746 7.82691 13.5969 8.12359 13.4748 8.42772C13.3922 8.63173 13.2965 8.82881 13.1884 9.01742C12.9338 9.46516 12.593 9.91913 12.1794 10.3587C11.5796 10.996 10.8267 11.6026 9.96136 12.1149C7.26549 13.7112 4.49981 13.7873 3.78396 12.285Z" fill="#855D1E"/>
</g>
<mask id="mask1_273_2583" style="mask-type:luminance" maskUnits="userSpaceOnUse" x="3" y="5" width="11" height="8">
<path d="M13.5457 6.50481L13.3947 6.18801C12.6786 4.68582 9.91313 4.76174 7.21726 6.35808C6.21997 6.94889 5.37098 7.66519 4.73461 8.40939C4.46744 8.72164 4.23776 9.03877 4.04987 9.35346C3.95172 9.51702 3.86234 9.6869 3.7822 9.86223C3.58274 10.2996 3.47304 10.7246 3.46307 11.1171C3.45569 11.424 3.51024 11.711 3.63261 11.9683L3.78409 12.285C3.66143 12.0277 3.60688 11.7404 3.61455 11.4338C3.62453 11.0414 3.73423 10.6164 3.93369 10.1789C4.01385 10.0036 4.10323 9.8338 4.20136 9.67026C4.38915 9.35546 4.61892 9.03844 4.8861 8.72619C5.52247 7.98143 6.37096 7.26569 7.36875 6.67477C10.0641 5.07854 12.8295 5.00251 13.5457 6.50481Z" fill="white"/>
</mask>
<g mask="url(#mask1_273_2583)">
<path d="M13.5458 6.50481L13.3948 6.18801C12.6787 4.68582 9.91324 4.76174 7.21737 6.35808C6.22008 6.94889 5.37109 7.66519 4.73472 8.40939C4.46755 8.72164 4.23787 9.03877 4.04998 9.35346C3.95183 9.51702 3.86245 9.6869 3.78231 9.86223C3.58285 10.2996 3.47315 10.7246 3.46318 11.1171C3.4558 11.424 3.51035 11.711 3.63272 11.9683L3.7842 12.285C3.66154 12.0277 3.60699 11.7404 3.61467 11.4338C3.62464 11.0414 3.73434 10.6164 3.9338 10.1789C4.01396 10.0036 4.10334 9.8338 4.20147 9.67026C4.38926 9.35546 4.61903 9.03844 4.88621 8.72619C5.52258 7.98143 6.37107 7.26569 7.36886 6.67477C10.0647 5.07854 12.8302 5.00251 13.5463 6.50481" fill="#855D1E"/>
</g>
<path d="M3.73251 12.1774C4.82953 14.479 7.90407 15.0509 10.5996 13.4547C11.465 12.9424 12.186 12.2686 12.7296 11.5144C13.1047 10.9944 13.3955 10.4355 13.5914 9.8646C13.6772 9.61626 13.7455 9.36082 13.7956 9.10061C13.8718 8.70871 13.899 8.30697 13.8765 7.90677C13.8467 7.37907 13.7165 6.86448 13.4946 6.39713L13.3825 6.16203C13.6044 6.62937 13.7346 7.14397 13.7644 7.67167C13.787 8.07175 13.7599 8.47338 13.6839 8.86518C13.634 9.12549 13.5658 9.38105 13.4801 9.6295C13.2843 10.2004 12.9934 10.7593 12.6184 11.2793C12.0739 12.0339 11.3534 12.7073 10.4876 13.2196C7.79207 14.8158 4.71743 14.2439 3.62041 11.9423L3.73251 12.1774Z" fill="#136D4D"/>
<mask id="mask2_273_2583" style="mask-type:luminance" maskUnits="userSpaceOnUse" x="3" y="6" width="11" height="9">
<path d="M3.73251 12.1774C4.82953 14.479 7.90407 15.0509 10.5996 13.4547C11.465 12.9424 12.186 12.2686 12.7296 11.5144C13.1047 10.9944 13.3955 10.4355 13.5914 9.8646C13.6772 9.61626 13.7455 9.36082 13.7956 9.10061C13.8718 8.70871 13.899 8.30697 13.8765 7.90677C13.8467 7.37907 13.7165 6.86448 13.4946 6.39713L13.3825 6.16203C13.6044 6.62937 13.7346 7.14397 13.7644 7.67167C13.787 8.07175 13.7599 8.47338 13.6839 8.86518C13.634 9.12549 13.5658 9.38105 13.4801 9.6295C13.2843 10.2004 12.9934 10.7593 12.6184 11.2793C12.0739 12.0339 11.3534 12.7073 10.4876 13.2196C7.79207 14.8158 4.71743 14.2439 3.62041 11.9423L3.73251 12.1774Z" fill="white"/>
</mask>
<g mask="url(#mask2_273_2583)">
<path d="M3.73251 12.1774L3.62041 11.9423C4.71743 14.2439 7.79207 14.8158 10.4876 13.2196C11.3534 12.7073 12.0739 12.0339 12.6181 11.2793C12.9931 10.7593 13.284 10.2004 13.4798 9.6295C13.5655 9.38105 13.6337 9.12549 13.6836 8.86518C13.7596 8.47338 13.7867 8.07175 13.7641 7.67167C13.7343 7.14397 13.6041 6.62937 13.3822 6.16203L13.4943 6.39713C13.7163 6.86445 13.8466 7.37904 13.8765 7.90677C13.899 8.30697 13.8718 8.70871 13.7956 9.10061C13.7457 9.36091 13.6776 9.61647 13.5919 9.86494C13.396 10.4358 13.1052 10.9947 12.7301 11.5147C12.186 12.2686 11.465 12.9424 10.5996 13.4547C7.90407 15.0509 4.82953 14.479 3.73251 12.1774Z" fill="#136D4D"/>
</g>
<path d="M13.4943 6.39714L13.3822 6.16204C12.2852 3.8604 9.21081 3.28838 6.51494 4.88472C5.51765 5.47553 4.71104 6.28076 4.14728 7.17725C3.91644 7.54158 3.72245 7.93323 3.56885 8.34508C3.48977 8.55792 3.42347 8.77638 3.37039 8.99902C3.23446 9.56915 3.19506 10.1431 3.26208 10.6963C3.31412 11.132 3.43535 11.5539 3.62011 11.9423L3.7322 12.1774C3.54735 11.7891 3.42611 11.3671 3.37418 10.9314C3.30716 10.3782 3.34655 9.80425 3.48248 9.23412C3.53558 9.0115 3.60184 8.79304 3.68084 8.58018C3.83449 8.16835 4.02847 7.7767 4.25927 7.41235C4.82314 6.51586 5.62925 5.71063 6.62703 5.11982C9.3228 3.52348 12.3972 4.0955 13.4943 6.39714Z" fill="#136D4D"/>
<mask id="mask3_273_2583" style="mask-type:luminance" maskUnits="userSpaceOnUse" x="3" y="3" width="11" height="10">
<path d="M13.4943 6.39714L13.3822 6.16204C12.2852 3.8604 9.21081 3.28838 6.51494 4.88472C5.51765 5.47553 4.71104 6.28076 4.14728 7.17725C3.91644 7.54158 3.72245 7.93323 3.56885 8.34508C3.48977 8.55792 3.42347 8.77638 3.37039 8.99902C3.23446 9.56915 3.19506 10.1431 3.26208 10.6963C3.31412 11.132 3.43535 11.5539 3.62011 11.9423L3.7322 12.1774C3.54735 11.7891 3.42611 11.3671 3.37418 10.9314C3.30716 10.3782 3.34655 9.80425 3.48248 9.23412C3.53558 9.0115 3.60184 8.79304 3.68084 8.58018C3.83449 8.16835 4.02847 7.7767 4.25927 7.41235C4.82314 6.51586 5.62925 5.71063 6.62703 5.11982C9.3228 3.52348 12.3972 4.0955 13.4943 6.39714Z" fill="white"/>
</mask>
<g mask="url(#mask3_273_2583)">
<path d="M13.4943 6.39714L13.3822 6.16204C12.2852 3.8604 9.21081 3.28838 6.51494 4.88472C5.51765 5.47553 4.71104 6.28076 4.14728 7.17725C3.91644 7.54158 3.72245 7.93323 3.56885 8.34508C3.48977 8.55792 3.42347 8.77638 3.37039 8.99902C3.23446 9.56915 3.19506 10.1431 3.26208 10.6963C3.31412 11.132 3.43535 11.5539 3.62011 11.9423L3.7322 12.1774C3.54735 11.7891 3.42611 11.3671 3.37418 10.9314C3.30716 10.3782 3.34655 9.80425 3.48248 9.23412C3.53558 9.0115 3.60184 8.79304 3.68084 8.58018C3.83449 8.16835 4.02847 7.7767 4.25927 7.41235C4.82314 6.51586 5.62925 5.71063 6.62703 5.11982C9.3228 3.52348 12.3972 4.0955 13.4943 6.39714Z" fill="#136D4D"/>
</g>
<path d="M13.3879 6.17339C12.2909 3.87175 9.21661 3.29995 6.52074 4.89618C5.52266 5.4871 4.71645 6.2921 4.15298 7.18871C3.92232 7.55291 3.72834 7.94433 3.57455 8.35587C3.49555 8.56878 3.42925 8.78727 3.37609 9.00992C3.24016 9.58005 3.20087 10.1542 3.26779 10.7072C3.31986 11.1429 3.44109 11.5648 3.62581 11.9532C4.72283 14.2549 7.79757 14.8268 10.4931 13.2307C11.3585 12.7187 12.0794 12.0454 12.6236 11.2904C12.9985 10.7702 13.2894 10.2113 13.4852 9.64041C13.5711 9.39201 13.6392 9.13644 13.689 8.87609C13.7651 8.48438 13.7922 8.08281 13.7696 7.6828C13.7379 7.15758 13.6136 6.64748 13.3879 6.17339Z" fill="url(#paint2_linear_273_2583)"/>
<path d="M7.92183 6.63549C7.7139 6.54901 7.5663 6.63282 7.51993 6.8717C7.49817 6.98955 7.49069 7.11012 7.49769 7.23019C7.51953 7.6637 7.63332 8.06387 7.76426 8.45537C7.8256 8.63912 7.89471 8.81908 7.96372 9.00916L5.66806 10.3685L6.15394 11.3879C6.916 10.9366 7.68076 10.4838 8.4482 10.0294C8.55551 10.2062 8.65205 10.3769 8.75906 10.5399C9.00499 10.9146 9.2587 11.2838 9.62959 11.5515C9.70526 11.6054 9.78838 11.6452 9.87562 11.6691C10.01 11.7063 10.1267 11.6401 10.1662 11.4943C10.2019 11.3652 10.2187 11.2306 10.2161 11.0956C10.2037 10.639 10.0808 10.2235 9.94513 9.81395C9.8853 9.63276 9.81648 9.45568 9.74936 9.27038C9.98443 9.13121 10.2193 8.99249 10.4634 8.84798C10.6842 9.31118 10.9041 9.77237 11.1269 10.24L12.2198 9.59285L10.4014 5.77702L9.31205 6.42173L9.97605 7.81566L9.258 8.24073C9.15897 8.07688 9.06672 7.91414 8.965 7.75808C8.71707 7.37736 8.45917 7.00442 8.08669 6.72964C8.03515 6.69132 7.97984 6.65973 7.92183 6.63549ZM7.73624 7.00554C7.7494 6.84436 7.86768 6.77777 8.00551 6.84024C8.08426 6.87483 8.15786 6.9225 8.22381 6.98164C8.62273 7.34901 8.89967 7.80943 9.16126 8.28219C9.16336 8.28641 9.15827 8.29486 9.15438 8.30942C8.90017 8.45993 8.64118 8.61333 8.36752 8.77529L8.8524 9.7926L9.65353 9.31818C9.6635 9.33463 9.67068 9.34341 9.67487 9.3522C9.80033 9.74192 9.93875 10.12 10.04 10.5139C10.0933 10.721 10.1013 10.9522 10.0938 11.1791C10.0873 11.3765 9.94623 11.457 9.78846 11.3579C9.65197 11.2724 9.52637 11.1668 9.41497 11.0441C9.06812 10.6604 8.80603 10.214 8.56658 9.75237C8.4975 9.61898 8.43045 9.48447 8.36543 9.34886C8.09616 8.7844 7.87297 8.19637 7.75399 7.55588C7.72168 7.38192 7.72168 7.19228 7.73664 7.00576" fill="white"/>
<path d="M13.4446 6.12504C12.3336 3.79417 9.21978 3.21492 6.48981 4.83138C3.75983 6.44785 2.4472 9.6482 3.55778 11.9789C4.66836 14.3095 7.78319 14.8895 10.5133 13.2728C13.2433 11.6562 14.5557 8.45592 13.4446 6.12504ZM7.52 6.87169C7.56638 6.63281 7.71398 6.54933 7.92191 6.63548C7.97999 6.65971 8.03537 6.6913 8.08696 6.72963C8.45945 7.00441 8.71745 7.37735 8.96527 7.75818C9.067 7.9138 9.15925 8.07687 9.25838 8.24072L9.97643 7.81565L9.31243 6.42239C9.68083 6.20419 10.0405 5.99154 10.4019 5.77767L12.2199 9.5924C11.8544 9.80871 11.4952 10.0215 11.1269 10.2396L10.4635 8.84753C10.2193 8.99203 9.9848 9.1312 9.74934 9.26993C9.81646 9.45523 9.88527 9.63231 9.94511 9.81349C10.0807 10.223 10.2038 10.6385 10.2161 11.0953C10.2187 11.2302 10.2019 11.3648 10.1662 11.4939C10.1263 11.6395 10.0099 11.7059 9.8756 11.6686C9.78835 11.6447 9.70523 11.605 9.62957 11.551C9.25868 11.2834 9.00497 10.9142 8.75913 10.5395C8.65203 10.3764 8.55549 10.206 8.44818 10.0289C7.6802 10.4838 6.91545 10.9366 6.15392 11.3874L5.66804 10.3681L7.9637 9.00871C7.89508 8.81863 7.82597 8.63866 7.76424 8.45492C7.6333 8.0632 7.51961 7.66392 7.49766 7.22973C7.49067 7.10967 7.49815 6.9891 7.5199 6.87125" fill="#52CEA2"/>
<path d="M8.00559 6.84026C7.86767 6.7779 7.74939 6.84437 7.73632 7.00555C7.72136 7.19208 7.72136 7.38171 7.75368 7.55567C7.87265 8.19617 8.09614 8.78419 8.36511 9.34854C8.42987 9.48431 8.49692 9.61884 8.56627 9.75216C8.80562 10.2137 9.0678 10.6602 9.41466 11.0439C9.52595 11.1663 9.65139 11.2717 9.78765 11.3572C9.94552 11.456 10.0868 11.3757 10.093 11.1783C10.1005 10.9514 10.093 10.7202 10.0392 10.5131C9.93794 10.1192 9.79981 9.74115 9.67615 9.3571C9.6691 9.34348 9.66127 9.33037 9.65271 9.31786C9.38444 9.47682 9.12535 9.63011 8.85159 9.79229L8.36671 8.77497C8.64037 8.61301 8.89936 8.45961 9.15357 8.3091C9.15746 8.29454 9.16255 8.28609 9.16065 8.28209C8.89936 7.80934 8.62211 7.34892 8.2232 6.98154C8.15746 6.92251 8.08409 6.87488 8.00559 6.84026Z" fill="#52CEA2"/>
</g>
<defs>
<linearGradient id="paint0_linear_273_2583" x1="-0.477612" y1="9.2101" x2="14.2789" y2="2.17659" gradientUnits="userSpaceOnUse">
<stop stop-color="#136B4C"/>
<stop offset="0.28" stop-color="#37AA81"/>
<stop offset="0.44" stop-color="#33A37B"/>
<stop offset="0.69" stop-color="#278E6A"/>
<stop offset="0.98" stop-color="#146D4D"/>
<stop offset="1" stop-color="#136B4C"/>
</linearGradient>
<linearGradient id="paint1_linear_273_2583" x1="1.17195" y1="12.6586" x2="16.1065" y2="6.12922" gradientUnits="userSpaceOnUse">
<stop stop-color="#1A8461"/>
<stop offset="0.29" stop-color="#44C69B"/>
<stop offset="0.45" stop-color="#3FBF94"/>
<stop offset="0.68" stop-color="#32AA82"/>
<stop offset="0.96" stop-color="#1D8965"/>
<stop offset="1" stop-color="#1A8461"/>
</linearGradient>
<linearGradient id="paint2_linear_273_2583" x1="10.4929" y1="13.23" x2="5.80737" y2="5.31728" gradientUnits="userSpaceOnUse">
<stop stop-color="#FCD95D"/>
<stop offset="1" stop-color="#FCBE5D"/>
</linearGradient>
<clipPath id="clip0_273_2583">
<rect width="16" height="16" fill="white" transform="matrix(0 -1 -1 0 16 16)"/>
</clipPath>
</defs>
</svg>
