<svg width="19" height="18" viewBox="0 0 19 18" fill="none" xmlns="http://www.w3.org/2000/svg">
<path fill-rule="evenodd" clip-rule="evenodd" d="M12.3118 3.65674L11.6668 6.66668H15.8335C17.2142 6.66668 18.3335 7.78597 18.3335 9.16668V11.7131C18.3335 12.2306 18.213 12.741 17.9816 13.2038L16.5245 16.118C16.101 16.965 15.2353 17.5 14.2884 17.5H2.50016C1.57969 17.5 0.833496 16.7538 0.833496 15.8333V9.16668C0.833496 8.2462 1.57969 7.50001 2.50016 7.50001H5.00016L8.70966 1.56475C8.99408 1.10975 9.49275 0.833344 10.0293 0.833344C11.5155 0.833344 12.6232 2.20361 12.3118 3.65674ZM5.00016 9.16668H2.50016V15.8333H5.00016V9.16668ZM15.0337 15.3727C14.8926 15.655 14.6041 15.8333 14.2884 15.8333H6.66683V7.978L10.0889 2.50261C10.4835 2.53717 10.767 2.91159 10.6822 3.30752L10.0372 6.31746C9.93166 6.80961 10.0543 7.32306 10.3707 7.71448C10.6872 8.10589 11.1635 8.33334 11.6668 8.33334H15.8335C16.2937 8.33334 16.6668 8.70643 16.6668 9.16668V11.7131C16.6668 11.9718 16.6066 12.227 16.4909 12.4585L15.0337 15.3727Z" fill="#718096"/>
</svg>
