<svg width="101" height="36" viewBox="0 0 101 36" fill="none" xmlns="http://www.w3.org/2000/svg">
<path d="M5.32797 6.76983L5.23938 6.89809V7.05398V27.765V27.9144L5.32134 28.0393L9.50284 34.4119L9.65094 34.6376H9.92088H90.0296H90.2847L90.4344 34.4311L95.0561 28.0585L95.1513 27.9272V27.765V7.05398V6.88495L95.0487 6.75058L90.4271 0.696601L90.277 0.5H90.0296H9.92088H9.65856L9.50948 0.715842L5.32797 6.76983Z" stroke="url(#paint0_linear_134_351)"/>
<path d="M5.28045 9.79633H0.566162V25.1899H5.28045" stroke="url(#paint1_linear_134_351)"/>
<path d="M94.8519 26.2895L99.5662 26.2895L99.5662 10.8959L94.8519 10.8959" stroke="url(#paint2_linear_134_351)"/>
<path d="M8.4411 9.09571L12.1242 4.29865H40.1569L42.6123 7.32837H57.5494L60.0048 4.29865H87.8329L91.7206 9.09571V26.2641L88.0375 30.8087H60.0048L57.5494 27.779H42.6123L40.1569 30.8087H12.1242L8.4411 26.2641V9.09571Z" fill="url(#paint3_linear_134_351)"/>
<path d="M8.4411 9.09571L12.1242 4.29865H40.1569L42.6123 7.32837H57.5494L60.0048 4.29865H87.8329L91.7206 9.09571V26.2641L88.0375 30.8087H60.0048L57.5494 27.779H42.6123L40.1569 30.8087H12.1242L8.4411 26.2641V9.09571Z" stroke="#38ACC5"/>
<path d="M8.4411 9.09571L12.1242 4.29865H40.1569L42.6123 7.32837H57.5494L60.0048 4.29865H87.8329L91.7206 9.09571V26.2641L88.0375 30.8087H60.0048L57.5494 27.779H42.6123L40.1569 30.8087H12.1242L8.4411 26.2641V9.09571Z" stroke="url(#paint4_radial_134_351)" stroke-opacity="0.7"/>
<path d="M43.1549 6.09807L41.9479 4.05884H58.8452L57.236 6.09807H43.1549Z" fill="#91D1DF"/>
<path d="M57.2359 28.5297L58.4429 30.569L41.5456 30.569L43.1548 28.5297L57.2359 28.5297Z" fill="#38ACC5"/>
<path d="M8.55579 9.15692L10.5674 11.9609V23.9414L8.55579 25.7257" stroke="#6FC3D5"/>
<path d="M91.433 25.7257L89.4214 22.9218L89.4214 10.9412L91.433 9.15691" stroke="#38ACC5"/>
<path d="M8.15356 9.66675L91.4331 9.66674" stroke="white" stroke-opacity="0.09"/>
<path d="M8.15356 12.7256L91.4331 12.7256" stroke="white" stroke-opacity="0.09"/>
<path d="M8.15356 15.7845L91.4331 15.7845" stroke="white" stroke-opacity="0.09"/>
<path d="M8.15356 18.8433L91.4331 18.8433" stroke="white" stroke-opacity="0.09"/>
<path d="M8.15356 21.9021L91.4331 21.9021" stroke="white" stroke-opacity="0.09"/>
<path d="M8.15356 24.9611L91.4331 24.9611" stroke="white" stroke-opacity="0.09"/>
<defs>
<linearGradient id="paint0_linear_134_351" x1="90.0247" y1="0.999997" x2="24.7027" y2="22.8999" gradientUnits="userSpaceOnUse">
<stop stop-color="#FEFEFC"/>
<stop offset="1" stop-color="#838383"/>
</linearGradient>
<linearGradient id="paint1_linear_134_351" x1="2.92331" y1="9.79633" x2="2.92331" y2="25.1899" gradientUnits="userSpaceOnUse">
<stop stop-color="#838383"/>
<stop offset="1" stop-color="#838383"/>
</linearGradient>
<linearGradient id="paint2_linear_134_351" x1="97.209" y1="26.2895" x2="97.209" y2="10.8959" gradientUnits="userSpaceOnUse">
<stop stop-color="#FEFEFC"/>
<stop offset="1" stop-color="white" stop-opacity="0.72"/>
</linearGradient>
<linearGradient id="paint3_linear_134_351" x1="8.4411" y1="17.5537" x2="91.7206" y2="17.5537" gradientUnits="userSpaceOnUse">
<stop stop-color="#38ACC5" stop-opacity="0.1"/>
<stop offset="0.5" stop-color="#272928" stop-opacity="0.2"/>
<stop offset="1" stop-color="#38ACC5" stop-opacity="0.1"/>
</linearGradient>
<radialGradient id="paint4_radial_134_351" cx="0" cy="0" r="1" gradientUnits="userSpaceOnUse" gradientTransform="translate(35.0632 9.51374) rotate(25.2377) scale(39.242 32.6318)">
<stop stop-color="white"/>
<stop offset="0.697917" stop-color="white" stop-opacity="0"/>
<stop offset="1" stop-color="white" stop-opacity="0"/>
</radialGradient>
</defs>
</svg>
