<svg width="20" height="20" viewBox="0 0 20 20" fill="none" xmlns="http://www.w3.org/2000/svg">
<path fill-rule="evenodd" clip-rule="evenodd" d="M9.53534 1.51863C9.6874 1.1844 9.64405 0.793715 9.42242 0.500947C9.2008 0.208179 8.83654 0.0604234 8.47359 0.116061C3.67498 0.851639 0 4.99582 0 10.0002C0 15.523 4.47715 20.0002 10 20.0002C15.5228 20.0002 20 15.523 20 10.0002C20 9.90662 19.9987 9.81335 19.9962 9.72038C19.986 9.35299 19.7752 9.02075 19.4471 8.85515C19.119 8.68955 18.7265 8.71728 18.4249 8.92736C17.454 9.60371 16.2748 10.0002 15 10.0002C11.6863 10.0002 9 7.31387 9 4.00016C9 3.11314 9.19184 2.27364 9.53534 1.51863Z" fill="#081131"/>
</svg>
