<svg width="24" height="23" viewBox="0 0 24 23" fill="none" xmlns="http://www.w3.org/2000/svg">
<g clip-path="url(#clip0_361_10139)">
<path d="M11.7793 23C17.8577 23 22.7852 17.8513 22.7852 11.5C22.7852 5.14873 17.8577 0 11.7793 0C5.70093 0 0.773438 5.14873 0.773438 11.5C0.773438 17.8513 5.70093 23 11.7793 23Z" fill="#E88102"/>
<path d="M11.7793 21.7871C17.7956 21.7871 22.6729 16.9099 22.6729 10.8936C22.6729 4.87721 17.7956 0 11.7793 0C5.76295 0 0.885742 4.87721 0.885742 10.8936C0.885742 16.9099 5.76295 21.7871 11.7793 21.7871Z" fill="#FDD835"/>
<path opacity="0.5" d="M16.1275 0.902924L1.78848 15.2375C1.30781 14.1369 1.00684 12.942 0.916992 11.6887L12.5742 0.026947C13.8275 0.121283 15.0225 0.42226 16.1275 0.902924Z" fill="white"/>
<path opacity="0.5" d="M21.2713 5.54785L6.43359 20.3855C5.5082 19.8645 4.67266 19.2131 3.94043 18.4539L19.3441 3.05469C20.0988 3.78242 20.7502 4.62246 21.2713 5.54785Z" fill="white"/>
<path opacity="0.5" d="M18.899 2.64591L3.53574 18.0092C3.29766 17.7307 3.06855 17.4387 2.85742 17.1377L18.0275 1.96759C18.3285 2.17872 18.6205 2.40782 18.899 2.64591Z" fill="white"/>
<path opacity="0.5" d="M22.3311 8.17579L9.06113 21.4457C8.66133 21.3424 8.27051 21.2166 7.88867 21.0729L21.9582 7.00333C22.102 7.38516 22.2277 7.77598 22.3311 8.17579Z" fill="white"/>
<path opacity="0.5" d="M22.6729 10.8936C22.6729 10.9699 22.6729 11.0418 22.6684 11.1182C22.5516 5.20645 17.7225 0.449219 11.7793 0.449219C5.83613 0.449219 1.00703 5.20645 0.890234 11.1182C0.890234 11.0418 0.885742 10.9699 0.885742 10.8936C0.885742 4.87852 5.76426 0 11.7793 0C17.7943 0 22.6729 4.87852 22.6729 10.8936Z" fill="white"/>
<path opacity="0.5" d="M20.6289 11.3652C20.6289 16.0775 16.8061 19.9004 12.0938 19.9004C9.44785 19.9004 7.08047 18.692 5.5127 16.8008C7.07148 18.4854 9.29961 19.541 11.7793 19.541C16.4916 19.541 20.3145 15.7182 20.3145 11.0059C20.3145 8.93945 19.5822 7.04824 18.3604 5.57031C19.7664 7.09316 20.6289 9.12812 20.6289 11.3652Z" fill="white"/>
<path d="M11.7793 19.541C16.4931 19.541 20.3145 15.7197 20.3145 11.0059C20.3145 6.29202 16.4931 2.4707 11.7793 2.4707C7.06546 2.4707 3.24414 6.29202 3.24414 11.0059C3.24414 15.7197 7.06546 19.541 11.7793 19.541Z" fill="#F39E09"/>
<path d="M18.248 5.43555C16.7521 4.14629 14.807 3.36914 12.6777 3.36914C7.96543 3.36914 4.14258 7.19199 4.14258 11.9043C4.14258 14.0336 4.91973 15.9787 6.20898 17.4746C4.39414 15.9068 3.24414 13.5934 3.24414 11.0059C3.24414 6.29355 7.06699 2.4707 11.7793 2.4707C14.3623 2.4707 16.6803 3.6207 18.248 5.43555Z" fill="#E88102"/>
<path d="M11.2443 8.83164C11.0916 9.00684 11.0107 9.24941 11.0107 9.55938C11.0107 9.86934 11.1006 10.1254 11.2803 10.3096C11.46 10.4938 11.7475 10.6689 12.1428 10.8396C12.5381 11.0059 12.9109 11.1811 13.2613 11.3607C13.6117 11.5404 13.9127 11.7471 14.1688 11.9762C14.4248 12.2053 14.6225 12.4748 14.7662 12.7803C14.8201 12.8971 14.9818 13.1172 14.9818 13.1172C14.9818 13.1172 14.9818 13.8629 14.9818 13.8854C14.9818 14.6131 14.7527 15.2061 14.29 15.6643C13.8273 16.1225 13.2029 16.392 12.4078 16.4684V17.7441H11.3926V16.4549C10.4672 16.3561 9.75742 16.0416 9.25879 15.5025C8.76465 14.9635 8.51758 14.2582 8.51758 13.3777V12.7039L10.6648 13.3777C10.6648 13.8629 10.7727 14.2312 10.9883 14.4828C11.2039 14.7344 11.5094 14.8602 11.9047 14.8602C12.1922 14.8602 12.4213 14.7748 12.5875 14.5996C12.7537 14.4244 12.8346 14.1908 12.8346 13.8898C12.8346 13.5529 12.7537 13.2924 12.5875 13.0992C12.4213 12.9061 12.1293 12.7264 11.716 12.5557C11.2982 12.385 10.9164 12.2143 10.5615 12.0391C10.2066 11.8639 9.90566 11.6617 9.64961 11.4326C9.39356 11.2035 9.20039 10.9385 9.06113 10.6375C8.92637 10.3365 8.85898 9.97266 8.85898 9.54141V8.82715C8.85898 8.82715 9.25879 8.07695 9.58672 7.76699C10.0719 7.2998 10.7188 7.03027 11.5229 6.95391V5.61523H12.5381V6.98535C13.3152 7.10215 13.9262 7.42109 14.3709 7.94668C14.6764 8.30605 15.0357 9.27187 15.0357 9.27187V9.9457H12.8795C12.8795 9.50547 12.7941 9.16406 12.6234 8.92598C12.4527 8.68789 12.2102 8.57109 11.8957 8.57109C11.6172 8.5666 11.4016 8.65645 11.2443 8.83164Z" fill="#DB6704"/>
<path d="M12.8352 13.2205C12.8352 12.8836 12.7543 12.623 12.5881 12.4299C12.4219 12.2367 12.1299 12.057 11.7166 11.8863C11.2988 11.7156 10.917 11.5449 10.5621 11.3697C10.2072 11.1945 9.90625 10.9924 9.6502 10.7633C9.39414 10.5342 9.20098 10.2691 9.06172 9.96816C8.92695 9.66719 8.85957 9.29883 8.85957 8.87207C8.85957 8.15332 9.10215 7.56035 9.5873 7.09766C10.0725 6.63496 10.7193 6.36094 11.5234 6.28457V4.94141H12.5387V6.31152C13.3158 6.42832 13.9268 6.74727 14.3715 7.27285C14.8162 7.79844 15.0363 8.46328 15.0363 9.27187H12.8801C12.8801 8.83164 12.7947 8.49023 12.624 8.25215C12.4533 8.01406 12.2107 7.89727 11.8963 7.89727C11.6178 7.89727 11.3977 7.98711 11.2449 8.1623C11.0922 8.3375 11.0113 8.58008 11.0113 8.89004C11.0113 9.2 11.1012 9.45606 11.2809 9.64023C11.4605 9.82441 11.748 9.99961 12.1389 10.1703C12.5342 10.3365 12.907 10.5117 13.2574 10.6914C13.6078 10.8711 13.9088 11.0777 14.1648 11.3068C14.4209 11.5359 14.6186 11.8055 14.7623 12.1109C14.9061 12.4164 14.9779 12.7848 14.9779 13.2115C14.9779 13.9393 14.7488 14.5322 14.2861 14.9904C13.8234 15.4486 13.199 15.7182 12.4039 15.7945V17.0703H11.3887V15.7811C10.4633 15.6822 9.75352 15.3678 9.25488 14.8287C8.76074 14.2896 8.51367 13.5844 8.51367 12.7039H10.6609C10.6609 13.1891 10.7688 13.5574 10.9844 13.809C11.2 14.0605 11.5055 14.1863 11.9008 14.1863C12.1883 14.1863 12.4174 14.101 12.5836 13.9258C12.7498 13.7506 12.8352 13.5215 12.8352 13.2205Z" fill="#FDD835"/>
<path opacity="0.5" d="M9.58672 7.09766C9.84727 6.84609 10.1572 6.65293 10.5121 6.51367L8.98926 8.04102C9.10605 7.68164 9.30371 7.37168 9.58672 7.09766Z" fill="white"/>
<path opacity="0.5" d="M12.085 4.94141L11.5234 5.50293V4.94141H12.085Z" fill="white"/>
<path opacity="0.5" d="M14.7486 12.0705L11.0785 15.7406C10.3059 15.6104 9.69941 15.3049 9.26367 14.8332C8.98066 14.5233 8.77852 14.1594 8.65723 13.7416L9.69043 12.7084H10.6697C10.6697 13.1936 10.7775 13.5619 10.9932 13.8135C11.2088 14.0651 11.5143 14.1908 11.9096 14.1908C12.1971 14.1908 12.4262 14.1055 12.5924 13.9303C12.7586 13.7551 12.8395 13.5215 12.8395 13.2205C12.8395 12.8836 12.7586 12.6231 12.5924 12.4299C12.4262 12.2367 12.1342 12.057 11.7209 11.8863C11.4244 11.7651 11.1459 11.6438 10.8809 11.518L12.2105 10.1883C12.5834 10.35 12.9338 10.5117 13.2662 10.6824C13.6166 10.8621 13.9176 11.0688 14.1736 11.2979C14.4162 11.5225 14.6094 11.7785 14.7486 12.0705Z" fill="white"/>
<path opacity="0.5" d="M15.0361 9.2674H13.127L14.6768 7.71759C14.9148 8.15782 15.0361 8.67443 15.0361 9.2674Z" fill="white"/>
<path opacity="0.5" d="M8.52246 12.7039H8.84141L8.53594 13.0094C8.52695 12.9106 8.52246 12.8072 8.52246 12.7039Z" fill="white"/>
<path opacity="0.5" d="M11.2807 9.63575C11.3705 9.73008 11.4873 9.81993 11.6355 9.90977L10.3059 11.2395C10.0588 11.1002 9.83867 10.943 9.65 10.7678C9.57363 10.7004 9.50625 10.6285 9.44336 10.5566L11.0201 8.97989C11.0336 9.24942 11.1234 9.46954 11.2807 9.63575Z" fill="white"/>
<path opacity="0.5" d="M14.326 7.21893L12.8256 8.71932C12.7852 8.53514 12.7178 8.37792 12.6279 8.25214C12.4932 8.06346 12.3135 7.95116 12.0889 7.91073L13.432 6.56757C13.7779 6.72479 14.0744 6.94042 14.326 7.21893Z" fill="white"/>
<path opacity="0.5" d="M11.8867 17.0703L12.4078 16.5492V17.0703H11.8867Z" fill="white"/>
<path opacity="0.5" d="M14.8426 14.1144C14.7303 14.4469 14.5461 14.7344 14.2945 14.9859C14.043 15.2375 13.742 15.4307 13.3916 15.5654L14.8426 14.1144Z" fill="white"/>
<path opacity="0.25" d="M18.8994 6.29356C13.374 8.23418 8.93574 12.4973 6.76152 17.9104C6.57285 17.7711 6.38867 17.6273 6.20898 17.4701C4.91973 15.9742 4.14258 14.0291 4.14258 11.9043C4.14258 7.19199 7.96543 3.36914 12.6777 3.36914C14.807 3.36914 16.7521 4.14629 18.2436 5.43555C18.4816 5.70957 18.6973 5.99707 18.8994 6.29356Z" fill="white"/>
</g>
<defs>
<clipPath id="clip0_361_10139">
<rect width="23" height="23" fill="white" transform="translate(0.279297)"/>
</clipPath>
</defs>
</svg>
