<svg width="39" height="39" viewBox="0 0 39 39" fill="none" xmlns="http://www.w3.org/2000/svg">
<path d="M15.125 2.81458C17.8323 1.25155 21.1677 1.25155 23.875 2.81458L31.7625 7.36843C34.4698 8.93147 36.1375 11.8201 36.1375 14.9462V24.0538C36.1375 27.1799 34.4698 30.0685 31.7625 31.6316L23.875 36.1854C21.1677 37.7485 17.8323 37.7485 15.125 36.1854L7.2375 31.6316C4.53024 30.0685 2.8625 27.1799 2.8625 24.0538V14.9462C2.8625 11.8201 4.53025 8.93147 7.2375 7.36843L15.125 2.81458Z" fill="#383838" stroke="url(#paint0_linear_66_1539)" stroke-width="0.5"/>
<g filter="url(#filter0_d_66_1539)">
<path fill-rule="evenodd" clip-rule="evenodd" d="M12.3055 16.3598C11.8982 18.0964 11.8982 19.9036 12.3055 21.6402C12.8938 24.1481 14.8519 26.1062 17.3598 26.6945C19.0964 27.1018 20.9036 27.1018 22.6402 26.6945C25.1481 26.1062 27.1062 24.1481 27.6945 21.6402C28.1018 19.9036 28.1018 18.0964 27.6945 16.3598C27.1062 13.8519 25.1481 11.8938 22.6402 11.3055C20.9036 10.8982 19.0964 10.8982 17.3598 11.3055C14.8519 11.8938 12.8938 13.8519 12.3055 16.3598ZM20.6807 21.8506C20.6807 22.2031 20.395 22.4888 20.0425 22.4888C19.6901 22.4888 19.4043 22.2031 19.4043 21.8506C19.4043 21.4982 19.6901 21.2125 20.0425 21.2125C20.395 21.2125 20.6807 21.4982 20.6807 21.8506ZM18.8087 17.2131C18.8087 16.5552 19.342 16.0218 20 16.0218C20.6579 16.0218 21.1913 16.5552 21.1913 17.2131V17.3163C21.1913 17.6597 21.0549 17.9889 20.8121 18.2317L19.639 19.4049C19.4396 19.6042 19.4396 19.9275 19.639 20.1269C19.8383 20.3263 20.1616 20.3263 20.361 20.1269L21.5341 18.9537C21.9684 18.5195 22.2124 17.9305 22.2124 17.3163V17.2131C22.2124 15.9912 21.2218 15.0007 20 15.0007C18.7781 15.0007 17.7876 15.9912 17.7876 17.2131V17.6386C17.7876 17.9205 18.0162 18.1491 18.2981 18.1491C18.5801 18.1491 18.8087 17.9205 18.8087 17.6386V17.2131Z" fill="#929292"/>
</g>
<defs>
<filter id="filter0_d_66_1539" x="8" y="11" width="24" height="24" filterUnits="userSpaceOnUse" color-interpolation-filters="sRGB">
<feFlood flood-opacity="0" result="BackgroundImageFix"/>
<feColorMatrix in="SourceAlpha" type="matrix" values="0 0 0 0 0 0 0 0 0 0 0 0 0 0 0 0 0 0 127 0" result="hardAlpha"/>
<feOffset dy="4"/>
<feGaussianBlur stdDeviation="2"/>
<feComposite in2="hardAlpha" operator="out"/>
<feColorMatrix type="matrix" values="0 0 0 0 0 0 0 0 0 0 0 0 0 0 0 0 0 0 0.25 0"/>
<feBlend mode="normal" in2="BackgroundImageFix" result="effect1_dropShadow_66_1539"/>
<feBlend mode="normal" in="SourceGraphic" in2="effect1_dropShadow_66_1539" result="shape"/>
</filter>
<linearGradient id="paint0_linear_66_1539" x1="19.5" y1="0" x2="19.5" y2="39" gradientUnits="userSpaceOnUse">
<stop stop-color="white" stop-opacity="0.2"/>
<stop offset="1" stop-color="#929292" stop-opacity="0"/>
</linearGradient>
</defs>
</svg>
