<svg width="186" height="93" viewBox="0 0 186 93" fill="none" xmlns="http://www.w3.org/2000/svg">
<path d="M185.745 92.8725C185.745 68.2412 175.96 44.6187 158.543 27.2017C141.126 9.78475 117.504 1.85961e-06 92.8725 0C68.2412 -1.85961e-06 44.6187 9.78475 27.2017 27.2017C9.78476 44.6187 3.71923e-06 68.2412 0 92.8725H5.07016C5.07016 69.5858 14.3207 47.253 30.7869 30.7869C47.253 14.3207 69.5859 5.07016 92.8725 5.07016C116.159 5.07016 138.492 14.3207 154.958 30.7869C171.424 47.253 180.675 69.5859 180.675 92.8725H185.745Z" fill="url(#paint0_linear_515_5869)"/>
<defs>
<linearGradient id="paint0_linear_515_5869" x1="18.198" y1="42.0436" x2="208.336" y2="42.0436" gradientUnits="userSpaceOnUse">
<stop stop-color="#F6465D"/>
<stop offset="0.333333" stop-color="#F9B233"/>
<stop offset="0.666667" stop-color="#2EC78B"/>
<stop offset="1" stop-color="#2EE39D"/>
</linearGradient>
</defs>
</svg>
