<svg width="46" height="48" viewBox="0 0 46 48" fill="none" xmlns="http://www.w3.org/2000/svg">
<g filter="url(#filter0_d_775_1253)">
<path d="M18.5 11.5981C21.2846 9.99038 24.7154 9.99038 27.5 11.5981L31.4904 13.9019C34.275 15.5096 35.9904 18.4808 35.9904 21.6962V26.3038C35.9904 29.5192 34.275 32.4904 31.4904 34.0981L27.5 36.4019C24.7154 38.0096 21.2846 38.0096 18.5 36.4019L14.5096 34.0981C11.725 32.4904 10.0096 29.5192 10.0096 26.3038V21.6962C10.0096 18.4808 11.725 15.5096 14.5096 13.9019L18.5 11.5981Z" fill="#443823"/>
<path d="M18.625 11.8146C21.3323 10.2515 24.6677 10.2515 27.375 11.8146L31.3654 14.1184C34.0726 15.6815 35.7404 18.5701 35.7404 21.6962V26.3038C35.7404 29.4299 34.0726 32.3185 31.3654 33.8816L27.375 36.1854C24.6677 37.7485 21.3323 37.7485 18.625 36.1854L14.6346 33.8816C11.9274 32.3185 10.2596 29.4299 10.2596 26.3038V21.6962C10.2596 18.5701 11.9274 15.6815 14.6346 14.1184L18.625 11.8146Z" stroke="url(#paint0_linear_775_1253)" stroke-width="0.5"/>
</g>
<path d="M25 20L19 23.3272M19 24.6728L25 28" stroke="#A75D00" stroke-width="2" stroke-linecap="round" stroke-linejoin="round"/>
<path d="M24.5 19.3333C24.5 18.597 25.0596 18 25.75 18C26.4404 18 27 18.597 27 19.3333C27 20.0697 26.4404 20.6667 25.75 20.6667C25.2894 20.6667 24.8869 20.4009 24.6701 20.0053C24.562 19.808 24.5 19.5784 24.5 19.3333Z" fill="#FFA929"/>
<path d="M24.5 28.6667C24.5 28.4216 24.562 28.192 24.6701 27.9947C24.8869 27.5991 25.2894 27.3333 25.75 27.3333C26.4404 27.3333 27 27.9303 27 28.6667C27 29.403 26.4404 30 25.75 30C25.0596 30 24.5 29.403 24.5 28.6667Z" fill="#FFA929"/>
<path d="M17 24C17 23.2636 17.5596 22.6667 18.25 22.6667C18.7106 22.6667 19.1131 22.9324 19.3299 23.3281C19.438 23.5254 19.5 23.755 19.5 24C19.5 24.245 19.438 24.4746 19.3299 24.6719C19.1131 25.0676 18.7106 25.3333 18.25 25.3333C17.5596 25.3333 17 24.7364 17 24Z" fill="#FFA929"/>
<path d="M24.5 19.3333C24.5 18.597 25.0596 18 25.75 18C26.4404 18 27 18.597 27 19.3333C27 20.0697 26.4404 20.6667 25.75 20.6667C25.2894 20.6667 24.8869 20.4009 24.6701 20.0053C24.562 19.808 24.5 19.5784 24.5 19.3333Z" stroke="#FFA929" stroke-width="2" stroke-linecap="round" stroke-linejoin="round"/>
<path d="M24.5 28.6667C24.5 28.4216 24.562 28.192 24.6701 27.9947C24.8869 27.5991 25.2894 27.3333 25.75 27.3333C26.4404 27.3333 27 27.9303 27 28.6667C27 29.403 26.4404 30 25.75 30C25.0596 30 24.5 29.403 24.5 28.6667Z" stroke="#FFA929" stroke-width="2" stroke-linecap="round" stroke-linejoin="round"/>
<path d="M17 24C17 23.2636 17.5596 22.6667 18.25 22.6667C18.7106 22.6667 19.1131 22.9324 19.3299 23.3281C19.438 23.5254 19.5 23.755 19.5 24C19.5 24.245 19.438 24.4746 19.3299 24.6719C19.1131 25.0676 18.7106 25.3333 18.25 25.3333C17.5596 25.3333 17 24.7364 17 24Z" stroke="#FFA929" stroke-width="2" stroke-linecap="round" stroke-linejoin="round"/>
<defs>
<filter id="filter0_d_775_1253" x="0.00976562" y="0.392334" width="45.9805" height="47.2153" filterUnits="userSpaceOnUse" color-interpolation-filters="sRGB">
<feFlood flood-opacity="0" result="BackgroundImageFix"/>
<feColorMatrix in="SourceAlpha" type="matrix" values="0 0 0 0 0 0 0 0 0 0 0 0 0 0 0 0 0 0 127 0" result="hardAlpha"/>
<feOffset/>
<feGaussianBlur stdDeviation="5"/>
<feComposite in2="hardAlpha" operator="out"/>
<feColorMatrix type="matrix" values="0 0 0 0 1 0 0 0 0 0.662745 0 0 0 0 0.160784 0 0 0 0.4 0"/>
<feBlend mode="normal" in2="BackgroundImageFix" result="effect1_dropShadow_775_1253"/>
<feBlend mode="normal" in="SourceGraphic" in2="effect1_dropShadow_775_1253" result="shape"/>
</filter>
<linearGradient id="paint0_linear_775_1253" x1="23" y1="9" x2="23" y2="39" gradientUnits="userSpaceOnUse">
<stop stop-color="#FFA929"/>
<stop offset="1" stop-color="#FF7A00" stop-opacity="0.3"/>
</linearGradient>
</defs>
</svg>
