<svg width="29" height="29" viewBox="0 0 29 29" fill="none" xmlns="http://www.w3.org/2000/svg">
<g clip-path="url(#clip0_1155_3348)">
<g opacity="0.01">
<path d="M14.5004 29C11.1457 28.9999 7.89486 27.8367 5.30172 25.7085C2.70859 23.5803 0.933597 20.6188 0.279196 17.3286C-0.375204 14.0384 0.131471 10.623 1.71289 7.66453C3.29431 4.70602 5.85263 2.38738 8.95194 1.10366C12.0513 -0.180057 15.4998 -0.349419 18.71 0.624434C21.9202 1.59829 24.6934 3.6551 26.5571 6.44442C28.4208 9.23373 29.2597 12.583 28.9308 15.9215C28.6019 19.2599 27.1257 22.3811 24.7535 24.7532C23.4102 26.1038 21.8123 27.1746 20.0523 27.9036C18.2924 28.6325 16.4053 29.0052 14.5004 29ZM14.5004 5.18893C9.36628 5.18893 5.18928 9.36593 5.18928 14.5C5.18928 19.6341 9.36628 23.8111 14.5004 23.8111C19.6344 23.8111 23.8114 19.6341 23.8114 14.5C23.8114 9.36593 19.6344 5.18893 14.5004 5.18893Z" fill="#FF0000"/>
<path d="M18.9835 22.5709C18.3501 22.5715 17.7386 22.3394 17.265 21.9188C16.5018 21.2445 15.5185 20.8724 14.5 20.8724C13.4816 20.8724 12.4983 21.2445 11.7351 21.9188C11.2186 22.3667 10.5463 22.5926 9.86413 22.5475C9.18201 22.5025 8.54524 22.19 8.09219 21.6781C7.63914 21.1662 7.40642 20.4961 7.44461 19.8136C7.48279 19.1311 7.78879 18.4912 8.29611 18.033C11.8329 14.9032 17.1672 14.9028 20.704 18.033C21.0984 18.382 21.3773 18.8428 21.5035 19.3542C21.6298 19.8655 21.5974 20.4032 21.4106 20.8957C21.2239 21.3882 20.8916 21.8122 20.4581 22.1113C20.0246 22.4104 19.5102 22.5704 18.9835 22.5702V22.5709Z" fill="#FF0000"/>
<path d="M9.91521 14.0819C9.38857 14.0819 8.87441 13.9216 8.44103 13.6224C8.00765 13.3232 7.67559 12.8992 7.48895 12.4067C7.30232 11.9143 7.26996 11.3767 7.39617 10.8654C7.52238 10.3541 7.80118 9.89335 8.19554 9.54431C9.10339 8.74235 10.273 8.29974 11.4843 8.29974C12.6956 8.29974 13.8652 8.74235 14.7731 9.54431C15.275 9.98944 15.5851 10.6117 15.6381 11.2805C15.6911 11.9493 15.4831 12.6126 15.0575 13.1313C14.632 13.65 14.0221 13.9837 13.3559 14.0624C12.6896 14.141 12.0188 13.9586 11.4841 13.5533C11.0333 13.8968 10.482 14.0826 9.91521 14.0819Z" fill="#FF0000"/>
<path d="M15.9473 14.078C15.4207 14.0781 14.9064 13.9179 14.473 13.6187C14.0396 13.3195 13.7074 12.8955 13.5208 12.4031C13.3341 11.9106 13.3017 11.373 13.4279 10.8617C13.5541 10.3503 13.8329 9.88951 14.2273 9.54045C15.1352 8.73865 16.3048 8.29614 17.516 8.29614C18.7273 8.29614 19.8969 8.73865 20.8048 9.54045C21.3052 9.9859 21.6139 10.6076 21.6663 11.2755C21.7187 11.9434 21.5108 12.6057 21.086 13.1237C20.6611 13.6418 20.0524 13.9754 19.3872 14.0548C18.722 14.1343 18.0518 13.9533 17.517 13.5498C17.066 13.8935 16.5144 14.0792 15.9473 14.078Z" fill="#FF0000"/>
</g>
<g opacity="0.03">
<path d="M14.5 28.8588C11.1781 28.859 7.95899 27.7074 5.39106 25.6001C2.82314 23.4929 1.06533 20.5605 0.417135 17.3025C-0.231057 14.0445 0.270481 10.6625 1.83629 7.73285C3.4021 4.80319 5.9353 2.50709 9.00425 1.2358C12.0732 -0.0355039 15.488 -0.203344 18.6669 0.760873C21.8457 1.72509 24.5918 3.7617 26.4374 6.52369C28.2829 9.28568 29.1137 12.6022 28.7881 15.908C28.4626 19.2139 27.0008 22.3046 24.6519 24.6535C23.3218 25.9908 21.7397 27.051 19.9971 27.7729C18.2545 28.4947 16.3861 28.8638 14.5 28.8588ZM14.5 5.04815C9.28803 5.04815 5.04774 9.28806 5.04774 14.5C5.04774 19.712 9.28803 23.9519 14.5 23.9519C19.7119 23.9519 23.9518 19.712 23.9518 14.5C23.9518 9.28806 19.7119 5.04815 14.5 5.04815Z" fill="#FF0000"/>
<path d="M18.9835 22.4301C18.3847 22.4308 17.8064 22.2116 17.3586 21.8141C16.5696 21.1174 15.5533 20.733 14.5008 20.733C13.4483 20.733 12.432 21.1174 11.643 21.8141C11.152 22.2185 10.5232 22.4167 9.88907 22.3667C9.25493 22.3167 8.66494 22.0225 8.2434 21.5461C7.82187 21.0697 7.60169 20.4483 7.62926 19.8128C7.65683 19.1773 7.93 18.5773 8.39122 18.1392C11.8747 15.0566 17.1284 15.0566 20.6119 18.1392C20.9841 18.4697 21.247 18.9054 21.3659 19.3887C21.4848 19.872 21.454 20.3801 21.2775 20.8454C21.1011 21.3108 20.7874 21.7116 20.3779 21.9946C19.9685 22.2776 19.4828 22.4295 18.985 22.4301H18.9835Z" fill="#FF0000"/>
<path d="M9.91521 13.9407C9.41749 13.9401 8.93172 13.7882 8.5223 13.5052C8.11288 13.2222 7.79915 12.8214 7.62271 12.3561C7.44626 11.8907 7.41544 11.3826 7.53432 10.8993C7.6532 10.416 7.91617 9.98026 8.28837 9.64982C9.1706 8.87083 10.307 8.44092 11.4839 8.44092C12.6609 8.44092 13.7973 8.87083 14.6795 9.64982C15.1458 10.0813 15.4266 10.6767 15.4631 11.3109C15.4996 11.9451 15.2888 12.5687 14.875 13.0508C14.4613 13.5328 13.8768 13.8357 13.2444 13.8958C12.612 13.9559 11.9809 13.7685 11.4837 13.373C11.0437 13.7404 10.4885 13.9414 9.91521 13.9407Z" fill="#FF0000"/>
<path d="M15.9473 13.9376C15.4496 13.937 14.9638 13.7851 14.5544 13.5021C14.145 13.2191 13.8313 12.8183 13.6548 12.353C13.4784 11.8876 13.4475 11.3795 13.5664 10.8962C13.6853 10.4129 13.9483 9.97716 14.3205 9.64672C15.2026 8.86757 16.3391 8.43756 17.516 8.43756C18.693 8.43756 19.8294 8.86757 20.7116 9.64672C21.1714 10.0798 21.4466 10.6734 21.4799 11.3042C21.5133 11.9349 21.3023 12.5542 20.8907 13.0334C20.4792 13.5125 19.8988 13.8147 19.2703 13.8769C18.6417 13.9391 18.0134 13.7567 17.5158 13.3676C17.0761 13.7358 16.5209 13.9376 15.9473 13.9376Z" fill="#FF0000"/>
</g>
<g opacity="0.05">
<path d="M14.5 28.718C11.2106 28.718 8.02292 27.5774 5.48017 25.4906C2.93742 23.4038 1.19691 20.4999 0.555189 17.2737C-0.0865315 14.0475 0.410248 10.6986 1.96088 7.79758C3.51152 4.89658 6.02007 2.62298 9.0591 1.36419C12.0981 0.105393 15.4796 -0.0607149 18.6274 0.894166C21.7752 1.84905 24.4945 3.86583 26.322 6.60089C28.1495 9.33595 28.9721 12.6201 28.6496 15.8936C28.3272 19.1672 26.8797 22.2277 24.5537 24.5537C23.2365 25.878 21.6696 26.928 19.9439 27.6428C18.2182 28.3576 16.3679 28.723 14.5 28.718ZM14.5 4.90697C9.21018 4.90697 4.90698 9.21017 4.90698 14.5C4.90698 19.7898 9.21018 24.093 14.5 24.093C19.7898 24.093 24.093 19.7894 24.093 14.5C24.093 9.21055 19.7894 4.90697 14.5 4.90697Z" fill="#FF0000"/>
<path d="M18.9835 22.2889C18.419 22.2895 17.874 22.0828 17.4518 21.7081C16.6369 20.9885 15.5872 20.5913 14.5 20.5913C13.4129 20.5913 12.3631 20.9885 11.5482 21.7081C11.3214 21.9132 11.0562 22.0713 10.7679 22.1732C10.4796 22.2751 10.174 22.3188 9.86865 22.3018C9.56335 22.2848 9.26444 22.2075 8.98923 22.0742C8.71402 21.9409 8.46797 21.7544 8.26531 21.5254C8.06265 21.2965 7.90742 21.0296 7.80859 20.7402C7.70975 20.4508 7.66928 20.1447 7.68952 19.8396C7.70976 19.5345 7.7903 19.2365 7.92648 18.9627C8.06266 18.6889 8.25179 18.4448 8.48291 18.2446C11.9134 15.2092 17.0866 15.2092 20.5168 18.2446C20.8685 18.5558 21.1171 18.9666 21.2297 19.4225C21.3422 19.8784 21.3132 20.3578 21.1467 20.7968C20.9801 21.2359 20.6838 21.6138 20.2972 21.8803C19.9106 22.1469 19.452 22.2894 18.9824 22.2889H18.9835Z" fill="#FF0000"/>
<path d="M9.91524 13.7995C9.44565 13.8 8.98706 13.6575 8.60044 13.391C8.21383 13.1244 7.91753 12.7465 7.75096 12.3075C7.58438 11.8684 7.55543 11.3891 7.66795 10.9331C7.78047 10.4772 8.02913 10.0664 8.38085 9.75527C9.23719 8.99899 10.3403 8.5816 11.4828 8.5816C12.6253 8.5816 13.7284 8.99899 14.5848 9.75527C14.8135 9.95613 15.0004 10.2002 15.1346 10.4734C15.2688 10.7467 15.3477 11.0437 15.3669 11.3475C15.386 11.6514 15.345 11.956 15.2461 12.2439C15.1472 12.5318 14.9924 12.7974 14.7907 13.0254C14.5889 13.2533 14.3442 13.4392 14.0704 13.5723C13.7966 13.7055 13.4992 13.7832 13.1954 13.8012C12.8915 13.8191 12.587 13.7769 12.2995 13.6769C12.012 13.5768 11.747 13.421 11.5198 13.2184C11.5096 13.2094 11.4964 13.2044 11.4828 13.2044C11.4692 13.2044 11.456 13.2094 11.4458 13.2184C11.024 13.593 10.4794 13.7998 9.91524 13.7995Z" fill="#FF0000"/>
<path d="M15.9473 13.7964C15.4778 13.7969 15.0192 13.6544 14.6325 13.3879C14.2459 13.1213 13.9496 12.7434 13.7831 12.3044C13.6165 11.8653 13.5875 11.3859 13.7001 10.93C13.8126 10.4741 14.0612 10.0633 14.413 9.75216C15.2693 8.9958 16.3724 8.57837 17.5149 8.57837C18.6574 8.57837 19.7606 8.9958 20.6169 9.75216C20.8443 9.95341 21.0299 10.1975 21.1629 10.4704C21.296 10.7434 21.3741 11.0399 21.3926 11.343C21.4111 11.6461 21.3697 11.9499 21.2708 12.237C21.1719 12.5241 21.0174 12.789 20.8162 13.0164C20.6149 13.2438 20.3708 13.4294 20.0979 13.5624C19.8249 13.6955 19.5284 13.7736 19.2253 13.7921C18.9222 13.8106 18.6184 13.7692 18.3313 13.6703C18.0442 13.5714 17.7794 13.4169 17.5519 13.2157C17.5417 13.2066 17.5286 13.2016 17.5149 13.2016C17.5013 13.2016 17.4881 13.2066 17.4779 13.2157C17.056 13.5901 16.5114 13.7967 15.9473 13.7964Z" fill="#FF0000"/>
</g>
<g opacity="0.05">
<path d="M14.4999 28.578C11.2429 28.5781 8.08655 27.4488 5.56878 25.3825C3.05102 23.3163 1.32759 20.441 0.692163 17.2465C0.0567356 14.052 0.548623 10.736 2.08401 7.86356C3.6194 4.99109 6.10329 2.73987 9.11245 1.49349C12.1216 0.247108 15.4698 0.0826795 18.5866 1.02822C21.7034 1.97377 24.3959 3.97078 26.2054 6.67899C28.0148 9.3872 28.8293 12.639 28.5099 15.8804C28.1905 19.1218 26.7571 22.1521 24.4539 24.4551C23.1498 25.7663 21.5985 26.8059 19.8899 27.5136C18.1813 28.2213 16.3493 28.5831 14.4999 28.578ZM14.4999 4.76695C9.13264 4.76695 4.76576 9.13383 4.76576 14.5011C4.76576 19.8684 9.13264 24.2353 14.4999 24.2353C19.8672 24.2353 24.2341 19.8673 24.2341 14.5C24.2341 9.13268 19.8672 4.7658 14.4999 4.7658V4.76695Z" fill="#FF0000"/>
<path d="M18.9834 22.1481C18.4534 22.1486 17.9417 21.9545 17.5453 21.6027C16.7046 20.8602 15.6216 20.4504 14.4999 20.4504C13.3783 20.4504 12.2953 20.8602 11.4545 21.6027C11.2422 21.799 10.9928 21.9508 10.721 22.0494C10.4491 22.148 10.1603 22.1914 9.87153 22.1769C9.58273 22.1623 9.29973 22.0903 9.03915 21.9649C8.77857 21.8396 8.54564 21.6635 8.35405 21.4469C8.16245 21.2303 8.01604 20.9776 7.9234 20.7037C7.83077 20.4298 7.79378 20.1401 7.8146 19.8517C7.83541 19.5633 7.91363 19.2819 8.04464 19.0241C8.17566 18.7664 8.35684 18.5373 8.57755 18.3505C11.9532 15.3619 17.0478 15.3619 20.4246 18.3505C20.7547 18.6427 20.988 19.0284 21.0936 19.4564C21.1992 19.8844 21.1721 20.3344 21.0158 20.7465C20.8595 21.1587 20.5815 21.5136 20.2186 21.7639C19.8558 22.0143 19.4254 22.1483 18.9846 22.1481H18.9834Z" fill="#FF0000"/>
<path d="M9.91522 13.6587C9.4744 13.6589 9.04398 13.5249 8.68115 13.2745C8.31833 13.0242 8.04029 12.6693 7.884 12.2571C7.7277 11.845 7.70055 11.395 7.80615 10.967C7.91175 10.539 8.14511 10.1533 8.47519 9.86113C9.30571 9.12753 10.3756 8.72266 11.4838 8.72266C12.5919 8.72266 13.6618 9.12753 14.4923 9.86113C14.713 10.0479 14.8942 10.277 15.0252 10.5347C15.1562 10.7925 15.2345 11.0739 15.2553 11.3623C15.2761 11.6507 15.2391 11.9404 15.1465 12.2143C15.0538 12.4882 14.9074 12.7409 14.7158 12.9575C14.5242 13.1741 14.2913 13.3502 14.0307 13.4755C13.7701 13.6009 13.4871 13.6729 13.1983 13.6874C12.9095 13.702 12.6207 13.6586 12.3489 13.56C12.0771 13.4615 11.8277 13.3096 11.6153 13.1133C11.5793 13.0816 11.5329 13.0641 11.4849 13.0641C11.4369 13.0641 11.3905 13.0816 11.3545 13.1133C10.9578 13.4654 10.4456 13.6595 9.91522 13.6587Z" fill="#FF0000"/>
<path d="M15.9472 13.656C15.5064 13.6562 15.076 13.5222 14.7131 13.2718C14.3503 13.0215 14.0723 12.6666 13.916 12.2544C13.7597 11.8422 13.7325 11.3923 13.8381 10.9643C13.9437 10.5363 14.1771 10.1506 14.5072 9.85842C15.3378 9.12487 16.4078 8.72003 17.5159 8.72003C18.6241 8.72003 19.6941 9.12487 20.5247 9.85842C20.9438 10.2432 21.1951 10.7771 21.2246 11.3453C21.2541 11.9135 21.0595 12.4705 20.6825 12.8967C20.3056 13.3228 19.7764 13.584 19.2089 13.6241C18.6414 13.6642 18.0808 13.4799 17.6477 13.1109C17.6116 13.0791 17.5652 13.0615 17.5171 13.0615C17.469 13.0615 17.4225 13.0791 17.3865 13.1109C16.9898 13.4629 16.4776 13.6569 15.9472 13.656Z" fill="#FF0000"/>
</g>
<g opacity="0.06">
<path d="M14.5001 28.4361C11.2758 28.4362 8.15119 27.3182 5.65873 25.2728C3.16628 23.2274 1.46016 20.381 0.831082 17.2187C0.202004 14.0564 0.68889 10.7737 2.20878 7.93014C3.72867 5.08654 6.18752 2.85792 9.16637 1.62401C12.1452 0.390102 15.4598 0.227246 18.5452 1.16319C21.6307 2.09914 24.2962 4.07598 26.0875 6.75688C27.8788 9.43778 28.6852 12.6569 28.3691 15.8656C28.0531 19.0744 26.6342 22.0743 24.3543 24.3542C23.0632 25.6524 21.5275 26.6816 19.836 27.3822C18.1446 28.0829 16.3309 28.4411 14.5001 28.4361ZM14.5001 4.62503C9.05296 4.62503 4.62509 9.05482 4.62509 14.5C4.62509 19.9452 9.05488 24.375 14.5001 24.375C19.9452 24.375 24.375 19.9471 24.375 14.5C24.375 9.0529 19.9452 4.62503 14.5001 4.62503Z" fill="#FF0000"/>
<path d="M10.0166 22.007C9.60436 22.0072 9.20185 21.8819 8.86256 21.6478C8.52327 21.4137 8.26327 21.0819 8.11712 20.6964C7.97098 20.311 7.94561 19.8902 8.04439 19.49C8.14318 19.0898 8.36143 18.7292 8.67014 18.456C11.9936 15.5146 17.0065 15.5146 20.3315 18.456C20.7348 18.8129 20.9798 19.3154 21.0126 19.8529C21.0454 20.3904 20.8633 20.919 20.5064 21.3223C20.1495 21.7255 19.6471 21.9705 19.1095 22.0033C18.572 22.0361 18.0435 21.8541 17.6402 21.4972C16.7737 20.7319 15.6575 20.3096 14.5014 20.3096C13.3454 20.3096 12.2291 20.7319 11.3626 21.4972C10.9916 21.8264 10.5126 22.0078 10.0166 22.007Z" fill="#FF0000"/>
<path d="M13.0528 13.5176C12.5571 13.5182 12.0786 13.3368 11.7079 13.0078C11.6461 12.9532 11.5665 12.9231 11.484 12.9231C11.4016 12.9231 11.322 12.9532 11.2602 13.0078C11.0605 13.1845 10.828 13.3202 10.5759 13.407C10.3238 13.4939 10.057 13.5302 9.79086 13.514C9.5247 13.4977 9.26435 13.4292 9.02467 13.3124C8.78499 13.1955 8.57068 13.0326 8.39396 12.8329C8.21725 12.6332 8.08159 12.4007 7.99475 12.1486C7.9079 11.8965 7.87156 11.6297 7.8878 11.3636C7.90405 11.0974 7.97255 10.837 8.08941 10.5974C8.20627 10.3577 8.3692 10.1434 8.56888 9.96665C9.37367 9.25579 10.4104 8.86346 11.4842 8.86346C12.558 8.86346 13.5948 9.25579 14.3996 9.96665C14.7083 10.2398 14.9265 10.6005 15.0253 11.0007C15.1241 11.4009 15.0987 11.8217 14.9526 12.2071C14.8064 12.5925 14.5464 12.9244 14.2072 13.1584C13.8679 13.3925 13.4654 13.5178 13.0531 13.5176H13.0528Z" fill="#FF0000"/>
<path d="M19.0848 13.5145C18.5891 13.5151 18.1105 13.3335 17.7399 13.0043C17.6781 12.9498 17.5985 12.9197 17.516 12.9197C17.4336 12.9197 17.354 12.9498 17.2922 13.0043C17.0931 13.1845 16.8602 13.3234 16.607 13.413C16.3538 13.5025 16.0854 13.541 15.8173 13.5261C15.5492 13.5112 15.2866 13.4432 15.045 13.3262C14.8033 13.2091 14.5872 13.0453 14.4092 12.8442C14.2313 12.643 14.095 12.4086 14.0083 12.1545C13.9216 11.9003 13.8862 11.6315 13.904 11.3635C13.9219 11.0956 13.9928 10.8338 14.1126 10.5935C14.2323 10.3531 14.3985 10.1389 14.6016 9.96318C15.4064 9.25224 16.4432 8.85986 17.517 8.85986C18.5908 8.85986 19.6276 9.25224 20.4323 9.96318C20.741 10.2363 20.9593 10.597 21.0581 10.9972C21.1569 11.3974 21.1315 11.8182 20.9854 12.2036C20.8392 12.5891 20.5792 12.9209 20.2399 13.155C19.9006 13.3891 19.4981 13.5143 19.0859 13.5142L19.0848 13.5145Z" fill="#FF0000"/>
</g>
<g opacity="0.08">
<path d="M14.5 28.295C11.3085 28.295 8.2157 27.1884 5.74861 25.1637C3.28152 23.139 1.5928 20.3215 0.970162 17.1913C0.347529 14.0611 0.829516 10.8118 2.334 7.99712C3.83848 5.18244 6.27237 2.9765 9.22097 1.75515C12.1696 0.53381 15.4504 0.372635 18.5045 1.29909C21.5586 2.22555 24.197 4.18232 25.9701 6.83598C27.7432 9.48965 28.5414 12.676 28.2286 15.8522C27.9157 19.0283 26.5113 21.9978 24.2545 24.2545C22.9765 25.5395 21.4564 26.5583 19.782 27.2518C18.1076 27.9454 16.3123 28.2999 14.5 28.295ZM14.5 4.48391C8.97622 4.48391 4.4839 8.97737 4.4839 14.5C4.4839 20.0227 8.97698 24.5162 14.5 24.5162C20.0231 24.5162 24.5162 20.0238 24.5162 14.5C24.5162 8.97622 20.0231 4.48391 14.5 4.48391Z" fill="#FF0000"/>
<path d="M18.9839 21.8651C18.5226 21.8659 18.0771 21.697 17.7322 21.3906C16.84 20.6025 15.6905 20.1676 14.5 20.1676C13.3095 20.1676 12.1601 20.6025 11.2678 21.3906C11.0826 21.5586 10.8658 21.6881 10.6302 21.7716C10.3945 21.8552 10.1446 21.8912 9.8949 21.8775C9.64522 21.8637 9.40076 21.8006 9.17566 21.6917C8.95057 21.5828 8.74933 21.4303 8.58361 21.2431C8.41789 21.0558 8.29098 20.8375 8.21023 20.6009C8.12949 20.3642 8.09652 20.1139 8.11324 19.8644C8.12995 19.6149 8.19602 19.3712 8.30761 19.1474C8.4192 18.9237 8.57409 18.7243 8.76331 18.5608C12.0339 15.6669 16.9662 15.6666 20.2367 18.5608C20.5239 18.815 20.7268 19.1506 20.8187 19.523C20.9105 19.8953 20.8869 20.2868 20.7509 20.6454C20.615 21.004 20.3731 21.3128 20.0575 21.5306C19.7418 21.7485 19.3674 21.8651 18.9839 21.8651Z" fill="#FF0000"/>
<path d="M9.91523 13.3769C9.5316 13.3771 9.157 13.2605 8.84122 13.0426C8.52545 12.8248 8.28346 12.516 8.14744 12.1573C8.01141 11.7986 7.98778 11.407 8.0797 11.0345C8.17162 10.662 8.37472 10.3264 8.66202 10.0722C9.44098 9.38416 10.4445 9.00446 11.4838 9.00446C12.5231 9.00446 13.5265 9.38416 14.3055 10.0722C14.4945 10.2357 14.6493 10.435 14.7607 10.6588C14.8721 10.8825 14.9381 11.1261 14.9547 11.3754C14.9714 11.6248 14.9384 11.875 14.8577 12.1116C14.777 12.3481 14.6501 12.5663 14.4845 12.7535C14.3189 12.9406 14.1178 13.0931 13.8928 13.202C13.6679 13.3109 13.4236 13.3742 13.174 13.388C12.9245 13.4019 12.6747 13.3661 12.4391 13.2827C12.2034 13.1993 11.9867 13.0701 11.8014 12.9023C11.7138 12.8249 11.6009 12.7822 11.484 12.7822C11.367 12.7822 11.2542 12.8249 11.1665 12.9023C10.8216 13.2084 10.3764 13.3773 9.91523 13.3769Z" fill="#FF0000"/>
<path d="M15.9474 13.3734C15.5638 13.3736 15.1892 13.2571 14.8734 13.0392C14.5577 12.8214 14.3157 12.5126 14.1797 12.1539C14.0437 11.7952 14.0201 11.4036 14.1121 11.0312C14.2041 10.6588 14.4072 10.3232 14.6946 10.0691C15.4735 9.38109 16.4769 9.0014 17.5161 9.0014C18.5553 9.0014 19.5588 9.38109 20.3377 10.0691C20.7129 10.4011 20.9409 10.8687 20.9714 11.3688C21.002 11.869 20.8326 12.3608 20.5005 12.736C20.1684 13.1113 19.7009 13.3393 19.2008 13.3698C18.7006 13.4003 18.2088 13.2309 17.8335 12.8989C17.7459 12.8215 17.633 12.7789 17.5161 12.7789C17.3992 12.7789 17.2864 12.8215 17.1987 12.8989C16.8538 13.2049 16.4085 13.3738 15.9474 13.3734Z" fill="#FF0000"/>
</g>
<g opacity="0.09">
<path d="M14.4999 28.1538C11.3411 28.1541 8.27991 27.059 5.83794 25.0553C3.39597 23.0515 1.72434 20.263 1.10788 17.1649C0.491418 14.0668 0.968268 10.8508 2.45718 8.06489C3.94609 5.27896 6.35493 3.09549 9.27326 1.88652C12.1916 0.67756 15.4388 0.517906 18.4617 1.43476C21.4845 2.35162 24.0959 4.28827 25.851 6.9147C27.606 9.54114 28.396 12.6949 28.0864 15.8385C27.7768 18.9821 26.3868 21.9211 24.1532 24.1548C22.8884 25.4264 21.3841 26.4347 19.7271 27.1211C18.0701 27.8075 16.2935 28.1585 14.4999 28.1538ZM14.4999 4.3431C8.89942 4.3431 4.34304 8.89948 4.34304 14.5C4.34304 20.1005 8.89942 24.6569 14.4999 24.6569C20.1005 24.6569 24.6569 20.1005 24.6569 14.5C24.6569 8.89948 20.1005 4.3431 14.4999 4.3431Z" fill="#FF0000"/>
<path d="M10.0161 21.7251C9.66109 21.7253 9.31446 21.6174 9.02228 21.4157C8.73009 21.2141 8.5062 20.9284 8.38037 20.5964C8.25454 20.2645 8.23273 19.9021 8.31784 19.5575C8.40295 19.2128 8.59095 18.9023 8.85685 18.6671C12.0737 15.8204 16.9258 15.8204 20.1431 18.6671C20.4903 18.9743 20.7013 19.407 20.7296 19.8699C20.7579 20.3327 20.6011 20.7878 20.2938 21.1351C20.1417 21.3071 19.9571 21.4474 19.7507 21.548C19.5444 21.6487 19.3202 21.7077 19.091 21.7217C18.6282 21.7499 18.173 21.5932 17.8257 21.2859C16.9075 20.4752 15.7248 20.0278 14.5 20.0278C13.2751 20.0278 12.0924 20.4752 11.1742 21.2859C10.855 21.5693 10.4429 21.7256 10.0161 21.7251Z" fill="#FF0000"/>
<path d="M13.0526 13.2341C12.6258 13.2345 12.2137 13.0783 11.8945 12.7949C11.781 12.6948 11.635 12.6396 11.4837 12.6396C11.3324 12.6396 11.1863 12.6948 11.0728 12.7949C10.9015 12.9505 10.7009 13.0706 10.4828 13.148C10.2646 13.2255 10.0333 13.2589 9.80214 13.2463C9.571 13.2337 9.34467 13.1753 9.13627 13.0745C8.92788 12.9737 8.74157 12.8326 8.58816 12.6592C8.43475 12.4859 8.31729 12.2838 8.24259 12.0647C8.16789 11.8456 8.13744 11.6138 8.15301 11.3829C8.16858 11.1519 8.22985 10.9263 8.33328 10.7193C8.43671 10.5122 8.58023 10.3277 8.75552 10.1765C9.50873 9.51132 10.479 9.14423 11.4839 9.14423C12.4887 9.14423 13.459 9.51132 14.2122 10.1765C14.478 10.4117 14.6659 10.7223 14.7509 11.0669C14.8359 11.4115 14.814 11.7738 14.6881 12.1057C14.5623 12.4376 14.3384 12.7233 14.0462 12.9248C13.7541 13.1264 13.4075 13.2343 13.0526 13.2341Z" fill="#FF0000"/>
<path d="M19.0847 13.2341C18.6579 13.2347 18.2458 13.0785 17.9266 12.7953C17.8132 12.6952 17.6672 12.6399 17.5159 12.6399C17.3647 12.6399 17.2187 12.6952 17.1053 12.7953C16.758 13.1026 16.3029 13.2595 15.84 13.2312C15.3771 13.203 14.9444 12.992 14.637 12.6447C14.3297 12.2975 14.1729 11.8423 14.2011 11.3794C14.2294 10.9165 14.4403 10.4838 14.7876 10.1765C15.5408 9.51132 16.5111 9.14423 17.5159 9.14423C18.5208 9.14423 19.4911 9.51132 20.2443 10.1765C20.5101 10.4117 20.6979 10.7223 20.783 11.0669C20.868 11.4115 20.8461 11.7738 20.7202 12.1057C20.5944 12.4376 20.3705 12.7233 20.0783 12.9248C19.7862 13.1264 19.4396 13.2343 19.0847 13.2341Z" fill="#FF0000"/>
</g>
<g opacity="0.1">
<path d="M14.5 28.013C11.3736 28.0131 8.34384 26.9291 5.92705 24.9458C3.51026 22.9625 1.85592 20.2025 1.24593 17.1362C0.635943 14.0699 1.10804 10.8869 2.58177 8.12961C4.05551 5.37234 6.4397 3.21138 9.32811 2.01492C12.2165 0.818457 15.4304 0.660535 18.4222 1.56806C21.414 2.47558 23.9986 4.3924 25.7355 6.9919C27.4725 9.59141 28.2544 12.7128 27.9479 15.8241C27.6415 18.9355 26.2657 21.8443 24.055 24.055C22.8032 25.3138 21.3141 26.3118 19.674 26.9912C18.0338 27.6705 16.2752 28.0179 14.5 28.013ZM14.5 4.20191C8.82272 4.20191 4.2019 8.82158 4.2019 14.5C4.2019 20.1784 8.82156 24.798 14.5 24.798C20.1784 24.798 24.798 20.1772 24.798 14.5C24.798 8.82273 20.1784 4.20191 14.5 4.20191Z" fill="#FF0000"/>
<path d="M10.016 21.5839C9.68975 21.584 9.37114 21.4848 9.10259 21.2995C8.83403 21.1141 8.62824 20.8514 8.51257 20.5463C8.39691 20.2412 8.37685 19.9081 8.45505 19.5914C8.53326 19.2746 8.70604 18.9891 8.95041 18.7729C12.1139 15.9726 16.8859 15.9726 20.0494 18.7729C20.2075 18.9128 20.3365 19.0824 20.429 19.2721C20.5215 19.4619 20.5757 19.668 20.5886 19.8787C20.6015 20.0894 20.5727 20.3005 20.5039 20.5001C20.4352 20.6997 20.3278 20.8838 20.1879 21.0418C20.048 21.1999 19.8784 21.3289 19.6886 21.4214C19.4989 21.5139 19.2928 21.5681 19.0821 21.581C18.8714 21.5939 18.6602 21.5651 18.4607 21.4964C18.2611 21.4276 18.077 21.3202 17.9189 21.1803C16.9751 20.3466 15.7592 19.8865 14.4999 19.8865C13.2406 19.8865 12.0247 20.3466 11.0809 21.1803C10.7873 21.4406 10.4084 21.5842 10.016 21.5839Z" fill="#FF0000"/>
<path d="M13.0527 13.0948C12.6603 13.0952 12.2815 12.9515 11.9882 12.6909C11.849 12.568 11.6697 12.5002 11.484 12.5002C11.2982 12.5002 11.1189 12.568 10.9797 12.6909C10.6605 12.9736 10.242 13.118 9.81632 13.0921C9.39066 13.0663 8.99269 12.8724 8.70996 12.5532C8.42724 12.2339 8.28291 11.8155 8.30874 11.3898C8.33457 10.9641 8.52843 10.5662 8.84768 10.2834C9.57503 9.64108 10.512 9.28656 11.4824 9.28656C12.4528 9.28656 13.3898 9.64108 14.1172 10.2834C14.3615 10.4998 14.5342 10.7853 14.6124 11.1021C14.6905 11.4189 14.6704 11.752 14.5547 12.0572C14.439 12.3623 14.2332 12.625 13.9647 12.8103C13.6961 12.9957 13.3775 13.0949 13.0511 13.0948H13.0527Z" fill="#FF0000"/>
<path d="M19.0852 13.0914C18.6928 13.0919 18.3138 12.9483 18.0203 12.6879C17.8811 12.5648 17.7018 12.4968 17.516 12.4968C17.3303 12.4968 17.1509 12.5648 17.0118 12.6879C16.6913 12.9614 16.2762 13.0981 15.8559 13.0686C15.4355 13.0392 15.0436 12.8459 14.7643 12.5303C14.4851 12.2148 14.3409 11.8022 14.3628 11.3814C14.3846 10.9607 14.5708 10.5653 14.8813 10.2804C15.6087 9.63802 16.5456 9.28351 17.516 9.28351C18.4865 9.28351 19.4234 9.63802 20.1508 10.2804C20.3951 10.4967 20.5678 10.7822 20.646 11.099C20.7242 11.4158 20.7041 11.7488 20.5884 12.0539C20.4728 12.359 20.267 12.6217 19.9985 12.8071C19.73 12.9925 19.4114 13.0918 19.0852 13.0918V13.0914Z" fill="#FF0000"/>
</g>
<g opacity="0.1">
<path d="M14.5001 27.8719C11.4064 27.8719 8.40847 26.7992 6.01705 24.8366C3.62562 22.874 1.98868 20.143 1.38514 17.1088C0.78159 14.0746 1.24878 10.925 2.70711 8.1966C4.16544 5.46824 6.52468 3.32995 9.38283 2.14606C12.241 0.962165 15.4212 0.805924 18.3817 1.70396C21.3421 2.60199 23.8996 4.49874 25.6183 7.07101C27.337 9.64328 28.1107 12.7319 27.8075 15.8107C27.5043 18.8894 26.1429 21.7678 23.9554 23.9553C22.7166 25.2009 21.243 26.1884 19.62 26.8607C17.997 27.533 16.2568 27.8766 14.5001 27.8719ZM14.5001 4.06078C8.74379 4.06078 4.06083 8.74375 4.06083 14.5C4.06083 20.2563 8.74379 24.9392 14.5001 24.9392C20.2563 24.9392 24.9393 20.2563 24.9393 14.5C24.9393 8.74375 20.2563 4.06078 14.5001 4.06078Z" fill="#FF0000"/>
<path d="M18.9839 21.4432C18.626 21.4435 18.2804 21.3125 18.0126 21.0749C17.043 20.2184 15.7938 19.7457 14.5 19.7457C13.2063 19.7457 11.9571 20.2184 10.9874 21.0749C10.6961 21.3327 10.3144 21.4641 9.9262 21.4404C9.53798 21.4167 9.17508 21.2398 8.91733 20.9485C8.65958 20.6572 8.5281 20.2755 8.5518 19.8873C8.5755 19.4991 8.75246 19.1362 9.04373 18.8784C12.1543 16.1257 16.8457 16.1257 19.9563 18.8784C20.1793 19.0757 20.3369 19.3362 20.4082 19.6252C20.4796 19.9143 20.4613 20.2182 20.3557 20.4966C20.2502 20.775 20.0624 21.0146 19.8174 21.1837C19.5723 21.3528 19.2816 21.4433 18.9839 21.4432Z" fill="#FF0000"/>
<path d="M13.0532 12.9537C12.6951 12.9541 12.3494 12.8231 12.0815 12.5854C11.9165 12.4398 11.704 12.3594 11.4839 12.3594C11.2638 12.3594 11.0512 12.4398 10.8862 12.5854C10.5949 12.8432 10.2132 12.9747 9.825 12.951C9.43678 12.9273 9.07388 12.7503 8.81613 12.4591C8.55839 12.1678 8.4269 11.7861 8.4506 11.3978C8.47431 11.0096 8.65126 10.6467 8.94253 10.389C9.6442 9.76941 10.548 9.42749 11.4841 9.42749C12.4201 9.42749 13.3239 9.76941 14.0256 10.389C14.2485 10.5863 14.4062 10.8467 14.4775 11.1358C14.5489 11.4248 14.5305 11.7287 14.425 12.0071C14.3194 12.2855 14.1317 12.5252 13.8866 12.6942C13.6416 12.8633 13.3509 12.9538 13.0532 12.9537Z" fill="#FF0000"/>
<path d="M19.0852 12.9503C18.7272 12.9508 18.3816 12.8197 18.1139 12.582C17.9489 12.4363 17.7363 12.3559 17.5161 12.3559C17.2959 12.3559 17.0833 12.4363 16.9183 12.582C16.7746 12.7128 16.6063 12.8137 16.4233 12.8789C16.2403 12.9441 16.0461 12.9723 15.8521 12.9618C15.6581 12.9513 15.4681 12.9024 15.2932 12.8178C15.1182 12.7333 14.9618 12.6149 14.8331 12.4694C14.7043 12.3239 14.6057 12.1543 14.5431 11.9703C14.4804 11.7864 14.4549 11.5919 14.4681 11.3981C14.4813 11.2042 14.5328 11.0149 14.6198 10.8412C14.7067 10.6674 14.8273 10.5127 14.9746 10.3859C15.6762 9.76621 16.58 9.42419 17.5161 9.42419C18.4522 9.42419 19.356 9.76621 20.0576 10.3859C20.2804 10.5833 20.4379 10.8437 20.5092 11.1327C20.5805 11.4217 20.5621 11.7255 20.4566 12.0038C20.351 12.2821 20.1633 12.5216 19.9184 12.6907C19.6734 12.8598 19.3828 12.9503 19.0852 12.9503Z" fill="#FF0000"/>
</g>
<g opacity="0.11">
<path d="M14.5 27.7311C11.4387 27.731 8.47211 26.6694 6.10577 24.7272C3.73943 22.785 2.11974 20.0824 1.52268 17.0799C0.925614 14.0774 1.38812 10.9607 2.83139 8.261C4.27466 5.56127 6.6094 3.4455 9.43777 2.27421C12.2661 1.10293 15.4131 0.948588 18.3425 1.8375C21.2719 2.72642 23.8025 4.60358 25.503 7.14914C27.2035 9.69469 27.9688 12.7511 27.6684 15.7977C27.368 18.8442 26.0205 21.6923 23.8555 23.8567C22.6298 25.089 21.1717 26.066 19.5659 26.731C17.96 27.3961 16.2381 27.736 14.5 27.7311ZM14.5 3.91998C8.66621 3.91998 3.91996 8.66623 3.91996 14.5C3.91996 20.3337 8.66621 25.08 14.5 25.08C20.3337 25.08 25.08 20.3337 25.08 14.5C25.08 8.66623 20.3337 3.91998 14.5 3.91998Z" fill="#FF0000"/>
<path d="M18.9838 21.3019C18.6603 21.3023 18.348 21.1838 18.1061 20.969C17.1107 20.0898 15.8284 19.6046 14.5003 19.6046C13.1722 19.6046 11.8899 20.0898 10.8945 20.969C10.7642 21.0848 10.6124 21.1737 10.4477 21.2307C10.283 21.2878 10.1087 21.3117 9.93469 21.3013C9.76071 21.2909 9.59049 21.2462 9.4338 21.1699C9.2771 21.0936 9.13699 20.9871 9.02149 20.8566C8.90599 20.7261 8.81738 20.574 8.76071 20.4092C8.70405 20.2444 8.68046 20.07 8.69128 19.8961C8.7021 19.7221 8.74713 19.552 8.82378 19.3955C8.90044 19.2389 9.00722 19.0991 9.138 18.9838C12.1953 16.2783 16.8061 16.2783 19.8634 18.9838C20.065 19.1621 20.2075 19.3976 20.272 19.6588C20.3366 19.9201 20.32 20.1948 20.2246 20.4464C20.1292 20.6981 19.9595 20.9147 19.738 21.0675C19.5165 21.2203 19.2537 21.3021 18.9846 21.3019H18.9838Z" fill="#FF0000"/>
<path d="M9.91486 12.8121C9.64575 12.8123 9.38297 12.7305 9.16146 12.5777C8.93995 12.4249 8.77021 12.2083 8.67482 11.9566C8.57942 11.705 8.56288 11.4303 8.62741 11.169C8.69193 10.9078 8.83446 10.6723 9.03604 10.4941C9.71182 9.89721 10.5824 9.56781 11.484 9.56781C12.3856 9.56781 13.2561 9.89721 13.9319 10.4941C14.0622 10.6094 14.1686 10.7493 14.2449 10.9058C14.3211 11.0622 14.3659 11.2322 14.3765 11.4059C14.3871 11.5797 14.3633 11.7538 14.3066 11.9184C14.2499 12.0829 14.1614 12.2347 14.046 12.3651C13.9307 12.4954 13.7908 12.6017 13.6343 12.678C13.4778 12.7543 13.3079 12.799 13.1342 12.8096C12.9604 12.8202 12.7863 12.7965 12.6217 12.7398C12.4572 12.6831 12.3054 12.5945 12.175 12.4792C11.9843 12.311 11.7388 12.2182 11.4845 12.2182C11.2303 12.2182 10.9848 12.311 10.7941 12.4792C10.5517 12.6941 10.2388 12.8126 9.91486 12.8121Z" fill="#FF0000"/>
<path d="M15.9468 12.8095C15.6777 12.8096 15.415 12.7278 15.1934 12.575C14.9719 12.4222 14.8022 12.2056 14.7068 11.9539C14.6114 11.7023 14.5949 11.4276 14.6594 11.1663C14.7239 10.9051 14.8664 10.6697 15.068 10.4914C15.7438 9.89445 16.6143 9.565 17.516 9.565C18.4176 9.565 19.2881 9.89445 19.9639 10.4914C20.0942 10.6067 20.2006 10.7466 20.2769 10.9031C20.3531 11.0595 20.3978 11.2295 20.4084 11.4032C20.419 11.577 20.3953 11.7511 20.3386 11.9157C20.2819 12.0802 20.1934 12.232 20.078 12.3624C19.9626 12.4927 19.8227 12.5991 19.6663 12.6753C19.5098 12.7516 19.3399 12.7963 19.1661 12.8069C18.9924 12.8175 18.8183 12.7938 18.6537 12.7371C18.4891 12.6804 18.3373 12.5919 18.207 12.4765C18.0163 12.3083 17.7708 12.2155 17.5165 12.2155C17.2623 12.2155 17.0167 12.3083 16.8261 12.4765C16.5837 12.6915 16.2708 12.81 15.9468 12.8095Z" fill="#FF0000"/>
</g>
<g opacity="0.11">
<path d="M14.5 27.5899C11.4715 27.5905 8.53649 26.5409 6.19509 24.6201C3.85369 22.6992 2.25074 20.026 1.65937 17.0558C1.06799 14.0856 1.52477 11.0023 2.95189 8.33111C4.379 5.65995 6.68815 3.56626 9.48589 2.40677C12.2836 1.24728 15.3968 1.09373 18.2951 1.97228C21.1933 2.85084 23.6973 4.70714 25.3804 7.2249C27.0634 9.74266 27.8214 12.7661 27.5252 15.7801C27.2289 18.794 25.8968 21.612 23.7558 23.7539C22.5433 24.9736 21.1009 25.9407 19.5121 26.5991C17.9234 27.2576 16.2198 27.5943 14.5 27.5899ZM14.5 3.77885C8.58833 3.77885 3.77879 8.5884 3.77879 14.5C3.77879 20.4117 8.58833 25.2212 14.5 25.2212C20.4116 25.2212 25.2211 20.4117 25.2211 14.5C25.2211 8.5884 20.4116 3.77885 14.5 3.77885Z" fill="#FF0000"/>
<path d="M18.9838 21.1612C18.6947 21.1614 18.4156 21.0555 18.1994 20.8635C17.1781 19.9614 15.8625 19.4636 14.4999 19.4636C13.1374 19.4636 11.8217 19.9614 10.8005 20.8635C10.6846 20.9704 10.5486 21.053 10.4004 21.1066C10.2522 21.1601 10.0948 21.1836 9.93736 21.1756C9.77996 21.1676 9.62575 21.1282 9.48375 21.0598C9.34175 20.9915 9.21482 20.8954 9.1104 20.7774C9.00598 20.6593 8.92617 20.5216 8.87564 20.3724C8.82511 20.2231 8.80488 20.0652 8.81613 19.908C8.82738 19.7508 8.86989 19.5974 8.94117 19.4569C9.01245 19.3163 9.11106 19.1914 9.23122 19.0894C12.2352 16.4311 16.7659 16.4311 19.7702 19.0894C19.9502 19.2488 20.0775 19.4592 20.135 19.6926C20.1926 19.9261 20.1778 20.1715 20.0925 20.3963C20.0073 20.6211 19.8556 20.8147 19.6577 20.9512C19.4598 21.0878 19.225 21.1609 18.9846 21.1608L18.9838 21.1612Z" fill="#FF0000"/>
<path d="M13.053 12.6718C12.7639 12.6721 12.4847 12.5662 12.2685 12.3742C12.0519 12.1828 11.7729 12.0773 11.4839 12.0773C11.1949 12.0773 10.9158 12.1828 10.6992 12.3742C10.5832 12.4801 10.4473 12.5618 10.2994 12.6147C10.1515 12.6676 9.99451 12.6905 9.83765 12.6822C9.68079 12.6738 9.52715 12.6344 9.38569 12.5661C9.24422 12.4978 9.11775 12.4021 9.01363 12.2844C8.90952 12.1668 8.82983 12.0297 8.77922 11.8809C8.72862 11.7322 8.70809 11.5749 8.71884 11.4182C8.72959 11.2615 8.77141 11.1085 8.84185 10.9681C8.9123 10.8277 9.00996 10.7027 9.12917 10.6004C9.77911 10.0262 10.6165 9.70935 11.4837 9.70935C12.3509 9.70935 13.1883 10.0262 13.8382 10.6004C14.0182 10.7598 14.1455 10.9701 14.203 11.2035C14.2606 11.437 14.2458 11.6824 14.1606 11.9072C14.0754 12.132 13.9238 12.3255 13.726 12.4621C13.5281 12.5987 13.2934 12.6718 13.053 12.6718Z" fill="#FF0000"/>
<path d="M19.0851 12.6684C18.796 12.6687 18.5168 12.5629 18.3006 12.3711C18.084 12.1798 17.8049 12.0742 17.5159 12.0742C17.2269 12.0742 16.9479 12.1798 16.7313 12.3711C16.6152 12.4768 16.4793 12.5584 16.3314 12.6111C16.1835 12.6638 16.0267 12.6866 15.8699 12.6781C15.7131 12.6697 15.5596 12.6301 15.4183 12.5618C15.2769 12.4935 15.1506 12.3978 15.0465 12.2802C14.9425 12.1626 14.8629 12.0256 14.8123 11.8769C14.7617 11.7283 14.7412 11.5711 14.7519 11.4145C14.7626 11.2579 14.8043 11.1049 14.8747 10.9646C14.945 10.8242 15.0425 10.6993 15.1616 10.5969C15.8116 10.023 16.6488 9.70618 17.5159 9.70618C18.3831 9.70618 19.2203 10.023 19.8703 10.5969C20.0503 10.7563 20.1775 10.9667 20.2351 11.2001C20.2927 11.4335 20.2779 11.6789 20.1927 11.9037C20.1075 12.1285 19.9559 12.322 19.758 12.4586C19.5602 12.5952 19.3255 12.6684 19.0851 12.6684Z" fill="#FF0000"/>
</g>
<g opacity="0.12">
<path d="M14.5 27.4491C11.5038 27.4497 8.60007 26.4114 6.28362 24.511C3.96717 22.6106 2.38134 19.9658 1.79636 17.0273C1.21138 14.0887 1.66344 11.0382 3.07552 8.39558C4.4876 5.75296 6.77232 3.68175 9.54036 2.53486C12.3084 1.38798 15.3885 1.2364 18.2557 2.10594C21.123 2.97549 23.6001 4.81236 25.2648 7.30355C26.9295 9.79474 27.679 12.7861 27.3853 15.7679C27.0917 18.7497 25.7733 21.5375 23.6546 23.6561C22.4552 24.8621 21.0285 25.8183 19.4572 26.4694C17.8858 27.1205 16.2009 27.4535 14.5 27.4491ZM14.5 3.63804C8.51053 3.63804 3.63807 8.50974 3.63807 14.5C3.63807 20.4903 8.50977 25.362 14.5 25.362C20.4903 25.362 25.362 20.4903 25.362 14.5C25.362 8.50974 20.4895 3.63804 14.5 3.63804Z" fill="#FF0000"/>
<path d="M18.9839 21.0212C18.7294 21.0213 18.4837 20.9281 18.2934 20.7592C17.2464 19.8343 15.8975 19.3238 14.5004 19.3238C13.1034 19.3238 11.7545 19.8343 10.7074 20.7592C10.5001 20.9419 10.2287 21.035 9.95283 21.0179C9.67696 21.0008 9.41916 20.8749 9.236 20.6679C9.05284 20.461 8.95929 20.1897 8.97588 19.9138C8.99248 19.638 9.11787 19.3799 9.32452 19.1964C12.2752 16.5848 16.7257 16.5848 19.6763 19.1964C19.8348 19.3367 19.947 19.5219 19.9978 19.7274C20.0486 19.9329 20.0356 20.149 19.9607 20.347C19.8858 20.545 19.7524 20.7156 19.5783 20.836C19.4042 20.9564 19.1975 21.021 18.9858 21.0212H18.9839Z" fill="#FF0000"/>
<path d="M13.0532 12.5306C12.7987 12.5307 12.553 12.4375 12.3627 12.2686C12.1203 12.0545 11.808 11.9363 11.4846 11.9363C11.1612 11.9363 10.8489 12.0545 10.6066 12.2686C10.3992 12.4514 10.1279 12.5445 9.852 12.5274C9.57613 12.5103 9.31833 12.3844 9.13517 12.1774C8.95201 11.9704 8.85846 11.6992 8.87505 11.4233C8.89165 11.1474 9.01704 10.8894 9.22369 10.7058C9.84773 10.1542 10.6519 9.84973 11.4848 9.84973C12.3177 9.84973 13.1219 10.1542 13.7459 10.7058C13.9045 10.8461 14.0166 11.0313 14.0674 11.2369C14.1182 11.4424 14.1053 11.6585 14.0304 11.8565C13.9554 12.0545 13.822 12.225 13.6479 12.3454C13.4738 12.4658 13.2672 12.5304 13.0555 12.5306H13.0532Z" fill="#FF0000"/>
<path d="M19.0852 12.5275C18.8306 12.5277 18.5849 12.4343 18.3947 12.2652C18.1523 12.0512 17.8401 11.9331 17.5168 11.9331C17.1935 11.9331 16.8813 12.0512 16.639 12.2652C16.4317 12.4489 16.16 12.5427 15.8836 12.526C15.6072 12.5094 15.3487 12.3836 15.165 12.1764C14.9813 11.9691 14.8875 11.6974 14.9041 11.421C14.9208 11.1446 15.0465 10.8861 15.2538 10.7024C15.8781 10.1512 16.6821 9.84705 17.5149 9.84705C18.3477 9.84705 19.1518 10.1512 19.776 10.7024C19.9345 10.8427 20.0466 11.028 20.0973 11.2335C20.1481 11.439 20.1352 11.6551 20.0603 11.8531C19.9853 12.0511 19.852 12.2216 19.6779 12.3421C19.5038 12.4626 19.2972 12.5272 19.0855 12.5275H19.0852Z" fill="#FF0000"/>
</g>
<path d="M14.5 27.3079C11.5369 27.3078 8.66553 26.2803 6.3751 24.4005C4.08467 22.5207 2.5169 19.9048 1.93891 16.9986C1.36093 14.0925 1.80849 11.0758 3.20534 8.46265C4.6022 5.84948 6.86191 3.80149 9.59946 2.66763C12.337 1.53376 15.383 1.38418 18.2185 2.24437C21.054 3.10455 23.5035 4.92128 25.1497 7.38501C26.7958 9.84875 27.5368 12.807 27.2463 15.7559C26.9559 18.7047 25.652 21.4615 23.5567 23.5567C22.3701 24.7497 20.9587 25.6956 19.4041 26.3395C17.8495 26.9834 16.1826 27.3125 14.5 27.3079ZM14.5 3.49688C8.433 3.49688 3.49686 8.43301 3.49686 14.5C3.49686 20.567 8.433 25.5031 14.5 25.5031C20.567 25.5031 25.5031 20.567 25.5031 14.5C25.5031 8.43301 20.567 3.49688 14.5 3.49688Z" fill="#FF0000"/>
<path d="M18.9839 20.8788C18.7637 20.8791 18.5511 20.7986 18.3863 20.6525C17.3136 19.7047 15.9315 19.1815 14.5 19.1815C13.0686 19.1815 11.6865 19.7047 10.6138 20.6525C10.5255 20.7335 10.4219 20.7961 10.3091 20.8366C10.1963 20.8772 10.0766 20.8949 9.95687 20.8886C9.83717 20.8824 9.71992 20.8524 9.61194 20.8003C9.50397 20.7483 9.40744 20.6753 9.32799 20.5856C9.24854 20.4958 9.18776 20.3911 9.1492 20.2777C9.11063 20.1642 9.09505 20.0441 9.10337 19.9246C9.11169 19.805 9.14375 19.6883 9.19766 19.5812C9.25157 19.4742 9.32626 19.379 9.41738 19.3011C12.3151 16.7371 16.685 16.7371 19.5827 19.3011C19.72 19.4225 19.817 19.5827 19.861 19.7606C19.9049 19.9385 19.8937 20.1256 19.8287 20.2969C19.7637 20.4682 19.6481 20.6157 19.4973 20.7197C19.3465 20.8237 19.1675 20.8794 18.9843 20.8792L18.9839 20.8788Z" fill="#FF0000"/>
<path d="M13.0531 12.3902C12.8329 12.3904 12.6202 12.3097 12.4555 12.1635C12.1873 11.9266 11.8418 11.7958 11.484 11.7958C11.1262 11.7958 10.7807 11.9266 10.5126 12.1635C10.4242 12.2443 10.3206 12.3068 10.2078 12.3471C10.095 12.3875 9.97538 12.4051 9.85577 12.3987C9.73616 12.3924 9.61901 12.3623 9.51114 12.3103C9.40327 12.2582 9.30684 12.1852 9.22747 12.0955C9.1481 12.0058 9.08738 11.9012 9.04885 11.7878C9.01031 11.6744 8.99473 11.5544 9.00302 11.435C9.0113 11.3155 9.04329 11.1988 9.09711 11.0918C9.15093 10.9848 9.22551 10.8896 9.3165 10.8117C9.91481 10.2833 10.6856 9.99164 11.4838 9.99164C12.2821 9.99164 13.0528 10.2833 13.6512 10.8117C13.7884 10.9331 13.8854 11.0934 13.9293 11.2713C13.9732 11.4492 13.9619 11.6362 13.8969 11.8076C13.832 11.9789 13.7164 12.1264 13.5656 12.2305C13.4149 12.3345 13.236 12.3903 13.0527 12.3902H13.0531Z" fill="#FF0000"/>
<path d="M19.0851 12.3864C18.8649 12.3866 18.6523 12.3061 18.4875 12.1601C18.2193 11.9232 17.8738 11.7925 17.516 11.7925C17.1582 11.7925 16.8128 11.9232 16.5446 12.1601C16.3654 12.3187 16.1305 12.3996 15.8916 12.385C15.6527 12.3705 15.4294 12.2616 15.2708 12.0824C15.1122 11.9032 15.0313 11.6683 15.0459 11.4294C15.0604 11.1906 15.1693 10.9673 15.3485 10.8087C15.9468 10.2802 16.7176 9.98859 17.5158 9.98859C18.3141 9.98859 19.0848 10.2802 19.6832 10.8087C19.8204 10.93 19.9175 11.0903 19.9614 11.2682C20.0054 11.4461 19.9941 11.6331 19.9291 11.8044C19.8642 11.9758 19.7486 12.1233 19.5977 12.2273C19.4469 12.3313 19.268 12.3869 19.0847 12.3868L19.0851 12.3864Z" fill="#FF0000"/>
<g opacity="0.2">
<path d="M14.5 27.1668C11.5696 27.1666 8.73004 26.1504 6.46497 24.2913C4.19991 22.4322 2.64953 19.8452 2.07799 16.9712C1.50645 14.0971 1.94912 11.1138 3.33056 8.52957C4.71201 5.94532 6.94676 3.92 9.65406 2.7987C12.3614 1.67741 15.3737 1.52951 18.1778 2.38021C20.9819 3.2309 23.4043 5.02756 25.0323 7.46405C26.6602 9.90055 27.393 12.8261 27.1058 15.7423C26.8185 18.6585 25.529 21.3849 23.457 23.457C22.2834 24.6369 20.8875 25.5723 19.35 26.209C17.8126 26.8458 16.1641 27.1713 14.5 27.1668ZM14.5 3.35607C8.3551 3.35607 3.35567 8.35512 3.35567 14.5C3.35567 20.6448 8.3551 25.6439 14.5 25.6439C20.6448 25.6439 25.6439 20.6448 25.6439 14.5C25.6439 8.35512 20.6448 3.35607 14.5 3.35607Z" fill="white"/>
<path d="M10.0158 20.738C9.86114 20.7381 9.71017 20.6911 9.58291 20.6033C9.45565 20.5155 9.35814 20.3911 9.30334 20.2465C9.24854 20.1019 9.23905 19.9441 9.27613 19.794C9.31322 19.6439 9.39512 19.5086 9.51094 19.4062C10.8883 18.1898 12.6625 17.5186 14.5 17.5186C16.3375 17.5186 18.1118 18.1898 19.4891 19.4062C19.6401 19.5401 19.7318 19.7285 19.7441 19.9299C19.7563 20.1314 19.688 20.3295 19.5542 20.4806C19.4205 20.6318 19.2322 20.7236 19.0307 20.736C18.8292 20.7484 18.6311 20.6803 18.4798 20.5466C17.3812 19.5763 15.9658 19.0408 14.5 19.0408C13.0342 19.0408 11.6189 19.5763 10.5202 20.5466C10.3811 20.67 10.2017 20.7381 10.0158 20.738Z" fill="white"/>
<path d="M9.91437 12.2486C9.75984 12.2486 9.60898 12.2016 9.48181 12.1138C9.35464 12.026 9.25719 11.9016 9.20241 11.7571C9.14763 11.6127 9.1381 11.4549 9.1751 11.3049C9.2121 11.1549 9.29387 11.0196 9.40956 10.9172C9.98214 10.4115 10.7197 10.1324 11.4837 10.1324C12.2476 10.1324 12.9852 10.4115 13.5578 10.9172C13.6349 10.9828 13.6981 11.0631 13.7438 11.1535C13.7895 11.2438 13.8167 11.3424 13.8238 11.4434C13.8309 11.5444 13.8178 11.6458 13.7853 11.7416C13.7528 11.8375 13.7015 11.9259 13.6344 12.0017C13.5673 12.0775 13.4857 12.1392 13.3945 12.1831C13.3033 12.227 13.2042 12.2523 13.1031 12.2575C13.002 12.2626 12.9009 12.2476 12.8057 12.2132C12.7104 12.1788 12.623 12.1258 12.5485 12.0572C12.2543 11.7981 11.8757 11.6551 11.4837 11.6551C11.0916 11.6551 10.713 11.7981 10.4188 12.0572C10.2798 12.1808 10.1003 12.2489 9.91437 12.2486Z" fill="white"/>
<path d="M15.9469 12.2452C15.7923 12.2453 15.6414 12.1983 15.5141 12.1106C15.3869 12.0228 15.2894 11.8984 15.2346 11.7539C15.1798 11.6094 15.1702 11.4516 15.2072 11.3015C15.2442 11.1515 15.326 11.0162 15.4417 10.9137C16.0143 10.408 16.752 10.1289 17.516 10.1289C18.28 10.1289 19.0176 10.408 19.5903 10.9137C19.7413 11.0476 19.833 11.236 19.8452 11.4375C19.8575 11.6389 19.7892 11.837 19.6554 11.9882C19.5216 12.1393 19.3333 12.2312 19.1319 12.2436C18.9304 12.2559 18.7323 12.1878 18.581 12.0542C18.287 11.7945 17.9082 11.6511 17.516 11.6511C17.1237 11.6511 16.7449 11.7945 16.4509 12.0542C16.312 12.1775 16.1326 12.2454 15.9469 12.2452Z" fill="white"/>
</g>
<g opacity="0.4">
<path d="M14.5 27.026C11.6021 27.026 8.79379 26.0211 6.55365 24.1827C4.31352 22.3442 2.78015 19.7859 2.21481 16.9436C1.64946 14.1013 2.08713 11.151 3.45324 8.59521C4.81934 6.03945 7.02936 4.03644 9.70673 2.92745C12.3841 1.81847 15.3632 1.67214 18.1363 2.51339C20.9095 3.35464 23.3052 5.13142 24.9152 7.541C26.5252 9.95057 27.2499 12.8438 26.9658 15.7278C26.6818 18.6118 25.4065 21.3081 23.3573 23.3573C22.1968 24.524 20.8165 25.449 19.2961 26.0787C17.7758 26.7085 16.1456 27.0304 14.5 27.026ZM14.5 3.21494C8.27732 3.21494 3.21498 8.27843 3.21498 14.5C3.21498 20.7216 8.27847 25.7851 14.5 25.7851C20.7216 25.7851 25.7851 20.7216 25.7851 14.5C25.7851 8.27843 20.7228 3.21494 14.5 3.21494Z" fill="white"/>
<path d="M18.9843 20.5969C18.8328 20.597 18.6865 20.5416 18.5731 20.4412C17.4486 19.4481 16.0001 18.9 14.4999 18.9C12.9996 18.9 11.5511 19.4481 10.4266 20.4412C10.3657 20.4956 10.2946 20.5374 10.2175 20.5643C10.1403 20.5912 10.0586 20.6025 9.97706 20.5977C9.8955 20.5929 9.81569 20.5721 9.74222 20.5363C9.66875 20.5006 9.60306 20.4507 9.54892 20.3895C9.49479 20.3284 9.45327 20.2571 9.42676 20.1798C9.40025 20.1025 9.38926 20.0208 9.39443 19.9392C9.3996 19.8577 9.42083 19.778 9.4569 19.7047C9.49296 19.6314 9.54315 19.5659 9.60459 19.5121C10.956 18.3184 12.697 17.6595 14.5001 17.6595C16.3032 17.6595 18.0442 18.3184 19.3955 19.5121C19.4898 19.5955 19.5565 19.7057 19.5867 19.8279C19.6169 19.9502 19.6091 20.0787 19.5645 20.1965C19.5199 20.3142 19.4405 20.4156 19.3368 20.4871C19.2332 20.5586 19.1102 20.5969 18.9843 20.5969Z" fill="white"/>
<path d="M13.0531 12.1075C12.9016 12.1077 12.7554 12.0523 12.6422 11.9517C12.3225 11.6694 11.9106 11.5136 11.484 11.5136C11.0574 11.5136 10.6455 11.6694 10.3257 11.9517C10.2647 12.0057 10.1936 12.0472 10.1166 12.0737C10.0396 12.1003 9.95808 12.1114 9.87676 12.1065C9.79544 12.1015 9.71589 12.0806 9.64266 12.0449C9.56942 12.0092 9.50393 11.9594 9.44993 11.8984C9.39593 11.8374 9.35447 11.7664 9.32792 11.6893C9.30138 11.6123 9.29026 11.5308 9.29521 11.4495C9.30017 11.3682 9.32109 11.2886 9.35678 11.2154C9.39248 11.1422 9.44224 11.0767 9.50325 11.0227C10.05 10.5397 10.7544 10.2732 11.484 10.2732C12.2135 10.2732 12.9179 10.5397 13.4647 11.0227C13.559 11.1061 13.6257 11.2163 13.6558 11.3386C13.686 11.4609 13.6782 11.5895 13.6336 11.7072C13.5889 11.825 13.5094 11.9264 13.4057 11.9979C13.302 12.0694 13.179 12.1076 13.0531 12.1075Z" fill="white"/>
<path d="M19.0856 12.1044C18.9341 12.1046 18.7878 12.0492 18.6744 11.9487C18.3547 11.6662 17.9428 11.5103 17.5161 11.5103C17.0895 11.5103 16.6775 11.6662 16.3578 11.9487C16.2341 12.054 16.0739 12.1065 15.9118 12.095C15.7497 12.0835 15.5986 12.0089 15.4909 11.8872C15.3832 11.7655 15.3276 11.6064 15.3359 11.4441C15.3442 11.2818 15.4158 11.1293 15.5354 11.0192C16.0822 10.5363 16.7866 10.2698 17.5161 10.2698C18.2456 10.2698 18.95 10.5363 19.4968 11.0192C19.5911 11.1027 19.6577 11.2129 19.6878 11.3352C19.718 11.4574 19.7102 11.586 19.6656 11.7037C19.621 11.8214 19.5416 11.9228 19.438 11.9944C19.3344 12.066 19.2115 12.1044 19.0856 12.1044Z" fill="white"/>
</g>
<g opacity="0.4">
<path d="M14.5 26.8848C11.6348 26.8847 8.8583 25.8912 6.64354 24.0734C4.42877 22.2557 2.91278 19.7263 2.35389 16.9161C1.79499 14.106 2.22776 11.189 3.57846 8.66213C4.92916 6.13528 7.11422 4.15494 9.76133 3.05853C12.4084 1.96212 15.3538 1.81747 18.0956 2.64923C20.8374 3.48099 23.206 5.2377 24.7978 7.62004C26.3896 10.0024 27.1061 12.8629 26.8253 15.7143C26.5444 18.5657 25.2836 21.2315 23.2576 23.2575C22.1102 24.4112 20.7453 25.3258 19.2421 25.9484C17.7389 26.571 16.1271 26.8893 14.5 26.8848ZM14.5 3.07375C8.1998 3.07375 3.07379 8.19977 3.07379 14.5C3.07379 20.8002 8.1998 25.9262 14.5 25.9262C20.8002 25.9262 25.9262 20.8002 25.9262 14.5C25.9262 8.19977 20.8002 3.07375 14.5 3.07375Z" fill="white"/>
<path d="M10.0157 20.4561C9.91836 20.4561 9.82332 20.4265 9.7432 20.3713C9.66308 20.316 9.60168 20.2376 9.56717 20.1466C9.53265 20.0556 9.52665 19.9562 9.54997 19.8617C9.57329 19.7672 9.62481 19.6821 9.6977 19.6175C11.0234 18.4466 12.7312 17.8004 14.5 17.8004C16.2687 17.8004 17.9765 18.4466 19.3022 19.6175C19.3917 19.7032 19.4446 19.8201 19.4498 19.9439C19.4549 20.0677 19.412 20.1886 19.33 20.2814C19.248 20.3743 19.1332 20.4317 19.0098 20.4419C18.8863 20.452 18.7638 20.4139 18.6678 20.3356C17.5175 19.3197 16.0358 18.759 14.5011 18.759C12.9665 18.759 11.4847 19.3197 10.3345 20.3356C10.2466 20.4135 10.1331 20.4564 10.0157 20.4561Z" fill="white"/>
<path d="M13.0531 11.9682C12.9362 11.9682 12.8233 11.9254 12.7358 11.8478C12.3902 11.5426 11.945 11.3742 11.484 11.3742C11.0229 11.3742 10.5777 11.5426 10.2321 11.8478C10.1852 11.8912 10.1302 11.9248 10.0701 11.9467C10.0101 11.9685 9.94625 11.9781 9.88244 11.9749C9.81862 11.9718 9.75609 11.9559 9.6985 11.9282C9.64092 11.9005 9.58945 11.8616 9.54711 11.8137C9.50478 11.7659 9.47244 11.71 9.45199 11.6495C9.43153 11.589 9.42339 11.525 9.42802 11.4612C9.43266 11.3975 9.44998 11.3354 9.47897 11.2784C9.50797 11.2215 9.54805 11.1709 9.59686 11.1297C10.1178 10.6695 10.7889 10.4156 11.484 10.4156C12.179 10.4156 12.8501 10.6695 13.3711 11.1297C13.444 11.1942 13.4955 11.2794 13.5188 11.3739C13.5421 11.4684 13.5361 11.5678 13.5016 11.6588C13.4671 11.7498 13.4057 11.8281 13.3256 11.8834C13.2455 11.9387 13.1504 11.9683 13.0531 11.9682Z" fill="white"/>
<path d="M19.0855 11.9633C18.9685 11.9635 18.8554 11.9206 18.7679 11.8428C18.4223 11.5377 17.9771 11.3693 17.516 11.3693C17.055 11.3693 16.6098 11.5377 16.2642 11.8428C16.1689 11.9271 16.0441 11.97 15.9171 11.9622C15.7902 11.9544 15.6716 11.8965 15.5873 11.8012C15.5031 11.7059 15.4601 11.5811 15.4679 11.4541C15.4758 11.3272 15.5337 11.2086 15.6289 11.1243C16.1498 10.664 16.8209 10.41 17.516 10.41C18.2112 10.41 18.8823 10.664 19.4032 11.1243C19.4761 11.1888 19.5277 11.2739 19.551 11.3683C19.5744 11.4628 19.5684 11.5622 19.534 11.6532C19.4995 11.7442 19.4381 11.8225 19.358 11.8778C19.2779 11.933 19.1829 11.9626 19.0855 11.9625V11.9633Z" fill="white"/>
</g>
<g opacity="0.4">
<path d="M14.5 26.744C11.6673 26.7441 8.92222 25.7619 6.73247 23.9648C4.54273 22.1678 3.04383 19.6671 2.49116 16.8888C1.9385 14.1105 2.36628 11.2265 3.7016 8.72826C5.03692 6.23 7.19716 4.27204 9.81426 3.18798C12.4313 2.10392 15.3434 1.96085 18.0541 2.78312C20.7649 3.6054 23.1067 5.34216 24.6805 7.69748C26.2543 10.0528 26.9627 12.8809 26.6851 15.7C26.4074 18.5191 25.1609 21.1547 23.1579 23.1578C22.0235 24.2983 20.6742 25.2025 19.1881 25.818C17.702 26.4336 16.1086 26.7484 14.5 26.744ZM14.5 2.93297C8.12196 2.93297 2.93304 8.1219 2.93304 14.5C2.93304 20.8781 8.12196 26.067 14.5 26.067C20.8781 26.067 26.0671 20.8781 26.0671 14.5C26.0671 8.1219 20.8781 2.93297 14.5 2.93297Z" fill="white"/>
<path d="M18.9843 20.3149C18.9017 20.315 18.822 20.2847 18.7603 20.2298C17.5842 19.1912 16.0691 18.6181 14.5001 18.6181C12.931 18.6181 11.416 19.1912 10.2398 20.2298C10.2066 20.2595 10.1678 20.2824 10.1257 20.2971C10.0836 20.3118 10.0391 20.318 9.99455 20.3154C9.95004 20.3128 9.90648 20.3014 9.86638 20.282C9.82627 20.2625 9.79041 20.2353 9.76087 20.2019C9.73132 20.1685 9.70866 20.1296 9.6942 20.0874C9.67973 20.0452 9.67375 20.0006 9.67659 19.9561C9.67943 19.9116 9.69104 19.8681 9.71074 19.8281C9.73045 19.7881 9.75786 19.7524 9.79142 19.723C11.0913 18.5749 12.7658 17.9413 14.5001 17.9413C16.2344 17.9413 17.9089 18.5749 19.2087 19.723C19.2603 19.7686 19.2967 19.8287 19.3132 19.8954C19.3297 19.9621 19.3255 20.0323 19.3011 20.0965C19.2767 20.1608 19.2334 20.2161 19.1768 20.2552C19.1202 20.2942 19.0531 20.315 18.9843 20.3149Z" fill="white"/>
<path d="M13.0535 11.8255C12.9709 11.8256 12.8911 11.7954 12.8291 11.7407C12.4576 11.4129 11.9793 11.232 11.4838 11.232C10.9884 11.232 10.51 11.4129 10.1385 11.7407C10.0707 11.7951 9.98443 11.8213 9.89776 11.8138C9.81109 11.8063 9.73064 11.7657 9.67312 11.7004C9.6156 11.6352 9.58544 11.5502 9.58889 11.4633C9.59234 11.3764 9.62914 11.2941 9.69166 11.2336C10.1869 10.7963 10.8248 10.5549 11.4856 10.5549C12.1463 10.5549 12.7842 10.7963 13.2794 11.2336C13.331 11.2791 13.3674 11.3392 13.3839 11.406C13.4004 11.4727 13.3962 11.5429 13.3718 11.6071C13.3474 11.6714 13.3041 11.7267 13.2475 11.7657C13.1909 11.8047 13.1238 11.8256 13.055 11.8255H13.0535Z" fill="white"/>
<path d="M19.0855 11.8224C19.0024 11.8231 18.9219 11.7931 18.8596 11.7381C18.4881 11.4102 18.0098 11.2293 17.5143 11.2293C17.0189 11.2293 16.5405 11.4102 16.169 11.7381C16.1358 11.7678 16.097 11.7907 16.0549 11.8054C16.0128 11.82 15.9683 11.8263 15.9237 11.8237C15.8792 11.8211 15.8357 11.8097 15.7956 11.7902C15.7555 11.7707 15.7196 11.7435 15.6901 11.7101C15.6605 11.6767 15.6379 11.6378 15.6234 11.5957C15.6089 11.5535 15.603 11.5089 15.6058 11.4644C15.6086 11.4199 15.6202 11.3764 15.6399 11.3364C15.6596 11.2964 15.6871 11.2607 15.7206 11.2313C16.2158 10.7938 16.8538 10.5524 17.5145 10.5524C18.1753 10.5524 18.8132 10.7938 19.3084 11.2313C19.3599 11.2768 19.3963 11.3369 19.4128 11.4037C19.4293 11.4704 19.4251 11.5405 19.4008 11.6048C19.3764 11.6691 19.333 11.7244 19.2764 11.7634C19.2199 11.8024 19.1527 11.8233 19.084 11.8232L19.0855 11.8224Z" fill="white"/>
</g>
<g opacity="0.6">
<path d="M14.5 26.5185C7.87298 26.5185 2.47998 21.1271 2.47998 14.5C2.47998 7.87298 7.87145 2.48151 14.4985 2.48151C21.1255 2.48151 26.5166 7.87298 26.5166 14.5C26.5166 21.1271 21.1271 26.5185 14.5 26.5185ZM14.5 2.70745C7.99765 2.70745 2.70745 7.99765 2.70745 14.5C2.70745 21.0024 7.99765 26.2926 14.5 26.2926C21.0024 26.2926 26.2926 21.0024 26.2926 14.5C26.2926 7.99765 21.0024 2.70745 14.5 2.70745Z" fill="white"/>
<path d="M18.9843 20.0894C18.9569 20.0896 18.9303 20.0794 18.9099 20.061C17.6925 18.9858 16.1243 18.3925 14.5001 18.3925C12.8759 18.3925 11.3076 18.9858 10.0902 20.061C10.0678 20.0808 10.0384 20.0909 10.0086 20.089C9.97871 20.0872 9.95082 20.0735 9.93104 20.0511C9.91125 20.0286 9.90118 19.9993 9.90305 19.9694C9.90492 19.9396 9.91858 19.9117 9.94101 19.8919C11.1996 18.7803 12.8209 18.1669 14.5001 18.1669C16.1792 18.1669 17.8005 18.7803 19.0591 19.8919C19.0765 19.9071 19.0888 19.9274 19.0943 19.9498C19.0998 19.9723 19.0983 19.9959 19.0899 20.0175C19.0815 20.0391 19.0667 20.0575 19.0475 20.0704C19.0283 20.0833 19.0055 20.0899 18.9824 20.0894H18.9843Z" fill="white"/>
<path d="M9.91452 11.6C9.89164 11.6 9.8693 11.593 9.85047 11.5801C9.83164 11.5671 9.81721 11.5486 9.80909 11.5272C9.80097 11.5058 9.79956 11.4825 9.80503 11.4603C9.8105 11.4381 9.8226 11.418 9.83972 11.4028C10.2936 11.0018 10.8784 10.7805 11.484 10.7805C12.0897 10.7805 12.6744 11.0018 13.1283 11.4028C13.1503 11.4228 13.1635 11.4506 13.1652 11.4802C13.1668 11.5099 13.1566 11.539 13.137 11.5612C13.1173 11.5834 13.0896 11.597 13.06 11.5989C13.0303 11.6009 13.0011 11.5911 12.9787 11.5716C12.5661 11.2072 12.0345 11.0061 11.484 11.0061C10.9335 11.0061 10.4019 11.2072 9.98933 11.5716C9.96874 11.59 9.9421 11.6001 9.91452 11.6Z" fill="white"/>
<path d="M15.9466 11.597C15.9237 11.5969 15.9014 11.5898 15.8826 11.5768C15.8638 11.5637 15.8494 11.5453 15.8413 11.5239C15.8332 11.5025 15.8318 11.4791 15.8372 11.4569C15.8427 11.4347 15.8547 11.4147 15.8718 11.3994C16.3257 10.9985 16.9104 10.7772 17.5161 10.7772C18.1217 10.7772 18.7064 10.9985 19.1603 11.3994C19.1828 11.4193 19.1964 11.4472 19.1982 11.4771C19.2001 11.507 19.19 11.5364 19.1701 11.5588C19.1503 11.5812 19.1223 11.5949 19.0925 11.5967C19.0626 11.5985 19.0332 11.5884 19.0107 11.5686C18.5981 11.2041 18.0666 11.003 17.5161 11.003C16.9655 11.003 16.434 11.2041 16.0214 11.5686C16.0006 11.5867 15.9741 11.5968 15.9466 11.597Z" fill="white"/>
</g>
</g>
<defs>
<clipPath id="clip0_1155_3348">
<rect width="29" height="29" fill="white"/>
</clipPath>
</defs>
</svg>
