<svg width="421" height="55" viewBox="0 0 421 55" fill="none" xmlns="http://www.w3.org/2000/svg">
<path d="M29.36 0.5H419.97V53.5H25.36C18.8622 53.5 12.6305 50.9188 8.03587 46.3241C3.44123 41.7295 0.859985 35.4978 0.859985 29C0.859985 21.4413 3.86266 14.1922 9.20744 8.84746C14.5522 3.50267 21.8013 0.5 29.36 0.5Z" fill="#111111"/>
<path d="M29.36 0.5H419.97V53.5H25.36C18.8622 53.5 12.6305 50.9188 8.03587 46.3241C3.44123 41.7295 0.859985 35.4978 0.859985 29C0.859985 21.4413 3.86266 14.1922 9.20744 8.84746C14.5522 3.50267 21.8013 0.5 29.36 0.5Z" stroke="#FA2D7F" style="mix-blend-mode:screen"/>
<g style="mix-blend-mode:screen">
<path d="M26.9287 1H419V55H26.9287C19.7867 55 12.9373 52.1554 7.88722 47.0919C2.83712 42.0284 0 35.1608 0 28C0 20.8392 2.83712 13.9716 7.88722 8.90812C12.9373 3.84463 19.7867 1 26.9287 1Z" fill="#111111"/>
</g>
<path d="M29 0H420.11V54H25C18.3696 54 12.0107 51.3661 7.32233 46.6777C2.63392 41.9893 0 35.6304 0 29C0 21.3087 3.05535 13.9325 8.4939 8.4939C13.9325 3.05535 21.3087 0 29 0Z" fill="url(#paint0_linear_1155_3160)"/>
<defs>
<linearGradient id="paint0_linear_1155_3160" x1="210.05" y1="54" x2="210.05" y2="0" gradientUnits="userSpaceOnUse">
<stop stop-color="#C1272E"/>
<stop offset="0.01" stop-color="#AE242D" stop-opacity="0.93"/>
<stop offset="0.05" stop-color="#861E2A" stop-opacity="0.78"/>
<stop offset="0.09" stop-color="#611927" stop-opacity="0.65"/>
<stop offset="0.13" stop-color="#431425" stop-opacity="0.54"/>
<stop offset="0.17" stop-color="#2A1023" stop-opacity="0.45"/>
<stop offset="0.22" stop-color="#170E22" stop-opacity="0.39"/>
<stop offset="0.28" stop-color="#0A0C21" stop-opacity="0.34"/>
<stop offset="0.35" stop-color="#020A20" stop-opacity="0.31"/>
<stop offset="0.49" stop-color="#000A20" stop-opacity="0.3"/>
<stop offset="0.68" stop-color="#020A20" stop-opacity="0.31"/>
<stop offset="0.75" stop-color="#090B21" stop-opacity="0.33"/>
<stop offset="0.8" stop-color="#150D21" stop-opacity="0.37"/>
<stop offset="0.84" stop-color="#260F22" stop-opacity="0.43"/>
<stop offset="0.88" stop-color="#3C1324" stop-opacity="0.51"/>
<stop offset="0.91" stop-color="#581625" stop-opacity="0.61"/>
<stop offset="0.94" stop-color="#791B27" stop-opacity="0.73"/>
<stop offset="0.97" stop-color="#9D202A" stop-opacity="0.86"/>
<stop offset="0.99" stop-color="#C6262C"/>
</linearGradient>
</defs>
</svg>
