<svg width="13" height="13" viewBox="0 0 13 13" fill="none" xmlns="http://www.w3.org/2000/svg">
<path d="M3.25 5.41668V4.33334C3.25 2.54043 3.79167 1.08334 6.5 1.08334C9.20833 1.08334 9.75 2.54043 9.75 4.33334V5.41668" stroke="#38C558" stroke-width="0.9" stroke-linecap="round" stroke-linejoin="round"/>
<path d="M6.49967 10.0208C7.24756 10.0208 7.85384 9.41455 7.85384 8.66667C7.85384 7.91878 7.24756 7.3125 6.49967 7.3125C5.75179 7.3125 5.14551 7.91878 5.14551 8.66667C5.14551 9.41455 5.75179 10.0208 6.49967 10.0208Z" stroke="#38C558" stroke-width="0.9" stroke-linecap="round" stroke-linejoin="round"/>
<path d="M9.20801 11.9167H3.79134C1.62467 11.9167 1.08301 11.375 1.08301 9.20832V8.12499C1.08301 5.95832 1.62467 5.41666 3.79134 5.41666H9.20801C11.3747 5.41666 11.9163 5.95832 11.9163 8.12499V9.20832C11.9163 11.375 11.3747 11.9167 9.20801 11.9167Z" stroke="#38C558" stroke-width="0.9" stroke-linecap="round" stroke-linejoin="round"/>
</svg>
