<svg width="20" height="20" viewBox="0 0 20 20" fill="none" xmlns="http://www.w3.org/2000/svg">
<path d="M6.375 17.4245C6.35 17.4245 6.31667 17.4412 6.29167 17.4412C4.675 16.6412 3.35834 15.3162 2.55 13.6995C2.55 13.6745 2.56667 13.6412 2.56667 13.6162C3.58334 13.9162 4.63334 14.1412 5.675 14.3162C5.85834 15.3662 6.075 16.4079 6.375 17.4245Z" fill="#081131"/>
<path d="M17.45 13.7079C16.625 15.3662 15.25 16.7079 13.575 17.5162C13.8917 16.4579 14.1583 15.3912 14.3333 14.3162C15.3833 14.1412 16.4167 13.9162 17.4333 13.6162C17.425 13.6495 17.45 13.6829 17.45 13.7079Z" fill="#081131"/>
<path d="M17.5167 6.42507C16.4667 6.1084 15.4083 5.85007 14.3333 5.66673C14.1583 4.59173 13.9 3.52507 13.575 2.4834C15.3 3.3084 16.6917 4.70007 17.5167 6.42507Z" fill="#081131"/>
<path d="M6.375 2.5748C6.075 3.59147 5.85834 4.6248 5.68334 5.6748C4.60834 5.84147 3.54167 6.10814 2.48334 6.4248C3.29167 4.7498 4.63334 3.3748 6.29167 2.5498C6.31667 2.5498 6.35 2.5748 6.375 2.5748Z" fill="#081131"/>
<path d="M12.9083 5.49199C10.975 5.27533 9.02499 5.27533 7.09166 5.49199C7.29999 4.35033 7.56666 3.20866 7.94166 2.10866C7.95833 2.04199 7.94999 1.99199 7.95833 1.92533C8.61666 1.76699 9.29166 1.66699 9.99999 1.66699C10.7 1.66699 11.3833 1.76699 12.0333 1.92533C12.0417 1.99199 12.0417 2.04199 12.0583 2.10866C12.4333 3.21699 12.7 4.35033 12.9083 5.49199Z" fill="#081131"/>
<path d="M5.49167 12.9085C4.34167 12.7001 3.20834 12.4335 2.10834 12.0585C2.04167 12.0418 1.99167 12.0501 1.92501 12.0418C1.76667 11.3835 1.66667 10.7085 1.66667 10.0001C1.66667 9.30013 1.76667 8.6168 1.92501 7.9668C1.99167 7.95846 2.04167 7.95846 2.10834 7.9418C3.21667 7.57513 4.34167 7.30013 5.49167 7.0918C5.28334 9.02513 5.28334 10.9751 5.49167 12.9085Z" fill="#081131"/>
<path d="M18.3333 10.0001C18.3333 10.7085 18.2333 11.3835 18.075 12.0418C18.0083 12.0501 17.9583 12.0418 17.8917 12.0585C16.7833 12.4251 15.65 12.7001 14.5083 12.9085C14.725 10.9751 14.725 9.02513 14.5083 7.0918C15.65 7.30013 16.7917 7.5668 17.8917 7.9418C17.9583 7.95846 18.0083 7.9668 18.075 7.9668C18.2333 8.62513 18.3333 9.30013 18.3333 10.0001Z" fill="#081131"/>
<path d="M12.9083 14.5088C12.7 15.6588 12.4333 16.7921 12.0583 17.8921C12.0417 17.9588 12.0417 18.0088 12.0333 18.0755C11.3833 18.2338 10.7 18.3338 9.99999 18.3338C9.29166 18.3338 8.61666 18.2338 7.95833 18.0755C7.94999 18.0088 7.95833 17.9588 7.94166 17.8921C7.57499 16.7838 7.29999 15.6588 7.09166 14.5088C8.05833 14.6171 9.02499 14.6921 9.99999 14.6921C10.975 14.6921 11.95 14.6171 12.9083 14.5088Z" fill="#081131"/>
<path d="M13.1361 13.1364C11.0519 13.3994 8.94814 13.3994 6.8639 13.1364C6.60093 11.0522 6.60093 8.94846 6.8639 6.86422C8.94814 6.60125 11.0519 6.60125 13.1361 6.86422C13.3991 8.94846 13.3991 11.0522 13.1361 13.1364Z" fill="#081131"/>
</svg>
