<svg width="59" height="67" viewBox="0 0 59 67" fill="none" xmlns="http://www.w3.org/2000/svg">
<g opacity="0.6">
<mask id="path-1-outside-1_436_8335" maskUnits="userSpaceOnUse" x="-1" y="-2" width="61" height="70" fill="black">
<rect fill="white" x="-1" y="-2" width="61" height="70"/>
<path d="M34.136 50.392H18.776L15.896 67H6.872L9.752 50.392H0.0560001V41.752H11.288L14.072 25.24H4.376V16.6H15.608L18.488 -0.00800133H27.416L24.536 16.6H39.896L42.776 -0.00800133H51.8L48.92 16.6H58.616V25.24H47.384L44.6 41.752H54.296V50.392H43.064L40.184 67H31.256L34.136 50.392ZM35.576 41.752L38.456 25.24H23.096L20.216 41.752H35.576Z"/>
</mask>
<path d="M34.136 50.392H18.776L15.896 67H6.872L9.752 50.392H0.0560001V41.752H11.288L14.072 25.24H4.376V16.6H15.608L18.488 -0.00800133H27.416L24.536 16.6H39.896L42.776 -0.00800133H51.8L48.92 16.6H58.616V25.24H47.384L44.6 41.752H54.296V50.392H43.064L40.184 67H31.256L34.136 50.392ZM35.576 41.752L38.456 25.24H23.096L20.216 41.752H35.576Z" fill="url(#paint0_linear_436_8335)"/>
<path d="M34.136 50.392L35.1213 50.5629L35.3243 49.392H34.136V50.392ZM18.776 50.392V49.392H17.9345L17.7907 50.2211L18.776 50.392ZM15.896 67V68H16.7375L16.8813 67.1709L15.896 67ZM6.872 67L5.8867 66.8291L5.68367 68H6.872V67ZM9.752 50.392L10.7373 50.5629L10.9403 49.392H9.752V50.392ZM0.0560001 50.392H-0.944V51.392H0.0560001V50.392ZM0.0560001 41.752V40.752H-0.944V41.752H0.0560001ZM11.288 41.752V42.752H12.1335L12.2741 41.9183L11.288 41.752ZM14.072 25.24L15.0581 25.4063L15.2547 24.24H14.072V25.24ZM4.376 25.24H3.376V26.24H4.376V25.24ZM4.376 16.6V15.6H3.376V16.6H4.376ZM15.608 16.6V17.6H16.4495L16.5933 16.7709L15.608 16.6ZM18.488 -0.00800133V-1.008H17.6465L17.5027 -0.178862L18.488 -0.00800133ZM27.416 -0.00800133L28.4013 0.162859L28.6043 -1.008H27.416V-0.00800133ZM24.536 16.6L23.5507 16.4291L23.3477 17.6H24.536V16.6ZM39.896 16.6V17.6H40.7375L40.8813 16.7709L39.896 16.6ZM42.776 -0.00800133V-1.008H41.9345L41.7907 -0.178862L42.776 -0.00800133ZM51.8 -0.00800133L52.7853 0.162859L52.9883 -1.008H51.8V-0.00800133ZM48.92 16.6L47.9347 16.4291L47.7317 17.6H48.92V16.6ZM58.616 16.6H59.616V15.6H58.616V16.6ZM58.616 25.24V26.24H59.616V25.24H58.616ZM47.384 25.24V24.24H46.5385L46.3979 25.0737L47.384 25.24ZM44.6 41.752L43.6139 41.5857L43.4173 42.752H44.6V41.752ZM54.296 41.752H55.296V40.752H54.296V41.752ZM54.296 50.392V51.392H55.296V50.392H54.296ZM43.064 50.392V49.392H42.2225L42.0787 50.2211L43.064 50.392ZM40.184 67V68H41.0255L41.1693 67.1709L40.184 67ZM31.256 67L30.2707 66.8291L30.0677 68H31.256V67ZM35.576 41.752V42.752H36.4167L36.5611 41.9238L35.576 41.752ZM38.456 25.24L39.4411 25.4118L39.6455 24.24H38.456V25.24ZM23.096 25.24V24.24H22.2553L22.1109 25.0682L23.096 25.24ZM20.216 41.752L19.2309 41.5802L19.0265 42.752H20.216V41.752ZM34.136 49.392H18.776V51.392H34.136V49.392ZM17.7907 50.2211L14.9107 66.8291L16.8813 67.1709L19.7613 50.5629L17.7907 50.2211ZM15.896 66H6.872V68H15.896V66ZM7.8573 67.1709L10.7373 50.5629L8.76671 50.2211L5.8867 66.8291L7.8573 67.1709ZM9.752 49.392H0.0560001V51.392H9.752V49.392ZM1.056 50.392V41.752H-0.944V50.392H1.056ZM0.0560001 42.752H11.288V40.752H0.0560001V42.752ZM12.2741 41.9183L15.0581 25.4063L13.0859 25.0737L10.3019 41.5857L12.2741 41.9183ZM14.072 24.24H4.376V26.24H14.072V24.24ZM5.376 25.24V16.6H3.376V25.24H5.376ZM4.376 17.6H15.608V15.6H4.376V17.6ZM16.5933 16.7709L19.4733 0.162859L17.5027 -0.178862L14.6227 16.4291L16.5933 16.7709ZM18.488 0.991999H27.416V-1.008H18.488V0.991999ZM26.4307 -0.178862L23.5507 16.4291L25.5213 16.7709L28.4013 0.162859L26.4307 -0.178862ZM24.536 17.6H39.896V15.6H24.536V17.6ZM40.8813 16.7709L43.7613 0.162859L41.7907 -0.178862L38.9107 16.4291L40.8813 16.7709ZM42.776 0.991999H51.8V-1.008H42.776V0.991999ZM50.8147 -0.178862L47.9347 16.4291L49.9053 16.7709L52.7853 0.162859L50.8147 -0.178862ZM48.92 17.6H58.616V15.6H48.92V17.6ZM57.616 16.6V25.24H59.616V16.6H57.616ZM58.616 24.24H47.384V26.24H58.616V24.24ZM46.3979 25.0737L43.6139 41.5857L45.5861 41.9183L48.3701 25.4063L46.3979 25.0737ZM44.6 42.752H54.296V40.752H44.6V42.752ZM53.296 41.752V50.392H55.296V41.752H53.296ZM54.296 49.392H43.064V51.392H54.296V49.392ZM42.0787 50.2211L39.1987 66.8291L41.1693 67.1709L44.0493 50.5629L42.0787 50.2211ZM40.184 66H31.256V68H40.184V66ZM32.2413 67.1709L35.1213 50.5629L33.1507 50.2211L30.2707 66.8291L32.2413 67.1709ZM36.5611 41.9238L39.4411 25.4118L37.4709 25.0682L34.5909 41.5802L36.5611 41.9238ZM38.456 24.24H23.096V26.24H38.456V24.24ZM22.1109 25.0682L19.2309 41.5802L21.2011 41.9238L24.0811 25.4118L22.1109 25.0682ZM20.216 42.752H35.576V40.752H20.216V42.752Z" fill="url(#paint1_linear_436_8335)" mask="url(#path-1-outside-1_436_8335)"/>
</g>
<defs>
<linearGradient id="paint0_linear_436_8335" x1="33.5" y1="1.5" x2="33.5" y2="67" gradientUnits="userSpaceOnUse">
<stop stop-color="#FFA500" stop-opacity="0.47"/>
<stop offset="0.62" stop-color="#996300" stop-opacity="0"/>
</linearGradient>
<linearGradient id="paint1_linear_436_8335" x1="30" y1="-3.5" x2="27" y2="67" gradientUnits="userSpaceOnUse">
<stop stop-color="#CA8609" stop-opacity="0.4"/>
<stop offset="1" stop-color="white"/>
</linearGradient>
</defs>
</svg>
