<svg width="18" height="18" viewBox="0 0 18 18" fill="none" xmlns="http://www.w3.org/2000/svg">
<path d="M18 7.76773C18 9.56609 17.28 11.2284 16.0691 12.5432C14.4491 14.3567 11.88 15.5203 9 15.5203L4.72909 17.8627C4.00909 18.2708 3.09273 17.7116 3.19091 16.9409L3.6 13.9638C1.40727 12.5583 0 10.3066 0 7.76773C0 5.10796 1.53818 2.76555 3.89455 1.37522C5.35091 0.498706 7.10182 0 9 0C13.9745 0 18 3.47583 18 7.76773Z" fill="#292D32"/>
<path d="M9.692 9.708H7.796L7.4 12H6.476L6.872 9.708H5.48V8.832H7.028L7.376 6.792H5.984V5.916H7.532L7.928 3.624H8.84L8.444 5.916H10.34L10.736 3.624H11.66L11.264 5.916H12.656V6.792H11.108L10.76 8.832H12.152V9.708H10.604L10.208 12H9.296L9.692 9.708ZM9.836 8.832L10.196 6.792H8.3L7.94 8.832H9.836Z" fill="white"/>
</svg>
