<svg width="20" height="20" viewBox="0 0 20 20" fill="none" xmlns="http://www.w3.org/2000/svg">
<path d="M7.63105 17.3098V14.7542C7.63104 14.1042 8.16097 13.576 8.81755 13.5717H11.2226C11.8823 13.5717 12.4171 14.1011 12.4171 14.7542V17.3178C12.417 17.8697 12.8619 18.3207 13.4192 18.3337H15.0226C16.621 18.3337 17.9167 17.0509 17.9167 15.4685V8.19852C17.9082 7.57601 17.6129 6.99145 17.115 6.61119L11.6315 2.23808C10.6708 1.47663 9.30521 1.47663 8.34456 2.23808L2.88506 6.61912C2.38526 6.99784 2.08953 7.58338 2.08337 8.20646V15.4685C2.08337 17.0509 3.3791 18.3337 4.97747 18.3337H6.58084C7.152 18.3337 7.61502 17.8753 7.61502 17.3098" stroke="#718096" stroke-width="1.5" stroke-linecap="round" stroke-linejoin="round"/>
</svg>
