<svg width="24" height="24" viewBox="0 0 24 24" fill="none" xmlns="http://www.w3.org/2000/svg">
<path fill-rule="evenodd" clip-rule="evenodd" d="M14.774 4.38807L14 8H19C20.6569 8 22 9.34315 22 11V14.0557C22 14.6767 21.8554 15.2892 21.5777 15.8446L19.8292 19.3416C19.321 20.358 18.2822 21 17.1459 21H3C1.89543 21 1 20.1046 1 19V11C1 9.89543 1.89543 9 3 9H6L10.4514 1.87769C10.7927 1.33169 11.3911 1 12.035 1C13.8184 1 15.1476 2.64432 14.774 4.38807ZM6 11H3V19H6V11ZM18.0403 18.4472C17.8709 18.786 17.5247 19 17.1459 19H8V9.57359L12.1065 3.00312C12.58 3.04459 12.9202 3.4939 12.8184 3.96901L12.0444 7.58094C11.9178 8.17152 12.065 8.78766 12.4447 9.25736C12.8244 9.72705 13.396 10 14 10H19C19.5523 10 20 10.4477 20 11V14.0557C20 14.3662 19.9277 14.6724 19.7889 14.9502L18.0403 18.4472Z" fill="#718096"/>
</svg>
