<svg width="24" height="24" viewBox="0 0 24 24" fill="none" xmlns="http://www.w3.org/2000/svg">
<path d="M8.39014 18.49V8.33001C8.39014 7.93001 8.51014 7.54001 8.73014 7.21001L11.4601 3.15001C11.8901 2.50001 12.9601 2.04001 13.8701 2.38001C14.8501 2.71001 15.5001 3.81001 15.2901 4.79001L14.7701 8.06001C14.7301 8.36001 14.8101 8.63001 14.9801 8.84001C15.1501 9.03001 15.4001 9.15001 15.6701 9.15001H19.7801C20.5701 9.15001 21.2501 9.47001 21.6501 10.03C22.0301 10.57 22.1001 11.27 21.8501 11.98L19.3901 19.47C19.0801 20.71 17.7301 21.72 16.3901 21.72H12.4901C11.8201 21.72 10.8801 21.49 10.4501 21.06L9.17014 20.07C8.68014 19.7 8.39014 19.11 8.39014 18.49Z" fill="#081131"/>
<path d="M5.21 6.38H4.18C2.63 6.38 2 6.98 2 8.46V18.52C2 20 2.63 20.6 4.18 20.6H5.21C6.76 20.6 7.39 20 7.39 18.52V8.46C7.39 6.98 6.76 6.38 5.21 6.38Z" fill="#081131"/>
</svg>
