<svg width="20" height="20" viewBox="0 0 20 20" fill="none" xmlns="http://www.w3.org/2000/svg">
<path fill-rule="evenodd" clip-rule="evenodd" d="M13.1181 3.38807L12.381 7H17.1429C18.7209 7 20 8.34315 20 10V13.0557C20 13.6767 19.8623 14.2892 19.5978 14.8446L17.9326 18.3416C17.4486 19.358 16.4592 20 15.377 20H1.90476C0.85279 20 0 19.1046 0 18V10C0 8.89543 0.85279 8 1.90476 8H4.7619L9.00133 0.87769C9.32638 0.33169 9.89629 0 10.5095 0C12.208 0 13.4739 1.64432 13.1181 3.38807ZM4.7619 10H1.90476V18H4.7619V10ZM16.2289 17.4472C16.0675 17.786 15.7378 18 15.377 18H6.66667V8.57359L10.5776 2.00312C11.0286 2.04459 11.3526 2.4939 11.2556 2.96901L10.5185 6.58094C10.3979 7.17152 10.5381 7.78766 10.8997 8.25736C11.2613 8.72705 11.8057 9 12.381 9H17.1429C17.6689 9 18.0952 9.4477 18.0952 10V13.0557C18.0952 13.3662 18.0264 13.6724 17.8942 13.9502L16.2289 17.4472Z" fill="#081131"/>
</svg>
