<svg width="54" height="56" viewBox="0 0 54 56" fill="none" xmlns="http://www.w3.org/2000/svg">
<g filter="url(#filter0_d_513_931)">
<path d="M22.5 11.5981C25.2846 9.99038 28.7154 9.99038 31.5 11.5981L38.9545 15.9019C41.7391 17.5096 43.4545 20.4808 43.4545 23.6962V32.3038C43.4545 35.5192 41.7391 38.4904 38.9545 40.0981L31.5 44.4019C28.7154 46.0096 25.2846 46.0096 22.5 44.4019L15.0455 40.0981C12.2609 38.4904 10.5455 35.5192 10.5455 32.3038V23.6962C10.5455 20.4808 12.2609 17.5096 15.0455 15.9019L22.5 11.5981Z" fill="#38C558" fill-opacity="0.21" shape-rendering="crispEdges"/>
<path d="M22.625 11.8146C25.3323 10.2515 28.6677 10.2515 31.375 11.8146L38.8295 16.1184C41.5367 17.6815 43.2045 20.5701 43.2045 23.6962V32.3038C43.2045 35.4299 41.5367 38.3185 38.8295 39.8816L31.375 44.1854C28.6677 45.7485 25.3323 45.7485 22.625 44.1854L15.1705 39.8816C12.4633 38.3185 10.7955 35.4299 10.7955 32.3038V23.6962C10.7955 20.5701 12.4633 17.6815 15.1705 16.1184L22.625 11.8146Z" stroke="url(#paint0_linear_513_931)" stroke-width="0.5" shape-rendering="crispEdges"/>
</g>
<g opacity="0.4">
<path d="M27 38C31.7883 38 35.67 34.1183 35.67 29.33C35.67 24.5417 31.7883 20.66 27 20.66C22.2117 20.66 18.33 24.5417 18.33 29.33C18.33 34.1183 22.2117 38 27 38Z" fill="#38C558"/>
<path d="M27 38C31.7883 38 35.67 34.1183 35.67 29.33C35.67 24.5417 31.7883 20.66 27 20.66C22.2117 20.66 18.33 24.5417 18.33 29.33C18.33 34.1183 22.2117 38 27 38Z" fill="url(#paint1_radial_513_931)" fill-opacity="0.7"/>
</g>
<path d="M27 29.75C26.59 29.75 26.25 29.41 26.25 29V24C26.25 23.59 26.59 23.25 27 23.25C27.41 23.25 27.75 23.59 27.75 24V29C27.75 29.41 27.41 29.75 27 29.75Z" fill="#38C558"/>
<path d="M27 29.75C26.59 29.75 26.25 29.41 26.25 29V24C26.25 23.59 26.59 23.25 27 23.25C27.41 23.25 27.75 23.59 27.75 24V29C27.75 29.41 27.41 29.75 27 29.75Z" fill="url(#paint2_radial_513_931)" fill-opacity="0.7"/>
<path d="M29.89 19.45H24.11C23.71 19.45 23.39 19.13 23.39 18.73C23.39 18.33 23.71 18 24.11 18H29.89C30.29 18 30.61 18.32 30.61 18.72C30.61 19.12 30.29 19.45 29.89 19.45Z" fill="#38C558"/>
<path d="M29.89 19.45H24.11C23.71 19.45 23.39 19.13 23.39 18.73C23.39 18.33 23.71 18 24.11 18H29.89C30.29 18 30.61 18.32 30.61 18.72C30.61 19.12 30.29 19.45 29.89 19.45Z" fill="url(#paint3_radial_513_931)" fill-opacity="0.7"/>
<defs>
<filter id="filter0_d_513_931" x="0.545517" y="0.392304" width="52.909" height="55.2154" filterUnits="userSpaceOnUse" color-interpolation-filters="sRGB">
<feFlood flood-opacity="0" result="BackgroundImageFix"/>
<feColorMatrix in="SourceAlpha" type="matrix" values="0 0 0 0 0 0 0 0 0 0 0 0 0 0 0 0 0 0 127 0" result="hardAlpha"/>
<feOffset/>
<feGaussianBlur stdDeviation="5"/>
<feComposite in2="hardAlpha" operator="out"/>
<feColorMatrix type="matrix" values="0 0 0 0 0.219608 0 0 0 0 0.772549 0 0 0 0 0.345098 0 0 0 0.5 0"/>
<feBlend mode="normal" in2="BackgroundImageFix" result="effect1_dropShadow_513_931"/>
<feBlend mode="normal" in="SourceGraphic" in2="effect1_dropShadow_513_931" result="shape"/>
</filter>
<linearGradient id="paint0_linear_513_931" x1="27" y1="9" x2="27" y2="47" gradientUnits="userSpaceOnUse">
<stop stop-color="#38C558"/>
<stop offset="1" stop-color="#2E2600"/>
</linearGradient>
<radialGradient id="paint1_radial_513_931" cx="0" cy="0" r="1" gradientUnits="userSpaceOnUse" gradientTransform="translate(23.8731 24.0711) rotate(55.9679) scale(13.206)">
<stop stop-color="white"/>
<stop offset="0.697917" stop-color="white" stop-opacity="0"/>
<stop offset="1" stop-color="white" stop-opacity="0"/>
</radialGradient>
<radialGradient id="paint2_radial_513_931" cx="0" cy="0" r="1" gradientUnits="userSpaceOnUse" gradientTransform="translate(26.7295 24.5287) rotate(81.142) scale(4.15198 1.36205)">
<stop stop-color="white"/>
<stop offset="0.697917" stop-color="white" stop-opacity="0"/>
<stop offset="1" stop-color="white" stop-opacity="0"/>
</radialGradient>
<radialGradient id="paint3_radial_513_931" cx="0" cy="0" r="1" gradientUnits="userSpaceOnUse" gradientTransform="translate(25.698 18.2852) rotate(16.5617) scale(3.21057 1.89132)">
<stop stop-color="white"/>
<stop offset="0.697917" stop-color="white" stop-opacity="0"/>
<stop offset="1" stop-color="white" stop-opacity="0"/>
</radialGradient>
</defs>
</svg>
