<svg width="24" height="24" viewBox="0 0 24 24" fill="none" xmlns="http://www.w3.org/2000/svg">
<path fill-rule="evenodd" clip-rule="evenodd" d="M2 9C2 10.6565 2.49724 12.2084 3.36471 13.5416L2.40432 17.3831C2.22123 18.1155 2.88462 18.7789 3.617 18.5958L8.40143 17.3997C9.51807 17.7874 10.7314 18 12 18C17.5228 18 22 13.9706 22 9C22 4.02944 17.5228 0 12 0C6.47715 0 2 4.02944 2 9ZM5.30499 14.0266C5.43978 13.4875 5.34416 12.9166 5.04106 12.4508C4.37232 11.4231 4 10.2469 4 9C4 5.32701 7.3783 2 12 2C16.6217 2 20 5.32701 20 9C20 12.673 16.6217 16 12 16C10.9555 16 9.96379 15.825 9.0575 15.5103C8.69016 15.3828 8.29361 15.3651 7.91636 15.4594L4.74884 16.2513L5.30499 14.0266Z" fill="#718096"/>
</svg>
