<svg width="24" height="24" viewBox="0 0 24 24" fill="none" xmlns="http://www.w3.org/2000/svg">
<path d="M5 9C3.9 9 3 9.9 3 11C3 12.1 3.9 13 5 13C6.1 13 7 12.1 7 11C7 9.9 6.1 9 5 9Z" stroke="#718096" stroke-width="1.5"/>
<path d="M19 9C17.9 9 17 9.9 17 11C17 12.1 17.9 13 19 13C20.1 13 21 12.1 21 11C21 9.9 20.1 9 19 9Z" stroke="#718096" stroke-width="1.5"/>
<path d="M12 9C10.9 9 10 9.9 10 11C10 12.1 10.9 13 12 13C13.1 13 14 12.1 14 11C14 9.9 13.1 9 12 9Z" stroke="#718096" stroke-width="1.5"/>
</svg>
