<svg width="20" height="20" viewBox="0 0 20 20" fill="none" xmlns="http://www.w3.org/2000/svg">
<path d="M16.25 3.05866C16.25 3.05033 16.25 3.04199 16.2333 3.03366C16.05 2.80033 15.8083 2.67533 15.525 2.67533C15.0833 2.67533 14.55 2.96699 13.975 3.58366C13.2917 4.31699 12.2417 4.25866 11.6417 3.45866L10.8 2.34199C10.4667 1.89199 10.025 1.66699 9.58333 1.66699C9.14167 1.66699 8.7 1.89199 8.36667 2.34199L7.51667 3.46699C6.925 4.25866 5.88333 4.31699 5.2 3.59199L5.19167 3.58366C4.25 2.57533 3.40833 2.42533 2.93333 3.03366C2.91667 3.04199 2.91667 3.05033 2.91667 3.05866C2.61667 3.70033 2.5 4.60033 2.5 5.86699V14.1337C2.5 15.4003 2.61667 16.3003 2.91667 16.942C2.91667 16.9503 2.925 16.967 2.93333 16.9753C3.41667 17.5753 4.25 17.4253 5.19167 16.417L5.2 16.4087C5.88333 15.6837 6.925 15.742 7.51667 16.5337L8.36667 17.6587C8.7 18.1087 9.14167 18.3337 9.58333 18.3337C10.025 18.3337 10.4667 18.1087 10.8 17.6587L11.6417 16.542C12.2417 15.742 13.2917 15.6837 13.975 16.417C14.55 17.0337 15.0833 17.3253 15.525 17.3253C15.8083 17.3253 16.05 17.2087 16.2333 16.9753C16.2417 16.967 16.25 16.9503 16.25 16.942C16.55 16.3003 16.6667 15.4003 16.6667 14.1337V5.86699C16.6667 4.60033 16.55 3.70033 16.25 3.05866ZM11.6667 12.0837H6.66667C6.325 12.0837 6.04167 11.8003 6.04167 11.4587C6.04167 11.117 6.325 10.8337 6.66667 10.8337H11.6667C12.0083 10.8337 12.2917 11.117 12.2917 11.4587C12.2917 11.8003 12.0083 12.0837 11.6667 12.0837ZM13.3333 9.16699H6.66667C6.325 9.16699 6.04167 8.88366 6.04167 8.54199C6.04167 8.20033 6.325 7.91699 6.66667 7.91699H13.3333C13.675 7.91699 13.9583 8.20033 13.9583 8.54199C13.9583 8.88366 13.675 9.16699 13.3333 9.16699Z" fill="#718096"/>
</svg>
