<svg width="24" height="24" viewBox="0 0 24 24" fill="none" xmlns="http://www.w3.org/2000/svg">
<path d="M-4.37114e-08 21C-6.78525e-08 20.4477 0.447715 20 1 20L19 20C19.5523 20 20 20.4477 20 21C20 21.5523 19.5523 22 19 22L1.00001 22C0.447721 22 -1.95703e-08 21.5523 -4.37114e-08 21Z" fill="#718096"/>
<path fill-rule="evenodd" clip-rule="evenodd" d="M3.99998 2C2.89541 2 1.99998 2.89543 1.99998 4L1.99998 16C1.99998 17.1046 2.89541 18 3.99998 18L6.99998 18C8.10455 18 8.99998 17.1046 8.99998 16L8.99998 4C8.99998 2.89543 8.10455 2 6.99998 2L3.99998 2ZM3.99998 4L6.99998 4L6.99998 16L3.99998 16L3.99998 4Z" fill="#718096"/>
<path fill-rule="evenodd" clip-rule="evenodd" d="M13 6C11.8954 6 11 6.89543 11 8L11 16C11 17.1046 11.8954 18 13 18L16 18C17.1045 18 18 17.1046 18 16L18 8C18 6.89543 17.1045 6 16 6L13 6ZM13 8L16 8L16 16L13 16L13 8Z" fill="#718096"/>
</svg>
