<svg width="23" height="23" viewBox="0 0 23 23" fill="none" xmlns="http://www.w3.org/2000/svg">
<path d="M11.4997 21.0834C16.7801 21.0834 21.083 16.7805 21.083 11.5C21.083 6.21962 16.7801 1.91671 11.4997 1.91671C6.21926 1.91671 1.91634 6.21962 1.91634 11.5C1.91634 16.7805 6.21926 21.0834 11.4997 21.0834ZM12.2184 15.3334C12.2184 15.7263 11.8926 16.0521 11.4997 16.0521C11.1068 16.0521 10.7809 15.7263 10.7809 15.3334L10.7809 10.5417C10.7809 10.1488 11.1068 9.82296 11.4997 9.82296C11.8926 9.82296 12.2184 10.1488 12.2184 10.5417L12.2184 15.3334ZM10.618 7.30254C10.6659 7.17796 10.733 7.08212 10.8193 6.98629C10.9151 6.90004 11.0205 6.83296 11.1355 6.78504C11.2505 6.73712 11.3751 6.70837 11.4997 6.70837C11.6243 6.70837 11.7488 6.73712 11.8638 6.78504C11.9788 6.83296 12.0843 6.90004 12.1801 6.98629C12.2663 7.08212 12.3334 7.17796 12.3813 7.30254C12.4293 7.41754 12.458 7.54212 12.458 7.66671C12.458 7.79129 12.4293 7.91587 12.3813 8.03087C12.3334 8.14587 12.2663 8.25129 12.1801 8.34712C12.0843 8.43337 11.9788 8.50046 11.8638 8.54837C11.6338 8.64421 11.3655 8.64421 11.1355 8.54837C11.0205 8.50046 10.9151 8.43337 10.8193 8.34712C10.733 8.25129 10.6659 8.14587 10.618 8.03087C10.5701 7.91587 10.5413 7.79129 10.5413 7.66671C10.5413 7.54212 10.5701 7.41754 10.618 7.30254Z" fill="#081131"/>
</svg>
