<svg width="20" height="20" viewBox="0 0 20 20" fill="none" xmlns="http://www.w3.org/2000/svg">
<path d="M17.5 18.333H2.5C2.15833 18.333 1.875 18.0497 1.875 17.708C1.875 17.3663 2.15833 17.083 2.5 17.083H17.5C17.8417 17.083 18.125 17.3663 18.125 17.708C18.125 18.0497 17.8417 18.333 17.5 18.333Z" fill="#718096"/>
<path d="M15.85 2.90005C14.2333 1.28338 12.65 1.24172 10.9916 2.90005L9.98331 3.90838C9.89998 3.99172 9.86665 4.12505 9.89998 4.24172C10.5333 6.45005 12.3 8.21672 14.5083 8.85005C14.5416 8.85838 14.575 8.86672 14.6083 8.86672C14.7 8.86672 14.7833 8.83338 14.85 8.76672L15.85 7.75838C16.675 6.94172 17.075 6.15005 17.075 5.35005C17.0833 4.52505 16.6833 3.72505 15.85 2.90005Z" fill="#718096"/>
<path d="M13.0083 9.60866C12.7666 9.49199 12.5333 9.37533 12.3083 9.24199C12.125 9.13366 11.95 9.01699 11.775 8.89199C11.6333 8.80033 11.4666 8.66699 11.3083 8.53366C11.2916 8.52533 11.2333 8.47533 11.1666 8.40866C10.8916 8.17533 10.5833 7.87533 10.3083 7.54199C10.2833 7.52533 10.2416 7.46699 10.1833 7.39199C10.1 7.29199 9.95831 7.12533 9.83331 6.93366C9.73331 6.80866 9.61665 6.62533 9.50831 6.44199C9.37498 6.21699 9.25831 5.99199 9.14165 5.75866V5.75866C8.98868 5.43088 8.55847 5.3335 8.3027 5.58928L3.61665 10.2753C3.50831 10.3837 3.40831 10.592 3.38331 10.7337L2.93331 13.9253C2.84998 14.492 3.00831 15.0253 3.35831 15.3837C3.65831 15.6753 4.07498 15.8337 4.52498 15.8337C4.62498 15.8337 4.72498 15.8253 4.82498 15.8087L8.02498 15.3587C8.17498 15.3337 8.38331 15.2337 8.48331 15.1253L13.1771 10.4315C13.4278 10.1809 13.3336 9.7496 13.0083 9.60866V9.60866Z" fill="#718096"/>
</svg>
