<svg width="20" height="20" viewBox="0 0 20 20" fill="none" xmlns="http://www.w3.org/2000/svg">
<path d="M10.1334 9.05866C10.05 9.05033 9.95005 9.05033 9.85838 9.05866C7.87505 8.99199 6.30005 7.36699 6.30005 5.36699C6.30005 3.32533 7.95005 1.66699 10 1.66699C12.0417 1.66699 13.7001 3.32533 13.7001 5.36699C13.6917 7.36699 12.1167 8.99199 10.1334 9.05866Z" stroke="#718096" stroke-width="1.5" stroke-linecap="round" stroke-linejoin="round"/>
<path d="M5.96672 12.133C3.95006 13.483 3.95006 15.683 5.96672 17.0247C8.25839 18.558 12.0167 18.558 14.3084 17.0247C16.3251 15.6747 16.3251 13.4747 14.3084 12.133C12.0251 10.608 8.26672 10.608 5.96672 12.133Z" stroke="#718096" stroke-width="1.5" stroke-linecap="round" stroke-linejoin="round"/>
</svg>
