<svg width="76" height="96" viewBox="0 0 76 96" fill="none" xmlns="http://www.w3.org/2000/svg">
<circle cx="38" cy="38" r="36.0406" stroke="url(#paint0_radial_1231_2118)" stroke-width="2.08112"/>
<circle cx="38.173" cy="75.173" r="18.173" fill="url(#paint1_radial_1231_2118)" stroke="#272727" stroke-width="3.69599"/>
<path d="M34.2653 70.4586C35.2467 70.0746 36.34 69.8826 37.5453 69.8826C38.7613 69.8826 39.6467 70.1173 40.2013 70.5866C40.756 71.0453 41.0333 71.7866 41.0333 72.8106C41.0333 73.8346 40.6227 74.6186 39.8013 75.1626C40.3133 75.44 40.676 75.728 40.8893 76.0266C41.1133 76.3253 41.2253 76.8 41.2253 77.4506C41.2253 78.592 40.9373 79.44 40.3613 79.9946C39.796 80.5493 38.884 80.8266 37.6253 80.8266C36.6973 80.8266 35.7213 80.688 34.6973 80.4106L34.1853 80.2826L34.2973 78.6026C35.492 78.8053 36.4947 78.9066 37.3053 78.9066C38.404 78.9066 38.9533 78.4373 38.9533 77.4986C38.9533 77.104 38.8093 76.7893 38.5213 76.5546C38.244 76.32 37.876 76.2026 37.4173 76.2026H35.2893V74.3786H37.4173C37.7693 74.3786 38.0787 74.2293 38.3453 73.9306C38.6227 73.632 38.7613 73.3013 38.7613 72.9386C38.7613 72.1813 38.2333 71.8026 37.1773 71.8026C36.4413 71.8026 35.6573 71.8773 34.8253 72.0266L34.4093 72.0906L34.2653 70.4586Z" fill="white"/>
<defs>
<radialGradient id="paint0_radial_1231_2118" cx="0" cy="0" r="1" gradientUnits="userSpaceOnUse" gradientTransform="translate(36.4376 5.6846) scale(44.7853 72.5735)">
<stop offset="0.01" stop-color="#FF9184"/>
<stop offset="1" stop-color="#7C3921"/>
</radialGradient>
<radialGradient id="paint1_radial_1231_2118" cx="0" cy="0" r="1" gradientUnits="userSpaceOnUse" gradientTransform="translate(37.3617 58.3939) scale(23.2538 37.6822)">
<stop offset="0.01" stop-color="#FF9184"/>
<stop offset="1" stop-color="#7C3921"/>
</radialGradient>
</defs>
</svg>
