<svg width="20" height="20" viewBox="0 0 20 20" fill="none" xmlns="http://www.w3.org/2000/svg">
<path fill-rule="evenodd" clip-rule="evenodd" d="M16.6642 10.175C16.6672 10.0584 16.6672 9.94169 16.6642 9.82504V10.175ZM12.945 12.9475L10.7716 10.7742H16.6633V16.6667L14.7125 14.715C13.881 15.5455 12.8448 16.1414 11.7088 16.4425C10.5729 16.7437 9.37759 16.7393 8.24389 16.4299C7.11019 16.1205 6.07838 15.517 5.25292 14.6806C4.42747 13.8441 3.8377 12.8044 3.54332 11.6667H6.17998C6.45145 12.2886 6.87065 12.8347 7.40116 13.2578C7.93168 13.6808 8.55746 13.9679 9.22414 14.0941C9.89083 14.2204 10.5783 14.1819 11.2267 13.9821C11.8751 13.7822 12.465 13.4271 12.945 12.9475ZM16.4558 8.33337C16.1614 7.19558 15.5716 6.15579 14.746 5.31931C13.9204 4.48283 12.8885 3.87936 11.7547 3.57002C10.6209 3.26068 9.42542 3.25645 8.28943 3.55777C7.15345 3.85909 6.11727 4.45525 5.28582 5.28587L3.33415 3.33337V9.22587H9.22582L7.05498 7.05337C7.53492 6.57359 8.12477 6.21826 8.77326 6.01827C9.42175 5.81829 10.1093 5.77969 10.7761 5.90584C11.4429 6.03199 12.0688 6.31907 12.5994 6.74213C13.13 7.16519 13.5493 7.71142 13.8208 8.33337H16.4558ZM3.33332 10V9.87087V10.1292C3.33291 10.0862 3.33291 10.0431 3.33332 10Z" fill="#71839B"/>
</svg>
