<svg width="24" height="24" viewBox="0 0 24 24" fill="none" xmlns="http://www.w3.org/2000/svg">
<path fill-rule="evenodd" clip-rule="evenodd" d="M12.8646 5.00201V8.58779C5.9901 8.58779 2.7459 13.197 1.05229 18.0926C0.700106 19.1106 2.21063 19.8875 3.07779 19.2484C5.17836 17.7003 7.68285 16.8854 10.8646 16.6562C11.5033 16.6102 12.1692 16.5878 12.8646 16.5878V20.1736C12.8646 21.0645 13.9418 21.5107 14.5718 20.8807L22.1575 13.2949C22.5481 12.9044 22.5481 12.2712 22.1575 11.8807L14.5718 4.2949C13.9418 3.66493 12.8646 4.1111 12.8646 5.00201ZM12.8646 10.5878C13.9692 10.5878 14.8646 9.69236 14.8646 8.58779V7.41622L20.0362 12.5878L14.8646 17.7594V16.5878C14.8646 15.4833 13.9692 14.5878 12.8646 14.5878C9.40579 14.5878 6.46475 15.1111 3.92098 16.3916C4.58034 15.0694 5.38771 13.8969 6.38341 12.9635C7.8887 11.5525 9.92706 10.5878 12.8646 10.5878Z" fill="#718096"/>
</svg>
