<svg width="54" height="56" viewBox="0 0 54 56" fill="none" xmlns="http://www.w3.org/2000/svg">
<g filter="url(#filter0_d_661_3586)">
<path d="M22.5 11.5981C25.2846 9.99038 28.7154 9.99038 31.5 11.5981L38.9545 15.9019C41.7391 17.5096 43.4545 20.4808 43.4545 23.6962V32.3038C43.4545 35.5192 41.7391 38.4904 38.9545 40.0981L31.5 44.4019C28.7154 46.0096 25.2846 46.0096 22.5 44.4019L15.0455 40.0981C12.2609 38.4904 10.5455 35.5192 10.5455 32.3038V23.6962C10.5455 20.4808 12.2609 17.5096 15.0455 15.9019L22.5 11.5981Z" fill="#38C558" fill-opacity="0.14" shape-rendering="crispEdges"/>
<path d="M31.375 11.8146L38.8295 16.1184C41.5367 17.6815 43.2045 20.5701 43.2045 23.6962V32.3038C43.2045 35.4299 41.5367 38.3185 38.8295 39.8816L31.375 44.1854C28.6677 45.7485 25.3323 45.7485 22.625 44.1854L15.1705 39.8816C12.4633 38.3185 10.7955 35.4299 10.7955 32.3038V23.6962C10.7955 20.5701 12.4633 17.6815 15.1705 16.1184L22.625 11.8146C25.3323 10.2515 28.6677 10.2515 31.375 11.8146Z" stroke="url(#paint0_linear_661_3586)" stroke-width="0.5" shape-rendering="crispEdges"/>
</g>
<path d="M31 28.9V33.1C31 36.6 29.6 38 26.1 38H21.9C18.4 38 17 36.6 17 33.1V28.9C17 25.4 18.4 24 21.9 24H26.1C29.6 24 31 25.4 31 28.9Z" fill="#38C558"/>
<path d="M31 28.9V33.1C31 36.6 29.6 38 26.1 38H21.9C18.4 38 17 36.6 17 33.1V28.9C17 25.4 18.4 24 21.9 24H26.1C29.6 24 31 25.4 31 28.9Z" fill="url(#paint1_radial_661_3586)" fill-opacity="0.7"/>
<g opacity="0.4">
<path d="M32.0998 18H27.8998C24.4498 18 23.0498 19.37 23.0098 22.75H26.0998C30.2998 22.75 32.2498 24.7 32.2498 28.9V31.99C35.6298 31.95 36.9998 30.55 36.9998 27.1V22.9C36.9998 19.4 35.5998 18 32.0998 18Z" fill="#38C558"/>
<path d="M32.0998 18H27.8998C24.4498 18 23.0498 19.37 23.0098 22.75H26.0998C30.2998 22.75 32.2498 24.7 32.2498 28.9V31.99C35.6298 31.95 36.9998 30.55 36.9998 27.1V22.9C36.9998 19.4 35.5998 18 32.0998 18Z" fill="url(#paint2_radial_661_3586)" fill-opacity="0.7"/>
</g>
<defs>
<filter id="filter0_d_661_3586" x="0.545898" y="0.392334" width="52.9082" height="55.2154" filterUnits="userSpaceOnUse" color-interpolation-filters="sRGB">
<feFlood flood-opacity="0" result="BackgroundImageFix"/>
<feColorMatrix in="SourceAlpha" type="matrix" values="0 0 0 0 0 0 0 0 0 0 0 0 0 0 0 0 0 0 127 0" result="hardAlpha"/>
<feOffset/>
<feGaussianBlur stdDeviation="5"/>
<feComposite in2="hardAlpha" operator="out"/>
<feColorMatrix type="matrix" values="0 0 0 0 0.113725 0 0 0 0 0.215686 0 0 0 0 0.137255 0 0 0 1 0"/>
<feBlend mode="normal" in2="BackgroundImageFix" result="effect1_dropShadow_661_3586"/>
<feBlend mode="normal" in="SourceGraphic" in2="effect1_dropShadow_661_3586" result="shape"/>
</filter>
<linearGradient id="paint0_linear_661_3586" x1="27" y1="9" x2="27" y2="47" gradientUnits="userSpaceOnUse">
<stop stop-color="#55A168"/>
<stop offset="1" stop-color="#1F3B26" stop-opacity="0"/>
</linearGradient>
<radialGradient id="paint1_radial_661_3586" cx="0" cy="0" r="1" gradientUnits="userSpaceOnUse" gradientTransform="translate(21.4754 26.7541) rotate(55.9679) scale(10.6623)">
<stop stop-color="white"/>
<stop offset="0.697917" stop-color="white" stop-opacity="0"/>
<stop offset="1" stop-color="white" stop-opacity="0"/>
</radialGradient>
<radialGradient id="paint2_radial_661_3586" cx="0" cy="0" r="1" gradientUnits="userSpaceOnUse" gradientTransform="translate(27.482 20.7521) rotate(55.9679) scale(10.6546)">
<stop stop-color="white"/>
<stop offset="0.697917" stop-color="white" stop-opacity="0"/>
<stop offset="1" stop-color="white" stop-opacity="0"/>
</radialGradient>
</defs>
</svg>
