<svg width="15" height="15" viewBox="0 0 15 15" fill="none" xmlns="http://www.w3.org/2000/svg">
<path d="M7.5 13.75C10.9518 13.75 13.75 10.9518 13.75 7.5C13.75 4.04822 10.9518 1.25 7.5 1.25C4.04822 1.25 1.25 4.04822 1.25 7.5C1.25 10.9518 4.04822 13.75 7.5 13.75Z" fill="#0ECB81"/>
<path d="M6.6124 9.7375C6.4874 9.7375 6.36865 9.6875 6.28115 9.6L4.5124 7.83125C4.33115 7.65 4.33115 7.35 4.5124 7.16875C4.69365 6.9875 4.99365 6.9875 5.1749 7.16875L6.6124 8.60625L9.8249 5.39375C10.0062 5.2125 10.3062 5.2125 10.4874 5.39375C10.6687 5.575 10.6687 5.875 10.4874 6.05625L6.94365 9.6C6.85615 9.6875 6.7374 9.7375 6.6124 9.7375Z" fill="white"/>
</svg>
