<svg width="90" height="91" viewBox="0 0 90 91" fill="none" xmlns="http://www.w3.org/2000/svg">
<path d="M71.4123 40.9327C72.5114 41.1631 73.2044 42.3071 72.9571 43.4905L67.2735 70.8187C67.0277 72.0008 65.9374 72.7724 64.8384 72.542L22.328 63.6293C21.229 63.399 20.5374 62.254 20.7832 61.0715L26.4668 33.7434C26.7126 32.5613 27.8029 31.7897 28.902 32.02L71.4123 40.9327Z" fill="white"/>
<path d="M70.3425 46.1762L65.9475 67.3066C65.6368 68.8003 64.3055 69.7963 62.989 69.5203L25.2274 61.6024C23.9108 61.3264 23.0879 59.8787 23.3983 58.3853L27.7933 37.2558C28.1042 35.7624 29.4353 34.7662 30.7518 35.0422L68.5141 42.9593C69.8307 43.2354 70.6539 44.6833 70.343 46.1767" fill="#DB0000"/>
<path d="M33.1687 35.5492L33.4384 36.0236L31.2816 37.6373L31.0822 37.283L30.8157 37.4821L29.5199 35.2023L29.6646 35.0938C29.1188 35.2592 28.6261 35.6281 28.274 36.1343L29.1471 35.4813L30.4431 37.7609L30.0696 38.0406L30.2711 38.3952L28.2223 39.9283L27.5021 38.6618L27.36 39.3462L27.8493 40.2071L27.0578 40.7993L26.9157 41.4837L28.08 40.6124L29.3747 42.8906L29.0024 43.1691L29.2046 43.5249L27.1558 45.0581L26.4358 43.7918L26.2937 44.4762L26.783 45.3371L25.9915 45.9294L25.8494 46.6137L27.0135 45.7427L28.3086 48.0204L27.9373 48.298L28.1404 48.6553L26.0889 50.19L25.3692 48.924L25.2271 49.6083L25.7166 50.469L24.9248 51.0615L24.7828 51.7459L25.9473 50.8748L27.2381 53.1493L26.8679 53.4263L27.0726 53.7857L25.0191 55.3201L24.2993 54.0541L24.1572 54.7385L24.6465 55.5994L23.855 56.1916L23.7129 56.876L24.877 56.0045L26.1703 58.2798L25.8014 58.5556L26.0059 58.9153L23.9531 60.453L23.3604 59.4102C23.4574 60.1613 23.8349 60.8251 24.3964 61.2321L24.1841 60.8586L26.2375 59.3221L26.4285 59.6581L26.7977 59.382L28.1043 61.6807L27.5552 62.0913L28.1583 62.2176L28.3348 62.0858L28.4436 62.2774L29.0469 62.4039L28.7073 61.807L30.7658 60.2666L30.96 60.6079L31.324 60.3358L32.6276 62.6268L32.078 63.0387L32.68 63.1638L32.8564 63.032L32.9652 63.2236L33.5683 63.3504L33.229 62.7533L35.2926 61.2095L35.4896 61.5559L35.8486 61.2875L37.1494 63.5751L36.6001 63.9859L37.2034 64.1125L37.3796 63.9805L37.4887 64.1723L38.0906 64.2974L37.7513 63.7002L39.8198 62.1528L40.0197 62.5048L40.3741 62.2398L41.6724 64.5233L41.1234 64.9339L41.7267 65.0605L41.9029 64.9284L42.012 65.1202L42.6139 65.2453L42.2743 64.6484L44.3479 63.0971L44.551 63.4544L44.9002 63.1933L46.1954 65.471L45.6466 65.8818L46.2486 66.0069L46.4248 65.8754L46.5338 66.0667L47.1367 66.1933L46.7976 65.5964L48.8757 64.0412L49.0818 64.404L49.4264 64.1464L50.7195 66.4214L50.1705 66.8324L50.7736 66.9587L50.95 66.827L51.0589 67.0185L51.6622 67.1451L51.3228 66.548L53.3966 64.9964L53.6002 65.3542L53.9487 65.0933L55.2439 67.371L54.6949 67.7816L55.2982 67.9082L55.4744 67.7761L55.5833 67.9677L56.1866 68.0943L55.847 67.4974L57.9164 65.949L58.1173 66.302L58.4704 66.0377L59.7674 68.3192L59.2184 68.7298L59.8217 68.8564L59.9979 68.7243L60.107 68.9161L60.7087 69.0415L60.3693 68.4443L62.4344 66.8992L62.6326 67.2477L62.9901 66.9803L64.2897 69.2662L63.9856 69.4937C64.5973 69.3341 65.1514 68.9216 65.5249 68.3419L64.6623 68.9874L63.3631 66.7011L63.6456 66.4901L63.4475 66.1416L65.5878 64.5401L66.273 65.7444L66.4151 65.06L65.9606 64.2607L66.6951 63.7103L66.8372 63.026L65.7297 63.8546L64.4307 61.5699L64.7118 61.3594L64.5129 61.0101L66.6546 59.4078L67.3391 60.6122L67.4815 59.9276L67.0272 59.1285L67.7615 58.5784L67.9036 57.8941L66.796 58.7227L65.4991 56.4407L65.7792 56.2311L65.5794 55.8803L67.7222 54.2771L68.4071 55.4815L68.5492 54.7972L68.095 53.9981L68.8295 53.4478L68.9716 52.7634L67.8638 53.5922L66.5666 51.31L66.8453 51.1013L66.6448 50.7493L68.7888 49.1449L69.4735 50.3496L69.6156 49.6653L69.1614 48.8662L69.8958 48.3159L70.0379 47.6315L68.9304 48.4601L67.6337 46.1793L67.9113 45.9715L67.7102 45.6179L69.8552 44.013L70.3229 44.8358C70.206 44.3323 69.9451 43.8734 69.5722 43.5152L69.6249 43.6077L67.4798 45.2127L67.2852 44.8705L67.0077 45.078L65.7045 42.7858L66.1407 42.4594L65.5387 42.3343L65.4751 42.3819L65.4359 42.3126L64.8328 42.1863L65.1026 42.6607L62.962 44.2624L62.7701 43.9249L62.4881 44.1359L61.1822 41.8389L61.6186 41.5122L61.016 41.3864L60.9524 41.434L60.9128 41.3649L60.3112 41.2396L60.5807 41.7142L58.4443 43.3125L58.2553 42.9796L57.9692 43.194L56.6605 40.8921L57.0967 40.5657L56.4948 40.4406L56.4312 40.4883L56.3919 40.4189L55.79 40.2938L56.0597 40.7683L53.9277 42.3633L53.7414 42.0353L53.4507 42.2531L52.1384 39.9454L52.5746 39.619L51.9681 39.489L51.905 39.5367L51.8654 39.4676L51.2621 39.341L51.5319 39.8154L49.3954 41.4155L49.206 41.0822L48.9203 41.2961L47.6119 38.995L48.0483 38.6683L47.445 38.5418L47.3814 38.5894L47.3424 38.5203L46.7391 38.3937L47.0089 38.8682L44.8671 40.4705L44.6748 40.1321L44.3937 40.3421L43.0889 38.0463L43.5251 37.7199L42.9218 37.5933L42.8582 37.641L42.8189 37.5717L42.217 37.4465L42.4868 37.921L40.3399 39.5272L40.1447 39.1832L39.8674 39.3879L38.565 37.0972L39.0016 36.7708L38.3983 36.6442L38.3348 36.6918L38.2952 36.6227L37.6933 36.4976L37.9631 36.9721L35.8116 38.5816L35.613 38.2326L35.3419 38.4351L34.0429 36.15L34.4791 35.8221L33.8753 35.6965L33.8117 35.7441L33.7725 35.6748L33.1687 35.5492ZM28.4507 40.3331L30.4997 38.8002L30.6934 39.1411L31.0672 38.8616L32.3711 41.155L30.2158 42.7673L30.0136 42.4115L29.7461 42.6115L28.4507 40.3331ZM35.5946 39.8144L36.8953 42.1025L34.7451 43.7114L34.5456 43.3609L34.2732 43.5646L32.9749 41.2806L35.0288 39.7441L35.2259 40.0905L35.5946 39.8144ZM40.1214 40.7677L41.4191 43.0505L39.2737 44.6558L39.0775 44.3103L38.8003 44.5177L37.4996 42.2277L39.5584 40.6875L39.7586 41.0392L40.1214 40.7677ZM44.6481 41.7212L45.943 43.9992L43.8025 45.6008L43.6092 45.2609L43.3265 45.4721L42.0219 43.1775L44.0857 41.6335L44.2888 41.9907L44.6481 41.7212ZM49.1744 42.675L50.466 44.9469L48.3308 46.5444L48.1407 46.2099L47.8526 46.4256L46.5453 44.1257L48.6138 42.5778L48.8201 42.9404L49.1744 42.675ZM53.7008 43.6287L54.9893 45.8953L52.8594 47.4888L52.6718 47.1593L52.38 47.3775L51.0696 45.0723L53.1429 43.5207L53.3511 43.8898L53.7008 43.6287ZM58.2221 44.5716L59.5127 46.8444L57.3778 48.4418L57.1879 48.1079L56.9003 48.3232L55.5918 46.0226L57.661 44.4744L57.8675 44.8373L58.2221 44.5716ZM62.7429 45.5155L64.0365 47.7919L61.8969 49.3927L61.7043 49.054L61.4213 49.2659L60.116 46.9701L62.1808 45.4251L62.3855 45.7846L62.7429 45.5155ZM65.2089 50.7579L65.4041 51.1014L63.3425 52.6439L62.0473 50.3662L62.3305 50.1546L62.1276 49.7975L64.267 48.1966L65.5695 50.4875L65.2089 50.7579ZM64.1421 55.887L64.338 56.2317L62.2751 57.7753L60.9804 55.4971L61.2647 55.2846L61.0625 54.9288L63.2008 53.3287L64.5025 55.6187L64.1421 55.887ZM63.0766 61.0149L63.2734 61.3611L61.2093 62.9053L59.9132 60.6252L60.1984 60.4118L59.9969 60.0572L62.134 58.4583L63.4351 60.7466L63.0766 61.0149ZM58.2193 64.6542L56.9149 62.3636L58.9833 60.8162L59.1846 61.1705L59.5387 60.9054L60.835 63.1857L58.6993 64.7837L58.5043 64.4409L58.2193 64.6542ZM53.6986 63.7108L52.3916 61.4171L54.4641 59.8662L54.6688 60.2257L55.0191 59.9632L56.3127 62.2387L54.1809 63.8336L53.989 63.4956L53.6986 63.7108ZM49.1775 62.7672L47.8694 60.4658L49.9465 58.9116L50.1535 59.2754L50.4989 59.017L51.7895 61.2875L49.6626 62.8791L49.4732 62.5463L49.1775 62.7672ZM44.6511 61.8134L43.3459 59.5172L45.4182 57.967L45.6229 58.3265L45.9734 58.0643L47.2639 60.3413L45.132 61.9366L44.9406 61.5992L44.6511 61.8134ZM40.1226 60.8618L38.8202 58.571L40.8874 57.0243L41.0883 57.3777L41.4436 57.1118L42.7406 59.3929L40.6035 60.9918L40.4082 60.6483L40.1226 60.8618ZM35.5959 59.9082L34.2967 57.6228L36.3591 56.0797L36.5571 56.4276L36.9173 56.1581L38.2171 58.4447L36.0751 60.0472L35.877 59.6982L35.5959 59.9082ZM31.0695 58.9545L29.7735 56.6744L31.8308 55.1351L32.0256 55.4777L32.3906 55.2046L33.6939 57.4963L31.5468 59.1027L31.3453 58.7481L31.0695 58.9545ZM28.506 53.7709L28.3143 53.4336L30.4672 51.8227L31.764 54.104L31.3989 54.3771L31.5998 54.7305L29.5423 56.27L28.2363 53.9725L28.506 53.7709ZM29.5713 48.6427L29.379 48.3043L31.5331 46.6926L32.8307 48.9754L32.4645 49.2492L32.6664 49.5993L30.6105 51.1381L29.305 48.8421L29.5713 48.6427ZM30.6381 43.5136L30.445 43.174L32.6001 41.5615L33.8987 43.8452L33.5312 44.1201L33.7305 44.4709L31.6754 46.0085L30.3708 43.7139L30.6381 43.5136ZM60.6893 49.8139L60.8818 50.1526L58.816 51.6984L57.524 49.4256L57.8114 49.2106L57.6058 48.8487L59.7408 47.2514L61.0478 49.5456L60.6893 49.8139ZM59.6237 54.9418L59.8179 55.2813L57.7509 56.8278L56.458 54.554L56.7466 54.3378L56.5424 53.9779L58.6764 52.3814L59.98 54.6751L59.6237 54.9418ZM58.557 60.0709L58.7511 60.4122L56.6829 61.9599L55.3893 59.6844L55.6791 59.4675L55.4746 59.1078L57.6074 57.5121L58.9109 59.8055L58.557 60.0709ZM33.0382 54.7201L32.8434 54.3775L34.9912 52.7704L36.2911 55.057L35.9309 55.3265L36.1289 55.6744L34.0665 57.2175L32.7634 54.9256L33.0382 54.7201ZM34.1047 49.5908L33.9093 49.247L36.0585 47.639L37.3593 49.9271L36.9977 50.1975L37.1947 50.5439L35.1338 52.0861L33.8317 49.7951L34.1047 49.5908ZM39.0532 45.8982L40.3515 48.1821L38.2071 49.7865L38.0103 49.4398L37.7319 49.6483L36.4311 47.3602L38.4911 45.8189L38.6906 46.1694L39.0532 45.8982ZM43.5796 46.8519L44.8745 49.1298L42.7352 50.7308L42.5411 50.3895L42.258 50.6013L40.9541 48.3079L43.0189 46.763L43.2214 47.1191L43.5796 46.8519ZM48.106 47.8056L49.3982 50.0787L47.264 51.6759L47.073 51.3398L46.7856 51.5563L45.4787 49.2574L47.5486 47.709L47.7528 48.069L48.106 47.8056ZM52.6326 48.7592L53.9212 51.0264L51.7914 52.6199L51.604 52.2902L51.311 52.5095L50.0013 50.2055L52.077 48.6522L52.2841 49.02L52.6326 48.7592ZM55.1075 53.995L55.2988 54.3294L53.2274 55.8796L51.9374 53.6104L52.2304 53.391L52.0226 53.0258L54.1524 51.4323L55.4595 53.7315L55.1075 53.995ZM50.2437 57.6414L48.9346 55.3386L51.0104 53.7853L51.218 54.1508L51.5646 53.8913L52.8556 56.1591L50.7259 57.7528L50.5374 57.4214L50.2437 57.6414ZM45.7173 56.6877L44.4109 54.3902L46.482 52.8407L46.6865 53.2004L47.037 52.9382L48.3319 55.2092L46.1986 56.8054L46.007 56.4682L45.7173 56.6877ZM41.1905 55.7339L39.8873 53.4398L41.9533 51.8942L42.1548 52.2488L42.5114 51.9819L43.8074 54.2619L41.6693 55.8618L41.4745 55.5192L41.1905 55.7339ZM38.6361 50.543L38.438 50.194L40.5819 48.5896L41.8859 50.883L41.5293 51.1495L41.7232 51.4906L39.6572 53.0367L38.358 50.7512L38.6361 50.543ZM50.592 53.0495L50.7794 53.3792L48.7035 54.9323L47.4108 52.6578L47.6987 52.4423L47.4942 52.0826L49.6289 50.4855L50.9387 52.7895L50.592 53.0495ZM46.0596 52.0986L46.2509 52.4344L44.1797 53.9839L42.8834 51.704L43.1669 51.4922L42.9671 51.1374L45.1062 49.5366L46.4132 51.8353L46.0596 52.0986ZM37.4252 50.9494L37.6238 51.2985L37.985 51.0281L39.2844 53.3133L37.1415 54.9168L36.9435 54.5689L36.6641 54.7783L35.364 52.4914L37.4252 50.9494ZM37.5694 55.6702L37.3717 55.3221L39.5147 53.7186L40.8177 56.0106L40.4624 56.2764L40.6572 56.6189L38.59 58.1657L37.2898 55.8793L37.5694 55.6702ZM42.1009 56.6201L41.9001 56.2667L44.0382 54.6668L45.3444 56.9641L44.9941 57.2265L45.1858 57.5633L43.1134 59.1139L41.8167 56.8326L42.1009 56.6201ZM46.6322 57.5702L46.4277 57.2105L48.561 55.6148L49.8703 57.9173L49.5253 58.1766L49.7138 58.5085L47.6377 60.0614L46.3436 57.7859L46.6322 57.5702ZM51.1637 58.5201L50.9567 58.1563L53.0863 56.5625L54.3927 58.8605L54.0423 59.1227L54.2337 59.4592L52.1614 61.0098L50.8705 58.7392L51.1637 58.5201ZM55.2453 58.7025L55.0541 58.3658L54.7643 58.5827L53.4575 56.2842L55.5288 54.7345L55.7333 55.0942L56.0838 54.832L57.3765 57.106L55.2453 58.7025ZM56.3112 53.572L56.1209 53.2367L55.8321 53.4527L54.525 51.1535L56.5952 49.6045L56.801 49.9661L57.1531 49.7028L58.4454 51.9754L56.3112 53.572ZM56.175 48.8653L56.3659 49.1982L54.2957 50.7473L53.0062 48.4795L53.2981 48.261L53.0899 47.8944L55.2197 46.3009L56.5275 48.6013L56.175 48.8653ZM51.6586 47.9183L51.8463 48.2478L49.7705 49.8011L48.4783 47.528L48.7659 47.3123L48.5619 46.9522L50.6976 45.3546L52.008 47.6598L51.6586 47.9183ZM47.1271 46.9684L47.3175 47.3027L45.2476 48.8515L43.9529 46.5734L44.2349 46.3624L44.0325 46.0064L46.173 44.4047L47.4805 46.7049L47.1271 46.9684ZM42.5961 46.0185L42.7901 46.3572L40.7251 47.9024L39.4268 45.6185L39.7037 45.4109L39.5046 45.0604L41.65 43.4551L42.9546 45.7497L42.5961 46.0185ZM38.0646 45.0686L38.261 45.4138L36.202 46.9561L34.9005 44.6669L35.1726 44.4629L34.9765 44.118L37.1267 42.5091L38.4282 44.7983L38.0646 45.0686ZM33.9625 44.8741L34.1584 45.2202L34.5258 44.9453L35.8273 47.2346L33.678 48.8426L33.4781 48.4906L33.2048 48.6952L31.9069 46.4127L33.9625 44.8741ZM32.8978 50.0058L33.0928 50.3482L33.4591 50.0739L34.7615 52.3646L32.6134 53.972L32.4125 53.6186L32.138 53.8238L30.841 51.5428L32.8978 50.0058ZM59.7647 59.6542L59.5706 59.3128L59.2851 59.5265L57.9814 57.2334L60.0486 55.6866L60.2509 56.0424L60.6064 55.7763L61.9011 58.0545L59.7647 59.6542ZM60.8294 54.5224L60.6362 54.1825L60.3517 54.3953L59.0489 52.1022L61.115 50.5566L61.3178 50.9136L61.6744 50.6466L62.9693 52.9245L60.8294 54.5224ZM27.3844 45.4636L29.4346 43.9296L29.6276 44.2697L30.0011 43.9919L31.3045 46.2857L29.1504 47.8973L28.948 47.5394L28.6786 47.7413L27.3844 45.4636ZM26.3173 50.5948L28.3676 49.0593L28.5602 49.398L28.9315 49.1199L30.2368 51.4162L28.0839 53.0266L27.8792 52.6672L27.6098 52.8691L26.3173 50.5948ZM25.25 55.7262L27.3024 54.1906L27.4943 54.5276L27.8642 54.2508L29.1704 56.5481L27.019 58.1577L26.8145 57.798L26.5449 57.9996L25.25 55.7262ZM28.4759 61.4005L27.1696 59.1016L27.4392 58.8999L27.2482 58.5639L29.3999 56.9541L30.6972 59.2335L30.3334 59.5059L30.5347 59.8603L28.4759 61.4005ZM32.9994 62.3487L31.6957 60.0555L31.9714 59.8491L31.7773 59.5078L33.9242 57.9016L35.2234 60.187L34.8644 60.4558L35.0628 60.8046L32.9994 62.3487ZM37.5227 63.2971L36.2221 61.0093L36.5027 60.7992L36.3056 60.4524L38.4476 58.8498L39.7497 61.1408L39.3959 61.4057L39.5911 61.7492L37.5227 63.2971ZM42.0461 64.2453L40.7485 61.963L41.0342 61.7491L40.8342 61.3972L42.9709 59.7982L44.2764 62.0943L43.9261 62.3567L44.1187 62.6949L42.0461 64.2453ZM46.5696 65.1935L45.2744 62.9158L45.5647 62.6985L45.3619 62.341L47.4937 60.7457L48.8021 63.0473L48.4579 63.305L48.6475 63.6386L46.5696 65.1935ZM51.0931 66.1422L49.8015 63.8703L50.0979 63.6482L49.8916 63.2856L52.019 61.694L53.3245 63.9905L52.9757 64.2516L53.1679 64.5893L51.0931 66.1422ZM55.6166 67.0904L54.3214 64.8127L54.6122 64.5949L54.4091 64.2372L56.5404 62.6423L57.8434 64.9343L57.4903 65.1985L57.6851 65.541L55.6166 67.0904ZM60.14 68.0386L58.8428 65.7573L59.1295 65.5429L58.9289 65.1897L61.0648 63.5915L62.3641 65.8795L62.0066 66.1469L62.2039 66.4945L60.14 68.0386ZM65.3578 64.1346L63.2175 65.736L63.02 65.3886L62.7377 65.5998L61.4374 63.3127L63.5014 61.7685L63.7008 62.1178L64.0595 61.8492L65.3578 64.1346ZM66.4241 59.0041L64.2826 60.6067L64.0858 60.2605L63.8069 60.469L62.5056 58.1804L64.5683 56.637L64.7661 56.9896L65.1258 56.7201L66.4241 59.0041ZM67.4912 53.8729L65.3484 55.4762L65.1525 55.1314L64.8727 55.3408L63.5707 53.051L65.6324 51.5086L65.8326 51.8608L66.1935 51.5906L67.4912 53.8729ZM68.5582 48.7417L66.4145 50.3459L66.2193 50.0024L65.9404 50.2108L64.6378 47.9199L66.6985 46.3783L66.8993 46.7317L67.2617 46.4607L68.5582 48.7417ZM65.3323 43.0675L66.6377 45.3599L66.2755 45.6313L66.4701 45.9731L64.4097 47.5148L63.1145 45.2372L63.3963 45.0264L63.1916 44.667L65.3323 43.0675ZM60.8091 42.119L62.115 44.416L61.757 44.6839L61.9489 45.0214L59.8841 46.5663L58.5927 44.2947L58.8791 44.0806L58.6729 43.7175L60.8091 42.119ZM56.2856 41.1708L57.5942 43.4727L57.2408 43.7372L57.4298 44.0695L55.3608 45.6179L54.0734 43.3504L54.3642 43.1331L54.156 42.7641L56.2856 41.1708ZM51.7626 40.2222L53.0748 42.5298L52.7243 42.792L52.9106 43.1201L50.8381 44.6685L49.5465 42.3967L49.8322 42.1828L49.6264 41.8202L51.7626 40.2222ZM47.2391 39.274L48.5473 41.5753L48.1932 41.84L48.3828 42.1732L46.3141 43.7208L45.0189 41.4431L45.2998 41.2328L45.0969 40.8758L47.2391 39.274ZM42.717 38.3258L44.0223 40.6216L43.6636 40.8902L43.8561 41.2289L41.7923 42.7729L40.4947 40.4902L40.7704 40.2837L40.5707 39.932L42.717 38.3258ZM38.1938 37.3774L39.4959 39.6679L39.1314 39.9396L39.3271 40.2836L37.2677 41.8235L35.9669 39.5354L36.238 39.3324L36.0412 38.9862L38.1938 37.3774ZM34.9684 38.7134L34.5997 38.9895L34.7983 39.3385L32.7447 40.8753L31.4407 38.5819L31.7068 38.3828L31.5136 38.041L33.6704 36.4273L34.9684 38.7134Z" fill="white"/>
<path d="M73.7074 34.7763C74.7811 35.1025 75.3692 36.3053 75.0202 37.4605L66.9425 64.1749C66.5923 65.3298 65.4383 66.0026 64.3639 65.6761L22.801 53.0411C21.7271 52.7151 21.1394 51.5123 21.4881 50.3574L29.5662 23.6427C29.9163 22.4878 31.0698 21.815 32.1445 22.1417L73.7074 34.7763Z" fill="white"/>
<path d="M75.1494 37.4993L67.0716 64.2137C66.7012 65.439 65.4684 66.153 64.3243 65.805L22.7614 53.1704C21.617 52.8227 20.9873 51.5426 21.3579 50.3171L29.4357 23.6027C29.8066 22.3774 31.0389 21.6634 32.1833 22.0111L73.7461 34.6462C74.8905 34.9939 75.52 36.2737 75.1494 37.4993ZM21.6175 50.3959C21.2903 51.4783 21.8386 52.6064 22.8398 52.911L64.4027 65.5455C65.4039 65.8501 66.4848 65.2173 66.812 64.1349L74.89 37.4202C75.217 36.338 74.669 35.2097 73.6675 34.9054L32.1049 22.2706C31.1035 21.9662 30.0232 22.5988 29.6953 23.6815L21.6175 50.3959Z" fill="#E6E6E6"/>
<path d="M72.2114 39.9117L65.9654 60.5672C65.5241 62.0271 64.1104 62.9023 62.8224 62.51L25.9019 51.2878C24.6146 50.8966 23.9227 49.3818 24.364 47.9219L30.6108 27.2657C31.0523 25.8056 32.4658 24.9306 33.7538 25.3224L70.6735 36.5458C71.9606 36.9372 72.6528 38.4518 72.2114 39.9117Z" fill="#DB0000"/>
<path d="M36.1182 26.0427L36.3453 26.5391L34.054 27.9554L33.8845 27.5841L33.6008 27.758L32.5119 25.3721L32.6656 25.2767C32.1075 25.3931 31.584 25.7169 31.1886 26.1901L32.1167 25.6164L33.2057 28.0024L32.8086 28.2476L32.9766 28.6184L30.8002 29.9639L30.1948 28.6394L29.9926 29.308L30.404 30.2087L29.5619 30.7294L29.3597 31.3985L30.5967 30.6337L31.6859 33.0175L31.29 33.2621L31.4602 33.6346L29.2822 34.981L28.6786 33.6558L28.4765 34.3251L28.8882 35.2256L28.0464 35.7465L27.8441 36.4151L29.0811 35.6503L30.1704 38.0323L29.7769 38.2769L29.9475 38.6509L27.7693 39.997L27.164 38.6725L26.962 39.3413L27.3734 40.242L26.5316 40.763L26.3293 41.4315L27.5663 40.6672L28.6537 43.0477L28.2605 43.2907L28.4318 43.6659L26.2505 45.0131L25.6454 43.6883L25.4438 44.3576L25.8553 45.2584L25.0132 45.779L24.8109 46.4481L26.0479 45.6833L27.1356 48.0635L26.7436 48.3059L26.9155 48.6823L24.7342 50.0295L24.2357 48.9384C24.2669 49.6961 24.5842 50.3906 25.1065 50.8443L24.9279 50.4535L27.1094 49.1046L27.2701 49.4562L27.6621 49.2139L28.7609 51.6186L28.1788 51.9802L28.7683 52.1596L28.9556 52.0439L29.0472 52.2443L29.6369 52.4235L29.3516 51.7988L31.5387 50.4471L31.7017 50.8042L32.0885 50.565L33.1843 52.9642L32.6022 53.3258L33.192 53.505L33.3791 53.3894L33.4708 53.5897L34.0604 53.7691L33.775 53.1444L35.9672 51.7892L36.1332 52.1519L36.5143 51.9161L37.6092 54.3084L37.026 54.6687L37.6155 54.8482L37.8028 54.7324L37.8946 54.9331L38.4843 55.1123L38.1987 54.4878L40.3963 53.1291L40.5644 53.4975L40.9417 53.2639L42.0327 55.6521L41.4506 56.0136L42.0404 56.1928L42.2275 56.0773L42.3192 56.2775L42.9088 56.457L42.6236 55.8325L44.8262 54.4708L44.997 54.8446L45.368 54.6155L46.4566 56.9976L45.8743 57.3595L46.4641 57.5387L46.6514 57.4229L46.7376 57.6196L47.3273 57.7988L47.042 57.1741L49.2491 55.81L49.4219 56.1902L49.7878 55.964L50.8723 58.3394L50.2903 58.701L50.8801 58.8802L51.0671 58.7646L51.1586 58.9651L51.7484 59.1443L51.463 58.5196L53.6663 57.1577L53.8374 57.5321L54.2079 57.3031L55.2951 59.6838L54.7128 60.0456L55.3028 60.225L55.4899 60.109L55.5816 60.3097L56.1714 60.4889L55.8858 59.8644L58.0843 58.5052L58.2533 58.8746L58.6282 58.6428L59.7183 61.03L59.1362 61.3916L59.726 61.5708L59.9131 61.4553L60.0048 61.656L60.5943 61.8349L60.3092 61.2104L62.5031 59.8542L62.6695 60.2188L63.0492 59.9838L64.1429 62.3749L63.82 62.5745C64.4443 62.471 65.0327 62.1068 65.4551 61.5636L64.5365 62.1293L63.443 59.7385L63.7427 59.5532L63.5763 59.1886L65.8502 57.7832L66.4258 59.0432L66.628 58.3746L66.2461 57.5381L67.0268 57.0557L67.2292 56.3869L66.0524 57.1141L64.9599 54.7242L65.2583 54.5396L65.0913 54.1739L67.3666 52.7675L67.9422 54.0275L68.1443 53.3587L67.7621 52.5224L68.543 52.0398L68.745 51.3709L67.5684 52.0984L66.4768 49.7095L66.774 49.5256L66.6063 49.1586L68.8826 47.7513L69.4604 49.0093L69.6625 48.3404L69.2803 47.5042L70.0612 47.0215L70.2634 46.3525L69.0866 47.0802L67.9959 44.6923L68.2906 44.508L68.1224 44.1396L70.3999 42.7316L70.9781 43.9929L71.1806 43.3241L70.7984 42.4879L71.5788 42.0052L71.7813 41.3364L70.6047 42.0638L69.5149 39.6769L69.8086 39.4936L69.6396 39.1237L71.9185 37.7149L72.3121 38.5754C72.2399 38.0631 72.0201 37.5826 71.6797 37.1926L71.724 37.2889L69.445 38.6978L69.2815 38.3397L68.9876 38.5232L67.8922 36.125L68.3565 35.8374L67.7667 35.6582L67.6995 35.7L67.6663 35.6278L67.0767 35.4484L67.3034 35.9449L65.0292 37.3506L64.8672 36.9971L64.5678 37.1821L63.4697 34.779L63.9342 34.4917L63.3445 34.3125L63.2768 34.3543L63.2438 34.2818L62.654 34.1026L62.8809 34.5989L60.6114 36.0021L60.4525 35.6539L60.1482 35.8421L59.0479 33.4337L59.5125 33.1464L58.9227 32.9672L58.8553 33.0088L58.822 32.9366L58.2325 32.7571L58.4591 33.2536L56.1942 34.6539L56.0375 34.311L55.7286 34.5016L54.6263 32.0891L55.0909 31.8018L54.5011 31.6226L54.4334 31.6644L54.4004 31.592L53.8109 31.4131L54.0378 31.9093L51.7678 33.3125L51.6084 32.9638L51.3046 33.1515L50.2048 30.7441L50.6691 30.4566L50.0796 30.2771L50.0121 30.3192L49.9791 30.2467L49.3893 30.0675L49.616 30.564L47.3364 31.9776L47.1749 31.6236L46.8764 31.8082L45.7792 29.4061L46.2438 29.1187L45.654 28.9395L45.5863 28.9814L45.5533 28.9089L44.9635 28.7297L45.1904 29.2259L42.91 30.6357L42.7454 30.2759L42.4531 30.4579L41.3581 28.0615L41.8227 27.7742L41.2331 27.5948L41.1655 27.6366L41.1325 27.5642L40.5427 27.385L40.7693 27.8814L38.481 29.2954L38.3141 28.9299L38.026 29.1079L36.9332 26.7178L37.3975 26.4302L36.8077 26.251L36.7401 26.2929L36.7071 26.2204L36.1182 26.0427ZM30.994 30.3896L33.1717 29.043L33.3345 29.3998L33.7316 29.1546L34.8279 31.5538L32.5388 32.9685L32.3687 32.5965L32.084 32.7713L30.994 30.3896ZM38.1566 30.5047L39.25 32.8984L36.9657 34.3109L36.7992 33.9428L36.5091 34.1226L35.4172 31.7335L37.599 30.3844L37.765 30.7471L38.1566 30.5047ZM42.5815 31.8548L43.6725 34.243L41.3933 35.6521L41.2272 35.2918L40.934 35.4746L39.8403 33.0771L42.0274 31.7254L42.1955 32.0933L42.5815 31.8548ZM47.0069 33.205L48.0955 35.5876L45.8214 36.9933L45.6601 36.6391L45.3604 36.8243L44.2635 34.421L46.4559 33.0657L46.6268 33.4394L47.0069 33.205ZM51.4321 34.5553L52.518 36.9322L50.2492 38.3348L50.0895 37.9846L49.7844 38.173L48.6853 35.7668L50.8828 34.4085L51.0553 34.7885L51.4321 34.5553ZM55.8573 35.9052L56.9405 38.2763L54.6758 39.6769L54.5183 39.3325L54.2084 39.524L53.1059 37.1118L55.3087 35.7499L55.4861 36.135L55.8573 35.9052ZM60.2769 37.2452L61.3623 39.6216L59.0942 41.0239L58.9347 40.6745L58.6292 40.8634L57.5296 38.4562L59.7278 37.0977L59.9008 37.4781L60.2769 37.2452ZM64.6965 38.5852L65.7839 40.9657L63.511 42.3707L63.3495 42.0167L63.0488 42.2029L61.9514 39.801L64.145 38.445L64.3161 38.8199L64.6965 38.5852ZM66.6915 44.024L66.8557 44.3833L64.6657 45.7373L63.5772 43.3547L63.8778 43.169L63.7072 42.7955L65.9801 41.3905L67.0751 43.7873L66.6915 44.024ZM65.1756 49.0378L65.3402 49.3985L63.149 50.7532L62.0598 48.3694L62.3617 48.1825L62.192 47.8105L64.4634 46.4064L65.5577 48.8015L65.1756 49.0378ZM63.6595 54.0518L63.825 54.414L61.6321 55.7693L60.5431 53.3834L60.8465 53.1957L60.677 52.8248L62.9475 51.4216L64.039 53.8157L63.6595 54.0518ZM58.4988 57.2468L57.4034 54.849L59.6007 53.4905L59.7709 53.8611L60.1482 53.6275L61.2374 56.0137L58.9666 57.4167L58.8031 57.0582L58.4988 57.2468ZM54.0792 55.9068L52.9814 53.504L55.1811 52.1436L55.3528 52.5193L55.7245 52.2895L56.812 54.67L54.547 56.0703L54.3853 55.7166L54.0792 55.9068ZM49.6594 54.5666L48.5596 52.1587L50.7665 50.7943L50.9402 51.1755L51.3073 50.9487L52.3897 53.3247L50.1303 54.7212L49.971 54.373L49.6594 54.5666ZM45.2345 53.2165L44.1371 50.8146L46.3384 49.4536L46.51 49.8285L46.8819 49.5985L47.9694 51.979L45.7044 53.3793L45.5429 53.0253L45.2345 53.2165ZM40.8069 51.867L39.7122 49.4704L41.9082 48.1125L42.0773 48.4824L42.4546 48.2488L43.5447 50.636L41.2744 52.0395L41.11 51.6799L40.8069 51.867ZM36.382 50.5168L35.2889 48.1265L37.4799 46.772L37.648 47.1345L38.0306 46.8978L39.1246 49.2891L36.849 50.6957L36.6824 50.3304L36.382 50.5168ZM31.9568 49.167L30.8676 46.7808L33.0535 45.4297L33.2173 45.788L33.6052 45.5481L34.7006 47.9459L32.4199 49.3559L32.2504 48.9851L31.9568 49.167ZM29.8616 43.7769L29.6998 43.4232L31.9868 42.0091L33.0768 44.3963L32.6889 44.6362L32.8578 45.0053L30.6721 46.3567L29.574 43.9531L29.8616 43.7769ZM31.3777 38.7629L31.216 38.4092L33.5044 36.9942L34.5954 39.3824L34.2062 39.6229L34.3744 39.9909L32.1899 41.3415L31.0925 38.9392L31.3777 38.7629ZM32.8937 33.7491L32.7326 33.3947L35.0225 31.9793L36.1144 34.3684L35.724 34.6097L35.8915 34.9764L33.7085 36.3261L32.6087 33.9242L32.8937 33.7491ZM62.2744 42.6812L62.4359 43.0352L60.2411 44.3919L59.1547 42.0141L59.4602 41.8253L59.2884 41.4461L61.5565 40.0437L62.6539 42.4456L62.2744 42.6812ZM60.7585 47.695L60.9211 48.0507L58.7251 49.4086L57.6371 47.0286L57.9441 46.8388L57.7717 46.462L60.0388 45.0605L61.1353 47.461L60.7585 47.695ZM59.2421 52.7093L59.4051 53.0664L57.2089 54.424L56.1212 52.0438L56.4293 51.8534L56.2576 51.4777L58.5228 50.0776L59.6194 52.4757L59.2421 52.7093ZM34.2913 45.1244L34.1283 44.7654L36.4102 43.3547L37.5042 45.746L37.1203 45.9839L37.2865 46.3478L35.0955 47.7022L34.0001 45.3045L34.2913 45.1244ZM35.8075 40.1104L35.6431 39.7508L37.9264 38.3393L39.021 40.7328L38.6372 40.9702L38.8027 41.3328L36.6132 42.6864L35.5182 40.29L35.8075 40.1104ZM41.0634 36.8702L42.1553 39.2594L39.8773 40.6678L39.7118 40.3051L39.4174 40.4891L38.3223 38.0966L40.5111 36.7437L40.6803 37.1065L41.0634 36.8702ZM45.4886 38.2201L46.5766 40.6051L44.3037 42.0101L44.1406 41.6535L43.8397 41.8394L42.7436 39.4399L44.9392 38.0821L45.1094 38.4546L45.4886 38.2201ZM49.914 39.5702L51.0003 41.9485L48.7327 43.3504L48.5723 42.9991L48.2666 43.1872L47.1679 40.7824L49.3671 39.423L49.5385 39.8018L49.914 39.5702ZM54.3407 40.9188L55.4246 43.2915L53.1623 44.6898L53.0045 44.3442L52.6932 44.5367L51.5918 42.1261L53.7959 40.7636L53.9714 41.1467L54.3407 40.9188ZM56.3442 46.3514L56.5044 46.7021L54.304 48.0626L53.2192 45.6884L53.5305 45.496L53.3559 45.1138L55.6185 43.7153L56.7172 46.121L56.3442 46.3514ZM51.1759 49.5514L50.0749 47.1423L52.2816 45.7777L52.4562 46.1598L52.8245 45.9323L53.9091 48.3063L51.648 49.7039L51.4894 49.3569L51.1759 49.5514ZM46.7504 48.2012L45.6524 45.7977L47.8525 44.4378L48.0245 44.8142L48.3981 44.5836L49.486 46.9636L47.2196 48.3648L47.0579 48.011L46.7504 48.2012ZM42.3253 46.8513L41.2298 44.4536L43.4247 43.0964L43.5944 43.4675L43.972 43.2341L45.0609 45.6201L42.7896 47.0245L42.6259 46.6661L42.3253 46.8513ZM40.2395 41.4557L40.0724 41.0904L42.3488 39.6822L43.4448 42.0812L43.0671 42.3143L43.2304 42.6712L41.0353 44.0281L39.9425 41.638L40.2395 41.4557ZM51.9278 45.0099L52.0858 45.3557L49.8803 46.7192L48.7926 44.3389L49.0986 44.1496L48.9267 43.7733L51.1954 42.3726L52.2968 44.7831L51.9278 45.0099ZM47.4973 43.6631L47.6572 44.0149L45.4573 45.375L44.3684 42.9891L44.6693 42.8032L44.4998 42.4323L46.7724 41.027L47.8712 43.4323L47.4973 43.6631ZM38.9959 41.7563L39.163 42.1216L39.5468 41.8842L40.6398 44.2746L38.363 45.6819L38.1966 45.3182L37.9005 45.5034L36.8065 43.112L38.9959 41.7563ZM38.7212 46.4695L38.5548 46.1054L40.8318 44.6978L41.9272 47.0956L41.5497 47.329L41.7134 47.6873L39.5171 49.0449L38.4234 46.6538L38.7212 46.4695ZM43.1517 47.8162L42.9848 47.4466L45.256 46.0422L46.3528 48.4474L45.9806 48.6776L46.1426 49.0312L43.941 50.3919L42.8512 48.005L43.1517 47.8162ZM47.582 49.1627L47.4105 48.7878L49.6757 47.3877L50.7764 49.797L50.4093 50.0238L50.5679 50.3709L48.361 51.7352L47.2735 49.3548L47.582 49.1627ZM52.0122 50.5097L51.8388 50.1288L54.0996 48.7309L55.1998 51.1357L54.8281 51.3655L54.9901 51.719L52.788 53.0802L51.7028 50.7045L52.0122 50.5097ZM56.0626 51.0522L55.9006 50.6987L55.5927 50.8894L54.4944 48.4851L56.695 47.1248L56.8672 47.5019L57.2404 47.2712L58.3283 49.6512L56.0626 51.0522ZM57.5785 46.0389L57.4183 45.6883L57.113 45.8779L56.0141 43.4724L58.2135 42.1127L58.3854 42.4919L58.7597 42.2606L59.8458 44.6382L57.5785 46.0389ZM57.8587 41.339L58.0182 41.6884L55.8195 43.0474L54.7356 40.6746L55.0455 40.4831L54.87 40.1L57.1349 38.6996L58.2338 41.107L57.8587 41.339ZM53.443 39.9968L53.6005 40.3412L51.3965 41.7037L50.3097 39.3254L50.6145 39.1368L50.4431 38.7581L52.7119 37.3555L53.8144 39.7677L53.443 39.9968ZM49.0137 38.6494L49.1734 38.9995L46.9745 40.3587L45.8865 37.9737L46.1862 37.7885L46.0162 37.4162L48.2901 36.0102L49.3895 38.4167L49.0137 38.6494ZM44.5832 37.3026L44.7444 37.6568L42.5505 39.0131L41.4587 36.624L41.7521 36.4409L41.5844 36.0744L43.8638 34.665L44.9606 37.0657L44.5832 37.3026ZM40.1527 35.9559L40.3177 36.3171L38.1292 37.6697L37.0351 35.2748L37.3251 35.095L37.1603 34.734L39.4448 33.3217L40.5389 35.7166L40.1527 35.9559ZM36.0838 35.3999L36.2486 35.7609L36.6392 35.5194L37.7335 37.9146L35.4502 39.3261L35.2818 38.9579L34.9917 39.1378L33.9008 36.7496L36.0838 35.3999ZM34.5683 40.4151L34.7324 40.7749L35.1218 40.5341L36.2166 42.9307L33.9347 44.3414L33.7668 43.9708L33.4756 44.1518L32.3855 41.7646L34.5683 40.4151ZM60.4814 52.4007L60.3184 52.0436L60.0153 52.2311L58.9192 49.8321L61.1153 48.4743L61.2852 48.8465L61.6627 48.6132L62.751 50.9984L60.4814 52.4007ZM61.9969 47.3855L61.8359 47.0311L61.5338 47.2176L60.4371 44.817L62.6319 43.4603L62.8025 43.8337L63.1803 43.6006L64.2688 45.9833L61.9969 47.3855ZM29.4789 35.4063L31.6568 34.0599L31.8179 34.4143L32.2138 34.1697L33.3105 36.5704L31.0212 37.9839L30.8508 37.6102L30.5649 37.7862L29.4789 35.4063ZM27.9611 40.4209L30.1392 39.0748L30.301 39.4286L30.6954 39.1849L31.794 41.5861L29.5066 43.0001L29.3354 42.625L29.0485 42.8019L27.9611 40.4209ZM26.4444 45.4373L28.624 44.0884L28.786 44.4419L29.1793 44.1989L30.2771 46.6022L27.9911 48.0154L27.8192 47.639L27.5313 47.8168L26.4444 45.4373ZM29.1563 51.3736L28.0578 48.9686L28.3457 48.7907L28.1855 48.4392L30.4715 47.026L31.5604 49.412L31.1739 49.651L31.3434 50.0218L29.1563 51.3736ZM33.5795 52.7175L32.4835 50.3185L32.7757 50.1365L32.6126 49.7794L34.8933 48.3694L35.9864 50.7598L35.6052 50.9956L35.7718 51.3609L33.5795 52.7175ZM38.0028 54.0614L36.9086 51.6693L37.2069 51.485L37.0409 51.1223L39.3167 49.7155L40.4115 52.112L40.0342 52.3456L40.1986 52.7052L38.0028 54.0614ZM42.426 55.4053L41.3351 53.0171L41.6386 52.8296L41.4705 52.4612L43.7381 51.0588L44.8355 53.4612L44.4645 53.6902L44.626 54.0442L42.426 55.4053ZM46.8491 56.7489L45.7608 54.3665L46.0694 54.1757L45.8986 53.8019L48.1635 52.4016L49.2638 54.8095L48.8979 55.0357L49.0572 55.3839L46.8491 56.7489ZM51.2723 58.0928L50.184 55.7183L50.4979 55.5242L50.3254 55.1443L52.5848 53.7492L53.6826 56.1521L53.3121 56.3812L53.4738 56.7349L51.2723 58.0928ZM55.6956 59.4367L54.6084 57.056L54.9175 56.8647L54.7465 56.4903L57.0114 55.0899L58.1025 57.4914L57.7276 57.7231L57.8911 58.0817L55.6956 59.4367ZM60.1188 60.7806L59.0288 58.3934L59.3333 58.205L59.1647 57.8357L61.4338 56.4329L62.5279 58.8244L62.1482 59.0594L62.3144 59.4228L60.1188 60.7806ZM65.6619 57.3536L63.3883 58.7594L63.2221 58.396L62.9175 58.5844L61.8233 56.1928L64.016 54.8372L64.1831 55.203L64.564 54.9674L65.6619 57.3536ZM67.1789 52.3375L64.9038 53.7441L64.7382 53.382L64.4397 53.5665L63.3459 51.1723L65.5373 49.8179L65.7051 50.1849L66.0872 49.9486L67.1789 52.3375ZM68.6956 47.3216L66.4193 48.7289L66.2546 48.3682L65.9571 48.5518L64.8626 46.1564L67.0528 44.8027L67.221 45.1711L67.6046 44.9339L68.6956 47.3216ZM70.2123 42.3057L67.9347 43.7137L67.7706 43.3544L67.4745 43.5371L66.3793 41.1405L68.563 39.7901L68.7321 40.16L69.1169 39.9221L70.2123 42.3057ZM67.5001 36.3692L68.5957 38.7672L68.2109 39.0051L68.3745 39.3632L66.1856 40.7165L65.0984 38.3358L65.3977 38.1506L65.2266 37.7757L67.5001 36.3692ZM63.0768 35.0253L64.1747 37.4286L63.7945 37.6635L63.9565 38.0171L61.7628 39.3731L60.6769 36.9967L60.9812 36.8086L60.8085 36.4284L63.0768 35.0253ZM58.6538 33.6817L59.7541 36.0896L59.3785 36.3216L59.5344 36.673L57.3362 38.0319L56.253 35.6604L56.5619 35.4698L56.3845 35.0847L58.6538 33.6817ZM54.2306 32.3378L55.3326 34.7505L54.9616 34.9795L55.1185 35.3227L52.9154 36.6843L51.8295 34.3075L52.1333 34.1198L51.9608 33.7398L54.2306 32.3378ZM49.8073 30.9939L50.9074 33.4015L50.5301 33.6351L50.6892 33.9836L48.4919 35.3421L47.4031 32.9597L47.7016 32.7751L47.531 32.4016L49.8073 30.9939ZM45.3841 29.65L46.4815 32.0518L46.1003 32.2877L46.2618 32.6417L44.0694 33.997L42.9784 31.6089L43.2707 31.4269L43.1027 31.0587L45.3841 29.65ZM40.961 28.3063L42.0556 30.7026L41.6691 30.9416L41.8335 31.3016L39.6464 32.6534L38.5527 30.2599L38.8408 30.0819L38.6753 29.7197L40.961 28.3063ZM37.6306 29.3525L37.2391 29.5944L37.4059 29.9599L35.2234 31.3092L34.1275 28.91L34.411 28.7363L34.2479 28.3792L36.539 26.9631L37.6306 29.3525Z" fill="white"/>
<g style="mix-blend-mode:multiply">
<path d="M73.707 34.7756L32.1435 22.1403C31.0695 21.8143 29.9146 22.4856 29.5651 23.6413L23.3799 44.0988L60.1126 62.7328C61.1144 63.2412 62.3677 62.779 62.9134 61.7027L74.7851 38.2361L75.0204 37.4593C75.3705 36.3054 74.7814 35.1025 73.707 34.7756Z" fill="#E5E5E5"/>
</g>
<path d="M73.7627 34.2928C74.7646 34.8012 75.1344 36.0854 74.5901 37.1631L61.9941 62.0613C61.4493 63.1381 60.1954 63.5995 59.1935 63.0911L20.4434 43.434C19.4418 42.9258 19.0719 41.6412 19.6161 40.5636L32.2123 15.6657C32.7571 14.5884 34.011 14.1275 35.0129 14.6354L73.7627 34.2928Z" fill="white"/>
<path d="M74.7104 37.2246L62.1147 62.1226C61.537 63.2646 60.1988 63.7535 59.1316 63.2122L20.382 43.555C19.3149 43.0137 18.9171 41.6444 19.4943 40.5028L32.091 15.604C32.6689 14.4622 34.0071 13.9732 35.074 14.5144L73.8237 34.172C74.8903 34.7133 75.2883 36.0828 74.7104 37.2246ZM19.7366 40.6249C19.2264 41.6339 19.5706 42.8397 20.5041 43.3134L59.254 62.9703C60.1875 63.4439 61.3622 63.0086 61.8726 61.9998L74.4686 37.1021C74.979 36.0933 74.6346 34.8873 73.7011 34.4136L34.9512 14.7567C34.0177 14.2831 32.843 14.7184 32.3326 15.7272L19.7366 40.6249Z" fill="#E6E6E6"/>
<path d="M71.3976 39.0896L61.6582 58.3399C60.9698 59.7005 59.4248 60.3157 58.2245 59.707L23.8047 42.2452C22.6047 41.6363 22.1862 40.0252 22.8743 38.6643L32.6128 19.4145C33.301 18.0536 34.846 17.4384 36.0461 18.0473L70.4672 35.5087C71.6673 36.1175 72.0858 37.7287 71.3976 39.0896Z" fill="#DB0000"/>
<path d="M38.2489 19.1654L38.3862 19.6937L35.8836 20.6901L35.781 20.2952L35.4721 20.4183L34.8126 17.8808L34.9805 17.8153C34.4101 17.833 33.8373 18.0595 33.3666 18.4578L34.3796 18.0545L35.0391 20.5919L34.605 20.7649L34.7074 21.1595L32.3299 22.1039L31.9635 20.6948L31.6484 21.3184L31.899 22.2779L30.9804 22.6415L30.6649 23.2651L32.0165 22.7269L32.6751 25.2629L32.2429 25.4349L32.3457 25.831L29.9665 26.7785L29.6003 25.3691L29.285 25.9924L29.534 26.9508L28.6151 27.3165L28.2998 27.9398L29.6512 27.4018L30.3098 29.9364L29.8788 30.1078L29.9806 30.5063L27.6004 31.4546L27.2342 30.0476L26.9189 30.6709L27.1673 31.6262L26.2486 31.9921L25.9333 32.6155L27.2842 32.0775L27.9431 34.6109L27.5144 34.7828L27.6181 35.1818L25.2358 36.1303L24.8699 34.7193L24.5546 35.3426L24.8026 36.3019L23.884 36.6673L23.5684 37.2909L24.9198 36.7529L25.5776 39.2847L25.1499 39.4557L25.254 39.8561L22.8696 40.8038L22.5682 39.6433C22.4667 40.3939 22.6586 41.1328 23.0953 41.6713L22.9874 41.2556L25.3719 40.3079L25.469 40.6818L25.8967 40.5107L26.5608 43.0683L25.9236 43.3221L26.4735 43.6007L26.678 43.5194L26.7335 43.7328L27.2834 44.0119L27.1104 43.3471L29.4991 42.3954L29.5979 42.7751L30.0212 42.6082L30.6845 45.1605L30.0475 45.4141L30.5972 45.6929L30.8017 45.6115L30.8572 45.825L31.4074 46.1024L31.2344 45.4376L33.6293 44.4838L33.7296 44.8699L34.1462 44.7037L34.8077 47.2522L34.1708 47.5057L34.7204 47.7846L34.9249 47.7032L34.9804 47.9167L35.5301 48.1955L35.3571 47.5307L37.758 46.575L37.8578 46.967L38.2692 46.8035L38.929 49.3438L38.2921 49.5974L38.8418 49.8762L39.0462 49.7949L39.1025 50.0086L39.6524 50.2872L39.4792 49.6226L41.8845 48.6658L41.9878 49.0634L42.3931 48.9023L43.0532 51.4355L42.418 51.6875L42.9676 51.9663L43.1724 51.8848L43.2279 52.0982L43.7776 52.377L43.6046 51.7123L46.0162 50.7519L46.1202 51.1566L46.5208 50.9967L47.1777 53.5251L46.5405 53.7789L47.0902 54.0577L47.2949 53.9762L47.3504 54.1897L47.9001 54.4685L47.7271 53.8037L50.1339 52.8455L50.2374 53.2438L50.642 53.0824L51.3005 55.6163L50.6625 55.8713L51.2124 56.1499L51.4169 56.0686L51.4724 56.282L52.0221 56.5608L51.8491 55.8961L54.253 54.9421L54.355 55.3348L54.7649 55.1717L55.4245 57.7109L54.7876 57.9645L55.3373 58.2433L55.5417 58.162L55.5973 58.3754L56.1469 58.6543L55.974 57.9895L58.3707 57.0352L58.4705 57.4218L58.8855 57.2567L59.5464 59.8011L59.1936 59.9415C59.8268 59.9482 60.4687 59.6926 60.9812 59.2313L59.9795 59.6305L59.3193 57.0859L59.6469 56.9554L59.5462 56.5679L62.0303 55.5787L62.3785 56.9195L62.694 56.2959L62.4627 55.4064L63.3154 55.0669L63.6309 54.4438L62.3455 54.9554L61.6846 52.4124L62.011 52.2825L61.9098 51.8931L64.3951 50.9037L64.7436 52.2443L65.0588 51.6209L64.8278 50.7317L65.6807 50.392L65.996 49.7686L64.7106 50.2806L64.0503 47.7388L64.375 47.6097L64.2734 47.2188L66.7602 46.229L67.1086 47.5696L67.4239 46.9462L67.1929 46.0565L68.0456 45.717L68.3608 45.0936L67.0758 45.6035L66.4159 43.0632L66.7396 42.9344L66.6374 42.5424L69.1256 41.5517L69.4738 42.8925L69.7895 42.2691L69.5583 41.3796L70.4112 41.0399L70.7265 40.4166L69.4389 40.9306L68.7792 38.3919L69.1013 38.2634L68.9991 37.8699L71.4887 36.8788L71.7277 37.7936C71.7453 37.2771 71.6125 36.7664 71.3454 36.3235L71.3722 36.427L68.8829 37.4179L68.7838 37.0371L68.4618 37.1652L67.7987 34.6141L68.3053 34.4123L67.7556 34.1335L67.6815 34.163L67.6616 34.0861L67.1118 33.807L67.249 34.3353L64.7647 35.3243L64.6671 34.9485L64.34 35.079L63.6754 32.5224L64.1818 32.3209L63.6322 32.042L63.5582 32.0713L63.5384 31.9944L62.9885 31.7153L63.1258 32.2436L60.6465 33.2306L60.5509 32.8608L60.2173 32.9942L59.5514 30.4323L60.0578 30.2308L59.5082 29.952L59.4343 29.9813L59.4144 29.9043L58.8648 29.6255L59.0018 30.1535L56.528 31.1391L56.4332 30.774L56.0948 30.9073L55.4275 28.3399L55.9339 28.1384L55.3843 27.8596L55.3103 27.8888L55.2905 27.8119L54.7409 27.5331L54.8779 28.0611L52.3981 29.0486L52.3025 28.6788L51.971 28.8111L51.3055 26.2494L51.8118 26.0479L51.2622 25.7691L51.1883 25.7984L51.1684 25.7214L50.6183 25.4426L50.7558 25.9706L48.2702 26.9603L48.1723 26.5835L47.8461 26.7131L47.1822 24.1578L47.6886 23.9562L47.1389 23.6774L47.065 23.7067L47.045 23.6299L46.4951 23.3485L46.6326 23.8766L44.1411 24.8686L44.0419 24.4857L43.7215 24.6131L43.0593 22.0639L43.5657 21.8624L43.016 21.5836L42.9421 21.6129L42.922 21.5361L42.3724 21.2573L42.5094 21.7854L40.0123 22.7793L39.9114 22.3907L39.5968 22.5159L38.9358 19.9729L39.4422 19.7709L38.8923 19.4923L38.8184 19.5216L38.7986 19.4447L38.2489 19.1654ZM32.4478 22.5558L34.827 21.6078L34.9254 21.9874L35.3595 21.8145L36.0226 24.367L33.5214 25.363L33.4181 24.9669L33.108 25.0907L32.4478 22.5558ZM39.4818 23.9126L40.1434 26.4591L37.6487 27.4537L37.5473 27.0635L37.2315 27.1895L36.571 24.6474L38.9557 23.6995L39.0558 24.0853L39.4818 23.9126ZM43.6065 26.0102L44.2676 28.5518L41.7777 29.5432L41.6778 29.159L41.3562 29.2871L40.6935 26.7384L43.0824 25.7865L43.1842 26.1781L43.6065 26.0102ZM47.7315 28.1077L48.3899 30.6425L45.9057 31.6317L45.8076 31.2533L45.4802 31.3836L44.8165 28.8299L47.2125 27.8773L47.3162 28.2753L47.7315 28.1077ZM51.8562 30.2053L52.5131 32.7342L50.035 33.721L49.938 33.3488L49.6042 33.4819L48.939 30.9222L51.3396 29.9663L51.4448 30.3698L51.8562 30.2053ZM55.9811 32.3032L56.6366 34.8257L54.1647 35.8094L54.0697 35.4431L53.7301 35.5775L53.0637 33.0116L55.4689 32.0546L55.5765 32.4632L55.9811 32.3032ZM60.1029 34.3894L60.7598 36.9174L58.2819 37.9039L58.1852 37.5324L57.8514 37.6656L57.1862 35.1049L59.5875 34.1487L59.6917 34.5537L60.1029 34.3894ZM64.2248 36.4759L64.883 39.009L62.4001 39.9976L62.3021 39.6208L61.9733 39.7516L61.3097 37.1964L63.7057 36.2424L63.8094 36.6409L64.2248 36.4759ZM65.2438 42.1768L65.3431 42.5593L62.9506 43.5118L62.2932 40.9784L62.6217 40.8474L62.5182 40.4501L65.0014 39.4613L65.6633 42.0108L65.2438 42.1768ZM62.8803 46.8492L62.9799 47.2331L60.5858 48.1863L59.927 45.65L60.257 45.5186L60.1539 45.1227L62.6356 44.1349L63.2983 46.6836L62.8803 46.8492ZM60.5169 51.5219L60.6168 51.907L58.2217 52.8606L57.5626 50.3255L57.8936 50.1936L57.7912 49.799L60.2717 48.8118L60.9335 51.3586L60.5169 51.5219ZM54.8792 53.772L54.2175 51.2224L56.6181 50.2664L56.7205 50.661L57.1316 50.4973L57.7911 53.0353L55.312 54.022L55.213 53.6408L54.8792 53.772ZM50.7574 51.6858L50.0931 49.1295L52.498 48.1722L52.6019 48.5724L53.008 48.4106L53.6662 50.9442L51.1926 51.9295L51.0953 51.5535L50.7574 51.6858ZM46.6355 49.5994L45.9689 47.0391L48.3796 46.0792L48.4852 46.4856L48.8859 46.326L49.5427 48.8532L47.073 49.8349L46.9774 49.4651L46.6355 49.5994ZM42.5108 47.5017L41.8467 44.9461L44.2516 43.9888L44.355 44.388L44.7618 44.226L45.42 46.7592L42.9459 47.7449L42.8479 47.3682L42.5108 47.5017ZM38.3849 45.4052L37.7227 42.856L40.1218 41.9009L40.224 42.2939L40.6363 42.13L41.2962 44.6689L38.8157 45.6561L38.7163 45.2734L38.3849 45.4052ZM34.2608 43.3087L33.5999 40.7648L35.9933 39.8119L36.0938 40.1991L36.5121 40.0328L37.1735 42.5777L34.6874 43.5673L34.5867 43.1789L34.2608 43.3087ZM30.1359 41.2108L29.4764 38.6733L31.8643 37.7224L31.9633 38.1037L32.3878 37.9356L33.0505 40.4867L30.5585 41.4764L30.4559 41.0819L30.1359 41.2108ZM29.0081 35.5406L28.9096 35.1643L31.4081 34.1694L32.0678 36.7086L31.6433 36.8766L31.7455 37.2696L29.3579 38.2203L28.6935 35.6635L29.0081 35.5406ZM31.3717 30.8682L31.272 30.4907L33.772 29.4954L34.4333 32.0353L34.0081 32.204L34.1096 32.5958L31.7229 33.5456L31.0588 30.9899L31.3717 30.8682ZM33.735 26.1955L33.6368 25.8176L36.139 24.8193L36.7993 27.361L36.3728 27.5309L36.474 27.9212L34.0883 28.8701L33.4248 26.3162L33.735 26.1955ZM61.1293 40.0885L61.227 40.4655L58.8288 41.422L58.1716 38.8924L58.5055 38.7593L58.4007 38.3567L60.8788 37.3699L61.5427 39.9253L61.1293 40.0885ZM58.7657 44.7609L58.8639 45.1393L56.465 46.0946L55.8072 43.5634L56.1415 43.4307L56.0371 43.0296L58.5127 42.0425L59.1764 44.5962L58.7657 44.7609ZM56.4021 49.4333L56.5007 49.8132L54.097 50.7702L53.439 48.2378L53.7766 48.1052L53.673 47.7053L56.1475 46.7191L56.8106 49.2716L56.4021 49.4333ZM33.1376 37.6351L33.0386 37.2538L35.5316 36.2609L36.193 38.8062L35.7749 38.9724L35.8761 39.3608L33.4827 40.3137L32.821 37.7641L33.1376 37.6351ZM35.501 32.9624L35.4018 32.58L37.8974 31.5874L38.5592 34.1337L38.1394 34.3004L38.2395 34.6863L35.8466 35.6378L35.1844 33.0886L35.501 32.9624ZM41.2417 30.6852L41.9022 33.2272L39.4136 34.2179L39.3132 33.8324L38.9916 33.9614L38.3277 31.4138L40.7176 30.461L40.8189 30.8512L41.2417 30.6852ZM45.3664 32.7829L46.0257 35.3182L43.5428 36.3068L43.4439 35.9271L43.1154 36.0581L42.4521 33.5053L44.8499 32.5507L44.9527 32.9468L45.3664 32.7829ZM49.4913 34.8803L50.1487 37.4106L47.6713 38.3967L47.5744 38.0231L47.2403 38.156L46.5754 35.5975L48.9774 34.6411L49.0822 35.0432L49.4913 34.8803ZM53.616 36.978L54.2719 39.5023L51.8001 40.486L51.7035 40.1171L51.3632 40.2522L50.6967 37.6877L53.1045 36.7291L53.2101 37.1355L53.616 36.978ZM54.6459 42.6738L54.7428 43.047L52.3384 44.0047L51.682 41.479L52.0223 41.3439L51.9168 40.9375L54.3886 39.9538L55.0541 42.5124L54.6459 42.6738ZM48.9986 44.9265L48.3328 42.3637L50.7418 41.4044L50.8474 41.8108L51.2486 41.6517L51.9049 44.177L49.4331 45.1607L49.337 44.7913L48.9986 44.9265ZM44.8739 42.8283L44.2098 40.2713L46.6141 39.3133L46.7182 39.7142L47.1261 39.5515L47.7842 42.083L45.3091 43.0697L45.2116 42.6944L44.8739 42.8283ZM40.7492 40.7307L40.0875 38.181L42.4855 37.2261L42.5876 37.6206L43.0014 37.4557L43.6604 39.9937L41.1791 40.9815L41.0799 40.6005L40.7492 40.7307ZM39.6319 35.0575L39.531 34.6688L42.0197 33.6781L42.6827 36.2306L42.269 36.3954L42.3678 36.775L39.9703 37.7299L39.3091 35.1863L39.6319 35.0575ZM50.5301 40.5862L50.6267 40.9551L48.2177 41.9143L47.5597 39.3828L47.8937 39.2499L47.7896 38.8495L50.2656 37.8619L50.9321 40.4264L50.5301 40.5862ZM46.3997 38.4907L46.4966 38.8643L44.0921 39.8221L43.4331 37.2846L43.7616 37.1537L43.6592 36.759L46.1422 35.7705L46.8067 38.3289L46.3997 38.4907ZM38.356 35.1366L38.4569 35.5253L38.8764 35.3583L39.5374 37.9017L37.0504 38.8918L36.9497 38.5048L36.6252 38.6342L35.9641 36.0891L38.356 35.1366ZM37.2683 39.7299L37.1685 39.3443L39.6557 38.354L40.3188 40.9051L39.9063 41.0693L40.0053 41.4506L37.6062 42.4057L36.9448 39.8608L37.2683 39.7299ZM41.399 41.8252L41.2971 41.4319L43.7783 40.444L44.4431 43.0023L44.0363 43.1643L44.1339 43.5391L41.7292 44.4966L41.0695 41.9575L41.399 41.8252ZM45.5295 43.9206L45.4261 43.5214L47.9011 42.5348L48.5671 45.0978L48.1663 45.2574L48.2624 45.6267L45.8517 46.5866L45.1935 44.0535L45.5295 43.9206ZM49.6595 46.0161L49.5539 45.6097L52.0258 44.626L52.6903 47.1845L52.284 47.3461L52.3813 47.7207L49.9764 48.6779L49.318 46.1523L49.6595 46.0161ZM53.5551 47.2535L53.458 46.8792L53.1204 47.0117L52.4558 44.4542L54.8603 43.4964L54.9646 43.8975L55.3719 43.7356L56.0297 46.2663L53.5551 47.2535ZM55.9178 42.5801L55.8208 42.207L55.4865 42.3396L54.8216 39.7806L57.2243 38.824L57.3291 39.2266L57.738 39.0639L58.3952 41.5935L55.9178 42.5801ZM57.0099 38.0019L57.1064 38.3736L54.7037 39.3302L54.0478 36.8059L54.3871 36.6718L54.2815 36.2654L56.7534 35.2817L57.4185 37.8419L57.0099 38.0019ZM52.8935 35.9121L52.989 36.2783L50.5809 37.2372L49.9236 34.7069L50.2574 34.5737L50.1529 34.1719L52.6315 33.1851L53.2981 35.7508L52.8935 35.9121ZM48.7633 33.8169L48.8597 34.189L46.4577 35.1455L45.7987 32.6094L46.126 32.4791L46.0232 32.083L48.5075 31.0941L49.1738 33.655L48.7633 33.8169ZM44.6328 31.7214L44.731 32.0998L42.3345 33.0538L41.674 30.5117L41.9955 30.3836L41.8942 29.9935L44.3843 29.0024L45.0478 31.5563L44.6328 31.7214ZM40.5028 29.6268L40.6027 30.011L38.2129 30.9638L37.5502 28.4151L37.8658 28.2894L37.7664 27.9052L40.262 26.9117L40.9247 29.4604L40.5028 29.6268ZM36.5909 28.373L36.6906 28.7569L37.117 28.5871L37.7799 31.1356L35.2853 32.1287L35.1837 31.7374L34.8665 31.8633L34.2061 29.3229L36.5909 28.373ZM34.2282 33.0464L34.3277 33.4291L34.7532 33.2602L35.4154 35.8094L32.9212 36.803L32.8189 36.41L32.5002 36.5368L31.8406 33.9976L34.2282 33.0464ZM57.6736 49.3455L57.5747 48.9659L57.2435 49.098L56.5805 46.5454L58.9794 45.5901L59.0823 45.9862L59.495 45.8218L60.1538 48.3581L57.6736 49.3455ZM60.0362 44.6721L59.9381 44.2937L59.6081 44.4251L58.9444 41.8714L61.3421 40.9167L61.4453 41.3142L61.8593 41.1492L62.5179 43.6843L60.0362 44.6721ZM30.0824 27.2307L32.4619 26.2835L32.5601 26.6614L32.9928 26.4899L33.6565 29.0441L31.1561 30.0389L31.0519 29.6404L30.7401 29.7643L30.0824 27.2307ZM27.7176 31.9057L30.0983 30.9578L30.1963 31.3346L30.627 31.1629L31.2909 33.7183L28.7924 34.7132L28.6887 34.3143L28.3758 34.4389L27.7176 31.9057ZM25.3523 36.5807L27.7346 35.6321L27.832 36.0077L28.2606 35.8357L28.9249 38.3926L26.4285 39.3878L26.3247 38.9871L26.01 39.1124L25.3523 36.5807ZM26.9932 42.896L26.328 40.3382L26.6424 40.2132L26.547 39.8377L29.0443 38.8435L29.7038 41.381L29.2802 41.5481L29.3826 41.9423L26.9932 42.896ZM31.1165 44.9877L30.4537 42.4354L30.7736 42.308L30.675 41.9281L33.1658 40.9354L33.8265 43.479L33.4106 43.6459L33.5115 44.0341L31.1165 44.9877ZM35.2397 47.0794L34.5784 44.5331L34.9061 44.4038L34.8058 44.0177L37.2919 43.0281L37.9538 45.5775L37.543 45.741L37.6424 46.1237L35.2397 47.0794ZM39.3629 49.1711L38.7031 46.6308L39.0347 46.4987L38.9325 46.1072L41.4127 45.1197L42.0766 47.6751L41.6713 47.8367L41.769 48.2132L39.3629 49.1711ZM43.4871 51.2623L42.8285 48.7277L43.1666 48.5947L43.0633 48.1972L45.5374 47.2115L46.203 49.7731L45.8024 49.9329L45.8978 50.3029L43.4871 51.2623ZM47.611 53.3557L46.9538 50.8271L47.2963 50.69L47.1926 50.2855L49.6622 49.3039L50.3263 51.86L49.9189 52.0203L50.0165 52.3961L47.611 53.3557ZM51.7342 55.4474L51.0749 52.9126L51.4135 52.7791L51.31 52.3808L53.7836 51.3955L54.4453 53.9452L54.0354 54.1082L54.1344 54.4895L51.7342 55.4474ZM55.8575 57.5391L55.1962 54.9987L55.5298 54.8653L55.4278 54.4726L57.9061 53.486L58.5675 56.0314L58.1528 56.1967L58.2531 56.5832L55.8575 57.5391ZM61.9126 55.1276L59.4285 56.1163L59.3282 55.7298L59.0006 55.8603L58.3398 53.3126L60.7344 52.3609L60.8357 52.7501L61.2519 52.5844L61.9126 55.1276ZM64.2777 50.4524L61.7924 51.4418L61.6923 51.0569L61.3662 51.1866L60.7044 48.6398L63.0982 47.6864L63.1998 48.0772L63.6174 47.9106L64.2777 50.4524ZM66.6421 45.7769L64.1556 46.767L64.0561 46.3833L63.7312 46.5128L63.0685 43.964L65.4612 43.0113L65.5632 43.4036L65.9822 43.2366L66.6421 45.7769ZM69.0072 41.1017L66.519 42.0924L66.42 41.7102L66.0962 41.839L65.4343 39.2896L67.8246 38.3363L67.9282 38.7308L68.3484 38.5636L69.0072 41.1017ZM67.3662 34.7864L68.029 37.3377L67.6088 37.5049L67.7076 37.886L65.3175 38.839L64.6591 36.3056L64.9865 36.1753L64.8828 35.7763L67.3662 34.7864ZM63.2421 32.6937L63.9062 35.2503L63.491 35.4155L63.5888 35.7911L61.1925 36.7453L60.5362 34.2181L60.8698 34.0848L60.7656 33.6798L63.2421 32.6937ZM59.1205 30.6023L59.7863 33.1642L59.3759 33.3277L59.4718 33.6972L57.0705 34.6534L56.4148 32.1308L56.7533 31.9973L56.6459 31.589L59.1205 30.6023ZM54.9973 28.5106L55.6643 31.0777L55.2592 31.239L55.354 31.6041L52.9489 32.5611L52.2917 30.0325L52.6234 29.9004L52.5194 29.4958L54.9973 28.5106ZM50.874 26.4189L51.5394 28.9803L51.1285 29.1438L51.2241 29.5136L48.8233 30.4698L48.1647 27.9347L48.4908 27.8051L48.3873 27.4078L50.874 26.4189ZM46.7508 24.3272L47.4147 26.8826L46.9983 27.0485L47.0961 27.4255L44.7015 28.3786L44.0414 25.838L44.3615 25.7104L44.2597 25.3188L46.7508 24.3272ZM42.6273 22.2357L43.2898 24.7847L42.869 24.9543L42.9685 25.337L40.5796 26.2889L39.9178 23.7421L40.2324 23.6168L40.1323 23.2315L42.6273 22.2357ZM39.1651 22.6875L38.7376 22.8583L38.8383 23.2462L36.4536 24.1942L35.7904 21.6415L36.099 21.5186L36.0006 21.139L38.5032 20.1426L39.1651 22.6875Z" fill="white"/>
<g style="mix-blend-mode:multiply">
<path d="M35.0125 14.6351C34.0107 14.1272 32.7575 14.5888 32.2119 15.6654L22.5663 34.7309L55.5156 59.4548C56.4141 60.1289 57.7296 59.8928 58.4531 58.9269L74.223 37.8859L74.589 37.1621C75.1341 36.085 74.7635 34.8001 73.7617 34.2917L35.0125 14.6351Z" fill="#E5E5E5"/>
</g>
<path d="M73.9003 33.8266C74.7987 34.5008 74.9409 35.8306 74.2169 36.7965L57.4857 59.1213C56.7617 60.0871 55.4472 60.3228 54.5478 59.6491L19.7881 33.5666C18.8897 32.8925 18.7477 31.5628 19.4717 30.597L36.2041 8.27105C36.9281 7.30521 38.2426 7.06954 39.1421 7.74323L73.9003 33.8266Z" fill="white"/>
<path d="M74.3257 36.8774L57.5942 59.2019C56.8267 60.226 55.4236 60.4749 54.4668 59.7566L19.7072 33.6746C18.7499 32.9563 18.5959 31.5388 19.3634 30.5147L36.0958 8.18877C36.8631 7.1649 38.2662 6.91609 39.2234 7.63436L73.9831 33.7164C74.9387 34.4358 75.0925 35.8535 74.3257 36.8774ZM19.5803 30.6776C18.9025 31.5822 19.0321 32.8292 19.8697 33.4575L54.6294 59.54C55.4665 60.1682 56.6994 59.9433 57.3771 59.0392L74.1095 36.7133C74.7875 35.809 74.6577 34.5617 73.8203 33.9337L39.0592 7.85162C38.2218 7.22314 36.9892 7.44827 36.3112 8.35261L19.5803 30.6776Z" fill="#E6E6E6"/>
<path d="M70.7379 38.138L57.8014 55.3996C56.8871 56.6195 55.2576 56.956 54.1816 56.1492L23.3043 32.9811C22.2272 32.174 22.0945 30.5151 23.0095 29.2945L35.9458 12.0331C36.8603 10.813 38.4896 10.4767 39.5656 11.2835L70.4429 34.4516C71.52 35.2587 71.6527 36.9177 70.7377 38.1383" fill="#DB0000"/>
<path d="M41.5425 12.7658L41.5862 13.3097L38.9476 13.8561L38.915 13.4498L38.5894 13.5173L38.3807 10.9044L38.5579 10.8679C37.993 10.7862 37.3902 10.9108 36.8572 11.221L37.926 11.0006L38.1348 13.613L37.6777 13.7077L37.7101 14.1142L35.2032 14.6332L35.0865 13.1817L34.6676 13.7404L34.7467 14.727L33.7781 14.9275L33.3589 15.4865L34.7839 15.1915L34.9925 17.8028L34.5369 17.897L34.5694 18.3047L32.0602 18.8237L31.9433 17.3714L31.5241 17.9304L31.6032 18.9169L30.6346 19.1175L30.2157 19.6762L31.6415 19.3826L31.8499 21.9922L31.396 22.0863L31.4285 22.4955L28.9188 23.0153L28.8028 21.5645L28.3857 22.1238L28.4618 23.109L27.4932 23.3096L27.0743 23.8683L28.4987 23.5733L28.7065 26.1808L28.2538 26.2746L28.2867 26.6852L25.7753 27.2053L25.6593 25.7544L25.2404 26.3132L25.3195 27.2997L24.3508 27.5003L23.9317 28.0592L25.3566 27.7642L25.5651 30.371L25.1136 30.4647L25.1467 30.8769L22.6339 31.3974L22.5375 30.2015C22.307 30.9227 22.3679 31.6847 22.7046 32.2889L22.6708 31.8612L25.1837 31.3407L25.2141 31.7256L25.6656 31.632L25.8761 34.2663L25.2046 34.4052L25.6976 34.7752L25.9132 34.7308L25.9309 34.9503L26.4241 35.3201L26.3695 34.6363L28.8879 34.1144L28.9191 34.5055L29.3646 34.4133L29.5768 37.0441L28.9052 37.1832L29.3986 37.5533L29.614 37.5086L29.6317 37.7281L30.1249 38.0984L30.0703 37.4146L32.595 36.8917L32.627 37.289L33.0668 37.1985L33.2765 39.8207L32.6048 39.9593L33.098 40.3296L33.3134 40.2849L33.3313 40.5047L33.8245 40.8745L33.7699 40.1907L36.3009 39.6666L36.3328 40.0703L36.7662 39.9802L36.9754 42.596L36.3037 42.7352L36.7969 43.105L37.0126 43.0605L37.0302 43.2801L37.5232 43.6501L37.4686 42.9663L40.0043 42.4423L40.037 42.8517L40.4645 42.7632L40.6725 45.3704L40.0015 45.5093L40.4947 45.8796L40.7101 45.8349L40.7278 46.0545L41.221 46.4248L41.1666 45.7407L43.7095 45.2141L43.7425 45.6297L44.1645 45.5417L44.3724 48.1449L43.7007 48.284L44.1939 48.6538L44.4096 48.6094L44.427 48.8292L44.9202 49.199L44.8656 48.5151L47.4034 47.9915L47.4362 48.4013L47.8629 48.313L48.0701 50.9209L47.3987 51.0598L47.8919 51.4301L48.1073 51.3854L48.125 51.605L48.6179 51.975L48.5636 51.291L51.0943 50.7675L51.1267 51.1722L51.5589 51.0828L51.7679 53.697L51.0962 53.8361L51.5894 54.2064L51.805 54.1615L51.8225 54.3813L52.3159 54.7513L52.2613 54.0675L54.788 53.5442L54.8199 53.9433L55.2585 53.854L55.467 56.4749L55.0951 56.5518C55.7177 56.6682 56.3949 56.5285 56.9775 56.1627L55.9221 56.3812L55.7126 53.7616L56.058 53.6897L56.0261 53.2905L58.645 52.7483L58.7555 54.1285L59.1742 53.5695L59.102 52.6496L60.0012 52.4635L60.4201 51.9043L59.0648 52.185L58.8555 49.5666L59.2004 49.4943L59.1684 49.0939L61.7885 48.5514L61.899 49.9317L62.3179 49.3725L62.2446 48.4567L63.1438 48.2707L63.5625 47.7117L62.2076 47.9944L61.9985 45.3776L62.341 45.3066L62.3087 44.9046L64.9303 44.3617L65.0408 45.7419L65.4595 45.183L65.3864 44.267L66.2856 44.081L66.7043 43.522L65.349 43.8027L65.1401 41.1872L65.4812 41.1166L65.4487 40.7129L68.0718 40.1696L68.1822 41.5503L68.6011 40.9911L68.5278 40.0753L69.4271 39.8893L69.846 39.3301L68.4907 39.6108L68.2819 36.9969L68.6214 36.9265L68.589 36.5214L71.2134 35.9777L71.2889 36.9207C71.3962 36.4154 71.3541 35.8895 71.1678 35.4072L71.176 35.5139L68.5516 36.0571L68.5202 35.6649L68.1805 35.7355L67.9705 33.1085L68.5043 32.998L68.0111 32.6277L67.9341 32.6433L67.9276 32.564L67.4346 32.1939L67.4783 32.7378L64.8588 33.2801L64.8291 32.8945L64.4837 32.9663L64.2732 30.3339L64.8073 30.2236L64.3138 29.8535L64.2365 29.869L64.2303 29.7898L63.7371 29.4195L63.7805 29.9637L61.1668 30.5047L61.1364 30.1238L60.786 30.1962L60.575 27.5583L61.1088 27.4478L60.6158 27.0777L60.5386 27.0931L60.5323 27.014L60.0391 26.6437L60.0827 27.1876L57.474 27.7276L57.4435 27.3524L57.0876 27.4263L56.8765 24.783L57.4103 24.6724L56.9169 24.3023L56.8398 24.318L56.8334 24.2386L56.3364 23.8663L56.3798 24.41L53.7654 24.9517L53.7349 24.5696L53.3852 24.6423L53.175 22.0049L53.7091 21.8941L53.2159 21.5243L53.1389 21.54L53.1326 21.4604L52.6394 21.0905L52.6828 21.6342L50.0624 22.1769L50.0313 21.7889L49.6864 21.8612L49.4758 19.2312L50.0096 19.1206L49.5167 18.7506L49.4394 18.766L49.4331 18.6869L48.9399 18.3166L48.9836 18.8605L46.357 19.4044L46.3256 19.0102L45.9876 19.0802L45.7781 16.4551L46.3119 16.3445L45.8184 15.9745L45.7414 15.9902L45.7352 15.9106L45.242 15.5408L45.2854 16.0844L42.653 16.6295L42.6209 16.2292L42.2892 16.2979L42.0799 13.6791L42.6138 13.5711L42.1206 13.2008L42.0434 13.2162L42.0371 13.1371L41.5425 12.7658ZM35.2385 15.0967L37.7454 14.5777L37.7768 14.9686L38.2338 14.8739L38.444 17.5021L35.8069 18.048L35.7744 17.6403L35.4471 17.708L35.2385 15.0967ZM41.9329 17.6543L42.1423 20.2762L39.5111 20.8212L39.4791 20.4194L39.1461 20.4884L38.9365 17.8711L41.4499 17.3507L41.4813 17.7479L41.9329 17.6543ZM45.6321 20.4358L45.8415 23.0519L43.2163 23.5953L43.1845 23.1997L42.8458 23.2699L42.6355 20.647L45.1541 20.1248L45.1891 20.5293L45.6321 20.4358ZM49.3313 23.2174L49.5402 25.827L46.9209 26.3695L46.8899 25.9801L46.5443 26.0517L46.3339 23.4224L48.8592 22.8995L48.8922 23.3072L49.3313 23.2174ZM53.0305 25.9989L53.2386 28.6023L50.6266 29.1427L50.5954 28.7585L50.2441 28.8314L50.0334 26.1954L52.5644 25.6712L52.5979 26.0868L53.0305 25.9989ZM56.7297 28.7805L56.9378 31.378L54.3308 31.9178L54.2993 31.5416L53.9423 31.6157L53.7309 28.974L56.2678 28.4484L56.3016 28.8702L56.7297 28.7805ZM60.4282 31.5504L60.6363 34.1533L58.0245 34.694L57.9928 34.3102L57.641 34.383L57.4304 31.7466L59.9618 31.2225L59.9953 31.6385L60.4282 31.5504ZM64.1263 34.32L64.3338 36.9277L61.7163 37.4696L61.6853 37.0816L61.3394 37.1529L61.1288 34.5219L63.6553 33.9988L63.6882 34.4094L64.1263 34.32ZM64.14 40.1104L64.1715 40.5038L61.6492 41.0264L61.4405 38.4165L61.7864 38.3451L61.7536 37.9358L64.3712 37.3939L64.5812 40.0194L64.14 40.1104ZM61.0012 44.3014L61.0329 44.6965L58.5089 45.2192L58.3001 42.6077L58.6481 42.5357L58.6155 42.128L61.2316 41.5861L61.4425 44.2095L61.0012 44.3014ZM57.861 48.4914L57.8927 48.888L55.3675 49.4109L55.1587 46.798L55.5077 46.7255L55.4753 46.3195L58.0902 45.7782L58.2999 48.4004L57.861 48.4914ZM51.9159 49.7268L51.7057 47.1L54.2364 46.5761L54.2688 46.9822L54.7024 46.8924L54.91 49.5051L52.2977 50.0452L52.2664 49.6525L51.9159 49.7268ZM48.219 46.9555L48.0084 44.3235L50.5437 43.7991L50.5768 44.2108L51.005 44.1221L51.213 46.7293L48.605 47.2696L48.5741 46.8823L48.219 46.9555ZM44.5206 44.1856L44.31 41.5482L46.8497 41.0227L46.8832 41.4401L47.3056 41.3526L47.5138 43.9546L44.9108 44.4929L44.8802 44.1113L44.5206 44.1856ZM40.8213 41.404L40.6108 38.7725L43.1458 38.2478L43.1787 38.6589L43.6074 38.5701L43.8154 41.1774L41.205 41.7176L41.1739 41.33L40.8213 41.404ZM37.1221 38.6225L36.9121 35.9974L39.4414 35.4735L39.474 35.8784L39.9088 35.7884L40.1178 38.4025L37.5031 38.944L37.4716 38.55L37.1221 38.6225ZM33.4229 35.8409L33.2108 33.2215L35.7341 32.699L35.766 33.0977L36.2068 33.0063L36.4153 35.6272L33.7961 36.1707L33.764 35.7708L33.4229 35.8409ZM29.7237 33.0594L29.5147 30.4462L32.032 29.9252L32.0632 30.3177L32.5102 30.225L32.7199 32.8518L30.0916 33.3963L30.0593 32.9903L29.7237 33.0594ZM29.5963 27.2828L29.5664 26.8974L32.2006 26.3519L32.4088 28.9631L31.962 29.0555L31.9944 29.4602L29.4768 29.9814L29.2665 27.3488L29.5963 27.2828ZM32.7365 23.0928L32.7057 22.705L35.3412 22.1569L35.5504 24.7726L35.1022 24.8655L35.1344 25.2685L32.6178 25.7888L32.4075 23.1576L32.7365 23.0928ZM35.8767 18.9027L35.8457 18.5133L38.4828 17.9673L38.6919 20.5845L38.2423 20.6778L38.2746 21.0794L35.7601 21.6L35.5499 18.9705L35.8767 18.9027ZM60.4486 37.3407L60.4797 37.7287L57.9521 38.252L57.744 35.6476L58.0956 35.575L58.0625 35.1604L60.6743 34.6198L60.8847 37.2505L60.4486 37.3407ZM57.3085 41.5307L57.3397 41.9204L54.8106 42.4441L54.6019 39.8376L54.9549 39.7646L54.9221 39.3516L57.5334 38.8105L57.7438 41.4398L57.3085 41.5307ZM54.1683 45.7208L54.1995 46.1119L51.6688 46.6358L51.4608 44.0286L51.8152 43.9551L51.7823 43.5436L54.392 43.0031L54.6022 45.6312L54.1683 45.7208ZM33.2995 30.0607L33.2681 29.6684L35.8961 29.1241L36.1049 31.7453L35.6643 31.8365L35.6962 32.2352L33.1729 32.7577L32.9629 30.1312L33.2995 30.0607ZM36.4397 25.8706L36.4083 25.4769L39.0378 24.9322L39.2475 27.5544L38.8059 27.6465L38.8384 28.0433L36.3164 28.5663L36.1052 25.9424L36.4397 25.8706ZM42.49 24.6258L42.6993 27.2433L40.0756 27.7863L40.0439 27.3893L39.7037 27.4599L39.4943 24.838L42.0139 24.3149L42.0459 24.7166L42.49 24.6258ZM46.1892 27.4074L46.3983 30.0186L43.7805 30.5607L43.7495 30.1699L43.4035 30.241L43.1933 27.6129L45.7197 27.0898L45.7523 27.4975L46.1892 27.4074ZM49.8885 30.1889L50.0977 32.795L47.4861 33.3358L47.4554 32.9512L47.1029 33.0242L46.8919 30.3899L49.4246 29.8656L49.4576 30.2792L49.8885 30.1889ZM53.5877 32.9705L53.7969 35.5706L51.1912 36.11L51.1608 35.7315L50.8023 35.8055L50.5914 33.1653L53.1297 32.6397L53.1633 33.0598L53.5877 32.9705ZM53.614 38.7576L53.6449 39.1421L51.1101 39.667L50.9024 37.0665L51.2611 36.9922L51.2275 36.5735L53.8331 36.0341L54.0435 38.6689L53.614 38.7576ZM47.6596 39.9948L47.4486 37.3559L49.9883 36.83L50.022 37.2486L50.4461 37.1604L50.654 39.7613L48.0501 40.3005L48.0195 39.9203L47.6596 39.9948ZM43.9604 37.2132L43.7498 34.5803L46.2844 34.0551L46.3173 34.4676L46.7478 34.3785L46.9563 36.9852L44.3454 37.5268L44.3155 37.1414L43.9604 37.2132ZM40.2611 34.4317L40.0511 31.8052L42.579 31.2817L42.6116 31.688L43.0476 31.5978L43.2566 34.2105L40.6408 34.7522L40.6091 34.3597L40.2611 34.4317ZM40.1467 28.6527L40.1144 28.2526L42.7381 27.7095L42.9481 30.3374L42.512 30.4275L42.5425 30.8179L40.0147 31.3414L39.8054 28.7226L40.1467 28.6527ZM49.9208 35.9865L49.951 36.3652L47.4112 36.8912L47.2027 34.2844L47.5552 34.2114L47.5223 33.7989L50.1339 33.258L50.3451 35.8985L49.9208 35.9865ZM46.2156 33.2064L46.2463 33.5911L43.7117 34.1163L43.503 31.5038L43.8488 31.4324L43.8162 31.0261L46.434 30.484L46.6444 33.1184L46.2156 33.2064ZM38.8748 28.508L38.9069 28.9084L39.3484 28.8163L39.5589 31.4359L36.9368 31.9788L36.9046 31.5803L36.5628 31.6511L36.3541 29.0299L38.8748 28.508ZM37.0058 32.842L36.9742 32.4431L39.5962 31.9002L39.806 34.5269L39.3705 34.6166L39.403 35.0091L36.8726 35.5328L36.6638 32.9116L37.0058 32.842ZM40.711 35.6221L40.6788 35.2172L43.2947 34.6755L43.5055 37.3082L43.0766 37.3972L43.1065 37.7825L40.5718 38.3075L40.3626 35.6931L40.711 35.6221ZM44.4162 38.4022L44.3833 37.9911L46.9944 37.4498L47.2057 40.0888L46.783 40.1761L46.8134 40.5565L44.2697 41.0847L44.0619 38.4773L44.4162 38.4022ZM48.1214 41.1823L48.0882 40.7655L50.6921 40.2263L50.9026 42.8596L50.4747 42.9482L50.5049 43.3333L47.9697 43.8578L47.7617 41.256L48.1214 41.1823ZM51.744 43.0774L51.7138 42.6922L51.3591 42.7654L51.1487 40.1321L53.6834 39.6071L53.7165 40.0203L54.1459 39.9314L54.3549 42.5377L51.744 43.0774ZM54.8842 38.8859L54.8533 38.5014L54.5001 38.5747L54.2894 35.9397L56.8237 35.4142L56.8568 35.8288L57.2875 35.7395L57.4959 38.3441L54.8842 38.8859ZM56.7548 34.5683L56.7865 34.9521L54.2522 35.4775L54.0446 32.8786L54.4017 32.8045L54.3681 32.3845L56.9749 31.8449L57.1858 34.4811L56.7548 34.5683ZM53.0619 31.7974L53.0933 32.1736L50.555 32.6991L50.3457 30.0931L50.6966 30.0202L50.6638 29.6063L53.2758 29.0659L53.487 31.7078L53.0619 31.7974ZM49.3567 29.0173L49.3881 29.4013L46.8555 29.9256L46.6469 27.3144L46.9923 27.2425L46.9597 26.8348L49.5794 26.2923L49.7901 28.9283L49.3567 29.0173ZM45.6515 26.2372L45.6825 26.6267L43.1561 27.1498L42.9467 24.5323L43.2859 24.4621L43.2536 24.0606L45.8788 23.5171L46.089 26.1466L45.6515 26.2372ZM41.9461 23.4569L41.9778 23.8525L39.4583 24.3756L39.2479 21.7527L39.5809 21.6837L39.5492 21.2881L42.1801 20.7434L42.3904 23.3663L41.9461 23.4569ZM38.3106 21.5427L38.3423 21.9383L38.7917 21.8452L39.0021 24.4682L36.3726 25.0129L36.3403 24.6095L36.0057 24.6772L35.7964 22.0612L38.3106 21.5427ZM35.171 25.7349L35.2026 26.1293L35.6508 26.0364L35.8618 28.6601L33.2318 29.2053L33.1997 28.8005L32.8636 28.87L32.6544 26.2552L35.171 25.7349ZM55.4379 45.8547L55.4067 45.4636L55.0573 45.536L54.8471 42.9079L57.3764 42.3844L57.409 42.7921L57.844 42.702L58.0528 45.3135L55.4379 45.8547ZM58.5781 41.6632L58.5469 41.2736L58.1989 41.3456L57.9888 38.716L60.5164 38.1927L60.5494 38.6019L60.9856 38.5115L61.1943 41.1213L58.5781 41.6632ZM32.098 19.2889L34.6063 18.7695L34.6376 19.1587L35.0932 19.0644L35.3035 21.6942L32.6672 22.2395L32.6344 21.8301L32.3053 21.8968L32.098 19.2889ZM28.9559 23.4798L31.4652 22.9595L31.4963 23.3475L31.9504 23.2537L32.161 25.8847L29.5263 26.4297L29.4936 26.0189L29.1646 26.0878L28.9559 23.4798ZM25.8143 27.6717L28.3264 27.151L28.3564 27.5364L28.8091 27.4425L29.0196 30.0754L26.3868 30.6205L26.3539 30.208L26.0226 30.2768L25.8143 27.6717ZM26.3342 34.1742L26.1235 31.5402L26.455 31.4716L26.4243 31.0869L29.0572 30.5418L29.2662 33.1545L28.8204 33.2465L28.8528 33.6525L26.3342 34.1742ZM30.0324 36.9503L29.8222 34.3222L30.1597 34.2522L30.1283 33.8613L32.7552 33.3172L32.9632 35.9376L32.5236 36.0279L32.5555 36.428L30.0324 36.9503ZM33.7321 39.7245L33.5227 37.1026L33.8659 37.0313L33.8344 36.6341L36.4549 36.0914L36.6649 38.7169L36.2315 38.8064L36.2631 39.2004L33.7321 39.7245ZM37.4306 42.4999L37.2216 39.8843L37.5711 39.8119L37.5389 39.4085L40.1536 38.867L40.3639 41.4982L39.9364 41.5867L39.9675 41.9748L37.4306 42.4999ZM41.1305 45.2743L40.9216 42.6647L41.2772 42.5911L41.2445 42.1817L43.853 41.6414L44.0638 44.2791L43.6419 44.3671L43.6724 44.7487L41.1305 45.2743ZM44.8302 48.0486L44.6221 45.4451L44.9834 45.3702L44.9504 44.9547L47.5532 44.4157L47.7632 47.0476L47.3336 47.1382L47.3647 47.5253L44.8302 48.0486ZM48.5301 50.823L48.3226 48.2153L48.6785 48.1415L48.6457 47.7316L51.2538 47.1913L51.4638 49.8178L51.0318 49.9074L51.0629 50.2999L48.5301 50.823ZM52.2298 53.5972L52.0206 50.9829L52.3715 50.91L52.339 50.5054L54.9516 49.9655L55.1605 52.5869L54.7219 52.6763L54.7536 53.0743L52.2298 53.5972ZM58.6097 52.2793L55.991 52.8213L55.959 52.4236L55.6134 52.4952L55.4044 49.8737L57.9297 49.3508L57.9618 49.7517L58.4013 49.6614L58.6097 52.2793ZM61.7514 48.0874L59.1309 48.6301L59.0992 48.2336L58.7555 48.3048L58.5456 45.6823L61.0692 45.1596L61.1014 45.5621L61.542 45.4709L61.7514 48.0874ZM64.8928 43.8957L62.2704 44.4393L62.2387 44.0442L61.8964 44.115L61.6858 41.4918L64.2082 40.9693L64.2404 41.3732L64.6817 41.2813L64.8928 43.8957ZM68.0344 39.7039L65.4111 40.2469L65.3798 39.8532L65.0387 39.9238L64.8289 37.2985L67.3496 36.7767L67.382 37.1818L67.8243 37.089L68.0344 39.7039ZM67.5143 33.2011L67.7243 35.8281L67.282 35.9208L67.3134 36.3131L64.7938 36.8362L64.5861 34.2288L64.9315 34.1569L64.8985 33.7463L67.5143 33.2011ZM63.8146 30.4269L64.0251 33.0593L63.5863 33.1489L63.6162 33.5343L61.0898 34.0574L60.8842 31.4571L61.2343 31.3849L61.2011 30.9686L63.8146 30.4269ZM60.1149 27.6527L60.3257 30.2903L59.8933 30.3799L59.9238 30.761L57.393 31.2828L57.1853 28.6853L57.541 28.6116L57.507 28.1901L60.1149 27.6527ZM56.415 24.8782L56.6263 27.5218L56.1991 27.6101L56.2296 27.9853L53.6927 28.5109L53.4846 25.907L53.8343 25.8348L53.8008 25.4192L56.415 24.8782ZM52.7153 22.104L52.9261 24.7412L52.493 24.8309L52.5237 25.2128L49.9925 25.7367L49.7839 23.1268L50.1274 23.0558L50.0949 22.6467L52.7153 22.104ZM49.0168 19.3286L49.2311 21.9557L48.7915 22.046L48.8225 22.434L46.2973 22.9569L46.0884 20.3409L46.4259 20.2709L46.3937 19.8679L49.0168 19.3286ZM45.3169 16.5542L45.5282 19.1781L45.0828 19.2701L45.1144 19.6645L42.5961 20.1864L42.3864 17.5642L42.7179 17.4957L42.6862 17.0987L45.3169 16.5542ZM41.8277 16.3977L41.3764 16.4911L41.4085 16.8915L38.8957 17.4115L38.6855 14.7833L39.0108 14.716L38.9799 14.3252L41.6184 13.7788L41.8277 16.3977Z" fill="white"/>
<path d="M74.1173 33.3916C74.8853 34.2113 74.7942 35.5453 73.9135 36.3703L53.5552 55.4437C52.6745 56.2687 51.3375 56.2728 50.5695 55.4531L20.8566 23.7383C20.0885 22.9186 20.1799 21.5849 21.0606 20.7598L41.4189 1.68647C42.2996 0.861412 43.6364 0.857064 44.4044 1.67683L74.1173 33.3916Z" fill="white"/>
<path d="M74.0069 36.469L53.6485 55.5423C52.7146 56.4173 51.2902 56.4196 50.4713 55.5456L20.7582 23.8306C19.94 22.9572 20.0342 21.535 20.9681 20.6601L41.3264 1.58672C42.2603 0.711786 43.6847 0.709422 44.5039 1.58374L74.2165 33.2982C75.035 34.1718 74.941 35.5938 74.0069 36.469ZM21.1548 20.8595C20.3301 21.6321 20.2412 22.8822 20.9572 23.6465L50.6687 55.3597C51.3845 56.1237 52.6379 56.1166 53.4627 55.3439L73.821 36.2706C74.6458 35.4979 74.7345 34.2475 74.0187 33.4836L44.3061 1.76907C43.5901 1.00483 42.3368 1.01221 41.5121 1.78488L21.1548 20.8595Z" fill="#E6E6E6"/>
<path d="M70.2538 37.0878L54.5128 51.8352C53.4004 52.8774 51.7373 52.9266 50.8171 51.9444L24.4231 23.7722C23.5029 22.7899 23.6602 21.1336 24.7726 20.0914L40.5136 5.34398C41.6262 4.30156 43.2893 4.25244 44.2095 5.23464L70.6035 33.4068C71.5237 34.389 71.3664 36.0454 70.2538 37.0878Z" fill="#DB0000"/>
<path d="M45.8994 7.03832L45.8478 7.58091L43.1537 7.66073L43.1933 7.25612L42.8608 7.26586L43.1087 4.6573L43.2882 4.65312C42.746 4.47479 42.1298 4.49353 41.5511 4.70451L42.6417 4.67225L42.3937 7.28081L41.927 7.29458L41.8873 7.69918L39.3277 7.77472L39.4654 6.326L38.9555 6.80374L38.8619 7.78853L37.8731 7.81779L37.3634 8.2953L38.818 8.25223L38.5701 10.8594L38.105 10.873L38.0663 11.2804L35.505 11.3562L35.6427 9.90743L35.1342 10.3838L35.0406 11.3686L34.0516 11.3981L33.5419 11.8756L34.9965 11.8325L34.7489 14.438L34.2853 14.4516L34.2465 14.8605L31.6837 14.9362L31.8214 13.4875L31.3117 13.965L31.2179 14.95L30.2291 14.9793L29.7195 15.4568L31.1741 15.4137L30.9265 18.0178L30.4642 18.0315L30.4254 18.4418L27.861 18.5176L27.9987 17.0689L27.4902 17.5453L27.3967 18.5301L26.4079 18.5593L25.8967 19.0382L27.3513 18.9952L27.1041 21.5976L26.6432 21.6113L26.6043 22.023L24.0385 22.0989L24.152 20.9057C23.8002 21.5767 23.728 22.3361 23.9539 22.9899L23.9944 22.5628L26.56 22.4867L26.5236 22.8713L26.9845 22.8576L26.7344 25.4874L26.0494 25.5081L26.4709 25.9579L26.691 25.9516L26.6703 26.1708L27.0918 26.6207L27.1568 25.9378L29.7283 25.8617L29.6913 26.2524L30.1464 26.2394L29.8973 28.8614L29.2109 28.8825L29.6324 29.3324L29.8525 29.326L29.8311 29.5445L30.2526 29.9944L30.3176 29.3115L32.895 29.2368L32.8573 29.6336L33.306 29.6202L33.0573 32.2377L32.3724 32.257L32.7941 32.7071L33.0142 32.7007L32.994 32.9205L33.4154 33.3703L33.4803 32.6872L36.0634 32.6098L36.0252 33.0131L36.4678 32.9999L36.2198 35.6113L35.5341 35.6317L35.9558 36.0818L36.1759 36.0755L36.1552 36.2947L36.5767 36.7446L36.6415 36.0614L39.2305 35.9859L39.1917 36.3948L39.6281 36.3819L39.3805 38.9874L38.696 39.0067L39.1175 39.4566L39.3376 39.4502L39.3169 39.6694L39.7384 40.1193L39.8032 39.4361L42.3993 39.3594L42.3599 39.7745L42.7899 39.7616L42.5429 42.3609L41.8573 42.3809L42.279 42.831L42.4991 42.8246L42.4782 43.0436L42.8999 43.4937L42.9647 42.8106L45.5556 42.7342L45.5165 43.1438L45.9522 43.1307L45.7049 45.7354L45.019 45.7556L45.4407 46.2057L45.6608 46.1994L45.6401 46.4186L46.0616 46.8685L46.1261 46.1855L48.7131 46.1078L48.6742 46.5118L49.1153 46.4985L48.8676 49.1088L48.1817 49.1289L48.6032 49.5788L48.8232 49.5724L48.8025 49.7917L49.224 50.2415L49.2888 49.5584L51.8695 49.4833L51.8308 49.8825L52.2774 49.8697L52.0288 52.4853L51.6493 52.4964C52.2422 52.719 52.9331 52.6988 53.5725 52.4401L52.495 52.472L52.7434 49.8561L53.0968 49.8466L53.1353 49.4472L55.8095 49.3682L55.6788 50.746L56.1882 50.2687L56.2751 49.3541L57.1934 49.327L57.7029 48.8497L56.3194 48.8904L56.5678 46.276L56.919 46.2657L56.9569 45.8655L59.6334 45.7856L59.5027 47.1634L60.0124 46.6859L60.099 45.7715L61.0174 45.7444L61.5271 45.2669L60.1436 45.3076L60.3917 42.6948L60.7415 42.6845L60.778 42.2828L63.455 42.2034L63.3245 43.5815L63.8342 43.104L63.9211 42.1894L64.8392 42.1625L65.3488 41.685L63.9652 41.7254L64.2134 39.1143L64.5618 39.1039L64.5998 38.7009L67.2775 38.6222L67.147 40.0003L67.6567 39.5228L67.7433 38.6084L68.6616 38.5813L69.1713 38.1038L67.7879 38.1445L68.0356 35.5347L68.3824 35.5245L68.4215 35.1204L71.0999 35.0424L71.0079 35.9839C71.2014 35.5048 71.251 34.9794 71.1507 34.4721L71.1409 34.5781L68.4611 34.6575L68.4981 34.2658L68.1514 34.276L68.4005 31.654L68.9455 31.6381L68.5238 31.188L68.4443 31.1903L68.452 31.1114L68.0303 30.6613L67.979 31.2041L65.3065 31.2821L65.3432 30.8958L64.99 30.9051L65.2398 28.277L65.7848 28.2611L65.3642 27.8122L65.2848 27.8145L65.2925 27.7356L64.8708 27.2855L64.8194 27.8283L62.1507 27.9073L62.1867 27.5268L61.8293 27.5368L62.0797 24.903L62.6247 24.8871L62.2019 24.4358L62.1227 24.4383L62.1302 24.3592L61.7084 23.9091L61.6571 24.4519L58.9936 24.5306L59.0294 24.1557L58.6661 24.1663L58.9169 21.5271L59.4619 21.5112L59.0402 21.0611L58.961 21.0636L58.9684 20.9845L58.5479 20.5356L58.4963 21.0782L55.8269 21.1574L55.8629 20.7759L55.5071 20.7877L55.7575 18.1548L56.3023 18.1387L55.8796 17.6876L55.8002 17.6899L55.8077 17.6107L55.3862 17.1609L55.3346 17.7035L52.658 17.7834L52.695 17.396L52.3442 17.4063L52.5939 14.7796L53.1387 14.7634L52.7172 14.3135L52.6377 14.3159L52.6452 14.2367L52.2237 13.7868L52.1722 14.3294L49.4897 14.408L49.5271 14.0147L49.1822 14.0249L49.4313 11.4029L49.9761 11.3868L49.556 10.9384L49.4765 10.9407L49.484 10.8615L49.0625 10.4117L49.0109 10.9543L46.323 11.0338L46.3613 10.6341L46.0226 10.6441L46.2712 8.02944L46.816 8.0133L46.3945 7.56342L46.3151 7.56574L46.3226 7.4866L45.8994 7.03832ZM39.2855 8.23825L41.8454 8.16248L41.8084 8.55271L42.2749 8.53869L42.0246 11.1619L39.3321 11.2424L39.3709 10.8354L39.0369 10.8451L39.2855 8.23825ZM45.4362 11.9198L45.1872 14.5376L42.5009 14.6169L42.5385 14.2165L42.1984 14.2265L42.4467 11.6134L45.0128 11.5374L44.9751 11.9338L45.4362 11.9198ZM48.5972 15.3006L48.3489 17.9123L45.6686 17.9916L45.7062 17.5966L45.3599 17.6069L45.6089 14.9877L48.1809 14.9116L48.1445 15.3132L48.5972 15.3006ZM51.758 18.6808L51.5102 21.2865L48.836 21.3655L48.873 20.9767L48.5198 20.986L48.7693 18.3609L51.3474 18.2846L51.3086 18.693L51.758 18.6808ZM54.9191 22.0616L54.6719 24.6612L52.0039 24.74L52.0402 24.3573L51.6825 24.3672L51.9324 21.7357L54.5169 21.6593L54.477 22.0724L54.9191 22.0616ZM58.0801 25.4425L57.8336 28.0359L55.1717 28.1144L55.2076 27.7381L54.8419 27.7482L55.0924 25.1106L57.6831 25.0339L57.6432 25.4549L58.0801 25.4425ZM61.2422 28.8118L60.9953 31.4106L58.3282 31.4895L58.3643 31.1075L58.0062 31.1168L58.2563 28.4847L60.8413 28.4083L60.8027 28.8243L61.2422 28.8118ZM64.4043 32.181L64.157 34.7854L61.4842 34.8645L61.5209 34.4768L61.1671 34.4868L61.4165 31.8603L63.9972 31.7852L63.9584 32.195L64.4043 32.181ZM63.413 37.8835L63.3754 38.2765L60.8001 38.353L61.0477 35.747L61.4018 35.7368L61.4406 35.3284L64.1133 35.2493L63.8643 37.8713L63.413 37.8835ZM59.5919 41.4633L59.5543 41.8578L56.9774 41.9339L57.2253 39.3268L57.5811 39.315L57.6198 38.908L60.2909 38.8291L60.0418 41.4511L59.5919 41.4633ZM55.7709 45.0431L55.733 45.4393L53.1546 45.5158L53.4026 42.9068L53.7584 42.895L53.7978 42.4906L56.4679 42.4117L56.2199 45.029L55.7709 45.0431ZM49.7 45.2268L49.9491 42.6048L52.5322 42.5275L52.4926 42.9321L52.9354 42.9187L52.6875 45.5277L50.0211 45.6077L50.0584 45.2158L49.7 45.2268ZM46.5379 41.8576L46.7874 39.2296L49.3761 39.1539L49.337 39.5649L49.7742 39.5518L49.5269 42.1552L46.8638 42.2339L46.9007 41.8474L46.5379 41.8576ZM43.3755 38.488L43.6257 35.8549L46.2211 35.7789L46.1816 36.1954L46.6132 36.1823L46.3664 38.7802L43.7088 38.8589L43.7453 38.4779L43.3755 38.488ZM40.2145 35.1077L40.464 32.4802L43.0525 32.4042L43.0128 32.8131L43.4506 32.8002L43.2033 35.4041L40.5407 35.4837L40.5774 35.0966L40.2145 35.1077ZM37.0532 31.7266L37.3023 29.1045L39.8847 29.0279L39.8458 29.4318L40.2898 29.4187L40.0418 32.0286L37.3738 32.1084L37.4112 31.7151L37.0532 31.7266ZM33.8934 28.3446L34.142 25.7299L36.7185 25.6537L36.6795 26.0527L37.1297 26.0393L36.881 28.6554L34.2045 28.7353L34.2427 28.3356L33.8934 28.3446ZM30.7324 24.9637L30.9803 22.3552L33.5504 22.279L33.5133 22.6712L33.9694 22.6573L33.7203 25.2793L31.0376 25.3581L31.0772 24.9535L30.7324 24.9637ZM31.611 19.253L31.6476 18.8673L34.3372 18.7875L34.089 21.3977L33.6331 21.4114L33.5945 21.8151L31.0239 21.8912L31.2737 19.2626L31.611 19.253ZM35.432 15.6732L35.4687 15.286L38.1597 15.2063L37.9114 17.818L37.4548 17.8323L37.4169 18.2353L34.848 18.3113L35.0975 15.6843L35.432 15.6732ZM39.253 12.0933L39.2897 11.7048L41.9824 11.6249L41.7339 14.2382L41.2749 14.2515L41.2385 14.6531L38.671 14.7291L38.9205 12.1036L39.253 12.0933ZM60.2575 34.513L60.2206 34.9004L57.6389 34.9764L57.8863 32.3761L58.2442 32.3665L58.2834 31.9527L60.9507 31.8736L60.7013 34.5006L60.2575 34.513ZM56.4365 38.0928L56.3993 38.4819L53.8171 38.5583L54.0644 35.9564L54.4249 35.9457L54.464 35.5332L57.1297 35.4544L56.8805 38.0797L56.4365 38.0928ZM52.6155 41.6727L52.5782 42.0631L49.9951 42.1405L50.2426 39.5374L50.6048 39.5265L50.6439 39.1155L53.3081 39.0366L53.059 41.6586L52.6155 41.6727ZM34.7782 22.6336L34.8155 22.2417L37.4989 22.1623L37.2488 24.7797L36.7989 24.7934L36.7621 25.1902L34.1854 25.2666L34.4345 22.6446L34.7782 22.6336ZM38.5992 19.0538L38.6365 18.6605L41.3207 18.5803L41.072 21.1978L40.6207 21.2114L40.583 21.6078L38.0079 21.684L38.257 19.062L38.5992 19.0538ZM44.7755 18.8788L44.5272 21.4918L41.8493 21.5703L41.887 21.1739L41.5393 21.1841L41.7882 18.5663L44.3616 18.4903L44.324 18.8907L44.7755 18.8788ZM47.9366 22.2596L47.6889 24.8665L45.0161 24.9457L45.0532 24.5554L44.6991 24.5656L44.9482 21.9436L47.5277 21.8673L47.489 22.2743L47.9366 22.2596ZM51.0978 25.6403L50.8506 28.2413L48.184 28.3201L48.2204 27.936L47.8606 27.9465L48.1104 25.3164L50.6976 25.239L50.6581 25.6521L51.0978 25.6403ZM54.2589 29.0211L54.0123 31.616L51.3519 31.6945L51.3878 31.3168L51.0216 31.3273L51.2721 28.6911L53.8642 28.6146L53.8244 29.0341L54.2589 29.0211ZM53.2788 34.7249L53.2425 35.1085L50.6547 35.1852L50.9013 32.589L51.2675 32.578L51.307 32.1601L53.9674 32.0815L53.7176 34.7121L53.2788 34.7249ZM47.1979 34.9097L47.4481 32.2747L50.0414 32.1984L50.0019 32.6162L50.4349 32.6032L50.1883 35.1995L47.5293 35.2781L47.5655 34.8988L47.1979 34.9097ZM44.0367 31.5286L44.2864 28.9L46.8743 28.8232L46.833 29.2339L47.2723 29.2211L47.0253 31.8233L44.3601 31.9022L44.3967 31.5165L44.0367 31.5286ZM40.8754 28.148L41.1245 25.5259L43.7059 25.4502L43.6663 25.8548L44.1122 25.8413L43.8642 28.4498L41.1931 28.5287L41.2305 28.1369L40.8754 28.148ZM41.7649 22.4367L41.8032 22.037L44.4811 21.9585L44.232 24.5806L43.7864 24.5943L43.7493 24.9846L41.1677 25.0606L41.4158 22.4458L41.7649 22.4367ZM50.1215 31.3562L50.0855 31.7344L47.4922 31.8112L47.7395 29.2088L48.0993 29.1978L48.1384 28.7864L50.805 28.7075L50.5545 31.3437L50.1215 31.3562ZM46.9543 27.9757L46.9177 28.36L44.33 28.437L44.578 25.8284L44.9321 25.8182L44.9717 25.4136L47.6442 25.3347L47.3944 27.9648L46.9543 27.9757ZM40.5378 22.0741L40.4996 22.4737L40.9511 22.4604L40.7025 25.0751L38.0253 25.1543L38.0642 24.7553L37.7149 24.7657L37.9635 22.1496L40.5378 22.0741ZM37.9437 26.0158L37.9826 25.6168L40.6599 25.5377L40.4108 28.1597L39.9656 28.1739L39.9283 28.5658L37.3459 28.6425L37.5943 26.0261L37.9437 26.0158ZM41.1109 29.3964L41.1495 28.9927L43.8208 28.9135L43.5711 31.5422L43.1333 31.555L43.0966 31.9408L40.5083 32.017L40.7573 29.4056L41.1109 29.3964ZM44.2781 32.777L44.3171 32.3669L46.9823 32.288L46.7319 34.9228L46.3002 34.9354L46.2643 35.315L43.6693 35.3919L43.9168 32.7879L44.2781 32.777ZM47.4455 36.1578L47.485 35.7413L50.144 35.6627L49.894 38.2921L49.4569 38.3047L49.4205 38.6897L46.832 38.7657L47.0793 36.1692L47.4455 36.1578ZM50.6856 38.6519L50.7225 38.2669L50.3603 38.2778L50.6101 35.6482L53.1982 35.5717L53.1587 35.9858L53.5973 35.9728L53.35 38.5747L50.6856 38.6519ZM54.5074 35.0714L54.5439 34.688L54.1834 34.6987L54.4333 32.0677L57.0207 31.9905L56.9815 32.4044L57.4214 32.3914L57.1745 34.9917L54.5074 35.0714ZM57.0999 31.1451L57.0636 31.5273L54.4764 31.6047L54.723 29.0099L55.0877 28.9988L55.1273 28.5795L57.7894 28.5008L57.5393 31.133L57.0999 31.1451ZM53.9432 27.7757L53.9073 28.1525L51.3157 28.2291L51.5633 25.6291L51.9208 25.619L51.9602 25.2058L54.6282 25.127L54.3774 27.7649L53.9432 27.7757ZM50.776 24.3951L50.7394 24.778L48.1525 24.8557L48.4002 22.2484L48.7535 22.2389L48.7923 21.8319L51.4665 21.7528L51.2164 24.3845L50.776 24.3951ZM47.6088 21.0146L47.5716 21.4036L44.9909 21.4787L45.2392 18.8652L45.5855 18.8549L45.6231 18.4545L48.3034 18.3752L48.054 21.0008L47.6088 21.0146ZM44.4416 17.634L44.4039 18.0289L41.8303 18.1052L42.0805 15.4844L42.4207 15.4744L42.4581 15.0797L45.1446 15.0001L44.8942 17.6197L44.4416 17.634ZM41.1931 15.1192L41.1555 15.5141L41.6146 15.5006L41.3657 18.1197L38.6812 18.2001L38.7192 17.7971L38.3776 17.807L38.6257 15.1956L41.1931 15.1192ZM37.3711 18.6999L37.3338 19.0932L37.7906 19.0786L37.5415 21.7006L34.8581 21.7801L34.897 21.3762L34.5538 21.3863L34.8018 18.7763L37.3711 18.6999ZM53.8426 42.0274L53.8798 41.637L53.524 41.6488L53.7731 39.0268L56.3553 38.9503L56.3165 39.3573L56.7617 39.3431L56.5143 41.9502L53.8426 42.0274ZM57.6643 38.4469L57.7013 38.0581L57.3455 38.0699L57.5951 35.4446L60.1766 35.3688L60.1378 35.7773L60.5837 35.7637L60.3363 38.3695L57.6643 38.4469ZM35.4628 11.8197L38.0243 11.7437L37.9874 12.1325L38.4527 12.1187L38.203 14.744L35.512 14.8237L35.5508 14.4153L35.2154 14.4249L35.4628 11.8197ZM31.6403 15.4009L34.203 15.3247L34.1663 15.7124L34.63 15.6987L34.3803 18.3255L31.6895 18.4054L31.7286 17.9953L31.3916 18.0051L31.6403 15.4009ZM27.8179 18.9821L30.3817 18.9062L30.3453 19.2922L30.8076 19.2785L30.5578 21.9067L27.8699 21.9862L27.909 21.5747L27.5706 21.5845L27.8179 18.9821ZM27.2005 25.4738L27.4503 22.8438L27.7887 22.834L27.8253 22.4497L30.5133 22.3701L30.2656 24.9789L29.8104 24.9919L29.7711 25.3963L27.2005 25.4738ZM30.3622 28.8485L30.6113 26.2265L30.9556 26.2162L30.9929 25.8258L33.6756 25.747L33.427 28.3622L32.9797 28.3742L32.9414 28.7739L30.3622 28.8485ZM33.525 32.2245L33.7737 29.6069L34.1243 29.5964L34.1622 29.1998L36.8388 29.1199L36.5897 31.7419L36.1471 31.755L36.1098 32.1483L33.525 32.2245ZM36.6879 35.6004L36.9359 32.989L37.2917 32.9772L37.3296 32.5742L39.9995 32.495L39.7498 35.1222L39.3134 35.1351L39.2767 35.5223L36.6879 35.6004ZM39.8496 38.9751L40.0972 36.3696L40.4598 36.3588L40.4989 35.9501L43.1626 35.8712L42.9122 38.5045L42.482 38.5172L42.446 38.8982L39.8496 38.9751ZM43.0124 42.3511L43.2594 39.7517L43.6284 39.7408L43.6679 39.3258L46.3255 39.2471L46.0757 41.8748L45.6398 41.8877L45.6034 42.2742L43.0124 42.3511ZM46.1753 45.727L46.4226 43.1222L46.7862 43.1114L46.8253 42.7018L49.4883 42.6231L49.2392 45.2451L48.7981 45.2583L48.7608 45.6502L46.1753 45.727ZM49.3381 49.1029L49.5861 46.4925L49.9435 46.4824L49.9822 46.0787L52.6507 45.9999L52.402 48.6165L51.9556 48.6296L51.9179 49.0269L49.3381 49.1029ZM55.8567 48.91L53.183 48.9891L53.2205 48.5915L52.8672 48.601L53.1156 45.9842L55.6942 45.9079L55.6562 46.3078L56.1034 46.2957L55.8567 48.91ZM59.6792 45.3288L57.0041 45.4078L57.0415 45.0117L56.6905 45.0222L56.939 42.404L59.5162 42.3276L59.4797 42.7292L59.9294 42.7158L59.6792 45.3288ZM63.5019 41.7474L60.8249 41.8268L60.8621 41.4323L60.5127 41.4427L60.7606 38.8218L63.3361 38.7456L63.2979 39.1488L63.749 39.1355L63.5019 41.7474ZM67.3244 38.1662L64.6467 38.2449L64.6838 37.8518L64.3359 37.8622L64.5849 35.2402L67.159 35.1639L67.1202 35.5679L67.5727 35.5546L67.3244 38.1662ZM67.9411 31.6737L67.692 34.2957L67.2395 34.309L67.2022 34.7005L64.6283 34.7765L64.8757 32.1722L65.2288 32.1629L65.2679 31.7528L67.9411 31.6737ZM64.7794 28.299L64.5299 30.9274L64.0833 30.9402L64.0466 31.3259L61.4671 31.4022L61.7142 28.8036L62.0714 28.7933L62.1109 28.3778L64.7794 28.299ZM61.6179 24.9245L61.3678 27.5581L60.9259 27.5711L60.8899 27.9516L58.3063 28.0295L58.5525 25.4362L58.9157 25.4254L58.9556 25.0045L61.6179 24.9245ZM58.4551 21.5486L58.2045 24.1876L57.7681 24.2005L57.7325 24.5756L55.1435 24.6511L55.3851 22.0485L55.7409 22.0367L55.7806 21.622L58.4551 21.5486ZM55.2934 18.1739L55.043 20.8068L54.6009 20.8199L54.5646 21.2012L51.9815 21.2786L52.2289 18.6728L52.5797 18.6625L52.6187 18.2539L55.2934 18.1739ZM52.1305 14.7979L51.8808 17.4247L51.4338 17.437L51.3971 17.8242L48.8189 17.9005L49.067 15.2886L49.4116 15.2786L49.4495 14.8756L52.1305 14.7979ZM48.9677 11.422L48.7186 14.044L48.2635 14.057L48.2261 14.4503L45.6541 14.5264L45.9029 11.9084L46.2413 11.8986L46.279 11.5022L48.9677 11.422ZM45.5576 10.6618L45.0968 10.6755L45.0587 11.0754L42.4929 11.1512L42.742 8.52919L43.0745 8.51946L43.1116 8.12923L45.8057 8.04941L45.5576 10.6618Z" fill="white"/>
</svg>
