<svg width="701" height="136" viewBox="0 0 701 136" fill="none" xmlns="http://www.w3.org/2000/svg">
<g opacity="0.4">
<rect x="630.5" y="104.5" width="70" height="31" rx="7.5" fill="#FFA500" stroke="#FFA500"/>
<path d="M650.681 127V115.832H655.481C656.515 115.832 657.315 116.136 657.881 116.744C658.446 117.352 658.729 118.168 658.729 119.192C658.729 120.216 658.446 121.032 657.881 121.64C657.315 122.248 656.515 122.552 655.481 122.552H652.489V127H650.681ZM652.489 120.968H655.369C655.827 120.968 656.185 120.851 656.441 120.616C656.697 120.371 656.825 120.024 656.825 119.576V118.808C656.825 118.36 656.697 118.019 656.441 117.784C656.185 117.539 655.827 117.416 655.369 117.416H652.489V120.968ZM663.535 127.192C662.959 127.192 662.431 127.091 661.951 126.888C661.482 126.685 661.082 126.397 660.751 126.024C660.421 125.64 660.165 125.181 659.983 124.648C659.802 124.104 659.711 123.501 659.711 122.84C659.711 122.179 659.802 121.581 659.983 121.048C660.165 120.504 660.421 120.045 660.751 119.672C661.082 119.288 661.482 118.995 661.951 118.792C662.431 118.589 662.959 118.488 663.535 118.488C664.111 118.488 664.634 118.589 665.103 118.792C665.583 118.995 665.989 119.288 666.319 119.672C666.65 120.045 666.906 120.504 667.087 121.048C667.269 121.581 667.359 122.179 667.359 122.84C667.359 123.501 667.269 124.104 667.087 124.648C666.906 125.181 666.65 125.64 666.319 126.024C665.989 126.397 665.583 126.685 665.103 126.888C664.634 127.091 664.111 127.192 663.535 127.192ZM663.535 125.752C664.133 125.752 664.613 125.571 664.975 125.208C665.338 124.835 665.519 124.28 665.519 123.544V122.136C665.519 121.4 665.338 120.851 664.975 120.488C664.613 120.115 664.133 119.928 663.535 119.928C662.938 119.928 662.458 120.115 662.095 120.488C661.733 120.851 661.551 121.4 661.551 122.136V123.544C661.551 124.28 661.733 124.835 662.095 125.208C662.458 125.571 662.938 125.752 663.535 125.752ZM671.943 127.192C671.153 127.192 670.492 127.053 669.959 126.776C669.425 126.499 668.961 126.115 668.567 125.624L669.687 124.6C669.996 124.973 670.337 125.267 670.711 125.48C671.095 125.683 671.537 125.784 672.039 125.784C672.551 125.784 672.929 125.688 673.175 125.496C673.431 125.293 673.559 125.016 673.559 124.664C673.559 124.397 673.468 124.173 673.287 123.992C673.116 123.8 672.812 123.677 672.375 123.624L671.607 123.528C670.753 123.421 670.081 123.176 669.591 122.792C669.111 122.397 668.871 121.816 668.871 121.048C668.871 120.643 668.945 120.285 669.095 119.976C669.244 119.656 669.452 119.389 669.719 119.176C669.996 118.952 670.321 118.781 670.695 118.664C671.079 118.547 671.5 118.488 671.959 118.488C672.705 118.488 673.313 118.605 673.783 118.84C674.263 119.075 674.689 119.4 675.063 119.816L673.991 120.84C673.777 120.584 673.495 120.365 673.143 120.184C672.801 119.992 672.407 119.896 671.959 119.896C671.479 119.896 671.121 119.992 670.887 120.184C670.663 120.376 670.551 120.627 670.551 120.936C670.551 121.256 670.652 121.496 670.855 121.656C671.057 121.816 671.383 121.933 671.831 122.008L672.599 122.104C673.516 122.243 674.183 122.515 674.599 122.92C675.025 123.315 675.239 123.848 675.239 124.52C675.239 124.925 675.159 125.293 674.999 125.624C674.849 125.944 674.631 126.221 674.343 126.456C674.055 126.691 673.708 126.872 673.303 127C672.897 127.128 672.444 127.192 671.943 127.192ZM679.404 127C678.796 127 678.337 126.845 678.028 126.536C677.718 126.216 677.564 125.768 677.564 125.192V120.104H676.268V118.68H676.972C677.26 118.68 677.457 118.616 677.564 118.488C677.681 118.36 677.74 118.152 677.74 117.864V116.408H679.308V118.68H681.052V120.104H679.308V125.576H680.924V127H679.404Z" fill="white"/>
</g>
<rect width="701" height="93" rx="8" fill="#F5F5F5"/>
<path d="M582.19 110H573.81C570.17 110 568 112.17 568 115.81V124.18C568 127.83 570.17 130 573.81 130H582.18C585.82 130 587.99 127.83 587.99 124.19V115.81C588 112.17 585.83 110 582.19 110ZM582.88 119.53C582.88 119.92 582.57 120.23 582.18 120.23C581.79 120.23 581.48 119.92 581.48 119.53V119.35L578.76 122.07C578.61 122.22 578.41 122.29 578.2 122.27C577.99 122.25 577.8 122.14 577.69 121.96L576.67 120.44L574.29 122.82C574.15 122.96 573.98 123.02 573.8 123.02C573.62 123.02 573.44 122.95 573.31 122.82C573.04 122.55 573.04 122.11 573.31 121.83L576.29 118.85C576.44 118.7 576.64 118.63 576.85 118.65C577.06 118.67 577.25 118.78 577.36 118.96L578.38 120.48L580.49 118.37H580.31C579.92 118.37 579.61 118.06 579.61 117.67C579.61 117.28 579.92 116.97 580.31 116.97H582.17C582.26 116.97 582.35 116.99 582.44 117.02C582.61 117.09 582.75 117.23 582.82 117.4C582.86 117.49 582.87 117.58 582.87 117.67V119.53H582.88Z" fill="#C2C8CF"/>
<path d="M614.19 110H605.81C602.17 110 600 112.17 600 115.81V124.18C600 127.83 602.17 130 605.81 130H614.18C617.82 130 619.99 127.83 619.99 124.19V115.81C620 112.17 617.83 110 614.19 110ZM614.88 122.33C614.88 122.42 614.86 122.51 614.83 122.6C614.76 122.77 614.62 122.91 614.45 122.98C614.36 123.02 614.27 123.03 614.18 123.03H612.32C611.93 123.03 611.62 122.72 611.62 122.33C611.62 121.94 611.93 121.63 612.32 121.63H612.5L610.39 119.52L609.37 121.04C609.25 121.21 609.07 121.33 608.86 121.35C608.65 121.37 608.45 121.3 608.3 121.15L605.32 118.17C605.05 117.9 605.05 117.46 605.32 117.18C605.59 116.9 606.03 116.91 606.31 117.18L608.69 119.56L609.71 118.04C609.83 117.87 610.01 117.75 610.22 117.73C610.44 117.71 610.63 117.78 610.78 117.93L613.5 120.65V120.47C613.5 120.08 613.81 119.77 614.2 119.77C614.59 119.77 614.9 120.08 614.9 120.47V122.33H614.88Z" fill="#C2C8CF"/>
<path d="M27.382 36.216C26.302 36.216 25.384 36.024 24.628 35.64C23.884 35.256 23.242 34.752 22.702 34.128L24.304 32.58C24.736 33.084 25.216 33.468 25.744 33.732C26.284 33.996 26.878 34.128 27.526 34.128C28.258 34.128 28.81 33.972 29.182 33.66C29.554 33.336 29.74 32.904 29.74 32.364C29.74 31.944 29.62 31.602 29.38 31.338C29.14 31.074 28.69 30.882 28.03 30.762L26.842 30.582C24.334 30.186 23.08 28.968 23.08 26.928C23.08 26.364 23.182 25.854 23.386 25.398C23.602 24.942 23.908 24.552 24.304 24.228C24.7 23.904 25.174 23.658 25.726 23.49C26.29 23.31 26.926 23.22 27.634 23.22C28.582 23.22 29.41 23.376 30.118 23.688C30.826 24 31.432 24.462 31.936 25.074L30.316 26.604C30.004 26.22 29.626 25.908 29.182 25.668C28.738 25.428 28.18 25.308 27.508 25.308C26.824 25.308 26.308 25.44 25.96 25.704C25.624 25.956 25.456 26.316 25.456 26.784C25.456 27.264 25.594 27.618 25.87 27.846C26.146 28.074 26.59 28.242 27.202 28.35L28.372 28.566C29.644 28.794 30.58 29.202 31.18 29.79C31.792 30.366 32.098 31.176 32.098 32.22C32.098 32.82 31.99 33.366 31.774 33.858C31.57 34.338 31.264 34.758 30.856 35.118C30.46 35.466 29.968 35.736 29.38 35.928C28.804 36.12 28.138 36.216 27.382 36.216ZM34.3359 22.68H36.6399V28.17H36.7299C36.9219 27.666 37.2219 27.246 37.6299 26.91C38.0499 26.562 38.6259 26.388 39.3579 26.388C40.3299 26.388 41.0739 26.706 41.5899 27.342C42.1059 27.978 42.3639 28.884 42.3639 30.06V36H40.0599V30.294C40.0599 29.622 39.9399 29.118 39.6999 28.782C39.4599 28.446 39.0639 28.278 38.5119 28.278C38.2719 28.278 38.0379 28.314 37.8099 28.386C37.5939 28.446 37.3959 28.542 37.2159 28.674C37.0479 28.794 36.9099 28.95 36.8019 29.142C36.6939 29.322 36.6399 29.538 36.6399 29.79V36H34.3359V22.68ZM51.8299 36C51.3259 36 50.9239 35.856 50.6239 35.568C50.3359 35.268 50.1559 34.872 50.0839 34.38H49.9759C49.8199 34.992 49.5019 35.454 49.0219 35.766C48.5419 36.066 47.9479 36.216 47.2399 36.216C46.2799 36.216 45.5419 35.964 45.0259 35.46C44.5099 34.956 44.2519 34.284 44.2519 33.444C44.2519 32.472 44.5999 31.752 45.2959 31.284C45.9919 30.804 46.9819 30.564 48.2659 30.564H49.8679V29.88C49.8679 29.352 49.7299 28.944 49.4539 28.656C49.1779 28.368 48.7339 28.224 48.1219 28.224C47.5819 28.224 47.1439 28.344 46.8079 28.584C46.4839 28.812 46.2079 29.088 45.9799 29.412L44.6119 28.188C44.9599 27.648 45.4219 27.216 45.9979 26.892C46.5739 26.556 47.3359 26.388 48.2839 26.388C49.5559 26.388 50.5219 26.676 51.1819 27.252C51.8419 27.828 52.1719 28.656 52.1719 29.736V34.164H53.1079V36H51.8299ZM48.0139 34.542C48.5299 34.542 48.9679 34.428 49.3279 34.2C49.6879 33.972 49.8679 33.636 49.8679 33.192V31.95H48.3919C47.1919 31.95 46.5919 32.334 46.5919 33.102V33.408C46.5919 33.792 46.7119 34.08 46.9519 34.272C47.2039 34.452 47.5579 34.542 48.0139 34.542ZM54.9726 36V26.604H57.2766V28.548H57.3666C57.4266 28.296 57.5166 28.056 57.6366 27.828C57.7686 27.588 57.9366 27.378 58.1406 27.198C58.3446 27.018 58.5846 26.874 58.8606 26.766C59.1486 26.658 59.4786 26.604 59.8506 26.604H60.3546V28.782H59.6346C58.8546 28.782 58.2666 28.896 57.8706 29.124C57.4746 29.352 57.2766 29.724 57.2766 30.24V36H54.9726ZM65.7491 36.216C65.0531 36.216 64.4291 36.102 63.8771 35.874C63.3371 35.634 62.8751 35.304 62.4911 34.884C62.1191 34.452 61.8311 33.936 61.6271 33.336C61.4231 32.724 61.3211 32.04 61.3211 31.284C61.3211 30.54 61.4171 29.868 61.6091 29.268C61.8131 28.668 62.1011 28.158 62.4731 27.738C62.8451 27.306 63.3011 26.976 63.8411 26.748C64.3811 26.508 64.9931 26.388 65.6771 26.388C66.4091 26.388 67.0451 26.514 67.5851 26.766C68.1251 27.018 68.5691 27.36 68.9171 27.792C69.2651 28.224 69.5231 28.728 69.6911 29.304C69.8711 29.868 69.9611 30.474 69.9611 31.122V31.878H63.7151V32.112C63.7151 32.796 63.9071 33.348 64.2911 33.768C64.6751 34.176 65.2451 34.38 66.0011 34.38C66.5771 34.38 67.0451 34.26 67.4051 34.02C67.7771 33.78 68.1071 33.474 68.3951 33.102L69.6371 34.488C69.2531 35.028 68.7251 35.454 68.0531 35.766C67.3931 36.066 66.6251 36.216 65.7491 36.216ZM65.7131 28.116C65.1011 28.116 64.6151 28.32 64.2551 28.728C63.8951 29.136 63.7151 29.664 63.7151 30.312V30.456H67.5671V30.294C67.5671 29.646 67.4051 29.124 67.0811 28.728C66.7691 28.32 66.3131 28.116 65.7131 28.116ZM82.0022 26.604H84.1622L80.3822 37.674C80.2622 38.01 80.1242 38.298 79.9682 38.538C79.8242 38.79 79.6502 38.994 79.4462 39.15C79.2422 39.306 78.9962 39.42 78.7082 39.492C78.4202 39.564 78.0842 39.6 77.7002 39.6H76.3142V37.764H78.0062L78.4382 36.45L75.0722 26.604H77.3582L78.9962 31.572L79.6082 33.948H79.7162L80.3642 31.572L82.0022 26.604ZM89.2846 36.216C88.6126 36.216 88.0066 36.102 87.4666 35.874C86.9386 35.646 86.4826 35.316 86.0986 34.884C85.7266 34.452 85.4386 33.936 85.2346 33.336C85.0306 32.724 84.9286 32.04 84.9286 31.284C84.9286 30.528 85.0306 29.85 85.2346 29.25C85.4386 28.65 85.7266 28.14 86.0986 27.72C86.4826 27.288 86.9386 26.958 87.4666 26.73C88.0066 26.502 88.6126 26.388 89.2846 26.388C89.9566 26.388 90.5626 26.502 91.1026 26.73C91.6426 26.958 92.0986 27.288 92.4706 27.72C92.8546 28.14 93.1486 28.65 93.3526 29.25C93.5566 29.85 93.6586 30.528 93.6586 31.284C93.6586 32.04 93.5566 32.724 93.3526 33.336C93.1486 33.936 92.8546 34.452 92.4706 34.884C92.0986 35.316 91.6426 35.646 91.1026 35.874C90.5626 36.102 89.9566 36.216 89.2846 36.216ZM89.2846 34.362C89.8966 34.362 90.3766 34.176 90.7246 33.804C91.0726 33.432 91.2466 32.886 91.2466 32.166V30.42C91.2466 29.712 91.0726 29.172 90.7246 28.8C90.3766 28.428 89.8966 28.242 89.2846 28.242C88.6846 28.242 88.2106 28.428 87.8626 28.8C87.5146 29.172 87.3406 29.712 87.3406 30.42V32.166C87.3406 32.886 87.5146 33.432 87.8626 33.804C88.2106 34.176 88.6846 34.362 89.2846 34.362ZM101.317 34.434H101.227C101.143 34.674 101.029 34.902 100.885 35.118C100.753 35.322 100.579 35.508 100.363 35.676C100.159 35.844 99.9071 35.976 99.6071 36.072C99.3191 36.168 98.9831 36.216 98.5991 36.216C97.6271 36.216 96.8831 35.898 96.3671 35.262C95.8511 34.626 95.5931 33.72 95.5931 32.544V26.604H97.8971V32.31C97.8971 32.958 98.0231 33.456 98.2751 33.804C98.5271 34.14 98.9291 34.308 99.4811 34.308C99.7091 34.308 99.9311 34.278 100.147 34.218C100.375 34.158 100.573 34.068 100.741 33.948C100.909 33.816 101.047 33.66 101.155 33.48C101.263 33.288 101.317 33.066 101.317 32.814V26.604H103.621V36H101.317V34.434ZM106.283 36V26.604H108.587V28.548H108.677C108.737 28.296 108.827 28.056 108.947 27.828C109.079 27.588 109.247 27.378 109.451 27.198C109.655 27.018 109.895 26.874 110.171 26.766C110.459 26.658 110.789 26.604 111.161 26.604H111.665V28.782H110.945C110.165 28.782 109.577 28.896 109.181 29.124C108.785 29.352 108.587 29.724 108.587 30.24V36H106.283ZM120.537 36C119.745 36 119.139 35.796 118.719 35.388C118.311 34.968 118.107 34.374 118.107 33.606V28.44H116.721V26.604H117.441C117.789 26.604 118.023 26.526 118.143 26.37C118.275 26.202 118.341 25.956 118.341 25.632V24.03H120.411V26.604H122.337V28.44H120.411V34.164H122.193V36H120.537ZM124.336 22.68H126.64V28.17H126.73C126.922 27.666 127.222 27.246 127.63 26.91C128.05 26.562 128.626 26.388 129.358 26.388C130.33 26.388 131.074 26.706 131.59 27.342C132.106 27.978 132.364 28.884 132.364 30.06V36H130.06V30.294C130.06 29.622 129.94 29.118 129.7 28.782C129.46 28.446 129.064 28.278 128.512 28.278C128.272 28.278 128.038 28.314 127.81 28.386C127.594 28.446 127.396 28.542 127.216 28.674C127.048 28.794 126.91 28.95 126.802 29.142C126.694 29.322 126.64 29.538 126.64 29.79V36H124.336V22.68ZM138.644 36.216C137.972 36.216 137.366 36.102 136.826 35.874C136.298 35.646 135.842 35.316 135.458 34.884C135.086 34.452 134.798 33.936 134.594 33.336C134.39 32.724 134.288 32.04 134.288 31.284C134.288 30.528 134.39 29.85 134.594 29.25C134.798 28.65 135.086 28.14 135.458 27.72C135.842 27.288 136.298 26.958 136.826 26.73C137.366 26.502 137.972 26.388 138.644 26.388C139.316 26.388 139.922 26.502 140.462 26.73C141.002 26.958 141.458 27.288 141.83 27.72C142.214 28.14 142.508 28.65 142.712 29.25C142.916 29.85 143.018 30.528 143.018 31.284C143.018 32.04 142.916 32.724 142.712 33.336C142.508 33.936 142.214 34.452 141.83 34.884C141.458 35.316 141.002 35.646 140.462 35.874C139.922 36.102 139.316 36.216 138.644 36.216ZM138.644 34.362C139.256 34.362 139.736 34.176 140.084 33.804C140.432 33.432 140.606 32.886 140.606 32.166V30.42C140.606 29.712 140.432 29.172 140.084 28.8C139.736 28.428 139.256 28.242 138.644 28.242C138.044 28.242 137.57 28.428 137.222 28.8C136.874 29.172 136.7 29.712 136.7 30.42V32.166C136.7 32.886 136.874 33.432 137.222 33.804C137.57 34.176 138.044 34.362 138.644 34.362ZM150.677 34.434H150.587C150.503 34.674 150.389 34.902 150.245 35.118C150.113 35.322 149.939 35.508 149.723 35.676C149.519 35.844 149.267 35.976 148.967 36.072C148.679 36.168 148.343 36.216 147.959 36.216C146.987 36.216 146.243 35.898 145.727 35.262C145.211 34.626 144.953 33.72 144.953 32.544V26.604H147.257V32.31C147.257 32.958 147.383 33.456 147.635 33.804C147.887 34.14 148.289 34.308 148.841 34.308C149.069 34.308 149.291 34.278 149.507 34.218C149.735 34.158 149.933 34.068 150.101 33.948C150.269 33.816 150.407 33.66 150.515 33.48C150.623 33.288 150.677 33.066 150.677 32.814V26.604H152.981V36H150.677V34.434ZM164.121 36.792C164.121 37.284 164.031 37.716 163.851 38.088C163.683 38.472 163.401 38.79 163.005 39.042C162.609 39.294 162.099 39.486 161.475 39.618C160.851 39.75 160.089 39.816 159.189 39.816C158.397 39.816 157.725 39.762 157.173 39.654C156.621 39.558 156.165 39.414 155.805 39.222C155.457 39.042 155.205 38.814 155.049 38.538C154.893 38.262 154.815 37.95 154.815 37.602C154.815 37.074 154.959 36.66 155.247 36.36C155.547 36.072 155.961 35.886 156.489 35.802V35.604C156.105 35.508 155.805 35.322 155.589 35.046C155.385 34.758 155.283 34.422 155.283 34.038C155.283 33.798 155.331 33.588 155.427 33.408C155.523 33.216 155.649 33.054 155.805 32.922C155.973 32.79 156.159 32.682 156.363 32.598C156.567 32.502 156.783 32.43 157.011 32.382V32.31C156.435 32.046 156.003 31.68 155.715 31.212C155.439 30.744 155.301 30.198 155.301 29.574C155.301 28.614 155.631 27.846 156.291 27.27C156.951 26.682 157.917 26.388 159.189 26.388C159.477 26.388 159.759 26.406 160.035 26.442C160.323 26.478 160.587 26.538 160.827 26.622V26.316C160.827 25.404 161.271 24.948 162.159 24.948H163.617V26.712H161.619V26.964C162.111 27.24 162.477 27.6 162.717 28.044C162.957 28.488 163.077 28.998 163.077 29.574C163.077 30.522 162.747 31.284 162.087 31.86C161.439 32.436 160.473 32.724 159.189 32.724C158.637 32.724 158.157 32.67 157.749 32.562C157.569 32.646 157.413 32.76 157.281 32.904C157.149 33.036 157.083 33.204 157.083 33.408C157.083 33.876 157.491 34.11 158.307 34.11H160.827C161.979 34.11 162.813 34.35 163.329 34.83C163.857 35.298 164.121 35.952 164.121 36.792ZM161.961 37.062C161.961 36.762 161.841 36.528 161.601 36.36C161.361 36.192 160.947 36.108 160.359 36.108H157.155C156.831 36.348 156.669 36.672 156.669 37.08C156.669 37.44 156.819 37.722 157.119 37.926C157.419 38.13 157.929 38.232 158.649 38.232H159.801C160.557 38.232 161.103 38.136 161.439 37.944C161.787 37.752 161.961 37.458 161.961 37.062ZM159.189 31.158C160.317 31.158 160.881 30.678 160.881 29.718V29.412C160.881 28.452 160.317 27.972 159.189 27.972C158.061 27.972 157.497 28.452 157.497 29.412V29.718C157.497 30.678 158.061 31.158 159.189 31.158ZM165.451 22.68H167.755V28.17H167.845C168.037 27.666 168.337 27.246 168.745 26.91C169.165 26.562 169.741 26.388 170.473 26.388C171.445 26.388 172.189 26.706 172.705 27.342C173.221 27.978 173.479 28.884 173.479 30.06V36H171.175V30.294C171.175 29.622 171.055 29.118 170.815 28.782C170.575 28.446 170.179 28.278 169.627 28.278C169.387 28.278 169.153 28.314 168.925 28.386C168.709 28.446 168.511 28.542 168.331 28.674C168.163 28.794 168.025 28.95 167.917 29.142C167.809 29.322 167.755 29.538 167.755 29.79V36H165.451V22.68ZM178.967 36C178.175 36 177.569 35.796 177.149 35.388C176.741 34.968 176.537 34.374 176.537 33.606V28.44H175.151V26.604H175.871C176.219 26.604 176.453 26.526 176.573 26.37C176.705 26.202 176.771 25.956 176.771 25.632V24.03H178.841V26.604H180.767V28.44H178.841V34.164H180.623V36H178.967ZM185.844 36.216C184.944 36.216 184.188 36.066 183.576 35.766C182.964 35.454 182.424 35.028 181.956 34.488L183.36 33.12C183.708 33.516 184.086 33.828 184.494 34.056C184.914 34.284 185.394 34.398 185.934 34.398C186.486 34.398 186.882 34.302 187.122 34.11C187.374 33.918 187.5 33.654 187.5 33.318C187.5 33.042 187.41 32.826 187.23 32.67C187.062 32.502 186.768 32.388 186.348 32.328L185.412 32.202C184.392 32.07 183.612 31.782 183.072 31.338C182.544 30.882 182.28 30.222 182.28 29.358C182.28 28.902 182.364 28.494 182.532 28.134C182.7 27.762 182.94 27.45 183.252 27.198C183.564 26.934 183.936 26.736 184.368 26.604C184.812 26.46 185.304 26.388 185.844 26.388C186.3 26.388 186.702 26.424 187.05 26.496C187.41 26.556 187.734 26.652 188.022 26.784C188.31 26.904 188.574 27.06 188.814 27.252C189.054 27.432 189.288 27.636 189.516 27.864L188.166 29.214C187.89 28.926 187.56 28.686 187.176 28.494C186.792 28.302 186.372 28.206 185.916 28.206C185.412 28.206 185.046 28.296 184.818 28.476C184.602 28.656 184.494 28.89 184.494 29.178C184.494 29.49 184.584 29.73 184.764 29.898C184.956 30.054 185.274 30.168 185.718 30.24L186.672 30.366C188.7 30.654 189.714 31.578 189.714 33.138C189.714 33.594 189.618 34.014 189.426 34.398C189.246 34.77 188.988 35.094 188.652 35.37C188.316 35.634 187.908 35.844 187.428 36C186.96 36.144 186.432 36.216 185.844 36.216Z" fill="#718096"/>
<path d="M115.15 114.17C114.74 113.95 113.88 113.72 112.71 114.54L111.24 115.58C111.13 112.47 109.78 111.25 106.5 111.25H100.5C97.08 111.25 95.75 112.58 95.75 116V124C95.75 126.3 97 128.75 100.5 128.75H106.5C109.78 128.75 111.13 127.53 111.24 124.42L112.71 125.46C113.33 125.9 113.87 126.04 114.3 126.04C114.67 126.04 114.96 125.93 115.15 125.83C115.56 125.62 116.25 125.05 116.25 123.62V116.38C116.25 114.95 115.56 114.38 115.15 114.17ZM105 119.38C103.97 119.38 103.12 118.54 103.12 117.5C103.12 116.46 103.97 115.62 105 115.62C106.03 115.62 106.88 116.46 106.88 117.5C106.88 118.54 106.03 119.38 105 119.38Z" fill="#C2C8CF"/>
<path d="M153 110C147.49 110 143 114.49 143 120C143 125.51 147.49 130 153 130C158.51 130 163 125.51 163 120C163 114.49 158.51 110 153 110ZM157.35 123.57C157.21 123.81 156.96 123.94 156.7 123.94C156.57 123.94 156.44 123.91 156.32 123.83L153.22 121.98C152.45 121.52 151.88 120.51 151.88 119.62V115.52C151.88 115.11 152.22 114.77 152.63 114.77C153.04 114.77 153.38 115.11 153.38 115.52V119.62C153.38 119.98 153.68 120.51 153.99 120.69L157.09 122.54C157.45 122.75 157.57 123.21 157.35 123.57Z" fill="#C2C8CF"/>
<path d="M247.75 122.52H247.98C248.31 122.52 248.59 122.22 248.59 121.85C248.59 121.38 248.48 121.32 248.16 121.21L247.75 121.07V122.52Z" fill="#C2C8CF"/>
<path d="M247 110C241.48 110 237 114.48 237 120C237 125.52 241.48 130 247 130C252.52 130 257 125.52 257 120C257 114.48 252.52 110 247 110ZM242.58 124.42C242.87 124.71 242.87 125.19 242.58 125.48C242.43 125.63 242.24 125.7 242.05 125.7C241.86 125.7 241.67 125.63 241.52 125.48C240.06 124.02 239.25 122.07 239.25 120C239.25 117.93 240.06 115.98 241.52 114.52C241.81 114.23 242.29 114.23 242.58 114.52C242.87 114.81 242.87 115.29 242.58 115.58C241.4 116.76 240.75 118.33 240.75 120C240.75 121.67 241.4 123.24 242.58 124.42ZM248.65 119.78C249.61 120.12 250.08 120.79 250.08 121.84C250.08 123.04 249.14 124.01 247.97 124.01H247.74V124.19C247.74 124.6 247.4 124.94 246.99 124.94C246.58 124.94 246.24 124.6 246.24 124.19V124.01H246.21C244.94 124.01 243.9 122.94 243.9 121.63C243.9 121.22 244.24 120.88 244.65 120.88C245.06 120.88 245.4 121.22 245.4 121.63C245.4 122.12 245.76 122.51 246.21 122.51H246.24V120.53L245.34 120.21C244.38 119.87 243.91 119.2 243.91 118.15C243.91 116.95 244.85 115.98 246.02 115.98H246.25V115.8C246.25 115.39 246.59 115.05 247 115.05C247.41 115.05 247.75 115.39 247.75 115.8V115.98H247.78C249.05 115.98 250.09 117.05 250.09 118.36C250.09 118.77 249.75 119.11 249.34 119.11C248.93 119.11 248.59 118.77 248.59 118.36C248.59 117.87 248.23 117.48 247.78 117.48H247.75V119.46L248.65 119.78ZM252.48 125.48C252.33 125.63 252.14 125.7 251.95 125.7C251.76 125.7 251.57 125.63 251.42 125.48C251.13 125.19 251.13 124.71 251.42 124.42C252.6 123.24 253.25 121.67 253.25 120C253.25 118.33 252.6 116.76 251.42 115.58C251.13 115.29 251.13 114.81 251.42 114.52C251.71 114.23 252.19 114.23 252.48 114.52C253.94 115.98 254.75 117.93 254.75 120C254.75 122.07 253.94 124.02 252.48 125.48Z" fill="#C2C8CF"/>
<path d="M245.42 118.16C245.42 118.63 245.53 118.69 245.85 118.8L246.26 118.94V117.48H246.03C245.69 117.48 245.42 117.79 245.42 118.16Z" fill="#C2C8CF"/>
<path d="M304 110.75H284C283.59 110.75 283.25 110.41 283.25 110C283.25 109.59 283.59 109.25 284 109.25H304C304.41 109.25 304.75 109.59 304.75 110C304.75 110.41 304.41 110.75 304 110.75Z" fill="#C2C8CF"/>
<path d="M298.67 130.34C298.54 130.6 298.27 130.75 298 130.75C297.89 130.75 297.77 130.72 297.67 130.67L294 128.84L290.33 130.67C290.23 130.72 290.11 130.75 290 130.75C289.73 130.75 289.46 130.6 289.33 130.34C289.14 129.96 289.29 129.51 289.67 129.33L293.25 127.54V125H294.75V127.54L298.33 129.33C298.71 129.51 298.86 129.96 298.67 130.34Z" fill="#C2C8CF"/>
<path d="M285 110V122.1C285 124 286 125 287.9 125H300.1C302 125 303 124 303 122.1V110H285ZM298.98 116.58L295.83 119.21C295.54 119.45 295.17 119.55 294.82 119.49C294.46 119.43 294.15 119.21 293.96 118.89L292.91 117.14L289.98 119.58C289.84 119.7 289.67 119.75 289.5 119.75C289.29 119.75 289.07 119.66 288.92 119.48C288.65 119.16 288.7 118.69 289.02 118.42L292.17 115.79C292.46 115.55 292.83 115.45 293.18 115.51C293.54 115.57 293.85 115.79 294.04 116.11L295.09 117.86L298.02 115.42C298.34 115.15 298.81 115.2 299.08 115.52C299.34 115.84 299.3 116.31 298.98 116.58Z" fill="#C2C8CF"/>
<path d="M345.19 110H336.81C333.17 110 331 112.17 331 115.81V124.18C331 127.83 333.17 130 336.81 130H345.18C348.82 130 350.99 127.83 350.99 124.19V115.81C351 112.17 348.83 110 345.19 110ZM345.37 122.35L343.15 124.57C342.61 125.11 341.91 125.37 341.21 125.37C340.51 125.37 339.8 125.1 339.27 124.57C338.75 124.05 338.46 123.36 338.46 122.63C338.46 121.9 338.75 121.2 339.27 120.69L340.68 119.28C340.97 118.99 341.45 118.99 341.74 119.28C342.03 119.57 342.03 120.05 341.74 120.34L340.33 121.75C340.09 121.99 339.96 122.3 339.96 122.63C339.96 122.96 340.09 123.28 340.33 123.51C340.82 124 341.61 124 342.1 123.51L344.32 121.29C345.59 120.02 345.59 117.96 344.32 116.69C343.05 115.42 340.99 115.42 339.72 116.69L337.3 119.11C336.79 119.62 336.51 120.29 336.51 121C336.51 121.71 336.79 122.39 337.3 122.89C337.59 123.18 337.59 123.66 337.3 123.95C337.01 124.24 336.53 124.24 336.24 123.95C335.44 123.18 335 122.13 335 121.01C335 119.89 335.43 118.84 336.22 118.05L338.64 115.63C340.49 113.78 343.51 113.78 345.36 115.63C347.22 117.48 347.22 120.5 345.37 122.35Z" fill="#C2C8CF"/>
<path d="M200 126C204.418 126 208 122.418 208 118C208 113.582 204.418 110 200 110C195.582 110 192 113.582 192 118C192 122.418 195.582 126 200 126Z" fill="#C2C8CF"/>
<path d="M206 130.75H194C193.59 130.75 193.25 130.41 193.25 130C193.25 129.59 193.59 129.25 194 129.25H206C206.41 129.25 206.75 129.59 206.75 130C206.75 130.41 206.41 130.75 206 130.75Z" fill="#C2C8CF"/>
<path d="M16.19 110H7.81C4.17 110 2 112.17 2 115.81V124.18C2 127.83 4.17 130 7.81 130H16.18C19.82 130 21.99 127.83 21.99 124.19V115.81C22 112.17 19.83 110 16.19 110ZM8.5 114.38C9.53 114.38 10.38 115.22 10.38 116.26C10.38 117.3 9.54 118.14 8.5 118.14C7.46 118.14 6.62 117.28 6.62 116.25C6.62 115.22 7.47 114.38 8.5 114.38ZM12 127.08C9.31 127.08 7.12 124.89 7.12 122.2C7.12 121.5 7.69 120.92 8.39 120.92H15.59C16.29 120.92 16.86 121.49 16.86 122.2C16.88 124.89 14.69 127.08 12 127.08ZM15.5 118.12C14.47 118.12 13.62 117.28 13.62 116.24C13.62 115.2 14.46 114.36 15.5 114.36C16.54 114.36 17.38 115.2 17.38 116.24C17.38 117.28 16.53 118.12 15.5 118.12Z" fill="#C2C8CF"/>
<path d="M49.5798 127.01L49.5598 127.03C49.2898 126.44 49.1198 125.77 49.0498 125.03C49.1198 125.76 49.3098 126.42 49.5798 127.01Z" fill="#C2C8CF"/>
<path d="M56.0001 118.38C57.3146 118.38 58.3801 117.315 58.3801 116C58.3801 114.686 57.3146 113.62 56.0001 113.62C54.6857 113.62 53.6201 114.686 53.6201 116C53.6201 117.315 54.6857 118.38 56.0001 118.38Z" fill="#C2C8CF"/>
<path d="M63.19 110H54.81C51.17 110 49 112.17 49 115.81V124.19C49 125.28 49.19 126.23 49.56 127.03C50.42 128.93 52.26 130 54.81 130H63.19C66.83 130 69 127.83 69 124.19V121.9V115.81C69 112.17 66.83 110 63.19 110ZM67.37 120.5C66.59 119.83 65.33 119.83 64.55 120.5L60.39 124.07C59.61 124.74 58.35 124.74 57.57 124.07L57.23 123.79C56.52 123.17 55.39 123.11 54.59 123.65L50.85 126.16C50.63 125.6 50.5 124.95 50.5 124.19V115.81C50.5 112.99 51.99 111.5 54.81 111.5H63.19C66.01 111.5 67.5 112.99 67.5 115.81V120.61L67.37 120.5Z" fill="#C2C8CF"/>
<path d="M391.8 110.21C391.39 109.8 390.68 110.08 390.68 110.65V114.14C390.68 115.6 391.92 116.81 393.43 116.81C394.38 116.82 395.7 116.82 396.83 116.82C397.4 116.82 397.7 116.15 397.3 115.75C395.86 114.3 393.28 111.69 391.8 110.21Z" fill="#C2C8CF"/>
<path d="M396.5 118.19H393.61C391.24 118.19 389.31 116.26 389.31 113.89V111C389.31 110.45 388.86 110 388.31 110H384.07C380.99 110 378.5 112 378.5 115.57V124.43C378.5 128 380.99 130 384.07 130H391.93C395.01 130 397.5 128 397.5 124.43V119.19C397.5 118.64 397.05 118.19 396.5 118.19ZM387.5 125.75H383.5C383.09 125.75 382.75 125.41 382.75 125C382.75 124.59 383.09 124.25 383.5 124.25H387.5C387.91 124.25 388.25 124.59 388.25 125C388.25 125.41 387.91 125.75 387.5 125.75ZM389.5 121.75H383.5C383.09 121.75 382.75 121.41 382.75 121C382.75 120.59 383.09 120.25 383.5 120.25H389.5C389.91 120.25 390.25 120.59 390.25 121C390.25 121.41 389.91 121.75 389.5 121.75Z" fill="#C2C8CF"/>
</svg>
