<svg width="30" height="30" viewBox="0 0 30 30" fill="none" xmlns="http://www.w3.org/2000/svg">
<path d="M10.625 2.81458C13.3323 1.25155 16.6677 1.25155 19.375 2.81458L23.3654 5.11843C26.0726 6.68147 27.7404 9.57008 27.7404 12.6962V17.3038C27.7404 20.4299 26.0726 23.3185 23.3654 24.8816L19.375 27.1854C16.6677 28.7485 13.3323 28.7485 10.625 27.1854L6.63462 24.8816C3.92736 23.3185 2.25962 20.4299 2.25962 17.3038V12.6962C2.25962 9.57008 3.92736 6.68147 6.63462 5.11843L10.625 2.81458Z" fill="#383838" stroke="url(#paint0_linear_427_737)" stroke-width="0.5"/>
<g clip-path="url(#clip0_427_737)">
<path d="M8.0002 14.9918C7.99424 16.4877 9.20209 17.7052 10.698 17.7111C11.3869 17.7139 12.051 17.454 12.5551 16.9843L16.5915 18.8068C16.5634 18.9577 16.548 19.1107 16.5455 19.2641C16.5407 20.7704 17.7578 21.9952 19.264 22C20.7703 22.0048 21.9951 20.7876 21.9999 19.2814C22.0047 17.7752 20.7875 16.5503 19.2813 16.5455C18.3814 16.5427 17.538 16.984 17.0273 17.7249L13.235 16.0125C13.5044 15.3621 13.5054 14.6315 13.2379 13.9804L17.025 12.2593C17.8777 13.4927 19.5689 13.8011 20.8022 12.9484C22.0356 12.0956 22.344 10.4045 21.4913 9.17117C20.6385 7.93781 18.9474 7.62931 17.714 8.48208C16.9795 8.98994 16.5417 9.82647 16.5431 10.7195C16.5456 10.8732 16.5612 11.0263 16.5897 11.1774L12.5638 13.0068C11.4731 11.9826 9.75859 12.0365 8.73438 13.1273C8.26035 13.6321 7.99763 14.2993 8.0002 14.9918Z" fill="white" fill-opacity="0.5"/>
</g>
<defs>
<linearGradient id="paint0_linear_427_737" x1="15" y1="0" x2="15" y2="30" gradientUnits="userSpaceOnUse">
<stop stop-color="white" stop-opacity="0.2"/>
<stop offset="1" stop-color="#929292" stop-opacity="0"/>
</linearGradient>
<clipPath id="clip0_427_737">
<rect width="14" height="14" fill="white" transform="translate(8 8)"/>
</clipPath>
</defs>
</svg>
