<svg width="214" height="34" viewBox="0 0 214 34" fill="none" xmlns="http://www.w3.org/2000/svg">
<path d="M34.1597 10.0986H39.3481C40.4717 10.0986 41.4053 10.1794 42.1406 10.3491C42.8759 10.5107 43.4707 10.7693 43.9003 11.1087C44.3382 11.4481 44.6439 11.8764 44.8174 12.3774C44.9991 12.8865 45.0818 13.4764 45.0818 14.1551C45.0818 14.939 44.9165 15.5854 44.5943 16.1107C44.2721 16.6278 43.6855 17.0076 42.8428 17.2339V17.3228C44.6439 17.7672 45.5444 18.9308 45.5444 20.8136C45.5444 21.4924 45.4535 22.1066 45.28 22.648C45.0983 23.1894 44.7926 23.65 44.363 24.0136C43.9251 24.3772 43.3385 24.6681 42.6032 24.8621C41.8679 25.056 40.9343 25.153 39.8107 25.153H34.1597V10.0986ZM38.6623 16.3046C39.2076 16.3046 39.6785 16.2804 40.0668 16.2319C40.4634 16.1753 40.7774 16.0864 41.0335 15.9571C41.2896 15.8278 41.4714 15.6501 41.587 15.4157C41.7027 15.1814 41.7688 14.8824 41.7688 14.5026C41.7688 14.1147 41.7109 13.7996 41.587 13.5733C41.4714 13.339 41.2896 13.1612 41.0417 13.0319C40.8021 12.9026 40.4799 12.8218 40.0751 12.7814C39.6785 12.741 39.1994 12.7249 38.6541 12.7249H37.5222V16.3046H38.6623ZM39.0837 22.5025C39.6703 22.5025 40.166 22.4702 40.5543 22.4136C40.9509 22.3571 41.2648 22.2601 41.4961 22.1227C41.7357 21.9853 41.901 21.7914 41.9918 21.549C42.091 21.3066 42.1323 20.9833 42.1323 20.5955C42.1323 20.248 42.0827 19.9571 41.9918 19.7066C41.8927 19.4642 41.7357 19.2621 41.5044 19.1086C41.2731 18.9551 40.9591 18.85 40.5626 18.7854C40.166 18.7207 39.6703 18.6884 39.0754 18.6884H37.5222V22.5106H39.0837V22.5025Z" fill="#081131"/>
<path d="M51.4762 13.4443H48.2623V25.1533H51.4762V13.4443Z" fill="#081131"/>
<path d="M58.2346 15.9084V21.1367C58.2346 21.4841 58.2511 21.7669 58.2924 21.977C58.3255 22.1952 58.3998 22.3649 58.499 22.4861C58.5981 22.6154 58.7386 22.6962 58.9203 22.7447C59.1021 22.7932 59.3251 22.8174 59.606 22.8174C59.9861 22.8174 60.3083 22.7851 60.5561 22.7286V25.1608C60.3166 25.1851 60.0687 25.2174 59.8043 25.2336C59.54 25.2578 59.2756 25.2659 59.0029 25.2659C58.2676 25.2659 57.6397 25.2093 57.1275 25.0962C56.6153 24.9831 56.2104 24.781 55.8965 24.4901C55.5826 24.1992 55.3595 23.8033 55.219 23.3023C55.0786 22.8013 55.0125 22.1629 55.0125 21.3952V15.9084H53.4427V13.4438H55.0208V10.6641H58.2346V13.4438H60.7131V15.9165H58.2346V15.9084Z" fill="#081131"/>
<path d="M84.5481 13.2422C85.556 13.2422 86.3987 13.323 87.0845 13.4927C87.7702 13.6543 88.3237 13.9048 88.7451 14.22C89.1664 14.5351 89.4721 14.9311 89.6539 15.3997C89.8439 15.8684 89.9348 16.4179 89.9348 17.032V25.1451H87.0514L86.7457 23.7794C86.4896 24.2158 86.0435 24.5875 85.3908 24.8946C84.7381 25.2016 83.9202 25.3632 82.9288 25.3632C81.5821 25.3632 80.5659 25.0723 79.8719 24.4824C79.1779 23.9006 78.8309 22.9956 78.8309 21.7835C78.8309 20.4259 79.244 19.4724 80.0867 18.9229C80.9212 18.3734 82.1439 18.0987 83.755 18.0987H86.7292V17.7997C86.7292 17.4522 86.6962 17.1532 86.6301 16.9108C86.564 16.6684 86.4318 16.4664 86.2418 16.3129C86.0517 16.1593 85.7956 16.0462 85.4651 15.9735C85.1347 15.9007 84.7133 15.8684 84.1763 15.8684C83.7467 15.8684 83.3171 15.8846 82.8875 15.925C82.4579 15.9654 82.0365 16.0139 81.6234 16.0866V13.42C82.0861 13.3634 82.5735 13.323 83.1105 13.2907C83.6393 13.2583 84.1185 13.2422 84.5481 13.2422ZM83.7467 22.9552C84.4903 22.9552 85.1099 22.8259 85.6304 22.5754C86.1509 22.3168 86.5061 21.9936 86.7127 21.5896V20.2239H84.2259C83.4245 20.2239 82.8544 20.3209 82.5074 20.5067C82.1604 20.6926 81.9869 21.0805 81.9869 21.6784C81.9869 22.1471 82.1191 22.4703 82.4 22.6643C82.6809 22.8582 83.1271 22.9552 83.7467 22.9552Z" fill="#081131"/>
<path d="M96.5191 25.2746C95.8251 25.2746 95.1559 25.2423 94.5032 25.1777C93.8505 25.113 93.2639 25.0241 92.7269 24.9029V22.2767C93.3053 22.4545 93.9084 22.5837 94.5528 22.6807C95.1972 22.7777 95.792 22.8262 96.3373 22.8262C97.0313 22.8262 97.5353 22.7454 97.8492 22.5918C98.1632 22.4302 98.3284 22.1231 98.3284 21.6625C98.3284 21.4282 98.2954 21.2343 98.2375 21.0807C98.1797 20.9191 98.064 20.7898 97.8905 20.6686C97.7253 20.5555 97.4857 20.4504 97.1966 20.3535C96.8991 20.2565 96.5108 20.1515 96.0234 20.0383C95.3872 19.8929 94.8667 19.7313 94.4536 19.5535C94.0406 19.3757 93.7101 19.1575 93.4787 18.907C93.2392 18.6484 93.0822 18.3495 92.9913 17.9939C92.9004 17.6384 92.8591 17.2182 92.8591 16.7252C92.8591 16.1758 92.9417 15.6828 93.1152 15.2546C93.2805 14.8182 93.5614 14.4546 93.9497 14.1556C94.3297 13.8566 94.8254 13.6303 95.4368 13.4687C96.0399 13.3071 96.7835 13.2344 97.651 13.2344C98.3202 13.2344 98.9481 13.2748 99.5429 13.3475C100.138 13.4202 100.609 13.5091 100.931 13.6303L100.799 16.0384C100.633 15.998 100.435 15.9495 100.204 15.901C99.9643 15.8525 99.7081 15.804 99.4355 15.7556C99.1629 15.7152 98.882 15.6747 98.5928 15.6424C98.3036 15.6182 98.031 15.602 97.7584 15.602C97.0148 15.602 96.5191 15.6828 96.263 15.8364C95.9986 15.998 95.8747 16.2808 95.8747 16.6848C95.8747 16.8707 95.8995 17.0242 95.949 17.1454C95.9986 17.2586 96.106 17.3636 96.2712 17.4444C96.4365 17.5333 96.6595 17.6222 96.9487 17.703C97.2379 17.7919 97.6179 17.8889 98.0888 18.0101C98.7415 18.1717 99.2785 18.3414 99.7081 18.5434C100.138 18.7373 100.476 18.9717 100.733 19.2383C100.989 19.505 101.154 19.8282 101.253 20.2161C101.344 20.5959 101.394 21.0565 101.394 21.5898C101.394 22.2848 101.286 22.8666 101.063 23.3353C100.84 23.8039 100.526 24.1837 100.113 24.4746C99.6999 24.7655 99.1876 24.9756 98.5845 25.1049C97.9732 25.2181 97.2874 25.2746 96.5191 25.2746Z" fill="#081131"/>
<path d="M115.067 8.66895V25.1455H112.167L111.928 23.5213C111.688 24.0546 111.292 24.491 110.746 24.8384C110.193 25.1859 109.367 25.3637 108.276 25.3637C107.301 25.3637 106.5 25.2182 105.88 24.9435C105.26 24.6607 104.773 24.2566 104.418 23.7314C104.062 23.198 103.823 22.5597 103.691 21.8082C103.559 21.0567 103.492 20.2163 103.492 19.2951C103.492 18.4547 103.559 17.6708 103.691 16.9355C103.823 16.2002 104.062 15.5537 104.418 15.0042C104.773 14.4547 105.26 14.0184 105.88 13.7032C106.5 13.3881 107.301 13.2265 108.276 13.2265C109.367 13.2265 110.184 13.38 110.721 13.6951C111.259 14.0022 111.647 14.4224 111.886 14.9396V8.66895H115.067ZM109.284 22.9799C109.829 22.9799 110.284 22.8991 110.639 22.7455C110.994 22.5839 111.275 22.3496 111.482 22.0344C111.688 21.7193 111.837 21.3233 111.911 20.8708C111.994 20.4102 112.035 19.893 112.035 19.2951C112.035 18.7294 111.994 18.2203 111.911 17.7678C111.829 17.3072 111.688 16.9193 111.482 16.5961C111.275 16.2729 110.994 16.0143 110.639 15.8365C110.284 15.6507 109.837 15.5618 109.284 15.5618C108.722 15.5618 108.276 15.6588 107.946 15.8688C107.615 16.0709 107.359 16.3456 107.194 16.6769C107.028 17.0163 106.913 17.4123 106.863 17.8567C106.814 18.3092 106.789 18.786 106.789 19.287C106.789 19.8203 106.814 20.3132 106.863 20.7738C106.913 21.2264 107.028 21.6142 107.21 21.9455C107.384 22.2688 107.64 22.5193 107.979 22.7051C108.301 22.891 108.739 22.9799 109.284 22.9799Z" fill="#081131"/>
<path d="M123.312 13.2422C124.32 13.2422 125.163 13.323 125.849 13.4927C126.534 13.6543 127.088 13.9048 127.509 14.22C127.931 14.5351 128.236 14.9311 128.418 15.3997C128.608 15.8684 128.699 16.4179 128.699 17.032V25.1451H125.816L125.51 23.7794C125.254 24.2158 124.808 24.5875 124.155 24.8946C123.502 25.2016 122.684 25.3632 121.693 25.3632C120.346 25.3632 119.33 25.0723 118.636 24.4824C117.942 23.9006 117.595 22.9956 117.595 21.7835C117.595 20.4259 118.008 19.4724 118.851 18.9229C119.685 18.3734 120.908 18.0987 122.519 18.0987H125.493V17.7997C125.493 17.4522 125.46 17.1532 125.394 16.9108C125.328 16.6684 125.196 16.4664 125.006 16.3129C124.816 16.1593 124.56 16.0462 124.229 15.9735C123.907 15.9007 123.477 15.8684 122.94 15.8684C122.511 15.8684 122.081 15.8846 121.652 15.925C121.222 15.9654 120.801 16.0139 120.388 16.0866V13.42C120.85 13.3634 121.338 13.323 121.875 13.2907C122.403 13.2583 122.883 13.2422 123.312 13.2422ZM122.519 22.9552C123.263 22.9552 123.882 22.8259 124.403 22.5754C124.923 22.3168 125.279 21.9936 125.485 21.5896V20.2239H122.998C122.197 20.2239 121.627 20.3209 121.28 20.5067C120.933 20.6926 120.759 21.0805 120.759 21.6784C120.759 22.1471 120.892 22.4703 121.172 22.6643C121.453 22.8582 121.899 22.9552 122.519 22.9552Z" fill="#081131"/>
<path d="M143 13.4447V29.4849H139.786V23.5214C139.546 24.0709 139.158 24.5153 138.621 24.8547C138.084 25.1941 137.266 25.3638 136.176 25.3638C135.201 25.3638 134.399 25.2183 133.78 24.9436C133.16 24.6608 132.673 24.2567 132.317 23.7315C131.962 23.1981 131.723 22.5598 131.59 21.8083C131.458 21.0568 131.392 20.2164 131.392 19.2952C131.392 18.4548 131.458 17.6709 131.59 16.9356C131.723 16.2003 131.962 15.5538 132.317 15.0043C132.673 14.4548 133.16 14.0185 133.78 13.7033C134.399 13.3882 135.201 13.2266 136.176 13.2266C137.266 13.2266 138.084 13.3801 138.621 13.6952C139.158 14.0104 139.546 14.4225 139.786 14.9397V13.4447H143ZM137.192 22.98C137.737 22.98 138.192 22.8992 138.547 22.7456C138.902 22.584 139.183 22.3497 139.39 22.0345C139.596 21.7194 139.745 21.3234 139.819 20.8709C139.902 20.4103 139.943 19.8931 139.943 19.2952C139.943 18.7295 139.902 18.2204 139.819 17.7679C139.736 17.3073 139.596 16.9194 139.39 16.5962C139.183 16.273 138.902 16.0144 138.547 15.8366C138.192 15.6508 137.745 15.5619 137.192 15.5619C136.63 15.5619 136.184 15.6589 135.853 15.869C135.523 16.071 135.267 16.3457 135.102 16.677C134.936 17.0164 134.821 17.4124 134.771 17.8568C134.722 18.3093 134.697 18.7861 134.697 19.2871C134.697 19.8204 134.722 20.3133 134.771 20.7739C134.821 21.2265 134.936 21.6143 135.118 21.9456C135.292 22.2689 135.548 22.5194 135.887 22.7052C136.209 22.8911 136.647 22.98 137.192 22.98Z" fill="#081131"/>
<path d="M66.1245 14.0665H69.1235L73.0065 21.3553H73.1139L78.3932 8.29688H81.0452L74.882 24.9997H72.1473L67.7686 17.121H67.6611L65.3148 24.9997H62.6462L66.1245 14.0665Z" fill="#081131"/>
<path d="M80.9793 5L75.7744 8.59591L82.6895 11.004L80.9793 5Z" fill="#081131"/>
<path d="M49.8735 6.43848L46.4944 11.6263H53.2525L49.8735 6.43848Z" fill="#081131"/>
<path d="M74.8819 25.0074L74.9232 24.8781L73.0395 21.363H72.9982L69.6935 15.149L69.1152 14.0742H66.1244L68.0907 17.7105L72.1472 25.0074H74.8819Z" fill="#081131"/>
<path d="M19.7466 16.3489L24.9235 9.73617L16.9389 0H0V34H19.1563L26.5423 23.7532L19.7466 16.3489ZM14.0722 5.34468L17.3857 9.81277L15.0586 11.7617L10.4382 5.34468H14.0722ZM5.02517 8.55319H6.36578L10.4298 14.5957H5.02517V8.55319ZM5.02517 29.0213C4.78909 29.0213 5.02517 21.7277 5.02517 21.7277H6.33205L11.1464 29.0213C11.1464 29.0213 5.26125 29.0213 5.02517 29.0213ZM16.7196 27.1064L11.4247 19.5319H15.691L19.2828 24.5532L16.7196 27.1064Z" fill="url(#paint0_linear_408_1890)"/>
<path d="M155.72 25.192C154.781 25.192 153.981 25.0213 153.32 24.68C152.669 24.3387 152.109 23.88 151.64 23.304L152.888 22.136C153.283 22.616 153.715 22.9787 154.184 23.224C154.664 23.4693 155.208 23.592 155.816 23.592C156.531 23.592 157.069 23.432 157.432 23.112C157.795 22.792 157.976 22.36 157.976 21.816C157.976 21.3787 157.848 21.032 157.592 20.776C157.336 20.52 156.883 20.328 156.232 20.2L155.24 20.024C154.152 19.8213 153.336 19.464 152.792 18.952C152.248 18.44 151.976 17.736 151.976 16.84C151.976 16.3493 152.067 15.9067 152.248 15.512C152.44 15.1067 152.701 14.7707 153.032 14.504C153.373 14.2267 153.784 14.0133 154.264 13.864C154.744 13.7147 155.283 13.64 155.88 13.64C156.723 13.64 157.453 13.7893 158.072 14.088C158.691 14.376 159.219 14.7973 159.656 15.352L158.392 16.472C158.104 16.0987 157.752 15.8 157.336 15.576C156.92 15.352 156.403 15.24 155.784 15.24C155.144 15.24 154.648 15.368 154.296 15.624C153.944 15.88 153.768 16.2533 153.768 16.744C153.768 17.2133 153.912 17.5653 154.2 17.8C154.488 18.024 154.936 18.1947 155.544 18.312L156.536 18.52C157.656 18.7333 158.472 19.096 158.984 19.608C159.507 20.12 159.768 20.824 159.768 21.72C159.768 22.2427 159.677 22.7173 159.496 23.144C159.315 23.5707 159.048 23.9387 158.696 24.248C158.355 24.5467 157.933 24.7813 157.432 24.952C156.931 25.112 156.36 25.192 155.72 25.192ZM168.931 27.768H167.347C166.717 27.768 166.253 27.608 165.955 27.288C165.667 26.968 165.523 26.536 165.523 25.992V25.144C164.893 25.0693 164.328 24.888 163.827 24.6C163.325 24.312 162.899 23.928 162.547 23.448C162.195 22.968 161.923 22.392 161.731 21.72C161.539 21.0373 161.443 20.2693 161.443 19.416C161.443 18.4773 161.555 17.6507 161.779 16.936C162.013 16.2107 162.339 15.608 162.755 15.128C163.181 14.6373 163.688 14.2693 164.275 14.024C164.872 13.768 165.533 13.64 166.259 13.64C166.984 13.64 167.64 13.768 168.227 14.024C168.824 14.2693 169.331 14.6373 169.747 15.128C170.173 15.608 170.499 16.2107 170.723 16.936C170.957 17.6507 171.075 18.4773 171.075 19.416C171.075 21.08 170.728 22.3973 170.035 23.368C169.341 24.328 168.403 24.9093 167.219 25.112V26.264H168.931V27.768ZM166.259 23.576C166.685 23.576 167.075 23.5013 167.427 23.352C167.789 23.2027 168.093 22.9893 168.339 22.712C168.595 22.424 168.792 22.0773 168.931 21.672C169.069 21.2667 169.139 20.808 169.139 20.296V18.536C169.139 18.024 169.069 17.5653 168.931 17.16C168.792 16.7547 168.595 16.4133 168.339 16.136C168.093 15.848 167.789 15.6293 167.427 15.48C167.075 15.3307 166.685 15.256 166.259 15.256C165.821 15.256 165.427 15.3307 165.075 15.48C164.723 15.6293 164.419 15.848 164.163 16.136C163.917 16.4133 163.725 16.7547 163.587 17.16C163.448 17.5653 163.379 18.024 163.379 18.536V20.296C163.379 20.808 163.448 21.2667 163.587 21.672C163.725 22.0773 163.917 22.424 164.163 22.712C164.419 22.9893 164.723 23.2027 165.075 23.352C165.427 23.5013 165.821 23.576 166.259 23.576ZM175.041 13.832V20.712C175.041 21.6613 175.222 22.376 175.585 22.856C175.948 23.336 176.566 23.576 177.441 23.576C178.316 23.576 178.934 23.336 179.297 22.856C179.66 22.376 179.841 21.6613 179.841 20.712V13.832H181.617V20.424C181.617 21.2453 181.542 21.9547 181.393 22.552C181.244 23.1493 181.004 23.6453 180.673 24.04C180.342 24.424 179.91 24.712 179.377 24.904C178.854 25.096 178.209 25.192 177.441 25.192C176.673 25.192 176.022 25.096 175.489 24.904C174.966 24.712 174.54 24.424 174.209 24.04C173.878 23.6453 173.638 23.1493 173.489 22.552C173.34 21.9547 173.265 21.2453 173.265 20.424V13.832H175.041ZM190.993 25L189.985 21.976H185.809L184.833 25H182.993L186.801 13.832H189.073L192.881 25H190.993ZM187.937 15.496H187.857L186.241 20.424H189.537L187.937 15.496ZM196.418 25H194.61V13.832H199.426C200.429 13.832 201.218 14.136 201.794 14.744C202.37 15.3413 202.658 16.1573 202.658 17.192C202.658 17.992 202.472 18.6587 202.098 19.192C201.736 19.7147 201.197 20.0827 200.482 20.296L202.898 25H200.882L198.642 20.488H196.418V25ZM199.298 18.968C199.757 18.968 200.114 18.8507 200.37 18.616C200.626 18.3707 200.754 18.024 200.754 17.576V16.808C200.754 16.36 200.626 16.0187 200.37 15.784C200.114 15.5387 199.757 15.416 199.298 15.416H196.418V18.968H199.298ZM205.095 25V13.832H212.247V15.432H206.903V18.536H211.751V20.136H206.903V23.4H212.247V25H205.095Z" fill="#718096"/>
<defs>
<linearGradient id="paint0_linear_408_1890" x1="13.2686" y1="0.00382979" x2="13.2686" y2="34.0047" gradientUnits="userSpaceOnUse">
<stop offset="5.20186e-07" stop-color="#FFA700"/>
<stop offset="1" stop-color="#FF7F00"/>
</linearGradient>
</defs>
</svg>
