<svg width="43" height="46" viewBox="0 0 43 46" fill="none" xmlns="http://www.w3.org/2000/svg">
<g filter="url(#filter0_d_900_2976)">
<path d="M17.125 2.81458C19.8323 1.25155 23.1677 1.25155 25.875 2.81458L33.7625 7.36843C36.4698 8.93147 38.1375 11.8201 38.1375 14.9462V24.0538C38.1375 27.1799 36.4698 30.0685 33.7625 31.6316L25.875 36.1854C23.1677 37.7485 19.8323 37.7485 17.125 36.1854L9.2375 31.6316C6.53024 30.0685 4.8625 27.1799 4.8625 24.0538V14.9462C4.8625 11.8201 6.53025 8.93147 9.2375 7.36843L17.125 2.81458Z" fill="#383838" stroke="url(#paint0_linear_900_2976)" stroke-width="0.5"/>
<path fill-rule="evenodd" clip-rule="evenodd" d="M26.0206 22.2887C26.5532 22.2097 27.2393 22.1943 28.1812 22.1915C27.5113 23.8159 26.094 25.0425 24.3487 25.4518L24.3447 25.4528C24.3534 24.7752 24.3777 24.2527 24.4441 23.8306C24.5308 23.2784 24.6792 22.9733 24.9008 22.7517C25.1275 22.525 25.4421 22.3746 26.0206 22.2887ZM24.6402 11.3055C22.9036 10.8982 21.0964 10.8982 19.3598 11.3055C16.8519 11.8938 14.8938 13.8519 14.3055 16.3598C13.8982 18.0964 13.8982 19.9036 14.3055 21.6402C14.8938 24.1481 16.8519 26.1062 19.3598 26.6945C20.8184 27.0366 22.3269 27.0914 23.8015 26.8588C24.0825 26.8145 24.3623 26.7597 24.6402 26.6945C27.1481 26.1062 29.1062 24.1481 29.6945 21.6402C30.1018 19.9036 30.1018 18.0964 29.6945 16.3598C29.1062 13.8519 27.1481 11.8938 24.6402 11.3055ZM18.9367 16.4472C18.9367 16.1652 19.1652 15.9367 19.4472 15.9367H22C22.2819 15.9367 22.5105 16.1652 22.5105 16.4472C22.5105 16.7292 22.2819 16.9578 22 16.9578H19.4472C19.1652 16.9578 18.9367 16.7292 18.9367 16.4472ZM18.9367 19C18.9367 18.718 19.1652 18.4894 19.4472 18.4894H23.7018C23.9838 18.4894 24.2124 18.718 24.2124 19C24.2124 19.2819 23.9838 19.5105 23.7018 19.5105H19.4472C19.1652 19.5105 18.9367 19.2819 18.9367 19Z" fill="#929292"/>
</g>
<defs>
<filter id="filter0_d_900_2976" x="0.612305" y="1.39233" width="41.7754" height="44.2153" filterUnits="userSpaceOnUse" color-interpolation-filters="sRGB">
<feFlood flood-opacity="0" result="BackgroundImageFix"/>
<feColorMatrix in="SourceAlpha" type="matrix" values="0 0 0 0 0 0 0 0 0 0 0 0 0 0 0 0 0 0 127 0" result="hardAlpha"/>
<feOffset dy="4"/>
<feGaussianBlur stdDeviation="2"/>
<feComposite in2="hardAlpha" operator="out"/>
<feColorMatrix type="matrix" values="0 0 0 0 0 0 0 0 0 0 0 0 0 0 0 0 0 0 0.25 0"/>
<feBlend mode="normal" in2="BackgroundImageFix" result="effect1_dropShadow_900_2976"/>
<feBlend mode="normal" in="SourceGraphic" in2="effect1_dropShadow_900_2976" result="shape"/>
</filter>
<linearGradient id="paint0_linear_900_2976" x1="21.5" y1="0" x2="21.5" y2="39" gradientUnits="userSpaceOnUse">
<stop stop-color="white" stop-opacity="0.2"/>
<stop offset="1" stop-color="#929292" stop-opacity="0"/>
</linearGradient>
</defs>
</svg>
