<svg width="17" height="16" viewBox="0 0 17 16" fill="none" xmlns="http://www.w3.org/2000/svg">
<g clip-path="url(#clip0_202_2956)">
<path d="M8.7959 16C13.2146 16 16.7959 12.4188 16.7959 8C16.7959 3.58125 13.2146 6.40592e-07 8.7959 2.54292e-07C4.37715 -1.32007e-07 0.7959 3.58125 0.7959 8C0.7959 12.4187 4.37715 16 8.7959 16ZM7.74278 3.00937C7.74278 2.77812 7.93028 2.5875 8.16153 2.5875L9.42715 2.5875C9.6584 2.5875 9.84902 2.775 9.84902 3.00625L9.84902 9.475C9.84902 9.70625 9.66152 9.89687 9.43027 9.89687L8.16465 9.89687C7.9334 9.89687 7.74277 9.70937 7.74277 9.47812L7.74278 3.00937ZM8.7959 10.975C9.46777 10.975 10.0146 11.5219 10.0146 12.1937C10.0146 12.8656 9.46777 13.4125 8.7959 13.4125C8.12402 13.4125 7.57715 12.8656 7.57715 12.1937C7.57715 11.5219 8.12402 10.975 8.7959 10.975Z" fill="white" fill-opacity="0.5"/>
</g>
<defs>
<clipPath id="clip0_202_2956">
<rect width="16" height="16" fill="white" transform="translate(16.7959 16) rotate(-180)"/>
</clipPath>
</defs>
</svg>
