<svg width="99" height="121" viewBox="0 0 99 121" fill="none" xmlns="http://www.w3.org/2000/svg">
<circle cx="49.5" cy="71.5" r="47.7308" stroke="url(#paint0_linear_1231_2106)" stroke-width="2.46154"/>
<path d="M7.57254 19.8478L7.6632 19.8065C7.6632 19.8065 13.5511 24.9053 16.4097 31.1671L39.1505 20.7905C36.2919 14.5287 36.2969 6.74089 36.2969 6.74089L36.3876 6.6995C37.6115 6.14104 38.153 4.68772 37.5937 3.4626C37.0344 2.23743 35.5815 1.69422 34.3576 2.25268C33.1336 2.81117 32.592 4.26449 33.1513 5.48966C33.2618 5.73168 33.3956 5.94475 33.5678 6.12206L29.6632 11.6868L19.5714 4.77786C19.9811 4.11576 20.0784 3.24899 19.7262 2.47758C19.1669 1.25247 17.7141 0.70918 16.4901 1.26767C15.2662 1.82616 14.7246 3.27953 15.2838 4.50464C15.636 5.27605 16.3396 5.77735 17.1235 5.89484L15.7317 18.0438L8.96853 17.3467C8.93231 17.1074 8.87409 16.8598 8.76361 16.6178C8.2043 15.3926 6.75133 14.8494 5.52744 15.4079C4.32554 15.9746 3.77701 17.4128 4.33631 18.638C4.89559 19.8631 6.34864 20.4063 7.57254 19.8478Z" fill="#FF9B00"/>
<path d="M39.8536 24.4872L18.7273 34.1272C18.306 34.3194 17.8305 34.1542 17.6467 33.7516L16.9707 32.2708L39.6167 21.9374L40.2928 23.4182C40.455 23.8132 40.2749 24.295 39.8536 24.4872Z" fill="#FF9B00"/>
<defs>
<linearGradient id="paint0_linear_1231_2106" x1="49.5" y1="25" x2="49.5" y2="118" gradientUnits="userSpaceOnUse">
<stop stop-color="#FFD200"/>
<stop offset="1" stop-color="#F7971E"/>
</linearGradient>
</defs>
</svg>
