<svg width="54" height="56" viewBox="0 0 54 56" fill="none" xmlns="http://www.w3.org/2000/svg">
<g filter="url(#filter0_d_66_1599)">
<path d="M22.5 11.5981C25.2846 9.99038 28.7154 9.99038 31.5 11.5981L38.9545 15.9019C41.7391 17.5096 43.4545 20.4808 43.4545 23.6962V32.3038C43.4545 35.5192 41.7391 38.4904 38.9545 40.0981L31.5 44.4019C28.7154 46.0096 25.2846 46.0096 22.5 44.4019L15.0455 40.0981C12.2609 38.4904 10.5455 35.5192 10.5455 32.3038V23.6962C10.5455 20.4808 12.2609 17.5096 15.0455 15.9019L22.5 11.5981Z" fill="#FFD200" fill-opacity="0.21" shape-rendering="crispEdges"/>
<path d="M22.625 11.8146C25.3323 10.2515 28.6677 10.2515 31.375 11.8146L38.8295 16.1184C41.5367 17.6815 43.2045 20.5701 43.2045 23.6962V32.3038C43.2045 35.4299 41.5367 38.3185 38.8295 39.8816L31.375 44.1854C28.6677 45.7485 25.3323 45.7485 22.625 44.1854L15.1705 39.8816C12.4633 38.3185 10.7955 35.4299 10.7955 32.3038V23.6962C10.7955 20.5701 12.4633 17.6815 15.1705 16.1184L22.625 11.8146Z" stroke="url(#paint0_linear_66_1599)" stroke-width="0.5" shape-rendering="crispEdges"/>
</g>
<path opacity="0.4" d="M34 25C34 26.45 33.57 27.78 32.83 28.89C31.75 30.49 30.04 31.62 28.05 31.91C27.71 31.97 27.36 32 27 32C26.64 32 26.29 31.97 25.95 31.91C23.96 31.62 22.25 30.49 21.17 28.89C20.43 27.78 20 26.45 20 25C20 21.13 23.13 18 27 18C30.87 18 34 21.13 34 25Z" fill="url(#paint1_linear_66_1599)"/>
<path d="M36.25 34.47L34.6 34.86C34.23 34.95 33.94 35.23 33.86 35.6L33.51 37.07C33.32 37.87 32.3 38.11 31.77 37.48L27 32L22.23 37.49C21.7 38.12 20.68 37.88 20.49 37.08L20.14 35.61C20.05 35.24 19.76 34.95 19.4 34.87L17.75 34.48C16.99 34.3 16.72 33.35 17.27 32.8L21.17 28.9C22.25 30.5 23.96 31.63 25.95 31.92C26.29 31.98 26.64 32.01 27 32.01C27.36 32.01 27.71 31.98 28.05 31.92C30.04 31.63 31.75 30.5 32.83 28.9L36.73 32.8C37.28 33.34 37.01 34.29 36.25 34.47Z" fill="url(#paint2_linear_66_1599)"/>
<path d="M27.58 21.98L28.17 23.16C28.25 23.32 28.46 23.48 28.65 23.51L29.72 23.69C30.4 23.8 30.56 24.3 30.07 24.79L29.24 25.62C29.1 25.76 29.02 26.03 29.07 26.23L29.31 27.26C29.5 28.07 29.07 28.39 28.35 27.96L27.35 27.37C27.17 27.26 26.87 27.26 26.69 27.37L25.69 27.96C24.97 28.38 24.54 28.07 24.73 27.26L24.97 26.23C25.01 26.04 24.94 25.76 24.8 25.62L23.97 24.79C23.48 24.3 23.64 23.81 24.32 23.69L25.39 23.51C25.57 23.48 25.78 23.32 25.86 23.16L26.45 21.98C26.74 21.34 27.26 21.34 27.58 21.98Z" fill="url(#paint3_linear_66_1599)"/>
<defs>
<filter id="filter0_d_66_1599" x="0.545517" y="0.392303" width="52.909" height="55.2154" filterUnits="userSpaceOnUse" color-interpolation-filters="sRGB">
<feFlood flood-opacity="0" result="BackgroundImageFix"/>
<feColorMatrix in="SourceAlpha" type="matrix" values="0 0 0 0 0 0 0 0 0 0 0 0 0 0 0 0 0 0 127 0" result="hardAlpha"/>
<feOffset/>
<feGaussianBlur stdDeviation="5"/>
<feComposite in2="hardAlpha" operator="out"/>
<feColorMatrix type="matrix" values="0 0 0 0 1 0 0 0 0 0.823529 0 0 0 0 0 0 0 0 0.5 0"/>
<feBlend mode="normal" in2="BackgroundImageFix" result="effect1_dropShadow_66_1599"/>
<feBlend mode="normal" in="SourceGraphic" in2="effect1_dropShadow_66_1599" result="shape"/>
</filter>
<linearGradient id="paint0_linear_66_1599" x1="27" y1="9" x2="27" y2="47" gradientUnits="userSpaceOnUse">
<stop stop-color="#FFD200"/>
<stop offset="1" stop-color="#2E2600"/>
</linearGradient>
<linearGradient id="paint1_linear_66_1599" x1="27" y1="18" x2="27" y2="32" gradientUnits="userSpaceOnUse">
<stop stop-color="#FFF9DE"/>
<stop offset="1" stop-color="#FFD200"/>
</linearGradient>
<linearGradient id="paint2_linear_66_1599" x1="27" y1="28.9" x2="27" y2="37.8485" gradientUnits="userSpaceOnUse">
<stop stop-color="#FFF9DE"/>
<stop offset="1" stop-color="#FFD200"/>
</linearGradient>
<linearGradient id="paint3_linear_66_1599" x1="27.02" y1="21.5" x2="27.02" y2="28.1515" gradientUnits="userSpaceOnUse">
<stop stop-color="#FFF9DE"/>
<stop offset="1" stop-color="#FFD200"/>
</linearGradient>
</defs>
</svg>
