<svg width="93" height="93" viewBox="0 0 93 93" fill="none" xmlns="http://www.w3.org/2000/svg">
<ellipse opacity="0.1" cx="46.5" cy="90.2102" rx="46.5" ry="2.79" fill="#718096"/>
<rect x="28.9672" y="39.6394" width="35.0656" height="47.2623" fill="url(#paint0_linear_1960_4901)"/>
<path d="M48.0702 43.4053L40.3558 51.1197C39.3648 50.1287 38.755 48.7718 38.755 47.2625C38.755 44.2438 41.1943 41.8044 44.213 41.8044C45.7224 41.8044 47.0793 42.4143 48.0702 43.4053Z" stroke="#081131" stroke-width="1.5" stroke-linecap="round" stroke-linejoin="round"/>
<path d="M53.0862 37.7642C50.4181 35.7518 47.3689 34.6541 44.213 34.6541C38.8312 34.6541 33.8153 37.8252 30.324 43.3137C28.9519 45.4634 28.9519 49.0767 30.324 51.2263C31.5284 53.1168 32.9311 54.7482 34.4557 56.0593" stroke="#081131" stroke-width="1.5" stroke-linecap="round" stroke-linejoin="round"/>
<path d="M38.755 58.7426C40.493 59.4744 42.3378 59.8708 44.213 59.8708C49.5948 59.8708 54.6107 56.6997 58.1021 51.2111C59.4742 49.0615 59.4742 45.4482 58.1021 43.2985C57.5989 42.5057 57.0501 41.7587 56.486 41.0574" stroke="#081131" stroke-width="1.5" stroke-linecap="round" stroke-linejoin="round"/>
<path d="M49.5644 48.3296C49.168 50.4793 47.4147 52.2325 45.265 52.6289" stroke="#081131" stroke-width="1.5" stroke-linecap="round" stroke-linejoin="round"/>
<path d="M40.3559 51.1196L28.9672 62.5083" stroke="#081131" stroke-width="1.5" stroke-linecap="round" stroke-linejoin="round"/>
<path d="M59.459 32.0164L48.0703 43.405" stroke="#081131" stroke-width="1.5" stroke-linecap="round" stroke-linejoin="round"/>
<circle cx="8.72167" cy="16.3181" r="1.95092" fill="#F3F5F7"/>
<circle cx="59.1795" cy="8.60309" r="3.63581" fill="#F3F5F7"/>
<circle cx="9.34236" cy="57.3762" r="3.45845" fill="#F3F5F7"/>
<circle cx="71.2397" cy="54.0063" r="3.45845" fill="#F3F5F7"/>
<circle cx="64.5002" cy="57.9083" r="1.68489" fill="#F3F5F7"/>
<path d="M44.4583 11.3834C44.0417 11.2948 44.0417 10.7002 44.4583 10.6116C44.6101 10.5793 44.729 10.4607 44.7619 10.3091C44.8525 9.89108 45.4495 9.89108 45.5401 10.3091C45.573 10.4607 45.6919 10.5793 45.8437 10.6116C46.2603 10.7002 46.2603 11.2948 45.8437 11.3834C45.6919 11.4157 45.573 11.5342 45.5401 11.6859C45.4495 12.1039 44.8525 12.1039 44.7619 11.6859C44.729 11.5342 44.6101 11.4157 44.4583 11.3834Z" fill="#E1E1E1"/>
<path d="M4.69254 41.0618C4.85152 40.3108 5.92361 40.3108 6.08259 41.0618C6.14047 41.3353 6.35397 41.5495 6.62706 41.609C7.38178 41.7734 7.38178 42.852 6.62706 43.0164C6.35397 43.0759 6.14047 43.2901 6.08259 43.5635C5.92361 44.3146 4.85152 44.3146 4.69254 43.5635C4.63467 43.2901 4.42116 43.0759 4.14807 43.0164C3.39335 42.852 3.39335 41.7734 4.14807 41.609C4.42116 41.5495 4.63467 41.3353 4.69254 41.0618Z" fill="#E1E1E1"/>
<path d="M65.4099 18.5752C65.5192 18.0589 66.2561 18.0589 66.3654 18.5752C66.4052 18.7631 66.5519 18.9104 66.7397 18.9513C67.2585 19.0643 67.2585 19.8057 66.7397 19.9187C66.5519 19.9596 66.4052 20.1068 66.3654 20.2948C66.2561 20.8111 65.5192 20.8111 65.4099 20.2948C65.3701 20.1068 65.2234 19.9596 65.0356 19.9187C64.5169 19.8057 64.5169 19.0643 65.0356 18.9513C65.2234 18.9104 65.3701 18.7631 65.4099 18.5752Z" fill="#E1E1E1"/>
<path d="M72.8641 43.335L73.4072 45.9008L75.9364 46.4518L73.4072 47.0028L72.8641 49.5687L72.321 47.0028L69.7917 46.4518L72.321 45.9008L72.8641 43.335Z" fill="white"/>
<path d="M65.0573 56.4098C65.0573 60.3437 61.8682 63.5328 57.9344 63.5328C54.0005 63.5328 50.8114 60.3437 50.8114 56.4098C50.8114 52.4759 54.0005 49.2869 57.9344 49.2869C61.8682 49.2869 65.0573 52.4759 65.0573 56.4098Z" fill="white" stroke="black"/>
<path d="M58.7424 56.4097L60.4957 54.6564C60.7168 54.4354 60.7168 54.0695 60.4957 53.8484C60.2746 53.6274 59.9087 53.6274 59.6877 53.8484L57.9344 55.6017L56.1811 53.8484C55.96 53.6274 55.5941 53.6274 55.3731 53.8484C55.152 54.0695 55.152 54.4354 55.3731 54.6564L57.1264 56.4097L55.3731 58.163C55.152 58.3841 55.152 58.75 55.3731 58.971C55.4874 59.0854 55.6323 59.1387 55.7771 59.1387C55.9219 59.1387 56.0668 59.0854 56.1811 58.971L57.9344 57.2178L59.6877 58.971C59.802 59.0854 59.9468 59.1387 60.0917 59.1387C60.2365 59.1387 60.3814 59.0854 60.4957 58.971C60.7168 58.75 60.7168 58.3841 60.4957 58.163L58.7424 56.4097Z" fill="#DA4434"/>
<defs>
<linearGradient id="paint0_linear_1960_4901" x1="46.5" y1="39.6394" x2="46.5" y2="86.9017" gradientUnits="userSpaceOnUse">
<stop stop-color="white" stop-opacity="0"/>
<stop offset="1" stop-color="#BEBEBE" stop-opacity="0.65"/>
</linearGradient>
</defs>
</svg>
