<svg width="200" height="123" viewBox="0 0 200 123" fill="none" xmlns="http://www.w3.org/2000/svg">
<rect x="0.5" y="0.5" width="198.815" height="122" rx="3.5" fill="#FAFAFA" stroke="#E1E1E1" stroke-dasharray="3 3"/>
<path d="M52.088 78.832V85.712C52.088 86.6613 52.2693 87.376 52.632 87.856C52.9947 88.336 53.6133 88.576 54.488 88.576C55.3627 88.576 55.9813 88.336 56.344 87.856C56.7067 87.376 56.888 86.6613 56.888 85.712V78.832H58.664V85.424C58.664 86.2453 58.5893 86.9547 58.44 87.552C58.2907 88.1493 58.0507 88.6453 57.72 89.04C57.3893 89.424 56.9573 89.712 56.424 89.904C55.9013 90.096 55.256 90.192 54.488 90.192C53.72 90.192 53.0693 90.096 52.536 89.904C52.0133 89.712 51.5867 89.424 51.256 89.04C50.9253 88.6453 50.6853 88.1493 50.536 87.552C50.3867 86.9547 50.312 86.2453 50.312 85.424V78.832H52.088ZM61.2168 81.68H62.9608V83.056H63.0408C63.2221 82.5547 63.5154 82.1707 63.9208 81.904C64.3368 81.6267 64.8221 81.488 65.3768 81.488C66.4328 81.488 67.2488 81.872 67.8248 82.64C68.4008 83.3973 68.6888 84.464 68.6888 85.84C68.6888 87.216 68.4008 88.288 67.8248 89.056C67.2488 89.8133 66.4328 90.192 65.3768 90.192C64.8221 90.192 64.3368 90.0533 63.9208 89.776C63.5154 89.4987 63.2221 89.1147 63.0408 88.624H62.9608V93.2H61.2168V81.68ZM64.8488 88.688C65.4568 88.688 65.9421 88.496 66.3048 88.112C66.6674 87.7173 66.8488 87.2 66.8488 86.56V85.12C66.8488 84.48 66.6674 83.968 66.3048 83.584C65.9421 83.1893 65.4568 82.992 64.8488 82.992C64.3154 82.992 63.8674 83.1253 63.5048 83.392C63.1421 83.648 62.9608 83.9893 62.9608 84.416V87.264C62.9608 87.6907 63.1421 88.0373 63.5048 88.304C63.8674 88.56 64.3154 88.688 64.8488 88.688ZM72.4615 90C71.8642 90 71.4162 89.8507 71.1175 89.552C70.8295 89.2427 70.6855 88.816 70.6855 88.272V78.16H72.4295V88.576H73.5815V90H72.4615ZM78.512 90.192C77.936 90.192 77.408 90.0907 76.928 89.888C76.4587 89.6853 76.0587 89.3973 75.728 89.024C75.3973 88.64 75.1413 88.1813 74.96 87.648C74.7787 87.104 74.688 86.5013 74.688 85.84C74.688 85.1787 74.7787 84.5813 74.96 84.048C75.1413 83.504 75.3973 83.0453 75.728 82.672C76.0587 82.288 76.4587 81.9947 76.928 81.792C77.408 81.5893 77.936 81.488 78.512 81.488C79.088 81.488 79.6107 81.5893 80.08 81.792C80.56 81.9947 80.9653 82.288 81.296 82.672C81.6267 83.0453 81.8827 83.504 82.064 84.048C82.2453 84.5813 82.336 85.1787 82.336 85.84C82.336 86.5013 82.2453 87.104 82.064 87.648C81.8827 88.1813 81.6267 88.64 81.296 89.024C80.9653 89.3973 80.56 89.6853 80.08 89.888C79.6107 90.0907 79.088 90.192 78.512 90.192ZM78.512 88.752C79.1093 88.752 79.5893 88.5707 79.952 88.208C80.3147 87.8347 80.496 87.28 80.496 86.544V85.136C80.496 84.4 80.3147 83.8507 79.952 83.488C79.5893 83.1147 79.1093 82.928 78.512 82.928C77.9147 82.928 77.4347 83.1147 77.072 83.488C76.7093 83.8507 76.528 84.4 76.528 85.136V86.544C76.528 87.28 76.7093 87.8347 77.072 88.208C77.4347 88.5707 77.9147 88.752 78.512 88.752ZM90.3753 90C89.9166 90 89.5646 89.872 89.3193 89.616C89.0739 89.3493 88.9246 89.0133 88.8713 88.608H88.7913C88.6313 89.1307 88.3379 89.5253 87.9113 89.792C87.4846 90.0587 86.9673 90.192 86.3593 90.192C85.4953 90.192 84.8286 89.968 84.3593 89.52C83.9006 89.072 83.6713 88.4693 83.6713 87.712C83.6713 86.88 83.9699 86.256 84.5673 85.84C85.1753 85.424 86.0606 85.216 87.2233 85.216H88.7273V84.512C88.7273 84 88.5886 83.6053 88.3113 83.328C88.0339 83.0507 87.6019 82.912 87.0153 82.912C86.5246 82.912 86.1246 83.0187 85.8153 83.232C85.5059 83.4453 85.2446 83.7173 85.0312 84.048L83.9913 83.104C84.2686 82.6347 84.6579 82.2507 85.1593 81.952C85.6606 81.6427 86.3166 81.488 87.1273 81.488C88.2046 81.488 89.0313 81.7387 89.6073 82.24C90.1833 82.7413 90.4713 83.4613 90.4713 84.4V88.576H91.3513V90H90.3753ZM86.8553 88.864C87.3993 88.864 87.8473 88.7467 88.1993 88.512C88.5513 88.2667 88.7273 87.9413 88.7273 87.536V86.336H87.2552C86.0499 86.336 85.4473 86.7093 85.4473 87.456V87.744C85.4473 88.1173 85.5699 88.4 85.8153 88.592C86.0713 88.7733 86.4179 88.864 86.8553 88.864ZM98.2925 88.624H98.2125C98.0312 89.1147 97.7325 89.4987 97.3165 89.776C96.9112 90.0533 96.4312 90.192 95.8765 90.192C94.8205 90.192 94.0045 89.8133 93.4285 89.056C92.8525 88.288 92.5645 87.216 92.5645 85.84C92.5645 84.464 92.8525 83.3973 93.4285 82.64C94.0045 81.872 94.8205 81.488 95.8765 81.488C96.4312 81.488 96.9112 81.6267 97.3165 81.904C97.7325 82.1707 98.0312 82.5547 98.2125 83.056H98.2925V78.16H100.036V90H98.2925V88.624ZM96.4045 88.688C96.9378 88.688 97.3858 88.56 97.7485 88.304C98.1112 88.0373 98.2925 87.6907 98.2925 87.264V84.416C98.2925 83.9893 98.1112 83.648 97.7485 83.392C97.3858 83.1253 96.9378 82.992 96.4045 82.992C95.7965 82.992 95.3112 83.1893 94.9485 83.584C94.5858 83.968 94.4045 84.48 94.4045 85.12V86.56C94.4045 87.2 94.5858 87.7173 94.9485 88.112C95.3112 88.496 95.7965 88.688 96.4045 88.688ZM110.631 90.192C109.169 90.192 108.023 89.7013 107.191 88.72C106.359 87.728 105.943 86.2933 105.943 84.416C105.943 83.4773 106.049 82.6507 106.263 81.936C106.476 81.2213 106.785 80.6187 107.191 80.128C107.596 79.6373 108.087 79.2693 108.663 79.024C109.249 78.768 109.905 78.64 110.631 78.64C111.601 78.64 112.412 78.8533 113.062 79.28C113.724 79.7067 114.241 80.336 114.615 81.168L113.095 82C112.903 81.4667 112.604 81.0453 112.199 80.736C111.804 80.416 111.281 80.256 110.631 80.256C109.767 80.256 109.089 80.5493 108.599 81.136C108.108 81.7227 107.863 82.5333 107.863 83.568V85.264C107.863 86.2987 108.108 87.1093 108.599 87.696C109.089 88.2827 109.767 88.576 110.631 88.576C111.303 88.576 111.847 88.4053 112.263 88.064C112.689 87.712 113.004 87.264 113.207 86.72L114.663 87.6C114.289 88.4107 113.767 89.0453 113.095 89.504C112.423 89.9627 111.601 90.192 110.631 90.192ZM119.715 90.192C119.139 90.192 118.611 90.0907 118.131 89.888C117.662 89.6853 117.262 89.3973 116.931 89.024C116.6 88.64 116.344 88.1813 116.163 87.648C115.982 87.104 115.891 86.5013 115.891 85.84C115.891 85.1787 115.982 84.5813 116.163 84.048C116.344 83.504 116.6 83.0453 116.931 82.672C117.262 82.288 117.662 81.9947 118.131 81.792C118.611 81.5893 119.139 81.488 119.715 81.488C120.291 81.488 120.814 81.5893 121.283 81.792C121.763 81.9947 122.168 82.288 122.499 82.672C122.83 83.0453 123.086 83.504 123.267 84.048C123.448 84.5813 123.539 85.1787 123.539 85.84C123.539 86.5013 123.448 87.104 123.267 87.648C123.086 88.1813 122.83 88.64 122.499 89.024C122.168 89.3973 121.763 89.6853 121.283 89.888C120.814 90.0907 120.291 90.192 119.715 90.192ZM119.715 88.752C120.312 88.752 120.792 88.5707 121.155 88.208C121.518 87.8347 121.699 87.28 121.699 86.544V85.136C121.699 84.4 121.518 83.8507 121.155 83.488C120.792 83.1147 120.312 82.928 119.715 82.928C119.118 82.928 118.638 83.1147 118.275 83.488C117.912 83.8507 117.731 84.4 117.731 85.136V86.544C117.731 87.28 117.912 87.8347 118.275 88.208C118.638 88.5707 119.118 88.752 119.715 88.752ZM127.165 90L124.333 81.68H126.061L127.325 85.472L128.173 88.384H128.269L129.117 85.472L130.413 81.68H132.077L129.213 90H127.165ZM136.684 90.192C136.087 90.192 135.553 90.0907 135.084 89.888C134.615 89.6853 134.215 89.3973 133.884 89.024C133.553 88.64 133.297 88.1813 133.116 87.648C132.945 87.104 132.86 86.5013 132.86 85.84C132.86 85.1787 132.945 84.5813 133.116 84.048C133.297 83.504 133.553 83.0453 133.884 82.672C134.215 82.288 134.615 81.9947 135.084 81.792C135.553 81.5893 136.087 81.488 136.684 81.488C137.292 81.488 137.825 81.5947 138.284 81.808C138.753 82.0213 139.143 82.32 139.452 82.704C139.761 83.0773 139.991 83.5147 140.14 84.016C140.3 84.5173 140.38 85.056 140.38 85.632V86.288H134.668V86.56C134.668 87.2 134.855 87.728 135.228 88.144C135.612 88.5493 136.156 88.752 136.86 88.752C137.372 88.752 137.804 88.64 138.156 88.416C138.508 88.192 138.807 87.888 139.052 87.504L140.076 88.512C139.767 89.024 139.319 89.4347 138.732 89.744C138.145 90.0427 137.463 90.192 136.684 90.192ZM136.684 82.848C136.385 82.848 136.108 82.9013 135.852 83.008C135.607 83.1147 135.393 83.264 135.212 83.456C135.041 83.648 134.908 83.8773 134.812 84.144C134.716 84.4107 134.668 84.704 134.668 85.024V85.136H138.54V84.976C138.54 84.336 138.375 83.824 138.044 83.44C137.713 83.0453 137.26 82.848 136.684 82.848ZM142.311 90V81.68H144.055V83.28H144.135C144.252 82.8533 144.497 82.48 144.871 82.16C145.244 81.84 145.761 81.68 146.423 81.68H146.887V83.36H146.199C145.505 83.36 144.972 83.472 144.599 83.696C144.236 83.92 144.055 84.2507 144.055 84.688V90H142.311Z" fill="#718096"/>
<path d="M87.5113 59.9308L87.4841 59.9592C87.1167 59.1233 86.8853 58.1742 86.79 57.1258C86.8853 58.16 87.1439 59.095 87.5113 59.9308Z" fill="#718096"/>
<path d="M96.2483 47.705C98.0371 47.705 99.4872 46.1955 99.4872 44.3333C99.4872 42.4712 98.0371 40.9617 96.2483 40.9617C94.4594 40.9617 93.0093 42.4712 93.0093 44.3333C93.0093 46.1955 94.4594 47.705 96.2483 47.705Z" fill="#718096"/>
<path d="M106.033 35.8333H94.6286C89.6749 35.8333 86.7217 38.9075 86.7217 44.0642V55.9358C86.7217 57.48 86.9803 58.8258 87.4838 59.9592C88.6542 62.6508 91.1583 64.1667 94.6286 64.1667H106.033C110.987 64.1667 113.94 61.0925 113.94 55.9358V52.6917V44.0642C113.94 38.9075 110.987 35.8333 106.033 35.8333ZM111.722 50.7083C110.66 49.7592 108.945 49.7592 107.884 50.7083L102.223 55.7658C101.161 56.715 99.4463 56.715 98.3847 55.7658L97.922 55.3692C96.9558 54.4908 95.4179 54.4058 94.3292 55.1708L89.2394 58.7267C88.94 57.9333 88.7631 57.0125 88.7631 55.9358V44.0642C88.7631 40.0692 90.7908 37.9583 94.6286 37.9583H106.033C109.871 37.9583 111.899 40.0692 111.899 44.0642V50.8642L111.722 50.7083Z" fill="#718096"/>
</svg>
