<svg width="33" height="34" viewBox="0 0 33 34" fill="none" xmlns="http://www.w3.org/2000/svg">
<path d="M3.51133 26.9308L3.48411 26.9592C3.11666 26.1233 2.8853 25.1742 2.79004 24.1258C2.8853 25.16 3.14388 26.095 3.51133 26.9308Z" fill="#718096"/>
<path d="M12.2483 14.705C14.0371 14.705 15.4872 13.1955 15.4872 11.3333C15.4872 9.47122 14.0371 7.96167 12.2483 7.96167C10.4594 7.96167 9.00928 9.47122 9.00928 11.3333C9.00928 13.1955 10.4594 14.705 12.2483 14.705Z" fill="#718096"/>
<path d="M22.0331 2.83334H10.6286C5.67487 2.83334 2.72168 5.90751 2.72168 11.0642V22.9358C2.72168 24.48 2.98025 25.8258 3.48379 26.9592C4.65418 29.6508 7.15827 31.1667 10.6286 31.1667H22.0331C26.9869 31.1667 29.94 28.0925 29.94 22.9358V19.6917V11.0642C29.94 5.90751 26.9869 2.83334 22.0331 2.83334ZM27.7218 17.7083C26.6602 16.7592 24.9455 16.7592 23.884 17.7083L18.2225 22.7658C17.161 23.715 15.4463 23.715 14.3847 22.7658L13.922 22.3692C12.9558 21.4908 11.4179 21.4058 10.3292 22.1708L5.23938 25.7267C4.93998 24.9333 4.76306 24.0125 4.76306 22.9358V11.0642C4.76306 7.06918 6.79083 4.95834 10.6286 4.95834H22.0331C25.8709 4.95834 27.8987 7.06918 27.8987 11.0642V17.8642L27.7218 17.7083Z" fill="#718096"/>
</svg>
