<svg width="15" height="15" viewBox="0 0 15 15" fill="none" xmlns="http://www.w3.org/2000/svg">
<path d="M7.5 7.96875C5.51875 7.96875 3.90625 6.35625 3.90625 4.375C3.90625 2.39375 5.51875 0.78125 7.5 0.78125C9.48125 0.78125 11.0938 2.39375 11.0938 4.375C11.0938 6.35625 9.48125 7.96875 7.5 7.96875ZM7.5 1.71875C6.0375 1.71875 4.84375 2.9125 4.84375 4.375C4.84375 5.8375 6.0375 7.03125 7.5 7.03125C8.9625 7.03125 10.1562 5.8375 10.1562 4.375C10.1562 2.9125 8.9625 1.71875 7.5 1.71875Z" fill="url(#paint0_linear_361_10106)"/>
<path d="M12.8684 14.2188C12.6121 14.2188 12.3996 14.0062 12.3996 13.75C12.3996 11.5938 10.1996 9.84375 7.49961 9.84375C4.79961 9.84375 2.59961 11.5938 2.59961 13.75C2.59961 14.0062 2.38711 14.2188 2.13086 14.2188C1.87461 14.2188 1.66211 14.0062 1.66211 13.75C1.66211 11.0812 4.28086 8.90625 7.49961 8.90625C10.7184 8.90625 13.3371 11.0812 13.3371 13.75C13.3371 14.0062 13.1246 14.2188 12.8684 14.2188Z" fill="url(#paint1_linear_361_10106)"/>
<defs>
<linearGradient id="paint0_linear_361_10106" x1="7.5" y1="0.78125" x2="7.5" y2="7.96875" gradientUnits="userSpaceOnUse">
<stop stop-color="#FFD200"/>
<stop offset="1" stop-color="#F7971E"/>
</linearGradient>
<linearGradient id="paint1_linear_361_10106" x1="7.49961" y1="8.90625" x2="7.49961" y2="14.2188" gradientUnits="userSpaceOnUse">
<stop stop-color="#FFD200"/>
<stop offset="1" stop-color="#F7971E"/>
</linearGradient>
</defs>
</svg>
