<svg width="57" height="62" viewBox="0 0 57 62" fill="none" xmlns="http://www.w3.org/2000/svg">
<g filter="url(#filter0_d_866_1422)">
<path d="M24.0664 2.59808C26.851 0.990381 30.2818 0.990381 33.0664 2.59808L47.4491 10.9019C50.2337 12.5096 51.9491 15.4808 51.9491 18.6962V35.3038C51.9491 38.5192 50.2337 41.4904 47.4491 43.0981L33.0664 51.4019C30.2818 53.0096 26.851 53.0096 24.0664 51.4019L9.68372 43.0981C6.89911 41.4904 5.18372 38.5192 5.18372 35.3038V18.6962C5.18372 15.4808 6.89911 12.5096 9.68372 10.9019L24.0664 2.59808Z" fill="#060C05"/>
<path d="M24.3164 3.03109C26.9463 1.51271 30.1865 1.51271 32.8164 3.03109L47.1991 11.3349C49.829 12.8533 51.4491 15.6594 51.4491 18.6962V35.3038C51.4491 38.3406 49.829 41.1467 47.1991 42.6651L32.8164 50.9689C30.1865 52.4873 26.9463 52.4873 24.3164 50.9689L9.93372 42.6651C7.30381 41.1467 5.68372 38.3406 5.68372 35.3038V18.6962C5.68372 15.6594 7.30381 12.8533 9.93372 11.3349L24.3164 3.03109Z" stroke="url(#paint0_linear_866_1422)"/>
</g>
<defs>
<filter id="filter0_d_866_1422" x="0.183594" y="0.392334" width="56.7656" height="61.2153" filterUnits="userSpaceOnUse" color-interpolation-filters="sRGB">
<feFlood flood-opacity="0" result="BackgroundImageFix"/>
<feColorMatrix in="SourceAlpha" type="matrix" values="0 0 0 0 0 0 0 0 0 0 0 0 0 0 0 0 0 0 127 0" result="hardAlpha"/>
<feOffset dy="4"/>
<feGaussianBlur stdDeviation="2.5"/>
<feComposite in2="hardAlpha" operator="out"/>
<feColorMatrix type="matrix" values="0 0 0 0 1 0 0 0 0 0.662745 0 0 0 0 0.160784 0 0 0 0.25 0"/>
<feBlend mode="normal" in2="BackgroundImageFix" result="effect1_dropShadow_866_1422"/>
<feBlend mode="normal" in="SourceGraphic" in2="effect1_dropShadow_866_1422" result="shape"/>
</filter>
<linearGradient id="paint0_linear_866_1422" x1="28.5664" y1="0" x2="28.5664" y2="54" gradientUnits="userSpaceOnUse">
<stop stop-color="#231700"/>
<stop offset="1" stop-color="#FFA500"/>
</linearGradient>
</defs>
</svg>
