<svg width="2" height="6" viewBox="0 0 2 6" fill="none" xmlns="http://www.w3.org/2000/svg">
<path d="M1.35386 4.76379C1.35386 4.90287 1.29879 5.03625 1.20076 5.13459C1.10273 5.23293 0.969772 5.28818 0.831136 5.28818H0.522727C0.384091 5.28818 0.251133 5.23293 0.153103 5.13459C0.0550725 5.03625 0 4.90287 0 4.76379V0.657813C0 0.518736 0.0550725 0.385355 0.153103 0.287013C0.251133 0.188671 0.384091 0.133423 0.522727 0.133423H0.794546C0.933182 0.133423 1.06614 0.188671 1.16417 0.287013C1.2622 0.385355 1.31727 0.518736 1.31727 0.657813L1.35386 4.76379Z" fill="url(#paint0_linear_222_6123)"/>
<defs>
<linearGradient id="paint0_linear_222_6123" x1="0.679546" y1="5.27769" x2="0.679546" y2="0.143911" gradientUnits="userSpaceOnUse">
<stop offset="0.5" stop-color="#CCD1D9"/>
</linearGradient>
</defs>
</svg>
